<?xml version="1.0" encoding="UTF-8" standalone="no"?>
<!DOCTYPE svg PUBLIC "-//W3C//DTD SVG 1.1//EN"
 "http://www.w3.org/Graphics/SVG/1.1/DTD/svg11.dtd">
<!-- Generated by graphviz version 2.43.0 (0)
 -->
<!-- Title: ChatManager.DrawColorCodedString Pages: 1 -->
<svg width="1007pt" height="192pt"
 viewBox="0.00 0.00 1007.00 191.50" xmlns="http://www.w3.org/2000/svg" xmlns:xlink="http://www.w3.org/1999/xlink">
<g id="graph0" class="graph" transform="scale(1 1) rotate(0) translate(4 187.5)">
<title>ChatManager.DrawColorCodedString</title>
<polygon fill="white" stroke="transparent" points="-4,4 -4,-187.5 1003,-187.5 1003,4 -4,4"/>
<!-- Node1 -->
<g id="node1" class="node">
<title>Node1</title>
<g id="a_node1"><a xlink:title=" ">
<polygon fill="#bfbfbf" stroke="black" points="0,-71 0,-101 166,-101 166,-71 0,-71"/>
<text text-anchor="start" x="8" y="-89" font-family="Helvetica,sans-Serif" font-size="10.00">ChatManager.DrawColorCoded</text>
<text text-anchor="middle" x="83" y="-78" font-family="Helvetica,sans-Serif" font-size="10.00">String</text>
</a>
</g>
</g>
<!-- Node2 -->
<g id="node2" class="node">
<title>Node2</title>
<g id="a_node2"><a xlink:href="../../d1/da8/classDynamicSpriteFontExtensionMethods_a486d15d13d93b4b4fa7810ecd507f0cf.html#a486d15d13d93b4b4fa7810ecd507f0cf" target="_top" xlink:title=" ">
<polygon fill="white" stroke="black" points="202,-153 202,-183 360,-183 360,-153 202,-153"/>
<text text-anchor="start" x="210" y="-171" font-family="Helvetica,sans-Serif" font-size="10.00">DynamicSpriteFontExtension</text>
<text text-anchor="middle" x="281" y="-160" font-family="Helvetica,sans-Serif" font-size="10.00">Methods.DrawString</text>
</a>
</g>
</g>
<!-- Node1&#45;&gt;Node2 -->
<g id="edge1" class="edge">
<title>Node1&#45;&gt;Node2</title>
<path fill="none" stroke="midnightblue" d="M117.13,-101.11C140.68,-111.72 173.13,-126.09 202,-138 211.06,-141.74 220.77,-145.59 230.15,-149.24"/>
<polygon fill="midnightblue" stroke="midnightblue" points="229.18,-152.61 239.77,-152.95 231.7,-146.08 229.18,-152.61"/>
</g>
<!-- Node5 -->
<g id="node5" class="node">
<title>Node5</title>
<g id="a_node5"><a xlink:href="../../da/d82/classDynamicSpriteFont_a60cbfbf43aa1bebceaf16a64457fc297.html#a60cbfbf43aa1bebceaf16a64457fc297" target="_top" xlink:title=" ">
<polygon fill="white" stroke="black" points="608,-109 608,-139 763,-139 763,-109 608,-109"/>
<text text-anchor="start" x="616" y="-127" font-family="Helvetica,sans-Serif" font-size="10.00">DynamicSpriteFont.Measure</text>
<text text-anchor="middle" x="685.5" y="-116" font-family="Helvetica,sans-Serif" font-size="10.00">String</text>
</a>
</g>
</g>
<!-- Node1&#45;&gt;Node5 -->
<g id="edge8" class="edge">
<title>Node1&#45;&gt;Node5</title>
<path fill="none" stroke="midnightblue" d="M166.04,-100.51C178.07,-102.26 190.33,-103.84 202,-105 339.97,-118.77 501.07,-122.68 597.81,-123.72"/>
<polygon fill="midnightblue" stroke="midnightblue" points="597.81,-127.22 607.84,-123.82 597.88,-120.22 597.81,-127.22"/>
</g>
<!-- Node6 -->
<g id="node6" class="node">
<title>Node6</title>
<g id="a_node6"><a xlink:href="../../d4/daa/classTextSnippet_a5fa3ee676982f448ef9746d5809b3423.html#a5fa3ee676982f448ef9746d5809b3423" target="_top" xlink:title=" ">
<polygon fill="white" stroke="black" points="205,-76.5 205,-95.5 357,-95.5 357,-76.5 205,-76.5"/>
<text text-anchor="middle" x="281" y="-83.5" font-family="Helvetica,sans-Serif" font-size="10.00">TextSnippet.GetVisibleColor</text>
</a>
</g>
</g>
<!-- Node1&#45;&gt;Node6 -->
<g id="edge6" class="edge">
<title>Node1&#45;&gt;Node6</title>
<path fill="none" stroke="midnightblue" d="M166.27,-86C175.66,-86 185.24,-86 194.66,-86"/>
<polygon fill="midnightblue" stroke="midnightblue" points="194.81,-89.5 204.81,-86 194.81,-82.5 194.81,-89.5"/>
</g>
<!-- Node8 -->
<g id="node8" class="node">
<title>Node8</title>
<g id="a_node8"><a xlink:href="../../d4/daa/classTextSnippet_a49114f168e686ecd7744cb1f18c828d8.html#a49114f168e686ecd7744cb1f18c828d8" target="_top" xlink:title=" ">
<polygon fill="white" stroke="black" points="212.5,-38.5 212.5,-57.5 349.5,-57.5 349.5,-38.5 212.5,-38.5"/>
<text text-anchor="middle" x="281" y="-45.5" font-family="Helvetica,sans-Serif" font-size="10.00">TextSnippet.UniqueDraw</text>
</a>
</g>
</g>
<!-- Node1&#45;&gt;Node8 -->
<g id="edge9" class="edge">
<title>Node1&#45;&gt;Node8</title>
<path fill="none" stroke="midnightblue" d="M161.46,-70.98C181.33,-67.13 202.37,-63.05 221.12,-59.41"/>
<polygon fill="midnightblue" stroke="midnightblue" points="221.84,-62.84 231,-57.5 220.51,-55.97 221.84,-62.84"/>
</g>
<!-- Node9 -->
<g id="node9" class="node">
<title>Node9</title>
<g id="a_node9"><a xlink:href="../../d4/daa/classTextSnippet_a3d2886a9ab3745dbcd341817d16ffffd.html#a3d2886a9ab3745dbcd341817d16ffffd" target="_top" xlink:title=" ">
<polygon fill="white" stroke="black" points="225,-0.5 225,-19.5 337,-19.5 337,-0.5 225,-0.5"/>
<text text-anchor="middle" x="281" y="-7.5" font-family="Helvetica,sans-Serif" font-size="10.00">TextSnippet.Update</text>
</a>
</g>
</g>
<!-- Node1&#45;&gt;Node9 -->
<g id="edge10" class="edge">
<title>Node1&#45;&gt;Node9</title>
<path fill="none" stroke="midnightblue" d="M110.95,-70.95C134.42,-58.35 169.66,-40.6 202,-29 209.02,-26.48 216.52,-24.18 223.99,-22.13"/>
<polygon fill="midnightblue" stroke="midnightblue" points="224.96,-25.49 233.74,-19.56 223.18,-18.72 224.96,-25.49"/>
</g>
<!-- Node3 -->
<g id="node3" class="node">
<title>Node3</title>
<g id="a_node3"><a xlink:href="../../da/d82/classDynamicSpriteFont_a1aba350f55e012b88428a697b790f2ed.html#a1aba350f55e012b88428a697b790f2ed" target="_top" xlink:title=" ">
<polygon fill="white" stroke="black" points="396,-158.5 396,-177.5 572,-177.5 572,-158.5 396,-158.5"/>
<text text-anchor="middle" x="484" y="-165.5" font-family="Helvetica,sans-Serif" font-size="10.00">DynamicSpriteFont.InternalDraw</text>
</a>
</g>
</g>
<!-- Node2&#45;&gt;Node3 -->
<g id="edge2" class="edge">
<title>Node2&#45;&gt;Node3</title>
<path fill="none" stroke="midnightblue" d="M360.29,-168C368.69,-168 377.3,-168 385.88,-168"/>
<polygon fill="midnightblue" stroke="midnightblue" points="385.93,-171.5 395.93,-168 385.93,-164.5 385.93,-171.5"/>
</g>
<!-- Node4 -->
<g id="node4" class="node">
<title>Node4</title>
<g id="a_node4"><a xlink:href="../../da/d82/classDynamicSpriteFont_a7ea9789665f8d0638966e54a9b4536f6.html#a7ea9789665f8d0638966e54a9b4536f6" target="_top" xlink:title=" ">
<polygon fill="white" stroke="black" points="799,-136.5 799,-155.5 999,-155.5 999,-136.5 799,-136.5"/>
<text text-anchor="middle" x="899" y="-143.5" font-family="Helvetica,sans-Serif" font-size="10.00">DynamicSpriteFont.GetCharacterData</text>
</a>
</g>
</g>
<!-- Node3&#45;&gt;Node4 -->
<g id="edge3" class="edge">
<title>Node3&#45;&gt;Node4</title>
<path fill="none" stroke="midnightblue" d="M572.08,-163.36C635.11,-160 720.75,-155.44 788.43,-151.84"/>
<polygon fill="midnightblue" stroke="midnightblue" points="788.91,-155.32 798.71,-151.29 788.53,-148.33 788.91,-155.32"/>
</g>
<!-- Node3&#45;&gt;Node5 -->
<g id="edge4" class="edge">
<title>Node3&#45;&gt;Node5</title>
<path fill="none" stroke="midnightblue" d="M528.29,-158.45C551.05,-153.43 579.66,-147.12 606.16,-141.28"/>
<polygon fill="midnightblue" stroke="midnightblue" points="607.18,-144.64 616.19,-139.07 605.67,-137.8 607.18,-144.64"/>
</g>
<!-- Node5&#45;&gt;Node4 -->
<g id="edge5" class="edge">
<title>Node5&#45;&gt;Node4</title>
<path fill="none" stroke="midnightblue" d="M763.16,-131.97C773.93,-133.09 785.13,-134.26 796.28,-135.42"/>
<polygon fill="midnightblue" stroke="midnightblue" points="796.18,-138.93 806.49,-136.48 796.9,-131.97 796.18,-138.93"/>
</g>
<!-- Node7 -->
<g id="node7" class="node">
<title>Node7</title>
<g id="a_node7"><a xlink:href="../../d7/dc6/classChatManager_a96b51ad2cef1fdde0ad75bd034b0dcfd.html#a96b51ad2cef1fdde0ad75bd034b0dcfd" target="_top" xlink:title=" ">
<polygon fill="white" stroke="black" points="415.5,-76.5 415.5,-95.5 552.5,-95.5 552.5,-76.5 415.5,-76.5"/>
<text text-anchor="middle" x="484" y="-83.5" font-family="Helvetica,sans-Serif" font-size="10.00">ChatManager.WaveColor</text>
</a>
</g>
</g>
<!-- Node6&#45;&gt;Node7 -->
<g id="edge7" class="edge">
<title>Node6&#45;&gt;Node7</title>
<path fill="none" stroke="midnightblue" d="M357.13,-86C372.77,-86 389.29,-86 405.03,-86"/>
<polygon fill="midnightblue" stroke="midnightblue" points="405.25,-89.5 415.25,-86 405.25,-82.5 405.25,-89.5"/>
</g>
</g>
</svg>
