<?xml version="1.0" encoding="UTF-8" standalone="no"?>
<!DOCTYPE svg PUBLIC "-//W3C//DTD SVG 1.1//EN"
 "http://www.w3.org/Graphics/SVG/1.1/DTD/svg11.dtd">
<!-- Generated by graphviz version 2.43.0 (0)
 -->
<!-- Title: SoundEngine.GetActiveSound Pages: 1 -->
<svg width="486pt" height="28pt"
 viewBox="0.00 0.00 486.00 28.00" xmlns="http://www.w3.org/2000/svg" xmlns:xlink="http://www.w3.org/1999/xlink">
<g id="graph0" class="graph" transform="scale(1 1) rotate(0) translate(4 24)">
<title>SoundEngine.GetActiveSound</title>
<polygon fill="white" stroke="transparent" points="-4,4 -4,-24 482,-24 482,4 -4,4"/>
<!-- Node1 -->
<g id="node1" class="node">
<title>Node1</title>
<g id="a_node1"><a xlink:title=" ">
<polygon fill="#bfbfbf" stroke="black" points="0,-0.5 0,-19.5 161,-19.5 161,-0.5 0,-0.5"/>
<text text-anchor="middle" x="80.5" y="-7.5" font-family="Helvetica,sans-Serif" font-size="10.00">SoundEngine.GetActiveSound</text>
</a>
</g>
</g>
<!-- Node2 -->
<g id="node2" class="node">
<title>Node2</title>
<g id="a_node2"><a xlink:href="../../de/dee/classSoundPlayer_a2248b488ba4cdc77816448e32e4893d4.html#a2248b488ba4cdc77816448e32e4893d4" target="_top" xlink:title=" ">
<polygon fill="white" stroke="black" points="197,-0.5 197,-19.5 355,-19.5 355,-0.5 197,-0.5"/>
<text text-anchor="middle" x="276" y="-7.5" font-family="Helvetica,sans-Serif" font-size="10.00">SoundPlayer.GetActiveSound</text>
</a>
</g>
</g>
<!-- Node1&#45;&gt;Node2 -->
<g id="edge1" class="edge">
<title>Node1&#45;&gt;Node2</title>
<path fill="none" stroke="midnightblue" d="M161.04,-10C169.42,-10 177.97,-10 186.43,-10"/>
<polygon fill="midnightblue" stroke="midnightblue" points="186.7,-13.5 196.7,-10 186.7,-6.5 186.7,-13.5"/>
</g>
<!-- Node3 -->
<g id="node3" class="node">
<title>Node3</title>
<g id="a_node3"><a xlink:href="../../d6/dd8/classSlotVector_ae5a6201ec8cc3d14773f5438ffac68cd.html#ae5a6201ec8cc3d14773f5438ffac68cd" target="_top" xlink:title=" ">
<polygon fill="white" stroke="black" points="391,-0.5 391,-19.5 478,-19.5 478,-0.5 391,-0.5"/>
<text text-anchor="middle" x="434.5" y="-7.5" font-family="Helvetica,sans-Serif" font-size="10.00">SlotVector.Has</text>
</a>
</g>
</g>
<!-- Node2&#45;&gt;Node3 -->
<g id="edge2" class="edge">
<title>Node2&#45;&gt;Node3</title>
<path fill="none" stroke="midnightblue" d="M355.25,-10C363.85,-10 372.44,-10 380.63,-10"/>
<polygon fill="midnightblue" stroke="midnightblue" points="380.74,-13.5 390.74,-10 380.74,-6.5 380.74,-13.5"/>
</g>
</g>
</svg>
