<?xml version="1.0" encoding="UTF-8" standalone="no"?>
<!DOCTYPE svg PUBLIC "-//W3C//DTD SVG 1.1//EN"
 "http://www.w3.org/Graphics/SVG/1.1/DTD/svg11.dtd">
<!-- Generated by graphviz version 2.43.0 (0)
 -->
<!-- Title: CandidateList Pages: 1 -->
<svg width="120pt" height="237pt"
 viewBox="0.00 0.00 119.50 237.00" xmlns="http://www.w3.org/2000/svg" xmlns:xlink="http://www.w3.org/1999/xlink">
<g id="graph0" class="graph" transform="scale(1 1) rotate(0) translate(4 233)">
<title>CandidateList</title>
<polygon fill="white" stroke="transparent" points="-4,4 -4,-233 115.5,-233 115.5,4 -4,4"/>
<!-- Node1 -->
<g id="node1" class="node">
<title>Node1</title>
<g id="a_node1"><a xlink:title=" ">
<polygon fill="#bfbfbf" stroke="black" points="0,-0.5 0,-57.5 83,-57.5 83,-0.5 0,-0.5"/>
<text text-anchor="middle" x="41.5" y="-45.5" font-family="Helvetica,sans-Serif" font-size="10.00">CandidateList</text>
<polyline fill="none" stroke="black" points="0,-38.5 83,-38.5 "/>
<text text-anchor="middle" x="41.5" y="-26.5" font-family="Helvetica,sans-Serif" font-size="10.00"> </text>
<polyline fill="none" stroke="black" points="0,-19.5 83,-19.5 "/>
<text text-anchor="middle" x="41.5" y="-7.5" font-family="Helvetica,sans-Serif" font-size="10.00"> </text>
</a>
</g>
</g>
<!-- Node2 -->
<g id="node2" class="node">
<title>Node2</title>
<g id="a_node2"><a xlink:title=" ">
<polygon fill="white" stroke="#bfbfbf" points="24,-171.5 24,-228.5 59,-228.5 59,-171.5 24,-171.5"/>
<text text-anchor="middle" x="41.5" y="-216.5" font-family="Helvetica,sans-Serif" font-size="10.00">uint</text>
<polyline fill="none" stroke="#bfbfbf" points="24,-209.5 59,-209.5 "/>
<text text-anchor="middle" x="41.5" y="-197.5" font-family="Helvetica,sans-Serif" font-size="10.00"> </text>
<polyline fill="none" stroke="#bfbfbf" points="24,-190.5 59,-190.5 "/>
<text text-anchor="middle" x="41.5" y="-178.5" font-family="Helvetica,sans-Serif" font-size="10.00"> </text>
</a>
</g>
</g>
<!-- Node2&#45;&gt;Node1 -->
<g id="edge1" class="edge">
<title>Node2&#45;&gt;Node1</title>
<path fill="none" stroke="#404040" d="M41.5,-171.47C41.5,-143.85 41.5,-101.03 41.5,-69.73"/>
<polygon fill="none" stroke="#404040" points="41.5,-69.52 37.5,-63.52 41.5,-57.52 45.5,-63.52 41.5,-69.52"/>
<text text-anchor="middle" x="76.5" y="-145" font-family="Helvetica,sans-Serif" font-size="10.00"> +dwCount</text>
<text text-anchor="middle" x="76.5" y="-134" font-family="Helvetica,sans-Serif" font-size="10.00">+dwOffset</text>
<text text-anchor="middle" x="76.5" y="-123" font-family="Helvetica,sans-Serif" font-size="10.00">+dwPageSize</text>
<text text-anchor="middle" x="76.5" y="-112" font-family="Helvetica,sans-Serif" font-size="10.00">+dwPageStart</text>
<text text-anchor="middle" x="76.5" y="-101" font-family="Helvetica,sans-Serif" font-size="10.00">+dwSelection</text>
<text text-anchor="middle" x="76.5" y="-90" font-family="Helvetica,sans-Serif" font-size="10.00">+dwSize</text>
<text text-anchor="middle" x="76.5" y="-79" font-family="Helvetica,sans-Serif" font-size="10.00">+dwStyle</text>
</g>
</g>
</svg>
