<?xml version="1.0" encoding="UTF-8" standalone="no"?>
<!DOCTYPE svg PUBLIC "-//W3C//DTD SVG 1.1//EN"
 "http://www.w3.org/Graphics/SVG/1.1/DTD/svg11.dtd">
<!-- Generated by graphviz version 2.43.0 (0)
 -->
<!-- Title: Terraria.DataStructures.PlayerDrawHelper.PackShader Pages: 1 -->
<svg width="1094pt" height="191pt"
 viewBox="0.00 0.00 1094.00 191.00" xmlns="http://www.w3.org/2000/svg" xmlns:xlink="http://www.w3.org/1999/xlink">
<g id="graph0" class="graph" transform="scale(1 1) rotate(0) translate(4 187)">
<title>Terraria.DataStructures.PlayerDrawHelper.PackShader</title>
<!-- Node1 -->
<g id="Node000001" class="node">
<title>Node1</title>
<g id="a_Node000001"><a xlink:title=" ">
<polygon fill="#999999" stroke="#666666" points="1086,-78 922,-78 922,-48 1086,-48 1086,-78"/>
<text text-anchor="start" x="930" y="-66" font-family="Helvetica,sans-Serif" font-size="10.00">Terraria.DataStructures.</text>
<text text-anchor="middle" x="1004" y="-55" font-family="Helvetica,sans-Serif" font-size="10.00">PlayerDrawHelper.PackShader</text>
</a>
</g>
</g>
<!-- Node2 -->
<g id="Node000002" class="node">
<title>Node2</title>
<g id="a_Node000002"><a xlink:href="../../dd/d39/structTerraria_1_1DataStructures_1_1PlayerDrawHeadSet_a4b94be0325dc0170630afb6cac565a9f.html#a4b94be0325dc0170630afb6cac565a9f" target="_top" xlink:title=" ">
<polygon fill="white" stroke="#666666" points="886,-129 710,-129 710,-99 886,-99 886,-129"/>
<text text-anchor="start" x="718" y="-117" font-family="Helvetica,sans-Serif" font-size="10.00">Terraria.DataStructures.</text>
<text text-anchor="middle" x="798" y="-106" font-family="Helvetica,sans-Serif" font-size="10.00">PlayerDrawHeadSet.BoringSetup</text>
</a>
</g>
</g>
<!-- Node1&#45;&gt;Node2 -->
<g id="edge1_Node000001_Node000002" class="edge">
<title>Node1&#45;&gt;Node2</title>
<g id="a_edge1_Node000001_Node000002"><a xlink:title=" ">
<path fill="none" stroke="#63b8ff" d="M933.11,-80.47C909.01,-86.5 882.26,-93.18 859.03,-98.99"/>
<polygon fill="#63b8ff" stroke="#63b8ff" points="934.04,-83.85 942.9,-78.03 932.35,-77.06 934.04,-83.85"/>
</a>
</g>
</g>
<!-- Node5 -->
<g id="Node000005" class="node">
<title>Node5</title>
<g id="a_Node000005"><a xlink:href="../../d0/de7/structTerraria_1_1DataStructures_1_1PlayerDrawSet_aec72a38d3e22bbc435e7656854f9b8cb.html#aec72a38d3e22bbc435e7656854f9b8cb" target="_top" xlink:title=" ">
<polygon fill="white" stroke="#666666" points="873.5,-78 722.5,-78 722.5,-48 873.5,-48 873.5,-78"/>
<text text-anchor="start" x="730.5" y="-66" font-family="Helvetica,sans-Serif" font-size="10.00">Terraria.DataStructures.</text>
<text text-anchor="middle" x="798" y="-55" font-family="Helvetica,sans-Serif" font-size="10.00">PlayerDrawSet.BoringSetup</text>
</a>
</g>
</g>
<!-- Node1&#45;&gt;Node5 -->
<g id="edge4_Node000001_Node000005" class="edge">
<title>Node1&#45;&gt;Node5</title>
<g id="a_edge4_Node000001_Node000005"><a xlink:title=" ">
<path fill="none" stroke="#63b8ff" d="M911.65,-63C898.94,-63 886,-63 873.64,-63"/>
<polygon fill="#63b8ff" stroke="#63b8ff" points="911.79,-66.5 921.79,-63 911.79,-59.5 911.79,-66.5"/>
</a>
</g>
</g>
<!-- Node9 -->
<g id="Node000009" class="node">
<title>Node9</title>
<g id="a_Node000009"><a xlink:href="../../d9/d66/classTerraria_1_1GameContent_1_1Tile__Entities_1_1TEDisplayDoll_a10fc6d60906acf79aad37476c175817b.html#a10fc6d60906acf79aad37476c175817b" target="_top" xlink:title=" ">
<polygon fill="white" stroke="#666666" points="877,-30 719,-30 719,0 877,0 877,-30"/>
<text text-anchor="start" x="727" y="-18" font-family="Helvetica,sans-Serif" font-size="10.00">Terraria.GameContent.Tile</text>
<text text-anchor="middle" x="798" y="-7" font-family="Helvetica,sans-Serif" font-size="10.00">_Entities.TEDisplayDoll.Draw</text>
</a>
</g>
</g>
<!-- Node1&#45;&gt;Node9 -->
<g id="edge8_Node000001_Node000009" class="edge">
<title>Node1&#45;&gt;Node9</title>
<g id="a_edge8_Node000001_Node000009"><a xlink:title=" ">
<path fill="none" stroke="#63b8ff" d="M929.17,-45.63C907.42,-40.51 883.82,-34.96 862.76,-30"/>
<polygon fill="#63b8ff" stroke="#63b8ff" points="928.48,-49.06 939.01,-47.94 930.08,-42.25 928.48,-49.06"/>
</a>
</g>
</g>
<!-- Node3 -->
<g id="Node000003" class="node">
<title>Node3</title>
<g id="a_Node000003"><a xlink:href="../../d0/d10/classTerraria_1_1Graphics_1_1Renderers_1_1LegacyPlayerRenderer_af1a2afd94645f561b007a1dcb8ab45ba.html#af1a2afd94645f561b007a1dcb8ab45ba" target="_top" xlink:title=" ">
<polygon fill="white" stroke="#666666" points="674,-183 464,-183 464,-153 674,-153 674,-183"/>
<text text-anchor="start" x="472" y="-171" font-family="Helvetica,sans-Serif" font-size="10.00">Terraria.Graphics.Renderers.</text>
<text text-anchor="middle" x="569" y="-160" font-family="Helvetica,sans-Serif" font-size="10.00">LegacyPlayerRenderer.DrawPlayerHead</text>
</a>
</g>
</g>
<!-- Node2&#45;&gt;Node3 -->
<g id="edge2_Node000002_Node000003" class="edge">
<title>Node2&#45;&gt;Node3</title>
<g id="a_edge2_Node000002_Node000003"><a xlink:title=" ">
<path fill="none" stroke="#63b8ff" d="M726.14,-131.44C709.07,-135.6 690.89,-139.99 674,-144 661.65,-146.93 648.46,-150.01 635.77,-152.95"/>
<polygon fill="#63b8ff" stroke="#63b8ff" points="727.15,-134.8 736.04,-129.03 725.49,-128 727.15,-134.8"/>
</a>
</g>
</g>
<!-- Node4 -->
<g id="Node000004" class="node">
<title>Node4</title>
<g id="a_Node000004"><a xlink:href="../../d1/d86/classTerraria_1_1GameContent_1_1PlayerHeadDrawRenderTargetContent_a0603b539dca0908b02925a1e158bf676.html#a0603b539dca0908b02925a1e158bf676" target="_top" xlink:title=" ">
<polygon fill="white" stroke="#666666" points="668.5,-134.5 469.5,-134.5 469.5,-93.5 668.5,-93.5 668.5,-134.5"/>
<text text-anchor="start" x="477.5" y="-122.5" font-family="Helvetica,sans-Serif" font-size="10.00">Terraria.GameContent.Player</text>
<text text-anchor="start" x="477.5" y="-111.5" font-family="Helvetica,sans-Serif" font-size="10.00">HeadDrawRenderTargetContent.Draw</text>
<text text-anchor="middle" x="569" y="-100.5" font-family="Helvetica,sans-Serif" font-size="10.00">TheContent</text>
</a>
</g>
</g>
<!-- Node2&#45;&gt;Node4 -->
<g id="edge3_Node000002_Node000004" class="edge">
<title>Node2&#45;&gt;Node4</title>
<g id="a_edge3_Node000002_Node000004"><a xlink:title=" ">
<path fill="none" stroke="#63b8ff" d="M699.67,-114C689.39,-114 678.92,-114 668.62,-114"/>
<polygon fill="#63b8ff" stroke="#63b8ff" points="699.89,-117.5 709.89,-114 699.89,-110.5 699.89,-117.5"/>
</a>
</g>
</g>
<!-- Node6 -->
<g id="Node000006" class="node">
<title>Node6</title>
<g id="a_Node000006"><a xlink:href="../../d0/d10/classTerraria_1_1Graphics_1_1Renderers_1_1LegacyPlayerRenderer_a079be095611c894d8148919528421da4.html#a079be095611c894d8148919528421da4" target="_top" xlink:title=" ">
<polygon fill="white" stroke="#666666" points="661.5,-75 476.5,-75 476.5,-45 661.5,-45 661.5,-75"/>
<text text-anchor="start" x="484.5" y="-63" font-family="Helvetica,sans-Serif" font-size="10.00">Terraria.Graphics.Renderers.</text>
<text text-anchor="middle" x="569" y="-52" font-family="Helvetica,sans-Serif" font-size="10.00">LegacyPlayerRenderer.DrawPlayer</text>
</a>
</g>
</g>
<!-- Node5&#45;&gt;Node6 -->
<g id="edge5_Node000005_Node000006" class="edge">
<title>Node5&#45;&gt;Node6</title>
<g id="a_edge5_Node000005_Node000006"><a xlink:title=" ">
<path fill="none" stroke="#63b8ff" d="M712.22,-61.88C695.75,-61.66 678.41,-61.43 661.72,-61.21"/>
<polygon fill="#63b8ff" stroke="#63b8ff" points="712.31,-65.38 722.36,-62.01 712.4,-58.38 712.31,-65.38"/>
</a>
</g>
</g>
<!-- Node7 -->
<g id="Node000007" class="node">
<title>Node7</title>
<g id="a_Node000007"><a xlink:href="../../d0/d10/classTerraria_1_1Graphics_1_1Renderers_1_1LegacyPlayerRenderer_a77e682890657822db53a76bca78c604e.html#a77e682890657822db53a76bca78c604e" target="_top" xlink:title=" ">
<polygon fill="white" stroke="#666666" points="428,-75 226,-75 226,-45 428,-45 428,-75"/>
<text text-anchor="start" x="234" y="-63" font-family="Helvetica,sans-Serif" font-size="10.00">Terraria.Graphics.Renderers.</text>
<text text-anchor="middle" x="327" y="-52" font-family="Helvetica,sans-Serif" font-size="10.00">LegacyPlayerRenderer.DrawPlayerFull</text>
</a>
</g>
</g>
<!-- Node6&#45;&gt;Node7 -->
<g id="edge6_Node000006_Node000007" class="edge">
<title>Node6&#45;&gt;Node7</title>
<g id="a_edge6_Node000006_Node000007"><a xlink:title=" ">
<path fill="none" stroke="#63b8ff" d="M466.19,-60C453.58,-60 440.69,-60 428.1,-60"/>
<polygon fill="#63b8ff" stroke="#63b8ff" points="466.24,-63.5 476.24,-60 466.24,-56.5 466.24,-63.5"/>
</a>
</g>
</g>
<!-- Node8 -->
<g id="Node000008" class="node">
<title>Node8</title>
<g id="a_Node000008"><a xlink:href="../../d0/d10/classTerraria_1_1Graphics_1_1Renderers_1_1LegacyPlayerRenderer_a589e145d93da157a23d35afea5a17c13.html#a589e145d93da157a23d35afea5a17c13" target="_top" xlink:title=" ">
<polygon fill="white" stroke="#666666" points="190,-75 0,-75 0,-45 190,-45 190,-75"/>
<text text-anchor="start" x="8" y="-63" font-family="Helvetica,sans-Serif" font-size="10.00">Terraria.Graphics.Renderers.</text>
<text text-anchor="middle" x="95" y="-52" font-family="Helvetica,sans-Serif" font-size="10.00">LegacyPlayerRenderer.DrawPlayers</text>
</a>
</g>
</g>
<!-- Node7&#45;&gt;Node8 -->
<g id="edge7_Node000007_Node000008" class="edge">
<title>Node7&#45;&gt;Node8</title>
<g id="a_edge7_Node000007_Node000008"><a xlink:title=" ">
<path fill="none" stroke="#63b8ff" d="M215.74,-60C207.16,-60 198.54,-60 190.07,-60"/>
<polygon fill="#63b8ff" stroke="#63b8ff" points="215.79,-63.5 225.79,-60 215.79,-56.5 215.79,-63.5"/>
</a>
</g>
</g>
</g>
</svg>
