<?xml version="1.0" encoding="UTF-8" standalone="no"?>
<!DOCTYPE svg PUBLIC "-//W3C//DTD SVG 1.1//EN"
 "http://www.w3.org/Graphics/SVG/1.1/DTD/svg11.dtd">
<!-- Generated by graphviz version 2.43.0 (0)
 -->
<!-- Title: ChromaInitializer.BindTo Pages: 1 -->
<svg width="989pt" height="88pt"
 viewBox="0.00 0.00 989.00 88.00" xmlns="http://www.w3.org/2000/svg" xmlns:xlink="http://www.w3.org/1999/xlink">
<g id="graph0" class="graph" transform="scale(1 1) rotate(0) translate(4 84)">
<title>ChromaInitializer.BindTo</title>
<polygon fill="white" stroke="transparent" points="-4,4 -4,-84 985,-84 985,4 -4,4"/>
<!-- Node1 -->
<g id="node1" class="node">
<title>Node1</title>
<g id="a_node1"><a xlink:title=" ">
<polygon fill="#bfbfbf" stroke="black" points="0,-30 0,-49 135,-49 135,-30 0,-30"/>
<text text-anchor="middle" x="67.5" y="-37" font-family="Helvetica,sans-Serif" font-size="10.00">ChromaInitializer.BindTo</text>
</a>
</g>
</g>
<!-- Node2 -->
<g id="node2" class="node">
<title>Node2</title>
<g id="a_node2"><a xlink:href="../../d0/d60/classChromaInitializer_a3d1c72b0674de808f56b76c14723f15f.html#a3d1c72b0674de808f56b76c14723f15f" target="_top" xlink:title=" ">
<polygon fill="white" stroke="black" points="171,-49.5 171,-79.5 339,-79.5 339,-49.5 171,-49.5"/>
<text text-anchor="start" x="179" y="-67.5" font-family="Helvetica,sans-Serif" font-size="10.00">ChromaInitializer.Configuration</text>
<text text-anchor="middle" x="255" y="-56.5" font-family="Helvetica,sans-Serif" font-size="10.00">_OnLoad</text>
</a>
</g>
</g>
<!-- Node1&#45;&gt;Node2 -->
<g id="edge1" class="edge">
<title>Node1&#45;&gt;Node2</title>
<path fill="none" stroke="midnightblue" d="M135.21,-48.49C143.49,-49.61 152.08,-50.76 160.68,-51.92"/>
<polygon fill="midnightblue" stroke="midnightblue" points="160.38,-55.41 170.75,-53.28 161.31,-48.48 160.38,-55.41"/>
</g>
<!-- Node3 -->
<g id="node3" class="node">
<title>Node3</title>
<g id="a_node3"><a xlink:href="../../d0/d60/classChromaInitializer_a934cad7fb804bed27cca60d513bd3bc9.html#a934cad7fb804bed27cca60d513bd3bc9" target="_top" xlink:title=" ">
<polygon fill="white" stroke="black" points="171,-0.5 171,-30.5 339,-30.5 339,-0.5 171,-0.5"/>
<text text-anchor="start" x="179" y="-18.5" font-family="Helvetica,sans-Serif" font-size="10.00">ChromaInitializer.Configuration</text>
<text text-anchor="middle" x="255" y="-7.5" font-family="Helvetica,sans-Serif" font-size="10.00">_OnSave</text>
</a>
</g>
</g>
<!-- Node1&#45;&gt;Node3 -->
<g id="edge2" class="edge">
<title>Node1&#45;&gt;Node3</title>
<path fill="none" stroke="midnightblue" d="M135.21,-30.87C143.49,-29.8 152.08,-28.69 160.68,-27.57"/>
<polygon fill="midnightblue" stroke="midnightblue" points="161.29,-31.02 170.75,-26.27 160.39,-24.08 161.29,-31.02"/>
</g>
<!-- Node4 -->
<g id="node4" class="node">
<title>Node4</title>
<g id="a_node4"><a xlink:href="../../d2/d60/classPreferences_afa22f389f7ae8d812087fe487b6f68c7.html#afa22f389f7ae8d812087fe487b6f68c7" target="_top" xlink:title=" ">
<polygon fill="white" stroke="black" points="375,-6 375,-25 468,-25 468,-6 375,-6"/>
<text text-anchor="middle" x="421.5" y="-13" font-family="Helvetica,sans-Serif" font-size="10.00">Preferences.Put</text>
</a>
</g>
</g>
<!-- Node3&#45;&gt;Node4 -->
<g id="edge3" class="edge">
<title>Node3&#45;&gt;Node4</title>
<path fill="none" stroke="midnightblue" d="M339.21,-15.5C347.84,-15.5 356.46,-15.5 364.68,-15.5"/>
<polygon fill="midnightblue" stroke="midnightblue" points="364.85,-19 374.85,-15.5 364.85,-12 364.85,-19"/>
</g>
<!-- Node5 -->
<g id="node5" class="node">
<title>Node5</title>
<g id="a_node5"><a xlink:href="../../d2/d60/classPreferences_a3a5924b8e856ba36ffd34c9c8729e146.html#a3a5924b8e856ba36ffd34c9c8729e146" target="_top" xlink:title=" ">
<polygon fill="white" stroke="black" points="504,-6 504,-25 605,-25 605,-6 504,-6"/>
<text text-anchor="middle" x="554.5" y="-13" font-family="Helvetica,sans-Serif" font-size="10.00">Preferences.Save</text>
</a>
</g>
</g>
<!-- Node4&#45;&gt;Node5 -->
<g id="edge4" class="edge">
<title>Node4&#45;&gt;Node5</title>
<path fill="none" stroke="midnightblue" d="M468.32,-15.5C476.5,-15.5 485.14,-15.5 493.64,-15.5"/>
<polygon fill="midnightblue" stroke="midnightblue" points="493.92,-19 503.92,-15.5 493.92,-12 493.92,-19"/>
</g>
<!-- Node6 -->
<g id="node6" class="node">
<title>Node6</title>
<g id="a_node6"><a xlink:href="../../d0/d41/classLanguage_a9f392308c3f9927bacc3d83792b46408.html#a9f392308c3f9927bacc3d83792b46408" target="_top" xlink:title=" ">
<polygon fill="white" stroke="black" points="641,-6 641,-25 772,-25 772,-6 641,-6"/>
<text text-anchor="middle" x="706.5" y="-13" font-family="Helvetica,sans-Serif" font-size="10.00">Language.GetTextValue</text>
</a>
</g>
</g>
<!-- Node5&#45;&gt;Node6 -->
<g id="edge5" class="edge">
<title>Node5&#45;&gt;Node6</title>
<path fill="none" stroke="midnightblue" d="M605.03,-15.5C613.25,-15.5 621.93,-15.5 630.61,-15.5"/>
<polygon fill="midnightblue" stroke="midnightblue" points="630.77,-19 640.77,-15.5 630.77,-12 630.77,-19"/>
</g>
<!-- Node7 -->
<g id="node7" class="node">
<title>Node7</title>
<g id="a_node7"><a xlink:href="../../d2/d9f/classLanguageManager_a2672f0189a3c4aa8b0344a0bcc60c582.html#a2672f0189a3c4aa8b0344a0bcc60c582" target="_top" xlink:title=" ">
<polygon fill="white" stroke="black" points="808,-6 808,-25 981,-25 981,-6 808,-6"/>
<text text-anchor="middle" x="894.5" y="-13" font-family="Helvetica,sans-Serif" font-size="10.00">LanguageManager.GetTextValue</text>
</a>
</g>
</g>
<!-- Node6&#45;&gt;Node7 -->
<g id="edge6" class="edge">
<title>Node6&#45;&gt;Node7</title>
<path fill="none" stroke="midnightblue" d="M772.03,-15.5C780.33,-15.5 788.96,-15.5 797.62,-15.5"/>
<polygon fill="midnightblue" stroke="midnightblue" points="797.79,-19 807.79,-15.5 797.79,-12 797.79,-19"/>
</g>
</g>
</svg>
