<?xml version="1.0" encoding="UTF-8" standalone="no"?>
<!DOCTYPE svg PUBLIC "-//W3C//DTD SVG 1.1//EN"
 "http://www.w3.org/Graphics/SVG/1.1/DTD/svg11.dtd">
<!-- Generated by graphviz version 2.43.0 (0)
 -->
<!-- Title: Terraria.GameContent.Skies.LanternSky.ResetLantern Pages: 1 -->
<svg width="551pt" height="110pt"
 viewBox="0.00 0.00 551.00 110.00" xmlns="http://www.w3.org/2000/svg" xmlns:xlink="http://www.w3.org/1999/xlink">
<g id="graph0" class="graph" transform="scale(1 1) rotate(0) translate(4 106)">
<title>Terraria.GameContent.Skies.LanternSky.ResetLantern</title>
<!-- Node1 -->
<g id="Node000001" class="node">
<title>Node1</title>
<g id="a_Node000001"><a xlink:title=" ">
<polygon fill="#999999" stroke="#666666" points="543,-54 387,-54 387,-24 543,-24 543,-54"/>
<text text-anchor="start" x="395" y="-42" font-family="Helvetica,sans-Serif" font-size="10.00">Terraria.GameContent.Skies.</text>
<text text-anchor="middle" x="465" y="-31" font-family="Helvetica,sans-Serif" font-size="10.00">LanternSky.ResetLantern</text>
</a>
</g>
</g>
<!-- Node2 -->
<g id="Node000002" class="node">
<title>Node2</title>
<g id="a_Node000002"><a xlink:href="../../d6/d62/classTerraria_1_1GameContent_1_1Skies_1_1LanternSky_a99af74e8bf9990edd18bce816f6b5ee0.html#a99af74e8bf9990edd18bce816f6b5ee0" target="_top" xlink:title=" ">
<polygon fill="white" stroke="#666666" points="351,-78 192,-78 192,-48 351,-48 351,-78"/>
<text text-anchor="start" x="200" y="-66" font-family="Helvetica,sans-Serif" font-size="10.00">Terraria.GameContent.Skies.</text>
<text text-anchor="middle" x="271.5" y="-55" font-family="Helvetica,sans-Serif" font-size="10.00">LanternSky.GenerateLanterns</text>
</a>
</g>
</g>
<!-- Node1&#45;&gt;Node2 -->
<g id="edge1_Node000001_Node000002" class="edge">
<title>Node1&#45;&gt;Node2</title>
<g id="a_edge1_Node000001_Node000002"><a xlink:title=" ">
<path fill="none" stroke="#63b8ff" d="M376.95,-49.91C368.4,-50.98 359.75,-52.07 351.28,-53.13"/>
<polygon fill="#63b8ff" stroke="#63b8ff" points="377.45,-53.37 386.94,-48.66 376.58,-46.43 377.45,-53.37"/>
</a>
</g>
</g>
<!-- Node5 -->
<g id="Node000005" class="node">
<title>Node5</title>
<g id="a_Node000005"><a xlink:href="../../d6/d62/classTerraria_1_1GameContent_1_1Skies_1_1LanternSky_ad633c1111b119e5895245f78284e9360.html#ad633c1111b119e5895245f78284e9360" target="_top" xlink:title=" ">
<polygon fill="white" stroke="#666666" points="349.5,-30 193.5,-30 193.5,0 349.5,0 349.5,-30"/>
<text text-anchor="start" x="201.5" y="-18" font-family="Helvetica,sans-Serif" font-size="10.00">Terraria.GameContent.Skies.</text>
<text text-anchor="middle" x="271.5" y="-7" font-family="Helvetica,sans-Serif" font-size="10.00">LanternSky.Update</text>
</a>
</g>
</g>
<!-- Node1&#45;&gt;Node5 -->
<g id="edge4_Node000001_Node000005" class="edge">
<title>Node1&#45;&gt;Node5</title>
<g id="a_edge4_Node000001_Node000005"><a xlink:title=" ">
<path fill="none" stroke="#63b8ff" d="M376.8,-28.07C367.77,-26.94 358.63,-25.79 349.72,-24.68"/>
<polygon fill="#63b8ff" stroke="#63b8ff" points="376.58,-31.57 386.94,-29.34 377.45,-24.63 376.58,-31.57"/>
</a>
</g>
</g>
<!-- Node3 -->
<g id="Node000003" class="node">
<title>Node3</title>
<g id="a_Node000003"><a xlink:href="../../d6/d62/classTerraria_1_1GameContent_1_1Skies_1_1LanternSky_a127f1d5806242548fe34a4c1bed43e90.html#a127f1d5806242548fe34a4c1bed43e90" target="_top" xlink:title=" ">
<polygon fill="white" stroke="#666666" points="156,-102 0,-102 0,-72 156,-72 156,-102"/>
<text text-anchor="start" x="8" y="-90" font-family="Helvetica,sans-Serif" font-size="10.00">Terraria.GameContent.Skies.</text>
<text text-anchor="middle" x="78" y="-79" font-family="Helvetica,sans-Serif" font-size="10.00">LanternSky.Activate</text>
</a>
</g>
</g>
<!-- Node2&#45;&gt;Node3 -->
<g id="edge2_Node000002_Node000003" class="edge">
<title>Node2&#45;&gt;Node3</title>
<g id="a_edge2_Node000002_Node000003"><a xlink:title=" ">
<path fill="none" stroke="#63b8ff" d="M181.79,-74.12C173.24,-75.19 164.61,-76.27 156.18,-77.33"/>
<polygon fill="#63b8ff" stroke="#63b8ff" points="182.29,-77.58 191.78,-72.87 181.42,-70.64 182.29,-77.58"/>
</a>
</g>
</g>
<!-- Node4 -->
<g id="Node000004" class="node">
<title>Node4</title>
<g id="a_Node000004"><a xlink:href="../../d6/d62/classTerraria_1_1GameContent_1_1Skies_1_1LanternSky_a5da1d142919a5a747fc283f5e26299e6.html#a5da1d142919a5a747fc283f5e26299e6" target="_top" xlink:title=" ">
<polygon fill="white" stroke="#666666" points="156,-54 0,-54 0,-24 156,-24 156,-54"/>
<text text-anchor="start" x="8" y="-42" font-family="Helvetica,sans-Serif" font-size="10.00">Terraria.GameContent.Skies.</text>
<text text-anchor="middle" x="78" y="-31" font-family="Helvetica,sans-Serif" font-size="10.00">LanternSky.OnLoad</text>
</a>
</g>
</g>
<!-- Node2&#45;&gt;Node4 -->
<g id="edge3_Node000002_Node000004" class="edge">
<title>Node2&#45;&gt;Node4</title>
<g id="a_edge3_Node000002_Node000004"><a xlink:title=" ">
<path fill="none" stroke="#63b8ff" d="M181.79,-51.88C173.24,-50.81 164.61,-49.73 156.18,-48.67"/>
<polygon fill="#63b8ff" stroke="#63b8ff" points="181.42,-55.36 191.78,-53.13 182.29,-48.42 181.42,-55.36"/>
</a>
</g>
</g>
</g>
</svg>
