<?xml version="1.0" encoding="UTF-8" standalone="no"?>
<!DOCTYPE svg PUBLIC "-//W3C//DTD SVG 1.1//EN"
 "http://www.w3.org/Graphics/SVG/1.1/DTD/svg11.dtd">
<!-- Generated by graphviz version 2.43.0 (0)
 -->
<!-- Title: TEHatRack.DrawSlotPairSet Pages: 1 -->
<!--zoomable 424 -->
<svg id="main" version="1.1" xmlns="http://www.w3.org/2000/svg" xmlns:xlink="http://www.w3.org/1999/xlink" xml:space="preserve" onload="init(evt)">
<style type="text/css"><![CDATA[
.edge:hover path { stroke: red; }
.edge:hover polygon { stroke: red; fill: red; }
]]></style>
<script type="text/javascript"><![CDATA[
var edges = document.getElementsByTagName('g');
if (edges && edges.length) {
  for (var i=0;i<edges.length;i++) {
    if (edges[i].id.substr(0,4)=='edge') {
      edges[i].setAttribute('class','edge');
    }
  }
}
]]></script>
        <defs>
                <circle id="rim" cx="0" cy="0" r="7"/>
                <circle id="rim2" cx="0" cy="0" r="3.5"/>
                <g id="zoomPlus">
                        <use xlink:href="#rim" fill="#404040">
                                <set attributeName="fill" to="#808080" begin="zoomplus.mouseover" end="zoomplus.mouseout"/>
                        </use>
                        <path d="M-4,0h8M0,-4v8" fill="none" stroke="white" stroke-width="1.5" pointer-events="none"/>
                </g>
                <g id="zoomMin">
                        <use xlink:href="#rim" fill="#404040">
                                <set attributeName="fill" to="#808080" begin="zoomminus.mouseover" end="zoomminus.mouseout"/>
                        </use>
                        <path d="M-4,0h8" fill="none" stroke="white" stroke-width="1.5" pointer-events="none"/>
                </g>
                <g id="dirArrow">
                        <path fill="none" stroke="white" stroke-width="1.5" d="M0,-3.0v7 M-2.5,-0.5L0,-3.0L2.5,-0.5"/>
                </g>
               <g id="resetDef">
                       <use xlink:href="#rim2" fill="#404040">
                               <set attributeName="fill" to="#808080" begin="reset.mouseover" end="reset.mouseout"/>
                       </use>
               </g>
        </defs>

<script type="text/javascript">
var viewWidth = 1099;
var viewHeight = 424;
var sectionId = 'dynsection-0';
</script>
<script xlink:href="../../svgpan.js"/>
<svg id="graph" class="graph">
<g id="viewport">
<title>TEHatRack.DrawSlotPairSet</title>
<polygon fill="white" stroke="transparent" points="-4,4 -4,-419.5 1095,-419.5 1095,4 -4,4"/>
<!-- Node1 -->
<g id="node1" class="node">
<title>Node1</title>
<g id="a_node1"><a xlink:title=" ">
<polygon fill="#bfbfbf" stroke="black" points="0,-219 0,-238 151,-238 151,-219 0,-219"/>
<text text-anchor="middle" x="75.5" y="-226" font-family="Helvetica,sans-Serif" font-size="10.00">TEHatRack.DrawSlotPairSet</text>
</a>
</g>
</g>
<!-- Node2 -->
<g id="node2" class="node">
<title>Node2</title>
<g id="a_node2"><a xlink:href="../../dd/d09/classItemSlot_af3ce8715bb05c3c3c2f8489b30af6236.html#af3ce8715bb05c3c3c2f8489b30af6236" target="_top" xlink:title=" ">
<polygon fill="white" stroke="black" points="199,-257 199,-276 285,-276 285,-257 199,-257"/>
<text text-anchor="middle" x="242" y="-264" font-family="Helvetica,sans-Serif" font-size="10.00">ItemSlot.Draw</text>
</a>
</g>
</g>
<!-- Node1&#45;&gt;Node2 -->
<g id="edge1" class="edge">
<title>Node1&#45;&gt;Node2</title>
<path fill="none" stroke="midnightblue" d="M118.01,-238.09C139.82,-243.13 166.73,-249.34 189.82,-254.68"/>
<polygon fill="midnightblue" stroke="midnightblue" points="189.26,-258.14 199.79,-256.98 190.83,-251.32 189.26,-258.14"/>
</g>
<!-- Node3 -->
<g id="node3" class="node">
<title>Node3</title>
<g id="a_node3"><a xlink:href="../../dc/dc5/classUtils_a732bd5fbe183495ca9aae7b436276cdf.html#a732bd5fbe183495ca9aae7b436276cdf" target="_top" xlink:title=" ">
<polygon fill="white" stroke="black" points="187,-219 187,-238 297,-238 297,-219 187,-219"/>
<text text-anchor="middle" x="242" y="-226" font-family="Helvetica,sans-Serif" font-size="10.00">Utils.FloatIntersect</text>
</a>
</g>
</g>
<!-- Node1&#45;&gt;Node3 -->
<g id="edge2" class="edge">
<title>Node1&#45;&gt;Node3</title>
<path fill="none" stroke="midnightblue" d="M151.05,-228.5C159.63,-228.5 168.33,-228.5 176.76,-228.5"/>
<polygon fill="midnightblue" stroke="midnightblue" points="176.88,-232 186.88,-228.5 176.88,-225 176.88,-232"/>
</g>
<!-- Node4 -->
<g id="node4" class="node">
<title>Node4</title>
<g id="a_node4"><a xlink:href="../../dd/d09/classItemSlot_ac48f870b83b0601a8cf02f4847f6eb59.html#ac48f870b83b0601a8cf02f4847f6eb59" target="_top" xlink:title=" ">
<polygon fill="white" stroke="black" points="194.5,-181 194.5,-200 289.5,-200 289.5,-181 194.5,-181"/>
<text text-anchor="middle" x="242" y="-188" font-family="Helvetica,sans-Serif" font-size="10.00">ItemSlot.Handle</text>
</a>
</g>
</g>
<!-- Node1&#45;&gt;Node4 -->
<g id="edge3" class="edge">
<title>Node1&#45;&gt;Node4</title>
<path fill="none" stroke="midnightblue" d="M118.01,-218.91C139.82,-213.87 166.73,-207.66 189.82,-202.32"/>
<polygon fill="midnightblue" stroke="midnightblue" points="190.83,-205.68 199.79,-200.02 189.26,-198.86 190.83,-205.68"/>
</g>
<!-- Node5 -->
<g id="node5" class="node">
<title>Node5</title>
<g id="a_node5"><a xlink:href="../../d7/dd1/classRecipe_a674fca77c9d19aa0ba6d095352f73448.html#a674fca77c9d19aa0ba6d095352f73448" target="_top" xlink:title=" ">
<polygon fill="white" stroke="black" points="333,-181 333,-200 444,-200 444,-181 333,-181"/>
<text text-anchor="middle" x="388.5" y="-188" font-family="Helvetica,sans-Serif" font-size="10.00">Recipe.FindRecipes</text>
</a>
</g>
</g>
<!-- Node4&#45;&gt;Node5 -->
<g id="edge4" class="edge">
<title>Node4&#45;&gt;Node5</title>
<path fill="none" stroke="midnightblue" d="M289.52,-190.5C300.06,-190.5 311.46,-190.5 322.61,-190.5"/>
<polygon fill="midnightblue" stroke="midnightblue" points="322.76,-194 332.76,-190.5 322.76,-187 322.76,-194"/>
</g>
<!-- Node6 -->
<g id="node6" class="node">
<title>Node6</title>
<g id="a_node6"><a xlink:href="../../d7/dd1/classRecipe_a0efcae3a7b0b17eeeb739f21214fafdf.html#a0efcae3a7b0b17eeeb739f21214fafdf" target="_top" xlink:title=" ">
<polygon fill="white" stroke="black" points="497.5,-351 497.5,-370 662.5,-370 662.5,-351 497.5,-351"/>
<text text-anchor="middle" x="580" y="-358" font-family="Helvetica,sans-Serif" font-size="10.00">Recipe.AddToAvailableRecipes</text>
</a>
</g>
</g>
<!-- Node5&#45;&gt;Node6 -->
<g id="edge5" class="edge">
<title>Node5&#45;&gt;Node6</title>
<path fill="none" stroke="midnightblue" d="M392.24,-200.2C400.46,-227.41 427.65,-304.89 480,-341.5 482.73,-343.41 485.59,-345.13 488.56,-346.7"/>
<polygon fill="midnightblue" stroke="midnightblue" points="487.21,-349.93 497.75,-350.92 490.13,-343.57 487.21,-349.93"/>
</g>
<!-- Node7 -->
<g id="node7" class="node">
<title>Node7</title>
<g id="a_node7"><a xlink:href="../../d7/dd1/classRecipe_a49c81ebe71fbaa78bfa59d7dfa4ef93f.html#a49c81ebe71fbaa78bfa59d7dfa4ef93f" target="_top" xlink:title=" ">
<polygon fill="white" stroke="black" points="499.5,-313 499.5,-332 660.5,-332 660.5,-313 499.5,-313"/>
<text text-anchor="middle" x="580" y="-320" font-family="Helvetica,sans-Serif" font-size="10.00">Recipe.ClearAvailableRecipes</text>
</a>
</g>
</g>
<!-- Node5&#45;&gt;Node7 -->
<g id="edge6" class="edge">
<title>Node5&#45;&gt;Node7</title>
<path fill="none" stroke="midnightblue" d="M394.25,-200.29C405.62,-222.63 436.74,-277.41 480,-303.5 483.63,-305.69 487.45,-307.63 491.4,-309.35"/>
<polygon fill="midnightblue" stroke="midnightblue" points="490.24,-312.66 500.83,-313 492.76,-306.13 490.24,-312.66"/>
</g>
<!-- Node8 -->
<g id="node8" class="node">
<title>Node8</title>
<g id="a_node8"><a xlink:href="../../d7/dd1/classRecipe_a081fd92d8a67e2e1f036bd3720093d27.html#a081fd92d8a67e2e1f036bd3720093d27" target="_top" xlink:title=" ">
<polygon fill="white" stroke="black" points="499,-263.5 499,-293.5 661,-293.5 661,-263.5 499,-263.5"/>
<text text-anchor="start" x="507" y="-281.5" font-family="Helvetica,sans-Serif" font-size="10.00">Recipe.CollectedEnoughItems</text>
<text text-anchor="middle" x="580" y="-270.5" font-family="Helvetica,sans-Serif" font-size="10.00">ToCraftRecipeNew</text>
</a>
</g>
</g>
<!-- Node5&#45;&gt;Node8 -->
<g id="edge7" class="edge">
<title>Node5&#45;&gt;Node8</title>
<path fill="none" stroke="midnightblue" d="M400.4,-200.08C416.64,-213.87 448.65,-239.21 480,-253.5 485.37,-255.95 491.02,-258.19 496.79,-260.22"/>
<polygon fill="midnightblue" stroke="midnightblue" points="495.98,-263.64 506.57,-263.46 498.18,-256.99 495.98,-263.64"/>
</g>
<!-- Node9 -->
<g id="node9" class="node">
<title>Node9</title>
<g id="a_node9"><a xlink:href="../../d7/dd1/classRecipe_aade13a5b52ea6dccb218215f7093d664.html#aade13a5b52ea6dccb218215f7093d664" target="_top" xlink:title=" ">
<polygon fill="white" stroke="black" points="503.5,-225 503.5,-244 656.5,-244 656.5,-225 503.5,-225"/>
<text text-anchor="middle" x="580" y="-232" font-family="Helvetica,sans-Serif" font-size="10.00">Recipe.CollectGuideRecipes</text>
</a>
</g>
</g>
<!-- Node5&#45;&gt;Node9 -->
<g id="edge8" class="edge">
<title>Node5&#45;&gt;Node9</title>
<path fill="none" stroke="midnightblue" d="M421.59,-200.04C438.82,-204.99 460.48,-210.94 480,-215.5 491.27,-218.13 503.32,-220.67 515,-222.99"/>
<polygon fill="midnightblue" stroke="midnightblue" points="514.66,-226.49 525.14,-224.97 516,-219.62 514.66,-226.49"/>
</g>
<!-- Node17 -->
<g id="node17" class="node">
<title>Node17</title>
<g id="a_node17"><a xlink:href="../../d7/dd1/classRecipe_a29ac5857130afae304746f7c30d863db.html#a29ac5857130afae304746f7c30d863db" target="_top" xlink:title=" ">
<polygon fill="white" stroke="black" points="506,-175.5 506,-205.5 654,-205.5 654,-175.5 506,-175.5"/>
<text text-anchor="start" x="514" y="-193.5" font-family="Helvetica,sans-Serif" font-size="10.00">Recipe.CollectItemsToCraft</text>
<text text-anchor="middle" x="580" y="-182.5" font-family="Helvetica,sans-Serif" font-size="10.00">WithFrom</text>
</a>
</g>
</g>
<!-- Node5&#45;&gt;Node17 -->
<g id="edge16" class="edge">
<title>Node5&#45;&gt;Node17</title>
<path fill="none" stroke="midnightblue" d="M444.06,-190.5C460.14,-190.5 478.13,-190.5 495.59,-190.5"/>
<polygon fill="midnightblue" stroke="midnightblue" points="495.79,-194 505.79,-190.5 495.79,-187 495.79,-194"/>
</g>
<!-- Node23 -->
<g id="node23" class="node">
<title>Node23</title>
<g id="a_node23"><a xlink:href="../../d7/dd1/classRecipe_a0b48594a76e6cc7564b3c3056582300b.html#a0b48594a76e6cc7564b3c3056582300b" target="_top" xlink:title=" ">
<polygon fill="white" stroke="black" points="492,-126.5 492,-156.5 668,-156.5 668,-126.5 492,-126.5"/>
<text text-anchor="start" x="500" y="-144.5" font-family="Helvetica,sans-Serif" font-size="10.00">Recipe.PlayerMeetsEnvironment</text>
<text text-anchor="middle" x="580" y="-133.5" font-family="Helvetica,sans-Serif" font-size="10.00">Conditions</text>
</a>
</g>
</g>
<!-- Node5&#45;&gt;Node23 -->
<g id="edge22" class="edge">
<title>Node5&#45;&gt;Node23</title>
<path fill="none" stroke="midnightblue" d="M425.15,-180.94C441.8,-176.5 461.9,-171.18 480,-166.5 489.46,-164.05 499.44,-161.5 509.27,-159"/>
<polygon fill="midnightblue" stroke="midnightblue" points="510.2,-162.37 519.03,-156.52 508.47,-155.59 510.2,-162.37"/>
</g>
<!-- Node24 -->
<g id="node24" class="node">
<title>Node24</title>
<g id="a_node24"><a xlink:href="../../d7/dd1/classRecipe_a646bf1433c0f3656be932669e7806b43.html#a646bf1433c0f3656be932669e7806b43" target="_top" xlink:title=" ">
<polygon fill="white" stroke="black" points="480,-88 480,-107 680,-107 680,-88 480,-88"/>
<text text-anchor="middle" x="580" y="-95" font-family="Helvetica,sans-Serif" font-size="10.00">Recipe.PlayerMeetsTileRequirements</text>
</a>
</g>
</g>
<!-- Node5&#45;&gt;Node24 -->
<g id="edge23" class="edge">
<title>Node5&#45;&gt;Node24</title>
<path fill="none" stroke="midnightblue" d="M398.19,-180.77C413.18,-164.65 445.62,-132.58 480,-116.5 485.33,-114.01 490.97,-111.84 496.75,-109.96"/>
<polygon fill="midnightblue" stroke="midnightblue" points="497.97,-113.25 506.56,-107.05 495.98,-106.53 497.97,-113.25"/>
</g>
<!-- Node25 -->
<g id="node25" class="node">
<title>Node25</title>
<g id="a_node25"><a xlink:href="../../d7/dd1/classRecipe_ab9a87849d050e3797a8be6e0a8b4fefa.html#ab9a87849d050e3797a8be6e0a8b4fefa" target="_top" xlink:title=" ">
<polygon fill="white" stroke="black" points="503,-50 503,-69 657,-69 657,-50 503,-50"/>
<text text-anchor="middle" x="580" y="-57" font-family="Helvetica,sans-Serif" font-size="10.00">Recipe.TryRefocusingRecipe</text>
</a>
</g>
</g>
<!-- Node5&#45;&gt;Node25 -->
<g id="edge24" class="edge">
<title>Node5&#45;&gt;Node25</title>
<path fill="none" stroke="midnightblue" d="M394.27,-180.79C405.7,-158.65 436.91,-104.35 480,-78.5 484.19,-75.99 488.64,-73.8 493.25,-71.89"/>
<polygon fill="midnightblue" stroke="midnightblue" points="494.71,-75.08 502.89,-68.35 492.3,-68.51 494.71,-75.08"/>
</g>
<!-- Node26 -->
<g id="node26" class="node">
<title>Node26</title>
<g id="a_node26"><a xlink:href="../../d7/dd1/classRecipe_a71bb71e495b54152adf371a7cd9b5245.html#a71bb71e495b54152adf371a7cd9b5245" target="_top" xlink:title=" ">
<polygon fill="white" stroke="black" points="508.5,-0.5 508.5,-30.5 651.5,-30.5 651.5,-0.5 508.5,-0.5"/>
<text text-anchor="start" x="516.5" y="-18.5" font-family="Helvetica,sans-Serif" font-size="10.00">Recipe.VisuallyReposition</text>
<text text-anchor="middle" x="580" y="-7.5" font-family="Helvetica,sans-Serif" font-size="10.00">Recipes</text>
</a>
</g>
</g>
<!-- Node5&#45;&gt;Node26 -->
<g id="edge25" class="edge">
<title>Node5&#45;&gt;Node26</title>
<path fill="none" stroke="midnightblue" d="M392.49,-180.63C401.19,-153.65 429.17,-78.16 480,-40.5 485.78,-36.22 492.21,-32.67 498.94,-29.72"/>
<polygon fill="midnightblue" stroke="midnightblue" points="500.24,-32.97 508.28,-26.07 497.69,-26.45 500.24,-32.97"/>
</g>
<!-- Node10 -->
<g id="node10" class="node">
<title>Node10</title>
<g id="a_node10"><a xlink:href="../../d7/dd1/classRecipe_ab81108c946293f242407d3bec9c15923.html#ab81108c946293f242407d3bec9c15923" target="_top" xlink:title=" ">
<polygon fill="white" stroke="black" points="716,-396 716,-415 883,-415 883,-396 716,-396"/>
<text text-anchor="middle" x="799.5" y="-403" font-family="Helvetica,sans-Serif" font-size="10.00">Recipe.AcceptedByItemGroups</text>
</a>
</g>
</g>
<!-- Node9&#45;&gt;Node10 -->
<g id="edge9" class="edge">
<title>Node9&#45;&gt;Node10</title>
<path fill="none" stroke="midnightblue" d="M656.72,-240.49C665.3,-243.75 673.34,-248.27 680,-254.5 724.41,-296.04 672.15,-344.37 716,-386.5 717.47,-387.91 719.02,-389.23 720.65,-390.45"/>
<polygon fill="midnightblue" stroke="midnightblue" points="718.95,-393.52 729.28,-395.85 722.66,-387.58 718.95,-393.52"/>
</g>
<!-- Node11 -->
<g id="node11" class="node">
<title>Node11</title>
<g id="a_node11"><a xlink:href="../../d0/dae/classItem_ad75f48620d3728b5914329770a6e669d.html#ad75f48620d3728b5914329770a6e669d" target="_top" xlink:title=" ">
<polygon fill="white" stroke="black" points="745.5,-358 745.5,-377 853.5,-377 853.5,-358 745.5,-358"/>
<text text-anchor="middle" x="799.5" y="-365" font-family="Helvetica,sans-Serif" font-size="10.00">Item.IsTheSameAs</text>
</a>
</g>
</g>
<!-- Node9&#45;&gt;Node11 -->
<g id="edge10" class="edge">
<title>Node9&#45;&gt;Node11</title>
<path fill="none" stroke="midnightblue" d="M656.64,-241.32C665.14,-244.46 673.17,-248.72 680,-254.5 714.15,-283.4 682.24,-319.15 716,-348.5 721.64,-353.41 728.3,-357.11 735.35,-359.9"/>
<polygon fill="midnightblue" stroke="midnightblue" points="734.55,-363.33 745.14,-363.17 736.76,-356.68 734.55,-363.33"/>
</g>
<!-- Node12 -->
<g id="node12" class="node">
<title>Node12</title>
<g id="a_node12"><a xlink:href="../../d7/dd1/classRecipe_a504353616e5c06602468b514336473de.html#a504353616e5c06602468b514336473de" target="_top" xlink:title=" ">
<polygon fill="white" stroke="black" points="741.5,-320 741.5,-339 857.5,-339 857.5,-320 741.5,-320"/>
<text text-anchor="middle" x="799.5" y="-327" font-family="Helvetica,sans-Serif" font-size="10.00">Recipe.useFragment</text>
</a>
</g>
</g>
<!-- Node9&#45;&gt;Node12 -->
<g id="edge11" class="edge">
<title>Node9&#45;&gt;Node12</title>
<path fill="none" stroke="midnightblue" d="M656.59,-243.07C664.9,-245.93 672.91,-249.65 680,-254.5 704.43,-271.19 691.8,-293.48 716,-310.5 720.85,-313.91 726.23,-316.72 731.83,-319.03"/>
<polygon fill="midnightblue" stroke="midnightblue" points="730.85,-322.4 741.44,-322.47 733.21,-315.81 730.85,-322.4"/>
</g>
<!-- Node13 -->
<g id="node13" class="node">
<title>Node13</title>
<g id="a_node13"><a xlink:href="../../d7/dd1/classRecipe_add08d722d4f4f1c2db59a093c6667a03.html#add08d722d4f4f1c2db59a093c6667a03" target="_top" xlink:title=" ">
<polygon fill="white" stroke="black" points="747,-282 747,-301 852,-301 852,-282 747,-282"/>
<text text-anchor="middle" x="799.5" y="-289" font-family="Helvetica,sans-Serif" font-size="10.00">Recipe.useIronBar</text>
</a>
</g>
</g>
<!-- Node9&#45;&gt;Node13 -->
<g id="edge12" class="edge">
<title>Node9&#45;&gt;Node13</title>
<path fill="none" stroke="midnightblue" d="M641.36,-244.05C654.28,-246.82 667.73,-250.28 680,-254.5 696.91,-260.32 699.17,-266.45 716,-272.5 723.12,-275.06 730.71,-277.35 738.29,-279.39"/>
<polygon fill="midnightblue" stroke="midnightblue" points="737.66,-282.84 748.22,-281.92 739.39,-276.06 737.66,-282.84"/>
</g>
<!-- Node14 -->
<g id="node14" class="node">
<title>Node14</title>
<g id="a_node14"><a xlink:href="../../d7/dd1/classRecipe_a53d388ef56bdc0ee5553a330e9e783cf.html#a53d388ef56bdc0ee5553a330e9e783cf" target="_top" xlink:title=" ">
<polygon fill="white" stroke="black" points="731,-244 731,-263 868,-263 868,-244 731,-244"/>
<text text-anchor="middle" x="799.5" y="-251" font-family="Helvetica,sans-Serif" font-size="10.00">Recipe.usePressurePlate</text>
</a>
</g>
</g>
<!-- Node9&#45;&gt;Node14 -->
<g id="edge13" class="edge">
<title>Node9&#45;&gt;Node14</title>
<path fill="none" stroke="midnightblue" d="M656.77,-241.12C677.52,-242.93 700.05,-244.9 720.9,-246.72"/>
<polygon fill="midnightblue" stroke="midnightblue" points="720.73,-250.22 730.99,-247.6 721.34,-243.25 720.73,-250.22"/>
</g>
<!-- Node15 -->
<g id="node15" class="node">
<title>Node15</title>
<g id="a_node15"><a xlink:href="../../d7/dd1/classRecipe_a09fa3a32d8b58fbeb394ab6e87f81dc9.html#a09fa3a32d8b58fbeb394ab6e87f81dc9" target="_top" xlink:title=" ">
<polygon fill="white" stroke="black" points="752.5,-206 752.5,-225 846.5,-225 846.5,-206 752.5,-206"/>
<text text-anchor="middle" x="799.5" y="-213" font-family="Helvetica,sans-Serif" font-size="10.00">Recipe.useSand</text>
</a>
</g>
</g>
<!-- Node9&#45;&gt;Node15 -->
<g id="edge14" class="edge">
<title>Node9&#45;&gt;Node15</title>
<path fill="none" stroke="midnightblue" d="M656.77,-227.88C684.91,-225.42 716.3,-222.68 742.38,-220.4"/>
<polygon fill="midnightblue" stroke="midnightblue" points="742.8,-223.88 752.46,-219.52 742.19,-216.91 742.8,-223.88"/>
</g>
<!-- Node16 -->
<g id="node16" class="node">
<title>Node16</title>
<g id="a_node16"><a xlink:href="../../d7/dd1/classRecipe_aaba89663606fa0bebf7a58172bc81005.html#aaba89663606fa0bebf7a58172bc81005" target="_top" xlink:title=" ">
<polygon fill="white" stroke="black" points="751,-168 751,-187 848,-187 848,-168 751,-168"/>
<text text-anchor="middle" x="799.5" y="-175" font-family="Helvetica,sans-Serif" font-size="10.00">Recipe.useWood</text>
</a>
</g>
</g>
<!-- Node9&#45;&gt;Node16 -->
<g id="edge15" class="edge">
<title>Node9&#45;&gt;Node16</title>
<path fill="none" stroke="midnightblue" d="M645.64,-224.96C657.24,-222.44 669.1,-219.33 680,-215.5 697.07,-209.51 699.04,-202.81 716,-196.5 723.92,-193.55 732.45,-190.97 740.9,-188.74"/>
<polygon fill="midnightblue" stroke="midnightblue" points="741.91,-192.1 750.76,-186.28 740.21,-185.31 741.91,-192.1"/>
</g>
<!-- Node18 -->
<g id="node18" class="node">
<title>Node18</title>
<g id="a_node18"><a xlink:href="../../d7/dd1/classRecipe_a3ab712e9fa495912c8c2a0f8bf2ae2f3.html#a3ab712e9fa495912c8c2a0f8bf2ae2f3" target="_top" xlink:title=" ">
<polygon fill="white" stroke="black" points="717.5,-118.5 717.5,-148.5 881.5,-148.5 881.5,-118.5 717.5,-118.5"/>
<text text-anchor="start" x="725.5" y="-136.5" font-family="Helvetica,sans-Serif" font-size="10.00">Recipe.AddFakeCountsForItem</text>
<text text-anchor="middle" x="799.5" y="-125.5" font-family="Helvetica,sans-Serif" font-size="10.00">Groups</text>
</a>
</g>
</g>
<!-- Node17&#45;&gt;Node18 -->
<g id="edge17" class="edge">
<title>Node17&#45;&gt;Node18</title>
<path fill="none" stroke="midnightblue" d="M641.25,-175.45C654.05,-172.21 667.48,-168.77 680,-165.5 697.41,-160.95 716.22,-155.92 733.62,-151.23"/>
<polygon fill="midnightblue" stroke="midnightblue" points="734.94,-154.49 743.68,-148.5 733.12,-147.74 734.94,-154.49"/>
</g>
<!-- Node21 -->
<g id="node21" class="node">
<title>Node21</title>
<g id="a_node21"><a xlink:href="../../d7/dd1/classRecipe_a8cf0ffa2bf5b45b40b2903b2efc54992.html#a8cf0ffa2bf5b45b40b2903b2efc54992" target="_top" xlink:title=" ">
<polygon fill="white" stroke="black" points="742.5,-80 742.5,-99 856.5,-99 856.5,-80 742.5,-80"/>
<text text-anchor="middle" x="799.5" y="-87" font-family="Helvetica,sans-Serif" font-size="10.00">Recipe.CollectItems</text>
</a>
</g>
</g>
<!-- Node17&#45;&gt;Node21 -->
<g id="edge20" class="edge">
<title>Node17&#45;&gt;Node21</title>
<path fill="none" stroke="midnightblue" d="M654.17,-178.86C663.37,-175.48 672.25,-171.12 680,-165.5 704.26,-147.91 691.56,-125.83 716,-108.5 721.11,-104.87 726.81,-101.93 732.76,-99.54"/>
<polygon fill="midnightblue" stroke="midnightblue" points="733.98,-102.82 742.27,-96.22 731.67,-96.21 733.98,-102.82"/>
</g>
<!-- Node22 -->
<g id="node22" class="node">
<title>Node22</title>
<g id="a_node22"><a xlink:href="../../d2/d4b/classPlayer_ae38b744c281ade402f689f0ed6af2371.html#ae38b744c281ade402f689f0ed6af2371" target="_top" xlink:title=" ">
<polygon fill="white" stroke="black" points="746,-42 746,-61 853,-61 853,-42 746,-42"/>
<text text-anchor="middle" x="799.5" y="-49" font-family="Helvetica,sans-Serif" font-size="10.00">Player.useVoidBag</text>
</a>
</g>
</g>
<!-- Node17&#45;&gt;Node22 -->
<g id="edge21" class="edge">
<title>Node17&#45;&gt;Node22</title>
<path fill="none" stroke="midnightblue" d="M654.04,-180.76C663.52,-177.1 672.52,-172.16 680,-165.5 713.71,-135.46 681.98,-100.19 716,-70.5 721.92,-65.34 728.96,-61.5 736.4,-58.66"/>
<polygon fill="midnightblue" stroke="midnightblue" points="737.53,-61.97 745.98,-55.58 735.39,-55.31 737.53,-61.97"/>
</g>
<!-- Node19 -->
<g id="node19" class="node">
<title>Node19</title>
<g id="a_node19"><a xlink:href="../../d6/dae/classRecipeGroup_a6e8a4e64b5580d64a52b64258d9efd2f.html#a6e8a4e64b5580d64a52b64258d9efd2f" target="_top" xlink:title=" ">
<polygon fill="white" stroke="black" points="919,-146 919,-165 1091,-165 1091,-146 919,-146"/>
<text text-anchor="middle" x="1005" y="-153" font-family="Helvetica,sans-Serif" font-size="10.00">RecipeGroup.CountUsableItems</text>
</a>
</g>
</g>
<!-- Node18&#45;&gt;Node19 -->
<g id="edge18" class="edge">
<title>Node18&#45;&gt;Node19</title>
<path fill="none" stroke="midnightblue" d="M881.51,-142.26C890.45,-143.22 899.61,-144.22 908.71,-145.2"/>
<polygon fill="midnightblue" stroke="midnightblue" points="908.61,-148.71 918.93,-146.3 909.36,-141.75 908.61,-148.71"/>
</g>
<!-- Node20 -->
<g id="node20" class="node">
<title>Node20</title>
<g id="a_node20"><a xlink:href="../../d6/dae/classRecipeGroup_a7a64a554d71466f2177a60aced69e97a.html#a7a64a554d71466f2177a60aced69e97a" target="_top" xlink:title=" ">
<polygon fill="white" stroke="black" points="930,-96.5 930,-126.5 1080,-126.5 1080,-96.5 930,-96.5"/>
<text text-anchor="start" x="938" y="-114.5" font-family="Helvetica,sans-Serif" font-size="10.00">RecipeGroup.GetGroupFake</text>
<text text-anchor="middle" x="1005" y="-103.5" font-family="Helvetica,sans-Serif" font-size="10.00">ItemId</text>
</a>
</g>
</g>
<!-- Node18&#45;&gt;Node20 -->
<g id="edge19" class="edge">
<title>Node18&#45;&gt;Node20</title>
<path fill="none" stroke="midnightblue" d="M881.51,-124.74C894.11,-123.38 907.14,-121.97 919.81,-120.6"/>
<polygon fill="midnightblue" stroke="midnightblue" points="920.3,-124.07 929.87,-119.51 919.55,-117.11 920.3,-124.07"/>
</g>
</g>
</svg>
        <g id="navigator" transform="translate(0 0)" fill="#404254">
                <rect fill="#f2f5e9" fill-opacity="0.5" stroke="#606060" stroke-width=".5" x="0" y="0" width="60" height="60"/>
                <use id="zoomplus" xlink:href="#zoomPlus" x="17" y="9" onmousedown="handleZoom(evt,'in')"/>
                <use id="zoomminus" xlink:href="#zoomMin" x="42" y="9" onmousedown="handleZoom(evt,'out')"/>
                <use id="reset" xlink:href="#resetDef" x="30" y="36" onmousedown="handleReset()"/>
                <g id="arrowUp" xlink:href="#dirArrow" transform="translate(30 24)" onmousedown="handlePan(0,-1)">
                  <use xlink:href="#rim" fill="#404040">
                        <set attributeName="fill" to="#808080" begin="arrowUp.mouseover" end="arrowUp.mouseout"/>
                  </use>
                  <path fill="none" stroke="white" stroke-width="1.5" d="M0,-3.0v7 M-2.5,-0.5L0,-3.0L2.5,-0.5"/>
                </g>
                <g id="arrowRight" xlink:href="#dirArrow" transform="rotate(90) translate(36 -43)" onmousedown="handlePan(1,0)">
                  <use xlink:href="#rim" fill="#404040">
                        <set attributeName="fill" to="#808080" begin="arrowRight.mouseover" end="arrowRight.mouseout"/>
                  </use>
                  <path fill="none" stroke="white" stroke-width="1.5" d="M0,-3.0v7 M-2.5,-0.5L0,-3.0L2.5,-0.5"/>
                </g>
                <g id="arrowDown" xlink:href="#dirArrow" transform="rotate(180) translate(-30 -48)" onmousedown="handlePan(0,1)">
                  <use xlink:href="#rim" fill="#404040">
                        <set attributeName="fill" to="#808080" begin="arrowDown.mouseover" end="arrowDown.mouseout"/>
                  </use>
                  <path fill="none" stroke="white" stroke-width="1.5" d="M0,-3.0v7 M-2.5,-0.5L0,-3.0L2.5,-0.5"/>
                </g>
                <g id="arrowLeft" xlink:href="#dirArrow" transform="rotate(270) translate(-36 17)" onmousedown="handlePan(-1,0)">
                  <use xlink:href="#rim" fill="#404040">
                        <set attributeName="fill" to="#808080" begin="arrowLeft.mouseover" end="arrowLeft.mouseout"/>
                  </use>
                  <path fill="none" stroke="white" stroke-width="1.5" d="M0,-3.0v7 M-2.5,-0.5L0,-3.0L2.5,-0.5"/>
                </g>
        </g>
        <svg viewBox="0 0 15 15" width="100%" height="30px" preserveAspectRatio="xMaxYMin meet">
         <g id="arrow_out" transform="scale(0.3 0.3)">
          <a xlink:href="classTEHatRack_aacec9d24289078b7e98a73067cbf29df_aacec9d24289078b7e98a73067cbf29df_cgraph_org.svg" target="_base">
           <rect id="button" ry="5" rx="5" y="6" x="6" height="38" width="38"
                fill="#f2f5e9" fill-opacity="0.5" stroke="#606060" stroke-width="1.0"/>
           <path id="arrow"
             d="M 11.500037,31.436501 C 11.940474,20.09759 22.043105,11.32322 32.158766,21.979434 L 37.068811,17.246167 C 37.068811,17.246167 37.088388,32 37.088388,32 L 22.160133,31.978069 C 22.160133,31.978069 26.997745,27.140456 26.997745,27.140456 C 18.528582,18.264221 13.291696,25.230495 11.500037,31.436501 z"
             style="fill:#404040;"/>
          </a>
         </g>
        </svg>
</svg>
