<?xml version="1.0" encoding="UTF-8" standalone="no"?>
<!DOCTYPE svg PUBLIC "-//W3C//DTD SVG 1.1//EN"
 "http://www.w3.org/Graphics/SVG/1.1/DTD/svg11.dtd">
<!-- Generated by graphviz version 2.43.0 (0)
 -->
<!-- Title: TEHatRack.Draw Pages: 1 -->
<!--zoomable 297 -->
<svg id="main" version="1.1" xmlns="http://www.w3.org/2000/svg" xmlns:xlink="http://www.w3.org/1999/xlink" xml:space="preserve" onload="init(evt)">
<style type="text/css"><![CDATA[
.edge:hover path { stroke: red; }
.edge:hover polygon { stroke: red; fill: red; }
]]></style>
<script type="text/javascript"><![CDATA[
var edges = document.getElementsByTagName('g');
if (edges && edges.length) {
  for (var i=0;i<edges.length;i++) {
    if (edges[i].id.substr(0,4)=='edge') {
      edges[i].setAttribute('class','edge');
    }
  }
}
]]></script>
        <defs>
                <circle id="rim" cx="0" cy="0" r="7"/>
                <circle id="rim2" cx="0" cy="0" r="3.5"/>
                <g id="zoomPlus">
                        <use xlink:href="#rim" fill="#404040">
                                <set attributeName="fill" to="#808080" begin="zoomplus.mouseover" end="zoomplus.mouseout"/>
                        </use>
                        <path d="M-4,0h8M0,-4v8" fill="none" stroke="white" stroke-width="1.5" pointer-events="none"/>
                </g>
                <g id="zoomMin">
                        <use xlink:href="#rim" fill="#404040">
                                <set attributeName="fill" to="#808080" begin="zoomminus.mouseover" end="zoomminus.mouseout"/>
                        </use>
                        <path d="M-4,0h8" fill="none" stroke="white" stroke-width="1.5" pointer-events="none"/>
                </g>
                <g id="dirArrow">
                        <path fill="none" stroke="white" stroke-width="1.5" d="M0,-3.0v7 M-2.5,-0.5L0,-3.0L2.5,-0.5"/>
                </g>
               <g id="resetDef">
                       <use xlink:href="#rim2" fill="#404040">
                               <set attributeName="fill" to="#808080" begin="reset.mouseover" end="reset.mouseout"/>
                       </use>
               </g>
        </defs>

<script type="text/javascript">
var viewWidth = 900;
var viewHeight = 297;
var sectionId = 'dynsection-0';
</script>
<script xlink:href="../../svgpan.js"/>
<svg id="graph" class="graph">
<g id="viewport">
<title>TEHatRack.Draw</title>
<polygon fill="white" stroke="transparent" points="-4,4 -4,-293 896,-293 896,4 -4,4"/>
<!-- Node1 -->
<g id="node1" class="node">
<title>Node1</title>
<g id="a_node1"><a xlink:title=" ">
<polygon fill="#bfbfbf" stroke="black" points="0,-155.5 0,-174.5 98,-174.5 98,-155.5 0,-155.5"/>
<text text-anchor="middle" x="49" y="-162.5" font-family="Helvetica,sans-Serif" font-size="10.00">TEHatRack.Draw</text>
</a>
</g>
</g>
<!-- Node2 -->
<g id="node2" class="node">
<title>Node2</title>
<g id="a_node2"><a xlink:href="../../d2/d4b/classPlayer_af78e753daa67bc1946a3d7db4c13ca53.html#af78e753daa67bc1946a3d7db4c13ca53" target="_top" xlink:title=" ">
<polygon fill="white" stroke="black" points="147.5,-269.5 147.5,-288.5 288.5,-288.5 288.5,-269.5 147.5,-269.5"/>
<text text-anchor="middle" x="218" y="-276.5" font-family="Helvetica,sans-Serif" font-size="10.00">Player.DisplayDollUpdate</text>
</a>
</g>
</g>
<!-- Node1&#45;&gt;Node2 -->
<g id="edge1" class="edge">
<title>Node1&#45;&gt;Node2</title>
<path fill="none" stroke="midnightblue" d="M55.57,-174.58C67.37,-193.98 96.9,-237.97 134,-260 137.65,-262.17 141.52,-264.08 145.52,-265.78"/>
<polygon fill="midnightblue" stroke="midnightblue" points="144.45,-269.12 155.04,-269.37 146.91,-262.57 144.45,-269.12"/>
</g>
<!-- Node3 -->
<g id="node3" class="node">
<title>Node3</title>
<g id="a_node3"><a xlink:href="../../d3/d40/interfaceIPlayerRenderer_afd06c7b988bf3865576150260946f458.html#afd06c7b988bf3865576150260946f458" target="_top" xlink:title=" ">
<polygon fill="white" stroke="black" points="141.5,-231.5 141.5,-250.5 294.5,-250.5 294.5,-231.5 141.5,-231.5"/>
<text text-anchor="middle" x="218" y="-238.5" font-family="Helvetica,sans-Serif" font-size="10.00">IPlayerRenderer.DrawPlayer</text>
</a>
</g>
</g>
<!-- Node1&#45;&gt;Node3 -->
<g id="edge2" class="edge">
<title>Node1&#45;&gt;Node3</title>
<path fill="none" stroke="midnightblue" d="M61.15,-174.59C76.52,-187.32 105.56,-209.62 134,-222 139.78,-224.52 145.94,-226.72 152.19,-228.65"/>
<polygon fill="midnightblue" stroke="midnightblue" points="151.47,-232.09 162.05,-231.46 153.39,-225.35 151.47,-232.09"/>
</g>
<!-- Node4 -->
<g id="node4" class="node">
<title>Node4</title>
<g id="a_node4"><a xlink:href="../../d4/d93/classFraming_abd8039b983aa9c23a5e15cb547f86002.html#abd8039b983aa9c23a5e15cb547f86002" target="_top" xlink:title=" ">
<polygon fill="white" stroke="black" points="155.5,-193.5 155.5,-212.5 280.5,-212.5 280.5,-193.5 155.5,-193.5"/>
<text text-anchor="middle" x="218" y="-200.5" font-family="Helvetica,sans-Serif" font-size="10.00">Framing.GetTileSafely</text>
</a>
</g>
</g>
<!-- Node1&#45;&gt;Node4 -->
<g id="edge3" class="edge">
<title>Node1&#45;&gt;Node4</title>
<path fill="none" stroke="midnightblue" d="M92.14,-174.59C114.38,-179.65 141.85,-185.9 165.36,-191.25"/>
<polygon fill="midnightblue" stroke="midnightblue" points="164.63,-194.67 175.16,-193.48 166.19,-187.85 164.63,-194.67"/>
</g>
<!-- Node5 -->
<g id="node5" class="node">
<title>Node5</title>
<g id="a_node5"><a xlink:href="../../d2/d4b/classPlayer_adcad7713643d529c00a1e4590e3665bc.html#adcad7713643d529c00a1e4590e3665bc" target="_top" xlink:title=" ">
<polygon fill="white" stroke="black" points="162.5,-155.5 162.5,-174.5 273.5,-174.5 273.5,-155.5 162.5,-155.5"/>
<text text-anchor="middle" x="218" y="-162.5" font-family="Helvetica,sans-Serif" font-size="10.00">Player.PlayerFrame</text>
</a>
</g>
</g>
<!-- Node1&#45;&gt;Node5 -->
<g id="edge4" class="edge">
<title>Node1&#45;&gt;Node5</title>
<path fill="none" stroke="midnightblue" d="M98.3,-165C115.13,-165 134.29,-165 152.24,-165"/>
<polygon fill="midnightblue" stroke="midnightblue" points="152.35,-168.5 162.35,-165 152.35,-161.5 152.35,-168.5"/>
</g>
<!-- Node18 -->
<g id="node18" class="node">
<title>Node18</title>
<g id="a_node18"><a xlink:href="../../d2/d4b/classPlayer_ada3e45fd9ea3f12980786ba8b2e616d8.html#ada3e45fd9ea3f12980786ba8b2e616d8" target="_top" xlink:title=" ">
<polygon fill="white" stroke="black" points="163,-117.5 163,-136.5 273,-136.5 273,-117.5 163,-117.5"/>
<text text-anchor="middle" x="218" y="-124.5" font-family="Helvetica,sans-Serif" font-size="10.00">Player.ResetEffects</text>
</a>
</g>
</g>
<!-- Node1&#45;&gt;Node18 -->
<g id="edge18" class="edge">
<title>Node1&#45;&gt;Node18</title>
<path fill="none" stroke="midnightblue" d="M92.14,-155.41C114.38,-150.35 141.85,-144.1 165.36,-138.75"/>
<polygon fill="midnightblue" stroke="midnightblue" points="166.19,-142.15 175.16,-136.52 164.63,-135.33 166.19,-142.15"/>
</g>
<!-- Node20 -->
<g id="node20" class="node">
<title>Node20</title>
<g id="a_node20"><a xlink:href="../../d2/d4b/classPlayer_ace5eae02cccba169457862b97eed03ce.html#ace5eae02cccba169457862b97eed03ce" target="_top" xlink:title=" ">
<polygon fill="white" stroke="black" points="134,-79.5 134,-98.5 302,-98.5 302,-79.5 134,-79.5"/>
<text text-anchor="middle" x="218" y="-86.5" font-family="Helvetica,sans-Serif" font-size="10.00">Player.ResetVisibleAccessories</text>
</a>
</g>
</g>
<!-- Node1&#45;&gt;Node20 -->
<g id="edge20" class="edge">
<title>Node1&#45;&gt;Node20</title>
<path fill="none" stroke="midnightblue" d="M61.15,-155.41C76.52,-142.68 105.56,-120.38 134,-108 139.78,-105.48 145.94,-103.28 152.19,-101.35"/>
<polygon fill="midnightblue" stroke="midnightblue" points="153.39,-104.65 162.05,-98.54 151.47,-97.91 153.39,-104.65"/>
</g>
<!-- Node21 -->
<g id="node21" class="node">
<title>Node21</title>
<g id="a_node21"><a xlink:href="../../d2/d4b/classPlayer_af37012022ef6667cee8077a4ba7129ee.html#af37012022ef6667cee8077a4ba7129ee" target="_top" xlink:title=" ">
<polygon fill="white" stroke="black" points="163,-41.5 163,-60.5 273,-60.5 273,-41.5 163,-41.5"/>
<text text-anchor="middle" x="218" y="-48.5" font-family="Helvetica,sans-Serif" font-size="10.00">Player.UpdateDyes</text>
</a>
</g>
</g>
<!-- Node1&#45;&gt;Node21 -->
<g id="edge21" class="edge">
<title>Node1&#45;&gt;Node21</title>
<path fill="none" stroke="midnightblue" d="M55.57,-155.42C67.37,-136.02 96.9,-92.03 134,-70 139.89,-66.5 146.37,-63.65 153.03,-61.32"/>
<polygon fill="midnightblue" stroke="midnightblue" points="154.36,-64.57 162.88,-58.27 152.29,-57.88 154.36,-64.57"/>
</g>
<!-- Node6 -->
<g id="node6" class="node">
<title>Node6</title>
<g id="a_node6"><a xlink:href="../../d0/d24/classLighting_a231da45b0b9d4569fa06bd6f031f88f1.html#a231da45b0b9d4569fa06bd6f031f88f1" target="_top" xlink:title=" ">
<polygon fill="white" stroke="black" points="383,-259.5 383,-278.5 484,-278.5 484,-259.5 383,-259.5"/>
<text text-anchor="middle" x="433.5" y="-266.5" font-family="Helvetica,sans-Serif" font-size="10.00">Lighting.AddLight</text>
</a>
</g>
</g>
<!-- Node5&#45;&gt;Node6 -->
<g id="edge5" class="edge">
<title>Node5&#45;&gt;Node6</title>
<path fill="none" stroke="midnightblue" d="M273.71,-170.62C283.81,-173.5 293.75,-177.75 302,-184 328.64,-204.17 311.1,-230.18 338,-250 348.1,-257.44 360.39,-262.15 372.72,-265.1"/>
<polygon fill="midnightblue" stroke="midnightblue" points="372.07,-268.54 382.57,-267.1 373.47,-261.68 372.07,-268.54"/>
</g>
<!-- Node7 -->
<g id="node7" class="node">
<title>Node7</title>
<g id="a_node7"><a xlink:href="../../d0/dae/classItem_a8e2cd96427c929c7179c1df32503f0b5.html#a8e2cd96427c929c7179c1df32503f0b5" target="_top" xlink:title=" ">
<polygon fill="white" stroke="black" points="375,-221.5 375,-240.5 492,-240.5 492,-221.5 375,-221.5"/>
<text text-anchor="middle" x="433.5" y="-228.5" font-family="Helvetica,sans-Serif" font-size="10.00">Item.GetDrawHitbox</text>
</a>
</g>
</g>
<!-- Node5&#45;&gt;Node7 -->
<g id="edge6" class="edge">
<title>Node5&#45;&gt;Node7</title>
<path fill="none" stroke="midnightblue" d="M273.73,-173.95C283.4,-176.53 293.19,-179.82 302,-184 320.31,-192.69 319.57,-203.56 338,-212 346.38,-215.84 355.53,-218.91 364.72,-221.36"/>
<polygon fill="midnightblue" stroke="midnightblue" points="364.15,-224.82 374.69,-223.78 365.8,-218.02 364.15,-224.82"/>
</g>
<!-- Node9 -->
<g id="node9" class="node">
<title>Node9</title>
<g id="a_node9"><a xlink:href="../../d5/d2f/classArmorShaderDataSet_a86c0be2a09a43966c8daf483c2665777.html#a86c0be2a09a43966c8daf483c2665777" target="_top" xlink:title=" ">
<polygon fill="white" stroke="black" points="338,-172 338,-202 529,-202 529,-172 338,-172"/>
<text text-anchor="start" x="346" y="-190" font-family="Helvetica,sans-Serif" font-size="10.00">ArmorShaderDataSet.GetSecondary</text>
<text text-anchor="middle" x="433.5" y="-179" font-family="Helvetica,sans-Serif" font-size="10.00">Shader</text>
</a>
</g>
</g>
<!-- Node5&#45;&gt;Node9 -->
<g id="edge8" class="edge">
<title>Node5&#45;&gt;Node9</title>
<path fill="none" stroke="midnightblue" d="M273.7,-170.64C290.25,-172.34 309.01,-174.27 327.68,-176.2"/>
<polygon fill="midnightblue" stroke="midnightblue" points="327.43,-179.69 337.73,-177.23 328.14,-172.73 327.43,-179.69"/>
</g>
<!-- Node10 -->
<g id="node10" class="node">
<title>Node10</title>
<g id="a_node10"><a xlink:href="../../d1/dc5/classDust_ab171b38c60e5943ad1e33eeaef0f0ed1.html#ab171b38c60e5943ad1e33eeaef0f0ed1" target="_top" xlink:title=" ">
<polygon fill="white" stroke="black" points="390.5,-95.5 390.5,-114.5 476.5,-114.5 476.5,-95.5 390.5,-95.5"/>
<text text-anchor="middle" x="433.5" y="-102.5" font-family="Helvetica,sans-Serif" font-size="10.00">Dust.NewDust</text>
</a>
</g>
</g>
<!-- Node5&#45;&gt;Node10 -->
<g id="edge9" class="edge">
<title>Node5&#45;&gt;Node10</title>
<path fill="none" stroke="midnightblue" d="M268.65,-155.48C279.75,-152.84 291.38,-149.67 302,-146 318.72,-140.21 321.35,-134.98 338,-129 351.46,-124.16 366.33,-119.91 380.21,-116.37"/>
<polygon fill="midnightblue" stroke="midnightblue" points="381.24,-119.72 390.11,-113.93 379.56,-112.93 381.24,-119.72"/>
</g>
<!-- Node11 -->
<g id="node11" class="node">
<title>Node11</title>
<g id="a_node11"><a xlink:href="../../d6/d9a/classUnifiedRandom_a424f3e9455eb9b0a67085171d7d93d18.html#a424f3e9455eb9b0a67085171d7d93d18" target="_top" xlink:title=" ">
<polygon fill="white" stroke="black" points="567,-133.5 567,-152.5 685,-152.5 685,-133.5 567,-133.5"/>
<text text-anchor="middle" x="626" y="-140.5" font-family="Helvetica,sans-Serif" font-size="10.00">UnifiedRandom.Next</text>
</a>
</g>
</g>
<!-- Node5&#45;&gt;Node11 -->
<g id="edge17" class="edge">
<title>Node5&#45;&gt;Node11</title>
<path fill="none" stroke="midnightblue" d="M273.75,-162.03C346.98,-158.07 476.79,-151.03 556.44,-146.72"/>
<polygon fill="midnightblue" stroke="midnightblue" points="557.06,-150.19 566.86,-146.15 556.68,-143.2 557.06,-150.19"/>
</g>
<!-- Node8 -->
<g id="node8" class="node">
<title>Node8</title>
<g id="a_node8"><a xlink:href="../../db/d4a/classMain_a977a3c4c4f1f7e8e47307624db4da6ce.html#a977a3c4c4f1f7e8e47307624db4da6ce" target="_top" xlink:title=" ">
<polygon fill="white" stroke="black" points="581.5,-221.5 581.5,-240.5 670.5,-240.5 670.5,-221.5 581.5,-221.5"/>
<text text-anchor="middle" x="626" y="-228.5" font-family="Helvetica,sans-Serif" font-size="10.00">Main.LoadItem</text>
</a>
</g>
</g>
<!-- Node7&#45;&gt;Node8 -->
<g id="edge7" class="edge">
<title>Node7&#45;&gt;Node8</title>
<path fill="none" stroke="midnightblue" d="M492.17,-231C517.28,-231 546.53,-231 571.18,-231"/>
<polygon fill="midnightblue" stroke="midnightblue" points="571.44,-234.5 581.44,-231 571.44,-227.5 571.44,-234.5"/>
</g>
<!-- Node10&#45;&gt;Node11 -->
<g id="edge10" class="edge">
<title>Node10&#45;&gt;Node11</title>
<path fill="none" stroke="midnightblue" d="M476.78,-113.43C503.35,-118.73 537.99,-125.64 567.1,-131.45"/>
<polygon fill="midnightblue" stroke="midnightblue" points="566.65,-134.93 577.14,-133.45 568.02,-128.06 566.65,-134.93"/>
</g>
<!-- Node13 -->
<g id="node13" class="node">
<title>Node13</title>
<g id="a_node13"><a xlink:href="../../d6/d57/classCollision_ae0ddf0a5ce91af80127b25408630fcf9.html#ae0ddf0a5ce91af80127b25408630fcf9" target="_top" xlink:title=" ">
<polygon fill="white" stroke="black" points="565,-76.5 565,-95.5 687,-95.5 687,-76.5 565,-76.5"/>
<text text-anchor="middle" x="626" y="-83.5" font-family="Helvetica,sans-Serif" font-size="10.00">Collision.WetCollision</text>
</a>
</g>
</g>
<!-- Node10&#45;&gt;Node13 -->
<g id="edge12" class="edge">
<title>Node10&#45;&gt;Node13</title>
<path fill="none" stroke="midnightblue" d="M476.78,-100.78C499.62,-98.51 528.41,-95.63 554.53,-93.03"/>
<polygon fill="midnightblue" stroke="midnightblue" points="555.17,-96.48 564.77,-92.01 554.48,-89.52 555.17,-96.48"/>
</g>
<!-- Node12 -->
<g id="node12" class="node">
<title>Node12</title>
<g id="a_node12"><a xlink:href="../../d6/d9a/classUnifiedRandom_a005be01cf2fb47d9f5d02f0d44ed5921.html#a005be01cf2fb47d9f5d02f0d44ed5921" target="_top" xlink:title=" ">
<polygon fill="white" stroke="black" points="723,-152.5 723,-171.5 892,-171.5 892,-152.5 723,-152.5"/>
<text text-anchor="middle" x="807.5" y="-159.5" font-family="Helvetica,sans-Serif" font-size="10.00">UnifiedRandom.InternalSample</text>
</a>
</g>
</g>
<!-- Node11&#45;&gt;Node12 -->
<g id="edge11" class="edge">
<title>Node11&#45;&gt;Node12</title>
<path fill="none" stroke="midnightblue" d="M685.28,-149.17C694.07,-150.1 703.33,-151.08 712.65,-152.07"/>
<polygon fill="midnightblue" stroke="midnightblue" points="712.45,-155.56 722.76,-153.14 713.19,-148.6 712.45,-155.56"/>
</g>
<!-- Node14 -->
<g id="node14" class="node">
<title>Node14</title>
<g id="a_node14"><a xlink:href="../../d6/dba/classTile_a64e4b5e9c17707d5bf63cf590bb48c9b.html#a64e4b5e9c17707d5bf63cf590bb48c9b" target="_top" xlink:title=" ">
<polygon fill="white" stroke="black" points="773.5,-114.5 773.5,-133.5 841.5,-133.5 841.5,-114.5 773.5,-114.5"/>
<text text-anchor="middle" x="807.5" y="-121.5" font-family="Helvetica,sans-Serif" font-size="10.00">Tile.active</text>
</a>
</g>
</g>
<!-- Node13&#45;&gt;Node14 -->
<g id="edge13" class="edge">
<title>Node13&#45;&gt;Node14</title>
<path fill="none" stroke="midnightblue" d="M672.3,-95.59C700.2,-101.5 735.77,-109.03 763.28,-114.85"/>
<polygon fill="midnightblue" stroke="midnightblue" points="762.89,-118.35 773.4,-116.99 764.34,-111.5 762.89,-118.35"/>
</g>
<!-- Node15 -->
<g id="node15" class="node">
<title>Node15</title>
<g id="a_node15"><a xlink:href="../../d6/dba/classTile_ad451212544c9232ae5439bbf0dcaf256.html#ad451212544c9232ae5439bbf0dcaf256" target="_top" xlink:title=" ">
<polygon fill="white" stroke="black" points="773.5,-76.5 773.5,-95.5 841.5,-95.5 841.5,-76.5 773.5,-76.5"/>
<text text-anchor="middle" x="807.5" y="-83.5" font-family="Helvetica,sans-Serif" font-size="10.00">Tile.honey</text>
</a>
</g>
</g>
<!-- Node13&#45;&gt;Node15 -->
<g id="edge14" class="edge">
<title>Node13&#45;&gt;Node15</title>
<path fill="none" stroke="midnightblue" d="M687.27,-86C712.18,-86 740.49,-86 763.28,-86"/>
<polygon fill="midnightblue" stroke="midnightblue" points="763.32,-89.5 773.32,-86 763.32,-82.5 763.32,-89.5"/>
</g>
<!-- Node16 -->
<g id="node16" class="node">
<title>Node16</title>
<g id="a_node16"><a xlink:href="../../d6/dba/classTile_afb92de6645902cfbba5c7d273b629167.html#afb92de6645902cfbba5c7d273b629167" target="_top" xlink:title=" ">
<polygon fill="white" stroke="black" points="767,-38.5 767,-57.5 848,-57.5 848,-38.5 767,-38.5"/>
<text text-anchor="middle" x="807.5" y="-45.5" font-family="Helvetica,sans-Serif" font-size="10.00">Tile.shimmer</text>
</a>
</g>
</g>
<!-- Node13&#45;&gt;Node16 -->
<g id="edge15" class="edge">
<title>Node13&#45;&gt;Node16</title>
<path fill="none" stroke="midnightblue" d="M672.3,-76.41C698.08,-70.95 730.42,-64.11 756.89,-58.5"/>
<polygon fill="midnightblue" stroke="midnightblue" points="757.66,-61.92 766.72,-56.42 756.21,-55.07 757.66,-61.92"/>
</g>
<!-- Node17 -->
<g id="node17" class="node">
<title>Node17</title>
<g id="a_node17"><a xlink:href="../../d6/dba/classTile_a402ffa996ee74bf853b1538dfd39831c.html#a402ffa996ee74bf853b1538dfd39831c" target="_top" xlink:title=" ">
<polygon fill="white" stroke="black" points="775.5,-0.5 775.5,-19.5 839.5,-19.5 839.5,-0.5 775.5,-0.5"/>
<text text-anchor="middle" x="807.5" y="-7.5" font-family="Helvetica,sans-Serif" font-size="10.00">Tile.slope</text>
</a>
</g>
</g>
<!-- Node13&#45;&gt;Node17 -->
<g id="edge16" class="edge">
<title>Node13&#45;&gt;Node17</title>
<path fill="none" stroke="midnightblue" d="M639.98,-76.48C657.82,-63.85 691.32,-41.65 723,-29 736.31,-23.69 751.44,-19.68 765.13,-16.75"/>
<polygon fill="midnightblue" stroke="midnightblue" points="766.15,-20.11 775.27,-14.71 764.77,-13.25 766.15,-20.11"/>
</g>
<!-- Node19 -->
<g id="node19" class="node">
<title>Node19</title>
<g id="a_node19"><a xlink:href="../../d7/d66/classSoundEngine_a6c31f285c7bb4711799ee29c96bb2806.html#a6c31f285c7bb4711799ee29c96bb2806" target="_top" xlink:title=" ">
<polygon fill="white" stroke="black" points="366.5,-57.5 366.5,-76.5 500.5,-76.5 500.5,-57.5 366.5,-57.5"/>
<text text-anchor="middle" x="433.5" y="-64.5" font-family="Helvetica,sans-Serif" font-size="10.00">SoundEngine.PlaySound</text>
</a>
</g>
</g>
<!-- Node18&#45;&gt;Node19 -->
<g id="edge19" class="edge">
<title>Node18&#45;&gt;Node19</title>
<path fill="none" stroke="midnightblue" d="M272.48,-117.44C282.47,-114.91 292.69,-111.79 302,-108 319.37,-100.93 320.54,-92.84 338,-86 344.75,-83.36 351.92,-81.06 359.17,-79.08"/>
<polygon fill="midnightblue" stroke="midnightblue" points="360.26,-82.41 369.09,-76.56 358.54,-75.63 360.26,-82.41"/>
</g>
</g>
</svg>
        <g id="navigator" transform="translate(0 0)" fill="#404254">
                <rect fill="#f2f5e9" fill-opacity="0.5" stroke="#606060" stroke-width=".5" x="0" y="0" width="60" height="60"/>
                <use id="zoomplus" xlink:href="#zoomPlus" x="17" y="9" onmousedown="handleZoom(evt,'in')"/>
                <use id="zoomminus" xlink:href="#zoomMin" x="42" y="9" onmousedown="handleZoom(evt,'out')"/>
                <use id="reset" xlink:href="#resetDef" x="30" y="36" onmousedown="handleReset()"/>
                <g id="arrowUp" xlink:href="#dirArrow" transform="translate(30 24)" onmousedown="handlePan(0,-1)">
                  <use xlink:href="#rim" fill="#404040">
                        <set attributeName="fill" to="#808080" begin="arrowUp.mouseover" end="arrowUp.mouseout"/>
                  </use>
                  <path fill="none" stroke="white" stroke-width="1.5" d="M0,-3.0v7 M-2.5,-0.5L0,-3.0L2.5,-0.5"/>
                </g>
                <g id="arrowRight" xlink:href="#dirArrow" transform="rotate(90) translate(36 -43)" onmousedown="handlePan(1,0)">
                  <use xlink:href="#rim" fill="#404040">
                        <set attributeName="fill" to="#808080" begin="arrowRight.mouseover" end="arrowRight.mouseout"/>
                  </use>
                  <path fill="none" stroke="white" stroke-width="1.5" d="M0,-3.0v7 M-2.5,-0.5L0,-3.0L2.5,-0.5"/>
                </g>
                <g id="arrowDown" xlink:href="#dirArrow" transform="rotate(180) translate(-30 -48)" onmousedown="handlePan(0,1)">
                  <use xlink:href="#rim" fill="#404040">
                        <set attributeName="fill" to="#808080" begin="arrowDown.mouseover" end="arrowDown.mouseout"/>
                  </use>
                  <path fill="none" stroke="white" stroke-width="1.5" d="M0,-3.0v7 M-2.5,-0.5L0,-3.0L2.5,-0.5"/>
                </g>
                <g id="arrowLeft" xlink:href="#dirArrow" transform="rotate(270) translate(-36 17)" onmousedown="handlePan(-1,0)">
                  <use xlink:href="#rim" fill="#404040">
                        <set attributeName="fill" to="#808080" begin="arrowLeft.mouseover" end="arrowLeft.mouseout"/>
                  </use>
                  <path fill="none" stroke="white" stroke-width="1.5" d="M0,-3.0v7 M-2.5,-0.5L0,-3.0L2.5,-0.5"/>
                </g>
        </g>
        <svg viewBox="0 0 15 15" width="100%" height="30px" preserveAspectRatio="xMaxYMin meet">
         <g id="arrow_out" transform="scale(0.3 0.3)">
          <a xlink:href="classTEHatRack_ae2a4dfec1fad82554a7476eaeb362e2c_ae2a4dfec1fad82554a7476eaeb362e2c_cgraph_org.svg" target="_base">
           <rect id="button" ry="5" rx="5" y="6" x="6" height="38" width="38"
                fill="#f2f5e9" fill-opacity="0.5" stroke="#606060" stroke-width="1.0"/>
           <path id="arrow"
             d="M 11.500037,31.436501 C 11.940474,20.09759 22.043105,11.32322 32.158766,21.979434 L 37.068811,17.246167 C 37.068811,17.246167 37.088388,32 37.088388,32 L 22.160133,31.978069 C 22.160133,31.978069 26.997745,27.140456 26.997745,27.140456 C 18.528582,18.264221 13.291696,25.230495 11.500037,31.436501 z"
             style="fill:#404040;"/>
          </a>
         </g>
        </svg>
</svg>
