<?xml version="1.0" encoding="UTF-8" standalone="no"?>
<!DOCTYPE svg PUBLIC "-//W3C//DTD SVG 1.1//EN"
 "http://www.w3.org/Graphics/SVG/1.1/DTD/svg11.dtd">
<!-- Generated by graphviz version 2.43.0 (0)
 -->
<!-- Title: Terraria.GameContent.UI.Chat.GlyphTagHandler Pages: 1 -->
<svg width="159pt" height="316pt"
 viewBox="0.00 0.00 159.00 316.00" xmlns="http://www.w3.org/2000/svg" xmlns:xlink="http://www.w3.org/1999/xlink">
<g id="graph0" class="graph" transform="scale(1 1) rotate(0) translate(4 312)">
<title>Terraria.GameContent.UI.Chat.GlyphTagHandler</title>
<!-- Node1 -->
<g id="Node000001" class="node">
<title>Node1</title>
<g id="a_Node000001"><a xlink:title=" ">
<polygon fill="#999999" stroke="transparent" points="151,-190 0,-190 0,0 151,0 151,-190"/>
<text text-anchor="start" x="14" y="-178" font-family="Helvetica,sans-Serif" font-size="10.00">Terraria.GameContent.UI.</text>
<text text-anchor="start" x="21.5" y="-167" font-family="Helvetica,sans-Serif" font-size="10.00">Chat.GlyphTagHandler</text>
<text text-anchor="start" x="4.5" y="-152" font-family="Helvetica,sans-Serif" font-size="10.00">+</text>
<text text-anchor="start" x="17.5" y="-152" font-family="Helvetica,sans-Serif" font-size="10.00">static float GlyphsScale</text>
<text text-anchor="start" x="7" y="-137" font-family="Helvetica,sans-Serif" font-size="10.00">&#45;</text>
<text text-anchor="start" x="17.5" y="-137" font-family="Helvetica,sans-Serif" font-size="10.00">const int GlyphsPerLine</text>
<text text-anchor="start" x="7" y="-122" font-family="Helvetica,sans-Serif" font-size="10.00">&#45;</text>
<text text-anchor="start" x="17.5" y="-122" font-family="Helvetica,sans-Serif" font-size="10.00">const int MaxGlyphs</text>
<text text-anchor="start" x="7" y="-107" font-family="Helvetica,sans-Serif" font-size="10.00">&#45;</text>
<text text-anchor="start" x="17.5" y="-107" font-family="Helvetica,sans-Serif" font-size="10.00">static Dictionary&lt;</text>
<text text-anchor="start" x="17.5" y="-96" font-family="Helvetica,sans-Serif" font-size="10.00"> string, int &gt; GlyphIndexes</text>
<text text-anchor="start" x="4.5" y="-81" font-family="Helvetica,sans-Serif" font-size="10.00">+</text>
<text text-anchor="start" x="17.5" y="-81" font-family="Helvetica,sans-Serif" font-size="10.00">static string GenerateTag</text>
<text text-anchor="start" x="17.5" y="-70" font-family="Helvetica,sans-Serif" font-size="10.00">(int index)</text>
<text text-anchor="start" x="4.5" y="-55" font-family="Helvetica,sans-Serif" font-size="10.00">+</text>
<text text-anchor="start" x="17.5" y="-55" font-family="Helvetica,sans-Serif" font-size="10.00">static string GenerateTag</text>
<text text-anchor="start" x="17.5" y="-44" font-family="Helvetica,sans-Serif" font-size="10.00">(string keyname)</text>
<text text-anchor="start" x="7" y="-29" font-family="Helvetica,sans-Serif" font-size="10.00">&#45;</text>
<text text-anchor="start" x="17.5" y="-29" font-family="Helvetica,sans-Serif" font-size="10.00">TextSnippet ITagHandler.</text>
<text text-anchor="start" x="17.5" y="-18" font-family="Helvetica,sans-Serif" font-size="10.00"> Parse(string text, Color</text>
<text text-anchor="start" x="17.5" y="-7" font-family="Helvetica,sans-Serif" font-size="10.00"> baseColor, string options)</text>
<polygon fill="#666666" stroke="#666666" points="0.5,-162 0.5,-162 151.5,-162 151.5,-162 0.5,-162"/>
<polygon fill="#666666" stroke="#666666" points="0.5,-91 0.5,-91 15.5,-91 15.5,-91 0.5,-91"/>
<polygon fill="#666666" stroke="#666666" points="15.5,-91 15.5,-91 151.5,-91 151.5,-91 15.5,-91"/>
<polygon fill="none" stroke="#666666" points="0,0 0,-190 151,-190 151,0 0,0"/>
</a>
</g>
</g>
<!-- Node2 -->
<g id="Node000002" class="node">
<title>Node2</title>
<g id="a_Node000002"><a xlink:href="../../dc/d25/interfaceTerraria_1_1UI_1_1Chat_1_1ITagHandler.html" target="_top" xlink:title=" ">
<polygon fill="white" stroke="transparent" points="145,-308 6,-308 6,-226 145,-226 145,-308"/>
<text text-anchor="start" x="47" y="-296" font-family="Helvetica,sans-Serif" font-size="10.00">ITagHandler</text>
<text text-anchor="start" x="74" y="-281" font-family="Helvetica,sans-Serif" font-size="10.00"> </text>
<text text-anchor="start" x="10.5" y="-266" font-family="Helvetica,sans-Serif" font-size="10.00">+</text>
<text text-anchor="start" x="23.5" y="-266" font-family="Helvetica,sans-Serif" font-size="10.00">TextSnippet Parse(string</text>
<text text-anchor="start" x="23.5" y="-255" font-family="Helvetica,sans-Serif" font-size="10.00"> text, Color baseColor</text>
<text text-anchor="start" x="23.5" y="-244" font-family="Helvetica,sans-Serif" font-size="10.00">=default(Color), string</text>
<text text-anchor="start" x="23.5" y="-233" font-family="Helvetica,sans-Serif" font-size="10.00"> options=null)</text>
<polygon fill="#666666" stroke="#666666" points="6.5,-291 6.5,-291 145.5,-291 145.5,-291 6.5,-291"/>
<polygon fill="#666666" stroke="#666666" points="6.5,-276 6.5,-276 145.5,-276 145.5,-276 6.5,-276"/>
<polygon fill="none" stroke="#666666" points="6,-226 6,-308 145,-308 145,-226 6,-226"/>
</a>
</g>
</g>
<!-- Node2&#45;&gt;Node1 -->
<g id="edge1_Node000001_Node000002" class="edge">
<title>Node2&#45;&gt;Node1</title>
<g id="a_edge1_Node000001_Node000002"><a xlink:title=" ">
<path fill="none" stroke="#63b8ff" d="M75.5,-215.67C75.5,-207.51 75.5,-198.82 75.5,-190.01"/>
<polygon fill="none" stroke="#63b8ff" points="72,-215.71 75.5,-225.71 79,-215.71 72,-215.71"/>
</a>
</g>
</g>
</g>
</svg>
