<?xml version="1.0" encoding="UTF-8" standalone="no"?>
<!DOCTYPE svg PUBLIC "-//W3C//DTD SVG 1.1//EN"
 "http://www.w3.org/Graphics/SVG/1.1/DTD/svg11.dtd">
<!-- Generated by graphviz version 2.43.0 (0)
 -->
<!-- Title: Terraria.Graphics.Renderers.FadingParticle Pages: 1 -->
<!--zoomable 926 -->

<svg id="main" version="1.1" xmlns="http://www.w3.org/2000/svg" xmlns:xlink="http://www.w3.org/1999/xlink" xml:space="preserve" onload="init(evt)">
<style type="text/css"><![CDATA[
.node, .edge {opacity: 0.7;}
.node.selected, .edge.selected {opacity: 1;}
.edge:hover path { stroke: red; }
.edge:hover polygon { stroke: red; fill: red; }
]]></style>

<defs>
  <circle id="rim" cx="0" cy="0" r="7"/>
  <circle id="rim2" cx="0" cy="0" r="3.5"/>
  <g id="zoomPlus">
    <use xlink:href="#rim" fill="#404040"><set attributeName="fill" to="#808080" begin="zoomplus.mouseover" end="zoomplus.mouseout"/></use>
    <path d="M-4,0h8M0,-4v8" fill="none" stroke="white" stroke-width="1.5" pointer-events="none"/>
  </g>
  <g id="zoomMin">
    <use xlink:href="#rim" fill="#404040"><set attributeName="fill" to="#808080" begin="zoomminus.mouseover" end="zoomminus.mouseout"/></use>
    <path d="M-4,0h8" fill="none" stroke="white" stroke-width="1.5" pointer-events="none"/>
  </g>
  <g id="arrowUp" transform="translate(30 24)">
    <use xlink:href="#rim"/>
    <path pointer-events="none" fill="none" stroke="white" stroke-width="1.5" d="M0,-3.0v7 M-2.5,-0.5L0,-3.0L2.5,-0.5"/>
  </g>
  <g id="arrowRight" transform="rotate(90) translate(36 -43)">
    <use xlink:href="#rim"/>
    <path pointer-events="none" fill="none" stroke="white" stroke-width="1.5" d="M0,-3.0v7 M-2.5,-0.5L0,-3.0L2.5,-0.5"/>
  </g>
  <g id="arrowDown" transform="rotate(180) translate(-30 -48)">
    <use xlink:href="#rim"/>
    <path pointer-events="none" fill="none" stroke="white" stroke-width="1.5" d="M0,-3.0v7 M-2.5,-0.5L0,-3.0L2.5,-0.5"/>
  </g>
  <g id="arrowLeft" transform="rotate(270) translate(-36 17)">
    <use xlink:href="#rim"/>
    <path pointer-events="none" fill="none" stroke="white" stroke-width="1.5" d="M0,-3.0v7 M-2.5,-0.5L0,-3.0L2.5,-0.5"/>
  </g>
  <g id="resetDef">
    <use xlink:href="#rim2" fill="#404040"><set attributeName="fill" to="#808080" begin="reset.mouseover" end="reset.mouseout"/></use>
  </g>
</defs>
<script type="application/ecmascript">
var viewWidth = 234;
var viewHeight = 926;
var sectionId = 'dynsection-0';
</script>
<script type="application/ecmascript" xlink:href="../../svg.min.js"/>
<svg id="graph" class="graph">
<g id="viewport">
<title>Terraria.Graphics.Renderers.FadingParticle</title>
<!-- Node1 -->
<g id="Node000001" class="node">
<title>Node1</title>
<g id="a_Node000001"><a xlink:title=" ">
<polygon fill="#999999" stroke="transparent" points="206.5,-220 19.5,-220 19.5,0 206.5,0 206.5,-220"/>
<text text-anchor="start" x="44" y="-208" font-family="Helvetica,sans-Serif" font-size="10.00">Terraria.Graphics.Renderers.</text>
<text text-anchor="start" x="79.5" y="-197" font-family="Helvetica,sans-Serif" font-size="10.00">FadingParticle</text>
<text text-anchor="start" x="24" y="-182" font-family="Helvetica,sans-Serif" font-size="10.00">+</text>
<text text-anchor="start" x="37" y="-182" font-family="Helvetica,sans-Serif" font-size="10.00">float FadeInNormalizedTime</text>
<text text-anchor="start" x="24" y="-167" font-family="Helvetica,sans-Serif" font-size="10.00">+</text>
<text text-anchor="start" x="37" y="-167" font-family="Helvetica,sans-Serif" font-size="10.00">float FadeOutNormalizedTime</text>
<text text-anchor="start" x="24" y="-152" font-family="Helvetica,sans-Serif" font-size="10.00">+</text>
<text text-anchor="start" x="37" y="-152" font-family="Helvetica,sans-Serif" font-size="10.00">Color ColorTint</text>
<text text-anchor="start" x="26.5" y="-137" font-family="Helvetica,sans-Serif" font-size="10.00">&#45;</text>
<text text-anchor="start" x="37" y="-137" font-family="Helvetica,sans-Serif" font-size="10.00">float _timeTolive</text>
<text text-anchor="start" x="26.5" y="-122" font-family="Helvetica,sans-Serif" font-size="10.00">&#45;</text>
<text text-anchor="start" x="37" y="-122" font-family="Helvetica,sans-Serif" font-size="10.00">float _timeSinceSpawn</text>
<text text-anchor="start" x="24" y="-107" font-family="Helvetica,sans-Serif" font-size="10.00">+</text>
<text text-anchor="start" x="37" y="-107" font-family="Helvetica,sans-Serif" font-size="10.00">override void FetchFromPool()</text>
<text text-anchor="start" x="24" y="-92" font-family="Helvetica,sans-Serif" font-size="10.00">+</text>
<text text-anchor="start" x="37" y="-92" font-family="Helvetica,sans-Serif" font-size="10.00">void SetTypeInfo(float</text>
<text text-anchor="start" x="37" y="-81" font-family="Helvetica,sans-Serif" font-size="10.00"> timeToLive)</text>
<text text-anchor="start" x="24" y="-66" font-family="Helvetica,sans-Serif" font-size="10.00">+</text>
<text text-anchor="start" x="37" y="-66" font-family="Helvetica,sans-Serif" font-size="10.00">override void Update</text>
<text text-anchor="start" x="37" y="-55" font-family="Helvetica,sans-Serif" font-size="10.00">(ref ParticleRendererSettings</text>
<text text-anchor="start" x="37" y="-44" font-family="Helvetica,sans-Serif" font-size="10.00"> settings)</text>
<text text-anchor="start" x="24" y="-29" font-family="Helvetica,sans-Serif" font-size="10.00">+</text>
<text text-anchor="start" x="37" y="-29" font-family="Helvetica,sans-Serif" font-size="10.00">override void Draw</text>
<text text-anchor="start" x="37" y="-18" font-family="Helvetica,sans-Serif" font-size="10.00">(ref ParticleRendererSettings</text>
<text text-anchor="start" x="37" y="-7" font-family="Helvetica,sans-Serif" font-size="10.00"> settings, SpriteBatch spritebatch)</text>
<polygon fill="#666666" stroke="#666666" points="20,-192 20,-192 207,-192 207,-192 20,-192"/>
<polygon fill="#666666" stroke="#666666" points="20,-117 20,-117 35,-117 35,-117 20,-117"/>
<polygon fill="#666666" stroke="#666666" points="35,-117 35,-117 207,-117 207,-117 35,-117"/>
<polygon fill="none" stroke="#666666" points="19.5,0 19.5,-220 206.5,-220 206.5,0 19.5,0"/>
</a>
</g>
</g>
<!-- Node2 -->
<g id="Node000002" class="node">
<title>Node2</title>
<g id="a_Node000002"><a xlink:href="../../d4/d57/classTerraria_1_1Graphics_1_1Renderers_1_1ABasicParticle.html" target="_top" xlink:title=" ">
<polygon fill="white" stroke="transparent" points="226,-674 0,-674 0,-256 226,-256 226,-674"/>
<text text-anchor="start" x="78" y="-662" font-family="Helvetica,sans-Serif" font-size="10.00">ABasicParticle</text>
<text text-anchor="start" x="4" y="-647" font-family="Helvetica,sans-Serif" font-size="10.00">+</text>
<text text-anchor="start" x="17" y="-647" font-family="Helvetica,sans-Serif" font-size="10.00">Vector2 AccelerationPerFrame</text>
<text text-anchor="start" x="4" y="-632" font-family="Helvetica,sans-Serif" font-size="10.00">+</text>
<text text-anchor="start" x="17" y="-632" font-family="Helvetica,sans-Serif" font-size="10.00">Vector2 Velocity</text>
<text text-anchor="start" x="4" y="-617" font-family="Helvetica,sans-Serif" font-size="10.00">+</text>
<text text-anchor="start" x="17" y="-617" font-family="Helvetica,sans-Serif" font-size="10.00">Vector2 LocalPosition</text>
<text text-anchor="start" x="4" y="-602" font-family="Helvetica,sans-Serif" font-size="10.00">+</text>
<text text-anchor="start" x="17" y="-602" font-family="Helvetica,sans-Serif" font-size="10.00">float Rotation</text>
<text text-anchor="start" x="4" y="-587" font-family="Helvetica,sans-Serif" font-size="10.00">+</text>
<text text-anchor="start" x="17" y="-587" font-family="Helvetica,sans-Serif" font-size="10.00">float RotationVelocity</text>
<text text-anchor="start" x="4" y="-572" font-family="Helvetica,sans-Serif" font-size="10.00">+</text>
<text text-anchor="start" x="17" y="-572" font-family="Helvetica,sans-Serif" font-size="10.00">float RotationAcceleration</text>
<text text-anchor="start" x="4" y="-557" font-family="Helvetica,sans-Serif" font-size="10.00">+</text>
<text text-anchor="start" x="17" y="-557" font-family="Helvetica,sans-Serif" font-size="10.00">Vector2 Scale</text>
<text text-anchor="start" x="4" y="-542" font-family="Helvetica,sans-Serif" font-size="10.00">+</text>
<text text-anchor="start" x="17" y="-542" font-family="Helvetica,sans-Serif" font-size="10.00">Vector2 ScaleVelocity</text>
<text text-anchor="start" x="4" y="-527" font-family="Helvetica,sans-Serif" font-size="10.00">+</text>
<text text-anchor="start" x="17" y="-527" font-family="Helvetica,sans-Serif" font-size="10.00">Vector2 ScaleAcceleration</text>
<text text-anchor="start" x="4" y="-512" font-family="Helvetica,sans-Serif" font-size="10.00">+</text>
<text text-anchor="start" x="17" y="-512" font-family="Helvetica,sans-Serif" font-size="10.00">bool ShouldBeRemovedFrom</text>
<text text-anchor="start" x="17" y="-501" font-family="Helvetica,sans-Serif" font-size="10.00">Renderer</text>
<text text-anchor="start" x="4" y="-486" font-family="Helvetica,sans-Serif" font-size="10.00">+</text>
<text text-anchor="start" x="17" y="-486" font-family="Helvetica,sans-Serif" font-size="10.00">bool IsRestingInPool</text>
<text text-anchor="start" x="4" y="-471" font-family="Helvetica,sans-Serif" font-size="10.00">#</text>
<text text-anchor="start" x="17" y="-471" font-family="Helvetica,sans-Serif" font-size="10.00">Asset&lt; Texture2D &gt;</text>
<text text-anchor="start" x="17" y="-460" font-family="Helvetica,sans-Serif" font-size="10.00"> _texture</text>
<text text-anchor="start" x="4" y="-445" font-family="Helvetica,sans-Serif" font-size="10.00">#</text>
<text text-anchor="start" x="17" y="-445" font-family="Helvetica,sans-Serif" font-size="10.00">Rectangle _frame</text>
<text text-anchor="start" x="4" y="-430" font-family="Helvetica,sans-Serif" font-size="10.00">#</text>
<text text-anchor="start" x="17" y="-430" font-family="Helvetica,sans-Serif" font-size="10.00">Vector2 _origin</text>
<text text-anchor="start" x="4" y="-415" font-family="Helvetica,sans-Serif" font-size="10.00">+</text>
<text text-anchor="start" x="17" y="-415" font-family="Helvetica,sans-Serif" font-size="10.00">ABasicParticle()</text>
<text text-anchor="start" x="4" y="-400" font-family="Helvetica,sans-Serif" font-size="10.00">+</text>
<text text-anchor="start" x="17" y="-400" font-family="Helvetica,sans-Serif" font-size="10.00">virtual void SetBasicInfo</text>
<text text-anchor="start" x="17" y="-389" font-family="Helvetica,sans-Serif" font-size="10.00">(Asset&lt; Texture2D &gt; textureAsset,</text>
<text text-anchor="start" x="17" y="-378" font-family="Helvetica,sans-Serif" font-size="10.00"> Rectangle? frame, Vector2 initialVelocity,</text>
<text text-anchor="start" x="17" y="-367" font-family="Helvetica,sans-Serif" font-size="10.00"> Vector2 initialLocalPosition)</text>
<text text-anchor="start" x="4" y="-352" font-family="Helvetica,sans-Serif" font-size="10.00">+</text>
<text text-anchor="start" x="17" y="-352" font-family="Helvetica,sans-Serif" font-size="10.00">virtual void Update</text>
<text text-anchor="start" x="17" y="-341" font-family="Helvetica,sans-Serif" font-size="10.00">(ref ParticleRendererSettings</text>
<text text-anchor="start" x="17" y="-330" font-family="Helvetica,sans-Serif" font-size="10.00"> settings)</text>
<text text-anchor="start" x="4" y="-315" font-family="Helvetica,sans-Serif" font-size="10.00">+</text>
<text text-anchor="start" x="17" y="-315" font-family="Helvetica,sans-Serif" font-size="10.00">void Draw(ref ParticleRenderer</text>
<text text-anchor="start" x="17" y="-304" font-family="Helvetica,sans-Serif" font-size="10.00">Settings settings, SpriteBatch</text>
<text text-anchor="start" x="17" y="-293" font-family="Helvetica,sans-Serif" font-size="10.00"> spritebatch)</text>
<text text-anchor="start" x="4" y="-278" font-family="Helvetica,sans-Serif" font-size="10.00">+</text>
<text text-anchor="start" x="17" y="-278" font-family="Helvetica,sans-Serif" font-size="10.00">void RestInPool()</text>
<text text-anchor="start" x="4" y="-263" font-family="Helvetica,sans-Serif" font-size="10.00">+</text>
<text text-anchor="start" x="17" y="-263" font-family="Helvetica,sans-Serif" font-size="10.00">virtual void FetchFromPool()</text>
<polygon fill="#666666" stroke="#666666" points="0,-657 0,-657 226,-657 226,-657 0,-657"/>
<polygon fill="#666666" stroke="#666666" points="0,-425 0,-425 15,-425 15,-425 0,-425"/>
<polygon fill="#666666" stroke="#666666" points="15,-425 15,-425 226,-425 226,-425 15,-425"/>
<polygon fill="none" stroke="#666666" points="0,-256 0,-674 226,-674 226,-256 0,-256"/>
</a>
</g>
</g>
<!-- Node2&#45;&gt;Node1 -->
<g id="edge1_Node000001_Node000002" class="edge">
<title>Node2&#45;&gt;Node1</title>
<g id="a_edge1_Node000001_Node000002"><a xlink:title=" ">
<path fill="none" stroke="#63b8ff" d="M113,-245.69C113,-237.09 113,-228.62 113,-220.38"/>
<polygon fill="none" stroke="#63b8ff" points="109.5,-245.85 113,-255.85 116.5,-245.85 109.5,-245.85"/>
</a>
</g>
</g>
<!-- Node3 -->
<g id="Node000003" class="node">
<title>Node3</title>
<g id="a_Node000003"><a xlink:href="../../d7/d55/interfaceTerraria_1_1Graphics_1_1Renderers_1_1IPooledParticle.html" target="_top" xlink:title=" ">
<polygon fill="white" stroke="transparent" points="221.5,-774 96.5,-774 96.5,-710 221.5,-710 221.5,-774"/>
<text text-anchor="start" x="123" y="-762" font-family="Helvetica,sans-Serif" font-size="10.00">IPooledParticle</text>
<text text-anchor="start" x="101" y="-747" font-family="Helvetica,sans-Serif" font-size="10.00">+</text>
<text text-anchor="start" x="114" y="-747" font-family="Helvetica,sans-Serif" font-size="10.00">bool IsRestingInPool</text>
<text text-anchor="start" x="101" y="-732" font-family="Helvetica,sans-Serif" font-size="10.00">+</text>
<text text-anchor="start" x="114" y="-732" font-family="Helvetica,sans-Serif" font-size="10.00">void RestInPool()</text>
<text text-anchor="start" x="101" y="-717" font-family="Helvetica,sans-Serif" font-size="10.00">+</text>
<text text-anchor="start" x="114" y="-717" font-family="Helvetica,sans-Serif" font-size="10.00">void FetchFromPool()</text>
<polygon fill="#666666" stroke="#666666" points="97,-757 97,-757 222,-757 222,-757 97,-757"/>
<polygon fill="#666666" stroke="#666666" points="97,-742 97,-742 112,-742 112,-742 97,-742"/>
<polygon fill="#666666" stroke="#666666" points="112,-742 112,-742 222,-742 222,-742 112,-742"/>
<polygon fill="none" stroke="#666666" points="96.5,-710 96.5,-774 221.5,-774 221.5,-710 96.5,-710"/>
</a>
</g>
</g>
<!-- Node3&#45;&gt;Node2 -->
<g id="edge2_Node000002_Node000003" class="edge">
<title>Node3&#45;&gt;Node2</title>
<g id="a_edge2_Node000002_Node000003"><a xlink:title=" ">
<path fill="none" stroke="#63b8ff" d="M152.12,-699.88C150.81,-692.06 149.37,-683.42 147.82,-674.19"/>
<polygon fill="none" stroke="#63b8ff" points="148.71,-700.7 153.81,-709.99 155.61,-699.55 148.71,-700.7"/>
</a>
</g>
</g>
<!-- Node4 -->
<g id="Node000004" class="node">
<title>Node4</title>
<g id="a_Node000004"><a xlink:href="../../db/d57/interfaceTerraria_1_1Graphics_1_1Renderers_1_1IParticle.html" target="_top" xlink:title=" ">
<polygon fill="white" stroke="transparent" points="199,-918 27,-918 27,-810 199,-810 199,-918"/>
<text text-anchor="start" x="93" y="-906" font-family="Helvetica,sans-Serif" font-size="10.00">IParticle</text>
<text text-anchor="start" x="31" y="-891" font-family="Helvetica,sans-Serif" font-size="10.00">+</text>
<text text-anchor="start" x="44" y="-891" font-family="Helvetica,sans-Serif" font-size="10.00">bool ShouldBeRemovedFrom</text>
<text text-anchor="start" x="44" y="-880" font-family="Helvetica,sans-Serif" font-size="10.00">Renderer</text>
<text text-anchor="start" x="31" y="-865" font-family="Helvetica,sans-Serif" font-size="10.00">+</text>
<text text-anchor="start" x="44" y="-865" font-family="Helvetica,sans-Serif" font-size="10.00">void Update(ref Particle</text>
<text text-anchor="start" x="44" y="-854" font-family="Helvetica,sans-Serif" font-size="10.00">RendererSettings settings)</text>
<text text-anchor="start" x="31" y="-839" font-family="Helvetica,sans-Serif" font-size="10.00">+</text>
<text text-anchor="start" x="44" y="-839" font-family="Helvetica,sans-Serif" font-size="10.00">void Draw(ref ParticleRenderer</text>
<text text-anchor="start" x="44" y="-828" font-family="Helvetica,sans-Serif" font-size="10.00">Settings settings, SpriteBatch</text>
<text text-anchor="start" x="44" y="-817" font-family="Helvetica,sans-Serif" font-size="10.00"> spritebatch)</text>
<polygon fill="#666666" stroke="#666666" points="27,-901 27,-901 199,-901 199,-901 27,-901"/>
<polygon fill="#666666" stroke="#666666" points="27,-875 27,-875 42,-875 42,-875 27,-875"/>
<polygon fill="#666666" stroke="#666666" points="42,-875 42,-875 199,-875 199,-875 42,-875"/>
<polygon fill="none" stroke="#666666" points="27,-810 27,-918 199,-918 199,-810 27,-810"/>
</a>
</g>
</g>
<!-- Node4&#45;&gt;Node2 -->
<g id="edge4_Node000002_Node000004" class="edge">
<title>Node4&#45;&gt;Node2</title>
<g id="a_edge4_Node000002_Node000004"><a xlink:title=" ">
<path fill="none" stroke="#63b8ff" d="M93.05,-800.13C90.96,-791.43 89.18,-782.55 88,-774 83.57,-741.85 82.63,-707.69 83.78,-674.27"/>
<polygon fill="none" stroke="#63b8ff" points="89.66,-801.02 95.52,-809.85 96.45,-799.3 89.66,-801.02"/>
</a>
</g>
</g>
<!-- Node4&#45;&gt;Node3 -->
<g id="edge3_Node000003_Node000004" class="edge">
<title>Node4&#45;&gt;Node3</title>
<g id="a_edge3_Node000003_Node000004"><a xlink:title=" ">
<path fill="none" stroke="#63b8ff" d="M137.06,-800.24C140.53,-791.18 143.97,-782.21 147.06,-774.15"/>
<polygon fill="none" stroke="#63b8ff" points="133.76,-799.08 133.44,-809.67 140.29,-801.58 133.76,-799.08"/>
</a>
</g>
</g>
</g>
</svg>

<g id="navigator" transform="translate(0 0)" fill="#404254">
  <rect fill="#f2f5e9" fill-opacity="0.5" stroke="#606060" stroke-width=".5" x="0" y="0" width="60" height="60"/>
  <use id="zoomplus" xlink:href="#zoomPlus" x="17" y="9" onmousedown="handleZoom(evt,'in')"/>
  <use id="zoomminus" xlink:href="#zoomMin" x="42" y="9" onmousedown="handleZoom(evt,'out')"/>
  <use id="reset" xlink:href="#resetDef" x="30" y="36" onmousedown="handleReset()"/>
   <use id="arrowup" xlink:href="#arrowUp" x="0" y="0" onmousedown="handlePan(0,-1)"/>
  <use id="arrowright" xlink:href="#arrowRight" x="0" y="0" onmousedown="handlePan(1,0)"/>
  <use id="arrowdown" xlink:href="#arrowDown" x="0" y="0" onmousedown="handlePan(0,1)"/>
  <use id="arrowleft" xlink:href="#arrowLeft" x="0" y="0" onmousedown="handlePan(-1,0)"/>
</g>
<svg viewBox="0 0 15 15" width="100%" height="30px" preserveAspectRatio="xMaxYMin meet">
 <g id="arrow_out" transform="scale(0.3 0.3)">
  <a xlink:href="classTerraria_1_1Graphics_1_1Renderers_1_1FadingParticle__inherit__graph_org.svg" target="_base">
   <rect id="button" ry="5" rx="5" y="6" x="6" height="38" width="38"
        fill="#f2f5e9" fill-opacity="0.5" stroke="#606060" stroke-width="1.0"/>
   <path id="arrow"
     d="M 11.500037,31.436501 C 11.940474,20.09759 22.043105,11.32322 32.158766,21.979434 L 37.068811,17.246167 C 37.068811,17.246167 37.088388,32 37.088388,32 L 22.160133,31.978069 C 22.160133,31.978069 26.997745,27.140456 26.997745,27.140456 C 18.528582,18.264221 13.291696,25.230495 11.500037,31.436501 z"
     style="fill:#404040;"/>
  </a>
 </g>
</svg>

<style type='text/css'>
<![CDATA[
[data-mouse-over-selected='false'] { opacity: 0.7; }
[data-mouse-over-selected='true']  { opacity: 1.0; }
]]>
</style>
<script type="application/ecmascript"><![CDATA[
document.addEventListener('DOMContentLoaded', (event) => {
  highlightEdges();
  highlightAdjacentNodes();
});
]]></script>
</svg>
