<?xml version="1.0" encoding="UTF-8" standalone="no"?>
<!DOCTYPE svg PUBLIC "-//W3C//DTD SVG 1.1//EN"
 "http://www.w3.org/Graphics/SVG/1.1/DTD/svg11.dtd">
<!-- Generated by graphviz version 2.43.0 (0)
 -->
<!-- Title: Terraria.GameContent.TeleportHelpers Pages: 1 -->
<svg width="204pt" height="175pt"
 viewBox="0.00 0.00 204.00 175.00" xmlns="http://www.w3.org/2000/svg" xmlns:xlink="http://www.w3.org/1999/xlink">
<g id="graph0" class="graph" transform="scale(1 1) rotate(0) translate(4 171)">
<title>Terraria.GameContent.TeleportHelpers</title>
<!-- Node1 -->
<g id="Node000001" class="node">
<title>Node1</title>
<g id="a_Node000001"><a xlink:title=" ">
<polygon fill="#999999" stroke="transparent" points="196,-167 0,-167 0,0 196,0 196,-167"/>
<text text-anchor="start" x="23" y="-154.5" font-family="Helvetica,sans-Serif" font-size="10.00">Terraria.GameContent.Teleport</text>
<text text-anchor="start" x="79" y="-143.5" font-family="Helvetica,sans-Serif" font-size="10.00">Helpers</text>
<text text-anchor="start" x="96" y="-128.5" font-family="Helvetica,sans-Serif" font-size="10.00"> </text>
<text text-anchor="start" x="4" y="-113.5" font-family="Helvetica,sans-Serif" font-size="10.00">+</text>
<text text-anchor="start" x="17" y="-113.5" font-family="Helvetica,sans-Serif" font-size="10.00">static bool RequestMagic</text>
<text text-anchor="start" x="17" y="-102.5" font-family="Helvetica,sans-Serif" font-size="10.00">ConchTeleportPosition</text>
<text text-anchor="start" x="17" y="-91.5" font-family="Helvetica,sans-Serif" font-size="10.00">(Player player, int crawlOffset</text>
<text text-anchor="start" x="17" y="-80.5" font-family="Helvetica,sans-Serif" font-size="10.00">X, int startX, out Point landingPoint)</text>
<text text-anchor="start" x="6.5" y="-65.5" font-family="Helvetica,sans-Serif" font-size="10.00">&#45;</text>
<text text-anchor="start" x="17" y="-65.5" font-family="Helvetica,sans-Serif" font-size="10.00">static bool TileIsDangerous</text>
<text text-anchor="start" x="17" y="-54.5" font-family="Helvetica,sans-Serif" font-size="10.00">(int x, int y)</text>
<text text-anchor="start" x="6.5" y="-39.5" font-family="Helvetica,sans-Serif" font-size="10.00">&#45;</text>
<text text-anchor="start" x="17" y="-39.5" font-family="Helvetica,sans-Serif" font-size="10.00">static bool IsInSolidTiles</text>
<text text-anchor="start" x="17" y="-28.5" font-family="Helvetica,sans-Serif" font-size="10.00">Extended(Vector2 testPosition,</text>
<text text-anchor="start" x="17" y="-17.5" font-family="Helvetica,sans-Serif" font-size="10.00"> Vector2 playerVelocity, int</text>
<text text-anchor="start" x="17" y="-6.5" font-family="Helvetica,sans-Serif" font-size="10.00"> width, int height, int gravDir)</text>
<polygon fill="#666666" stroke="#666666" points="0,-138.5 0,-138.5 196,-138.5 196,-138.5 0,-138.5"/>
<polygon fill="#666666" stroke="#666666" points="0,-123.5 0,-123.5 196,-123.5 196,-123.5 0,-123.5"/>
<polygon fill="none" stroke="#666666" points="0,0 0,-167 196,-167 196,0 0,0"/>
</a>
</g>
</g>
</g>
</svg>
