<?xml version="1.0" encoding="UTF-8" standalone="no"?>
<!DOCTYPE svg PUBLIC "-//W3C//DTD SVG 1.1//EN"
 "http://www.w3.org/Graphics/SVG/1.1/DTD/svg11.dtd">
<!-- Generated by graphviz version 2.43.0 (0)
 -->
<!-- Title: Terraria.ObjectData.TileObjectData.Calculate Pages: 1 -->
<!--zoomable 230 -->

<svg id="main" version="1.1" xmlns="http://www.w3.org/2000/svg" xmlns:xlink="http://www.w3.org/1999/xlink" xml:space="preserve" onload="init(evt)">
<style type="text/css"><![CDATA[
.node, .edge {opacity: 0.7;}
.node.selected, .edge.selected {opacity: 1;}
.edge:hover path { stroke: red; }
.edge:hover polygon { stroke: red; fill: red; }
]]></style>

<defs>
  <circle id="rim" cx="0" cy="0" r="7"/>
  <circle id="rim2" cx="0" cy="0" r="3.5"/>
  <g id="zoomPlus">
    <use xlink:href="#rim" fill="#404040"><set attributeName="fill" to="#808080" begin="zoomplus.mouseover" end="zoomplus.mouseout"/></use>
    <path d="M-4,0h8M0,-4v8" fill="none" stroke="white" stroke-width="1.5" pointer-events="none"/>
  </g>
  <g id="zoomMin">
    <use xlink:href="#rim" fill="#404040"><set attributeName="fill" to="#808080" begin="zoomminus.mouseover" end="zoomminus.mouseout"/></use>
    <path d="M-4,0h8" fill="none" stroke="white" stroke-width="1.5" pointer-events="none"/>
  </g>
  <g id="arrowUp" transform="translate(30 24)">
    <use xlink:href="#rim"/>
    <path pointer-events="none" fill="none" stroke="white" stroke-width="1.5" d="M0,-3.0v7 M-2.5,-0.5L0,-3.0L2.5,-0.5"/>
  </g>
  <g id="arrowRight" transform="rotate(90) translate(36 -43)">
    <use xlink:href="#rim"/>
    <path pointer-events="none" fill="none" stroke="white" stroke-width="1.5" d="M0,-3.0v7 M-2.5,-0.5L0,-3.0L2.5,-0.5"/>
  </g>
  <g id="arrowDown" transform="rotate(180) translate(-30 -48)">
    <use xlink:href="#rim"/>
    <path pointer-events="none" fill="none" stroke="white" stroke-width="1.5" d="M0,-3.0v7 M-2.5,-0.5L0,-3.0L2.5,-0.5"/>
  </g>
  <g id="arrowLeft" transform="rotate(270) translate(-36 17)">
    <use xlink:href="#rim"/>
    <path pointer-events="none" fill="none" stroke="white" stroke-width="1.5" d="M0,-3.0v7 M-2.5,-0.5L0,-3.0L2.5,-0.5"/>
  </g>
  <g id="resetDef">
    <use xlink:href="#rim2" fill="#404040"><set attributeName="fill" to="#808080" begin="reset.mouseover" end="reset.mouseout"/></use>
  </g>
</defs>
<script type="application/ecmascript">
var viewWidth = 1125;
var viewHeight = 230;
var sectionId = 'dynsection-0';
</script>
<script type="application/ecmascript" xlink:href="../../svg.min.js"/>
<svg id="graph" class="graph">
<g id="viewport">
<title>Terraria.ObjectData.TileObjectData.Calculate</title>
<!-- Node1 -->
<g id="Node000001" class="node">
<title>Node1</title>
<g id="a_Node000001"><a xlink:title=" ">
<polygon fill="#999999" stroke="#666666" points="1117,-126 985,-126 985,-96 1117,-96 1117,-126"/>
<text text-anchor="start" x="993" y="-114" font-family="Helvetica,sans-Serif" font-size="10.00">Terraria.ObjectData.Tile</text>
<text text-anchor="middle" x="1051" y="-103" font-family="Helvetica,sans-Serif" font-size="10.00">ObjectData.Calculate</text>
</a>
</g>
</g>
<!-- Node2 -->
<g id="Node000002" class="node">
<title>Node2</title>
<g id="a_Node000002"><a xlink:href="../../d0/d9d/classTerraria_1_1ObjectData_1_1TileObjectData_aa0e218beb1a91808c090b4c8125dfd3b.html#aa0e218beb1a91808c090b4c8125dfd3b" target="_top" xlink:title=" ">
<polygon fill="white" stroke="#666666" points="949,-222 812,-222 812,-192 949,-192 949,-222"/>
<text text-anchor="start" x="820" y="-210" font-family="Helvetica,sans-Serif" font-size="10.00">Terraria.ObjectData.Tile</text>
<text text-anchor="middle" x="880.5" y="-199" font-family="Helvetica,sans-Serif" font-size="10.00">ObjectData.addAlternate</text>
</a>
</g>
</g>
<!-- Node1&#45;&gt;Node2 -->
<g id="edge1_Node000001_Node000002" class="edge">
<title>Node1&#45;&gt;Node2</title>
<g id="a_edge1_Node000001_Node000002"><a xlink:title=" ">
<path fill="none" stroke="#63b8ff" d="M1024.14,-132.5C1004.47,-148.08 976.24,-168.8 949,-183 942.71,-186.28 935.88,-189.28 929.05,-191.98"/>
<polygon fill="#63b8ff" stroke="#63b8ff" points="1026.41,-135.17 1032.02,-126.18 1022.03,-129.71 1026.41,-135.17"/>
</a>
</g>
</g>
<!-- Node10 -->
<g id="Node000010" class="node">
<title>Node10</title>
<g id="a_Node000010"><a xlink:href="../../d0/d9d/classTerraria_1_1ObjectData_1_1TileObjectData_acf9d8a1ce120b11111dbf141669fdd4e.html#acf9d8a1ce120b11111dbf141669fdd4e" target="_top" xlink:title=" ">
<polygon fill="white" stroke="#666666" points="947.5,-174 813.5,-174 813.5,-144 947.5,-144 947.5,-174"/>
<text text-anchor="start" x="821.5" y="-162" font-family="Helvetica,sans-Serif" font-size="10.00">Terraria.ObjectData.Tile</text>
<text text-anchor="middle" x="880.5" y="-151" font-family="Helvetica,sans-Serif" font-size="10.00">ObjectData.addBaseTile</text>
</a>
</g>
</g>
<!-- Node1&#45;&gt;Node10 -->
<g id="edge10_Node000001_Node000010" class="edge">
<title>Node1&#45;&gt;Node10</title>
<g id="a_edge10_Node000001_Node000010"><a xlink:title=" ">
<path fill="none" stroke="#63b8ff" d="M987.07,-128.93C969.65,-133.89 950.93,-139.22 934.16,-144"/>
<polygon fill="#63b8ff" stroke="#63b8ff" points="988.49,-132.16 997.15,-126.06 986.57,-125.43 988.49,-132.16"/>
</a>
</g>
</g>
<!-- Node11 -->
<g id="Node000011" class="node">
<title>Node11</title>
<g id="a_Node000011"><a xlink:href="../../d0/d9d/classTerraria_1_1ObjectData_1_1TileObjectData_a288ae0c2394dbb6a8ee1d17ad4c85a85.html#a288ae0c2394dbb6a8ee1d17ad4c85a85" target="_top" xlink:title=" ">
<polygon fill="white" stroke="#666666" points="946.5,-126 814.5,-126 814.5,-96 946.5,-96 946.5,-126"/>
<text text-anchor="start" x="822.5" y="-114" font-family="Helvetica,sans-Serif" font-size="10.00">Terraria.ObjectData.Tile</text>
<text text-anchor="middle" x="880.5" y="-103" font-family="Helvetica,sans-Serif" font-size="10.00">ObjectData.addSubTile</text>
</a>
</g>
</g>
<!-- Node1&#45;&gt;Node11 -->
<g id="edge12_Node000001_Node000011" class="edge">
<title>Node1&#45;&gt;Node11</title>
<g id="a_edge12_Node000001_Node000011"><a xlink:title=" ">
<path fill="none" stroke="#63b8ff" d="M974.79,-111C965.44,-111 955.93,-111 946.75,-111"/>
<polygon fill="#63b8ff" stroke="#63b8ff" points="974.85,-114.5 984.85,-111 974.85,-107.5 974.85,-114.5"/>
</a>
</g>
</g>
<!-- Node12 -->
<g id="Node000012" class="node">
<title>Node12</title>
<g id="a_Node000012"><a xlink:href="../../d0/d9d/classTerraria_1_1ObjectData_1_1TileObjectData_ad3bde2edafaf0ac9f552aba622320189.html#ad3bde2edafaf0ac9f552aba622320189" target="_top" xlink:title=" ">
<polygon fill="white" stroke="#666666" points="946.5,-78 814.5,-78 814.5,-48 946.5,-48 946.5,-78"/>
<text text-anchor="start" x="822.5" y="-66" font-family="Helvetica,sans-Serif" font-size="10.00">Terraria.ObjectData.Tile</text>
<text text-anchor="middle" x="880.5" y="-55" font-family="Helvetica,sans-Serif" font-size="10.00">ObjectData.addSubTile</text>
</a>
</g>
</g>
<!-- Node1&#45;&gt;Node12 -->
<g id="edge13_Node000001_Node000012" class="edge">
<title>Node1&#45;&gt;Node12</title>
<g id="a_edge13_Node000001_Node000012"><a xlink:title=" ">
<path fill="none" stroke="#63b8ff" d="M987.07,-93.07C969.65,-88.11 950.93,-82.78 934.16,-78"/>
<polygon fill="#63b8ff" stroke="#63b8ff" points="986.57,-96.57 997.15,-95.94 988.49,-89.84 986.57,-96.57"/>
</a>
</g>
</g>
<!-- Node13 -->
<g id="Node000013" class="node">
<title>Node13</title>
<g id="a_Node000013"><a xlink:href="../../d0/d9d/classTerraria_1_1ObjectData_1_1TileObjectData_aea19d0df52a869a140f4050f7e39f29f.html#aea19d0df52a869a140f4050f7e39f29f" target="_top" xlink:title=" ">
<polygon fill="white" stroke="#666666" points="946.5,-30 814.5,-30 814.5,0 946.5,0 946.5,-30"/>
<text text-anchor="start" x="822.5" y="-18" font-family="Helvetica,sans-Serif" font-size="10.00">Terraria.ObjectData.Tile</text>
<text text-anchor="middle" x="880.5" y="-7" font-family="Helvetica,sans-Serif" font-size="10.00">ObjectData.addTile</text>
</a>
</g>
</g>
<!-- Node1&#45;&gt;Node13 -->
<g id="edge15_Node000001_Node000013" class="edge">
<title>Node1&#45;&gt;Node13</title>
<g id="a_edge15_Node000001_Node000013"><a xlink:title=" ">
<path fill="none" stroke="#63b8ff" d="M1024.14,-89.5C1004.47,-73.92 976.24,-53.2 949,-39 942.71,-35.72 935.88,-32.72 929.05,-30.02"/>
<polygon fill="#63b8ff" stroke="#63b8ff" points="1022.03,-92.29 1032.02,-95.82 1026.41,-86.83 1022.03,-92.29"/>
</a>
</g>
</g>
<!-- Node3 -->
<g id="Node000003" class="node">
<title>Node3</title>
<g id="a_Node000003"><a xlink:href="../../d0/d9d/classTerraria_1_1ObjectData_1_1TileObjectData_a0baee46d0b48460e3f388c3d2077ace8.html#a0baee46d0b48460e3f388c3d2077ace8" target="_top" xlink:title=" ">
<polygon fill="white" stroke="#666666" points="776,-126 644,-126 644,-96 776,-96 776,-126"/>
<text text-anchor="start" x="652" y="-114" font-family="Helvetica,sans-Serif" font-size="10.00">Terraria.ObjectData.Tile</text>
<text text-anchor="middle" x="710" y="-103" font-family="Helvetica,sans-Serif" font-size="10.00">ObjectData.Initialize</text>
</a>
</g>
</g>
<!-- Node2&#45;&gt;Node3 -->
<g id="edge2_Node000002_Node000003" class="edge">
<title>Node2&#45;&gt;Node3</title>
<g id="a_edge2_Node000002_Node000003"><a xlink:title=" ">
<path fill="none" stroke="#63b8ff" d="M822.71,-188.13C819.04,-186.5 815.44,-184.79 812,-183 780.87,-166.78 748.44,-142.02 728.98,-126.18"/>
<polygon fill="#63b8ff" stroke="#63b8ff" points="821.37,-191.36 831.95,-191.98 824.06,-184.9 821.37,-191.36"/>
</a>
</g>
</g>
<!-- Node4 -->
<g id="Node000004" class="node">
<title>Node4</title>
<g id="a_Node000004"><a xlink:href="../../da/dd5/classTerraria_1_1Main_a8428815a84cf887c2adf13c19aad4caf.html#a8428815a84cf887c2adf13c19aad4caf" target="_top" xlink:title=" ">
<polygon fill="white" stroke="#666666" points="608,-126 483,-126 483,-96 608,-96 608,-126"/>
<text text-anchor="start" x="491" y="-114" font-family="Helvetica,sans-Serif" font-size="10.00">Terraria.Main.Initialize</text>
<text text-anchor="middle" x="545.5" y="-103" font-family="Helvetica,sans-Serif" font-size="10.00">_AlmostEverything</text>
</a>
</g>
</g>
<!-- Node3&#45;&gt;Node4 -->
<g id="edge3_Node000003_Node000004" class="edge">
<title>Node3&#45;&gt;Node4</title>
<g id="a_edge3_Node000003_Node000004"><a xlink:title=" ">
<path fill="none" stroke="#63b8ff" d="M633.57,-111C625.09,-111 616.52,-111 608.24,-111"/>
<polygon fill="#63b8ff" stroke="#63b8ff" points="633.84,-114.5 643.84,-111 633.84,-107.5 633.84,-114.5"/>
</a>
</g>
</g>
<!-- Node5 -->
<g id="Node000005" class="node">
<title>Node5</title>
<g id="a_Node000005"><a xlink:href="../../da/dd5/classTerraria_1_1Main_aeb59718d838663ea500b4619b081d791.html#aeb59718d838663ea500b4619b081d791" target="_top" xlink:title=" ">
<polygon fill="white" stroke="#666666" points="447,-139.5 306,-139.5 306,-120.5 447,-120.5 447,-139.5"/>
<text text-anchor="middle" x="376.5" y="-127.5" font-family="Helvetica,sans-Serif" font-size="10.00">Terraria.Main.DrawSplash</text>
</a>
</g>
</g>
<!-- Node4&#45;&gt;Node5 -->
<g id="edge4_Node000004_Node000005" class="edge">
<title>Node4&#45;&gt;Node5</title>
<g id="a_edge4_Node000004_Node000005"><a xlink:title=" ">
<path fill="none" stroke="#63b8ff" d="M472.59,-119.18C464.14,-120.14 455.54,-121.12 447.12,-122.08"/>
<polygon fill="#63b8ff" stroke="#63b8ff" points="473.25,-122.63 482.79,-118.02 472.46,-115.67 473.25,-122.63"/>
</a>
</g>
</g>
<!-- Node8 -->
<g id="Node000008" class="node">
<title>Node8</title>
<g id="a_Node000008"><a xlink:href="../../da/dd5/classTerraria_1_1Main_aed4b6a8ad3e867bdb2bdcab2ab6ab0f9.html#aed4b6a8ad3e867bdb2bdcab2ab6ab0f9" target="_top" xlink:title=" ">
<polygon fill="white" stroke="#666666" points="439,-102.5 314,-102.5 314,-83.5 439,-83.5 439,-102.5"/>
<text text-anchor="middle" x="376.5" y="-90.5" font-family="Helvetica,sans-Serif" font-size="10.00">Terraria.Main.Initialize</text>
</a>
</g>
</g>
<!-- Node4&#45;&gt;Node8 -->
<g id="edge8_Node000004_Node000008" class="edge">
<title>Node4&#45;&gt;Node8</title>
<g id="a_edge8_Node000004_Node000008"><a xlink:title=" ">
<path fill="none" stroke="#63b8ff" d="M472.67,-103.26C461.54,-102.06 450.12,-100.83 439.24,-99.65"/>
<polygon fill="#63b8ff" stroke="#63b8ff" points="472.47,-106.76 482.79,-104.35 473.22,-99.8 472.47,-106.76"/>
</a>
</g>
</g>
<!-- Node6 -->
<g id="Node000006" class="node">
<title>Node6</title>
<g id="a_Node000006"><a xlink:href="../../da/dd5/classTerraria_1_1Main_a474beeecaea4d6dd108fba56cd554d46.html#a474beeecaea4d6dd108fba56cd554d46" target="_top" xlink:title=" ">
<polygon fill="white" stroke="#666666" points="268.5,-139.5 146.5,-139.5 146.5,-120.5 268.5,-120.5 268.5,-139.5"/>
<text text-anchor="middle" x="207.5" y="-127.5" font-family="Helvetica,sans-Serif" font-size="10.00">Terraria.Main.DoDraw</text>
</a>
</g>
</g>
<!-- Node5&#45;&gt;Node6 -->
<g id="edge5_Node000005_Node000006" class="edge">
<title>Node5&#45;&gt;Node6</title>
<g id="a_edge5_Node000005_Node000006"><a xlink:title=" ">
<path fill="none" stroke="#63b8ff" d="M295.46,-130C286.39,-130 277.28,-130 268.53,-130"/>
<polygon fill="#63b8ff" stroke="#63b8ff" points="295.64,-133.5 305.64,-130 295.64,-126.5 295.64,-133.5"/>
</a>
</g>
</g>
<!-- Node7 -->
<g id="Node000007" class="node">
<title>Node7</title>
<g id="a_Node000007"><a xlink:href="../../da/dd5/classTerraria_1_1Main_a516aa31311860bad4242ade32e5effcd.html#a516aa31311860bad4242ade32e5effcd" target="_top" xlink:title=" ">
<polygon fill="white" stroke="#666666" points="109,-139.5 0,-139.5 0,-120.5 109,-120.5 109,-139.5"/>
<text text-anchor="middle" x="54.5" y="-127.5" font-family="Helvetica,sans-Serif" font-size="10.00">Terraria.Main.Draw</text>
</a>
</g>
</g>
<!-- Node6&#45;&gt;Node7 -->
<g id="edge6_Node000006_Node000007" class="edge">
<title>Node6&#45;&gt;Node7</title>
<g id="a_edge6_Node000006_Node000007"><a xlink:title=" ">
<path fill="none" stroke="#63b8ff" d="M136.17,-123.26C127.05,-123.21 117.84,-123.3 109.05,-123.51"/>
<polygon fill="#63b8ff" stroke="#63b8ff" points="136.35,-126.77 146.39,-123.38 136.43,-119.77 136.35,-126.77"/>
</a>
</g>
</g>
<!-- Node7&#45;&gt;Node6 -->
<g id="edge7_Node000007_Node000006" class="edge">
<title>Node7&#45;&gt;Node6</title>
<g id="a_edge7_Node000007_Node000006"><a xlink:title=" ">
<path fill="none" stroke="#63b8ff" d="M119.13,-136.68C128.16,-136.79 137.42,-136.77 146.39,-136.62"/>
<polygon fill="#63b8ff" stroke="#63b8ff" points="119.12,-133.17 109.05,-136.49 118.99,-140.17 119.12,-133.17"/>
</a>
</g>
</g>
<!-- Node9 -->
<g id="Node000009" class="node">
<title>Node9</title>
<g id="a_Node000009"><a xlink:href="../../da/dd5/classTerraria_1_1Main_acc7c7058447ffaab5490befcb8ff2bf4.html#acc7c7058447ffaab5490befcb8ff2bf4" target="_top" xlink:title=" ">
<polygon fill="white" stroke="#666666" points="270,-102.5 145,-102.5 145,-83.5 270,-83.5 270,-102.5"/>
<text text-anchor="middle" x="207.5" y="-90.5" font-family="Helvetica,sans-Serif" font-size="10.00">Terraria.Main.DedServ</text>
</a>
</g>
</g>
<!-- Node8&#45;&gt;Node9 -->
<g id="edge9_Node000008_Node000009" class="edge">
<title>Node8&#45;&gt;Node9</title>
<g id="a_edge9_Node000008_Node000009"><a xlink:title=" ">
<path fill="none" stroke="#63b8ff" d="M303.67,-93C292.54,-93 281.12,-93 270.24,-93"/>
<polygon fill="#63b8ff" stroke="#63b8ff" points="303.79,-96.5 313.79,-93 303.79,-89.5 303.79,-96.5"/>
</a>
</g>
</g>
<!-- Node10&#45;&gt;Node3 -->
<g id="edge11_Node000010_Node000003" class="edge">
<title>Node10&#45;&gt;Node3</title>
<g id="a_edge11_Node000010_Node000003"><a xlink:title=" ">
<path fill="none" stroke="#63b8ff" d="M816.57,-141.07C799.15,-136.11 780.43,-130.78 763.66,-126"/>
<polygon fill="#63b8ff" stroke="#63b8ff" points="816.07,-144.57 826.65,-143.94 817.99,-137.84 816.07,-144.57"/>
</a>
</g>
</g>
<!-- Node12&#45;&gt;Node3 -->
<g id="edge14_Node000012_Node000003" class="edge">
<title>Node12&#45;&gt;Node3</title>
<g id="a_edge14_Node000012_Node000003"><a xlink:title=" ">
<path fill="none" stroke="#63b8ff" d="M816.57,-80.93C799.15,-85.89 780.43,-91.22 763.66,-96"/>
<polygon fill="#63b8ff" stroke="#63b8ff" points="817.99,-84.16 826.65,-78.06 816.07,-77.43 817.99,-84.16"/>
</a>
</g>
</g>
<!-- Node13&#45;&gt;Node3 -->
<g id="edge16_Node000013_Node000003" class="edge">
<title>Node13&#45;&gt;Node3</title>
<g id="a_edge16_Node000013_Node000003"><a xlink:title=" ">
<path fill="none" stroke="#63b8ff" d="M822.71,-33.87C819.04,-35.5 815.44,-37.21 812,-39 780.87,-55.22 748.44,-79.98 728.98,-95.82"/>
<polygon fill="#63b8ff" stroke="#63b8ff" points="824.06,-37.1 831.95,-30.02 821.37,-30.64 824.06,-37.1"/>
</a>
</g>
</g>
</g>
</svg>

<g id="navigator" transform="translate(0 0)" fill="#404254">
  <rect fill="#f2f5e9" fill-opacity="0.5" stroke="#606060" stroke-width=".5" x="0" y="0" width="60" height="60"/>
  <use id="zoomplus" xlink:href="#zoomPlus" x="17" y="9" onmousedown="handleZoom(evt,'in')"/>
  <use id="zoomminus" xlink:href="#zoomMin" x="42" y="9" onmousedown="handleZoom(evt,'out')"/>
  <use id="reset" xlink:href="#resetDef" x="30" y="36" onmousedown="handleReset()"/>
   <use id="arrowup" xlink:href="#arrowUp" x="0" y="0" onmousedown="handlePan(0,-1)"/>
  <use id="arrowright" xlink:href="#arrowRight" x="0" y="0" onmousedown="handlePan(1,0)"/>
  <use id="arrowdown" xlink:href="#arrowDown" x="0" y="0" onmousedown="handlePan(0,1)"/>
  <use id="arrowleft" xlink:href="#arrowLeft" x="0" y="0" onmousedown="handlePan(-1,0)"/>
</g>
<svg viewBox="0 0 15 15" width="100%" height="30px" preserveAspectRatio="xMaxYMin meet">
 <g id="arrow_out" transform="scale(0.3 0.3)">
  <a xlink:href="classTerraria_1_1ObjectData_1_1TileObjectData_ab2d9d870f1119756570d7c3d22593626_ab2d9d870f1119756570d7c3d22593626_icgraph_org.svg" target="_base">
   <rect id="button" ry="5" rx="5" y="6" x="6" height="38" width="38"
        fill="#f2f5e9" fill-opacity="0.5" stroke="#606060" stroke-width="1.0"/>
   <path id="arrow"
     d="M 11.500037,31.436501 C 11.940474,20.09759 22.043105,11.32322 32.158766,21.979434 L 37.068811,17.246167 C 37.068811,17.246167 37.088388,32 37.088388,32 L 22.160133,31.978069 C 22.160133,31.978069 26.997745,27.140456 26.997745,27.140456 C 18.528582,18.264221 13.291696,25.230495 11.500037,31.436501 z"
     style="fill:#404040;"/>
  </a>
 </g>
</svg>

<style type='text/css'>
<![CDATA[
[data-mouse-over-selected='false'] { opacity: 0.7; }
[data-mouse-over-selected='true']  { opacity: 1.0; }
]]>
</style>
<script type="application/ecmascript"><![CDATA[
document.addEventListener('DOMContentLoaded', (event) => {
  highlightEdges();
  highlightAdjacentNodes();
});
]]></script>
</svg>
