<?xml version="1.0" encoding="UTF-8" standalone="no"?>
<!DOCTYPE svg PUBLIC "-//W3C//DTD SVG 1.1//EN"
 "http://www.w3.org/Graphics/SVG/1.1/DTD/svg11.dtd">
<!-- Generated by graphviz version 2.43.0 (0)
 -->
<!-- Title: Utils Pages: 1 -->
<!--zoomable 644 -->
<svg id="main" version="1.1" xmlns="http://www.w3.org/2000/svg" xmlns:xlink="http://www.w3.org/1999/xlink" xml:space="preserve" onload="init(evt)">
<style type="text/css"><![CDATA[
.edge:hover path { stroke: red; }
.edge:hover polygon { stroke: red; fill: red; }
]]></style>
<script type="text/javascript"><![CDATA[
var edges = document.getElementsByTagName('g');
if (edges && edges.length) {
  for (var i=0;i<edges.length;i++) {
    if (edges[i].id.substr(0,4)=='edge') {
      edges[i].setAttribute('class','edge');
    }
  }
}
]]></script>
        <defs>
                <circle id="rim" cx="0" cy="0" r="7"/>
                <circle id="rim2" cx="0" cy="0" r="3.5"/>
                <g id="zoomPlus">
                        <use xlink:href="#rim" fill="#404040">
                                <set attributeName="fill" to="#808080" begin="zoomplus.mouseover" end="zoomplus.mouseout"/>
                        </use>
                        <path d="M-4,0h8M0,-4v8" fill="none" stroke="white" stroke-width="1.5" pointer-events="none"/>
                </g>
                <g id="zoomMin">
                        <use xlink:href="#rim" fill="#404040">
                                <set attributeName="fill" to="#808080" begin="zoomminus.mouseover" end="zoomminus.mouseout"/>
                        </use>
                        <path d="M-4,0h8" fill="none" stroke="white" stroke-width="1.5" pointer-events="none"/>
                </g>
                <g id="dirArrow">
                        <path fill="none" stroke="white" stroke-width="1.5" d="M0,-3.0v7 M-2.5,-0.5L0,-3.0L2.5,-0.5"/>
                </g>
               <g id="resetDef">
                       <use xlink:href="#rim2" fill="#404040">
                               <set attributeName="fill" to="#808080" begin="reset.mouseover" end="reset.mouseout"/>
                       </use>
               </g>
        </defs>

<script type="text/javascript">
var viewWidth = 443;
var viewHeight = 644;
var sectionId = 'dynsection-0';
</script>
<script xlink:href="../../svgpan.js"/>
<svg id="graph" class="graph">
<g id="viewport">
<title>Utils</title>
<polygon fill="white" stroke="transparent" points="-4,4 -4,-640 439,-640 439,4 -4,4"/>
<!-- Node1 -->
<g id="node1" class="node">
<title>Node1</title>
<g id="a_node1"><a xlink:title=" ">
<polygon fill="#bfbfbf" stroke="black" points="90,-0.5 90,-486.5 312,-486.5 312,-0.5 90,-0.5"/>
<text text-anchor="middle" x="201" y="-474.5" font-family="Helvetica,sans-Serif" font-size="10.00">Utils</text>
<polyline fill="none" stroke="black" points="90,-467.5 312,-467.5 "/>
<text text-anchor="middle" x="201" y="-455.5" font-family="Helvetica,sans-Serif" font-size="10.00"> </text>
<polyline fill="none" stroke="black" points="90,-448.5 312,-448.5 "/>
<text text-anchor="start" x="98" y="-436.5" font-family="Helvetica,sans-Serif" font-size="10.00">+ delegate bool TileAction</text>
<text text-anchor="start" x="98" y="-425.5" font-family="Helvetica,sans-Serif" font-size="10.00">Attempt(int x, int y)</text>
<text text-anchor="start" x="98" y="-414.5" font-family="Helvetica,sans-Serif" font-size="10.00">+ delegate void LaserLineFraming</text>
<text text-anchor="start" x="98" y="-403.5" font-family="Helvetica,sans-Serif" font-size="10.00">(int stage, Vector2 currentPosition,</text>
<text text-anchor="start" x="98" y="-392.5" font-family="Helvetica,sans-Serif" font-size="10.00"> float distanceLeft, Rectangle lastFrame,</text>
<text text-anchor="start" x="98" y="-381.5" font-family="Helvetica,sans-Serif" font-size="10.00"> out float distanceCovered, out Rectangle</text>
<text text-anchor="start" x="98" y="-370.5" font-family="Helvetica,sans-Serif" font-size="10.00"> frame, out Vector2 origin, out Color color)</text>
<text text-anchor="start" x="98" y="-359.5" font-family="Helvetica,sans-Serif" font-size="10.00">+ delegate Color ColorLerp</text>
<text text-anchor="start" x="98" y="-348.5" font-family="Helvetica,sans-Serif" font-size="10.00">Method(float percent)</text>
<text text-anchor="start" x="98" y="-337.5" font-family="Helvetica,sans-Serif" font-size="10.00">+ static Color ColorLerp</text>
<text text-anchor="start" x="98" y="-326.5" font-family="Helvetica,sans-Serif" font-size="10.00">_BlackToWhite(float percent)</text>
<text text-anchor="start" x="98" y="-315.5" font-family="Helvetica,sans-Serif" font-size="10.00">+ static double Lerp</text>
<text text-anchor="start" x="98" y="-304.5" font-family="Helvetica,sans-Serif" font-size="10.00">(double value1, double</text>
<text text-anchor="start" x="98" y="-293.5" font-family="Helvetica,sans-Serif" font-size="10.00"> value2, double amount)</text>
<text text-anchor="start" x="98" y="-282.5" font-family="Helvetica,sans-Serif" font-size="10.00">+ static Vector2 Round</text>
<text text-anchor="start" x="98" y="-271.5" font-family="Helvetica,sans-Serif" font-size="10.00">(Vector2 input)</text>
<text text-anchor="start" x="98" y="-260.5" font-family="Helvetica,sans-Serif" font-size="10.00">+ static bool IsPowerOfTwo</text>
<text text-anchor="start" x="98" y="-249.5" font-family="Helvetica,sans-Serif" font-size="10.00">(int x)</text>
<text text-anchor="start" x="98" y="-238.5" font-family="Helvetica,sans-Serif" font-size="10.00">+ static float SmoothStep</text>
<text text-anchor="start" x="98" y="-227.5" font-family="Helvetica,sans-Serif" font-size="10.00">(float min, float max,</text>
<text text-anchor="start" x="98" y="-216.5" font-family="Helvetica,sans-Serif" font-size="10.00"> float x)</text>
<text text-anchor="start" x="98" y="-205.5" font-family="Helvetica,sans-Serif" font-size="10.00">+ static double SmoothStep</text>
<text text-anchor="start" x="98" y="-194.5" font-family="Helvetica,sans-Serif" font-size="10.00">(double min, double max,</text>
<text text-anchor="start" x="98" y="-183.5" font-family="Helvetica,sans-Serif" font-size="10.00"> double x)</text>
<text text-anchor="start" x="98" y="-172.5" font-family="Helvetica,sans-Serif" font-size="10.00">+ static float UnclampedSmooth</text>
<text text-anchor="start" x="98" y="-161.5" font-family="Helvetica,sans-Serif" font-size="10.00">Step(float min, float max,</text>
<text text-anchor="start" x="98" y="-150.5" font-family="Helvetica,sans-Serif" font-size="10.00"> float x)</text>
<text text-anchor="start" x="98" y="-139.5" font-family="Helvetica,sans-Serif" font-size="10.00">+ static double UnclampedSmooth</text>
<text text-anchor="start" x="98" y="-128.5" font-family="Helvetica,sans-Serif" font-size="10.00">Step(double min, double max,</text>
<text text-anchor="start" x="98" y="-117.5" font-family="Helvetica,sans-Serif" font-size="10.00"> double x)</text>
<text text-anchor="start" x="98" y="-106.5" font-family="Helvetica,sans-Serif" font-size="10.00">+ static Dictionary&lt;</text>
<text text-anchor="start" x="98" y="-95.5" font-family="Helvetica,sans-Serif" font-size="10.00"> string, string &gt; ParseArguements</text>
<text text-anchor="start" x="98" y="-84.5" font-family="Helvetica,sans-Serif" font-size="10.00">(string[] args)</text>
<text text-anchor="start" x="98" y="-73.5" font-family="Helvetica,sans-Serif" font-size="10.00">+ static void Swap&lt; T</text>
<text text-anchor="start" x="98" y="-62.5" font-family="Helvetica,sans-Serif" font-size="10.00"> &gt;(ref T t1, ref T t2)</text>
<text text-anchor="start" x="98" y="-51.5" font-family="Helvetica,sans-Serif" font-size="10.00">and 168 more...</text>
<text text-anchor="start" x="98" y="-40.5" font-family="Helvetica,sans-Serif" font-size="10.00">&#45; static bool PlotLine</text>
<text text-anchor="start" x="98" y="-29.5" font-family="Helvetica,sans-Serif" font-size="10.00">(int x0, int y0, int</text>
<text text-anchor="start" x="98" y="-18.5" font-family="Helvetica,sans-Serif" font-size="10.00"> x1, int y1, TileActionAttempt</text>
<text text-anchor="start" x="98" y="-7.5" font-family="Helvetica,sans-Serif" font-size="10.00"> plot, bool jump=true)</text>
</a>
</g>
</g>
<!-- Node2 -->
<g id="node2" class="node">
<title>Node2</title>
<g id="a_node2"><a xlink:title=" ">
<polygon fill="white" stroke="#bfbfbf" points="0,-567.5 0,-624.5 44,-624.5 44,-567.5 0,-567.5"/>
<text text-anchor="middle" x="22" y="-612.5" font-family="Helvetica,sans-Serif" font-size="10.00">ulong</text>
<polyline fill="none" stroke="#bfbfbf" points="0,-605.5 44,-605.5 "/>
<text text-anchor="middle" x="22" y="-593.5" font-family="Helvetica,sans-Serif" font-size="10.00"> </text>
<polyline fill="none" stroke="#bfbfbf" points="0,-586.5 44,-586.5 "/>
<text text-anchor="middle" x="22" y="-574.5" font-family="Helvetica,sans-Serif" font-size="10.00"> </text>
</a>
</g>
</g>
<!-- Node2&#45;&gt;Node1 -->
<g id="edge1" class="edge">
<title>Node2&#45;&gt;Node1</title>
<path fill="none" stroke="#404040" d="M26.16,-567.13C29.43,-548.99 34.82,-525.06 43,-505 54.47,-476.88 68.74,-448.27 83.98,-420.8"/>
<polygon fill="none" stroke="#404040" points="83.98,-420.8 83.44,-413.61 89.86,-410.34 90.41,-417.53 83.98,-420.8"/>
<text text-anchor="middle" x="99" y="-530" font-family="Helvetica,sans-Serif" font-size="10.00"> &#45;RANDOM_ADD</text>
<text text-anchor="middle" x="99" y="-519" font-family="Helvetica,sans-Serif" font-size="10.00">&#45;RANDOM_MASK</text>
<text text-anchor="middle" x="99" y="-508" font-family="Helvetica,sans-Serif" font-size="10.00">&#45;RANDOM_MULTIPLIER</text>
</g>
<!-- Node3 -->
<g id="node3" class="node">
<title>Node3</title>
<g id="a_node3"><a xlink:title=" ">
<polygon fill="white" stroke="#bfbfbf" points="132,-567.5 132,-624.5 170,-624.5 170,-567.5 132,-567.5"/>
<text text-anchor="middle" x="151" y="-612.5" font-family="Helvetica,sans-Serif" font-size="10.00">long</text>
<polyline fill="none" stroke="#bfbfbf" points="132,-605.5 170,-605.5 "/>
<text text-anchor="middle" x="151" y="-593.5" font-family="Helvetica,sans-Serif" font-size="10.00"> </text>
<polyline fill="none" stroke="#bfbfbf" points="132,-586.5 170,-586.5 "/>
<text text-anchor="middle" x="151" y="-574.5" font-family="Helvetica,sans-Serif" font-size="10.00"> </text>
</a>
</g>
</g>
<!-- Node3&#45;&gt;Node1 -->
<g id="edge2" class="edge">
<title>Node3&#45;&gt;Node1</title>
<path fill="none" stroke="#404040" d="M154.92,-567.5C157.39,-550.2 160.84,-525.99 164.76,-498.52"/>
<polygon fill="none" stroke="#404040" points="164.78,-498.43 161.66,-491.93 166.47,-486.55 169.58,-493.06 164.78,-498.43"/>
<text text-anchor="middle" x="193" y="-519" font-family="Helvetica,sans-Serif" font-size="10.00"> +MaxCoins</text>
</g>
<!-- Node4 -->
<g id="node4" class="node">
<title>Node4</title>
<g id="a_node4"><a xlink:title=" ">
<polygon fill="white" stroke="#bfbfbf" points="188,-556.5 188,-635.5 304,-635.5 304,-556.5 188,-556.5"/>
<text text-anchor="start" x="196" y="-623.5" font-family="Helvetica,sans-Serif" font-size="10.00">static Dictionary&lt;</text>
<text text-anchor="start" x="196" y="-612.5" font-family="Helvetica,sans-Serif" font-size="10.00"> DynamicSpriteFont,</text>
<text text-anchor="middle" x="246" y="-601.5" font-family="Helvetica,sans-Serif" font-size="10.00"> float[]&gt;</text>
<polyline fill="none" stroke="#bfbfbf" points="188,-594.5 304,-594.5 "/>
<text text-anchor="middle" x="246" y="-582.5" font-family="Helvetica,sans-Serif" font-size="10.00"> </text>
<polyline fill="none" stroke="#bfbfbf" points="188,-575.5 304,-575.5 "/>
<text text-anchor="middle" x="246" y="-563.5" font-family="Helvetica,sans-Serif" font-size="10.00"> </text>
</a>
</g>
</g>
<!-- Node4&#45;&gt;Node1 -->
<g id="edge3" class="edge">
<title>Node4&#45;&gt;Node1</title>
<path fill="none" stroke="#404040" d="M241.06,-556.49C239.01,-540.58 236.46,-520.72 233.64,-498.76"/>
<polygon fill="none" stroke="#404040" points="233.63,-498.63 228.9,-493.19 232.1,-486.73 236.83,-492.17 233.63,-498.63"/>
<text text-anchor="middle" x="273.5" y="-519" font-family="Helvetica,sans-Serif" font-size="10.00"> +charLengths</text>
</g>
<!-- Node5 -->
<g id="node5" class="node">
<title>Node5</title>
<g id="a_node5"><a xlink:title=" ">
<polygon fill="white" stroke="#bfbfbf" points="322.5,-567.5 322.5,-624.5 399.5,-624.5 399.5,-567.5 322.5,-567.5"/>
<text text-anchor="middle" x="361" y="-612.5" font-family="Helvetica,sans-Serif" font-size="10.00">static Regex</text>
<polyline fill="none" stroke="#bfbfbf" points="322.5,-605.5 399.5,-605.5 "/>
<text text-anchor="middle" x="361" y="-593.5" font-family="Helvetica,sans-Serif" font-size="10.00"> </text>
<polyline fill="none" stroke="#bfbfbf" points="322.5,-586.5 399.5,-586.5 "/>
<text text-anchor="middle" x="361" y="-574.5" font-family="Helvetica,sans-Serif" font-size="10.00"> </text>
</a>
</g>
</g>
<!-- Node5&#45;&gt;Node1 -->
<g id="edge4" class="edge">
<title>Node5&#45;&gt;Node1</title>
<path fill="none" stroke="#404040" d="M348.45,-567.5C340.48,-550.04 329.3,-525.55 316.62,-497.78"/>
<polygon fill="none" stroke="#404040" points="316.48,-497.47 310.35,-493.67 311.49,-486.55 317.63,-490.35 316.48,-497.47"/>
<text text-anchor="middle" x="384.5" y="-519" font-family="Helvetica,sans-Serif" font-size="10.00"> &#45;_substitutionRegex</text>
</g>
</g>
</svg>
        <g id="navigator" transform="translate(0 0)" fill="#404254">
                <rect fill="#f2f5e9" fill-opacity="0.5" stroke="#606060" stroke-width=".5" x="0" y="0" width="60" height="60"/>
                <use id="zoomplus" xlink:href="#zoomPlus" x="17" y="9" onmousedown="handleZoom(evt,'in')"/>
                <use id="zoomminus" xlink:href="#zoomMin" x="42" y="9" onmousedown="handleZoom(evt,'out')"/>
                <use id="reset" xlink:href="#resetDef" x="30" y="36" onmousedown="handleReset()"/>
                <g id="arrowUp" xlink:href="#dirArrow" transform="translate(30 24)" onmousedown="handlePan(0,-1)">
                  <use xlink:href="#rim" fill="#404040">
                        <set attributeName="fill" to="#808080" begin="arrowUp.mouseover" end="arrowUp.mouseout"/>
                  </use>
                  <path fill="none" stroke="white" stroke-width="1.5" d="M0,-3.0v7 M-2.5,-0.5L0,-3.0L2.5,-0.5"/>
                </g>
                <g id="arrowRight" xlink:href="#dirArrow" transform="rotate(90) translate(36 -43)" onmousedown="handlePan(1,0)">
                  <use xlink:href="#rim" fill="#404040">
                        <set attributeName="fill" to="#808080" begin="arrowRight.mouseover" end="arrowRight.mouseout"/>
                  </use>
                  <path fill="none" stroke="white" stroke-width="1.5" d="M0,-3.0v7 M-2.5,-0.5L0,-3.0L2.5,-0.5"/>
                </g>
                <g id="arrowDown" xlink:href="#dirArrow" transform="rotate(180) translate(-30 -48)" onmousedown="handlePan(0,1)">
                  <use xlink:href="#rim" fill="#404040">
                        <set attributeName="fill" to="#808080" begin="arrowDown.mouseover" end="arrowDown.mouseout"/>
                  </use>
                  <path fill="none" stroke="white" stroke-width="1.5" d="M0,-3.0v7 M-2.5,-0.5L0,-3.0L2.5,-0.5"/>
                </g>
                <g id="arrowLeft" xlink:href="#dirArrow" transform="rotate(270) translate(-36 17)" onmousedown="handlePan(-1,0)">
                  <use xlink:href="#rim" fill="#404040">
                        <set attributeName="fill" to="#808080" begin="arrowLeft.mouseover" end="arrowLeft.mouseout"/>
                  </use>
                  <path fill="none" stroke="white" stroke-width="1.5" d="M0,-3.0v7 M-2.5,-0.5L0,-3.0L2.5,-0.5"/>
                </g>
        </g>
        <svg viewBox="0 0 15 15" width="100%" height="30px" preserveAspectRatio="xMaxYMin meet">
         <g id="arrow_out" transform="scale(0.3 0.3)">
          <a xlink:href="classUtils__coll__graph_org.svg" target="_base">
           <rect id="button" ry="5" rx="5" y="6" x="6" height="38" width="38"
                fill="#f2f5e9" fill-opacity="0.5" stroke="#606060" stroke-width="1.0"/>
           <path id="arrow"
             d="M 11.500037,31.436501 C 11.940474,20.09759 22.043105,11.32322 32.158766,21.979434 L 37.068811,17.246167 C 37.068811,17.246167 37.088388,32 37.088388,32 L 22.160133,31.978069 C 22.160133,31.978069 26.997745,27.140456 26.997745,27.140456 C 18.528582,18.264221 13.291696,25.230495 11.500037,31.436501 z"
             style="fill:#404040;"/>
          </a>
         </g>
        </svg>
</svg>
