<?xml version="1.0" encoding="UTF-8" standalone="no"?>
<!DOCTYPE svg PUBLIC "-//W3C//DTD SVG 1.1//EN"
 "http://www.w3.org/Graphics/SVG/1.1/DTD/svg11.dtd">
<!-- Generated by graphviz version 2.43.0 (0)
 -->
<!-- Title: RemoteClient.SectionRange Pages: 1 -->
<svg width="313pt" height="66pt"
 viewBox="0.00 0.00 313.00 66.00" xmlns="http://www.w3.org/2000/svg" xmlns:xlink="http://www.w3.org/1999/xlink">
<g id="graph0" class="graph" transform="scale(1 1) rotate(0) translate(4 62)">
<title>RemoteClient.SectionRange</title>
<polygon fill="white" stroke="transparent" points="-4,4 -4,-62 309,-62 309,4 -4,4"/>
<!-- Node1 -->
<g id="node1" class="node">
<title>Node1</title>
<g id="a_node1"><a xlink:title=" ">
<polygon fill="#bfbfbf" stroke="black" points="0,-19.5 0,-38.5 153,-38.5 153,-19.5 0,-19.5"/>
<text text-anchor="middle" x="76.5" y="-26.5" font-family="Helvetica,sans-Serif" font-size="10.00">RemoteClient.SectionRange</text>
</a>
</g>
</g>
<!-- Node2 -->
<g id="node2" class="node">
<title>Node2</title>
<g id="a_node2"><a xlink:href="../../d9/d43/classNetplay_ab61acde52f6e2c8d92b5816ba67ccadf.html#ab61acde52f6e2c8d92b5816ba67ccadf" target="_top" xlink:title=" ">
<polygon fill="white" stroke="black" points="189,-38.5 189,-57.5 305,-57.5 305,-38.5 189,-38.5"/>
<text text-anchor="middle" x="247" y="-45.5" font-family="Helvetica,sans-Serif" font-size="10.00">Netplay.GetSectionX</text>
</a>
</g>
</g>
<!-- Node1&#45;&gt;Node2 -->
<g id="edge1" class="edge">
<title>Node1&#45;&gt;Node2</title>
<path fill="none" stroke="midnightblue" d="M153.37,-37.56C161.88,-38.51 170.5,-39.49 178.89,-40.43"/>
<polygon fill="midnightblue" stroke="midnightblue" points="178.65,-43.93 188.98,-41.57 179.43,-36.97 178.65,-43.93"/>
</g>
<!-- Node3 -->
<g id="node3" class="node">
<title>Node3</title>
<g id="a_node3"><a xlink:href="../../d9/d43/classNetplay_a5d153f58e51f26baa5e12b5e6d86c56b.html#a5d153f58e51f26baa5e12b5e6d86c56b" target="_top" xlink:title=" ">
<polygon fill="white" stroke="black" points="189,-0.5 189,-19.5 305,-19.5 305,-0.5 189,-0.5"/>
<text text-anchor="middle" x="247" y="-7.5" font-family="Helvetica,sans-Serif" font-size="10.00">Netplay.GetSectionY</text>
</a>
</g>
</g>
<!-- Node1&#45;&gt;Node3 -->
<g id="edge2" class="edge">
<title>Node1&#45;&gt;Node3</title>
<path fill="none" stroke="midnightblue" d="M153.37,-20.44C161.88,-19.49 170.5,-18.51 178.89,-17.57"/>
<polygon fill="midnightblue" stroke="midnightblue" points="179.43,-21.03 188.98,-16.43 178.65,-14.07 179.43,-21.03"/>
</g>
</g>
</svg>
