<?xml version="1.0" encoding="UTF-8" standalone="no"?>
<!DOCTYPE svg PUBLIC "-//W3C//DTD SVG 1.1//EN"
 "http://www.w3.org/Graphics/SVG/1.1/DTD/svg11.dtd">
<!-- Generated by graphviz version 2.43.0 (0)
 -->
<!-- Title: Liquid.NetSendLiquid Pages: 1 -->
<svg width="538pt" height="104pt"
 viewBox="0.00 0.00 538.00 104.00" xmlns="http://www.w3.org/2000/svg" xmlns:xlink="http://www.w3.org/1999/xlink">
<g id="graph0" class="graph" transform="scale(1 1) rotate(0) translate(4 100)">
<title>Liquid.NetSendLiquid</title>
<polygon fill="white" stroke="transparent" points="-4,4 -4,-100 534,-100 534,4 -4,4"/>
<!-- Node1 -->
<g id="node1" class="node">
<title>Node1</title>
<g id="a_node1"><a xlink:title=" ">
<polygon fill="#bfbfbf" stroke="black" points="411,-57.5 411,-76.5 530,-76.5 530,-57.5 411,-57.5"/>
<text text-anchor="middle" x="470.5" y="-64.5" font-family="Helvetica,sans-Serif" font-size="10.00">Liquid.NetSendLiquid</text>
</a>
</g>
</g>
<!-- Node2 -->
<g id="node2" class="node">
<title>Node2</title>
<g id="a_node2"><a xlink:href="../../d8/d37/classLiquid_aabf0b12bbe6e892d1c99d8a3d49a4152.html#aabf0b12bbe6e892d1c99d8a3d49a4152" target="_top" xlink:title=" ">
<polygon fill="white" stroke="black" points="279,-38.5 279,-57.5 375,-57.5 375,-38.5 279,-38.5"/>
<text text-anchor="middle" x="327" y="-45.5" font-family="Helvetica,sans-Serif" font-size="10.00">Liquid.AddWater</text>
</a>
</g>
</g>
<!-- Node1&#45;&gt;Node2 -->
<g id="edge1" class="edge">
<title>Node1&#45;&gt;Node2</title>
<path fill="none" stroke="midnightblue" d="M400.65,-57.75C392.03,-56.6 383.37,-55.43 375.18,-54.34"/>
<polygon fill="midnightblue" stroke="midnightblue" points="400.34,-61.25 410.72,-59.11 401.28,-54.31 400.34,-61.25"/>
</g>
<!-- Node3 -->
<g id="node3" class="node">
<title>Node3</title>
<g id="a_node3"><a xlink:href="../../d8/d37/classLiquid_a392601a5343cfb07f74c1d9cc982e849.html#a392601a5343cfb07f74c1d9cc982e849" target="_top" xlink:title=" ">
<polygon fill="white" stroke="black" points="149,-76.5 149,-95.5 243,-95.5 243,-76.5 149,-76.5"/>
<text text-anchor="middle" x="196" y="-83.5" font-family="Helvetica,sans-Serif" font-size="10.00">Liquid.DelWater</text>
</a>
</g>
</g>
<!-- Node1&#45;&gt;Node3 -->
<g id="edge6" class="edge">
<title>Node1&#45;&gt;Node3</title>
<path fill="none" stroke="midnightblue" d="M400.44,-71.82C351.13,-75.25 286.17,-79.78 243.06,-82.79"/>
<polygon fill="midnightblue" stroke="midnightblue" points="400.97,-75.29 410.71,-71.1 400.49,-68.3 400.97,-75.29"/>
</g>
<!-- Node2&#45;&gt;Node3 -->
<g id="edge2" class="edge">
<title>Node2&#45;&gt;Node3</title>
<path fill="none" stroke="midnightblue" d="M283.45,-60.54C265.9,-65.7 245.89,-71.6 229.54,-76.41"/>
<polygon fill="midnightblue" stroke="midnightblue" points="284.84,-63.77 293.45,-57.59 282.87,-57.06 284.84,-63.77"/>
</g>
<!-- Node4 -->
<g id="node4" class="node">
<title>Node4</title>
<g id="a_node4"><a xlink:href="../../d8/d37/classLiquid_aa12c3fe84fa8d991455dd8ac71019a15.html#aa12c3fe84fa8d991455dd8ac71019a15" target="_top" xlink:title=" ">
<polygon fill="white" stroke="black" points="0,-57.5 0,-76.5 113,-76.5 113,-57.5 0,-57.5"/>
<text text-anchor="middle" x="56.5" y="-64.5" font-family="Helvetica,sans-Serif" font-size="10.00">Liquid.UpdateLiquid</text>
</a>
</g>
</g>
<!-- Node2&#45;&gt;Node4 -->
<g id="edge5" class="edge">
<title>Node2&#45;&gt;Node4</title>
<path fill="none" stroke="midnightblue" d="M268.84,-52.04C222.96,-55.29 158.9,-59.82 113.36,-63.05"/>
<polygon fill="midnightblue" stroke="midnightblue" points="269.2,-55.53 278.92,-51.33 268.7,-48.55 269.2,-55.53"/>
</g>
<!-- Node5 -->
<g id="node5" class="node">
<title>Node5</title>
<g id="a_node5"><a xlink:href="../../d8/d37/classLiquid_a1ac06f392f7532463ade999a042fdbed.html#a1ac06f392f7532463ade999a042fdbed" target="_top" xlink:title=" ">
<polygon fill="white" stroke="black" points="154,-0.5 154,-19.5 238,-19.5 238,-0.5 154,-0.5"/>
<text text-anchor="middle" x="196" y="-7.5" font-family="Helvetica,sans-Serif" font-size="10.00">Liquid.Update</text>
</a>
</g>
</g>
<!-- Node2&#45;&gt;Node5 -->
<g id="edge4" class="edge">
<title>Node2&#45;&gt;Node5</title>
<path fill="none" stroke="midnightblue" d="M283.45,-35.46C265.9,-30.3 245.89,-24.4 229.54,-19.59"/>
<polygon fill="midnightblue" stroke="midnightblue" points="282.87,-38.94 293.45,-38.41 284.84,-32.23 282.87,-38.94"/>
</g>
<!-- Node3&#45;&gt;Node4 -->
<g id="edge3" class="edge">
<title>Node3&#45;&gt;Node4</title>
<path fill="none" stroke="midnightblue" d="M138.76,-78.23C130.36,-77.07 121.71,-75.87 113.33,-74.71"/>
<polygon fill="midnightblue" stroke="midnightblue" points="138.45,-81.72 148.83,-79.62 139.41,-74.78 138.45,-81.72"/>
</g>
</g>
</svg>
