<?xml version="1.0" encoding="UTF-8" standalone="no"?>
<!DOCTYPE svg PUBLIC "-//W3C//DTD SVG 1.1//EN"
 "http://www.w3.org/Graphics/SVG/1.1/DTD/svg11.dtd">
<!-- Generated by graphviz version 2.43.0 (0)
 -->
<!-- Title: Terraria.DataStructures.ContainerTransferContext.FromUnknown Pages: 1 -->
<!--zoomable 49 -->

<svg id="main" version="1.1" xmlns="http://www.w3.org/2000/svg" xmlns:xlink="http://www.w3.org/1999/xlink" xml:space="preserve" onload="init(evt)">
<style type="text/css"><![CDATA[
.node, .edge {opacity: 0.7;}
.node.selected, .edge.selected {opacity: 1;}
.edge:hover path { stroke: red; }
.edge:hover polygon { stroke: red; fill: red; }
]]></style>

<defs>
  <circle id="rim" cx="0" cy="0" r="7"/>
  <circle id="rim2" cx="0" cy="0" r="3.5"/>
  <g id="zoomPlus">
    <use xlink:href="#rim" fill="#404040"><set attributeName="fill" to="#808080" begin="zoomplus.mouseover" end="zoomplus.mouseout"/></use>
    <path d="M-4,0h8M0,-4v8" fill="none" stroke="white" stroke-width="1.5" pointer-events="none"/>
  </g>
  <g id="zoomMin">
    <use xlink:href="#rim" fill="#404040"><set attributeName="fill" to="#808080" begin="zoomminus.mouseover" end="zoomminus.mouseout"/></use>
    <path d="M-4,0h8" fill="none" stroke="white" stroke-width="1.5" pointer-events="none"/>
  </g>
  <g id="arrowUp" transform="translate(30 24)">
    <use xlink:href="#rim"/>
    <path pointer-events="none" fill="none" stroke="white" stroke-width="1.5" d="M0,-3.0v7 M-2.5,-0.5L0,-3.0L2.5,-0.5"/>
  </g>
  <g id="arrowRight" transform="rotate(90) translate(36 -43)">
    <use xlink:href="#rim"/>
    <path pointer-events="none" fill="none" stroke="white" stroke-width="1.5" d="M0,-3.0v7 M-2.5,-0.5L0,-3.0L2.5,-0.5"/>
  </g>
  <g id="arrowDown" transform="rotate(180) translate(-30 -48)">
    <use xlink:href="#rim"/>
    <path pointer-events="none" fill="none" stroke="white" stroke-width="1.5" d="M0,-3.0v7 M-2.5,-0.5L0,-3.0L2.5,-0.5"/>
  </g>
  <g id="arrowLeft" transform="rotate(270) translate(-36 17)">
    <use xlink:href="#rim"/>
    <path pointer-events="none" fill="none" stroke="white" stroke-width="1.5" d="M0,-3.0v7 M-2.5,-0.5L0,-3.0L2.5,-0.5"/>
  </g>
  <g id="resetDef">
    <use xlink:href="#rim2" fill="#404040"><set attributeName="fill" to="#808080" begin="reset.mouseover" end="reset.mouseout"/></use>
  </g>
</defs>
<script type="application/ecmascript">
var viewWidth = 1782;
var viewHeight = 49;
var sectionId = 'dynsection-0';
</script>
<script type="application/ecmascript" xlink:href="../../svg.min.js"/>
<svg id="graph" class="graph">
<g id="viewport">
<title>Terraria.DataStructures.ContainerTransferContext.FromUnknown</title>
<!-- Node1 -->
<g id="Node000001" class="node">
<title>Node1</title>
<g id="a_Node000001"><a xlink:title=" ">
<polygon fill="#999999" stroke="#666666" points="1774,-41 1605,-41 1605,0 1774,0 1774,-41"/>
<text text-anchor="start" x="1613" y="-29" font-family="Helvetica,sans-Serif" font-size="10.00">Terraria.DataStructures.</text>
<text text-anchor="start" x="1613" y="-18" font-family="Helvetica,sans-Serif" font-size="10.00">ContainerTransferContext.From</text>
<text text-anchor="middle" x="1689.5" y="-7" font-family="Helvetica,sans-Serif" font-size="10.00">Unknown</text>
</a>
</g>
</g>
<!-- Node2 -->
<g id="Node000002" class="node">
<title>Node2</title>
<g id="a_Node000002"><a xlink:href="../../d8/dd3/classTerraria_1_1UI_1_1ChestUI_a8bf2eff440d946a95977889b34ff8b91.html#a8bf2eff440d946a95977889b34ff8b91" target="_top" xlink:title=" ">
<polygon fill="white" stroke="#666666" points="1569,-35.5 1432,-35.5 1432,-5.5 1569,-5.5 1569,-35.5"/>
<text text-anchor="start" x="1440" y="-23.5" font-family="Helvetica,sans-Serif" font-size="10.00">Terraria.UI.ChestUI.Draw</text>
<text text-anchor="middle" x="1500.5" y="-12.5" font-family="Helvetica,sans-Serif" font-size="10.00">Button</text>
</a>
</g>
</g>
<!-- Node1&#45;&gt;Node2 -->
<g id="edge1_Node000001_Node000002" class="edge">
<title>Node1&#45;&gt;Node2</title>
<g id="a_edge1_Node000001_Node000002"><a xlink:title=" ">
<path fill="none" stroke="#63b8ff" d="M1594.72,-20.5C1586.08,-20.5 1577.44,-20.5 1569.1,-20.5"/>
<polygon fill="#63b8ff" stroke="#63b8ff" points="1594.85,-24 1604.85,-20.5 1594.85,-17 1594.85,-24"/>
</a>
</g>
</g>
<!-- Node3 -->
<g id="Node000003" class="node">
<title>Node3</title>
<g id="a_Node000003"><a xlink:href="../../d8/dd3/classTerraria_1_1UI_1_1ChestUI_a29ff526beab31298925ae3b889af5f83.html#a29ff526beab31298925ae3b889af5f83" target="_top" xlink:title=" ">
<polygon fill="white" stroke="#666666" points="1396,-35.5 1259,-35.5 1259,-5.5 1396,-5.5 1396,-35.5"/>
<text text-anchor="start" x="1267" y="-23.5" font-family="Helvetica,sans-Serif" font-size="10.00">Terraria.UI.ChestUI.Draw</text>
<text text-anchor="middle" x="1327.5" y="-12.5" font-family="Helvetica,sans-Serif" font-size="10.00">Buttons</text>
</a>
</g>
</g>
<!-- Node2&#45;&gt;Node3 -->
<g id="edge2_Node000002_Node000003" class="edge">
<title>Node2&#45;&gt;Node3</title>
<g id="a_edge2_Node000002_Node000003"><a xlink:title=" ">
<path fill="none" stroke="#63b8ff" d="M1421.9,-20.5C1413.31,-20.5 1404.61,-20.5 1396.15,-20.5"/>
<polygon fill="#63b8ff" stroke="#63b8ff" points="1421.92,-24 1431.92,-20.5 1421.92,-17 1421.92,-24"/>
</a>
</g>
</g>
<!-- Node4 -->
<g id="Node000004" class="node">
<title>Node4</title>
<g id="a_Node000004"><a xlink:href="../../d8/dd3/classTerraria_1_1UI_1_1ChestUI_a88b244e7968d6898255653a9d6790103.html#a88b244e7968d6898255653a9d6790103" target="_top" xlink:title=" ">
<polygon fill="white" stroke="#666666" points="1223,-30 1086,-30 1086,-11 1223,-11 1223,-30"/>
<text text-anchor="middle" x="1154.5" y="-18" font-family="Helvetica,sans-Serif" font-size="10.00">Terraria.UI.ChestUI.Draw</text>
</a>
</g>
</g>
<!-- Node3&#45;&gt;Node4 -->
<g id="edge3_Node000003_Node000004" class="edge">
<title>Node3&#45;&gt;Node4</title>
<g id="a_edge3_Node000003_Node000004"><a xlink:title=" ">
<path fill="none" stroke="#63b8ff" d="M1248.9,-20.5C1240.31,-20.5 1231.61,-20.5 1223.15,-20.5"/>
<polygon fill="#63b8ff" stroke="#63b8ff" points="1248.92,-24 1258.92,-20.5 1248.92,-17 1248.92,-24"/>
</a>
</g>
</g>
<!-- Node5 -->
<g id="Node000005" class="node">
<title>Node5</title>
<g id="a_Node000005"><a xlink:href="../../da/dd5/classTerraria_1_1Main_a3d98f18e1b3a22533d5282611b6d8dfe.html#a3d98f18e1b3a22533d5282611b6d8dfe" target="_top" xlink:title=" ">
<polygon fill="white" stroke="#666666" points="1050,-30 895,-30 895,-11 1050,-11 1050,-30"/>
<text text-anchor="middle" x="972.5" y="-18" font-family="Helvetica,sans-Serif" font-size="10.00">Terraria.Main.DrawInventory</text>
</a>
</g>
</g>
<!-- Node4&#45;&gt;Node5 -->
<g id="edge4_Node000004_Node000005" class="edge">
<title>Node4&#45;&gt;Node5</title>
<g id="a_edge4_Node000004_Node000005"><a xlink:title=" ">
<path fill="none" stroke="#63b8ff" d="M1075.73,-20.5C1067.26,-20.5 1058.64,-20.5 1050.19,-20.5"/>
<polygon fill="#63b8ff" stroke="#63b8ff" points="1075.96,-24 1085.96,-20.5 1075.96,-17 1075.96,-24"/>
</a>
</g>
</g>
<!-- Node6 -->
<g id="Node000006" class="node">
<title>Node6</title>
<g id="a_Node000006"><a xlink:href="../../da/dd5/classTerraria_1_1Main_a6ec2a6dd6eea7cf9082122035842a01b.html#a6ec2a6dd6eea7cf9082122035842a01b" target="_top" xlink:title=" ">
<polygon fill="white" stroke="#666666" points="859,-35.5 707,-35.5 707,-5.5 859,-5.5 859,-35.5"/>
<text text-anchor="start" x="715" y="-23.5" font-family="Helvetica,sans-Serif" font-size="10.00">Terraria.Main.DrawInterface</text>
<text text-anchor="middle" x="783" y="-12.5" font-family="Helvetica,sans-Serif" font-size="10.00">_27_Inventory</text>
</a>
</g>
</g>
<!-- Node5&#45;&gt;Node6 -->
<g id="edge5_Node000005_Node000006" class="edge">
<title>Node5&#45;&gt;Node6</title>
<g id="a_edge5_Node000005_Node000006"><a xlink:title=" ">
<path fill="none" stroke="#63b8ff" d="M884.9,-20.5C876.27,-20.5 867.57,-20.5 859.08,-20.5"/>
<polygon fill="#63b8ff" stroke="#63b8ff" points="884.97,-24 894.97,-20.5 884.97,-17 884.97,-24"/>
</a>
</g>
</g>
<!-- Node7 -->
<g id="Node000007" class="node">
<title>Node7</title>
<g id="a_Node000007"><a xlink:href="../../da/dd5/classTerraria_1_1Main_a635639e6a6d3795bbfbcf0e24fc3aac5.html#a635639e6a6d3795bbfbcf0e24fc3aac5" target="_top" xlink:title=" ">
<polygon fill="white" stroke="#666666" points="671,-35.5 491,-35.5 491,-5.5 671,-5.5 671,-35.5"/>
<text text-anchor="start" x="499" y="-23.5" font-family="Helvetica,sans-Serif" font-size="10.00">Terraria.Main.SetupDrawInterface</text>
<text text-anchor="middle" x="581" y="-12.5" font-family="Helvetica,sans-Serif" font-size="10.00">Layers</text>
</a>
</g>
</g>
<!-- Node6&#45;&gt;Node7 -->
<g id="edge6_Node000006_Node000007" class="edge">
<title>Node6&#45;&gt;Node7</title>
<g id="a_edge6_Node000006_Node000007"><a xlink:title=" ">
<path fill="none" stroke="#63b8ff" d="M696.76,-20.5C688.33,-20.5 679.76,-20.5 671.28,-20.5"/>
<polygon fill="#63b8ff" stroke="#63b8ff" points="696.96,-24 706.96,-20.5 696.96,-17 696.96,-24"/>
</a>
</g>
</g>
<!-- Node8 -->
<g id="Node000008" class="node">
<title>Node8</title>
<g id="a_Node000008"><a xlink:href="../../da/dd5/classTerraria_1_1Main_a36d139a1fd2647d53f25a241f3d5d5f4.html#a36d139a1fd2647d53f25a241f3d5d5f4" target="_top" xlink:title=" ">
<polygon fill="white" stroke="#666666" points="455,-30 303,-30 303,-11 455,-11 455,-30"/>
<text text-anchor="middle" x="379" y="-18" font-family="Helvetica,sans-Serif" font-size="10.00">Terraria.Main.DrawInterface</text>
</a>
</g>
</g>
<!-- Node7&#45;&gt;Node8 -->
<g id="edge7_Node000007_Node000008" class="edge">
<title>Node7&#45;&gt;Node8</title>
<g id="a_edge7_Node000007_Node000008"><a xlink:title=" ">
<path fill="none" stroke="#63b8ff" d="M480.77,-20.5C472.19,-20.5 463.6,-20.5 455.26,-20.5"/>
<polygon fill="#63b8ff" stroke="#63b8ff" points="480.82,-24 490.82,-20.5 480.82,-17 480.82,-24"/>
</a>
</g>
</g>
<!-- Node9 -->
<g id="Node000009" class="node">
<title>Node9</title>
<g id="a_Node000009"><a xlink:href="../../da/dd5/classTerraria_1_1Main_a474beeecaea4d6dd108fba56cd554d46.html#a474beeecaea4d6dd108fba56cd554d46" target="_top" xlink:title=" ">
<polygon fill="white" stroke="#666666" points="267,-30 145,-30 145,-11 267,-11 267,-30"/>
<text text-anchor="middle" x="206" y="-18" font-family="Helvetica,sans-Serif" font-size="10.00">Terraria.Main.DoDraw</text>
</a>
</g>
</g>
<!-- Node8&#45;&gt;Node9 -->
<g id="edge8_Node000008_Node000009" class="edge">
<title>Node8&#45;&gt;Node9</title>
<g id="a_edge8_Node000008_Node000009"><a xlink:title=" ">
<path fill="none" stroke="#63b8ff" d="M292.81,-20.5C284.1,-20.5 275.4,-20.5 267.05,-20.5"/>
<polygon fill="#63b8ff" stroke="#63b8ff" points="293,-24 303,-20.5 293,-17 293,-24"/>
</a>
</g>
</g>
<!-- Node10 -->
<g id="Node000010" class="node">
<title>Node10</title>
<g id="a_Node000010"><a xlink:href="../../da/dd5/classTerraria_1_1Main_a516aa31311860bad4242ade32e5effcd.html#a516aa31311860bad4242ade32e5effcd" target="_top" xlink:title=" ">
<polygon fill="white" stroke="#666666" points="109,-30 0,-30 0,-11 109,-11 109,-30"/>
<text text-anchor="middle" x="54.5" y="-18" font-family="Helvetica,sans-Serif" font-size="10.00">Terraria.Main.Draw</text>
</a>
</g>
</g>
<!-- Node9&#45;&gt;Node10 -->
<g id="edge9_Node000009_Node000010" class="edge">
<title>Node9&#45;&gt;Node10</title>
<g id="a_edge9_Node000009_Node000010"><a xlink:title=" ">
<path fill="none" stroke="#63b8ff" d="M134.41,-13.76C125.99,-13.72 117.49,-13.8 109.35,-13.99"/>
<polygon fill="#63b8ff" stroke="#63b8ff" points="134.59,-17.26 144.62,-13.86 134.66,-10.26 134.59,-17.26"/>
</a>
</g>
</g>
<!-- Node10&#45;&gt;Node9 -->
<g id="edge10_Node000010_Node000009" class="edge">
<title>Node10&#45;&gt;Node9</title>
<g id="a_edge10_Node000010_Node000009"><a xlink:title=" ">
<path fill="none" stroke="#63b8ff" d="M119.43,-27.19C127.79,-27.29 136.33,-27.27 144.62,-27.14"/>
<polygon fill="#63b8ff" stroke="#63b8ff" points="119.41,-23.69 109.35,-27.01 119.29,-30.68 119.41,-23.69"/>
</a>
</g>
</g>
</g>
</svg>

<g id="navigator" transform="translate(0 0)" fill="#404254">
  <rect fill="#f2f5e9" fill-opacity="0.5" stroke="#606060" stroke-width=".5" x="0" y="0" width="60" height="60"/>
  <use id="zoomplus" xlink:href="#zoomPlus" x="17" y="9" onmousedown="handleZoom(evt,'in')"/>
  <use id="zoomminus" xlink:href="#zoomMin" x="42" y="9" onmousedown="handleZoom(evt,'out')"/>
  <use id="reset" xlink:href="#resetDef" x="30" y="36" onmousedown="handleReset()"/>
   <use id="arrowup" xlink:href="#arrowUp" x="0" y="0" onmousedown="handlePan(0,-1)"/>
  <use id="arrowright" xlink:href="#arrowRight" x="0" y="0" onmousedown="handlePan(1,0)"/>
  <use id="arrowdown" xlink:href="#arrowDown" x="0" y="0" onmousedown="handlePan(0,1)"/>
  <use id="arrowleft" xlink:href="#arrowLeft" x="0" y="0" onmousedown="handlePan(-1,0)"/>
</g>
<svg viewBox="0 0 15 15" width="100%" height="30px" preserveAspectRatio="xMaxYMin meet">
 <g id="arrow_out" transform="scale(0.3 0.3)">
  <a xlink:href="structTerraria_1_1DataStructures_1_1ContainerTransferContext_a1105f4852a79fd9b3c12eb8d9195d429_a1105f4852a79fd9b3c12eb8d9195d429_icgraph_org.svg" target="_base">
   <rect id="button" ry="5" rx="5" y="6" x="6" height="38" width="38"
        fill="#f2f5e9" fill-opacity="0.5" stroke="#606060" stroke-width="1.0"/>
   <path id="arrow"
     d="M 11.500037,31.436501 C 11.940474,20.09759 22.043105,11.32322 32.158766,21.979434 L 37.068811,17.246167 C 37.068811,17.246167 37.088388,32 37.088388,32 L 22.160133,31.978069 C 22.160133,31.978069 26.997745,27.140456 26.997745,27.140456 C 18.528582,18.264221 13.291696,25.230495 11.500037,31.436501 z"
     style="fill:#404040;"/>
  </a>
 </g>
</svg>

<style type='text/css'>
<![CDATA[
[data-mouse-over-selected='false'] { opacity: 0.7; }
[data-mouse-over-selected='true']  { opacity: 1.0; }
]]>
</style>
<script type="application/ecmascript"><![CDATA[
document.addEventListener('DOMContentLoaded', (event) => {
  highlightEdges();
  highlightAdjacentNodes();
});
]]></script>
</svg>
