<?xml version="1.0" encoding="UTF-8" standalone="no"?>
<!DOCTYPE svg PUBLIC "-//W3C//DTD SVG 1.1//EN"
 "http://www.w3.org/Graphics/SVG/1.1/DTD/svg11.dtd">
<!-- Generated by graphviz version 2.43.0 (0)
 -->
<!-- Title: FavoritesFile.SaveFavorite Pages: 1 -->
<svg width="750pt" height="142pt"
 viewBox="0.00 0.00 750.00 142.00" xmlns="http://www.w3.org/2000/svg" xmlns:xlink="http://www.w3.org/1999/xlink">
<g id="graph0" class="graph" transform="scale(1 1) rotate(0) translate(4 138)">
<title>FavoritesFile.SaveFavorite</title>
<polygon fill="white" stroke="transparent" points="-4,4 -4,-138 746,-138 746,4 -4,4"/>
<!-- Node1 -->
<g id="node1" class="node">
<title>Node1</title>
<g id="a_node1"><a xlink:title=" ">
<polygon fill="#bfbfbf" stroke="black" points="598,-57.5 598,-76.5 742,-76.5 742,-57.5 598,-57.5"/>
<text text-anchor="middle" x="670" y="-64.5" font-family="Helvetica,sans-Serif" font-size="10.00">FavoritesFile.SaveFavorite</text>
</a>
</g>
</g>
<!-- Node2 -->
<g id="node2" class="node">
<title>Node2</title>
<g id="a_node2"><a xlink:href="../../db/d1c/classPlayerFileData_ab3108b9b1d65fc2b430be6b875442005.html#ab3108b9b1d65fc2b430be6b875442005" target="_top" xlink:title=" ">
<polygon fill="white" stroke="black" points="406,-114.5 406,-133.5 562,-133.5 562,-114.5 406,-114.5"/>
<text text-anchor="middle" x="484" y="-121.5" font-family="Helvetica,sans-Serif" font-size="10.00">PlayerFileData.MoveToCloud</text>
</a>
</g>
</g>
<!-- Node1&#45;&gt;Node2 -->
<g id="edge1" class="edge">
<title>Node1&#45;&gt;Node2</title>
<path fill="none" stroke="midnightblue" d="M634.76,-80.14C613.9,-87.9 586.61,-97.61 562,-105 550.66,-108.4 538.25,-111.67 526.77,-114.5"/>
<polygon fill="midnightblue" stroke="midnightblue" points="636.02,-83.4 644.15,-76.62 633.56,-76.85 636.02,-83.4"/>
</g>
<!-- Node5 -->
<g id="node5" class="node">
<title>Node5</title>
<g id="a_node5"><a xlink:href="../../d5/d32/classWorldFileData_a342d1595b80135e9814ad5213a16a080.html#a342d1595b80135e9814ad5213a16a080" target="_top" xlink:title=" ">
<polygon fill="white" stroke="black" points="407.5,-38.5 407.5,-57.5 560.5,-57.5 560.5,-38.5 407.5,-38.5"/>
<text text-anchor="middle" x="484" y="-45.5" font-family="Helvetica,sans-Serif" font-size="10.00">WorldFileData.MoveToCloud</text>
</a>
</g>
</g>
<!-- Node1&#45;&gt;Node5 -->
<g id="edge4" class="edge">
<title>Node1&#45;&gt;Node5</title>
<path fill="none" stroke="midnightblue" d="M587.73,-58.61C578.68,-57.67 569.49,-56.72 560.52,-55.8"/>
<polygon fill="midnightblue" stroke="midnightblue" points="587.55,-62.11 597.86,-59.65 588.27,-55.15 587.55,-62.11"/>
</g>
<!-- Node8 -->
<g id="node8" class="node">
<title>Node8</title>
<g id="a_node8"><a xlink:href="../../db/d1c/classPlayerFileData_acd1cb7f6da4a8b7a507907e192cf7d6f.html#acd1cb7f6da4a8b7a507907e192cf7d6f" target="_top" xlink:title=" ">
<polygon fill="white" stroke="black" points="407,-76.5 407,-95.5 561,-95.5 561,-76.5 407,-76.5"/>
<text text-anchor="middle" x="484" y="-83.5" font-family="Helvetica,sans-Serif" font-size="10.00">PlayerFileData.MoveToLocal</text>
</a>
</g>
</g>
<!-- Node1&#45;&gt;Node8 -->
<g id="edge7" class="edge">
<title>Node1&#45;&gt;Node8</title>
<path fill="none" stroke="midnightblue" d="M587.89,-75.38C579,-76.29 569.97,-77.23 561.13,-78.14"/>
<polygon fill="midnightblue" stroke="midnightblue" points="588.27,-78.85 597.86,-74.35 587.55,-71.89 588.27,-78.85"/>
</g>
<!-- Node9 -->
<g id="node9" class="node">
<title>Node9</title>
<g id="a_node9"><a xlink:href="../../d5/d32/classWorldFileData_ac99179ce1a822bb005a39b620681ecd2.html#ac99179ce1a822bb005a39b620681ecd2" target="_top" xlink:title=" ">
<polygon fill="white" stroke="black" points="408.5,-0.5 408.5,-19.5 559.5,-19.5 559.5,-0.5 408.5,-0.5"/>
<text text-anchor="middle" x="484" y="-7.5" font-family="Helvetica,sans-Serif" font-size="10.00">WorldFileData.MoveToLocal</text>
</a>
</g>
</g>
<!-- Node1&#45;&gt;Node9 -->
<g id="edge9" class="edge">
<title>Node1&#45;&gt;Node9</title>
<path fill="none" stroke="midnightblue" d="M634.76,-53.86C613.9,-46.1 586.61,-36.39 562,-29 550.66,-25.6 538.25,-22.33 526.77,-19.5"/>
<polygon fill="midnightblue" stroke="midnightblue" points="633.56,-57.15 644.15,-57.38 636.02,-50.6 633.56,-57.15"/>
</g>
<!-- Node3 -->
<g id="node3" class="node">
<title>Node3</title>
<g id="a_node3"><a xlink:href="../../df/d11/classUICharacterListItem_a0957a18b2550d05ca084b2dcf11d965b.html#a0957a18b2550d05ca084b2dcf11d965b" target="_top" xlink:title=" ">
<polygon fill="white" stroke="black" points="218.5,-83 218.5,-113 363.5,-113 363.5,-83 218.5,-83"/>
<text text-anchor="start" x="226.5" y="-101" font-family="Helvetica,sans-Serif" font-size="10.00">UICharacterListItem.Cloud</text>
<text text-anchor="middle" x="291" y="-90" font-family="Helvetica,sans-Serif" font-size="10.00">ButtonClick</text>
</a>
</g>
</g>
<!-- Node2&#45;&gt;Node3 -->
<g id="edge2" class="edge">
<title>Node2&#45;&gt;Node3</title>
<path fill="none" stroke="midnightblue" d="M402.67,-113.07C389.71,-111.3 376.37,-109.48 363.63,-107.75"/>
<polygon fill="midnightblue" stroke="midnightblue" points="402.58,-116.59 412.96,-114.47 403.53,-109.65 402.58,-116.59"/>
</g>
<!-- Node4 -->
<g id="node4" class="node">
<title>Node4</title>
<g id="a_node4"><a xlink:href="../../df/d11/classUICharacterListItem_ab8d9e1c2f37722ceead06fd55c39993e.html#ab8d9e1c2f37722ceead06fd55c39993e" target="_top" xlink:title=" ">
<polygon fill="white" stroke="black" points="0.5,-83 0.5,-113 175.5,-113 175.5,-83 0.5,-83"/>
<text text-anchor="start" x="8.5" y="-101" font-family="Helvetica,sans-Serif" font-size="10.00">UICharacterListItem.UICharacter</text>
<text text-anchor="middle" x="88" y="-90" font-family="Helvetica,sans-Serif" font-size="10.00">ListItem</text>
</a>
</g>
</g>
<!-- Node3&#45;&gt;Node4 -->
<g id="edge3" class="edge">
<title>Node3&#45;&gt;Node4</title>
<path fill="none" stroke="midnightblue" d="M208.17,-98C197.51,-98 186.56,-98 175.82,-98"/>
<polygon fill="midnightblue" stroke="midnightblue" points="208.29,-101.5 218.29,-98 208.29,-94.5 208.29,-101.5"/>
</g>
<!-- Node6 -->
<g id="node6" class="node">
<title>Node6</title>
<g id="a_node6"><a xlink:href="../../d0/d2c/classUIWorldListItem_a7996a007d2b788e375cb9f330e11437a.html#a7996a007d2b788e375cb9f330e11437a" target="_top" xlink:title=" ">
<polygon fill="white" stroke="black" points="212,-21 212,-51 370,-51 370,-21 212,-21"/>
<text text-anchor="start" x="220" y="-39" font-family="Helvetica,sans-Serif" font-size="10.00">UIWorldListItem.CloudButton</text>
<text text-anchor="middle" x="291" y="-28" font-family="Helvetica,sans-Serif" font-size="10.00">Click</text>
</a>
</g>
</g>
<!-- Node5&#45;&gt;Node6 -->
<g id="edge5" class="edge">
<title>Node5&#45;&gt;Node6</title>
<path fill="none" stroke="midnightblue" d="M397.16,-42.61C388.17,-42.04 379.07,-41.47 370.18,-40.91"/>
<polygon fill="midnightblue" stroke="midnightblue" points="397.04,-46.11 407.24,-43.24 397.48,-39.12 397.04,-46.11"/>
</g>
<!-- Node7 -->
<g id="node7" class="node">
<title>Node7</title>
<g id="a_node7"><a xlink:href="../../d0/d2c/classUIWorldListItem_ab63a51262c1cd2e4471e7d48cf9782ff.html#ab63a51262c1cd2e4471e7d48cf9782ff" target="_top" xlink:title=" ">
<polygon fill="white" stroke="black" points="0,-26.5 0,-45.5 176,-45.5 176,-26.5 0,-26.5"/>
<text text-anchor="middle" x="88" y="-33.5" font-family="Helvetica,sans-Serif" font-size="10.00">UIWorldListItem.UIWorldListItem</text>
</a>
</g>
</g>
<!-- Node6&#45;&gt;Node7 -->
<g id="edge6" class="edge">
<title>Node6&#45;&gt;Node7</title>
<path fill="none" stroke="midnightblue" d="M201.49,-36C193.05,-36 184.5,-36 176.07,-36"/>
<polygon fill="midnightblue" stroke="midnightblue" points="201.71,-39.5 211.71,-36 201.71,-32.5 201.71,-39.5"/>
</g>
<!-- Node8&#45;&gt;Node3 -->
<g id="edge8" class="edge">
<title>Node8&#45;&gt;Node3</title>
<path fill="none" stroke="midnightblue" d="M396.86,-91.41C385.79,-92.11 374.55,-92.81 363.74,-93.49"/>
<polygon fill="midnightblue" stroke="midnightblue" points="397.2,-94.9 406.96,-90.78 396.76,-87.91 397.2,-94.9"/>
</g>
<!-- Node9&#45;&gt;Node6 -->
<g id="edge10" class="edge">
<title>Node9&#45;&gt;Node6</title>
<path fill="none" stroke="midnightblue" d="M403.04,-20.88C392.14,-22.37 380.96,-23.89 370.09,-25.37"/>
<polygon fill="midnightblue" stroke="midnightblue" points="403.53,-24.35 412.96,-19.53 402.58,-17.41 403.53,-24.35"/>
</g>
</g>
</svg>
