<?xml version="1.0" encoding="UTF-8" standalone="no"?>
<!DOCTYPE svg PUBLIC "-//W3C//DTD SVG 1.1//EN"
 "http://www.w3.org/Graphics/SVG/1.1/DTD/svg11.dtd">
<!-- Generated by graphviz version 2.43.0 (0)
 -->
<!-- Title: CaptureInterface.CaptureInterfaceMode Pages: 1 -->
<svg width="165pt" height="237pt"
 viewBox="0.00 0.00 165.00 237.00" xmlns="http://www.w3.org/2000/svg" xmlns:xlink="http://www.w3.org/1999/xlink">
<g id="graph0" class="graph" transform="scale(1 1) rotate(0) translate(4 233)">
<title>CaptureInterface.CaptureInterfaceMode</title>
<polygon fill="white" stroke="transparent" points="-4,4 -4,-233 161,-233 161,4 -4,4"/>
<!-- Node1 -->
<g id="node1" class="node">
<title>Node1</title>
<g id="a_node1"><a xlink:title=" ">
<polygon fill="#bfbfbf" stroke="black" points="0,-0.5 0,-123.5 157,-123.5 157,-0.5 0,-0.5"/>
<text text-anchor="start" x="8" y="-111.5" font-family="Helvetica,sans-Serif" font-size="10.00">CaptureInterface.Capture</text>
<text text-anchor="middle" x="78.5" y="-100.5" font-family="Helvetica,sans-Serif" font-size="10.00">InterfaceMode</text>
<polyline fill="none" stroke="black" points="0,-93.5 157,-93.5 "/>
<text text-anchor="middle" x="78.5" y="-81.5" font-family="Helvetica,sans-Serif" font-size="10.00"> </text>
<polyline fill="none" stroke="black" points="0,-74.5 157,-74.5 "/>
<text text-anchor="start" x="8" y="-62.5" font-family="Helvetica,sans-Serif" font-size="10.00">+ abstract void Update()</text>
<text text-anchor="start" x="8" y="-51.5" font-family="Helvetica,sans-Serif" font-size="10.00">+ abstract void Draw</text>
<text text-anchor="start" x="8" y="-40.5" font-family="Helvetica,sans-Serif" font-size="10.00">(SpriteBatch sb)</text>
<text text-anchor="start" x="8" y="-29.5" font-family="Helvetica,sans-Serif" font-size="10.00">+ abstract void ToggleActive</text>
<text text-anchor="start" x="8" y="-18.5" font-family="Helvetica,sans-Serif" font-size="10.00">(bool tickedOn)</text>
<text text-anchor="start" x="8" y="-7.5" font-family="Helvetica,sans-Serif" font-size="10.00">+ abstract bool UsingMap()</text>
</a>
</g>
</g>
<!-- Node2 -->
<g id="node2" class="node">
<title>Node2</title>
<g id="a_node2"><a xlink:title=" ">
<polygon fill="white" stroke="#bfbfbf" points="59.5,-171.5 59.5,-228.5 97.5,-228.5 97.5,-171.5 59.5,-171.5"/>
<text text-anchor="middle" x="78.5" y="-216.5" font-family="Helvetica,sans-Serif" font-size="10.00">bool</text>
<polyline fill="none" stroke="#bfbfbf" points="59.5,-209.5 97.5,-209.5 "/>
<text text-anchor="middle" x="78.5" y="-197.5" font-family="Helvetica,sans-Serif" font-size="10.00"> </text>
<polyline fill="none" stroke="#bfbfbf" points="59.5,-190.5 97.5,-190.5 "/>
<text text-anchor="middle" x="78.5" y="-178.5" font-family="Helvetica,sans-Serif" font-size="10.00"> </text>
</a>
</g>
</g>
<!-- Node2&#45;&gt;Node1 -->
<g id="edge1" class="edge">
<title>Node2&#45;&gt;Node1</title>
<path fill="none" stroke="#404040" d="M78.5,-171.48C78.5,-161.01 78.5,-148.53 78.5,-135.82"/>
<polygon fill="none" stroke="#404040" points="78.5,-135.62 74.5,-129.62 78.5,-123.62 82.5,-129.62 78.5,-135.62"/>
<text text-anchor="middle" x="105.5" y="-145" font-family="Helvetica,sans-Serif" font-size="10.00"> +Selected</text>
</g>
</g>
</svg>
