<?xml version="1.0" encoding="UTF-8" standalone="no"?>
<!DOCTYPE svg PUBLIC "-//W3C//DTD SVG 1.1//EN"
 "http://www.w3.org/Graphics/SVG/1.1/DTD/svg11.dtd">
<!-- Generated by graphviz version 2.43.0 (0)
 -->
<!-- Title: Terraria.GameContent.UI.Elements.UISearchBar.UISearchBar Pages: 1 -->
<svg width="1052pt" height="233pt"
 viewBox="0.00 0.00 1052.00 232.50" xmlns="http://www.w3.org/2000/svg" xmlns:xlink="http://www.w3.org/1999/xlink">
<g id="graph0" class="graph" transform="scale(1 1) rotate(0) translate(4 228.5)">
<title>Terraria.GameContent.UI.Elements.UISearchBar.UISearchBar</title>
<!-- Node1 -->
<g id="Node000001" class="node">
<title>Node1</title>
<g id="a_Node000001"><a xlink:title=" ">
<polygon fill="#999999" stroke="#666666" points="188,-59.5 0,-59.5 0,-29.5 188,-29.5 188,-59.5"/>
<text text-anchor="start" x="8" y="-47.5" font-family="Helvetica,sans-Serif" font-size="10.00">Terraria.GameContent.UI.</text>
<text text-anchor="middle" x="94" y="-36.5" font-family="Helvetica,sans-Serif" font-size="10.00">Elements.UISearchBar.UISearchBar</text>
</a>
</g>
</g>
<!-- Node2 -->
<g id="Node000002" class="node">
<title>Node2</title>
<g id="a_Node000002"><a xlink:href="../../d7/d72/classTerraria_1_1UI_1_1UIElement_a4f78a3ab59b3dffcdc5b68328a46f103.html#a4f78a3ab59b3dffcdc5b68328a46f103" target="_top" xlink:title=" ">
<polygon fill="white" stroke="#666666" points="392,-78 231,-78 231,-59 392,-59 392,-78"/>
<text text-anchor="middle" x="311.5" y="-66" font-family="Helvetica,sans-Serif" font-size="10.00">Terraria.UI.UIElement.Append</text>
</a>
</g>
</g>
<!-- Node1&#45;&gt;Node2 -->
<g id="edge1_Node000001_Node000002" class="edge">
<title>Node1&#45;&gt;Node2</title>
<g id="a_edge1_Node000001_Node000002"><a xlink:title=" ">
<path fill="none" stroke="#63b8ff" d="M188.27,-54.89C199.04,-56.09 210.02,-57.31 220.74,-58.5"/>
<polygon fill="#63b8ff" stroke="#63b8ff" points="220.61,-62.01 230.94,-59.64 221.39,-55.05 220.61,-62.01"/>
</a>
</g>
</g>
<!-- Node11 -->
<g id="Node000011" class="node">
<title>Node11</title>
<g id="a_Node000011"><a xlink:href="../../d5/dec/classTerraria_1_1GameContent_1_1UI_1_1Elements_1_1UITextBox_a9f51bb5ae599fe17d1fa7dc60a5ef0ad.html#a9f51bb5ae599fe17d1fa7dc60a5ef0ad" target="_top" xlink:title=" ">
<polygon fill="white" stroke="#666666" points="399,-41 224,-41 224,0 399,0 399,-41"/>
<text text-anchor="start" x="232" y="-29" font-family="Helvetica,sans-Serif" font-size="10.00">Terraria.GameContent.UI.</text>
<text text-anchor="start" x="232" y="-18" font-family="Helvetica,sans-Serif" font-size="10.00">Elements.UITextBox.SetTextMax</text>
<text text-anchor="middle" x="311.5" y="-7" font-family="Helvetica,sans-Serif" font-size="10.00">Length</text>
</a>
</g>
</g>
<!-- Node1&#45;&gt;Node11 -->
<g id="edge11_Node000001_Node000011" class="edge">
<title>Node1&#45;&gt;Node11</title>
<g id="a_edge11_Node000001_Node000011"><a xlink:title=" ">
<path fill="none" stroke="#63b8ff" d="M188.27,-34.11C196.77,-33.17 205.4,-32.21 213.93,-31.26"/>
<polygon fill="#63b8ff" stroke="#63b8ff" points="214.33,-34.73 223.89,-30.15 213.56,-27.77 214.33,-34.73"/>
</a>
</g>
</g>
<!-- Node3 -->
<g id="Node000003" class="node">
<title>Node3</title>
<g id="a_Node000003"><a xlink:href="../../d7/d72/classTerraria_1_1UI_1_1UIElement_aa33dca6c66f9820ef270bc2e23ef1496.html#aa33dca6c66f9820ef270bc2e23ef1496" target="_top" xlink:title=" ">
<polygon fill="white" stroke="#666666" points="616,-99 435,-99 435,-80 616,-80 616,-99"/>
<text text-anchor="middle" x="525.5" y="-87" font-family="Helvetica,sans-Serif" font-size="10.00">Terraria.UI.UIElement.Recalculate</text>
</a>
</g>
</g>
<!-- Node2&#45;&gt;Node3 -->
<g id="edge2_Node000002_Node000003" class="edge">
<title>Node2&#45;&gt;Node3</title>
<g id="a_edge2_Node000002_Node000003"><a xlink:title=" ">
<path fill="none" stroke="#63b8ff" d="M392.04,-76.38C402.75,-77.44 413.84,-78.54 424.84,-79.63"/>
<polygon fill="#63b8ff" stroke="#63b8ff" points="424.6,-83.12 434.9,-80.62 425.29,-76.16 424.6,-83.12"/>
</a>
</g>
</g>
<!-- Node9 -->
<g id="Node000009" class="node">
<title>Node9</title>
<g id="a_Node000009"><a xlink:href="../../d7/d72/classTerraria_1_1UI_1_1UIElement_a336d1ad28adbb657010e263b19095502.html#a336d1ad28adbb657010e263b19095502" target="_top" xlink:title=" ">
<polygon fill="white" stroke="#666666" points="607.5,-57 443.5,-57 443.5,-38 607.5,-38 607.5,-57"/>
<text text-anchor="middle" x="525.5" y="-45" font-family="Helvetica,sans-Serif" font-size="10.00">Terraria.UI.UIElement.Remove</text>
</a>
</g>
</g>
<!-- Node2&#45;&gt;Node9 -->
<g id="edge9_Node000002_Node000009" class="edge">
<title>Node2&#45;&gt;Node9</title>
<g id="a_edge9_Node000002_Node000009"><a xlink:title=" ">
<path fill="none" stroke="#63b8ff" d="M392.04,-60.62C405.56,-59.28 419.7,-57.88 433.49,-56.52"/>
<polygon fill="#63b8ff" stroke="#63b8ff" points="433.84,-60 443.45,-55.53 433.15,-53.03 433.84,-60"/>
</a>
</g>
</g>
<!-- Node4 -->
<g id="Node000004" class="node">
<title>Node4</title>
<g id="a_Node000004"><a xlink:href="../../dc/dc4/classTerraria_1_1UI_1_1UserInterface_af1df38079c1c3550e041458b43a9aceb.html#af1df38079c1c3550e041458b43a9aceb" target="_top" xlink:title=" ">
<polygon fill="white" stroke="#666666" points="824.5,-224.5 685.5,-224.5 685.5,-194.5 824.5,-194.5 824.5,-224.5"/>
<text text-anchor="start" x="693.5" y="-212.5" font-family="Helvetica,sans-Serif" font-size="10.00">Terraria.UI.UserInterface.</text>
<text text-anchor="middle" x="755" y="-201.5" font-family="Helvetica,sans-Serif" font-size="10.00">GetDimensions</text>
</a>
</g>
</g>
<!-- Node3&#45;&gt;Node4 -->
<g id="edge3_Node000003_Node000004" class="edge">
<title>Node3&#45;&gt;Node4</title>
<g id="a_edge3_Node000003_Node000004"><a xlink:title=" ">
<path fill="none" stroke="#63b8ff" d="M535.94,-99.06C555.65,-118.45 603.4,-162.5 652,-185.5 659.5,-189.05 667.58,-192.1 675.77,-194.71"/>
<polygon fill="#63b8ff" stroke="#63b8ff" points="674.84,-198.09 685.43,-197.58 676.84,-191.38 674.84,-198.09"/>
</a>
</g>
</g>
<!-- Node5 -->
<g id="Node000005" class="node">
<title>Node5</title>
<g id="a_Node000005"><a xlink:href="../../d7/d72/classTerraria_1_1UI_1_1UIElement_a8cb8692a001e504adb564ae67833de3d.html#a8cb8692a001e504adb564ae67833de3d" target="_top" xlink:title=" ">
<polygon fill="white" stroke="#666666" points="858,-176.5 652,-176.5 652,-146.5 858,-146.5 858,-176.5"/>
<text text-anchor="start" x="660" y="-164.5" font-family="Helvetica,sans-Serif" font-size="10.00">Terraria.UI.UIElement.Get</text>
<text text-anchor="middle" x="755" y="-153.5" font-family="Helvetica,sans-Serif" font-size="10.00">DimensionsBasedOnParentDimensions</text>
</a>
</g>
</g>
<!-- Node3&#45;&gt;Node5 -->
<g id="edge4_Node000003_Node000005" class="edge">
<title>Node3&#45;&gt;Node5</title>
<g id="a_edge4_Node000003_Node000005"><a xlink:title=" ">
<path fill="none" stroke="#63b8ff" d="M548.85,-99.1C573.71,-109.52 615.21,-126.19 652,-137.5 659.34,-139.75 667.02,-141.92 674.75,-143.96"/>
<polygon fill="#63b8ff" stroke="#63b8ff" points="673.97,-147.37 684.53,-146.48 675.72,-140.59 673.97,-147.37"/>
</a>
</g>
</g>
<!-- Node7 -->
<g id="Node000007" class="node">
<title>Node7</title>
<g id="a_Node000007"><a xlink:href="../../d7/d72/classTerraria_1_1UI_1_1UIElement_a5ad03f5ce0e776511a3b7e4a29e16caf.html#a5ad03f5ce0e776511a3b7e4a29e16caf" target="_top" xlink:title=" ">
<polygon fill="white" stroke="#666666" points="825.5,-128.5 684.5,-128.5 684.5,-98.5 825.5,-98.5 825.5,-128.5"/>
<text text-anchor="start" x="692.5" y="-116.5" font-family="Helvetica,sans-Serif" font-size="10.00">Terraria.UI.UIElement.Get</text>
<text text-anchor="middle" x="755" y="-105.5" font-family="Helvetica,sans-Serif" font-size="10.00">InnerDimensions</text>
</a>
</g>
</g>
<!-- Node3&#45;&gt;Node7 -->
<g id="edge6_Node000003_Node000007" class="edge">
<title>Node3&#45;&gt;Node7</title>
<g id="a_edge6_Node000003_Node000007"><a xlink:title=" ">
<path fill="none" stroke="#63b8ff" d="M616.09,-98.95C635.27,-100.97 655.41,-103.1 674.2,-105.08"/>
<polygon fill="#63b8ff" stroke="#63b8ff" points="673.87,-108.57 684.18,-106.13 674.6,-101.6 673.87,-108.57"/>
</a>
</g>
</g>
<!-- Node8 -->
<g id="Node000008" class="node">
<title>Node8</title>
<g id="a_Node000008"><a xlink:href="../../d7/d72/classTerraria_1_1UI_1_1UIElement_a8bf52a8c33b045d1df8dbcc96bcbc818.html#a8bf52a8c33b045d1df8dbcc96bcbc818" target="_top" xlink:title=" ">
<polygon fill="white" stroke="#666666" points="845.5,-80.5 664.5,-80.5 664.5,-50.5 845.5,-50.5 845.5,-80.5"/>
<text text-anchor="start" x="672.5" y="-68.5" font-family="Helvetica,sans-Serif" font-size="10.00">Terraria.UI.UIElement.Recalculate</text>
<text text-anchor="middle" x="755" y="-57.5" font-family="Helvetica,sans-Serif" font-size="10.00">Children</text>
</a>
</g>
</g>
<!-- Node3&#45;&gt;Node8 -->
<g id="edge7_Node000003_Node000008" class="edge">
<title>Node3&#45;&gt;Node8</title>
<g id="a_edge7_Node000003_Node000008"><a xlink:title=" ">
<path fill="none" stroke="#63b8ff" d="M566.65,-79.97C591.05,-76.25 623.37,-72.37 654.29,-69.31"/>
<polygon fill="#63b8ff" stroke="#63b8ff" points="654.65,-72.8 664.26,-68.35 653.97,-65.83 654.65,-72.8"/>
</a>
</g>
</g>
<!-- Node6 -->
<g id="Node000006" class="node">
<title>Node6</title>
<g id="a_Node000006"><a xlink:href="../../d8/d74/structTerraria_1_1UI_1_1StyleDimension_acffa4ba4c6fbf99b983c8c59f17cc855.html#acffa4ba4c6fbf99b983c8c59f17cc855" target="_top" xlink:title=" ">
<polygon fill="white" stroke="#666666" points="1044,-176.5 894,-176.5 894,-146.5 1044,-146.5 1044,-176.5"/>
<text text-anchor="start" x="902" y="-164.5" font-family="Helvetica,sans-Serif" font-size="10.00">Terraria.UI.StyleDimension.</text>
<text text-anchor="middle" x="969" y="-153.5" font-family="Helvetica,sans-Serif" font-size="10.00">GetValue</text>
</a>
</g>
</g>
<!-- Node5&#45;&gt;Node6 -->
<g id="edge5_Node000005_Node000006" class="edge">
<title>Node5&#45;&gt;Node6</title>
<g id="a_edge5_Node000005_Node000006"><a xlink:title=" ">
<path fill="none" stroke="#63b8ff" d="M858.27,-161.5C866.78,-161.5 875.32,-161.5 883.67,-161.5"/>
<polygon fill="#63b8ff" stroke="#63b8ff" points="883.75,-165 893.75,-161.5 883.75,-158 883.75,-165"/>
</a>
</g>
</g>
<!-- Node8&#45;&gt;Node3 -->
<g id="edge8_Node000008_Node000003" class="edge">
<title>Node8&#45;&gt;Node3</title>
<g id="a_edge8_Node000008_Node000003"><a xlink:title=" ">
<path fill="none" stroke="#63b8ff" d="M673,-80.54C657.87,-82.38 641.9,-84.13 626.29,-85.68"/>
<polygon fill="#63b8ff" stroke="#63b8ff" points="625.71,-82.22 616.09,-86.66 626.38,-89.19 625.71,-82.22"/>
</a>
</g>
</g>
<!-- Node10 -->
<g id="Node000010" class="node">
<title>Node10</title>
<g id="a_Node000010"><a xlink:href="../../d7/d72/classTerraria_1_1UI_1_1UIElement_ac407afd27d2b68e6c175951c22e263b5.html#ac407afd27d2b68e6c175951c22e263b5" target="_top" xlink:title=" ">
<polygon fill="white" stroke="#666666" points="837,-32.5 673,-32.5 673,-2.5 837,-2.5 837,-32.5"/>
<text text-anchor="start" x="681" y="-20.5" font-family="Helvetica,sans-Serif" font-size="10.00">Terraria.UI.UIElement.Remove</text>
<text text-anchor="middle" x="755" y="-9.5" font-family="Helvetica,sans-Serif" font-size="10.00">Child</text>
</a>
</g>
</g>
<!-- Node9&#45;&gt;Node10 -->
<g id="edge10_Node000009_Node000010" class="edge">
<title>Node9&#45;&gt;Node10</title>
<g id="a_edge10_Node000009_Node000010"><a xlink:title=" ">
<path fill="none" stroke="#63b8ff" d="M598.8,-37.97C619.12,-35.29 641.5,-32.33 662.78,-29.53"/>
<polygon fill="#63b8ff" stroke="#63b8ff" points="663.34,-32.99 672.8,-28.21 662.43,-26.05 663.34,-32.99"/>
</a>
</g>
</g>
</g>
</svg>
