<?xml version="1.0" encoding="UTF-8" standalone="no"?>
<!DOCTYPE svg PUBLIC "-//W3C//DTD SVG 1.1//EN"
 "http://www.w3.org/Graphics/SVG/1.1/DTD/svg11.dtd">
<!-- Generated by graphviz version 2.43.0 (0)
 -->
<!-- Title: MessageDispatcherServer.Init Pages: 1 -->
<svg width="516pt" height="127pt"
 viewBox="0.00 0.00 516.00 126.50" xmlns="http://www.w3.org/2000/svg" xmlns:xlink="http://www.w3.org/1999/xlink">
<g id="graph0" class="graph" transform="scale(1 1) rotate(0) translate(4 122.5)">
<title>MessageDispatcherServer.Init</title>
<polygon fill="white" stroke="transparent" points="-4,4 -4,-122.5 512,-122.5 512,4 -4,4"/>
<!-- Node1 -->
<g id="node1" class="node">
<title>Node1</title>
<g id="a_node1"><a xlink:title=" ">
<polygon fill="#bfbfbf" stroke="black" points="0,-55 0,-74 162,-74 162,-55 0,-55"/>
<text text-anchor="middle" x="81" y="-62" font-family="Helvetica,sans-Serif" font-size="10.00">MessageDispatcherServer.Init</text>
</a>
</g>
</g>
<!-- Node2 -->
<g id="node2" class="node">
<title>Node2</title>
<g id="a_node2"><a xlink:href="../../dc/daa/classIPCServer_a301b41e1ffa9eb833c5c0166aa7f58e8.html#a301b41e1ffa9eb833c5c0166aa7f58e8" target="_top" xlink:title=" ">
<polygon fill="white" stroke="black" points="230,-99 230,-118 312,-118 312,-99 230,-99"/>
<text text-anchor="middle" x="271" y="-106" font-family="Helvetica,sans-Serif" font-size="10.00">IPCServer.Init</text>
</a>
</g>
</g>
<!-- Node1&#45;&gt;Node2 -->
<g id="edge1" class="edge">
<title>Node1&#45;&gt;Node2</title>
<path fill="none" stroke="midnightblue" d="M122.79,-74.05C151.32,-80.72 189.59,-89.68 219.96,-96.79"/>
<polygon fill="midnightblue" stroke="midnightblue" points="219.4,-100.25 229.93,-99.12 220.99,-93.44 219.4,-100.25"/>
</g>
<!-- Node3 -->
<g id="node3" class="node">
<title>Node3</title>
<g id="a_node3"><a xlink:href="../../dd/def/classMessageDispatcherServer_ae3c84422a1f8c7ccda2b667deba6d660.html#ae3c84422a1f8c7ccda2b667deba6d660" target="_top" xlink:title=" ">
<polygon fill="white" stroke="black" points="198,-49.5 198,-79.5 344,-79.5 344,-49.5 198,-49.5"/>
<text text-anchor="start" x="206" y="-67.5" font-family="Helvetica,sans-Serif" font-size="10.00">MessageDispatcherServer.</text>
<text text-anchor="middle" x="271" y="-56.5" font-family="Helvetica,sans-Serif" font-size="10.00">OnClientAccess</text>
</a>
</g>
</g>
<!-- Node1&#45;&gt;Node3 -->
<g id="edge2" class="edge">
<title>Node1&#45;&gt;Node3</title>
<path fill="none" stroke="midnightblue" d="M162,-64.5C170.46,-64.5 179.07,-64.5 187.55,-64.5"/>
<polygon fill="midnightblue" stroke="midnightblue" points="187.81,-68 197.81,-64.5 187.81,-61 187.81,-68"/>
</g>
<!-- Node4 -->
<g id="node4" class="node">
<title>Node4</title>
<g id="a_node4"><a xlink:href="../../dd/def/classMessageDispatcherServer_aa5ebec0846f905cde5e1f85f5a31014a.html#aa5ebec0846f905cde5e1f85f5a31014a" target="_top" xlink:title=" ">
<polygon fill="white" stroke="black" points="198,-0.5 198,-30.5 344,-30.5 344,-0.5 198,-0.5"/>
<text text-anchor="start" x="206" y="-18.5" font-family="Helvetica,sans-Serif" font-size="10.00">MessageDispatcherServer.</text>
<text text-anchor="middle" x="271" y="-7.5" font-family="Helvetica,sans-Serif" font-size="10.00">OnDataArrive</text>
</a>
</g>
</g>
<!-- Node1&#45;&gt;Node4 -->
<g id="edge3" class="edge">
<title>Node1&#45;&gt;Node4</title>
<path fill="none" stroke="midnightblue" d="M118.69,-54.94C142.5,-48.73 174.22,-40.46 202.48,-33.1"/>
<polygon fill="midnightblue" stroke="midnightblue" points="203.51,-36.45 212.31,-30.54 201.75,-29.67 203.51,-36.45"/>
</g>
<!-- Node5 -->
<g id="node5" class="node">
<title>Node5</title>
<g id="a_node5"><a xlink:href="../../d3/d16/classIPCMessage_ae1bc83e9c88391334459b53a3be875e1.html#ae1bc83e9c88391334459b53a3be875e1" target="_top" xlink:title=" ">
<polygon fill="white" stroke="black" points="380,-6 380,-25 508,-25 508,-6 380,-6"/>
<text text-anchor="middle" x="444" y="-13" font-family="Helvetica,sans-Serif" font-size="10.00">IPCMessage.BuildFrom</text>
</a>
</g>
</g>
<!-- Node4&#45;&gt;Node5 -->
<g id="edge4" class="edge">
<title>Node4&#45;&gt;Node5</title>
<path fill="none" stroke="midnightblue" d="M344.02,-15.5C352.46,-15.5 361.08,-15.5 369.53,-15.5"/>
<polygon fill="midnightblue" stroke="midnightblue" points="369.74,-19 379.74,-15.5 369.74,-12 369.74,-19"/>
</g>
</g>
</svg>
