<?xml version="1.0" encoding="UTF-8" standalone="no"?>
<!DOCTYPE svg PUBLIC "-//W3C//DTD SVG 1.1//EN"
 "http://www.w3.org/Graphics/SVG/1.1/DTD/svg11.dtd">
<!-- Generated by graphviz version 2.43.0 (0)
 -->
<!-- Title: NetSocialModule.StartListening Pages: 1 -->
<svg width="1428pt" height="86pt"
 viewBox="0.00 0.00 1428.00 86.00" xmlns="http://www.w3.org/2000/svg" xmlns:xlink="http://www.w3.org/1999/xlink">
<g id="graph0" class="graph" transform="scale(1 1) rotate(0) translate(4 82)">
<title>NetSocialModule.StartListening</title>
<polygon fill="white" stroke="transparent" points="-4,4 -4,-82 1424,-82 1424,4 -4,4"/>
<!-- Node1 -->
<g id="node1" class="node">
<title>Node1</title>
<g id="a_node1"><a xlink:title=" ">
<polygon fill="#bfbfbf" stroke="black" points="1250,-19.5 1250,-38.5 1420,-38.5 1420,-19.5 1250,-19.5"/>
<text text-anchor="middle" x="1335" y="-26.5" font-family="Helvetica,sans-Serif" font-size="10.00">NetSocialModule.StartListening</text>
</a>
</g>
</g>
<!-- Node2 -->
<g id="node2" class="node">
<title>Node2</title>
<g id="a_node2"><a xlink:href="../../d9/d43/classNetplay_aed448a6962842d5bf53e44a61b442bc7.html#aed448a6962842d5bf53e44a61b442bc7" target="_top" xlink:title=" ">
<polygon fill="white" stroke="black" points="1077.5,-38.5 1077.5,-57.5 1201.5,-57.5 1201.5,-38.5 1077.5,-38.5"/>
<text text-anchor="middle" x="1139.5" y="-45.5" font-family="Helvetica,sans-Serif" font-size="10.00">Netplay.StartListening</text>
</a>
</g>
</g>
<!-- Node1&#45;&gt;Node2 -->
<g id="edge1" class="edge">
<title>Node1&#45;&gt;Node2</title>
<path fill="none" stroke="midnightblue" d="M1239.66,-38.26C1226.77,-39.53 1213.82,-40.8 1201.73,-41.99"/>
<polygon fill="midnightblue" stroke="midnightblue" points="1240.36,-41.71 1249.97,-37.25 1239.68,-34.74 1240.36,-41.71"/>
</g>
<!-- Node11 -->
<g id="node11" class="node">
<title>Node11</title>
<g id="a_node11"><a xlink:href="../../d8/d4d/classSocialSocket_a57abd86bd8b9b7aae509fe315cac0b3e.html#a57abd86bd8b9b7aae509fe315cac0b3e" target="_top" xlink:title=" ">
<polygon fill="white" stroke="black" points="1065,-0.5 1065,-19.5 1214,-19.5 1214,-0.5 1065,-0.5"/>
<text text-anchor="middle" x="1139.5" y="-7.5" font-family="Helvetica,sans-Serif" font-size="10.00">SocialSocket.StartListening</text>
</a>
</g>
</g>
<!-- Node1&#45;&gt;Node11 -->
<g id="edge11" class="edge">
<title>Node1&#45;&gt;Node11</title>
<path fill="none" stroke="midnightblue" d="M1239.86,-19.76C1231.22,-18.91 1222.55,-18.06 1214.13,-17.23"/>
<polygon fill="midnightblue" stroke="midnightblue" points="1239.68,-23.26 1249.97,-20.75 1240.36,-16.29 1239.68,-23.26"/>
</g>
<!-- Node3 -->
<g id="node3" class="node">
<title>Node3</title>
<g id="a_node3"><a xlink:href="../../d9/d43/classNetplay_a082aac8a47a0743dfa682c1101797f63.html#a082aac8a47a0743dfa682c1101797f63" target="_top" xlink:title=" ">
<polygon fill="white" stroke="black" points="732,-58.5 732,-77.5 862,-77.5 862,-58.5 732,-58.5"/>
<text text-anchor="middle" x="797" y="-65.5" font-family="Helvetica,sans-Serif" font-size="10.00">Netplay.InitializeServer</text>
</a>
</g>
</g>
<!-- Node2&#45;&gt;Node3 -->
<g id="edge2" class="edge">
<title>Node2&#45;&gt;Node3</title>
<path fill="none" stroke="midnightblue" d="M1067,-52.2C1006.5,-55.75 920.58,-60.8 862.25,-64.23"/>
<polygon fill="midnightblue" stroke="midnightblue" points="1067.45,-55.68 1077.23,-51.6 1067.04,-48.69 1067.45,-55.68"/>
</g>
<!-- Node9 -->
<g id="node9" class="node">
<title>Node9</title>
<g id="a_node9"><a xlink:href="../../d9/d43/classNetplay_abd2ef037dcf88033d3512f02cc2ffef3.html#abd2ef037dcf88033d3512f02cc2ffef3" target="_top" xlink:title=" ">
<polygon fill="white" stroke="black" points="898,-11 898,-41 1029,-41 1029,-11 898,-11"/>
<text text-anchor="start" x="906" y="-29" font-family="Helvetica,sans-Serif" font-size="10.00">Netplay.StartListeningIf</text>
<text text-anchor="middle" x="963.5" y="-18" font-family="Helvetica,sans-Serif" font-size="10.00">Needed</text>
</a>
</g>
</g>
<!-- Node2&#45;&gt;Node9 -->
<g id="edge8" class="edge">
<title>Node2&#45;&gt;Node9</title>
<path fill="none" stroke="midnightblue" d="M1067.17,-38.98C1054.57,-37.39 1041.52,-35.74 1029.12,-34.17"/>
<polygon fill="midnightblue" stroke="midnightblue" points="1066.79,-42.46 1077.15,-40.24 1067.67,-35.52 1066.79,-42.46"/>
</g>
<!-- Node4 -->
<g id="node4" class="node">
<title>Node4</title>
<g id="a_node4"><a xlink:href="../../d9/d43/classNetplay_a590524b73a6968cac18b03c516460f1e.html#a590524b73a6968cac18b03c516460f1e" target="_top" xlink:title=" ">
<polygon fill="white" stroke="black" points="585,-38.5 585,-57.5 696,-57.5 696,-38.5 585,-38.5"/>
<text text-anchor="middle" x="640.5" y="-45.5" font-family="Helvetica,sans-Serif" font-size="10.00">Netplay.StartServer</text>
</a>
</g>
</g>
<!-- Node3&#45;&gt;Node4 -->
<g id="edge3" class="edge">
<title>Node3&#45;&gt;Node4</title>
<path fill="none" stroke="midnightblue" d="M721.81,-58.4C713.25,-57.29 704.63,-56.17 696.39,-55.11"/>
<polygon fill="midnightblue" stroke="midnightblue" points="721.45,-61.88 731.82,-59.69 722.35,-54.94 721.45,-61.88"/>
</g>
<!-- Node5 -->
<g id="node5" class="node">
<title>Node5</title>
<g id="a_node5"><a xlink:href="../../db/d4a/classMain_aa0692b82ef0f39d28df7aae89daa2480.html#aa0692b82ef0f39d28df7aae89daa2480" target="_top" xlink:title=" ">
<polygon fill="white" stroke="black" points="464,-38.5 464,-57.5 549,-57.5 549,-38.5 464,-38.5"/>
<text text-anchor="middle" x="506.5" y="-45.5" font-family="Helvetica,sans-Serif" font-size="10.00">Main.DedServ</text>
</a>
</g>
</g>
<!-- Node4&#45;&gt;Node5 -->
<g id="edge4" class="edge">
<title>Node4&#45;&gt;Node5</title>
<path fill="none" stroke="midnightblue" d="M574.54,-48C565.88,-48 557.19,-48 549.08,-48"/>
<polygon fill="midnightblue" stroke="midnightblue" points="574.67,-51.5 584.67,-48 574.67,-44.5 574.67,-51.5"/>
</g>
<!-- Node6 -->
<g id="node6" class="node">
<title>Node6</title>
<g id="a_node6"><a xlink:href="../../dc/db5/classProgram_a7046fff16d913c8ea7291c3efa4cb4ed.html#a7046fff16d913c8ea7291c3efa4cb4ed" target="_top" xlink:title=" ">
<polygon fill="white" stroke="black" points="319,-38.5 319,-57.5 428,-57.5 428,-38.5 319,-38.5"/>
<text text-anchor="middle" x="373.5" y="-45.5" font-family="Helvetica,sans-Serif" font-size="10.00">Program.RunGame</text>
</a>
</g>
</g>
<!-- Node5&#45;&gt;Node6 -->
<g id="edge5" class="edge">
<title>Node5&#45;&gt;Node6</title>
<path fill="none" stroke="midnightblue" d="M453.44,-48C445.2,-48 436.65,-48 428.37,-48"/>
<polygon fill="midnightblue" stroke="midnightblue" points="453.69,-51.5 463.69,-48 453.69,-44.5 453.69,-51.5"/>
</g>
<!-- Node7 -->
<g id="node7" class="node">
<title>Node7</title>
<g id="a_node7"><a xlink:href="../../dc/db5/classProgram_ac64eaca42975d2a403f25794697886fc.html#ac64eaca42975d2a403f25794697886fc" target="_top" xlink:title=" ">
<polygon fill="white" stroke="black" points="158,-38.5 158,-57.5 283,-57.5 283,-38.5 158,-38.5"/>
<text text-anchor="middle" x="220.5" y="-45.5" font-family="Helvetica,sans-Serif" font-size="10.00">Program.LaunchGame</text>
</a>
</g>
</g>
<!-- Node6&#45;&gt;Node7 -->
<g id="edge6" class="edge">
<title>Node6&#45;&gt;Node7</title>
<path fill="none" stroke="midnightblue" d="M308.68,-48C300.25,-48 291.62,-48 283.23,-48"/>
<polygon fill="midnightblue" stroke="midnightblue" points="308.84,-51.5 318.84,-48 308.84,-44.5 308.84,-51.5"/>
</g>
<!-- Node8 -->
<g id="node8" class="node">
<title>Node8</title>
<g id="a_node8"><a xlink:href="../../df/d9e/classWindowsLaunch_a48fb8633919b7d48cc10a62bd116902a.html#a48fb8633919b7d48cc10a62bd116902a" target="_top" xlink:title=" ">
<polygon fill="white" stroke="black" points="0,-38.5 0,-57.5 122,-57.5 122,-38.5 0,-38.5"/>
<text text-anchor="middle" x="61" y="-45.5" font-family="Helvetica,sans-Serif" font-size="10.00">WindowsLaunch.Main</text>
</a>
</g>
</g>
<!-- Node7&#45;&gt;Node8 -->
<g id="edge7" class="edge">
<title>Node7&#45;&gt;Node8</title>
<path fill="none" stroke="midnightblue" d="M147.43,-48C138.95,-48 130.36,-48 122.07,-48"/>
<polygon fill="midnightblue" stroke="midnightblue" points="147.7,-51.5 157.7,-48 147.7,-44.5 147.7,-51.5"/>
</g>
<!-- Node10 -->
<g id="node10" class="node">
<title>Node10</title>
<g id="a_node10"><a xlink:href="../../d9/d43/classNetplay_a9bf1b625d1ef8c04b06a097383b29f4f.html#a9bf1b625d1ef8c04b06a097383b29f4f" target="_top" xlink:title=" ">
<polygon fill="white" stroke="black" points="741.5,-19.5 741.5,-38.5 852.5,-38.5 852.5,-19.5 741.5,-19.5"/>
<text text-anchor="middle" x="797" y="-26.5" font-family="Helvetica,sans-Serif" font-size="10.00">Netplay.ServerLoop</text>
</a>
</g>
</g>
<!-- Node9&#45;&gt;Node10 -->
<g id="edge9" class="edge">
<title>Node9&#45;&gt;Node10</title>
<path fill="none" stroke="midnightblue" d="M887.64,-27.37C875.81,-27.58 863.77,-27.8 852.52,-28.01"/>
<polygon fill="midnightblue" stroke="midnightblue" points="888.02,-30.86 897.96,-27.18 887.9,-23.86 888.02,-30.86"/>
</g>
<!-- Node10&#45;&gt;Node4 -->
<g id="edge10" class="edge">
<title>Node10&#45;&gt;Node4</title>
<path fill="none" stroke="midnightblue" d="M731.04,-36.99C719.45,-38.41 707.49,-39.88 696.23,-41.27"/>
<polygon fill="midnightblue" stroke="midnightblue" points="731.6,-40.45 741.09,-35.75 730.74,-33.5 731.6,-40.45"/>
</g>
</g>
</svg>
