<?xml version="1.0" encoding="UTF-8" standalone="no"?>
<!DOCTYPE svg PUBLIC "-//W3C//DTD SVG 1.1//EN"
 "http://www.w3.org/Graphics/SVG/1.1/DTD/svg11.dtd">
<!-- Generated by graphviz version 2.43.0 (0)
 -->
<!-- Title: Terraria.GameInput.PlayerInput.SetZoom_Context Pages: 1 -->
<!--zoomable 220 -->

<svg id="main" version="1.1" xmlns="http://www.w3.org/2000/svg" xmlns:xlink="http://www.w3.org/1999/xlink" xml:space="preserve" onload="init(evt)">
<style type="text/css"><![CDATA[
.node, .edge {opacity: 0.7;}
.node.selected, .edge.selected {opacity: 1;}
.edge:hover path { stroke: red; }
.edge:hover polygon { stroke: red; fill: red; }
]]></style>

<defs>
  <circle id="rim" cx="0" cy="0" r="7"/>
  <circle id="rim2" cx="0" cy="0" r="3.5"/>
  <g id="zoomPlus">
    <use xlink:href="#rim" fill="#404040"><set attributeName="fill" to="#808080" begin="zoomplus.mouseover" end="zoomplus.mouseout"/></use>
    <path d="M-4,0h8M0,-4v8" fill="none" stroke="white" stroke-width="1.5" pointer-events="none"/>
  </g>
  <g id="zoomMin">
    <use xlink:href="#rim" fill="#404040"><set attributeName="fill" to="#808080" begin="zoomminus.mouseover" end="zoomminus.mouseout"/></use>
    <path d="M-4,0h8" fill="none" stroke="white" stroke-width="1.5" pointer-events="none"/>
  </g>
  <g id="arrowUp" transform="translate(30 24)">
    <use xlink:href="#rim"/>
    <path pointer-events="none" fill="none" stroke="white" stroke-width="1.5" d="M0,-3.0v7 M-2.5,-0.5L0,-3.0L2.5,-0.5"/>
  </g>
  <g id="arrowRight" transform="rotate(90) translate(36 -43)">
    <use xlink:href="#rim"/>
    <path pointer-events="none" fill="none" stroke="white" stroke-width="1.5" d="M0,-3.0v7 M-2.5,-0.5L0,-3.0L2.5,-0.5"/>
  </g>
  <g id="arrowDown" transform="rotate(180) translate(-30 -48)">
    <use xlink:href="#rim"/>
    <path pointer-events="none" fill="none" stroke="white" stroke-width="1.5" d="M0,-3.0v7 M-2.5,-0.5L0,-3.0L2.5,-0.5"/>
  </g>
  <g id="arrowLeft" transform="rotate(270) translate(-36 17)">
    <use xlink:href="#rim"/>
    <path pointer-events="none" fill="none" stroke="white" stroke-width="1.5" d="M0,-3.0v7 M-2.5,-0.5L0,-3.0L2.5,-0.5"/>
  </g>
  <g id="resetDef">
    <use xlink:href="#rim2" fill="#404040"><set attributeName="fill" to="#808080" begin="reset.mouseover" end="reset.mouseout"/></use>
  </g>
</defs>
<script type="application/ecmascript">
var viewWidth = 560;
var viewHeight = 220;
var sectionId = 'dynsection-0';
</script>
<script type="application/ecmascript" xlink:href="../../svg.min.js"/>
<svg id="graph" class="graph">
<g id="viewport">
<title>Terraria.GameInput.PlayerInput.SetZoom_Context</title>
<!-- Node1 -->
<g id="Node000001" class="node">
<title>Node1</title>
<g id="a_Node000001"><a xlink:title=" ">
<polygon fill="#999999" stroke="#666666" points="144,-126 0,-126 0,-96 144,-96 144,-126"/>
<text text-anchor="start" x="8" y="-114" font-family="Helvetica,sans-Serif" font-size="10.00">Terraria.GameInput.Player</text>
<text text-anchor="middle" x="72" y="-103" font-family="Helvetica,sans-Serif" font-size="10.00">Input.SetZoom_Context</text>
</a>
</g>
</g>
<!-- Node2 -->
<g id="Node000002" class="node">
<title>Node2</title>
<g id="a_Node000002"><a xlink:href="../../da/dd5/classTerraria_1_1Main_a32e881e883ec155ed889ad81f6fa4b33.html#a32e881e883ec155ed889ad81f6fa4b33" target="_top" xlink:title=" ">
<polygon fill="white" stroke="#666666" points="353,-212 180,-212 180,-182 353,-182 353,-212"/>
<text text-anchor="start" x="188" y="-200" font-family="Helvetica,sans-Serif" font-size="10.00">Terraria.Main.SetRecommended</text>
<text text-anchor="middle" x="266.5" y="-189" font-family="Helvetica,sans-Serif" font-size="10.00">ZoomContext</text>
</a>
</g>
</g>
<!-- Node1&#45;&gt;Node2 -->
<g id="edge1_Node000001_Node000002" class="edge">
<title>Node1&#45;&gt;Node2</title>
<g id="a_edge1_Node000001_Node000002"><a xlink:title=" ">
<path fill="none" stroke="#63b8ff" d="M98.37,-126.02C119.69,-138.28 151.22,-155.55 180,-168 188.65,-171.74 197.95,-175.32 207.12,-178.62"/>
<polygon fill="#63b8ff" stroke="#63b8ff" points="206,-181.93 216.6,-181.94 208.32,-175.33 206,-181.93"/>
</a>
</g>
</g>
<!-- Node3 -->
<g id="Node000003" class="node">
<title>Node3</title>
<g id="a_Node000003"><a xlink:href="../../df/d5b/classTerraria_1_1GameInput_1_1PlayerInput_a2c096bd8c30c656354a27eeb9ed14880.html#a2c096bd8c30c656354a27eeb9ed14880" target="_top" xlink:title=" ">
<polygon fill="white" stroke="#666666" points="552,-147 389,-147 389,-117 552,-117 552,-147"/>
<text text-anchor="start" x="397" y="-135" font-family="Helvetica,sans-Serif" font-size="10.00">Terraria.GameInput.Player</text>
<text text-anchor="middle" x="470.5" y="-124" font-family="Helvetica,sans-Serif" font-size="10.00">Input.SetZoom_MouseInWorld</text>
</a>
</g>
</g>
<!-- Node1&#45;&gt;Node3 -->
<g id="edge2_Node000001_Node000003" class="edge">
<title>Node1&#45;&gt;Node3</title>
<g id="a_edge2_Node000001_Node000003"><a xlink:title=" ">
<path fill="none" stroke="#63b8ff" d="M129.25,-126.06C145.5,-129.74 163.35,-133.16 180,-135 246.21,-142.33 321.47,-141.27 378.65,-138.54"/>
<polygon fill="#63b8ff" stroke="#63b8ff" points="378.94,-142.03 388.75,-138.03 378.59,-135.04 378.94,-142.03"/>
</a>
</g>
</g>
<!-- Node4 -->
<g id="Node000004" class="node">
<title>Node4</title>
<g id="a_Node000004"><a xlink:href="../../df/d5b/classTerraria_1_1GameInput_1_1PlayerInput_a7fb37b293016b583adab571eafb1bb4d.html#a7fb37b293016b583adab571eafb1bb4d" target="_top" xlink:title=" ">
<polygon fill="white" stroke="#666666" points="338.5,-30 194.5,-30 194.5,0 338.5,0 338.5,-30"/>
<text text-anchor="start" x="202.5" y="-18" font-family="Helvetica,sans-Serif" font-size="10.00">Terraria.GameInput.Player</text>
<text text-anchor="middle" x="266.5" y="-7" font-family="Helvetica,sans-Serif" font-size="10.00">Input.SetZoom_UI</text>
</a>
</g>
</g>
<!-- Node1&#45;&gt;Node4 -->
<g id="edge3_Node000001_Node000004" class="edge">
<title>Node1&#45;&gt;Node4</title>
<g id="a_edge3_Node000001_Node000004"><a xlink:title=" ">
<path fill="none" stroke="#63b8ff" d="M91.61,-95.76C112.13,-79.62 146.67,-54.41 180,-39 184.32,-37 188.84,-35.14 193.46,-33.4"/>
<polygon fill="#63b8ff" stroke="#63b8ff" points="194.75,-36.66 203.01,-30.02 192.42,-30.06 194.75,-36.66"/>
</a>
</g>
</g>
<!-- Node6 -->
<g id="Node000006" class="node">
<title>Node6</title>
<g id="a_Node000006"><a xlink:href="../../df/d5b/classTerraria_1_1GameInput_1_1PlayerInput_a2baa5e0ae21777fd01f77844e2881436.html#a2baa5e0ae21777fd01f77844e2881436" target="_top" xlink:title=" ">
<polygon fill="white" stroke="#666666" points="338.5,-78 194.5,-78 194.5,-48 338.5,-48 338.5,-78"/>
<text text-anchor="start" x="202.5" y="-66" font-family="Helvetica,sans-Serif" font-size="10.00">Terraria.GameInput.Player</text>
<text text-anchor="middle" x="266.5" y="-55" font-family="Helvetica,sans-Serif" font-size="10.00">Input.SetZoom_Unscaled</text>
</a>
</g>
</g>
<!-- Node1&#45;&gt;Node6 -->
<g id="edge5_Node000001_Node000006" class="edge">
<title>Node1&#45;&gt;Node6</title>
<g id="a_edge5_Node000001_Node000006"><a xlink:title=" ">
<path fill="none" stroke="#63b8ff" d="M133.38,-95.94C153.09,-91.03 175.14,-85.53 195.5,-80.46"/>
<polygon fill="#63b8ff" stroke="#63b8ff" points="196.48,-83.82 205.33,-78 194.78,-77.03 196.48,-83.82"/>
</a>
</g>
</g>
<!-- Node7 -->
<g id="Node000007" class="node">
<title>Node7</title>
<g id="a_Node000007"><a xlink:href="../../df/d5b/classTerraria_1_1GameInput_1_1PlayerInput_a0a622742606259a1c3dad9a4f1b6fe23.html#a0a622742606259a1c3dad9a4f1b6fe23" target="_top" xlink:title=" ">
<polygon fill="white" stroke="#666666" points="338.5,-126 194.5,-126 194.5,-96 338.5,-96 338.5,-126"/>
<text text-anchor="start" x="202.5" y="-114" font-family="Helvetica,sans-Serif" font-size="10.00">Terraria.GameInput.Player</text>
<text text-anchor="middle" x="266.5" y="-103" font-family="Helvetica,sans-Serif" font-size="10.00">Input.SetZoom_World</text>
</a>
</g>
</g>
<!-- Node1&#45;&gt;Node7 -->
<g id="edge6_Node000001_Node000007" class="edge">
<title>Node1&#45;&gt;Node7</title>
<g id="a_edge6_Node000001_Node000007"><a xlink:title=" ">
<path fill="none" stroke="#63b8ff" d="M144.13,-111C157.19,-111 170.91,-111 184.24,-111"/>
<polygon fill="#63b8ff" stroke="#63b8ff" points="184.34,-114.5 194.34,-111 184.34,-107.5 184.34,-114.5"/>
</a>
</g>
</g>
<!-- Node5 -->
<g id="Node000005" class="node">
<title>Node5</title>
<g id="a_Node000005"><a xlink:href="../../df/d5b/classTerraria_1_1GameInput_1_1PlayerInput_ac882d5b23109fefc69e76bfa1157b576.html#ac882d5b23109fefc69e76bfa1157b576" target="_top" xlink:title=" ">
<polygon fill="white" stroke="#666666" points="542.5,-75 398.5,-75 398.5,-45 542.5,-45 542.5,-75"/>
<text text-anchor="start" x="406.5" y="-63" font-family="Helvetica,sans-Serif" font-size="10.00">Terraria.GameInput.Player</text>
<text text-anchor="middle" x="470.5" y="-52" font-family="Helvetica,sans-Serif" font-size="10.00">Input.SetZoom_Scaled</text>
</a>
</g>
</g>
<!-- Node4&#45;&gt;Node5 -->
<g id="edge4_Node000004_Node000005" class="edge">
<title>Node4&#45;&gt;Node5</title>
<g id="a_edge4_Node000004_Node000005"><a xlink:title=" ">
<path fill="none" stroke="#63b8ff" d="M335.04,-30.05C353.32,-34.12 373.25,-38.56 392.02,-42.74"/>
<polygon fill="#63b8ff" stroke="#63b8ff" points="391.5,-46.21 402.02,-44.97 393.02,-39.38 391.5,-46.21"/>
</a>
</g>
</g>
<!-- Node7&#45;&gt;Node3 -->
<g id="edge7_Node000007_Node000003" class="edge">
<title>Node7&#45;&gt;Node3</title>
<g id="a_edge7_Node000007_Node000003"><a xlink:title=" ">
<path fill="none" stroke="#63b8ff" d="M338.72,-118.4C351.66,-119.75 365.32,-121.17 378.74,-122.56"/>
<polygon fill="#63b8ff" stroke="#63b8ff" points="378.63,-126.07 388.94,-123.62 379.35,-119.11 378.63,-126.07"/>
</a>
</g>
</g>
<!-- Node7&#45;&gt;Node5 -->
<g id="edge8_Node000007_Node000005" class="edge">
<title>Node7&#45;&gt;Node5</title>
<g id="a_edge8_Node000007_Node000005"><a xlink:title=" ">
<path fill="none" stroke="#63b8ff" d="M327.01,-95.97C349.93,-90.19 376.28,-83.53 400.05,-77.53"/>
<polygon fill="#63b8ff" stroke="#63b8ff" points="401.22,-80.85 410.06,-75.01 399.51,-74.06 401.22,-80.85"/>
</a>
</g>
</g>
</g>
</svg>

<g id="navigator" transform="translate(0 0)" fill="#404254">
  <rect fill="#f2f5e9" fill-opacity="0.5" stroke="#606060" stroke-width=".5" x="0" y="0" width="60" height="60"/>
  <use id="zoomplus" xlink:href="#zoomPlus" x="17" y="9" onmousedown="handleZoom(evt,'in')"/>
  <use id="zoomminus" xlink:href="#zoomMin" x="42" y="9" onmousedown="handleZoom(evt,'out')"/>
  <use id="reset" xlink:href="#resetDef" x="30" y="36" onmousedown="handleReset()"/>
   <use id="arrowup" xlink:href="#arrowUp" x="0" y="0" onmousedown="handlePan(0,-1)"/>
  <use id="arrowright" xlink:href="#arrowRight" x="0" y="0" onmousedown="handlePan(1,0)"/>
  <use id="arrowdown" xlink:href="#arrowDown" x="0" y="0" onmousedown="handlePan(0,1)"/>
  <use id="arrowleft" xlink:href="#arrowLeft" x="0" y="0" onmousedown="handlePan(-1,0)"/>
</g>
<svg viewBox="0 0 15 15" width="100%" height="30px" preserveAspectRatio="xMaxYMin meet">
 <g id="arrow_out" transform="scale(0.3 0.3)">
  <a xlink:href="classTerraria_1_1GameInput_1_1PlayerInput_a9986ca0b5299fca0fed69330449a571a_a9986ca0b5299fca0fed69330449a571a_cgraph_org.svg" target="_base">
   <rect id="button" ry="5" rx="5" y="6" x="6" height="38" width="38"
        fill="#f2f5e9" fill-opacity="0.5" stroke="#606060" stroke-width="1.0"/>
   <path id="arrow"
     d="M 11.500037,31.436501 C 11.940474,20.09759 22.043105,11.32322 32.158766,21.979434 L 37.068811,17.246167 C 37.068811,17.246167 37.088388,32 37.088388,32 L 22.160133,31.978069 C 22.160133,31.978069 26.997745,27.140456 26.997745,27.140456 C 18.528582,18.264221 13.291696,25.230495 11.500037,31.436501 z"
     style="fill:#404040;"/>
  </a>
 </g>
</svg>

<style type='text/css'>
<![CDATA[
[data-mouse-over-selected='false'] { opacity: 0.7; }
[data-mouse-over-selected='true']  { opacity: 1.0; }
]]>
</style>
<script type="application/ecmascript"><![CDATA[
document.addEventListener('DOMContentLoaded', (event) => {
  highlightEdges();
  highlightAdjacentNodes();
});
]]></script>
</svg>
