<?xml version="1.0" encoding="UTF-8" standalone="no"?>
<!DOCTYPE svg PUBLIC "-//W3C//DTD SVG 1.1//EN"
 "http://www.w3.org/Graphics/SVG/1.1/DTD/svg11.dtd">
<!-- Generated by graphviz version 2.43.0 (0)
 -->
<!-- Title: Terraria.GameContent.UI.States.UIWorkshopHub.MakeButton_OpenUseResourcePacksMenu Pages: 1 -->
<svg width="1706pt" height="681pt"
 viewBox="0.00 0.00 1706.00 681.00" xmlns="http://www.w3.org/2000/svg" xmlns:xlink="http://www.w3.org/1999/xlink">
<g id="graph0" class="graph" transform="scale(1 1) rotate(0) translate(4 677)">
<title>Terraria.GameContent.UI.States.UIWorkshopHub.MakeButton_OpenUseResourcePacksMenu</title>
<!-- Node1 -->
<g id="Node000001" class="node">
<title>Node1</title>
<g id="a_Node000001"><a xlink:title=" ">
<polygon fill="#999999" stroke="#666666" points="190,-305.5 0,-305.5 0,-264.5 190,-264.5 190,-305.5"/>
<text text-anchor="start" x="8" y="-293.5" font-family="Helvetica,sans-Serif" font-size="10.00">Terraria.GameContent.UI.</text>
<text text-anchor="start" x="8" y="-282.5" font-family="Helvetica,sans-Serif" font-size="10.00">States.UIWorkshopHub.MakeButton</text>
<text text-anchor="middle" x="95" y="-271.5" font-family="Helvetica,sans-Serif" font-size="10.00">_OpenUseResourcePacksMenu</text>
</a>
</g>
</g>
<!-- Node2 -->
<g id="Node000002" class="node">
<title>Node2</title>
<g id="a_Node000002"><a xlink:href="../../d5/d68/classTerraria_1_1GameContent_1_1UI_1_1States_1_1UIWorkshopHub_ac8d01b66d654cba74231ab0978a58967.html#ac8d01b66d654cba74231ab0978a58967" target="_top" xlink:title=" ">
<polygon fill="white" stroke="#666666" points="396,-420.5 241,-420.5 241,-379.5 396,-379.5 396,-420.5"/>
<text text-anchor="start" x="249" y="-408.5" font-family="Helvetica,sans-Serif" font-size="10.00">Terraria.GameContent.UI.</text>
<text text-anchor="start" x="249" y="-397.5" font-family="Helvetica,sans-Serif" font-size="10.00">States.UIWorkshopHub.Click</text>
<text text-anchor="middle" x="318.5" y="-386.5" font-family="Helvetica,sans-Serif" font-size="10.00">_OpenResourcePacksMenu</text>
</a>
</g>
</g>
<!-- Node1&#45;&gt;Node2 -->
<g id="edge1_Node000001_Node000002" class="edge">
<title>Node1&#45;&gt;Node2</title>
<g id="a_edge1_Node000001_Node000002"><a xlink:title=" ">
<path fill="none" stroke="#63b8ff" d="M135.6,-305.56C172.89,-324.92 228.84,-353.97 268.83,-374.73"/>
<polygon fill="#63b8ff" stroke="#63b8ff" points="267.38,-377.92 277.87,-379.42 270.61,-371.71 267.38,-377.92"/>
</a>
</g>
</g>
<!-- Node20 -->
<g id="Node000020" class="node">
<title>Node20</title>
<g id="a_Node000020"><a xlink:href="../../d5/d68/classTerraria_1_1GameContent_1_1UI_1_1States_1_1UIWorkshopHub_a58a242620c59a0950716d43ca5d43c95.html#a58a242620c59a0950716d43ca5d43c95" target="_top" xlink:title=" ">
<polygon fill="white" stroke="#666666" points="411,-224.5 226,-224.5 226,-183.5 411,-183.5 411,-224.5"/>
<text text-anchor="start" x="234" y="-212.5" font-family="Helvetica,sans-Serif" font-size="10.00">Terraria.GameContent.UI.</text>
<text text-anchor="start" x="234" y="-201.5" font-family="Helvetica,sans-Serif" font-size="10.00">States.UIWorkshopHub.MakeFancy</text>
<text text-anchor="middle" x="318.5" y="-190.5" font-family="Helvetica,sans-Serif" font-size="10.00">Button</text>
</a>
</g>
</g>
<!-- Node1&#45;&gt;Node20 -->
<g id="edge20_Node000001_Node000020" class="edge">
<title>Node1&#45;&gt;Node20</title>
<g id="a_edge20_Node000001_Node000020"><a xlink:title=" ">
<path fill="none" stroke="#63b8ff" d="M152.18,-264.46C182.5,-253.37 220.08,-239.62 251.76,-228.04"/>
<polygon fill="#63b8ff" stroke="#63b8ff" points="253.19,-231.24 261.38,-224.52 250.79,-224.67 253.19,-231.24"/>
</a>
</g>
</g>
<!-- Node3 -->
<g id="Node000003" class="node">
<title>Node3</title>
<g id="a_Node000003"><a xlink:href="../../da/dd5/classTerraria_1_1Main_a3172a34fca2e7223c608a207c3bf5130.html#a3172a34fca2e7223c608a207c3bf5130" target="_top" xlink:title=" ">
<polygon fill="white" stroke="#666666" points="619,-415 465,-415 465,-385 619,-385 619,-415"/>
<text text-anchor="start" x="473" y="-403" font-family="Helvetica,sans-Serif" font-size="10.00">Terraria.Main.OpenResource</text>
<text text-anchor="middle" x="542" y="-392" font-family="Helvetica,sans-Serif" font-size="10.00">PacksMenu</text>
</a>
</g>
</g>
<!-- Node2&#45;&gt;Node3 -->
<g id="edge2_Node000002_Node000003" class="edge">
<title>Node2&#45;&gt;Node3</title>
<g id="a_edge2_Node000002_Node000003"><a xlink:title=" ">
<path fill="none" stroke="#63b8ff" d="M396.04,-400C414.99,-400 435.43,-400 454.81,-400"/>
<polygon fill="#63b8ff" stroke="#63b8ff" points="454.83,-403.5 464.83,-400 454.83,-396.5 454.83,-403.5"/>
</a>
</g>
</g>
<!-- Node19 -->
<g id="Node000019" class="node">
<title>Node19</title>
<g id="a_Node000019"><a xlink:href="../../d3/d78/classTerraria_1_1Audio_1_1SoundEngine_a65b4b1502c673e839c9bd620e23b2c94.html#a65b4b1502c673e839c9bd620e23b2c94" target="_top" xlink:title=" ">
<polygon fill="white" stroke="#666666" points="618.5,-463 465.5,-463 465.5,-433 618.5,-433 618.5,-463"/>
<text text-anchor="start" x="473.5" y="-451" font-family="Helvetica,sans-Serif" font-size="10.00">Terraria.Audio.SoundEngine.</text>
<text text-anchor="middle" x="542" y="-440" font-family="Helvetica,sans-Serif" font-size="10.00">PlaySound</text>
</a>
</g>
</g>
<!-- Node2&#45;&gt;Node19 -->
<g id="edge18_Node000002_Node000019" class="edge">
<title>Node2&#45;&gt;Node19</title>
<g id="a_edge18_Node000002_Node000019"><a xlink:title=" ">
<path fill="none" stroke="#63b8ff" d="M396.04,-416.59C417.2,-421.17 440.2,-426.16 461.52,-430.78"/>
<polygon fill="#63b8ff" stroke="#63b8ff" points="461,-434.24 471.51,-432.94 462.48,-427.4 461,-434.24"/>
</a>
</g>
</g>
<!-- Node4 -->
<g id="Node000004" class="node">
<title>Node4</title>
<g id="a_Node000004"><a xlink:href="../../d8/d9d/classTerraria_1_1Initializers_1_1AssetInitializer_a5ed3b1f434803bccc379b8f3565568d5.html#a5ed3b1f434803bccc379b8f3565568d5" target="_top" xlink:title=" ">
<polygon fill="white" stroke="#666666" points="855,-421 673,-421 673,-391 855,-391 855,-421"/>
<text text-anchor="start" x="681" y="-409" font-family="Helvetica,sans-Serif" font-size="10.00">Terraria.Initializers.Asset</text>
<text text-anchor="middle" x="764" y="-398" font-family="Helvetica,sans-Serif" font-size="10.00">Initializer.CreateResourcePackList</text>
</a>
</g>
</g>
<!-- Node3&#45;&gt;Node4 -->
<g id="edge3_Node000003_Node000004" class="edge">
<title>Node3&#45;&gt;Node4</title>
<g id="a_edge3_Node000003_Node000004"><a xlink:title=" ">
<path fill="none" stroke="#63b8ff" d="M619.02,-402.07C633.15,-402.46 648.1,-402.87 662.82,-403.27"/>
<polygon fill="#63b8ff" stroke="#63b8ff" points="662.87,-406.77 672.96,-403.54 663.06,-399.77 662.87,-406.77"/>
</a>
</g>
</g>
<!-- Node5 -->
<g id="Node000005" class="node">
<title>Node5</title>
<g id="a_Node000005"><a xlink:href="../../da/d99/classTerraria_1_1IO_1_1ResourcePackList_a501898863f836902f97515ef3878bd04.html#a501898863f836902f97515ef3878bd04" target="_top" xlink:title=" ">
<polygon fill="white" stroke="#666666" points="1052,-550 915,-550 915,-520 1052,-520 1052,-550"/>
<text text-anchor="start" x="923" y="-538" font-family="Helvetica,sans-Serif" font-size="10.00">Terraria.IO.ResourcePack</text>
<text text-anchor="middle" x="983.5" y="-527" font-family="Helvetica,sans-Serif" font-size="10.00">List.FromJson</text>
</a>
</g>
</g>
<!-- Node4&#45;&gt;Node5 -->
<g id="edge4_Node000004_Node000005" class="edge">
<title>Node4&#45;&gt;Node5</title>
<g id="a_edge4_Node000004_Node000005"><a xlink:title=" ">
<path fill="none" stroke="#63b8ff" d="M790.38,-421.05C829.4,-444.19 904.21,-488.57 948.08,-514.59"/>
<polygon fill="#63b8ff" stroke="#63b8ff" points="946.56,-517.76 956.95,-519.85 950.13,-511.73 946.56,-517.76"/>
</a>
</g>
</g>
<!-- Node13 -->
<g id="Node000013" class="node">
<title>Node13</title>
<g id="a_Node000013"><a xlink:href="../../d8/d9d/classTerraria_1_1Initializers_1_1AssetInitializer_a347d93f1830042edfad50d7aca8da662.html#a347d93f1830042edfad50d7aca8da662" target="_top" xlink:title=" ">
<polygon fill="white" stroke="#666666" points="1076,-426.5 891,-426.5 891,-385.5 1076,-385.5 1076,-426.5"/>
<text text-anchor="start" x="899" y="-414.5" font-family="Helvetica,sans-Serif" font-size="10.00">Terraria.Initializers.Asset</text>
<text text-anchor="start" x="899" y="-403.5" font-family="Helvetica,sans-Serif" font-size="10.00">Initializer.GetResourcePacksFolder</text>
<text text-anchor="middle" x="983.5" y="-392.5" font-family="Helvetica,sans-Serif" font-size="10.00">PathAndConfirmItExists</text>
</a>
</g>
</g>
<!-- Node4&#45;&gt;Node13 -->
<g id="edge12_Node000004_Node000013" class="edge">
<title>Node4&#45;&gt;Node13</title>
<g id="a_edge12_Node000004_Node000013"><a xlink:title=" ">
<path fill="none" stroke="#63b8ff" d="M855.04,-406C863.52,-406 872.16,-406 880.74,-406"/>
<polygon fill="#63b8ff" stroke="#63b8ff" points="880.78,-409.5 890.78,-406 880.78,-402.5 880.78,-409.5"/>
</a>
</g>
</g>
<!-- Node6 -->
<g id="Node000006" class="node">
<title>Node6</title>
<g id="a_Node000006"><a xlink:href="../../da/d99/classTerraria_1_1IO_1_1ResourcePackList_a092ca42c9494b5d726cda12fa1169111.html#a092ca42c9494b5d726cda12fa1169111" target="_top" xlink:title=" ">
<polygon fill="white" stroke="#666666" points="1268,-673 1131,-673 1131,-643 1268,-643 1268,-673"/>
<text text-anchor="start" x="1139" y="-661" font-family="Helvetica,sans-Serif" font-size="10.00">Terraria.IO.ResourcePack</text>
<text text-anchor="middle" x="1199.5" y="-650" font-family="Helvetica,sans-Serif" font-size="10.00">List.ResourcePackList</text>
</a>
</g>
</g>
<!-- Node5&#45;&gt;Node6 -->
<g id="edge5_Node000005_Node000006" class="edge">
<title>Node5&#45;&gt;Node6</title>
<g id="a_edge5_Node000005_Node000006"><a xlink:title=" ">
<path fill="none" stroke="#63b8ff" d="M999.62,-550.01C1022.2,-571.61 1066.92,-611.36 1112,-634 1115.76,-635.89 1119.69,-637.65 1123.71,-639.28"/>
<polygon fill="#63b8ff" stroke="#63b8ff" points="1122.63,-642.61 1133.22,-642.86 1125.1,-636.06 1122.63,-642.61"/>
</a>
</g>
</g>
<!-- Node7 -->
<g id="Node000007" class="node">
<title>Node7</title>
<g id="a_Node000007"><a xlink:href="../../da/d99/classTerraria_1_1IO_1_1ResourcePackList_aa6f8ed51a2ee472fb4f9f0c4c90684ed.html#aa6f8ed51a2ee472fb4f9f0c4c90684ed" target="_top" xlink:title=" ">
<polygon fill="white" stroke="#666666" points="1287,-625 1112,-625 1112,-595 1287,-595 1287,-625"/>
<text text-anchor="start" x="1120" y="-613" font-family="Helvetica,sans-Serif" font-size="10.00">Terraria.IO.ResourcePack</text>
<text text-anchor="middle" x="1199.5" y="-602" font-family="Helvetica,sans-Serif" font-size="10.00">List.CreatePacksFromDirectories</text>
</a>
</g>
</g>
<!-- Node5&#45;&gt;Node7 -->
<g id="edge6_Node000005_Node000007" class="edge">
<title>Node5&#45;&gt;Node7</title>
<g id="a_edge6_Node000005_Node000007"><a xlink:title=" ">
<path fill="none" stroke="#63b8ff" d="M1019.02,-550.01C1044.46,-560.77 1080.04,-575.21 1112,-586 1118.25,-588.11 1124.8,-590.18 1131.37,-592.16"/>
<polygon fill="#63b8ff" stroke="#63b8ff" points="1130.42,-595.53 1141,-595 1132.4,-588.81 1130.42,-595.53"/>
</a>
</g>
</g>
<!-- Node8 -->
<g id="Node000008" class="node">
<title>Node8</title>
<g id="a_Node000008"><a xlink:href="../../da/d99/classTerraria_1_1IO_1_1ResourcePackList_a7582c86f3caac747f3ba3e356ff90ab7.html#a7582c86f3caac747f3ba3e356ff90ab7" target="_top" xlink:title=" ">
<polygon fill="white" stroke="#666666" points="1285.5,-577 1113.5,-577 1113.5,-547 1285.5,-547 1285.5,-577"/>
<text text-anchor="start" x="1121.5" y="-565" font-family="Helvetica,sans-Serif" font-size="10.00">Terraria.IO.ResourcePack</text>
<text text-anchor="middle" x="1199.5" y="-554" font-family="Helvetica,sans-Serif" font-size="10.00">List.CreatePacksFromSavedJson</text>
</a>
</g>
</g>
<!-- Node5&#45;&gt;Node8 -->
<g id="edge7_Node000005_Node000008" class="edge">
<title>Node5&#45;&gt;Node8</title>
<g id="a_edge7_Node000005_Node000008"><a xlink:title=" ">
<path fill="none" stroke="#63b8ff" d="M1052.21,-543.54C1068.38,-545.58 1085.95,-547.8 1103.11,-549.96"/>
<polygon fill="#63b8ff" stroke="#63b8ff" points="1102.79,-553.45 1113.15,-551.23 1103.67,-546.51 1102.79,-553.45"/>
</a>
</g>
</g>
<!-- Node10 -->
<g id="Node000010" class="node">
<title>Node10</title>
<g id="a_Node000010"><a xlink:href="../../da/d99/classTerraria_1_1IO_1_1ResourcePackList_a89ca7c4ad193a7544bbff8b0fc368050.html#a89ca7c4ad193a7544bbff8b0fc368050" target="_top" xlink:title=" ">
<polygon fill="white" stroke="#666666" points="1284.5,-528.5 1114.5,-528.5 1114.5,-487.5 1284.5,-487.5 1284.5,-528.5"/>
<text text-anchor="start" x="1122.5" y="-516.5" font-family="Helvetica,sans-Serif" font-size="10.00">Terraria.IO.ResourcePack</text>
<text text-anchor="start" x="1122.5" y="-505.5" font-family="Helvetica,sans-Serif" font-size="10.00">List.CreatePacksFromWorkshop</text>
<text text-anchor="middle" x="1199.5" y="-494.5" font-family="Helvetica,sans-Serif" font-size="10.00">Folders</text>
</a>
</g>
</g>
<!-- Node5&#45;&gt;Node10 -->
<g id="edge9_Node000005_Node000010" class="edge">
<title>Node5&#45;&gt;Node10</title>
<g id="a_edge9_Node000005_Node000010"><a xlink:title=" ">
<path fill="none" stroke="#63b8ff" d="M1052.21,-526.46C1068.69,-524.38 1086.62,-522.12 1104.09,-519.91"/>
<polygon fill="#63b8ff" stroke="#63b8ff" points="1104.82,-523.35 1114.31,-518.62 1103.95,-516.4 1104.82,-523.35"/>
</a>
</g>
</g>
<!-- Node12 -->
<g id="Node000012" class="node">
<title>Node12</title>
<g id="a_Node000012"><a xlink:href="../../da/d99/classTerraria_1_1IO_1_1ResourcePackList_a07369a07d667fe51652a34a29901ea9a.html#a07369a07d667fe51652a34a29901ea9a" target="_top" xlink:title=" ">
<polygon fill="white" stroke="#666666" points="1271,-469 1128,-469 1128,-439 1271,-439 1271,-469"/>
<text text-anchor="start" x="1136" y="-457" font-family="Helvetica,sans-Serif" font-size="10.00">Terraria.IO.ResourcePack</text>
<text text-anchor="middle" x="1199.5" y="-446" font-family="Helvetica,sans-Serif" font-size="10.00">List.CreatePacksFromZips</text>
</a>
</g>
</g>
<!-- Node5&#45;&gt;Node12 -->
<g id="edge11_Node000005_Node000012" class="edge">
<title>Node5&#45;&gt;Node12</title>
<g id="a_edge11_Node000005_Node000012"><a xlink:title=" ">
<path fill="none" stroke="#63b8ff" d="M1015.73,-519.9C1041.25,-507.89 1078.47,-491.15 1112,-479 1118.67,-476.58 1125.69,-474.24 1132.73,-472.02"/>
<polygon fill="#63b8ff" stroke="#63b8ff" points="1133.79,-475.35 1142.31,-469.06 1131.73,-468.66 1133.79,-475.35"/>
</a>
</g>
</g>
<!-- Node9 -->
<g id="Node000009" class="node">
<title>Node9</title>
<g id="a_Node000009"><a xlink:href="../../da/d99/classTerraria_1_1IO_1_1ResourcePackList_a73ab3e57d250730a6bbaa61f68a3652a.html#a73ab3e57d250730a6bbaa61f68a3652a" target="_top" xlink:title=" ">
<polygon fill="white" stroke="#666666" points="1504.5,-577 1325.5,-577 1325.5,-547 1504.5,-547 1504.5,-577"/>
<text text-anchor="start" x="1333.5" y="-565" font-family="Helvetica,sans-Serif" font-size="10.00">Terraria.IO.ResourcePack</text>
<text text-anchor="middle" x="1415" y="-554" font-family="Helvetica,sans-Serif" font-size="10.00">List.CreatePackEntryListFromJson</text>
</a>
</g>
</g>
<!-- Node8&#45;&gt;Node9 -->
<g id="edge8_Node000008_Node000009" class="edge">
<title>Node8&#45;&gt;Node9</title>
<g id="a_edge8_Node000008_Node000009"><a xlink:title=" ">
<path fill="none" stroke="#63b8ff" d="M1285.8,-562C1295.46,-562 1305.36,-562 1315.16,-562"/>
<polygon fill="#63b8ff" stroke="#63b8ff" points="1315.34,-565.5 1325.34,-562 1315.34,-558.5 1315.34,-565.5"/>
</a>
</g>
</g>
<!-- Node11 -->
<g id="Node000011" class="node">
<title>Node11</title>
<g id="a_Node000011"><a xlink:href="../../de/d63/classTerraria_1_1Social_1_1Base_1_1WorkshopSocialModule_a8cf31aa560914722fd69e5cecd9cc734.html#a8cf31aa560914722fd69e5cecd9cc734" target="_top" xlink:title=" ">
<polygon fill="white" stroke="#666666" points="1507,-528.5 1323,-528.5 1323,-487.5 1507,-487.5 1507,-528.5"/>
<text text-anchor="start" x="1331" y="-516.5" font-family="Helvetica,sans-Serif" font-size="10.00">Terraria.Social.Base.Workshop</text>
<text text-anchor="start" x="1331" y="-505.5" font-family="Helvetica,sans-Serif" font-size="10.00">SocialModule.GetListOfSubscribed</text>
<text text-anchor="middle" x="1415" y="-494.5" font-family="Helvetica,sans-Serif" font-size="10.00">ResourcePackPaths</text>
</a>
</g>
</g>
<!-- Node10&#45;&gt;Node11 -->
<g id="edge10_Node000010_Node000011" class="edge">
<title>Node10&#45;&gt;Node11</title>
<g id="a_edge10_Node000010_Node000011"><a xlink:title=" ">
<path fill="none" stroke="#63b8ff" d="M1284.57,-508C1293.83,-508 1303.32,-508 1312.76,-508"/>
<polygon fill="#63b8ff" stroke="#63b8ff" points="1312.96,-511.5 1322.96,-508 1312.96,-504.5 1312.96,-511.5"/>
</a>
</g>
</g>
<!-- Node14 -->
<g id="Node000014" class="node">
<title>Node14</title>
<g id="a_Node000014"><a xlink:href="../../d1/d9c/classTerraria_1_1Utils_a20ff544f864fec62df413e995a9ca414.html#a20ff544f864fec62df413e995a9ca414" target="_top" xlink:title=" ">
<polygon fill="white" stroke="#666666" points="1268,-421 1131,-421 1131,-391 1268,-391 1268,-421"/>
<text text-anchor="start" x="1139" y="-409" font-family="Helvetica,sans-Serif" font-size="10.00">Terraria.Utils.TryCreating</text>
<text text-anchor="middle" x="1199.5" y="-398" font-family="Helvetica,sans-Serif" font-size="10.00">Directory</text>
</a>
</g>
</g>
<!-- Node13&#45;&gt;Node14 -->
<g id="edge13_Node000013_Node000014" class="edge">
<title>Node13&#45;&gt;Node14</title>
<g id="a_edge13_Node000013_Node000014"><a xlink:title=" ">
<path fill="none" stroke="#63b8ff" d="M1076.19,-406C1090.98,-406 1106.16,-406 1120.59,-406"/>
<polygon fill="#63b8ff" stroke="#63b8ff" points="1120.94,-409.5 1130.94,-406 1120.94,-402.5 1120.94,-409.5"/>
</a>
</g>
</g>
<!-- Node15 -->
<g id="Node000015" class="node">
<title>Node15</title>
<g id="a_Node000015"><a xlink:href="../../dd/df7/classTerraria_1_1UI_1_1FancyErrorPrinter_ae0115236331d295adbc1e781728728f7.html#ae0115236331d295adbc1e781728728f7" target="_top" xlink:title=" ">
<polygon fill="white" stroke="#666666" points="1499.5,-421 1330.5,-421 1330.5,-391 1499.5,-391 1499.5,-421"/>
<text text-anchor="start" x="1338.5" y="-409" font-family="Helvetica,sans-Serif" font-size="10.00">Terraria.UI.FancyErrorPrinter.</text>
<text text-anchor="middle" x="1415" y="-398" font-family="Helvetica,sans-Serif" font-size="10.00">ShowDirectoryCreationFailError</text>
</a>
</g>
</g>
<!-- Node14&#45;&gt;Node15 -->
<g id="edge14_Node000014_Node000015" class="edge">
<title>Node14&#45;&gt;Node15</title>
<g id="a_edge14_Node000014_Node000015"><a xlink:title=" ">
<path fill="none" stroke="#63b8ff" d="M1268.05,-406C1284.6,-406 1302.6,-406 1320.13,-406"/>
<polygon fill="#63b8ff" stroke="#63b8ff" points="1320.39,-409.5 1330.39,-406 1320.38,-402.5 1320.39,-409.5"/>
</a>
</g>
</g>
<!-- Node16 -->
<g id="Node000016" class="node">
<title>Node16</title>
<g id="a_Node000016"><a xlink:href="../../dd/df7/classTerraria_1_1UI_1_1FancyErrorPrinter_a6c9b4482b0b7da9f344d2576854450f9.html#a6c9b4482b0b7da9f344d2576854450f9" target="_top" xlink:title=" ">
<polygon fill="white" stroke="#666666" points="1698,-469 1543,-469 1543,-439 1698,-439 1698,-469"/>
<text text-anchor="start" x="1551" y="-457" font-family="Helvetica,sans-Serif" font-size="10.00">Terraria.UI.FancyErrorPrinter.</text>
<text text-anchor="middle" x="1620.5" y="-446" font-family="Helvetica,sans-Serif" font-size="10.00">AppendSuggestions</text>
</a>
</g>
</g>
<!-- Node15&#45;&gt;Node16 -->
<g id="edge15_Node000015_Node000016" class="edge">
<title>Node15&#45;&gt;Node16</title>
<g id="a_edge15_Node000015_Node000016"><a xlink:title=" ">
<path fill="none" stroke="#63b8ff" d="M1479.83,-421.06C1500.86,-426.01 1524.4,-431.57 1546.08,-436.68"/>
<polygon fill="#63b8ff" stroke="#63b8ff" points="1545.36,-440.11 1555.9,-439 1546.97,-433.3 1545.36,-440.11"/>
</a>
</g>
</g>
<!-- Node17 -->
<g id="Node000017" class="node">
<title>Node17</title>
<g id="a_Node000017"><a xlink:href="../../dd/df7/classTerraria_1_1UI_1_1FancyErrorPrinter_a72a828c72dcd7b6c59a0cfc10196389e.html#a72a828c72dcd7b6c59a0cfc10196389e" target="_top" xlink:title=" ">
<polygon fill="white" stroke="#666666" points="1698,-421 1543,-421 1543,-391 1698,-391 1698,-421"/>
<text text-anchor="start" x="1551" y="-409" font-family="Helvetica,sans-Serif" font-size="10.00">Terraria.UI.FancyErrorPrinter.</text>
<text text-anchor="middle" x="1620.5" y="-398" font-family="Helvetica,sans-Serif" font-size="10.00">IncludeOriginalMessage</text>
</a>
</g>
</g>
<!-- Node15&#45;&gt;Node17 -->
<g id="edge16_Node000015_Node000017" class="edge">
<title>Node15&#45;&gt;Node17</title>
<g id="a_edge16_Node000015_Node000017"><a xlink:title=" ">
<path fill="none" stroke="#63b8ff" d="M1499.65,-406C1510.45,-406 1521.53,-406 1532.39,-406"/>
<polygon fill="#63b8ff" stroke="#63b8ff" points="1532.71,-409.5 1542.71,-406 1532.71,-402.5 1532.71,-409.5"/>
</a>
</g>
</g>
<!-- Node18 -->
<g id="Node000018" class="node">
<title>Node18</title>
<g id="a_Node000018"><a xlink:href="../../dd/df7/classTerraria_1_1UI_1_1FancyErrorPrinter_abbf6492d203fc5f7831f48d73ae26abe.html#abbf6492d203fc5f7831f48d73ae26abe" target="_top" xlink:title=" ">
<polygon fill="white" stroke="#666666" points="1698,-373 1543,-373 1543,-343 1698,-343 1698,-373"/>
<text text-anchor="start" x="1551" y="-361" font-family="Helvetica,sans-Serif" font-size="10.00">Terraria.UI.FancyErrorPrinter.</text>
<text text-anchor="middle" x="1620.5" y="-350" font-family="Helvetica,sans-Serif" font-size="10.00">ShowTheBox</text>
</a>
</g>
</g>
<!-- Node15&#45;&gt;Node18 -->
<g id="edge17_Node000015_Node000018" class="edge">
<title>Node15&#45;&gt;Node18</title>
<g id="a_edge17_Node000015_Node000018"><a xlink:title=" ">
<path fill="none" stroke="#63b8ff" d="M1479.83,-390.94C1500.86,-385.99 1524.4,-380.43 1546.08,-375.32"/>
<polygon fill="#63b8ff" stroke="#63b8ff" points="1546.97,-378.7 1555.9,-373 1545.36,-371.89 1546.97,-378.7"/>
</a>
</g>
</g>
<!-- Node19&#45;&gt;Node19 -->
<g id="edge19_Node000019_Node000019" class="edge">
<title>Node19&#45;&gt;Node19</title>
<g id="a_edge19_Node000019_Node000019"><a xlink:title=" ">
<path fill="none" stroke="#63b8ff" d="M502.98,-463.28C494.3,-472.41 507.31,-481 542,-481 562.6,-481 575.55,-477.97 580.86,-473.6"/>
<polygon fill="#63b8ff" stroke="#63b8ff" points="584.36,-473.33 581.02,-463.28 577.36,-473.22 584.36,-473.33"/>
</a>
</g>
</g>
<!-- Node21 -->
<g id="Node000021" class="node">
<title>Node21</title>
<g id="a_Node000021"><a xlink:href="../../d5/d68/classTerraria_1_1GameContent_1_1UI_1_1States_1_1UIWorkshopHub_a63d1115fda89ffe5bd88ed384c323ad2.html#a63d1115fda89ffe5bd88ed384c323ad2" target="_top" xlink:title=" ">
<polygon fill="white" stroke="#666666" points="636.5,-294.5 447.5,-294.5 447.5,-253.5 636.5,-253.5 636.5,-294.5"/>
<text text-anchor="start" x="455.5" y="-282.5" font-family="Helvetica,sans-Serif" font-size="10.00">Terraria.GameContent.UI.</text>
<text text-anchor="start" x="455.5" y="-271.5" font-family="Helvetica,sans-Serif" font-size="10.00">States.UIWorkshopHub.ClearOption</text>
<text text-anchor="middle" x="542" y="-260.5" font-family="Helvetica,sans-Serif" font-size="10.00">Description</text>
</a>
</g>
</g>
<!-- Node20&#45;&gt;Node21 -->
<g id="edge21_Node000020_Node000021" class="edge">
<title>Node20&#45;&gt;Node21</title>
<g id="a_edge21_Node000020_Node000021"><a xlink:title=" ">
<path fill="none" stroke="#63b8ff" d="M384.46,-224.53C410.15,-232.65 439.84,-242.03 466.41,-250.43"/>
<polygon fill="#63b8ff" stroke="#63b8ff" points="465.45,-253.79 476.04,-253.47 467.56,-247.12 465.45,-253.79"/>
</a>
</g>
</g>
<!-- Node22 -->
<g id="Node000022" class="node">
<title>Node22</title>
<g id="a_Node000022"><a xlink:href="../../d4/d8f/classTerraria_1_1Localization_1_1Language_aa5ae49ae4976cbf8cf7aa28595d712a6.html#aa5ae49ae4976cbf8cf7aa28595d712a6" target="_top" xlink:title=" ">
<polygon fill="white" stroke="#666666" points="848,-282 680,-282 680,-252 848,-252 848,-282"/>
<text text-anchor="start" x="688" y="-270" font-family="Helvetica,sans-Serif" font-size="10.00">Terraria.Localization.Language.</text>
<text text-anchor="middle" x="764" y="-259" font-family="Helvetica,sans-Serif" font-size="10.00">GetText</text>
</a>
</g>
</g>
<!-- Node20&#45;&gt;Node22 -->
<g id="edge36_Node000020_Node000022" class="edge">
<title>Node20&#45;&gt;Node22</title>
<g id="a_edge36_Node000020_Node000022"><a xlink:title=" ">
<path fill="none" stroke="#63b8ff" d="M411.01,-214.72C474.52,-222.43 561.03,-233.47 637,-245 647.67,-246.62 658.84,-248.42 669.92,-250.27"/>
<polygon fill="#63b8ff" stroke="#63b8ff" points="669.62,-253.77 680.06,-251.98 670.78,-246.86 669.62,-253.77"/>
</a>
</g>
</g>
<!-- Node31 -->
<g id="Node000031" class="node">
<title>Node31</title>
<g id="a_Node000031"><a xlink:href="../../d8/d74/structTerraria_1_1UI_1_1StyleDimension_a401bd71d865c34b2d50a55dcc1a67384.html#a401bd71d865c34b2d50a55dcc1a67384" target="_top" xlink:title=" ">
<polygon fill="white" stroke="#666666" points="617,-197 467,-197 467,-167 617,-167 617,-197"/>
<text text-anchor="start" x="475" y="-185" font-family="Helvetica,sans-Serif" font-size="10.00">Terraria.UI.StyleDimension.</text>
<text text-anchor="middle" x="542" y="-174" font-family="Helvetica,sans-Serif" font-size="10.00">FromPixels</text>
</a>
</g>
</g>
<!-- Node20&#45;&gt;Node31 -->
<g id="edge32_Node000020_Node000031" class="edge">
<title>Node20&#45;&gt;Node31</title>
<g id="a_edge32_Node000020_Node000031"><a xlink:title=" ">
<path fill="none" stroke="#63b8ff" d="M411.19,-194.89C426.28,-193.39 441.85,-191.85 456.74,-190.37"/>
<polygon fill="#63b8ff" stroke="#63b8ff" points="457.32,-193.83 466.93,-189.36 456.63,-186.86 457.32,-193.83"/>
</a>
</g>
</g>
<!-- Node33 -->
<g id="Node000033" class="node">
<title>Node33</title>
<g id="a_Node000033"><a xlink:href="../../d8/d74/structTerraria_1_1UI_1_1StyleDimension_ad650694a90519412f5f2ba2dd5569b44.html#ad650694a90519412f5f2ba2dd5569b44" target="_top" xlink:title=" ">
<polygon fill="white" stroke="#666666" points="617,-30 467,-30 467,0 617,0 617,-30"/>
<text text-anchor="start" x="475" y="-18" font-family="Helvetica,sans-Serif" font-size="10.00">Terraria.UI.StyleDimension.</text>
<text text-anchor="middle" x="542" y="-7" font-family="Helvetica,sans-Serif" font-size="10.00">FromPixelsAndPercent</text>
</a>
</g>
</g>
<!-- Node20&#45;&gt;Node33 -->
<g id="edge34_Node000020_Node000033" class="edge">
<title>Node20&#45;&gt;Node33</title>
<g id="a_edge34_Node000020_Node000033"><a xlink:title=" ">
<path fill="none" stroke="#63b8ff" d="M329.52,-183.45C347.8,-148.22 389.97,-76.48 447,-39 450.31,-36.82 453.8,-34.85 457.42,-33.05"/>
<polygon fill="#63b8ff" stroke="#63b8ff" points="458.93,-36.21 466.63,-28.93 456.08,-29.82 458.93,-36.21"/>
</a>
</g>
</g>
<!-- Node34 -->
<g id="Node000034" class="node">
<title>Node34</title>
<g id="a_Node000034"><a xlink:href="../../d5/d68/classTerraria_1_1GameContent_1_1UI_1_1States_1_1UIWorkshopHub_a5d9c361297a87ab73ae5585cf4e59771.html#a5d9c361297a87ab73ae5585cf4e59771" target="_top" xlink:title=" ">
<polygon fill="white" stroke="#666666" points="631,-148.5 453,-148.5 453,-107.5 631,-107.5 631,-148.5"/>
<text text-anchor="start" x="461" y="-136.5" font-family="Helvetica,sans-Serif" font-size="10.00">Terraria.GameContent.UI.</text>
<text text-anchor="start" x="461" y="-125.5" font-family="Helvetica,sans-Serif" font-size="10.00">States.UIWorkshopHub.SetColors</text>
<text text-anchor="middle" x="542" y="-114.5" font-family="Helvetica,sans-Serif" font-size="10.00">ToHovered</text>
</a>
</g>
</g>
<!-- Node20&#45;&gt;Node34 -->
<g id="edge37_Node000020_Node000034" class="edge">
<title>Node20&#45;&gt;Node34</title>
<g id="a_edge37_Node000020_Node000034"><a xlink:title=" ">
<path fill="none" stroke="#63b8ff" d="M375.2,-183.4C397.46,-175.29 423.38,-166.03 447,-158 453.07,-155.94 459.37,-153.84 465.71,-151.76"/>
<polygon fill="#63b8ff" stroke="#63b8ff" points="467.24,-154.94 475.66,-148.51 465.07,-148.28 467.24,-154.94"/>
</a>
</g>
</g>
<!-- Node35 -->
<g id="Node000035" class="node">
<title>Node35</title>
<g id="a_Node000035"><a xlink:href="../../d5/d68/classTerraria_1_1GameContent_1_1UI_1_1States_1_1UIWorkshopHub_a01fa1d0ca56f6f19c5439dc62b5082a1.html#a01fa1d0ca56f6f19c5439dc62b5082a1" target="_top" xlink:title=" ">
<polygon fill="white" stroke="#666666" points="631,-89.5 453,-89.5 453,-48.5 631,-48.5 631,-89.5"/>
<text text-anchor="start" x="461" y="-77.5" font-family="Helvetica,sans-Serif" font-size="10.00">Terraria.GameContent.UI.</text>
<text text-anchor="start" x="461" y="-66.5" font-family="Helvetica,sans-Serif" font-size="10.00">States.UIWorkshopHub.SetColors</text>
<text text-anchor="middle" x="542" y="-55.5" font-family="Helvetica,sans-Serif" font-size="10.00">ToNotHovered</text>
</a>
</g>
</g>
<!-- Node20&#45;&gt;Node35 -->
<g id="edge38_Node000020_Node000035" class="edge">
<title>Node20&#45;&gt;Node35</title>
<g id="a_edge38_Node000020_Node000035"><a xlink:title=" ">
<path fill="none" stroke="#63b8ff" d="M339.27,-183.2C362.86,-159.49 404.48,-121.03 447,-98 449.85,-96.45 452.8,-94.98 455.81,-93.57"/>
<polygon fill="#63b8ff" stroke="#63b8ff" points="457.25,-96.76 465.01,-89.55 454.45,-90.35 457.25,-96.76"/>
</a>
</g>
</g>
<!-- Node36 -->
<g id="Node000036" class="node">
<title>Node36</title>
<g id="a_Node000036"><a xlink:href="../../d5/d68/classTerraria_1_1GameContent_1_1UI_1_1States_1_1UIWorkshopHub_aa63c46fc604e580ade21dfbf72204c9d.html#aa63c46fc604e580ade21dfbf72204c9d" target="_top" xlink:title=" ">
<polygon fill="white" stroke="#666666" points="637,-353.5 447,-353.5 447,-312.5 637,-312.5 637,-353.5"/>
<text text-anchor="start" x="455" y="-341.5" font-family="Helvetica,sans-Serif" font-size="10.00">Terraria.GameContent.UI.</text>
<text text-anchor="start" x="455" y="-330.5" font-family="Helvetica,sans-Serif" font-size="10.00">States.UIWorkshopHub.ShowOption</text>
<text text-anchor="middle" x="542" y="-319.5" font-family="Helvetica,sans-Serif" font-size="10.00">Description</text>
</a>
</g>
</g>
<!-- Node20&#45;&gt;Node36 -->
<g id="edge39_Node000020_Node000036" class="edge">
<title>Node20&#45;&gt;Node36</title>
<g id="a_edge39_Node000020_Node000036"><a xlink:title=" ">
<path fill="none" stroke="#63b8ff" d="M340.79,-224.76C364.8,-247.16 405.87,-282.48 447,-304 449.95,-305.54 453,-307.02 456.11,-308.43"/>
<polygon fill="#63b8ff" stroke="#63b8ff" points="455.03,-311.78 465.6,-312.47 457.77,-305.34 455.03,-311.78"/>
</a>
</g>
</g>
<!-- Node21&#45;&gt;Node22 -->
<g id="edge22_Node000021_Node000022" class="edge">
<title>Node21&#45;&gt;Node22</title>
<g id="a_edge22_Node000021_Node000022"><a xlink:title=" ">
<path fill="none" stroke="#63b8ff" d="M636.62,-271.02C647.63,-270.67 658.87,-270.31 669.88,-269.96"/>
<polygon fill="#63b8ff" stroke="#63b8ff" points="670.02,-273.46 679.91,-269.64 669.8,-266.46 670.02,-273.46"/>
</a>
</g>
</g>
<!-- Node24 -->
<g id="Node000024" class="node">
<title>Node24</title>
<g id="a_Node000024"><a xlink:href="../../df/da8/classTerraria_1_1GameContent_1_1UI_1_1Elements_1_1UIText_a3f27882b54715c7adb4e9859ec77c395.html#a3f27882b54715c7adb4e9859ec77c395" target="_top" xlink:title=" ">
<polygon fill="white" stroke="#666666" points="834,-330 694,-330 694,-300 834,-300 834,-330"/>
<text text-anchor="start" x="702" y="-318" font-family="Helvetica,sans-Serif" font-size="10.00">Terraria.GameContent.UI.</text>
<text text-anchor="middle" x="764" y="-307" font-family="Helvetica,sans-Serif" font-size="10.00">Elements.UIText.SetText</text>
</a>
</g>
</g>
<!-- Node21&#45;&gt;Node24 -->
<g id="edge24_Node000021_Node000024" class="edge">
<title>Node21&#45;&gt;Node24</title>
<g id="a_edge24_Node000021_Node000024"><a xlink:title=" ">
<path fill="none" stroke="#63b8ff" d="M636.62,-291.45C652.35,-294.38 668.54,-297.4 683.86,-300.25"/>
<polygon fill="#63b8ff" stroke="#63b8ff" points="683.32,-303.71 693.79,-302.1 684.6,-296.83 683.32,-303.71"/>
</a>
</g>
</g>
<!-- Node23 -->
<g id="Node000023" class="node">
<title>Node23</title>
<g id="a_Node000023"><a xlink:href="../../d8/d74/classTerraria_1_1Localization_1_1LanguageManager_ad292c2b15ad9179331427a23cc8c4e8c.html#ad292c2b15ad9179331427a23cc8c4e8c" target="_top" xlink:title=" ">
<polygon fill="white" stroke="#666666" points="1066,-282 901,-282 901,-252 1066,-252 1066,-282"/>
<text text-anchor="start" x="909" y="-270" font-family="Helvetica,sans-Serif" font-size="10.00">Terraria.Localization.Language</text>
<text text-anchor="middle" x="983.5" y="-259" font-family="Helvetica,sans-Serif" font-size="10.00">Manager.GetText</text>
</a>
</g>
</g>
<!-- Node22&#45;&gt;Node23 -->
<g id="edge23_Node000022_Node000023" class="edge">
<title>Node22&#45;&gt;Node23</title>
<g id="a_edge23_Node000022_Node000023"><a xlink:title=" ">
<path fill="none" stroke="#63b8ff" d="M848.16,-267C862.05,-267 876.54,-267 890.64,-267"/>
<polygon fill="#63b8ff" stroke="#63b8ff" points="890.82,-270.5 900.82,-267 890.82,-263.5 890.82,-270.5"/>
</a>
</g>
</g>
<!-- Node25 -->
<g id="Node000025" class="node">
<title>Node25</title>
<g id="a_Node000025"><a xlink:href="../../df/da8/classTerraria_1_1GameContent_1_1UI_1_1Elements_1_1UIText_a6b38a5021c0225460c802dc8376d39ac.html#a6b38a5021c0225460c802dc8376d39ac" target="_top" xlink:title=" ">
<polygon fill="white" stroke="#666666" points="1070,-330 897,-330 897,-300 1070,-300 1070,-330"/>
<text text-anchor="start" x="905" y="-318" font-family="Helvetica,sans-Serif" font-size="10.00">Terraria.GameContent.UI.</text>
<text text-anchor="middle" x="983.5" y="-307" font-family="Helvetica,sans-Serif" font-size="10.00">Elements.UIText.InternalSetText</text>
</a>
</g>
</g>
<!-- Node24&#45;&gt;Node25 -->
<g id="edge25_Node000024_Node000025" class="edge">
<title>Node24&#45;&gt;Node25</title>
<g id="a_edge25_Node000024_Node000025"><a xlink:title=" ">
<path fill="none" stroke="#63b8ff" d="M834.12,-315C850.75,-315 868.82,-315 886.44,-315"/>
<polygon fill="#63b8ff" stroke="#63b8ff" points="886.75,-318.5 896.75,-315 886.75,-311.5 886.75,-318.5"/>
</a>
</g>
</g>
<!-- Node26 -->
<g id="Node000026" class="node">
<title>Node26</title>
<g id="a_Node000026"><a xlink:href="../../d1/df5/classReLogic_1_1Graphics_1_1DynamicSpriteFont_a54aa9b0922188fe24854b32231ceae78.html#a54aa9b0922188fe24854b32231ceae78" target="_top" xlink:title=" ">
<polygon fill="white" stroke="#666666" points="1282,-269 1117,-269 1117,-239 1282,-239 1282,-269"/>
<text text-anchor="start" x="1125" y="-257" font-family="Helvetica,sans-Serif" font-size="10.00">ReLogic.Graphics.Dynamic</text>
<text text-anchor="middle" x="1199.5" y="-246" font-family="Helvetica,sans-Serif" font-size="10.00">SpriteFont.CreateWrappedText</text>
</a>
</g>
</g>
<!-- Node25&#45;&gt;Node26 -->
<g id="edge26_Node000025_Node000026" class="edge">
<title>Node25&#45;&gt;Node26</title>
<g id="a_edge26_Node000025_Node000026"><a xlink:title=" ">
<path fill="none" stroke="#63b8ff" d="M1043.16,-299.96C1054.1,-297.05 1065.41,-293.99 1076,-291 1097.04,-285.07 1120,-278.23 1140.3,-272.06"/>
<polygon fill="#63b8ff" stroke="#63b8ff" points="1141.49,-275.35 1150.04,-269.09 1139.45,-268.66 1141.49,-275.35"/>
</a>
</g>
</g>
<!-- Node27 -->
<g id="Node000027" class="node">
<title>Node27</title>
<g id="a_Node000027"><a xlink:href="../../d7/d72/classTerraria_1_1UI_1_1UIElement_a5ad03f5ce0e776511a3b7e4a29e16caf.html#a5ad03f5ce0e776511a3b7e4a29e16caf" target="_top" xlink:title=" ">
<polygon fill="white" stroke="#666666" points="1270,-221 1129,-221 1129,-191 1270,-191 1270,-221"/>
<text text-anchor="start" x="1137" y="-209" font-family="Helvetica,sans-Serif" font-size="10.00">Terraria.UI.UIElement.Get</text>
<text text-anchor="middle" x="1199.5" y="-198" font-family="Helvetica,sans-Serif" font-size="10.00">InnerDimensions</text>
</a>
</g>
</g>
<!-- Node25&#45;&gt;Node27 -->
<g id="edge28_Node000025_Node000027" class="edge">
<title>Node25&#45;&gt;Node27</title>
<g id="a_edge28_Node000025_Node000027"><a xlink:title=" ">
<path fill="none" stroke="#63b8ff" d="M1061.08,-299.97C1066.37,-297.43 1071.41,-294.47 1076,-291 1101.12,-272.02 1087.02,-249.16 1112,-230 1114.46,-228.12 1117.05,-226.38 1119.75,-224.78"/>
<polygon fill="#63b8ff" stroke="#63b8ff" points="1121.43,-227.85 1128.68,-220.12 1118.19,-221.65 1121.43,-227.85"/>
</a>
</g>
</g>
<!-- Node28 -->
<g id="Node000028" class="node">
<title>Node28</title>
<g id="a_Node000028"><a xlink:href="../../d1/df5/classReLogic_1_1Graphics_1_1DynamicSpriteFont_a49e4a12c0f6e26ca73b5c3d95d0197b2.html#a49e4a12c0f6e26ca73b5c3d95d0197b2" target="_top" xlink:title=" ">
<polygon fill="white" stroke="#666666" points="1273,-373 1126,-373 1126,-343 1273,-343 1273,-373"/>
<text text-anchor="start" x="1134" y="-361" font-family="Helvetica,sans-Serif" font-size="10.00">ReLogic.Graphics.Dynamic</text>
<text text-anchor="middle" x="1199.5" y="-350" font-family="Helvetica,sans-Serif" font-size="10.00">SpriteFont.MeasureString</text>
</a>
</g>
</g>
<!-- Node25&#45;&gt;Node28 -->
<g id="edge29_Node000025_Node000028" class="edge">
<title>Node25&#45;&gt;Node28</title>
<g id="a_edge29_Node000025_Node000028"><a xlink:title=" ">
<path fill="none" stroke="#63b8ff" d="M1059.35,-330.04C1077.63,-333.71 1097.3,-337.67 1115.93,-341.41"/>
<polygon fill="#63b8ff" stroke="#63b8ff" points="1115.36,-344.87 1125.86,-343.4 1116.74,-338 1115.36,-344.87"/>
</a>
</g>
</g>
<!-- Node30 -->
<g id="Node000030" class="node">
<title>Node30</title>
<g id="a_Node000030"><a xlink:href="../../d8/d74/structTerraria_1_1UI_1_1StyleDimension_a93e6acf229427c6435d7ee83958efba0.html#a93e6acf229427c6435d7ee83958efba0" target="_top" xlink:title=" ">
<polygon fill="white" stroke="#666666" points="1282.5,-324.5 1116.5,-324.5 1116.5,-305.5 1282.5,-305.5 1282.5,-324.5"/>
<text text-anchor="middle" x="1199.5" y="-312.5" font-family="Helvetica,sans-Serif" font-size="10.00">Terraria.UI.StyleDimension.Set</text>
</a>
</g>
</g>
<!-- Node25&#45;&gt;Node30 -->
<g id="edge31_Node000025_Node000030" class="edge">
<title>Node25&#45;&gt;Node30</title>
<g id="a_edge31_Node000025_Node000030"><a xlink:title=" ">
<path fill="none" stroke="#63b8ff" d="M1070,-315C1081.92,-315 1094.2,-315 1106.23,-315"/>
<polygon fill="#63b8ff" stroke="#63b8ff" points="1106.27,-318.5 1116.27,-315 1106.27,-311.5 1106.27,-318.5"/>
</a>
</g>
</g>
<!-- Node26&#45;&gt;Node26 -->
<g id="edge27_Node000026_Node000026" class="edge">
<title>Node26&#45;&gt;Node26</title>
<g id="a_edge27_Node000026_Node000026"><a xlink:title=" ">
<path fill="none" stroke="#63b8ff" d="M1161.88,-269.28C1153.52,-278.41 1166.06,-287 1199.5,-287 1219.35,-287 1231.84,-283.97 1236.96,-279.6"/>
<polygon fill="#63b8ff" stroke="#63b8ff" points="1240.46,-279.33 1237.12,-269.28 1233.46,-279.22 1240.46,-279.33"/>
</a>
</g>
</g>
<!-- Node29 -->
<g id="Node000029" class="node">
<title>Node29</title>
<g id="a_Node000029"><a xlink:href="../../d1/df5/classReLogic_1_1Graphics_1_1DynamicSpriteFont_a9bd1064ef52867d336c09d84817f9e34.html#a9bd1064ef52867d336c09d84817f9e34" target="_top" xlink:title=" ">
<polygon fill="white" stroke="#666666" points="1493.5,-373 1336.5,-373 1336.5,-343 1493.5,-343 1493.5,-373"/>
<text text-anchor="start" x="1344.5" y="-361" font-family="Helvetica,sans-Serif" font-size="10.00">ReLogic.Graphics.Dynamic</text>
<text text-anchor="middle" x="1415" y="-350" font-family="Helvetica,sans-Serif" font-size="10.00">SpriteFont.GetCharacterData</text>
</a>
</g>
</g>
<!-- Node28&#45;&gt;Node29 -->
<g id="edge30_Node000028_Node000029" class="edge">
<title>Node28&#45;&gt;Node29</title>
<g id="a_edge30_Node000028_Node000029"><a xlink:title=" ">
<path fill="none" stroke="#63b8ff" d="M1273.08,-358C1290.06,-358 1308.32,-358 1325.89,-358"/>
<polygon fill="#63b8ff" stroke="#63b8ff" points="1326.14,-361.5 1336.14,-358 1326.14,-354.5 1326.14,-361.5"/>
</a>
</g>
</g>
<!-- Node32 -->
<g id="Node000032" class="node">
<title>Node32</title>
<g id="a_Node000032"><a xlink:href="../../d8/d74/structTerraria_1_1UI_1_1StyleDimension_aa443ecdcb3b3f8237c37aac947d9ef9d.html#aa443ecdcb3b3f8237c37aac947d9ef9d" target="_top" xlink:title=" ">
<polygon fill="white" stroke="#666666" points="839,-114 689,-114 689,-84 839,-84 839,-114"/>
<text text-anchor="start" x="697" y="-102" font-family="Helvetica,sans-Serif" font-size="10.00">Terraria.UI.StyleDimension.</text>
<text text-anchor="middle" x="764" y="-91" font-family="Helvetica,sans-Serif" font-size="10.00">StyleDimension</text>
</a>
</g>
</g>
<!-- Node31&#45;&gt;Node32 -->
<g id="edge33_Node000031_Node000032" class="edge">
<title>Node31&#45;&gt;Node32</title>
<g id="a_edge33_Node000031_Node000032"><a xlink:title=" ">
<path fill="none" stroke="#63b8ff" d="M608.46,-166.98C618.12,-164.28 627.88,-161.27 637,-158 667.65,-147.02 700.95,-131.25 725.62,-118.77"/>
<polygon fill="#63b8ff" stroke="#63b8ff" points="727.31,-121.84 734.62,-114.17 724.13,-115.6 727.31,-121.84"/>
</a>
</g>
</g>
<!-- Node33&#45;&gt;Node32 -->
<g id="edge35_Node000033_Node000032" class="edge">
<title>Node33&#45;&gt;Node32</title>
<g id="a_edge35_Node000033_Node000032"><a xlink:title=" ">
<path fill="none" stroke="#63b8ff" d="M608.73,-30.04C618.3,-32.73 627.97,-35.73 637,-39 667.91,-50.18 701.44,-66.37 726.14,-79.11"/>
<polygon fill="#63b8ff" stroke="#63b8ff" points="724.67,-82.28 735.15,-83.8 727.9,-76.08 724.67,-82.28"/>
</a>
</g>
</g>
<!-- Node36&#45;&gt;Node22 -->
<g id="edge40_Node000036_Node000022" class="edge">
<title>Node36&#45;&gt;Node22</title>
<g id="a_edge40_Node000036_Node000022"><a xlink:title=" ">
<path fill="none" stroke="#63b8ff" d="M610.9,-312.47C619.7,-309.69 628.58,-306.82 637,-304 653.13,-298.6 656.77,-296.09 673,-291 679.79,-288.87 686.9,-286.77 694.03,-284.74"/>
<polygon fill="#63b8ff" stroke="#63b8ff" points="695.04,-288.09 703.73,-282.03 693.16,-281.35 695.04,-288.09"/>
</a>
</g>
</g>
<!-- Node36&#45;&gt;Node24 -->
<g id="edge41_Node000036_Node000024" class="edge">
<title>Node36&#45;&gt;Node24</title>
<g id="a_edge41_Node000036_Node000024"><a xlink:title=" ">
<path fill="none" stroke="#63b8ff" d="M637.26,-325.29C652.7,-324.02 668.57,-322.73 683.61,-321.5"/>
<polygon fill="#63b8ff" stroke="#63b8ff" points="684.19,-324.96 693.87,-320.66 683.62,-317.98 684.19,-324.96"/>
</a>
</g>
</g>
</g>
</svg>
