<?xml version="1.0" encoding="UTF-8" standalone="no"?>
<!DOCTYPE svg PUBLIC "-//W3C//DTD SVG 1.1//EN"
 "http://www.w3.org/Graphics/SVG/1.1/DTD/svg11.dtd">
<!-- Generated by graphviz version 2.43.0 (0)
 -->
<!-- Title: Terraria.GameContent.UI.States.UIWorkshopHub.Draw Pages: 1 -->
<svg width="1687pt" height="306pt"
 viewBox="0.00 0.00 1687.00 306.00" xmlns="http://www.w3.org/2000/svg" xmlns:xlink="http://www.w3.org/1999/xlink">
<g id="graph0" class="graph" transform="scale(1 1) rotate(0) translate(4 302)">
<title>Terraria.GameContent.UI.States.UIWorkshopHub.Draw</title>
<!-- Node1 -->
<g id="Node000001" class="node">
<title>Node1</title>
<g id="a_Node000001"><a xlink:title=" ">
<polygon fill="#999999" stroke="#666666" points="157,-105 0,-105 0,-75 157,-75 157,-105"/>
<text text-anchor="start" x="8" y="-93" font-family="Helvetica,sans-Serif" font-size="10.00">Terraria.GameContent.UI.</text>
<text text-anchor="middle" x="78.5" y="-82" font-family="Helvetica,sans-Serif" font-size="10.00">States.UIWorkshopHub.Draw</text>
</a>
</g>
</g>
<!-- Node2 -->
<g id="Node000002" class="node">
<title>Node2</title>
<g id="a_Node000002"><a xlink:href="../../d5/d68/classTerraria_1_1GameContent_1_1UI_1_1States_1_1UIWorkshopHub_aeaa96b6d8c48d9ba85b96daf84187270.html#aeaa96b6d8c48d9ba85b96daf84187270" target="_top" xlink:title=" ">
<polygon fill="white" stroke="#666666" points="399,-110.5 193,-110.5 193,-69.5 399,-69.5 399,-110.5"/>
<text text-anchor="start" x="201" y="-98.5" font-family="Helvetica,sans-Serif" font-size="10.00">Terraria.GameContent.UI.</text>
<text text-anchor="start" x="201" y="-87.5" font-family="Helvetica,sans-Serif" font-size="10.00">States.UIWorkshopHub.SetupGamepad</text>
<text text-anchor="middle" x="296" y="-76.5" font-family="Helvetica,sans-Serif" font-size="10.00">Points</text>
</a>
</g>
</g>
<!-- Node1&#45;&gt;Node2 -->
<g id="edge1_Node000001_Node000002" class="edge">
<title>Node1&#45;&gt;Node2</title>
<g id="a_edge1_Node000001_Node000002"><a xlink:title=" ">
<path fill="none" stroke="#63b8ff" d="M157.3,-90C165.62,-90 174.2,-90 182.81,-90"/>
<polygon fill="#63b8ff" stroke="#63b8ff" points="182.93,-93.5 192.93,-90 182.93,-86.5 182.93,-93.5"/>
</a>
</g>
</g>
<!-- Node3 -->
<g id="Node000003" class="node">
<title>Node3</title>
<g id="a_Node000003"><a xlink:href="../../d5/db9/structTerraria_1_1GameContent_1_1UI_1_1States_1_1UIGamepadHelper_a95d82f5db62a67594d1bb04d320d3d6d.html#a95d82f5db62a67594d1bb04d320d3d6d" target="_top" xlink:title=" ">
<polygon fill="white" stroke="#666666" points="640,-192 435,-192 435,-162 640,-162 640,-192"/>
<text text-anchor="start" x="443" y="-180" font-family="Helvetica,sans-Serif" font-size="10.00">Terraria.GameContent.UI.</text>
<text text-anchor="middle" x="537.5" y="-169" font-family="Helvetica,sans-Serif" font-size="10.00">States.UIGamepadHelper.GetLinkPoint</text>
</a>
</g>
</g>
<!-- Node2&#45;&gt;Node3 -->
<g id="edge2_Node000002_Node000003" class="edge">
<title>Node2&#45;&gt;Node3</title>
<g id="a_edge2_Node000002_Node000003"><a xlink:title=" ">
<path fill="none" stroke="#63b8ff" d="M343.48,-110.62C370.02,-122.03 404.08,-136.08 435,-147 446.83,-151.18 459.56,-155.26 471.88,-159"/>
<polygon fill="#63b8ff" stroke="#63b8ff" points="471.06,-162.41 481.64,-161.92 473.07,-155.7 471.06,-162.41"/>
</a>
</g>
</g>
<!-- Node11 -->
<g id="Node000011" class="node">
<title>Node11</title>
<g id="a_Node000011"><a xlink:href="../../d5/db9/structTerraria_1_1GameContent_1_1UI_1_1States_1_1UIGamepadHelper_afcce651141074d2329822cbead6f9a37.html#afcce651141074d2329822cbead6f9a37" target="_top" xlink:title=" ">
<polygon fill="white" stroke="#666666" points="627.5,-137.5 447.5,-137.5 447.5,-96.5 627.5,-96.5 627.5,-137.5"/>
<text text-anchor="start" x="455.5" y="-125.5" font-family="Helvetica,sans-Serif" font-size="10.00">Terraria.GameContent.UI.</text>
<text text-anchor="start" x="455.5" y="-114.5" font-family="Helvetica,sans-Serif" font-size="10.00">States.UIGamepadHelper.MoveTo</text>
<text text-anchor="middle" x="537.5" y="-103.5" font-family="Helvetica,sans-Serif" font-size="10.00">VisuallyClosestPoint</text>
</a>
</g>
</g>
<!-- Node2&#45;&gt;Node11 -->
<g id="edge10_Node000002_Node000011" class="edge">
<title>Node2&#45;&gt;Node11</title>
<g id="a_edge10_Node000002_Node000011"><a xlink:title=" ">
<path fill="none" stroke="#63b8ff" d="M399.26,-101.53C411.9,-102.95 424.81,-104.41 437.4,-105.83"/>
<polygon fill="#63b8ff" stroke="#63b8ff" points="437.09,-109.32 447.42,-106.96 437.88,-102.36 437.09,-109.32"/>
</a>
</g>
</g>
<!-- Node18 -->
<g id="Node000018" class="node">
<title>Node18</title>
<g id="a_Node000018"><a xlink:href="../../d5/db9/structTerraria_1_1GameContent_1_1UI_1_1States_1_1UIGamepadHelper_a6997d730f4f696d04984c02adcc1be26.html#a6997d730f4f696d04984c02adcc1be26" target="_top" xlink:title=" ">
<polygon fill="white" stroke="#666666" points="639.5,-78 435.5,-78 435.5,-48 639.5,-48 639.5,-78"/>
<text text-anchor="start" x="443.5" y="-66" font-family="Helvetica,sans-Serif" font-size="10.00">Terraria.GameContent.UI.</text>
<text text-anchor="middle" x="537.5" y="-55" font-family="Helvetica,sans-Serif" font-size="10.00">States.UIGamepadHelper.PairLeftRight</text>
</a>
</g>
</g>
<!-- Node2&#45;&gt;Node18 -->
<g id="edge18_Node000002_Node000018" class="edge">
<title>Node2&#45;&gt;Node18</title>
<g id="a_edge18_Node000002_Node000018"><a xlink:title=" ">
<path fill="none" stroke="#63b8ff" d="M399.26,-78.47C407.85,-77.5 416.57,-76.52 425.22,-75.55"/>
<polygon fill="#63b8ff" stroke="#63b8ff" points="425.8,-79 435.34,-74.4 425.01,-72.05 425.8,-79"/>
</a>
</g>
</g>
<!-- Node19 -->
<g id="Node000019" class="node">
<title>Node19</title>
<g id="a_Node000019"><a xlink:href="../../d5/db9/structTerraria_1_1GameContent_1_1UI_1_1States_1_1UIGamepadHelper_a7b314cc46f76bc189d50b2fa0a925b57.html#a7b314cc46f76bc189d50b2fa0a925b57" target="_top" xlink:title=" ">
<polygon fill="white" stroke="#666666" points="638.5,-30 436.5,-30 436.5,0 638.5,0 638.5,-30"/>
<text text-anchor="start" x="444.5" y="-18" font-family="Helvetica,sans-Serif" font-size="10.00">Terraria.GameContent.UI.</text>
<text text-anchor="middle" x="537.5" y="-7" font-family="Helvetica,sans-Serif" font-size="10.00">States.UIGamepadHelper.PairUpDown</text>
</a>
</g>
</g>
<!-- Node2&#45;&gt;Node19 -->
<g id="edge19_Node000002_Node000019" class="edge">
<title>Node2&#45;&gt;Node19</title>
<g id="a_edge19_Node000002_Node000019"><a xlink:title=" ">
<path fill="none" stroke="#63b8ff" d="M347.94,-69.49C373.77,-59.52 405.78,-47.82 435,-39 442.44,-36.76 450.23,-34.59 458.05,-32.54"/>
<polygon fill="#63b8ff" stroke="#63b8ff" points="459.13,-35.88 467.95,-30.01 457.39,-29.1 459.13,-35.88"/>
</a>
</g>
</g>
<!-- Node4 -->
<g id="Node000004" class="node">
<title>Node4</title>
<g id="a_Node000004"><a xlink:href="../../d7/d72/classTerraria_1_1UI_1_1UIElement_a9109cc8df866b3b0e14bb7dda7dd9e15.html#a9109cc8df866b3b0e14bb7dda7dd9e15" target="_top" xlink:title=" ">
<polygon fill="white" stroke="#666666" points="841,-264 700,-264 700,-234 841,-234 841,-264"/>
<text text-anchor="start" x="708" y="-252" font-family="Helvetica,sans-Serif" font-size="10.00">Terraria.UI.UIElement.Get</text>
<text text-anchor="middle" x="770.5" y="-241" font-family="Helvetica,sans-Serif" font-size="10.00">SnapPoint</text>
</a>
</g>
</g>
<!-- Node3&#45;&gt;Node4 -->
<g id="edge3_Node000003_Node000004" class="edge">
<title>Node3&#45;&gt;Node4</title>
<g id="a_edge3_Node000003_Node000004"><a xlink:title=" ">
<path fill="none" stroke="#63b8ff" d="M586.64,-192.01C622.81,-203.28 672.53,-218.78 711,-230.77"/>
<polygon fill="#63b8ff" stroke="#63b8ff" points="710.43,-234.26 721.02,-233.89 712.52,-227.57 710.43,-234.26"/>
</a>
</g>
</g>
<!-- Node8 -->
<g id="Node000008" class="node">
<title>Node8</title>
<g id="a_Node000008"><a xlink:href="../../d5/db9/structTerraria_1_1GameContent_1_1UI_1_1States_1_1UIGamepadHelper_ade7febeefe8a852efe78cc1e5461b2c2.html#ade7febeefe8a852efe78cc1e5461b2c2" target="_top" xlink:title=" ">
<polygon fill="white" stroke="#666666" points="865,-197.5 676,-197.5 676,-156.5 865,-156.5 865,-197.5"/>
<text text-anchor="start" x="684" y="-185.5" font-family="Helvetica,sans-Serif" font-size="10.00">Terraria.GameContent.UI.</text>
<text text-anchor="start" x="684" y="-174.5" font-family="Helvetica,sans-Serif" font-size="10.00">States.UIGamepadHelper.MakeLink</text>
<text text-anchor="middle" x="770.5" y="-163.5" font-family="Helvetica,sans-Serif" font-size="10.00">PointFromSnapPoint</text>
</a>
</g>
</g>
<!-- Node3&#45;&gt;Node8 -->
<g id="edge7_Node000003_Node000008" class="edge">
<title>Node3&#45;&gt;Node8</title>
<g id="a_edge7_Node000003_Node000008"><a xlink:title=" ">
<path fill="none" stroke="#63b8ff" d="M640.16,-177C648.59,-177 657.12,-177 665.57,-177"/>
<polygon fill="#63b8ff" stroke="#63b8ff" points="665.83,-180.5 675.83,-177 665.83,-173.5 665.83,-180.5"/>
</a>
</g>
</g>
<!-- Node5 -->
<g id="Node000005" class="node">
<title>Node5</title>
<g id="a_Node000005"><a xlink:href="../../da/d90/classTerraria_1_1UI_1_1SnapPoint_a1ee689cd010e6ada067cb86366b22ebb.html#a1ee689cd010e6ada067cb86366b22ebb" target="_top" xlink:title=" ">
<polygon fill="white" stroke="#666666" points="1070,-268.5 903,-268.5 903,-249.5 1070,-249.5 1070,-268.5"/>
<text text-anchor="middle" x="986.5" y="-256.5" font-family="Helvetica,sans-Serif" font-size="10.00">Terraria.UI.SnapPoint.Calculate</text>
</a>
</g>
</g>
<!-- Node4&#45;&gt;Node5 -->
<g id="edge4_Node000004_Node000005" class="edge">
<title>Node4&#45;&gt;Node5</title>
<g id="a_edge4_Node000004_Node000005"><a xlink:title=" ">
<path fill="none" stroke="#63b8ff" d="M841.28,-252.26C857.69,-253.03 875.44,-253.86 892.69,-254.66"/>
<polygon fill="#63b8ff" stroke="#63b8ff" points="892.62,-258.16 902.78,-255.13 892.95,-251.17 892.62,-258.16"/>
</a>
</g>
</g>
<!-- Node6 -->
<g id="Node000006" class="node">
<title>Node6</title>
<g id="a_Node000006"><a xlink:href="../../d7/d72/classTerraria_1_1UI_1_1UIElement_abeb7b32927c9b86a4b1a4139e45ac6a5.html#abeb7b32927c9b86a4b1a4139e45ac6a5" target="_top" xlink:title=" ">
<polygon fill="white" stroke="#666666" points="1266,-298 1125,-298 1125,-268 1266,-268 1266,-298"/>
<text text-anchor="start" x="1133" y="-286" font-family="Helvetica,sans-Serif" font-size="10.00">Terraria.UI.UIElement.Get</text>
<text text-anchor="middle" x="1195.5" y="-275" font-family="Helvetica,sans-Serif" font-size="10.00">Dimensions</text>
</a>
</g>
</g>
<!-- Node5&#45;&gt;Node6 -->
<g id="edge5_Node000005_Node000006" class="edge">
<title>Node5&#45;&gt;Node6</title>
<g id="a_edge5_Node000005_Node000006"><a xlink:title=" ">
<path fill="none" stroke="#63b8ff" d="M1069.61,-268.52C1084.47,-270.24 1099.94,-272.04 1114.73,-273.75"/>
<polygon fill="#63b8ff" stroke="#63b8ff" points="1114.51,-277.25 1124.84,-274.92 1115.31,-270.3 1114.51,-277.25"/>
</a>
</g>
</g>
<!-- Node7 -->
<g id="Node000007" class="node">
<title>Node7</title>
<g id="a_Node000007"><a xlink:href="../../d6/d3a/structTerraria_1_1UI_1_1CalculatedStyle_a24bb5d3a4f7c0820490f85397407eb4a.html#a24bb5d3a4f7c0820490f85397407eb4a" target="_top" xlink:title=" ">
<polygon fill="white" stroke="#666666" points="1270,-250 1121,-250 1121,-220 1270,-220 1270,-250"/>
<text text-anchor="start" x="1129" y="-238" font-family="Helvetica,sans-Serif" font-size="10.00">Terraria.UI.CalculatedStyle.</text>
<text text-anchor="middle" x="1195.5" y="-227" font-family="Helvetica,sans-Serif" font-size="10.00">Position</text>
</a>
</g>
</g>
<!-- Node5&#45;&gt;Node7 -->
<g id="edge6_Node000005_Node000007" class="edge">
<title>Node5&#45;&gt;Node7</title>
<g id="a_edge6_Node000005_Node000007"><a xlink:title=" ">
<path fill="none" stroke="#63b8ff" d="M1069.61,-249.48C1083.1,-247.92 1097.1,-246.29 1110.64,-244.72"/>
<polygon fill="#63b8ff" stroke="#63b8ff" points="1111.35,-248.16 1120.88,-243.54 1110.54,-241.21 1111.35,-248.16"/>
</a>
</g>
</g>
<!-- Node9 -->
<g id="Node000009" class="node">
<title>Node9</title>
<g id="a_Node000009"><a xlink:href="../../d4/dc5/classTerraria_1_1UI_1_1Gamepad_1_1UILinkPointNavigator_ac28776d33a359203c79dd1d72f217981.html#ac28776d33a359203c79dd1d72f217981" target="_top" xlink:title=" ">
<polygon fill="white" stroke="#666666" points="1062,-231 911,-231 911,-201 1062,-201 1062,-231"/>
<text text-anchor="start" x="919" y="-219" font-family="Helvetica,sans-Serif" font-size="10.00">Terraria.UI.Gamepad.UILink</text>
<text text-anchor="middle" x="986.5" y="-208" font-family="Helvetica,sans-Serif" font-size="10.00">PointNavigator.SetPosition</text>
</a>
</g>
</g>
<!-- Node8&#45;&gt;Node9 -->
<g id="edge8_Node000008_Node000009" class="edge">
<title>Node8&#45;&gt;Node9</title>
<g id="a_edge8_Node000008_Node000009"><a xlink:title=" ">
<path fill="none" stroke="#63b8ff" d="M865.05,-194.05C876.88,-196.21 888.94,-198.4 900.62,-200.53"/>
<polygon fill="#63b8ff" stroke="#63b8ff" points="900.31,-204.03 910.78,-202.38 901.57,-197.15 900.31,-204.03"/>
</a>
</g>
</g>
<!-- Node10 -->
<g id="Node000010" class="node">
<title>Node10</title>
<g id="a_Node000010"><a xlink:href="../../d6/d77/classTerraria_1_1UI_1_1Gamepad_1_1UILinkPoint_aa091207acb8050d129377df252b43495.html#aa091207acb8050d129377df252b43495" target="_top" xlink:title=" ">
<polygon fill="white" stroke="#666666" points="1062,-183 911,-183 911,-153 1062,-153 1062,-183"/>
<text text-anchor="start" x="919" y="-171" font-family="Helvetica,sans-Serif" font-size="10.00">Terraria.UI.Gamepad.UILink</text>
<text text-anchor="middle" x="986.5" y="-160" font-family="Helvetica,sans-Serif" font-size="10.00">Point.Unlink</text>
</a>
</g>
</g>
<!-- Node8&#45;&gt;Node10 -->
<g id="edge9_Node000008_Node000010" class="edge">
<title>Node8&#45;&gt;Node10</title>
<g id="a_edge9_Node000008_Node000010"><a xlink:title=" ">
<path fill="none" stroke="#63b8ff" d="M865.05,-173.07C876.88,-172.57 888.94,-172.06 900.62,-171.57"/>
<polygon fill="#63b8ff" stroke="#63b8ff" points="900.94,-175.06 910.78,-171.14 900.64,-168.07 900.94,-175.06"/>
</a>
</g>
</g>
<!-- Node12 -->
<g id="Node000012" class="node">
<title>Node12</title>
<g id="a_Node000012"><a xlink:href="../../d4/dc5/classTerraria_1_1UI_1_1Gamepad_1_1UILinkPointNavigator_a777aac1c14d559cf80455e2e5e7322b4.html#a777aac1c14d559cf80455e2e5e7322b4" target="_top" xlink:title=" ">
<polygon fill="white" stroke="#666666" points="847,-125 694,-125 694,-95 847,-95 847,-125"/>
<text text-anchor="start" x="702" y="-113" font-family="Helvetica,sans-Serif" font-size="10.00">Terraria.UI.Gamepad.UILink</text>
<text text-anchor="middle" x="770.5" y="-102" font-family="Helvetica,sans-Serif" font-size="10.00">PointNavigator.ChangePoint</text>
</a>
</g>
</g>
<!-- Node11&#45;&gt;Node12 -->
<g id="edge11_Node000011_Node000012" class="edge">
<title>Node11&#45;&gt;Node12</title>
<g id="a_edge11_Node000011_Node000012"><a xlink:title=" ">
<path fill="none" stroke="#63b8ff" d="M627.81,-114.29C646.24,-113.74 665.6,-113.15 683.89,-112.59"/>
<polygon fill="#63b8ff" stroke="#63b8ff" points="684.04,-116.09 693.93,-112.29 683.83,-109.09 684.04,-116.09"/>
</a>
</g>
</g>
<!-- Node13 -->
<g id="Node000013" class="node">
<title>Node13</title>
<g id="a_Node000013"><a xlink:href="../../d4/dc5/classTerraria_1_1UI_1_1Gamepad_1_1UILinkPointNavigator_af5f96f175199246e97dad3c0537fe93d.html#af5f96f175199246e97dad3c0537fe93d" target="_top" xlink:title=" ">
<polygon fill="white" stroke="#666666" points="1072,-117 901,-117 901,-87 1072,-87 1072,-117"/>
<text text-anchor="start" x="909" y="-105" font-family="Helvetica,sans-Serif" font-size="10.00">Terraria.UI.Gamepad.UILink</text>
<text text-anchor="middle" x="986.5" y="-94" font-family="Helvetica,sans-Serif" font-size="10.00">PointNavigator.ProcessChanges</text>
</a>
</g>
</g>
<!-- Node12&#45;&gt;Node13 -->
<g id="edge12_Node000012_Node000013" class="edge">
<title>Node12&#45;&gt;Node13</title>
<g id="a_edge12_Node000012_Node000013"><a xlink:title=" ">
<path fill="none" stroke="#63b8ff" d="M847.25,-107.17C861.32,-106.64 876.17,-106.09 890.73,-105.54"/>
<polygon fill="#63b8ff" stroke="#63b8ff" points="890.88,-109.04 900.74,-105.17 890.62,-102.04 890.88,-109.04"/>
</a>
</g>
</g>
<!-- Node13&#45;&gt;Node13 -->
<g id="edge17_Node000013_Node000013" class="edge">
<title>Node13&#45;&gt;Node13</title>
<g id="a_edge17_Node000013_Node000013"><a xlink:title=" ">
<path fill="none" stroke="#63b8ff" d="M949.94,-117.28C941.81,-126.41 954,-135 986.5,-135 1005.8,-135 1017.93,-131.97 1022.91,-127.6"/>
<polygon fill="#63b8ff" stroke="#63b8ff" points="1026.41,-127.33 1023.06,-117.28 1019.41,-127.22 1026.41,-127.33"/>
</a>
</g>
</g>
<!-- Node14 -->
<g id="Node000014" class="node">
<title>Node14</title>
<g id="a_Node000014"><a xlink:href="../../d4/dc5/classTerraria_1_1UI_1_1Gamepad_1_1UILinkPointNavigator_a0cda74434ec0c5433d97c8590e7b6868.html#a0cda74434ec0c5433d97c8590e7b6868" target="_top" xlink:title=" ">
<polygon fill="white" stroke="#666666" points="1283,-141 1108,-141 1108,-111 1283,-111 1283,-141"/>
<text text-anchor="start" x="1116" y="-129" font-family="Helvetica,sans-Serif" font-size="10.00">Terraria.UI.Gamepad.UILink</text>
<text text-anchor="middle" x="1195.5" y="-118" font-family="Helvetica,sans-Serif" font-size="10.00">PointNavigator.GoToDefaultPage</text>
</a>
</g>
</g>
<!-- Node13&#45;&gt;Node14 -->
<g id="edge13_Node000013_Node000014" class="edge">
<title>Node13&#45;&gt;Node14</title>
<g id="a_edge13_Node000013_Node000014"><a xlink:title=" ">
<path fill="none" stroke="#63b8ff" d="M1072.29,-111.83C1080.72,-112.81 1089.32,-113.8 1097.85,-114.79"/>
<polygon fill="#63b8ff" stroke="#63b8ff" points="1097.49,-118.28 1107.83,-115.95 1098.3,-111.32 1097.49,-118.28"/>
</a>
</g>
</g>
<!-- Node17 -->
<g id="Node000017" class="node">
<title>Node17</title>
<g id="a_Node000017"><a xlink:href="../../d0/d91/classTerraria_1_1UI_1_1Gamepad_1_1UILinkPage_a00e5839c8d7499b2169a7c9a0899ab05.html#a00e5839c8d7499b2169a7c9a0899ab05" target="_top" xlink:title=" ">
<polygon fill="white" stroke="#666666" points="1271,-93 1120,-93 1120,-63 1271,-63 1271,-93"/>
<text text-anchor="start" x="1128" y="-81" font-family="Helvetica,sans-Serif" font-size="10.00">Terraria.UI.Gamepad.UILink</text>
<text text-anchor="middle" x="1195.5" y="-70" font-family="Helvetica,sans-Serif" font-size="10.00">Page.Leave</text>
</a>
</g>
</g>
<!-- Node13&#45;&gt;Node17 -->
<g id="edge16_Node000013_Node000017" class="edge">
<title>Node13&#45;&gt;Node17</title>
<g id="a_edge16_Node000013_Node000017"><a xlink:title=" ">
<path fill="none" stroke="#63b8ff" d="M1072.29,-92.17C1084.59,-90.74 1097.26,-89.27 1109.56,-87.85"/>
<polygon fill="#63b8ff" stroke="#63b8ff" points="1110.26,-91.29 1119.79,-86.66 1109.45,-84.34 1110.26,-91.29"/>
</a>
</g>
</g>
<!-- Node15 -->
<g id="Node000015" class="node">
<title>Node15</title>
<g id="a_Node000015"><a xlink:href="../../d4/d52/structTerraria_1_1DataStructures_1_1PlayerInteractionAnchor_ae34349c65bee51c051ecef7f357cd957.html#ae34349c65bee51c051ecef7f357cd957" target="_top" xlink:title=" ">
<polygon fill="white" stroke="#666666" points="1490,-146.5 1319,-146.5 1319,-105.5 1490,-105.5 1490,-146.5"/>
<text text-anchor="start" x="1327" y="-134.5" font-family="Helvetica,sans-Serif" font-size="10.00">Terraria.DataStructures.</text>
<text text-anchor="start" x="1327" y="-123.5" font-family="Helvetica,sans-Serif" font-size="10.00">PlayerInteractionAnchor.GetTile</text>
<text text-anchor="middle" x="1404.5" y="-112.5" font-family="Helvetica,sans-Serif" font-size="10.00">Entity</text>
</a>
</g>
</g>
<!-- Node14&#45;&gt;Node15 -->
<g id="edge14_Node000014_Node000015" class="edge">
<title>Node14&#45;&gt;Node15</title>
<g id="a_edge14_Node000014_Node000015"><a xlink:title=" ">
<path fill="none" stroke="#63b8ff" d="M1283.09,-126C1291.61,-126 1300.28,-126 1308.88,-126"/>
<polygon fill="#63b8ff" stroke="#63b8ff" points="1308.92,-129.5 1318.92,-126 1308.92,-122.5 1308.92,-129.5"/>
</a>
</g>
</g>
<!-- Node16 -->
<g id="Node000016" class="node">
<title>Node16</title>
<g id="a_Node000016"><a xlink:href="../../d4/d52/structTerraria_1_1DataStructures_1_1PlayerInteractionAnchor_aed923af41529fe1265f46ec23e36f19b.html#aed923af41529fe1265f46ec23e36f19b" target="_top" xlink:title=" ">
<polygon fill="white" stroke="#666666" points="1679,-146.5 1526,-146.5 1526,-105.5 1679,-105.5 1679,-146.5"/>
<text text-anchor="start" x="1534" y="-134.5" font-family="Helvetica,sans-Serif" font-size="10.00">Terraria.DataStructures.</text>
<text text-anchor="start" x="1534" y="-123.5" font-family="Helvetica,sans-Serif" font-size="10.00">PlayerInteractionAnchor.IsIn</text>
<text text-anchor="middle" x="1602.5" y="-112.5" font-family="Helvetica,sans-Serif" font-size="10.00">ValidUseTileEntity</text>
</a>
</g>
</g>
<!-- Node15&#45;&gt;Node16 -->
<g id="edge15_Node000015_Node000016" class="edge">
<title>Node15&#45;&gt;Node16</title>
<g id="a_edge15_Node000015_Node000016"><a xlink:title=" ">
<path fill="none" stroke="#63b8ff" d="M1490.04,-126C1498.51,-126 1507.12,-126 1515.61,-126"/>
<polygon fill="#63b8ff" stroke="#63b8ff" points="1515.88,-129.5 1525.88,-126 1515.88,-122.5 1515.88,-129.5"/>
</a>
</g>
</g>
</g>
</svg>
