<?xml version="1.0" encoding="UTF-8" standalone="no"?>
<!DOCTYPE svg PUBLIC "-//W3C//DTD SVG 1.1//EN"
 "http://www.w3.org/Graphics/SVG/1.1/DTD/svg11.dtd">
<!-- Generated by graphviz version 2.43.0 (0)
 -->
<!-- Title: WorldFile.SaveWorld Pages: 1 -->
<svg width="507pt" height="127pt"
 viewBox="0.00 0.00 507.00 126.50" xmlns="http://www.w3.org/2000/svg" xmlns:xlink="http://www.w3.org/1999/xlink">
<g id="graph0" class="graph" transform="scale(1 1) rotate(0) translate(4 122.5)">
<title>WorldFile.SaveWorld</title>
<polygon fill="white" stroke="transparent" points="-4,4 -4,-122.5 503,-122.5 503,4 -4,4"/>
<!-- Node1 -->
<g id="node1" class="node">
<title>Node1</title>
<g id="a_node1"><a xlink:title=" ">
<polygon fill="#bfbfbf" stroke="black" points="0,-44.5 0,-63.5 116,-63.5 116,-44.5 0,-44.5"/>
<text text-anchor="middle" x="58" y="-51.5" font-family="Helvetica,sans-Serif" font-size="10.00">WorldFile.SaveWorld</text>
</a>
</g>
</g>
<!-- Node2 -->
<g id="node2" class="node">
<title>Node2</title>
<g id="a_node2"><a xlink:href="../../d2/db5/classFancyErrorPrinter_ac631699d9eda863162d56e3df1f21ed5.html#ac631699d9eda863162d56e3df1f21ed5" target="_top" xlink:title=" ">
<polygon fill="white" stroke="black" points="152,-39 152,-69 298,-69 298,-39 152,-39"/>
<text text-anchor="start" x="160" y="-57" font-family="Helvetica,sans-Serif" font-size="10.00">FancyErrorPrinter.ShowFile</text>
<text text-anchor="middle" x="225" y="-46" font-family="Helvetica,sans-Serif" font-size="10.00">SavingFailError</text>
</a>
</g>
</g>
<!-- Node1&#45;&gt;Node2 -->
<g id="edge1" class="edge">
<title>Node1&#45;&gt;Node2</title>
<path fill="none" stroke="midnightblue" d="M116.25,-54C124.47,-54 133.07,-54 141.67,-54"/>
<polygon fill="midnightblue" stroke="midnightblue" points="141.74,-57.5 151.74,-54 141.74,-50.5 141.74,-57.5"/>
</g>
<!-- Node3 -->
<g id="node3" class="node">
<title>Node3</title>
<g id="a_node3"><a xlink:href="../../d2/db5/classFancyErrorPrinter_a1d91602ad4df950adc522fe920bf9b96.html#a1d91602ad4df950adc522fe920bf9b96" target="_top" xlink:title=" ">
<polygon fill="white" stroke="black" points="347,-88 347,-118 486,-118 486,-88 347,-88"/>
<text text-anchor="start" x="355" y="-106" font-family="Helvetica,sans-Serif" font-size="10.00">FancyErrorPrinter.Append</text>
<text text-anchor="middle" x="416.5" y="-95" font-family="Helvetica,sans-Serif" font-size="10.00">Suggestions</text>
</a>
</g>
</g>
<!-- Node2&#45;&gt;Node3 -->
<g id="edge2" class="edge">
<title>Node2&#45;&gt;Node3</title>
<path fill="none" stroke="midnightblue" d="M284.14,-69.03C304.24,-74.23 326.94,-80.1 347.74,-85.48"/>
<polygon fill="midnightblue" stroke="midnightblue" points="346.91,-88.88 357.47,-87.99 348.66,-82.1 346.91,-88.88"/>
</g>
<!-- Node4 -->
<g id="node4" class="node">
<title>Node4</title>
<g id="a_node4"><a xlink:href="../../d2/db5/classFancyErrorPrinter_ade38e92a6c634afd9fbbe06f3522df0c.html#ade38e92a6c634afd9fbbe06f3522df0c" target="_top" xlink:title=" ">
<polygon fill="white" stroke="black" points="348,-39 348,-69 485,-69 485,-39 348,-39"/>
<text text-anchor="start" x="356" y="-57" font-family="Helvetica,sans-Serif" font-size="10.00">FancyErrorPrinter.Include</text>
<text text-anchor="middle" x="416.5" y="-46" font-family="Helvetica,sans-Serif" font-size="10.00">OriginalMessage</text>
</a>
</g>
</g>
<!-- Node2&#45;&gt;Node4 -->
<g id="edge3" class="edge">
<title>Node2&#45;&gt;Node4</title>
<path fill="none" stroke="midnightblue" d="M298.18,-54C311.06,-54 324.52,-54 337.55,-54"/>
<polygon fill="midnightblue" stroke="midnightblue" points="337.88,-57.5 347.88,-54 337.88,-50.5 337.88,-57.5"/>
</g>
<!-- Node5 -->
<g id="node5" class="node">
<title>Node5</title>
<g id="a_node5"><a xlink:href="../../d2/db5/classFancyErrorPrinter_a7c6a299ca0f16f2ee7432fb625c38ae0.html#a7c6a299ca0f16f2ee7432fb625c38ae0" target="_top" xlink:title=" ">
<polygon fill="white" stroke="black" points="334,-0.5 334,-19.5 499,-19.5 499,-0.5 334,-0.5"/>
<text text-anchor="middle" x="416.5" y="-7.5" font-family="Helvetica,sans-Serif" font-size="10.00">FancyErrorPrinter.ShowTheBox</text>
</a>
</g>
</g>
<!-- Node2&#45;&gt;Node5 -->
<g id="edge4" class="edge">
<title>Node2&#45;&gt;Node5</title>
<path fill="none" stroke="midnightblue" d="M290.69,-38.98C314.88,-33.36 341.98,-27.07 364.74,-21.79"/>
<polygon fill="midnightblue" stroke="midnightblue" points="365.58,-25.18 374.53,-19.51 364,-18.36 365.58,-25.18"/>
</g>
</g>
</svg>
