<?xml version="1.0" encoding="UTF-8" standalone="no"?>
<!DOCTYPE svg PUBLIC "-//W3C//DTD SVG 1.1//EN"
 "http://www.w3.org/Graphics/SVG/1.1/DTD/svg11.dtd">
<!-- Generated by graphviz version 2.43.0 (0)
 -->
<!-- Title: Terraria.Graphics.Effects.OverlayManager Pages: 1 -->
<!--zoomable 840 -->

<svg id="main" version="1.1" xmlns="http://www.w3.org/2000/svg" xmlns:xlink="http://www.w3.org/1999/xlink" xml:space="preserve" onload="init(evt)">
<style type="text/css"><![CDATA[
.node, .edge {opacity: 0.7;}
.node.selected, .edge.selected {opacity: 1;}
.edge:hover path { stroke: red; }
.edge:hover polygon { stroke: red; fill: red; }
]]></style>

<defs>
  <circle id="rim" cx="0" cy="0" r="7"/>
  <circle id="rim2" cx="0" cy="0" r="3.5"/>
  <g id="zoomPlus">
    <use xlink:href="#rim" fill="#404040"><set attributeName="fill" to="#808080" begin="zoomplus.mouseover" end="zoomplus.mouseout"/></use>
    <path d="M-4,0h8M0,-4v8" fill="none" stroke="white" stroke-width="1.5" pointer-events="none"/>
  </g>
  <g id="zoomMin">
    <use xlink:href="#rim" fill="#404040"><set attributeName="fill" to="#808080" begin="zoomminus.mouseover" end="zoomminus.mouseout"/></use>
    <path d="M-4,0h8" fill="none" stroke="white" stroke-width="1.5" pointer-events="none"/>
  </g>
  <g id="arrowUp" transform="translate(30 24)">
    <use xlink:href="#rim"/>
    <path pointer-events="none" fill="none" stroke="white" stroke-width="1.5" d="M0,-3.0v7 M-2.5,-0.5L0,-3.0L2.5,-0.5"/>
  </g>
  <g id="arrowRight" transform="rotate(90) translate(36 -43)">
    <use xlink:href="#rim"/>
    <path pointer-events="none" fill="none" stroke="white" stroke-width="1.5" d="M0,-3.0v7 M-2.5,-0.5L0,-3.0L2.5,-0.5"/>
  </g>
  <g id="arrowDown" transform="rotate(180) translate(-30 -48)">
    <use xlink:href="#rim"/>
    <path pointer-events="none" fill="none" stroke="white" stroke-width="1.5" d="M0,-3.0v7 M-2.5,-0.5L0,-3.0L2.5,-0.5"/>
  </g>
  <g id="arrowLeft" transform="rotate(270) translate(-36 17)">
    <use xlink:href="#rim"/>
    <path pointer-events="none" fill="none" stroke="white" stroke-width="1.5" d="M0,-3.0v7 M-2.5,-0.5L0,-3.0L2.5,-0.5"/>
  </g>
  <g id="resetDef">
    <use xlink:href="#rim2" fill="#404040"><set attributeName="fill" to="#808080" begin="reset.mouseover" end="reset.mouseout"/></use>
  </g>
</defs>
<script type="application/ecmascript">
var viewWidth = 161;
var viewHeight = 840;
var sectionId = 'dynsection-0';
</script>
<script type="application/ecmascript" xlink:href="../../svg.min.js"/>
<svg id="graph" class="graph">
<g id="viewport">
<title>Terraria.Graphics.Effects.OverlayManager</title>
<!-- Node1 -->
<g id="Node000001" class="node">
<title>Node1</title>
<g id="a_Node000001"><a xlink:title=" ">
<polygon fill="#999999" stroke="transparent" points="153,-201 0,-201 0,0 153,0 153,-201"/>
<text text-anchor="start" x="16" y="-188.5" font-family="Helvetica,sans-Serif" font-size="10.00">Terraria.Graphics.Effects.</text>
<text text-anchor="start" x="36" y="-177.5" font-family="Helvetica,sans-Serif" font-size="10.00">OverlayManager</text>
<text text-anchor="start" x="7" y="-162.5" font-family="Helvetica,sans-Serif" font-size="10.00">&#45;</text>
<text text-anchor="start" x="17.5" y="-162.5" font-family="Helvetica,sans-Serif" font-size="10.00">LinkedList&lt; Overlay</text>
<text text-anchor="start" x="17.5" y="-151.5" font-family="Helvetica,sans-Serif" font-size="10.00"> &gt;[] _activeOverlays</text>
<text text-anchor="start" x="7" y="-136.5" font-family="Helvetica,sans-Serif" font-size="10.00">&#45;</text>
<text text-anchor="start" x="17.5" y="-136.5" font-family="Helvetica,sans-Serif" font-size="10.00">int _overlayCount</text>
<text text-anchor="start" x="7" y="-121.5" font-family="Helvetica,sans-Serif" font-size="10.00">&#45;</text>
<text text-anchor="start" x="17.5" y="-121.5" font-family="Helvetica,sans-Serif" font-size="10.00">const float OPACITY_RATE</text>
<text text-anchor="start" x="4.5" y="-106.5" font-family="Helvetica,sans-Serif" font-size="10.00">+</text>
<text text-anchor="start" x="17.5" y="-106.5" font-family="Helvetica,sans-Serif" font-size="10.00">OverlayManager()</text>
<text text-anchor="start" x="4.5" y="-91.5" font-family="Helvetica,sans-Serif" font-size="10.00">+</text>
<text text-anchor="start" x="17.5" y="-91.5" font-family="Helvetica,sans-Serif" font-size="10.00">override void OnActivate</text>
<text text-anchor="start" x="17.5" y="-80.5" font-family="Helvetica,sans-Serif" font-size="10.00">(Overlay overlay, Vector2</text>
<text text-anchor="start" x="17.5" y="-69.5" font-family="Helvetica,sans-Serif" font-size="10.00"> position)</text>
<text text-anchor="start" x="4.5" y="-54.5" font-family="Helvetica,sans-Serif" font-size="10.00">+</text>
<text text-anchor="start" x="17.5" y="-54.5" font-family="Helvetica,sans-Serif" font-size="10.00">void Update(GameTime</text>
<text text-anchor="start" x="17.5" y="-43.5" font-family="Helvetica,sans-Serif" font-size="10.00"> gameTime)</text>
<text text-anchor="start" x="4.5" y="-28.5" font-family="Helvetica,sans-Serif" font-size="10.00">+</text>
<text text-anchor="start" x="17.5" y="-28.5" font-family="Helvetica,sans-Serif" font-size="10.00">void Draw(SpriteBatch</text>
<text text-anchor="start" x="17.5" y="-17.5" font-family="Helvetica,sans-Serif" font-size="10.00"> spriteBatch, RenderLayers</text>
<text text-anchor="start" x="17.5" y="-6.5" font-family="Helvetica,sans-Serif" font-size="10.00"> layer)</text>
<polygon fill="#666666" stroke="#666666" points="0.5,-172.5 0.5,-172.5 153.5,-172.5 153.5,-172.5 0.5,-172.5"/>
<polygon fill="#666666" stroke="#666666" points="0.5,-116.5 0.5,-116.5 15.5,-116.5 15.5,-116.5 0.5,-116.5"/>
<polygon fill="#666666" stroke="#666666" points="15.5,-116.5 15.5,-116.5 153.5,-116.5 153.5,-116.5 15.5,-116.5"/>
<polygon fill="none" stroke="#666666" points="0,0 0,-201 153,-201 153,0 0,0"/>
</a>
</g>
</g>
<!-- Node2 -->
<g id="Node000002" class="node">
<title>Node2</title>
<g id="a_Node000002"><a xlink:href="../../db/d00/classTerraria_1_1Graphics_1_1Effects_1_1EffectManager.html" target="_top" xlink:title=" ">
<polygon fill="white" stroke="transparent" points="152,-506 1,-506 1,-238 152,-238 152,-506"/>
<text text-anchor="start" x="11" y="-494" font-family="Helvetica,sans-Serif" font-size="10.00">EffectManager&lt; Overlay &gt;</text>
<text text-anchor="start" x="5.5" y="-479" font-family="Helvetica,sans-Serif" font-size="10.00">+</text>
<text text-anchor="start" x="18.5" y="-479" font-family="Helvetica,sans-Serif" font-size="10.00">bool IsLoaded</text>
<text text-anchor="start" x="5.5" y="-464" font-family="Helvetica,sans-Serif" font-size="10.00">+</text>
<text text-anchor="start" x="18.5" y="-464" font-family="Helvetica,sans-Serif" font-size="10.00">T this[string key]</text>
<text text-anchor="start" x="5.5" y="-449" font-family="Helvetica,sans-Serif" font-size="10.00">#</text>
<text text-anchor="start" x="18.5" y="-449" font-family="Helvetica,sans-Serif" font-size="10.00">bool _isLoaded</text>
<text text-anchor="start" x="5.5" y="-434" font-family="Helvetica,sans-Serif" font-size="10.00">#</text>
<text text-anchor="start" x="18.5" y="-434" font-family="Helvetica,sans-Serif" font-size="10.00">Dictionary&lt; string,</text>
<text text-anchor="start" x="18.5" y="-423" font-family="Helvetica,sans-Serif" font-size="10.00"> T &gt; _effects</text>
<text text-anchor="start" x="5.5" y="-408" font-family="Helvetica,sans-Serif" font-size="10.00">+</text>
<text text-anchor="start" x="18.5" y="-408" font-family="Helvetica,sans-Serif" font-size="10.00">void Bind(string name,</text>
<text text-anchor="start" x="18.5" y="-397" font-family="Helvetica,sans-Serif" font-size="10.00"> T effect)</text>
<text text-anchor="start" x="5.5" y="-382" font-family="Helvetica,sans-Serif" font-size="10.00">+</text>
<text text-anchor="start" x="18.5" y="-382" font-family="Helvetica,sans-Serif" font-size="10.00">void Load()</text>
<text text-anchor="start" x="5.5" y="-367" font-family="Helvetica,sans-Serif" font-size="10.00">+</text>
<text text-anchor="start" x="18.5" y="-367" font-family="Helvetica,sans-Serif" font-size="10.00">T Activate(string name,</text>
<text text-anchor="start" x="18.5" y="-356" font-family="Helvetica,sans-Serif" font-size="10.00"> Vector2 position=default</text>
<text text-anchor="start" x="18.5" y="-345" font-family="Helvetica,sans-Serif" font-size="10.00">(Vector2), params object</text>
<text text-anchor="start" x="18.5" y="-334" font-family="Helvetica,sans-Serif" font-size="10.00">[] args)</text>
<text text-anchor="start" x="5.5" y="-319" font-family="Helvetica,sans-Serif" font-size="10.00">+</text>
<text text-anchor="start" x="18.5" y="-319" font-family="Helvetica,sans-Serif" font-size="10.00">void Deactivate(string</text>
<text text-anchor="start" x="18.5" y="-308" font-family="Helvetica,sans-Serif" font-size="10.00"> name, params object[]</text>
<text text-anchor="start" x="18.5" y="-297" font-family="Helvetica,sans-Serif" font-size="10.00"> args)</text>
<text text-anchor="start" x="5.5" y="-282" font-family="Helvetica,sans-Serif" font-size="10.00">+</text>
<text text-anchor="start" x="18.5" y="-282" font-family="Helvetica,sans-Serif" font-size="10.00">virtual void OnActivate</text>
<text text-anchor="start" x="18.5" y="-271" font-family="Helvetica,sans-Serif" font-size="10.00">(T effect, Vector2 position)</text>
<text text-anchor="start" x="5.5" y="-256" font-family="Helvetica,sans-Serif" font-size="10.00">+</text>
<text text-anchor="start" x="18.5" y="-256" font-family="Helvetica,sans-Serif" font-size="10.00">virtual void OnDeactivate</text>
<text text-anchor="start" x="18.5" y="-245" font-family="Helvetica,sans-Serif" font-size="10.00">(T effect)</text>
<polygon fill="#666666" stroke="#666666" points="1.5,-489 1.5,-489 152.5,-489 152.5,-489 1.5,-489"/>
<polygon fill="#666666" stroke="#666666" points="1.5,-418 1.5,-418 16.5,-418 16.5,-418 1.5,-418"/>
<polygon fill="#666666" stroke="#666666" points="16.5,-418 16.5,-418 152.5,-418 152.5,-418 16.5,-418"/>
<polygon fill="none" stroke="#666666" points="1,-238 1,-506 152,-506 152,-238 1,-238"/>
</a>
</g>
</g>
<!-- Node2&#45;&gt;Node1 -->
<g id="edge1_Node000001_Node000002" class="edge">
<title>Node2&#45;&gt;Node1</title>
<g id="a_edge1_Node000001_Node000002"><a xlink:title=" ">
<path fill="none" stroke="#63b8ff" d="M76.5,-227.72C76.5,-218.77 76.5,-209.88 76.5,-201.19"/>
<polygon fill="none" stroke="#63b8ff" points="73,-227.83 76.5,-237.83 80,-227.83 73,-227.83"/>
</a>
</g>
</g>
<!-- Node3 -->
<g id="Node000003" class="node">
<title>Node3</title>
<g id="a_Node000003"><a xlink:href="../../db/d00/classTerraria_1_1Graphics_1_1Effects_1_1EffectManager.html" target="_top" xlink:title=" ">
<polygon fill="white" stroke="transparent" points="152,-832 1,-832 1,-553 152,-553 152,-832"/>
<text text-anchor="start" x="16" y="-819.5" font-family="Helvetica,sans-Serif" font-size="10.00">Terraria.Graphics.Effects.</text>
<text text-anchor="start" x="27" y="-808.5" font-family="Helvetica,sans-Serif" font-size="10.00">EffectManager&lt; T &gt;</text>
<text text-anchor="start" x="5.5" y="-793.5" font-family="Helvetica,sans-Serif" font-size="10.00">+</text>
<text text-anchor="start" x="18.5" y="-793.5" font-family="Helvetica,sans-Serif" font-size="10.00">bool IsLoaded</text>
<text text-anchor="start" x="5.5" y="-778.5" font-family="Helvetica,sans-Serif" font-size="10.00">+</text>
<text text-anchor="start" x="18.5" y="-778.5" font-family="Helvetica,sans-Serif" font-size="10.00">T this[string key]</text>
<text text-anchor="start" x="5.5" y="-763.5" font-family="Helvetica,sans-Serif" font-size="10.00">#</text>
<text text-anchor="start" x="18.5" y="-763.5" font-family="Helvetica,sans-Serif" font-size="10.00">bool _isLoaded</text>
<text text-anchor="start" x="5.5" y="-748.5" font-family="Helvetica,sans-Serif" font-size="10.00">#</text>
<text text-anchor="start" x="18.5" y="-748.5" font-family="Helvetica,sans-Serif" font-size="10.00">Dictionary&lt; string,</text>
<text text-anchor="start" x="18.5" y="-737.5" font-family="Helvetica,sans-Serif" font-size="10.00"> T &gt; _effects</text>
<text text-anchor="start" x="5.5" y="-722.5" font-family="Helvetica,sans-Serif" font-size="10.00">+</text>
<text text-anchor="start" x="18.5" y="-722.5" font-family="Helvetica,sans-Serif" font-size="10.00">void Bind(string name,</text>
<text text-anchor="start" x="18.5" y="-711.5" font-family="Helvetica,sans-Serif" font-size="10.00"> T effect)</text>
<text text-anchor="start" x="5.5" y="-696.5" font-family="Helvetica,sans-Serif" font-size="10.00">+</text>
<text text-anchor="start" x="18.5" y="-696.5" font-family="Helvetica,sans-Serif" font-size="10.00">void Load()</text>
<text text-anchor="start" x="5.5" y="-681.5" font-family="Helvetica,sans-Serif" font-size="10.00">+</text>
<text text-anchor="start" x="18.5" y="-681.5" font-family="Helvetica,sans-Serif" font-size="10.00">T Activate(string name,</text>
<text text-anchor="start" x="18.5" y="-670.5" font-family="Helvetica,sans-Serif" font-size="10.00"> Vector2 position=default</text>
<text text-anchor="start" x="18.5" y="-659.5" font-family="Helvetica,sans-Serif" font-size="10.00">(Vector2), params object</text>
<text text-anchor="start" x="18.5" y="-648.5" font-family="Helvetica,sans-Serif" font-size="10.00">[] args)</text>
<text text-anchor="start" x="5.5" y="-633.5" font-family="Helvetica,sans-Serif" font-size="10.00">+</text>
<text text-anchor="start" x="18.5" y="-633.5" font-family="Helvetica,sans-Serif" font-size="10.00">void Deactivate(string</text>
<text text-anchor="start" x="18.5" y="-622.5" font-family="Helvetica,sans-Serif" font-size="10.00"> name, params object[]</text>
<text text-anchor="start" x="18.5" y="-611.5" font-family="Helvetica,sans-Serif" font-size="10.00"> args)</text>
<text text-anchor="start" x="5.5" y="-596.5" font-family="Helvetica,sans-Serif" font-size="10.00">+</text>
<text text-anchor="start" x="18.5" y="-596.5" font-family="Helvetica,sans-Serif" font-size="10.00">virtual void OnActivate</text>
<text text-anchor="start" x="18.5" y="-585.5" font-family="Helvetica,sans-Serif" font-size="10.00">(T effect, Vector2 position)</text>
<text text-anchor="start" x="5.5" y="-570.5" font-family="Helvetica,sans-Serif" font-size="10.00">+</text>
<text text-anchor="start" x="18.5" y="-570.5" font-family="Helvetica,sans-Serif" font-size="10.00">virtual void OnDeactivate</text>
<text text-anchor="start" x="18.5" y="-559.5" font-family="Helvetica,sans-Serif" font-size="10.00">(T effect)</text>
<polygon fill="#666666" stroke="#666666" points="1.5,-803.5 1.5,-803.5 152.5,-803.5 152.5,-803.5 1.5,-803.5"/>
<polygon fill="#666666" stroke="#666666" points="1.5,-732.5 1.5,-732.5 16.5,-732.5 16.5,-732.5 1.5,-732.5"/>
<polygon fill="#666666" stroke="#666666" points="16.5,-732.5 16.5,-732.5 152.5,-732.5 152.5,-732.5 16.5,-732.5"/>
<polygon fill="none" stroke="#666666" points="1,-553 1,-832 152,-832 152,-553 1,-553"/>
</a>
</g>
</g>
<!-- Node3&#45;&gt;Node2 -->
<g id="edge2_Node000002_Node000003" class="edge">
<title>Node3&#45;&gt;Node2</title>
<g id="a_edge2_Node000002_Node000003"><a xlink:title=" ">
<path fill="none" stroke="orange" d="M76.5,-542.52C76.5,-530.34 76.5,-518.08 76.5,-506.02"/>
<polygon fill="orange" stroke="orange" points="73,-542.73 76.5,-552.73 80,-542.73 73,-542.73"/>
</a>
</g>
<text text-anchor="middle" x="108.5" y="-527" font-family="Helvetica,sans-Serif" font-size="10.00" fill="grey"> &lt; Overlay &gt;</text>
</g>
</g>
</svg>

<g id="navigator" transform="translate(0 0)" fill="#404254">
  <rect fill="#f2f5e9" fill-opacity="0.5" stroke="#606060" stroke-width=".5" x="0" y="0" width="60" height="60"/>
  <use id="zoomplus" xlink:href="#zoomPlus" x="17" y="9" onmousedown="handleZoom(evt,'in')"/>
  <use id="zoomminus" xlink:href="#zoomMin" x="42" y="9" onmousedown="handleZoom(evt,'out')"/>
  <use id="reset" xlink:href="#resetDef" x="30" y="36" onmousedown="handleReset()"/>
   <use id="arrowup" xlink:href="#arrowUp" x="0" y="0" onmousedown="handlePan(0,-1)"/>
  <use id="arrowright" xlink:href="#arrowRight" x="0" y="0" onmousedown="handlePan(1,0)"/>
  <use id="arrowdown" xlink:href="#arrowDown" x="0" y="0" onmousedown="handlePan(0,1)"/>
  <use id="arrowleft" xlink:href="#arrowLeft" x="0" y="0" onmousedown="handlePan(-1,0)"/>
</g>
<svg viewBox="0 0 15 15" width="100%" height="30px" preserveAspectRatio="xMaxYMin meet">
 <g id="arrow_out" transform="scale(0.3 0.3)">
  <a xlink:href="classTerraria_1_1Graphics_1_1Effects_1_1OverlayManager__inherit__graph_org.svg" target="_base">
   <rect id="button" ry="5" rx="5" y="6" x="6" height="38" width="38"
        fill="#f2f5e9" fill-opacity="0.5" stroke="#606060" stroke-width="1.0"/>
   <path id="arrow"
     d="M 11.500037,31.436501 C 11.940474,20.09759 22.043105,11.32322 32.158766,21.979434 L 37.068811,17.246167 C 37.068811,17.246167 37.088388,32 37.088388,32 L 22.160133,31.978069 C 22.160133,31.978069 26.997745,27.140456 26.997745,27.140456 C 18.528582,18.264221 13.291696,25.230495 11.500037,31.436501 z"
     style="fill:#404040;"/>
  </a>
 </g>
</svg>

<style type='text/css'>
<![CDATA[
[data-mouse-over-selected='false'] { opacity: 0.7; }
[data-mouse-over-selected='true']  { opacity: 1.0; }
]]>
</style>
<script type="application/ecmascript"><![CDATA[
document.addEventListener('DOMContentLoaded', (event) => {
  highlightEdges();
  highlightAdjacentNodes();
});
]]></script>
</svg>
