<?xml version="1.0" encoding="UTF-8" standalone="no"?>
<!DOCTYPE svg PUBLIC "-//W3C//DTD SVG 1.1//EN"
 "http://www.w3.org/Graphics/SVG/1.1/DTD/svg11.dtd">
<!-- Generated by graphviz version 2.43.0 (0)
 -->
<!-- Title: Terraria.NPC.MakeTransitionEffectsForTextureChanges Pages: 1 -->
<!--zoomable 264 -->

<svg id="main" version="1.1" xmlns="http://www.w3.org/2000/svg" xmlns:xlink="http://www.w3.org/1999/xlink" xml:space="preserve" onload="init(evt)">
<style type="text/css"><![CDATA[
.node, .edge {opacity: 0.7;}
.node.selected, .edge.selected {opacity: 1;}
.edge:hover path { stroke: red; }
.edge:hover polygon { stroke: red; fill: red; }
]]></style>

<defs>
  <circle id="rim" cx="0" cy="0" r="7"/>
  <circle id="rim2" cx="0" cy="0" r="3.5"/>
  <g id="zoomPlus">
    <use xlink:href="#rim" fill="#404040"><set attributeName="fill" to="#808080" begin="zoomplus.mouseover" end="zoomplus.mouseout"/></use>
    <path d="M-4,0h8M0,-4v8" fill="none" stroke="white" stroke-width="1.5" pointer-events="none"/>
  </g>
  <g id="zoomMin">
    <use xlink:href="#rim" fill="#404040"><set attributeName="fill" to="#808080" begin="zoomminus.mouseover" end="zoomminus.mouseout"/></use>
    <path d="M-4,0h8" fill="none" stroke="white" stroke-width="1.5" pointer-events="none"/>
  </g>
  <g id="arrowUp" transform="translate(30 24)">
    <use xlink:href="#rim"/>
    <path pointer-events="none" fill="none" stroke="white" stroke-width="1.5" d="M0,-3.0v7 M-2.5,-0.5L0,-3.0L2.5,-0.5"/>
  </g>
  <g id="arrowRight" transform="rotate(90) translate(36 -43)">
    <use xlink:href="#rim"/>
    <path pointer-events="none" fill="none" stroke="white" stroke-width="1.5" d="M0,-3.0v7 M-2.5,-0.5L0,-3.0L2.5,-0.5"/>
  </g>
  <g id="arrowDown" transform="rotate(180) translate(-30 -48)">
    <use xlink:href="#rim"/>
    <path pointer-events="none" fill="none" stroke="white" stroke-width="1.5" d="M0,-3.0v7 M-2.5,-0.5L0,-3.0L2.5,-0.5"/>
  </g>
  <g id="arrowLeft" transform="rotate(270) translate(-36 17)">
    <use xlink:href="#rim"/>
    <path pointer-events="none" fill="none" stroke="white" stroke-width="1.5" d="M0,-3.0v7 M-2.5,-0.5L0,-3.0L2.5,-0.5"/>
  </g>
  <g id="resetDef">
    <use xlink:href="#rim2" fill="#404040"><set attributeName="fill" to="#808080" begin="reset.mouseover" end="reset.mouseout"/></use>
  </g>
</defs>
<script type="application/ecmascript">
var viewWidth = 899;
var viewHeight = 264;
var sectionId = 'dynsection-0';
</script>
<script type="application/ecmascript" xlink:href="../../svg.min.js"/>
<svg id="graph" class="graph">
<g id="viewport">
<title>Terraria.NPC.MakeTransitionEffectsForTextureChanges</title>
<!-- Node1 -->
<g id="Node000001" class="node">
<title>Node1</title>
<g id="a_Node000001"><a xlink:title=" ">
<polygon fill="#999999" stroke="#666666" points="153,-158 0,-158 0,-128 153,-128 153,-158"/>
<text text-anchor="start" x="8" y="-146" font-family="Helvetica,sans-Serif" font-size="10.00">Terraria.NPC.MakeTransition</text>
<text text-anchor="middle" x="76.5" y="-135" font-family="Helvetica,sans-Serif" font-size="10.00">EffectsForTextureChanges</text>
</a>
</g>
</g>
<!-- Node2 -->
<g id="Node000002" class="node">
<title>Node2</title>
<g id="a_Node000002"><a xlink:href="../../dc/de5/classTerraria_1_1Dust_a977a36a9376966862406a3094e3b70ab.html#a977a36a9376966862406a3094e3b70ab" target="_top" xlink:title=" ">
<polygon fill="white" stroke="#666666" points="510,-158.5 384,-158.5 384,-139.5 510,-139.5 510,-158.5"/>
<text text-anchor="middle" x="447" y="-146.5" font-family="Helvetica,sans-Serif" font-size="10.00">Terraria.Dust.NewDust</text>
</a>
</g>
</g>
<!-- Node1&#45;&gt;Node2 -->
<g id="edge1_Node000001_Node000002" class="edge">
<title>Node1&#45;&gt;Node2</title>
<g id="a_edge1_Node000001_Node000002"><a xlink:title=" ">
<path fill="none" stroke="#63b8ff" d="M153.17,-156.89C165.12,-158.6 177.37,-160.07 189,-161 257.67,-166.51 275.23,-165.03 344,-161 353.58,-160.44 363.64,-159.58 373.55,-158.58"/>
<polygon fill="#63b8ff" stroke="#63b8ff" points="374.23,-162.03 383.8,-157.49 373.49,-155.07 374.23,-162.03"/>
</a>
</g>
</g>
<!-- Node10 -->
<g id="Node000010" class="node">
<title>Node10</title>
<g id="a_Node000010"><a xlink:href="../../dc/de5/classTerraria_1_1Dust_acb51111c9d1ff81d2e7f55da6ff8831f.html#acb51111c9d1ff81d2e7f55da6ff8831f" target="_top" xlink:title=" ">
<polygon fill="white" stroke="#666666" points="344,-152.5 189,-152.5 189,-133.5 344,-133.5 344,-152.5"/>
<text text-anchor="middle" x="266.5" y="-140.5" font-family="Helvetica,sans-Serif" font-size="10.00">Terraria.Dust.NewDustDirect</text>
</a>
</g>
</g>
<!-- Node1&#45;&gt;Node10 -->
<g id="edge9_Node000001_Node000010" class="edge">
<title>Node1&#45;&gt;Node10</title>
<g id="a_edge9_Node000001_Node000010"><a xlink:title=" ">
<path fill="none" stroke="#63b8ff" d="M153.15,-143C161.5,-143 170.04,-143 178.5,-143"/>
<polygon fill="#63b8ff" stroke="#63b8ff" points="178.78,-146.5 188.78,-143 178.78,-139.5 178.78,-146.5"/>
</a>
</g>
</g>
<!-- Node11 -->
<g id="Node000011" class="node">
<title>Node11</title>
<g id="a_Node000011"><a xlink:href="../../d1/d9c/classTerraria_1_1Utils_a5117aed623abd8bd6c3c669ca516f33a.html#a5117aed623abd8bd6c3c669ca516f33a" target="_top" xlink:title=" ">
<polygon fill="white" stroke="#666666" points="340.5,-115.5 192.5,-115.5 192.5,-96.5 340.5,-96.5 340.5,-115.5"/>
<text text-anchor="middle" x="266.5" y="-103.5" font-family="Helvetica,sans-Serif" font-size="10.00">Terraria.Utils.PoofOfSmoke</text>
</a>
</g>
</g>
<!-- Node1&#45;&gt;Node11 -->
<g id="edge11_Node000001_Node000011" class="edge">
<title>Node1&#45;&gt;Node11</title>
<g id="a_edge11_Node000001_Node000011"><a xlink:title=" ">
<path fill="none" stroke="#63b8ff" d="M153.15,-128.11C171.15,-124.57 190.08,-120.84 207.17,-117.48"/>
<polygon fill="#63b8ff" stroke="#63b8ff" points="207.85,-120.91 216.99,-115.55 206.5,-114.04 207.85,-120.91"/>
</a>
</g>
</g>
<!-- Node3 -->
<g id="Node000003" class="node">
<title>Node3</title>
<g id="a_Node000003"><a xlink:href="../../d9/db1/classTerraria_1_1Utilities_1_1UnifiedRandom_ac4ecc6320b69ab939b9c45eaf7d89000.html#ac4ecc6320b69ab939b9c45eaf7d89000" target="_top" xlink:title=" ">
<polygon fill="white" stroke="#666666" points="697,-126 565,-126 565,-96 697,-96 697,-126"/>
<text text-anchor="start" x="573" y="-114" font-family="Helvetica,sans-Serif" font-size="10.00">Terraria.Utilities.Unified</text>
<text text-anchor="middle" x="631" y="-103" font-family="Helvetica,sans-Serif" font-size="10.00">Random.Next</text>
</a>
</g>
</g>
<!-- Node2&#45;&gt;Node3 -->
<g id="edge2_Node000002_Node000003" class="edge">
<title>Node2&#45;&gt;Node3</title>
<g id="a_edge2_Node000002_Node000003"><a xlink:title=" ">
<path fill="none" stroke="#63b8ff" d="M493.93,-139.41C512.39,-135.56 534.16,-131.01 554.81,-126.7"/>
<polygon fill="#63b8ff" stroke="#63b8ff" points="555.77,-130.07 564.84,-124.6 554.34,-123.22 555.77,-130.07"/>
</a>
</g>
</g>
<!-- Node5 -->
<g id="Node000005" class="node">
<title>Node5</title>
<g id="a_Node000005"><a xlink:href="../../de/d1d/classTerraria_1_1Collision_a1c65206ace403aa59afc32d20e5d282e.html#a1c65206ace403aa59afc32d20e5d282e" target="_top" xlink:title=" ">
<polygon fill="white" stroke="#666666" points="712,-181.5 550,-181.5 550,-162.5 712,-162.5 712,-181.5"/>
<text text-anchor="middle" x="631" y="-169.5" font-family="Helvetica,sans-Serif" font-size="10.00">Terraria.Collision.WetCollision</text>
</a>
</g>
</g>
<!-- Node2&#45;&gt;Node5 -->
<g id="edge4_Node000002_Node000005" class="edge">
<title>Node2&#45;&gt;Node5</title>
<g id="a_edge4_Node000002_Node000005"><a xlink:title=" ">
<path fill="none" stroke="#63b8ff" d="M510.13,-156.85C521.2,-158.25 532.9,-159.73 544.49,-161.19"/>
<polygon fill="#63b8ff" stroke="#63b8ff" points="544.26,-164.69 554.62,-162.47 545.14,-157.75 544.26,-164.69"/>
</a>
</g>
</g>
<!-- Node4 -->
<g id="Node000004" class="node">
<title>Node4</title>
<g id="a_Node000004"><a xlink:href="../../d9/db1/classTerraria_1_1Utilities_1_1UnifiedRandom_a173f09196ff526b107c0223c2d58c59a.html#a173f09196ff526b107c0223c2d58c59a" target="_top" xlink:title=" ">
<polygon fill="white" stroke="#666666" points="886.5,-107 752.5,-107 752.5,-77 886.5,-77 886.5,-107"/>
<text text-anchor="start" x="760.5" y="-95" font-family="Helvetica,sans-Serif" font-size="10.00">Terraria.Utilities.Unified</text>
<text text-anchor="middle" x="819.5" y="-84" font-family="Helvetica,sans-Serif" font-size="10.00">Random.InternalSample</text>
</a>
</g>
</g>
<!-- Node3&#45;&gt;Node4 -->
<g id="edge3_Node000003_Node000004" class="edge">
<title>Node3&#45;&gt;Node4</title>
<g id="a_edge3_Node000003_Node000004"><a xlink:title=" ">
<path fill="none" stroke="#63b8ff" d="M697.23,-104.35C711.74,-102.88 727.24,-101.3 742.15,-99.78"/>
<polygon fill="#63b8ff" stroke="#63b8ff" points="742.77,-103.23 752.36,-98.74 742.06,-96.27 742.77,-103.23"/>
</a>
</g>
</g>
<!-- Node6 -->
<g id="Node000006" class="node">
<title>Node6</title>
<g id="a_Node000006"><a xlink:href="../../d3/ddc/classTerraria_1_1Tile_a9a3f37926e6d7f23ba057d6c0aeab1a5.html#a9a3f37926e6d7f23ba057d6c0aeab1a5" target="_top" xlink:title=" ">
<polygon fill="white" stroke="#666666" points="873,-181.5 766,-181.5 766,-162.5 873,-162.5 873,-181.5"/>
<text text-anchor="middle" x="819.5" y="-169.5" font-family="Helvetica,sans-Serif" font-size="10.00">Terraria.Tile.active</text>
</a>
</g>
</g>
<!-- Node5&#45;&gt;Node6 -->
<g id="edge5_Node000005_Node000006" class="edge">
<title>Node5&#45;&gt;Node6</title>
<g id="a_edge5_Node000005_Node000006"><a xlink:title=" ">
<path fill="none" stroke="#63b8ff" d="M712.18,-172C726.79,-172 741.85,-172 755.86,-172"/>
<polygon fill="#63b8ff" stroke="#63b8ff" points="755.87,-175.5 765.87,-172 755.87,-168.5 755.87,-175.5"/>
</a>
</g>
</g>
<!-- Node7 -->
<g id="Node000007" class="node">
<title>Node7</title>
<g id="a_Node000007"><a xlink:href="../../d3/ddc/classTerraria_1_1Tile_abce32b6727439dc5fd177ed547a260a6.html#abce32b6727439dc5fd177ed547a260a6" target="_top" xlink:title=" ">
<polygon fill="white" stroke="#666666" points="873,-144.5 766,-144.5 766,-125.5 873,-125.5 873,-144.5"/>
<text text-anchor="middle" x="819.5" y="-132.5" font-family="Helvetica,sans-Serif" font-size="10.00">Terraria.Tile.honey</text>
</a>
</g>
</g>
<!-- Node5&#45;&gt;Node7 -->
<g id="edge6_Node000005_Node000007" class="edge">
<title>Node5&#45;&gt;Node7</title>
<g id="a_edge6_Node000005_Node000007"><a xlink:title=" ">
<path fill="none" stroke="#63b8ff" d="M680.03,-162.47C704.52,-157.61 734.49,-151.67 760.28,-146.55"/>
<polygon fill="#63b8ff" stroke="#63b8ff" points="761.18,-149.94 770.31,-144.56 759.82,-143.07 761.18,-149.94"/>
</a>
</g>
</g>
<!-- Node8 -->
<g id="Node000008" class="node">
<title>Node8</title>
<g id="a_Node000008"><a xlink:href="../../d3/ddc/classTerraria_1_1Tile_ac658b0c4cc04dc4d86deb55b99decfc5.html#ac658b0c4cc04dc4d86deb55b99decfc5" target="_top" xlink:title=" ">
<polygon fill="white" stroke="#666666" points="880,-255.5 759,-255.5 759,-236.5 880,-236.5 880,-255.5"/>
<text text-anchor="middle" x="819.5" y="-243.5" font-family="Helvetica,sans-Serif" font-size="10.00">Terraria.Tile.shimmer</text>
</a>
</g>
</g>
<!-- Node5&#45;&gt;Node8 -->
<g id="edge7_Node000005_Node000008" class="edge">
<title>Node5&#45;&gt;Node8</title>
<g id="a_edge7_Node000005_Node000008"><a xlink:title=" ">
<path fill="none" stroke="#63b8ff" d="M649.65,-181.6C672.03,-193.47 712.03,-213.75 748,-227 754.47,-229.38 761.38,-231.61 768.24,-233.65"/>
<polygon fill="#63b8ff" stroke="#63b8ff" points="767.64,-237.11 778.21,-236.48 769.55,-230.38 767.64,-237.11"/>
</a>
</g>
</g>
<!-- Node9 -->
<g id="Node000009" class="node">
<title>Node9</title>
<g id="a_Node000009"><a xlink:href="../../d3/ddc/classTerraria_1_1Tile_ab9bfb24365d03f2b4fe0842f6a406765.html#ab9bfb24365d03f2b4fe0842f6a406765" target="_top" xlink:title=" ">
<polygon fill="white" stroke="#666666" points="871.5,-218.5 767.5,-218.5 767.5,-199.5 871.5,-199.5 871.5,-218.5"/>
<text text-anchor="middle" x="819.5" y="-206.5" font-family="Helvetica,sans-Serif" font-size="10.00">Terraria.Tile.slope</text>
</a>
</g>
</g>
<!-- Node5&#45;&gt;Node9 -->
<g id="edge8_Node000005_Node000009" class="edge">
<title>Node5&#45;&gt;Node9</title>
<g id="a_edge8_Node000005_Node000009"><a xlink:title=" ">
<path fill="none" stroke="#63b8ff" d="M680.03,-181.53C704.52,-186.39 734.49,-192.33 760.28,-197.45"/>
<polygon fill="#63b8ff" stroke="#63b8ff" points="759.82,-200.93 770.31,-199.44 761.18,-194.06 759.82,-200.93"/>
</a>
</g>
</g>
<!-- Node10&#45;&gt;Node2 -->
<g id="edge10_Node000010_Node000002" class="edge">
<title>Node10&#45;&gt;Node2</title>
<g id="a_edge10_Node000010_Node000002"><a xlink:title=" ">
<path fill="none" stroke="#63b8ff" d="M344.24,-145.58C354.05,-145.91 364.08,-146.25 373.82,-146.57"/>
<polygon fill="#63b8ff" stroke="#63b8ff" points="373.74,-150.07 383.85,-146.91 373.97,-143.08 373.74,-150.07"/>
</a>
</g>
</g>
<!-- Node11&#45;&gt;Node2 -->
<g id="edge12_Node000011_Node000002" class="edge">
<title>Node11&#45;&gt;Node2</title>
<g id="a_edge12_Node000011_Node000002"><a xlink:title=" ">
<path fill="none" stroke="#63b8ff" d="M308.41,-115.55C319.93,-118.26 332.46,-121.23 344,-124 361.32,-128.16 380.28,-132.79 397.11,-136.92"/>
<polygon fill="#63b8ff" stroke="#63b8ff" points="396.73,-140.43 407.27,-139.42 398.4,-133.63 396.73,-140.43"/>
</a>
</g>
</g>
<!-- Node12 -->
<g id="Node000012" class="node">
<title>Node12</title>
<g id="a_Node000012"><a xlink:href="../../d1/ddf/classTerraria_1_1Gore_a99c43465db05b0c96da5f5d941e780d1.html#a99c43465db05b0c96da5f5d941e780d1" target="_top" xlink:title=" ">
<polygon fill="white" stroke="#666666" points="511,-72.5 383,-72.5 383,-53.5 511,-53.5 511,-72.5"/>
<text text-anchor="middle" x="447" y="-60.5" font-family="Helvetica,sans-Serif" font-size="10.00">Terraria.Gore.NewGore</text>
</a>
</g>
</g>
<!-- Node11&#45;&gt;Node12 -->
<g id="edge13_Node000011_Node000012" class="edge">
<title>Node11&#45;&gt;Node12</title>
<g id="a_edge13_Node000011_Node000012"><a xlink:title=" ">
<path fill="none" stroke="#63b8ff" d="M307.11,-96.46C333.46,-90.11 368.27,-81.73 396.44,-74.94"/>
<polygon fill="#63b8ff" stroke="#63b8ff" points="397.59,-78.26 406.5,-72.52 395.95,-71.46 397.59,-78.26"/>
</a>
</g>
</g>
<!-- Node16 -->
<g id="Node000016" class="node">
<title>Node16</title>
<g id="a_Node000016"><a xlink:href="../../d1/d9c/classTerraria_1_1Utils_a5d861752bfd2023256fb762213ce81cc.html#a5d861752bfd2023256fb762213ce81cc" target="_top" xlink:title=" ">
<polygon fill="white" stroke="#666666" points="514,-121 380,-121 380,-91 514,-91 514,-121"/>
<text text-anchor="start" x="388" y="-109" font-family="Helvetica,sans-Serif" font-size="10.00">Terraria.Utils.ToRotation</text>
<text text-anchor="middle" x="447" y="-98" font-family="Helvetica,sans-Serif" font-size="10.00">Vector2</text>
</a>
</g>
</g>
<!-- Node11&#45;&gt;Node16 -->
<g id="edge18_Node000011_Node000016" class="edge">
<title>Node11&#45;&gt;Node16</title>
<g id="a_edge18_Node000011_Node000016"><a xlink:title=" ">
<path fill="none" stroke="#63b8ff" d="M340.62,-106C350.26,-106 360.17,-106 369.87,-106"/>
<polygon fill="#63b8ff" stroke="#63b8ff" points="369.88,-109.5 379.87,-106 369.87,-102.5 369.88,-109.5"/>
</a>
</g>
</g>
<!-- Node12&#45;&gt;Node3 -->
<g id="edge17_Node000012_Node000003" class="edge">
<title>Node12&#45;&gt;Node3</title>
<g id="a_edge17_Node000012_Node000003"><a xlink:title=" ">
<path fill="none" stroke="#63b8ff" d="M484.39,-72.6C506.84,-78.52 536.31,-86.29 562.87,-93.3"/>
<polygon fill="#63b8ff" stroke="#63b8ff" points="562.32,-96.77 572.89,-95.94 564.11,-90 562.32,-96.77"/>
</a>
</g>
</g>
<!-- Node13 -->
<g id="Node000013" class="node">
<title>Node13</title>
<g id="a_Node000013"><a xlink:href="../../dc/d32/classTerraria_1_1GameContent_1_1ChildSafety_a6530b049a8d392e9a6c2667665f36f5c.html#a6530b049a8d392e9a6c2667665f36f5c" target="_top" xlink:title=" ">
<polygon fill="white" stroke="#666666" points="707,-78 555,-78 555,-48 707,-48 707,-78"/>
<text text-anchor="start" x="563" y="-66" font-family="Helvetica,sans-Serif" font-size="10.00">Terraria.GameContent.Child</text>
<text text-anchor="middle" x="631" y="-55" font-family="Helvetica,sans-Serif" font-size="10.00">Safety.DangerousGore</text>
</a>
</g>
</g>
<!-- Node12&#45;&gt;Node13 -->
<g id="edge14_Node000012_Node000013" class="edge">
<title>Node12&#45;&gt;Node13</title>
<g id="a_edge14_Node000012_Node000013"><a xlink:title=" ">
<path fill="none" stroke="#63b8ff" d="M511.14,-63C521.91,-63 533.26,-63 544.49,-63"/>
<polygon fill="#63b8ff" stroke="#63b8ff" points="544.76,-66.5 554.76,-63 544.76,-59.5 544.76,-66.5"/>
</a>
</g>
</g>
<!-- Node14 -->
<g id="Node000014" class="node">
<title>Node14</title>
<g id="a_Node000014"><a xlink:href="../../d1/ddf/classTerraria_1_1Gore_ab75a2b8fae7afb5042b6f0a853b104b5.html#ab75a2b8fae7afb5042b6f0a853b104b5" target="_top" xlink:title=" ">
<polygon fill="white" stroke="#666666" points="699,-30 563,-30 563,0 699,0 699,-30"/>
<text text-anchor="start" x="571" y="-18" font-family="Helvetica,sans-Serif" font-size="10.00">Terraria.Gore.Deactivate</text>
<text text-anchor="middle" x="631" y="-7" font-family="Helvetica,sans-Serif" font-size="10.00">IfOutsideOfWorld</text>
</a>
</g>
</g>
<!-- Node12&#45;&gt;Node14 -->
<g id="edge15_Node000012_Node000014" class="edge">
<title>Node12&#45;&gt;Node14</title>
<g id="a_edge15_Node000012_Node000014"><a xlink:title=" ">
<path fill="none" stroke="#63b8ff" d="M484.39,-53.4C506.84,-47.48 536.31,-39.71 562.87,-32.7"/>
<polygon fill="#63b8ff" stroke="#63b8ff" points="564.11,-36 572.89,-30.06 562.32,-29.23 564.11,-36"/>
</a>
</g>
</g>
<!-- Node15 -->
<g id="Node000015" class="node">
<title>Node15</title>
<g id="a_Node000015"><a xlink:href="../../de/da1/classTerraria_1_1WorldGen_adf59bfc3a2909993f72f0c69a5eaf553.html#adf59bfc3a2909993f72f0c69a5eaf553" target="_top" xlink:title=" ">
<polygon fill="white" stroke="#666666" points="891,-24.5 748,-24.5 748,-5.5 891,-5.5 891,-24.5"/>
<text text-anchor="middle" x="819.5" y="-12.5" font-family="Helvetica,sans-Serif" font-size="10.00">Terraria.WorldGen.InWorld</text>
</a>
</g>
</g>
<!-- Node14&#45;&gt;Node15 -->
<g id="edge16_Node000014_Node000015" class="edge">
<title>Node14&#45;&gt;Node15</title>
<g id="a_edge16_Node000014_Node000015"><a xlink:title=" ">
<path fill="none" stroke="#63b8ff" d="M699.07,-15C711.59,-15 724.8,-15 737.69,-15"/>
<polygon fill="#63b8ff" stroke="#63b8ff" points="737.94,-18.5 747.94,-15 737.94,-11.5 737.94,-18.5"/>
</a>
</g>
</g>
</g>
</svg>

<g id="navigator" transform="translate(0 0)" fill="#404254">
  <rect fill="#f2f5e9" fill-opacity="0.5" stroke="#606060" stroke-width=".5" x="0" y="0" width="60" height="60"/>
  <use id="zoomplus" xlink:href="#zoomPlus" x="17" y="9" onmousedown="handleZoom(evt,'in')"/>
  <use id="zoomminus" xlink:href="#zoomMin" x="42" y="9" onmousedown="handleZoom(evt,'out')"/>
  <use id="reset" xlink:href="#resetDef" x="30" y="36" onmousedown="handleReset()"/>
   <use id="arrowup" xlink:href="#arrowUp" x="0" y="0" onmousedown="handlePan(0,-1)"/>
  <use id="arrowright" xlink:href="#arrowRight" x="0" y="0" onmousedown="handlePan(1,0)"/>
  <use id="arrowdown" xlink:href="#arrowDown" x="0" y="0" onmousedown="handlePan(0,1)"/>
  <use id="arrowleft" xlink:href="#arrowLeft" x="0" y="0" onmousedown="handlePan(-1,0)"/>
</g>
<svg viewBox="0 0 15 15" width="100%" height="30px" preserveAspectRatio="xMaxYMin meet">
 <g id="arrow_out" transform="scale(0.3 0.3)">
  <a xlink:href="classTerraria_1_1NPC_accafe291cb6f9bc35a3a93b9e9601c41_accafe291cb6f9bc35a3a93b9e9601c41_cgraph_org.svg" target="_base">
   <rect id="button" ry="5" rx="5" y="6" x="6" height="38" width="38"
        fill="#f2f5e9" fill-opacity="0.5" stroke="#606060" stroke-width="1.0"/>
   <path id="arrow"
     d="M 11.500037,31.436501 C 11.940474,20.09759 22.043105,11.32322 32.158766,21.979434 L 37.068811,17.246167 C 37.068811,17.246167 37.088388,32 37.088388,32 L 22.160133,31.978069 C 22.160133,31.978069 26.997745,27.140456 26.997745,27.140456 C 18.528582,18.264221 13.291696,25.230495 11.500037,31.436501 z"
     style="fill:#404040;"/>
  </a>
 </g>
</svg>

<style type='text/css'>
<![CDATA[
[data-mouse-over-selected='false'] { opacity: 0.7; }
[data-mouse-over-selected='true']  { opacity: 1.0; }
]]>
</style>
<script type="application/ecmascript"><![CDATA[
document.addEventListener('DOMContentLoaded', (event) => {
  highlightEdges();
  highlightAdjacentNodes();
});
]]></script>
</svg>
