<?xml version="1.0" encoding="UTF-8" standalone="no"?>
<!DOCTYPE svg PUBLIC "-//W3C//DTD SVG 1.1//EN"
 "http://www.w3.org/Graphics/SVG/1.1/DTD/svg11.dtd">
<!-- Generated by graphviz version 2.43.0 (0)
 -->
<!-- Title: Collision.CheckAABBvLineCollision2 Pages: 1 -->
<svg width="521pt" height="78pt"
 viewBox="0.00 0.00 521.00 77.50" xmlns="http://www.w3.org/2000/svg" xmlns:xlink="http://www.w3.org/1999/xlink">
<g id="graph0" class="graph" transform="scale(1 1) rotate(0) translate(4 73.5)">
<title>Collision.CheckAABBvLineCollision2</title>
<polygon fill="white" stroke="transparent" points="-4,4 -4,-73.5 517,-73.5 517,4 -4,4"/>
<!-- Node1 -->
<g id="node1" class="node">
<title>Node1</title>
<g id="a_node1"><a xlink:title=" ">
<polygon fill="#bfbfbf" stroke="black" points="0,-17 0,-47 145,-47 145,-17 0,-17"/>
<text text-anchor="start" x="8" y="-35" font-family="Helvetica,sans-Serif" font-size="10.00">Collision.CheckAABBvLine</text>
<text text-anchor="middle" x="72.5" y="-24" font-family="Helvetica,sans-Serif" font-size="10.00">Collision2</text>
</a>
</g>
</g>
<!-- Node2 -->
<g id="node2" class="node">
<title>Node2</title>
<g id="a_node2"><a xlink:href="../../d6/d57/classCollision_a93146441aab18307d79ddb70b903e801.html#a93146441aab18307d79ddb70b903e801" target="_top" xlink:title=" ">
<polygon fill="white" stroke="black" points="185,-39 185,-69 330,-69 330,-39 185,-39"/>
<text text-anchor="start" x="193" y="-57" font-family="Helvetica,sans-Serif" font-size="10.00">Collision.CheckAABBvLine</text>
<text text-anchor="middle" x="257.5" y="-46" font-family="Helvetica,sans-Serif" font-size="10.00">Collision</text>
</a>
</g>
</g>
<!-- Node1&#45;&gt;Node2 -->
<g id="edge1" class="edge">
<title>Node1&#45;&gt;Node2</title>
<path fill="none" stroke="midnightblue" d="M145.04,-40.6C154.71,-41.76 164.7,-42.96 174.53,-44.15"/>
<polygon fill="midnightblue" stroke="midnightblue" points="174.36,-47.65 184.71,-45.37 175.2,-40.7 174.36,-47.65"/>
</g>
<!-- Node4 -->
<g id="node4" class="node">
<title>Node4</title>
<g id="a_node4"><a xlink:href="../../dc/dc5/classUtils_a8d3db80b0884a9dc353ea68c0a5b30f5.html#a8d3db80b0884a9dc353ea68c0a5b30f5" target="_top" xlink:title=" ">
<polygon fill="white" stroke="black" points="181,-0.5 181,-19.5 334,-19.5 334,-0.5 181,-0.5"/>
<text text-anchor="middle" x="257.5" y="-7.5" font-family="Helvetica,sans-Serif" font-size="10.00">Utils.RectangleLineCollision</text>
</a>
</g>
</g>
<!-- Node1&#45;&gt;Node4 -->
<g id="edge3" class="edge">
<title>Node1&#45;&gt;Node4</title>
<path fill="none" stroke="midnightblue" d="M145.04,-23.4C153.47,-22.39 162.14,-21.34 170.74,-20.31"/>
<polygon fill="midnightblue" stroke="midnightblue" points="171.27,-23.77 180.78,-19.1 170.44,-16.82 171.27,-23.77"/>
</g>
<!-- Node3 -->
<g id="node3" class="node">
<title>Node3</title>
<g id="a_node3"><a xlink:href="../../d6/d57/classCollision_a2d5185e8a13dc432f476b07d66579f57.html#a2d5185e8a13dc432f476b07d66579f57" target="_top" xlink:title=" ">
<polygon fill="white" stroke="black" points="370,-44.5 370,-63.5 513,-63.5 513,-44.5 370,-44.5"/>
<text text-anchor="middle" x="441.5" y="-51.5" font-family="Helvetica,sans-Serif" font-size="10.00">Collision.collisionOutcode</text>
</a>
</g>
</g>
<!-- Node2&#45;&gt;Node3 -->
<g id="edge2" class="edge">
<title>Node2&#45;&gt;Node3</title>
<path fill="none" stroke="midnightblue" d="M330.17,-54C339.84,-54 349.82,-54 359.64,-54"/>
<polygon fill="midnightblue" stroke="midnightblue" points="359.79,-57.5 369.79,-54 359.79,-50.5 359.79,-57.5"/>
</g>
<!-- Node5 -->
<g id="node5" class="node">
<title>Node5</title>
<g id="a_node5"><a xlink:href="../../dc/dc5/classUtils_abc6ebc3d65f582cebcc0ee3683ee7a40.html#abc6ebc3d65f582cebcc0ee3683ee7a40" target="_top" xlink:title=" ">
<polygon fill="white" stroke="black" points="399,-0.5 399,-19.5 484,-19.5 484,-0.5 399,-0.5"/>
<text text-anchor="middle" x="441.5" y="-7.5" font-family="Helvetica,sans-Serif" font-size="10.00">Utils.Between</text>
</a>
</g>
</g>
<!-- Node4&#45;&gt;Node5 -->
<g id="edge4" class="edge">
<title>Node4&#45;&gt;Node5</title>
<path fill="none" stroke="midnightblue" d="M334.1,-10C352.46,-10 371.68,-10 388.66,-10"/>
<polygon fill="midnightblue" stroke="midnightblue" points="388.91,-13.5 398.91,-10 388.91,-6.5 388.91,-13.5"/>
</g>
</g>
</svg>
