<?xml version="1.0" encoding="UTF-8" standalone="no"?>
<!DOCTYPE svg PUBLIC "-//W3C//DTD SVG 1.1//EN"
 "http://www.w3.org/Graphics/SVG/1.1/DTD/svg11.dtd">
<!-- Generated by graphviz version 2.43.0 (0)
 -->
<!-- Title: Terraria.GameContent.UI.States.UIGamepadHelper.LinkVerticalStrips Pages: 1 -->
<svg width="646pt" height="108pt"
 viewBox="0.00 0.00 646.00 108.00" xmlns="http://www.w3.org/2000/svg" xmlns:xlink="http://www.w3.org/1999/xlink">
<g id="graph0" class="graph" transform="scale(1 1) rotate(0) translate(4 104)">
<title>Terraria.GameContent.UI.States.UIGamepadHelper.LinkVerticalStrips</title>
<!-- Node1 -->
<g id="Node000001" class="node">
<title>Node1</title>
<g id="a_Node000001"><a xlink:title=" ">
<polygon fill="#999999" stroke="#666666" points="638,-70 438,-70 438,-29 638,-29 638,-70"/>
<text text-anchor="start" x="446" y="-58" font-family="Helvetica,sans-Serif" font-size="10.00">Terraria.GameContent.UI.</text>
<text text-anchor="start" x="446" y="-47" font-family="Helvetica,sans-Serif" font-size="10.00">States.UIGamepadHelper.LinkVertical</text>
<text text-anchor="middle" x="538" y="-36" font-family="Helvetica,sans-Serif" font-size="10.00">Strips</text>
</a>
</g>
</g>
<!-- Node2 -->
<g id="Node000002" class="node">
<title>Node2</title>
<g id="a_Node000002"><a xlink:href="../../dc/dcf/classTerraria_1_1GameContent_1_1UI_1_1States_1_1UICreativePowersMenu_ac59caf66032d5f4393e9311511e38af3.html#ac59caf66032d5f4393e9311511e38af3" target="_top" xlink:title=" ">
<polygon fill="white" stroke="#666666" points="399,-100 232,-100 232,-59 399,-59 399,-100"/>
<text text-anchor="start" x="240" y="-88" font-family="Helvetica,sans-Serif" font-size="10.00">Terraria.GameContent.UI.</text>
<text text-anchor="start" x="240" y="-77" font-family="Helvetica,sans-Serif" font-size="10.00">States.UICreativePowersMenu.</text>
<text text-anchor="middle" x="315.5" y="-66" font-family="Helvetica,sans-Serif" font-size="10.00">SetupGamepadPoints</text>
</a>
</g>
</g>
<!-- Node1&#45;&gt;Node2 -->
<g id="edge1_Node000001_Node000002" class="edge">
<title>Node1&#45;&gt;Node2</title>
<g id="a_edge1_Node000001_Node000002"><a xlink:title=" ">
<path fill="none" stroke="#63b8ff" d="M427.7,-64.37C418.07,-65.68 408.43,-66.99 399.08,-68.27"/>
<polygon fill="#63b8ff" stroke="#63b8ff" points="428.28,-67.82 437.72,-63.01 427.34,-60.89 428.28,-67.82"/>
</a>
</g>
</g>
<!-- Node4 -->
<g id="Node000004" class="node">
<title>Node4</title>
<g id="a_Node000004"><a xlink:href="../../d5/de0/classTerraria_1_1GameContent_1_1UI_1_1States_1_1UIResourcePackSelectionMenu_a84a2fba1fc333dd82bd0d4f1aa609f5a.html#a84a2fba1fc333dd82bd0d4f1aa609f5a" target="_top" xlink:title=" ">
<polygon fill="white" stroke="#666666" points="402,-41 229,-41 229,0 402,0 402,-41"/>
<text text-anchor="start" x="237" y="-29" font-family="Helvetica,sans-Serif" font-size="10.00">Terraria.GameContent.UI.</text>
<text text-anchor="start" x="237" y="-18" font-family="Helvetica,sans-Serif" font-size="10.00">States.UIResourcePackSelection</text>
<text text-anchor="middle" x="315.5" y="-7" font-family="Helvetica,sans-Serif" font-size="10.00">Menu.SetupGamepadPoints</text>
</a>
</g>
</g>
<!-- Node1&#45;&gt;Node4 -->
<g id="edge3_Node000001_Node000004" class="edge">
<title>Node1&#45;&gt;Node4</title>
<g id="a_edge3_Node000001_Node000004"><a xlink:title=" ">
<path fill="none" stroke="#63b8ff" d="M427.66,-35.12C419.07,-33.99 410.49,-32.86 402.1,-31.76"/>
<polygon fill="#63b8ff" stroke="#63b8ff" points="427.34,-38.61 437.72,-36.44 428.26,-31.67 427.34,-38.61"/>
</a>
</g>
</g>
<!-- Node3 -->
<g id="Node000003" class="node">
<title>Node3</title>
<g id="a_Node000003"><a xlink:href="../../dc/dcf/classTerraria_1_1GameContent_1_1UI_1_1States_1_1UICreativePowersMenu_ad9b05b75947bba4e30b276a87cae259d.html#ad9b05b75947bba4e30b276a87cae259d" target="_top" xlink:title=" ">
<polygon fill="white" stroke="#666666" points="193,-94.5 0,-94.5 0,-64.5 193,-64.5 193,-94.5"/>
<text text-anchor="start" x="8" y="-82.5" font-family="Helvetica,sans-Serif" font-size="10.00">Terraria.GameContent.UI.</text>
<text text-anchor="middle" x="96.5" y="-71.5" font-family="Helvetica,sans-Serif" font-size="10.00">States.UICreativePowersMenu.Draw</text>
</a>
</g>
</g>
<!-- Node2&#45;&gt;Node3 -->
<g id="edge2_Node000002_Node000003" class="edge">
<title>Node2&#45;&gt;Node3</title>
<g id="a_edge2_Node000002_Node000003"><a xlink:title=" ">
<path fill="none" stroke="#63b8ff" d="M221.63,-79.5C212.15,-79.5 202.51,-79.5 193,-79.5"/>
<polygon fill="#63b8ff" stroke="#63b8ff" points="221.84,-83 231.84,-79.5 221.84,-76 221.84,-83"/>
</a>
</g>
</g>
<!-- Node5 -->
<g id="Node000005" class="node">
<title>Node5</title>
<g id="a_Node000005"><a xlink:href="../../d5/de0/classTerraria_1_1GameContent_1_1UI_1_1States_1_1UIResourcePackSelectionMenu_a0bc1cd60ee1084348a8020b42c48d419.html#a0bc1cd60ee1084348a8020b42c48d419" target="_top" xlink:title=" ">
<polygon fill="white" stroke="#666666" points="183,-41 10,-41 10,0 183,0 183,-41"/>
<text text-anchor="start" x="18" y="-29" font-family="Helvetica,sans-Serif" font-size="10.00">Terraria.GameContent.UI.</text>
<text text-anchor="start" x="18" y="-18" font-family="Helvetica,sans-Serif" font-size="10.00">States.UIResourcePackSelection</text>
<text text-anchor="middle" x="96.5" y="-7" font-family="Helvetica,sans-Serif" font-size="10.00">Menu.Draw</text>
</a>
</g>
</g>
<!-- Node4&#45;&gt;Node5 -->
<g id="edge4_Node000004_Node000005" class="edge">
<title>Node4&#45;&gt;Node5</title>
<g id="a_edge4_Node000004_Node000005"><a xlink:title=" ">
<path fill="none" stroke="#63b8ff" d="M218.51,-20.5C206.8,-20.5 194.9,-20.5 183.35,-20.5"/>
<polygon fill="#63b8ff" stroke="#63b8ff" points="218.74,-24 228.74,-20.5 218.74,-17 218.74,-24"/>
</a>
</g>
</g>
</g>
</svg>
