<?xml version="1.0" encoding="UTF-8" standalone="no"?>
<!DOCTYPE svg PUBLIC "-//W3C//DTD SVG 1.1//EN"
 "http://www.w3.org/Graphics/SVG/1.1/DTD/svg11.dtd">
<!-- Generated by graphviz version 2.43.0 (0)
 -->
<!-- Title: CreativePowers.APerPlayerSliderPower.GetOptionButton Pages: 1 -->
<svg width="1758pt" height="651pt"
 viewBox="0.00 0.00 1758.00 650.50" xmlns="http://www.w3.org/2000/svg" xmlns:xlink="http://www.w3.org/1999/xlink">
<g id="graph0" class="graph" transform="scale(1 1) rotate(0) translate(4 646.5)">
<title>CreativePowers.APerPlayerSliderPower.GetOptionButton</title>
<polygon fill="white" stroke="transparent" points="-4,4 -4,-646.5 1754,-646.5 1754,4 -4,4"/>
<!-- Node1 -->
<g id="node1" class="node">
<title>Node1</title>
<g id="a_node1"><a xlink:title=" ">
<polygon fill="#bfbfbf" stroke="black" points="0,-198.5 0,-228.5 158,-228.5 158,-198.5 0,-198.5"/>
<text text-anchor="start" x="8" y="-216.5" font-family="Helvetica,sans-Serif" font-size="10.00">CreativePowers.APerPlayer</text>
<text text-anchor="middle" x="79" y="-205.5" font-family="Helvetica,sans-Serif" font-size="10.00">SliderPower.GetOptionButton</text>
</a>
</g>
</g>
<!-- Node2 -->
<g id="node2" class="node">
<title>Node2</title>
<g id="a_node2"><a xlink:href="../../de/db3/classUIElement_aba285d19a4f931a415048ae87b65afb9.html#aba285d19a4f931a415048ae87b65afb9" target="_top" xlink:title=" ">
<polygon fill="white" stroke="black" points="222,-547 222,-566 329,-566 329,-547 222,-547"/>
<text text-anchor="middle" x="275.5" y="-554" font-family="Helvetica,sans-Serif" font-size="10.00">UIElement.Append</text>
</a>
</g>
</g>
<!-- Node1&#45;&gt;Node2 -->
<g id="edge1" class="edge">
<title>Node1&#45;&gt;Node2</title>
<path fill="none" stroke="midnightblue" d="M88.61,-228.68C120.16,-284.32 229.4,-476.96 263.94,-537.88"/>
<polygon fill="midnightblue" stroke="midnightblue" points="261.01,-539.81 268.99,-546.78 267.1,-536.36 261.01,-539.81"/>
</g>
<!-- Node11 -->
<g id="node11" class="node">
<title>Node11</title>
<g id="a_node11"><a xlink:href="../../d1/dd7/classCreativePowers_1_1APerPlayerSliderPower_a60d3a2766e7bba4911969acdb9ba1dbc.html#a60d3a2766e7bba4911969acdb9ba1dbc" target="_top" xlink:title=" ">
<polygon fill="white" stroke="black" points="199.5,-254 199.5,-295 351.5,-295 351.5,-254 199.5,-254"/>
<text text-anchor="start" x="207.5" y="-283" font-family="Helvetica,sans-Serif" font-size="10.00">CreativePowers.APerPlayer</text>
<text text-anchor="start" x="207.5" y="-272" font-family="Helvetica,sans-Serif" font-size="10.00">SliderPower.categoryButton</text>
<text text-anchor="middle" x="275.5" y="-261" font-family="Helvetica,sans-Serif" font-size="10.00">_OnUpdate</text>
</a>
</g>
</g>
<!-- Node1&#45;&gt;Node11 -->
<g id="edge11" class="edge">
<title>Node1&#45;&gt;Node11</title>
<path fill="none" stroke="midnightblue" d="M128.08,-228.58C149.53,-235.31 175.32,-243.4 199.24,-250.9"/>
<polygon fill="midnightblue" stroke="midnightblue" points="198.41,-254.3 209,-253.96 200.51,-247.63 198.41,-254.3"/>
</g>
<!-- Node34 -->
<g id="node34" class="node">
<title>Node34</title>
<g id="a_node34"><a xlink:href="../../dc/db4/classCreativePowersHelper_a4c68336b5a21bc32eb4e556ca0bfbfca.html#a4c68336b5a21bc32eb4e556ca0bfbfca" target="_top" xlink:title=" ">
<polygon fill="white" stroke="black" points="203,-76.5 203,-106.5 348,-106.5 348,-76.5 203,-76.5"/>
<text text-anchor="start" x="211" y="-94.5" font-family="Helvetica,sans-Serif" font-size="10.00">CreativePowersHelper.Get</text>
<text text-anchor="middle" x="275.5" y="-83.5" font-family="Helvetica,sans-Serif" font-size="10.00">IconImage</text>
</a>
</g>
</g>
<!-- Node1&#45;&gt;Node34 -->
<g id="edge39" class="edge">
<title>Node1&#45;&gt;Node34</title>
<path fill="none" stroke="midnightblue" d="M93.61,-198.31C113.6,-176.88 153,-137.89 194,-115.5 197.26,-113.72 200.68,-112.05 204.17,-110.5"/>
<polygon fill="midnightblue" stroke="midnightblue" points="205.67,-113.67 213.6,-106.64 203.02,-107.19 205.67,-113.67"/>
</g>
<!-- Node36 -->
<g id="node36" class="node">
<title>Node36</title>
<g id="a_node36"><a xlink:href="../../dc/db4/classCreativePowersHelper_ae0d0b11be9a8fa5b99604bed13b71704.html#ae0d0b11be9a8fa5b99604bed13b71704" target="_top" xlink:title=" ">
<polygon fill="white" stroke="black" points="194,-125.5 194,-155.5 357,-155.5 357,-125.5 194,-125.5"/>
<text text-anchor="start" x="202" y="-143.5" font-family="Helvetica,sans-Serif" font-size="10.00">CreativePowersHelper.Update</text>
<text text-anchor="middle" x="275.5" y="-132.5" font-family="Helvetica,sans-Serif" font-size="10.00">UnlockStateByPower</text>
</a>
</g>
</g>
<!-- Node1&#45;&gt;Node36 -->
<g id="edge41" class="edge">
<title>Node1&#45;&gt;Node36</title>
<path fill="none" stroke="midnightblue" d="M120.3,-198.37C150.55,-187.02 192.16,-171.41 224.52,-159.26"/>
<polygon fill="midnightblue" stroke="midnightblue" points="226.12,-162.4 234.25,-155.61 223.66,-155.84 226.12,-162.4"/>
</g>
<!-- Node3 -->
<g id="node3" class="node">
<title>Node3</title>
<g id="a_node3"><a xlink:href="../../de/db3/classUIElement_aee194ceb3c88758159e31761805e6a9d.html#aee194ceb3c88758159e31761805e6a9d" target="_top" xlink:title=" ">
<polygon fill="white" stroke="black" points="424.5,-547 424.5,-566 552.5,-566 552.5,-547 424.5,-547"/>
<text text-anchor="middle" x="488.5" y="-554" font-family="Helvetica,sans-Serif" font-size="10.00">UIElement.Recalculate</text>
</a>
</g>
</g>
<!-- Node2&#45;&gt;Node3 -->
<g id="edge2" class="edge">
<title>Node2&#45;&gt;Node3</title>
<path fill="none" stroke="midnightblue" d="M329.2,-556.5C354.86,-556.5 386.13,-556.5 414.08,-556.5"/>
<polygon fill="midnightblue" stroke="midnightblue" points="414.21,-560 424.21,-556.5 414.21,-553 414.21,-560"/>
</g>
<!-- Node9 -->
<g id="node9" class="node">
<title>Node9</title>
<g id="a_node9"><a xlink:href="../../de/db3/classUIElement_a076aedca16efdf0972684e3548a0c73a.html#a076aedca16efdf0972684e3548a0c73a" target="_top" xlink:title=" ">
<polygon fill="white" stroke="black" points="433,-604 433,-623 544,-623 544,-604 433,-604"/>
<text text-anchor="middle" x="488.5" y="-611" font-family="Helvetica,sans-Serif" font-size="10.00">UIElement.Remove</text>
</a>
</g>
</g>
<!-- Node2&#45;&gt;Node9 -->
<g id="edge9" class="edge">
<title>Node2&#45;&gt;Node9</title>
<path fill="none" stroke="midnightblue" d="M311.82,-566.04C347.57,-575.7 403.01,-590.68 442.03,-601.22"/>
<polygon fill="midnightblue" stroke="midnightblue" points="441.5,-604.7 452.07,-603.93 443.33,-597.94 441.5,-604.7"/>
</g>
<!-- Node4 -->
<g id="node4" class="node">
<title>Node4</title>
<g id="a_node4"><a xlink:href="../../df/de1/classUserInterface_a0cfc3c35a0f4df271c43ed2d90975df1.html#a0cfc3c35a0f4df271c43ed2d90975df1" target="_top" xlink:title=" ">
<polygon fill="white" stroke="black" points="630,-509 630,-528 791,-528 791,-509 630,-509"/>
<text text-anchor="middle" x="710.5" y="-516" font-family="Helvetica,sans-Serif" font-size="10.00">UserInterface.GetDimensions</text>
</a>
</g>
</g>
<!-- Node3&#45;&gt;Node4 -->
<g id="edge3" class="edge">
<title>Node3&#45;&gt;Node4</title>
<path fill="none" stroke="midnightblue" d="M544.73,-546.96C574.94,-541.74 612.54,-535.25 644.19,-529.78"/>
<polygon fill="midnightblue" stroke="midnightblue" points="644.99,-533.19 654.25,-528.04 643.8,-526.3 644.99,-533.19"/>
</g>
<!-- Node5 -->
<g id="node5" class="node">
<title>Node5</title>
<g id="a_node5"><a xlink:href="../../de/db3/classUIElement_a5030449fa3a7231b282fb98cfdf1ce01.html#a5030449fa3a7231b282fb98cfdf1ce01" target="_top" xlink:title=" ">
<polygon fill="white" stroke="black" points="622.5,-459.5 622.5,-489.5 798.5,-489.5 798.5,-459.5 622.5,-459.5"/>
<text text-anchor="start" x="630.5" y="-477.5" font-family="Helvetica,sans-Serif" font-size="10.00">UIElement.GetDimensionsBased</text>
<text text-anchor="middle" x="710.5" y="-466.5" font-family="Helvetica,sans-Serif" font-size="10.00">OnParentDimensions</text>
</a>
</g>
</g>
<!-- Node3&#45;&gt;Node5 -->
<g id="edge4" class="edge">
<title>Node3&#45;&gt;Node5</title>
<path fill="none" stroke="midnightblue" d="M509.05,-546.93C534.28,-534.83 579.71,-513.85 620,-499.5 626.79,-497.08 633.94,-494.75 641.11,-492.54"/>
<polygon fill="midnightblue" stroke="midnightblue" points="642.3,-495.83 650.88,-489.61 640.29,-489.13 642.3,-495.83"/>
</g>
<!-- Node7 -->
<g id="node7" class="node">
<title>Node7</title>
<g id="a_node7"><a xlink:href="../../de/db3/classUIElement_adc42b475f74d77f6fe008b8f1e77ad19.html#adc42b475f74d77f6fe008b8f1e77ad19" target="_top" xlink:title=" ">
<polygon fill="white" stroke="black" points="625.5,-585 625.5,-604 795.5,-604 795.5,-585 625.5,-585"/>
<text text-anchor="middle" x="710.5" y="-592" font-family="Helvetica,sans-Serif" font-size="10.00">UIElement.GetInnerDimensions</text>
</a>
</g>
</g>
<!-- Node3&#45;&gt;Node7 -->
<g id="edge6" class="edge">
<title>Node3&#45;&gt;Node7</title>
<path fill="none" stroke="midnightblue" d="M544.73,-566.04C574.94,-571.26 612.54,-577.75 644.19,-583.22"/>
<polygon fill="midnightblue" stroke="midnightblue" points="643.8,-586.7 654.25,-584.96 644.99,-579.81 643.8,-586.7"/>
</g>
<!-- Node8 -->
<g id="node8" class="node">
<title>Node8</title>
<g id="a_node8"><a xlink:href="../../de/db3/classUIElement_af9e665c7647c2fb436ed3c20be3a40a2.html#af9e665c7647c2fb436ed3c20be3a40a2" target="_top" xlink:title=" ">
<polygon fill="white" stroke="black" points="626.5,-547 626.5,-566 794.5,-566 794.5,-547 626.5,-547"/>
<text text-anchor="middle" x="710.5" y="-554" font-family="Helvetica,sans-Serif" font-size="10.00">UIElement.RecalculateChildren</text>
</a>
</g>
</g>
<!-- Node3&#45;&gt;Node8 -->
<g id="edge7" class="edge">
<title>Node3&#45;&gt;Node8</title>
<path fill="none" stroke="midnightblue" d="M552.54,-550.33C572.38,-549.81 594.73,-549.64 616.21,-549.82"/>
<polygon fill="midnightblue" stroke="midnightblue" points="616.3,-553.32 626.34,-549.93 616.38,-546.32 616.3,-553.32"/>
</g>
<!-- Node6 -->
<g id="node6" class="node">
<title>Node6</title>
<g id="a_node6"><a xlink:href="../../d1/de0/structStyleDimension_a62acad4030569824dcced4b9e3a10e56.html#a62acad4030569824dcced4b9e3a10e56" target="_top" xlink:title=" ">
<polygon fill="white" stroke="black" points="853,-465 853,-484 994,-484 994,-465 853,-465"/>
<text text-anchor="middle" x="923.5" y="-472" font-family="Helvetica,sans-Serif" font-size="10.00">StyleDimension.GetValue</text>
</a>
</g>
</g>
<!-- Node5&#45;&gt;Node6 -->
<g id="edge5" class="edge">
<title>Node5&#45;&gt;Node6</title>
<path fill="none" stroke="midnightblue" d="M798.54,-474.5C813.06,-474.5 828.07,-474.5 842.41,-474.5"/>
<polygon fill="midnightblue" stroke="midnightblue" points="842.72,-478 852.72,-474.5 842.72,-471 842.72,-478"/>
</g>
<!-- Node8&#45;&gt;Node3 -->
<g id="edge8" class="edge">
<title>Node8&#45;&gt;Node3</title>
<path fill="none" stroke="midnightblue" d="M626.34,-563.07C605.41,-563.36 583.1,-563.3 562.7,-562.9"/>
<polygon fill="midnightblue" stroke="midnightblue" points="562.62,-559.4 552.54,-562.67 562.46,-566.4 562.62,-559.4"/>
</g>
<!-- Node10 -->
<g id="node10" class="node">
<title>Node10</title>
<g id="a_node10"><a xlink:href="../../de/db3/classUIElement_a016d4714237f6ee11a0d439dacd6a05d.html#a016d4714237f6ee11a0d439dacd6a05d" target="_top" xlink:title=" ">
<polygon fill="white" stroke="black" points="642.5,-623 642.5,-642 778.5,-642 778.5,-623 642.5,-623"/>
<text text-anchor="middle" x="710.5" y="-630" font-family="Helvetica,sans-Serif" font-size="10.00">UIElement.RemoveChild</text>
</a>
</g>
</g>
<!-- Node9&#45;&gt;Node10 -->
<g id="edge10" class="edge">
<title>Node9&#45;&gt;Node10</title>
<path fill="none" stroke="midnightblue" d="M544.16,-618.22C570.69,-620.51 603.02,-623.3 632.03,-625.81"/>
<polygon fill="midnightblue" stroke="midnightblue" points="631.87,-629.31 642.14,-626.68 632.47,-622.33 631.87,-629.31"/>
</g>
<!-- Node12 -->
<g id="node12" class="node">
<title>Node12</title>
<g id="a_node12"><a xlink:href="../../dc/db4/classCreativePowersHelper_ae356c34bd213e6b5d0ec46f1f9d32990.html#ae356c34bd213e6b5d0ec46f1f9d32990" target="_top" xlink:title=" ">
<polygon fill="white" stroke="black" points="415.5,-235.5 415.5,-265.5 561.5,-265.5 561.5,-235.5 415.5,-235.5"/>
<text text-anchor="start" x="423.5" y="-253.5" font-family="Helvetica,sans-Serif" font-size="10.00">CreativePowersHelper.Add</text>
<text text-anchor="middle" x="488.5" y="-242.5" font-family="Helvetica,sans-Serif" font-size="10.00">DescriptionIfNeeded</text>
</a>
</g>
</g>
<!-- Node11&#45;&gt;Node12 -->
<g id="edge12" class="edge">
<title>Node11&#45;&gt;Node12</title>
<path fill="none" stroke="midnightblue" d="M351.78,-265.94C369.1,-263.97 387.6,-261.86 405.19,-259.86"/>
<polygon fill="midnightblue" stroke="midnightblue" points="405.89,-263.31 415.43,-258.7 405.1,-256.35 405.89,-263.31"/>
</g>
<!-- Node13 -->
<g id="node13" class="node">
<title>Node13</title>
<g id="a_node13"><a xlink:href="../../d0/d41/classLanguage_a9f392308c3f9927bacc3d83792b46408.html#a9f392308c3f9927bacc3d83792b46408" target="_top" xlink:title=" ">
<polygon fill="white" stroke="black" points="645,-217 645,-236 776,-236 776,-217 645,-217"/>
<text text-anchor="middle" x="710.5" y="-224" font-family="Helvetica,sans-Serif" font-size="10.00">Language.GetTextValue</text>
</a>
</g>
</g>
<!-- Node11&#45;&gt;Node13 -->
<g id="edge36" class="edge">
<title>Node11&#45;&gt;Node13</title>
<path fill="none" stroke="midnightblue" d="M314.62,-295.09C336.8,-305.89 365.68,-317.99 393,-323.5 476.21,-340.29 503.66,-350.93 584,-323.5 630.39,-307.66 672.95,-266.95 694.57,-243.61"/>
<polygon fill="midnightblue" stroke="midnightblue" points="697.21,-245.92 701.32,-236.15 692.01,-241.22 697.21,-245.92"/>
</g>
<!-- Node15 -->
<g id="node15" class="node">
<title>Node15</title>
<g id="a_node15"><a xlink:href="../../dc/db4/classCreativePowersHelper_a33de5e95858ad274256b2c23d5c325d7.html#a33de5e95858ad274256b2c23d5c325d7" target="_top" xlink:title=" ">
<polygon fill="white" stroke="black" points="415.5,-137.5 415.5,-167.5 561.5,-167.5 561.5,-137.5 415.5,-137.5"/>
<text text-anchor="start" x="423.5" y="-155.5" font-family="Helvetica,sans-Serif" font-size="10.00">CreativePowersHelper.Add</text>
<text text-anchor="middle" x="488.5" y="-144.5" font-family="Helvetica,sans-Serif" font-size="10.00">PermissionTextIfNeeded</text>
</a>
</g>
</g>
<!-- Node11&#45;&gt;Node15 -->
<g id="edge15" class="edge">
<title>Node11&#45;&gt;Node15</title>
<path fill="none" stroke="midnightblue" d="M295.49,-253.7C317.02,-231.36 354.2,-196.41 393,-176.5 397.01,-174.45 401.2,-172.56 405.5,-170.83"/>
<polygon fill="midnightblue" stroke="midnightblue" points="406.89,-174.04 415.04,-167.28 404.45,-167.48 406.89,-174.04"/>
</g>
<!-- Node17 -->
<g id="node17" class="node">
<title>Node17</title>
<g id="a_node17"><a xlink:href="../../dc/db4/classCreativePowersHelper_a6a363686f665c1a4a1971ff6f2059a25.html#a6a363686f665c1a4a1971ff6f2059a25" target="_top" xlink:title=" ">
<polygon fill="white" stroke="black" points="415.5,-186.5 415.5,-216.5 561.5,-216.5 561.5,-186.5 415.5,-186.5"/>
<text text-anchor="start" x="423.5" y="-204.5" font-family="Helvetica,sans-Serif" font-size="10.00">CreativePowersHelper.Add</text>
<text text-anchor="middle" x="488.5" y="-193.5" font-family="Helvetica,sans-Serif" font-size="10.00">UnlockTextIfNeeded</text>
</a>
</g>
</g>
<!-- Node11&#45;&gt;Node17 -->
<g id="edge18" class="edge">
<title>Node11&#45;&gt;Node17</title>
<path fill="none" stroke="midnightblue" d="M320.99,-253.94C342.46,-244.5 368.76,-233.62 393,-225.5 399.42,-223.35 406.13,-221.29 412.9,-219.33"/>
<polygon fill="midnightblue" stroke="midnightblue" points="414.13,-222.62 422.82,-216.56 412.25,-215.88 414.13,-222.62"/>
</g>
<!-- Node18 -->
<g id="node18" class="node">
<title>Node18</title>
<g id="a_node18"><a xlink:href="../../d1/dd7/classCreativePowers_1_1APerPlayerSliderPower_abf171d1017f437ed1d42825f7c422a82.html#abf171d1017f437ed1d42825f7c422a82" target="_top" xlink:title=" ">
<polygon fill="white" stroke="black" points="393,-410.5 393,-440.5 584,-440.5 584,-410.5 393,-410.5"/>
<text text-anchor="start" x="401" y="-428.5" font-family="Helvetica,sans-Serif" font-size="10.00">CreativePowers.APerPlayer</text>
<text text-anchor="middle" x="488.5" y="-417.5" font-family="Helvetica,sans-Serif" font-size="10.00">SliderPower.AttemptPushingChange</text>
</a>
</g>
</g>
<!-- Node11&#45;&gt;Node18 -->
<g id="edge20" class="edge">
<title>Node11&#45;&gt;Node18</title>
<path fill="none" stroke="midnightblue" d="M290.03,-295.33C309.42,-323.49 347.81,-373.32 393,-400.5 396.6,-402.67 400.39,-404.65 404.29,-406.46"/>
<polygon fill="midnightblue" stroke="midnightblue" points="403.01,-409.71 413.58,-410.38 405.73,-403.27 403.01,-409.71"/>
</g>
<!-- Node31 -->
<g id="node31" class="node">
<title>Node31</title>
<g id="a_node31"><a xlink:href="../../d1/dd7/classCreativePowers_1_1APerPlayerSliderPower_aaded39962673adf4527b28ebbb952748.html#aaded39962673adf4527b28ebbb952748" target="_top" xlink:title=" ">
<polygon fill="white" stroke="black" points="414,-284.5 414,-314.5 563,-314.5 563,-284.5 414,-284.5"/>
<text text-anchor="start" x="422" y="-302.5" font-family="Helvetica,sans-Serif" font-size="10.00">CreativePowers.APerPlayer</text>
<text text-anchor="middle" x="488.5" y="-291.5" font-family="Helvetica,sans-Serif" font-size="10.00">SliderPower.GetIsUnlocked</text>
</a>
</g>
</g>
<!-- Node11&#45;&gt;Node31 -->
<g id="edge35" class="edge">
<title>Node11&#45;&gt;Node31</title>
<path fill="none" stroke="midnightblue" d="M351.78,-283.42C368.6,-285.41 386.54,-287.54 403.68,-289.57"/>
<polygon fill="midnightblue" stroke="midnightblue" points="403.32,-293.05 413.66,-290.75 404.15,-286.1 403.32,-293.05"/>
</g>
<!-- Node32 -->
<g id="node32" class="node">
<title>Node32</title>
<g id="a_node32"><a xlink:href="../../db/d4a/classMain_a5528938946cf03e9117a3af59af828f1.html#a5528938946cf03e9117a3af59af828f1" target="_top" xlink:title=" ">
<polygon fill="white" stroke="black" points="412.5,-372 412.5,-391 564.5,-391 564.5,-372 412.5,-372"/>
<text text-anchor="middle" x="488.5" y="-379" font-family="Helvetica,sans-Serif" font-size="10.00">Main.MouseTextNoOverride</text>
</a>
</g>
</g>
<!-- Node11&#45;&gt;Node32 -->
<g id="edge37" class="edge">
<title>Node11&#45;&gt;Node32</title>
<path fill="none" stroke="midnightblue" d="M299.85,-295.14C322.28,-313.96 357.85,-341.21 393,-357.5 403.22,-362.23 414.5,-366.13 425.61,-369.3"/>
<polygon fill="midnightblue" stroke="midnightblue" points="424.74,-372.69 435.3,-371.9 426.55,-365.93 424.74,-372.69"/>
</g>
<!-- Node12&#45;&gt;Node13 -->
<g id="edge13" class="edge">
<title>Node12&#45;&gt;Node13</title>
<path fill="none" stroke="midnightblue" d="M561.54,-242.64C585,-240.08 611.09,-237.24 634.75,-234.65"/>
<polygon fill="midnightblue" stroke="midnightblue" points="635.17,-238.13 644.73,-233.57 634.41,-231.17 635.17,-238.13"/>
</g>
<!-- Node14 -->
<g id="node14" class="node">
<title>Node14</title>
<g id="a_node14"><a xlink:href="../../d2/d9f/classLanguageManager_a2672f0189a3c4aa8b0344a0bcc60c582.html#a2672f0189a3c4aa8b0344a0bcc60c582" target="_top" xlink:title=" ">
<polygon fill="white" stroke="black" points="837,-217 837,-236 1010,-236 1010,-217 837,-217"/>
<text text-anchor="middle" x="923.5" y="-224" font-family="Helvetica,sans-Serif" font-size="10.00">LanguageManager.GetTextValue</text>
</a>
</g>
</g>
<!-- Node13&#45;&gt;Node14 -->
<g id="edge14" class="edge">
<title>Node13&#45;&gt;Node14</title>
<path fill="none" stroke="midnightblue" d="M776.24,-226.5C792.24,-226.5 809.72,-226.5 826.85,-226.5"/>
<polygon fill="midnightblue" stroke="midnightblue" points="826.88,-230 836.88,-226.5 826.88,-223 826.88,-230"/>
</g>
<!-- Node15&#45;&gt;Node13 -->
<g id="edge16" class="edge">
<title>Node15&#45;&gt;Node13</title>
<path fill="none" stroke="midnightblue" d="M553.37,-167.51C563.67,-170.28 574.18,-173.31 584,-176.5 616.89,-187.18 653.52,-202.14 678.67,-212.91"/>
<polygon fill="midnightblue" stroke="midnightblue" points="677.48,-216.21 688.05,-216.96 680.26,-209.78 677.48,-216.21"/>
</g>
<!-- Node16 -->
<g id="node16" class="node">
<title>Node16</title>
<g id="a_node16"><a xlink:href="../../dc/db4/classCreativePowersHelper_a5e325f64cf27dd7610fa2655d9d84376.html#a5e325f64cf27dd7610fa2655d9d84376" target="_top" xlink:title=" ">
<polygon fill="white" stroke="black" points="620,-137.5 620,-167.5 801,-167.5 801,-137.5 620,-137.5"/>
<text text-anchor="start" x="628" y="-155.5" font-family="Helvetica,sans-Serif" font-size="10.00">CreativePowersHelper.IsAvailable</text>
<text text-anchor="middle" x="710.5" y="-144.5" font-family="Helvetica,sans-Serif" font-size="10.00">ForPlayer</text>
</a>
</g>
</g>
<!-- Node15&#45;&gt;Node16 -->
<g id="edge17" class="edge">
<title>Node15&#45;&gt;Node16</title>
<path fill="none" stroke="midnightblue" d="M561.54,-152.5C577,-152.5 593.6,-152.5 609.9,-152.5"/>
<polygon fill="midnightblue" stroke="midnightblue" points="609.99,-156 619.99,-152.5 609.99,-149 609.99,-156"/>
</g>
<!-- Node17&#45;&gt;Node13 -->
<g id="edge19" class="edge">
<title>Node17&#45;&gt;Node13</title>
<path fill="none" stroke="midnightblue" d="M561.54,-209.69C585,-212.35 611.09,-215.32 634.75,-218.01"/>
<polygon fill="midnightblue" stroke="midnightblue" points="634.4,-221.49 644.73,-219.14 635.19,-214.53 634.4,-221.49"/>
</g>
<!-- Node19 -->
<g id="node19" class="node">
<title>Node19</title>
<g id="a_node19"><a xlink:href="../../d1/dd7/classCreativePowers_1_1APerPlayerSliderPower_a8a8f6255292ff2662eb3e5dac0fecc23.html#a8a8f6255292ff2662eb3e5dac0fecc23" target="_top" xlink:title=" ">
<polygon fill="white" stroke="black" points="636,-410.5 636,-440.5 785,-440.5 785,-410.5 636,-410.5"/>
<text text-anchor="start" x="644" y="-428.5" font-family="Helvetica,sans-Serif" font-size="10.00">CreativePowers.APerPlayer</text>
<text text-anchor="middle" x="710.5" y="-417.5" font-family="Helvetica,sans-Serif" font-size="10.00">SliderPower.PushChange</text>
</a>
</g>
</g>
<!-- Node18&#45;&gt;Node19 -->
<g id="edge21" class="edge">
<title>Node18&#45;&gt;Node19</title>
<path fill="none" stroke="midnightblue" d="M584.08,-425.5C597.9,-425.5 612.06,-425.5 625.66,-425.5"/>
<polygon fill="midnightblue" stroke="midnightblue" points="625.93,-429 635.93,-425.5 625.93,-422 625.93,-429"/>
</g>
<!-- Node20 -->
<g id="node20" class="node">
<title>Node20</title>
<g id="a_node20"><a xlink:href="../../d9/d27/classNetCreativePowersModule_abcd54cc9aef5f4bfc8c72b7b29da44c2.html#abcd54cc9aef5f4bfc8c72b7b29da44c2" target="_top" xlink:title=" ">
<polygon fill="white" stroke="black" points="849,-364.5 849,-394.5 998,-394.5 998,-364.5 849,-364.5"/>
<text text-anchor="start" x="857" y="-382.5" font-family="Helvetica,sans-Serif" font-size="10.00">NetCreativePowersModule.</text>
<text text-anchor="middle" x="923.5" y="-371.5" font-family="Helvetica,sans-Serif" font-size="10.00">PreparePacket</text>
</a>
</g>
</g>
<!-- Node19&#45;&gt;Node20 -->
<g id="edge22" class="edge">
<title>Node19&#45;&gt;Node20</title>
<path fill="none" stroke="midnightblue" d="M780.59,-410.44C800.73,-406.05 822.89,-401.22 843.59,-396.7"/>
<polygon fill="midnightblue" stroke="midnightblue" points="844.59,-400.07 853.62,-394.52 843.1,-393.23 844.59,-400.07"/>
</g>
<!-- Node21 -->
<g id="node21" class="node">
<title>Node21</title>
<g id="a_node21"><a xlink:href="../../d9/d9a/classNetManager_a1189fb9a566a7f139beddaefd6f87618.html#a1189fb9a566a7f139beddaefd6f87618" target="_top" xlink:title=" ">
<polygon fill="white" stroke="black" points="845.5,-413.5 845.5,-443.5 1001.5,-443.5 1001.5,-413.5 845.5,-413.5"/>
<text text-anchor="start" x="853.5" y="-431.5" font-family="Helvetica,sans-Serif" font-size="10.00">NetManager.SendToServerOr</text>
<text text-anchor="middle" x="923.5" y="-420.5" font-family="Helvetica,sans-Serif" font-size="10.00">Loopback</text>
</a>
</g>
</g>
<!-- Node19&#45;&gt;Node21 -->
<g id="edge23" class="edge">
<title>Node19&#45;&gt;Node21</title>
<path fill="none" stroke="midnightblue" d="M785,-426.55C801.15,-426.77 818.41,-427.02 835.05,-427.26"/>
<polygon fill="midnightblue" stroke="midnightblue" points="835.27,-430.76 845.32,-427.4 835.37,-423.76 835.27,-430.76"/>
</g>
<!-- Node22 -->
<g id="node22" class="node">
<title>Node22</title>
<g id="a_node22"><a xlink:href="../../d9/d9a/classNetManager_a4fbca54e2c547ffcb5ae3acfd942839d.html#a4fbca54e2c547ffcb5ae3acfd942839d" target="_top" xlink:title=" ">
<polygon fill="white" stroke="black" points="1227,-441 1227,-460 1359,-460 1359,-441 1227,-441"/>
<text text-anchor="middle" x="1293" y="-448" font-family="Helvetica,sans-Serif" font-size="10.00">NetManager.SendToSelf</text>
</a>
</g>
</g>
<!-- Node21&#45;&gt;Node22 -->
<g id="edge24" class="edge">
<title>Node21&#45;&gt;Node22</title>
<path fill="none" stroke="midnightblue" d="M1001.54,-433.11C1064.74,-436.9 1153.72,-442.22 1216.5,-445.98"/>
<polygon fill="midnightblue" stroke="midnightblue" points="1216.54,-449.49 1226.73,-446.59 1216.96,-442.5 1216.54,-449.49"/>
</g>
<!-- Node27 -->
<g id="node27" class="node">
<title>Node27</title>
<g id="a_node27"><a xlink:href="../../d9/d9a/classNetManager_a54aed10c4e2569c304f7516cc8be1d4b.html#a54aed10c4e2569c304f7516cc8be1d4b" target="_top" xlink:title=" ">
<polygon fill="white" stroke="black" points="1046,-400 1046,-419 1191,-419 1191,-400 1046,-400"/>
<text text-anchor="middle" x="1118.5" y="-407" font-family="Helvetica,sans-Serif" font-size="10.00">NetManager.SendToServer</text>
</a>
</g>
</g>
<!-- Node21&#45;&gt;Node27 -->
<g id="edge29" class="edge">
<title>Node21&#45;&gt;Node27</title>
<path fill="none" stroke="midnightblue" d="M1001.61,-420.91C1012.78,-419.81 1024.32,-418.67 1035.58,-417.56"/>
<polygon fill="midnightblue" stroke="midnightblue" points="1036.23,-421.02 1045.83,-416.56 1035.54,-414.05 1036.23,-421.02"/>
</g>
<!-- Node23 -->
<g id="node23" class="node">
<title>Node23</title>
<g id="a_node23"><a xlink:href="../../d1/d6d/interfaceINetDiagnosticsUI_afd60b5e9c7fb514d13484421502f1aa3.html#afd60b5e9c7fb514d13484421502f1aa3" target="_top" xlink:title=" ">
<polygon fill="white" stroke="black" points="1395,-394.5 1395,-424.5 1553,-424.5 1553,-394.5 1395,-394.5"/>
<text text-anchor="start" x="1403" y="-412.5" font-family="Helvetica,sans-Serif" font-size="10.00">INetDiagnosticsUI.CountSent</text>
<text text-anchor="middle" x="1474" y="-401.5" font-family="Helvetica,sans-Serif" font-size="10.00">ModuleMessage</text>
</a>
</g>
</g>
<!-- Node22&#45;&gt;Node23 -->
<g id="edge25" class="edge">
<title>Node22&#45;&gt;Node23</title>
<path fill="none" stroke="midnightblue" d="M1335.52,-440.99C1353.88,-436.78 1376.08,-431.7 1397.22,-426.86"/>
<polygon fill="midnightblue" stroke="midnightblue" points="1398.21,-430.22 1407.17,-424.58 1396.64,-423.4 1398.21,-430.22"/>
</g>
<!-- Node24 -->
<g id="node24" class="node">
<title>Node24</title>
<g id="a_node24"><a xlink:href="../../d9/d9a/classNetManager_a390593232ab93cd9a865c3ce2e1c1b48.html#a390593232ab93cd9a865c3ce2e1c1b48" target="_top" xlink:title=" ">
<polygon fill="white" stroke="black" points="1422,-482 1422,-501 1526,-501 1526,-482 1422,-482"/>
<text text-anchor="middle" x="1474" y="-489" font-family="Helvetica,sans-Serif" font-size="10.00">NetManager.Read</text>
</a>
</g>
</g>
<!-- Node22&#45;&gt;Node24 -->
<g id="edge26" class="edge">
<title>Node22&#45;&gt;Node24</title>
<path fill="none" stroke="midnightblue" d="M1335.52,-460.01C1361.18,-465.89 1394.32,-473.48 1421.63,-479.73"/>
<polygon fill="midnightblue" stroke="midnightblue" points="1420.87,-483.15 1431.4,-481.97 1422.43,-476.33 1420.87,-483.15"/>
</g>
<!-- Node26 -->
<g id="node26" class="node">
<title>Node26</title>
<g id="a_node26"><a xlink:href="../../d9/d9a/classNetManager_aed6f7132a380634360c13187009a420e.html#aed6f7132a380634360c13187009a420e" target="_top" xlink:title=" ">
<polygon fill="white" stroke="black" points="1401.5,-444 1401.5,-463 1546.5,-463 1546.5,-444 1401.5,-444"/>
<text text-anchor="middle" x="1474" y="-451" font-family="Helvetica,sans-Serif" font-size="10.00">NetManager.SendCallback</text>
</a>
</g>
</g>
<!-- Node22&#45;&gt;Node26 -->
<g id="edge28" class="edge">
<title>Node22&#45;&gt;Node26</title>
<path fill="none" stroke="midnightblue" d="M1359.13,-451.59C1369.51,-451.77 1380.36,-451.95 1391.06,-452.13"/>
<polygon fill="midnightblue" stroke="midnightblue" points="1391.21,-455.63 1401.26,-452.3 1391.32,-448.63 1391.21,-455.63"/>
</g>
<!-- Node25 -->
<g id="node25" class="node">
<title>Node25</title>
<g id="a_node25"><a xlink:href="../../d1/d6d/interfaceINetDiagnosticsUI_a1c6a37fe2b2f6218a134c54ef97dcb1e.html#a1c6a37fe2b2f6218a134c54ef97dcb1e" target="_top" xlink:title=" ">
<polygon fill="white" stroke="black" points="1589,-476.5 1589,-506.5 1750,-506.5 1750,-476.5 1589,-476.5"/>
<text text-anchor="start" x="1597" y="-494.5" font-family="Helvetica,sans-Serif" font-size="10.00">INetDiagnosticsUI.CountRead</text>
<text text-anchor="middle" x="1669.5" y="-483.5" font-family="Helvetica,sans-Serif" font-size="10.00">ModuleMessage</text>
</a>
</g>
</g>
<!-- Node24&#45;&gt;Node25 -->
<g id="edge27" class="edge">
<title>Node24&#45;&gt;Node25</title>
<path fill="none" stroke="midnightblue" d="M1526.09,-491.5C1542.34,-491.5 1560.82,-491.5 1578.96,-491.5"/>
<polygon fill="midnightblue" stroke="midnightblue" points="1578.99,-495 1588.99,-491.5 1578.99,-488 1578.99,-495"/>
</g>
<!-- Node28 -->
<g id="node28" class="node">
<title>Node28</title>
<g id="a_node28"><a xlink:href="../../d9/d9a/classNetManager_ac03094689ce044c2439412fde3ce02b0.html#ac03094689ce044c2439412fde3ce02b0" target="_top" xlink:title=" ">
<polygon fill="white" stroke="black" points="1230,-400 1230,-419 1356,-419 1356,-400 1230,-400"/>
<text text-anchor="middle" x="1293" y="-407" font-family="Helvetica,sans-Serif" font-size="10.00">NetManager.SendData</text>
</a>
</g>
</g>
<!-- Node27&#45;&gt;Node28 -->
<g id="edge30" class="edge">
<title>Node27&#45;&gt;Node28</title>
<path fill="none" stroke="midnightblue" d="M1191.16,-409.5C1200.61,-409.5 1210.3,-409.5 1219.75,-409.5"/>
<polygon fill="midnightblue" stroke="midnightblue" points="1219.91,-413 1229.91,-409.5 1219.91,-406 1219.91,-413"/>
</g>
<!-- Node28&#45;&gt;Node23 -->
<g id="edge32" class="edge">
<title>Node28&#45;&gt;Node23</title>
<path fill="none" stroke="midnightblue" d="M1356.1,-409.5C1365.4,-409.5 1375.13,-409.5 1384.83,-409.5"/>
<polygon fill="midnightblue" stroke="midnightblue" points="1384.92,-413 1394.92,-409.5 1384.92,-406 1384.92,-413"/>
</g>
<!-- Node28&#45;&gt;Node26 -->
<g id="edge33" class="edge">
<title>Node28&#45;&gt;Node26</title>
<path fill="none" stroke="midnightblue" d="M1332.36,-419.03C1351.22,-423.71 1374.3,-429.42 1395,-434.5 1404.34,-436.79 1414.32,-439.23 1423.9,-441.57"/>
<polygon fill="midnightblue" stroke="midnightblue" points="1423.17,-444.99 1433.71,-443.96 1424.83,-438.19 1423.17,-444.99"/>
</g>
<!-- Node29 -->
<g id="node29" class="node">
<title>Node29</title>
<g id="a_node29"><a xlink:href="../../dd/dc4/interfaceISocket_a511af46ee3de67c1203113b24bb71d07.html#a511af46ee3de67c1203113b24bb71d07" target="_top" xlink:title=" ">
<polygon fill="white" stroke="black" points="1420,-318 1420,-337 1528,-337 1528,-318 1420,-318"/>
<text text-anchor="middle" x="1474" y="-325" font-family="Helvetica,sans-Serif" font-size="10.00">ISocket.AsyncSend</text>
</a>
</g>
</g>
<!-- Node28&#45;&gt;Node29 -->
<g id="edge31" class="edge">
<title>Node28&#45;&gt;Node29</title>
<path fill="none" stroke="midnightblue" d="M1306.35,-399.95C1324.71,-386.21 1360.71,-360.93 1395,-346.5 1400.9,-344.02 1407.2,-341.81 1413.55,-339.87"/>
<polygon fill="midnightblue" stroke="midnightblue" points="1414.89,-343.13 1423.55,-337.02 1412.97,-336.39 1414.89,-343.13"/>
</g>
<!-- Node30 -->
<g id="node30" class="node">
<title>Node30</title>
<g id="a_node30"><a xlink:href="../../da/d23/structNetPacket_a2bb590c1ed30bf03d7ece82a7d3798c8.html#a2bb590c1ed30bf03d7ece82a7d3798c8" target="_top" xlink:title=" ">
<polygon fill="white" stroke="black" points="1413,-356 1413,-375 1535,-375 1535,-356 1413,-356"/>
<text text-anchor="middle" x="1474" y="-363" font-family="Helvetica,sans-Serif" font-size="10.00">NetPacket.ShrinkToFit</text>
</a>
</g>
</g>
<!-- Node28&#45;&gt;Node30 -->
<g id="edge34" class="edge">
<title>Node28&#45;&gt;Node30</title>
<path fill="none" stroke="midnightblue" d="M1332.84,-399.95C1359.7,-393.35 1395.63,-384.52 1424.39,-377.45"/>
<polygon fill="midnightblue" stroke="midnightblue" points="1425.36,-380.81 1434.24,-375.03 1423.69,-374.02 1425.36,-380.81"/>
</g>
<!-- Node33 -->
<g id="node33" class="node">
<title>Node33</title>
<g id="a_node33"><a xlink:href="../../db/d4a/classMain_ac7053526b696695cc4ca5efc035fd83a.html#ac7053526b696695cc4ca5efc035fd83a" target="_top" xlink:title=" ">
<polygon fill="white" stroke="black" points="662.5,-372 662.5,-391 758.5,-391 758.5,-372 662.5,-372"/>
<text text-anchor="middle" x="710.5" y="-379" font-family="Helvetica,sans-Serif" font-size="10.00">Main.MouseText</text>
</a>
</g>
</g>
<!-- Node32&#45;&gt;Node33 -->
<g id="edge38" class="edge">
<title>Node32&#45;&gt;Node33</title>
<path fill="none" stroke="midnightblue" d="M564.6,-381.5C593.17,-381.5 625.24,-381.5 651.94,-381.5"/>
<polygon fill="midnightblue" stroke="midnightblue" points="652.27,-385 662.27,-381.5 652.27,-378 652.27,-385"/>
</g>
<!-- Node35 -->
<g id="node35" class="node">
<title>Node35</title>
<g id="a_node35"><a xlink:href="../../dc/db4/classCreativePowersHelper_ade58bffdffb9918a1d4bdbc91f4ded75.html#ade58bffdffb9918a1d4bdbc91f4ded75" target="_top" xlink:title=" ">
<polygon fill="white" stroke="black" points="416,-39.5 416,-69.5 561,-69.5 561,-39.5 416,-39.5"/>
<text text-anchor="start" x="424" y="-57.5" font-family="Helvetica,sans-Serif" font-size="10.00">CreativePowersHelper.Get</text>
<text text-anchor="middle" x="488.5" y="-46.5" font-family="Helvetica,sans-Serif" font-size="10.00">PowerIconAsset</text>
</a>
</g>
</g>
<!-- Node34&#45;&gt;Node35 -->
<g id="edge40" class="edge">
<title>Node34&#45;&gt;Node35</title>
<path fill="none" stroke="midnightblue" d="M348.23,-78.92C366.85,-75.66 387.03,-72.12 406.11,-68.77"/>
<polygon fill="midnightblue" stroke="midnightblue" points="406.72,-72.22 415.97,-67.04 405.51,-65.32 406.72,-72.22"/>
</g>
<!-- Node37 -->
<g id="node37" class="node">
<title>Node37</title>
<g id="a_node37"><a xlink:href="../../dc/db4/classCreativePowersHelper_ab627cbd17a1a0d0bf31a33c9dd9c7217.html#ab627cbd17a1a0d0bf31a33c9dd9c7217" target="_top" xlink:title=" ">
<polygon fill="white" stroke="black" points="407,-88.5 407,-118.5 570,-118.5 570,-88.5 407,-88.5"/>
<text text-anchor="start" x="415" y="-106.5" font-family="Helvetica,sans-Serif" font-size="10.00">CreativePowersHelper.Update</text>
<text text-anchor="middle" x="488.5" y="-95.5" font-family="Helvetica,sans-Serif" font-size="10.00">UnlockStateByPowerInternal</text>
</a>
</g>
</g>
<!-- Node36&#45;&gt;Node37 -->
<g id="edge42" class="edge">
<title>Node36&#45;&gt;Node37</title>
<path fill="none" stroke="midnightblue" d="M357.17,-126.35C370.15,-124.08 383.66,-121.71 396.86,-119.39"/>
<polygon fill="midnightblue" stroke="midnightblue" points="397.63,-122.81 406.87,-117.64 396.42,-115.92 397.63,-122.81"/>
</g>
<!-- Node37&#45;&gt;Node16 -->
<g id="edge44" class="edge">
<title>Node37&#45;&gt;Node16</title>
<path fill="none" stroke="midnightblue" d="M557,-118.53C580.76,-123.83 607.64,-129.81 632.15,-135.27"/>
<polygon fill="midnightblue" stroke="midnightblue" points="631.6,-138.74 642.13,-137.49 633.13,-131.9 631.6,-138.74"/>
</g>
<!-- Node38 -->
<g id="node38" class="node">
<title>Node38</title>
<g id="a_node38"><a xlink:href="../../d2/ddb/interfaceICreativePower_a436acb82e654b8fd650c86ef1e7fbb41.html#a436acb82e654b8fd650c86ef1e7fbb41" target="_top" xlink:title=" ">
<polygon fill="white" stroke="black" points="628.5,-50 628.5,-69 792.5,-69 792.5,-50 628.5,-50"/>
<text text-anchor="middle" x="710.5" y="-57" font-family="Helvetica,sans-Serif" font-size="10.00">ICreativePower.GetIsUnlocked</text>
</a>
</g>
</g>
<!-- Node37&#45;&gt;Node38 -->
<g id="edge43" class="edge">
<title>Node37&#45;&gt;Node38</title>
<path fill="none" stroke="midnightblue" d="M564.6,-88.48C593.18,-82.76 625.28,-76.34 651.99,-71"/>
<polygon fill="midnightblue" stroke="midnightblue" points="652.82,-74.41 661.94,-69.01 651.45,-67.54 652.82,-74.41"/>
</g>
<!-- Node39 -->
<g id="node39" class="node">
<title>Node39</title>
<g id="a_node39"><a xlink:href="../../d2/d6b/interfaceIGroupOptionButton_a50a203e4c985e9ca356b13d5de6b181e.html#a50a203e4c985e9ca356b13d5de6b181e" target="_top" xlink:title=" ">
<polygon fill="white" stroke="black" points="628.5,-0.5 628.5,-30.5 792.5,-30.5 792.5,-0.5 628.5,-0.5"/>
<text text-anchor="start" x="636.5" y="-18.5" font-family="Helvetica,sans-Serif" font-size="10.00">IGroupOptionButton.SetBorder</text>
<text text-anchor="middle" x="710.5" y="-7.5" font-family="Helvetica,sans-Serif" font-size="10.00">Color</text>
</a>
</g>
</g>
<!-- Node37&#45;&gt;Node39 -->
<g id="edge45" class="edge">
<title>Node37&#45;&gt;Node39</title>
<path fill="none" stroke="midnightblue" d="M562.88,-88.49C570.25,-85.7 577.43,-82.4 584,-78.5 604.01,-66.63 600.07,-52.51 620,-40.5 623.58,-38.35 627.34,-36.37 631.23,-34.56"/>
<polygon fill="midnightblue" stroke="midnightblue" points="632.63,-37.77 640.46,-30.64 629.89,-31.33 632.63,-37.77"/>
</g>
<!-- Node40 -->
<g id="node40" class="node">
<title>Node40</title>
<g id="a_node40"><a xlink:href="../../d2/d6b/interfaceIGroupOptionButton_a8209d2584321b33f1ddebb69e95d0c06.html#a8209d2584321b33f1ddebb69e95d0c06" target="_top" xlink:title=" ">
<polygon fill="white" stroke="black" points="629,-88.5 629,-118.5 792,-118.5 792,-88.5 629,-88.5"/>
<text text-anchor="start" x="637" y="-106.5" font-family="Helvetica,sans-Serif" font-size="10.00">IGroupOptionButton.SetColors</text>
<text text-anchor="middle" x="710.5" y="-95.5" font-family="Helvetica,sans-Serif" font-size="10.00">BasedOnSelectionState</text>
</a>
</g>
</g>
<!-- Node37&#45;&gt;Node40 -->
<g id="edge46" class="edge">
<title>Node37&#45;&gt;Node40</title>
<path fill="none" stroke="midnightblue" d="M570.17,-103.5C585.86,-103.5 602.42,-103.5 618.42,-103.5"/>
<polygon fill="midnightblue" stroke="midnightblue" points="618.84,-107 628.84,-103.5 618.84,-100 618.84,-107"/>
</g>
</g>
</svg>
