<?xml version="1.0" encoding="UTF-8" standalone="no"?>
<!DOCTYPE svg PUBLIC "-//W3C//DTD SVG 1.1//EN"
 "http://www.w3.org/Graphics/SVG/1.1/DTD/svg11.dtd">
<!-- Generated by graphviz version 2.43.0 (0)
 -->
<!-- Title: RainShader.ProcessHighDetail Pages: 1 -->
<svg width="366pt" height="165pt"
 viewBox="0.00 0.00 366.00 164.50" xmlns="http://www.w3.org/2000/svg" xmlns:xlink="http://www.w3.org/1999/xlink">
<g id="graph0" class="graph" transform="scale(1 1) rotate(0) translate(4 160.5)">
<title>RainShader.ProcessHighDetail</title>
<polygon fill="white" stroke="transparent" points="-4,4 -4,-160.5 362,-160.5 362,4 -4,4"/>
<!-- Node1 -->
<g id="node1" class="node">
<title>Node1</title>
<g id="a_node1"><a xlink:title=" ">
<polygon fill="#bfbfbf" stroke="black" points="0,-60.5 0,-79.5 164,-79.5 164,-60.5 0,-60.5"/>
<text text-anchor="middle" x="82" y="-67.5" font-family="Helvetica,sans-Serif" font-size="10.00">RainShader.ProcessHighDetail</text>
</a>
</g>
</g>
<!-- Node2 -->
<g id="node2" class="node">
<title>Node2</title>
<g id="a_node2"><a xlink:href="../../d2/d27/classFragment_a2b0b13420b51b8d3f5765d0750c43a80.html#a2b0b13420b51b8d3f5765d0750c43a80" target="_top" xlink:title=" ">
<polygon fill="white" stroke="black" points="200,-126 200,-156 358,-156 358,-126 200,-126"/>
<text text-anchor="start" x="208" y="-144" font-family="Helvetica,sans-Serif" font-size="10.00">Fragment.GetCanvasPosition</text>
<text text-anchor="middle" x="279" y="-133" font-family="Helvetica,sans-Serif" font-size="10.00">OfIndex</text>
</a>
</g>
</g>
<!-- Node1&#45;&gt;Node2 -->
<g id="edge1" class="edge">
<title>Node1&#45;&gt;Node2</title>
<path fill="none" stroke="midnightblue" d="M105.22,-79.57C128.6,-89.49 166.57,-105.17 200,-117 205.56,-118.97 211.38,-120.93 217.22,-122.84"/>
<polygon fill="midnightblue" stroke="midnightblue" points="216.44,-126.27 227.03,-125.99 218.58,-119.6 216.44,-126.27"/>
</g>
<!-- Node3 -->
<g id="node3" class="node">
<title>Node3</title>
<g id="a_node3"><a xlink:href="../../d2/d27/classFragment_a7b0188be9cc5f12934c3843d10b54c02.html#a7b0188be9cc5f12934c3843d10b54c02" target="_top" xlink:title=" ">
<polygon fill="white" stroke="black" points="207.5,-77 207.5,-107 350.5,-107 350.5,-77 207.5,-77"/>
<text text-anchor="start" x="215.5" y="-95" font-family="Helvetica,sans-Serif" font-size="10.00">Fragment.GetGridPosition</text>
<text text-anchor="middle" x="279" y="-84" font-family="Helvetica,sans-Serif" font-size="10.00">OfIndex</text>
</a>
</g>
</g>
<!-- Node1&#45;&gt;Node3 -->
<g id="edge2" class="edge">
<title>Node1&#45;&gt;Node3</title>
<path fill="none" stroke="midnightblue" d="M164,-79.14C175.06,-80.39 186.41,-81.67 197.45,-82.91"/>
<polygon fill="midnightblue" stroke="midnightblue" points="197.17,-86.4 207.5,-84.05 197.95,-79.45 197.17,-86.4"/>
</g>
<!-- Node4 -->
<g id="node4" class="node">
<title>Node4</title>
<g id="a_node4"><a xlink:href="../../da/d18/classNoiseHelper_a9d22df729aa5fbd90b81dafc2ceba305.html#a9d22df729aa5fbd90b81dafc2ceba305" target="_top" xlink:title=" ">
<polygon fill="white" stroke="black" points="203,-38.5 203,-57.5 355,-57.5 355,-38.5 203,-38.5"/>
<text text-anchor="middle" x="279" y="-45.5" font-family="Helvetica,sans-Serif" font-size="10.00">NoiseHelper.GetStaticNoise</text>
</a>
</g>
</g>
<!-- Node1&#45;&gt;Node4 -->
<g id="edge3" class="edge">
<title>Node1&#45;&gt;Node4</title>
<path fill="none" stroke="midnightblue" d="M164,-60.86C173.46,-59.79 183.12,-58.7 192.63,-57.63"/>
<polygon fill="midnightblue" stroke="midnightblue" points="193.32,-61.08 202.87,-56.48 192.54,-54.12 193.32,-61.08"/>
</g>
<!-- Node5 -->
<g id="node5" class="node">
<title>Node5</title>
<g id="a_node5"><a xlink:href="../../d2/d27/classFragment_af2709c2dd6e4b8f65ba6403ec27286ad.html#af2709c2dd6e4b8f65ba6403ec27286ad" target="_top" xlink:title=" ">
<polygon fill="white" stroke="black" points="225.5,-0.5 225.5,-19.5 332.5,-19.5 332.5,-0.5 225.5,-0.5"/>
<text text-anchor="middle" x="279" y="-7.5" font-family="Helvetica,sans-Serif" font-size="10.00">Fragment.SetColor</text>
</a>
</g>
</g>
<!-- Node1&#45;&gt;Node5 -->
<g id="edge4" class="edge">
<title>Node1&#45;&gt;Node5</title>
<path fill="none" stroke="midnightblue" d="M107.87,-60.48C131.4,-51.68 167.81,-38.54 200,-29 208.35,-26.53 217.27,-24.13 225.99,-21.92"/>
<polygon fill="midnightblue" stroke="midnightblue" points="226.84,-25.31 235.7,-19.5 225.15,-18.52 226.84,-25.31"/>
</g>
</g>
</svg>
