<?xml version="1.0" encoding="UTF-8" standalone="no"?>
<!DOCTYPE svg PUBLIC "-//W3C//DTD SVG 1.1//EN"
 "http://www.w3.org/Graphics/SVG/1.1/DTD/svg11.dtd">
<!-- Generated by graphviz version 2.43.0 (0)
 -->
<!-- Title: BestiaryDatabaseNPCsPopulator.CommonTags.SpawnConditions.Times Pages: 1 -->
<!--zoomable 656 -->
<svg id="main" version="1.1" xmlns="http://www.w3.org/2000/svg" xmlns:xlink="http://www.w3.org/1999/xlink" xml:space="preserve" onload="init(evt)">
<style type="text/css"><![CDATA[
.edge:hover path { stroke: red; }
.edge:hover polygon { stroke: red; fill: red; }
]]></style>
<script type="text/javascript"><![CDATA[
var edges = document.getElementsByTagName('g');
if (edges && edges.length) {
  for (var i=0;i<edges.length;i++) {
    if (edges[i].id.substr(0,4)=='edge') {
      edges[i].setAttribute('class','edge');
    }
  }
}
]]></script>
        <defs>
                <circle id="rim" cx="0" cy="0" r="7"/>
                <circle id="rim2" cx="0" cy="0" r="3.5"/>
                <g id="zoomPlus">
                        <use xlink:href="#rim" fill="#404040">
                                <set attributeName="fill" to="#808080" begin="zoomplus.mouseover" end="zoomplus.mouseout"/>
                        </use>
                        <path d="M-4,0h8M0,-4v8" fill="none" stroke="white" stroke-width="1.5" pointer-events="none"/>
                </g>
                <g id="zoomMin">
                        <use xlink:href="#rim" fill="#404040">
                                <set attributeName="fill" to="#808080" begin="zoomminus.mouseover" end="zoomminus.mouseout"/>
                        </use>
                        <path d="M-4,0h8" fill="none" stroke="white" stroke-width="1.5" pointer-events="none"/>
                </g>
                <g id="dirArrow">
                        <path fill="none" stroke="white" stroke-width="1.5" d="M0,-3.0v7 M-2.5,-0.5L0,-3.0L2.5,-0.5"/>
                </g>
               <g id="resetDef">
                       <use xlink:href="#rim2" fill="#404040">
                               <set attributeName="fill" to="#808080" begin="reset.mouseover" end="reset.mouseout"/>
                       </use>
               </g>
        </defs>

<script type="text/javascript">
var viewWidth = 884;
var viewHeight = 656;
var sectionId = 'dynsection-0';
</script>
<script xlink:href="../../svgpan.js"/>
<svg id="graph" class="graph">
<g id="viewport">
<title>BestiaryDatabaseNPCsPopulator.CommonTags.SpawnConditions.Times</title>
<polygon fill="white" stroke="transparent" points="-4,4 -4,-652 880,-652 880,4 -4,4"/>
<!-- Node1 -->
<g id="node1" class="node">
<title>Node1</title>
<g id="a_node1"><a xlink:title=" ">
<polygon fill="#bfbfbf" stroke="black" points="439.5,-0.5 439.5,-68.5 642.5,-68.5 642.5,-0.5 439.5,-0.5"/>
<text text-anchor="start" x="447.5" y="-56.5" font-family="Helvetica,sans-Serif" font-size="10.00">BestiaryDatabaseNPCsPopulator.</text>
<text text-anchor="middle" x="541" y="-45.5" font-family="Helvetica,sans-Serif" font-size="10.00">CommonTags.SpawnConditions.Times</text>
<polyline fill="none" stroke="black" points="439.5,-38.5 642.5,-38.5 "/>
<text text-anchor="middle" x="541" y="-26.5" font-family="Helvetica,sans-Serif" font-size="10.00"> </text>
<polyline fill="none" stroke="black" points="439.5,-19.5 642.5,-19.5 "/>
<text text-anchor="middle" x="541" y="-7.5" font-family="Helvetica,sans-Serif" font-size="10.00"> </text>
</a>
</g>
</g>
<!-- Node2 -->
<g id="node2" class="node">
<title>Node2</title>
<g id="a_node2"><a xlink:href="../../d3/d02/classSpawnConditionBestiaryInfoElement.html" target="_top" xlink:title=" ">
<polygon fill="white" stroke="black" points="447,-127.5 447,-272.5 635,-272.5 635,-127.5 447,-127.5"/>
<text text-anchor="start" x="455" y="-260.5" font-family="Helvetica,sans-Serif" font-size="10.00">SpawnConditionBestiaryInfo</text>
<text text-anchor="middle" x="541" y="-249.5" font-family="Helvetica,sans-Serif" font-size="10.00">Element</text>
<polyline fill="none" stroke="black" points="447,-242.5 635,-242.5 "/>
<text text-anchor="start" x="455" y="-230.5" font-family="Helvetica,sans-Serif" font-size="10.00">+ float OrderPriority</text>
<polyline fill="none" stroke="black" points="447,-223.5 635,-223.5 "/>
<text text-anchor="start" x="455" y="-211.5" font-family="Helvetica,sans-Serif" font-size="10.00">+ SpawnConditionBestiaryInfo</text>
<text text-anchor="start" x="455" y="-200.5" font-family="Helvetica,sans-Serif" font-size="10.00">Element(string nameLanguageKey,</text>
<text text-anchor="start" x="455" y="-189.5" font-family="Helvetica,sans-Serif" font-size="10.00"> int filterIconFrame, string</text>
<text text-anchor="start" x="455" y="-178.5" font-family="Helvetica,sans-Serif" font-size="10.00"> backgroundImagePath=null, Color</text>
<text text-anchor="start" x="455" y="-167.5" font-family="Helvetica,sans-Serif" font-size="10.00">? backgroundColor=null)</text>
<text text-anchor="start" x="455" y="-156.5" font-family="Helvetica,sans-Serif" font-size="10.00">+ Asset&lt; Texture2D &gt;</text>
<text text-anchor="start" x="455" y="-145.5" font-family="Helvetica,sans-Serif" font-size="10.00"> GetBackgroundImage()</text>
<text text-anchor="start" x="455" y="-134.5" font-family="Helvetica,sans-Serif" font-size="10.00">+ Color? GetBackgroundColor()</text>
</a>
</g>
</g>
<!-- Node2&#45;&gt;Node1 -->
<g id="edge1" class="edge">
<title>Node2&#45;&gt;Node1</title>
<path fill="none" stroke="#404040" d="M541,-127.29C541,-111.49 541,-95.19 541,-80.79"/>
<polygon fill="none" stroke="#404040" points="541,-80.68 537,-74.68 541,-68.68 545,-74.68 541,-80.68"/>
<text text-anchor="middle" x="571" y="-101" font-family="Helvetica,sans-Serif" font-size="10.00"> +DayTime</text>
<text text-anchor="middle" x="571" y="-90" font-family="Helvetica,sans-Serif" font-size="10.00">+NightTime</text>
</g>
<!-- Node3 -->
<g id="node3" class="node">
<title>Node3</title>
<g id="a_node3"><a xlink:href="../../d9/d99/classFilterProviderInfoElement.html" target="_top" xlink:title=" ">
<polygon fill="white" stroke="black" points="256.5,-320.5 256.5,-520.5 437.5,-520.5 437.5,-320.5 256.5,-320.5"/>
<text text-anchor="middle" x="347" y="-508.5" font-family="Helvetica,sans-Serif" font-size="10.00">FilterProviderInfoElement</text>
<polyline fill="none" stroke="black" points="256.5,-501.5 437.5,-501.5 "/>
<text text-anchor="start" x="264.5" y="-489.5" font-family="Helvetica,sans-Serif" font-size="10.00">+ int DisplayTextPriority</text>
<text text-anchor="start" x="264.5" y="-478.5" font-family="Helvetica,sans-Serif" font-size="10.00">+ bool HideInPortraitInfo</text>
<polyline fill="none" stroke="black" points="256.5,-471.5 437.5,-471.5 "/>
<text text-anchor="start" x="264.5" y="-459.5" font-family="Helvetica,sans-Serif" font-size="10.00">+ FilterProviderInfoElement</text>
<text text-anchor="start" x="264.5" y="-448.5" font-family="Helvetica,sans-Serif" font-size="10.00">(string nameLanguageKey,</text>
<text text-anchor="start" x="264.5" y="-437.5" font-family="Helvetica,sans-Serif" font-size="10.00"> int filterIconFrame)</text>
<text text-anchor="start" x="264.5" y="-426.5" font-family="Helvetica,sans-Serif" font-size="10.00">+ UIElement GetFilterImage()</text>
<text text-anchor="start" x="264.5" y="-415.5" font-family="Helvetica,sans-Serif" font-size="10.00">+ string GetSearchString</text>
<text text-anchor="start" x="264.5" y="-404.5" font-family="Helvetica,sans-Serif" font-size="10.00">(ref BestiaryUICollectionInfo info)</text>
<text text-anchor="start" x="264.5" y="-393.5" font-family="Helvetica,sans-Serif" font-size="10.00">+ string GetDisplayNameKey()</text>
<text text-anchor="start" x="264.5" y="-382.5" font-family="Helvetica,sans-Serif" font-size="10.00">+ UIElement ProvideUIElement</text>
<text text-anchor="start" x="264.5" y="-371.5" font-family="Helvetica,sans-Serif" font-size="10.00">(BestiaryUICollectionInfo info)</text>
<text text-anchor="start" x="264.5" y="-360.5" font-family="Helvetica,sans-Serif" font-size="10.00">&#45; void AddOnHover(UIElement</text>
<text text-anchor="start" x="264.5" y="-349.5" font-family="Helvetica,sans-Serif" font-size="10.00"> button)</text>
<text text-anchor="start" x="264.5" y="-338.5" font-family="Helvetica,sans-Serif" font-size="10.00">&#45; void ShowButtonName</text>
<text text-anchor="start" x="264.5" y="-327.5" font-family="Helvetica,sans-Serif" font-size="10.00">(UIElement element)</text>
</a>
</g>
</g>
<!-- Node3&#45;&gt;Node2 -->
<g id="edge2" class="edge">
<title>Node3&#45;&gt;Node2</title>
<path fill="none" stroke="midnightblue" d="M441.65,-312.89C453.79,-299.22 465.98,-285.49 477.46,-272.56"/>
<polygon fill="none" stroke="midnightblue" points="438.94,-310.68 434.92,-320.48 444.17,-315.32 438.94,-310.68"/>
</g>
<!-- Node4 -->
<g id="node4" class="node">
<title>Node4</title>
<g id="a_node4"><a xlink:href="../../da/d19/interfaceIFilterInfoProvider.html" target="_top" xlink:title=" ">
<polygon fill="white" stroke="black" points="556.5,-579.5 556.5,-647.5 723.5,-647.5 723.5,-579.5 556.5,-579.5"/>
<text text-anchor="middle" x="640" y="-635.5" font-family="Helvetica,sans-Serif" font-size="10.00">IFilterInfoProvider</text>
<polyline fill="none" stroke="black" points="556.5,-628.5 723.5,-628.5 "/>
<text text-anchor="middle" x="640" y="-616.5" font-family="Helvetica,sans-Serif" font-size="10.00"> </text>
<polyline fill="none" stroke="black" points="556.5,-609.5 723.5,-609.5 "/>
<text text-anchor="start" x="564.5" y="-597.5" font-family="Helvetica,sans-Serif" font-size="10.00">+ UIElement GetFilterImage()</text>
<text text-anchor="start" x="564.5" y="-586.5" font-family="Helvetica,sans-Serif" font-size="10.00">+ string GetDisplayNameKey()</text>
</a>
</g>
</g>
<!-- Node4&#45;&gt;Node3 -->
<g id="edge3" class="edge">
<title>Node4&#45;&gt;Node3</title>
<path fill="none" stroke="midnightblue" d="M625.08,-570.34C618.83,-558.39 610.32,-546.58 599,-539 542.47,-501.16 508.24,-550.61 447,-521 443.8,-519.45 440.65,-517.76 437.54,-515.95"/>
<polygon fill="none" stroke="midnightblue" points="621.96,-571.92 629.43,-579.44 628.28,-568.9 621.96,-571.92"/>
</g>
<!-- Node5 -->
<g id="node5" class="node">
<title>Node5</title>
<g id="a_node5"><a xlink:href="../../d8/d37/interfaceIProvideSearchFilterString.html" target="_top" xlink:title=" ">
<polygon fill="white" stroke="black" points="62.5,-579.5 62.5,-647.5 243.5,-647.5 243.5,-579.5 62.5,-579.5"/>
<text text-anchor="middle" x="153" y="-635.5" font-family="Helvetica,sans-Serif" font-size="10.00">IProvideSearchFilterString</text>
<polyline fill="none" stroke="black" points="62.5,-628.5 243.5,-628.5 "/>
<text text-anchor="middle" x="153" y="-616.5" font-family="Helvetica,sans-Serif" font-size="10.00"> </text>
<polyline fill="none" stroke="black" points="62.5,-609.5 243.5,-609.5 "/>
<text text-anchor="start" x="70.5" y="-597.5" font-family="Helvetica,sans-Serif" font-size="10.00">+ string GetSearchString</text>
<text text-anchor="start" x="70.5" y="-586.5" font-family="Helvetica,sans-Serif" font-size="10.00">(ref BestiaryUICollectionInfo info)</text>
</a>
</g>
</g>
<!-- Node5&#45;&gt;Node3 -->
<g id="edge4" class="edge">
<title>Node5&#45;&gt;Node3</title>
<path fill="none" stroke="midnightblue" d="M194.3,-571.83C212.42,-554 234.46,-532.3 256.09,-511.01"/>
<polygon fill="none" stroke="midnightblue" points="191.46,-569.72 186.79,-579.23 196.37,-574.71 191.46,-569.72"/>
</g>
<!-- Node6 -->
<g id="node6" class="node">
<title>Node6</title>
<g id="a_node6"><a xlink:href="../../d0/d86/interfaceIBestiaryInfoElement.html" target="_top" xlink:title=" ">
<polygon fill="white" stroke="black" points="262,-579.5 262,-647.5 432,-647.5 432,-579.5 262,-579.5"/>
<text text-anchor="middle" x="347" y="-635.5" font-family="Helvetica,sans-Serif" font-size="10.00">IBestiaryInfoElement</text>
<polyline fill="none" stroke="black" points="262,-628.5 432,-628.5 "/>
<text text-anchor="middle" x="347" y="-616.5" font-family="Helvetica,sans-Serif" font-size="10.00"> </text>
<polyline fill="none" stroke="black" points="262,-609.5 432,-609.5 "/>
<text text-anchor="start" x="270" y="-597.5" font-family="Helvetica,sans-Serif" font-size="10.00">+ UIElement ProvideUIElement</text>
<text text-anchor="start" x="270" y="-586.5" font-family="Helvetica,sans-Serif" font-size="10.00">(BestiaryUICollectionInfo info)</text>
</a>
</g>
</g>
<!-- Node6&#45;&gt;Node3 -->
<g id="edge5" class="edge">
<title>Node6&#45;&gt;Node3</title>
<path fill="none" stroke="midnightblue" d="M347,-569.12C347,-554.63 347,-537.83 347,-520.86"/>
<polygon fill="none" stroke="midnightblue" points="343.5,-569.23 347,-579.23 350.5,-569.23 343.5,-569.23"/>
</g>
<!-- Node7 -->
<g id="node7" class="node">
<title>Node7</title>
<g id="a_node7"><a xlink:title=" ">
<polygon fill="white" stroke="#bfbfbf" points="0,-585 0,-642 44,-642 44,-585 0,-585"/>
<text text-anchor="middle" x="22" y="-630" font-family="Helvetica,sans-Serif" font-size="10.00">string</text>
<polyline fill="none" stroke="#bfbfbf" points="0,-623 44,-623 "/>
<text text-anchor="middle" x="22" y="-611" font-family="Helvetica,sans-Serif" font-size="10.00"> </text>
<polyline fill="none" stroke="#bfbfbf" points="0,-604 44,-604 "/>
<text text-anchor="middle" x="22" y="-592" font-family="Helvetica,sans-Serif" font-size="10.00"> </text>
</a>
</g>
</g>
<!-- Node7&#45;&gt;Node2 -->
<g id="edge11" class="edge">
<title>Node7&#45;&gt;Node2</title>
<path fill="none" stroke="#404040" d="M23.7,-584.64C28.75,-526.72 48.62,-392.7 126,-320 209.78,-241.29 342.12,-214.18 434.77,-205.09"/>
<polygon fill="none" stroke="#404040" points="435.05,-205.07 440.66,-200.54 447,-203.97 441.39,-208.5 435.05,-205.07"/>
<text text-anchor="middle" x="186.5" y="-418" font-family="Helvetica,sans-Serif" font-size="10.00"> &#45;_backgroundImagePath</text>
</g>
<!-- Node7&#45;&gt;Node3 -->
<g id="edge6" class="edge">
<title>Node7&#45;&gt;Node3</title>
<path fill="none" stroke="#404040" d="M44.18,-586.7C47.02,-583.96 49.99,-581.33 53,-579 53.55,-578.57 160.71,-521.19 245.48,-475.82"/>
<polygon fill="none" stroke="#404040" points="245.65,-475.73 249.05,-469.38 256.23,-470.07 252.82,-476.43 245.65,-475.73"/>
<text text-anchor="middle" x="140" y="-547.5" font-family="Helvetica,sans-Serif" font-size="10.00"> &#45;_key</text>
</g>
<!-- Node8 -->
<g id="node8" class="node">
<title>Node8</title>
<g id="a_node8"><a xlink:title=" ">
<polygon fill="white" stroke="#bfbfbf" points="450.5,-585 450.5,-642 479.5,-642 479.5,-585 450.5,-585"/>
<text text-anchor="middle" x="465" y="-630" font-family="Helvetica,sans-Serif" font-size="10.00">int</text>
<polyline fill="none" stroke="#bfbfbf" points="450.5,-623 479.5,-623 "/>
<text text-anchor="middle" x="465" y="-611" font-family="Helvetica,sans-Serif" font-size="10.00"> </text>
<polyline fill="none" stroke="#bfbfbf" points="450.5,-604 479.5,-604 "/>
<text text-anchor="middle" x="465" y="-592" font-family="Helvetica,sans-Serif" font-size="10.00"> </text>
</a>
</g>
</g>
<!-- Node8&#45;&gt;Node3 -->
<g id="edge7" class="edge">
<title>Node8&#45;&gt;Node3</title>
<path fill="none" stroke="#404040" d="M450.45,-588.78C447.61,-585.22 444.43,-581.81 441,-579 425.92,-566.65 414.41,-575.15 401,-561 392.76,-552.31 385.74,-542.22 379.76,-531.52"/>
<polygon fill="none" stroke="#404040" points="379.64,-531.3 373.33,-527.81 374.12,-520.64 380.43,-524.13 379.64,-531.3"/>
<text text-anchor="middle" x="448.5" y="-553" font-family="Helvetica,sans-Serif" font-size="10.00"> &#45;framesPerColumn</text>
<text text-anchor="middle" x="448.5" y="-542" font-family="Helvetica,sans-Serif" font-size="10.00">&#45;framesPerRow</text>
</g>
<!-- Node9 -->
<g id="node9" class="node">
<title>Node9</title>
<g id="a_node9"><a xlink:title=" ">
<polygon fill="white" stroke="#bfbfbf" points="497.5,-585 497.5,-642 538.5,-642 538.5,-585 497.5,-585"/>
<text text-anchor="middle" x="518" y="-630" font-family="Helvetica,sans-Serif" font-size="10.00">Point</text>
<polyline fill="none" stroke="#bfbfbf" points="497.5,-623 538.5,-623 "/>
<text text-anchor="middle" x="518" y="-611" font-family="Helvetica,sans-Serif" font-size="10.00"> </text>
<polyline fill="none" stroke="#bfbfbf" points="497.5,-604 538.5,-604 "/>
<text text-anchor="middle" x="518" y="-592" font-family="Helvetica,sans-Serif" font-size="10.00"> </text>
</a>
</g>
</g>
<!-- Node9&#45;&gt;Node3 -->
<g id="edge8" class="edge">
<title>Node9&#45;&gt;Node3</title>
<path fill="none" stroke="#404040" d="M515.7,-584.71C513.09,-569.51 507.59,-551.32 496,-539 482.22,-524.34 470.2,-530.95 448.48,-520.76"/>
<polygon fill="none" stroke="#404040" points="448.24,-520.63 441.05,-521.19 437.77,-514.77 444.96,-514.21 448.24,-520.63"/>
<text text-anchor="middle" x="552" y="-547.5" font-family="Helvetica,sans-Serif" font-size="10.00"> &#45;_filterIconFrame</text>
</g>
<!-- Node10 -->
<g id="node10" class="node">
<title>Node10</title>
<g id="a_node10"><a xlink:href="../../dd/d4e/interfaceIBestiaryBackgroundImagePathAndColorProvider.html" target="_top" xlink:title=" ">
<polygon fill="white" stroke="black" points="456,-375.5 456,-465.5 626,-465.5 626,-375.5 456,-375.5"/>
<text text-anchor="start" x="464" y="-453.5" font-family="Helvetica,sans-Serif" font-size="10.00">IBestiaryBackgroundImage</text>
<text text-anchor="middle" x="541" y="-442.5" font-family="Helvetica,sans-Serif" font-size="10.00">PathAndColorProvider</text>
<polyline fill="none" stroke="black" points="456,-435.5 626,-435.5 "/>
<text text-anchor="middle" x="541" y="-423.5" font-family="Helvetica,sans-Serif" font-size="10.00"> </text>
<polyline fill="none" stroke="black" points="456,-416.5 626,-416.5 "/>
<text text-anchor="start" x="464" y="-404.5" font-family="Helvetica,sans-Serif" font-size="10.00">+ Asset&lt; Texture2D &gt;</text>
<text text-anchor="start" x="464" y="-393.5" font-family="Helvetica,sans-Serif" font-size="10.00"> GetBackgroundImage()</text>
<text text-anchor="start" x="464" y="-382.5" font-family="Helvetica,sans-Serif" font-size="10.00">+ Color? GetBackgroundColor()</text>
</a>
</g>
</g>
<!-- Node10&#45;&gt;Node2 -->
<g id="edge9" class="edge">
<title>Node10&#45;&gt;Node2</title>
<path fill="none" stroke="midnightblue" d="M541,-364.92C541,-337.01 541,-302.69 541,-272.68"/>
<polygon fill="none" stroke="midnightblue" points="537.5,-365.28 541,-375.28 544.5,-365.28 537.5,-365.28"/>
</g>
<!-- Node11 -->
<g id="node11" class="node">
<title>Node11</title>
<g id="a_node11"><a xlink:href="../../d6/da3/interfaceIBestiaryPrioritizedElement.html" target="_top" xlink:title=" ">
<polygon fill="white" stroke="black" points="644,-392 644,-449 794,-449 794,-392 644,-392"/>
<text text-anchor="middle" x="719" y="-437" font-family="Helvetica,sans-Serif" font-size="10.00">IBestiaryPrioritizedElement</text>
<polyline fill="none" stroke="black" points="644,-430 794,-430 "/>
<text text-anchor="start" x="652" y="-418" font-family="Helvetica,sans-Serif" font-size="10.00">+ float OrderPriority</text>
<polyline fill="none" stroke="black" points="644,-411 794,-411 "/>
<text text-anchor="middle" x="719" y="-399" font-family="Helvetica,sans-Serif" font-size="10.00"> </text>
</a>
</g>
</g>
<!-- Node11&#45;&gt;Node2 -->
<g id="edge10" class="edge">
<title>Node11&#45;&gt;Node2</title>
<path fill="none" stroke="midnightblue" d="M689.89,-383.76C665.49,-353.81 629.88,-310.11 599.61,-272.95"/>
<polygon fill="none" stroke="midnightblue" points="687.43,-386.28 696.46,-391.83 692.85,-381.86 687.43,-386.28"/>
</g>
<!-- Node12 -->
<g id="node12" class="node">
<title>Node12</title>
<g id="a_node12"><a xlink:title=" ">
<polygon fill="white" stroke="#bfbfbf" points="812,-392 812,-449 854,-449 854,-392 812,-392"/>
<text text-anchor="middle" x="833" y="-437" font-family="Helvetica,sans-Serif" font-size="10.00">Color</text>
<polyline fill="none" stroke="#bfbfbf" points="812,-430 854,-430 "/>
<text text-anchor="middle" x="833" y="-418" font-family="Helvetica,sans-Serif" font-size="10.00"> </text>
<polyline fill="none" stroke="#bfbfbf" points="812,-411 854,-411 "/>
<text text-anchor="middle" x="833" y="-399" font-family="Helvetica,sans-Serif" font-size="10.00"> </text>
</a>
</g>
</g>
<!-- Node12&#45;&gt;Node2 -->
<g id="edge12" class="edge">
<title>Node12&#45;&gt;Node2</title>
<path fill="none" stroke="#404040" d="M830.81,-391.6C827.76,-369.81 820.46,-339.96 803,-320 762.55,-273.76 700.5,-244.48 646.94,-226.54"/>
<polygon fill="none" stroke="#404040" points="646.72,-226.47 639.78,-228.43 635.3,-222.77 642.24,-220.82 646.72,-226.47"/>
<text text-anchor="middle" x="828.5" y="-294" font-family="Helvetica,sans-Serif" font-size="10.00"> &#45;_backgroundColor</text>
</g>
</g>
</svg>
        <g id="navigator" transform="translate(0 0)" fill="#404254">
                <rect fill="#f2f5e9" fill-opacity="0.5" stroke="#606060" stroke-width=".5" x="0" y="0" width="60" height="60"/>
                <use id="zoomplus" xlink:href="#zoomPlus" x="17" y="9" onmousedown="handleZoom(evt,'in')"/>
                <use id="zoomminus" xlink:href="#zoomMin" x="42" y="9" onmousedown="handleZoom(evt,'out')"/>
                <use id="reset" xlink:href="#resetDef" x="30" y="36" onmousedown="handleReset()"/>
                <g id="arrowUp" xlink:href="#dirArrow" transform="translate(30 24)" onmousedown="handlePan(0,-1)">
                  <use xlink:href="#rim" fill="#404040">
                        <set attributeName="fill" to="#808080" begin="arrowUp.mouseover" end="arrowUp.mouseout"/>
                  </use>
                  <path fill="none" stroke="white" stroke-width="1.5" d="M0,-3.0v7 M-2.5,-0.5L0,-3.0L2.5,-0.5"/>
                </g>
                <g id="arrowRight" xlink:href="#dirArrow" transform="rotate(90) translate(36 -43)" onmousedown="handlePan(1,0)">
                  <use xlink:href="#rim" fill="#404040">
                        <set attributeName="fill" to="#808080" begin="arrowRight.mouseover" end="arrowRight.mouseout"/>
                  </use>
                  <path fill="none" stroke="white" stroke-width="1.5" d="M0,-3.0v7 M-2.5,-0.5L0,-3.0L2.5,-0.5"/>
                </g>
                <g id="arrowDown" xlink:href="#dirArrow" transform="rotate(180) translate(-30 -48)" onmousedown="handlePan(0,1)">
                  <use xlink:href="#rim" fill="#404040">
                        <set attributeName="fill" to="#808080" begin="arrowDown.mouseover" end="arrowDown.mouseout"/>
                  </use>
                  <path fill="none" stroke="white" stroke-width="1.5" d="M0,-3.0v7 M-2.5,-0.5L0,-3.0L2.5,-0.5"/>
                </g>
                <g id="arrowLeft" xlink:href="#dirArrow" transform="rotate(270) translate(-36 17)" onmousedown="handlePan(-1,0)">
                  <use xlink:href="#rim" fill="#404040">
                        <set attributeName="fill" to="#808080" begin="arrowLeft.mouseover" end="arrowLeft.mouseout"/>
                  </use>
                  <path fill="none" stroke="white" stroke-width="1.5" d="M0,-3.0v7 M-2.5,-0.5L0,-3.0L2.5,-0.5"/>
                </g>
        </g>
        <svg viewBox="0 0 15 15" width="100%" height="30px" preserveAspectRatio="xMaxYMin meet">
         <g id="arrow_out" transform="scale(0.3 0.3)">
          <a xlink:href="classBestiaryDatabaseNPCsPopulator_1_1CommonTags_1_1SpawnConditions_1_1Times__coll__graph_org.svg" target="_base">
           <rect id="button" ry="5" rx="5" y="6" x="6" height="38" width="38"
                fill="#f2f5e9" fill-opacity="0.5" stroke="#606060" stroke-width="1.0"/>
           <path id="arrow"
             d="M 11.500037,31.436501 C 11.940474,20.09759 22.043105,11.32322 32.158766,21.979434 L 37.068811,17.246167 C 37.068811,17.246167 37.088388,32 37.088388,32 L 22.160133,31.978069 C 22.160133,31.978069 26.997745,27.140456 26.997745,27.140456 C 18.528582,18.264221 13.291696,25.230495 11.500037,31.436501 z"
             style="fill:#404040;"/>
          </a>
         </g>
        </svg>
</svg>
