<?xml version="1.0" encoding="UTF-8" standalone="no"?>
<!DOCTYPE svg PUBLIC "-//W3C//DTD SVG 1.1//EN"
 "http://www.w3.org/Graphics/SVG/1.1/DTD/svg11.dtd">
<!-- Generated by graphviz version 2.43.0 (0)
 -->
<!-- Title: GroupOptionButton.DrawSelf Pages: 1 -->
<svg width="348pt" height="104pt"
 viewBox="0.00 0.00 348.00 104.00" xmlns="http://www.w3.org/2000/svg" xmlns:xlink="http://www.w3.org/1999/xlink">
<g id="graph0" class="graph" transform="scale(1 1) rotate(0) translate(4 100)">
<title>GroupOptionButton.DrawSelf</title>
<polygon fill="white" stroke="transparent" points="-4,4 -4,-100 344,-100 344,4 -4,4"/>
<!-- Node1 -->
<g id="node1" class="node">
<title>Node1</title>
<g id="a_node1"><a xlink:title=" ">
<polygon fill="#bfbfbf" stroke="black" points="0,-38.5 0,-57.5 158,-57.5 158,-38.5 0,-38.5"/>
<text text-anchor="middle" x="79" y="-45.5" font-family="Helvetica,sans-Serif" font-size="10.00">GroupOptionButton.DrawSelf</text>
</a>
</g>
</g>
<!-- Node2 -->
<g id="node2" class="node">
<title>Node2</title>
<g id="a_node2"><a xlink:href="../../dc/dc5/classUtils_af387ecca46151dd343b9e8600c59f720.html#af387ecca46151dd343b9e8600c59f720" target="_top" xlink:title=" ">
<polygon fill="white" stroke="black" points="202.5,-76.5 202.5,-95.5 331.5,-95.5 331.5,-76.5 202.5,-76.5"/>
<text text-anchor="middle" x="267" y="-83.5" font-family="Helvetica,sans-Serif" font-size="10.00">Utils.DrawSplicedPanel</text>
</a>
</g>
</g>
<!-- Node1&#45;&gt;Node2 -->
<g id="edge1" class="edge">
<title>Node1&#45;&gt;Node2</title>
<path fill="none" stroke="midnightblue" d="M126.94,-57.59C152.03,-62.72 183.12,-69.07 209.53,-74.46"/>
<polygon fill="midnightblue" stroke="midnightblue" points="208.9,-77.91 219.4,-76.48 210.3,-71.05 208.9,-77.91"/>
</g>
<!-- Node3 -->
<g id="node3" class="node">
<title>Node3</title>
<g id="a_node3"><a xlink:href="../../de/db3/classUIElement_a1573899b8299cd5438f5be708a6a0795.html#a1573899b8299cd5438f5be708a6a0795" target="_top" xlink:title=" ">
<polygon fill="white" stroke="black" points="194,-38.5 194,-57.5 340,-57.5 340,-38.5 194,-38.5"/>
<text text-anchor="middle" x="267" y="-45.5" font-family="Helvetica,sans-Serif" font-size="10.00">UIElement.GetDimensions</text>
</a>
</g>
</g>
<!-- Node1&#45;&gt;Node3 -->
<g id="edge2" class="edge">
<title>Node1&#45;&gt;Node3</title>
<path fill="none" stroke="midnightblue" d="M158.07,-48C166.48,-48 175.06,-48 183.52,-48"/>
<polygon fill="midnightblue" stroke="midnightblue" points="183.76,-51.5 193.76,-48 183.76,-44.5 183.76,-51.5"/>
</g>
<!-- Node4 -->
<g id="node4" class="node">
<title>Node4</title>
<g id="a_node4"><a xlink:href="../../d7/d66/classSoundEngine_a6c31f285c7bb4711799ee29c96bb2806.html#a6c31f285c7bb4711799ee29c96bb2806" target="_top" xlink:title=" ">
<polygon fill="white" stroke="black" points="200,-0.5 200,-19.5 334,-19.5 334,-0.5 200,-0.5"/>
<text text-anchor="middle" x="267" y="-7.5" font-family="Helvetica,sans-Serif" font-size="10.00">SoundEngine.PlaySound</text>
</a>
</g>
</g>
<!-- Node1&#45;&gt;Node4 -->
<g id="edge3" class="edge">
<title>Node1&#45;&gt;Node4</title>
<path fill="none" stroke="midnightblue" d="M126.94,-38.41C152.03,-33.28 183.12,-26.93 209.53,-21.54"/>
<polygon fill="midnightblue" stroke="midnightblue" points="210.3,-24.95 219.4,-19.52 208.9,-18.09 210.3,-24.95"/>
</g>
</g>
</svg>
