<?xml version="1.0" encoding="UTF-8" standalone="no"?>
<!DOCTYPE svg PUBLIC "-//W3C//DTD SVG 1.1//EN"
 "http://www.w3.org/Graphics/SVG/1.1/DTD/svg11.dtd">
<!-- Generated by graphviz version 2.43.0 (0)
 -->
<!-- Title: SlotVector&lt; T &gt; Pages: 1 -->
<!--zoomable 876 -->
<svg id="main" version="1.1" xmlns="http://www.w3.org/2000/svg" xmlns:xlink="http://www.w3.org/1999/xlink" xml:space="preserve" onload="init(evt)">
<style type="text/css"><![CDATA[
.edge:hover path { stroke: red; }
.edge:hover polygon { stroke: red; fill: red; }
]]></style>
<script type="text/javascript"><![CDATA[
var edges = document.getElementsByTagName('g');
if (edges && edges.length) {
  for (var i=0;i<edges.length;i++) {
    if (edges[i].id.substr(0,4)=='edge') {
      edges[i].setAttribute('class','edge');
    }
  }
}
]]></script>
        <defs>
                <circle id="rim" cx="0" cy="0" r="7"/>
                <circle id="rim2" cx="0" cy="0" r="3.5"/>
                <g id="zoomPlus">
                        <use xlink:href="#rim" fill="#404040">
                                <set attributeName="fill" to="#808080" begin="zoomplus.mouseover" end="zoomplus.mouseout"/>
                        </use>
                        <path d="M-4,0h8M0,-4v8" fill="none" stroke="white" stroke-width="1.5" pointer-events="none"/>
                </g>
                <g id="zoomMin">
                        <use xlink:href="#rim" fill="#404040">
                                <set attributeName="fill" to="#808080" begin="zoomminus.mouseover" end="zoomminus.mouseout"/>
                        </use>
                        <path d="M-4,0h8" fill="none" stroke="white" stroke-width="1.5" pointer-events="none"/>
                </g>
                <g id="dirArrow">
                        <path fill="none" stroke="white" stroke-width="1.5" d="M0,-3.0v7 M-2.5,-0.5L0,-3.0L2.5,-0.5"/>
                </g>
               <g id="resetDef">
                       <use xlink:href="#rim2" fill="#404040">
                               <set attributeName="fill" to="#808080" begin="reset.mouseover" end="reset.mouseout"/>
                       </use>
               </g>
        </defs>

<script type="text/javascript">
var viewWidth = 571;
var viewHeight = 876;
var sectionId = 'dynsection-1';
</script>
<script xlink:href="../../svgpan.js"/>
<svg id="graph" class="graph">
<g id="viewport">
<title>SlotVector&lt; T &gt;</title>
<polygon fill="white" stroke="transparent" points="-4,4 -4,-872 567,-872 567,4 -4,4"/>
<!-- Node1 -->
<g id="node1" class="node">
<title>Node1</title>
<g id="a_node1"><a xlink:title=" ">
<polygon fill="#bfbfbf" stroke="black" points="154,-0.5 154,-288.5 305,-288.5 305,-0.5 154,-0.5"/>
<text text-anchor="middle" x="229.5" y="-276.5" font-family="Helvetica,sans-Serif" font-size="10.00">SlotVector&lt; T &gt;</text>
<polyline fill="none" stroke="black" points="154,-269.5 305,-269.5 "/>
<text text-anchor="start" x="162" y="-257.5" font-family="Helvetica,sans-Serif" font-size="10.00">+ T this[int index]</text>
<text text-anchor="start" x="162" y="-246.5" font-family="Helvetica,sans-Serif" font-size="10.00">+ T this[SlotId id]</text>
<text text-anchor="start" x="162" y="-235.5" font-family="Helvetica,sans-Serif" font-size="10.00">+ int Count</text>
<text text-anchor="start" x="162" y="-224.5" font-family="Helvetica,sans-Serif" font-size="10.00">+ int Capacity</text>
<polyline fill="none" stroke="black" points="154,-217.5 305,-217.5 "/>
<text text-anchor="start" x="162" y="-205.5" font-family="Helvetica,sans-Serif" font-size="10.00">+ SlotVector(int capacity)</text>
<text text-anchor="start" x="162" y="-194.5" font-family="Helvetica,sans-Serif" font-size="10.00">+ SlotId Add(T value)</text>
<text text-anchor="start" x="162" y="-183.5" font-family="Helvetica,sans-Serif" font-size="10.00">+ void Clear()</text>
<text text-anchor="start" x="162" y="-172.5" font-family="Helvetica,sans-Serif" font-size="10.00">+ bool Remove(SlotId id)</text>
<text text-anchor="start" x="162" y="-161.5" font-family="Helvetica,sans-Serif" font-size="10.00">+ bool Has(SlotId id)</text>
<text text-anchor="start" x="162" y="-150.5" font-family="Helvetica,sans-Serif" font-size="10.00">+ bool Has(int index)</text>
<text text-anchor="start" x="162" y="-139.5" font-family="Helvetica,sans-Serif" font-size="10.00">+ ItemPair GetPair(int</text>
<text text-anchor="start" x="162" y="-128.5" font-family="Helvetica,sans-Serif" font-size="10.00"> index)</text>
<text text-anchor="start" x="162" y="-117.5" font-family="Helvetica,sans-Serif" font-size="10.00">+ bool TryGetValue(SlotId</text>
<text text-anchor="start" x="162" y="-106.5" font-family="Helvetica,sans-Serif" font-size="10.00"> id, [NotNullWhen(true)</text>
<text text-anchor="start" x="162" y="-95.5" font-family="Helvetica,sans-Serif" font-size="10.00">] out T? result)</text>
<text text-anchor="start" x="162" y="-84.5" font-family="Helvetica,sans-Serif" font-size="10.00">+ bool TryGetValue(int</text>
<text text-anchor="start" x="162" y="-73.5" font-family="Helvetica,sans-Serif" font-size="10.00"> index, [NotNullWhen</text>
<text text-anchor="start" x="162" y="-62.5" font-family="Helvetica,sans-Serif" font-size="10.00">(true)] out T? result)</text>
<text text-anchor="start" x="162" y="-51.5" font-family="Helvetica,sans-Serif" font-size="10.00">&#45; IEnumerator IEnumerable.</text>
<text text-anchor="start" x="162" y="-40.5" font-family="Helvetica,sans-Serif" font-size="10.00"> GetEnumerator()</text>
<text text-anchor="start" x="162" y="-29.5" font-family="Helvetica,sans-Serif" font-size="10.00">&#45; IEnumerator&lt; ItemPair</text>
<text text-anchor="start" x="162" y="-18.5" font-family="Helvetica,sans-Serif" font-size="10.00"> &gt; IEnumerable&lt; ItemPair</text>
<text text-anchor="start" x="162" y="-7.5" font-family="Helvetica,sans-Serif" font-size="10.00"> &gt;. GetEnumerator()</text>
</a>
</g>
</g>
<!-- Node2 -->
<g id="node2" class="node">
<title>Node2</title>
<g id="a_node2"><a xlink:href="../../d5/ddf/classIEnumerable.html" target="_top" xlink:title=" ">
<polygon fill="white" stroke="black" points="0,-336.5 0,-404.5 139,-404.5 139,-336.5 0,-336.5"/>
<text text-anchor="start" x="8" y="-392.5" font-family="Helvetica,sans-Serif" font-size="10.00">IEnumerable&lt; SlotVector</text>
<text text-anchor="middle" x="69.5" y="-381.5" font-family="Helvetica,sans-Serif" font-size="10.00">&lt; T &gt;.ItemPair &gt;</text>
<polyline fill="none" stroke="black" points="0,-374.5 139,-374.5 "/>
<text text-anchor="middle" x="69.5" y="-362.5" font-family="Helvetica,sans-Serif" font-size="10.00"> </text>
<polyline fill="none" stroke="black" points="0,-355.5 139,-355.5 "/>
<text text-anchor="middle" x="69.5" y="-343.5" font-family="Helvetica,sans-Serif" font-size="10.00"> </text>
</a>
</g>
</g>
<!-- Node2&#45;&gt;Node1 -->
<g id="edge1" class="edge">
<title>Node2&#45;&gt;Node1</title>
<path fill="none" stroke="midnightblue" d="M99.04,-328.14C114.53,-306.46 134.28,-278.81 153.7,-251.63"/>
<polygon fill="none" stroke="midnightblue" points="96.07,-326.28 93.11,-336.45 101.77,-330.35 96.07,-326.28"/>
</g>
<!-- Node3 -->
<g id="node3" class="node">
<title>Node3</title>
<g id="a_node3"><a xlink:href="../../d5/ddf/classIEnumerable.html" target="_top" xlink:title=" ">
<polygon fill="white" stroke="black" points="157.5,-342 157.5,-399 235.5,-399 235.5,-342 157.5,-342"/>
<text text-anchor="middle" x="196.5" y="-387" font-family="Helvetica,sans-Serif" font-size="10.00">IEnumerable</text>
<polyline fill="none" stroke="black" points="157.5,-380 235.5,-380 "/>
<text text-anchor="middle" x="196.5" y="-368" font-family="Helvetica,sans-Serif" font-size="10.00"> </text>
<polyline fill="none" stroke="black" points="157.5,-361 235.5,-361 "/>
<text text-anchor="middle" x="196.5" y="-349" font-family="Helvetica,sans-Serif" font-size="10.00"> </text>
</a>
</g>
</g>
<!-- Node3&#45;&gt;Node1 -->
<g id="edge2" class="edge">
<title>Node3&#45;&gt;Node1</title>
<path fill="none" stroke="midnightblue" d="M202.08,-331.6C203.93,-319.06 206.11,-304.26 208.42,-288.58"/>
<polygon fill="none" stroke="midnightblue" points="198.61,-331.18 200.61,-341.58 205.53,-332.2 198.61,-331.18"/>
</g>
<!-- Node4 -->
<g id="node4" class="node">
<title>Node4</title>
<g id="a_node4"><a xlink:href="../../d9/d2c/structSlotVector_1_1ItemPair.html" target="_top" xlink:title=" ">
<polygon fill="white" stroke="black" points="312.5,-336.5 312.5,-404.5 450.5,-404.5 450.5,-336.5 312.5,-336.5"/>
<text text-anchor="middle" x="381.5" y="-392.5" font-family="Helvetica,sans-Serif" font-size="10.00">SlotVector&lt; T &gt;.ItemPair</text>
<polyline fill="none" stroke="black" points="312.5,-385.5 450.5,-385.5 "/>
<text text-anchor="middle" x="381.5" y="-373.5" font-family="Helvetica,sans-Serif" font-size="10.00"> </text>
<polyline fill="none" stroke="black" points="312.5,-366.5 450.5,-366.5 "/>
<text text-anchor="start" x="320.5" y="-354.5" font-family="Helvetica,sans-Serif" font-size="10.00">+ ItemPair(T value,</text>
<text text-anchor="start" x="320.5" y="-343.5" font-family="Helvetica,sans-Serif" font-size="10.00"> SlotId id)</text>
</a>
</g>
</g>
<!-- Node4&#45;&gt;Node1 -->
<g id="edge3" class="edge">
<title>Node4&#45;&gt;Node1</title>
<path fill="none" stroke="#404040" d="M359.07,-336.45C346.31,-317.65 329.46,-292.81 312.14,-267.28"/>
<polygon fill="none" stroke="#404040" points="311.96,-267.02 305.28,-264.31 305.23,-257.09 311.9,-259.81 311.96,-267.02"/>
<text text-anchor="middle" x="364.5" y="-310" font-family="Helvetica,sans-Serif" font-size="10.00"> &#45;_array</text>
</g>
<!-- Node5 -->
<g id="node5" class="node">
<title>Node5</title>
<g id="a_node5"><a xlink:href="../../dc/daa/structSlotId.html" target="_top" xlink:title=" ">
<polygon fill="white" stroke="black" points="292,-474.5 292,-718.5 453,-718.5 453,-474.5 292,-474.5"/>
<text text-anchor="middle" x="372.5" y="-706.5" font-family="Helvetica,sans-Serif" font-size="10.00">SlotId</text>
<polyline fill="none" stroke="black" points="292,-699.5 453,-699.5 "/>
<text text-anchor="start" x="300" y="-687.5" font-family="Helvetica,sans-Serif" font-size="10.00">+ bool IsValid</text>
<text text-anchor="start" x="300" y="-676.5" font-family="Helvetica,sans-Serif" font-size="10.00">+ bool IsActive</text>
<text text-anchor="start" x="300" y="-665.5" font-family="Helvetica,sans-Serif" font-size="10.00">+ uint Index</text>
<text text-anchor="start" x="300" y="-654.5" font-family="Helvetica,sans-Serif" font-size="10.00">+ uint Key</text>
<polyline fill="none" stroke="black" points="292,-647.5 453,-647.5 "/>
<text text-anchor="start" x="300" y="-635.5" font-family="Helvetica,sans-Serif" font-size="10.00">+ SlotId(uint value)</text>
<text text-anchor="start" x="300" y="-624.5" font-family="Helvetica,sans-Serif" font-size="10.00">+ override bool Equals</text>
<text text-anchor="start" x="300" y="-613.5" font-family="Helvetica,sans-Serif" font-size="10.00">(object obj)</text>
<text text-anchor="start" x="300" y="-602.5" font-family="Helvetica,sans-Serif" font-size="10.00">+ override int GetHashCode()</text>
<text text-anchor="start" x="300" y="-591.5" font-family="Helvetica,sans-Serif" font-size="10.00">+ float ToFloat()</text>
<text text-anchor="start" x="300" y="-580.5" font-family="Helvetica,sans-Serif" font-size="10.00">+ static bool operator</text>
<text text-anchor="start" x="300" y="-569.5" font-family="Helvetica,sans-Serif" font-size="10.00">==(SlotId lhs, SlotId rhs)</text>
<text text-anchor="start" x="300" y="-558.5" font-family="Helvetica,sans-Serif" font-size="10.00">+ static bool operator!</text>
<text text-anchor="start" x="300" y="-547.5" font-family="Helvetica,sans-Serif" font-size="10.00">=(SlotId lhs, SlotId rhs)</text>
<text text-anchor="start" x="300" y="-536.5" font-family="Helvetica,sans-Serif" font-size="10.00">+ static SlotId FromFloat</text>
<text text-anchor="start" x="300" y="-525.5" font-family="Helvetica,sans-Serif" font-size="10.00">(float value)</text>
<text text-anchor="start" x="300" y="-514.5" font-family="Helvetica,sans-Serif" font-size="10.00">~ SlotId ToInactive(uint</text>
<text text-anchor="start" x="300" y="-503.5" font-family="Helvetica,sans-Serif" font-size="10.00"> freeHead)</text>
<text text-anchor="start" x="300" y="-492.5" font-family="Helvetica,sans-Serif" font-size="10.00">~ SlotId ToActive(uint</text>
<text text-anchor="start" x="300" y="-481.5" font-family="Helvetica,sans-Serif" font-size="10.00"> index)</text>
</a>
</g>
</g>
<!-- Node5&#45;&gt;Node4 -->
<g id="edge4" class="edge">
<title>Node5&#45;&gt;Node4</title>
<path fill="none" stroke="#404040" d="M377.37,-474.32C378.19,-453.95 378.99,-433.99 379.67,-417.15"/>
<polygon fill="none" stroke="#404040" points="379.68,-416.92 375.92,-410.76 380.16,-404.93 383.91,-411.08 379.68,-416.92"/>
<text text-anchor="middle" x="390" y="-437" font-family="Helvetica,sans-Serif" font-size="10.00"> +Id</text>
</g>
<!-- Node5&#45;&gt;Node5 -->
<g id="edge5" class="edge">
<title>Node5&#45;&gt;Node5</title>
<path fill="none" stroke="#404040" d="M453.27,-622.29C463.93,-617.89 471,-609.3 471,-596.5 471,-588.5 468.24,-582.14 463.56,-577.43"/>
<polygon fill="none" stroke="#404040" points="463.32,-577.27 456.11,-577.34 453.27,-570.71 460.48,-570.64 463.32,-577.27"/>
<text text-anchor="middle" x="493.5" y="-594" font-family="Helvetica,sans-Serif" font-size="10.00"> +Invalid</text>
</g>
<!-- Node6 -->
<g id="node6" class="node">
<title>Node6</title>
<g id="a_node6"><a xlink:title=" ">
<polygon fill="white" stroke="#bfbfbf" points="262,-810.5 262,-867.5 297,-867.5 297,-810.5 262,-810.5"/>
<text text-anchor="middle" x="279.5" y="-855.5" font-family="Helvetica,sans-Serif" font-size="10.00">uint</text>
<polyline fill="none" stroke="#bfbfbf" points="262,-848.5 297,-848.5 "/>
<text text-anchor="middle" x="279.5" y="-836.5" font-family="Helvetica,sans-Serif" font-size="10.00"> </text>
<polyline fill="none" stroke="#bfbfbf" points="262,-829.5 297,-829.5 "/>
<text text-anchor="middle" x="279.5" y="-817.5" font-family="Helvetica,sans-Serif" font-size="10.00"> </text>
</a>
</g>
</g>
<!-- Node6&#45;&gt;Node1 -->
<g id="edge8" class="edge">
<title>Node6&#45;&gt;Node1</title>
<path fill="none" stroke="#404040" d="M277.65,-810.24C272.58,-734.31 257.92,-516.78 244.5,-336 243.64,-324.46 242.74,-312.53 241.82,-300.53"/>
<polygon fill="none" stroke="#404040" points="241.82,-300.48 237.37,-294.81 240.9,-288.52 245.35,-294.19 241.82,-300.48"/>
<text text-anchor="middle" x="301" y="-448" font-family="Helvetica,sans-Serif" font-size="10.00"> &#45;MAX_INDEX</text>
<text text-anchor="middle" x="301" y="-437" font-family="Helvetica,sans-Serif" font-size="10.00">&#45;_freeHead</text>
<text text-anchor="middle" x="301" y="-426" font-family="Helvetica,sans-Serif" font-size="10.00">&#45;_usedSpaceLength</text>
</g>
<!-- Node6&#45;&gt;Node5 -->
<g id="edge6" class="edge">
<title>Node6&#45;&gt;Node5</title>
<path fill="none" stroke="#404040" d="M290.17,-810.41C298.07,-789.97 309.48,-760.47 321.3,-729.91"/>
<polygon fill="none" stroke="#404040" points="321.34,-729.81 319.77,-722.77 325.66,-718.62 327.23,-725.66 321.34,-729.81"/>
<text text-anchor="middle" x="355" y="-784" font-family="Helvetica,sans-Serif" font-size="10.00"> +Value</text>
<text text-anchor="middle" x="355" y="-773" font-family="Helvetica,sans-Serif" font-size="10.00">&#45;ACTIVE_MASK</text>
<text text-anchor="middle" x="355" y="-762" font-family="Helvetica,sans-Serif" font-size="10.00">&#45;INDEX_MASK</text>
<text text-anchor="middle" x="355" y="-751" font-family="Helvetica,sans-Serif" font-size="10.00">&#45;KEY_INC</text>
<text text-anchor="middle" x="355" y="-740" font-family="Helvetica,sans-Serif" font-size="10.00">&#45;KEY_MASK</text>
</g>
<!-- Node7 -->
<g id="node7" class="node">
<title>Node7</title>
<g id="a_node7"><a xlink:title=" ">
<polygon fill="white" stroke="#bfbfbf" points="534,-568 534,-625 563,-625 563,-568 534,-568"/>
<text text-anchor="middle" x="548.5" y="-613" font-family="Helvetica,sans-Serif" font-size="10.00">T</text>
<polyline fill="none" stroke="#bfbfbf" points="534,-606 563,-606 "/>
<text text-anchor="middle" x="548.5" y="-594" font-family="Helvetica,sans-Serif" font-size="10.00"> </text>
<polyline fill="none" stroke="#bfbfbf" points="534,-587 563,-587 "/>
<text text-anchor="middle" x="548.5" y="-575" font-family="Helvetica,sans-Serif" font-size="10.00"> </text>
</a>
</g>
</g>
<!-- Node7&#45;&gt;Node4 -->
<g id="edge7" class="edge">
<title>Node7&#45;&gt;Node4</title>
<path fill="none" stroke="#404040" d="M548.71,-567.78C547.66,-541.65 542.77,-502.38 524.5,-474 508.08,-448.49 482.88,-427.35 458.18,-411.02"/>
<polygon fill="none" stroke="#404040" points="458.14,-411 450.93,-411.15 448.02,-404.55 455.23,-404.4 458.14,-411"/>
<text text-anchor="middle" x="530" y="-437" font-family="Helvetica,sans-Serif" font-size="10.00"> +Value</text>
</g>
</g>
</svg>
        <g id="navigator" transform="translate(0 0)" fill="#404254">
                <rect fill="#f2f5e9" fill-opacity="0.5" stroke="#606060" stroke-width=".5" x="0" y="0" width="60" height="60"/>
                <use id="zoomplus" xlink:href="#zoomPlus" x="17" y="9" onmousedown="handleZoom(evt,'in')"/>
                <use id="zoomminus" xlink:href="#zoomMin" x="42" y="9" onmousedown="handleZoom(evt,'out')"/>
                <use id="reset" xlink:href="#resetDef" x="30" y="36" onmousedown="handleReset()"/>
                <g id="arrowUp" xlink:href="#dirArrow" transform="translate(30 24)" onmousedown="handlePan(0,-1)">
                  <use xlink:href="#rim" fill="#404040">
                        <set attributeName="fill" to="#808080" begin="arrowUp.mouseover" end="arrowUp.mouseout"/>
                  </use>
                  <path fill="none" stroke="white" stroke-width="1.5" d="M0,-3.0v7 M-2.5,-0.5L0,-3.0L2.5,-0.5"/>
                </g>
                <g id="arrowRight" xlink:href="#dirArrow" transform="rotate(90) translate(36 -43)" onmousedown="handlePan(1,0)">
                  <use xlink:href="#rim" fill="#404040">
                        <set attributeName="fill" to="#808080" begin="arrowRight.mouseover" end="arrowRight.mouseout"/>
                  </use>
                  <path fill="none" stroke="white" stroke-width="1.5" d="M0,-3.0v7 M-2.5,-0.5L0,-3.0L2.5,-0.5"/>
                </g>
                <g id="arrowDown" xlink:href="#dirArrow" transform="rotate(180) translate(-30 -48)" onmousedown="handlePan(0,1)">
                  <use xlink:href="#rim" fill="#404040">
                        <set attributeName="fill" to="#808080" begin="arrowDown.mouseover" end="arrowDown.mouseout"/>
                  </use>
                  <path fill="none" stroke="white" stroke-width="1.5" d="M0,-3.0v7 M-2.5,-0.5L0,-3.0L2.5,-0.5"/>
                </g>
                <g id="arrowLeft" xlink:href="#dirArrow" transform="rotate(270) translate(-36 17)" onmousedown="handlePan(-1,0)">
                  <use xlink:href="#rim" fill="#404040">
                        <set attributeName="fill" to="#808080" begin="arrowLeft.mouseover" end="arrowLeft.mouseout"/>
                  </use>
                  <path fill="none" stroke="white" stroke-width="1.5" d="M0,-3.0v7 M-2.5,-0.5L0,-3.0L2.5,-0.5"/>
                </g>
        </g>
        <svg viewBox="0 0 15 15" width="100%" height="30px" preserveAspectRatio="xMaxYMin meet">
         <g id="arrow_out" transform="scale(0.3 0.3)">
          <a xlink:href="classSlotVector__coll__graph_org.svg" target="_base">
           <rect id="button" ry="5" rx="5" y="6" x="6" height="38" width="38"
                fill="#f2f5e9" fill-opacity="0.5" stroke="#606060" stroke-width="1.0"/>
           <path id="arrow"
             d="M 11.500037,31.436501 C 11.940474,20.09759 22.043105,11.32322 32.158766,21.979434 L 37.068811,17.246167 C 37.068811,17.246167 37.088388,32 37.088388,32 L 22.160133,31.978069 C 22.160133,31.978069 26.997745,27.140456 26.997745,27.140456 C 18.528582,18.264221 13.291696,25.230495 11.500037,31.436501 z"
             style="fill:#404040;"/>
          </a>
         </g>
        </svg>
</svg>
