<?xml version="1.0" encoding="UTF-8" standalone="no"?>
<!DOCTYPE svg PUBLIC "-//W3C//DTD SVG 1.1//EN"
 "http://www.w3.org/Graphics/SVG/1.1/DTD/svg11.dtd">
<!-- Generated by graphviz version 2.43.0 (0)
 -->
<!-- Title: Passes.ScatterCustom Pages: 1 -->
<svg width="193pt" height="529pt"
 viewBox="0.00 0.00 193.00 529.00" xmlns="http://www.w3.org/2000/svg" xmlns:xlink="http://www.w3.org/1999/xlink">
<g id="graph0" class="graph" transform="scale(1 1) rotate(0) translate(4 525)">
<title>Passes.ScatterCustom</title>
<polygon fill="white" stroke="transparent" points="-4,4 -4,-525 189,-525 189,4 -4,4"/>
<!-- Node1 -->
<g id="node1" class="node">
<title>Node1</title>
<g id="a_node1"><a xlink:title=" ">
<polygon fill="#bfbfbf" stroke="black" points="0,-0.5 0,-178.5 185,-178.5 185,-0.5 0,-0.5"/>
<text text-anchor="middle" x="92.5" y="-166.5" font-family="Helvetica,sans-Serif" font-size="10.00">Passes.ScatterCustom</text>
<polyline fill="none" stroke="black" points="0,-159.5 185,-159.5 "/>
<text text-anchor="start" x="8" y="-147.5" font-family="Helvetica,sans-Serif" font-size="10.00">&#45; CustomPerUnitAction</text>
<text text-anchor="start" x="8" y="-136.5" font-family="Helvetica,sans-Serif" font-size="10.00"> _perUnit</text>
<text text-anchor="start" x="8" y="-125.5" font-family="Helvetica,sans-Serif" font-size="10.00">&#45; int _count</text>
<polyline fill="none" stroke="black" points="0,-118.5 185,-118.5 "/>
<text text-anchor="start" x="8" y="-106.5" font-family="Helvetica,sans-Serif" font-size="10.00">+ ScatterCustom(string</text>
<text text-anchor="start" x="8" y="-95.5" font-family="Helvetica,sans-Serif" font-size="10.00"> name, double loadWeight,</text>
<text text-anchor="start" x="8" y="-84.5" font-family="Helvetica,sans-Serif" font-size="10.00"> int count, CustomPerUnitAction</text>
<text text-anchor="start" x="8" y="-73.5" font-family="Helvetica,sans-Serif" font-size="10.00"> perUnit=null)</text>
<text text-anchor="start" x="8" y="-62.5" font-family="Helvetica,sans-Serif" font-size="10.00">+ void SetCustomAction</text>
<text text-anchor="start" x="8" y="-51.5" font-family="Helvetica,sans-Serif" font-size="10.00">(CustomPerUnitAction</text>
<text text-anchor="start" x="8" y="-40.5" font-family="Helvetica,sans-Serif" font-size="10.00"> perUnit)</text>
<text text-anchor="start" x="8" y="-29.5" font-family="Helvetica,sans-Serif" font-size="10.00"># override void ApplyPass</text>
<text text-anchor="start" x="8" y="-18.5" font-family="Helvetica,sans-Serif" font-size="10.00">(GenerationProgress progress,</text>
<text text-anchor="start" x="8" y="-7.5" font-family="Helvetica,sans-Serif" font-size="10.00"> GameConfiguration configuration)</text>
</a>
</g>
</g>
<!-- Node2 -->
<g id="node2" class="node">
<title>Node2</title>
<g id="a_node2"><a xlink:href="../../d9/d0a/classGenPass.html" target="_top" xlink:title=" ">
<polygon fill="white" stroke="black" points="0,-215.5 0,-360.5 185,-360.5 185,-215.5 0,-215.5"/>
<text text-anchor="middle" x="92.5" y="-348.5" font-family="Helvetica,sans-Serif" font-size="10.00">GenPass</text>
<polyline fill="none" stroke="black" points="0,-341.5 185,-341.5 "/>
<text text-anchor="start" x="8" y="-329.5" font-family="Helvetica,sans-Serif" font-size="10.00">+ string Name</text>
<text text-anchor="start" x="8" y="-318.5" font-family="Helvetica,sans-Serif" font-size="10.00">+ double Weight</text>
<polyline fill="none" stroke="black" points="0,-311.5 185,-311.5 "/>
<text text-anchor="start" x="8" y="-299.5" font-family="Helvetica,sans-Serif" font-size="10.00">+ GenPass(string name,</text>
<text text-anchor="start" x="8" y="-288.5" font-family="Helvetica,sans-Serif" font-size="10.00"> double loadWeight)</text>
<text text-anchor="start" x="8" y="-277.5" font-family="Helvetica,sans-Serif" font-size="10.00">+ void Apply(GenerationProgress</text>
<text text-anchor="start" x="8" y="-266.5" font-family="Helvetica,sans-Serif" font-size="10.00"> progress, GameConfiguration</text>
<text text-anchor="start" x="8" y="-255.5" font-family="Helvetica,sans-Serif" font-size="10.00"> configuration)</text>
<text text-anchor="start" x="8" y="-244.5" font-family="Helvetica,sans-Serif" font-size="10.00"># abstract void ApplyPass</text>
<text text-anchor="start" x="8" y="-233.5" font-family="Helvetica,sans-Serif" font-size="10.00">(GenerationProgress progress,</text>
<text text-anchor="start" x="8" y="-222.5" font-family="Helvetica,sans-Serif" font-size="10.00"> GameConfiguration configuration)</text>
</a>
</g>
</g>
<!-- Node2&#45;&gt;Node1 -->
<g id="edge1" class="edge">
<title>Node2&#45;&gt;Node1</title>
<path fill="none" stroke="midnightblue" d="M92.5,-205.12C92.5,-196.43 92.5,-187.56 92.5,-178.8"/>
<polygon fill="none" stroke="midnightblue" points="89,-205.22 92.5,-215.22 96,-205.22 89,-205.22"/>
</g>
<!-- Node3 -->
<g id="node3" class="node">
<title>Node3</title>
<g id="a_node3"><a xlink:href="../../dc/d5c/classGenBase.html" target="_top" xlink:title=" ">
<polygon fill="white" stroke="black" points="7,-397.5 7,-520.5 178,-520.5 178,-397.5 7,-397.5"/>
<text text-anchor="middle" x="92.5" y="-508.5" font-family="Helvetica,sans-Serif" font-size="10.00">GenBase</text>
<polyline fill="none" stroke="black" points="7,-501.5 178,-501.5 "/>
<text text-anchor="start" x="15" y="-489.5" font-family="Helvetica,sans-Serif" font-size="10.00">+ static UnifiedRandom</text>
<text text-anchor="start" x="15" y="-478.5" font-family="Helvetica,sans-Serif" font-size="10.00"> _random</text>
<text text-anchor="start" x="15" y="-467.5" font-family="Helvetica,sans-Serif" font-size="10.00">+ static Tile[,] _tiles</text>
<text text-anchor="start" x="15" y="-456.5" font-family="Helvetica,sans-Serif" font-size="10.00">+ static int _worldWidth</text>
<text text-anchor="start" x="15" y="-445.5" font-family="Helvetica,sans-Serif" font-size="10.00">+ static int _worldHeight</text>
<polyline fill="none" stroke="black" points="7,-438.5 178,-438.5 "/>
<text text-anchor="start" x="15" y="-426.5" font-family="Helvetica,sans-Serif" font-size="10.00">+ delegate bool CustomPerUnit</text>
<text text-anchor="start" x="15" y="-415.5" font-family="Helvetica,sans-Serif" font-size="10.00">Action(int x, int y, params</text>
<text text-anchor="start" x="15" y="-404.5" font-family="Helvetica,sans-Serif" font-size="10.00"> object[] args)</text>
</a>
</g>
</g>
<!-- Node3&#45;&gt;Node2 -->
<g id="edge2" class="edge">
<title>Node3&#45;&gt;Node2</title>
<path fill="none" stroke="midnightblue" d="M92.5,-387.25C92.5,-378.46 92.5,-369.45 92.5,-360.64"/>
<polygon fill="none" stroke="midnightblue" points="89,-387.46 92.5,-397.46 96,-387.46 89,-387.46"/>
</g>
</g>
</svg>
