<?xml version="1.0" encoding="UTF-8" standalone="no"?>
<!DOCTYPE svg PUBLIC "-//W3C//DTD SVG 1.1//EN"
 "http://www.w3.org/Graphics/SVG/1.1/DTD/svg11.dtd">
<!-- Generated by graphviz version 2.43.0 (0)
 -->
<!-- Title: LightingEngine.ProcessBlur Pages: 1 -->
<svg width="995pt" height="192pt"
 viewBox="0.00 0.00 995.00 191.50" xmlns="http://www.w3.org/2000/svg" xmlns:xlink="http://www.w3.org/1999/xlink">
<g id="graph0" class="graph" transform="scale(1 1) rotate(0) translate(4 187.5)">
<title>LightingEngine.ProcessBlur</title>
<polygon fill="white" stroke="transparent" points="-4,4 -4,-187.5 991,-187.5 991,4 -4,4"/>
<!-- Node1 -->
<g id="node1" class="node">
<title>Node1</title>
<g id="a_node1"><a xlink:title=" ">
<polygon fill="#bfbfbf" stroke="black" points="0,-50 0,-69 149,-69 149,-50 0,-50"/>
<text text-anchor="middle" x="74.5" y="-57" font-family="Helvetica,sans-Serif" font-size="10.00">LightingEngine.ProcessBlur</text>
</a>
</g>
</g>
<!-- Node2 -->
<g id="node2" class="node">
<title>Node2</title>
<g id="a_node2"><a xlink:href="../../d4/d50/classLightingEngine_a2c075e16c552d6f9f16cb448d5ffb2a4.html#a2c075e16c552d6f9f16cb448d5ffb2a4" target="_top" xlink:title=" ">
<polygon fill="white" stroke="black" points="185,-88.5 185,-118.5 351,-118.5 351,-88.5 185,-88.5"/>
<text text-anchor="start" x="193" y="-106.5" font-family="Helvetica,sans-Serif" font-size="10.00">LightingEngine.ApplyPerFrame</text>
<text text-anchor="middle" x="268" y="-95.5" font-family="Helvetica,sans-Serif" font-size="10.00">Lights</text>
</a>
</g>
</g>
<!-- Node1&#45;&gt;Node2 -->
<g id="edge1" class="edge">
<title>Node1&#45;&gt;Node2</title>
<path fill="none" stroke="midnightblue" d="M117.05,-69.05C138.81,-74.05 166.12,-80.32 191.46,-86.14"/>
<polygon fill="midnightblue" stroke="midnightblue" points="190.9,-89.61 201.43,-88.43 192.47,-82.78 190.9,-89.61"/>
</g>
<!-- Node3 -->
<g id="node3" class="node">
<title>Node3</title>
<g id="a_node3"><a xlink:href="../../d7/d6d/classLightMap_a802ca4d3ef739f2f702258070d1663ac.html#a802ca4d3ef739f2f702258070d1663ac" target="_top" xlink:title=" ">
<polygon fill="white" stroke="black" points="226,-50 226,-69 310,-69 310,-50 226,-50"/>
<text text-anchor="middle" x="268" y="-57" font-family="Helvetica,sans-Serif" font-size="10.00">LightMap.Blur</text>
</a>
</g>
</g>
<!-- Node1&#45;&gt;Node3 -->
<g id="edge2" class="edge">
<title>Node1&#45;&gt;Node3</title>
<path fill="none" stroke="midnightblue" d="M149.26,-59.5C171.53,-59.5 195.47,-59.5 215.91,-59.5"/>
<polygon fill="midnightblue" stroke="midnightblue" points="215.94,-63 225.94,-59.5 215.94,-56 215.94,-63"/>
</g>
<!-- Node13 -->
<g id="node13" class="node">
<title>Node13</title>
<g id="a_node13"><a xlink:href="../../d4/d50/classLightingEngine_a868e525e1ade3327d183e5c75ca35e5b.html#a868e525e1ade3327d183e5c75ca35e5b" target="_top" xlink:title=" ">
<polygon fill="white" stroke="black" points="192.5,-0.5 192.5,-30.5 343.5,-30.5 343.5,-0.5 192.5,-0.5"/>
<text text-anchor="start" x="200.5" y="-18.5" font-family="Helvetica,sans-Serif" font-size="10.00">LightingEngine.UpdateLight</text>
<text text-anchor="middle" x="268" y="-7.5" font-family="Helvetica,sans-Serif" font-size="10.00">Decay</text>
</a>
</g>
</g>
<!-- Node1&#45;&gt;Node13 -->
<g id="edge13" class="edge">
<title>Node1&#45;&gt;Node13</title>
<path fill="none" stroke="midnightblue" d="M117.05,-49.95C138.81,-44.95 166.12,-38.68 191.46,-32.86"/>
<polygon fill="midnightblue" stroke="midnightblue" points="192.47,-36.22 201.43,-30.57 190.9,-29.39 192.47,-36.22"/>
</g>
<!-- Node4 -->
<g id="node4" class="node">
<title>Node4</title>
<g id="a_node4"><a xlink:href="../../d7/d6d/classLightMap_ad705c5ef42578ece3e37aad1600be61d.html#ad705c5ef42578ece3e37aad1600be61d" target="_top" xlink:title=" ">
<polygon fill="white" stroke="black" points="387,-88 387,-107 493,-107 493,-88 387,-88"/>
<text text-anchor="middle" x="440" y="-95" font-family="Helvetica,sans-Serif" font-size="10.00">LightMap.BlurPass</text>
</a>
</g>
</g>
<!-- Node3&#45;&gt;Node4 -->
<g id="edge3" class="edge">
<title>Node3&#45;&gt;Node4</title>
<path fill="none" stroke="midnightblue" d="M310.15,-68.7C333.13,-73.83 361.98,-80.28 386.56,-85.78"/>
<polygon fill="midnightblue" stroke="midnightblue" points="385.93,-89.22 396.45,-87.99 387.46,-82.39 385.93,-89.22"/>
</g>
<!-- Node8 -->
<g id="node8" class="node">
<title>Node8</title>
<g id="a_node8"><a xlink:href="../../db/d84/structFastRandom_a6bbafa73421aa040298052c45bd4f305.html#a6bbafa73421aa040298052c45bd4f305" target="_top" xlink:title=" ">
<polygon fill="white" stroke="black" points="853.5,-69 853.5,-88 980.5,-88 980.5,-69 853.5,-69"/>
<text text-anchor="middle" x="917" y="-76" font-family="Helvetica,sans-Serif" font-size="10.00">FastRandom.NextSeed</text>
</a>
</g>
</g>
<!-- Node3&#45;&gt;Node8 -->
<g id="edge12" class="edge">
<title>Node3&#45;&gt;Node8</title>
<path fill="none" stroke="midnightblue" d="M310.38,-55.54C361.63,-50.85 451.66,-43.32 529,-40.5 575.19,-38.81 586.88,-37.42 633,-40.5 708.36,-45.54 794.25,-58.04 851.45,-67.33"/>
<polygon fill="midnightblue" stroke="midnightblue" points="851,-70.81 861.44,-68.97 852.14,-63.9 851,-70.81"/>
</g>
<!-- Node5 -->
<g id="node5" class="node">
<title>Node5</title>
<g id="a_node5"><a xlink:href="../../d7/d6d/classLightMap_abcaea3843c034258243d97346406802c.html#abcaea3843c034258243d97346406802c" target="_top" xlink:title=" ">
<polygon fill="white" stroke="black" points="529,-164 529,-183 633,-183 633,-164 529,-164"/>
<text text-anchor="middle" x="581" y="-171" font-family="Helvetica,sans-Serif" font-size="10.00">LightMap.BlurLine</text>
</a>
</g>
</g>
<!-- Node4&#45;&gt;Node5 -->
<g id="edge4" class="edge">
<title>Node4&#45;&gt;Node5</title>
<path fill="none" stroke="midnightblue" d="M453.88,-107.13C470.57,-119.3 500.86,-140.36 529,-154.5 533,-156.51 537.27,-158.43 541.57,-160.22"/>
<polygon fill="midnightblue" stroke="midnightblue" points="540.35,-163.5 550.94,-163.92 542.93,-156.99 540.35,-163.5"/>
</g>
<!-- Node9 -->
<g id="node9" class="node">
<title>Node9</title>
<g id="a_node9"><a xlink:href="../../d5/d06/classFastParallel_a8a292ed3db3c77f208c1d83a6e268736.html#a8a292ed3db3c77f208c1d83a6e268736" target="_top" xlink:title=" ">
<polygon fill="white" stroke="black" points="536,-126 536,-145 626,-145 626,-126 536,-126"/>
<text text-anchor="middle" x="581" y="-133" font-family="Helvetica,sans-Serif" font-size="10.00">FastParallel.For</text>
</a>
</g>
</g>
<!-- Node4&#45;&gt;Node9 -->
<g id="edge8" class="edge">
<title>Node4&#45;&gt;Node9</title>
<path fill="none" stroke="midnightblue" d="M476.08,-107.09C494.02,-111.99 516.06,-118.02 535.22,-123.26"/>
<polygon fill="midnightblue" stroke="midnightblue" points="534.37,-126.65 544.94,-125.91 536.21,-119.9 534.37,-126.65"/>
</g>
<!-- Node11 -->
<g id="node11" class="node">
<title>Node11</title>
<g id="a_node11"><a xlink:href="../../d7/d6d/classLightMap_a6db6e4023c7bdc8bbcdfac1af90863d9.html#a6db6e4023c7bdc8bbcdfac1af90863d9" target="_top" xlink:title=" ">
<polygon fill="white" stroke="black" points="529.5,-88 529.5,-107 632.5,-107 632.5,-88 529.5,-88"/>
<text text-anchor="middle" x="581" y="-95" font-family="Helvetica,sans-Serif" font-size="10.00">LightMap.IndexOf</text>
</a>
</g>
</g>
<!-- Node4&#45;&gt;Node11 -->
<g id="edge10" class="edge">
<title>Node4&#45;&gt;Node11</title>
<path fill="none" stroke="midnightblue" d="M493.15,-97.5C501.68,-97.5 510.58,-97.5 519.29,-97.5"/>
<polygon fill="midnightblue" stroke="midnightblue" points="519.4,-101 529.4,-97.5 519.4,-94 519.4,-101"/>
</g>
<!-- Node12 -->
<g id="node12" class="node">
<title>Node12</title>
<g id="a_node12"><a xlink:href="../../d9/d29/ParallelForAction_8cs_aebb6895a33c2b50fb6fefd641de0f185.html#aebb6895a33c2b50fb6fefd641de0f185" target="_top" xlink:title=" ">
<polygon fill="white" stroke="black" points="532,-50 532,-69 630,-69 630,-50 532,-50"/>
<text text-anchor="middle" x="581" y="-57" font-family="Helvetica,sans-Serif" font-size="10.00">ParallelForAction</text>
</a>
</g>
</g>
<!-- Node4&#45;&gt;Node12 -->
<g id="edge11" class="edge">
<title>Node4&#45;&gt;Node12</title>
<path fill="none" stroke="midnightblue" d="M476.08,-87.91C494.02,-83.01 516.06,-76.98 535.22,-71.74"/>
<polygon fill="midnightblue" stroke="midnightblue" points="536.21,-75.1 544.94,-69.09 534.37,-68.35 536.21,-75.1"/>
</g>
<!-- Node6 -->
<g id="node6" class="node">
<title>Node6</title>
<g id="a_node6"><a xlink:href="../../db/d84/structFastRandom_af12bee2b4ed150be1e58107ba8b959a5.html#af12bee2b4ed150be1e58107ba8b959a5" target="_top" xlink:title=" ">
<polygon fill="white" stroke="black" points="669,-164 669,-183 811,-183 811,-164 669,-164"/>
<text text-anchor="middle" x="740" y="-171" font-family="Helvetica,sans-Serif" font-size="10.00">FastRandom.WithModifier</text>
</a>
</g>
</g>
<!-- Node5&#45;&gt;Node6 -->
<g id="edge5" class="edge">
<title>Node5&#45;&gt;Node6</title>
<path fill="none" stroke="midnightblue" d="M633.41,-173.5C641.57,-173.5 650.18,-173.5 658.82,-173.5"/>
<polygon fill="midnightblue" stroke="midnightblue" points="658.94,-177 668.94,-173.5 658.94,-170 658.94,-177"/>
</g>
<!-- Node7 -->
<g id="node7" class="node">
<title>Node7</title>
<g id="a_node7"><a xlink:href="../../db/d84/structFastRandom_af2f68b4664d70cdc14cc5be08d6e0798.html#af2f68b4664d70cdc14cc5be08d6e0798" target="_top" xlink:title=" ">
<polygon fill="white" stroke="black" points="847,-164 847,-183 987,-183 987,-164 847,-164"/>
<text text-anchor="middle" x="917" y="-171" font-family="Helvetica,sans-Serif" font-size="10.00">FastRandom.FastRandom</text>
</a>
</g>
</g>
<!-- Node6&#45;&gt;Node7 -->
<g id="edge6" class="edge">
<title>Node6&#45;&gt;Node7</title>
<path fill="none" stroke="midnightblue" d="M811.17,-173.5C819.65,-173.5 828.35,-173.5 836.94,-173.5"/>
<polygon fill="midnightblue" stroke="midnightblue" points="836.95,-177 846.95,-173.5 836.95,-170 836.95,-177"/>
</g>
<!-- Node6&#45;&gt;Node8 -->
<g id="edge7" class="edge">
<title>Node6&#45;&gt;Node8</title>
<path fill="none" stroke="midnightblue" d="M785.94,-163.89C794.46,-161.35 803.16,-158.25 811,-154.5 844.22,-138.62 877.87,-111.99 897.83,-94.84"/>
<polygon fill="midnightblue" stroke="midnightblue" points="900.28,-97.35 905.5,-88.13 895.67,-92.08 900.28,-97.35"/>
</g>
<!-- Node10 -->
<g id="node10" class="node">
<title>Node10</title>
<g id="a_node10"><a xlink:href="../../d5/d06/classFastParallel_a3086d6c2ac9abd0bba48730e615a487d.html#a3086d6c2ac9abd0bba48730e615a487d" target="_top" xlink:title=" ">
<polygon fill="white" stroke="black" points="675.5,-126 675.5,-145 804.5,-145 804.5,-126 675.5,-126"/>
<text text-anchor="middle" x="740" y="-133" font-family="Helvetica,sans-Serif" font-size="10.00">FastParallel.InvokeTask</text>
</a>
</g>
</g>
<!-- Node9&#45;&gt;Node10 -->
<g id="edge9" class="edge">
<title>Node9&#45;&gt;Node10</title>
<path fill="none" stroke="midnightblue" d="M626.15,-135.5C638.29,-135.5 651.8,-135.5 665.13,-135.5"/>
<polygon fill="midnightblue" stroke="midnightblue" points="665.26,-139 675.26,-135.5 665.26,-132 665.26,-139"/>
</g>
</g>
</svg>
