<?xml version="1.0" encoding="UTF-8" standalone="no"?>
<!DOCTYPE svg PUBLIC "-//W3C//DTD SVG 1.1//EN"
 "http://www.w3.org/Graphics/SVG/1.1/DTD/svg11.dtd">
<!-- Generated by graphviz version 2.43.0 (0)
 -->
<!-- Title: Terraria.Graphics.Effects.EffectManager.Deactivate Pages: 1 -->
<!--zoomable 316 -->

<svg id="main" version="1.1" xmlns="http://www.w3.org/2000/svg" xmlns:xlink="http://www.w3.org/1999/xlink" xml:space="preserve" onload="init(evt)">
<style type="text/css"><![CDATA[
.node, .edge {opacity: 0.7;}
.node.selected, .edge.selected {opacity: 1;}
.edge:hover path { stroke: red; }
.edge:hover polygon { stroke: red; fill: red; }
]]></style>

<defs>
  <circle id="rim" cx="0" cy="0" r="7"/>
  <circle id="rim2" cx="0" cy="0" r="3.5"/>
  <g id="zoomPlus">
    <use xlink:href="#rim" fill="#404040"><set attributeName="fill" to="#808080" begin="zoomplus.mouseover" end="zoomplus.mouseout"/></use>
    <path d="M-4,0h8M0,-4v8" fill="none" stroke="white" stroke-width="1.5" pointer-events="none"/>
  </g>
  <g id="zoomMin">
    <use xlink:href="#rim" fill="#404040"><set attributeName="fill" to="#808080" begin="zoomminus.mouseover" end="zoomminus.mouseout"/></use>
    <path d="M-4,0h8" fill="none" stroke="white" stroke-width="1.5" pointer-events="none"/>
  </g>
  <g id="arrowUp" transform="translate(30 24)">
    <use xlink:href="#rim"/>
    <path pointer-events="none" fill="none" stroke="white" stroke-width="1.5" d="M0,-3.0v7 M-2.5,-0.5L0,-3.0L2.5,-0.5"/>
  </g>
  <g id="arrowRight" transform="rotate(90) translate(36 -43)">
    <use xlink:href="#rim"/>
    <path pointer-events="none" fill="none" stroke="white" stroke-width="1.5" d="M0,-3.0v7 M-2.5,-0.5L0,-3.0L2.5,-0.5"/>
  </g>
  <g id="arrowDown" transform="rotate(180) translate(-30 -48)">
    <use xlink:href="#rim"/>
    <path pointer-events="none" fill="none" stroke="white" stroke-width="1.5" d="M0,-3.0v7 M-2.5,-0.5L0,-3.0L2.5,-0.5"/>
  </g>
  <g id="arrowLeft" transform="rotate(270) translate(-36 17)">
    <use xlink:href="#rim"/>
    <path pointer-events="none" fill="none" stroke="white" stroke-width="1.5" d="M0,-3.0v7 M-2.5,-0.5L0,-3.0L2.5,-0.5"/>
  </g>
  <g id="resetDef">
    <use xlink:href="#rim2" fill="#404040"><set attributeName="fill" to="#808080" begin="reset.mouseover" end="reset.mouseout"/></use>
  </g>
</defs>
<script type="application/ecmascript">
var viewWidth = 1222;
var viewHeight = 316;
var sectionId = 'dynsection-1';
</script>
<script type="application/ecmascript" xlink:href="../../svg.min.js"/>
<svg id="graph" class="graph">
<g id="viewport">
<title>Terraria.Graphics.Effects.EffectManager.Deactivate</title>
<!-- Node1 -->
<g id="Node000001" class="node">
<title>Node1</title>
<g id="a_Node000001"><a xlink:title=" ">
<polygon fill="#999999" stroke="#666666" points="1214,-169 1071,-169 1071,-139 1214,-139 1214,-169"/>
<text text-anchor="start" x="1079" y="-157" font-family="Helvetica,sans-Serif" font-size="10.00">Terraria.Graphics.Effects.</text>
<text text-anchor="middle" x="1142.5" y="-146" font-family="Helvetica,sans-Serif" font-size="10.00">EffectManager.Deactivate</text>
</a>
</g>
</g>
<!-- Node2 -->
<g id="Node000002" class="node">
<title>Node2</title>
<g id="a_Node000002"><a xlink:href="../../d9/d55/classTerraria_1_1GameContent_1_1Events_1_1Sandstorm_a64e89caf51dc5e8ef27a2f3c56c015fc.html#a64e89caf51dc5e8ef27a2f3c56c015fc" target="_top" xlink:title=" ">
<polygon fill="white" stroke="#666666" points="1035,-308 865,-308 865,-278 1035,-278 1035,-308"/>
<text text-anchor="start" x="873" y="-296" font-family="Helvetica,sans-Serif" font-size="10.00">Terraria.GameContent.Events.</text>
<text text-anchor="middle" x="950" y="-285" font-family="Helvetica,sans-Serif" font-size="10.00">Sandstorm.HandleEffectAndSky</text>
</a>
</g>
</g>
<!-- Node1&#45;&gt;Node2 -->
<g id="edge1_Node000001_Node000002" class="edge">
<title>Node1&#45;&gt;Node2</title>
<g id="a_edge1_Node000001_Node000002"><a xlink:title=" ">
<path fill="none" stroke="#63b8ff" d="M1125.91,-177.36C1107.29,-203.46 1073.74,-245.19 1035,-269 1029.44,-272.41 1023.38,-275.36 1017.15,-277.9"/>
<polygon fill="#63b8ff" stroke="#63b8ff" points="1128.78,-179.35 1131.64,-169.15 1123.04,-175.34 1128.78,-179.35"/>
</a>
</g>
</g>
<!-- Node7 -->
<g id="Node000007" class="node">
<title>Node7</title>
<g id="a_Node000007"><a xlink:href="../../d4/d03/classTerraria_1_1Player_aa59d545bd6c4d755fad5f50915afac83.html#aa59d545bd6c4d755fad5f50915afac83" target="_top" xlink:title=" ">
<polygon fill="white" stroke="#666666" points="1032,-260 868,-260 868,-230 1032,-230 1032,-260"/>
<text text-anchor="start" x="876" y="-248" font-family="Helvetica,sans-Serif" font-size="10.00">Terraria.Player.ManageSpecial</text>
<text text-anchor="middle" x="950" y="-237" font-family="Helvetica,sans-Serif" font-size="10.00">BiomeVisuals</text>
</a>
</g>
</g>
<!-- Node1&#45;&gt;Node7 -->
<g id="edge6_Node000001_Node000007" class="edge">
<title>Node1&#45;&gt;Node7</title>
<g id="a_edge6_Node000001_Node000007"><a xlink:title=" ">
<path fill="none" stroke="#63b8ff" d="M1112.92,-175.12C1092.16,-189.66 1062.92,-208.53 1035,-221 1027.52,-224.34 1019.46,-227.34 1011.4,-229.99"/>
<polygon fill="#63b8ff" stroke="#63b8ff" points="1115.14,-177.83 1121.27,-169.19 1111.09,-172.13 1115.14,-177.83"/>
</a>
</g>
</g>
<!-- Node8 -->
<g id="Node000008" class="node">
<title>Node8</title>
<g id="a_Node000008"><a xlink:href="../../d5/d43/classTerraria_1_1GameContent_1_1Skies_1_1CreditsRollSky_a233c0b2cc87d117982f3142491b336ff.html#a233c0b2cc87d117982f3142491b336ff" target="_top" xlink:title=" ">
<polygon fill="white" stroke="#666666" points="1028,-212 872,-212 872,-182 1028,-182 1028,-212"/>
<text text-anchor="start" x="880" y="-200" font-family="Helvetica,sans-Serif" font-size="10.00">Terraria.GameContent.Skies.</text>
<text text-anchor="middle" x="950" y="-189" font-family="Helvetica,sans-Serif" font-size="10.00">CreditsRollSky.Update</text>
</a>
</g>
</g>
<!-- Node1&#45;&gt;Node8 -->
<g id="edge7_Node000001_Node000008" class="edge">
<title>Node1&#45;&gt;Node8</title>
<g id="a_edge7_Node000001_Node000008"><a xlink:title=" ">
<path fill="none" stroke="#63b8ff" d="M1064.73,-171.33C1049.12,-174.85 1032.81,-178.53 1017.59,-181.97"/>
<polygon fill="#63b8ff" stroke="#63b8ff" points="1065.89,-174.66 1074.87,-169.04 1064.35,-167.83 1065.89,-174.66"/>
</a>
</g>
</g>
<!-- Node9 -->
<g id="Node000009" class="node">
<title>Node9</title>
<g id="a_Node000009"><a xlink:href="../../d4/d03/classTerraria_1_1Player_ae40b7aa04936b4e6f0fe9426b287137a.html#ae40b7aa04936b4e6f0fe9426b287137a" target="_top" xlink:title=" ">
<polygon fill="white" stroke="#666666" points="1030.5,-163.5 869.5,-163.5 869.5,-144.5 1030.5,-144.5 1030.5,-163.5"/>
<text text-anchor="middle" x="950" y="-151.5" font-family="Helvetica,sans-Serif" font-size="10.00">Terraria.Player.UpdateBiomes</text>
</a>
</g>
</g>
<!-- Node1&#45;&gt;Node9 -->
<g id="edge8_Node000001_Node000009" class="edge">
<title>Node1&#45;&gt;Node9</title>
<g id="a_edge8_Node000001_Node000009"><a xlink:title=" ">
<path fill="none" stroke="#63b8ff" d="M1060.57,-154C1050.62,-154 1040.46,-154 1030.53,-154"/>
<polygon fill="#63b8ff" stroke="#63b8ff" points="1060.84,-157.5 1070.84,-154 1060.84,-150.5 1060.84,-157.5"/>
</a>
</g>
</g>
<!-- Node10 -->
<g id="Node000010" class="node">
<title>Node10</title>
<g id="a_Node000010"><a xlink:href="../../df/db4/classTerraria_1_1GameContent_1_1Events_1_1BirthdayParty_a6d80c4175db470527b74432404796e13.html#a6d80c4175db470527b74432404796e13" target="_top" xlink:title=" ">
<polygon fill="white" stroke="#666666" points="1031.5,-126 868.5,-126 868.5,-96 1031.5,-96 1031.5,-126"/>
<text text-anchor="start" x="876.5" y="-114" font-family="Helvetica,sans-Serif" font-size="10.00">Terraria.GameContent.Events.</text>
<text text-anchor="middle" x="950" y="-103" font-family="Helvetica,sans-Serif" font-size="10.00">BirthdayParty.UpdateTime</text>
</a>
</g>
</g>
<!-- Node1&#45;&gt;Node10 -->
<g id="edge9_Node000001_Node000010" class="edge">
<title>Node1&#45;&gt;Node10</title>
<g id="a_edge9_Node000001_Node000010"><a xlink:title=" ">
<path fill="none" stroke="#63b8ff" d="M1064.73,-136.67C1049.12,-133.15 1032.81,-129.47 1017.59,-126.03"/>
<polygon fill="#63b8ff" stroke="#63b8ff" points="1064.35,-140.17 1074.87,-138.96 1065.89,-133.34 1064.35,-140.17"/>
</a>
</g>
</g>
<!-- Node14 -->
<g id="Node000014" class="node">
<title>Node14</title>
<g id="a_Node000014"><a xlink:href="../../dd/db5/classTerraria_1_1GameContent_1_1Events_1_1DD2Event_ad61d140fdabb65e36078ae84ea94ca8b.html#ad61d140fdabb65e36078ae84ea94ca8b" target="_top" xlink:title=" ">
<polygon fill="white" stroke="#666666" points="1031.5,-78 868.5,-78 868.5,-48 1031.5,-48 1031.5,-78"/>
<text text-anchor="start" x="876.5" y="-66" font-family="Helvetica,sans-Serif" font-size="10.00">Terraria.GameContent.Events.</text>
<text text-anchor="middle" x="950" y="-55" font-family="Helvetica,sans-Serif" font-size="10.00">DD2Event.UpdateTime</text>
</a>
</g>
</g>
<!-- Node1&#45;&gt;Node14 -->
<g id="edge15_Node000001_Node000014" class="edge">
<title>Node1&#45;&gt;Node14</title>
<g id="a_edge15_Node000001_Node000014"><a xlink:title=" ">
<path fill="none" stroke="#63b8ff" d="M1112.92,-132.88C1092.16,-118.34 1062.92,-99.47 1035,-87 1027.52,-83.66 1019.46,-80.66 1011.4,-78.01"/>
<polygon fill="#63b8ff" stroke="#63b8ff" points="1111.09,-135.87 1121.27,-138.81 1115.14,-130.17 1111.09,-135.87"/>
</a>
</g>
</g>
<!-- Node15 -->
<g id="Node000015" class="node">
<title>Node15</title>
<g id="a_Node000015"><a xlink:href="../../dc/d75/classTerraria_1_1GameContent_1_1Events_1_1LanternNight_af3552bf9ea84582babc9ff95b94e92d0.html#af3552bf9ea84582babc9ff95b94e92d0" target="_top" xlink:title=" ">
<polygon fill="white" stroke="#666666" points="1031.5,-30 868.5,-30 868.5,0 1031.5,0 1031.5,-30"/>
<text text-anchor="start" x="876.5" y="-18" font-family="Helvetica,sans-Serif" font-size="10.00">Terraria.GameContent.Events.</text>
<text text-anchor="middle" x="950" y="-7" font-family="Helvetica,sans-Serif" font-size="10.00">LanternNight.UpdateTime</text>
</a>
</g>
</g>
<!-- Node1&#45;&gt;Node15 -->
<g id="edge17_Node000001_Node000015" class="edge">
<title>Node1&#45;&gt;Node15</title>
<g id="a_edge17_Node000001_Node000015"><a xlink:title=" ">
<path fill="none" stroke="#63b8ff" d="M1125.91,-130.64C1107.29,-104.54 1073.74,-62.81 1035,-39 1029.44,-35.59 1023.38,-32.64 1017.15,-30.1"/>
<polygon fill="#63b8ff" stroke="#63b8ff" points="1123.04,-132.66 1131.64,-138.85 1128.78,-128.65 1123.04,-132.66"/>
</a>
</g>
</g>
<!-- Node3 -->
<g id="Node000003" class="node">
<title>Node3</title>
<g id="a_Node000003"><a xlink:href="../../d9/d55/classTerraria_1_1GameContent_1_1Events_1_1Sandstorm_aba2bb1df3cbcfadf499e7fa16dd6793e.html#aba2bb1df3cbcfadf499e7fa16dd6793e" target="_top" xlink:title=" ">
<polygon fill="white" stroke="#666666" points="829,-284 666,-284 666,-254 829,-254 829,-284"/>
<text text-anchor="start" x="674" y="-272" font-family="Helvetica,sans-Serif" font-size="10.00">Terraria.GameContent.Events.</text>
<text text-anchor="middle" x="747.5" y="-261" font-family="Helvetica,sans-Serif" font-size="10.00">Sandstorm.EmitDust</text>
</a>
</g>
</g>
<!-- Node2&#45;&gt;Node3 -->
<g id="edge2_Node000002_Node000003" class="edge">
<title>Node2&#45;&gt;Node3</title>
<g id="a_edge2_Node000002_Node000003"><a xlink:title=" ">
<path fill="none" stroke="#63b8ff" d="M854.84,-281.73C846.28,-280.7 837.66,-279.67 829.24,-278.66"/>
<polygon fill="#63b8ff" stroke="#63b8ff" points="854.5,-285.21 864.84,-282.93 855.33,-278.26 854.5,-285.21"/>
</a>
</g>
</g>
<!-- Node4 -->
<g id="Node000004" class="node">
<title>Node4</title>
<g id="a_Node000004"><a xlink:href="../../da/dd5/classTerraria_1_1Main_a96341b8439a15bcefc0f119767e24e35.html#a96341b8439a15bcefc0f119767e24e35" target="_top" xlink:title=" ">
<polygon fill="white" stroke="#666666" points="448,-139.5 316,-139.5 316,-120.5 448,-120.5 448,-139.5"/>
<text text-anchor="middle" x="382" y="-127.5" font-family="Helvetica,sans-Serif" font-size="10.00">Terraria.Main.DoUpdate</text>
</a>
</g>
</g>
<!-- Node3&#45;&gt;Node4 -->
<g id="edge3_Node000003_Node000004" class="edge">
<title>Node3&#45;&gt;Node4</title>
<g id="a_edge3_Node000003_Node000004"><a xlink:title=" ">
<path fill="none" stroke="#63b8ff" d="M697.59,-250.3C619.05,-220.26 467.58,-162.34 407.97,-139.55"/>
<polygon fill="#63b8ff" stroke="#63b8ff" points="696.66,-253.69 707.25,-253.99 699.16,-247.15 696.66,-253.69"/>
</a>
</g>
</g>
<!-- Node5 -->
<g id="Node000005" class="node">
<title>Node5</title>
<g id="a_Node000005"><a xlink:href="../../da/dd5/classTerraria_1_1Main_a49776516aea1626e33c722fc8896a7de.html#a49776516aea1626e33c722fc8896a7de" target="_top" xlink:title=" ">
<polygon fill="white" stroke="#666666" points="280,-139.5 161,-139.5 161,-120.5 280,-120.5 280,-139.5"/>
<text text-anchor="middle" x="220.5" y="-127.5" font-family="Helvetica,sans-Serif" font-size="10.00">Terraria.Main.Update</text>
</a>
</g>
</g>
<!-- Node4&#45;&gt;Node5 -->
<g id="edge4_Node000004_Node000005" class="edge">
<title>Node4&#45;&gt;Node5</title>
<g id="a_edge4_Node000004_Node000005"><a xlink:title=" ">
<path fill="none" stroke="#63b8ff" d="M305.64,-130C297.06,-130 288.4,-130 280.08,-130"/>
<polygon fill="#63b8ff" stroke="#63b8ff" points="305.67,-133.5 315.67,-130 305.66,-126.5 305.67,-133.5"/>
</a>
</g>
</g>
<!-- Node6 -->
<g id="Node000006" class="node">
<title>Node6</title>
<g id="a_Node000006"><a xlink:href="../../da/dd5/classTerraria_1_1Main_acc7c7058447ffaab5490befcb8ff2bf4.html#acc7c7058447ffaab5490befcb8ff2bf4" target="_top" xlink:title=" ">
<polygon fill="white" stroke="#666666" points="125,-139.5 0,-139.5 0,-120.5 125,-120.5 125,-139.5"/>
<text text-anchor="middle" x="62.5" y="-127.5" font-family="Helvetica,sans-Serif" font-size="10.00">Terraria.Main.DedServ</text>
</a>
</g>
</g>
<!-- Node5&#45;&gt;Node6 -->
<g id="edge5_Node000005_Node000006" class="edge">
<title>Node5&#45;&gt;Node6</title>
<g id="a_edge5_Node000005_Node000006"><a xlink:title=" ">
<path fill="none" stroke="#63b8ff" d="M150.72,-130C142.23,-130 133.6,-130 125.23,-130"/>
<polygon fill="#63b8ff" stroke="#63b8ff" points="150.97,-133.5 160.97,-130 150.97,-126.5 150.97,-133.5"/>
</a>
</g>
</g>
<!-- Node11 -->
<g id="Node000011" class="node">
<title>Node11</title>
<g id="a_Node000011"><a xlink:href="../../da/dd5/classTerraria_1_1Main_a172d9fc82fc36587b85bb266f9868bf2.html#a172d9fc82fc36587b85bb266f9868bf2" target="_top" xlink:title=" ">
<polygon fill="white" stroke="#666666" points="819,-96.5 676,-96.5 676,-77.5 819,-77.5 819,-96.5"/>
<text text-anchor="middle" x="747.5" y="-84.5" font-family="Helvetica,sans-Serif" font-size="10.00">Terraria.Main.UpdateTime</text>
</a>
</g>
</g>
<!-- Node10&#45;&gt;Node11 -->
<g id="edge10_Node000010_Node000011" class="edge">
<title>Node10&#45;&gt;Node11</title>
<g id="a_edge10_Node000010_Node000011"><a xlink:title=" ">
<path fill="none" stroke="#63b8ff" d="M858.3,-100.14C845.12,-98.56 831.71,-96.96 819.01,-95.44"/>
<polygon fill="#63b8ff" stroke="#63b8ff" points="857.97,-103.63 868.32,-101.34 858.8,-96.68 857.97,-103.63"/>
</a>
</g>
</g>
<!-- Node12 -->
<g id="Node000012" class="node">
<title>Node12</title>
<g id="a_Node000012"><a xlink:href="../../da/dd5/classTerraria_1_1Main_a39cdec3f201787a467045358bfcba377.html#a39cdec3f201787a467045358bfcba377" target="_top" xlink:title=" ">
<polygon fill="white" stroke="#666666" points="627.5,-145 486.5,-145 486.5,-115 627.5,-115 627.5,-145"/>
<text text-anchor="start" x="494.5" y="-133" font-family="Helvetica,sans-Serif" font-size="10.00">Terraria.Main.DoUpdateIn</text>
<text text-anchor="middle" x="557" y="-122" font-family="Helvetica,sans-Serif" font-size="10.00">World</text>
</a>
</g>
</g>
<!-- Node11&#45;&gt;Node12 -->
<g id="edge11_Node000011_Node000012" class="edge">
<title>Node11&#45;&gt;Node12</title>
<g id="a_edge11_Node000011_Node000012"><a xlink:title=" ">
<path fill="none" stroke="#63b8ff" d="M694.88,-98.78C672.93,-103.78 647.08,-109.68 623.78,-114.99"/>
<polygon fill="#63b8ff" stroke="#63b8ff" points="695.69,-102.18 704.67,-96.54 694.14,-95.35 695.69,-102.18"/>
</a>
</g>
</g>
<!-- Node13 -->
<g id="Node000013" class="node">
<title>Node13</title>
<g id="a_Node000013"><a xlink:href="../../da/dd5/classTerraria_1_1Main_a7f3b3b6ca2af07b7eef45694f12678f4.html#a7f3b3b6ca2af07b7eef45694f12678f4" target="_top" xlink:title=" ">
<polygon fill="white" stroke="#666666" points="630,-96.5 484,-96.5 484,-77.5 630,-77.5 630,-96.5"/>
<text text-anchor="middle" x="557" y="-84.5" font-family="Helvetica,sans-Serif" font-size="10.00">Terraria.Main.UpdateMenu</text>
</a>
</g>
</g>
<!-- Node11&#45;&gt;Node13 -->
<g id="edge13_Node000011_Node000013" class="edge">
<title>Node11&#45;&gt;Node13</title>
<g id="a_edge13_Node000011_Node000013"><a xlink:title=" ">
<path fill="none" stroke="#63b8ff" d="M665.51,-87C653.72,-87 641.66,-87 630.07,-87"/>
<polygon fill="#63b8ff" stroke="#63b8ff" points="665.77,-90.5 675.77,-87 665.77,-83.5 665.77,-90.5"/>
</a>
</g>
</g>
<!-- Node12&#45;&gt;Node4 -->
<g id="edge12_Node000012_Node000004" class="edge">
<title>Node12&#45;&gt;Node4</title>
<g id="a_edge12_Node000012_Node000004"><a xlink:title=" ">
<path fill="none" stroke="#63b8ff" d="M476.04,-130C466.68,-130 457.21,-130 448.09,-130"/>
<polygon fill="#63b8ff" stroke="#63b8ff" points="476.13,-133.5 486.13,-130 476.13,-126.5 476.13,-133.5"/>
</a>
</g>
</g>
<!-- Node13&#45;&gt;Node4 -->
<g id="edge14_Node000013_Node000004" class="edge">
<title>Node13&#45;&gt;Node4</title>
<g id="a_edge14_Node000013_Node000004"><a xlink:title=" ">
<path fill="none" stroke="#63b8ff" d="M507.85,-98.97C480.53,-105.76 446.8,-114.14 421.29,-120.48"/>
<polygon fill="#63b8ff" stroke="#63b8ff" points="508.75,-102.35 517.61,-96.54 507.06,-95.56 508.75,-102.35"/>
</a>
</g>
</g>
<!-- Node14&#45;&gt;Node11 -->
<g id="edge16_Node000014_Node000011" class="edge">
<title>Node14&#45;&gt;Node11</title>
<g id="a_edge16_Node000014_Node000011"><a xlink:title=" ">
<path fill="none" stroke="#63b8ff" d="M858.3,-73.86C845.12,-75.44 831.71,-77.04 819.01,-78.56"/>
<polygon fill="#63b8ff" stroke="#63b8ff" points="858.8,-77.32 868.32,-72.66 857.97,-70.37 858.8,-77.32"/>
</a>
</g>
</g>
<!-- Node15&#45;&gt;Node11 -->
<g id="edge18_Node000015_Node000011" class="edge">
<title>Node15&#45;&gt;Node11</title>
<g id="a_edge18_Node000015_Node000011"><a xlink:title=" ">
<path fill="none" stroke="#63b8ff" d="M883.36,-32.98C877.12,-34.92 870.92,-36.94 865,-39 831.11,-50.78 792.83,-67.17 769.69,-77.42"/>
<polygon fill="#63b8ff" stroke="#63b8ff" points="884.6,-36.26 893.15,-30.01 882.56,-29.57 884.6,-36.26"/>
</a>
</g>
</g>
</g>
</svg>

<g id="navigator" transform="translate(0 0)" fill="#404254">
  <rect fill="#f2f5e9" fill-opacity="0.5" stroke="#606060" stroke-width=".5" x="0" y="0" width="60" height="60"/>
  <use id="zoomplus" xlink:href="#zoomPlus" x="17" y="9" onmousedown="handleZoom(evt,'in')"/>
  <use id="zoomminus" xlink:href="#zoomMin" x="42" y="9" onmousedown="handleZoom(evt,'out')"/>
  <use id="reset" xlink:href="#resetDef" x="30" y="36" onmousedown="handleReset()"/>
   <use id="arrowup" xlink:href="#arrowUp" x="0" y="0" onmousedown="handlePan(0,-1)"/>
  <use id="arrowright" xlink:href="#arrowRight" x="0" y="0" onmousedown="handlePan(1,0)"/>
  <use id="arrowdown" xlink:href="#arrowDown" x="0" y="0" onmousedown="handlePan(0,1)"/>
  <use id="arrowleft" xlink:href="#arrowLeft" x="0" y="0" onmousedown="handlePan(-1,0)"/>
</g>
<svg viewBox="0 0 15 15" width="100%" height="30px" preserveAspectRatio="xMaxYMin meet">
 <g id="arrow_out" transform="scale(0.3 0.3)">
  <a xlink:href="classTerraria_1_1Graphics_1_1Effects_1_1EffectManager_ac5b6d021a29d4a2c7034c20794a73ccc_ac5b6d021a29d4a2c7034c20794a73ccc_icgraph_org.svg" target="_base">
   <rect id="button" ry="5" rx="5" y="6" x="6" height="38" width="38"
        fill="#f2f5e9" fill-opacity="0.5" stroke="#606060" stroke-width="1.0"/>
   <path id="arrow"
     d="M 11.500037,31.436501 C 11.940474,20.09759 22.043105,11.32322 32.158766,21.979434 L 37.068811,17.246167 C 37.068811,17.246167 37.088388,32 37.088388,32 L 22.160133,31.978069 C 22.160133,31.978069 26.997745,27.140456 26.997745,27.140456 C 18.528582,18.264221 13.291696,25.230495 11.500037,31.436501 z"
     style="fill:#404040;"/>
  </a>
 </g>
</svg>

<style type='text/css'>
<![CDATA[
[data-mouse-over-selected='false'] { opacity: 0.7; }
[data-mouse-over-selected='true']  { opacity: 1.0; }
]]>
</style>
<script type="application/ecmascript"><![CDATA[
document.addEventListener('DOMContentLoaded', (event) => {
  highlightEdges();
  highlightAdjacentNodes();
});
]]></script>
</svg>
