<?xml version="1.0" encoding="UTF-8" standalone="no"?>
<!DOCTYPE svg PUBLIC "-//W3C//DTD SVG 1.1//EN"
 "http://www.w3.org/Graphics/SVG/1.1/DTD/svg11.dtd">
<!-- Generated by graphviz version 2.43.0 (0)
 -->
<!-- Title: WorldGen.MudWallRunner Pages: 1 -->
<svg width="488pt" height="39pt"
 viewBox="0.00 0.00 488.00 39.00" xmlns="http://www.w3.org/2000/svg" xmlns:xlink="http://www.w3.org/1999/xlink">
<g id="graph0" class="graph" transform="scale(1 1) rotate(0) translate(4 35)">
<title>WorldGen.MudWallRunner</title>
<polygon fill="white" stroke="transparent" points="-4,4 -4,-35 484,-35 484,4 -4,4"/>
<!-- Node1 -->
<g id="node1" class="node">
<title>Node1</title>
<g id="a_node1"><a xlink:title=" ">
<polygon fill="#bfbfbf" stroke="black" points="337,-6 337,-25 480,-25 480,-6 337,-6"/>
<text text-anchor="middle" x="408.5" y="-13" font-family="Helvetica,sans-Serif" font-size="10.00">WorldGen.MudWallRunner</text>
</a>
</g>
</g>
<!-- Node2 -->
<g id="node2" class="node">
<title>Node2</title>
<g id="a_node2"><a xlink:href="../../df/d8e/classJunglePass_aa41812b82fbe5614602245fa89940860.html#aa41812b82fbe5614602245fa89940860" target="_top" xlink:title=" ">
<polygon fill="white" stroke="black" points="157,-0.5 157,-30.5 301,-30.5 301,-0.5 157,-0.5"/>
<text text-anchor="start" x="165" y="-18.5" font-family="Helvetica,sans-Serif" font-size="10.00">JunglePass.GenerateHoles</text>
<text text-anchor="middle" x="229" y="-7.5" font-family="Helvetica,sans-Serif" font-size="10.00">InMudWalls</text>
</a>
</g>
</g>
<!-- Node1&#45;&gt;Node2 -->
<g id="edge1" class="edge">
<title>Node1&#45;&gt;Node2</title>
<path fill="none" stroke="midnightblue" d="M326.6,-15.5C318.16,-15.5 309.62,-15.5 301.29,-15.5"/>
<polygon fill="midnightblue" stroke="midnightblue" points="326.84,-19 336.84,-15.5 326.84,-12 326.84,-19"/>
</g>
<!-- Node3 -->
<g id="node3" class="node">
<title>Node3</title>
<g id="a_node3"><a xlink:href="../../df/d8e/classJunglePass_acf8b701cca44cd3eb9b07eeed9b0bafb.html#acf8b701cca44cd3eb9b07eeed9b0bafb" target="_top" xlink:title=" ">
<polygon fill="white" stroke="black" points="0,-6 0,-25 121,-25 121,-6 0,-6"/>
<text text-anchor="middle" x="60.5" y="-13" font-family="Helvetica,sans-Serif" font-size="10.00">JunglePass.ApplyPass</text>
</a>
</g>
</g>
<!-- Node2&#45;&gt;Node3 -->
<g id="edge2" class="edge">
<title>Node2&#45;&gt;Node3</title>
<path fill="none" stroke="midnightblue" d="M146.78,-15.5C138.12,-15.5 129.44,-15.5 121.1,-15.5"/>
<polygon fill="midnightblue" stroke="midnightblue" points="146.91,-19 156.91,-15.5 146.91,-12 146.91,-19"/>
</g>
</g>
</svg>
