<?xml version="1.0" encoding="UTF-8" standalone="no"?>
<!DOCTYPE svg PUBLIC "-//W3C//DTD SVG 1.1//EN"
 "http://www.w3.org/Graphics/SVG/1.1/DTD/svg11.dtd">
<!-- Generated by graphviz version 2.43.0 (0)
 -->
<!-- Title: WorldGen.CheckChest Pages: 1 -->
<!--zoomable 424 -->
<svg id="main" version="1.1" xmlns="http://www.w3.org/2000/svg" xmlns:xlink="http://www.w3.org/1999/xlink" xml:space="preserve" onload="init(evt)">
<style type="text/css"><![CDATA[
.edge:hover path { stroke: red; }
.edge:hover polygon { stroke: red; fill: red; }
]]></style>
<script type="text/javascript"><![CDATA[
var edges = document.getElementsByTagName('g');
if (edges && edges.length) {
  for (var i=0;i<edges.length;i++) {
    if (edges[i].id.substr(0,4)=='edge') {
      edges[i].setAttribute('class','edge');
    }
  }
}
]]></script>
        <defs>
                <circle id="rim" cx="0" cy="0" r="7"/>
                <circle id="rim2" cx="0" cy="0" r="3.5"/>
                <g id="zoomPlus">
                        <use xlink:href="#rim" fill="#404040">
                                <set attributeName="fill" to="#808080" begin="zoomplus.mouseover" end="zoomplus.mouseout"/>
                        </use>
                        <path d="M-4,0h8M0,-4v8" fill="none" stroke="white" stroke-width="1.5" pointer-events="none"/>
                </g>
                <g id="zoomMin">
                        <use xlink:href="#rim" fill="#404040">
                                <set attributeName="fill" to="#808080" begin="zoomminus.mouseover" end="zoomminus.mouseout"/>
                        </use>
                        <path d="M-4,0h8" fill="none" stroke="white" stroke-width="1.5" pointer-events="none"/>
                </g>
                <g id="dirArrow">
                        <path fill="none" stroke="white" stroke-width="1.5" d="M0,-3.0v7 M-2.5,-0.5L0,-3.0L2.5,-0.5"/>
                </g>
               <g id="resetDef">
                       <use xlink:href="#rim2" fill="#404040">
                               <set attributeName="fill" to="#808080" begin="reset.mouseover" end="reset.mouseout"/>
                       </use>
               </g>
        </defs>

<script type="text/javascript">
var viewWidth = 1095;
var viewHeight = 424;
var sectionId = 'dynsection-0';
</script>
<script xlink:href="../../svgpan.js"/>
<svg id="graph" class="graph">
<g id="viewport">
<title>WorldGen.CheckChest</title>
<polygon fill="white" stroke="transparent" points="-4,4 -4,-419.5 1091,-419.5 1091,4 -4,4"/>
<!-- Node1 -->
<g id="node1" class="node">
<title>Node1</title>
<g id="a_node1"><a xlink:title=" ">
<polygon fill="#bfbfbf" stroke="black" points="0,-200 0,-219 125,-219 125,-200 0,-200"/>
<text text-anchor="middle" x="62.5" y="-207" font-family="Helvetica,sans-Serif" font-size="10.00">WorldGen.CheckChest</text>
</a>
</g>
</g>
<!-- Node2 -->
<g id="node2" class="node">
<title>Node2</title>
<g id="a_node2"><a xlink:href="../../d6/dba/classTile_a64e4b5e9c17707d5bf63cf590bb48c9b.html#a64e4b5e9c17707d5bf63cf590bb48c9b" target="_top" xlink:title=" ">
<polygon fill="white" stroke="black" points="193,-257 193,-276 261,-276 261,-257 193,-257"/>
<text text-anchor="middle" x="227" y="-264" font-family="Helvetica,sans-Serif" font-size="10.00">Tile.active</text>
</a>
</g>
</g>
<!-- Node1&#45;&gt;Node2 -->
<g id="edge1" class="edge">
<title>Node1&#45;&gt;Node2</title>
<path fill="none" stroke="midnightblue" d="M86.54,-219.13C106.16,-227.18 135.2,-238.72 161,-247.5 168.12,-249.92 175.74,-252.32 183.17,-254.56"/>
<polygon fill="midnightblue" stroke="midnightblue" points="182.18,-257.91 192.76,-257.39 184.16,-251.2 182.18,-257.91"/>
</g>
<!-- Node3 -->
<g id="node3" class="node">
<title>Node3</title>
<g id="a_node3"><a xlink:href="../../d3/d1a/classChest_a61e8c0f57ef8644435a86ddceefed55c.html#a61e8c0f57ef8644435a86ddceefed55c" target="_top" xlink:title=" ">
<polygon fill="white" stroke="black" points="161,-219 161,-238 293,-238 293,-219 161,-219"/>
<text text-anchor="middle" x="227" y="-226" font-family="Helvetica,sans-Serif" font-size="10.00">Chest.CanDestroyChest</text>
</a>
</g>
</g>
<!-- Node1&#45;&gt;Node3 -->
<g id="edge2" class="edge">
<title>Node1&#45;&gt;Node3</title>
<path fill="none" stroke="midnightblue" d="M125.4,-216.74C133.62,-217.7 142.13,-218.69 150.55,-219.68"/>
<polygon fill="midnightblue" stroke="midnightblue" points="150.42,-223.19 160.76,-220.87 151.24,-216.23 150.42,-223.19"/>
</g>
<!-- Node4 -->
<g id="node4" class="node">
<title>Node4</title>
<g id="a_node4"><a xlink:href="../../d3/d1a/classChest_a1963f9c91e0b0381f0b362d540f93adf.html#a1963f9c91e0b0381f0b362d540f93adf" target="_top" xlink:title=" ">
<polygon fill="white" stroke="black" points="170.5,-181 170.5,-200 283.5,-200 283.5,-181 170.5,-181"/>
<text text-anchor="middle" x="227" y="-188" font-family="Helvetica,sans-Serif" font-size="10.00">Chest.DestroyChest</text>
</a>
</g>
</g>
<!-- Node1&#45;&gt;Node4 -->
<g id="edge3" class="edge">
<title>Node1&#45;&gt;Node4</title>
<path fill="none" stroke="midnightblue" d="M125.4,-202.26C136.84,-200.92 148.83,-199.52 160.39,-198.17"/>
<polygon fill="midnightblue" stroke="midnightblue" points="160.87,-201.64 170.4,-197 160.06,-194.69 160.87,-201.64"/>
</g>
<!-- Node27 -->
<g id="node27" class="node">
<title>Node27</title>
<g id="a_node27"><a xlink:href="../../d0/dae/classItem_a9f40b070cfe44218b630d09346641cf8.html#a9f40b070cfe44218b630d09346641cf8" target="_top" xlink:title=" ">
<polygon fill="white" stroke="black" points="184,-143 184,-162 270,-162 270,-143 184,-143"/>
<text text-anchor="middle" x="227" y="-150" font-family="Helvetica,sans-Serif" font-size="10.00">Item.NewItem</text>
</a>
</g>
</g>
<!-- Node1&#45;&gt;Node27 -->
<g id="edge26" class="edge">
<title>Node1&#45;&gt;Node27</title>
<path fill="none" stroke="midnightblue" d="M86.54,-199.87C106.16,-191.82 135.2,-180.28 161,-171.5 167.58,-169.26 174.59,-167.04 181.48,-164.95"/>
<polygon fill="midnightblue" stroke="midnightblue" points="182.83,-168.2 191.42,-162 180.83,-161.49 182.83,-168.2"/>
</g>
<!-- Node5 -->
<g id="node5" class="node">
<title>Node5</title>
<g id="a_node5"><a xlink:href="../../d7/dd1/classRecipe_a674fca77c9d19aa0ba6d095352f73448.html#a674fca77c9d19aa0ba6d095352f73448" target="_top" xlink:title=" ">
<polygon fill="white" stroke="black" points="329,-181 329,-200 440,-200 440,-181 329,-181"/>
<text text-anchor="middle" x="384.5" y="-188" font-family="Helvetica,sans-Serif" font-size="10.00">Recipe.FindRecipes</text>
</a>
</g>
</g>
<!-- Node4&#45;&gt;Node5 -->
<g id="edge4" class="edge">
<title>Node4&#45;&gt;Node5</title>
<path fill="none" stroke="midnightblue" d="M283.7,-190.5C295.09,-190.5 307.17,-190.5 318.84,-190.5"/>
<polygon fill="midnightblue" stroke="midnightblue" points="318.97,-194 328.97,-190.5 318.97,-187 318.97,-194"/>
</g>
<!-- Node6 -->
<g id="node6" class="node">
<title>Node6</title>
<g id="a_node6"><a xlink:href="../../d7/dd1/classRecipe_a0efcae3a7b0b17eeeb739f21214fafdf.html#a0efcae3a7b0b17eeeb739f21214fafdf" target="_top" xlink:title=" ">
<polygon fill="white" stroke="black" points="493.5,-351 493.5,-370 658.5,-370 658.5,-351 493.5,-351"/>
<text text-anchor="middle" x="576" y="-358" font-family="Helvetica,sans-Serif" font-size="10.00">Recipe.AddToAvailableRecipes</text>
</a>
</g>
</g>
<!-- Node5&#45;&gt;Node6 -->
<g id="edge5" class="edge">
<title>Node5&#45;&gt;Node6</title>
<path fill="none" stroke="midnightblue" d="M388.24,-200.2C396.46,-227.41 423.65,-304.89 476,-341.5 478.73,-343.41 481.59,-345.13 484.56,-346.7"/>
<polygon fill="midnightblue" stroke="midnightblue" points="483.21,-349.93 493.75,-350.92 486.13,-343.57 483.21,-349.93"/>
</g>
<!-- Node7 -->
<g id="node7" class="node">
<title>Node7</title>
<g id="a_node7"><a xlink:href="../../d7/dd1/classRecipe_a49c81ebe71fbaa78bfa59d7dfa4ef93f.html#a49c81ebe71fbaa78bfa59d7dfa4ef93f" target="_top" xlink:title=" ">
<polygon fill="white" stroke="black" points="495.5,-313 495.5,-332 656.5,-332 656.5,-313 495.5,-313"/>
<text text-anchor="middle" x="576" y="-320" font-family="Helvetica,sans-Serif" font-size="10.00">Recipe.ClearAvailableRecipes</text>
</a>
</g>
</g>
<!-- Node5&#45;&gt;Node7 -->
<g id="edge6" class="edge">
<title>Node5&#45;&gt;Node7</title>
<path fill="none" stroke="midnightblue" d="M390.25,-200.29C401.62,-222.63 432.74,-277.41 476,-303.5 479.63,-305.69 483.45,-307.63 487.4,-309.35"/>
<polygon fill="midnightblue" stroke="midnightblue" points="486.24,-312.66 496.83,-313 488.76,-306.13 486.24,-312.66"/>
</g>
<!-- Node8 -->
<g id="node8" class="node">
<title>Node8</title>
<g id="a_node8"><a xlink:href="../../d7/dd1/classRecipe_a081fd92d8a67e2e1f036bd3720093d27.html#a081fd92d8a67e2e1f036bd3720093d27" target="_top" xlink:title=" ">
<polygon fill="white" stroke="black" points="495,-263.5 495,-293.5 657,-293.5 657,-263.5 495,-263.5"/>
<text text-anchor="start" x="503" y="-281.5" font-family="Helvetica,sans-Serif" font-size="10.00">Recipe.CollectedEnoughItems</text>
<text text-anchor="middle" x="576" y="-270.5" font-family="Helvetica,sans-Serif" font-size="10.00">ToCraftRecipeNew</text>
</a>
</g>
</g>
<!-- Node5&#45;&gt;Node8 -->
<g id="edge7" class="edge">
<title>Node5&#45;&gt;Node8</title>
<path fill="none" stroke="midnightblue" d="M396.4,-200.08C412.64,-213.87 444.65,-239.21 476,-253.5 481.37,-255.95 487.02,-258.19 492.79,-260.22"/>
<polygon fill="midnightblue" stroke="midnightblue" points="491.98,-263.64 502.57,-263.46 494.18,-256.99 491.98,-263.64"/>
</g>
<!-- Node9 -->
<g id="node9" class="node">
<title>Node9</title>
<g id="a_node9"><a xlink:href="../../d7/dd1/classRecipe_aade13a5b52ea6dccb218215f7093d664.html#aade13a5b52ea6dccb218215f7093d664" target="_top" xlink:title=" ">
<polygon fill="white" stroke="black" points="499.5,-225 499.5,-244 652.5,-244 652.5,-225 499.5,-225"/>
<text text-anchor="middle" x="576" y="-232" font-family="Helvetica,sans-Serif" font-size="10.00">Recipe.CollectGuideRecipes</text>
</a>
</g>
</g>
<!-- Node5&#45;&gt;Node9 -->
<g id="edge8" class="edge">
<title>Node5&#45;&gt;Node9</title>
<path fill="none" stroke="midnightblue" d="M417.59,-200.04C434.82,-204.99 456.48,-210.94 476,-215.5 487.27,-218.13 499.32,-220.67 511,-222.99"/>
<polygon fill="midnightblue" stroke="midnightblue" points="510.66,-226.49 521.14,-224.97 512,-219.62 510.66,-226.49"/>
</g>
<!-- Node17 -->
<g id="node17" class="node">
<title>Node17</title>
<g id="a_node17"><a xlink:href="../../d7/dd1/classRecipe_a29ac5857130afae304746f7c30d863db.html#a29ac5857130afae304746f7c30d863db" target="_top" xlink:title=" ">
<polygon fill="white" stroke="black" points="502,-175.5 502,-205.5 650,-205.5 650,-175.5 502,-175.5"/>
<text text-anchor="start" x="510" y="-193.5" font-family="Helvetica,sans-Serif" font-size="10.00">Recipe.CollectItemsToCraft</text>
<text text-anchor="middle" x="576" y="-182.5" font-family="Helvetica,sans-Serif" font-size="10.00">WithFrom</text>
</a>
</g>
</g>
<!-- Node5&#45;&gt;Node17 -->
<g id="edge16" class="edge">
<title>Node5&#45;&gt;Node17</title>
<path fill="none" stroke="midnightblue" d="M440.06,-190.5C456.14,-190.5 474.13,-190.5 491.59,-190.5"/>
<polygon fill="midnightblue" stroke="midnightblue" points="491.79,-194 501.79,-190.5 491.79,-187 491.79,-194"/>
</g>
<!-- Node23 -->
<g id="node23" class="node">
<title>Node23</title>
<g id="a_node23"><a xlink:href="../../d7/dd1/classRecipe_a0b48594a76e6cc7564b3c3056582300b.html#a0b48594a76e6cc7564b3c3056582300b" target="_top" xlink:title=" ">
<polygon fill="white" stroke="black" points="488,-126.5 488,-156.5 664,-156.5 664,-126.5 488,-126.5"/>
<text text-anchor="start" x="496" y="-144.5" font-family="Helvetica,sans-Serif" font-size="10.00">Recipe.PlayerMeetsEnvironment</text>
<text text-anchor="middle" x="576" y="-133.5" font-family="Helvetica,sans-Serif" font-size="10.00">Conditions</text>
</a>
</g>
</g>
<!-- Node5&#45;&gt;Node23 -->
<g id="edge22" class="edge">
<title>Node5&#45;&gt;Node23</title>
<path fill="none" stroke="midnightblue" d="M421.15,-180.94C437.8,-176.5 457.9,-171.18 476,-166.5 485.46,-164.05 495.44,-161.5 505.27,-159"/>
<polygon fill="midnightblue" stroke="midnightblue" points="506.2,-162.37 515.03,-156.52 504.47,-155.59 506.2,-162.37"/>
</g>
<!-- Node24 -->
<g id="node24" class="node">
<title>Node24</title>
<g id="a_node24"><a xlink:href="../../d7/dd1/classRecipe_a646bf1433c0f3656be932669e7806b43.html#a646bf1433c0f3656be932669e7806b43" target="_top" xlink:title=" ">
<polygon fill="white" stroke="black" points="476,-88 476,-107 676,-107 676,-88 476,-88"/>
<text text-anchor="middle" x="576" y="-95" font-family="Helvetica,sans-Serif" font-size="10.00">Recipe.PlayerMeetsTileRequirements</text>
</a>
</g>
</g>
<!-- Node5&#45;&gt;Node24 -->
<g id="edge23" class="edge">
<title>Node5&#45;&gt;Node24</title>
<path fill="none" stroke="midnightblue" d="M394.19,-180.77C409.18,-164.65 441.62,-132.58 476,-116.5 481.33,-114.01 486.97,-111.84 492.75,-109.96"/>
<polygon fill="midnightblue" stroke="midnightblue" points="493.97,-113.25 502.56,-107.05 491.98,-106.53 493.97,-113.25"/>
</g>
<!-- Node25 -->
<g id="node25" class="node">
<title>Node25</title>
<g id="a_node25"><a xlink:href="../../d7/dd1/classRecipe_ab9a87849d050e3797a8be6e0a8b4fefa.html#ab9a87849d050e3797a8be6e0a8b4fefa" target="_top" xlink:title=" ">
<polygon fill="white" stroke="black" points="499,-50 499,-69 653,-69 653,-50 499,-50"/>
<text text-anchor="middle" x="576" y="-57" font-family="Helvetica,sans-Serif" font-size="10.00">Recipe.TryRefocusingRecipe</text>
</a>
</g>
</g>
<!-- Node5&#45;&gt;Node25 -->
<g id="edge24" class="edge">
<title>Node5&#45;&gt;Node25</title>
<path fill="none" stroke="midnightblue" d="M390.27,-180.79C401.7,-158.65 432.91,-104.35 476,-78.5 480.19,-75.99 484.64,-73.8 489.25,-71.89"/>
<polygon fill="midnightblue" stroke="midnightblue" points="490.71,-75.08 498.89,-68.35 488.3,-68.51 490.71,-75.08"/>
</g>
<!-- Node26 -->
<g id="node26" class="node">
<title>Node26</title>
<g id="a_node26"><a xlink:href="../../d7/dd1/classRecipe_a71bb71e495b54152adf371a7cd9b5245.html#a71bb71e495b54152adf371a7cd9b5245" target="_top" xlink:title=" ">
<polygon fill="white" stroke="black" points="504.5,-0.5 504.5,-30.5 647.5,-30.5 647.5,-0.5 504.5,-0.5"/>
<text text-anchor="start" x="512.5" y="-18.5" font-family="Helvetica,sans-Serif" font-size="10.00">Recipe.VisuallyReposition</text>
<text text-anchor="middle" x="576" y="-7.5" font-family="Helvetica,sans-Serif" font-size="10.00">Recipes</text>
</a>
</g>
</g>
<!-- Node5&#45;&gt;Node26 -->
<g id="edge25" class="edge">
<title>Node5&#45;&gt;Node26</title>
<path fill="none" stroke="midnightblue" d="M388.49,-180.63C397.19,-153.65 425.17,-78.16 476,-40.5 481.78,-36.22 488.21,-32.67 494.94,-29.72"/>
<polygon fill="midnightblue" stroke="midnightblue" points="496.24,-32.97 504.28,-26.07 493.69,-26.45 496.24,-32.97"/>
</g>
<!-- Node10 -->
<g id="node10" class="node">
<title>Node10</title>
<g id="a_node10"><a xlink:href="../../d7/dd1/classRecipe_ab81108c946293f242407d3bec9c15923.html#ab81108c946293f242407d3bec9c15923" target="_top" xlink:title=" ">
<polygon fill="white" stroke="black" points="712,-396 712,-415 879,-415 879,-396 712,-396"/>
<text text-anchor="middle" x="795.5" y="-403" font-family="Helvetica,sans-Serif" font-size="10.00">Recipe.AcceptedByItemGroups</text>
</a>
</g>
</g>
<!-- Node9&#45;&gt;Node10 -->
<g id="edge9" class="edge">
<title>Node9&#45;&gt;Node10</title>
<path fill="none" stroke="midnightblue" d="M652.72,-240.49C661.3,-243.75 669.34,-248.27 676,-254.5 720.41,-296.04 668.15,-344.37 712,-386.5 713.47,-387.91 715.02,-389.23 716.65,-390.45"/>
<polygon fill="midnightblue" stroke="midnightblue" points="714.95,-393.52 725.28,-395.85 718.66,-387.58 714.95,-393.52"/>
</g>
<!-- Node11 -->
<g id="node11" class="node">
<title>Node11</title>
<g id="a_node11"><a xlink:href="../../d0/dae/classItem_ad75f48620d3728b5914329770a6e669d.html#ad75f48620d3728b5914329770a6e669d" target="_top" xlink:title=" ">
<polygon fill="white" stroke="black" points="741.5,-358 741.5,-377 849.5,-377 849.5,-358 741.5,-358"/>
<text text-anchor="middle" x="795.5" y="-365" font-family="Helvetica,sans-Serif" font-size="10.00">Item.IsTheSameAs</text>
</a>
</g>
</g>
<!-- Node9&#45;&gt;Node11 -->
<g id="edge10" class="edge">
<title>Node9&#45;&gt;Node11</title>
<path fill="none" stroke="midnightblue" d="M652.64,-241.32C661.14,-244.46 669.17,-248.72 676,-254.5 710.15,-283.4 678.24,-319.15 712,-348.5 717.64,-353.41 724.3,-357.11 731.35,-359.9"/>
<polygon fill="midnightblue" stroke="midnightblue" points="730.55,-363.33 741.14,-363.17 732.76,-356.68 730.55,-363.33"/>
</g>
<!-- Node12 -->
<g id="node12" class="node">
<title>Node12</title>
<g id="a_node12"><a xlink:href="../../d7/dd1/classRecipe_a504353616e5c06602468b514336473de.html#a504353616e5c06602468b514336473de" target="_top" xlink:title=" ">
<polygon fill="white" stroke="black" points="737.5,-320 737.5,-339 853.5,-339 853.5,-320 737.5,-320"/>
<text text-anchor="middle" x="795.5" y="-327" font-family="Helvetica,sans-Serif" font-size="10.00">Recipe.useFragment</text>
</a>
</g>
</g>
<!-- Node9&#45;&gt;Node12 -->
<g id="edge11" class="edge">
<title>Node9&#45;&gt;Node12</title>
<path fill="none" stroke="midnightblue" d="M652.59,-243.07C660.9,-245.93 668.91,-249.65 676,-254.5 700.43,-271.19 687.8,-293.48 712,-310.5 716.85,-313.91 722.23,-316.72 727.83,-319.03"/>
<polygon fill="midnightblue" stroke="midnightblue" points="726.85,-322.4 737.44,-322.47 729.21,-315.81 726.85,-322.4"/>
</g>
<!-- Node13 -->
<g id="node13" class="node">
<title>Node13</title>
<g id="a_node13"><a xlink:href="../../d7/dd1/classRecipe_add08d722d4f4f1c2db59a093c6667a03.html#add08d722d4f4f1c2db59a093c6667a03" target="_top" xlink:title=" ">
<polygon fill="white" stroke="black" points="743,-282 743,-301 848,-301 848,-282 743,-282"/>
<text text-anchor="middle" x="795.5" y="-289" font-family="Helvetica,sans-Serif" font-size="10.00">Recipe.useIronBar</text>
</a>
</g>
</g>
<!-- Node9&#45;&gt;Node13 -->
<g id="edge12" class="edge">
<title>Node9&#45;&gt;Node13</title>
<path fill="none" stroke="midnightblue" d="M637.36,-244.05C650.28,-246.82 663.73,-250.28 676,-254.5 692.91,-260.32 695.17,-266.45 712,-272.5 719.12,-275.06 726.71,-277.35 734.29,-279.39"/>
<polygon fill="midnightblue" stroke="midnightblue" points="733.66,-282.84 744.22,-281.92 735.39,-276.06 733.66,-282.84"/>
</g>
<!-- Node14 -->
<g id="node14" class="node">
<title>Node14</title>
<g id="a_node14"><a xlink:href="../../d7/dd1/classRecipe_a53d388ef56bdc0ee5553a330e9e783cf.html#a53d388ef56bdc0ee5553a330e9e783cf" target="_top" xlink:title=" ">
<polygon fill="white" stroke="black" points="727,-244 727,-263 864,-263 864,-244 727,-244"/>
<text text-anchor="middle" x="795.5" y="-251" font-family="Helvetica,sans-Serif" font-size="10.00">Recipe.usePressurePlate</text>
</a>
</g>
</g>
<!-- Node9&#45;&gt;Node14 -->
<g id="edge13" class="edge">
<title>Node9&#45;&gt;Node14</title>
<path fill="none" stroke="midnightblue" d="M652.77,-241.12C673.52,-242.93 696.05,-244.9 716.9,-246.72"/>
<polygon fill="midnightblue" stroke="midnightblue" points="716.73,-250.22 726.99,-247.6 717.34,-243.25 716.73,-250.22"/>
</g>
<!-- Node15 -->
<g id="node15" class="node">
<title>Node15</title>
<g id="a_node15"><a xlink:href="../../d7/dd1/classRecipe_a09fa3a32d8b58fbeb394ab6e87f81dc9.html#a09fa3a32d8b58fbeb394ab6e87f81dc9" target="_top" xlink:title=" ">
<polygon fill="white" stroke="black" points="748.5,-206 748.5,-225 842.5,-225 842.5,-206 748.5,-206"/>
<text text-anchor="middle" x="795.5" y="-213" font-family="Helvetica,sans-Serif" font-size="10.00">Recipe.useSand</text>
</a>
</g>
</g>
<!-- Node9&#45;&gt;Node15 -->
<g id="edge14" class="edge">
<title>Node9&#45;&gt;Node15</title>
<path fill="none" stroke="midnightblue" d="M652.77,-227.88C680.91,-225.42 712.3,-222.68 738.38,-220.4"/>
<polygon fill="midnightblue" stroke="midnightblue" points="738.8,-223.88 748.46,-219.52 738.19,-216.91 738.8,-223.88"/>
</g>
<!-- Node16 -->
<g id="node16" class="node">
<title>Node16</title>
<g id="a_node16"><a xlink:href="../../d7/dd1/classRecipe_aaba89663606fa0bebf7a58172bc81005.html#aaba89663606fa0bebf7a58172bc81005" target="_top" xlink:title=" ">
<polygon fill="white" stroke="black" points="747,-168 747,-187 844,-187 844,-168 747,-168"/>
<text text-anchor="middle" x="795.5" y="-175" font-family="Helvetica,sans-Serif" font-size="10.00">Recipe.useWood</text>
</a>
</g>
</g>
<!-- Node9&#45;&gt;Node16 -->
<g id="edge15" class="edge">
<title>Node9&#45;&gt;Node16</title>
<path fill="none" stroke="midnightblue" d="M641.64,-224.96C653.24,-222.44 665.1,-219.33 676,-215.5 693.07,-209.51 695.04,-202.81 712,-196.5 719.92,-193.55 728.45,-190.97 736.9,-188.74"/>
<polygon fill="midnightblue" stroke="midnightblue" points="737.91,-192.1 746.76,-186.28 736.21,-185.31 737.91,-192.1"/>
</g>
<!-- Node18 -->
<g id="node18" class="node">
<title>Node18</title>
<g id="a_node18"><a xlink:href="../../d7/dd1/classRecipe_a3ab712e9fa495912c8c2a0f8bf2ae2f3.html#a3ab712e9fa495912c8c2a0f8bf2ae2f3" target="_top" xlink:title=" ">
<polygon fill="white" stroke="black" points="713.5,-118.5 713.5,-148.5 877.5,-148.5 877.5,-118.5 713.5,-118.5"/>
<text text-anchor="start" x="721.5" y="-136.5" font-family="Helvetica,sans-Serif" font-size="10.00">Recipe.AddFakeCountsForItem</text>
<text text-anchor="middle" x="795.5" y="-125.5" font-family="Helvetica,sans-Serif" font-size="10.00">Groups</text>
</a>
</g>
</g>
<!-- Node17&#45;&gt;Node18 -->
<g id="edge17" class="edge">
<title>Node17&#45;&gt;Node18</title>
<path fill="none" stroke="midnightblue" d="M637.25,-175.45C650.05,-172.21 663.48,-168.77 676,-165.5 693.41,-160.95 712.22,-155.92 729.62,-151.23"/>
<polygon fill="midnightblue" stroke="midnightblue" points="730.94,-154.49 739.68,-148.5 729.12,-147.74 730.94,-154.49"/>
</g>
<!-- Node21 -->
<g id="node21" class="node">
<title>Node21</title>
<g id="a_node21"><a xlink:href="../../d7/dd1/classRecipe_a8cf0ffa2bf5b45b40b2903b2efc54992.html#a8cf0ffa2bf5b45b40b2903b2efc54992" target="_top" xlink:title=" ">
<polygon fill="white" stroke="black" points="738.5,-80 738.5,-99 852.5,-99 852.5,-80 738.5,-80"/>
<text text-anchor="middle" x="795.5" y="-87" font-family="Helvetica,sans-Serif" font-size="10.00">Recipe.CollectItems</text>
</a>
</g>
</g>
<!-- Node17&#45;&gt;Node21 -->
<g id="edge20" class="edge">
<title>Node17&#45;&gt;Node21</title>
<path fill="none" stroke="midnightblue" d="M650.17,-178.86C659.37,-175.48 668.25,-171.12 676,-165.5 700.26,-147.91 687.56,-125.83 712,-108.5 717.11,-104.87 722.81,-101.93 728.76,-99.54"/>
<polygon fill="midnightblue" stroke="midnightblue" points="729.98,-102.82 738.27,-96.22 727.67,-96.21 729.98,-102.82"/>
</g>
<!-- Node22 -->
<g id="node22" class="node">
<title>Node22</title>
<g id="a_node22"><a xlink:href="../../d2/d4b/classPlayer_ae38b744c281ade402f689f0ed6af2371.html#ae38b744c281ade402f689f0ed6af2371" target="_top" xlink:title=" ">
<polygon fill="white" stroke="black" points="742,-42 742,-61 849,-61 849,-42 742,-42"/>
<text text-anchor="middle" x="795.5" y="-49" font-family="Helvetica,sans-Serif" font-size="10.00">Player.useVoidBag</text>
</a>
</g>
</g>
<!-- Node17&#45;&gt;Node22 -->
<g id="edge21" class="edge">
<title>Node17&#45;&gt;Node22</title>
<path fill="none" stroke="midnightblue" d="M650.04,-180.76C659.52,-177.1 668.52,-172.16 676,-165.5 709.71,-135.46 677.98,-100.19 712,-70.5 717.92,-65.34 724.96,-61.5 732.4,-58.66"/>
<polygon fill="midnightblue" stroke="midnightblue" points="733.53,-61.97 741.98,-55.58 731.39,-55.31 733.53,-61.97"/>
</g>
<!-- Node19 -->
<g id="node19" class="node">
<title>Node19</title>
<g id="a_node19"><a xlink:href="../../d6/dae/classRecipeGroup_a6e8a4e64b5580d64a52b64258d9efd2f.html#a6e8a4e64b5580d64a52b64258d9efd2f" target="_top" xlink:title=" ">
<polygon fill="white" stroke="black" points="915,-146 915,-165 1087,-165 1087,-146 915,-146"/>
<text text-anchor="middle" x="1001" y="-153" font-family="Helvetica,sans-Serif" font-size="10.00">RecipeGroup.CountUsableItems</text>
</a>
</g>
</g>
<!-- Node18&#45;&gt;Node19 -->
<g id="edge18" class="edge">
<title>Node18&#45;&gt;Node19</title>
<path fill="none" stroke="midnightblue" d="M877.51,-142.26C886.45,-143.22 895.61,-144.22 904.71,-145.2"/>
<polygon fill="midnightblue" stroke="midnightblue" points="904.61,-148.71 914.93,-146.3 905.36,-141.75 904.61,-148.71"/>
</g>
<!-- Node20 -->
<g id="node20" class="node">
<title>Node20</title>
<g id="a_node20"><a xlink:href="../../d6/dae/classRecipeGroup_a7a64a554d71466f2177a60aced69e97a.html#a7a64a554d71466f2177a60aced69e97a" target="_top" xlink:title=" ">
<polygon fill="white" stroke="black" points="926,-96.5 926,-126.5 1076,-126.5 1076,-96.5 926,-96.5"/>
<text text-anchor="start" x="934" y="-114.5" font-family="Helvetica,sans-Serif" font-size="10.00">RecipeGroup.GetGroupFake</text>
<text text-anchor="middle" x="1001" y="-103.5" font-family="Helvetica,sans-Serif" font-size="10.00">ItemId</text>
</a>
</g>
</g>
<!-- Node18&#45;&gt;Node20 -->
<g id="edge19" class="edge">
<title>Node18&#45;&gt;Node20</title>
<path fill="none" stroke="midnightblue" d="M877.51,-124.74C890.11,-123.38 903.14,-121.97 915.81,-120.6"/>
<polygon fill="midnightblue" stroke="midnightblue" points="916.3,-124.07 925.87,-119.51 915.55,-117.11 916.3,-124.07"/>
</g>
</g>
</svg>
        <g id="navigator" transform="translate(0 0)" fill="#404254">
                <rect fill="#f2f5e9" fill-opacity="0.5" stroke="#606060" stroke-width=".5" x="0" y="0" width="60" height="60"/>
                <use id="zoomplus" xlink:href="#zoomPlus" x="17" y="9" onmousedown="handleZoom(evt,'in')"/>
                <use id="zoomminus" xlink:href="#zoomMin" x="42" y="9" onmousedown="handleZoom(evt,'out')"/>
                <use id="reset" xlink:href="#resetDef" x="30" y="36" onmousedown="handleReset()"/>
                <g id="arrowUp" xlink:href="#dirArrow" transform="translate(30 24)" onmousedown="handlePan(0,-1)">
                  <use xlink:href="#rim" fill="#404040">
                        <set attributeName="fill" to="#808080" begin="arrowUp.mouseover" end="arrowUp.mouseout"/>
                  </use>
                  <path fill="none" stroke="white" stroke-width="1.5" d="M0,-3.0v7 M-2.5,-0.5L0,-3.0L2.5,-0.5"/>
                </g>
                <g id="arrowRight" xlink:href="#dirArrow" transform="rotate(90) translate(36 -43)" onmousedown="handlePan(1,0)">
                  <use xlink:href="#rim" fill="#404040">
                        <set attributeName="fill" to="#808080" begin="arrowRight.mouseover" end="arrowRight.mouseout"/>
                  </use>
                  <path fill="none" stroke="white" stroke-width="1.5" d="M0,-3.0v7 M-2.5,-0.5L0,-3.0L2.5,-0.5"/>
                </g>
                <g id="arrowDown" xlink:href="#dirArrow" transform="rotate(180) translate(-30 -48)" onmousedown="handlePan(0,1)">
                  <use xlink:href="#rim" fill="#404040">
                        <set attributeName="fill" to="#808080" begin="arrowDown.mouseover" end="arrowDown.mouseout"/>
                  </use>
                  <path fill="none" stroke="white" stroke-width="1.5" d="M0,-3.0v7 M-2.5,-0.5L0,-3.0L2.5,-0.5"/>
                </g>
                <g id="arrowLeft" xlink:href="#dirArrow" transform="rotate(270) translate(-36 17)" onmousedown="handlePan(-1,0)">
                  <use xlink:href="#rim" fill="#404040">
                        <set attributeName="fill" to="#808080" begin="arrowLeft.mouseover" end="arrowLeft.mouseout"/>
                  </use>
                  <path fill="none" stroke="white" stroke-width="1.5" d="M0,-3.0v7 M-2.5,-0.5L0,-3.0L2.5,-0.5"/>
                </g>
        </g>
        <svg viewBox="0 0 15 15" width="100%" height="30px" preserveAspectRatio="xMaxYMin meet">
         <g id="arrow_out" transform="scale(0.3 0.3)">
          <a xlink:href="classWorldGen_ab52cda195951a634bb18989932148639_ab52cda195951a634bb18989932148639_cgraph_org.svg" target="_base">
           <rect id="button" ry="5" rx="5" y="6" x="6" height="38" width="38"
                fill="#f2f5e9" fill-opacity="0.5" stroke="#606060" stroke-width="1.0"/>
           <path id="arrow"
             d="M 11.500037,31.436501 C 11.940474,20.09759 22.043105,11.32322 32.158766,21.979434 L 37.068811,17.246167 C 37.068811,17.246167 37.088388,32 37.088388,32 L 22.160133,31.978069 C 22.160133,31.978069 26.997745,27.140456 26.997745,27.140456 C 18.528582,18.264221 13.291696,25.230495 11.500037,31.436501 z"
             style="fill:#404040;"/>
          </a>
         </g>
        </svg>
</svg>
