<?xml version="1.0" encoding="UTF-8" standalone="no"?>
<!DOCTYPE svg PUBLIC "-//W3C//DTD SVG 1.1//EN"
 "http://www.w3.org/Graphics/SVG/1.1/DTD/svg11.dtd">
<!-- Generated by graphviz version 2.43.0 (0)
 -->
<!-- Title: WorldGen.RefreshStrip Pages: 1 -->
<svg width="335pt" height="142pt"
 viewBox="0.00 0.00 335.00 142.00" xmlns="http://www.w3.org/2000/svg" xmlns:xlink="http://www.w3.org/1999/xlink">
<g id="graph0" class="graph" transform="scale(1 1) rotate(0) translate(4 138)">
<title>WorldGen.RefreshStrip</title>
<polygon fill="white" stroke="transparent" points="-4,4 -4,-138 331,-138 331,4 -4,4"/>
<!-- Node1 -->
<g id="node1" class="node">
<title>Node1</title>
<g id="a_node1"><a xlink:title=" ">
<polygon fill="#bfbfbf" stroke="black" points="0,-57.5 0,-76.5 127,-76.5 127,-57.5 0,-57.5"/>
<text text-anchor="middle" x="63.5" y="-64.5" font-family="Helvetica,sans-Serif" font-size="10.00">WorldGen.RefreshStrip</text>
</a>
</g>
</g>
<!-- Node2 -->
<g id="node2" class="node">
<title>Node2</title>
<g id="a_node2"><a xlink:href="../../dc/d60/structVertical64BitStrips_a931cf1f2d74633f1b6a2b1dd0be5e2df.html#a931cf1f2d74633f1b6a2b1dd0be5e2df" target="_top" xlink:title=" ">
<polygon fill="white" stroke="black" points="177.5,-114.5 177.5,-133.5 312.5,-133.5 312.5,-114.5 177.5,-114.5"/>
<text text-anchor="middle" x="245" y="-121.5" font-family="Helvetica,sans-Serif" font-size="10.00">Vertical64BitStrips.Clear</text>
</a>
</g>
</g>
<!-- Node1&#45;&gt;Node2 -->
<g id="edge1" class="edge">
<title>Node1&#45;&gt;Node2</title>
<path fill="none" stroke="midnightblue" d="M86.88,-76.65C106.64,-84.93 136.38,-96.79 163,-105 171.13,-107.51 179.82,-109.87 188.36,-112.02"/>
<polygon fill="midnightblue" stroke="midnightblue" points="187.75,-115.47 198.29,-114.44 189.41,-108.67 187.75,-115.47"/>
</g>
<!-- Node3 -->
<g id="node3" class="node">
<title>Node3</title>
<g id="a_node3"><a xlink:href="../../dc/d60/structVertical64BitStrips_a06042d3e04fac948af47078d498d0485.html#a06042d3e04fac948af47078d498d0485" target="_top" xlink:title=" ">
<polygon fill="white" stroke="black" points="163,-76.5 163,-95.5 327,-95.5 327,-76.5 163,-76.5"/>
<text text-anchor="middle" x="245" y="-83.5" font-family="Helvetica,sans-Serif" font-size="10.00">Vertical64BitStrips.Expand3x3</text>
</a>
</g>
</g>
<!-- Node1&#45;&gt;Node3 -->
<g id="edge2" class="edge">
<title>Node1&#45;&gt;Node3</title>
<path fill="none" stroke="midnightblue" d="M127.03,-73.62C135.32,-74.5 143.95,-75.41 152.6,-76.33"/>
<polygon fill="midnightblue" stroke="midnightblue" points="152.44,-79.83 162.75,-77.4 153.18,-72.87 152.44,-79.83"/>
</g>
<!-- Node4 -->
<g id="node4" class="node">
<title>Node4</title>
<g id="a_node4"><a xlink:href="../../d6/dba/classTile_ab79d72d2c148d8bbd6dbc20055eec3d6.html#ab79d72d2c148d8bbd6dbc20055eec3d6" target="_top" xlink:title=" ">
<polygon fill="white" stroke="black" points="192,-38.5 192,-57.5 298,-57.5 298,-38.5 192,-38.5"/>
<text text-anchor="middle" x="245" y="-45.5" font-family="Helvetica,sans-Serif" font-size="10.00">Tile.invisibleBlock</text>
</a>
</g>
</g>
<!-- Node1&#45;&gt;Node4 -->
<g id="edge3" class="edge">
<title>Node1&#45;&gt;Node4</title>
<path fill="none" stroke="midnightblue" d="M127.03,-60.38C144.71,-58.51 163.94,-56.47 181.61,-54.6"/>
<polygon fill="midnightblue" stroke="midnightblue" points="182.23,-58.06 191.81,-53.52 181.49,-51.1 182.23,-58.06"/>
</g>
<!-- Node5 -->
<g id="node5" class="node">
<title>Node5</title>
<g id="a_node5"><a xlink:href="../../d6/dba/classTile_a5f91c633897ca90de65f8c0bac41b000.html#a5f91c633897ca90de65f8c0bac41b000" target="_top" xlink:title=" ">
<polygon fill="white" stroke="black" points="195,-0.5 195,-19.5 295,-19.5 295,-0.5 195,-0.5"/>
<text text-anchor="middle" x="245" y="-7.5" font-family="Helvetica,sans-Serif" font-size="10.00">Tile.invisibleWall</text>
</a>
</g>
</g>
<!-- Node1&#45;&gt;Node5 -->
<g id="edge4" class="edge">
<title>Node1&#45;&gt;Node5</title>
<path fill="none" stroke="midnightblue" d="M86.88,-57.35C106.64,-49.07 136.38,-37.21 163,-29 171.13,-26.49 179.82,-24.13 188.36,-21.98"/>
<polygon fill="midnightblue" stroke="midnightblue" points="189.41,-25.33 198.29,-19.56 187.75,-18.53 189.41,-25.33"/>
</g>
</g>
</svg>
