<?xml version="1.0" encoding="UTF-8" standalone="no"?>
<!DOCTYPE svg PUBLIC "-//W3C//DTD SVG 1.1//EN"
 "http://www.w3.org/Graphics/SVG/1.1/DTD/svg11.dtd">
<!-- Generated by graphviz version 2.43.0 (0)
 -->
<!-- Title: WorldGen.PaintTheMushrooms Pages: 1 -->
<svg width="293pt" height="104pt"
 viewBox="0.00 0.00 293.00 104.00" xmlns="http://www.w3.org/2000/svg" xmlns:xlink="http://www.w3.org/1999/xlink">
<g id="graph0" class="graph" transform="scale(1 1) rotate(0) translate(4 100)">
<title>WorldGen.PaintTheMushrooms</title>
<polygon fill="white" stroke="transparent" points="-4,4 -4,-100 289,-100 289,4 -4,4"/>
<!-- Node1 -->
<g id="node1" class="node">
<title>Node1</title>
<g id="a_node1"><a xlink:title=" ">
<polygon fill="#bfbfbf" stroke="black" points="0,-38.5 0,-57.5 166,-57.5 166,-38.5 0,-38.5"/>
<text text-anchor="middle" x="83" y="-45.5" font-family="Helvetica,sans-Serif" font-size="10.00">WorldGen.PaintTheMushrooms</text>
</a>
</g>
</g>
<!-- Node2 -->
<g id="node2" class="node">
<title>Node2</title>
<g id="a_node2"><a xlink:href="../../d6/dba/classTile_a64e4b5e9c17707d5bf63cf590bb48c9b.html#a64e4b5e9c17707d5bf63cf590bb48c9b" target="_top" xlink:title=" ">
<polygon fill="white" stroke="black" points="209.5,-76.5 209.5,-95.5 277.5,-95.5 277.5,-76.5 209.5,-76.5"/>
<text text-anchor="middle" x="243.5" y="-83.5" font-family="Helvetica,sans-Serif" font-size="10.00">Tile.active</text>
</a>
</g>
</g>
<!-- Node1&#45;&gt;Node2 -->
<g id="edge1" class="edge">
<title>Node1&#45;&gt;Node2</title>
<path fill="none" stroke="midnightblue" d="M124,-57.59C147.11,-63.13 176.18,-70.1 199.74,-75.75"/>
<polygon fill="midnightblue" stroke="midnightblue" points="198.93,-79.15 209.47,-78.08 200.56,-72.35 198.93,-79.15"/>
</g>
<!-- Node3 -->
<g id="node3" class="node">
<title>Node3</title>
<g id="a_node3"><a xlink:href="../../d6/dba/classTile_aab901c8f842b5afa78ab3605f6c5d542.html#aab901c8f842b5afa78ab3605f6c5d542" target="_top" xlink:title=" ">
<polygon fill="white" stroke="black" points="212.5,-38.5 212.5,-57.5 274.5,-57.5 274.5,-38.5 212.5,-38.5"/>
<text text-anchor="middle" x="243.5" y="-45.5" font-family="Helvetica,sans-Serif" font-size="10.00">Tile.color</text>
</a>
</g>
</g>
<!-- Node1&#45;&gt;Node3 -->
<g id="edge2" class="edge">
<title>Node1&#45;&gt;Node3</title>
<path fill="none" stroke="midnightblue" d="M166.04,-48C178.63,-48 191.13,-48 202.26,-48"/>
<polygon fill="midnightblue" stroke="midnightblue" points="202.47,-51.5 212.47,-48 202.47,-44.5 202.47,-51.5"/>
</g>
<!-- Node4 -->
<g id="node4" class="node">
<title>Node4</title>
<g id="a_node4"><a xlink:href="../../d6/dba/classTile_a34554428a8acc3d2525ecad6dadff885.html#a34554428a8acc3d2525ecad6dadff885" target="_top" xlink:title=" ">
<polygon fill="white" stroke="black" points="202,-0.5 202,-19.5 285,-19.5 285,-0.5 202,-0.5"/>
<text text-anchor="middle" x="243.5" y="-7.5" font-family="Helvetica,sans-Serif" font-size="10.00">Tile.wallColor</text>
</a>
</g>
</g>
<!-- Node1&#45;&gt;Node4 -->
<g id="edge3" class="edge">
<title>Node1&#45;&gt;Node4</title>
<path fill="none" stroke="midnightblue" d="M124,-38.41C144.91,-33.4 170.71,-27.21 192.89,-21.89"/>
<polygon fill="midnightblue" stroke="midnightblue" points="193.88,-25.26 202.79,-19.52 192.25,-18.45 193.88,-25.26"/>
</g>
</g>
</svg>
