<?xml version="1.0" encoding="UTF-8" standalone="no"?>
<!DOCTYPE svg PUBLIC "-//W3C//DTD SVG 1.1//EN"
 "http://www.w3.org/Graphics/SVG/1.1/DTD/svg11.dtd">
<!-- Generated by graphviz version 2.43.0 (0)
 -->
<!-- Title: WorldGen.CheckProjectilePressurePad_GetPossiblePlacementDirections Pages: 1 -->
<svg width="435pt" height="256pt"
 viewBox="0.00 0.00 435.00 256.00" xmlns="http://www.w3.org/2000/svg" xmlns:xlink="http://www.w3.org/1999/xlink">
<g id="graph0" class="graph" transform="scale(1 1) rotate(0) translate(4 252)">
<title>WorldGen.CheckProjectilePressurePad_GetPossiblePlacementDirections</title>
<polygon fill="white" stroke="transparent" points="-4,4 -4,-252 431,-252 431,4 -4,4"/>
<!-- Node1 -->
<g id="node1" class="node">
<title>Node1</title>
<g id="a_node1"><a xlink:title=" ">
<polygon fill="#bfbfbf" stroke="black" points="0,-103.5 0,-144.5 191,-144.5 191,-103.5 0,-103.5"/>
<text text-anchor="start" x="8" y="-132.5" font-family="Helvetica,sans-Serif" font-size="10.00">WorldGen.CheckProjectile</text>
<text text-anchor="start" x="8" y="-121.5" font-family="Helvetica,sans-Serif" font-size="10.00">PressurePad_GetPossiblePlacement</text>
<text text-anchor="middle" x="95.5" y="-110.5" font-family="Helvetica,sans-Serif" font-size="10.00">Directions</text>
</a>
</g>
</g>
<!-- Node2 -->
<g id="node2" class="node">
<title>Node2</title>
<g id="a_node2"><a xlink:href="../../d6/dba/classTile_af2a92f4269e08d7223343a1ae7d9ecc7.html#af2a92f4269e08d7223343a1ae7d9ecc7" target="_top" xlink:title=" ">
<polygon fill="white" stroke="black" points="227,-228.5 227,-247.5 327,-247.5 327,-228.5 227,-228.5"/>
<text text-anchor="middle" x="277" y="-235.5" font-family="Helvetica,sans-Serif" font-size="10.00">Tile.bottomSlope</text>
</a>
</g>
</g>
<!-- Node1&#45;&gt;Node2 -->
<g id="edge1" class="edge">
<title>Node1&#45;&gt;Node2</title>
<path fill="none" stroke="midnightblue" d="M123.72,-144.54C149.59,-163.63 189.95,-192.31 227,-214 232.79,-217.39 239.14,-220.74 245.28,-223.82"/>
<polygon fill="midnightblue" stroke="midnightblue" points="244.13,-227.16 254.66,-228.39 247.2,-220.87 244.13,-227.16"/>
</g>
<!-- Node3 -->
<g id="node3" class="node">
<title>Node3</title>
<g id="a_node3"><a xlink:href="../../d6/dba/classTile_a402ffa996ee74bf853b1538dfd39831c.html#a402ffa996ee74bf853b1538dfd39831c" target="_top" xlink:title=" ">
<polygon fill="white" stroke="black" points="363,-114.5 363,-133.5 427,-133.5 427,-114.5 363,-114.5"/>
<text text-anchor="middle" x="395" y="-121.5" font-family="Helvetica,sans-Serif" font-size="10.00">Tile.slope</text>
</a>
</g>
</g>
<!-- Node1&#45;&gt;Node3 -->
<g id="edge9" class="edge">
<title>Node1&#45;&gt;Node3</title>
<path fill="none" stroke="midnightblue" d="M130.01,-144.56C175.5,-169.71 258.91,-206.05 327,-181 348.37,-173.14 367.57,-155.11 379.88,-141.42"/>
<polygon fill="midnightblue" stroke="midnightblue" points="382.75,-143.44 386.61,-133.58 377.44,-138.88 382.75,-143.44"/>
</g>
<!-- Node4 -->
<g id="node4" class="node">
<title>Node4</title>
<g id="a_node4"><a xlink:href="../../d6/dba/classTile_a975f34b33a09445dfd475309fdcfd6a0.html#a975f34b33a09445dfd475309fdcfd6a0" target="_top" xlink:title=" ">
<polygon fill="white" stroke="black" points="236.5,-152.5 236.5,-171.5 317.5,-171.5 317.5,-152.5 236.5,-152.5"/>
<text text-anchor="middle" x="277" y="-159.5" font-family="Helvetica,sans-Serif" font-size="10.00">Tile.halfBrick</text>
</a>
</g>
</g>
<!-- Node1&#45;&gt;Node4 -->
<g id="edge3" class="edge">
<title>Node1&#45;&gt;Node4</title>
<path fill="none" stroke="midnightblue" d="M191.24,-144.06C203.37,-146.63 215.38,-149.17 226.38,-151.5"/>
<polygon fill="midnightblue" stroke="midnightblue" points="225.66,-154.92 236.17,-153.57 227.11,-148.07 225.66,-154.92"/>
</g>
<!-- Node5 -->
<g id="node5" class="node">
<title>Node5</title>
<g id="a_node5"><a xlink:href="../../d6/dba/classTile_a44538fc60d9cb096cb65d9a91cc6c360.html#a44538fc60d9cb096cb65d9a91cc6c360" target="_top" xlink:title=" ">
<polygon fill="white" stroke="black" points="237,-114.5 237,-133.5 317,-133.5 317,-114.5 237,-114.5"/>
<text text-anchor="middle" x="277" y="-121.5" font-family="Helvetica,sans-Serif" font-size="10.00">Tile.leftSlope</text>
</a>
</g>
</g>
<!-- Node1&#45;&gt;Node5 -->
<g id="edge4" class="edge">
<title>Node1&#45;&gt;Node5</title>
<path fill="none" stroke="midnightblue" d="M191.24,-124C203.38,-124 215.39,-124 226.39,-124"/>
<polygon fill="midnightblue" stroke="midnightblue" points="226.6,-127.5 236.6,-124 226.6,-120.5 226.6,-127.5"/>
</g>
<!-- Node6 -->
<g id="node6" class="node">
<title>Node6</title>
<g id="a_node6"><a xlink:href="../../d6/dba/classTile_a56832940a5a336e190a8df3857068dfc.html#a56832940a5a336e190a8df3857068dfc" target="_top" xlink:title=" ">
<polygon fill="white" stroke="black" points="240,-76.5 240,-95.5 314,-95.5 314,-76.5 240,-76.5"/>
<text text-anchor="middle" x="277" y="-83.5" font-family="Helvetica,sans-Serif" font-size="10.00">Tile.nactive</text>
</a>
</g>
</g>
<!-- Node1&#45;&gt;Node6 -->
<g id="edge6" class="edge">
<title>Node1&#45;&gt;Node6</title>
<path fill="none" stroke="midnightblue" d="M191.24,-103.94C204.67,-101.1 217.95,-98.29 229.87,-95.77"/>
<polygon fill="midnightblue" stroke="midnightblue" points="230.91,-99.12 239.97,-93.63 229.46,-92.27 230.91,-99.12"/>
</g>
<!-- Node7 -->
<g id="node7" class="node">
<title>Node7</title>
<g id="a_node7"><a xlink:href="../../d6/dba/classTile_acde38bc6b56116ec13ff85567adaf6eb.html#acde38bc6b56116ec13ff85567adaf6eb" target="_top" xlink:title=" ">
<polygon fill="white" stroke="black" points="233.5,-38.5 233.5,-57.5 320.5,-57.5 320.5,-38.5 233.5,-38.5"/>
<text text-anchor="middle" x="277" y="-45.5" font-family="Helvetica,sans-Serif" font-size="10.00">Tile.rightSlope</text>
</a>
</g>
</g>
<!-- Node1&#45;&gt;Node7 -->
<g id="edge7" class="edge">
<title>Node1&#45;&gt;Node7</title>
<path fill="none" stroke="midnightblue" d="M142.2,-103.48C167.15,-92.42 198.66,-78.68 227,-67 231.56,-65.12 236.37,-63.19 241.14,-61.31"/>
<polygon fill="midnightblue" stroke="midnightblue" points="242.7,-64.46 250.74,-57.56 240.15,-57.94 242.7,-64.46"/>
</g>
<!-- Node8 -->
<g id="node8" class="node">
<title>Node8</title>
<g id="a_node8"><a xlink:href="../../d6/dba/classTile_ad1030881213f148b841cdd36cf01abb6.html#ad1030881213f148b841cdd36cf01abb6" target="_top" xlink:title=" ">
<polygon fill="white" stroke="black" points="237,-0.5 237,-19.5 317,-19.5 317,-0.5 237,-0.5"/>
<text text-anchor="middle" x="277" y="-7.5" font-family="Helvetica,sans-Serif" font-size="10.00">Tile.topSlope</text>
</a>
</g>
</g>
<!-- Node1&#45;&gt;Node8 -->
<g id="edge10" class="edge">
<title>Node1&#45;&gt;Node8</title>
<path fill="none" stroke="midnightblue" d="M120.71,-103.39C145.99,-82.62 187.4,-50.61 227,-29 230.55,-27.06 234.33,-25.23 238.17,-23.52"/>
<polygon fill="midnightblue" stroke="midnightblue" points="239.83,-26.62 247.71,-19.53 237.13,-20.16 239.83,-26.62"/>
</g>
<!-- Node2&#45;&gt;Node3 -->
<g id="edge2" class="edge">
<title>Node2&#45;&gt;Node3</title>
<path fill="none" stroke="midnightblue" d="M303.3,-228.4C311.37,-224.64 320,-219.81 327,-214 351.61,-193.56 372.22,-162.3 383.83,-142.52"/>
<polygon fill="midnightblue" stroke="midnightblue" points="387.02,-144 388.93,-133.58 380.93,-140.54 387.02,-144"/>
</g>
<!-- Node5&#45;&gt;Node3 -->
<g id="edge5" class="edge">
<title>Node5&#45;&gt;Node3</title>
<path fill="none" stroke="midnightblue" d="M317.27,-124C328.65,-124 341.09,-124 352.59,-124"/>
<polygon fill="midnightblue" stroke="midnightblue" points="352.83,-127.5 362.83,-124 352.83,-120.5 352.83,-127.5"/>
</g>
<!-- Node7&#45;&gt;Node3 -->
<g id="edge8" class="edge">
<title>Node7&#45;&gt;Node3</title>
<path fill="none" stroke="midnightblue" d="M307.52,-57.6C314.13,-60.25 320.96,-63.4 327,-67 345.9,-78.27 364.75,-94.91 377.62,-107.3"/>
<polygon fill="midnightblue" stroke="midnightblue" points="375.23,-109.86 384.81,-114.39 380.14,-104.88 375.23,-109.86"/>
</g>
<!-- Node8&#45;&gt;Node3 -->
<g id="edge11" class="edge">
<title>Node8&#45;&gt;Node3</title>
<path fill="none" stroke="midnightblue" d="M310.55,-19.51C316.36,-22.05 322.11,-25.18 327,-29 353.64,-49.81 374.1,-84.05 385.06,-105.24"/>
<polygon fill="midnightblue" stroke="midnightblue" points="381.95,-106.84 389.54,-114.22 388.21,-103.71 381.95,-106.84"/>
</g>
</g>
</svg>
