<?xml version="1.0" encoding="UTF-8" standalone="no"?>
<!DOCTYPE svg PUBLIC "-//W3C//DTD SVG 1.1//EN"
 "http://www.w3.org/Graphics/SVG/1.1/DTD/svg11.dtd">
<!-- Generated by graphviz version 2.43.0 (0)
 -->
<!-- Title: WorldGen.PlantSeaOat Pages: 1 -->
<svg width="1017pt" height="1860pt"
 viewBox="0.00 0.00 1017.00 1859.50" xmlns="http://www.w3.org/2000/svg" xmlns:xlink="http://www.w3.org/1999/xlink">
<g id="graph0" class="graph" transform="scale(1 1) rotate(0) translate(4 1855.5)">
<title>WorldGen.PlantSeaOat</title>
<polygon fill="white" stroke="transparent" points="-4,4 -4,-1855.5 1013,-1855.5 1013,4 -4,4"/>
<!-- Node1 -->
<g id="node1" class="node">
<title>Node1</title>
<g id="a_node1"><a xlink:title=" ">
<polygon fill="#bfbfbf" stroke="black" points="0,-1076 0,-1095 127,-1095 127,-1076 0,-1076"/>
<text text-anchor="middle" x="63.5" y="-1083" font-family="Helvetica,sans-Serif" font-size="10.00">WorldGen.PlantSeaOat</text>
</a>
</g>
</g>
<!-- Node2 -->
<g id="node2" class="node">
<title>Node2</title>
<g id="a_node2"><a xlink:href="../../d6/dba/classTile_a64e4b5e9c17707d5bf63cf590bb48c9b.html#a64e4b5e9c17707d5bf63cf590bb48c9b" target="_top" xlink:title=" ">
<polygon fill="white" stroke="black" points="736,-316 736,-335 804,-335 804,-316 736,-316"/>
<text text-anchor="middle" x="770" y="-323" font-family="Helvetica,sans-Serif" font-size="10.00">Tile.active</text>
</a>
</g>
</g>
<!-- Node1&#45;&gt;Node2 -->
<g id="edge1" class="edge">
<title>Node1&#45;&gt;Node2</title>
<path fill="none" stroke="midnightblue" d="M127.12,-1085.72C182.74,-1082.85 263.58,-1070.82 319,-1028.5 593.92,-818.53 403.15,-543.87 683,-340.5 695.14,-331.68 710.74,-327.44 725.32,-325.55"/>
<polygon fill="midnightblue" stroke="midnightblue" points="726.07,-329 735.69,-324.57 725.41,-322.03 726.07,-329"/>
</g>
<!-- Node3 -->
<g id="node3" class="node">
<title>Node3</title>
<g id="a_node3"><a xlink:href="../../d6/dba/classTile_a975f34b33a09445dfd475309fdcfd6a0.html#a975f34b33a09445dfd475309fdcfd6a0" target="_top" xlink:title=" ">
<polygon fill="white" stroke="black" points="729.5,-1832 729.5,-1851 810.5,-1851 810.5,-1832 729.5,-1832"/>
<text text-anchor="middle" x="770" y="-1839" font-family="Helvetica,sans-Serif" font-size="10.00">Tile.halfBrick</text>
</a>
</g>
</g>
<!-- Node1&#45;&gt;Node3 -->
<g id="edge2" class="edge">
<title>Node1&#45;&gt;Node3</title>
<path fill="none" stroke="midnightblue" d="M69.98,-1095.3C84.13,-1120.34 123.57,-1188.37 163,-1240.5 372.27,-1517.13 383.63,-1647.29 683,-1822.5 694.04,-1828.96 707.04,-1833.23 719.55,-1836.04"/>
<polygon fill="midnightblue" stroke="midnightblue" points="718.94,-1839.49 729.43,-1838.01 720.3,-1832.63 718.94,-1839.49"/>
</g>
<!-- Node4 -->
<g id="node4" class="node">
<title>Node4</title>
<g id="a_node4"><a xlink:href="../../dc/d81/classNetMessage_a13d811ff0be4a491b299312207e5a248.html#a13d811ff0be4a491b299312207e5a248" target="_top" xlink:title=" ">
<polygon fill="white" stroke="black" points="163,-1000 163,-1019 319,-1019 319,-1000 163,-1000"/>
<text text-anchor="middle" x="241" y="-1007" font-family="Helvetica,sans-Serif" font-size="10.00">NetMessage.SendTileSquare</text>
</a>
</g>
</g>
<!-- Node1&#45;&gt;Node4 -->
<g id="edge3" class="edge">
<title>Node1&#45;&gt;Node4</title>
<path fill="none" stroke="midnightblue" d="M80.44,-1075.91C99.56,-1064.69 132.82,-1046.04 163,-1033.5 173.2,-1029.26 184.42,-1025.36 195.06,-1021.98"/>
<polygon fill="midnightblue" stroke="midnightblue" points="196.11,-1025.32 204.64,-1019.04 194.05,-1018.63 196.11,-1025.32"/>
</g>
<!-- Node54 -->
<g id="node40" class="node">
<title>Node54</title>
<g id="a_node40"><a xlink:href="../../d6/dba/classTile_a402ffa996ee74bf853b1538dfd39831c.html#a402ffa996ee74bf853b1538dfd39831c" target="_top" xlink:title=" ">
<polygon fill="white" stroke="black" points="738,-1794 738,-1813 802,-1813 802,-1794 738,-1794"/>
<text text-anchor="middle" x="770" y="-1801" font-family="Helvetica,sans-Serif" font-size="10.00">Tile.slope</text>
</a>
</g>
</g>
<!-- Node1&#45;&gt;Node54 -->
<g id="edge61" class="edge">
<title>Node1&#45;&gt;Node54</title>
<path fill="none" stroke="midnightblue" d="M77.76,-1095.02C147.67,-1145.89 476.55,-1393.71 647,-1673.5 673.98,-1717.79 644.61,-1749.63 683,-1784.5 695.07,-1795.46 712.01,-1800.59 727.66,-1802.84"/>
<polygon fill="midnightblue" stroke="midnightblue" points="727.38,-1806.33 737.7,-1803.93 728.14,-1799.37 727.38,-1806.33"/>
</g>
<!-- Node5 -->
<g id="node5" class="node">
<title>Node5</title>
<g id="a_node5"><a xlink:href="../../db/de4/classWorldGen_a4aa08f717585ad033d73cf07e411c60e.html#a4aa08f717585ad033d73cf07e411c60e" target="_top" xlink:title=" ">
<polygon fill="white" stroke="black" points="355,-593 355,-612 483,-612 483,-593 355,-593"/>
<text text-anchor="middle" x="419" y="-600" font-family="Helvetica,sans-Serif" font-size="10.00">WorldGen.RangeFrame</text>
</a>
</g>
</g>
<!-- Node4&#45;&gt;Node5 -->
<g id="edge4" class="edge">
<title>Node4&#45;&gt;Node5</title>
<path fill="none" stroke="midnightblue" d="M246.18,-999.84C269,-947.06 378.73,-693.31 409.79,-621.48"/>
<polygon fill="midnightblue" stroke="midnightblue" points="413.03,-622.82 413.78,-612.25 406.6,-620.04 413.03,-622.82"/>
</g>
<!-- Node35 -->
<g id="node15" class="node">
<title>Node35</title>
<g id="a_node15"><a xlink:href="../../dc/d81/classNetMessage_aae9f950a067b8cd26edda26e73a41b2d.html#aae9f950a067b8cd26edda26e73a41b2d" target="_top" xlink:title=" ">
<polygon fill="white" stroke="black" points="519,-1076 519,-1095 647,-1095 647,-1076 519,-1076"/>
<text text-anchor="middle" x="583" y="-1083" font-family="Helvetica,sans-Serif" font-size="10.00">NetMessage.SendData</text>
</a>
</g>
</g>
<!-- Node4&#45;&gt;Node35 -->
<g id="edge17" class="edge">
<title>Node4&#45;&gt;Node35</title>
<path fill="none" stroke="midnightblue" d="M284.72,-1019.05C346.89,-1032.95 462.22,-1058.72 529.49,-1073.76"/>
<polygon fill="midnightblue" stroke="midnightblue" points="528.94,-1077.22 539.46,-1075.99 530.46,-1070.39 528.94,-1077.22"/>
</g>
<!-- Node6 -->
<g id="node6" class="node">
<title>Node6</title>
<g id="a_node6"><a xlink:href="../../d4/d93/classFraming_ad1b9636bb50acf5deee32b3a8505f629.html#ad1b9636bb50acf5deee32b3a8505f629" target="_top" xlink:title=" ">
<polygon fill="white" stroke="red" points="527.5,-164 527.5,-183 638.5,-183 638.5,-164 527.5,-164"/>
<text text-anchor="middle" x="583" y="-171" font-family="Helvetica,sans-Serif" font-size="10.00">Framing.WallFrame</text>
</a>
</g>
</g>
<!-- Node5&#45;&gt;Node6 -->
<g id="edge5" class="edge">
<title>Node5&#45;&gt;Node6</title>
<path fill="none" stroke="midnightblue" d="M423.69,-592.73C444.43,-537.81 546.59,-267.26 574.78,-192.61"/>
<polygon fill="midnightblue" stroke="midnightblue" points="578.13,-193.66 578.39,-183.06 571.58,-191.18 578.13,-193.66"/>
</g>
<!-- Node6&#45;&gt;Node2 -->
<g id="edge6" class="edge">
<title>Node6&#45;&gt;Node2</title>
<path fill="none" stroke="midnightblue" d="M588.16,-183.05C599.45,-207.8 633.21,-274.29 683,-306.5 695.6,-314.65 711.19,-319.35 725.61,-322.04"/>
<polygon fill="midnightblue" stroke="midnightblue" points="725.43,-325.55 735.85,-323.66 726.53,-318.64 725.43,-325.55"/>
</g>
<!-- Node7 -->
<g id="node7" class="node">
<title>Node7</title>
<g id="a_node7"><a xlink:href="../../d6/dba/classTile_a259277529cfc1f6cfd4f75c543daea64.html#a259277529cfc1f6cfd4f75c543daea64" target="_top" xlink:title=" ">
<polygon fill="white" stroke="black" points="688,-278 688,-297 852,-297 852,-278 688,-278"/>
<text text-anchor="middle" x="770" y="-285" font-family="Helvetica,sans-Serif" font-size="10.00">Tile.ClearWallPaintAndCoating</text>
</a>
</g>
</g>
<!-- Node6&#45;&gt;Node7 -->
<g id="edge7" class="edge">
<title>Node6&#45;&gt;Node7</title>
<path fill="none" stroke="midnightblue" d="M591.91,-183.23C607.42,-201.67 643.77,-241.81 683,-263.5 691.36,-268.12 700.67,-271.91 710,-274.99"/>
<polygon fill="midnightblue" stroke="midnightblue" points="709.1,-278.38 719.69,-277.96 711.15,-271.68 709.1,-278.38"/>
</g>
<!-- Node9 -->
<g id="node9" class="node">
<title>Node9</title>
<g id="a_node9"><a xlink:href="../../d6/dba/classTile_a5f91c633897ca90de65f8c0bac41b000.html#a5f91c633897ca90de65f8c0bac41b000" target="_top" xlink:title=" ">
<polygon fill="white" stroke="black" points="901,-202 901,-221 1001,-221 1001,-202 901,-202"/>
<text text-anchor="middle" x="951" y="-209" font-family="Helvetica,sans-Serif" font-size="10.00">Tile.invisibleWall</text>
</a>
</g>
</g>
<!-- Node6&#45;&gt;Node9 -->
<g id="edge11" class="edge">
<title>Node6&#45;&gt;Node9</title>
<path fill="none" stroke="midnightblue" d="M617.52,-163.99C669.77,-150.75 773.32,-130.9 857,-154.5 885.19,-162.45 913.27,-181.61 931.08,-195.52"/>
<polygon fill="midnightblue" stroke="midnightblue" points="928.97,-198.31 938.95,-201.86 933.36,-192.86 928.97,-198.31"/>
</g>
<!-- Node10 -->
<g id="node10" class="node">
<title>Node10</title>
<g id="a_node10"><a xlink:href="../../d6/dba/classTile_a34554428a8acc3d2525ecad6dadff885.html#a34554428a8acc3d2525ecad6dadff885" target="_top" xlink:title=" ">
<polygon fill="white" stroke="black" points="909.5,-278 909.5,-297 992.5,-297 992.5,-278 909.5,-278"/>
<text text-anchor="middle" x="951" y="-285" font-family="Helvetica,sans-Serif" font-size="10.00">Tile.wallColor</text>
</a>
</g>
</g>
<!-- Node6&#45;&gt;Node10 -->
<g id="edge15" class="edge">
<title>Node6&#45;&gt;Node10</title>
<path fill="none" stroke="midnightblue" d="M614.58,-183.02C680.37,-203.52 835.42,-251.81 909.37,-274.85"/>
<polygon fill="midnightblue" stroke="midnightblue" points="908.67,-278.29 919.25,-277.92 910.75,-271.61 908.67,-278.29"/>
</g>
<!-- Node11 -->
<g id="node11" class="node">
<title>Node11</title>
<g id="a_node11"><a xlink:href="../../d6/d9a/classUnifiedRandom_a424f3e9455eb9b0a67085171d7d93d18.html#a424f3e9455eb9b0a67085171d7d93d18" target="_top" xlink:title=" ">
<polygon fill="white" stroke="red" points="711,-50 711,-69 829,-69 829,-50 711,-50"/>
<text text-anchor="middle" x="770" y="-57" font-family="Helvetica,sans-Serif" font-size="10.00">UnifiedRandom.Next</text>
</a>
</g>
</g>
<!-- Node6&#45;&gt;Node11 -->
<g id="edge12" class="edge">
<title>Node6&#45;&gt;Node11</title>
<path fill="none" stroke="midnightblue" d="M590.98,-163.92C605.67,-144.51 641.83,-100.52 683,-78.5 688.66,-75.47 694.78,-72.93 701.06,-70.78"/>
<polygon fill="midnightblue" stroke="midnightblue" points="702.46,-74.02 711,-67.74 700.41,-67.32 702.46,-74.02"/>
</g>
<!-- Node13 -->
<g id="node12" class="node">
<title>Node13</title>
<g id="a_node12"><a xlink:href="../../db/d4a/classMain_a39a3883e637e0591c01aa18c486a9d9f.html#a39a3883e637e0591c01aa18c486a9d9f" target="_top" xlink:title=" ">
<polygon fill="white" stroke="black" points="698,-0.5 698,-30.5 842,-30.5 842,-0.5 698,-0.5"/>
<text text-anchor="start" x="706" y="-18.5" font-family="Helvetica,sans-Serif" font-size="10.00">Main.ShouldShowInvisible</text>
<text text-anchor="middle" x="770" y="-7.5" font-family="Helvetica,sans-Serif" font-size="10.00">Walls</text>
</a>
</g>
</g>
<!-- Node6&#45;&gt;Node13 -->
<g id="edge13" class="edge">
<title>Node6&#45;&gt;Node13</title>
<path fill="none" stroke="midnightblue" d="M588.45,-163.77C600.2,-139.2 634.53,-74.15 683,-40.5 685.9,-38.49 688.96,-36.64 692.13,-34.93"/>
<polygon fill="midnightblue" stroke="midnightblue" points="693.82,-38 701.31,-30.51 690.78,-31.7 693.82,-38"/>
</g>
<!-- Node14 -->
<g id="node13" class="node">
<title>Node14</title>
<g id="a_node13"><a xlink:href="../../db/de4/classWorldGen_ab244d14a7056c022e2f97b3cbb76af9f.html#ab244d14a7056c022e2f97b3cbb76af9f" target="_top" xlink:title=" ">
<polygon fill="white" stroke="red" points="699.5,-164 699.5,-183 840.5,-183 840.5,-164 699.5,-164"/>
<text text-anchor="middle" x="770" y="-171" font-family="Helvetica,sans-Serif" font-size="10.00">WorldGen.UpdateMapTile</text>
</a>
</g>
</g>
<!-- Node6&#45;&gt;Node14 -->
<g id="edge14" class="edge">
<title>Node6&#45;&gt;Node14</title>
<path fill="none" stroke="midnightblue" d="M638.51,-173.5C654.45,-173.5 672.23,-173.5 689.39,-173.5"/>
<polygon fill="midnightblue" stroke="midnightblue" points="689.41,-177 699.41,-173.5 689.41,-170 689.41,-177"/>
</g>
<!-- Node32 -->
<g id="node14" class="node">
<title>Node32</title>
<g id="a_node14"><a xlink:href="../../d6/dba/classTile_a7b136c4f2fcc69890365b9c825132694.html#a7b136c4f2fcc69890365b9c825132694" target="_top" xlink:title=" ">
<polygon fill="white" stroke="black" points="706,-88 706,-107 834,-107 834,-88 706,-88"/>
<text text-anchor="middle" x="770" y="-95" font-family="Helvetica,sans-Serif" font-size="10.00">Tile.wallFrameNumber</text>
</a>
</g>
</g>
<!-- Node6&#45;&gt;Node32 -->
<g id="edge16" class="edge">
<title>Node6&#45;&gt;Node32</title>
<path fill="none" stroke="midnightblue" d="M599.63,-163.96C618.73,-152.61 652.32,-133.68 683,-121.5 694.26,-117.03 706.65,-113.06 718.44,-109.69"/>
<polygon fill="midnightblue" stroke="midnightblue" points="719.46,-113.04 728.17,-107 717.59,-106.29 719.46,-113.04"/>
</g>
<!-- Node8 -->
<g id="node8" class="node">
<title>Node8</title>
<g id="a_node8"><a xlink:href="../../d6/dba/classTile_a6771973d2404aad67503906dc8131567.html#a6771973d2404aad67503906dc8131567" target="_top" xlink:title=" ">
<polygon fill="white" stroke="black" points="899.5,-802 899.5,-821 1002.5,-821 1002.5,-802 899.5,-802"/>
<text text-anchor="middle" x="951" y="-809" font-family="Helvetica,sans-Serif" font-size="10.00">Tile.fullbrightWall</text>
</a>
</g>
</g>
<!-- Node7&#45;&gt;Node8 -->
<g id="edge8" class="edge">
<title>Node7&#45;&gt;Node8</title>
<path fill="none" stroke="midnightblue" d="M844.71,-297.14C849.22,-299.68 853.39,-302.76 857,-306.5 925.96,-377.94 945.33,-707.43 949.19,-791.78"/>
<polygon fill="midnightblue" stroke="midnightblue" points="945.7,-791.98 949.63,-801.81 952.69,-791.67 945.7,-791.98"/>
</g>
<!-- Node7&#45;&gt;Node9 -->
<g id="edge9" class="edge">
<title>Node7&#45;&gt;Node9</title>
<path fill="none" stroke="midnightblue" d="M793.67,-277.87C825.14,-264.51 882.23,-240.27 918.02,-225.08"/>
<polygon fill="midnightblue" stroke="midnightblue" points="919.68,-228.18 927.51,-221.05 916.94,-221.73 919.68,-228.18"/>
</g>
<!-- Node7&#45;&gt;Node10 -->
<g id="edge10" class="edge">
<title>Node7&#45;&gt;Node10</title>
<path fill="none" stroke="midnightblue" d="M852.12,-287.5C868.05,-287.5 884.34,-287.5 898.94,-287.5"/>
<polygon fill="midnightblue" stroke="midnightblue" points="899.24,-291 909.24,-287.5 899.24,-284 899.24,-291"/>
</g>
<!-- Node35&#45;&gt;Node2 -->
<g id="edge18" class="edge">
<title>Node35&#45;&gt;Node2</title>
<path fill="none" stroke="midnightblue" d="M628.77,-1075.94C635.88,-1072.51 642.39,-1067.84 647,-1061.5 740.16,-933.36 584.05,-473.22 683,-349.5 693.25,-336.69 709.71,-330.37 725.51,-327.36"/>
<polygon fill="midnightblue" stroke="midnightblue" points="726.36,-330.77 735.72,-325.83 725.32,-323.85 726.36,-330.77"/>
</g>
<!-- Node35&#45;&gt;Node3 -->
<g id="edge35" class="edge">
<title>Node35&#45;&gt;Node3</title>
<path fill="none" stroke="midnightblue" d="M584.99,-1095.23C593.64,-1180.23 656.98,-1794.2 683,-1822.5 692.32,-1832.64 705.72,-1837.99 719.18,-1840.68"/>
<polygon fill="midnightblue" stroke="midnightblue" points="719.01,-1844.19 729.42,-1842.24 720.07,-1837.27 719.01,-1844.19"/>
</g>
<!-- Node35&#45;&gt;Node8 -->
<g id="edge26" class="edge">
<title>Node35&#45;&gt;Node8</title>
<path fill="none" stroke="midnightblue" d="M592,-1095.23C607.39,-1113.09 643.15,-1150.55 683,-1164.5 755.99,-1190.05 795.75,-1211.71 857,-1164.5 911.22,-1122.72 940.15,-900.13 947.87,-831.6"/>
<polygon fill="midnightblue" stroke="midnightblue" points="951.39,-831.64 949,-821.32 944.43,-830.87 951.39,-831.64"/>
</g>
<!-- Node35&#45;&gt;Node9 -->
<g id="edge38" class="edge">
<title>Node35&#45;&gt;Node9</title>
<path fill="none" stroke="midnightblue" d="M584.5,-1075.73C589.14,-987.59 625.46,-331.45 683,-268.5 735.15,-211.45 829.19,-203.95 890.6,-206.03"/>
<polygon fill="midnightblue" stroke="midnightblue" points="890.78,-209.54 900.92,-206.47 891.08,-202.54 890.78,-209.54"/>
</g>
<!-- Node35&#45;&gt;Node10 -->
<g id="edge51" class="edge">
<title>Node35&#45;&gt;Node10</title>
<path fill="none" stroke="midnightblue" d="M628.76,-1075.93C635.86,-1072.5 642.38,-1067.84 647,-1061.5 736.01,-939.4 585.15,-497.64 683,-382.5 734.26,-322.18 783.56,-374.04 857,-344.5 883.57,-333.81 911.21,-315.86 929.38,-302.95"/>
<polygon fill="midnightblue" stroke="midnightblue" points="931.44,-305.78 937.49,-297.08 927.34,-300.11 931.44,-305.78"/>
</g>
<!-- Node36 -->
<g id="node16" class="node">
<title>Node36</title>
<g id="a_node16"><a xlink:href="../../d6/dba/classTile_aaf7a749e2f172ceb884144afc820ba05.html#aaf7a749e2f172ceb884144afc820ba05" target="_top" xlink:title=" ">
<polygon fill="white" stroke="black" points="731,-556 731,-575 809,-575 809,-556 731,-556"/>
<text text-anchor="middle" x="770" y="-563" font-family="Helvetica,sans-Serif" font-size="10.00">Tile.actuator</text>
</a>
</g>
</g>
<!-- Node35&#45;&gt;Node36 -->
<g id="edge19" class="edge">
<title>Node35&#45;&gt;Node36</title>
<path fill="none" stroke="midnightblue" d="M628.64,-1075.85C635.76,-1072.42 642.31,-1067.78 647,-1061.5 710.45,-976.49 613.94,-666.02 683,-585.5 692.4,-574.54 706.51,-568.94 720.61,-566.24"/>
<polygon fill="midnightblue" stroke="midnightblue" points="721.41,-569.66 730.8,-564.74 720.4,-562.73 721.41,-569.66"/>
</g>
<!-- Node37 -->
<g id="node17" class="node">
<title>Node37</title>
<g id="a_node17"><a xlink:href="../../dd/dc4/interfaceISocket_a511af46ee3de67c1203113b24bb71d07.html#a511af46ee3de67c1203113b24bb71d07" target="_top" xlink:title=" ">
<polygon fill="white" stroke="black" points="716,-518 716,-537 824,-537 824,-518 716,-518"/>
<text text-anchor="middle" x="770" y="-525" font-family="Helvetica,sans-Serif" font-size="10.00">ISocket.AsyncSend</text>
</a>
</g>
</g>
<!-- Node35&#45;&gt;Node37 -->
<g id="edge20" class="edge">
<title>Node35&#45;&gt;Node37</title>
<path fill="none" stroke="midnightblue" d="M628.67,-1075.87C635.79,-1072.44 642.33,-1067.8 647,-1061.5 715.36,-969.36 608.08,-633.38 683,-546.5 689.09,-539.44 697.15,-534.67 705.9,-531.49"/>
<polygon fill="midnightblue" stroke="midnightblue" points="707.01,-534.81 715.61,-528.64 705.03,-528.1 707.01,-534.81"/>
</g>
<!-- Node38 -->
<g id="node18" class="node">
<title>Node38</title>
<g id="a_node18"><a xlink:href="../../d3/d0e/classRemoteServer_a42c60d555de36d82c304afacb843109c.html#a42c60d555de36d82c304afacb843109c" target="_top" xlink:title=" ">
<polygon fill="white" stroke="black" points="698.5,-468.5 698.5,-498.5 841.5,-498.5 841.5,-468.5 698.5,-468.5"/>
<text text-anchor="start" x="706.5" y="-486.5" font-family="Helvetica,sans-Serif" font-size="10.00">RemoteServer.ClientWrite</text>
<text text-anchor="middle" x="770" y="-475.5" font-family="Helvetica,sans-Serif" font-size="10.00">CallBack</text>
</a>
</g>
</g>
<!-- Node35&#45;&gt;Node38 -->
<g id="edge21" class="edge">
<title>Node35&#45;&gt;Node38</title>
<path fill="none" stroke="midnightblue" d="M628.7,-1075.89C635.81,-1072.46 642.34,-1067.81 647,-1061.5 720.14,-962.42 605.91,-604.53 683,-508.5 684.96,-506.06 687.15,-503.84 689.51,-501.84"/>
<polygon fill="midnightblue" stroke="midnightblue" points="691.97,-504.39 698.16,-495.79 687.96,-498.65 691.97,-504.39"/>
</g>
<!-- Node17 -->
<g id="node19" class="node">
<title>Node17</title>
<g id="a_node19"><a xlink:href="../../d6/dba/classTile_aab901c8f842b5afa78ab3605f6c5d542.html#aab901c8f842b5afa78ab3605f6c5d542" target="_top" xlink:title=" ">
<polygon fill="white" stroke="black" points="739,-430 739,-449 801,-449 801,-430 739,-430"/>
<text text-anchor="middle" x="770" y="-437" font-family="Helvetica,sans-Serif" font-size="10.00">Tile.color</text>
</a>
</g>
</g>
<!-- Node35&#45;&gt;Node17 -->
<g id="edge22" class="edge">
<title>Node35&#45;&gt;Node17</title>
<path fill="none" stroke="midnightblue" d="M628.72,-1075.91C635.83,-1072.48 642.36,-1067.82 647,-1061.5 726.31,-953.47 596.56,-561.91 683,-459.5 694.14,-446.31 712.12,-440.85 728.77,-438.88"/>
<polygon fill="midnightblue" stroke="midnightblue" points="729.2,-442.35 738.89,-438.06 728.64,-435.38 729.2,-442.35"/>
</g>
<!-- Node39 -->
<g id="node20" class="node">
<title>Node39</title>
<g id="a_node20"><a xlink:href="../../dc/d81/classNetMessage_aeb123127a7678b0a62966969dd5435e3.html#aeb123127a7678b0a62966969dd5435e3" target="_top" xlink:title=" ">
<polygon fill="white" stroke="red" points="683,-392 683,-411 857,-411 857,-392 683,-392"/>
<text text-anchor="middle" x="770" y="-399" font-family="Helvetica,sans-Serif" font-size="10.00">NetMessage.CompressTileBlock</text>
</a>
</g>
</g>
<!-- Node35&#45;&gt;Node39 -->
<g id="edge23" class="edge">
<title>Node35&#45;&gt;Node39</title>
<path fill="none" stroke="midnightblue" d="M628.74,-1075.92C635.85,-1072.49 642.37,-1067.83 647,-1061.5 731.22,-946.34 590.57,-529.18 683,-420.5 683.89,-419.45 684.83,-418.45 685.8,-417.5"/>
<polygon fill="midnightblue" stroke="midnightblue" points="688.25,-420.03 693.98,-411.12 683.94,-414.52 688.25,-420.03"/>
</g>
<!-- Node61 -->
<g id="node21" class="node">
<title>Node61</title>
<g id="a_node21"><a xlink:href="../../d1/d6d/interfaceINetDiagnosticsUI_a076e65303a310f5c718916c3d433c966.html#a076e65303a310f5c718916c3d433c966" target="_top" xlink:title=" ">
<polygon fill="white" stroke="black" points="691,-1744.5 691,-1774.5 849,-1774.5 849,-1744.5 691,-1744.5"/>
<text text-anchor="start" x="699" y="-1762.5" font-family="Helvetica,sans-Serif" font-size="10.00">INetDiagnosticsUI.CountSent</text>
<text text-anchor="middle" x="770" y="-1751.5" font-family="Helvetica,sans-Serif" font-size="10.00">Message</text>
</a>
</g>
</g>
<!-- Node35&#45;&gt;Node61 -->
<g id="edge24" class="edge">
<title>Node35&#45;&gt;Node61</title>
<path fill="none" stroke="midnightblue" d="M587.96,-1095.23C599.36,-1123.75 632.39,-1209.82 647,-1284.5 666.26,-1382.95 619.62,-1656.74 683,-1734.5 683.98,-1735.71 685.02,-1736.85 686.1,-1737.95"/>
<polygon fill="midnightblue" stroke="midnightblue" points="683.99,-1740.74 693.92,-1744.43 688.46,-1735.35 683.99,-1740.74"/>
</g>
<!-- Node20 -->
<g id="node22" class="node">
<title>Node20</title>
<g id="a_node22"><a xlink:href="../../d6/dba/classTile_ac1019500ca7fcafcb5b51f226fec3686.html#ac1019500ca7fcafcb5b51f226fec3686" target="_top" xlink:title=" ">
<polygon fill="white" stroke="black" points="715.5,-1706 715.5,-1725 824.5,-1725 824.5,-1706 715.5,-1706"/>
<text text-anchor="middle" x="770" y="-1713" font-family="Helvetica,sans-Serif" font-size="10.00">Tile.fullbrightBlock</text>
</a>
</g>
</g>
<!-- Node35&#45;&gt;Node20 -->
<g id="edge25" class="edge">
<title>Node35&#45;&gt;Node20</title>
<path fill="none" stroke="midnightblue" d="M587.93,-1095.24C599.26,-1123.77 632.11,-1209.87 647,-1284.5 664.98,-1374.63 622.38,-1627.42 683,-1696.5 689.07,-1703.42 697.05,-1708.14 705.69,-1711.3"/>
<polygon fill="midnightblue" stroke="midnightblue" points="704.7,-1714.66 715.28,-1714.16 706.7,-1707.95 704.7,-1714.66"/>
</g>
<!-- Node62 -->
<g id="node23" class="node">
<title>Node62</title>
<g id="a_node23"><a xlink:href="../../d5/ded/classNetSocialModule_af0090e196791182cf907e4bd9a55412f.html#af0090e196791182cf907e4bd9a55412f" target="_top" xlink:title=" ">
<polygon fill="white" stroke="black" points="691,-1668 691,-1687 849,-1687 849,-1668 691,-1668"/>
<text text-anchor="middle" x="770" y="-1675" font-family="Helvetica,sans-Serif" font-size="10.00">NetSocialModule.GetLobbyId</text>
</a>
</g>
</g>
<!-- Node35&#45;&gt;Node62 -->
<g id="edge27" class="edge">
<title>Node35&#45;&gt;Node62</title>
<path fill="none" stroke="midnightblue" d="M587.9,-1095.24C599.14,-1123.79 631.79,-1209.94 647,-1284.5 663.69,-1366.31 627.65,-1595.99 683,-1658.5 684.05,-1659.68 685.15,-1660.8 686.3,-1661.85"/>
<polygon fill="midnightblue" stroke="midnightblue" points="684.42,-1664.82 694.53,-1667.97 688.59,-1659.2 684.42,-1664.82"/>
</g>
<!-- Node63 -->
<g id="node24" class="node">
<title>Node63</title>
<g id="a_node24"><a xlink:href="../../de/d71/classNPC_a4c39a8890e0e18375e6ab1ef2365b0d1.html#a4c39a8890e0e18375e6ab1ef2365b0d1" target="_top" xlink:title=" ">
<polygon fill="white" stroke="black" points="731.5,-1630 731.5,-1649 808.5,-1649 808.5,-1630 731.5,-1630"/>
<text text-anchor="middle" x="770" y="-1637" font-family="Helvetica,sans-Serif" font-size="10.00">NPC.getRect</text>
</a>
</g>
</g>
<!-- Node35&#45;&gt;Node63 -->
<g id="edge28" class="edge">
<title>Node35&#45;&gt;Node63</title>
<path fill="none" stroke="midnightblue" d="M587.86,-1095.25C598.99,-1123.82 631.38,-1210.02 647,-1284.5 662.41,-1358 632.92,-1564.54 683,-1620.5 692.68,-1631.32 707.01,-1636.73 721.21,-1639.25"/>
<polygon fill="midnightblue" stroke="midnightblue" points="721.09,-1642.76 731.46,-1640.61 722.01,-1635.82 721.09,-1642.76"/>
</g>
<!-- Node64 -->
<g id="node25" class="node">
<title>Node64</title>
<g id="a_node25"><a xlink:href="../../d2/d4b/classPlayer_af6df066c2c1b4e670be718cb58b66968.html#af6df066c2c1b4e670be718cb58b66968" target="_top" xlink:title=" ">
<polygon fill="white" stroke="black" points="726.5,-1592 726.5,-1611 813.5,-1611 813.5,-1592 726.5,-1592"/>
<text text-anchor="middle" x="770" y="-1599" font-family="Helvetica,sans-Serif" font-size="10.00">Player.getRect</text>
</a>
</g>
</g>
<!-- Node35&#45;&gt;Node64 -->
<g id="edge29" class="edge">
<title>Node35&#45;&gt;Node64</title>
<path fill="none" stroke="midnightblue" d="M587.81,-1095.26C598.81,-1123.86 630.88,-1210.13 647,-1284.5 661.13,-1349.69 638.18,-1533.1 683,-1582.5 691.59,-1591.97 703.75,-1597.28 716.23,-1600.14"/>
<polygon fill="midnightblue" stroke="midnightblue" points="715.78,-1603.62 726.24,-1601.94 717.02,-1596.73 715.78,-1603.62"/>
</g>
<!-- Node65 -->
<g id="node26" class="node">
<title>Node65</title>
<g id="a_node26"><a xlink:href="../../d9/d4b/classProjectile_a0133e73e3ee32fc8aae1c7fdb6bb4cde.html#a0133e73e3ee32fc8aae1c7fdb6bb4cde" target="_top" xlink:title=" ">
<polygon fill="white" stroke="black" points="718.5,-1554 718.5,-1573 821.5,-1573 821.5,-1554 718.5,-1554"/>
<text text-anchor="middle" x="770" y="-1561" font-family="Helvetica,sans-Serif" font-size="10.00">Projectile.getRect</text>
</a>
</g>
</g>
<!-- Node35&#45;&gt;Node65 -->
<g id="edge30" class="edge">
<title>Node35&#45;&gt;Node65</title>
<path fill="none" stroke="midnightblue" d="M587.75,-1095.28C598.58,-1123.91 630.24,-1210.27 647,-1284.5 659.85,-1341.4 643.43,-1501.64 683,-1544.5 689.85,-1551.92 698.88,-1556.77 708.51,-1559.89"/>
<polygon fill="midnightblue" stroke="midnightblue" points="707.73,-1563.3 718.29,-1562.47 709.51,-1556.53 707.73,-1563.3"/>
</g>
<!-- Node66 -->
<g id="node27" class="node">
<title>Node66</title>
<g id="a_node27"><a xlink:href="../../dd/dc4/interfaceISocket_acd5af726d37763775e8b7e204378c039.html#acd5af726d37763775e8b7e204378c039" target="_top" xlink:title=" ">
<polygon fill="white" stroke="black" points="695.5,-1516 695.5,-1535 844.5,-1535 844.5,-1516 695.5,-1516"/>
<text text-anchor="middle" x="770" y="-1523" font-family="Helvetica,sans-Serif" font-size="10.00">ISocket.GetRemoteAddress</text>
</a>
</g>
</g>
<!-- Node35&#45;&gt;Node66 -->
<g id="edge31" class="edge">
<title>Node35&#45;&gt;Node66</title>
<path fill="none" stroke="midnightblue" d="M587.65,-1095.3C598.23,-1124 629.24,-1210.5 647,-1284.5 669.81,-1379.56 617.69,-1428.75 683,-1501.5 686.32,-1505.2 690.16,-1508.35 694.33,-1511.03"/>
<polygon fill="midnightblue" stroke="midnightblue" points="692.85,-1514.2 703.31,-1515.89 696.18,-1508.05 692.85,-1514.2"/>
</g>
<!-- Node67 -->
<g id="node28" class="node">
<title>Node67</title>
<g id="a_node28"><a xlink:href="../../d9/d43/classNetplay_ab61acde52f6e2c8d92b5816ba67ccadf.html#ab61acde52f6e2c8d92b5816ba67ccadf" target="_top" xlink:title=" ">
<polygon fill="white" stroke="black" points="893,-1269 893,-1288 1009,-1288 1009,-1269 893,-1269"/>
<text text-anchor="middle" x="951" y="-1276" font-family="Helvetica,sans-Serif" font-size="10.00">Netplay.GetSectionX</text>
</a>
</g>
</g>
<!-- Node35&#45;&gt;Node67 -->
<g id="edge32" class="edge">
<title>Node35&#45;&gt;Node67</title>
<path fill="none" stroke="midnightblue" d="M589.57,-1095.05C602.8,-1116.84 638.38,-1170.48 683,-1197.5 751.14,-1238.77 781.26,-1215.81 857,-1240.5 878.27,-1247.43 901.57,-1256.96 919.52,-1264.73"/>
<polygon fill="midnightblue" stroke="midnightblue" points="918.34,-1268.04 928.9,-1268.85 921.15,-1261.63 918.34,-1268.04"/>
</g>
<!-- Node68 -->
<g id="node29" class="node">
<title>Node68</title>
<g id="a_node29"><a xlink:href="../../d9/d43/classNetplay_a5d153f58e51f26baa5e12b5e6d86c56b.html#a5d153f58e51f26baa5e12b5e6d86c56b" target="_top" xlink:title=" ">
<polygon fill="white" stroke="black" points="893,-1383 893,-1402 1009,-1402 1009,-1383 893,-1383"/>
<text text-anchor="middle" x="951" y="-1390" font-family="Helvetica,sans-Serif" font-size="10.00">Netplay.GetSectionY</text>
</a>
</g>
</g>
<!-- Node35&#45;&gt;Node68 -->
<g id="edge33" class="edge">
<title>Node35&#45;&gt;Node68</title>
<path fill="none" stroke="midnightblue" d="M587.13,-1095.33C603.78,-1147.66 681.38,-1391.32 683,-1392.5 751.08,-1442.08 857.02,-1421.28 912.78,-1405.03"/>
<polygon fill="midnightblue" stroke="midnightblue" points="914.03,-1408.31 922.59,-1402.07 912,-1401.61 914.03,-1408.31"/>
</g>
<!-- Node69 -->
<g id="node30" class="node">
<title>Node69</title>
<g id="a_node30"><a xlink:href="../../d0/d41/classLanguage_a9f392308c3f9927bacc3d83792b46408.html#a9f392308c3f9927bacc3d83792b46408" target="_top" xlink:title=" ">
<polygon fill="white" stroke="red" points="704.5,-1326 704.5,-1345 835.5,-1345 835.5,-1326 704.5,-1326"/>
<text text-anchor="middle" x="770" y="-1333" font-family="Helvetica,sans-Serif" font-size="10.00">Language.GetTextValue</text>
</a>
</g>
</g>
<!-- Node35&#45;&gt;Node69 -->
<g id="edge34" class="edge">
<title>Node35&#45;&gt;Node69</title>
<path fill="none" stroke="midnightblue" d="M585.05,-1095.25C589.46,-1130.98 609.74,-1255.83 683,-1316.5 686.71,-1319.57 690.8,-1322.17 695.13,-1324.37"/>
<polygon fill="midnightblue" stroke="midnightblue" points="693.74,-1327.58 704.31,-1328.36 696.53,-1321.16 693.74,-1327.58"/>
</g>
<!-- Node49 -->
<g id="node31" class="node">
<title>Node49</title>
<g id="a_node31"><a xlink:href="../../d6/dba/classTile_abb2a30463eddd9cbdc91f329d2aa4bf8.html#abb2a30463eddd9cbdc91f329d2aa4bf8" target="_top" xlink:title=" ">
<polygon fill="white" stroke="black" points="731.5,-1288 731.5,-1307 808.5,-1307 808.5,-1288 731.5,-1288"/>
<text text-anchor="middle" x="770" y="-1295" font-family="Helvetica,sans-Serif" font-size="10.00">Tile.inActive</text>
</a>
</g>
</g>
<!-- Node35&#45;&gt;Node49 -->
<g id="edge36" class="edge">
<title>Node35&#45;&gt;Node49</title>
<path fill="none" stroke="midnightblue" d="M585.97,-1095.4C592.88,-1127.48 619.19,-1229.27 683,-1278.5 693.9,-1286.91 707.77,-1291.76 721.18,-1294.5"/>
<polygon fill="midnightblue" stroke="midnightblue" points="720.84,-1297.99 731.28,-1296.22 722.01,-1291.09 720.84,-1297.99"/>
</g>
<!-- Node24 -->
<g id="node32" class="node">
<title>Node24</title>
<g id="a_node32"><a xlink:href="../../d6/dba/classTile_ab79d72d2c148d8bbd6dbc20055eec3d6.html#ab79d72d2c148d8bbd6dbc20055eec3d6" target="_top" xlink:title=" ">
<polygon fill="white" stroke="black" points="717,-1250 717,-1269 823,-1269 823,-1250 717,-1250"/>
<text text-anchor="middle" x="770" y="-1257" font-family="Helvetica,sans-Serif" font-size="10.00">Tile.invisibleBlock</text>
</a>
</g>
</g>
<!-- Node35&#45;&gt;Node24 -->
<g id="edge37" class="edge">
<title>Node35&#45;&gt;Node24</title>
<path fill="none" stroke="midnightblue" d="M587.6,-1095.31C597.98,-1122.14 630.55,-1197.28 683,-1235.5 690.19,-1240.74 698.48,-1244.84 707.01,-1248.04"/>
<polygon fill="midnightblue" stroke="midnightblue" points="706.11,-1251.43 716.71,-1251.29 708.34,-1244.79 706.11,-1251.43"/>
</g>
<!-- Node71 -->
<g id="node33" class="node">
<title>Node71</title>
<g id="a_node33"><a xlink:href="../../dd/dc4/interfaceISocket_a36309c9c292db8e6f6b103814e62861d.html#a36309c9c292db8e6f6b103814e62861d" target="_top" xlink:title=" ">
<polygon fill="white" stroke="black" points="893.5,-1459 893.5,-1478 1008.5,-1478 1008.5,-1459 893.5,-1459"/>
<text text-anchor="middle" x="951" y="-1466" font-family="Helvetica,sans-Serif" font-size="10.00">ISocket.IsConnected</text>
</a>
</g>
</g>
<!-- Node35&#45;&gt;Node71 -->
<g id="edge39" class="edge">
<title>Node35&#45;&gt;Node71</title>
<path fill="none" stroke="midnightblue" d="M587.55,-1095.32C597.84,-1124.09 628.18,-1210.76 647,-1284.5 667.61,-1365.24 618.67,-1415.54 683,-1468.5 749.03,-1522.86 858.58,-1498.86 914.62,-1481.22"/>
<polygon fill="midnightblue" stroke="midnightblue" points="916.01,-1484.44 924.43,-1478.02 913.84,-1477.79 916.01,-1484.44"/>
</g>
<!-- Node72 -->
<g id="node34" class="node">
<title>Node72</title>
<g id="a_node34"><a xlink:href="../../db/d53/classRemoteClient_a12dad1d00d836ac7ab31b780cbde6b70.html#a12dad1d00d836ac7ab31b780cbde6b70" target="_top" xlink:title=" ">
<polygon fill="white" stroke="black" points="697,-1440 697,-1459 843,-1459 843,-1440 697,-1440"/>
<text text-anchor="middle" x="770" y="-1447" font-family="Helvetica,sans-Serif" font-size="10.00">RemoteClient.IsConnected</text>
</a>
</g>
</g>
<!-- Node35&#45;&gt;Node72 -->
<g id="edge40" class="edge">
<title>Node35&#45;&gt;Node72</title>
<path fill="none" stroke="midnightblue" d="M587.35,-1095.38C597.09,-1124.29 626.09,-1211.33 647,-1284.5 664.77,-1346.69 637.78,-1379.26 683,-1425.5 686.86,-1429.45 691.31,-1432.76 696.12,-1435.54"/>
<polygon fill="midnightblue" stroke="midnightblue" points="694.58,-1438.68 705.09,-1439.99 697.69,-1432.41 694.58,-1438.68"/>
</g>
<!-- Node26 -->
<g id="node35" class="node">
<title>Node26</title>
<g id="a_node35"><a xlink:href="../../d6/dba/classTile_ae3a537e6afc69261928beeb910d9e29d.html#ae3a537e6afc69261928beeb910d9e29d" target="_top" xlink:title=" ">
<polygon fill="white" stroke="red" points="726.5,-1136 726.5,-1155 813.5,-1155 813.5,-1136 726.5,-1136"/>
<text text-anchor="middle" x="770" y="-1143" font-family="Helvetica,sans-Serif" font-size="10.00">Tile.liquidType</text>
</a>
</g>
</g>
<!-- Node35&#45;&gt;Node26 -->
<g id="edge42" class="edge">
<title>Node35&#45;&gt;Node26</title>
<path fill="none" stroke="midnightblue" d="M604.09,-1095.04C623.82,-1104.12 654.96,-1117.67 683,-1126.5 693.61,-1129.84 705.13,-1132.82 716.19,-1135.36"/>
<polygon fill="midnightblue" stroke="midnightblue" points="715.66,-1138.83 726.18,-1137.58 717.18,-1132 715.66,-1138.83"/>
</g>
<!-- Node73 -->
<g id="node36" class="node">
<title>Node73</title>
<g id="a_node36"><a xlink:href="../../df/d9d/classMessageBuffer_abed3beea6de2ff8064638640f3fcf6be.html#abed3beea6de2ff8064638640f3fcf6be" target="_top" xlink:title=" ">
<polygon fill="white" stroke="black" points="695.5,-1098 695.5,-1117 844.5,-1117 844.5,-1098 695.5,-1098"/>
<text text-anchor="middle" x="770" y="-1105" font-family="Helvetica,sans-Serif" font-size="10.00">MessageBuffer.ResetWriter</text>
</a>
</g>
</g>
<!-- Node35&#45;&gt;Node73 -->
<g id="edge43" class="edge">
<title>Node35&#45;&gt;Node73</title>
<path fill="none" stroke="midnightblue" d="M647.15,-1093.01C659.37,-1094.46 672.36,-1096.01 685.13,-1097.53"/>
<polygon fill="midnightblue" stroke="midnightblue" points="684.95,-1101.03 695.3,-1098.74 685.78,-1094.08 684.95,-1101.03"/>
</g>
<!-- Node74 -->
<g id="node37" class="node">
<title>Node74</title>
<g id="a_node37"><a xlink:href="../../db/d53/classRemoteClient_a18c7e508f7994d26c51c785021eee7dc.html#a18c7e508f7994d26c51c785021eee7dc" target="_top" xlink:title=" ">
<polygon fill="white" stroke="black" points="693.5,-1364 693.5,-1383 846.5,-1383 846.5,-1364 693.5,-1364"/>
<text text-anchor="middle" x="770" y="-1371" font-family="Helvetica,sans-Serif" font-size="10.00">RemoteClient.SectionRange</text>
</a>
</g>
</g>
<!-- Node35&#45;&gt;Node74 -->
<g id="edge44" class="edge">
<title>Node35&#45;&gt;Node74</title>
<path fill="none" stroke="midnightblue" d="M586.98,-1095.26C601.15,-1141.38 661.87,-1336.05 683,-1354.5 684.78,-1356.05 686.65,-1357.49 688.61,-1358.81"/>
<polygon fill="midnightblue" stroke="midnightblue" points="687.22,-1362.05 697.64,-1363.95 690.68,-1355.96 687.22,-1362.05"/>
</g>
<!-- Node75 -->
<g id="node38" class="node">
<title>Node75</title>
<g id="a_node38"><a xlink:href="../../db/d53/classRemoteClient_aa2252e1d8a932f84cc0e3afc4162f5ea.html#aa2252e1d8a932f84cc0e3afc4162f5ea" target="_top" xlink:title=" ">
<polygon fill="white" stroke="black" points="698,-1048.5 698,-1078.5 842,-1078.5 842,-1048.5 698,-1048.5"/>
<text text-anchor="start" x="706" y="-1066.5" font-family="Helvetica,sans-Serif" font-size="10.00">RemoteClient.ServerWrite</text>
<text text-anchor="middle" x="770" y="-1055.5" font-family="Helvetica,sans-Serif" font-size="10.00">CallBack</text>
</a>
</g>
</g>
<!-- Node35&#45;&gt;Node75 -->
<g id="edge47" class="edge">
<title>Node35&#45;&gt;Node75</title>
<path fill="none" stroke="midnightblue" d="M647.15,-1077.99C660.16,-1076.44 674.04,-1074.79 687.59,-1073.18"/>
<polygon fill="midnightblue" stroke="midnightblue" points="688.36,-1076.61 697.88,-1071.96 687.53,-1069.66 688.36,-1076.61"/>
</g>
<!-- Node76 -->
<g id="node39" class="node">
<title>Node76</title>
<g id="a_node39"><a xlink:href="../../d0/dae/classItem_aa1903fbd65a9a12fd6bd7e217ec00ae4.html#aa1903fbd65a9a12fd6bd7e217ec00ae4" target="_top" xlink:title=" ">
<polygon fill="white" stroke="black" points="720.5,-1010 720.5,-1029 819.5,-1029 819.5,-1010 720.5,-1010"/>
<text text-anchor="middle" x="770" y="-1017" font-family="Helvetica,sans-Serif" font-size="10.00">Item.SetDefaults</text>
</a>
</g>
</g>
<!-- Node35&#45;&gt;Node76 -->
<g id="edge48" class="edge">
<title>Node35&#45;&gt;Node76</title>
<path fill="none" stroke="midnightblue" d="M612.38,-1075.95C623.39,-1071.93 635.97,-1066.91 647,-1061.5 663.83,-1053.24 665.65,-1046.6 683,-1039.5 691.74,-1035.92 701.25,-1032.91 710.66,-1030.39"/>
<polygon fill="midnightblue" stroke="midnightblue" points="711.54,-1033.78 720.39,-1027.95 709.84,-1026.99 711.54,-1033.78"/>
</g>
<!-- Node35&#45;&gt;Node54 -->
<g id="edge49" class="edge">
<title>Node35&#45;&gt;Node54</title>
<path fill="none" stroke="midnightblue" d="M587.98,-1095.23C599.46,-1123.73 632.68,-1209.76 647,-1284.5 657.48,-1339.21 646.58,-1742.35 683,-1784.5 693.91,-1797.12 711.14,-1802.44 727.32,-1804.38"/>
<polygon fill="midnightblue" stroke="midnightblue" points="727.48,-1807.9 737.73,-1805.21 728.04,-1800.93 727.48,-1807.9"/>
</g>
<!-- Node77 -->
<g id="node41" class="node">
<title>Node77</title>
<g id="a_node41"><a xlink:href="../../d2/d6c/classTreeTopsInfo_a7fc74f76714e48075b4b233e570294be.html#a7fc74f76714e48075b4b233e570294be" target="_top" xlink:title=" ">
<polygon fill="white" stroke="black" points="706,-972 706,-991 834,-991 834,-972 706,-972"/>
<text text-anchor="middle" x="770" y="-979" font-family="Helvetica,sans-Serif" font-size="10.00">TreeTopsInfo.SyncSend</text>
</a>
</g>
</g>
<!-- Node35&#45;&gt;Node77 -->
<g id="edge50" class="edge">
<title>Node35&#45;&gt;Node77</title>
<path fill="none" stroke="midnightblue" d="M621.58,-1075.89C630.56,-1072.38 639.66,-1067.69 647,-1061.5 671.06,-1041.2 657.52,-1018.98 683,-1000.5 687.15,-997.49 691.68,-994.94 696.44,-992.79"/>
<polygon fill="midnightblue" stroke="midnightblue" points="697.77,-996.03 705.79,-989.11 695.21,-989.51 697.77,-996.03"/>
</g>
<!-- Node55 -->
<g id="node42" class="node">
<title>Node55</title>
<g id="a_node42"><a xlink:href="../../d6/dba/classTile_a60adbd2001dd6bff09114f7a65b56eb8.html#a60adbd2001dd6bff09114f7a65b56eb8" target="_top" xlink:title=" ">
<polygon fill="white" stroke="black" points="740.5,-934 740.5,-953 799.5,-953 799.5,-934 740.5,-934"/>
<text text-anchor="middle" x="770" y="-941" font-family="Helvetica,sans-Serif" font-size="10.00">Tile.wire</text>
</a>
</g>
</g>
<!-- Node35&#45;&gt;Node55 -->
<g id="edge52" class="edge">
<title>Node35&#45;&gt;Node55</title>
<path fill="none" stroke="midnightblue" d="M624.38,-1075.99C632.67,-1072.53 640.76,-1067.84 647,-1061.5 679.85,-1028.14 647.79,-993.36 683,-962.5 695.83,-951.26 713.81,-946.2 730.01,-944.08"/>
<polygon fill="midnightblue" stroke="midnightblue" points="730.72,-947.53 740.33,-943.07 730.04,-940.56 730.72,-947.53"/>
</g>
<!-- Node56 -->
<g id="node43" class="node">
<title>Node56</title>
<g id="a_node43"><a xlink:href="../../d6/dba/classTile_aad0aa67791a865603ae50081ff2c69b1.html#aad0aa67791a865603ae50081ff2c69b1" target="_top" xlink:title=" ">
<polygon fill="white" stroke="black" points="737.5,-896 737.5,-915 802.5,-915 802.5,-896 737.5,-896"/>
<text text-anchor="middle" x="770" y="-903" font-family="Helvetica,sans-Serif" font-size="10.00">Tile.wire2</text>
</a>
</g>
</g>
<!-- Node35&#45;&gt;Node56 -->
<g id="edge53" class="edge">
<title>Node35&#45;&gt;Node56</title>
<path fill="none" stroke="midnightblue" d="M625.8,-1075.99C633.71,-1072.54 641.29,-1067.86 647,-1061.5 689.07,-1014.67 637.61,-968.13 683,-924.5 694.76,-913.2 711.64,-908.02 727.34,-905.82"/>
<polygon fill="midnightblue" stroke="midnightblue" points="727.84,-909.28 737.42,-904.77 727.11,-902.32 727.84,-909.28"/>
</g>
<!-- Node57 -->
<g id="node44" class="node">
<title>Node57</title>
<g id="a_node44"><a xlink:href="../../d6/dba/classTile_a01ced283c7a936cf51337817031f4e2f.html#a01ced283c7a936cf51337817031f4e2f" target="_top" xlink:title=" ">
<polygon fill="white" stroke="black" points="737.5,-858 737.5,-877 802.5,-877 802.5,-858 737.5,-858"/>
<text text-anchor="middle" x="770" y="-865" font-family="Helvetica,sans-Serif" font-size="10.00">Tile.wire3</text>
</a>
</g>
</g>
<!-- Node35&#45;&gt;Node57 -->
<g id="edge54" class="edge">
<title>Node35&#45;&gt;Node57</title>
<path fill="none" stroke="midnightblue" d="M626.71,-1075.93C634.37,-1072.49 641.62,-1067.83 647,-1061.5 698.45,-1001.02 627.26,-943.06 683,-886.5 694.45,-874.89 711.28,-869.65 727.03,-867.5"/>
<polygon fill="midnightblue" stroke="midnightblue" points="727.54,-870.96 737.15,-866.49 726.85,-864 727.54,-870.96"/>
</g>
<!-- Node51 -->
<g id="node45" class="node">
<title>Node51</title>
<g id="a_node45"><a xlink:href="../../d6/dba/classTile_a0508314e2ec39c199c92edf77e31c28b.html#a0508314e2ec39c199c92edf77e31c28b" target="_top" xlink:title=" ">
<polygon fill="white" stroke="black" points="737.5,-820 737.5,-839 802.5,-839 802.5,-820 737.5,-820"/>
<text text-anchor="middle" x="770" y="-827" font-family="Helvetica,sans-Serif" font-size="10.00">Tile.wire4</text>
</a>
</g>
</g>
<!-- Node35&#45;&gt;Node51 -->
<g id="edge55" class="edge">
<title>Node35&#45;&gt;Node51</title>
<path fill="none" stroke="midnightblue" d="M627.21,-1075.93C634.74,-1072.5 641.8,-1067.83 647,-1061.5 707.9,-987.28 616.83,-918.06 683,-848.5 694.32,-836.59 711.3,-831.34 727.18,-829.24"/>
<polygon fill="midnightblue" stroke="midnightblue" points="727.76,-832.7 737.39,-828.29 727.1,-825.73 727.76,-832.7"/>
</g>
<!-- Node78 -->
<g id="node46" class="node">
<title>Node78</title>
<g id="a_node46"><a xlink:href="../../d0/d59/structTrackedProjectileReference_a725d0c61f0b474d8a5e857d015ec1015.html#a725d0c61f0b474d8a5e857d015ec1015" target="_top" xlink:title=" ">
<polygon fill="white" stroke="black" points="694,-770.5 694,-800.5 846,-800.5 846,-770.5 694,-770.5"/>
<text text-anchor="start" x="702" y="-788.5" font-family="Helvetica,sans-Serif" font-size="10.00">TrackedProjectileReference.</text>
<text text-anchor="middle" x="770" y="-777.5" font-family="Helvetica,sans-Serif" font-size="10.00">Write</text>
</a>
</g>
</g>
<!-- Node35&#45;&gt;Node78 -->
<g id="edge56" class="edge">
<title>Node35&#45;&gt;Node78</title>
<path fill="none" stroke="midnightblue" d="M627.66,-1075.89C635.05,-1072.46 641.96,-1067.81 647,-1061.5 717.39,-973.49 609.1,-895.58 683,-810.5 684.16,-809.17 685.38,-807.91 686.66,-806.71"/>
<polygon fill="midnightblue" stroke="midnightblue" points="688.84,-809.45 694.58,-800.54 684.54,-803.93 688.84,-809.45"/>
</g>
<!-- Node58 -->
<g id="node47" class="node">
<title>Node58</title>
<g id="a_node47"><a xlink:href="../../de/d47/classTileEntity_a0dee4b6d34517c88d8bfa1591b06a475.html#a0dee4b6d34517c88d8bfa1591b06a475" target="_top" xlink:title=" ">
<polygon fill="white" stroke="red" points="724.5,-732 724.5,-751 815.5,-751 815.5,-732 724.5,-732"/>
<text text-anchor="middle" x="770" y="-739" font-family="Helvetica,sans-Serif" font-size="10.00">TileEntity.Write</text>
</a>
</g>
</g>
<!-- Node35&#45;&gt;Node58 -->
<g id="edge57" class="edge">
<title>Node35&#45;&gt;Node58</title>
<path fill="none" stroke="midnightblue" d="M627.78,-1075.98C635.16,-1072.54 642.03,-1067.86 647,-1061.5 729.67,-955.67 593.36,-861.49 683,-761.5 691.15,-752.4 702.56,-747.03 714.41,-743.95"/>
<polygon fill="midnightblue" stroke="midnightblue" points="715.33,-747.33 724.41,-741.87 713.91,-740.48 715.33,-747.33"/>
</g>
<!-- Node79 -->
<g id="node48" class="node">
<title>Node79</title>
<g id="a_node48"><a xlink:href="../../dc/d81/classNetMessage_a99db4c34a0bc6ed088ab287798ef76c2.html#a99db4c34a0bc6ed088ab287798ef76c2" target="_top" xlink:title=" ">
<polygon fill="white" stroke="black" points="692,-682.5 692,-712.5 848,-712.5 848,-682.5 692,-682.5"/>
<text text-anchor="start" x="700" y="-700.5" font-family="Helvetica,sans-Serif" font-size="10.00">NetMessage.WriteAccessory</text>
<text text-anchor="middle" x="770" y="-689.5" font-family="Helvetica,sans-Serif" font-size="10.00">Visibility</text>
</a>
</g>
</g>
<!-- Node35&#45;&gt;Node79 -->
<g id="edge58" class="edge">
<title>Node35&#45;&gt;Node79</title>
<path fill="none" stroke="midnightblue" d="M628.17,-1075.88C635.42,-1072.45 642.14,-1067.81 647,-1061.5 739.45,-941.46 585.76,-838.69 683,-722.5 684,-721.31 685.05,-720.17 686.15,-719.09"/>
<polygon fill="midnightblue" stroke="midnightblue" points="688.49,-721.69 694.03,-712.66 684.07,-716.27 688.49,-721.69"/>
</g>
<!-- Node80 -->
<g id="node49" class="node">
<title>Node80</title>
<g id="a_node49"><a xlink:href="../../d1/d46/classPlayerDeathReason_a9cb3e688fdc8ef090d13267b5371bece.html#a9cb3e688fdc8ef090d13267b5371bece" target="_top" xlink:title=" ">
<polygon fill="white" stroke="black" points="684.5,-644 684.5,-663 855.5,-663 855.5,-644 684.5,-644"/>
<text text-anchor="middle" x="770" y="-651" font-family="Helvetica,sans-Serif" font-size="10.00">PlayerDeathReason.WriteSelfTo</text>
</a>
</g>
</g>
<!-- Node35&#45;&gt;Node80 -->
<g id="edge59" class="edge">
<title>Node35&#45;&gt;Node80</title>
<path fill="none" stroke="midnightblue" d="M628.24,-1075.93C635.48,-1072.5 642.19,-1067.84 647,-1061.5 699.38,-992.55 626.07,-738.75 683,-673.5 684.36,-671.94 685.82,-670.49 687.35,-669.14"/>
<polygon fill="midnightblue" stroke="midnightblue" points="689.56,-671.87 695.66,-663.21 685.49,-666.17 689.56,-671.87"/>
</g>
<!-- Node81 -->
<g id="node50" class="node">
<title>Node81</title>
<g id="a_node50"><a xlink:href="../../d9/d8f/structNetMessage_1_1NetSoundInfo_a4b2e61e150b062868171dafa4b656da9.html#a4b2e61e150b062868171dafa4b656da9" target="_top" xlink:title=" ">
<polygon fill="white" stroke="black" points="695.5,-594.5 695.5,-624.5 844.5,-624.5 844.5,-594.5 695.5,-594.5"/>
<text text-anchor="start" x="703.5" y="-612.5" font-family="Helvetica,sans-Serif" font-size="10.00">NetMessage.NetSoundInfo.</text>
<text text-anchor="middle" x="770" y="-601.5" font-family="Helvetica,sans-Serif" font-size="10.00">WriteSelfTo</text>
</a>
</g>
</g>
<!-- Node35&#45;&gt;Node81 -->
<g id="edge60" class="edge">
<title>Node35&#45;&gt;Node81</title>
<path fill="none" stroke="midnightblue" d="M628.28,-1075.97C635.52,-1072.53 642.21,-1067.86 647,-1061.5 704.28,-985.43 622.68,-708.18 683,-634.5 684.33,-632.88 685.76,-631.35 687.27,-629.93"/>
<polygon fill="midnightblue" stroke="midnightblue" points="689.72,-632.45 695.48,-623.56 685.43,-626.92 689.72,-632.45"/>
</g>
<!-- Node72&#45;&gt;Node71 -->
<g id="edge41" class="edge">
<title>Node72&#45;&gt;Node71</title>
<path fill="none" stroke="midnightblue" d="M843.03,-1457.15C856.22,-1458.55 869.93,-1460 882.96,-1461.38"/>
<polygon fill="midnightblue" stroke="midnightblue" points="882.93,-1464.9 893.24,-1462.48 883.67,-1457.94 882.93,-1464.9"/>
</g>
<!-- Node74&#45;&gt;Node67 -->
<g id="edge45" class="edge">
<title>Node74&#45;&gt;Node67</title>
<path fill="none" stroke="midnightblue" d="M831.43,-1363.93C840.24,-1361.46 849.02,-1358.37 857,-1354.5 887.59,-1339.67 916.94,-1312.91 934.22,-1295.42"/>
<polygon fill="midnightblue" stroke="midnightblue" points="936.84,-1297.74 941.27,-1288.12 931.8,-1292.88 936.84,-1297.74"/>
</g>
<!-- Node74&#45;&gt;Node68 -->
<g id="edge46" class="edge">
<title>Node74&#45;&gt;Node68</title>
<path fill="none" stroke="midnightblue" d="M846.65,-1381.53C858.61,-1382.8 870.9,-1384.1 882.65,-1385.35"/>
<polygon fill="midnightblue" stroke="midnightblue" points="882.5,-1388.85 892.81,-1386.43 883.24,-1381.89 882.5,-1388.85"/>
</g>
</g>
</svg>
