<?xml version="1.0" encoding="UTF-8" standalone="no"?>
<!DOCTYPE svg PUBLIC "-//W3C//DTD SVG 1.1//EN"
 "http://www.w3.org/Graphics/SVG/1.1/DTD/svg11.dtd">
<!-- Generated by graphviz version 2.43.0 (0)
 -->
<!-- Title: Utils.PrettifyPercentDisplay Pages: 1 -->
<svg width="1933pt" height="336pt"
 viewBox="0.00 0.00 1933.00 336.00" xmlns="http://www.w3.org/2000/svg" xmlns:xlink="http://www.w3.org/1999/xlink">
<g id="graph0" class="graph" transform="scale(1 1) rotate(0) translate(4 332)">
<title>Utils.PrettifyPercentDisplay</title>
<polygon fill="white" stroke="transparent" points="-4,4 -4,-332 1929,-332 1929,4 -4,4"/>
<!-- Node1 -->
<g id="node1" class="node">
<title>Node1</title>
<g id="a_node1"><a xlink:title=" ">
<polygon fill="#bfbfbf" stroke="black" points="1774,-150 1774,-169 1925,-169 1925,-150 1774,-150"/>
<text text-anchor="middle" x="1849.5" y="-157" font-family="Helvetica,sans-Serif" font-size="10.00">Utils.PrettifyPercentDisplay</text>
</a>
</g>
</g>
<!-- Node2 -->
<g id="node2" class="node">
<title>Node2</title>
<g id="a_node2"><a xlink:href="../../de/d91/classUIBestiaryTest_ad1b0bf0b46763c6e28180f654aa6a121.html#ad1b0bf0b46763c6e28180f654aa6a121" target="_top" xlink:title=" ">
<polygon fill="white" stroke="black" points="1571,-193.5 1571,-223.5 1735,-223.5 1735,-193.5 1571,-193.5"/>
<text text-anchor="start" x="1579" y="-211.5" font-family="Helvetica,sans-Serif" font-size="10.00">UIBestiaryTest.GetCompletion</text>
<text text-anchor="middle" x="1653" y="-200.5" font-family="Helvetica,sans-Serif" font-size="10.00">PercentText</text>
</a>
</g>
</g>
<!-- Node1&#45;&gt;Node2 -->
<g id="edge1" class="edge">
<title>Node1&#45;&gt;Node2</title>
<path fill="none" stroke="midnightblue" d="M1800.81,-171.51C1774.53,-178.14 1741.66,-186.42 1713.69,-193.46"/>
<polygon fill="midnightblue" stroke="midnightblue" points="1801.69,-174.9 1810.54,-169.06 1799.98,-168.11 1801.69,-174.9"/>
</g>
<!-- Node25 -->
<g id="node25" class="node">
<title>Node25</title>
<g id="a_node25"><a xlink:href="../../d1/da8/classUIBestiaryInfoItemLine_a1746d44aa16e3dab479f5dbdac694c07.html#a1746d44aa16e3dab479f5dbdac694c07" target="_top" xlink:title=" ">
<polygon fill="white" stroke="black" points="1578.5,-144.5 1578.5,-174.5 1727.5,-174.5 1727.5,-144.5 1578.5,-144.5"/>
<text text-anchor="start" x="1586.5" y="-162.5" font-family="Helvetica,sans-Serif" font-size="10.00">UIBestiaryInfoItemLine.Get</text>
<text text-anchor="middle" x="1653" y="-151.5" font-family="Helvetica,sans-Serif" font-size="10.00">DropInfo</text>
</a>
</g>
</g>
<!-- Node1&#45;&gt;Node25 -->
<g id="edge31" class="edge">
<title>Node1&#45;&gt;Node25</title>
<path fill="none" stroke="midnightblue" d="M1763.85,-159.5C1751.85,-159.5 1739.58,-159.5 1727.8,-159.5"/>
<polygon fill="midnightblue" stroke="midnightblue" points="1763.86,-163 1773.86,-159.5 1763.86,-156 1763.86,-163"/>
</g>
<!-- Node27 -->
<g id="node27" class="node">
<title>Node27</title>
<g id="a_node27"><a xlink:href="../../db/db0/classUnlockProgressDisplayBestiaryInfoElement_a0eba036244b36b18a76f2be195f22ce6.html#a0eba036244b36b18a76f2be195f22ce6" target="_top" xlink:title=" ">
<polygon fill="white" stroke="black" points="1568,-95.5 1568,-125.5 1738,-125.5 1738,-95.5 1568,-95.5"/>
<text text-anchor="start" x="1576" y="-113.5" font-family="Helvetica,sans-Serif" font-size="10.00">UnlockProgressDisplayBestiary</text>
<text text-anchor="middle" x="1653" y="-102.5" font-family="Helvetica,sans-Serif" font-size="10.00">InfoElement.ProvideUIElement</text>
</a>
</g>
</g>
<!-- Node1&#45;&gt;Node27 -->
<g id="edge33" class="edge">
<title>Node1&#45;&gt;Node27</title>
<path fill="none" stroke="midnightblue" d="M1800.81,-147.49C1774.53,-140.86 1741.66,-132.58 1713.69,-125.54"/>
<polygon fill="midnightblue" stroke="midnightblue" points="1799.98,-150.89 1810.54,-149.94 1801.69,-144.1 1799.98,-150.89"/>
</g>
<!-- Node3 -->
<g id="node3" class="node">
<title>Node3</title>
<g id="a_node3"><a xlink:href="../../de/d91/classUIBestiaryTest_a6c554fdb161f232356bc271064066cfc.html#a6c554fdb161f232356bc271064066cfc" target="_top" xlink:title=" ">
<polygon fill="white" stroke="black" points="1370,-280.5 1370,-310.5 1511,-310.5 1511,-280.5 1370,-280.5"/>
<text text-anchor="start" x="1378" y="-298.5" font-family="Helvetica,sans-Serif" font-size="10.00">UIBestiaryTest.ShowStats</text>
<text text-anchor="middle" x="1440.5" y="-287.5" font-family="Helvetica,sans-Serif" font-size="10.00">_Completion</text>
</a>
</g>
</g>
<!-- Node2&#45;&gt;Node3 -->
<g id="edge2" class="edge">
<title>Node2&#45;&gt;Node3</title>
<path fill="none" stroke="midnightblue" d="M1605.93,-227.54C1567.54,-243.41 1513.58,-265.71 1478.1,-280.37"/>
<polygon fill="midnightblue" stroke="midnightblue" points="1607.43,-230.71 1615.33,-223.65 1604.76,-224.24 1607.43,-230.71"/>
</g>
<!-- Node7 -->
<g id="node7" class="node">
<title>Node7</title>
<g id="a_node7"><a xlink:href="../../de/d91/classUIBestiaryTest_a356043c3b6091475739903bba06acf80.html#a356043c3b6091475739903bba06acf80" target="_top" xlink:title=" ">
<polygon fill="white" stroke="black" points="1357.5,-193.5 1357.5,-223.5 1523.5,-223.5 1523.5,-193.5 1357.5,-193.5"/>
<text text-anchor="start" x="1365.5" y="-211.5" font-family="Helvetica,sans-Serif" font-size="10.00">UIBestiaryTest.UpdateBestiary</text>
<text text-anchor="middle" x="1440.5" y="-200.5" font-family="Helvetica,sans-Serif" font-size="10.00">Contents</text>
</a>
</g>
</g>
<!-- Node2&#45;&gt;Node7 -->
<g id="edge6" class="edge">
<title>Node2&#45;&gt;Node7</title>
<path fill="none" stroke="midnightblue" d="M1560.64,-208.5C1548.32,-208.5 1535.73,-208.5 1523.59,-208.5"/>
<polygon fill="midnightblue" stroke="midnightblue" points="1560.92,-212 1570.92,-208.5 1560.92,-205 1560.92,-212"/>
</g>
<!-- Node4 -->
<g id="node4" class="node">
<title>Node4</title>
<g id="a_node4"><a xlink:href="../../de/d91/classUIBestiaryTest_a6eeba2a1eff4a79a590f19ddb4263d12.html#a6eeba2a1eff4a79a590f19ddb4263d12" target="_top" xlink:title=" ">
<polygon fill="white" stroke="black" points="756.5,-297.5 756.5,-327.5 902.5,-327.5 902.5,-297.5 756.5,-297.5"/>
<text text-anchor="start" x="764.5" y="-315.5" font-family="Helvetica,sans-Serif" font-size="10.00">UIBestiaryTest.FillProgress</text>
<text text-anchor="middle" x="829.5" y="-304.5" font-family="Helvetica,sans-Serif" font-size="10.00">BottomBar</text>
</a>
</g>
</g>
<!-- Node3&#45;&gt;Node4 -->
<g id="edge3" class="edge">
<title>Node3&#45;&gt;Node4</title>
<path fill="none" stroke="midnightblue" d="M1359.78,-297.73C1240.6,-301.05 1017.71,-307.27 902.92,-310.48"/>
<polygon fill="midnightblue" stroke="midnightblue" points="1360.04,-301.22 1369.94,-297.44 1359.84,-294.22 1360.04,-301.22"/>
</g>
<!-- Node5 -->
<g id="node5" class="node">
<title>Node5</title>
<g id="a_node5"><a xlink:href="../../de/d91/classUIBestiaryTest_af7120c96df1c359a5007dda30e6d0f07.html#af7120c96df1c359a5007dda30e6d0f07" target="_top" xlink:title=" ">
<polygon fill="white" stroke="black" points="582,-197 582,-216 720,-216 720,-197 582,-197"/>
<text text-anchor="middle" x="651" y="-204" font-family="Helvetica,sans-Serif" font-size="10.00">UIBestiaryTest.BuildPage</text>
</a>
</g>
</g>
<!-- Node4&#45;&gt;Node5 -->
<g id="edge4" class="edge">
<title>Node4&#45;&gt;Node5</title>
<path fill="none" stroke="midnightblue" d="M779.63,-293.36C771.59,-289.72 763.45,-285.71 756,-281.5 720.34,-261.35 682.22,-231.42 663.59,-216.18"/>
<polygon fill="midnightblue" stroke="midnightblue" points="778.42,-296.65 788.98,-297.47 781.24,-290.24 778.42,-296.65"/>
</g>
<!-- Node6 -->
<g id="node6" class="node">
<title>Node6</title>
<g id="a_node6"><a xlink:href="../../de/d91/classUIBestiaryTest_abc31eefa97def7e5abc46facdf38b967.html#abc31eefa97def7e5abc46facdf38b967" target="_top" xlink:title=" ">
<polygon fill="white" stroke="black" points="379,-197 379,-216 540,-216 540,-197 379,-197"/>
<text text-anchor="middle" x="459.5" y="-204" font-family="Helvetica,sans-Serif" font-size="10.00">UIBestiaryTest.UIBestiaryTest</text>
</a>
</g>
</g>
<!-- Node5&#45;&gt;Node6 -->
<g id="edge5" class="edge">
<title>Node5&#45;&gt;Node6</title>
<path fill="none" stroke="midnightblue" d="M571.62,-206.5C561.28,-206.5 550.67,-206.5 540.3,-206.5"/>
<polygon fill="midnightblue" stroke="midnightblue" points="571.85,-210 581.85,-206.5 571.85,-203 571.85,-210"/>
</g>
<!-- Node7&#45;&gt;Node5 -->
<g id="edge7" class="edge">
<title>Node7&#45;&gt;Node5</title>
<path fill="none" stroke="midnightblue" d="M1347.41,-209.06C1216.14,-209.73 967.63,-210.53 756,-208.5 744.44,-208.39 732.16,-208.21 720.25,-208"/>
<polygon fill="midnightblue" stroke="midnightblue" points="1347.45,-212.56 1357.43,-209.01 1347.41,-205.56 1347.45,-212.56"/>
</g>
<!-- Node8 -->
<g id="node8" class="node">
<title>Node8</title>
<g id="a_node8"><a xlink:href="../../de/d91/classUIBestiaryTest_a2a4ec593078556a64045bdf8adf1d950.html#a2a4ec593078556a64045bdf8adf1d950" target="_top" xlink:title=" ">
<polygon fill="white" stroke="black" points="1134.5,-180 1134.5,-199 1311.5,-199 1311.5,-180 1134.5,-180"/>
<text text-anchor="middle" x="1223" y="-187" font-family="Helvetica,sans-Serif" font-size="10.00">UIBestiaryTest.CloseFilteringGrid</text>
</a>
</g>
</g>
<!-- Node7&#45;&gt;Node8 -->
<g id="edge8" class="edge">
<title>Node7&#45;&gt;Node8</title>
<path fill="none" stroke="midnightblue" d="M1347.13,-200.36C1335.35,-199.32 1323.31,-198.26 1311.6,-197.22"/>
<polygon fill="midnightblue" stroke="midnightblue" points="1347.15,-203.87 1357.41,-201.26 1347.76,-196.9 1347.15,-203.87"/>
</g>
<!-- Node12 -->
<g id="node12" class="node">
<title>Node12</title>
<g id="a_node12"><a xlink:href="../../de/d91/classUIBestiaryTest_a56a7f181cdef913fc11a995f89fdbfcd.html#a56a7f181cdef913fc11a995f89fdbfcd" target="_top" xlink:title=" ">
<polygon fill="white" stroke="black" points="1137,-88 1137,-107 1309,-107 1309,-88 1137,-88"/>
<text text-anchor="middle" x="1223" y="-95" font-family="Helvetica,sans-Serif" font-size="10.00">UIBestiaryTest.CloseSortingGrid</text>
</a>
</g>
</g>
<!-- Node7&#45;&gt;Node12 -->
<g id="edge14" class="edge">
<title>Node7&#45;&gt;Node12</title>
<path fill="none" stroke="midnightblue" d="M1365.29,-190.2C1359.69,-188.16 1354.21,-185.93 1349,-183.5 1303.4,-162.25 1256.26,-124.84 1235.26,-107.21"/>
<polygon fill="midnightblue" stroke="midnightblue" points="1364.17,-193.52 1374.77,-193.47 1366.45,-186.9 1364.17,-193.52"/>
</g>
<!-- Node15 -->
<g id="node15" class="node">
<title>Node15</title>
<g id="a_node15"><a xlink:href="../../de/d91/classUIBestiaryTest_a0987d92bfaf7354bb886c4e84dad3272.html#a0987d92bfaf7354bb886c4e84dad3272" target="_top" xlink:title=" ">
<polygon fill="white" stroke="black" points="1147,-28 1147,-47 1299,-47 1299,-28 1147,-28"/>
<text text-anchor="middle" x="1223" y="-35" font-family="Helvetica,sans-Serif" font-size="10.00">UIBestiaryTest.OnOpenPage</text>
</a>
</g>
</g>
<!-- Node7&#45;&gt;Node15 -->
<g id="edge19" class="edge">
<title>Node7&#45;&gt;Node15</title>
<path fill="none" stroke="midnightblue" d="M1353.75,-187.54C1352.1,-186.27 1350.51,-184.92 1349,-183.5 1313.07,-149.69 1346.07,-115.11 1313,-78.5 1299.31,-63.35 1278.9,-53.4 1261.08,-47.09"/>
<polygon fill="midnightblue" stroke="midnightblue" points="1352.19,-190.7 1362.47,-193.27 1356.04,-184.85 1352.19,-190.7"/>
</g>
<!-- Node23 -->
<g id="node23" class="node">
<title>Node23</title>
<g id="a_node23"><a xlink:href="../../de/d91/classUIBestiaryTest_ae02d2b9ef090464f423732cb7344e7fe.html#ae02d2b9ef090464f423732cb7344e7fe" target="_top" xlink:title=" ">
<polygon fill="white" stroke="black" points="1133,-256.5 1133,-286.5 1313,-286.5 1313,-256.5 1133,-256.5"/>
<text text-anchor="start" x="1141" y="-274.5" font-family="Helvetica,sans-Serif" font-size="10.00">UIBestiaryTest.OnSearchContents</text>
<text text-anchor="middle" x="1223" y="-263.5" font-family="Helvetica,sans-Serif" font-size="10.00">Changed</text>
</a>
</g>
</g>
<!-- Node7&#45;&gt;Node23 -->
<g id="edge28" class="edge">
<title>Node7&#45;&gt;Node23</title>
<path fill="none" stroke="midnightblue" d="M1378.3,-226.39C1345.77,-235.9 1306.23,-247.46 1275.32,-256.5"/>
<polygon fill="midnightblue" stroke="midnightblue" points="1379.54,-229.68 1388.16,-223.51 1377.58,-222.96 1379.54,-229.68"/>
</g>
<!-- Node9 -->
<g id="node9" class="node">
<title>Node9</title>
<g id="a_node9"><a xlink:href="../../de/d91/classUIBestiaryTest_ac044b60cea18670bba4ce90bbe11154b.html#ac044b60cea18670bba4ce90bbe11154b" target="_top" xlink:title=" ">
<polygon fill="white" stroke="black" points="772.5,-169.5 772.5,-199.5 886.5,-199.5 886.5,-169.5 772.5,-169.5"/>
<text text-anchor="start" x="780.5" y="-187.5" font-family="Helvetica,sans-Serif" font-size="10.00">UIBestiaryTest.Click</text>
<text text-anchor="middle" x="829.5" y="-176.5" font-family="Helvetica,sans-Serif" font-size="10.00">_CloseFilteringGrid</text>
</a>
</g>
</g>
<!-- Node8&#45;&gt;Node9 -->
<g id="edge9" class="edge">
<title>Node8&#45;&gt;Node9</title>
<path fill="none" stroke="midnightblue" d="M1123.75,-188.25C1048.85,-187.29 948.39,-186.01 886.62,-185.22"/>
<polygon fill="midnightblue" stroke="midnightblue" points="1124.1,-191.75 1134.14,-188.38 1124.19,-184.75 1124.1,-191.75"/>
</g>
<!-- Node10 -->
<g id="node10" class="node">
<title>Node10</title>
<g id="a_node10"><a xlink:href="../../de/d91/classUIBestiaryTest_abfb41962b0436b8344f13505d2522f14.html#abfb41962b0436b8344f13505d2522f14" target="_top" xlink:title=" ">
<polygon fill="white" stroke="black" points="941,-131.5 941,-161.5 1095,-161.5 1095,-131.5 941,-131.5"/>
<text text-anchor="start" x="949" y="-149.5" font-family="Helvetica,sans-Serif" font-size="10.00">UIBestiaryTest.OpenOrClose</text>
<text text-anchor="middle" x="1018" y="-138.5" font-family="Helvetica,sans-Serif" font-size="10.00">FilteringGrid</text>
</a>
</g>
</g>
<!-- Node8&#45;&gt;Node10 -->
<g id="edge11" class="edge">
<title>Node8&#45;&gt;Node10</title>
<path fill="none" stroke="midnightblue" d="M1167.05,-177.86C1143.28,-172.82 1115.16,-166.87 1089.84,-161.51"/>
<polygon fill="midnightblue" stroke="midnightblue" points="1166.44,-181.31 1176.95,-179.96 1167.89,-174.46 1166.44,-181.31"/>
</g>
<!-- Node9&#45;&gt;Node5 -->
<g id="edge10" class="edge">
<title>Node9&#45;&gt;Node5</title>
<path fill="none" stroke="midnightblue" d="M761.9,-192.8C748.24,-194.5 733.85,-196.3 720.15,-198.01"/>
<polygon fill="midnightblue" stroke="midnightblue" points="762.68,-196.23 772.17,-191.52 761.81,-189.29 762.68,-196.23"/>
</g>
<!-- Node11 -->
<g id="node11" class="node">
<title>Node11</title>
<g id="a_node11"><a xlink:href="../../de/d91/classUIBestiaryTest_a129f92ba095639451dadc21c5a3fc7e6.html#a129f92ba095639451dadc21c5a3fc7e6" target="_top" xlink:title=" ">
<polygon fill="white" stroke="black" points="756,-120.5 756,-150.5 903,-150.5 903,-120.5 756,-120.5"/>
<text text-anchor="start" x="764" y="-138.5" font-family="Helvetica,sans-Serif" font-size="10.00">UIBestiaryTest.AddSortAnd</text>
<text text-anchor="middle" x="829.5" y="-127.5" font-family="Helvetica,sans-Serif" font-size="10.00">FilterButtons</text>
</a>
</g>
</g>
<!-- Node10&#45;&gt;Node11 -->
<g id="edge12" class="edge">
<title>Node10&#45;&gt;Node11</title>
<path fill="none" stroke="midnightblue" d="M930.85,-141.42C921.56,-140.87 912.18,-140.32 903.07,-139.78"/>
<polygon fill="midnightblue" stroke="midnightblue" points="930.69,-144.92 940.87,-142.01 931.1,-137.93 930.69,-144.92"/>
</g>
<!-- Node11&#45;&gt;Node5 -->
<g id="edge13" class="edge">
<title>Node11&#45;&gt;Node5</title>
<path fill="none" stroke="midnightblue" d="M770.92,-153.95C765.85,-155.76 760.82,-157.62 756,-159.5 726.1,-171.17 692.39,-186.89 671.67,-196.86"/>
<polygon fill="midnightblue" stroke="midnightblue" points="772.38,-157.14 780.67,-150.54 770.07,-150.53 772.38,-157.14"/>
</g>
<!-- Node13 -->
<g id="node13" class="node">
<title>Node13</title>
<g id="a_node13"><a xlink:href="../../de/d91/classUIBestiaryTest_a7a7b9d7b2845be15f025c3e8b9e7f19b.html#a7a7b9d7b2845be15f025c3e8b9e7f19b" target="_top" xlink:title=" ">
<polygon fill="white" stroke="black" points="772.5,-58.5 772.5,-88.5 886.5,-88.5 886.5,-58.5 772.5,-58.5"/>
<text text-anchor="start" x="780.5" y="-76.5" font-family="Helvetica,sans-Serif" font-size="10.00">UIBestiaryTest.Click</text>
<text text-anchor="middle" x="829.5" y="-65.5" font-family="Helvetica,sans-Serif" font-size="10.00">_CloseSortingGrid</text>
</a>
</g>
</g>
<!-- Node12&#45;&gt;Node13 -->
<g id="edge15" class="edge">
<title>Node12&#45;&gt;Node13</title>
<path fill="none" stroke="midnightblue" d="M1174.61,-85.73C1151.38,-80.55 1122.9,-75.06 1097,-72.5 1027.12,-65.58 1009.22,-72.18 939,-72.5 921.95,-72.58 903.4,-72.73 886.53,-72.89"/>
<polygon fill="midnightblue" stroke="midnightblue" points="1174.02,-89.18 1184.55,-88 1175.58,-82.36 1174.02,-89.18"/>
</g>
<!-- Node14 -->
<g id="node14" class="node">
<title>Node14</title>
<g id="a_node14"><a xlink:href="../../de/d91/classUIBestiaryTest_acfca4d5d0fff22ac0fa4af2168709a83.html#acfca4d5d0fff22ac0fa4af2168709a83" target="_top" xlink:title=" ">
<polygon fill="white" stroke="black" points="941,-82.5 941,-112.5 1095,-112.5 1095,-82.5 941,-82.5"/>
<text text-anchor="start" x="949" y="-100.5" font-family="Helvetica,sans-Serif" font-size="10.00">UIBestiaryTest.OpenOrClose</text>
<text text-anchor="middle" x="1018" y="-89.5" font-family="Helvetica,sans-Serif" font-size="10.00">SortingOptions</text>
</a>
</g>
</g>
<!-- Node12&#45;&gt;Node14 -->
<g id="edge17" class="edge">
<title>Node12&#45;&gt;Node14</title>
<path fill="none" stroke="midnightblue" d="M1126.72,-97.5C1116.18,-97.5 1105.54,-97.5 1095.27,-97.5"/>
<polygon fill="midnightblue" stroke="midnightblue" points="1126.79,-101 1136.79,-97.5 1126.79,-94 1126.79,-101"/>
</g>
<!-- Node13&#45;&gt;Node5 -->
<g id="edge16" class="edge">
<title>Node13&#45;&gt;Node5</title>
<path fill="none" stroke="midnightblue" d="M785.24,-93.13C775.33,-98.29 765.05,-104.19 756,-110.5 717.09,-137.62 677.74,-178.41 660.73,-196.85"/>
<polygon fill="midnightblue" stroke="midnightblue" points="786.84,-96.24 794.19,-88.61 783.69,-89.99 786.84,-96.24"/>
</g>
<!-- Node14&#45;&gt;Node11 -->
<g id="edge18" class="edge">
<title>Node14&#45;&gt;Node11</title>
<path fill="none" stroke="midnightblue" d="M933.28,-114.56C923.2,-116.61 912.97,-118.7 903.06,-120.71"/>
<polygon fill="midnightblue" stroke="midnightblue" points="934.19,-117.94 943.29,-112.52 932.79,-111.09 934.19,-117.94"/>
</g>
<!-- Node16 -->
<g id="node16" class="node">
<title>Node16</title>
<g id="a_node16"><a xlink:href="../../db/d4a/classMain_aa55247d2b21fd219acb5ea5a1d1524cc.html#aa55247d2b21fd219acb5ea5a1d1524cc" target="_top" xlink:title=" ">
<polygon fill="white" stroke="black" points="953,-6 953,-25 1083,-25 1083,-6 953,-6"/>
<text text-anchor="middle" x="1018" y="-13" font-family="Helvetica,sans-Serif" font-size="10.00">Main.DrawBestiaryIcon</text>
</a>
</g>
</g>
<!-- Node15&#45;&gt;Node16 -->
<g id="edge20" class="edge">
<title>Node15&#45;&gt;Node16</title>
<path fill="none" stroke="midnightblue" d="M1137.04,-28.29C1118.96,-26.33 1100.17,-24.3 1083.04,-22.44"/>
<polygon fill="midnightblue" stroke="midnightblue" points="1136.67,-31.77 1146.99,-29.37 1137.42,-24.81 1136.67,-31.77"/>
</g>
<!-- Node17 -->
<g id="node17" class="node">
<title>Node17</title>
<g id="a_node17"><a xlink:href="../../db/d4a/classMain_ac23e03f1a3a425224bfed8bc8eae8397.html#ac23e03f1a3a425224bfed8bc8eae8397" target="_top" xlink:title=" ">
<polygon fill="white" stroke="black" points="771.5,-6 771.5,-25 887.5,-25 887.5,-6 771.5,-6"/>
<text text-anchor="middle" x="829.5" y="-13" font-family="Helvetica,sans-Serif" font-size="10.00">Main.DrawInventory</text>
</a>
</g>
</g>
<!-- Node16&#45;&gt;Node17 -->
<g id="edge21" class="edge">
<title>Node16&#45;&gt;Node17</title>
<path fill="none" stroke="midnightblue" d="M942.75,-15.5C924.39,-15.5 905.02,-15.5 887.62,-15.5"/>
<polygon fill="midnightblue" stroke="midnightblue" points="942.82,-19 952.82,-15.5 942.82,-12 942.82,-19"/>
</g>
<!-- Node18 -->
<g id="node18" class="node">
<title>Node18</title>
<g id="a_node18"><a xlink:href="../../db/d4a/classMain_ab9585a9a2fbc71c67b8ae3a91c5ef880.html#ab9585a9a2fbc71c67b8ae3a91c5ef880" target="_top" xlink:title=" ">
<polygon fill="white" stroke="black" points="594.5,-0.5 594.5,-30.5 707.5,-30.5 707.5,-0.5 594.5,-0.5"/>
<text text-anchor="start" x="602.5" y="-18.5" font-family="Helvetica,sans-Serif" font-size="10.00">Main.DrawInterface</text>
<text text-anchor="middle" x="651" y="-7.5" font-family="Helvetica,sans-Serif" font-size="10.00">_27_Inventory</text>
</a>
</g>
</g>
<!-- Node17&#45;&gt;Node18 -->
<g id="edge22" class="edge">
<title>Node17&#45;&gt;Node18</title>
<path fill="none" stroke="midnightblue" d="M760.96,-15.5C743.3,-15.5 724.47,-15.5 707.51,-15.5"/>
<polygon fill="midnightblue" stroke="midnightblue" points="761.2,-19 771.2,-15.5 761.2,-12 761.2,-19"/>
</g>
<!-- Node19 -->
<g id="node19" class="node">
<title>Node19</title>
<g id="a_node19"><a xlink:href="../../db/d4a/classMain_aaf00fdabdb1a5736ff0443825f2d4324.html#aaf00fdabdb1a5736ff0443825f2d4324" target="_top" xlink:title=" ">
<polygon fill="white" stroke="black" points="373,-6 373,-25 546,-25 546,-6 373,-6"/>
<text text-anchor="middle" x="459.5" y="-13" font-family="Helvetica,sans-Serif" font-size="10.00">Main.SetupDrawInterfaceLayers</text>
</a>
</g>
</g>
<!-- Node18&#45;&gt;Node19 -->
<g id="edge23" class="edge">
<title>Node18&#45;&gt;Node19</title>
<path fill="none" stroke="midnightblue" d="M584.25,-15.5C571.91,-15.5 558.84,-15.5 546,-15.5"/>
<polygon fill="midnightblue" stroke="midnightblue" points="584.42,-19 594.42,-15.5 584.42,-12 584.42,-19"/>
</g>
<!-- Node20 -->
<g id="node20" class="node">
<title>Node20</title>
<g id="a_node20"><a xlink:href="../../db/d4a/classMain_a394be66e030c385131f8239af0bd3af0.html#a394be66e030c385131f8239af0bd3af0" target="_top" xlink:title=" ">
<polygon fill="white" stroke="black" points="224,-6 224,-25 337,-25 337,-6 224,-6"/>
<text text-anchor="middle" x="280.5" y="-13" font-family="Helvetica,sans-Serif" font-size="10.00">Main.DrawInterface</text>
</a>
</g>
</g>
<!-- Node19&#45;&gt;Node20 -->
<g id="edge24" class="edge">
<title>Node19&#45;&gt;Node20</title>
<path fill="none" stroke="midnightblue" d="M362.58,-15.5C353.85,-15.5 345.22,-15.5 337.03,-15.5"/>
<polygon fill="midnightblue" stroke="midnightblue" points="362.85,-19 372.85,-15.5 362.85,-12 362.85,-19"/>
</g>
<!-- Node21 -->
<g id="node21" class="node">
<title>Node21</title>
<g id="a_node21"><a xlink:href="../../db/d4a/classMain_a4ca48570ee8c9e54ed5371ecb4ab1877.html#a4ca48570ee8c9e54ed5371ecb4ab1877" target="_top" xlink:title=" ">
<polygon fill="white" stroke="black" points="105,-6 105,-25 188,-25 188,-6 105,-6"/>
<text text-anchor="middle" x="146.5" y="-13" font-family="Helvetica,sans-Serif" font-size="10.00">Main.DoDraw</text>
</a>
</g>
</g>
<!-- Node20&#45;&gt;Node21 -->
<g id="edge25" class="edge">
<title>Node20&#45;&gt;Node21</title>
<path fill="none" stroke="midnightblue" d="M213.72,-15.5C205.02,-15.5 196.3,-15.5 188.19,-15.5"/>
<polygon fill="midnightblue" stroke="midnightblue" points="213.9,-19 223.9,-15.5 213.9,-12 213.9,-19"/>
</g>
<!-- Node22 -->
<g id="node22" class="node">
<title>Node22</title>
<g id="a_node22"><a xlink:href="../../db/d4a/classMain_a9df405f7c9ce2e93e9af9bbf70231672.html#a9df405f7c9ce2e93e9af9bbf70231672" target="_top" xlink:title=" ">
<polygon fill="white" stroke="black" points="0,-6 0,-25 69,-25 69,-6 0,-6"/>
<text text-anchor="middle" x="34.5" y="-13" font-family="Helvetica,sans-Serif" font-size="10.00">Main.Draw</text>
</a>
</g>
</g>
<!-- Node21&#45;&gt;Node22 -->
<g id="edge26" class="edge">
<title>Node21&#45;&gt;Node22</title>
<path fill="none" stroke="midnightblue" d="M94.77,-8.77C86.08,-8.69 77.24,-8.85 69.14,-9.22"/>
<polygon fill="midnightblue" stroke="midnightblue" points="94.79,-12.27 104.85,-8.96 94.92,-5.27 94.79,-12.27"/>
</g>
<!-- Node22&#45;&gt;Node21 -->
<g id="edge27" class="edge">
<title>Node22&#45;&gt;Node21</title>
<path fill="none" stroke="midnightblue" d="M79.21,-22.12C87.67,-22.32 96.5,-22.29 104.85,-22.04"/>
<polygon fill="midnightblue" stroke="midnightblue" points="79.25,-18.62 69.14,-21.78 79.01,-25.62 79.25,-18.62"/>
</g>
<!-- Node24 -->
<g id="node24" class="node">
<title>Node24</title>
<g id="a_node24"><a xlink:href="../../de/d91/classUIBestiaryTest_a6112ba2771e829e328f8664f3b1d9886.html#a6112ba2771e829e328f8664f3b1d9886" target="_top" xlink:title=" ">
<polygon fill="white" stroke="black" points="939,-260 939,-279 1097,-279 1097,-260 939,-260"/>
<text text-anchor="middle" x="1018" y="-267" font-family="Helvetica,sans-Serif" font-size="10.00">UIBestiaryTest.AddSearchBar</text>
</a>
</g>
</g>
<!-- Node23&#45;&gt;Node24 -->
<g id="edge29" class="edge">
<title>Node23&#45;&gt;Node24</title>
<path fill="none" stroke="midnightblue" d="M1122.85,-270.52C1114.22,-270.44 1105.57,-270.35 1097.14,-270.27"/>
<polygon fill="midnightblue" stroke="midnightblue" points="1122.93,-274.02 1132.96,-270.62 1123,-267.02 1122.93,-274.02"/>
</g>
<!-- Node24&#45;&gt;Node5 -->
<g id="edge30" class="edge">
<title>Node24&#45;&gt;Node5</title>
<path fill="none" stroke="midnightblue" d="M928.88,-265.44C877.91,-261.84 812.81,-255.09 756,-242.5 727.27,-236.13 695.47,-224.4 674.69,-216.06"/>
<polygon fill="midnightblue" stroke="midnightblue" points="928.66,-268.94 938.88,-266.12 929.14,-261.95 928.66,-268.94"/>
</g>
<!-- Node26 -->
<g id="node26" class="node">
<title>Node26</title>
<g id="a_node26"><a xlink:href="../../d1/da8/classUIBestiaryInfoItemLine_a702cce355ebceba9ba6e138e94be7cbe.html#a702cce355ebceba9ba6e138e94be7cbe" target="_top" xlink:title=" ">
<polygon fill="white" stroke="black" points="1349,-144.5 1349,-174.5 1532,-174.5 1532,-144.5 1349,-144.5"/>
<text text-anchor="start" x="1357" y="-162.5" font-family="Helvetica,sans-Serif" font-size="10.00">UIBestiaryInfoItemLine.UIBestiary</text>
<text text-anchor="middle" x="1440.5" y="-151.5" font-family="Helvetica,sans-Serif" font-size="10.00">InfoItemLine</text>
</a>
</g>
</g>
<!-- Node25&#45;&gt;Node26 -->
<g id="edge32" class="edge">
<title>Node25&#45;&gt;Node26</title>
<path fill="none" stroke="midnightblue" d="M1568.1,-159.5C1556.27,-159.5 1544.06,-159.5 1532.12,-159.5"/>
<polygon fill="midnightblue" stroke="midnightblue" points="1568.38,-163 1578.38,-159.5 1568.38,-156 1568.38,-163"/>
</g>
</g>
</svg>
