<?xml version="1.0" encoding="UTF-8" standalone="no"?>
<!DOCTYPE svg PUBLIC "-//W3C//DTD SVG 1.1//EN"
 "http://www.w3.org/Graphics/SVG/1.1/DTD/svg11.dtd">
<!-- Generated by graphviz version 2.43.0 (0)
 -->
<!-- Title: ReLogic.Peripherals.RGB.RgbKeyboard Pages: 1 -->
<svg width="645pt" height="1096pt"
 viewBox="0.00 0.00 644.50 1096.00" xmlns="http://www.w3.org/2000/svg" xmlns:xlink="http://www.w3.org/1999/xlink">
<g id="graph0" class="graph" transform="scale(1 1) rotate(0) translate(4 1092)">
<title>ReLogic.Peripherals.RGB.RgbKeyboard</title>
<!-- Node1 -->
<g id="Node000001" class="node">
<title>Node1</title>
<g id="a_Node000001"><a xlink:title=" ">
<polygon fill="#999999" stroke="transparent" points="369.5,-108 193.5,-108 193.5,0 369.5,0 369.5,-108"/>
<text text-anchor="start" x="219.5" y="-96" font-family="Helvetica,sans-Serif" font-size="10.00">ReLogic.Peripherals.RGB.</text>
<text text-anchor="start" x="249" y="-85" font-family="Helvetica,sans-Serif" font-size="10.00">RgbKeyboard</text>
<text text-anchor="start" x="279.5" y="-70" font-family="Helvetica,sans-Serif" font-size="10.00"> </text>
<text text-anchor="start" x="197.5" y="-55" font-family="Helvetica,sans-Serif" font-size="10.00">+</text>
<text text-anchor="start" x="210.5" y="-55" font-family="Helvetica,sans-Serif" font-size="10.00">void Render(IEnumerable</text>
<text text-anchor="start" x="210.5" y="-44" font-family="Helvetica,sans-Serif" font-size="10.00">&lt; RgbKey &gt; keys)</text>
<text text-anchor="start" x="197.5" y="-29" font-family="Helvetica,sans-Serif" font-size="10.00">#</text>
<text text-anchor="start" x="210.5" y="-29" font-family="Helvetica,sans-Serif" font-size="10.00">RgbKeyboard(RgbDeviceVendor</text>
<text text-anchor="start" x="210.5" y="-18" font-family="Helvetica,sans-Serif" font-size="10.00"> vendor, Fragment fragment,</text>
<text text-anchor="start" x="210.5" y="-7" font-family="Helvetica,sans-Serif" font-size="10.00"> DeviceColorProfile colorProfile)</text>
<polygon fill="#666666" stroke="#666666" points="193.5,-80 193.5,-80 369.5,-80 369.5,-80 193.5,-80"/>
<polygon fill="#666666" stroke="#666666" points="193.5,-65 193.5,-65 369.5,-65 369.5,-65 193.5,-65"/>
<polygon fill="none" stroke="#666666" points="193.5,0 193.5,-108 369.5,-108 369.5,0 193.5,0"/>
</a>
</g>
</g>
<!-- Node2 -->
<g id="Node000002" class="node">
<title>Node2</title>
<g id="a_Node000002"><a xlink:href="../../d0/dc0/classReLogic_1_1Peripherals_1_1RGB_1_1RgbDevice.html" target="_top" xlink:title=" ">
<polygon fill="white" stroke="transparent" points="389,-513 174,-513 174,-145 389,-145 389,-513"/>
<text text-anchor="start" x="255.5" y="-501" font-family="Helvetica,sans-Serif" font-size="10.00">RgbDevice</text>
<text text-anchor="start" x="178.5" y="-486" font-family="Helvetica,sans-Serif" font-size="10.00">+</text>
<text text-anchor="start" x="191.5" y="-486" font-family="Helvetica,sans-Serif" font-size="10.00">EffectDetailLevel Preferred</text>
<text text-anchor="start" x="191.5" y="-475" font-family="Helvetica,sans-Serif" font-size="10.00">LevelOfDetail</text>
<text text-anchor="start" x="178.5" y="-460" font-family="Helvetica,sans-Serif" font-size="10.00">+</text>
<text text-anchor="start" x="191.5" y="-460" font-family="Helvetica,sans-Serif" font-size="10.00">int LedCount</text>
<text text-anchor="start" x="178.5" y="-445" font-family="Helvetica,sans-Serif" font-size="10.00">+</text>
<text text-anchor="start" x="191.5" y="-445" font-family="Helvetica,sans-Serif" font-size="10.00">virtual Fragment Rasterize()</text>
<text text-anchor="start" x="178.5" y="-430" font-family="Helvetica,sans-Serif" font-size="10.00">+</text>
<text text-anchor="start" x="191.5" y="-430" font-family="Helvetica,sans-Serif" font-size="10.00">void SetLedColor(int</text>
<text text-anchor="start" x="191.5" y="-419" font-family="Helvetica,sans-Serif" font-size="10.00"> index, Vector4 color)</text>
<text text-anchor="start" x="178.5" y="-404" font-family="Helvetica,sans-Serif" font-size="10.00">+</text>
<text text-anchor="start" x="191.5" y="-404" font-family="Helvetica,sans-Serif" font-size="10.00">Vector2 GetLedCanvasPosition</text>
<text text-anchor="start" x="191.5" y="-393" font-family="Helvetica,sans-Serif" font-size="10.00">(int index)</text>
<text text-anchor="start" x="178.5" y="-378" font-family="Helvetica,sans-Serif" font-size="10.00">+</text>
<text text-anchor="start" x="191.5" y="-378" font-family="Helvetica,sans-Serif" font-size="10.00">Point GetLedGridPosition</text>
<text text-anchor="start" x="191.5" y="-367" font-family="Helvetica,sans-Serif" font-size="10.00">(int index)</text>
<text text-anchor="start" x="178.5" y="-352" font-family="Helvetica,sans-Serif" font-size="10.00">+</text>
<text text-anchor="start" x="191.5" y="-352" font-family="Helvetica,sans-Serif" font-size="10.00">virtual void Render</text>
<text text-anchor="start" x="191.5" y="-341" font-family="Helvetica,sans-Serif" font-size="10.00">(Fragment fragment,</text>
<text text-anchor="start" x="191.5" y="-330" font-family="Helvetica,sans-Serif" font-size="10.00"> ShaderBlendState blendState)</text>
<text text-anchor="start" x="178.5" y="-315" font-family="Helvetica,sans-Serif" font-size="10.00">+</text>
<text text-anchor="start" x="191.5" y="-315" font-family="Helvetica,sans-Serif" font-size="10.00">void Present()</text>
<text text-anchor="start" x="178.5" y="-300" font-family="Helvetica,sans-Serif" font-size="10.00">+</text>
<text text-anchor="start" x="191.5" y="-300" font-family="Helvetica,sans-Serif" font-size="10.00">virtual void DebugDraw</text>
<text text-anchor="start" x="191.5" y="-289" font-family="Helvetica,sans-Serif" font-size="10.00">(IDebugDrawer drawer,</text>
<text text-anchor="start" x="191.5" y="-278" font-family="Helvetica,sans-Serif" font-size="10.00"> Vector2 position, float scale)</text>
<text text-anchor="start" x="178.5" y="-263" font-family="Helvetica,sans-Serif" font-size="10.00">#</text>
<text text-anchor="start" x="191.5" y="-263" font-family="Helvetica,sans-Serif" font-size="10.00">RgbDevice(RgbDeviceVendor</text>
<text text-anchor="start" x="191.5" y="-252" font-family="Helvetica,sans-Serif" font-size="10.00"> vendor, RgbDeviceType type,</text>
<text text-anchor="start" x="191.5" y="-241" font-family="Helvetica,sans-Serif" font-size="10.00"> Fragment fragment, DeviceColorProfile</text>
<text text-anchor="start" x="191.5" y="-230" font-family="Helvetica,sans-Serif" font-size="10.00"> colorProfile)</text>
<text text-anchor="start" x="178.5" y="-215" font-family="Helvetica,sans-Serif" font-size="10.00">#</text>
<text text-anchor="start" x="191.5" y="-215" font-family="Helvetica,sans-Serif" font-size="10.00">Vector4 GetProcessedLedColor</text>
<text text-anchor="start" x="191.5" y="-204" font-family="Helvetica,sans-Serif" font-size="10.00">(int index)</text>
<text text-anchor="start" x="178.5" y="-189" font-family="Helvetica,sans-Serif" font-size="10.00">#</text>
<text text-anchor="start" x="191.5" y="-189" font-family="Helvetica,sans-Serif" font-size="10.00">Vector4 GetUnprocessedLed</text>
<text text-anchor="start" x="191.5" y="-178" font-family="Helvetica,sans-Serif" font-size="10.00">Color(int index)</text>
<text text-anchor="start" x="178.5" y="-163" font-family="Helvetica,sans-Serif" font-size="10.00">#</text>
<text text-anchor="start" x="191.5" y="-163" font-family="Helvetica,sans-Serif" font-size="10.00">Color ProcessLedColor</text>
<text text-anchor="start" x="191.5" y="-152" font-family="Helvetica,sans-Serif" font-size="10.00">(Color color)</text>
<polygon fill="#666666" stroke="#666666" points="174.5,-496 174.5,-496 389.5,-496 389.5,-496 174.5,-496"/>
<polygon fill="#666666" stroke="#666666" points="174.5,-455 174.5,-455 189.5,-455 189.5,-455 174.5,-455"/>
<polygon fill="#666666" stroke="#666666" points="189.5,-455 189.5,-455 389.5,-455 389.5,-455 189.5,-455"/>
<polygon fill="none" stroke="#666666" points="174,-145 174,-513 389,-513 389,-145 174,-145"/>
</a>
</g>
</g>
<!-- Node2&#45;&gt;Node1 -->
<g id="edge1_Node000001_Node000002" class="edge">
<title>Node2&#45;&gt;Node1</title>
<g id="a_edge1_Node000001_Node000002"><a xlink:title=" ">
<path fill="none" stroke="#63b8ff" d="M281.5,-134.58C281.5,-125.33 281.5,-116.51 281.5,-108.33"/>
<polygon fill="none" stroke="#63b8ff" points="278,-134.77 281.5,-144.77 285,-134.77 278,-134.77"/>
</a>
</g>
</g>
<!-- Node3 -->
<g id="Node000003" class="node">
<title>Node3</title>
<g id="a_Node000003"><a xlink:title=" ">
<polygon fill="white" stroke="transparent" points="131,-806 0,-806 0,-757 131,-757 131,-806"/>
<text text-anchor="start" x="5.5" y="-793.5" font-family="Helvetica,sans-Serif" font-size="10.00">readonly RgbDeviceType</text>
<text text-anchor="start" x="64" y="-778.5" font-family="Helvetica,sans-Serif" font-size="10.00"> </text>
<text text-anchor="start" x="64" y="-763.5" font-family="Helvetica,sans-Serif" font-size="10.00"> </text>
<polygon fill="#666666" stroke="#666666" points="0.5,-788.5 0.5,-788.5 131.5,-788.5 131.5,-788.5 0.5,-788.5"/>
<polygon fill="#666666" stroke="#666666" points="0.5,-773.5 0.5,-773.5 131.5,-773.5 131.5,-773.5 0.5,-773.5"/>
<polygon fill="none" stroke="#666666" points="0,-757 0,-806 131,-806 131,-757 0,-757"/>
</a>
</g>
</g>
<!-- Node3&#45;&gt;Node2 -->
<g id="edge2_Node000002_Node000003" class="edge">
<title>Node3&#45;&gt;Node2</title>
<g id="a_edge2_Node000002_Node000003"><a xlink:title=" ">
<path fill="none" stroke="#63b8ff" d="M72.18,-756.98C83.73,-717.6 109.12,-636.21 139.5,-571 148.2,-552.33 157.91,-533.23 168.07,-514.36"/>
<polygon fill="none" stroke="#63b8ff" points="168.19,-514.13 167.54,-506.95 173.92,-503.59 174.57,-510.77 168.19,-514.13"/>
</a>
</g>
<text text-anchor="middle" x="173.5" y="-539.5" font-family="Helvetica,sans-Serif" font-size="10.00" fill="grey"> +Type</text>
</g>
<!-- Node4 -->
<g id="Node000004" class="node">
<title>Node4</title>
<g id="a_Node000004"><a xlink:title=" ">
<polygon fill="white" stroke="transparent" points="292,-806 149,-806 149,-757 292,-757 292,-806"/>
<text text-anchor="start" x="154.5" y="-793.5" font-family="Helvetica,sans-Serif" font-size="10.00">readonly RgbDeviceVendor</text>
<text text-anchor="start" x="219" y="-778.5" font-family="Helvetica,sans-Serif" font-size="10.00"> </text>
<text text-anchor="start" x="219" y="-763.5" font-family="Helvetica,sans-Serif" font-size="10.00"> </text>
<polygon fill="#666666" stroke="#666666" points="149.5,-788.5 149.5,-788.5 292.5,-788.5 292.5,-788.5 149.5,-788.5"/>
<polygon fill="#666666" stroke="#666666" points="149.5,-773.5 149.5,-773.5 292.5,-773.5 292.5,-773.5 149.5,-773.5"/>
<polygon fill="none" stroke="#666666" points="149,-757 149,-806 292,-806 292,-757 149,-757"/>
</a>
</g>
</g>
<!-- Node4&#45;&gt;Node2 -->
<g id="edge3_Node000002_Node000004" class="edge">
<title>Node4&#45;&gt;Node2</title>
<g id="a_edge3_Node000002_Node000004"><a xlink:title=" ">
<path fill="none" stroke="#63b8ff" d="M223.69,-756.91C229.61,-713.25 242.77,-616 255.05,-525.33"/>
<polygon fill="none" stroke="#63b8ff" points="255.09,-525.06 251.93,-518.57 256.7,-513.16 259.86,-519.65 255.09,-525.06"/>
</a>
</g>
<text text-anchor="middle" x="276.5" y="-539.5" font-family="Helvetica,sans-Serif" font-size="10.00" fill="grey"> +Vendor</text>
</g>
<!-- Node5 -->
<g id="Node000005" class="node">
<title>Node5</title>
<g id="a_Node000005"><a xlink:href="../../da/dd6/classReLogic_1_1Peripherals_1_1RGB_1_1Fragment.html" target="_top" xlink:title=" ">
<polygon fill="white" stroke="transparent" points="484.5,-992 310.5,-992 310.5,-571 484.5,-571 484.5,-992"/>
<text text-anchor="start" x="335.5" y="-979.5" font-family="Helvetica,sans-Serif" font-size="10.00">ReLogic.Peripherals.RGB.</text>
<text text-anchor="start" x="374" y="-968.5" font-family="Helvetica,sans-Serif" font-size="10.00">Fragment</text>
<text text-anchor="start" x="314.5" y="-953.5" font-family="Helvetica,sans-Serif" font-size="10.00">+</text>
<text text-anchor="start" x="327.5" y="-953.5" font-family="Helvetica,sans-Serif" font-size="10.00">Vector2 CanvasTopLeft</text>
<text text-anchor="start" x="314.5" y="-938.5" font-family="Helvetica,sans-Serif" font-size="10.00">+</text>
<text text-anchor="start" x="327.5" y="-938.5" font-family="Helvetica,sans-Serif" font-size="10.00">Vector2 CanvasBottomRight</text>
<text text-anchor="start" x="314.5" y="-923.5" font-family="Helvetica,sans-Serif" font-size="10.00">+</text>
<text text-anchor="start" x="327.5" y="-923.5" font-family="Helvetica,sans-Serif" font-size="10.00">Vector2 CanvasSize</text>
<text text-anchor="start" x="314.5" y="-908.5" font-family="Helvetica,sans-Serif" font-size="10.00">+</text>
<text text-anchor="start" x="327.5" y="-908.5" font-family="Helvetica,sans-Serif" font-size="10.00">Vector2 CanvasCenter</text>
<text text-anchor="start" x="314.5" y="-893.5" font-family="Helvetica,sans-Serif" font-size="10.00">+</text>
<text text-anchor="start" x="327.5" y="-893.5" font-family="Helvetica,sans-Serif" font-size="10.00">Fragment CreateCopy()</text>
<text text-anchor="start" x="314.5" y="-878.5" font-family="Helvetica,sans-Serif" font-size="10.00">+</text>
<text text-anchor="start" x="327.5" y="-878.5" font-family="Helvetica,sans-Serif" font-size="10.00">Vector2 GetCanvasPosition</text>
<text text-anchor="start" x="327.5" y="-867.5" font-family="Helvetica,sans-Serif" font-size="10.00">OfIndex(int index)</text>
<text text-anchor="start" x="314.5" y="-852.5" font-family="Helvetica,sans-Serif" font-size="10.00">+</text>
<text text-anchor="start" x="327.5" y="-852.5" font-family="Helvetica,sans-Serif" font-size="10.00">Point GetGridPositionOfIndex</text>
<text text-anchor="start" x="327.5" y="-841.5" font-family="Helvetica,sans-Serif" font-size="10.00">(int index)</text>
<text text-anchor="start" x="314.5" y="-826.5" font-family="Helvetica,sans-Serif" font-size="10.00">+</text>
<text text-anchor="start" x="327.5" y="-826.5" font-family="Helvetica,sans-Serif" font-size="10.00">void Clear()</text>
<text text-anchor="start" x="314.5" y="-811.5" font-family="Helvetica,sans-Serif" font-size="10.00">+</text>
<text text-anchor="start" x="327.5" y="-811.5" font-family="Helvetica,sans-Serif" font-size="10.00">void SetColor(int index,</text>
<text text-anchor="start" x="327.5" y="-800.5" font-family="Helvetica,sans-Serif" font-size="10.00"> Vector4 color)</text>
<text text-anchor="start" x="314.5" y="-785.5" font-family="Helvetica,sans-Serif" font-size="10.00">+</text>
<text text-anchor="start" x="327.5" y="-785.5" font-family="Helvetica,sans-Serif" font-size="10.00">void SetColor(int index,</text>
<text text-anchor="start" x="327.5" y="-774.5" font-family="Helvetica,sans-Serif" font-size="10.00"> float r, float g, float</text>
<text text-anchor="start" x="327.5" y="-763.5" font-family="Helvetica,sans-Serif" font-size="10.00"> b, float a=1f)</text>
<text text-anchor="start" x="314.5" y="-748.5" font-family="Helvetica,sans-Serif" font-size="10.00">+</text>
<text text-anchor="start" x="327.5" y="-748.5" font-family="Helvetica,sans-Serif" font-size="10.00">Vector4 GetAverage()</text>
<text text-anchor="start" x="314.5" y="-733.5" font-family="Helvetica,sans-Serif" font-size="10.00">+</text>
<text text-anchor="start" x="327.5" y="-733.5" font-family="Helvetica,sans-Serif" font-size="10.00">static Fragment FromGrid</text>
<text text-anchor="start" x="327.5" y="-722.5" font-family="Helvetica,sans-Serif" font-size="10.00">(Rectangle grid)</text>
<text text-anchor="start" x="314.5" y="-707.5" font-family="Helvetica,sans-Serif" font-size="10.00">+</text>
<text text-anchor="start" x="327.5" y="-707.5" font-family="Helvetica,sans-Serif" font-size="10.00">static Fragment FromCustom</text>
<text text-anchor="start" x="327.5" y="-696.5" font-family="Helvetica,sans-Serif" font-size="10.00">(Point[] gridPositions)</text>
<text text-anchor="start" x="314.5" y="-681.5" font-family="Helvetica,sans-Serif" font-size="10.00">+</text>
<text text-anchor="start" x="327.5" y="-681.5" font-family="Helvetica,sans-Serif" font-size="10.00">static Fragment FromCustom</text>
<text text-anchor="start" x="327.5" y="-670.5" font-family="Helvetica,sans-Serif" font-size="10.00">(Point[] gridPositions,</text>
<text text-anchor="start" x="327.5" y="-659.5" font-family="Helvetica,sans-Serif" font-size="10.00"> Vector2[] canvasPositions)</text>
<text text-anchor="start" x="317" y="-644.5" font-family="Helvetica,sans-Serif" font-size="10.00">&#45;</text>
<text text-anchor="start" x="327.5" y="-644.5" font-family="Helvetica,sans-Serif" font-size="10.00">Fragment(Point[] gridPositions)</text>
<text text-anchor="start" x="317" y="-629.5" font-family="Helvetica,sans-Serif" font-size="10.00">&#45;</text>
<text text-anchor="start" x="327.5" y="-629.5" font-family="Helvetica,sans-Serif" font-size="10.00">Fragment(Point[] gridPositions,</text>
<text text-anchor="start" x="327.5" y="-618.5" font-family="Helvetica,sans-Serif" font-size="10.00"> Vector2[] canvasPositions)</text>
<text text-anchor="start" x="317" y="-603.5" font-family="Helvetica,sans-Serif" font-size="10.00">&#45;</text>
<text text-anchor="start" x="327.5" y="-603.5" font-family="Helvetica,sans-Serif" font-size="10.00">void SetupCanvasBounds()</text>
<text text-anchor="start" x="317" y="-588.5" font-family="Helvetica,sans-Serif" font-size="10.00">&#45;</text>
<text text-anchor="start" x="327.5" y="-588.5" font-family="Helvetica,sans-Serif" font-size="10.00">static Vector2[] CreateCanvas</text>
<text text-anchor="start" x="327.5" y="-577.5" font-family="Helvetica,sans-Serif" font-size="10.00">Positions(Point[] gridPositions)</text>
<polygon fill="#666666" stroke="#666666" points="310.5,-963.5 310.5,-963.5 484.5,-963.5 484.5,-963.5 310.5,-963.5"/>
<polygon fill="#666666" stroke="#666666" points="310.5,-903.5 310.5,-903.5 325.5,-903.5 325.5,-903.5 310.5,-903.5"/>
<polygon fill="#666666" stroke="#666666" points="325.5,-903.5 325.5,-903.5 484.5,-903.5 484.5,-903.5 325.5,-903.5"/>
<polygon fill="none" stroke="#666666" points="310.5,-571 310.5,-992 484.5,-992 484.5,-571 310.5,-571"/>
</a>
</g>
</g>
<!-- Node5&#45;&gt;Node2 -->
<g id="edge4_Node000002_Node000005" class="edge">
<title>Node5&#45;&gt;Node2</title>
<g id="a_edge4_Node000002_Node000005"><a xlink:title=" ">
<path fill="none" stroke="#63b8ff" d="M343.49,-570.75C339.53,-555.38 335.55,-539.92 331.62,-524.64"/>
<polygon fill="none" stroke="#63b8ff" points="331.61,-524.63 326.24,-519.81 328.62,-513 333.99,-517.82 331.61,-524.63"/>
</a>
</g>
<text text-anchor="middle" x="384" y="-545" font-family="Helvetica,sans-Serif" font-size="10.00" fill="grey"> &#45;_backBuffer</text>
<text text-anchor="middle" x="384" y="-534" font-family="Helvetica,sans-Serif" font-size="10.00" fill="grey">&#45;_workingFragment</text>
</g>
<!-- Node6 -->
<g id="Node000006" class="node">
<title>Node6</title>
<g id="a_Node000006"><a xlink:title=" ">
<polygon fill="white" stroke="transparent" points="220,-1088 119,-1088 119,-1039 220,-1039 220,-1088"/>
<text text-anchor="start" x="124.5" y="-1075.5" font-family="Helvetica,sans-Serif" font-size="10.00">readonly Vector4[]</text>
<text text-anchor="start" x="168" y="-1060.5" font-family="Helvetica,sans-Serif" font-size="10.00"> </text>
<text text-anchor="start" x="168" y="-1045.5" font-family="Helvetica,sans-Serif" font-size="10.00"> </text>
<polygon fill="#666666" stroke="#666666" points="119.5,-1070.5 119.5,-1070.5 220.5,-1070.5 220.5,-1070.5 119.5,-1070.5"/>
<polygon fill="#666666" stroke="#666666" points="119.5,-1055.5 119.5,-1055.5 220.5,-1055.5 220.5,-1055.5 119.5,-1055.5"/>
<polygon fill="none" stroke="#666666" points="119,-1039 119,-1088 220,-1088 220,-1039 119,-1039"/>
</a>
</g>
</g>
<!-- Node6&#45;&gt;Node5 -->
<g id="edge5_Node000005_Node000006" class="edge">
<title>Node6&#45;&gt;Node5</title>
<g id="a_edge5_Node000005_Node000006"><a xlink:title=" ">
<path fill="none" stroke="#63b8ff" d="M206.53,-1038.82C222,-1029.35 240.35,-1018.65 257.5,-1010 276,-1000.67 285.58,-1006.37 300.5,-992 300.91,-991.6 301.33,-991.2 301.74,-990.79"/>
<polygon fill="none" stroke="#63b8ff" points="301.85,-990.68 303.11,-983.58 310.15,-982.02 308.89,-989.12 301.85,-990.68"/>
</a>
</g>
<text text-anchor="middle" x="279" y="-1013" font-family="Helvetica,sans-Serif" font-size="10.00" fill="grey"> +Colors</text>
</g>
<!-- Node7 -->
<g id="Node000007" class="node">
<title>Node7</title>
<g id="a_Node000007"><a xlink:title=" ">
<polygon fill="white" stroke="transparent" points="339,-1088 238,-1088 238,-1039 339,-1039 339,-1088"/>
<text text-anchor="start" x="243.5" y="-1075.5" font-family="Helvetica,sans-Serif" font-size="10.00">readonly Vector2[]</text>
<text text-anchor="start" x="287" y="-1060.5" font-family="Helvetica,sans-Serif" font-size="10.00"> </text>
<text text-anchor="start" x="287" y="-1045.5" font-family="Helvetica,sans-Serif" font-size="10.00"> </text>
<polygon fill="#666666" stroke="#666666" points="238.5,-1070.5 238.5,-1070.5 339.5,-1070.5 339.5,-1070.5 238.5,-1070.5"/>
<polygon fill="#666666" stroke="#666666" points="238.5,-1055.5 238.5,-1055.5 339.5,-1055.5 339.5,-1055.5 238.5,-1055.5"/>
<polygon fill="none" stroke="#666666" points="238,-1039 238,-1088 339,-1088 339,-1039 238,-1039"/>
</a>
</g>
</g>
<!-- Node7&#45;&gt;Node5 -->
<g id="edge6_Node000005_Node000007" class="edge">
<title>Node7&#45;&gt;Node5</title>
<g id="a_edge6_Node000005_Node000007"><a xlink:title=" ">
<path fill="none" stroke="#63b8ff" d="M296.87,-1038.92C300.13,-1029.86 303.93,-1019.43 307.5,-1010 308.3,-1007.89 309.1,-1005.78 309.91,-1003.65"/>
<polygon fill="none" stroke="#63b8ff" points="310,-1003.42 308.4,-996.39 314.27,-992.21 315.87,-999.24 310,-1003.42"/>
</a>
</g>
<text text-anchor="middle" x="353" y="-1013" font-family="Helvetica,sans-Serif" font-size="10.00" fill="grey"> &#45;_canvasPositions</text>
</g>
<!-- Node8 -->
<g id="Node000008" class="node">
<title>Node8</title>
<g id="a_Node000008"><a xlink:title=" ">
<polygon fill="white" stroke="transparent" points="447,-1088 358,-1088 358,-1039 447,-1039 447,-1088"/>
<text text-anchor="start" x="363.5" y="-1075.5" font-family="Helvetica,sans-Serif" font-size="10.00">readonly Point[]</text>
<text text-anchor="start" x="401" y="-1060.5" font-family="Helvetica,sans-Serif" font-size="10.00"> </text>
<text text-anchor="start" x="401" y="-1045.5" font-family="Helvetica,sans-Serif" font-size="10.00"> </text>
<polygon fill="#666666" stroke="#666666" points="358.5,-1070.5 358.5,-1070.5 447.5,-1070.5 447.5,-1070.5 358.5,-1070.5"/>
<polygon fill="#666666" stroke="#666666" points="358.5,-1055.5 358.5,-1055.5 447.5,-1055.5 447.5,-1055.5 358.5,-1055.5"/>
<polygon fill="none" stroke="#666666" points="358,-1039 358,-1088 447,-1088 447,-1039 358,-1039"/>
</a>
</g>
</g>
<!-- Node8&#45;&gt;Node5 -->
<g id="edge7_Node000005_Node000008" class="edge">
<title>Node8&#45;&gt;Node5</title>
<g id="a_edge7_Node000005_Node000008"><a xlink:title=" ">
<path fill="none" stroke="#63b8ff" d="M402.07,-1038.63C401.91,-1029.22 401.7,-1017.48 401.46,-1004.23"/>
<polygon fill="none" stroke="#63b8ff" points="401.46,-1004.23 397.35,-998.3 401.25,-992.23 405.35,-998.16 401.46,-1004.23"/>
</a>
</g>
<text text-anchor="middle" x="440.5" y="-1013" font-family="Helvetica,sans-Serif" font-size="10.00" fill="grey"> &#45;_gridPositions</text>
</g>
<!-- Node9 -->
<g id="Node000009" class="node">
<title>Node9</title>
<g id="a_Node000009"><a xlink:href="../../d1/da0/classint.html" target="_top" xlink:title=" ">
<polygon fill="white" stroke="transparent" points="513,-1088 490,-1088 490,-1039 513,-1039 513,-1088"/>
<text text-anchor="start" x="495.5" y="-1075.5" font-family="Helvetica,sans-Serif" font-size="10.00">int</text>
<text text-anchor="start" x="500" y="-1060.5" font-family="Helvetica,sans-Serif" font-size="10.00"> </text>
<text text-anchor="start" x="500" y="-1045.5" font-family="Helvetica,sans-Serif" font-size="10.00"> </text>
<polygon fill="#666666" stroke="#666666" points="490.5,-1070.5 490.5,-1070.5 513.5,-1070.5 513.5,-1070.5 490.5,-1070.5"/>
<polygon fill="#666666" stroke="#666666" points="490.5,-1055.5 490.5,-1055.5 513.5,-1055.5 513.5,-1055.5 490.5,-1055.5"/>
<polygon fill="none" stroke="#666666" points="490,-1039 490,-1088 513,-1088 513,-1039 490,-1039"/>
</a>
</g>
</g>
<!-- Node9&#45;&gt;Node5 -->
<g id="edge8_Node000005_Node000009" class="edge">
<title>Node9&#45;&gt;Node5</title>
<g id="a_edge8_Node000005_Node000009"><a xlink:title=" ">
<path fill="none" stroke="#63b8ff" d="M492.63,-1038.63C489.1,-1029.12 484.69,-1017.24 479.71,-1003.83"/>
<polygon fill="none" stroke="#63b8ff" points="479.58,-1003.48 473.74,-999.25 475.4,-992.23 481.24,-996.46 479.58,-1003.48"/>
</a>
</g>
<text text-anchor="middle" x="504.5" y="-1013" font-family="Helvetica,sans-Serif" font-size="10.00" fill="grey"> +Count</text>
</g>
<!-- Node10 -->
<g id="Node000010" class="node">
<title>Node10</title>
<g id="a_Node000010"><a xlink:href="../../d4/de1/classReLogic_1_1Peripherals_1_1RGB_1_1DeviceColorProfile.html" target="_top" xlink:title=" ">
<polygon fill="white" stroke="transparent" points="636.5,-865.5 502.5,-865.5 502.5,-697.5 636.5,-697.5 636.5,-865.5"/>
<text text-anchor="start" x="507.5" y="-853.5" font-family="Helvetica,sans-Serif" font-size="10.00">ReLogic.Peripherals.RGB.</text>
<text text-anchor="start" x="524" y="-842.5" font-family="Helvetica,sans-Serif" font-size="10.00">DeviceColorProfile</text>
<text text-anchor="start" x="507.5" y="-827.5" font-family="Helvetica,sans-Serif" font-size="10.00">+</text>
<text text-anchor="start" x="521.5" y="-827.5" font-family="Helvetica,sans-Serif" font-size="10.00">float RedMultiplier</text>
<text text-anchor="start" x="507.5" y="-812.5" font-family="Helvetica,sans-Serif" font-size="10.00">+</text>
<text text-anchor="start" x="521.5" y="-812.5" font-family="Helvetica,sans-Serif" font-size="10.00">float GreenMultiplier</text>
<text text-anchor="start" x="507.5" y="-797.5" font-family="Helvetica,sans-Serif" font-size="10.00">+</text>
<text text-anchor="start" x="521.5" y="-797.5" font-family="Helvetica,sans-Serif" font-size="10.00">float BlueMultiplier</text>
<text text-anchor="start" x="507.5" y="-782.5" font-family="Helvetica,sans-Serif" font-size="10.00">+</text>
<text text-anchor="start" x="521.5" y="-782.5" font-family="Helvetica,sans-Serif" font-size="10.00">DeviceColorProfile()</text>
<text text-anchor="start" x="507.5" y="-767.5" font-family="Helvetica,sans-Serif" font-size="10.00">+</text>
<text text-anchor="start" x="521.5" y="-767.5" font-family="Helvetica,sans-Serif" font-size="10.00">DeviceColorProfile</text>
<text text-anchor="start" x="521.5" y="-756.5" font-family="Helvetica,sans-Serif" font-size="10.00">(Vector3 multiplier)</text>
<text text-anchor="start" x="507.5" y="-741.5" font-family="Helvetica,sans-Serif" font-size="10.00">+</text>
<text text-anchor="start" x="521.5" y="-741.5" font-family="Helvetica,sans-Serif" font-size="10.00">void Apply(ref Vector4</text>
<text text-anchor="start" x="521.5" y="-730.5" font-family="Helvetica,sans-Serif" font-size="10.00"> color)</text>
<text text-anchor="start" x="507.5" y="-715.5" font-family="Helvetica,sans-Serif" font-size="10.00">+</text>
<text text-anchor="start" x="521.5" y="-715.5" font-family="Helvetica,sans-Serif" font-size="10.00">void Apply(ref Vector3</text>
<text text-anchor="start" x="521.5" y="-704.5" font-family="Helvetica,sans-Serif" font-size="10.00"> color)</text>
<polygon fill="#666666" stroke="#666666" points="502.5,-837.5 502.5,-837.5 636.5,-837.5 636.5,-837.5 502.5,-837.5"/>
<polygon fill="#666666" stroke="#666666" points="502.5,-792.5 502.5,-792.5 519.5,-792.5 519.5,-792.5 502.5,-792.5"/>
<polygon fill="#666666" stroke="#666666" points="519.5,-792.5 519.5,-792.5 636.5,-792.5 636.5,-792.5 519.5,-792.5"/>
<polygon fill="none" stroke="#666666" points="502.5,-697.5 502.5,-865.5 636.5,-865.5 636.5,-697.5 502.5,-697.5"/>
</a>
</g>
</g>
<!-- Node10&#45;&gt;Node2 -->
<g id="edge9_Node000002_Node000010" class="edge">
<title>Node10&#45;&gt;Node2</title>
<g id="a_edge9_Node000002_Node000010"><a xlink:title=" ">
<path fill="none" stroke="#63b8ff" d="M547.26,-697.49C534.66,-657.66 516.72,-610.2 493.5,-571 467.01,-526.28 431.68,-482.15 397.47,-444.13"/>
<polygon fill="none" stroke="#63b8ff" points="397.34,-443.98 390.35,-442.23 389.27,-435.1 396.27,-436.85 397.34,-443.98"/>
</a>
</g>
<text text-anchor="middle" x="514" y="-539.5" font-family="Helvetica,sans-Serif" font-size="10.00" fill="grey"> &#45;_colorProfile</text>
</g>
<!-- Node11 -->
<g id="Node000011" class="node">
<title>Node11</title>
<g id="a_Node000011"><a xlink:title=" ">
<polygon fill="white" stroke="transparent" points="593,-1088 546,-1088 546,-1039 593,-1039 593,-1088"/>
<text text-anchor="start" x="551.5" y="-1075.5" font-family="Helvetica,sans-Serif" font-size="10.00">Vector3</text>
<text text-anchor="start" x="568" y="-1060.5" font-family="Helvetica,sans-Serif" font-size="10.00"> </text>
<text text-anchor="start" x="568" y="-1045.5" font-family="Helvetica,sans-Serif" font-size="10.00"> </text>
<polygon fill="#666666" stroke="#666666" points="546.5,-1070.5 546.5,-1070.5 593.5,-1070.5 593.5,-1070.5 546.5,-1070.5"/>
<polygon fill="#666666" stroke="#666666" points="546.5,-1055.5 546.5,-1055.5 593.5,-1055.5 593.5,-1055.5 546.5,-1055.5"/>
<polygon fill="none" stroke="#666666" points="546,-1039 546,-1088 593,-1088 593,-1039 546,-1039"/>
</a>
</g>
</g>
<!-- Node11&#45;&gt;Node10 -->
<g id="edge10_Node000010_Node000011" class="edge">
<title>Node11&#45;&gt;Node10</title>
<g id="a_edge10_Node000010_Node000011"><a xlink:title=" ">
<path fill="none" stroke="#63b8ff" d="M569.5,-1038.63C569.5,-1003.25 569.5,-934.94 569.5,-877.75"/>
<polygon fill="none" stroke="#63b8ff" points="569.5,-877.74 565.5,-871.74 569.5,-865.74 573.5,-871.74 569.5,-877.74"/>
</a>
</g>
<text text-anchor="middle" x="599.5" y="-1013" font-family="Helvetica,sans-Serif" font-size="10.00" fill="grey"> &#45;_multiplier</text>
</g>
</g>
</svg>
