<?xml version="1.0" encoding="UTF-8" standalone="no"?>
<!DOCTYPE svg PUBLIC "-//W3C//DTD SVG 1.1//EN"
 "http://www.w3.org/Graphics/SVG/1.1/DTD/svg11.dtd">
<!-- Generated by graphviz version 2.43.0 (0)
 -->
<!-- Title: Actions.NPCs.MoveWithRotor Pages: 1 -->
<svg width="194pt" height="636pt"
 viewBox="0.00 0.00 194.00 636.00" xmlns="http://www.w3.org/2000/svg" xmlns:xlink="http://www.w3.org/1999/xlink">
<g id="graph0" class="graph" transform="scale(1 1) rotate(0) translate(4 632)">
<title>Actions.NPCs.MoveWithRotor</title>
<polygon fill="white" stroke="transparent" points="-4,4 -4,-632 190,-632 190,4 -4,4"/>
<!-- Node1 -->
<g id="node1" class="node">
<title>Node1</title>
<g id="a_node1"><a xlink:title=" ">
<polygon fill="#bfbfbf" stroke="black" points="0,-0.5 0,-211.5 186,-211.5 186,-0.5 0,-0.5"/>
<text text-anchor="middle" x="93" y="-199.5" font-family="Helvetica,sans-Serif" font-size="10.00">Actions.NPCs.MoveWithRotor</text>
<polyline fill="none" stroke="black" points="0,-192.5 186,-192.5 "/>
<text text-anchor="start" x="8" y="-180.5" font-family="Helvetica,sans-Serif" font-size="10.00">+ int ExpectedLengthOfAction</text>
<text text-anchor="start" x="8" y="-169.5" font-family="Helvetica,sans-Serif" font-size="10.00">InFrames</text>
<text text-anchor="start" x="8" y="-158.5" font-family="Helvetica,sans-Serif" font-size="10.00">&#45; Vector2 _offsetPerFrame</text>
<text text-anchor="start" x="8" y="-147.5" font-family="Helvetica,sans-Serif" font-size="10.00">&#45; Vector2 _resultMultiplier</text>
<text text-anchor="start" x="8" y="-136.5" font-family="Helvetica,sans-Serif" font-size="10.00">&#45; float _radialOffset</text>
<text text-anchor="start" x="8" y="-125.5" font-family="Helvetica,sans-Serif" font-size="10.00">&#45; int _duration</text>
<text text-anchor="start" x="8" y="-114.5" font-family="Helvetica,sans-Serif" font-size="10.00">&#45; float _delay</text>
<polyline fill="none" stroke="black" points="0,-107.5 186,-107.5 "/>
<text text-anchor="start" x="8" y="-95.5" font-family="Helvetica,sans-Serif" font-size="10.00">+ MoveWithRotor(Vector2</text>
<text text-anchor="start" x="8" y="-84.5" font-family="Helvetica,sans-Serif" font-size="10.00"> radialOffset, float rotation</text>
<text text-anchor="start" x="8" y="-73.5" font-family="Helvetica,sans-Serif" font-size="10.00">PerFrame, Vector2 resultMultiplier,</text>
<text text-anchor="start" x="8" y="-62.5" font-family="Helvetica,sans-Serif" font-size="10.00"> int durationInFrames)</text>
<text text-anchor="start" x="8" y="-51.5" font-family="Helvetica,sans-Serif" font-size="10.00">+ void BindTo(NPC obj)</text>
<text text-anchor="start" x="8" y="-40.5" font-family="Helvetica,sans-Serif" font-size="10.00">+ void SetDelay(float</text>
<text text-anchor="start" x="8" y="-29.5" font-family="Helvetica,sans-Serif" font-size="10.00"> delay)</text>
<text text-anchor="start" x="8" y="-18.5" font-family="Helvetica,sans-Serif" font-size="10.00">+ void ApplyTo(NPC obj,</text>
<text text-anchor="start" x="8" y="-7.5" font-family="Helvetica,sans-Serif" font-size="10.00"> float localTimeForObj)</text>
</a>
</g>
</g>
<!-- Node2 -->
<g id="node2" class="node">
<title>Node2</title>
<g id="a_node2"><a xlink:href="../../d4/dad/interfaceActions_1_1NPCs_1_1INPCAction.html" target="_top" xlink:title=" ">
<polygon fill="white" stroke="black" points="109.5,-249.5 109.5,-306.5 180.5,-306.5 180.5,-249.5 109.5,-249.5"/>
<text text-anchor="middle" x="145" y="-294.5" font-family="Helvetica,sans-Serif" font-size="10.00">INPCAction</text>
<polyline fill="none" stroke="black" points="109.5,-287.5 180.5,-287.5 "/>
<text text-anchor="middle" x="145" y="-275.5" font-family="Helvetica,sans-Serif" font-size="10.00"> </text>
<polyline fill="none" stroke="black" points="109.5,-268.5 180.5,-268.5 "/>
<text text-anchor="middle" x="145" y="-256.5" font-family="Helvetica,sans-Serif" font-size="10.00"> </text>
</a>
</g>
</g>
<!-- Node2&#45;&gt;Node1 -->
<g id="edge1" class="edge">
<title>Node2&#45;&gt;Node1</title>
<path fill="none" stroke="midnightblue" d="M133.52,-239.47C130.93,-231 128.06,-221.61 125.07,-211.84"/>
<polygon fill="none" stroke="midnightblue" points="130.26,-240.77 136.53,-249.31 136.95,-238.72 130.26,-240.77"/>
</g>
<!-- Node3 -->
<g id="node3" class="node">
<title>Node3</title>
<g id="a_node3"><a xlink:href="../../d8/d8d/interfaceIAnimationSegmentAction.html" target="_top" xlink:title=" ">
<polygon fill="white" stroke="black" points="11,-344.5 11,-467.5 175,-467.5 175,-344.5 11,-344.5"/>
<text text-anchor="start" x="19" y="-455.5" font-family="Helvetica,sans-Serif" font-size="10.00">IAnimationSegmentAction</text>
<text text-anchor="middle" x="93" y="-444.5" font-family="Helvetica,sans-Serif" font-size="10.00">&lt; NPC &gt;</text>
<polyline fill="none" stroke="black" points="11,-437.5 175,-437.5 "/>
<text text-anchor="start" x="19" y="-425.5" font-family="Helvetica,sans-Serif" font-size="10.00">+ int ExpectedLengthOfAction</text>
<text text-anchor="start" x="19" y="-414.5" font-family="Helvetica,sans-Serif" font-size="10.00">InFrames</text>
<polyline fill="none" stroke="black" points="11,-407.5 175,-407.5 "/>
<text text-anchor="start" x="19" y="-395.5" font-family="Helvetica,sans-Serif" font-size="10.00">+ void BindTo(T obj)</text>
<text text-anchor="start" x="19" y="-384.5" font-family="Helvetica,sans-Serif" font-size="10.00">+ void ApplyTo(T obj,</text>
<text text-anchor="start" x="19" y="-373.5" font-family="Helvetica,sans-Serif" font-size="10.00"> float localTimeForObj)</text>
<text text-anchor="start" x="19" y="-362.5" font-family="Helvetica,sans-Serif" font-size="10.00">+ void SetDelay(float</text>
<text text-anchor="start" x="19" y="-351.5" font-family="Helvetica,sans-Serif" font-size="10.00"> delay)</text>
</a>
</g>
</g>
<!-- Node3&#45;&gt;Node1 -->
<g id="edge4" class="edge">
<title>Node3&#45;&gt;Node1</title>
<path fill="none" stroke="midnightblue" d="M93,-334.25C93,-297.63 93,-252.21 93,-211.62"/>
<polygon fill="none" stroke="midnightblue" points="89.5,-334.34 93,-344.34 96.5,-334.34 89.5,-334.34"/>
</g>
<!-- Node3&#45;&gt;Node2 -->
<g id="edge2" class="edge">
<title>Node3&#45;&gt;Node2</title>
<path fill="none" stroke="midnightblue" d="M121.92,-334.93C126.07,-324.86 130.13,-315.04 133.65,-306.51"/>
<polygon fill="none" stroke="midnightblue" points="118.67,-333.64 118.09,-344.21 125.14,-336.31 118.67,-333.64"/>
</g>
<!-- Node4 -->
<g id="node4" class="node">
<title>Node4</title>
<g id="a_node4"><a xlink:href="../../d8/d8d/interfaceIAnimationSegmentAction.html" target="_top" xlink:title=" ">
<polygon fill="white" stroke="black" points="6.5,-515.5 6.5,-627.5 179.5,-627.5 179.5,-515.5 6.5,-515.5"/>
<text text-anchor="middle" x="93" y="-615.5" font-family="Helvetica,sans-Serif" font-size="10.00">IAnimationSegmentAction&lt; T &gt;</text>
<polyline fill="none" stroke="black" points="6.5,-608.5 179.5,-608.5 "/>
<text text-anchor="start" x="14.5" y="-596.5" font-family="Helvetica,sans-Serif" font-size="10.00">+ int ExpectedLengthOfAction</text>
<text text-anchor="start" x="14.5" y="-585.5" font-family="Helvetica,sans-Serif" font-size="10.00">InFrames</text>
<polyline fill="none" stroke="black" points="6.5,-578.5 179.5,-578.5 "/>
<text text-anchor="start" x="14.5" y="-566.5" font-family="Helvetica,sans-Serif" font-size="10.00">+ void BindTo(T obj)</text>
<text text-anchor="start" x="14.5" y="-555.5" font-family="Helvetica,sans-Serif" font-size="10.00">+ void ApplyTo(T obj,</text>
<text text-anchor="start" x="14.5" y="-544.5" font-family="Helvetica,sans-Serif" font-size="10.00"> float localTimeForObj)</text>
<text text-anchor="start" x="14.5" y="-533.5" font-family="Helvetica,sans-Serif" font-size="10.00">+ void SetDelay(float</text>
<text text-anchor="start" x="14.5" y="-522.5" font-family="Helvetica,sans-Serif" font-size="10.00"> delay)</text>
</a>
</g>
</g>
<!-- Node4&#45;&gt;Node3 -->
<g id="edge3" class="edge">
<title>Node4&#45;&gt;Node3</title>
<path fill="none" stroke="orange" d="M93,-504.94C93,-492.62 93,-479.79 93,-467.63"/>
<polygon fill="orange" stroke="orange" points="89.5,-505.15 93,-515.15 96.5,-505.15 89.5,-505.15"/>
<text text-anchor="middle" x="116" y="-489" font-family="Helvetica,sans-Serif" font-size="10.00"> &lt; NPC &gt;</text>
</g>
</g>
</svg>
