<?xml version="1.0" encoding="UTF-8" standalone="no"?>
<!DOCTYPE svg PUBLIC "-//W3C//DTD SVG 1.1//EN"
 "http://www.w3.org/Graphics/SVG/1.1/DTD/svg11.dtd">
<!-- Generated by graphviz version 2.43.0 (0)
 -->
<!-- Title: Terraria.Achievements.ConditionFloatTracker Pages: 1 -->
<!--zoomable 953 -->

<svg id="main" version="1.1" xmlns="http://www.w3.org/2000/svg" xmlns:xlink="http://www.w3.org/1999/xlink" xml:space="preserve" onload="init(evt)">
<style type="text/css"><![CDATA[
.node, .edge {opacity: 0.7;}
.node.selected, .edge.selected {opacity: 1;}
.edge:hover path { stroke: red; }
.edge:hover polygon { stroke: red; fill: red; }
]]></style>

<defs>
  <circle id="rim" cx="0" cy="0" r="7"/>
  <circle id="rim2" cx="0" cy="0" r="3.5"/>
  <g id="zoomPlus">
    <use xlink:href="#rim" fill="#404040"><set attributeName="fill" to="#808080" begin="zoomplus.mouseover" end="zoomplus.mouseout"/></use>
    <path d="M-4,0h8M0,-4v8" fill="none" stroke="white" stroke-width="1.5" pointer-events="none"/>
  </g>
  <g id="zoomMin">
    <use xlink:href="#rim" fill="#404040"><set attributeName="fill" to="#808080" begin="zoomminus.mouseover" end="zoomminus.mouseout"/></use>
    <path d="M-4,0h8" fill="none" stroke="white" stroke-width="1.5" pointer-events="none"/>
  </g>
  <g id="arrowUp" transform="translate(30 24)">
    <use xlink:href="#rim"/>
    <path pointer-events="none" fill="none" stroke="white" stroke-width="1.5" d="M0,-3.0v7 M-2.5,-0.5L0,-3.0L2.5,-0.5"/>
  </g>
  <g id="arrowRight" transform="rotate(90) translate(36 -43)">
    <use xlink:href="#rim"/>
    <path pointer-events="none" fill="none" stroke="white" stroke-width="1.5" d="M0,-3.0v7 M-2.5,-0.5L0,-3.0L2.5,-0.5"/>
  </g>
  <g id="arrowDown" transform="rotate(180) translate(-30 -48)">
    <use xlink:href="#rim"/>
    <path pointer-events="none" fill="none" stroke="white" stroke-width="1.5" d="M0,-3.0v7 M-2.5,-0.5L0,-3.0L2.5,-0.5"/>
  </g>
  <g id="arrowLeft" transform="rotate(270) translate(-36 17)">
    <use xlink:href="#rim"/>
    <path pointer-events="none" fill="none" stroke="white" stroke-width="1.5" d="M0,-3.0v7 M-2.5,-0.5L0,-3.0L2.5,-0.5"/>
  </g>
  <g id="resetDef">
    <use xlink:href="#rim2" fill="#404040"><set attributeName="fill" to="#808080" begin="reset.mouseover" end="reset.mouseout"/></use>
  </g>
</defs>
<script type="application/ecmascript">
var viewWidth = 392;
var viewHeight = 953;
var sectionId = 'dynsection-1';
</script>
<script type="application/ecmascript" xlink:href="../../svg.min.js"/>
<svg id="graph" class="graph">
<g id="viewport">
<title>Terraria.Achievements.ConditionFloatTracker</title>
<!-- Node1 -->
<g id="Node000001" class="node">
<title>Node1</title>
<g id="a_Node000001"><a xlink:title=" ">
<polygon fill="#999999" stroke="transparent" points="318.5,-116 148.5,-116 148.5,0 318.5,0 318.5,-116"/>
<text text-anchor="start" x="153.5" y="-104" font-family="Helvetica,sans-Serif" font-size="10.00">Terraria.Achievements.Condition</text>
<text text-anchor="start" x="203.5" y="-93" font-family="Helvetica,sans-Serif" font-size="10.00">FloatTracker</text>
<text text-anchor="start" x="231.5" y="-78" font-family="Helvetica,sans-Serif" font-size="10.00"> </text>
<text text-anchor="start" x="154" y="-63" font-family="Helvetica,sans-Serif" font-size="10.00">+</text>
<text text-anchor="start" x="168.5" y="-63" font-family="Helvetica,sans-Serif" font-size="10.00">ConditionFloatTracker</text>
<text text-anchor="start" x="168.5" y="-52" font-family="Helvetica,sans-Serif" font-size="10.00">(float maxValue)</text>
<text text-anchor="start" x="154" y="-37" font-family="Helvetica,sans-Serif" font-size="10.00">+</text>
<text text-anchor="start" x="168.5" y="-37" font-family="Helvetica,sans-Serif" font-size="10.00">ConditionFloatTracker()</text>
<text text-anchor="start" x="154" y="-22" font-family="Helvetica,sans-Serif" font-size="10.00">+</text>
<text text-anchor="start" x="168.5" y="-22" font-family="Helvetica,sans-Serif" font-size="10.00">override void ReportUpdate()</text>
<text text-anchor="start" x="154" y="-7" font-family="Helvetica,sans-Serif" font-size="10.00">#</text>
<text text-anchor="start" x="168.5" y="-7" font-family="Helvetica,sans-Serif" font-size="10.00">override void Load()</text>
<polygon fill="#666666" stroke="#666666" points="148.5,-88 148.5,-88 318.5,-88 318.5,-88 148.5,-88"/>
<polygon fill="#666666" stroke="#666666" points="148.5,-73 148.5,-73 318.5,-73 318.5,-73 148.5,-73"/>
<polygon fill="none" stroke="#666666" points="148.5,0 148.5,-116 318.5,-116 318.5,0 148.5,0"/>
</a>
</g>
</g>
<!-- Node2 -->
<g id="Node000002" class="node">
<title>Node2</title>
<g id="a_Node000002"><a xlink:href="../../d2/d5f/classTerraria_1_1Achievements_1_1AchievementTracker.html" target="_top" xlink:title=" ">
<polygon fill="white" stroke="transparent" points="309,-474 158,-474 158,-153 309,-153 309,-474"/>
<text text-anchor="start" x="184" y="-461.5" font-family="Helvetica,sans-Serif" font-size="10.00">AchievementTracker</text>
<text text-anchor="start" x="211.5" y="-450.5" font-family="Helvetica,sans-Serif" font-size="10.00">&lt; float &gt;</text>
<text text-anchor="start" x="162.5" y="-435.5" font-family="Helvetica,sans-Serif" font-size="10.00">+</text>
<text text-anchor="start" x="175.5" y="-435.5" font-family="Helvetica,sans-Serif" font-size="10.00">T Value</text>
<text text-anchor="start" x="162.5" y="-420.5" font-family="Helvetica,sans-Serif" font-size="10.00">+</text>
<text text-anchor="start" x="175.5" y="-420.5" font-family="Helvetica,sans-Serif" font-size="10.00">T MaxValue</text>
<text text-anchor="start" x="162.5" y="-405.5" font-family="Helvetica,sans-Serif" font-size="10.00">#</text>
<text text-anchor="start" x="175.5" y="-405.5" font-family="Helvetica,sans-Serif" font-size="10.00">T _value</text>
<text text-anchor="start" x="162.5" y="-390.5" font-family="Helvetica,sans-Serif" font-size="10.00">#</text>
<text text-anchor="start" x="175.5" y="-390.5" font-family="Helvetica,sans-Serif" font-size="10.00">T _maxValue</text>
<text text-anchor="start" x="162.5" y="-375.5" font-family="Helvetica,sans-Serif" font-size="10.00">#</text>
<text text-anchor="start" x="175.5" y="-375.5" font-family="Helvetica,sans-Serif" font-size="10.00">string _name</text>
<text text-anchor="start" x="165" y="-360.5" font-family="Helvetica,sans-Serif" font-size="10.00">&#45;</text>
<text text-anchor="start" x="175.5" y="-360.5" font-family="Helvetica,sans-Serif" font-size="10.00">TrackerType _type</text>
<text text-anchor="start" x="162.5" y="-345.5" font-family="Helvetica,sans-Serif" font-size="10.00">+</text>
<text text-anchor="start" x="175.5" y="-345.5" font-family="Helvetica,sans-Serif" font-size="10.00">void SetValue(T newValue,</text>
<text text-anchor="start" x="175.5" y="-334.5" font-family="Helvetica,sans-Serif" font-size="10.00"> bool reportUpdate=true)</text>
<text text-anchor="start" x="162.5" y="-319.5" font-family="Helvetica,sans-Serif" font-size="10.00">+</text>
<text text-anchor="start" x="175.5" y="-319.5" font-family="Helvetica,sans-Serif" font-size="10.00">void ReportUpdate()</text>
<text text-anchor="start" x="162.5" y="-304.5" font-family="Helvetica,sans-Serif" font-size="10.00">#</text>
<text text-anchor="start" x="175.5" y="-304.5" font-family="Helvetica,sans-Serif" font-size="10.00">AchievementTracker</text>
<text text-anchor="start" x="175.5" y="-293.5" font-family="Helvetica,sans-Serif" font-size="10.00">(TrackerType type)</text>
<text text-anchor="start" x="162.5" y="-278.5" font-family="Helvetica,sans-Serif" font-size="10.00">#</text>
<text text-anchor="start" x="175.5" y="-278.5" font-family="Helvetica,sans-Serif" font-size="10.00">void Load()</text>
<text text-anchor="start" x="162.5" y="-263.5" font-family="Helvetica,sans-Serif" font-size="10.00">#</text>
<text text-anchor="start" x="175.5" y="-263.5" font-family="Helvetica,sans-Serif" font-size="10.00">void OnComplete()</text>
<text text-anchor="start" x="165" y="-248.5" font-family="Helvetica,sans-Serif" font-size="10.00">&#45;</text>
<text text-anchor="start" x="175.5" y="-248.5" font-family="Helvetica,sans-Serif" font-size="10.00">void IAchievementTracker.</text>
<text text-anchor="start" x="175.5" y="-237.5" font-family="Helvetica,sans-Serif" font-size="10.00"> ReportAs(string name)</text>
<text text-anchor="start" x="165" y="-222.5" font-family="Helvetica,sans-Serif" font-size="10.00">&#45;</text>
<text text-anchor="start" x="175.5" y="-222.5" font-family="Helvetica,sans-Serif" font-size="10.00">TrackerType IAchievement</text>
<text text-anchor="start" x="175.5" y="-211.5" font-family="Helvetica,sans-Serif" font-size="10.00">Tracker. GetTrackerType()</text>
<text text-anchor="start" x="165" y="-196.5" font-family="Helvetica,sans-Serif" font-size="10.00">&#45;</text>
<text text-anchor="start" x="175.5" y="-196.5" font-family="Helvetica,sans-Serif" font-size="10.00">void IAchievementTracker.</text>
<text text-anchor="start" x="175.5" y="-185.5" font-family="Helvetica,sans-Serif" font-size="10.00"> Clear()</text>
<text text-anchor="start" x="165" y="-170.5" font-family="Helvetica,sans-Serif" font-size="10.00">&#45;</text>
<text text-anchor="start" x="175.5" y="-170.5" font-family="Helvetica,sans-Serif" font-size="10.00">void IAchievementTracker.</text>
<text text-anchor="start" x="175.5" y="-159.5" font-family="Helvetica,sans-Serif" font-size="10.00"> Load()</text>
<polygon fill="#666666" stroke="#666666" points="158.5,-445.5 158.5,-445.5 309.5,-445.5 309.5,-445.5 158.5,-445.5"/>
<polygon fill="#666666" stroke="#666666" points="158.5,-355.5 158.5,-355.5 173.5,-355.5 173.5,-355.5 158.5,-355.5"/>
<polygon fill="#666666" stroke="#666666" points="173.5,-355.5 173.5,-355.5 309.5,-355.5 309.5,-355.5 173.5,-355.5"/>
<polygon fill="none" stroke="#666666" points="158,-153 158,-474 309,-474 309,-153 158,-153"/>
</a>
</g>
</g>
<!-- Node2&#45;&gt;Node1 -->
<g id="edge1_Node000001_Node000002" class="edge">
<title>Node2&#45;&gt;Node1</title>
<g id="a_edge1_Node000001_Node000002"><a xlink:title=" ">
<path fill="none" stroke="#63b8ff" d="M233.5,-142.55C233.5,-133.33 233.5,-124.46 233.5,-116.16"/>
<polygon fill="none" stroke="#63b8ff" points="230,-142.67 233.5,-152.67 237,-142.67 230,-142.67"/>
</a>
</g>
</g>
<!-- Node3 -->
<g id="Node000003" class="node">
<title>Node3</title>
<g id="a_Node000003"><a xlink:href="../../d2/d5f/classTerraria_1_1Achievements_1_1AchievementTracker.html" target="_top" xlink:title=" ">
<polygon fill="white" stroke="transparent" points="327.5,-782 139.5,-782 139.5,-521 327.5,-521 327.5,-782"/>
<text text-anchor="start" x="144.5" y="-769.5" font-family="Helvetica,sans-Serif" font-size="10.00">Terraria.Achievements.Achievement</text>
<text text-anchor="start" x="201.5" y="-758.5" font-family="Helvetica,sans-Serif" font-size="10.00">Tracker&lt; T &gt;</text>
<text text-anchor="start" x="152.5" y="-743.5" font-family="Helvetica,sans-Serif" font-size="10.00">+</text>
<text text-anchor="start" x="174.5" y="-743.5" font-family="Helvetica,sans-Serif" font-size="10.00">T Value</text>
<text text-anchor="start" x="152.5" y="-728.5" font-family="Helvetica,sans-Serif" font-size="10.00">+</text>
<text text-anchor="start" x="174.5" y="-728.5" font-family="Helvetica,sans-Serif" font-size="10.00">T MaxValue</text>
<text text-anchor="start" x="152.5" y="-713.5" font-family="Helvetica,sans-Serif" font-size="10.00">+</text>
<text text-anchor="start" x="174.5" y="-713.5" font-family="Helvetica,sans-Serif" font-size="10.00">void SetValue(T newValue,</text>
<text text-anchor="start" x="174.5" y="-702.5" font-family="Helvetica,sans-Serif" font-size="10.00"> bool reportUpdate=true)</text>
<text text-anchor="start" x="152.5" y="-687.5" font-family="Helvetica,sans-Serif" font-size="10.00">+</text>
<text text-anchor="start" x="174.5" y="-687.5" font-family="Helvetica,sans-Serif" font-size="10.00">void ReportUpdate()</text>
<text text-anchor="start" x="152.5" y="-672.5" font-family="Helvetica,sans-Serif" font-size="10.00">#</text>
<text text-anchor="start" x="174.5" y="-672.5" font-family="Helvetica,sans-Serif" font-size="10.00">AchievementTracker</text>
<text text-anchor="start" x="174.5" y="-661.5" font-family="Helvetica,sans-Serif" font-size="10.00">(TrackerType type)</text>
<text text-anchor="start" x="152.5" y="-646.5" font-family="Helvetica,sans-Serif" font-size="10.00">#</text>
<text text-anchor="start" x="174.5" y="-646.5" font-family="Helvetica,sans-Serif" font-size="10.00">void Load()</text>
<text text-anchor="start" x="152.5" y="-631.5" font-family="Helvetica,sans-Serif" font-size="10.00">#</text>
<text text-anchor="start" x="174.5" y="-631.5" font-family="Helvetica,sans-Serif" font-size="10.00">void OnComplete()</text>
<text text-anchor="start" x="155" y="-616.5" font-family="Helvetica,sans-Serif" font-size="10.00">&#45;</text>
<text text-anchor="start" x="174.5" y="-616.5" font-family="Helvetica,sans-Serif" font-size="10.00">void IAchievementTracker.</text>
<text text-anchor="start" x="174.5" y="-605.5" font-family="Helvetica,sans-Serif" font-size="10.00"> ReportAs(string name)</text>
<text text-anchor="start" x="155" y="-590.5" font-family="Helvetica,sans-Serif" font-size="10.00">&#45;</text>
<text text-anchor="start" x="174.5" y="-590.5" font-family="Helvetica,sans-Serif" font-size="10.00">TrackerType IAchievement</text>
<text text-anchor="start" x="174.5" y="-579.5" font-family="Helvetica,sans-Serif" font-size="10.00">Tracker. GetTrackerType()</text>
<text text-anchor="start" x="155" y="-564.5" font-family="Helvetica,sans-Serif" font-size="10.00">&#45;</text>
<text text-anchor="start" x="174.5" y="-564.5" font-family="Helvetica,sans-Serif" font-size="10.00">void IAchievementTracker.</text>
<text text-anchor="start" x="174.5" y="-553.5" font-family="Helvetica,sans-Serif" font-size="10.00"> Clear()</text>
<text text-anchor="start" x="155" y="-538.5" font-family="Helvetica,sans-Serif" font-size="10.00">&#45;</text>
<text text-anchor="start" x="174.5" y="-538.5" font-family="Helvetica,sans-Serif" font-size="10.00">void IAchievementTracker.</text>
<text text-anchor="start" x="174.5" y="-527.5" font-family="Helvetica,sans-Serif" font-size="10.00"> Load()</text>
<polygon fill="#666666" stroke="#666666" points="139.5,-753.5 139.5,-753.5 327.5,-753.5 327.5,-753.5 139.5,-753.5"/>
<polygon fill="#666666" stroke="#666666" points="139.5,-723.5 139.5,-723.5 172.5,-723.5 172.5,-723.5 139.5,-723.5"/>
<polygon fill="#666666" stroke="#666666" points="172.5,-723.5 172.5,-723.5 327.5,-723.5 327.5,-723.5 172.5,-723.5"/>
<polygon fill="none" stroke="#666666" points="139.5,-521 139.5,-782 327.5,-782 327.5,-521 139.5,-521"/>
</a>
</g>
</g>
<!-- Node3&#45;&gt;Node2 -->
<g id="edge2_Node000002_Node000003" class="edge">
<title>Node3&#45;&gt;Node2</title>
<g id="a_edge2_Node000002_Node000003"><a xlink:title=" ">
<path fill="none" stroke="orange" d="M233.5,-510.54C233.5,-498.5 233.5,-486.27 233.5,-474.1"/>
<polygon fill="orange" stroke="orange" points="230,-510.59 233.5,-520.59 237,-510.59 230,-510.59"/>
</a>
</g>
<text text-anchor="middle" x="257.5" y="-495" font-family="Helvetica,sans-Serif" font-size="10.00" fill="grey"> &lt; float &gt;</text>
</g>
<!-- Node4 -->
<g id="Node000004" class="node">
<title>Node4</title>
<g id="a_Node000004"><a xlink:href="../../d2/d17/interfaceTerraria_1_1Achievements_1_1IAchievementTracker.html" target="_top" xlink:title=" ">
<polygon fill="white" stroke="transparent" points="163,-945 0,-945 0,-840 163,-840 163,-945"/>
<text text-anchor="start" x="30.5" y="-932.5" font-family="Helvetica,sans-Serif" font-size="10.00">IAchievementTracker</text>
<text text-anchor="start" x="80" y="-917.5" font-family="Helvetica,sans-Serif" font-size="10.00"> </text>
<text text-anchor="start" x="4.5" y="-902.5" font-family="Helvetica,sans-Serif" font-size="10.00">+</text>
<text text-anchor="start" x="17.5" y="-902.5" font-family="Helvetica,sans-Serif" font-size="10.00">void ReportAs(string</text>
<text text-anchor="start" x="17.5" y="-891.5" font-family="Helvetica,sans-Serif" font-size="10.00"> name)</text>
<text text-anchor="start" x="4.5" y="-876.5" font-family="Helvetica,sans-Serif" font-size="10.00">+</text>
<text text-anchor="start" x="17.5" y="-876.5" font-family="Helvetica,sans-Serif" font-size="10.00">TrackerType GetTrackerType()</text>
<text text-anchor="start" x="4.5" y="-861.5" font-family="Helvetica,sans-Serif" font-size="10.00">+</text>
<text text-anchor="start" x="17.5" y="-861.5" font-family="Helvetica,sans-Serif" font-size="10.00">void Load()</text>
<text text-anchor="start" x="4.5" y="-846.5" font-family="Helvetica,sans-Serif" font-size="10.00">+</text>
<text text-anchor="start" x="17.5" y="-846.5" font-family="Helvetica,sans-Serif" font-size="10.00">void Clear()</text>
<polygon fill="#666666" stroke="#666666" points="0.5,-927.5 0.5,-927.5 163.5,-927.5 163.5,-927.5 0.5,-927.5"/>
<polygon fill="#666666" stroke="#666666" points="0.5,-912.5 0.5,-912.5 163.5,-912.5 163.5,-912.5 0.5,-912.5"/>
<polygon fill="none" stroke="#666666" points="0,-840 0,-945 163,-945 163,-840 0,-840"/>
</a>
</g>
</g>
<!-- Node4&#45;&gt;Node3 -->
<g id="edge3_Node000003_Node000004" class="edge">
<title>Node4&#45;&gt;Node3</title>
<g id="a_edge3_Node000003_Node000004"><a xlink:title=" ">
<path fill="none" stroke="#63b8ff" d="M119.8,-831.28C129.37,-816.22 140.02,-799.49 150.84,-782.47"/>
<polygon fill="none" stroke="#63b8ff" points="116.71,-829.62 114.29,-839.93 122.61,-833.38 116.71,-829.62"/>
</a>
</g>
</g>
<!-- Node5 -->
<g id="Node000005" class="node">
<title>Node5</title>
<g id="a_Node000005"><a xlink:title=" ">
<polygon fill="white" stroke="transparent" points="198,-917 181,-917 181,-868 198,-868 198,-917"/>
<text text-anchor="start" x="186.5" y="-904.5" font-family="Helvetica,sans-Serif" font-size="10.00">T</text>
<text text-anchor="start" x="188" y="-889.5" font-family="Helvetica,sans-Serif" font-size="10.00"> </text>
<text text-anchor="start" x="188" y="-874.5" font-family="Helvetica,sans-Serif" font-size="10.00"> </text>
<polygon fill="#666666" stroke="#666666" points="181.5,-899.5 181.5,-899.5 198.5,-899.5 198.5,-899.5 181.5,-899.5"/>
<polygon fill="#666666" stroke="#666666" points="181.5,-884.5 181.5,-884.5 198.5,-884.5 198.5,-884.5 181.5,-884.5"/>
<polygon fill="none" stroke="#666666" points="181,-868 181,-917 198,-917 198,-868 181,-868"/>
</a>
</g>
</g>
<!-- Node5&#45;&gt;Node3 -->
<g id="edge4_Node000003_Node000005" class="edge">
<title>Node5&#45;&gt;Node3</title>
<g id="a_edge4_Node000003_Node000005"><a xlink:title=" ">
<path fill="none" stroke="#63b8ff" d="M187.99,-867.66C187.25,-849.11 187.12,-822.79 190.5,-800 190.78,-798.1 191.08,-796.18 191.4,-794.26"/>
<polygon fill="none" stroke="#63b8ff" points="191.42,-794.18 188.55,-787.56 193.56,-782.37 196.42,-788.99 191.42,-794.18"/>
</a>
</g>
<text text-anchor="middle" x="223.5" y="-814" font-family="Helvetica,sans-Serif" font-size="10.00" fill="grey"> #_maxValue</text>
<text text-anchor="middle" x="223.5" y="-803" font-family="Helvetica,sans-Serif" font-size="10.00" fill="grey">#_value</text>
</g>
<!-- Node6 -->
<g id="Node000006" class="node">
<title>Node6</title>
<g id="a_Node000006"><a xlink:href="../../d5/d92/classstring.html" target="_top" xlink:title=" ">
<polygon fill="white" stroke="transparent" points="297.5,-917 259.5,-917 259.5,-868 297.5,-868 297.5,-917"/>
<text text-anchor="start" x="264.5" y="-904.5" font-family="Helvetica,sans-Serif" font-size="10.00">string</text>
<text text-anchor="start" x="276.5" y="-889.5" font-family="Helvetica,sans-Serif" font-size="10.00"> </text>
<text text-anchor="start" x="276.5" y="-874.5" font-family="Helvetica,sans-Serif" font-size="10.00"> </text>
<polygon fill="#666666" stroke="#666666" points="259.5,-899.5 259.5,-899.5 297.5,-899.5 297.5,-899.5 259.5,-899.5"/>
<polygon fill="#666666" stroke="#666666" points="259.5,-884.5 259.5,-884.5 297.5,-884.5 297.5,-884.5 259.5,-884.5"/>
<polygon fill="none" stroke="#666666" points="259.5,-868 259.5,-917 297.5,-917 297.5,-868 259.5,-868"/>
</a>
</g>
</g>
<!-- Node6&#45;&gt;Node3 -->
<g id="edge5_Node000003_Node000006" class="edge">
<title>Node6&#45;&gt;Node3</title>
<g id="a_edge5_Node000003_Node000006"><a xlink:title=" ">
<path fill="none" stroke="#63b8ff" d="M274.02,-867.71C270.58,-849.45 265.52,-822.57 260.14,-793.96"/>
<polygon fill="none" stroke="#63b8ff" points="260.11,-793.85 255.07,-788.69 257.89,-782.05 262.93,-787.21 260.11,-793.85"/>
</a>
</g>
<text text-anchor="middle" x="287" y="-808.5" font-family="Helvetica,sans-Serif" font-size="10.00" fill="grey"> #_name</text>
</g>
<!-- Node7 -->
<g id="Node000007" class="node">
<title>Node7</title>
<g id="a_Node000007"><a xlink:title=" ">
<polygon fill="white" stroke="transparent" points="383.5,-917 315.5,-917 315.5,-868 383.5,-868 383.5,-917"/>
<text text-anchor="start" x="320.5" y="-904.5" font-family="Helvetica,sans-Serif" font-size="10.00">TrackerType</text>
<text text-anchor="start" x="347.5" y="-889.5" font-family="Helvetica,sans-Serif" font-size="10.00"> </text>
<text text-anchor="start" x="347.5" y="-874.5" font-family="Helvetica,sans-Serif" font-size="10.00"> </text>
<polygon fill="#666666" stroke="#666666" points="315.5,-899.5 315.5,-899.5 383.5,-899.5 383.5,-899.5 315.5,-899.5"/>
<polygon fill="#666666" stroke="#666666" points="315.5,-884.5 315.5,-884.5 383.5,-884.5 383.5,-884.5 315.5,-884.5"/>
<polygon fill="none" stroke="#666666" points="315.5,-868 315.5,-917 383.5,-917 383.5,-868 315.5,-868"/>
</a>
</g>
</g>
<!-- Node7&#45;&gt;Node3 -->
<g id="edge6_Node000003_Node000007" class="edge">
<title>Node7&#45;&gt;Node3</title>
<g id="a_edge6_Node000003_Node000007"><a xlink:title=" ">
<path fill="none" stroke="#63b8ff" d="M341.1,-867.85C334.25,-849.18 324.02,-822.59 313.5,-800 312.49,-797.82 311.45,-795.63 310.4,-793.43"/>
<polygon fill="none" stroke="#63b8ff" points="310.27,-793.16 304.06,-789.5 305.05,-782.36 311.26,-786.02 310.27,-793.16"/>
</a>
</g>
<text text-anchor="middle" x="338.5" y="-808.5" font-family="Helvetica,sans-Serif" font-size="10.00" fill="grey"> &#45;_type</text>
</g>
</g>
</svg>

<g id="navigator" transform="translate(0 0)" fill="#404254">
  <rect fill="#f2f5e9" fill-opacity="0.5" stroke="#606060" stroke-width=".5" x="0" y="0" width="60" height="60"/>
  <use id="zoomplus" xlink:href="#zoomPlus" x="17" y="9" onmousedown="handleZoom(evt,'in')"/>
  <use id="zoomminus" xlink:href="#zoomMin" x="42" y="9" onmousedown="handleZoom(evt,'out')"/>
  <use id="reset" xlink:href="#resetDef" x="30" y="36" onmousedown="handleReset()"/>
   <use id="arrowup" xlink:href="#arrowUp" x="0" y="0" onmousedown="handlePan(0,-1)"/>
  <use id="arrowright" xlink:href="#arrowRight" x="0" y="0" onmousedown="handlePan(1,0)"/>
  <use id="arrowdown" xlink:href="#arrowDown" x="0" y="0" onmousedown="handlePan(0,1)"/>
  <use id="arrowleft" xlink:href="#arrowLeft" x="0" y="0" onmousedown="handlePan(-1,0)"/>
</g>
<svg viewBox="0 0 15 15" width="100%" height="30px" preserveAspectRatio="xMaxYMin meet">
 <g id="arrow_out" transform="scale(0.3 0.3)">
  <a xlink:href="classTerraria_1_1Achievements_1_1ConditionFloatTracker__coll__graph_org.svg" target="_base">
   <rect id="button" ry="5" rx="5" y="6" x="6" height="38" width="38"
        fill="#f2f5e9" fill-opacity="0.5" stroke="#606060" stroke-width="1.0"/>
   <path id="arrow"
     d="M 11.500037,31.436501 C 11.940474,20.09759 22.043105,11.32322 32.158766,21.979434 L 37.068811,17.246167 C 37.068811,17.246167 37.088388,32 37.088388,32 L 22.160133,31.978069 C 22.160133,31.978069 26.997745,27.140456 26.997745,27.140456 C 18.528582,18.264221 13.291696,25.230495 11.500037,31.436501 z"
     style="fill:#404040;"/>
  </a>
 </g>
</svg>

<style type='text/css'>
<![CDATA[
[data-mouse-over-selected='false'] { opacity: 0.7; }
[data-mouse-over-selected='true']  { opacity: 1.0; }
]]>
</style>
<script type="application/ecmascript"><![CDATA[
document.addEventListener('DOMContentLoaded', (event) => {
  highlightEdges();
  highlightAdjacentNodes();
});
]]></script>
</svg>
