<?xml version="1.0" encoding="UTF-8" standalone="no"?>
<!DOCTYPE svg PUBLIC "-//W3C//DTD SVG 1.1//EN"
 "http://www.w3.org/Graphics/SVG/1.1/DTD/svg11.dtd">
<!-- Generated by graphviz version 2.43.0 (0)
 -->
<!-- Title: CreativeUnlocksTracker Pages: 1 -->
<!--zoomable 760 -->
<svg id="main" version="1.1" xmlns="http://www.w3.org/2000/svg" xmlns:xlink="http://www.w3.org/1999/xlink" xml:space="preserve" onload="init(evt)">
<style type="text/css"><![CDATA[
.edge:hover path { stroke: red; }
.edge:hover polygon { stroke: red; fill: red; }
]]></style>
<script type="text/javascript"><![CDATA[
var edges = document.getElementsByTagName('g');
if (edges && edges.length) {
  for (var i=0;i<edges.length;i++) {
    if (edges[i].id.substr(0,4)=='edge') {
      edges[i].setAttribute('class','edge');
    }
  }
}
]]></script>
        <defs>
                <circle id="rim" cx="0" cy="0" r="7"/>
                <circle id="rim2" cx="0" cy="0" r="3.5"/>
                <g id="zoomPlus">
                        <use xlink:href="#rim" fill="#404040">
                                <set attributeName="fill" to="#808080" begin="zoomplus.mouseover" end="zoomplus.mouseout"/>
                        </use>
                        <path d="M-4,0h8M0,-4v8" fill="none" stroke="white" stroke-width="1.5" pointer-events="none"/>
                </g>
                <g id="zoomMin">
                        <use xlink:href="#rim" fill="#404040">
                                <set attributeName="fill" to="#808080" begin="zoomminus.mouseover" end="zoomminus.mouseout"/>
                        </use>
                        <path d="M-4,0h8" fill="none" stroke="white" stroke-width="1.5" pointer-events="none"/>
                </g>
                <g id="dirArrow">
                        <path fill="none" stroke="white" stroke-width="1.5" d="M0,-3.0v7 M-2.5,-0.5L0,-3.0L2.5,-0.5"/>
                </g>
               <g id="resetDef">
                       <use xlink:href="#rim2" fill="#404040">
                               <set attributeName="fill" to="#808080" begin="reset.mouseover" end="reset.mouseout"/>
                       </use>
               </g>
        </defs>

<script type="text/javascript">
var viewWidth = 821;
var viewHeight = 760;
var sectionId = 'dynsection-1';
</script>
<script xlink:href="../../svgpan.js"/>
<svg id="graph" class="graph">
<g id="viewport">
<title>CreativeUnlocksTracker</title>
<polygon fill="white" stroke="transparent" points="-4,4 -4,-756 816.5,-756 816.5,4 -4,4"/>
<!-- Node1 -->
<g id="node1" class="node">
<title>Node1</title>
<g id="a_node1"><a xlink:title=" ">
<polygon fill="#bfbfbf" stroke="black" points="316,-0.5 316,-167.5 504,-167.5 504,-0.5 316,-0.5"/>
<text text-anchor="middle" x="410" y="-155.5" font-family="Helvetica,sans-Serif" font-size="10.00">CreativeUnlocksTracker</text>
<polyline fill="none" stroke="black" points="316,-148.5 504,-148.5 "/>
<text text-anchor="middle" x="410" y="-136.5" font-family="Helvetica,sans-Serif" font-size="10.00"> </text>
<polyline fill="none" stroke="black" points="316,-129.5 504,-129.5 "/>
<text text-anchor="start" x="324" y="-117.5" font-family="Helvetica,sans-Serif" font-size="10.00">+ void Save(BinaryWriter</text>
<text text-anchor="start" x="324" y="-106.5" font-family="Helvetica,sans-Serif" font-size="10.00"> writer)</text>
<text text-anchor="start" x="324" y="-95.5" font-family="Helvetica,sans-Serif" font-size="10.00">+ void Load(BinaryReader</text>
<text text-anchor="start" x="324" y="-84.5" font-family="Helvetica,sans-Serif" font-size="10.00"> reader, int gameVersionSave</text>
<text text-anchor="start" x="324" y="-73.5" font-family="Helvetica,sans-Serif" font-size="10.00">WasMadeOn)</text>
<text text-anchor="start" x="324" y="-62.5" font-family="Helvetica,sans-Serif" font-size="10.00">+ void ValidateWorld</text>
<text text-anchor="start" x="324" y="-51.5" font-family="Helvetica,sans-Serif" font-size="10.00">(BinaryReader reader,</text>
<text text-anchor="start" x="324" y="-40.5" font-family="Helvetica,sans-Serif" font-size="10.00"> int gameVersionSaveWasMadeOn)</text>
<text text-anchor="start" x="324" y="-29.5" font-family="Helvetica,sans-Serif" font-size="10.00">+ void Reset()</text>
<text text-anchor="start" x="324" y="-18.5" font-family="Helvetica,sans-Serif" font-size="10.00">+ void OnPlayerJoining</text>
<text text-anchor="start" x="324" y="-7.5" font-family="Helvetica,sans-Serif" font-size="10.00">(int playerIndex)</text>
</a>
</g>
</g>
<!-- Node2 -->
<g id="node2" class="node">
<title>Node2</title>
<g id="a_node2"><a xlink:href="../../da/dd2/interfaceIPersistentPerWorldContent.html" target="_top" xlink:title=" ">
<polygon fill="white" stroke="black" points="0,-606.5 0,-751.5 188,-751.5 188,-606.5 0,-606.5"/>
<text text-anchor="middle" x="94" y="-739.5" font-family="Helvetica,sans-Serif" font-size="10.00">IPersistentPerWorldContent</text>
<polyline fill="none" stroke="black" points="0,-732.5 188,-732.5 "/>
<text text-anchor="middle" x="94" y="-720.5" font-family="Helvetica,sans-Serif" font-size="10.00"> </text>
<polyline fill="none" stroke="black" points="0,-713.5 188,-713.5 "/>
<text text-anchor="start" x="8" y="-701.5" font-family="Helvetica,sans-Serif" font-size="10.00">+ void Save(BinaryWriter</text>
<text text-anchor="start" x="8" y="-690.5" font-family="Helvetica,sans-Serif" font-size="10.00"> writer)</text>
<text text-anchor="start" x="8" y="-679.5" font-family="Helvetica,sans-Serif" font-size="10.00">+ void Load(BinaryReader</text>
<text text-anchor="start" x="8" y="-668.5" font-family="Helvetica,sans-Serif" font-size="10.00"> reader, int gameVersionSave</text>
<text text-anchor="start" x="8" y="-657.5" font-family="Helvetica,sans-Serif" font-size="10.00">WasMadeOn)</text>
<text text-anchor="start" x="8" y="-646.5" font-family="Helvetica,sans-Serif" font-size="10.00">+ void ValidateWorld</text>
<text text-anchor="start" x="8" y="-635.5" font-family="Helvetica,sans-Serif" font-size="10.00">(BinaryReader reader,</text>
<text text-anchor="start" x="8" y="-624.5" font-family="Helvetica,sans-Serif" font-size="10.00"> int gameVersionSaveWasMadeOn)</text>
<text text-anchor="start" x="8" y="-613.5" font-family="Helvetica,sans-Serif" font-size="10.00">+ void Reset()</text>
</a>
</g>
</g>
<!-- Node2&#45;&gt;Node1 -->
<g id="edge1" class="edge">
<title>Node2&#45;&gt;Node1</title>
<path fill="none" stroke="midnightblue" d="M124.17,-596.69C160.97,-501.76 228,-341.63 306,-215 315.78,-199.13 327.23,-183 338.89,-167.75"/>
<polygon fill="none" stroke="midnightblue" points="120.82,-595.65 120.49,-606.24 127.35,-598.17 120.82,-595.65"/>
</g>
<!-- Node4 -->
<g id="node4" class="node">
<title>Node4</title>
<g id="a_node4"><a xlink:href="../../d0/db2/classItemsSacrificedUnlocksTracker.html" target="_top" xlink:title=" ">
<polygon fill="white" stroke="black" points="315.5,-215.5 315.5,-547.5 504.5,-547.5 504.5,-215.5 315.5,-215.5"/>
<text text-anchor="middle" x="410" y="-535.5" font-family="Helvetica,sans-Serif" font-size="10.00">ItemsSacrificedUnlocksTracker</text>
<polyline fill="none" stroke="black" points="315.5,-528.5 504.5,-528.5 "/>
<text text-anchor="start" x="323.5" y="-516.5" font-family="Helvetica,sans-Serif" font-size="10.00">+ int LastEditId</text>
<polyline fill="none" stroke="black" points="315.5,-509.5 504.5,-509.5 "/>
<text text-anchor="start" x="323.5" y="-497.5" font-family="Helvetica,sans-Serif" font-size="10.00">+ ItemsSacrificedUnlocksTracker()</text>
<text text-anchor="start" x="323.5" y="-486.5" font-family="Helvetica,sans-Serif" font-size="10.00">+ int GetSacrificeCount</text>
<text text-anchor="start" x="323.5" y="-475.5" font-family="Helvetica,sans-Serif" font-size="10.00">(int itemId)</text>
<text text-anchor="start" x="323.5" y="-464.5" font-family="Helvetica,sans-Serif" font-size="10.00">+ void FillListOfItemsThat</text>
<text text-anchor="start" x="323.5" y="-453.5" font-family="Helvetica,sans-Serif" font-size="10.00">CanBeObtainedInfinitely</text>
<text text-anchor="start" x="323.5" y="-442.5" font-family="Helvetica,sans-Serif" font-size="10.00">(List&lt; int &gt; toObtainInfinitely)</text>
<text text-anchor="start" x="323.5" y="-431.5" font-family="Helvetica,sans-Serif" font-size="10.00">+ bool TryGetSacrificeNumbers</text>
<text text-anchor="start" x="323.5" y="-420.5" font-family="Helvetica,sans-Serif" font-size="10.00">(int itemId, out int amountWeHave,</text>
<text text-anchor="start" x="323.5" y="-409.5" font-family="Helvetica,sans-Serif" font-size="10.00"> out int amountNeededTotal)</text>
<text text-anchor="start" x="323.5" y="-398.5" font-family="Helvetica,sans-Serif" font-size="10.00">+ void RegisterItemSacrifice</text>
<text text-anchor="start" x="323.5" y="-387.5" font-family="Helvetica,sans-Serif" font-size="10.00">(int itemId, int amount)</text>
<text text-anchor="start" x="323.5" y="-376.5" font-family="Helvetica,sans-Serif" font-size="10.00">+ void SetSacrificeCountDirectly</text>
<text text-anchor="start" x="323.5" y="-365.5" font-family="Helvetica,sans-Serif" font-size="10.00">(string persistentId, int</text>
<text text-anchor="start" x="323.5" y="-354.5" font-family="Helvetica,sans-Serif" font-size="10.00"> sacrificeCount)</text>
<text text-anchor="start" x="323.5" y="-343.5" font-family="Helvetica,sans-Serif" font-size="10.00">+ void Save(BinaryWriter</text>
<text text-anchor="start" x="323.5" y="-332.5" font-family="Helvetica,sans-Serif" font-size="10.00"> writer)</text>
<text text-anchor="start" x="323.5" y="-321.5" font-family="Helvetica,sans-Serif" font-size="10.00">+ void Load(BinaryReader</text>
<text text-anchor="start" x="323.5" y="-310.5" font-family="Helvetica,sans-Serif" font-size="10.00"> reader, int gameVersionSave</text>
<text text-anchor="start" x="323.5" y="-299.5" font-family="Helvetica,sans-Serif" font-size="10.00">WasMadeOn)</text>
<text text-anchor="start" x="323.5" y="-288.5" font-family="Helvetica,sans-Serif" font-size="10.00">+ void ValidateWorld</text>
<text text-anchor="start" x="323.5" y="-277.5" font-family="Helvetica,sans-Serif" font-size="10.00">(BinaryReader reader,</text>
<text text-anchor="start" x="323.5" y="-266.5" font-family="Helvetica,sans-Serif" font-size="10.00"> int gameVersionSaveWasMadeOn)</text>
<text text-anchor="start" x="323.5" y="-255.5" font-family="Helvetica,sans-Serif" font-size="10.00">+ void Reset()</text>
<text text-anchor="start" x="323.5" y="-244.5" font-family="Helvetica,sans-Serif" font-size="10.00">+ void OnPlayerJoining</text>
<text text-anchor="start" x="323.5" y="-233.5" font-family="Helvetica,sans-Serif" font-size="10.00">(int playerIndex)</text>
<text text-anchor="start" x="323.5" y="-222.5" font-family="Helvetica,sans-Serif" font-size="10.00">+ void MarkContentsDirty()</text>
</a>
</g>
</g>
<!-- Node2&#45;&gt;Node4 -->
<g id="edge4" class="edge">
<title>Node2&#45;&gt;Node4</title>
<path fill="none" stroke="midnightblue" d="M178,-599.45C220.26,-559.94 271.63,-511.9 315.28,-471.08"/>
<polygon fill="none" stroke="midnightblue" points="175.41,-597.08 170.49,-606.47 180.19,-602.19 175.41,-597.08"/>
</g>
<!-- Node3 -->
<g id="node3" class="node">
<title>Node3</title>
<g id="a_node3"><a xlink:href="../../d1/db4/interfaceIOnPlayerJoining.html" target="_top" xlink:title=" ">
<polygon fill="white" stroke="black" points="683.5,-645 683.5,-713 812.5,-713 812.5,-645 683.5,-645"/>
<text text-anchor="middle" x="748" y="-701" font-family="Helvetica,sans-Serif" font-size="10.00">IOnPlayerJoining</text>
<polyline fill="none" stroke="black" points="683.5,-694 812.5,-694 "/>
<text text-anchor="middle" x="748" y="-682" font-family="Helvetica,sans-Serif" font-size="10.00"> </text>
<polyline fill="none" stroke="black" points="683.5,-675 812.5,-675 "/>
<text text-anchor="start" x="691.5" y="-663" font-family="Helvetica,sans-Serif" font-size="10.00">+ void OnPlayerJoining</text>
<text text-anchor="start" x="691.5" y="-652" font-family="Helvetica,sans-Serif" font-size="10.00">(int playerIndex)</text>
</a>
</g>
</g>
<!-- Node3&#45;&gt;Node1 -->
<g id="edge2" class="edge">
<title>Node3&#45;&gt;Node1</title>
<path fill="none" stroke="midnightblue" d="M745.52,-634.76C743.28,-613.54 739.05,-587.89 731,-566 674.38,-411.93 559.15,-258.46 483.26,-167.67"/>
<polygon fill="none" stroke="midnightblue" points="742.04,-635.16 746.46,-644.79 749.01,-634.5 742.04,-635.16"/>
</g>
<!-- Node3&#45;&gt;Node4 -->
<g id="edge5" class="edge">
<title>Node3&#45;&gt;Node4</title>
<path fill="none" stroke="midnightblue" d="M741.17,-635C735.9,-612.6 726.74,-585.82 711,-566 657.24,-498.3 571.17,-449.45 504.81,-419.25"/>
<polygon fill="none" stroke="midnightblue" points="737.79,-635.92 743.33,-644.95 744.63,-634.44 737.79,-635.92"/>
</g>
<!-- Node4&#45;&gt;Node1 -->
<g id="edge3" class="edge">
<title>Node4&#45;&gt;Node1</title>
<path fill="none" stroke="#404040" d="M410,-215.47C410,-203.33 410,-191.36 410,-179.87"/>
<polygon fill="none" stroke="#404040" points="410,-179.61 406,-173.61 410,-167.61 414,-173.61 410,-179.61"/>
<text text-anchor="middle" x="450.5" y="-189" font-family="Helvetica,sans-Serif" font-size="10.00"> +ItemSacrifices</text>
</g>
<!-- Node5 -->
<g id="node5" class="node">
<title>Node5</title>
<g id="a_node5"><a xlink:title=" ">
<polygon fill="white" stroke="#bfbfbf" points="206.5,-650.5 206.5,-707.5 327.5,-707.5 327.5,-650.5 206.5,-650.5"/>
<text text-anchor="middle" x="267" y="-695.5" font-family="Helvetica,sans-Serif" font-size="10.00">Dictionary&lt; int, int &gt;</text>
<polyline fill="none" stroke="#bfbfbf" points="206.5,-688.5 327.5,-688.5 "/>
<text text-anchor="middle" x="267" y="-676.5" font-family="Helvetica,sans-Serif" font-size="10.00"> </text>
<polyline fill="none" stroke="#bfbfbf" points="206.5,-669.5 327.5,-669.5 "/>
<text text-anchor="middle" x="267" y="-657.5" font-family="Helvetica,sans-Serif" font-size="10.00"> </text>
</a>
</g>
</g>
<!-- Node5&#45;&gt;Node4 -->
<g id="edge6" class="edge">
<title>Node5&#45;&gt;Node4</title>
<path fill="none" stroke="#404040" d="M264.78,-650.41C263.89,-627.18 264.9,-593.44 275,-566 283.28,-543.51 295.2,-521.39 308.58,-500.72"/>
<polygon fill="none" stroke="#404040" points="308.6,-500.69 308.6,-493.48 315.25,-490.7 315.26,-497.91 308.6,-500.69"/>
<text text-anchor="start" x="275" y="-580" font-family="Helvetica,sans-Serif" font-size="10.00"> &#45;_sacrificesCountByItemId</text>
<text text-anchor="middle" x="340.5" y="-569" font-family="Helvetica,sans-Serif" font-size="10.00">Cache</text>
</g>
<!-- Node6 -->
<g id="node6" class="node">
<title>Node6</title>
<g id="a_node6"><a xlink:title=" ">
<polygon fill="white" stroke="#bfbfbf" points="355.5,-645 355.5,-713 464.5,-713 464.5,-645 355.5,-645"/>
<text text-anchor="start" x="363.5" y="-701" font-family="Helvetica,sans-Serif" font-size="10.00">Dictionary&lt; string,</text>
<text text-anchor="middle" x="410" y="-690" font-family="Helvetica,sans-Serif" font-size="10.00"> int &gt;</text>
<polyline fill="none" stroke="#bfbfbf" points="355.5,-683 464.5,-683 "/>
<text text-anchor="middle" x="410" y="-671" font-family="Helvetica,sans-Serif" font-size="10.00"> </text>
<polyline fill="none" stroke="#bfbfbf" points="355.5,-664 464.5,-664 "/>
<text text-anchor="middle" x="410" y="-652" font-family="Helvetica,sans-Serif" font-size="10.00"> </text>
</a>
</g>
</g>
<!-- Node6&#45;&gt;Node4 -->
<g id="edge7" class="edge">
<title>Node6&#45;&gt;Node4</title>
<path fill="none" stroke="#404040" d="M410,-644.96C410,-623.03 410,-592.35 410,-559.66"/>
<polygon fill="none" stroke="#404040" points="410,-559.54 406,-553.54 410,-547.54 414,-553.54 410,-559.54"/>
<text text-anchor="middle" x="497.5" y="-574.5" font-family="Helvetica,sans-Serif" font-size="10.00"> &#45;_sacrificeCountByItemPersistentId</text>
</g>
<!-- Node7 -->
<g id="node7" class="node">
<title>Node7</title>
<g id="a_node7"><a xlink:title=" ">
<polygon fill="white" stroke="#bfbfbf" points="593.5,-650.5 593.5,-707.5 622.5,-707.5 622.5,-650.5 593.5,-650.5"/>
<text text-anchor="middle" x="608" y="-695.5" font-family="Helvetica,sans-Serif" font-size="10.00">int</text>
<polyline fill="none" stroke="#bfbfbf" points="593.5,-688.5 622.5,-688.5 "/>
<text text-anchor="middle" x="608" y="-676.5" font-family="Helvetica,sans-Serif" font-size="10.00"> </text>
<polyline fill="none" stroke="#bfbfbf" points="593.5,-669.5 622.5,-669.5 "/>
<text text-anchor="middle" x="608" y="-657.5" font-family="Helvetica,sans-Serif" font-size="10.00"> </text>
</a>
</g>
</g>
<!-- Node7&#45;&gt;Node4 -->
<g id="edge8" class="edge">
<title>Node7&#45;&gt;Node4</title>
<path fill="none" stroke="#404040" d="M606.9,-650.33C604.97,-626.75 599.8,-592.55 586,-566 567.74,-530.86 540.66,-497.81 513.19,-469.7"/>
<polygon fill="none" stroke="#404040" points="513.13,-469.64 506.06,-468.22 504.66,-461.14 511.73,-462.57 513.13,-469.64"/>
<text text-anchor="start" x="594" y="-580" font-family="Helvetica,sans-Serif" font-size="10.00"> +POSITIVE_SACRIFICE</text>
<text text-anchor="middle" x="650.5" y="-569" font-family="Helvetica,sans-Serif" font-size="10.00">_COUNT_CAP</text>
</g>
</g>
</svg>
        <g id="navigator" transform="translate(0 0)" fill="#404254">
                <rect fill="#f2f5e9" fill-opacity="0.5" stroke="#606060" stroke-width=".5" x="0" y="0" width="60" height="60"/>
                <use id="zoomplus" xlink:href="#zoomPlus" x="17" y="9" onmousedown="handleZoom(evt,'in')"/>
                <use id="zoomminus" xlink:href="#zoomMin" x="42" y="9" onmousedown="handleZoom(evt,'out')"/>
                <use id="reset" xlink:href="#resetDef" x="30" y="36" onmousedown="handleReset()"/>
                <g id="arrowUp" xlink:href="#dirArrow" transform="translate(30 24)" onmousedown="handlePan(0,-1)">
                  <use xlink:href="#rim" fill="#404040">
                        <set attributeName="fill" to="#808080" begin="arrowUp.mouseover" end="arrowUp.mouseout"/>
                  </use>
                  <path fill="none" stroke="white" stroke-width="1.5" d="M0,-3.0v7 M-2.5,-0.5L0,-3.0L2.5,-0.5"/>
                </g>
                <g id="arrowRight" xlink:href="#dirArrow" transform="rotate(90) translate(36 -43)" onmousedown="handlePan(1,0)">
                  <use xlink:href="#rim" fill="#404040">
                        <set attributeName="fill" to="#808080" begin="arrowRight.mouseover" end="arrowRight.mouseout"/>
                  </use>
                  <path fill="none" stroke="white" stroke-width="1.5" d="M0,-3.0v7 M-2.5,-0.5L0,-3.0L2.5,-0.5"/>
                </g>
                <g id="arrowDown" xlink:href="#dirArrow" transform="rotate(180) translate(-30 -48)" onmousedown="handlePan(0,1)">
                  <use xlink:href="#rim" fill="#404040">
                        <set attributeName="fill" to="#808080" begin="arrowDown.mouseover" end="arrowDown.mouseout"/>
                  </use>
                  <path fill="none" stroke="white" stroke-width="1.5" d="M0,-3.0v7 M-2.5,-0.5L0,-3.0L2.5,-0.5"/>
                </g>
                <g id="arrowLeft" xlink:href="#dirArrow" transform="rotate(270) translate(-36 17)" onmousedown="handlePan(-1,0)">
                  <use xlink:href="#rim" fill="#404040">
                        <set attributeName="fill" to="#808080" begin="arrowLeft.mouseover" end="arrowLeft.mouseout"/>
                  </use>
                  <path fill="none" stroke="white" stroke-width="1.5" d="M0,-3.0v7 M-2.5,-0.5L0,-3.0L2.5,-0.5"/>
                </g>
        </g>
        <svg viewBox="0 0 15 15" width="100%" height="30px" preserveAspectRatio="xMaxYMin meet">
         <g id="arrow_out" transform="scale(0.3 0.3)">
          <a xlink:href="classCreativeUnlocksTracker__coll__graph_org.svg" target="_base">
           <rect id="button" ry="5" rx="5" y="6" x="6" height="38" width="38"
                fill="#f2f5e9" fill-opacity="0.5" stroke="#606060" stroke-width="1.0"/>
           <path id="arrow"
             d="M 11.500037,31.436501 C 11.940474,20.09759 22.043105,11.32322 32.158766,21.979434 L 37.068811,17.246167 C 37.068811,17.246167 37.088388,32 37.088388,32 L 22.160133,31.978069 C 22.160133,31.978069 26.997745,27.140456 26.997745,27.140456 C 18.528582,18.264221 13.291696,25.230495 11.500037,31.436501 z"
             style="fill:#404040;"/>
          </a>
         </g>
        </svg>
</svg>
