<?xml version="1.0" encoding="UTF-8" standalone="no"?>
<!DOCTYPE svg PUBLIC "-//W3C//DTD SVG 1.1//EN"
 "http://www.w3.org/Graphics/SVG/1.1/DTD/svg11.dtd">
<!-- Generated by graphviz version 2.43.0 (0)
 -->
<!-- Title: Player.PlaceThing_Tiles_CheckRopeUsability Pages: 1 -->
<svg width="243pt" height="66pt"
 viewBox="0.00 0.00 243.00 66.00" xmlns="http://www.w3.org/2000/svg" xmlns:xlink="http://www.w3.org/1999/xlink">
<g id="graph0" class="graph" transform="scale(1 1) rotate(0) translate(4 62)">
<title>Player.PlaceThing_Tiles_CheckRopeUsability</title>
<polygon fill="white" stroke="transparent" points="-4,4 -4,-62 239,-62 239,4 -4,4"/>
<!-- Node1 -->
<g id="node1" class="node">
<title>Node1</title>
<g id="a_node1"><a xlink:title=" ">
<polygon fill="#bfbfbf" stroke="black" points="0,-14 0,-44 131,-44 131,-14 0,-14"/>
<text text-anchor="start" x="8" y="-32" font-family="Helvetica,sans-Serif" font-size="10.00">Player.PlaceThing_Tiles</text>
<text text-anchor="middle" x="65.5" y="-21" font-family="Helvetica,sans-Serif" font-size="10.00">_CheckRopeUsability</text>
</a>
</g>
</g>
<!-- Node2 -->
<g id="node2" class="node">
<title>Node2</title>
<g id="a_node2"><a xlink:href="../../d6/dba/classTile_a64e4b5e9c17707d5bf63cf590bb48c9b.html#a64e4b5e9c17707d5bf63cf590bb48c9b" target="_top" xlink:title=" ">
<polygon fill="white" stroke="black" points="167,-38.5 167,-57.5 235,-57.5 235,-38.5 167,-38.5"/>
<text text-anchor="middle" x="201" y="-45.5" font-family="Helvetica,sans-Serif" font-size="10.00">Tile.active</text>
</a>
</g>
</g>
<!-- Node1&#45;&gt;Node2 -->
<g id="edge1" class="edge">
<title>Node1&#45;&gt;Node2</title>
<path fill="none" stroke="midnightblue" d="M131.29,-38.22C139.98,-39.46 148.72,-40.7 156.9,-41.87"/>
<polygon fill="midnightblue" stroke="midnightblue" points="156.54,-45.35 166.94,-43.29 157.53,-38.42 156.54,-45.35"/>
</g>
<!-- Node3 -->
<g id="node3" class="node">
<title>Node3</title>
<g id="a_node3"><a xlink:href="../../d6/dba/classTile_a267a7535e27f6882e144008a4a0d95cc.html#a267a7535e27f6882e144008a4a0d95cc" target="_top" xlink:title=" ">
<polygon fill="white" stroke="black" points="171.5,-0.5 171.5,-19.5 230.5,-19.5 230.5,-0.5 171.5,-0.5"/>
<text text-anchor="middle" x="201" y="-7.5" font-family="Helvetica,sans-Serif" font-size="10.00">Tile.lava</text>
</a>
</g>
</g>
<!-- Node1&#45;&gt;Node3 -->
<g id="edge2" class="edge">
<title>Node1&#45;&gt;Node3</title>
<path fill="none" stroke="midnightblue" d="M131.29,-19.78C141.53,-18.32 151.82,-16.86 161.21,-15.52"/>
<polygon fill="midnightblue" stroke="midnightblue" points="161.98,-18.95 171.38,-14.07 160.99,-12.02 161.98,-18.95"/>
</g>
</g>
</svg>
