<?xml version="1.0" encoding="UTF-8" standalone="no"?>
<!DOCTYPE svg PUBLIC "-//W3C//DTD SVG 1.1//EN"
 "http://www.w3.org/Graphics/SVG/1.1/DTD/svg11.dtd">
<!-- Generated by graphviz version 2.43.0 (0)
 -->
<!-- Title: Player.FindPaintOrCoating Pages: 1 -->
<svg width="1795pt" height="102pt"
 viewBox="0.00 0.00 1795.00 101.50" xmlns="http://www.w3.org/2000/svg" xmlns:xlink="http://www.w3.org/1999/xlink">
<g id="graph0" class="graph" transform="scale(1 1) rotate(0) translate(4 97.5)">
<title>Player.FindPaintOrCoating</title>
<polygon fill="white" stroke="transparent" points="-4,4 -4,-97.5 1791,-97.5 1791,4 -4,4"/>
<!-- Node1 -->
<g id="node1" class="node">
<title>Node1</title>
<g id="a_node1"><a xlink:title=" ">
<polygon fill="#bfbfbf" stroke="black" points="1644,-43.5 1644,-62.5 1787,-62.5 1787,-43.5 1644,-43.5"/>
<text text-anchor="middle" x="1715.5" y="-50.5" font-family="Helvetica,sans-Serif" font-size="10.00">Player.FindPaintOrCoating</text>
</a>
</g>
</g>
<!-- Node2 -->
<g id="node2" class="node">
<title>Node2</title>
<g id="a_node2"><a xlink:href="../../da/d4a/classSmartCursorHelper_a5b9cbb6c158d0dd6ae9413d6c38d0565.html#a5b9cbb6c158d0dd6ae9413d6c38d0565" target="_top" xlink:title=" ">
<polygon fill="white" stroke="black" points="1447,-61 1447,-91 1608,-91 1608,-61 1447,-61"/>
<text text-anchor="start" x="1455" y="-79" font-family="Helvetica,sans-Serif" font-size="10.00">SmartCursorHelper.TryFinding</text>
<text text-anchor="middle" x="1527.5" y="-68" font-family="Helvetica,sans-Serif" font-size="10.00">PaintInplayerInventory</text>
</a>
</g>
</g>
<!-- Node1&#45;&gt;Node2 -->
<g id="edge1" class="edge">
<title>Node1&#45;&gt;Node2</title>
<path fill="none" stroke="midnightblue" d="M1633.93,-62.96C1625.35,-64.02 1616.63,-65.1 1608.06,-66.16"/>
<polygon fill="midnightblue" stroke="midnightblue" points="1634.42,-66.43 1643.92,-61.73 1633.56,-59.48 1634.42,-66.43"/>
</g>
<!-- Node12 -->
<g id="node12" class="node">
<title>Node12</title>
<g id="a_node12"><a xlink:href="../../db/d4a/classMain_a92816655acf6850811ea7ab8e4abe008.html#a92816655acf6850811ea7ab8e4abe008" target="_top" xlink:title=" ">
<polygon fill="white" stroke="black" points="1474,-21.5 1474,-40.5 1581,-40.5 1581,-21.5 1474,-21.5"/>
<text text-anchor="middle" x="1527.5" y="-28.5" font-family="Helvetica,sans-Serif" font-size="10.00">Main.TryGetAmmo</text>
</a>
</g>
</g>
<!-- Node1&#45;&gt;Node12 -->
<g id="edge11" class="edge">
<title>Node1&#45;&gt;Node12</title>
<path fill="none" stroke="midnightblue" d="M1633.54,-43.42C1615.76,-41.32 1597.39,-39.15 1581.08,-37.22"/>
<polygon fill="midnightblue" stroke="midnightblue" points="1633.57,-46.95 1643.92,-44.65 1634.4,-40 1633.57,-46.95"/>
</g>
<!-- Node3 -->
<g id="node3" class="node">
<title>Node3</title>
<g id="a_node3"><a xlink:href="../../da/d4a/classSmartCursorHelper_a78ef6a463bd8bf43f608548385472665.html#a78ef6a463bd8bf43f608548385472665" target="_top" xlink:title=" ">
<polygon fill="white" stroke="black" points="1238,-63 1238,-93 1411,-93 1411,-63 1238,-63"/>
<text text-anchor="start" x="1246" y="-81" font-family="Helvetica,sans-Serif" font-size="10.00">SmartCursorHelper.SmartCursor</text>
<text text-anchor="middle" x="1324.5" y="-70" font-family="Helvetica,sans-Serif" font-size="10.00">Lookup</text>
</a>
</g>
</g>
<!-- Node2&#45;&gt;Node3 -->
<g id="edge2" class="edge">
<title>Node2&#45;&gt;Node3</title>
<path fill="none" stroke="midnightblue" d="M1436.52,-76.9C1428.06,-76.98 1419.5,-77.06 1411.08,-77.15"/>
<polygon fill="midnightblue" stroke="midnightblue" points="1436.81,-80.39 1446.77,-76.79 1436.74,-73.39 1436.81,-80.39"/>
</g>
<!-- Node4 -->
<g id="node4" class="node">
<title>Node4</title>
<g id="a_node4"><a xlink:href="../../d2/d4b/classPlayer_aa2c6519d3a48c038839ea039bb371460.html#aa2c6519d3a48c038839ea039bb371460" target="_top" xlink:title=" ">
<polygon fill="white" stroke="black" points="1089.5,-68.5 1089.5,-87.5 1174.5,-87.5 1174.5,-68.5 1089.5,-68.5"/>
<text text-anchor="middle" x="1132" y="-75.5" font-family="Helvetica,sans-Serif" font-size="10.00">Player.Update</text>
</a>
</g>
</g>
<!-- Node3&#45;&gt;Node4 -->
<g id="edge3" class="edge">
<title>Node3&#45;&gt;Node4</title>
<path fill="none" stroke="midnightblue" d="M1227.67,-78C1209.01,-78 1190.37,-78 1174.63,-78"/>
<polygon fill="midnightblue" stroke="midnightblue" points="1227.72,-81.5 1237.72,-78 1227.72,-74.5 1227.72,-81.5"/>
</g>
<!-- Node5 -->
<g id="node5" class="node">
<title>Node5</title>
<g id="a_node5"><a xlink:href="../../db/d4a/classMain_a9c63b91be69d3b0b29cab6aaf41b520f.html#a9c63b91be69d3b0b29cab6aaf41b520f" target="_top" xlink:title=" ">
<polygon fill="white" stroke="black" points="875,-68.5 875,-87.5 1004,-87.5 1004,-68.5 875,-68.5"/>
<text text-anchor="middle" x="939.5" y="-75.5" font-family="Helvetica,sans-Serif" font-size="10.00">Main.DoUpdateInWorld</text>
</a>
</g>
</g>
<!-- Node4&#45;&gt;Node5 -->
<g id="edge4" class="edge">
<title>Node4&#45;&gt;Node5</title>
<path fill="none" stroke="midnightblue" d="M1078.93,-78C1055.89,-78 1028.57,-78 1004.32,-78"/>
<polygon fill="midnightblue" stroke="midnightblue" points="1079.19,-81.5 1089.19,-78 1079.19,-74.5 1079.19,-81.5"/>
</g>
<!-- Node6 -->
<g id="node6" class="node">
<title>Node6</title>
<g id="a_node6"><a xlink:href="../../db/d4a/classMain_a04b0697fe556a643c9811ab59495dacd.html#a04b0697fe556a643c9811ab59495dacd" target="_top" xlink:title=" ">
<polygon fill="white" stroke="black" points="714.5,-68.5 714.5,-87.5 806.5,-87.5 806.5,-68.5 714.5,-68.5"/>
<text text-anchor="middle" x="760.5" y="-75.5" font-family="Helvetica,sans-Serif" font-size="10.00">Main.DoUpdate</text>
</a>
</g>
</g>
<!-- Node5&#45;&gt;Node6 -->
<g id="edge5" class="edge">
<title>Node5&#45;&gt;Node6</title>
<path fill="none" stroke="midnightblue" d="M864.46,-78C844.86,-78 824.28,-78 806.72,-78"/>
<polygon fill="midnightblue" stroke="midnightblue" points="864.6,-81.5 874.6,-78 864.6,-74.5 864.6,-81.5"/>
</g>
<!-- Node7 -->
<g id="node7" class="node">
<title>Node7</title>
<g id="a_node7"><a xlink:href="../../db/d4a/classMain_ae1995a6cd30001bd0b4eb2ade469d462.html#ae1995a6cd30001bd0b4eb2ade469d462" target="_top" xlink:title=" ">
<polygon fill="white" stroke="black" points="587,-68.5 587,-87.5 666,-87.5 666,-68.5 587,-68.5"/>
<text text-anchor="middle" x="626.5" y="-75.5" font-family="Helvetica,sans-Serif" font-size="10.00">Main.Update</text>
</a>
</g>
</g>
<!-- Node6&#45;&gt;Node7 -->
<g id="edge6" class="edge">
<title>Node6&#45;&gt;Node7</title>
<path fill="none" stroke="midnightblue" d="M704.32,-78C691.5,-78 678.12,-78 666.19,-78"/>
<polygon fill="midnightblue" stroke="midnightblue" points="704.44,-81.5 714.44,-78 704.44,-74.5 704.44,-81.5"/>
</g>
<!-- Node8 -->
<g id="node8" class="node">
<title>Node8</title>
<g id="a_node8"><a xlink:href="../../db/d4a/classMain_aa0692b82ef0f39d28df7aae89daa2480.html#aa0692b82ef0f39d28df7aae89daa2480" target="_top" xlink:title=" ">
<polygon fill="white" stroke="black" points="464,-68.5 464,-87.5 549,-87.5 549,-68.5 464,-68.5"/>
<text text-anchor="middle" x="506.5" y="-75.5" font-family="Helvetica,sans-Serif" font-size="10.00">Main.DedServ</text>
</a>
</g>
</g>
<!-- Node7&#45;&gt;Node8 -->
<g id="edge7" class="edge">
<title>Node7&#45;&gt;Node8</title>
<path fill="none" stroke="midnightblue" d="M576.69,-78C567.52,-78 558,-78 549.07,-78"/>
<polygon fill="midnightblue" stroke="midnightblue" points="576.86,-81.5 586.86,-78 576.86,-74.5 576.86,-81.5"/>
</g>
<!-- Node9 -->
<g id="node9" class="node">
<title>Node9</title>
<g id="a_node9"><a xlink:href="../../dc/db5/classProgram_a7046fff16d913c8ea7291c3efa4cb4ed.html#a7046fff16d913c8ea7291c3efa4cb4ed" target="_top" xlink:title=" ">
<polygon fill="white" stroke="black" points="319,-68.5 319,-87.5 428,-87.5 428,-68.5 319,-68.5"/>
<text text-anchor="middle" x="373.5" y="-75.5" font-family="Helvetica,sans-Serif" font-size="10.00">Program.RunGame</text>
</a>
</g>
</g>
<!-- Node8&#45;&gt;Node9 -->
<g id="edge8" class="edge">
<title>Node8&#45;&gt;Node9</title>
<path fill="none" stroke="midnightblue" d="M453.44,-78C445.2,-78 436.65,-78 428.37,-78"/>
<polygon fill="midnightblue" stroke="midnightblue" points="453.69,-81.5 463.69,-78 453.69,-74.5 453.69,-81.5"/>
</g>
<!-- Node10 -->
<g id="node10" class="node">
<title>Node10</title>
<g id="a_node10"><a xlink:href="../../dc/db5/classProgram_ac64eaca42975d2a403f25794697886fc.html#ac64eaca42975d2a403f25794697886fc" target="_top" xlink:title=" ">
<polygon fill="white" stroke="black" points="158,-68.5 158,-87.5 283,-87.5 283,-68.5 158,-68.5"/>
<text text-anchor="middle" x="220.5" y="-75.5" font-family="Helvetica,sans-Serif" font-size="10.00">Program.LaunchGame</text>
</a>
</g>
</g>
<!-- Node9&#45;&gt;Node10 -->
<g id="edge9" class="edge">
<title>Node9&#45;&gt;Node10</title>
<path fill="none" stroke="midnightblue" d="M308.68,-78C300.25,-78 291.62,-78 283.23,-78"/>
<polygon fill="midnightblue" stroke="midnightblue" points="308.84,-81.5 318.84,-78 308.84,-74.5 308.84,-81.5"/>
</g>
<!-- Node11 -->
<g id="node11" class="node">
<title>Node11</title>
<g id="a_node11"><a xlink:href="../../df/d9e/classWindowsLaunch_a48fb8633919b7d48cc10a62bd116902a.html#a48fb8633919b7d48cc10a62bd116902a" target="_top" xlink:title=" ">
<polygon fill="white" stroke="black" points="0,-68.5 0,-87.5 122,-87.5 122,-68.5 0,-68.5"/>
<text text-anchor="middle" x="61" y="-75.5" font-family="Helvetica,sans-Serif" font-size="10.00">WindowsLaunch.Main</text>
</a>
</g>
</g>
<!-- Node10&#45;&gt;Node11 -->
<g id="edge10" class="edge">
<title>Node10&#45;&gt;Node11</title>
<path fill="none" stroke="midnightblue" d="M147.43,-78C138.95,-78 130.36,-78 122.07,-78"/>
<polygon fill="midnightblue" stroke="midnightblue" points="147.7,-81.5 157.7,-78 147.7,-74.5 147.7,-81.5"/>
</g>
<!-- Node13 -->
<g id="node13" class="node">
<title>Node13</title>
<g id="a_node13"><a xlink:href="../../db/d4a/classMain_aa20176a9067fadb1c96a4ef49563dbab.html#aa20176a9067fadb1c96a4ef49563dbab" target="_top" xlink:title=" ">
<polygon fill="white" stroke="black" points="1265,-14 1265,-44 1384,-44 1384,-14 1265,-14"/>
<text text-anchor="start" x="1273" y="-32" font-family="Helvetica,sans-Serif" font-size="10.00">Main.DrawInterface</text>
<text text-anchor="middle" x="1324.5" y="-21" font-family="Helvetica,sans-Serif" font-size="10.00">_40_InteractItemIcon</text>
</a>
</g>
</g>
<!-- Node12&#45;&gt;Node13 -->
<g id="edge12" class="edge">
<title>Node12&#45;&gt;Node13</title>
<path fill="none" stroke="midnightblue" d="M1463.68,-30.37C1438.27,-30.12 1409.09,-29.83 1384.12,-29.58"/>
<polygon fill="midnightblue" stroke="midnightblue" points="1463.92,-33.88 1473.95,-30.48 1463.99,-26.88 1463.92,-33.88"/>
</g>
<!-- Node14 -->
<g id="node14" class="node">
<title>Node14</title>
<g id="a_node14"><a xlink:href="../../db/d4a/classMain_a47957c74add575241a5096f027baad22.html#a47957c74add575241a5096f027baad22" target="_top" xlink:title=" ">
<polygon fill="white" stroke="black" points="1062,-17 1062,-47 1202,-47 1202,-17 1062,-17"/>
<text text-anchor="start" x="1070" y="-35" font-family="Helvetica,sans-Serif" font-size="10.00">Main.DrawInterface</text>
<text text-anchor="middle" x="1132" y="-24" font-family="Helvetica,sans-Serif" font-size="10.00">_11_IngameOptionsMenu</text>
</a>
</g>
</g>
<!-- Node13&#45;&gt;Node14 -->
<g id="edge13" class="edge">
<title>Node13&#45;&gt;Node14</title>
<path fill="none" stroke="midnightblue" d="M1254.39,-30.09C1237.4,-30.36 1219.21,-30.64 1202.21,-30.91"/>
<polygon fill="midnightblue" stroke="midnightblue" points="1254.85,-33.58 1264.79,-29.92 1254.74,-26.58 1254.85,-33.58"/>
</g>
<!-- Node15 -->
<g id="node15" class="node">
<title>Node15</title>
<g id="a_node15"><a xlink:href="../../db/d4a/classMain_aaf00fdabdb1a5736ff0443825f2d4324.html#aaf00fdabdb1a5736ff0443825f2d4324" target="_top" xlink:title=" ">
<polygon fill="white" stroke="black" points="853,-0.5 853,-19.5 1026,-19.5 1026,-0.5 853,-0.5"/>
<text text-anchor="middle" x="939.5" y="-7.5" font-family="Helvetica,sans-Serif" font-size="10.00">Main.SetupDrawInterfaceLayers</text>
</a>
</g>
</g>
<!-- Node13&#45;&gt;Node15 -->
<g id="edge19" class="edge">
<title>Node13&#45;&gt;Node15</title>
<path fill="none" stroke="midnightblue" d="M1254.83,-14.35C1237.66,-11.3 1219.22,-8.55 1202,-7 1143.44,-1.74 1077.21,-2.57 1026.05,-4.67"/>
<polygon fill="midnightblue" stroke="midnightblue" points="1254.3,-17.82 1264.77,-16.18 1255.57,-10.93 1254.3,-17.82"/>
</g>
<!-- Node14&#45;&gt;Node15 -->
<g id="edge14" class="edge">
<title>Node14&#45;&gt;Node15</title>
<path fill="none" stroke="midnightblue" d="M1051.74,-22.85C1042.22,-21.75 1032.49,-20.62 1022.93,-19.52"/>
<polygon fill="midnightblue" stroke="midnightblue" points="1051.62,-26.36 1061.96,-24.03 1052.42,-19.4 1051.62,-26.36"/>
</g>
<!-- Node16 -->
<g id="node16" class="node">
<title>Node16</title>
<g id="a_node16"><a xlink:href="../../db/d4a/classMain_a394be66e030c385131f8239af0bd3af0.html#a394be66e030c385131f8239af0bd3af0" target="_top" xlink:title=" ">
<polygon fill="white" stroke="black" points="704,-0.5 704,-19.5 817,-19.5 817,-0.5 704,-0.5"/>
<text text-anchor="middle" x="760.5" y="-7.5" font-family="Helvetica,sans-Serif" font-size="10.00">Main.DrawInterface</text>
</a>
</g>
</g>
<!-- Node15&#45;&gt;Node16 -->
<g id="edge15" class="edge">
<title>Node15&#45;&gt;Node16</title>
<path fill="none" stroke="midnightblue" d="M842.58,-10C833.85,-10 825.22,-10 817.03,-10"/>
<polygon fill="midnightblue" stroke="midnightblue" points="842.85,-13.5 852.85,-10 842.85,-6.5 842.85,-13.5"/>
</g>
<!-- Node17 -->
<g id="node17" class="node">
<title>Node17</title>
<g id="a_node17"><a xlink:href="../../db/d4a/classMain_a4ca48570ee8c9e54ed5371ecb4ab1877.html#a4ca48570ee8c9e54ed5371ecb4ab1877" target="_top" xlink:title=" ">
<polygon fill="white" stroke="black" points="585,-0.5 585,-19.5 668,-19.5 668,-0.5 585,-0.5"/>
<text text-anchor="middle" x="626.5" y="-7.5" font-family="Helvetica,sans-Serif" font-size="10.00">Main.DoDraw</text>
</a>
</g>
</g>
<!-- Node16&#45;&gt;Node17 -->
<g id="edge16" class="edge">
<title>Node16&#45;&gt;Node17</title>
<path fill="none" stroke="midnightblue" d="M693.72,-10C685.02,-10 676.3,-10 668.19,-10"/>
<polygon fill="midnightblue" stroke="midnightblue" points="693.9,-13.5 703.9,-10 693.9,-6.5 693.9,-13.5"/>
</g>
<!-- Node18 -->
<g id="node18" class="node">
<title>Node18</title>
<g id="a_node18"><a xlink:href="../../db/d4a/classMain_a9df405f7c9ce2e93e9af9bbf70231672.html#a9df405f7c9ce2e93e9af9bbf70231672" target="_top" xlink:title=" ">
<polygon fill="white" stroke="black" points="472,-0.5 472,-19.5 541,-19.5 541,-0.5 472,-0.5"/>
<text text-anchor="middle" x="506.5" y="-7.5" font-family="Helvetica,sans-Serif" font-size="10.00">Main.Draw</text>
</a>
</g>
</g>
<!-- Node17&#45;&gt;Node18 -->
<g id="edge17" class="edge">
<title>Node17&#45;&gt;Node18</title>
<path fill="none" stroke="midnightblue" d="M574.65,-3.31C563.31,-3.15 551.57,-3.32 541.13,-3.84"/>
<polygon fill="midnightblue" stroke="midnightblue" points="574.81,-6.81 584.89,-3.55 574.98,0.19 574.81,-6.81"/>
</g>
<!-- Node18&#45;&gt;Node17 -->
<g id="edge18" class="edge">
<title>Node18&#45;&gt;Node17</title>
<path fill="none" stroke="midnightblue" d="M551.38,-16.55C562.35,-16.85 574.08,-16.81 584.89,-16.45"/>
<polygon fill="midnightblue" stroke="midnightblue" points="551.26,-13.04 541.13,-16.16 550.99,-20.04 551.26,-13.04"/>
</g>
</g>
</svg>
