<?xml version="1.0" encoding="UTF-8" standalone="no"?>
<!DOCTYPE svg PUBLIC "-//W3C//DTD SVG 1.1//EN"
 "http://www.w3.org/Graphics/SVG/1.1/DTD/svg11.dtd">
<!-- Generated by graphviz version 2.43.0 (0)
 -->
<!-- Title: Player.ToggleInv Pages: 1 -->
<!--zoomable 116 -->
<svg id="main" version="1.1" xmlns="http://www.w3.org/2000/svg" xmlns:xlink="http://www.w3.org/1999/xlink" xml:space="preserve" onload="init(evt)">
<style type="text/css"><![CDATA[
.edge:hover path { stroke: red; }
.edge:hover polygon { stroke: red; fill: red; }
]]></style>
<script type="text/javascript"><![CDATA[
var edges = document.getElementsByTagName('g');
if (edges && edges.length) {
  for (var i=0;i<edges.length;i++) {
    if (edges[i].id.substr(0,4)=='edge') {
      edges[i].setAttribute('class','edge');
    }
  }
}
]]></script>
        <defs>
                <circle id="rim" cx="0" cy="0" r="7"/>
                <circle id="rim2" cx="0" cy="0" r="3.5"/>
                <g id="zoomPlus">
                        <use xlink:href="#rim" fill="#404040">
                                <set attributeName="fill" to="#808080" begin="zoomplus.mouseover" end="zoomplus.mouseout"/>
                        </use>
                        <path d="M-4,0h8M0,-4v8" fill="none" stroke="white" stroke-width="1.5" pointer-events="none"/>
                </g>
                <g id="zoomMin">
                        <use xlink:href="#rim" fill="#404040">
                                <set attributeName="fill" to="#808080" begin="zoomminus.mouseover" end="zoomminus.mouseout"/>
                        </use>
                        <path d="M-4,0h8" fill="none" stroke="white" stroke-width="1.5" pointer-events="none"/>
                </g>
                <g id="dirArrow">
                        <path fill="none" stroke="white" stroke-width="1.5" d="M0,-3.0v7 M-2.5,-0.5L0,-3.0L2.5,-0.5"/>
                </g>
               <g id="resetDef">
                       <use xlink:href="#rim2" fill="#404040">
                               <set attributeName="fill" to="#808080" begin="reset.mouseover" end="reset.mouseout"/>
                       </use>
               </g>
        </defs>

<script type="text/javascript">
var viewWidth = 1443;
var viewHeight = 116;
var sectionId = 'dynsection-1';
</script>
<script xlink:href="../../svgpan.js"/>
<svg id="graph" class="graph">
<g id="viewport">
<title>Player.ToggleInv</title>
<polygon fill="white" stroke="transparent" points="-4,4 -4,-111.5 1439,-111.5 1439,4 -4,4"/>
<!-- Node1 -->
<g id="node1" class="node">
<title>Node1</title>
<g id="a_node1"><a xlink:title=" ">
<polygon fill="#bfbfbf" stroke="black" points="1339,-50 1339,-69 1435,-69 1435,-50 1339,-50"/>
<text text-anchor="middle" x="1387" y="-57" font-family="Helvetica,sans-Serif" font-size="10.00">Player.ToggleInv</text>
</a>
</g>
</g>
<!-- Node2 -->
<g id="node2" class="node">
<title>Node2</title>
<g id="a_node2"><a xlink:href="../../db/d4a/classMain_a4ca48570ee8c9e54ed5371ecb4ab1877.html#a4ca48570ee8c9e54ed5371ecb4ab1877" target="_top" xlink:title=" ">
<polygon fill="white" stroke="black" points="1177.5,-88 1177.5,-107 1260.5,-107 1260.5,-88 1177.5,-88"/>
<text text-anchor="middle" x="1219" y="-95" font-family="Helvetica,sans-Serif" font-size="10.00">Main.DoDraw</text>
</a>
</g>
</g>
<!-- Node1&#45;&gt;Node2 -->
<g id="edge1" class="edge">
<title>Node1&#45;&gt;Node2</title>
<path fill="none" stroke="midnightblue" d="M1334.23,-71.35C1310.55,-76.77 1282.89,-83.1 1260.73,-88.18"/>
<polygon fill="midnightblue" stroke="midnightblue" points="1335.14,-74.73 1344.11,-69.09 1333.58,-67.91 1335.14,-74.73"/>
</g>
<!-- Node4 -->
<g id="node4" class="node">
<title>Node4</title>
<g id="a_node4"><a xlink:href="../../db/d4a/classMain_a7f48edf00ea0678d9c657ead6d9697a7.html#a7f48edf00ea0678d9c657ead6d9697a7" target="_top" xlink:title=" ">
<polygon fill="white" stroke="black" points="1139,-50 1139,-69 1299,-69 1299,-50 1139,-50"/>
<text text-anchor="middle" x="1219" y="-57" font-family="Helvetica,sans-Serif" font-size="10.00">Main.DoUpdate_WhilePaused</text>
</a>
</g>
</g>
<!-- Node1&#45;&gt;Node4 -->
<g id="edge4" class="edge">
<title>Node1&#45;&gt;Node4</title>
<path fill="none" stroke="midnightblue" d="M1328.77,-59.5C1319.25,-59.5 1309.23,-59.5 1299.28,-59.5"/>
<polygon fill="midnightblue" stroke="midnightblue" points="1328.88,-63 1338.88,-59.5 1328.88,-56 1328.88,-63"/>
</g>
<!-- Node11 -->
<g id="node11" class="node">
<title>Node11</title>
<g id="a_node11"><a xlink:href="../../da/dfc/classUICreativeInfiniteItemsDisplay_a6a192196b7f80129952278822d7a1077.html#a6a192196b7f80129952278822d7a1077" target="_top" xlink:title=" ">
<polygon fill="white" stroke="black" points="1135,-0.5 1135,-30.5 1303,-30.5 1303,-0.5 1135,-0.5"/>
<text text-anchor="start" x="1143" y="-18.5" font-family="Helvetica,sans-Serif" font-size="10.00">UICreativeInfiniteItemsDisplay.</text>
<text text-anchor="middle" x="1219" y="-7.5" font-family="Helvetica,sans-Serif" font-size="10.00">OnCanceledInput</text>
</a>
</g>
</g>
<!-- Node1&#45;&gt;Node11 -->
<g id="edge11" class="edge">
<title>Node1&#45;&gt;Node11</title>
<path fill="none" stroke="midnightblue" d="M1340.09,-47.33C1320.52,-42.14 1297.47,-36.04 1276.84,-30.57"/>
<polygon fill="midnightblue" stroke="midnightblue" points="1339.42,-50.77 1349.98,-49.95 1341.21,-44.01 1339.42,-50.77"/>
</g>
<!-- Node3 -->
<g id="node3" class="node">
<title>Node3</title>
<g id="a_node3"><a xlink:href="../../db/d4a/classMain_a9df405f7c9ce2e93e9af9bbf70231672.html#a9df405f7c9ce2e93e9af9bbf70231672" target="_top" xlink:title=" ">
<polygon fill="white" stroke="black" points="980.5,-88 980.5,-107 1049.5,-107 1049.5,-88 980.5,-88"/>
<text text-anchor="middle" x="1015" y="-95" font-family="Helvetica,sans-Serif" font-size="10.00">Main.Draw</text>
</a>
</g>
</g>
<!-- Node2&#45;&gt;Node3 -->
<g id="edge2" class="edge">
<title>Node2&#45;&gt;Node3</title>
<path fill="none" stroke="midnightblue" d="M1167.1,-91.55C1130.38,-90.27 1081.82,-90.53 1049.79,-92.31"/>
<polygon fill="midnightblue" stroke="midnightblue" points="1166.99,-95.05 1177.12,-91.95 1167.27,-88.05 1166.99,-95.05"/>
</g>
<!-- Node3&#45;&gt;Node2 -->
<g id="edge3" class="edge">
<title>Node3&#45;&gt;Node2</title>
<path fill="none" stroke="midnightblue" d="M1060.13,-103.19C1094.96,-104.65 1143.17,-104.6 1177.12,-103.05"/>
<polygon fill="midnightblue" stroke="midnightblue" points="1059.94,-99.68 1049.79,-102.69 1059.6,-106.67 1059.94,-99.68"/>
</g>
<!-- Node5 -->
<g id="node5" class="node">
<title>Node5</title>
<g id="a_node5"><a xlink:href="../../db/d4a/classMain_a04b0697fe556a643c9811ab59495dacd.html#a04b0697fe556a643c9811ab59495dacd" target="_top" xlink:title=" ">
<polygon fill="white" stroke="black" points="969,-50 969,-69 1061,-69 1061,-50 969,-50"/>
<text text-anchor="middle" x="1015" y="-57" font-family="Helvetica,sans-Serif" font-size="10.00">Main.DoUpdate</text>
</a>
</g>
</g>
<!-- Node4&#45;&gt;Node5 -->
<g id="edge5" class="edge">
<title>Node4&#45;&gt;Node5</title>
<path fill="none" stroke="midnightblue" d="M1128.48,-59.5C1105.22,-59.5 1081.12,-59.5 1061.23,-59.5"/>
<polygon fill="midnightblue" stroke="midnightblue" points="1128.74,-63 1138.74,-59.5 1128.74,-56 1128.74,-63"/>
</g>
<!-- Node6 -->
<g id="node6" class="node">
<title>Node6</title>
<g id="a_node6"><a xlink:href="../../db/d4a/classMain_ae1995a6cd30001bd0b4eb2ade469d462.html#ae1995a6cd30001bd0b4eb2ade469d462" target="_top" xlink:title=" ">
<polygon fill="white" stroke="black" points="771.5,-50 771.5,-69 850.5,-69 850.5,-50 771.5,-50"/>
<text text-anchor="middle" x="811" y="-57" font-family="Helvetica,sans-Serif" font-size="10.00">Main.Update</text>
</a>
</g>
</g>
<!-- Node5&#45;&gt;Node6 -->
<g id="edge6" class="edge">
<title>Node5&#45;&gt;Node6</title>
<path fill="none" stroke="midnightblue" d="M958.61,-59.5C924.42,-59.5 881.39,-59.5 850.82,-59.5"/>
<polygon fill="midnightblue" stroke="midnightblue" points="958.92,-63 968.92,-59.5 958.92,-56 958.92,-63"/>
</g>
<!-- Node7 -->
<g id="node7" class="node">
<title>Node7</title>
<g id="a_node7"><a xlink:href="../../db/d4a/classMain_aa0692b82ef0f39d28df7aae89daa2480.html#aa0692b82ef0f39d28df7aae89daa2480" target="_top" xlink:title=" ">
<polygon fill="white" stroke="black" points="564.5,-50 564.5,-69 649.5,-69 649.5,-50 564.5,-50"/>
<text text-anchor="middle" x="607" y="-57" font-family="Helvetica,sans-Serif" font-size="10.00">Main.DedServ</text>
</a>
</g>
</g>
<!-- Node6&#45;&gt;Node7 -->
<g id="edge7" class="edge">
<title>Node6&#45;&gt;Node7</title>
<path fill="none" stroke="midnightblue" d="M760.85,-59.5C726.78,-59.5 681.91,-59.5 649.61,-59.5"/>
<polygon fill="midnightblue" stroke="midnightblue" points="761.05,-63 771.05,-59.5 761.05,-56 761.05,-63"/>
</g>
<!-- Node8 -->
<g id="node8" class="node">
<title>Node8</title>
<g id="a_node8"><a xlink:href="../../dc/db5/classProgram_a7046fff16d913c8ea7291c3efa4cb4ed.html#a7046fff16d913c8ea7291c3efa4cb4ed" target="_top" xlink:title=" ">
<polygon fill="white" stroke="black" points="348.5,-50 348.5,-69 457.5,-69 457.5,-50 348.5,-50"/>
<text text-anchor="middle" x="403" y="-57" font-family="Helvetica,sans-Serif" font-size="10.00">Program.RunGame</text>
</a>
</g>
</g>
<!-- Node7&#45;&gt;Node8 -->
<g id="edge8" class="edge">
<title>Node7&#45;&gt;Node8</title>
<path fill="none" stroke="midnightblue" d="M554.03,-59.5C524.48,-59.5 487.55,-59.5 457.72,-59.5"/>
<polygon fill="midnightblue" stroke="midnightblue" points="554.15,-63 564.15,-59.5 554.15,-56 554.15,-63"/>
</g>
<!-- Node9 -->
<g id="node9" class="node">
<title>Node9</title>
<g id="a_node9"><a xlink:href="../../dc/db5/classProgram_ac64eaca42975d2a403f25794697886fc.html#ac64eaca42975d2a403f25794697886fc" target="_top" xlink:title=" ">
<polygon fill="white" stroke="black" points="158,-50 158,-69 283,-69 283,-50 158,-50"/>
<text text-anchor="middle" x="220.5" y="-57" font-family="Helvetica,sans-Serif" font-size="10.00">Program.LaunchGame</text>
</a>
</g>
</g>
<!-- Node8&#45;&gt;Node9 -->
<g id="edge9" class="edge">
<title>Node8&#45;&gt;Node9</title>
<path fill="none" stroke="midnightblue" d="M338.29,-59.5C320.39,-59.5 300.98,-59.5 283.2,-59.5"/>
<polygon fill="midnightblue" stroke="midnightblue" points="338.33,-63 348.33,-59.5 338.33,-56 338.33,-63"/>
</g>
<!-- Node10 -->
<g id="node10" class="node">
<title>Node10</title>
<g id="a_node10"><a xlink:href="../../df/d9e/classWindowsLaunch_a48fb8633919b7d48cc10a62bd116902a.html#a48fb8633919b7d48cc10a62bd116902a" target="_top" xlink:title=" ">
<polygon fill="white" stroke="black" points="0,-50 0,-69 122,-69 122,-50 0,-50"/>
<text text-anchor="middle" x="61" y="-57" font-family="Helvetica,sans-Serif" font-size="10.00">WindowsLaunch.Main</text>
</a>
</g>
</g>
<!-- Node9&#45;&gt;Node10 -->
<g id="edge10" class="edge">
<title>Node9&#45;&gt;Node10</title>
<path fill="none" stroke="midnightblue" d="M147.43,-59.5C138.95,-59.5 130.36,-59.5 122.07,-59.5"/>
<polygon fill="midnightblue" stroke="midnightblue" points="147.7,-63 157.7,-59.5 147.7,-56 147.7,-63"/>
</g>
<!-- Node12 -->
<g id="node12" class="node">
<title>Node12</title>
<g id="a_node12"><a xlink:href="../../da/dfc/classUICreativeInfiniteItemsDisplay_a6f3db9d4381fddbfeb7a6f6963a53478.html#a6f3db9d4381fddbfeb7a6f6963a53478" target="_top" xlink:title=" ">
<polygon fill="white" stroke="black" points="931,-0.5 931,-30.5 1099,-30.5 1099,-0.5 931,-0.5"/>
<text text-anchor="start" x="939" y="-18.5" font-family="Helvetica,sans-Serif" font-size="10.00">UICreativeInfiniteItemsDisplay.</text>
<text text-anchor="middle" x="1015" y="-7.5" font-family="Helvetica,sans-Serif" font-size="10.00">AddSearchBar</text>
</a>
</g>
</g>
<!-- Node11&#45;&gt;Node12 -->
<g id="edge12" class="edge">
<title>Node11&#45;&gt;Node12</title>
<path fill="none" stroke="midnightblue" d="M1124.89,-15.5C1116.27,-15.5 1107.56,-15.5 1099.04,-15.5"/>
<polygon fill="midnightblue" stroke="midnightblue" points="1124.96,-19 1134.96,-15.5 1124.96,-12 1124.96,-19"/>
</g>
<!-- Node13 -->
<g id="node13" class="node">
<title>Node13</title>
<g id="a_node13"><a xlink:href="../../da/dfc/classUICreativeInfiniteItemsDisplay_a6931d1b1eeca159a461d9bf20fbf63f1.html#a6931d1b1eeca159a461d9bf20fbf63f1" target="_top" xlink:title=" ">
<polygon fill="white" stroke="black" points="727,-0.5 727,-30.5 895,-30.5 895,-0.5 727,-0.5"/>
<text text-anchor="start" x="735" y="-18.5" font-family="Helvetica,sans-Serif" font-size="10.00">UICreativeInfiniteItemsDisplay.</text>
<text text-anchor="middle" x="811" y="-7.5" font-family="Helvetica,sans-Serif" font-size="10.00">BuildInfinitesMenuContents</text>
</a>
</g>
</g>
<!-- Node12&#45;&gt;Node13 -->
<g id="edge13" class="edge">
<title>Node12&#45;&gt;Node13</title>
<path fill="none" stroke="midnightblue" d="M920.89,-15.5C912.27,-15.5 903.56,-15.5 895.04,-15.5"/>
<polygon fill="midnightblue" stroke="midnightblue" points="920.96,-19 930.96,-15.5 920.96,-12 920.96,-19"/>
</g>
<!-- Node14 -->
<g id="node14" class="node">
<title>Node14</title>
<g id="a_node14"><a xlink:href="../../da/dfc/classUICreativeInfiniteItemsDisplay_ac881a9ef2f83428c4517dff1c4be52c0.html#ac881a9ef2f83428c4517dff1c4be52c0" target="_top" xlink:title=" ">
<polygon fill="white" stroke="black" points="523,-0.5 523,-30.5 691,-30.5 691,-0.5 523,-0.5"/>
<text text-anchor="start" x="531" y="-18.5" font-family="Helvetica,sans-Serif" font-size="10.00">UICreativeInfiniteItemsDisplay.</text>
<text text-anchor="middle" x="607" y="-7.5" font-family="Helvetica,sans-Serif" font-size="10.00">BuildPage</text>
</a>
</g>
</g>
<!-- Node13&#45;&gt;Node14 -->
<g id="edge14" class="edge">
<title>Node13&#45;&gt;Node14</title>
<path fill="none" stroke="midnightblue" d="M716.89,-15.5C708.27,-15.5 699.56,-15.5 691.04,-15.5"/>
<polygon fill="midnightblue" stroke="midnightblue" points="716.96,-19 726.96,-15.5 716.96,-12 716.96,-19"/>
</g>
<!-- Node15 -->
<g id="node15" class="node">
<title>Node15</title>
<g id="a_node15"><a xlink:href="../../da/dfc/classUICreativeInfiniteItemsDisplay_a387fc60d0b0cff01e05fcc78566fbab7.html#a387fc60d0b0cff01e05fcc78566fbab7" target="_top" xlink:title=" ">
<polygon fill="white" stroke="black" points="319,-0.5 319,-30.5 487,-30.5 487,-0.5 319,-0.5"/>
<text text-anchor="start" x="327" y="-18.5" font-family="Helvetica,sans-Serif" font-size="10.00">UICreativeInfiniteItemsDisplay.</text>
<text text-anchor="middle" x="403" y="-7.5" font-family="Helvetica,sans-Serif" font-size="10.00">UICreativeInfiniteItemsDisplay</text>
</a>
</g>
</g>
<!-- Node14&#45;&gt;Node15 -->
<g id="edge15" class="edge">
<title>Node14&#45;&gt;Node15</title>
<path fill="none" stroke="midnightblue" d="M512.89,-15.5C504.27,-15.5 495.56,-15.5 487.04,-15.5"/>
<polygon fill="midnightblue" stroke="midnightblue" points="512.96,-19 522.96,-15.5 512.96,-12 512.96,-19"/>
</g>
</g>
</svg>
        <g id="navigator" transform="translate(0 0)" fill="#404254">
                <rect fill="#f2f5e9" fill-opacity="0.5" stroke="#606060" stroke-width=".5" x="0" y="0" width="60" height="60"/>
                <use id="zoomplus" xlink:href="#zoomPlus" x="17" y="9" onmousedown="handleZoom(evt,'in')"/>
                <use id="zoomminus" xlink:href="#zoomMin" x="42" y="9" onmousedown="handleZoom(evt,'out')"/>
                <use id="reset" xlink:href="#resetDef" x="30" y="36" onmousedown="handleReset()"/>
                <g id="arrowUp" xlink:href="#dirArrow" transform="translate(30 24)" onmousedown="handlePan(0,-1)">
                  <use xlink:href="#rim" fill="#404040">
                        <set attributeName="fill" to="#808080" begin="arrowUp.mouseover" end="arrowUp.mouseout"/>
                  </use>
                  <path fill="none" stroke="white" stroke-width="1.5" d="M0,-3.0v7 M-2.5,-0.5L0,-3.0L2.5,-0.5"/>
                </g>
                <g id="arrowRight" xlink:href="#dirArrow" transform="rotate(90) translate(36 -43)" onmousedown="handlePan(1,0)">
                  <use xlink:href="#rim" fill="#404040">
                        <set attributeName="fill" to="#808080" begin="arrowRight.mouseover" end="arrowRight.mouseout"/>
                  </use>
                  <path fill="none" stroke="white" stroke-width="1.5" d="M0,-3.0v7 M-2.5,-0.5L0,-3.0L2.5,-0.5"/>
                </g>
                <g id="arrowDown" xlink:href="#dirArrow" transform="rotate(180) translate(-30 -48)" onmousedown="handlePan(0,1)">
                  <use xlink:href="#rim" fill="#404040">
                        <set attributeName="fill" to="#808080" begin="arrowDown.mouseover" end="arrowDown.mouseout"/>
                  </use>
                  <path fill="none" stroke="white" stroke-width="1.5" d="M0,-3.0v7 M-2.5,-0.5L0,-3.0L2.5,-0.5"/>
                </g>
                <g id="arrowLeft" xlink:href="#dirArrow" transform="rotate(270) translate(-36 17)" onmousedown="handlePan(-1,0)">
                  <use xlink:href="#rim" fill="#404040">
                        <set attributeName="fill" to="#808080" begin="arrowLeft.mouseover" end="arrowLeft.mouseout"/>
                  </use>
                  <path fill="none" stroke="white" stroke-width="1.5" d="M0,-3.0v7 M-2.5,-0.5L0,-3.0L2.5,-0.5"/>
                </g>
        </g>
        <svg viewBox="0 0 15 15" width="100%" height="30px" preserveAspectRatio="xMaxYMin meet">
         <g id="arrow_out" transform="scale(0.3 0.3)">
          <a xlink:href="classPlayer_a4add79a47db8fe5c9ae311478ccc054f_a4add79a47db8fe5c9ae311478ccc054f_icgraph_org.svg" target="_base">
           <rect id="button" ry="5" rx="5" y="6" x="6" height="38" width="38"
                fill="#f2f5e9" fill-opacity="0.5" stroke="#606060" stroke-width="1.0"/>
           <path id="arrow"
             d="M 11.500037,31.436501 C 11.940474,20.09759 22.043105,11.32322 32.158766,21.979434 L 37.068811,17.246167 C 37.068811,17.246167 37.088388,32 37.088388,32 L 22.160133,31.978069 C 22.160133,31.978069 26.997745,27.140456 26.997745,27.140456 C 18.528582,18.264221 13.291696,25.230495 11.500037,31.436501 z"
             style="fill:#404040;"/>
          </a>
         </g>
        </svg>
</svg>
