<?xml version="1.0" encoding="UTF-8" standalone="no"?>
<!DOCTYPE svg PUBLIC "-//W3C//DTD SVG 1.1//EN"
 "http://www.w3.org/Graphics/SVG/1.1/DTD/svg11.dtd">
<!-- Generated by graphviz version 2.43.0 (0)
 -->
<!-- Title: MartianSky.IUfoController.Update Pages: 1 -->
<svg width="459pt" height="39pt"
 viewBox="0.00 0.00 459.00 39.00" xmlns="http://www.w3.org/2000/svg" xmlns:xlink="http://www.w3.org/1999/xlink">
<g id="graph0" class="graph" transform="scale(1 1) rotate(0) translate(4 35)">
<title>MartianSky.IUfoController.Update</title>
<polygon fill="white" stroke="transparent" points="-4,4 -4,-35 455,-35 455,4 -4,4"/>
<!-- Node1 -->
<g id="node1" class="node">
<title>Node1</title>
<g id="a_node1"><a xlink:title=" ">
<polygon fill="#bfbfbf" stroke="black" points="308,-0.5 308,-30.5 451,-30.5 451,-0.5 308,-0.5"/>
<text text-anchor="start" x="316" y="-18.5" font-family="Helvetica,sans-Serif" font-size="10.00">MartianSky.IUfoController.</text>
<text text-anchor="middle" x="379.5" y="-7.5" font-family="Helvetica,sans-Serif" font-size="10.00">Update</text>
</a>
</g>
</g>
<!-- Node2 -->
<g id="node2" class="node">
<title>Node2</title>
<g id="a_node2"><a xlink:href="../../d2/dd8/structMartianSky_1_1Ufo_af4f8470dc384ee3fb97a1fb09d8ca697.html#af4f8470dc384ee3fb97a1fb09d8ca697" target="_top" xlink:title=" ">
<polygon fill="white" stroke="black" points="144,-6 144,-25 272,-25 272,-6 144,-6"/>
<text text-anchor="middle" x="208" y="-13" font-family="Helvetica,sans-Serif" font-size="10.00">MartianSky.Ufo.Update</text>
</a>
</g>
</g>
<!-- Node1&#45;&gt;Node2 -->
<g id="edge1" class="edge">
<title>Node1&#45;&gt;Node2</title>
<path fill="none" stroke="midnightblue" d="M297.58,-15.5C289.01,-15.5 280.39,-15.5 272.06,-15.5"/>
<polygon fill="midnightblue" stroke="midnightblue" points="297.6,-19 307.6,-15.5 297.6,-12 297.6,-19"/>
</g>
<!-- Node3 -->
<g id="node3" class="node">
<title>Node3</title>
<g id="a_node3"><a xlink:href="../../d1/d5c/classMartianSky_a0e12b900ba9a13fd76cf1a20c61b4faf.html#a0e12b900ba9a13fd76cf1a20c61b4faf" target="_top" xlink:title=" ">
<polygon fill="white" stroke="black" points="0,-6 0,-25 108,-25 108,-6 0,-6"/>
<text text-anchor="middle" x="54" y="-13" font-family="Helvetica,sans-Serif" font-size="10.00">MartianSky.Update</text>
</a>
</g>
</g>
<!-- Node2&#45;&gt;Node3 -->
<g id="edge2" class="edge">
<title>Node2&#45;&gt;Node3</title>
<path fill="none" stroke="midnightblue" d="M133.74,-15.5C125.07,-15.5 116.36,-15.5 108.05,-15.5"/>
<polygon fill="midnightblue" stroke="midnightblue" points="133.86,-19 143.86,-15.5 133.86,-12 133.86,-19"/>
</g>
</g>
</svg>
