<?xml version="1.0" encoding="UTF-8" standalone="no"?>
<!DOCTYPE svg PUBLIC "-//W3C//DTD SVG 1.1//EN"
 "http://www.w3.org/Graphics/SVG/1.1/DTD/svg11.dtd">
<!-- Generated by graphviz version 2.43.0 (0)
 -->
<!-- Title: Terraria.GameContent.UI.CustomCurrencySingleCoin.DrawSavingsMoney Pages: 1 -->
<svg width="1181pt" height="149pt"
 viewBox="0.00 0.00 1181.00 148.50" xmlns="http://www.w3.org/2000/svg" xmlns:xlink="http://www.w3.org/1999/xlink">
<g id="graph0" class="graph" transform="scale(1 1) rotate(0) translate(4 144.5)">
<title>Terraria.GameContent.UI.CustomCurrencySingleCoin.DrawSavingsMoney</title>
<!-- Node1 -->
<g id="Node000001" class="node">
<title>Node1</title>
<g id="a_Node000001"><a xlink:title=" ">
<polygon fill="#999999" stroke="#666666" points="178,-74.5 0,-74.5 0,-33.5 178,-33.5 178,-74.5"/>
<text text-anchor="start" x="8" y="-62.5" font-family="Helvetica,sans-Serif" font-size="10.00">Terraria.GameContent.UI.</text>
<text text-anchor="start" x="8" y="-51.5" font-family="Helvetica,sans-Serif" font-size="10.00">CustomCurrencySingleCoin.Draw</text>
<text text-anchor="middle" x="89" y="-40.5" font-family="Helvetica,sans-Serif" font-size="10.00">SavingsMoney</text>
</a>
</g>
</g>
<!-- Node2 -->
<g id="Node000002" class="node">
<title>Node2</title>
<g id="a_Node000002"><a xlink:href="../../d1/d9c/classTerraria_1_1Utils_a65e7fedd9fcd315680ad8b0dbda6994d.html#a65e7fedd9fcd315680ad8b0dbda6994d" target="_top" xlink:title=" ">
<polygon fill="white" stroke="#666666" points="365.5,-135 225.5,-135 225.5,-105 365.5,-105 365.5,-135"/>
<text text-anchor="start" x="233.5" y="-123" font-family="Helvetica,sans-Serif" font-size="10.00">Terraria.Utils.DrawBorder</text>
<text text-anchor="middle" x="295.5" y="-112" font-family="Helvetica,sans-Serif" font-size="10.00">StringFourWay</text>
</a>
</g>
</g>
<!-- Node1&#45;&gt;Node2 -->
<g id="edge1_Node000001_Node000002" class="edge">
<title>Node1&#45;&gt;Node2</title>
<g id="a_edge1_Node000001_Node000002"><a xlink:title=" ">
<path fill="none" stroke="#63b8ff" d="M149.14,-74.53C169.63,-81.51 192.77,-89.24 214,-96 220.11,-97.94 226.5,-99.93 232.88,-101.88"/>
<polygon fill="#63b8ff" stroke="#63b8ff" points="232.29,-105.36 242.88,-104.92 234.33,-98.66 232.29,-105.36"/>
</a>
</g>
</g>
<!-- Node7 -->
<g id="Node000007" class="node">
<title>Node7</title>
<g id="a_Node000007"><a xlink:href="../../d7/df6/classTerraria_1_1UI_1_1Chat_1_1ChatManager_ad0daac781e8696c59955af964519db95.html#ad0daac781e8696c59955af964519db95" target="_top" xlink:title=" ">
<polygon fill="white" stroke="#666666" points="377,-69 214,-69 214,-39 377,-39 377,-69"/>
<text text-anchor="start" x="222" y="-57" font-family="Helvetica,sans-Serif" font-size="10.00">Terraria.UI.Chat.ChatManager.</text>
<text text-anchor="middle" x="295.5" y="-46" font-family="Helvetica,sans-Serif" font-size="10.00">GetStringSize</text>
</a>
</g>
</g>
<!-- Node1&#45;&gt;Node7 -->
<g id="edge7_Node000001_Node000007" class="edge">
<title>Node1&#45;&gt;Node7</title>
<g id="a_edge7_Node000001_Node000007"><a xlink:title=" ">
<path fill="none" stroke="#63b8ff" d="M178.21,-54C186.66,-54 195.25,-54 203.73,-54"/>
<polygon fill="#63b8ff" stroke="#63b8ff" points="204,-57.5 214,-54 204,-50.5 204,-57.5"/>
</a>
</g>
</g>
<!-- Node11 -->
<g id="Node000011" class="node">
<title>Node11</title>
<g id="a_Node000011"><a xlink:href="../../da/dd5/classTerraria_1_1Main_a4ee28e48ce0d95212be5c3f6fdc8a61f.html#a4ee28e48ce0d95212be5c3f6fdc8a61f" target="_top" xlink:title=" ">
<polygon fill="white" stroke="#666666" points="360,-20.5 231,-20.5 231,-1.5 360,-1.5 360,-20.5"/>
<text text-anchor="middle" x="295.5" y="-8.5" font-family="Helvetica,sans-Serif" font-size="10.00">Terraria.Main.LoadItem</text>
</a>
</g>
</g>
<!-- Node1&#45;&gt;Node11 -->
<g id="edge12_Node000001_Node000011" class="edge">
<title>Node1&#45;&gt;Node11</title>
<g id="a_edge12_Node000001_Node000011"><a xlink:title=" ">
<path fill="none" stroke="#63b8ff" d="M178.21,-35.45C198.92,-31.1 220.41,-26.58 239.2,-22.63"/>
<polygon fill="#63b8ff" stroke="#63b8ff" points="239.98,-26.04 249.05,-20.56 238.54,-19.19 239.98,-26.04"/>
</a>
</g>
</g>
<!-- Node3 -->
<g id="Node000003" class="node">
<title>Node3</title>
<g id="a_Node000003"><a xlink:href="../../d7/d82/classReLogic_1_1Graphics_1_1DynamicSpriteFontExtensionMethods_aee186b17df53a5edef1af24369a5ea89.html#aee186b17df53a5edef1af24369a5ea89" target="_top" xlink:title=" ">
<polygon fill="white" stroke="#666666" points="598,-140.5 413,-140.5 413,-99.5 598,-99.5 598,-140.5"/>
<text text-anchor="start" x="421" y="-128.5" font-family="Helvetica,sans-Serif" font-size="10.00">ReLogic.Graphics.Dynamic</text>
<text text-anchor="start" x="421" y="-117.5" font-family="Helvetica,sans-Serif" font-size="10.00">SpriteFontExtensionMethods.Draw</text>
<text text-anchor="middle" x="505.5" y="-106.5" font-family="Helvetica,sans-Serif" font-size="10.00">String</text>
</a>
</g>
</g>
<!-- Node2&#45;&gt;Node3 -->
<g id="edge2_Node000002_Node000003" class="edge">
<title>Node2&#45;&gt;Node3</title>
<g id="a_edge2_Node000002_Node000003"><a xlink:title=" ">
<path fill="none" stroke="#63b8ff" d="M365.76,-120C377.7,-120 390.32,-120 402.9,-120"/>
<polygon fill="#63b8ff" stroke="#63b8ff" points="402.97,-123.5 412.97,-120 402.97,-116.5 402.97,-123.5"/>
</a>
</g>
</g>
<!-- Node4 -->
<g id="Node000004" class="node">
<title>Node4</title>
<g id="a_Node000004"><a xlink:href="../../d1/df5/classReLogic_1_1Graphics_1_1DynamicSpriteFont_ad2d5e1527f560e24c2b95640f0263e42.html#ad2d5e1527f560e24c2b95640f0263e42" target="_top" xlink:title=" ">
<polygon fill="white" stroke="#666666" points="789,-135 642,-135 642,-105 789,-105 789,-135"/>
<text text-anchor="start" x="650" y="-123" font-family="Helvetica,sans-Serif" font-size="10.00">ReLogic.Graphics.Dynamic</text>
<text text-anchor="middle" x="715.5" y="-112" font-family="Helvetica,sans-Serif" font-size="10.00">SpriteFont.InternalDraw</text>
</a>
</g>
</g>
<!-- Node3&#45;&gt;Node4 -->
<g id="edge3_Node000003_Node000004" class="edge">
<title>Node3&#45;&gt;Node4</title>
<g id="a_edge3_Node000003_Node000004"><a xlink:title=" ">
<path fill="none" stroke="#63b8ff" d="M598.03,-120C609.3,-120 620.76,-120 631.89,-120"/>
<polygon fill="#63b8ff" stroke="#63b8ff" points="631.99,-123.5 641.99,-120 631.99,-116.5 631.99,-123.5"/>
</a>
</g>
</g>
<!-- Node5 -->
<g id="Node000005" class="node">
<title>Node5</title>
<g id="a_Node000005"><a xlink:href="../../d1/df5/classReLogic_1_1Graphics_1_1DynamicSpriteFont_a9bd1064ef52867d336c09d84817f9e34.html#a9bd1064ef52867d336c09d84817f9e34" target="_top" xlink:title=" ">
<polygon fill="white" stroke="#666666" points="1173,-134 1016,-134 1016,-104 1173,-104 1173,-134"/>
<text text-anchor="start" x="1024" y="-122" font-family="Helvetica,sans-Serif" font-size="10.00">ReLogic.Graphics.Dynamic</text>
<text text-anchor="middle" x="1094.5" y="-111" font-family="Helvetica,sans-Serif" font-size="10.00">SpriteFont.GetCharacterData</text>
</a>
</g>
</g>
<!-- Node4&#45;&gt;Node5 -->
<g id="edge4_Node000004_Node000005" class="edge">
<title>Node4&#45;&gt;Node5</title>
<g id="a_edge4_Node000004_Node000005"><a xlink:title=" ">
<path fill="none" stroke="#63b8ff" d="M789.21,-121.44C803.71,-121.67 818.84,-121.88 833,-122 898.33,-122.56 914.67,-122.86 980,-122 988.36,-121.89 997.06,-121.73 1005.77,-121.55"/>
<polygon fill="#63b8ff" stroke="#63b8ff" points="1006.05,-125.04 1015.97,-121.32 1005.89,-118.05 1006.05,-125.04"/>
</a>
</g>
</g>
<!-- Node6 -->
<g id="Node000006" class="node">
<title>Node6</title>
<g id="a_Node000006"><a xlink:href="../../d1/df5/classReLogic_1_1Graphics_1_1DynamicSpriteFont_a49e4a12c0f6e26ca73b5c3d95d0197b2.html#a49e4a12c0f6e26ca73b5c3d95d0197b2" target="_top" xlink:title=" ">
<polygon fill="white" stroke="#666666" points="980,-113 833,-113 833,-83 980,-83 980,-113"/>
<text text-anchor="start" x="841" y="-101" font-family="Helvetica,sans-Serif" font-size="10.00">ReLogic.Graphics.Dynamic</text>
<text text-anchor="middle" x="906.5" y="-90" font-family="Helvetica,sans-Serif" font-size="10.00">SpriteFont.MeasureString</text>
</a>
</g>
</g>
<!-- Node4&#45;&gt;Node6 -->
<g id="edge5_Node000004_Node000006" class="edge">
<title>Node4&#45;&gt;Node6</title>
<g id="a_edge5_Node000004_Node000006"><a xlink:title=" ">
<path fill="none" stroke="#63b8ff" d="M789.03,-111.56C800.03,-110.28 811.45,-108.95 822.65,-107.64"/>
<polygon fill="#63b8ff" stroke="#63b8ff" points="823.32,-111.09 832.85,-106.46 822.51,-104.14 823.32,-111.09"/>
</a>
</g>
</g>
<!-- Node6&#45;&gt;Node5 -->
<g id="edge6_Node000006_Node000005" class="edge">
<title>Node6&#45;&gt;Node5</title>
<g id="a_edge6_Node000006_Node000005"><a xlink:title=" ">
<path fill="none" stroke="#63b8ff" d="M980.21,-106.21C988.63,-107.16 997.29,-108.14 1005.88,-109.11"/>
<polygon fill="#63b8ff" stroke="#63b8ff" points="1005.6,-112.6 1015.92,-110.24 1006.38,-105.64 1005.6,-112.6"/>
</a>
</g>
</g>
<!-- Node7&#45;&gt;Node7 -->
<g id="edge8_Node000007_Node000007" class="edge">
<title>Node7&#45;&gt;Node7</title>
<g id="a_edge8_Node000007_Node000007"><a xlink:title=" ">
<path fill="none" stroke="#63b8ff" d="M259.29,-69.28C251.24,-78.41 263.31,-87 295.5,-87 314.61,-87 326.63,-83.97 331.56,-79.6"/>
<polygon fill="#63b8ff" stroke="#63b8ff" points="335.06,-79.33 331.71,-69.28 328.06,-79.22 335.06,-79.33"/>
</a>
</g>
</g>
<!-- Node8 -->
<g id="Node000008" class="node">
<title>Node8</title>
<g id="a_Node000008"><a xlink:href="../../d7/df6/classTerraria_1_1UI_1_1Chat_1_1ChatManager_af687cd1f70060817f5984ef2b554cf40.html#af687cd1f70060817f5984ef2b554cf40" target="_top" xlink:title=" ">
<polygon fill="white" stroke="#666666" points="587,-69 424,-69 424,-39 587,-39 587,-69"/>
<text text-anchor="start" x="432" y="-57" font-family="Helvetica,sans-Serif" font-size="10.00">Terraria.UI.Chat.ChatManager.</text>
<text text-anchor="middle" x="505.5" y="-46" font-family="Helvetica,sans-Serif" font-size="10.00">ParseMessage</text>
</a>
</g>
</g>
<!-- Node7&#45;&gt;Node8 -->
<g id="edge9_Node000007_Node000008" class="edge">
<title>Node7&#45;&gt;Node8</title>
<g id="a_edge9_Node000007_Node000008"><a xlink:title=" ">
<path fill="none" stroke="#63b8ff" d="M377.22,-54C389.17,-54 401.56,-54 413.7,-54"/>
<polygon fill="#63b8ff" stroke="#63b8ff" points="413.83,-57.5 423.83,-54 413.83,-50.5 413.83,-57.5"/>
</a>
</g>
</g>
<!-- Node9 -->
<g id="Node000009" class="node">
<title>Node9</title>
<g id="a_Node000009"><a xlink:href="../../d7/df6/classTerraria_1_1UI_1_1Chat_1_1ChatManager_ad57d7ce4542b2df5cd9ff15c86855f3f.html#ad57d7ce4542b2df5cd9ff15c86855f3f" target="_top" xlink:title=" ">
<polygon fill="white" stroke="#666666" points="797,-78 634,-78 634,-48 797,-48 797,-78"/>
<text text-anchor="start" x="642" y="-66" font-family="Helvetica,sans-Serif" font-size="10.00">Terraria.UI.Chat.ChatManager.</text>
<text text-anchor="middle" x="715.5" y="-55" font-family="Helvetica,sans-Serif" font-size="10.00">GetHandler</text>
</a>
</g>
</g>
<!-- Node8&#45;&gt;Node9 -->
<g id="edge10_Node000008_Node000009" class="edge">
<title>Node8&#45;&gt;Node9</title>
<g id="a_edge10_Node000008_Node000009"><a xlink:title=" ">
<path fill="none" stroke="#63b8ff" d="M587.22,-57.49C599.17,-58.01 611.56,-58.55 623.7,-59.07"/>
<polygon fill="#63b8ff" stroke="#63b8ff" points="623.69,-62.57 633.83,-59.51 623.99,-55.58 623.69,-62.57"/>
</a>
</g>
</g>
<!-- Node10 -->
<g id="Node000010" class="node">
<title>Node10</title>
<g id="a_Node000010"><a xlink:href="../../dc/d25/interfaceTerraria_1_1UI_1_1Chat_1_1ITagHandler_aa5a15f340434dc9990b2b10b306642a6.html#aa5a15f340434dc9990b2b10b306642a6" target="_top" xlink:title=" ">
<polygon fill="white" stroke="#666666" points="793,-30 638,-30 638,0 793,0 793,-30"/>
<text text-anchor="start" x="646" y="-18" font-family="Helvetica,sans-Serif" font-size="10.00">Terraria.UI.Chat.ITagHandler.</text>
<text text-anchor="middle" x="715.5" y="-7" font-family="Helvetica,sans-Serif" font-size="10.00">Parse</text>
</a>
</g>
</g>
<!-- Node8&#45;&gt;Node10 -->
<g id="edge11_Node000008_Node000010" class="edge">
<title>Node8&#45;&gt;Node10</title>
<g id="a_edge11_Node000008_Node000010"><a xlink:title=" ">
<path fill="none" stroke="#63b8ff" d="M586.62,-38.98C600.16,-36.44 614.27,-33.79 627.96,-31.23"/>
<polygon fill="#63b8ff" stroke="#63b8ff" points="628.66,-34.66 637.84,-29.37 627.37,-27.78 628.66,-34.66"/>
</a>
</g>
</g>
</g>
</svg>
