<?xml version="1.0" encoding="UTF-8" standalone="no"?>
<!DOCTYPE svg PUBLIC "-//W3C//DTD SVG 1.1//EN"
 "http://www.w3.org/Graphics/SVG/1.1/DTD/svg11.dtd">
<!-- Generated by graphviz version 2.43.0 (0)
 -->
<!-- Title: Terraria.GameContent.Creative.CreativePowers.APerPlayerTogglePower.button_OnClick Pages: 1 -->
<svg width="732pt" height="167pt"
 viewBox="0.00 0.00 732.00 167.00" xmlns="http://www.w3.org/2000/svg" xmlns:xlink="http://www.w3.org/1999/xlink">
<g id="graph0" class="graph" transform="scale(1 1) rotate(0) translate(4 163)">
<title>Terraria.GameContent.Creative.CreativePowers.APerPlayerTogglePower.button_OnClick</title>
<!-- Node1 -->
<g id="Node000001" class="node">
<title>Node1</title>
<g id="a_Node000001"><a xlink:title=" ">
<polygon fill="#999999" stroke="#666666" points="245,-100 0,-100 0,-59 245,-59 245,-100"/>
<text text-anchor="start" x="8" y="-88" font-family="Helvetica,sans-Serif" font-size="10.00">Terraria.GameContent.Creative.</text>
<text text-anchor="start" x="8" y="-77" font-family="Helvetica,sans-Serif" font-size="10.00">CreativePowers.APerPlayerTogglePower.button</text>
<text text-anchor="middle" x="122.5" y="-66" font-family="Helvetica,sans-Serif" font-size="10.00">_OnClick</text>
</a>
</g>
</g>
<!-- Node2 -->
<g id="Node000002" class="node">
<title>Node2</title>
<g id="a_Node000002"><a xlink:href="../../d5/d12/classTerraria_1_1GameContent_1_1Creative_1_1CreativePowers_1_1APerPlayerTogglePower_a85ef289192938f7074f2e602383843da.html#a85ef289192938f7074f2e602383843da" target="_top" xlink:title=" ">
<polygon fill="white" stroke="#666666" points="494,-159 281,-159 281,-118 494,-118 494,-159"/>
<text text-anchor="start" x="289" y="-147" font-family="Helvetica,sans-Serif" font-size="10.00">Terraria.GameContent.Creative.</text>
<text text-anchor="start" x="289" y="-136" font-family="Helvetica,sans-Serif" font-size="10.00">CreativePowers.APerPlayerTogglePower.</text>
<text text-anchor="middle" x="387.5" y="-125" font-family="Helvetica,sans-Serif" font-size="10.00">GetIsUnlocked</text>
</a>
</g>
</g>
<!-- Node1&#45;&gt;Node2 -->
<g id="edge1_Node000001_Node000002" class="edge">
<title>Node1&#45;&gt;Node2</title>
<g id="a_edge1_Node000001_Node000002"><a xlink:title=" ">
<path fill="none" stroke="#63b8ff" d="M215.12,-100.05C237.69,-105.12 261.99,-110.57 285,-115.73"/>
<polygon fill="#63b8ff" stroke="#63b8ff" points="284.24,-119.15 294.77,-117.92 285.78,-112.32 284.24,-119.15"/>
</a>
</g>
</g>
<!-- Node3 -->
<g id="Node000003" class="node">
<title>Node3</title>
<g id="a_Node000003"><a xlink:href="../../df/da8/classTerraria_1_1GameContent_1_1Creative_1_1CreativePowersHelper_ab71b9a7026a7c9ebc69df415b3d4d572.html#ab71b9a7026a7c9ebc69df415b3d4d572" target="_top" xlink:title=" ">
<polygon fill="white" stroke="#666666" points="478,-100 297,-100 297,-59 478,-59 478,-100"/>
<text text-anchor="start" x="305" y="-88" font-family="Helvetica,sans-Serif" font-size="10.00">Terraria.GameContent.Creative.</text>
<text text-anchor="start" x="305" y="-77" font-family="Helvetica,sans-Serif" font-size="10.00">CreativePowersHelper.IsAvailable</text>
<text text-anchor="middle" x="387.5" y="-66" font-family="Helvetica,sans-Serif" font-size="10.00">ForPlayer</text>
</a>
</g>
</g>
<!-- Node1&#45;&gt;Node3 -->
<g id="edge2_Node000001_Node000003" class="edge">
<title>Node1&#45;&gt;Node3</title>
<g id="a_edge2_Node000001_Node000003"><a xlink:title=" ">
<path fill="none" stroke="#63b8ff" d="M245.38,-79.5C259.19,-79.5 273.14,-79.5 286.63,-79.5"/>
<polygon fill="#63b8ff" stroke="#63b8ff" points="286.84,-83 296.84,-79.5 286.84,-76 286.84,-83"/>
</a>
</g>
</g>
<!-- Node4 -->
<g id="Node000004" class="node">
<title>Node4</title>
<g id="a_Node000004"><a xlink:href="../../d5/d12/classTerraria_1_1GameContent_1_1Creative_1_1CreativePowers_1_1APerPlayerTogglePower_a2b6c0c2a53fb01984399f488edcd9dd8.html#a2b6c0c2a53fb01984399f488edcd9dd8" target="_top" xlink:title=" ">
<polygon fill="white" stroke="#666666" points="494,-41 281,-41 281,0 494,0 494,-41"/>
<text text-anchor="start" x="289" y="-29" font-family="Helvetica,sans-Serif" font-size="10.00">Terraria.GameContent.Creative.</text>
<text text-anchor="start" x="289" y="-18" font-family="Helvetica,sans-Serif" font-size="10.00">CreativePowers.APerPlayerTogglePower.</text>
<text text-anchor="middle" x="387.5" y="-7" font-family="Helvetica,sans-Serif" font-size="10.00">RequestUse</text>
</a>
</g>
</g>
<!-- Node1&#45;&gt;Node4 -->
<g id="edge3_Node000001_Node000004" class="edge">
<title>Node1&#45;&gt;Node4</title>
<g id="a_edge3_Node000001_Node000004"><a xlink:title=" ">
<path fill="none" stroke="#63b8ff" d="M215.12,-58.95C237.69,-53.88 261.99,-48.43 285,-43.27"/>
<polygon fill="#63b8ff" stroke="#63b8ff" points="285.78,-46.68 294.77,-41.08 284.24,-39.85 285.78,-46.68"/>
</a>
</g>
</g>
<!-- Node5 -->
<g id="Node000005" class="node">
<title>Node5</title>
<g id="a_Node000005"><a xlink:href="../../d0/ddd/classTerraria_1_1GameContent_1_1NetModules_1_1NetCreativePowersModule_a085f729d159c9988534ca539c6387553.html#a085f729d159c9988534ca539c6387553" target="_top" xlink:title=" ">
<polygon fill="white" stroke="#666666" points="724,-41 530,-41 530,0 724,0 724,-41"/>
<text text-anchor="start" x="538" y="-29" font-family="Helvetica,sans-Serif" font-size="10.00">Terraria.GameContent.Net</text>
<text text-anchor="start" x="538" y="-18" font-family="Helvetica,sans-Serif" font-size="10.00">Modules.NetCreativePowersModule.</text>
<text text-anchor="middle" x="627" y="-7" font-family="Helvetica,sans-Serif" font-size="10.00">PreparePacket</text>
</a>
</g>
</g>
<!-- Node4&#45;&gt;Node5 -->
<g id="edge4_Node000004_Node000005" class="edge">
<title>Node4&#45;&gt;Node5</title>
<g id="a_edge4_Node000004_Node000005"><a xlink:title=" ">
<path fill="none" stroke="#63b8ff" d="M494.05,-20.5C502.51,-20.5 511.06,-20.5 519.52,-20.5"/>
<polygon fill="#63b8ff" stroke="#63b8ff" points="519.78,-24 529.78,-20.5 519.78,-17 519.78,-24"/>
</a>
</g>
</g>
</g>
</svg>
