<?xml version="1.0" encoding="UTF-8" standalone="no"?>
<!DOCTYPE svg PUBLIC "-//W3C//DTD SVG 1.1//EN"
 "http://www.w3.org/Graphics/SVG/1.1/DTD/svg11.dtd">
<!-- Generated by graphviz version 2.43.0 (0)
 -->
<!-- Title: Terraria.GameContent.Creative.CreativePowers.APerPlayerTogglePower.GetIsUnlocked Pages: 1 -->
<svg width="751pt" height="108pt"
 viewBox="0.00 0.00 751.00 108.00" xmlns="http://www.w3.org/2000/svg" xmlns:xlink="http://www.w3.org/1999/xlink">
<g id="graph0" class="graph" transform="scale(1 1) rotate(0) translate(4 104)">
<title>Terraria.GameContent.Creative.CreativePowers.APerPlayerTogglePower.GetIsUnlocked</title>
<!-- Node1 -->
<g id="Node000001" class="node">
<title>Node1</title>
<g id="a_Node000001"><a xlink:title=" ">
<polygon fill="#999999" stroke="#666666" points="743,-70 530,-70 530,-29 743,-29 743,-70"/>
<text text-anchor="start" x="538" y="-58" font-family="Helvetica,sans-Serif" font-size="10.00">Terraria.GameContent.Creative.</text>
<text text-anchor="start" x="538" y="-47" font-family="Helvetica,sans-Serif" font-size="10.00">CreativePowers.APerPlayerTogglePower.</text>
<text text-anchor="middle" x="636.5" y="-36" font-family="Helvetica,sans-Serif" font-size="10.00">GetIsUnlocked</text>
</a>
</g>
</g>
<!-- Node2 -->
<g id="Node000002" class="node">
<title>Node2</title>
<g id="a_Node000002"><a xlink:href="../../d5/d12/classTerraria_1_1GameContent_1_1Creative_1_1CreativePowers_1_1APerPlayerTogglePower_aca242dfc1958b78a46073dcc9c1ecf15.html#aca242dfc1958b78a46073dcc9c1ecf15" target="_top" xlink:title=" ">
<polygon fill="white" stroke="#666666" points="494,-100 249,-100 249,-59 494,-59 494,-100"/>
<text text-anchor="start" x="257" y="-88" font-family="Helvetica,sans-Serif" font-size="10.00">Terraria.GameContent.Creative.</text>
<text text-anchor="start" x="257" y="-77" font-family="Helvetica,sans-Serif" font-size="10.00">CreativePowers.APerPlayerTogglePower.button</text>
<text text-anchor="middle" x="371.5" y="-66" font-family="Helvetica,sans-Serif" font-size="10.00">_OnClick</text>
</a>
</g>
</g>
<!-- Node1&#45;&gt;Node2 -->
<g id="edge1_Node000001_Node000002" class="edge">
<title>Node1&#45;&gt;Node2</title>
<g id="a_edge1_Node000001_Node000002"><a xlink:title=" ">
<path fill="none" stroke="#63b8ff" d="M519.45,-62.74C511.04,-63.7 502.54,-64.67 494.1,-65.63"/>
<polygon fill="#63b8ff" stroke="#63b8ff" points="520.13,-66.18 529.66,-61.57 519.33,-59.23 520.13,-66.18"/>
</a>
</g>
</g>
<!-- Node4 -->
<g id="Node000004" class="node">
<title>Node4</title>
<g id="a_Node000004"><a xlink:href="../../d5/d12/classTerraria_1_1GameContent_1_1Creative_1_1CreativePowers_1_1APerPlayerTogglePower_aede368937940b9ebb3a828743a6acb58.html#aede368937940b9ebb3a828743a6acb58" target="_top" xlink:title=" ">
<polygon fill="white" stroke="#666666" points="494,-41 249,-41 249,0 494,0 494,-41"/>
<text text-anchor="start" x="257" y="-29" font-family="Helvetica,sans-Serif" font-size="10.00">Terraria.GameContent.Creative.</text>
<text text-anchor="start" x="257" y="-18" font-family="Helvetica,sans-Serif" font-size="10.00">CreativePowers.APerPlayerTogglePower.button</text>
<text text-anchor="middle" x="371.5" y="-7" font-family="Helvetica,sans-Serif" font-size="10.00">_OnUpdate</text>
</a>
</g>
</g>
<!-- Node1&#45;&gt;Node4 -->
<g id="edge3_Node000001_Node000004" class="edge">
<title>Node1&#45;&gt;Node4</title>
<g id="a_edge3_Node000001_Node000004"><a xlink:title=" ">
<path fill="none" stroke="#63b8ff" d="M519.45,-36.7C511.04,-35.78 502.54,-34.84 494.1,-33.91"/>
<polygon fill="#63b8ff" stroke="#63b8ff" points="519.34,-40.21 529.66,-37.83 520.11,-33.25 519.34,-40.21"/>
</a>
</g>
</g>
<!-- Node3 -->
<g id="Node000003" class="node">
<title>Node3</title>
<g id="a_Node000003"><a xlink:href="../../d5/d12/classTerraria_1_1GameContent_1_1Creative_1_1CreativePowers_1_1APerPlayerTogglePower_a4535996529dd38fccb424cca9b58c1d0.html#a4535996529dd38fccb424cca9b58c1d0" target="_top" xlink:title=" ">
<polygon fill="white" stroke="#666666" points="213,-70 0,-70 0,-29 213,-29 213,-70"/>
<text text-anchor="start" x="8" y="-58" font-family="Helvetica,sans-Serif" font-size="10.00">Terraria.GameContent.Creative.</text>
<text text-anchor="start" x="8" y="-47" font-family="Helvetica,sans-Serif" font-size="10.00">CreativePowers.APerPlayerTogglePower.</text>
<text text-anchor="middle" x="106.5" y="-36" font-family="Helvetica,sans-Serif" font-size="10.00">ProvidePowerButtons</text>
</a>
</g>
</g>
<!-- Node2&#45;&gt;Node3 -->
<g id="edge2_Node000002_Node000003" class="edge">
<title>Node2&#45;&gt;Node3</title>
<g id="a_edge2_Node000002_Node000003"><a xlink:title=" ">
<path fill="none" stroke="#63b8ff" d="M238.63,-64.46C230.11,-63.49 221.59,-62.51 213.22,-61.56"/>
<polygon fill="#63b8ff" stroke="#63b8ff" points="238.29,-67.94 248.62,-65.6 239.08,-60.99 238.29,-67.94"/>
</a>
</g>
</g>
<!-- Node4&#45;&gt;Node3 -->
<g id="edge4_Node000004_Node000003" class="edge">
<title>Node4&#45;&gt;Node3</title>
<g id="a_edge4_Node000004_Node000003"><a xlink:title=" ">
<path fill="none" stroke="#63b8ff" d="M238.63,-35.04C230.11,-35.98 221.59,-36.92 213.22,-37.84"/>
<polygon fill="#63b8ff" stroke="#63b8ff" points="239.07,-38.51 248.62,-33.94 238.3,-31.56 239.07,-38.51"/>
</a>
</g>
</g>
</g>
</svg>
