<?xml version="1.0" encoding="UTF-8" standalone="no"?>
<!DOCTYPE svg PUBLIC "-//W3C//DTD SVG 1.1//EN"
 "http://www.w3.org/Graphics/SVG/1.1/DTD/svg11.dtd">
<!-- Generated by graphviz version 2.43.0 (0)
 -->
<!-- Title: Terraria.UI.UserInterface.RefreshState Pages: 1 -->
<!--zoomable 521 -->

<svg id="main" version="1.1" xmlns="http://www.w3.org/2000/svg" xmlns:xlink="http://www.w3.org/1999/xlink" xml:space="preserve" onload="init(evt)">
<style type="text/css"><![CDATA[
.node, .edge {opacity: 0.7;}
.node.selected, .edge.selected {opacity: 1;}
.edge:hover path { stroke: red; }
.edge:hover polygon { stroke: red; fill: red; }
]]></style>

<defs>
  <circle id="rim" cx="0" cy="0" r="7"/>
  <circle id="rim2" cx="0" cy="0" r="3.5"/>
  <g id="zoomPlus">
    <use xlink:href="#rim" fill="#404040"><set attributeName="fill" to="#808080" begin="zoomplus.mouseover" end="zoomplus.mouseout"/></use>
    <path d="M-4,0h8M0,-4v8" fill="none" stroke="white" stroke-width="1.5" pointer-events="none"/>
  </g>
  <g id="zoomMin">
    <use xlink:href="#rim" fill="#404040"><set attributeName="fill" to="#808080" begin="zoomminus.mouseover" end="zoomminus.mouseout"/></use>
    <path d="M-4,0h8" fill="none" stroke="white" stroke-width="1.5" pointer-events="none"/>
  </g>
  <g id="arrowUp" transform="translate(30 24)">
    <use xlink:href="#rim"/>
    <path pointer-events="none" fill="none" stroke="white" stroke-width="1.5" d="M0,-3.0v7 M-2.5,-0.5L0,-3.0L2.5,-0.5"/>
  </g>
  <g id="arrowRight" transform="rotate(90) translate(36 -43)">
    <use xlink:href="#rim"/>
    <path pointer-events="none" fill="none" stroke="white" stroke-width="1.5" d="M0,-3.0v7 M-2.5,-0.5L0,-3.0L2.5,-0.5"/>
  </g>
  <g id="arrowDown" transform="rotate(180) translate(-30 -48)">
    <use xlink:href="#rim"/>
    <path pointer-events="none" fill="none" stroke="white" stroke-width="1.5" d="M0,-3.0v7 M-2.5,-0.5L0,-3.0L2.5,-0.5"/>
  </g>
  <g id="arrowLeft" transform="rotate(270) translate(-36 17)">
    <use xlink:href="#rim"/>
    <path pointer-events="none" fill="none" stroke="white" stroke-width="1.5" d="M0,-3.0v7 M-2.5,-0.5L0,-3.0L2.5,-0.5"/>
  </g>
  <g id="resetDef">
    <use xlink:href="#rim2" fill="#404040"><set attributeName="fill" to="#808080" begin="reset.mouseover" end="reset.mouseout"/></use>
  </g>
</defs>
<script type="application/ecmascript">
var viewWidth = 792;
var viewHeight = 521;
var sectionId = 'dynsection-0';
</script>
<script type="application/ecmascript" xlink:href="../../svg.min.js"/>
<svg id="graph" class="graph">
<g id="viewport">
<title>Terraria.UI.UserInterface.RefreshState</title>
<!-- Node1 -->
<g id="Node000001" class="node">
<title>Node1</title>
<g id="a_Node000001"><a xlink:title=" ">
<polygon fill="#999999" stroke="#666666" points="139,-362.5 0,-362.5 0,-332.5 139,-332.5 139,-362.5"/>
<text text-anchor="start" x="8" y="-350.5" font-family="Helvetica,sans-Serif" font-size="10.00">Terraria.UI.UserInterface.</text>
<text text-anchor="middle" x="69.5" y="-339.5" font-family="Helvetica,sans-Serif" font-size="10.00">RefreshState</text>
</a>
</g>
</g>
<!-- Node2 -->
<g id="Node000002" class="node">
<title>Node2</title>
<g id="a_Node000002"><a xlink:href="../../d7/d72/classTerraria_1_1UI_1_1UIElement_a53dde9d58711507264436e68759382d7.html#a53dde9d58711507264436e68759382d7" target="_top" xlink:title=" ">
<polygon fill="white" stroke="#666666" points="347.5,-464 183.5,-464 183.5,-445 347.5,-445 347.5,-464"/>
<text text-anchor="middle" x="265.5" y="-452" font-family="Helvetica,sans-Serif" font-size="10.00">Terraria.UI.UIElement.Activate</text>
</a>
</g>
</g>
<!-- Node1&#45;&gt;Node2 -->
<g id="edge1_Node000001_Node000002" class="edge">
<title>Node1&#45;&gt;Node2</title>
<g id="a_edge1_Node000001_Node000002"><a xlink:title=" ">
<path fill="none" stroke="#63b8ff" d="M97.88,-362.6C135.08,-383.12 201.16,-419.56 237.93,-439.85"/>
<polygon fill="#63b8ff" stroke="#63b8ff" points="236.6,-443.11 247.05,-444.87 239.98,-436.98 236.6,-443.11"/>
</a>
</g>
</g>
<!-- Node6 -->
<g id="Node000006" class="node">
<title>Node6</title>
<g id="a_Node000006"><a xlink:href="../../d7/d72/classTerraria_1_1UI_1_1UIElement_a172ab329792a6b10d313e66ccd63f30f.html#a172ab329792a6b10d313e66ccd63f30f" target="_top" xlink:title=" ">
<polygon fill="white" stroke="#666666" points="354,-375 177,-375 177,-356 354,-356 354,-375"/>
<text text-anchor="middle" x="265.5" y="-363" font-family="Helvetica,sans-Serif" font-size="10.00">Terraria.UI.UIElement.Deactivate</text>
</a>
</g>
</g>
<!-- Node1&#45;&gt;Node6 -->
<g id="edge6_Node000001_Node000006" class="edge">
<title>Node1&#45;&gt;Node6</title>
<g id="a_edge6_Node000001_Node000006"><a xlink:title=" ">
<path fill="none" stroke="#63b8ff" d="M139.17,-353.87C148.14,-354.7 157.45,-355.57 166.78,-356.43"/>
<polygon fill="#63b8ff" stroke="#63b8ff" points="166.61,-359.93 176.89,-357.37 167.26,-352.96 166.61,-359.93"/>
</a>
</g>
</g>
<!-- Node8 -->
<g id="Node000008" class="node">
<title>Node8</title>
<g id="a_Node000008"><a xlink:href="../../d7/d72/classTerraria_1_1UI_1_1UIElement_aa33dca6c66f9820ef270bc2e23ef1496.html#aa33dca6c66f9820ef270bc2e23ef1496" target="_top" xlink:title=" ">
<polygon fill="white" stroke="#666666" points="356,-289 175,-289 175,-270 356,-270 356,-289"/>
<text text-anchor="middle" x="265.5" y="-277" font-family="Helvetica,sans-Serif" font-size="10.00">Terraria.UI.UIElement.Recalculate</text>
</a>
</g>
</g>
<!-- Node1&#45;&gt;Node8 -->
<g id="edge9_Node000001_Node000008" class="edge">
<title>Node1&#45;&gt;Node8</title>
<g id="a_edge9_Node000001_Node000008"><a xlink:title=" ">
<path fill="none" stroke="#63b8ff" d="M113.55,-332.41C147.75,-320.42 195.05,-303.84 227.55,-292.45"/>
<polygon fill="#63b8ff" stroke="#63b8ff" points="228.84,-295.71 237.12,-289.1 226.53,-289.1 228.84,-295.71"/>
</a>
</g>
</g>
<!-- Node14 -->
<g id="Node000014" class="node">
<title>Node14</title>
<g id="a_Node000014"><a xlink:href="../../dc/dc4/classTerraria_1_1UI_1_1UserInterface_a700e4c651872be926b43d293f89f1a59.html#a700e4c651872be926b43d293f89f1a59" target="_top" xlink:title=" ">
<polygon fill="white" stroke="#666666" points="335,-133.5 196,-133.5 196,-103.5 335,-103.5 335,-133.5"/>
<text text-anchor="start" x="204" y="-121.5" font-family="Helvetica,sans-Serif" font-size="10.00">Terraria.UI.UserInterface.</text>
<text text-anchor="middle" x="265.5" y="-110.5" font-family="Helvetica,sans-Serif" font-size="10.00">ResetState</text>
</a>
</g>
</g>
<!-- Node1&#45;&gt;Node14 -->
<g id="edge16_Node000001_Node000014" class="edge">
<title>Node1&#45;&gt;Node14</title>
<g id="a_edge16_Node000001_Node000014"><a xlink:title=" ">
<path fill="none" stroke="#63b8ff" d="M83.23,-332.47C116.39,-293.33 205.6,-188.02 245.16,-141.33"/>
<polygon fill="#63b8ff" stroke="#63b8ff" points="247.93,-143.47 251.72,-133.58 242.59,-138.95 247.93,-143.47"/>
</a>
</g>
</g>
<!-- Node2&#45;&gt;Node2 -->
<g id="edge2_Node000002_Node000002" class="edge">
<title>Node2&#45;&gt;Node2</title>
<g id="a_edge2_Node000002_Node000002"><a xlink:title=" ">
<path fill="none" stroke="#63b8ff" d="M235.29,-464.08C220.59,-472.73 230.66,-482 265.5,-482 289.99,-482 302.24,-477.42 302.25,-471.69"/>
<polygon fill="#63b8ff" stroke="#63b8ff" points="304.88,-469.38 295.71,-464.08 299.57,-473.95 304.88,-469.38"/>
</a>
</g>
</g>
<!-- Node3 -->
<g id="Node000003" class="node">
<title>Node3</title>
<g id="a_Node000003"><a xlink:href="../../d7/d72/classTerraria_1_1UI_1_1UIElement_a80f559864a8b6fb350ab72e457826af5.html#a80f559864a8b6fb350ab72e457826af5" target="_top" xlink:title=" ">
<polygon fill="white" stroke="#666666" points="578,-507 412,-507 412,-488 578,-488 578,-507"/>
<text text-anchor="middle" x="495" y="-495" font-family="Helvetica,sans-Serif" font-size="10.00">Terraria.UI.UIElement.Initialize</text>
</a>
</g>
</g>
<!-- Node2&#45;&gt;Node3 -->
<g id="edge3_Node000002_Node000003" class="edge">
<title>Node2&#45;&gt;Node3</title>
<g id="a_edge3_Node000002_Node000003"><a xlink:title=" ">
<path fill="none" stroke="#63b8ff" d="M315.96,-464.02C339.06,-468.44 366.93,-473.77 392,-478.5 405.12,-480.98 419.19,-483.61 432.56,-486.1"/>
<polygon fill="#63b8ff" stroke="#63b8ff" points="432.15,-489.59 442.62,-487.98 433.43,-482.71 432.15,-489.59"/>
</a>
</g>
</g>
<!-- Node5 -->
<g id="Node000005" class="node">
<title>Node5</title>
<g id="a_Node000005"><a xlink:href="../../d7/d72/classTerraria_1_1UI_1_1UIElement_acc4424c24158fce09516698cfa9a75e0.html#acc4424c24158fce09516698cfa9a75e0" target="_top" xlink:title=" ">
<polygon fill="white" stroke="#666666" points="563.5,-469.5 426.5,-469.5 426.5,-439.5 563.5,-439.5 563.5,-469.5"/>
<text text-anchor="start" x="434.5" y="-457.5" font-family="Helvetica,sans-Serif" font-size="10.00">Terraria.UI.UIElement.On</text>
<text text-anchor="middle" x="495" y="-446.5" font-family="Helvetica,sans-Serif" font-size="10.00">Activate</text>
</a>
</g>
</g>
<!-- Node2&#45;&gt;Node5 -->
<g id="edge5_Node000002_Node000005" class="edge">
<title>Node2&#45;&gt;Node5</title>
<g id="a_edge5_Node000002_Node000005"><a xlink:title=" ">
<path fill="none" stroke="#63b8ff" d="M347.67,-454.5C370.02,-454.5 394.21,-454.5 416.36,-454.5"/>
<polygon fill="#63b8ff" stroke="#63b8ff" points="416.38,-458 426.38,-454.5 416.38,-451 416.38,-458"/>
</a>
</g>
</g>
<!-- Node4 -->
<g id="Node000004" class="node">
<title>Node4</title>
<g id="a_Node000004"><a xlink:href="../../d7/d72/classTerraria_1_1UI_1_1UIElement_ace99d182a38363549dc05a2a71e4f0ce.html#ace99d182a38363549dc05a2a71e4f0ce" target="_top" xlink:title=" ">
<polygon fill="white" stroke="#666666" points="777.5,-512.5 640.5,-512.5 640.5,-482.5 777.5,-482.5 777.5,-512.5"/>
<text text-anchor="start" x="648.5" y="-500.5" font-family="Helvetica,sans-Serif" font-size="10.00">Terraria.UI.UIElement.On</text>
<text text-anchor="middle" x="709" y="-489.5" font-family="Helvetica,sans-Serif" font-size="10.00">Initialize</text>
</a>
</g>
</g>
<!-- Node3&#45;&gt;Node4 -->
<g id="edge4_Node000003_Node000004" class="edge">
<title>Node3&#45;&gt;Node4</title>
<g id="a_edge4_Node000003_Node000004"><a xlink:title=" ">
<path fill="none" stroke="#63b8ff" d="M578.27,-497.5C595.23,-497.5 613.05,-497.5 629.86,-497.5"/>
<polygon fill="#63b8ff" stroke="#63b8ff" points="630.18,-501 640.18,-497.5 630.18,-494 630.18,-501"/>
</a>
</g>
</g>
<!-- Node6&#45;&gt;Node6 -->
<g id="edge7_Node000006_Node000006" class="edge">
<title>Node6&#45;&gt;Node6</title>
<g id="a_edge7_Node000006_Node000006"><a xlink:title=" ">
<path fill="none" stroke="#63b8ff" d="M235.29,-375.08C220.59,-383.73 230.66,-393 265.5,-393 289.99,-393 302.24,-388.42 302.25,-382.69"/>
<polygon fill="#63b8ff" stroke="#63b8ff" points="304.88,-380.38 295.71,-375.08 299.57,-384.95 304.88,-380.38"/>
</a>
</g>
</g>
<!-- Node7 -->
<g id="Node000007" class="node">
<title>Node7</title>
<g id="a_Node000007"><a xlink:href="../../d7/d72/classTerraria_1_1UI_1_1UIElement_a4e031c26854166a38a711b02f2f12f49.html#a4e031c26854166a38a711b02f2f12f49" target="_top" xlink:title=" ">
<polygon fill="white" stroke="#666666" points="563.5,-421.5 426.5,-421.5 426.5,-391.5 563.5,-391.5 563.5,-421.5"/>
<text text-anchor="start" x="434.5" y="-409.5" font-family="Helvetica,sans-Serif" font-size="10.00">Terraria.UI.UIElement.On</text>
<text text-anchor="middle" x="495" y="-398.5" font-family="Helvetica,sans-Serif" font-size="10.00">Deactivate</text>
</a>
</g>
</g>
<!-- Node6&#45;&gt;Node7 -->
<g id="edge8_Node000006_Node000007" class="edge">
<title>Node6&#45;&gt;Node7</title>
<g id="a_edge8_Node000006_Node000007"><a xlink:title=" ">
<path fill="none" stroke="#63b8ff" d="M319.26,-375.01C348.05,-380.2 384.22,-386.72 416.18,-392.48"/>
<polygon fill="#63b8ff" stroke="#63b8ff" points="415.93,-395.99 426.4,-394.32 417.18,-389.1 415.93,-395.99"/>
</a>
</g>
</g>
<!-- Node9 -->
<g id="Node000009" class="node">
<title>Node9</title>
<g id="a_Node000009"><a xlink:href="../../dc/dc4/classTerraria_1_1UI_1_1UserInterface_af1df38079c1c3550e041458b43a9aceb.html#af1df38079c1c3550e041458b43a9aceb" target="_top" xlink:title=" ">
<polygon fill="white" stroke="#666666" points="564.5,-373.5 425.5,-373.5 425.5,-343.5 564.5,-343.5 564.5,-373.5"/>
<text text-anchor="start" x="433.5" y="-361.5" font-family="Helvetica,sans-Serif" font-size="10.00">Terraria.UI.UserInterface.</text>
<text text-anchor="middle" x="495" y="-350.5" font-family="Helvetica,sans-Serif" font-size="10.00">GetDimensions</text>
</a>
</g>
</g>
<!-- Node8&#45;&gt;Node9 -->
<g id="edge10_Node000008_Node000009" class="edge">
<title>Node8&#45;&gt;Node9</title>
<g id="a_edge10_Node000008_Node000009"><a xlink:title=" ">
<path fill="none" stroke="#63b8ff" d="M285.63,-289.2C309.88,-301.17 353.19,-321.55 392,-334.5 399.61,-337.04 407.62,-339.41 415.67,-341.61"/>
<polygon fill="#63b8ff" stroke="#63b8ff" points="414.92,-345.03 425.48,-344.19 416.7,-338.26 414.92,-345.03"/>
</a>
</g>
</g>
<!-- Node10 -->
<g id="Node000010" class="node">
<title>Node10</title>
<g id="a_Node000010"><a xlink:href="../../d7/d72/classTerraria_1_1UI_1_1UIElement_a8cb8692a001e504adb564ae67833de3d.html#a8cb8692a001e504adb564ae67833de3d" target="_top" xlink:title=" ">
<polygon fill="white" stroke="#666666" points="598,-325.5 392,-325.5 392,-295.5 598,-295.5 598,-325.5"/>
<text text-anchor="start" x="400" y="-313.5" font-family="Helvetica,sans-Serif" font-size="10.00">Terraria.UI.UIElement.Get</text>
<text text-anchor="middle" x="495" y="-302.5" font-family="Helvetica,sans-Serif" font-size="10.00">DimensionsBasedOnParentDimensions</text>
</a>
</g>
</g>
<!-- Node8&#45;&gt;Node10 -->
<g id="edge11_Node000008_Node000010" class="edge">
<title>Node8&#45;&gt;Node10</title>
<g id="a_edge11_Node000008_Node000010"><a xlink:title=" ">
<path fill="none" stroke="#63b8ff" d="M336.3,-289.01C350.66,-290.97 366.12,-293.07 381.55,-295.18"/>
<polygon fill="#63b8ff" stroke="#63b8ff" points="381.29,-298.67 391.67,-296.56 382.24,-291.74 381.29,-298.67"/>
</a>
</g>
</g>
<!-- Node12 -->
<g id="Node000012" class="node">
<title>Node12</title>
<g id="a_Node000012"><a xlink:href="../../d7/d72/classTerraria_1_1UI_1_1UIElement_a5ad03f5ce0e776511a3b7e4a29e16caf.html#a5ad03f5ce0e776511a3b7e4a29e16caf" target="_top" xlink:title=" ">
<polygon fill="white" stroke="#666666" points="565.5,-277.5 424.5,-277.5 424.5,-247.5 565.5,-247.5 565.5,-277.5"/>
<text text-anchor="start" x="432.5" y="-265.5" font-family="Helvetica,sans-Serif" font-size="10.00">Terraria.UI.UIElement.Get</text>
<text text-anchor="middle" x="495" y="-254.5" font-family="Helvetica,sans-Serif" font-size="10.00">InnerDimensions</text>
</a>
</g>
</g>
<!-- Node8&#45;&gt;Node12 -->
<g id="edge13_Node000008_Node000012" class="edge">
<title>Node8&#45;&gt;Node12</title>
<g id="a_edge13_Node000008_Node000012"><a xlink:title=" ">
<path fill="none" stroke="#63b8ff" d="M356.09,-272.81C375.27,-271.37 395.41,-269.87 414.2,-268.46"/>
<polygon fill="#63b8ff" stroke="#63b8ff" points="414.47,-271.95 424.18,-267.72 413.95,-264.97 414.47,-271.95"/>
</a>
</g>
</g>
<!-- Node13 -->
<g id="Node000013" class="node">
<title>Node13</title>
<g id="a_Node000013"><a xlink:href="../../d7/d72/classTerraria_1_1UI_1_1UIElement_a8bf52a8c33b045d1df8dbcc96bcbc818.html#a8bf52a8c33b045d1df8dbcc96bcbc818" target="_top" xlink:title=" ">
<polygon fill="white" stroke="#666666" points="585.5,-229.5 404.5,-229.5 404.5,-199.5 585.5,-199.5 585.5,-229.5"/>
<text text-anchor="start" x="412.5" y="-217.5" font-family="Helvetica,sans-Serif" font-size="10.00">Terraria.UI.UIElement.Recalculate</text>
<text text-anchor="middle" x="495" y="-206.5" font-family="Helvetica,sans-Serif" font-size="10.00">Children</text>
</a>
</g>
</g>
<!-- Node8&#45;&gt;Node13 -->
<g id="edge14_Node000008_Node000013" class="edge">
<title>Node8&#45;&gt;Node13</title>
<g id="a_edge14_Node000008_Node000013"><a xlink:title=" ">
<path fill="none" stroke="#63b8ff" d="M278.51,-269.94C300.73,-258.33 349.85,-241.32 392,-229.5 392.88,-229.25 393.77,-229.01 394.66,-228.76"/>
<polygon fill="#63b8ff" stroke="#63b8ff" points="395.59,-232.13 404.33,-226.15 393.77,-225.38 395.59,-232.13"/>
</a>
</g>
</g>
<!-- Node11 -->
<g id="Node000011" class="node">
<title>Node11</title>
<g id="a_Node000011"><a xlink:href="../../d8/d74/structTerraria_1_1UI_1_1StyleDimension_acffa4ba4c6fbf99b983c8c59f17cc855.html#acffa4ba4c6fbf99b983c8c59f17cc855" target="_top" xlink:title=" ">
<polygon fill="white" stroke="#666666" points="784,-325.5 634,-325.5 634,-295.5 784,-295.5 784,-325.5"/>
<text text-anchor="start" x="642" y="-313.5" font-family="Helvetica,sans-Serif" font-size="10.00">Terraria.UI.StyleDimension.</text>
<text text-anchor="middle" x="709" y="-302.5" font-family="Helvetica,sans-Serif" font-size="10.00">GetValue</text>
</a>
</g>
</g>
<!-- Node10&#45;&gt;Node11 -->
<g id="edge12_Node000010_Node000011" class="edge">
<title>Node10&#45;&gt;Node11</title>
<g id="a_edge12_Node000010_Node000011"><a xlink:title=" ">
<path fill="none" stroke="#63b8ff" d="M598.27,-310.5C606.78,-310.5 615.32,-310.5 623.67,-310.5"/>
<polygon fill="#63b8ff" stroke="#63b8ff" points="623.75,-314 633.75,-310.5 623.75,-307 623.75,-314"/>
</a>
</g>
</g>
<!-- Node13&#45;&gt;Node8 -->
<g id="edge15_Node000013_Node000008" class="edge">
<title>Node13&#45;&gt;Node8</title>
<g id="a_edge15_Node000013_Node000008"><a xlink:title=" ">
<path fill="none" stroke="#63b8ff" d="M460.28,-229.53C440.32,-235.12 414.6,-241.16 392,-247.5 370.85,-253.43 347.95,-260.67 327.58,-266.93"/>
<polygon fill="#63b8ff" stroke="#63b8ff" points="326.34,-263.64 317.8,-269.91 328.38,-270.34 326.34,-263.64"/>
</a>
</g>
</g>
<!-- Node15 -->
<g id="Node000015" class="node">
<title>Node15</title>
<g id="a_Node000015"><a xlink:href="../../dc/dc4/classTerraria_1_1UI_1_1UserInterface_acfe538a1d130b3508ff7e95a8678e967.html#acfe538a1d130b3508ff7e95a8678e967" target="_top" xlink:title=" ">
<polygon fill="white" stroke="#666666" points="564.5,-181.5 425.5,-181.5 425.5,-151.5 564.5,-151.5 564.5,-181.5"/>
<text text-anchor="start" x="433.5" y="-169.5" font-family="Helvetica,sans-Serif" font-size="10.00">Terraria.UI.UserInterface.</text>
<text text-anchor="middle" x="495" y="-158.5" font-family="Helvetica,sans-Serif" font-size="10.00">ClearPointers</text>
</a>
</g>
</g>
<!-- Node14&#45;&gt;Node15 -->
<g id="edge17_Node000014_Node000015" class="edge">
<title>Node14&#45;&gt;Node15</title>
<g id="a_edge17_Node000014_Node000015"><a xlink:title=" ">
<path fill="none" stroke="#63b8ff" d="M335.07,-132.97C360.36,-138.3 389.2,-144.39 415.32,-149.9"/>
<polygon fill="#63b8ff" stroke="#63b8ff" points="414.67,-153.34 425.18,-151.98 416.12,-146.49 414.67,-153.34"/>
</a>
</g>
</g>
<!-- Node17 -->
<g id="Node000017" class="node">
<title>Node17</title>
<g id="a_Node000017"><a xlink:href="../../dc/dc4/classTerraria_1_1UI_1_1UserInterface_afd497e75a0f15df007150576920ee8d9.html#afd497e75a0f15df007150576920ee8d9" target="_top" xlink:title=" ">
<polygon fill="white" stroke="#666666" points="564.5,-133.5 425.5,-133.5 425.5,-103.5 564.5,-103.5 564.5,-133.5"/>
<text text-anchor="start" x="433.5" y="-121.5" font-family="Helvetica,sans-Serif" font-size="10.00">Terraria.UI.UserInterface.</text>
<text text-anchor="middle" x="495" y="-110.5" font-family="Helvetica,sans-Serif" font-size="10.00">GetMousePosition</text>
</a>
</g>
</g>
<!-- Node14&#45;&gt;Node17 -->
<g id="edge19_Node000014_Node000017" class="edge">
<title>Node14&#45;&gt;Node17</title>
<g id="a_edge19_Node000014_Node000017"><a xlink:title=" ">
<path fill="none" stroke="#63b8ff" d="M335.07,-118.5C360.24,-118.5 388.95,-118.5 414.97,-118.5"/>
<polygon fill="#63b8ff" stroke="#63b8ff" points="415.18,-122 425.18,-118.5 415.18,-115 415.18,-122"/>
</a>
</g>
</g>
<!-- Node18 -->
<g id="Node000018" class="node">
<title>Node18</title>
<g id="a_Node000018"><a xlink:href="../../dc/dc4/classTerraria_1_1UI_1_1UserInterface_ab378b5b38fb675be20df690581fe0d52.html#ab378b5b38fb675be20df690581fe0d52" target="_top" xlink:title=" ">
<polygon fill="white" stroke="#666666" points="584.5,-85.5 405.5,-85.5 405.5,-55.5 584.5,-55.5 584.5,-85.5"/>
<text text-anchor="start" x="413.5" y="-73.5" font-family="Helvetica,sans-Serif" font-size="10.00">Terraria.UI.UserInterface.</text>
<text text-anchor="middle" x="495" y="-62.5" font-family="Helvetica,sans-Serif" font-size="10.00">ImmediatelyUpdateInputPointers</text>
</a>
</g>
</g>
<!-- Node14&#45;&gt;Node18 -->
<g id="edge20_Node000014_Node000018" class="edge">
<title>Node14&#45;&gt;Node18</title>
<g id="a_edge20_Node000014_Node000018"><a xlink:title=" ">
<path fill="none" stroke="#63b8ff" d="M335.07,-104.03C359.55,-98.87 387.37,-93 412.82,-87.63"/>
<polygon fill="#63b8ff" stroke="#63b8ff" points="413.75,-91.01 422.81,-85.52 412.31,-84.16 413.75,-91.01"/>
</a>
</g>
</g>
<!-- Node19 -->
<g id="Node000019" class="node">
<title>Node19</title>
<g id="a_Node000019"><a xlink:href="../../d7/d72/classTerraria_1_1UI_1_1UIElement_a63d1218ad7ff0138d7884578aa121750.html#a63d1218ad7ff0138d7884578aa121750" target="_top" xlink:title=" ">
<polygon fill="white" stroke="#666666" points="581.5,-19 408.5,-19 408.5,0 581.5,0 581.5,-19"/>
<text text-anchor="middle" x="495" y="-7" font-family="Helvetica,sans-Serif" font-size="10.00">Terraria.UI.UIElement.MouseOut</text>
</a>
</g>
</g>
<!-- Node14&#45;&gt;Node19 -->
<g id="edge21_Node000014_Node000019" class="edge">
<title>Node14&#45;&gt;Node19</title>
<g id="a_edge21_Node000014_Node000019"><a xlink:title=" ">
<path fill="none" stroke="#63b8ff" d="M289.91,-103.43C314.64,-87.91 355.09,-63.63 392,-46.5 411.94,-37.25 434.88,-28.75 453.96,-22.23"/>
<polygon fill="#63b8ff" stroke="#63b8ff" points="455.18,-25.51 463.55,-19.01 452.95,-18.88 455.18,-25.51"/>
</a>
</g>
</g>
<!-- Node16 -->
<g id="Node000016" class="node">
<title>Node16</title>
<g id="a_Node000016"><a xlink:href="../../dd/d9a/classTerraria_1_1UI_1_1UserInterface_1_1InputPointerCache_a22f4b7b022203e702cd2edd238a20607.html#a22f4b7b022203e702cd2edd238a20607" target="_top" xlink:title=" ">
<polygon fill="white" stroke="#666666" points="778.5,-181.5 639.5,-181.5 639.5,-151.5 778.5,-151.5 778.5,-181.5"/>
<text text-anchor="start" x="647.5" y="-169.5" font-family="Helvetica,sans-Serif" font-size="10.00">Terraria.UI.UserInterface.</text>
<text text-anchor="middle" x="709" y="-158.5" font-family="Helvetica,sans-Serif" font-size="10.00">InputPointerCache.Clear</text>
</a>
</g>
</g>
<!-- Node15&#45;&gt;Node16 -->
<g id="edge18_Node000015_Node000016" class="edge">
<title>Node15&#45;&gt;Node16</title>
<g id="a_edge18_Node000015_Node000016"><a xlink:title=" ">
<path fill="none" stroke="#63b8ff" d="M564.54,-166.5C585.12,-166.5 607.87,-166.5 629.07,-166.5"/>
<polygon fill="#63b8ff" stroke="#63b8ff" points="629.34,-170 639.34,-166.5 629.34,-163 629.34,-170"/>
</a>
</g>
</g>
<!-- Node19&#45;&gt;Node19 -->
<g id="edge22_Node000019_Node000019" class="edge">
<title>Node19&#45;&gt;Node19</title>
<g id="a_edge22_Node000019_Node000019"><a xlink:title=" ">
<path fill="none" stroke="#63b8ff" d="M462.02,-19.08C445.97,-27.73 456.96,-37 495,-37 522.34,-37 535.71,-32.21 535.11,-26.31"/>
<polygon fill="#63b8ff" stroke="#63b8ff" points="537.5,-23.75 527.98,-19.08 532.51,-28.66 537.5,-23.75"/>
</a>
</g>
</g>
</g>
</svg>

<g id="navigator" transform="translate(0 0)" fill="#404254">
  <rect fill="#f2f5e9" fill-opacity="0.5" stroke="#606060" stroke-width=".5" x="0" y="0" width="60" height="60"/>
  <use id="zoomplus" xlink:href="#zoomPlus" x="17" y="9" onmousedown="handleZoom(evt,'in')"/>
  <use id="zoomminus" xlink:href="#zoomMin" x="42" y="9" onmousedown="handleZoom(evt,'out')"/>
  <use id="reset" xlink:href="#resetDef" x="30" y="36" onmousedown="handleReset()"/>
   <use id="arrowup" xlink:href="#arrowUp" x="0" y="0" onmousedown="handlePan(0,-1)"/>
  <use id="arrowright" xlink:href="#arrowRight" x="0" y="0" onmousedown="handlePan(1,0)"/>
  <use id="arrowdown" xlink:href="#arrowDown" x="0" y="0" onmousedown="handlePan(0,1)"/>
  <use id="arrowleft" xlink:href="#arrowLeft" x="0" y="0" onmousedown="handlePan(-1,0)"/>
</g>
<svg viewBox="0 0 15 15" width="100%" height="30px" preserveAspectRatio="xMaxYMin meet">
 <g id="arrow_out" transform="scale(0.3 0.3)">
  <a xlink:href="classTerraria_1_1UI_1_1UserInterface_ac154e9131e371495cda429202d80e293_ac154e9131e371495cda429202d80e293_cgraph_org.svg" target="_base">
   <rect id="button" ry="5" rx="5" y="6" x="6" height="38" width="38"
        fill="#f2f5e9" fill-opacity="0.5" stroke="#606060" stroke-width="1.0"/>
   <path id="arrow"
     d="M 11.500037,31.436501 C 11.940474,20.09759 22.043105,11.32322 32.158766,21.979434 L 37.068811,17.246167 C 37.068811,17.246167 37.088388,32 37.088388,32 L 22.160133,31.978069 C 22.160133,31.978069 26.997745,27.140456 26.997745,27.140456 C 18.528582,18.264221 13.291696,25.230495 11.500037,31.436501 z"
     style="fill:#404040;"/>
  </a>
 </g>
</svg>

<style type='text/css'>
<![CDATA[
[data-mouse-over-selected='false'] { opacity: 0.7; }
[data-mouse-over-selected='true']  { opacity: 1.0; }
]]>
</style>
<script type="application/ecmascript"><![CDATA[
document.addEventListener('DOMContentLoaded', (event) => {
  highlightEdges();
  highlightAdjacentNodes();
});
]]></script>
</svg>
