<?xml version="1.0" encoding="UTF-8" standalone="no"?>
<!DOCTYPE svg PUBLIC "-//W3C//DTD SVG 1.1//EN"
 "http://www.w3.org/Graphics/SVG/1.1/DTD/svg11.dtd">
<!-- Generated by graphviz version 2.43.0 (0)
 -->
<!-- Title: UIWorkshopSelectResourcePackToPublish.SetupGamepadPoints Pages: 1 -->
<svg width="1145pt" height="259pt"
 viewBox="0.00 0.00 1145.00 258.50" xmlns="http://www.w3.org/2000/svg" xmlns:xlink="http://www.w3.org/1999/xlink">
<g id="graph0" class="graph" transform="scale(1 1) rotate(0) translate(4 254.5)">
<title>UIWorkshopSelectResourcePackToPublish.SetupGamepadPoints</title>
<polygon fill="white" stroke="transparent" points="-4,4 -4,-254.5 1141,-254.5 1141,4 -4,4"/>
<!-- Node1 -->
<g id="node1" class="node">
<title>Node1</title>
<g id="a_node1"><a xlink:title=" ">
<polygon fill="#bfbfbf" stroke="black" points="0,-83 0,-113 193,-113 193,-83 0,-83"/>
<text text-anchor="start" x="8" y="-101" font-family="Helvetica,sans-Serif" font-size="10.00">UIWorkshopSelectResource</text>
<text text-anchor="middle" x="96.5" y="-90" font-family="Helvetica,sans-Serif" font-size="10.00">PackToPublish.SetupGamepadPoints</text>
</a>
</g>
</g>
<!-- Node2 -->
<g id="node2" class="node">
<title>Node2</title>
<g id="a_node2"><a xlink:href="../../d8/d7b/classUILinkPointNavigator_a5cb711692920a97a68e086f3d20a23c6.html#a5cb711692920a97a68e086f3d20a23c6" target="_top" xlink:title=" ">
<polygon fill="white" stroke="black" points="237.5,-193 237.5,-223 396.5,-223 396.5,-193 237.5,-193"/>
<text text-anchor="start" x="245.5" y="-211" font-family="Helvetica,sans-Serif" font-size="10.00">UILinkPointNavigator.Change</text>
<text text-anchor="middle" x="317" y="-200" font-family="Helvetica,sans-Serif" font-size="10.00">Point</text>
</a>
</g>
</g>
<!-- Node1&#45;&gt;Node2 -->
<g id="edge1" class="edge">
<title>Node1&#45;&gt;Node2</title>
<path fill="none" stroke="midnightblue" d="M121.68,-113.12C147.67,-129.04 190.43,-154.35 229,-173 240.68,-178.65 253.52,-184.17 265.67,-189.1"/>
<polygon fill="midnightblue" stroke="midnightblue" points="264.64,-192.46 275.22,-192.92 267.23,-185.96 264.64,-192.46"/>
</g>
<!-- Node8 -->
<g id="node8" class="node">
<title>Node8</title>
<g id="a_node8"><a xlink:href="../../de/db3/classUIElement_a89b59962618bbd597aeef6875ebf62b0.html#a89b59962618bbd597aeef6875ebf62b0" target="_top" xlink:title=" ">
<polygon fill="white" stroke="black" points="229,-144.5 229,-163.5 405,-163.5 405,-144.5 229,-144.5"/>
<text text-anchor="middle" x="317" y="-151.5" font-family="Helvetica,sans-Serif" font-size="10.00">UIElement.GetClippingRectangle</text>
</a>
</g>
</g>
<!-- Node1&#45;&gt;Node8 -->
<g id="edge7" class="edge">
<title>Node1&#45;&gt;Node8</title>
<path fill="none" stroke="midnightblue" d="M148.21,-113.02C172.55,-120.04 202.19,-128.31 229,-135 239,-137.5 249.7,-139.98 260.05,-142.29"/>
<polygon fill="midnightblue" stroke="midnightblue" points="259.31,-145.71 269.83,-144.45 260.82,-138.88 259.31,-145.71"/>
</g>
<!-- Node11 -->
<g id="node11" class="node">
<title>Node11</title>
<g id="a_node11"><a xlink:href="../../de/db3/classUIElement_a4ea5e88cc845e7dd969a15ca0d7dddbe.html#a4ea5e88cc845e7dd969a15ca0d7dddbe" target="_top" xlink:title=" ">
<polygon fill="white" stroke="black" points="246,-88.5 246,-107.5 388,-107.5 388,-88.5 246,-88.5"/>
<text text-anchor="middle" x="317" y="-95.5" font-family="Helvetica,sans-Serif" font-size="10.00">UIElement.GetSnapPoints</text>
</a>
</g>
</g>
<!-- Node1&#45;&gt;Node11 -->
<g id="edge10" class="edge">
<title>Node1&#45;&gt;Node11</title>
<path fill="none" stroke="midnightblue" d="M193.02,-98C207.34,-98 221.99,-98 235.94,-98"/>
<polygon fill="midnightblue" stroke="midnightblue" points="235.97,-101.5 245.97,-98 235.97,-94.5 235.97,-101.5"/>
</g>
<!-- Node16 -->
<g id="node16" class="node">
<title>Node16</title>
<g id="a_node16"><a xlink:href="../../d8/d7b/classUILinkPointNavigator_a923dab685a405ccb7adbb556ce61a139.html#a923dab685a405ccb7adbb556ce61a139" target="_top" xlink:title=" ">
<polygon fill="white" stroke="black" points="248,-39 248,-69 386,-69 386,-39 248,-39"/>
<text text-anchor="start" x="256" y="-57" font-family="Helvetica,sans-Serif" font-size="10.00">UILinkPointNavigator.Set</text>
<text text-anchor="middle" x="317" y="-46" font-family="Helvetica,sans-Serif" font-size="10.00">Position</text>
</a>
</g>
</g>
<!-- Node1&#45;&gt;Node16 -->
<g id="edge16" class="edge">
<title>Node1&#45;&gt;Node16</title>
<path fill="none" stroke="midnightblue" d="M172.08,-82.98C193.32,-78.7 216.51,-74.03 237.95,-69.72"/>
<polygon fill="midnightblue" stroke="midnightblue" points="238.88,-73.1 247.99,-67.7 237.5,-66.24 238.88,-73.1"/>
</g>
<!-- Node17 -->
<g id="node17" class="node">
<title>Node17</title>
<g id="a_node17"><a xlink:href="../../db/d79/classUILinkPoint_a634f93659885c00a4412c62ca89a7c17.html#a634f93659885c00a4412c62ca89a7c17" target="_top" xlink:title=" ">
<polygon fill="white" stroke="black" points="263.5,-0.5 263.5,-19.5 370.5,-19.5 370.5,-0.5 263.5,-0.5"/>
<text text-anchor="middle" x="317" y="-7.5" font-family="Helvetica,sans-Serif" font-size="10.00">UILinkPoint.Unlink</text>
</a>
</g>
</g>
<!-- Node1&#45;&gt;Node17 -->
<g id="edge17" class="edge">
<title>Node1&#45;&gt;Node17</title>
<path fill="none" stroke="midnightblue" d="M121.32,-82.99C147,-67.42 189.51,-43.38 229,-29 236.83,-26.15 245.22,-23.66 253.59,-21.5"/>
<polygon fill="midnightblue" stroke="midnightblue" points="254.48,-24.88 263.37,-19.11 252.82,-18.08 254.48,-24.88"/>
</g>
<!-- Node3 -->
<g id="node3" class="node">
<title>Node3</title>
<g id="a_node3"><a xlink:href="../../d8/d7b/classUILinkPointNavigator_a27e5c9a3a1a251f02d291f861b4eb1e7.html#a27e5c9a3a1a251f02d291f861b4eb1e7" target="_top" xlink:title=" ">
<polygon fill="white" stroke="black" points="441,-198 441,-228 601,-228 601,-198 441,-198"/>
<text text-anchor="start" x="449" y="-216" font-family="Helvetica,sans-Serif" font-size="10.00">UILinkPointNavigator.Process</text>
<text text-anchor="middle" x="521" y="-205" font-family="Helvetica,sans-Serif" font-size="10.00">Changes</text>
</a>
</g>
</g>
<!-- Node2&#45;&gt;Node3 -->
<g id="edge2" class="edge">
<title>Node2&#45;&gt;Node3</title>
<path fill="none" stroke="midnightblue" d="M396.68,-209.95C407.79,-210.22 419.28,-210.51 430.57,-210.79"/>
<polygon fill="midnightblue" stroke="midnightblue" points="430.79,-214.29 440.87,-211.04 430.96,-207.29 430.79,-214.29"/>
</g>
<!-- Node4 -->
<g id="node4" class="node">
<title>Node4</title>
<g id="a_node4"><a xlink:href="../../d8/d7b/classUILinkPointNavigator_ab02ec6567f402857bffa2cebe175d515.html#ab02ec6567f402857bffa2cebe175d515" target="_top" xlink:title=" ">
<polygon fill="white" stroke="black" points="637,-220 637,-250 783,-250 783,-220 637,-220"/>
<text text-anchor="start" x="645" y="-238" font-family="Helvetica,sans-Serif" font-size="10.00">UILinkPointNavigator.GoTo</text>
<text text-anchor="middle" x="710" y="-227" font-family="Helvetica,sans-Serif" font-size="10.00">DefaultPage</text>
</a>
</g>
</g>
<!-- Node3&#45;&gt;Node4 -->
<g id="edge3" class="edge">
<title>Node3&#45;&gt;Node4</title>
<path fill="none" stroke="midnightblue" d="M601.03,-222.3C609.56,-223.3 618.25,-224.32 626.81,-225.33"/>
<polygon fill="midnightblue" stroke="midnightblue" points="626.45,-228.81 636.79,-226.5 627.26,-221.86 626.45,-228.81"/>
</g>
<!-- Node7 -->
<g id="node7" class="node">
<title>Node7</title>
<g id="a_node7"><a xlink:href="../../d9/d5c/classUILinkPage_a356f1c92876e5a9aa65c22bd2fdf891a.html#a356f1c92876e5a9aa65c22bd2fdf891a" target="_top" xlink:title=" ">
<polygon fill="white" stroke="black" points="658.5,-181.5 658.5,-200.5 761.5,-200.5 761.5,-181.5 658.5,-181.5"/>
<text text-anchor="middle" x="710" y="-188.5" font-family="Helvetica,sans-Serif" font-size="10.00">UILinkPage.Leave</text>
</a>
</g>
</g>
<!-- Node3&#45;&gt;Node7 -->
<g id="edge6" class="edge">
<title>Node3&#45;&gt;Node7</title>
<path fill="none" stroke="midnightblue" d="M601.03,-203.7C616.83,-201.84 633.18,-199.92 648.24,-198.15"/>
<polygon fill="midnightblue" stroke="midnightblue" points="648.92,-201.59 658.44,-196.95 648.1,-194.64 648.92,-201.59"/>
</g>
<!-- Node5 -->
<g id="node5" class="node">
<title>Node5</title>
<g id="a_node5"><a xlink:href="../../d1/dd1/structPlayerInteractionAnchor_a1eeaee558e0da419c0a069fd0dde8eca.html#a1eeaee558e0da419c0a069fd0dde8eca" target="_top" xlink:title=" ">
<polygon fill="white" stroke="black" points="824,-220 824,-250 960,-250 960,-220 824,-220"/>
<text text-anchor="start" x="832" y="-238" font-family="Helvetica,sans-Serif" font-size="10.00">PlayerInteractionAnchor.</text>
<text text-anchor="middle" x="892" y="-227" font-family="Helvetica,sans-Serif" font-size="10.00">GetTileEntity</text>
</a>
</g>
</g>
<!-- Node4&#45;&gt;Node5 -->
<g id="edge4" class="edge">
<title>Node4&#45;&gt;Node5</title>
<path fill="none" stroke="midnightblue" d="M783.18,-235C793.23,-235 803.58,-235 813.72,-235"/>
<polygon fill="midnightblue" stroke="midnightblue" points="813.77,-238.5 823.77,-235 813.77,-231.5 813.77,-238.5"/>
</g>
<!-- Node6 -->
<g id="node6" class="node">
<title>Node6</title>
<g id="a_node6"><a xlink:href="../../d1/dd1/structPlayerInteractionAnchor_a5fe451925a3d70309360d5cdab17fe8c.html#a5fe451925a3d70309360d5cdab17fe8c" target="_top" xlink:title=" ">
<polygon fill="white" stroke="black" points="1001,-220 1001,-250 1137,-250 1137,-220 1001,-220"/>
<text text-anchor="start" x="1009" y="-238" font-family="Helvetica,sans-Serif" font-size="10.00">PlayerInteractionAnchor.</text>
<text text-anchor="middle" x="1069" y="-227" font-family="Helvetica,sans-Serif" font-size="10.00">IsInValidUseTileEntity</text>
</a>
</g>
</g>
<!-- Node5&#45;&gt;Node6 -->
<g id="edge5" class="edge">
<title>Node5&#45;&gt;Node6</title>
<path fill="none" stroke="midnightblue" d="M960.16,-235C970.14,-235 980.48,-235 990.65,-235"/>
<polygon fill="midnightblue" stroke="midnightblue" points="990.73,-238.5 1000.73,-235 990.73,-231.5 990.73,-238.5"/>
</g>
<!-- Node9 -->
<g id="node9" class="node">
<title>Node9</title>
<g id="a_node9"><a xlink:href="../../dc/dc5/classUtils_ab2c8bc1d5504f9b3a3f622edff805915.html#ab2c8bc1d5504f9b3a3f622edff805915" target="_top" xlink:title=" ">
<polygon fill="white" stroke="black" points="484,-159.5 484,-178.5 558,-178.5 558,-159.5 484,-159.5"/>
<text text-anchor="middle" x="521" y="-166.5" font-family="Helvetica,sans-Serif" font-size="10.00">Utils.Height</text>
</a>
</g>
</g>
<!-- Node8&#45;&gt;Node9 -->
<g id="edge8" class="edge">
<title>Node8&#45;&gt;Node9</title>
<path fill="none" stroke="midnightblue" d="M405.13,-160.47C428.68,-162.22 453.26,-164.04 473.61,-165.55"/>
<polygon fill="midnightblue" stroke="midnightblue" points="473.6,-169.06 483.83,-166.31 474.12,-162.08 473.6,-169.06"/>
</g>
<!-- Node10 -->
<g id="node10" class="node">
<title>Node10</title>
<g id="a_node10"><a xlink:href="../../dc/dc5/classUtils_a9bd128a05bade65c7d35b5e2b99fc272.html#a9bd128a05bade65c7d35b5e2b99fc272" target="_top" xlink:title=" ">
<polygon fill="white" stroke="black" points="485.5,-121.5 485.5,-140.5 556.5,-140.5 556.5,-121.5 485.5,-121.5"/>
<text text-anchor="middle" x="521" y="-128.5" font-family="Helvetica,sans-Serif" font-size="10.00">Utils.Width</text>
</a>
</g>
</g>
<!-- Node8&#45;&gt;Node10 -->
<g id="edge9" class="edge">
<title>Node8&#45;&gt;Node10</title>
<path fill="none" stroke="midnightblue" d="M401.62,-144.48C426.8,-141.61 453.47,-138.57 475.11,-136.11"/>
<polygon fill="midnightblue" stroke="midnightblue" points="475.76,-139.56 485.3,-134.95 474.97,-132.6 475.76,-139.56"/>
</g>
<!-- Node11&#45;&gt;Node11 -->
<g id="edge15" class="edge">
<title>Node11&#45;&gt;Node11</title>
<path fill="none" stroke="midnightblue" d="M285.56,-107.76C270.26,-116.57 280.74,-126 317,-126 343.06,-126 355.8,-121.13 355.23,-115.11"/>
<polygon fill="midnightblue" stroke="midnightblue" points="357.8,-112.73 348.44,-107.76 352.65,-117.48 357.8,-112.73"/>
</g>
<!-- Node12 -->
<g id="node12" class="node">
<title>Node12</title>
<g id="a_node12"><a xlink:href="../../de/db3/classUIElement_ae385cf7f7d21e84faa6cc4abef683fe6.html#ae385cf7f7d21e84faa6cc4abef683fe6" target="_top" xlink:title=" ">
<polygon fill="white" stroke="black" points="452.5,-83.5 452.5,-102.5 589.5,-102.5 589.5,-83.5 452.5,-83.5"/>
<text text-anchor="middle" x="521" y="-90.5" font-family="Helvetica,sans-Serif" font-size="10.00">UIElement.GetSnapPoint</text>
</a>
</g>
</g>
<!-- Node11&#45;&gt;Node12 -->
<g id="edge11" class="edge">
<title>Node11&#45;&gt;Node12</title>
<path fill="none" stroke="midnightblue" d="M388.08,-96.27C405.51,-95.83 424.31,-95.37 442.09,-94.93"/>
<polygon fill="midnightblue" stroke="midnightblue" points="442.51,-98.42 452.42,-94.67 442.34,-91.42 442.51,-98.42"/>
</g>
<!-- Node13 -->
<g id="node13" class="node">
<title>Node13</title>
<g id="a_node13"><a xlink:href="../../d3/d8e/classSnapPoint_a18678accd70f1ed565569f097d7d8947.html#a18678accd70f1ed565569f097d7d8947" target="_top" xlink:title=" ">
<polygon fill="white" stroke="black" points="653,-83.5 653,-102.5 767,-102.5 767,-83.5 653,-83.5"/>
<text text-anchor="middle" x="710" y="-90.5" font-family="Helvetica,sans-Serif" font-size="10.00">SnapPoint.Calculate</text>
</a>
</g>
</g>
<!-- Node12&#45;&gt;Node13 -->
<g id="edge12" class="edge">
<title>Node12&#45;&gt;Node13</title>
<path fill="none" stroke="midnightblue" d="M589.51,-93C606.91,-93 625.62,-93 642.95,-93"/>
<polygon fill="midnightblue" stroke="midnightblue" points="642.97,-96.5 652.97,-93 642.97,-89.5 642.97,-96.5"/>
</g>
<!-- Node14 -->
<g id="node14" class="node">
<title>Node14</title>
<g id="a_node14"><a xlink:href="../../de/db3/classUIElement_a1573899b8299cd5438f5be708a6a0795.html#a1573899b8299cd5438f5be708a6a0795" target="_top" xlink:title=" ">
<polygon fill="white" stroke="black" points="819,-102.5 819,-121.5 965,-121.5 965,-102.5 819,-102.5"/>
<text text-anchor="middle" x="892" y="-109.5" font-family="Helvetica,sans-Serif" font-size="10.00">UIElement.GetDimensions</text>
</a>
</g>
</g>
<!-- Node13&#45;&gt;Node14 -->
<g id="edge13" class="edge">
<title>Node13&#45;&gt;Node14</title>
<path fill="none" stroke="midnightblue" d="M767.46,-98.96C780.57,-100.34 794.78,-101.84 808.75,-103.32"/>
<polygon fill="midnightblue" stroke="midnightblue" points="808.54,-106.82 818.85,-104.38 809.28,-99.85 808.54,-106.82"/>
</g>
<!-- Node15 -->
<g id="node15" class="node">
<title>Node15</title>
<g id="a_node15"><a xlink:href="../../d8/daa/structCalculatedStyle_a877548310532a8fdf0c1d08cfc7ceb45.html#a877548310532a8fdf0c1d08cfc7ceb45" target="_top" xlink:title=" ">
<polygon fill="white" stroke="black" points="824.5,-64.5 824.5,-83.5 959.5,-83.5 959.5,-64.5 824.5,-64.5"/>
<text text-anchor="middle" x="892" y="-71.5" font-family="Helvetica,sans-Serif" font-size="10.00">CalculatedStyle.Position</text>
</a>
</g>
</g>
<!-- Node13&#45;&gt;Node15 -->
<g id="edge14" class="edge">
<title>Node13&#45;&gt;Node15</title>
<path fill="none" stroke="midnightblue" d="M767.46,-87.04C782.26,-85.48 798.47,-83.77 814.14,-82.11"/>
<polygon fill="midnightblue" stroke="midnightblue" points="814.76,-85.57 824.34,-81.04 814.03,-78.61 814.76,-85.57"/>
</g>
</g>
</svg>
