<?xml version="1.0" encoding="UTF-8" standalone="no"?>
<!DOCTYPE svg PUBLIC "-//W3C//DTD SVG 1.1//EN"
 "http://www.w3.org/Graphics/SVG/1.1/DTD/svg11.dtd">
<!-- Generated by graphviz version 2.43.0 (0)
 -->
<!-- Title: Terraria.Social.Base.AWorkshopEntry Pages: 1 -->
<svg width="430pt" height="601pt"
 viewBox="0.00 0.00 430.00 601.00" xmlns="http://www.w3.org/2000/svg" xmlns:xlink="http://www.w3.org/1999/xlink">
<g id="graph0" class="graph" transform="scale(1 1) rotate(0) translate(4 597)">
<title>Terraria.Social.Base.AWorkshopEntry</title>
<!-- Node1 -->
<g id="Node000001" class="node">
<title>Node1</title>
<g id="a_Node000001"><a xlink:title=" ">
<polygon fill="#999999" stroke="transparent" points="312,-593 110,-593 110,-140 312,-140 312,-593"/>
<text text-anchor="start" x="134" y="-580.5" font-family="Helvetica,sans-Serif" font-size="10.00">Terraria.Social.Base.AWorkshop</text>
<text text-anchor="start" x="198" y="-569.5" font-family="Helvetica,sans-Serif" font-size="10.00">Entry</text>
<text text-anchor="start" x="114" y="-554.5" font-family="Helvetica,sans-Serif" font-size="10.00">+</text>
<text text-anchor="start" x="127" y="-554.5" font-family="Helvetica,sans-Serif" font-size="10.00">const int CurrentWorkshop</text>
<text text-anchor="start" x="127" y="-543.5" font-family="Helvetica,sans-Serif" font-size="10.00">PublishVersion</text>
<text text-anchor="start" x="114" y="-528.5" font-family="Helvetica,sans-Serif" font-size="10.00">+</text>
<text text-anchor="start" x="127" y="-528.5" font-family="Helvetica,sans-Serif" font-size="10.00">const string ContentType</text>
<text text-anchor="start" x="127" y="-517.5" font-family="Helvetica,sans-Serif" font-size="10.00">Name_World</text>
<text text-anchor="start" x="114" y="-502.5" font-family="Helvetica,sans-Serif" font-size="10.00">+</text>
<text text-anchor="start" x="127" y="-502.5" font-family="Helvetica,sans-Serif" font-size="10.00">const string ContentType</text>
<text text-anchor="start" x="127" y="-491.5" font-family="Helvetica,sans-Serif" font-size="10.00">Name_ResourcePack</text>
<text text-anchor="start" x="114" y="-476.5" font-family="Helvetica,sans-Serif" font-size="10.00">#</text>
<text text-anchor="start" x="127" y="-476.5" font-family="Helvetica,sans-Serif" font-size="10.00">const string HeaderFileName</text>
<text text-anchor="start" x="114" y="-461.5" font-family="Helvetica,sans-Serif" font-size="10.00">#</text>
<text text-anchor="start" x="127" y="-461.5" font-family="Helvetica,sans-Serif" font-size="10.00">const string ContentType</text>
<text text-anchor="start" x="127" y="-450.5" font-family="Helvetica,sans-Serif" font-size="10.00">JsonCategoryField</text>
<text text-anchor="start" x="114" y="-435.5" font-family="Helvetica,sans-Serif" font-size="10.00">#</text>
<text text-anchor="start" x="127" y="-435.5" font-family="Helvetica,sans-Serif" font-size="10.00">const string WorkshopPublished</text>
<text text-anchor="start" x="127" y="-424.5" font-family="Helvetica,sans-Serif" font-size="10.00">VersionField</text>
<text text-anchor="start" x="114" y="-409.5" font-family="Helvetica,sans-Serif" font-size="10.00">#</text>
<text text-anchor="start" x="127" y="-409.5" font-family="Helvetica,sans-Serif" font-size="10.00">const string WorkshopEntry</text>
<text text-anchor="start" x="127" y="-398.5" font-family="Helvetica,sans-Serif" font-size="10.00">Field</text>
<text text-anchor="start" x="114" y="-383.5" font-family="Helvetica,sans-Serif" font-size="10.00">#</text>
<text text-anchor="start" x="127" y="-383.5" font-family="Helvetica,sans-Serif" font-size="10.00">const string TagsField</text>
<text text-anchor="start" x="114" y="-368.5" font-family="Helvetica,sans-Serif" font-size="10.00">#</text>
<text text-anchor="start" x="127" y="-368.5" font-family="Helvetica,sans-Serif" font-size="10.00">const string PreviewImage</text>
<text text-anchor="start" x="127" y="-357.5" font-family="Helvetica,sans-Serif" font-size="10.00">Field</text>
<text text-anchor="start" x="114" y="-342.5" font-family="Helvetica,sans-Serif" font-size="10.00">#</text>
<text text-anchor="start" x="127" y="-342.5" font-family="Helvetica,sans-Serif" font-size="10.00">const string PublictyField</text>
<text text-anchor="start" x="114" y="-327.5" font-family="Helvetica,sans-Serif" font-size="10.00">#</text>
<text text-anchor="start" x="127" y="-327.5" font-family="Helvetica,sans-Serif" font-size="10.00">static readonly JsonSerializer</text>
<text text-anchor="start" x="127" y="-316.5" font-family="Helvetica,sans-Serif" font-size="10.00">Settings SerializerSettings</text>
<text text-anchor="start" x="114" y="-301.5" font-family="Helvetica,sans-Serif" font-size="10.00">+</text>
<text text-anchor="start" x="127" y="-301.5" font-family="Helvetica,sans-Serif" font-size="10.00">static string ReadHeader</text>
<text text-anchor="start" x="127" y="-290.5" font-family="Helvetica,sans-Serif" font-size="10.00">(string jsonText)</text>
<text text-anchor="start" x="114" y="-275.5" font-family="Helvetica,sans-Serif" font-size="10.00">+</text>
<text text-anchor="start" x="127" y="-275.5" font-family="Helvetica,sans-Serif" font-size="10.00">static bool TryReadingManifest</text>
<text text-anchor="start" x="127" y="-264.5" font-family="Helvetica,sans-Serif" font-size="10.00">(string filePath, out FoundWorkshop</text>
<text text-anchor="start" x="127" y="-253.5" font-family="Helvetica,sans-Serif" font-size="10.00">EntryInfo info)</text>
<text text-anchor="start" x="114" y="-238.5" font-family="Helvetica,sans-Serif" font-size="10.00">#</text>
<text text-anchor="start" x="127" y="-238.5" font-family="Helvetica,sans-Serif" font-size="10.00">static string CreateHeader</text>
<text text-anchor="start" x="127" y="-227.5" font-family="Helvetica,sans-Serif" font-size="10.00">Json(string contentTypeName,</text>
<text text-anchor="start" x="127" y="-216.5" font-family="Helvetica,sans-Serif" font-size="10.00"> ulong workshopEntryId, string</text>
<text text-anchor="start" x="127" y="-205.5" font-family="Helvetica,sans-Serif" font-size="10.00">[] tags, WorkshopItemPublicSettingId</text>
<text text-anchor="start" x="127" y="-194.5" font-family="Helvetica,sans-Serif" font-size="10.00"> publicity, string previewImagePath)</text>
<text text-anchor="start" x="114" y="-179.5" font-family="Helvetica,sans-Serif" font-size="10.00">#</text>
<text text-anchor="start" x="127" y="-179.5" font-family="Helvetica,sans-Serif" font-size="10.00">static bool TryGet</text>
<text text-anchor="start" x="127" y="-168.5" font-family="Helvetica,sans-Serif" font-size="10.00">&lt; T &gt;(Dictionary&lt; string,</text>
<text text-anchor="start" x="127" y="-157.5" font-family="Helvetica,sans-Serif" font-size="10.00"> object &gt; dict, string</text>
<text text-anchor="start" x="127" y="-146.5" font-family="Helvetica,sans-Serif" font-size="10.00"> name, out T outputValue)</text>
<polygon fill="#666666" stroke="#666666" points="110,-564.5 110,-564.5 312,-564.5 312,-564.5 110,-564.5"/>
<polygon fill="#666666" stroke="#666666" points="110,-311.5 110,-311.5 125,-311.5 125,-311.5 110,-311.5"/>
<polygon fill="#666666" stroke="#666666" points="125,-311.5 125,-311.5 312,-311.5 312,-311.5 125,-311.5"/>
<polygon fill="none" stroke="#666666" points="110,-140 110,-593 312,-593 312,-140 110,-140"/>
</a>
</g>
</g>
<!-- Node2 -->
<g id="Node000002" class="node">
<title>Node2</title>
<g id="a_Node000002"><a xlink:href="../../d8/d0d/classTerraria_1_1Social_1_1Base_1_1TexturePackWorkshopEntry.html" target="_top" xlink:title=" ">
<polygon fill="white" stroke="transparent" points="202,-104 0,-104 0,0 202,0 202,-104"/>
<text text-anchor="start" x="33" y="-92" font-family="Helvetica,sans-Serif" font-size="10.00">Terraria.Social.Base.Texture</text>
<text text-anchor="start" x="52.5" y="-81" font-family="Helvetica,sans-Serif" font-size="10.00">PackWorkshopEntry</text>
<text text-anchor="start" x="99" y="-66" font-family="Helvetica,sans-Serif" font-size="10.00"> </text>
<text text-anchor="start" x="4" y="-51" font-family="Helvetica,sans-Serif" font-size="10.00">+</text>
<text text-anchor="start" x="17" y="-51" font-family="Helvetica,sans-Serif" font-size="10.00">static string GetHeaderText</text>
<text text-anchor="start" x="17" y="-40" font-family="Helvetica,sans-Serif" font-size="10.00">For(ResourcePack resourcePack,</text>
<text text-anchor="start" x="17" y="-29" font-family="Helvetica,sans-Serif" font-size="10.00"> ulong workshopEntryId, string</text>
<text text-anchor="start" x="17" y="-18" font-family="Helvetica,sans-Serif" font-size="10.00">[] tags, WorkshopItemPublicSettingId</text>
<text text-anchor="start" x="17" y="-7" font-family="Helvetica,sans-Serif" font-size="10.00"> publicity, string previewImagePath)</text>
<polygon fill="#666666" stroke="#666666" points="0,-76 0,-76 202,-76 202,-76 0,-76"/>
<polygon fill="#666666" stroke="#666666" points="0,-61 0,-61 202,-61 202,-61 0,-61"/>
<polygon fill="none" stroke="#666666" points="0,0 0,-104 202,-104 202,0 0,0"/>
</a>
</g>
</g>
<!-- Node1&#45;&gt;Node2 -->
<g id="edge1_Node000001_Node000002" class="edge">
<title>Node1&#45;&gt;Node2</title>
<g id="a_edge1_Node000001_Node000002"><a xlink:title=" ">
<path fill="none" stroke="#63b8ff" d="M128.11,-130.01C124.91,-120.93 121.89,-112.34 119.1,-104.42"/>
<polygon fill="none" stroke="#63b8ff" points="124.87,-131.36 131.5,-139.63 131.48,-129.04 124.87,-131.36"/>
</a>
</g>
</g>
<!-- Node3 -->
<g id="Node000003" class="node">
<title>Node3</title>
<g id="a_Node000003"><a xlink:href="../../da/d39/classTerraria_1_1Social_1_1Base_1_1WorldWorkshopEntry.html" target="_top" xlink:title=" ">
<polygon fill="white" stroke="transparent" points="422,-104 220,-104 220,0 422,0 422,-104"/>
<text text-anchor="start" x="257.5" y="-92" font-family="Helvetica,sans-Serif" font-size="10.00">Terraria.Social.Base.World</text>
<text text-anchor="start" x="284" y="-81" font-family="Helvetica,sans-Serif" font-size="10.00">WorkshopEntry</text>
<text text-anchor="start" x="319" y="-66" font-family="Helvetica,sans-Serif" font-size="10.00"> </text>
<text text-anchor="start" x="224" y="-51" font-family="Helvetica,sans-Serif" font-size="10.00">+</text>
<text text-anchor="start" x="237" y="-51" font-family="Helvetica,sans-Serif" font-size="10.00">static string GetHeaderText</text>
<text text-anchor="start" x="237" y="-40" font-family="Helvetica,sans-Serif" font-size="10.00">For(WorldFileData world,</text>
<text text-anchor="start" x="237" y="-29" font-family="Helvetica,sans-Serif" font-size="10.00"> ulong workshopEntryId, string</text>
<text text-anchor="start" x="237" y="-18" font-family="Helvetica,sans-Serif" font-size="10.00">[] tags, WorkshopItemPublicSettingId</text>
<text text-anchor="start" x="237" y="-7" font-family="Helvetica,sans-Serif" font-size="10.00"> publicity, string previewImagePath)</text>
<polygon fill="#666666" stroke="#666666" points="220,-76 220,-76 422,-76 422,-76 220,-76"/>
<polygon fill="#666666" stroke="#666666" points="220,-61 220,-61 422,-61 422,-61 220,-61"/>
<polygon fill="none" stroke="#666666" points="220,0 220,-104 422,-104 422,0 220,0"/>
</a>
</g>
</g>
<!-- Node1&#45;&gt;Node3 -->
<g id="edge2_Node000001_Node000003" class="edge">
<title>Node1&#45;&gt;Node3</title>
<g id="a_edge2_Node000001_Node000003"><a xlink:title=" ">
<path fill="none" stroke="#63b8ff" d="M293.89,-130.01C297.09,-120.93 300.11,-112.34 302.9,-104.42"/>
<polygon fill="none" stroke="#63b8ff" points="290.52,-129.04 290.5,-139.63 297.13,-131.36 290.52,-129.04"/>
</a>
</g>
</g>
</g>
</svg>
