<?xml version="1.0" encoding="UTF-8" standalone="no"?>
<!DOCTYPE svg PUBLIC "-//W3C//DTD SVG 1.1//EN"
 "http://www.w3.org/Graphics/SVG/1.1/DTD/svg11.dtd">
<!-- Generated by graphviz version 2.43.0 (0)
 -->
<!-- Title: Terraria.GameContent.UI.States.UIManageControls.OnActivate Pages: 1 -->
<!--zoomable 105 -->

<svg id="main" version="1.1" xmlns="http://www.w3.org/2000/svg" xmlns:xlink="http://www.w3.org/1999/xlink" xml:space="preserve" onload="init(evt)">
<style type="text/css"><![CDATA[
.node, .edge {opacity: 0.7;}
.node.selected, .edge.selected {opacity: 1;}
.edge:hover path { stroke: red; }
.edge:hover polygon { stroke: red; fill: red; }
]]></style>

<defs>
  <circle id="rim" cx="0" cy="0" r="7"/>
  <circle id="rim2" cx="0" cy="0" r="3.5"/>
  <g id="zoomPlus">
    <use xlink:href="#rim" fill="#404040"><set attributeName="fill" to="#808080" begin="zoomplus.mouseover" end="zoomplus.mouseout"/></use>
    <path d="M-4,0h8M0,-4v8" fill="none" stroke="white" stroke-width="1.5" pointer-events="none"/>
  </g>
  <g id="zoomMin">
    <use xlink:href="#rim" fill="#404040"><set attributeName="fill" to="#808080" begin="zoomminus.mouseover" end="zoomminus.mouseout"/></use>
    <path d="M-4,0h8" fill="none" stroke="white" stroke-width="1.5" pointer-events="none"/>
  </g>
  <g id="arrowUp" transform="translate(30 24)">
    <use xlink:href="#rim"/>
    <path pointer-events="none" fill="none" stroke="white" stroke-width="1.5" d="M0,-3.0v7 M-2.5,-0.5L0,-3.0L2.5,-0.5"/>
  </g>
  <g id="arrowRight" transform="rotate(90) translate(36 -43)">
    <use xlink:href="#rim"/>
    <path pointer-events="none" fill="none" stroke="white" stroke-width="1.5" d="M0,-3.0v7 M-2.5,-0.5L0,-3.0L2.5,-0.5"/>
  </g>
  <g id="arrowDown" transform="rotate(180) translate(-30 -48)">
    <use xlink:href="#rim"/>
    <path pointer-events="none" fill="none" stroke="white" stroke-width="1.5" d="M0,-3.0v7 M-2.5,-0.5L0,-3.0L2.5,-0.5"/>
  </g>
  <g id="arrowLeft" transform="rotate(270) translate(-36 17)">
    <use xlink:href="#rim"/>
    <path pointer-events="none" fill="none" stroke="white" stroke-width="1.5" d="M0,-3.0v7 M-2.5,-0.5L0,-3.0L2.5,-0.5"/>
  </g>
  <g id="resetDef">
    <use xlink:href="#rim2" fill="#404040"><set attributeName="fill" to="#808080" begin="reset.mouseover" end="reset.mouseout"/></use>
  </g>
</defs>
<script type="application/ecmascript">
var viewWidth = 1221;
var viewHeight = 105;
var sectionId = 'dynsection-0';
</script>
<script type="application/ecmascript" xlink:href="../../svg.min.js"/>
<svg id="graph" class="graph">
<g id="viewport">
<title>Terraria.GameContent.UI.States.UIManageControls.OnActivate</title>
<!-- Node1 -->
<g id="Node000001" class="node">
<title>Node1</title>
<g id="a_Node000001"><a xlink:title=" ">
<polygon fill="#999999" stroke="#666666" points="197,-45.5 0,-45.5 0,-15.5 197,-15.5 197,-45.5"/>
<text text-anchor="start" x="8" y="-33.5" font-family="Helvetica,sans-Serif" font-size="10.00">Terraria.GameContent.UI.</text>
<text text-anchor="middle" x="98.5" y="-22.5" font-family="Helvetica,sans-Serif" font-size="10.00">States.UIManageControls.OnActivate</text>
</a>
</g>
</g>
<!-- Node2 -->
<g id="Node000002" class="node">
<title>Node2</title>
<g id="a_Node000002"><a xlink:href="../../d4/dc5/classTerraria_1_1UI_1_1Gamepad_1_1UILinkPointNavigator_a777aac1c14d559cf80455e2e5e7322b4.html#a777aac1c14d559cf80455e2e5e7322b4" target="_top" xlink:title=" ">
<polygon fill="white" stroke="#666666" points="392.5,-67.5 239.5,-67.5 239.5,-37.5 392.5,-37.5 392.5,-67.5"/>
<text text-anchor="start" x="247.5" y="-55.5" font-family="Helvetica,sans-Serif" font-size="10.00">Terraria.UI.Gamepad.UILink</text>
<text text-anchor="middle" x="316" y="-44.5" font-family="Helvetica,sans-Serif" font-size="10.00">PointNavigator.ChangePoint</text>
</a>
</g>
</g>
<!-- Node1&#45;&gt;Node2 -->
<g id="edge1_Node000001_Node000002" class="edge">
<title>Node1&#45;&gt;Node2</title>
<g id="a_edge1_Node000001_Node000002"><a xlink:title=" ">
<path fill="none" stroke="#63b8ff" d="M197.16,-40.47C207.88,-41.56 218.73,-42.67 229.29,-43.75"/>
<polygon fill="#63b8ff" stroke="#63b8ff" points="229,-47.24 239.31,-44.77 229.71,-40.28 229,-47.24"/>
</a>
</g>
</g>
<!-- Node8 -->
<g id="Node000008" class="node">
<title>Node8</title>
<g id="a_Node000008"><a xlink:href="../../d8/d74/structTerraria_1_1UI_1_1StyleDimension_a93e6acf229427c6435d7ee83958efba0.html#a93e6acf229427c6435d7ee83958efba0" target="_top" xlink:title=" ">
<polygon fill="white" stroke="#666666" points="399,-19 233,-19 233,0 399,0 399,-19"/>
<text text-anchor="middle" x="316" y="-7" font-family="Helvetica,sans-Serif" font-size="10.00">Terraria.UI.StyleDimension.Set</text>
</a>
</g>
</g>
<!-- Node1&#45;&gt;Node8 -->
<g id="edge8_Node000001_Node000008" class="edge">
<title>Node1&#45;&gt;Node8</title>
<g id="a_edge8_Node000001_Node000008"><a xlink:title=" ">
<path fill="none" stroke="#63b8ff" d="M197.16,-20.98C205.63,-20.16 214.19,-19.32 222.62,-18.5"/>
<polygon fill="#63b8ff" stroke="#63b8ff" points="223.2,-21.96 232.82,-17.51 222.53,-14.99 223.2,-21.96"/>
</a>
</g>
</g>
<!-- Node3 -->
<g id="Node000003" class="node">
<title>Node3</title>
<g id="a_Node000003"><a xlink:href="../../d4/dc5/classTerraria_1_1UI_1_1Gamepad_1_1UILinkPointNavigator_af5f96f175199246e97dad3c0537fe93d.html#af5f96f175199246e97dad3c0537fe93d" target="_top" xlink:title=" ">
<polygon fill="white" stroke="#666666" points="606,-67.5 435,-67.5 435,-37.5 606,-37.5 606,-67.5"/>
<text text-anchor="start" x="443" y="-55.5" font-family="Helvetica,sans-Serif" font-size="10.00">Terraria.UI.Gamepad.UILink</text>
<text text-anchor="middle" x="520.5" y="-44.5" font-family="Helvetica,sans-Serif" font-size="10.00">PointNavigator.ProcessChanges</text>
</a>
</g>
</g>
<!-- Node2&#45;&gt;Node3 -->
<g id="edge2_Node000002_Node000003" class="edge">
<title>Node2&#45;&gt;Node3</title>
<g id="a_edge2_Node000002_Node000003"><a xlink:title=" ">
<path fill="none" stroke="#63b8ff" d="M392.69,-52.5C403.08,-52.5 413.85,-52.5 424.52,-52.5"/>
<polygon fill="#63b8ff" stroke="#63b8ff" points="424.72,-56 434.72,-52.5 424.72,-49 424.72,-56"/>
</a>
</g>
</g>
<!-- Node3&#45;&gt;Node3 -->
<g id="edge7_Node000003_Node000003" class="edge">
<title>Node3&#45;&gt;Node3</title>
<g id="a_edge7_Node000003_Node000003"><a xlink:title=" ">
<path fill="none" stroke="#63b8ff" d="M484.64,-67.78C476.67,-76.91 488.62,-85.5 520.5,-85.5 539.43,-85.5 551.33,-82.47 556.21,-78.1"/>
<polygon fill="#63b8ff" stroke="#63b8ff" points="559.71,-77.83 556.36,-67.78 552.71,-77.72 559.71,-77.83"/>
</a>
</g>
</g>
<!-- Node4 -->
<g id="Node000004" class="node">
<title>Node4</title>
<g id="a_Node000004"><a xlink:href="../../d4/dc5/classTerraria_1_1UI_1_1Gamepad_1_1UILinkPointNavigator_a0cda74434ec0c5433d97c8590e7b6868.html#a0cda74434ec0c5433d97c8590e7b6868" target="_top" xlink:title=" ">
<polygon fill="white" stroke="#666666" points="817,-91.5 642,-91.5 642,-61.5 817,-61.5 817,-91.5"/>
<text text-anchor="start" x="650" y="-79.5" font-family="Helvetica,sans-Serif" font-size="10.00">Terraria.UI.Gamepad.UILink</text>
<text text-anchor="middle" x="729.5" y="-68.5" font-family="Helvetica,sans-Serif" font-size="10.00">PointNavigator.GoToDefaultPage</text>
</a>
</g>
</g>
<!-- Node3&#45;&gt;Node4 -->
<g id="edge3_Node000003_Node000004" class="edge">
<title>Node3&#45;&gt;Node4</title>
<g id="a_edge3_Node000003_Node000004"><a xlink:title=" ">
<path fill="none" stroke="#63b8ff" d="M606.29,-62.33C614.72,-63.31 623.32,-64.3 631.85,-65.29"/>
<polygon fill="#63b8ff" stroke="#63b8ff" points="631.49,-68.78 641.83,-66.45 632.3,-61.82 631.49,-68.78"/>
</a>
</g>
</g>
<!-- Node7 -->
<g id="Node000007" class="node">
<title>Node7</title>
<g id="a_Node000007"><a xlink:href="../../d0/d91/classTerraria_1_1UI_1_1Gamepad_1_1UILinkPage_a00e5839c8d7499b2169a7c9a0899ab05.html#a00e5839c8d7499b2169a7c9a0899ab05" target="_top" xlink:title=" ">
<polygon fill="white" stroke="#666666" points="805,-43.5 654,-43.5 654,-13.5 805,-13.5 805,-43.5"/>
<text text-anchor="start" x="662" y="-31.5" font-family="Helvetica,sans-Serif" font-size="10.00">Terraria.UI.Gamepad.UILink</text>
<text text-anchor="middle" x="729.5" y="-20.5" font-family="Helvetica,sans-Serif" font-size="10.00">Page.Leave</text>
</a>
</g>
</g>
<!-- Node3&#45;&gt;Node7 -->
<g id="edge6_Node000003_Node000007" class="edge">
<title>Node3&#45;&gt;Node7</title>
<g id="a_edge6_Node000003_Node000007"><a xlink:title=" ">
<path fill="none" stroke="#63b8ff" d="M606.29,-42.67C618.59,-41.24 631.26,-39.77 643.56,-38.35"/>
<polygon fill="#63b8ff" stroke="#63b8ff" points="644.26,-41.79 653.79,-37.16 643.45,-34.84 644.26,-41.79"/>
</a>
</g>
</g>
<!-- Node5 -->
<g id="Node000005" class="node">
<title>Node5</title>
<g id="a_Node000005"><a xlink:href="../../d4/d52/structTerraria_1_1DataStructures_1_1PlayerInteractionAnchor_ae34349c65bee51c051ecef7f357cd957.html#ae34349c65bee51c051ecef7f357cd957" target="_top" xlink:title=" ">
<polygon fill="white" stroke="#666666" points="1024,-97 853,-97 853,-56 1024,-56 1024,-97"/>
<text text-anchor="start" x="861" y="-85" font-family="Helvetica,sans-Serif" font-size="10.00">Terraria.DataStructures.</text>
<text text-anchor="start" x="861" y="-74" font-family="Helvetica,sans-Serif" font-size="10.00">PlayerInteractionAnchor.GetTile</text>
<text text-anchor="middle" x="938.5" y="-63" font-family="Helvetica,sans-Serif" font-size="10.00">Entity</text>
</a>
</g>
</g>
<!-- Node4&#45;&gt;Node5 -->
<g id="edge4_Node000004_Node000005" class="edge">
<title>Node4&#45;&gt;Node5</title>
<g id="a_edge4_Node000004_Node000005"><a xlink:title=" ">
<path fill="none" stroke="#63b8ff" d="M817.09,-76.5C825.61,-76.5 834.28,-76.5 842.88,-76.5"/>
<polygon fill="#63b8ff" stroke="#63b8ff" points="842.92,-80 852.92,-76.5 842.92,-73 842.92,-80"/>
</a>
</g>
</g>
<!-- Node6 -->
<g id="Node000006" class="node">
<title>Node6</title>
<g id="a_Node000006"><a xlink:href="../../d4/d52/structTerraria_1_1DataStructures_1_1PlayerInteractionAnchor_aed923af41529fe1265f46ec23e36f19b.html#aed923af41529fe1265f46ec23e36f19b" target="_top" xlink:title=" ">
<polygon fill="white" stroke="#666666" points="1213,-97 1060,-97 1060,-56 1213,-56 1213,-97"/>
<text text-anchor="start" x="1068" y="-85" font-family="Helvetica,sans-Serif" font-size="10.00">Terraria.DataStructures.</text>
<text text-anchor="start" x="1068" y="-74" font-family="Helvetica,sans-Serif" font-size="10.00">PlayerInteractionAnchor.IsIn</text>
<text text-anchor="middle" x="1136.5" y="-63" font-family="Helvetica,sans-Serif" font-size="10.00">ValidUseTileEntity</text>
</a>
</g>
</g>
<!-- Node5&#45;&gt;Node6 -->
<g id="edge5_Node000005_Node000006" class="edge">
<title>Node5&#45;&gt;Node6</title>
<g id="a_edge5_Node000005_Node000006"><a xlink:title=" ">
<path fill="none" stroke="#63b8ff" d="M1024.04,-76.5C1032.51,-76.5 1041.12,-76.5 1049.61,-76.5"/>
<polygon fill="#63b8ff" stroke="#63b8ff" points="1049.88,-80 1059.88,-76.5 1049.88,-73 1049.88,-80"/>
</a>
</g>
</g>
</g>
</svg>

<g id="navigator" transform="translate(0 0)" fill="#404254">
  <rect fill="#f2f5e9" fill-opacity="0.5" stroke="#606060" stroke-width=".5" x="0" y="0" width="60" height="60"/>
  <use id="zoomplus" xlink:href="#zoomPlus" x="17" y="9" onmousedown="handleZoom(evt,'in')"/>
  <use id="zoomminus" xlink:href="#zoomMin" x="42" y="9" onmousedown="handleZoom(evt,'out')"/>
  <use id="reset" xlink:href="#resetDef" x="30" y="36" onmousedown="handleReset()"/>
   <use id="arrowup" xlink:href="#arrowUp" x="0" y="0" onmousedown="handlePan(0,-1)"/>
  <use id="arrowright" xlink:href="#arrowRight" x="0" y="0" onmousedown="handlePan(1,0)"/>
  <use id="arrowdown" xlink:href="#arrowDown" x="0" y="0" onmousedown="handlePan(0,1)"/>
  <use id="arrowleft" xlink:href="#arrowLeft" x="0" y="0" onmousedown="handlePan(-1,0)"/>
</g>
<svg viewBox="0 0 15 15" width="100%" height="30px" preserveAspectRatio="xMaxYMin meet">
 <g id="arrow_out" transform="scale(0.3 0.3)">
  <a xlink:href="classTerraria_1_1GameContent_1_1UI_1_1States_1_1UIManageControls_acccf28d7190a05107cf952afe29ff331_acccf28d7190a05107cf952afe29ff331_cgraph_org.svg" target="_base">
   <rect id="button" ry="5" rx="5" y="6" x="6" height="38" width="38"
        fill="#f2f5e9" fill-opacity="0.5" stroke="#606060" stroke-width="1.0"/>
   <path id="arrow"
     d="M 11.500037,31.436501 C 11.940474,20.09759 22.043105,11.32322 32.158766,21.979434 L 37.068811,17.246167 C 37.068811,17.246167 37.088388,32 37.088388,32 L 22.160133,31.978069 C 22.160133,31.978069 26.997745,27.140456 26.997745,27.140456 C 18.528582,18.264221 13.291696,25.230495 11.500037,31.436501 z"
     style="fill:#404040;"/>
  </a>
 </g>
</svg>

<style type='text/css'>
<![CDATA[
[data-mouse-over-selected='false'] { opacity: 0.7; }
[data-mouse-over-selected='true']  { opacity: 1.0; }
]]>
</style>
<script type="application/ecmascript"><![CDATA[
document.addEventListener('DOMContentLoaded', (event) => {
  highlightEdges();
  highlightAdjacentNodes();
});
]]></script>
</svg>
