<?xml version="1.0" encoding="UTF-8" standalone="no"?>
<!DOCTYPE svg PUBLIC "-//W3C//DTD SVG 1.1//EN"
 "http://www.w3.org/Graphics/SVG/1.1/DTD/svg11.dtd">
<!-- Generated by graphviz version 2.43.0 (0)
 -->
<!-- Title: Terraria.WorldGen.Hooks.WorldLoaded Pages: 1 -->
<svg width="980pt" height="108pt"
 viewBox="0.00 0.00 980.00 107.50" xmlns="http://www.w3.org/2000/svg" xmlns:xlink="http://www.w3.org/1999/xlink">
<g id="graph0" class="graph" transform="scale(1 1) rotate(0) translate(4 103.5)">
<title>Terraria.WorldGen.Hooks.WorldLoaded</title>
<!-- Node1 -->
<g id="Node000001" class="node">
<title>Node1</title>
<g id="a_Node000001"><a xlink:title=" ">
<polygon fill="#999999" stroke="#666666" points="972,-54 832,-54 832,-24 972,-24 972,-54"/>
<text text-anchor="start" x="840" y="-42" font-family="Helvetica,sans-Serif" font-size="10.00">Terraria.WorldGen.Hooks.</text>
<text text-anchor="middle" x="902" y="-31" font-family="Helvetica,sans-Serif" font-size="10.00">WorldLoaded</text>
</a>
</g>
</g>
<!-- Node2 -->
<g id="Node000002" class="node">
<title>Node2</title>
<g id="a_Node000002"><a xlink:href="../../dd/dcd/classTerraria_1_1WorldGen_1_1Hooks_a09be577dad088ff47444821a9565e4a2.html#a09be577dad088ff47444821a9565e4a2" target="_top" xlink:title=" ">
<polygon fill="white" stroke="#666666" points="796,-78 656,-78 656,-48 796,-48 796,-78"/>
<text text-anchor="start" x="664" y="-66" font-family="Helvetica,sans-Serif" font-size="10.00">Terraria.WorldGen.Hooks.</text>
<text text-anchor="middle" x="726" y="-55" font-family="Helvetica,sans-Serif" font-size="10.00">Initialize</text>
</a>
</g>
</g>
<!-- Node1&#45;&gt;Node2 -->
<g id="edge1_Node000001_Node000002" class="edge">
<title>Node1&#45;&gt;Node2</title>
<g id="a_edge1_Node000001_Node000002"><a xlink:title=" ">
<path fill="none" stroke="#63b8ff" d="M821.97,-49.9C813.38,-51.09 804.68,-52.29 796.22,-53.45"/>
<polygon fill="#63b8ff" stroke="#63b8ff" points="822.55,-53.35 831.98,-48.52 821.6,-46.42 822.55,-53.35"/>
</a>
</g>
</g>
<!-- Node9 -->
<g id="Node000009" class="node">
<title>Node9</title>
<g id="a_Node000009"><a xlink:href="../../de/da1/classTerraria_1_1WorldGen_a0472292197226fbaf4f06b7ffe9c2d7f.html#a0472292197226fbaf4f06b7ffe9c2d7f" target="_top" xlink:title=" ">
<polygon fill="white" stroke="#666666" points="794.5,-30 657.5,-30 657.5,0 794.5,0 794.5,-30"/>
<text text-anchor="start" x="665.5" y="-18" font-family="Helvetica,sans-Serif" font-size="10.00">Terraria.WorldGen.server</text>
<text text-anchor="middle" x="726" y="-7" font-family="Helvetica,sans-Serif" font-size="10.00">LoadWorldCallBack</text>
</a>
</g>
</g>
<!-- Node1&#45;&gt;Node9 -->
<g id="edge9_Node000001_Node000009" class="edge">
<title>Node1&#45;&gt;Node9</title>
<g id="a_edge9_Node000001_Node000009"><a xlink:title=" ">
<path fill="none" stroke="#63b8ff" d="M822.06,-28.11C812.86,-26.84 803.54,-25.56 794.52,-24.31"/>
<polygon fill="#63b8ff" stroke="#63b8ff" points="821.6,-31.58 831.98,-29.48 822.55,-24.65 821.6,-31.58"/>
</a>
</g>
</g>
<!-- Node3 -->
<g id="Node000003" class="node">
<title>Node3</title>
<g id="a_Node000003"><a xlink:href="../../da/dd5/classTerraria_1_1Main_a8428815a84cf887c2adf13c19aad4caf.html#a8428815a84cf887c2adf13c19aad4caf" target="_top" xlink:title=" ">
<polygon fill="white" stroke="#666666" points="614,-78 489,-78 489,-48 614,-48 614,-78"/>
<text text-anchor="start" x="497" y="-66" font-family="Helvetica,sans-Serif" font-size="10.00">Terraria.Main.Initialize</text>
<text text-anchor="middle" x="551.5" y="-55" font-family="Helvetica,sans-Serif" font-size="10.00">_AlmostEverything</text>
</a>
</g>
</g>
<!-- Node2&#45;&gt;Node3 -->
<g id="edge2_Node000002_Node000003" class="edge">
<title>Node2&#45;&gt;Node3</title>
<g id="a_edge2_Node000002_Node000003"><a xlink:title=" ">
<path fill="none" stroke="#63b8ff" d="M645.74,-63C635.14,-63 624.4,-63 614.16,-63"/>
<polygon fill="#63b8ff" stroke="#63b8ff" points="645.83,-66.5 655.83,-63 645.83,-59.5 645.83,-66.5"/>
</a>
</g>
</g>
<!-- Node4 -->
<g id="Node000004" class="node">
<title>Node4</title>
<g id="a_Node000004"><a xlink:href="../../da/dd5/classTerraria_1_1Main_aeb59718d838663ea500b4619b081d791.html#aeb59718d838663ea500b4619b081d791" target="_top" xlink:title=" ">
<polygon fill="white" stroke="#666666" points="447,-99.5 306,-99.5 306,-80.5 447,-80.5 447,-99.5"/>
<text text-anchor="middle" x="376.5" y="-87.5" font-family="Helvetica,sans-Serif" font-size="10.00">Terraria.Main.DrawSplash</text>
</a>
</g>
</g>
<!-- Node3&#45;&gt;Node4 -->
<g id="edge3_Node000003_Node000004" class="edge">
<title>Node3&#45;&gt;Node4</title>
<g id="a_edge3_Node000003_Node000004"><a xlink:title=" ">
<path fill="none" stroke="#63b8ff" d="M478.47,-74.24C465.17,-76.32 451.39,-78.47 438.46,-80.49"/>
<polygon fill="#63b8ff" stroke="#63b8ff" points="479.19,-77.67 488.53,-72.67 478.11,-70.76 479.19,-77.67"/>
</a>
</g>
</g>
<!-- Node7 -->
<g id="Node000007" class="node">
<title>Node7</title>
<g id="a_Node000007"><a xlink:href="../../da/dd5/classTerraria_1_1Main_aed4b6a8ad3e867bdb2bdcab2ab6ab0f9.html#aed4b6a8ad3e867bdb2bdcab2ab6ab0f9" target="_top" xlink:title=" ">
<polygon fill="white" stroke="#666666" points="439,-62.5 314,-62.5 314,-43.5 439,-43.5 439,-62.5"/>
<text text-anchor="middle" x="376.5" y="-50.5" font-family="Helvetica,sans-Serif" font-size="10.00">Terraria.Main.Initialize</text>
</a>
</g>
</g>
<!-- Node3&#45;&gt;Node7 -->
<g id="edge7_Node000003_Node000007" class="edge">
<title>Node3&#45;&gt;Node7</title>
<g id="a_edge7_Node000003_Node000007"><a xlink:title=" ">
<path fill="none" stroke="#63b8ff" d="M478.21,-58.82C465.18,-58.07 451.72,-57.29 439.04,-56.56"/>
<polygon fill="#63b8ff" stroke="#63b8ff" points="478.35,-62.34 488.53,-59.42 478.75,-55.35 478.35,-62.34"/>
</a>
</g>
</g>
<!-- Node5 -->
<g id="Node000005" class="node">
<title>Node5</title>
<g id="a_Node000005"><a xlink:href="../../da/dd5/classTerraria_1_1Main_a474beeecaea4d6dd108fba56cd554d46.html#a474beeecaea4d6dd108fba56cd554d46" target="_top" xlink:title=" ">
<polygon fill="white" stroke="#666666" points="268.5,-99.5 146.5,-99.5 146.5,-80.5 268.5,-80.5 268.5,-99.5"/>
<text text-anchor="middle" x="207.5" y="-87.5" font-family="Helvetica,sans-Serif" font-size="10.00">Terraria.Main.DoDraw</text>
</a>
</g>
</g>
<!-- Node4&#45;&gt;Node5 -->
<g id="edge4_Node000004_Node000005" class="edge">
<title>Node4&#45;&gt;Node5</title>
<g id="a_edge4_Node000004_Node000005"><a xlink:title=" ">
<path fill="none" stroke="#63b8ff" d="M295.46,-90C286.39,-90 277.28,-90 268.53,-90"/>
<polygon fill="#63b8ff" stroke="#63b8ff" points="295.64,-93.5 305.64,-90 295.64,-86.5 295.64,-93.5"/>
</a>
</g>
</g>
<!-- Node6 -->
<g id="Node000006" class="node">
<title>Node6</title>
<g id="a_Node000006"><a xlink:href="../../da/dd5/classTerraria_1_1Main_a516aa31311860bad4242ade32e5effcd.html#a516aa31311860bad4242ade32e5effcd" target="_top" xlink:title=" ">
<polygon fill="white" stroke="#666666" points="109,-99.5 0,-99.5 0,-80.5 109,-80.5 109,-99.5"/>
<text text-anchor="middle" x="54.5" y="-87.5" font-family="Helvetica,sans-Serif" font-size="10.00">Terraria.Main.Draw</text>
</a>
</g>
</g>
<!-- Node5&#45;&gt;Node6 -->
<g id="edge5_Node000005_Node000006" class="edge">
<title>Node5&#45;&gt;Node6</title>
<g id="a_edge5_Node000005_Node000006"><a xlink:title=" ">
<path fill="none" stroke="#63b8ff" d="M136.17,-83.26C127.05,-83.21 117.84,-83.3 109.05,-83.51"/>
<polygon fill="#63b8ff" stroke="#63b8ff" points="136.35,-86.77 146.39,-83.38 136.43,-79.77 136.35,-86.77"/>
</a>
</g>
</g>
<!-- Node6&#45;&gt;Node5 -->
<g id="edge6_Node000006_Node000005" class="edge">
<title>Node6&#45;&gt;Node5</title>
<g id="a_edge6_Node000006_Node000005"><a xlink:title=" ">
<path fill="none" stroke="#63b8ff" d="M119.13,-96.68C128.16,-96.79 137.42,-96.77 146.39,-96.62"/>
<polygon fill="#63b8ff" stroke="#63b8ff" points="119.12,-93.17 109.05,-96.49 118.99,-100.17 119.12,-93.17"/>
</a>
</g>
</g>
<!-- Node8 -->
<g id="Node000008" class="node">
<title>Node8</title>
<g id="a_Node000008"><a xlink:href="../../da/dd5/classTerraria_1_1Main_acc7c7058447ffaab5490befcb8ff2bf4.html#acc7c7058447ffaab5490befcb8ff2bf4" target="_top" xlink:title=" ">
<polygon fill="white" stroke="#666666" points="270,-43.5 145,-43.5 145,-24.5 270,-24.5 270,-43.5"/>
<text text-anchor="middle" x="207.5" y="-31.5" font-family="Helvetica,sans-Serif" font-size="10.00">Terraria.Main.DedServ</text>
</a>
</g>
</g>
<!-- Node7&#45;&gt;Node8 -->
<g id="edge8_Node000007_Node000008" class="edge">
<title>Node7&#45;&gt;Node8</title>
<g id="a_edge8_Node000007_Node000008"><a xlink:title=" ">
<path fill="none" stroke="#63b8ff" d="M303.67,-44.83C292.54,-43.56 281.12,-42.26 270.24,-41.02"/>
<polygon fill="#63b8ff" stroke="#63b8ff" points="303.46,-48.33 313.79,-45.98 304.25,-41.37 303.46,-48.33"/>
</a>
</g>
</g>
<!-- Node10 -->
<g id="Node000010" class="node">
<title>Node10</title>
<g id="a_Node000010"><a xlink:href="../../de/da1/classTerraria_1_1WorldGen_a469e896891ffd04d4d8f9859cae7af2f.html#a469e896891ffd04d4d8f9859cae7af2f" target="_top" xlink:title=" ">
<polygon fill="white" stroke="#666666" points="620,-30 483,-30 483,0 620,0 620,-30"/>
<text text-anchor="start" x="491" y="-18" font-family="Helvetica,sans-Serif" font-size="10.00">Terraria.WorldGen.server</text>
<text text-anchor="middle" x="551.5" y="-7" font-family="Helvetica,sans-Serif" font-size="10.00">LoadWorld</text>
</a>
</g>
</g>
<!-- Node9&#45;&gt;Node10 -->
<g id="edge10_Node000009_Node000010" class="edge">
<title>Node9&#45;&gt;Node10</title>
<g id="a_edge10_Node000009_Node000010"><a xlink:title=" ">
<path fill="none" stroke="#63b8ff" d="M647.24,-15C638.24,-15 629.12,-15 620.27,-15"/>
<polygon fill="#63b8ff" stroke="#63b8ff" points="647.32,-18.5 657.32,-15 647.32,-11.5 647.32,-18.5"/>
</a>
</g>
</g>
<!-- Node10&#45;&gt;Node8 -->
<g id="edge11_Node000010_Node000008" class="edge">
<title>Node10&#45;&gt;Node8</title>
<g id="a_edge11_Node000010_Node000008"><a xlink:title=" ">
<path fill="none" stroke="#63b8ff" d="M472.91,-19.31C411.53,-22.72 326.99,-27.42 270.18,-30.57"/>
<polygon fill="#63b8ff" stroke="#63b8ff" points="473.14,-22.8 482.93,-18.75 472.75,-15.81 473.14,-22.8"/>
</a>
</g>
</g>
</g>
</svg>
