<?xml version="1.0" encoding="UTF-8" standalone="no"?>
<!DOCTYPE svg PUBLIC "-//W3C//DTD SVG 1.1//EN"
 "http://www.w3.org/Graphics/SVG/1.1/DTD/svg11.dtd">
<!-- Generated by graphviz version 2.43.0 (0)
 -->
<!-- Title: SoundPlayer.FindActiveSound Pages: 1 -->
<!--zoomable 39 -->
<svg id="main" version="1.1" xmlns="http://www.w3.org/2000/svg" xmlns:xlink="http://www.w3.org/1999/xlink" xml:space="preserve" onload="init(evt)">
<style type="text/css"><![CDATA[
.edge:hover path { stroke: red; }
.edge:hover polygon { stroke: red; fill: red; }
]]></style>
<script type="text/javascript"><![CDATA[
var edges = document.getElementsByTagName('g');
if (edges && edges.length) {
  for (var i=0;i<edges.length;i++) {
    if (edges[i].id.substr(0,4)=='edge') {
      edges[i].setAttribute('class','edge');
    }
  }
}
]]></script>
        <defs>
                <circle id="rim" cx="0" cy="0" r="7"/>
                <circle id="rim2" cx="0" cy="0" r="3.5"/>
                <g id="zoomPlus">
                        <use xlink:href="#rim" fill="#404040">
                                <set attributeName="fill" to="#808080" begin="zoomplus.mouseover" end="zoomplus.mouseout"/>
                        </use>
                        <path d="M-4,0h8M0,-4v8" fill="none" stroke="white" stroke-width="1.5" pointer-events="none"/>
                </g>
                <g id="zoomMin">
                        <use xlink:href="#rim" fill="#404040">
                                <set attributeName="fill" to="#808080" begin="zoomminus.mouseover" end="zoomminus.mouseout"/>
                        </use>
                        <path d="M-4,0h8" fill="none" stroke="white" stroke-width="1.5" pointer-events="none"/>
                </g>
                <g id="dirArrow">
                        <path fill="none" stroke="white" stroke-width="1.5" d="M0,-3.0v7 M-2.5,-0.5L0,-3.0L2.5,-0.5"/>
                </g>
               <g id="resetDef">
                       <use xlink:href="#rim2" fill="#404040">
                               <set attributeName="fill" to="#808080" begin="reset.mouseover" end="reset.mouseout"/>
                       </use>
               </g>
        </defs>

<script type="text/javascript">
var viewWidth = 1301;
var viewHeight = 39;
var sectionId = 'dynsection-0';
</script>
<script xlink:href="../../svgpan.js"/>
<svg id="graph" class="graph">
<g id="viewport">
<title>SoundPlayer.FindActiveSound</title>
<polygon fill="white" stroke="transparent" points="-4,4 -4,-35 1297,-35 1297,4 -4,4"/>
<!-- Node1 -->
<g id="node1" class="node">
<title>Node1</title>
<g id="a_node1"><a xlink:title=" ">
<polygon fill="#bfbfbf" stroke="black" points="1132,-6 1132,-25 1293,-25 1293,-6 1132,-6"/>
<text text-anchor="middle" x="1212.5" y="-13" font-family="Helvetica,sans-Serif" font-size="10.00">SoundPlayer.FindActiveSound</text>
</a>
</g>
</g>
<!-- Node2 -->
<g id="node2" class="node">
<title>Node2</title>
<g id="a_node2"><a xlink:href="../../d7/d66/classSoundEngine_a2f8ffbd599a3f99b68485203f99d2252.html#a2f8ffbd599a3f99b68485203f99d2252" target="_top" xlink:title=" ">
<polygon fill="white" stroke="black" points="932,-6 932,-25 1096,-25 1096,-6 932,-6"/>
<text text-anchor="middle" x="1014" y="-13" font-family="Helvetica,sans-Serif" font-size="10.00">SoundEngine.FindActiveSound</text>
</a>
</g>
</g>
<!-- Node1&#45;&gt;Node2 -->
<g id="edge1" class="edge">
<title>Node1&#45;&gt;Node2</title>
<path fill="none" stroke="midnightblue" d="M1121.82,-15.5C1113.23,-15.5 1104.54,-15.5 1096.03,-15.5"/>
<polygon fill="midnightblue" stroke="midnightblue" points="1121.86,-19 1131.86,-15.5 1121.86,-12 1121.86,-19"/>
</g>
<!-- Node3 -->
<g id="node3" class="node">
<title>Node3</title>
<g id="a_node3"><a xlink:href="../../df/d5e/classAchievementInitializer_a7ce27087f3f41dd38160d73b08a1e52f.html#a7ce27087f3f41dd38160d73b08a1e52f" target="_top" xlink:title=" ">
<polygon fill="white" stroke="black" points="753,-0.5 753,-30.5 896,-30.5 896,-0.5 753,-0.5"/>
<text text-anchor="start" x="761" y="-18.5" font-family="Helvetica,sans-Serif" font-size="10.00">AchievementInitializer.On</text>
<text text-anchor="middle" x="824.5" y="-7.5" font-family="Helvetica,sans-Serif" font-size="10.00">AchievementCompleted</text>
</a>
</g>
</g>
<!-- Node2&#45;&gt;Node3 -->
<g id="edge2" class="edge">
<title>Node2&#45;&gt;Node3</title>
<path fill="none" stroke="midnightblue" d="M921.78,-15.5C913.18,-15.5 904.55,-15.5 896.18,-15.5"/>
<polygon fill="midnightblue" stroke="midnightblue" points="921.85,-19 931.85,-15.5 921.85,-12 921.85,-19"/>
</g>
<!-- Node4 -->
<g id="node4" class="node">
<title>Node4</title>
<g id="a_node4"><a xlink:href="../../df/d5e/classAchievementInitializer_aa19987149d7a1cf5b11b2ab894d11b3a.html#aa19987149d7a1cf5b11b2ab894d11b3a" target="_top" xlink:title=" ">
<polygon fill="white" stroke="black" points="565,-6 565,-25 717,-25 717,-6 565,-6"/>
<text text-anchor="middle" x="641" y="-13" font-family="Helvetica,sans-Serif" font-size="10.00">AchievementInitializer.Load</text>
</a>
</g>
</g>
<!-- Node3&#45;&gt;Node4 -->
<g id="edge3" class="edge">
<title>Node3&#45;&gt;Node4</title>
<path fill="none" stroke="midnightblue" d="M742.61,-15.5C734.19,-15.5 725.66,-15.5 717.3,-15.5"/>
<polygon fill="midnightblue" stroke="midnightblue" points="742.81,-19 752.81,-15.5 742.81,-12 742.81,-19"/>
</g>
<!-- Node5 -->
<g id="node5" class="node">
<title>Node5</title>
<g id="a_node5"><a xlink:href="../../db/d4a/classMain_afe53708b7fe73125acfc9e867ed3c816.html#afe53708b7fe73125acfc9e867ed3c816" target="_top" xlink:title=" ">
<polygon fill="white" stroke="black" points="361,-6 361,-25 529,-25 529,-6 361,-6"/>
<text text-anchor="middle" x="445" y="-13" font-family="Helvetica,sans-Serif" font-size="10.00">Main.PostContentLoadInitialize</text>
</a>
</g>
</g>
<!-- Node4&#45;&gt;Node5 -->
<g id="edge4" class="edge">
<title>Node4&#45;&gt;Node5</title>
<path fill="none" stroke="midnightblue" d="M554.73,-15.5C546.25,-15.5 537.64,-15.5 529.19,-15.5"/>
<polygon fill="midnightblue" stroke="midnightblue" points="554.99,-19 564.99,-15.5 554.99,-12 554.99,-19"/>
</g>
<!-- Node6 -->
<g id="node6" class="node">
<title>Node6</title>
<g id="a_node6"><a xlink:href="../../db/d4a/classMain_a5db4144feae3a661cf25ae1acf553895.html#a5db4144feae3a661cf25ae1acf553895" target="_top" xlink:title=" ">
<polygon fill="white" stroke="black" points="224,-6 224,-25 325,-25 325,-6 224,-6"/>
<text text-anchor="middle" x="274.5" y="-13" font-family="Helvetica,sans-Serif" font-size="10.00">Main.DrawSplash</text>
</a>
</g>
</g>
<!-- Node5&#45;&gt;Node6 -->
<g id="edge5" class="edge">
<title>Node5&#45;&gt;Node6</title>
<path fill="none" stroke="midnightblue" d="M350.54,-15.5C341.88,-15.5 333.36,-15.5 325.34,-15.5"/>
<polygon fill="midnightblue" stroke="midnightblue" points="350.74,-19 360.74,-15.5 350.74,-12 350.74,-19"/>
</g>
<!-- Node7 -->
<g id="node7" class="node">
<title>Node7</title>
<g id="a_node7"><a xlink:href="../../db/d4a/classMain_a4ca48570ee8c9e54ed5371ecb4ab1877.html#a4ca48570ee8c9e54ed5371ecb4ab1877" target="_top" xlink:title=" ">
<polygon fill="white" stroke="black" points="105,-6 105,-25 188,-25 188,-6 105,-6"/>
<text text-anchor="middle" x="146.5" y="-13" font-family="Helvetica,sans-Serif" font-size="10.00">Main.DoDraw</text>
</a>
</g>
</g>
<!-- Node6&#45;&gt;Node7 -->
<g id="edge6" class="edge">
<title>Node6&#45;&gt;Node7</title>
<path fill="none" stroke="midnightblue" d="M213.6,-15.5C204.94,-15.5 196.19,-15.5 188.03,-15.5"/>
<polygon fill="midnightblue" stroke="midnightblue" points="213.7,-19 223.7,-15.5 213.7,-12 213.7,-19"/>
</g>
<!-- Node8 -->
<g id="node8" class="node">
<title>Node8</title>
<g id="a_node8"><a xlink:href="../../db/d4a/classMain_a9df405f7c9ce2e93e9af9bbf70231672.html#a9df405f7c9ce2e93e9af9bbf70231672" target="_top" xlink:title=" ">
<polygon fill="white" stroke="black" points="0,-6 0,-25 69,-25 69,-6 0,-6"/>
<text text-anchor="middle" x="34.5" y="-13" font-family="Helvetica,sans-Serif" font-size="10.00">Main.Draw</text>
</a>
</g>
</g>
<!-- Node7&#45;&gt;Node8 -->
<g id="edge7" class="edge">
<title>Node7&#45;&gt;Node8</title>
<path fill="none" stroke="midnightblue" d="M94.77,-8.77C86.08,-8.69 77.24,-8.85 69.14,-9.22"/>
<polygon fill="midnightblue" stroke="midnightblue" points="94.79,-12.27 104.85,-8.96 94.92,-5.27 94.79,-12.27"/>
</g>
<!-- Node8&#45;&gt;Node7 -->
<g id="edge8" class="edge">
<title>Node8&#45;&gt;Node7</title>
<path fill="none" stroke="midnightblue" d="M79.21,-22.12C87.67,-22.32 96.5,-22.29 104.85,-22.04"/>
<polygon fill="midnightblue" stroke="midnightblue" points="79.25,-18.62 69.14,-21.78 79.01,-25.62 79.25,-18.62"/>
</g>
</g>
</svg>
        <g id="navigator" transform="translate(0 0)" fill="#404254">
                <rect fill="#f2f5e9" fill-opacity="0.5" stroke="#606060" stroke-width=".5" x="0" y="0" width="60" height="60"/>
                <use id="zoomplus" xlink:href="#zoomPlus" x="17" y="9" onmousedown="handleZoom(evt,'in')"/>
                <use id="zoomminus" xlink:href="#zoomMin" x="42" y="9" onmousedown="handleZoom(evt,'out')"/>
                <use id="reset" xlink:href="#resetDef" x="30" y="36" onmousedown="handleReset()"/>
                <g id="arrowUp" xlink:href="#dirArrow" transform="translate(30 24)" onmousedown="handlePan(0,-1)">
                  <use xlink:href="#rim" fill="#404040">
                        <set attributeName="fill" to="#808080" begin="arrowUp.mouseover" end="arrowUp.mouseout"/>
                  </use>
                  <path fill="none" stroke="white" stroke-width="1.5" d="M0,-3.0v7 M-2.5,-0.5L0,-3.0L2.5,-0.5"/>
                </g>
                <g id="arrowRight" xlink:href="#dirArrow" transform="rotate(90) translate(36 -43)" onmousedown="handlePan(1,0)">
                  <use xlink:href="#rim" fill="#404040">
                        <set attributeName="fill" to="#808080" begin="arrowRight.mouseover" end="arrowRight.mouseout"/>
                  </use>
                  <path fill="none" stroke="white" stroke-width="1.5" d="M0,-3.0v7 M-2.5,-0.5L0,-3.0L2.5,-0.5"/>
                </g>
                <g id="arrowDown" xlink:href="#dirArrow" transform="rotate(180) translate(-30 -48)" onmousedown="handlePan(0,1)">
                  <use xlink:href="#rim" fill="#404040">
                        <set attributeName="fill" to="#808080" begin="arrowDown.mouseover" end="arrowDown.mouseout"/>
                  </use>
                  <path fill="none" stroke="white" stroke-width="1.5" d="M0,-3.0v7 M-2.5,-0.5L0,-3.0L2.5,-0.5"/>
                </g>
                <g id="arrowLeft" xlink:href="#dirArrow" transform="rotate(270) translate(-36 17)" onmousedown="handlePan(-1,0)">
                  <use xlink:href="#rim" fill="#404040">
                        <set attributeName="fill" to="#808080" begin="arrowLeft.mouseover" end="arrowLeft.mouseout"/>
                  </use>
                  <path fill="none" stroke="white" stroke-width="1.5" d="M0,-3.0v7 M-2.5,-0.5L0,-3.0L2.5,-0.5"/>
                </g>
        </g>
        <svg viewBox="0 0 15 15" width="100%" height="30px" preserveAspectRatio="xMaxYMin meet">
         <g id="arrow_out" transform="scale(0.3 0.3)">
          <a xlink:href="classSoundPlayer_ada4e8f5b3aaa7528d2ac11c91766889c_ada4e8f5b3aaa7528d2ac11c91766889c_icgraph_org.svg" target="_base">
           <rect id="button" ry="5" rx="5" y="6" x="6" height="38" width="38"
                fill="#f2f5e9" fill-opacity="0.5" stroke="#606060" stroke-width="1.0"/>
           <path id="arrow"
             d="M 11.500037,31.436501 C 11.940474,20.09759 22.043105,11.32322 32.158766,21.979434 L 37.068811,17.246167 C 37.068811,17.246167 37.088388,32 37.088388,32 L 22.160133,31.978069 C 22.160133,31.978069 26.997745,27.140456 26.997745,27.140456 C 18.528582,18.264221 13.291696,25.230495 11.500037,31.436501 z"
             style="fill:#404040;"/>
          </a>
         </g>
        </svg>
</svg>
