<?xml version="1.0" encoding="UTF-8" standalone="no"?>
<!DOCTYPE svg PUBLIC "-//W3C//DTD SVG 1.1//EN"
 "http://www.w3.org/Graphics/SVG/1.1/DTD/svg11.dtd">
<!-- Generated by graphviz version 2.43.0 (0)
 -->
<!-- Title: UISearchBar.SetContents Pages: 1 -->
<svg width="1082pt" height="151pt"
 viewBox="0.00 0.00 1082.00 151.00" xmlns="http://www.w3.org/2000/svg" xmlns:xlink="http://www.w3.org/1999/xlink">
<g id="graph0" class="graph" transform="scale(1 1) rotate(0) translate(4 147)">
<title>UISearchBar.SetContents</title>
<polygon fill="white" stroke="transparent" points="-4,4 -4,-147 1078,-147 1078,4 -4,4"/>
<!-- Node1 -->
<g id="node1" class="node">
<title>Node1</title>
<g id="a_node1"><a xlink:title=" ">
<polygon fill="#bfbfbf" stroke="black" points="0,-102.5 0,-121.5 138,-121.5 138,-102.5 0,-102.5"/>
<text text-anchor="middle" x="69" y="-109.5" font-family="Helvetica,sans-Serif" font-size="10.00">UISearchBar.SetContents</text>
</a>
</g>
</g>
<!-- Node2 -->
<g id="node2" class="node">
<title>Node2</title>
<g id="a_node2"><a xlink:href="../../d4/d37/classUITextBox_a0e49af4331f720ae76b3b322fa197983.html#a0e49af4331f720ae76b3b322fa197983" target="_top" xlink:title=" ">
<polygon fill="white" stroke="black" points="384.5,-123.5 384.5,-142.5 489.5,-142.5 489.5,-123.5 384.5,-123.5"/>
<text text-anchor="middle" x="437" y="-130.5" font-family="Helvetica,sans-Serif" font-size="10.00">UITextBox.SetText</text>
</a>
</g>
</g>
<!-- Node1&#45;&gt;Node2 -->
<g id="edge1" class="edge">
<title>Node1&#45;&gt;Node2</title>
<path fill="none" stroke="midnightblue" d="M138.41,-115.93C206.17,-119.81 308.99,-125.71 374.31,-129.46"/>
<polygon fill="midnightblue" stroke="midnightblue" points="374.27,-132.96 384.46,-130.04 374.67,-125.98 374.27,-132.96"/>
</g>
<!-- Node3 -->
<g id="node3" class="node">
<title>Node3</title>
<g id="a_node3"><a xlink:href="../../d7/d9b/classUISearchBar_a50cf62eaaa2082d87e602f02653144e5.html#a50cf62eaaa2082d87e602f02653144e5" target="_top" xlink:title=" ">
<polygon fill="white" stroke="black" points="174,-75 174,-105 317,-105 317,-75 174,-75"/>
<text text-anchor="start" x="182" y="-93" font-family="Helvetica,sans-Serif" font-size="10.00">UISearchBar.TrimDisplayIf</text>
<text text-anchor="middle" x="245.5" y="-82" font-family="Helvetica,sans-Serif" font-size="10.00">OverElementDimensions</text>
</a>
</g>
</g>
<!-- Node1&#45;&gt;Node3 -->
<g id="edge2" class="edge">
<title>Node1&#45;&gt;Node3</title>
<path fill="none" stroke="midnightblue" d="M138.22,-103.4C146.6,-102.34 155.23,-101.26 163.77,-100.18"/>
<polygon fill="midnightblue" stroke="midnightblue" points="164.26,-103.64 173.74,-98.92 163.38,-96.7 164.26,-103.64"/>
</g>
<!-- Node3&#45;&gt;Node2 -->
<g id="edge11" class="edge">
<title>Node3&#45;&gt;Node2</title>
<path fill="none" stroke="midnightblue" d="M312.78,-105.04C336.19,-110.35 362.17,-116.25 384.21,-121.25"/>
<polygon fill="midnightblue" stroke="midnightblue" points="383.51,-124.68 394.04,-123.48 385.06,-117.85 383.51,-124.68"/>
</g>
<!-- Node4 -->
<g id="node4" class="node">
<title>Node4</title>
<g id="a_node4"><a xlink:href="../../de/db3/classUIElement_a1573899b8299cd5438f5be708a6a0795.html#a1573899b8299cd5438f5be708a6a0795" target="_top" xlink:title=" ">
<polygon fill="white" stroke="black" points="364,-82.5 364,-101.5 510,-101.5 510,-82.5 364,-82.5"/>
<text text-anchor="middle" x="437" y="-89.5" font-family="Helvetica,sans-Serif" font-size="10.00">UIElement.GetDimensions</text>
</a>
</g>
</g>
<!-- Node3&#45;&gt;Node4 -->
<g id="edge3" class="edge">
<title>Node3&#45;&gt;Node4</title>
<path fill="none" stroke="midnightblue" d="M317.06,-90.74C328.98,-90.87 341.45,-91 353.64,-91.13"/>
<polygon fill="midnightblue" stroke="midnightblue" points="353.76,-94.63 363.8,-91.24 353.83,-87.63 353.76,-94.63"/>
</g>
<!-- Node5 -->
<g id="node5" class="node">
<title>Node5</title>
<g id="a_node5"><a xlink:href="../../de/db3/classUIElement_af9e665c7647c2fb436ed3c20be3a40a2.html#af9e665c7647c2fb436ed3c20be3a40a2" target="_top" xlink:title=" ">
<polygon fill="white" stroke="black" points="353,-44.5 353,-63.5 521,-63.5 521,-44.5 353,-44.5"/>
<text text-anchor="middle" x="437" y="-51.5" font-family="Helvetica,sans-Serif" font-size="10.00">UIElement.RecalculateChildren</text>
</a>
</g>
</g>
<!-- Node3&#45;&gt;Node5 -->
<g id="edge4" class="edge">
<title>Node3&#45;&gt;Node5</title>
<path fill="none" stroke="midnightblue" d="M317.06,-76.59C336.42,-72.92 357.22,-68.97 375.93,-65.41"/>
<polygon fill="midnightblue" stroke="midnightblue" points="376.62,-68.84 385.79,-63.54 375.31,-61.97 376.62,-68.84"/>
</g>
<!-- Node6 -->
<g id="node6" class="node">
<title>Node6</title>
<g id="a_node6"><a xlink:href="../../de/db3/classUIElement_aee194ceb3c88758159e31761805e6a9d.html#aee194ceb3c88758159e31761805e6a9d" target="_top" xlink:title=" ">
<polygon fill="white" stroke="black" points="557,-44.5 557,-63.5 685,-63.5 685,-44.5 557,-44.5"/>
<text text-anchor="middle" x="621" y="-51.5" font-family="Helvetica,sans-Serif" font-size="10.00">UIElement.Recalculate</text>
</a>
</g>
</g>
<!-- Node5&#45;&gt;Node6 -->
<g id="edge5" class="edge">
<title>Node5&#45;&gt;Node6</title>
<path fill="none" stroke="midnightblue" d="M521.01,-47.27C529.61,-47.22 538.3,-47.25 546.78,-47.37"/>
<polygon fill="midnightblue" stroke="midnightblue" points="546.94,-50.87 557,-47.54 547.06,-43.87 546.94,-50.87"/>
</g>
<!-- Node6&#45;&gt;Node5 -->
<g id="edge10" class="edge">
<title>Node6&#45;&gt;Node5</title>
<path fill="none" stroke="midnightblue" d="M557,-60.46C548.65,-60.64 539.96,-60.73 531.24,-60.75"/>
<polygon fill="midnightblue" stroke="midnightblue" points="531.02,-57.25 521.01,-60.73 531,-64.25 531.02,-57.25"/>
</g>
<!-- Node7 -->
<g id="node7" class="node">
<title>Node7</title>
<g id="a_node7"><a xlink:href="../../df/de1/classUserInterface_a0cfc3c35a0f4df271c43ed2d90975df1.html#a0cfc3c35a0f4df271c43ed2d90975df1" target="_top" xlink:title=" ">
<polygon fill="white" stroke="black" points="728.5,-88.5 728.5,-107.5 889.5,-107.5 889.5,-88.5 728.5,-88.5"/>
<text text-anchor="middle" x="809" y="-95.5" font-family="Helvetica,sans-Serif" font-size="10.00">UserInterface.GetDimensions</text>
</a>
</g>
</g>
<!-- Node6&#45;&gt;Node7 -->
<g id="edge6" class="edge">
<title>Node6&#45;&gt;Node7</title>
<path fill="none" stroke="midnightblue" d="M658.6,-63.54C677.25,-68.33 700.29,-74.13 721,-79 731.26,-81.42 742.23,-83.89 752.81,-86.23"/>
<polygon fill="midnightblue" stroke="midnightblue" points="752.26,-89.69 762.78,-88.42 753.76,-82.85 752.26,-89.69"/>
</g>
<!-- Node8 -->
<g id="node8" class="node">
<title>Node8</title>
<g id="a_node8"><a xlink:href="../../de/db3/classUIElement_a5030449fa3a7231b282fb98cfdf1ce01.html#a5030449fa3a7231b282fb98cfdf1ce01" target="_top" xlink:title=" ">
<polygon fill="white" stroke="black" points="721,-39 721,-69 897,-69 897,-39 721,-39"/>
<text text-anchor="start" x="729" y="-57" font-family="Helvetica,sans-Serif" font-size="10.00">UIElement.GetDimensionsBased</text>
<text text-anchor="middle" x="809" y="-46" font-family="Helvetica,sans-Serif" font-size="10.00">OnParentDimensions</text>
</a>
</g>
</g>
<!-- Node6&#45;&gt;Node8 -->
<g id="edge7" class="edge">
<title>Node6&#45;&gt;Node8</title>
<path fill="none" stroke="midnightblue" d="M685.23,-54C693.48,-54 702.08,-54 710.73,-54"/>
<polygon fill="midnightblue" stroke="midnightblue" points="710.89,-57.5 720.89,-54 710.89,-50.5 710.89,-57.5"/>
</g>
<!-- Node10 -->
<g id="node10" class="node">
<title>Node10</title>
<g id="a_node10"><a xlink:href="../../de/db3/classUIElement_adc42b475f74d77f6fe008b8f1e77ad19.html#adc42b475f74d77f6fe008b8f1e77ad19" target="_top" xlink:title=" ">
<polygon fill="white" stroke="black" points="724,-0.5 724,-19.5 894,-19.5 894,-0.5 724,-0.5"/>
<text text-anchor="middle" x="809" y="-7.5" font-family="Helvetica,sans-Serif" font-size="10.00">UIElement.GetInnerDimensions</text>
</a>
</g>
</g>
<!-- Node6&#45;&gt;Node10 -->
<g id="edge9" class="edge">
<title>Node6&#45;&gt;Node10</title>
<path fill="none" stroke="midnightblue" d="M661,-44.43C679.22,-39.99 701.21,-34.67 721,-30 732.32,-27.33 744.47,-24.5 756,-21.85"/>
<polygon fill="midnightblue" stroke="midnightblue" points="756.98,-25.21 765.94,-19.56 755.41,-18.39 756.98,-25.21"/>
</g>
<!-- Node9 -->
<g id="node9" class="node">
<title>Node9</title>
<g id="a_node9"><a xlink:href="../../d1/de0/structStyleDimension_a62acad4030569824dcced4b9e3a10e56.html#a62acad4030569824dcced4b9e3a10e56" target="_top" xlink:title=" ">
<polygon fill="white" stroke="black" points="933,-44.5 933,-63.5 1074,-63.5 1074,-44.5 933,-44.5"/>
<text text-anchor="middle" x="1003.5" y="-51.5" font-family="Helvetica,sans-Serif" font-size="10.00">StyleDimension.GetValue</text>
</a>
</g>
</g>
<!-- Node8&#45;&gt;Node9 -->
<g id="edge8" class="edge">
<title>Node8&#45;&gt;Node9</title>
<path fill="none" stroke="midnightblue" d="M897.24,-54C905.73,-54 914.31,-54 922.71,-54"/>
<polygon fill="midnightblue" stroke="midnightblue" points="922.87,-57.5 932.87,-54 922.87,-50.5 922.87,-57.5"/>
</g>
</g>
</svg>
