<?xml version="1.0" encoding="UTF-8" standalone="no"?>
<!DOCTYPE svg PUBLIC "-//W3C//DTD SVG 1.1//EN"
 "http://www.w3.org/Graphics/SVG/1.1/DTD/svg11.dtd">
<!-- Generated by graphviz version 2.43.0 (0)
 -->
<!-- Title: Terraria.GameContent.RGB.SkyShader.ProcessAnyDetail Pages: 1 -->
<svg width="396pt" height="182pt"
 viewBox="0.00 0.00 396.00 182.00" xmlns="http://www.w3.org/2000/svg" xmlns:xlink="http://www.w3.org/1999/xlink">

<svg id="main" version="1.1" xmlns="http://www.w3.org/2000/svg" xmlns:xlink="http://www.w3.org/1999/xlink" xml:space="preserve" onload="init(evt)">
<style type="text/css"><![CDATA[
.node, .edge {opacity: 0.7;}
.node.selected, .edge.selected {opacity: 1;}
.edge:hover path { stroke: red; }
.edge:hover polygon { stroke: red; fill: red; }
]]></style>
<script type="application/ecmascript" xlink:href="../../svg.min.js"/>
<svg id="graph" class="graph">
<g id="graph0" class="graph" transform="scale(1 1) rotate(0) translate(4 178)">
<title>Terraria.GameContent.RGB.SkyShader.ProcessAnyDetail</title>
<!-- Node1 -->
<g id="Node000001" class="node">
<title>Node1</title>
<g id="a_Node000001"><a xlink:title=" ">
<polygon fill="#999999" stroke="#666666" points="155,-102 0,-102 0,-72 155,-72 155,-102"/>
<text text-anchor="start" x="8" y="-90" font-family="Helvetica,sans-Serif" font-size="10.00">Terraria.GameContent.RGB.</text>
<text text-anchor="middle" x="77.5" y="-79" font-family="Helvetica,sans-Serif" font-size="10.00">SkyShader.ProcessAnyDetail</text>
</a>
</g>
</g>
<!-- Node2 -->
<g id="Node000002" class="node">
<title>Node2</title>
<g id="a_Node000002"><a xlink:href="../../da/dd6/classReLogic_1_1Peripherals_1_1RGB_1_1Fragment_ad8ae13d3f8e4b6018fc3479968dc4105.html#ad8ae13d3f8e4b6018fc3479968dc4105" target="_top" xlink:title=" ">
<polygon fill="white" stroke="#666666" points="388,-174 191,-174 191,-144 388,-144 388,-174"/>
<text text-anchor="start" x="199" y="-162" font-family="Helvetica,sans-Serif" font-size="10.00">ReLogic.Peripherals.RGB.</text>
<text text-anchor="middle" x="289.5" y="-151" font-family="Helvetica,sans-Serif" font-size="10.00">Fragment.GetCanvasPositionOfIndex</text>
</a>
</g>
</g>
<!-- Node1&#45;&gt;Node2 -->
<g id="edge1_Node000001_Node000002" class="edge">
<title>Node1&#45;&gt;Node2</title>
<g id="a_edge1_Node000001_Node000002"><a xlink:title=" ">
<path fill="none" stroke="#63b8ff" d="M109.97,-102.05C132.24,-112.3 163,-125.65 191,-135 197.5,-137.17 204.3,-139.24 211.16,-141.19"/>
<polygon fill="#63b8ff" stroke="#63b8ff" points="210.65,-144.68 221.22,-143.96 212.5,-137.93 210.65,-144.68"/>
</a>
</g>
</g>
<!-- Node3 -->
<g id="Node000003" class="node">
<title>Node3</title>
<g id="a_Node000003"><a xlink:href="../../de/dbd/classTerraria_1_1GameContent_1_1RGB_1_1NoiseHelper_a7e74438cf5ce41d3fb7e3ee8b20ffbca.html#a7e74438cf5ce41d3fb7e3ee8b20ffbca" target="_top" xlink:title=" ">
<polygon fill="white" stroke="#666666" points="373,-126 206,-126 206,-96 373,-96 373,-126"/>
<text text-anchor="start" x="214" y="-114" font-family="Helvetica,sans-Serif" font-size="10.00">Terraria.GameContent.RGB.</text>
<text text-anchor="middle" x="289.5" y="-103" font-family="Helvetica,sans-Serif" font-size="10.00">NoiseHelper.GetDynamicNoise</text>
</a>
</g>
</g>
<!-- Node1&#45;&gt;Node3 -->
<g id="edge2_Node000001_Node000003" class="edge">
<title>Node1&#45;&gt;Node3</title>
<g id="a_edge2_Node000001_Node000003"><a xlink:title=" ">
<path fill="none" stroke="#63b8ff" d="M155.21,-95.77C168.37,-97.27 182.18,-98.85 195.71,-100.4"/>
<polygon fill="#63b8ff" stroke="#63b8ff" points="195.66,-103.91 205.99,-101.57 196.45,-96.96 195.66,-103.91"/>
</a>
</g>
</g>
<!-- Node4 -->
<g id="Node000004" class="node">
<title>Node4</title>
<g id="a_Node000004"><a xlink:href="../../da/dd6/classReLogic_1_1Peripherals_1_1RGB_1_1Fragment_a6ae874bb564915466eecf15cc9bd69d4.html#a6ae874bb564915466eecf15cc9bd69d4" target="_top" xlink:title=" ">
<polygon fill="white" stroke="#666666" points="380,-78 199,-78 199,-48 380,-48 380,-78"/>
<text text-anchor="start" x="207" y="-66" font-family="Helvetica,sans-Serif" font-size="10.00">ReLogic.Peripherals.RGB.</text>
<text text-anchor="middle" x="289.5" y="-55" font-family="Helvetica,sans-Serif" font-size="10.00">Fragment.GetGridPositionOfIndex</text>
</a>
</g>
</g>
<!-- Node1&#45;&gt;Node4 -->
<g id="edge3_Node000001_Node000004" class="edge">
<title>Node1&#45;&gt;Node4</title>
<g id="a_edge3_Node000001_Node000004"><a xlink:title=" ">
<path fill="none" stroke="#63b8ff" d="M155.21,-78.23C166.06,-76.99 177.35,-75.7 188.56,-74.42"/>
<polygon fill="#63b8ff" stroke="#63b8ff" points="189.29,-77.86 198.83,-73.25 188.49,-70.91 189.29,-77.86"/>
</a>
</g>
</g>
<!-- Node5 -->
<g id="Node000005" class="node">
<title>Node5</title>
<g id="a_Node000005"><a xlink:href="../../da/dd6/classReLogic_1_1Peripherals_1_1RGB_1_1Fragment_ac2018cbbd5437a0bcf5baf076040c0e7.html#ac2018cbbd5437a0bcf5baf076040c0e7" target="_top" xlink:title=" ">
<polygon fill="white" stroke="#666666" points="359.5,-30 219.5,-30 219.5,0 359.5,0 359.5,-30"/>
<text text-anchor="start" x="227.5" y="-18" font-family="Helvetica,sans-Serif" font-size="10.00">ReLogic.Peripherals.RGB.</text>
<text text-anchor="middle" x="289.5" y="-7" font-family="Helvetica,sans-Serif" font-size="10.00">Fragment.SetColor</text>
</a>
</g>
</g>
<!-- Node1&#45;&gt;Node5 -->
<g id="edge4_Node000001_Node000005" class="edge">
<title>Node1&#45;&gt;Node5</title>
<g id="a_edge4_Node000001_Node000005"><a xlink:title=" ">
<path fill="none" stroke="#63b8ff" d="M109.97,-71.95C132.24,-61.7 163,-48.35 191,-39 197.5,-36.83 204.3,-34.76 211.16,-32.81"/>
<polygon fill="#63b8ff" stroke="#63b8ff" points="212.5,-36.07 221.22,-30.04 210.65,-29.32 212.5,-36.07"/>
</a>
</g>
</g>
</g>
</svg>
</svg>

<style type='text/css'>
<![CDATA[
[data-mouse-over-selected='false'] { opacity: 0.7; }
[data-mouse-over-selected='true']  { opacity: 1.0; }
]]>
</style>
<script type="application/ecmascript"><![CDATA[
document.addEventListener('DOMContentLoaded', (event) => {
  highlightEdges();
  highlightAdjacentNodes();
});
]]></script>
</svg>
