<?xml version="1.0" encoding="UTF-8" standalone="no"?>
<!DOCTYPE svg PUBLIC "-//W3C//DTD SVG 1.1//EN"
 "http://www.w3.org/Graphics/SVG/1.1/DTD/svg11.dtd">
<!-- Generated by graphviz version 2.43.0 (0)
 -->
<!-- Title: MarbleBiome.SlabStates.Solid Pages: 1 -->
<svg width="504pt" height="47pt"
 viewBox="0.00 0.00 504.00 47.00" xmlns="http://www.w3.org/2000/svg" xmlns:xlink="http://www.w3.org/1999/xlink">
<g id="graph0" class="graph" transform="scale(1 1) rotate(0) translate(4 43)">
<title>MarbleBiome.SlabStates.Solid</title>
<polygon fill="white" stroke="transparent" points="-4,4 -4,-43 500,-43 500,4 -4,4"/>
<!-- Node1 -->
<g id="node1" class="node">
<title>Node1</title>
<g id="a_node1"><a xlink:title=" ">
<polygon fill="#bfbfbf" stroke="black" points="332,-19.5 332,-38.5 496,-38.5 496,-19.5 332,-19.5"/>
<text text-anchor="middle" x="414" y="-26.5" font-family="Helvetica,sans-Serif" font-size="10.00">MarbleBiome.SlabStates.Solid</text>
</a>
</g>
</g>
<!-- Node2 -->
<g id="node2" class="node">
<title>Node2</title>
<g id="a_node2"><a xlink:href="../../dd/dbd/classMarbleBiome_a784a95255ba5bd3c75e7a0b5d4c27350.html#a784a95255ba5bd3c75e7a0b5d4c27350" target="_top" xlink:title=" ">
<polygon fill="white" stroke="black" points="0,-19.5 0,-38.5 111,-38.5 111,-19.5 0,-19.5"/>
<text text-anchor="middle" x="55.5" y="-26.5" font-family="Helvetica,sans-Serif" font-size="10.00">MarbleBiome.Place</text>
</a>
</g>
</g>
<!-- Node1&#45;&gt;Node2 -->
<g id="edge1" class="edge">
<title>Node1&#45;&gt;Node2</title>
<path fill="none" stroke="midnightblue" d="M321.59,-29C255.04,-29 167.13,-29 111.18,-29"/>
<polygon fill="midnightblue" stroke="midnightblue" points="321.66,-32.5 331.66,-29 321.66,-25.5 321.66,-32.5"/>
</g>
<!-- Node3 -->
<g id="node3" class="node">
<title>Node3</title>
<g id="a_node3"><a xlink:href="../../dd/dbd/classMarbleBiome_adca7a49a2799ae2b94eee1cf4dbf340e.html#adca7a49a2799ae2b94eee1cf4dbf340e" target="_top" xlink:title=" ">
<polygon fill="white" stroke="black" points="147,-0.5 147,-19.5 296,-19.5 296,-0.5 147,-0.5"/>
<text text-anchor="middle" x="221.5" y="-7.5" font-family="Helvetica,sans-Serif" font-size="10.00">MarbleBiome.SmoothSlope</text>
</a>
</g>
</g>
<!-- Node1&#45;&gt;Node3 -->
<g id="edge2" class="edge">
<title>Node1&#45;&gt;Node3</title>
<path fill="none" stroke="midnightblue" d="M321.88,-19.91C313.29,-19.06 304.65,-18.19 296.25,-17.36"/>
<polygon fill="midnightblue" stroke="midnightblue" points="321.64,-23.4 331.93,-20.91 322.33,-16.44 321.64,-23.4"/>
</g>
<!-- Node3&#45;&gt;Node2 -->
<g id="edge3" class="edge">
<title>Node3&#45;&gt;Node2</title>
<path fill="none" stroke="midnightblue" d="M136.58,-19.72C127.99,-20.72 119.43,-21.71 111.27,-22.65"/>
<polygon fill="midnightblue" stroke="midnightblue" points="137.13,-23.18 146.66,-18.56 136.32,-16.23 137.13,-23.18"/>
</g>
</g>
</svg>
