<?xml version="1.0" encoding="UTF-8" standalone="no"?>
<!DOCTYPE svg PUBLIC "-//W3C//DTD SVG 1.1//EN"
 "http://www.w3.org/Graphics/SVG/1.1/DTD/svg11.dtd">
<!-- Generated by graphviz version 2.43.0 (0)
 -->
<!-- Title: WorldUtils.TileFrame Pages: 1 -->
<!--zoomable 360 -->
<svg id="main" version="1.1" xmlns="http://www.w3.org/2000/svg" xmlns:xlink="http://www.w3.org/1999/xlink" xml:space="preserve" onload="init(evt)">
<style type="text/css"><![CDATA[
.edge:hover path { stroke: red; }
.edge:hover polygon { stroke: red; fill: red; }
]]></style>
<script type="text/javascript"><![CDATA[
var edges = document.getElementsByTagName('g');
if (edges && edges.length) {
  for (var i=0;i<edges.length;i++) {
    if (edges[i].id.substr(0,4)=='edge') {
      edges[i].setAttribute('class','edge');
    }
  }
}
]]></script>
        <defs>
                <circle id="rim" cx="0" cy="0" r="7"/>
                <circle id="rim2" cx="0" cy="0" r="3.5"/>
                <g id="zoomPlus">
                        <use xlink:href="#rim" fill="#404040">
                                <set attributeName="fill" to="#808080" begin="zoomplus.mouseover" end="zoomplus.mouseout"/>
                        </use>
                        <path d="M-4,0h8M0,-4v8" fill="none" stroke="white" stroke-width="1.5" pointer-events="none"/>
                </g>
                <g id="zoomMin">
                        <use xlink:href="#rim" fill="#404040">
                                <set attributeName="fill" to="#808080" begin="zoomminus.mouseover" end="zoomminus.mouseout"/>
                        </use>
                        <path d="M-4,0h8" fill="none" stroke="white" stroke-width="1.5" pointer-events="none"/>
                </g>
                <g id="dirArrow">
                        <path fill="none" stroke="white" stroke-width="1.5" d="M0,-3.0v7 M-2.5,-0.5L0,-3.0L2.5,-0.5"/>
                </g>
               <g id="resetDef">
                       <use xlink:href="#rim2" fill="#404040">
                               <set attributeName="fill" to="#808080" begin="reset.mouseover" end="reset.mouseout"/>
                       </use>
               </g>
        </defs>

<script type="text/javascript">
var viewWidth = 2304;
var viewHeight = 360;
var sectionId = 'dynsection-1';
</script>
<script xlink:href="../../svgpan.js"/>
<svg id="graph" class="graph">
<g id="viewport">
<title>WorldUtils.TileFrame</title>
<polygon fill="white" stroke="transparent" points="-4,4 -4,-355.5 2300,-355.5 2300,4 -4,4"/>
<!-- Node1 -->
<g id="node1" class="node">
<title>Node1</title>
<g id="a_node1"><a xlink:title=" ">
<polygon fill="#bfbfbf" stroke="black" points="2177,-187 2177,-206 2296,-206 2296,-187 2177,-187"/>
<text text-anchor="middle" x="2236.5" y="-194" font-family="Helvetica,sans-Serif" font-size="10.00">WorldUtils.TileFrame</text>
</a>
</g>
</g>
<!-- Node2 -->
<g id="node2" class="node">
<title>Node2</title>
<g id="a_node2"><a xlink:href="../../d4/d86/classActions_1_1SetTile_ab876366d7513441f422f272fcb26a722.html#ab876366d7513441f422f272fcb26a722" target="_top" xlink:title=" ">
<polygon fill="white" stroke="black" points="1995,-332 1995,-351 2115,-351 2115,-332 1995,-332"/>
<text text-anchor="middle" x="2055" y="-339" font-family="Helvetica,sans-Serif" font-size="10.00">Actions.SetTile.Apply</text>
</a>
</g>
</g>
<!-- Node1&#45;&gt;Node2 -->
<g id="edge1" class="edge">
<title>Node1&#45;&gt;Node2</title>
<path fill="none" stroke="midnightblue" d="M2226.78,-215.37C2212.83,-243.38 2182.73,-295.54 2141,-322.5 2133.25,-327.51 2124.37,-331.2 2115.34,-333.93"/>
<polygon fill="midnightblue" stroke="midnightblue" points="2230,-216.77 2231.19,-206.24 2223.69,-213.73 2230,-216.77"/>
</g>
<!-- Node3 -->
<g id="node3" class="node">
<title>Node3</title>
<g id="a_node3"><a xlink:href="../../dc/d87/classActions_1_1SetTileKeepWall_acdfa0fdcf26ec73a34e9e40ba3a02f9a.html#acdfa0fdcf26ec73a34e9e40ba3a02f9a" target="_top" xlink:title=" ">
<polygon fill="white" stroke="black" points="1986.5,-282.5 1986.5,-312.5 2123.5,-312.5 2123.5,-282.5 1986.5,-282.5"/>
<text text-anchor="start" x="1994.5" y="-300.5" font-family="Helvetica,sans-Serif" font-size="10.00">Actions.SetTileKeepWall.</text>
<text text-anchor="middle" x="2055" y="-289.5" font-family="Helvetica,sans-Serif" font-size="10.00">Apply</text>
</a>
</g>
</g>
<!-- Node1&#45;&gt;Node3 -->
<g id="edge2" class="edge">
<title>Node1&#45;&gt;Node3</title>
<path fill="none" stroke="midnightblue" d="M2218.91,-213.27C2201.1,-230.41 2171.26,-256.68 2141,-272.5 2133.78,-276.28 2125.9,-279.56 2117.95,-282.4"/>
<polygon fill="midnightblue" stroke="midnightblue" points="2221.52,-215.61 2226.21,-206.11 2216.62,-210.62 2221.52,-215.61"/>
</g>
<!-- Node4 -->
<g id="node4" class="node">
<title>Node4</title>
<g id="a_node4"><a xlink:href="../../d7/dbe/classActions_1_1SetFrames_a0a3c77dcc6ae1c5eff30e6f8910395f4.html#a0a3c77dcc6ae1c5eff30e6f8910395f4" target="_top" xlink:title=" ">
<polygon fill="white" stroke="black" points="1986,-244 1986,-263 2124,-263 2124,-244 1986,-244"/>
<text text-anchor="middle" x="2055" y="-251" font-family="Helvetica,sans-Serif" font-size="10.00">Actions.SetFrames.Apply</text>
</a>
</g>
</g>
<!-- Node1&#45;&gt;Node4 -->
<g id="edge3" class="edge">
<title>Node1&#45;&gt;Node4</title>
<path fill="none" stroke="midnightblue" d="M2205.18,-210.16C2186.87,-218.04 2162.9,-227.7 2141,-234.5 2129.45,-238.09 2116.81,-241.29 2104.9,-243.99"/>
<polygon fill="midnightblue" stroke="midnightblue" points="2206.7,-213.31 2214.46,-206.11 2203.9,-206.9 2206.7,-213.31"/>
</g>
<!-- Node5 -->
<g id="node5" class="node">
<title>Node5</title>
<g id="a_node5"><a xlink:href="../../d8/d4e/classDesertBiome_aa1930fb65b7330c14f7996d2e6c51200.html#aa1930fb65b7330c14f7996d2e6c51200" target="_top" xlink:title=" ">
<polygon fill="white" stroke="black" points="1982,-206 1982,-225 2128,-225 2128,-206 1982,-206"/>
<text text-anchor="middle" x="2055" y="-213" font-family="Helvetica,sans-Serif" font-size="10.00">DesertBiome.CleanupArea</text>
</a>
</g>
</g>
<!-- Node1&#45;&gt;Node5 -->
<g id="edge4" class="edge">
<title>Node1&#45;&gt;Node5</title>
<path fill="none" stroke="midnightblue" d="M2166.72,-203.78C2154.07,-205.12 2140.82,-206.52 2128.07,-207.87"/>
<polygon fill="midnightblue" stroke="midnightblue" points="2167.15,-207.25 2176.72,-202.72 2166.41,-200.29 2167.15,-207.25"/>
</g>
<!-- Node42 -->
<g id="node42" class="node">
<title>Node42</title>
<g id="a_node42"><a xlink:href="../../df/d8e/classMiningExplosivesBiome_a8baa9fc699e69eb9bbff279329f166c9.html#a8baa9fc699e69eb9bbff279329f166c9" target="_top" xlink:title=" ">
<polygon fill="white" stroke="black" points="1973.5,-168 1973.5,-187 2136.5,-187 2136.5,-168 1973.5,-168"/>
<text text-anchor="middle" x="2055" y="-175" font-family="Helvetica,sans-Serif" font-size="10.00">MiningExplosivesBiome.Place</text>
</a>
</g>
</g>
<!-- Node1&#45;&gt;Node42 -->
<g id="edge48" class="edge">
<title>Node1&#45;&gt;Node42</title>
<path fill="none" stroke="midnightblue" d="M2166.67,-189.21C2156.88,-188.18 2146.74,-187.1 2136.75,-186.05"/>
<polygon fill="midnightblue" stroke="midnightblue" points="2166.41,-192.71 2176.72,-190.28 2167.15,-185.75 2166.41,-192.71"/>
</g>
<!-- Node43 -->
<g id="node43" class="node">
<title>Node43</title>
<g id="a_node43"><a xlink:href="../../d6/df9/classGraniteBiome_a433611672359d3305ec9922f2034fe5d.html#a433611672359d3305ec9922f2034fe5d" target="_top" xlink:title=" ">
<polygon fill="white" stroke="black" points="1969,-130 1969,-149 2141,-149 2141,-130 1969,-130"/>
<text text-anchor="middle" x="2055" y="-137" font-family="Helvetica,sans-Serif" font-size="10.00">GraniteBiome.PlaceDecorations</text>
</a>
</g>
</g>
<!-- Node1&#45;&gt;Node43 -->
<g id="edge49" class="edge">
<title>Node1&#45;&gt;Node43</title>
<path fill="none" stroke="midnightblue" d="M2205.18,-182.84C2186.87,-174.96 2162.9,-165.3 2141,-158.5 2129.45,-154.91 2116.81,-151.71 2104.9,-149.01"/>
<polygon fill="midnightblue" stroke="midnightblue" points="2203.9,-186.1 2214.46,-186.89 2206.7,-179.69 2203.9,-186.1"/>
</g>
<!-- Node45 -->
<g id="node45" class="node">
<title>Node45</title>
<g id="a_node45"><a xlink:href="../../db/d27/classTrackGenerator_a0ef59b03d8b82ef651485ab4a2c737ca.html#a0ef59b03d8b82ef651485ab4a2c737ca" target="_top" xlink:title=" ">
<polygon fill="white" stroke="black" points="1985,-92 1985,-111 2125,-111 2125,-92 1985,-92"/>
<text text-anchor="middle" x="2055" y="-99" font-family="Helvetica,sans-Serif" font-size="10.00">TrackGenerator.PlacePath</text>
</a>
</g>
</g>
<!-- Node1&#45;&gt;Node45 -->
<g id="edge51" class="edge">
<title>Node1&#45;&gt;Node45</title>
<path fill="none" stroke="midnightblue" d="M2219.4,-179.6C2201.79,-162.14 2171.93,-135.39 2141,-120.5 2132.96,-116.63 2124.11,-113.54 2115.26,-111.06"/>
<polygon fill="midnightblue" stroke="midnightblue" points="2217.08,-182.23 2226.59,-186.9 2222.06,-177.32 2217.08,-182.23"/>
</g>
<!-- Node47 -->
<g id="node47" class="node">
<title>Node47</title>
<g id="a_node47"><a xlink:href="../../dd/dbd/classMarbleBiome_ac54e70d1eae89e4a3a8c771295a98a00.html#ac54e70d1eae89e4a3a8c771295a98a00" target="_top" xlink:title=" ">
<polygon fill="white" stroke="black" points="1989,-54 1989,-73 2121,-73 2121,-54 1989,-54"/>
<text text-anchor="middle" x="2055" y="-61" font-family="Helvetica,sans-Serif" font-size="10.00">MarbleBiome.PlaceSlab</text>
</a>
</g>
</g>
<!-- Node1&#45;&gt;Node47 -->
<g id="edge53" class="edge">
<title>Node1&#45;&gt;Node47</title>
<path fill="none" stroke="midnightblue" d="M2225.45,-177.95C2210.55,-152.29 2180.08,-106.42 2141,-82.5 2134.68,-78.63 2127.67,-75.55 2120.45,-73.09"/>
<polygon fill="midnightblue" stroke="midnightblue" points="2222.43,-179.72 2230.39,-186.71 2228.53,-176.28 2222.43,-179.72"/>
</g>
<!-- Node6 -->
<g id="node6" class="node">
<title>Node6</title>
<g id="a_node6"><a xlink:href="../../d8/d4e/classDesertBiome_a57e54138be970200417b2bdaaafb1284.html#a57e54138be970200417b2bdaaafb1284" target="_top" xlink:title=" ">
<polygon fill="white" stroke="black" points="1818.5,-206 1818.5,-225 1928.5,-225 1928.5,-206 1818.5,-206"/>
<text text-anchor="middle" x="1873.5" y="-213" font-family="Helvetica,sans-Serif" font-size="10.00">DesertBiome.Place</text>
</a>
</g>
</g>
<!-- Node5&#45;&gt;Node6 -->
<g id="edge5" class="edge">
<title>Node5&#45;&gt;Node6</title>
<path fill="none" stroke="midnightblue" d="M1971.71,-215.5C1957.1,-215.5 1942.22,-215.5 1928.64,-215.5"/>
<polygon fill="midnightblue" stroke="midnightblue" points="1971.77,-219 1981.77,-215.5 1971.77,-212 1971.77,-219"/>
</g>
<!-- Node7 -->
<g id="node7" class="node">
<title>Node7</title>
<g id="a_node7"><a xlink:href="../../db/de4/classWorldGen_ad40e37399d33f566e200ede8c59be399.html#ad40e37399d33f566e200ede8c59be399" target="_top" xlink:title=" ">
<polygon fill="white" stroke="black" points="1638,-206 1638,-225 1778,-225 1778,-206 1638,-206"/>
<text text-anchor="middle" x="1708" y="-213" font-family="Helvetica,sans-Serif" font-size="10.00">WorldGen.GenerateWorld</text>
</a>
</g>
</g>
<!-- Node6&#45;&gt;Node7 -->
<g id="edge6" class="edge">
<title>Node6&#45;&gt;Node7</title>
<path fill="none" stroke="midnightblue" d="M1807.97,-215.5C1798.14,-215.5 1787.96,-215.5 1778.04,-215.5"/>
<polygon fill="midnightblue" stroke="midnightblue" points="1808.06,-219 1818.06,-215.5 1808.06,-212 1808.06,-219"/>
</g>
<!-- Node8 -->
<g id="node8" class="node">
<title>Node8</title>
<g id="a_node8"><a xlink:href="../../dd/de2/classWorldUtils_a34a90371f6b6933007a2880ca7c509b4.html#a34a90371f6b6933007a2880ca7c509b4" target="_top" xlink:title=" ">
<polygon fill="white" stroke="black" points="1458.5,-263 1458.5,-282 1590.5,-282 1590.5,-263 1458.5,-263"/>
<text text-anchor="middle" x="1524.5" y="-270" font-family="Helvetica,sans-Serif" font-size="10.00">WorldUtils.DebugRegen</text>
</a>
</g>
</g>
<!-- Node7&#45;&gt;Node8 -->
<g id="edge7" class="edge">
<title>Node7&#45;&gt;Node8</title>
<path fill="none" stroke="midnightblue" d="M1666.87,-228.12C1647.3,-234.27 1623.42,-241.77 1602,-248.5 1586.86,-253.25 1570.03,-258.53 1556.03,-262.93"/>
<polygon fill="midnightblue" stroke="midnightblue" points="1668.19,-231.37 1676.68,-225.04 1666.09,-224.7 1668.19,-231.37"/>
</g>
<!-- Node9 -->
<g id="node9" class="node">
<title>Node9</title>
<g id="a_node9"><a xlink:href="../../db/d4a/classMain_a25342c33fe017340cbe3a4d633951101.html#a25342c33fe017340cbe3a4d633951101" target="_top" xlink:title=" ">
<polygon fill="white" stroke="black" points="1233,-301 1233,-320 1411,-320 1411,-301 1233,-301"/>
<text text-anchor="middle" x="1322" y="-308" font-family="Helvetica,sans-Serif" font-size="10.00">Main.Initialize_AlmostEverything</text>
</a>
</g>
</g>
<!-- Node7&#45;&gt;Node9 -->
<g id="edge8" class="edge">
<title>Node7&#45;&gt;Node9</title>
<path fill="none" stroke="midnightblue" d="M1627.74,-217.66C1574.95,-221.35 1504.9,-230.64 1447,-253.5 1428.88,-260.65 1428.3,-269.54 1411,-278.5 1393.39,-287.62 1372.58,-295.32 1355.62,-300.87"/>
<polygon fill="midnightblue" stroke="midnightblue" points="1627.97,-221.16 1637.72,-217.02 1627.52,-214.17 1627.97,-221.16"/>
</g>
<!-- Node18 -->
<g id="node18" class="node">
<title>Node18</title>
<g id="a_node18"><a xlink:href="../../d3/dc1/classWorldFile_a1974cedbe41ea7715edc982e14e80e43.html#a1974cedbe41ea7715edc982e14e80e43" target="_top" xlink:title=" ">
<polygon fill="white" stroke="black" points="1466.5,-142 1466.5,-161 1582.5,-161 1582.5,-142 1466.5,-142"/>
<text text-anchor="middle" x="1524.5" y="-149" font-family="Helvetica,sans-Serif" font-size="10.00">WorldFile.LoadWorld</text>
</a>
</g>
</g>
<!-- Node7&#45;&gt;Node18 -->
<g id="edge18" class="edge">
<title>Node7&#45;&gt;Node18</title>
<path fill="none" stroke="midnightblue" d="M1671.67,-202.52C1651.33,-195.09 1625.27,-185.66 1602,-177.5 1586.25,-171.97 1568.61,-165.97 1554.24,-161.12"/>
<polygon fill="midnightblue" stroke="midnightblue" points="1670.57,-205.84 1681.16,-205.99 1672.97,-199.27 1670.57,-205.84"/>
</g>
<!-- Node33 -->
<g id="node33" class="node">
<title>Node33</title>
<g id="a_node33"><a xlink:href="../../db/de4/classWorldGen_a5f36acf270af2991aec737d0cbb10291.html#a5f36acf270af2991aec737d0cbb10291" target="_top" xlink:title=" ">
<polygon fill="white" stroke="black" points="1447,-187 1447,-206 1602,-206 1602,-187 1447,-187"/>
<text text-anchor="middle" x="1524.5" y="-194" font-family="Helvetica,sans-Serif" font-size="10.00">WorldGen.worldGenCallback</text>
</a>
</g>
</g>
<!-- Node7&#45;&gt;Node33 -->
<g id="edge36" class="edge">
<title>Node7&#45;&gt;Node33</title>
<path fill="none" stroke="midnightblue" d="M1627.87,-207.22C1619.29,-206.32 1610.57,-205.4 1602.02,-204.51"/>
<polygon fill="midnightblue" stroke="midnightblue" points="1627.55,-210.7 1637.86,-208.26 1628.28,-203.74 1627.55,-210.7"/>
</g>
<!-- Node10 -->
<g id="node10" class="node">
<title>Node10</title>
<g id="a_node10"><a xlink:href="../../db/d4a/classMain_a5db4144feae3a661cf25ae1acf553895.html#a5db4144feae3a661cf25ae1acf553895" target="_top" xlink:title=" ">
<polygon fill="white" stroke="black" points="865,-320 865,-339 966,-339 966,-320 865,-320"/>
<text text-anchor="middle" x="915.5" y="-327" font-family="Helvetica,sans-Serif" font-size="10.00">Main.DrawSplash</text>
</a>
</g>
</g>
<!-- Node9&#45;&gt;Node10 -->
<g id="edge9" class="edge">
<title>Node9&#45;&gt;Node10</title>
<path fill="none" stroke="midnightblue" d="M1260.55,-321.65C1240.41,-324.86 1217.81,-327.92 1197,-329.5 1116.39,-335.64 1022.38,-333.82 966.24,-331.78"/>
<polygon fill="midnightblue" stroke="midnightblue" points="1261.22,-325.08 1270.52,-320.01 1260.09,-318.17 1261.22,-325.08"/>
</g>
<!-- Node13 -->
<g id="node13" class="node">
<title>Node13</title>
<g id="a_node13"><a xlink:href="../../db/d4a/classMain_ad5aa3256b312cc9cfd98baeb2233727c.html#ad5aa3256b312cc9cfd98baeb2233727c" target="_top" xlink:title=" ">
<polygon fill="white" stroke="black" points="1069.5,-301 1069.5,-320 1155.5,-320 1155.5,-301 1069.5,-301"/>
<text text-anchor="middle" x="1112.5" y="-308" font-family="Helvetica,sans-Serif" font-size="10.00">Main.Initialize</text>
</a>
</g>
</g>
<!-- Node9&#45;&gt;Node13 -->
<g id="edge13" class="edge">
<title>Node9&#45;&gt;Node13</title>
<path fill="none" stroke="midnightblue" d="M1222.64,-310.5C1199.08,-310.5 1175.14,-310.5 1155.71,-310.5"/>
<polygon fill="midnightblue" stroke="midnightblue" points="1222.7,-314 1232.7,-310.5 1222.7,-307 1222.7,-314"/>
</g>
<!-- Node11 -->
<g id="node11" class="node">
<title>Node11</title>
<g id="a_node11"><a xlink:href="../../db/d4a/classMain_a4ca48570ee8c9e54ed5371ecb4ab1877.html#a4ca48570ee8c9e54ed5371ecb4ab1877" target="_top" xlink:title=" ">
<polygon fill="white" stroke="black" points="676.5,-225 676.5,-244 759.5,-244 759.5,-225 676.5,-225"/>
<text text-anchor="middle" x="718" y="-232" font-family="Helvetica,sans-Serif" font-size="10.00">Main.DoDraw</text>
</a>
</g>
</g>
<!-- Node10&#45;&gt;Node11 -->
<g id="edge10" class="edge">
<title>Node10&#45;&gt;Node11</title>
<path fill="none" stroke="midnightblue" d="M881.36,-315.86C867.63,-309.45 851.92,-301.1 839,-291.5 820.33,-277.62 823.22,-265.01 803,-253.5 789.88,-246.03 774.03,-241.5 759.66,-238.75"/>
<polygon fill="midnightblue" stroke="midnightblue" points="879.94,-319.06 890.5,-319.98 882.82,-312.68 879.94,-319.06"/>
</g>
<!-- Node12 -->
<g id="node12" class="node">
<title>Node12</title>
<g id="a_node12"><a xlink:href="../../db/d4a/classMain_a9df405f7c9ce2e93e9af9bbf70231672.html#a9df405f7c9ce2e93e9af9bbf70231672" target="_top" xlink:title=" ">
<polygon fill="white" stroke="black" points="477.5,-225 477.5,-244 546.5,-244 546.5,-225 477.5,-225"/>
<text text-anchor="middle" x="512" y="-232" font-family="Helvetica,sans-Serif" font-size="10.00">Main.Draw</text>
</a>
</g>
</g>
<!-- Node11&#45;&gt;Node12 -->
<g id="edge11" class="edge">
<title>Node11&#45;&gt;Node12</title>
<path fill="none" stroke="midnightblue" d="M666.03,-228.57C628.71,-227.26 579.11,-227.52 546.63,-229.34"/>
<polygon fill="midnightblue" stroke="midnightblue" points="666.08,-232.07 676.21,-228.97 666.36,-225.08 666.08,-232.07"/>
</g>
<!-- Node12&#45;&gt;Node11 -->
<g id="edge12" class="edge">
<title>Node12&#45;&gt;Node11</title>
<path fill="none" stroke="midnightblue" d="M556.68,-240.15C592.08,-241.66 641.6,-241.61 676.21,-240.03"/>
<polygon fill="midnightblue" stroke="midnightblue" points="556.79,-236.66 546.63,-239.66 556.45,-243.65 556.79,-236.66"/>
</g>
<!-- Node14 -->
<g id="node14" class="node">
<title>Node14</title>
<g id="a_node14"><a xlink:href="../../db/d4a/classMain_aa0692b82ef0f39d28df7aae89daa2480.html#aa0692b82ef0f39d28df7aae89daa2480" target="_top" xlink:title=" ">
<polygon fill="white" stroke="black" points="873,-263 873,-282 958,-282 958,-263 873,-263"/>
<text text-anchor="middle" x="915.5" y="-270" font-family="Helvetica,sans-Serif" font-size="10.00">Main.DedServ</text>
</a>
</g>
</g>
<!-- Node13&#45;&gt;Node14 -->
<g id="edge14" class="edge">
<title>Node13&#45;&gt;Node14</title>
<path fill="none" stroke="midnightblue" d="M1059.21,-300.31C1027.5,-294.13 987.6,-286.36 958.06,-280.6"/>
<polygon fill="midnightblue" stroke="midnightblue" points="1058.7,-303.78 1069.19,-302.25 1060.04,-296.91 1058.7,-303.78"/>
</g>
<!-- Node15 -->
<g id="node15" class="node">
<title>Node15</title>
<g id="a_node15"><a xlink:href="../../dc/db5/classProgram_a7046fff16d913c8ea7291c3efa4cb4ed.html#a7046fff16d913c8ea7291c3efa4cb4ed" target="_top" xlink:title=" ">
<polygon fill="white" stroke="black" points="663.5,-263 663.5,-282 772.5,-282 772.5,-263 663.5,-263"/>
<text text-anchor="middle" x="718" y="-270" font-family="Helvetica,sans-Serif" font-size="10.00">Program.RunGame</text>
</a>
</g>
</g>
<!-- Node14&#45;&gt;Node15 -->
<g id="edge15" class="edge">
<title>Node14&#45;&gt;Node15</title>
<path fill="none" stroke="midnightblue" d="M862.29,-272.5C834.62,-272.5 800.68,-272.5 772.78,-272.5"/>
<polygon fill="midnightblue" stroke="midnightblue" points="862.56,-276 872.56,-272.5 862.56,-269 862.56,-276"/>
</g>
<!-- Node16 -->
<g id="node16" class="node">
<title>Node16</title>
<g id="a_node16"><a xlink:href="../../dc/db5/classProgram_ac64eaca42975d2a403f25794697886fc.html#ac64eaca42975d2a403f25794697886fc" target="_top" xlink:title=" ">
<polygon fill="white" stroke="black" points="449.5,-263 449.5,-282 574.5,-282 574.5,-263 449.5,-263"/>
<text text-anchor="middle" x="512" y="-270" font-family="Helvetica,sans-Serif" font-size="10.00">Program.LaunchGame</text>
</a>
</g>
</g>
<!-- Node15&#45;&gt;Node16 -->
<g id="edge16" class="edge">
<title>Node15&#45;&gt;Node16</title>
<path fill="none" stroke="midnightblue" d="M653.25,-272.5C628.15,-272.5 599.42,-272.5 574.54,-272.5"/>
<polygon fill="midnightblue" stroke="midnightblue" points="653.4,-276 663.4,-272.5 653.4,-269 653.4,-276"/>
</g>
<!-- Node17 -->
<g id="node17" class="node">
<title>Node17</title>
<g id="a_node17"><a xlink:href="../../df/d9e/classWindowsLaunch_a48fb8633919b7d48cc10a62bd116902a.html#a48fb8633919b7d48cc10a62bd116902a" target="_top" xlink:title=" ">
<polygon fill="white" stroke="black" points="242,-263 242,-282 364,-282 364,-263 242,-263"/>
<text text-anchor="middle" x="303" y="-270" font-family="Helvetica,sans-Serif" font-size="10.00">WindowsLaunch.Main</text>
</a>
</g>
</g>
<!-- Node16&#45;&gt;Node17 -->
<g id="edge17" class="edge">
<title>Node16&#45;&gt;Node17</title>
<path fill="none" stroke="midnightblue" d="M439.16,-272.5C414.72,-272.5 387.68,-272.5 364.24,-272.5"/>
<polygon fill="midnightblue" stroke="midnightblue" points="439.45,-276 449.45,-272.5 439.45,-269 439.45,-276"/>
</g>
<!-- Node19 -->
<g id="node19" class="node">
<title>Node19</title>
<g id="a_node19"><a xlink:href="../../db/de4/classWorldGen_a5ac1915bc694cdb4cd93d04cdffef7d4.html#a5ac1915bc694cdb4cd93d04cdffef7d4" target="_top" xlink:title=" ">
<polygon fill="white" stroke="black" points="1243,-135 1243,-154 1401,-154 1401,-135 1243,-135"/>
<text text-anchor="middle" x="1322" y="-142" font-family="Helvetica,sans-Serif" font-size="10.00">WorldGen.playWorldCallBack</text>
</a>
</g>
</g>
<!-- Node18&#45;&gt;Node19 -->
<g id="edge19" class="edge">
<title>Node18&#45;&gt;Node19</title>
<path fill="none" stroke="midnightblue" d="M1456.13,-149.15C1438.5,-148.53 1419.35,-147.86 1401.2,-147.23"/>
<polygon fill="midnightblue" stroke="midnightblue" points="1456.2,-152.65 1466.31,-149.5 1456.44,-145.66 1456.2,-152.65"/>
</g>
<!-- Node24 -->
<g id="node24" class="node">
<title>Node24</title>
<g id="a_node24"><a xlink:href="../../db/de4/classWorldGen_a10b8d7ad8251db857a735cf016e5e44f.html#a10b8d7ad8251db857a735cf016e5e44f" target="_top" xlink:title=" ">
<polygon fill="white" stroke="black" points="1233,-69 1233,-88 1411,-88 1411,-69 1233,-69"/>
<text text-anchor="middle" x="1322" y="-76" font-family="Helvetica,sans-Serif" font-size="10.00">WorldGen.RenameWorldCallBack</text>
</a>
</g>
</g>
<!-- Node18&#45;&gt;Node24 -->
<g id="edge25" class="edge">
<title>Node18&#45;&gt;Node24</title>
<path fill="none" stroke="midnightblue" d="M1487.71,-138.47C1447.94,-123.99 1384.65,-100.94 1349.22,-88.05"/>
<polygon fill="midnightblue" stroke="midnightblue" points="1486.69,-141.82 1497.29,-141.96 1489.09,-135.25 1486.69,-141.82"/>
</g>
<!-- Node31 -->
<g id="node31" class="node">
<title>Node31</title>
<g id="a_node31"><a xlink:href="../../db/de4/classWorldGen_ad0d91fb0fe14702a222b34a176c0a0c6.html#ad0d91fb0fe14702a222b34a176c0a0c6" target="_top" xlink:title=" ">
<polygon fill="white" stroke="black" points="1247.5,-238.5 1247.5,-268.5 1396.5,-268.5 1396.5,-238.5 1247.5,-238.5"/>
<text text-anchor="start" x="1255.5" y="-256.5" font-family="Helvetica,sans-Serif" font-size="10.00">WorldGen.serverLoadWorld</text>
<text text-anchor="middle" x="1322" y="-245.5" font-family="Helvetica,sans-Serif" font-size="10.00">CallBack</text>
</a>
</g>
</g>
<!-- Node18&#45;&gt;Node31 -->
<g id="edge33" class="edge">
<title>Node18&#45;&gt;Node31</title>
<path fill="none" stroke="midnightblue" d="M1474.03,-164.37C1464.67,-167.89 1455.24,-172.22 1447,-177.5 1427.41,-190.05 1430.07,-202.17 1411,-215.5 1397.77,-224.75 1381.93,-232.44 1367.36,-238.43"/>
<polygon fill="midnightblue" stroke="midnightblue" points="1475.41,-167.6 1483.7,-161.01 1473.11,-160.99 1475.41,-167.6"/>
</g>
<!-- Node20 -->
<g id="node20" class="node">
<title>Node20</title>
<g id="a_node20"><a xlink:href="../../db/de4/classWorldGen_acc10c661fb1a3d924d9da14001883257.html#acc10c661fb1a3d924d9da14001883257" target="_top" xlink:title=" ">
<polygon fill="white" stroke="black" points="1054.5,-99 1054.5,-118 1170.5,-118 1170.5,-99 1054.5,-99"/>
<text text-anchor="middle" x="1112.5" y="-106" font-family="Helvetica,sans-Serif" font-size="10.00">WorldGen.playWorld</text>
</a>
</g>
</g>
<!-- Node19&#45;&gt;Node20 -->
<g id="edge20" class="edge">
<title>Node19&#45;&gt;Node20</title>
<path fill="none" stroke="midnightblue" d="M1256.08,-133.24C1228,-128.37 1195.48,-122.72 1168.6,-118.06"/>
<polygon fill="midnightblue" stroke="midnightblue" points="1255.76,-136.73 1266.21,-134.99 1256.96,-129.84 1255.76,-136.73"/>
</g>
<!-- Node21 -->
<g id="node21" class="node">
<title>Node21</title>
<g id="a_node21"><a xlink:href="../../db/d4a/classMain_aa0f0da16c3bdd6d5ebe12381b64a60f6.html#aa0f0da16c3bdd6d5ebe12381b64a60f6" target="_top" xlink:title=" ">
<polygon fill="white" stroke="black" points="867.5,-225 867.5,-244 963.5,-244 963.5,-225 867.5,-225"/>
<text text-anchor="middle" x="915.5" y="-232" font-family="Helvetica,sans-Serif" font-size="10.00">Main.DrawMenu</text>
</a>
</g>
</g>
<!-- Node20&#45;&gt;Node21 -->
<g id="edge21" class="edge">
<title>Node20&#45;&gt;Node21</title>
<path fill="none" stroke="midnightblue" d="M1044.94,-119.8C1038.97,-122.17 1033.22,-125.04 1028,-128.5 1005.49,-143.45 1010.98,-158.27 992,-177.5 973.19,-196.55 947.73,-214.45 931.71,-224.94"/>
<polygon fill="midnightblue" stroke="midnightblue" points="1046.18,-123.08 1054.46,-116.47 1043.86,-116.47 1046.18,-123.08"/>
</g>
<!-- Node22 -->
<g id="node22" class="node">
<title>Node22</title>
<g id="a_node22"><a xlink:href="../../d0/d2c/classUIWorldListItem_a91f09ab9acb7e5c95921c66216d6973d.html#a91f09ab9acb7e5c95921c66216d6973d" target="_top" xlink:title=" ">
<polygon fill="white" stroke="black" points="438,-87 438,-106 586,-106 586,-87 438,-87"/>
<text text-anchor="middle" x="512" y="-94" font-family="Helvetica,sans-Serif" font-size="10.00">UIWorldListItem.PlayGame</text>
</a>
</g>
</g>
<!-- Node20&#45;&gt;Node22 -->
<g id="edge23" class="edge">
<title>Node20&#45;&gt;Node22</title>
<path fill="none" stroke="midnightblue" d="M1044.13,-107.15C930.95,-104.88 703.58,-100.32 586.46,-97.97"/>
<polygon fill="midnightblue" stroke="midnightblue" points="1044.32,-110.65 1054.38,-107.35 1044.46,-103.65 1044.32,-110.65"/>
</g>
<!-- Node21&#45;&gt;Node11 -->
<g id="edge22" class="edge">
<title>Node21&#45;&gt;Node11</title>
<path fill="none" stroke="midnightblue" d="M856.85,-234.5C825.61,-234.5 787.74,-234.5 759.61,-234.5"/>
<polygon fill="midnightblue" stroke="midnightblue" points="857.17,-238 867.17,-234.5 857.17,-231 857.17,-238"/>
</g>
<!-- Node23 -->
<g id="node23" class="node">
<title>Node23</title>
<g id="a_node23"><a xlink:href="../../d0/d2c/classUIWorldListItem_ab63a51262c1cd2e4471e7d48cf9782ff.html#ab63a51262c1cd2e4471e7d48cf9782ff" target="_top" xlink:title=" ">
<polygon fill="white" stroke="black" points="215,-65 215,-84 391,-84 391,-65 215,-65"/>
<text text-anchor="middle" x="303" y="-72" font-family="Helvetica,sans-Serif" font-size="10.00">UIWorldListItem.UIWorldListItem</text>
</a>
</g>
</g>
<!-- Node22&#45;&gt;Node23 -->
<g id="edge24" class="edge">
<title>Node22&#45;&gt;Node23</title>
<path fill="none" stroke="midnightblue" d="M427.76,-87.65C415.78,-86.38 403.42,-85.07 391.35,-83.78"/>
<polygon fill="midnightblue" stroke="midnightblue" points="427.41,-91.14 437.73,-88.71 428.15,-84.18 427.41,-91.14"/>
</g>
<!-- Node25 -->
<g id="node25" class="node">
<title>Node25</title>
<g id="a_node25"><a xlink:href="../../db/de4/classWorldGen_a82953049cfde1916de1bfc634c60e5ab.html#a82953049cfde1916de1bfc634c60e5ab" target="_top" xlink:title=" ">
<polygon fill="white" stroke="black" points="1045,-55 1045,-74 1180,-74 1180,-55 1045,-55"/>
<text text-anchor="middle" x="1112.5" y="-62" font-family="Helvetica,sans-Serif" font-size="10.00">WorldGen.RenameWorld</text>
</a>
</g>
</g>
<!-- Node24&#45;&gt;Node25 -->
<g id="edge26" class="edge">
<title>Node24&#45;&gt;Node25</title>
<path fill="none" stroke="midnightblue" d="M1222.72,-71.87C1208.26,-70.89 1193.65,-69.91 1180.03,-68.99"/>
<polygon fill="midnightblue" stroke="midnightblue" points="1222.49,-75.36 1232.7,-72.54 1222.96,-68.38 1222.49,-75.36"/>
</g>
<!-- Node26 -->
<g id="node26" class="node">
<title>Node26</title>
<g id="a_node26"><a xlink:href="../../d5/d32/classWorldFileData_a987ad141f449cca0332d60232a2143c7.html#a987ad141f449cca0332d60232a2143c7" target="_top" xlink:title=" ">
<polygon fill="white" stroke="black" points="841,-55 841,-74 990,-74 990,-55 841,-55"/>
<text text-anchor="middle" x="915.5" y="-62" font-family="Helvetica,sans-Serif" font-size="10.00">WorldFileData.CopyToLocal</text>
</a>
</g>
</g>
<!-- Node25&#45;&gt;Node26 -->
<g id="edge27" class="edge">
<title>Node25&#45;&gt;Node26</title>
<path fill="none" stroke="midnightblue" d="M1034.87,-64.5C1020.14,-64.5 1004.75,-64.5 990.12,-64.5"/>
<polygon fill="midnightblue" stroke="midnightblue" points="1034.94,-68 1044.94,-64.5 1034.94,-61 1034.94,-68"/>
</g>
<!-- Node28 -->
<g id="node28" class="node">
<title>Node28</title>
<g id="a_node28"><a xlink:href="../../d5/d32/classWorldFileData_ac2e22ed04c1f3be75c71b3e473fb007c.html#ac2e22ed04c1f3be75c71b3e473fb007c" target="_top" xlink:title=" ">
<polygon fill="white" stroke="black" points="851.5,-12 851.5,-31 979.5,-31 979.5,-12 851.5,-12"/>
<text text-anchor="middle" x="915.5" y="-19" font-family="Helvetica,sans-Serif" font-size="10.00">WorldFileData.Rename</text>
</a>
</g>
</g>
<!-- Node25&#45;&gt;Node28 -->
<g id="edge29" class="edge">
<title>Node25&#45;&gt;Node28</title>
<path fill="none" stroke="midnightblue" d="M1058.44,-52.8C1027.43,-45.96 988.79,-37.44 959.66,-31.02"/>
<polygon fill="midnightblue" stroke="midnightblue" points="1057.7,-56.22 1068.22,-54.96 1059.21,-49.39 1057.7,-56.22"/>
</g>
<!-- Node27 -->
<g id="node27" class="node">
<title>Node27</title>
<g id="a_node27"><a xlink:href="../../d5/ddb/classWorkshopSocialModule_a1dfc6446f37794a29fa313f53c6a3326.html#a1dfc6446f37794a29fa313f53c6a3326" target="_top" xlink:title=" ">
<polygon fill="white" stroke="black" points="633,-49.5 633,-79.5 803,-79.5 803,-49.5 633,-49.5"/>
<text text-anchor="start" x="641" y="-67.5" font-family="Helvetica,sans-Serif" font-size="10.00">WorkshopSocialModule.Import</text>
<text text-anchor="middle" x="718" y="-56.5" font-family="Helvetica,sans-Serif" font-size="10.00">DownloadedWorldToLocalSaves</text>
</a>
</g>
</g>
<!-- Node26&#45;&gt;Node27 -->
<g id="edge28" class="edge">
<title>Node26&#45;&gt;Node27</title>
<path fill="none" stroke="midnightblue" d="M830.64,-64.5C821.51,-64.5 812.2,-64.5 803.07,-64.5"/>
<polygon fill="midnightblue" stroke="midnightblue" points="830.87,-68 840.87,-64.5 830.87,-61 830.87,-68"/>
</g>
<!-- Node29 -->
<g id="node29" class="node">
<title>Node29</title>
<g id="a_node29"><a xlink:href="../../d0/d2c/classUIWorldListItem_abe559faec6934309e645634630a8bc7b.html#abe559faec6934309e645634630a8bc7b" target="_top" xlink:title=" ">
<polygon fill="white" stroke="black" points="642,-0.5 642,-30.5 794,-30.5 794,-0.5 642,-0.5"/>
<text text-anchor="start" x="650" y="-18.5" font-family="Helvetica,sans-Serif" font-size="10.00">UIWorldListItem.OnFinished</text>
<text text-anchor="middle" x="718" y="-7.5" font-family="Helvetica,sans-Serif" font-size="10.00">SettingName</text>
</a>
</g>
</g>
<!-- Node28&#45;&gt;Node29 -->
<g id="edge30" class="edge">
<title>Node28&#45;&gt;Node29</title>
<path fill="none" stroke="midnightblue" d="M840.89,-19.24C825.65,-18.77 809.57,-18.28 794.26,-17.81"/>
<polygon fill="midnightblue" stroke="midnightblue" points="841.19,-22.75 851.3,-19.56 841.41,-15.76 841.19,-22.75"/>
</g>
<!-- Node30 -->
<g id="node30" class="node">
<title>Node30</title>
<g id="a_node30"><a xlink:href="../../d0/d2c/classUIWorldListItem_a05313911286372323de697b5d9c0b2c2.html#a05313911286372323de697b5d9c0b2c2" target="_top" xlink:title=" ">
<polygon fill="white" stroke="black" points="427,-13.5 427,-43.5 597,-43.5 597,-13.5 427,-13.5"/>
<text text-anchor="start" x="435" y="-31.5" font-family="Helvetica,sans-Serif" font-size="10.00">UIWorldListItem.RenameButton</text>
<text text-anchor="middle" x="512" y="-20.5" font-family="Helvetica,sans-Serif" font-size="10.00">Click</text>
</a>
</g>
</g>
<!-- Node29&#45;&gt;Node30 -->
<g id="edge31" class="edge">
<title>Node29&#45;&gt;Node30</title>
<path fill="none" stroke="midnightblue" d="M631.92,-20.92C620.45,-21.65 608.68,-22.4 597.23,-23.13"/>
<polygon fill="midnightblue" stroke="midnightblue" points="632.15,-24.41 641.91,-20.29 631.7,-17.43 632.15,-24.41"/>
</g>
<!-- Node30&#45;&gt;Node23 -->
<g id="edge32" class="edge">
<title>Node30&#45;&gt;Node23</title>
<path fill="none" stroke="midnightblue" d="M433.41,-45.74C404.12,-52.25 371.86,-59.42 346.88,-64.97"/>
<polygon fill="midnightblue" stroke="midnightblue" points="434.22,-49.15 443.22,-43.56 432.7,-42.31 434.22,-49.15"/>
</g>
<!-- Node32 -->
<g id="node32" class="node">
<title>Node32</title>
<g id="a_node32"><a xlink:href="../../db/de4/classWorldGen_af534fc0b7b5b1cdbbef31f0e6240f77c.html#af534fc0b7b5b1cdbbef31f0e6240f77c" target="_top" xlink:title=" ">
<polygon fill="white" stroke="black" points="1038,-263 1038,-282 1187,-282 1187,-263 1038,-263"/>
<text text-anchor="middle" x="1112.5" y="-270" font-family="Helvetica,sans-Serif" font-size="10.00">WorldGen.serverLoadWorld</text>
</a>
</g>
</g>
<!-- Node31&#45;&gt;Node32 -->
<g id="edge34" class="edge">
<title>Node31&#45;&gt;Node32</title>
<path fill="none" stroke="midnightblue" d="M1237.05,-261.19C1220.47,-262.7 1203.2,-264.29 1187,-265.77"/>
<polygon fill="midnightblue" stroke="midnightblue" points="1237.62,-264.65 1247.26,-260.25 1236.98,-257.68 1237.62,-264.65"/>
</g>
<!-- Node32&#45;&gt;Node14 -->
<g id="edge35" class="edge">
<title>Node32&#45;&gt;Node14</title>
<path fill="none" stroke="midnightblue" d="M1027.56,-272.5C1003.53,-272.5 978.37,-272.5 958.09,-272.5"/>
<polygon fill="midnightblue" stroke="midnightblue" points="1027.78,-276 1037.78,-272.5 1027.78,-269 1027.78,-276"/>
</g>
<!-- Node34 -->
<g id="node34" class="node">
<title>Node34</title>
<g id="a_node34"><a xlink:href="../../db/de4/classWorldGen_a8ce10eb60f4adb0ce977be7e1bf12632.html#a8ce10eb60f4adb0ce977be7e1bf12632" target="_top" xlink:title=" ">
<polygon fill="white" stroke="black" points="1247.5,-187 1247.5,-206 1396.5,-206 1396.5,-187 1247.5,-187"/>
<text text-anchor="middle" x="1322" y="-194" font-family="Helvetica,sans-Serif" font-size="10.00">WorldGen.CreateNewWorld</text>
</a>
</g>
</g>
<!-- Node33&#45;&gt;Node34 -->
<g id="edge37" class="edge">
<title>Node33&#45;&gt;Node34</title>
<path fill="none" stroke="midnightblue" d="M1436.71,-196.5C1423.35,-196.5 1409.67,-196.5 1396.64,-196.5"/>
<polygon fill="midnightblue" stroke="midnightblue" points="1436.84,-200 1446.84,-196.5 1436.84,-193 1436.84,-200"/>
</g>
<!-- Node34&#45;&gt;Node14 -->
<g id="edge38" class="edge">
<title>Node34&#45;&gt;Node14</title>
<path fill="none" stroke="midnightblue" d="M1260.12,-207.94C1176.94,-223.57 1029.97,-251.18 958.23,-264.66"/>
<polygon fill="midnightblue" stroke="midnightblue" points="1261,-211.33 1270.18,-206.05 1259.71,-204.46 1261,-211.33"/>
</g>
<!-- Node35 -->
<g id="node35" class="node">
<title>Node35</title>
<g id="a_node35"><a xlink:href="../../d0/d23/classUIWorldCreation_a8acebf1dde5f7757ea4bd91d8189284e.html#a8acebf1dde5f7757ea4bd91d8189284e" target="_top" xlink:title=" ">
<polygon fill="white" stroke="black" points="1028,-137.5 1028,-167.5 1197,-167.5 1197,-137.5 1028,-137.5"/>
<text text-anchor="start" x="1036" y="-155.5" font-family="Helvetica,sans-Serif" font-size="10.00">UIWorldCreation.FinishCreating</text>
<text text-anchor="middle" x="1112.5" y="-144.5" font-family="Helvetica,sans-Serif" font-size="10.00">World</text>
</a>
</g>
</g>
<!-- Node34&#45;&gt;Node35 -->
<g id="edge39" class="edge">
<title>Node34&#45;&gt;Node35</title>
<path fill="none" stroke="midnightblue" d="M1265.96,-184.83C1241,-179.54 1211.17,-173.21 1184.55,-167.57"/>
<polygon fill="midnightblue" stroke="midnightblue" points="1265.47,-188.3 1275.98,-186.95 1266.92,-181.45 1265.47,-188.3"/>
</g>
<!-- Node41 -->
<g id="node41" class="node">
<title>Node41</title>
<g id="a_node41"><a xlink:href="../../db/d4a/classMain_aa5a96440d71e44315f7505c71c087973.html#aa5a96440d71e44315f7505c71c087973" target="_top" xlink:title=" ">
<polygon fill="white" stroke="black" points="1051,-187 1051,-206 1174,-206 1174,-187 1051,-187"/>
<text text-anchor="middle" x="1112.5" y="-194" font-family="Helvetica,sans-Serif" font-size="10.00">Main.OnSeedSelected</text>
</a>
</g>
</g>
<!-- Node34&#45;&gt;Node41 -->
<g id="edge46" class="edge">
<title>Node34&#45;&gt;Node41</title>
<path fill="none" stroke="midnightblue" d="M1237.01,-196.5C1215.92,-196.5 1193.7,-196.5 1174.01,-196.5"/>
<polygon fill="midnightblue" stroke="midnightblue" points="1237.26,-200 1247.26,-196.5 1237.26,-193 1237.26,-200"/>
</g>
<!-- Node36 -->
<g id="node36" class="node">
<title>Node36</title>
<g id="a_node36"><a xlink:href="../../d0/d23/classUIWorldCreation_a4a56f0e20c8288d0c103297a2907db25.html#a4a56f0e20c8288d0c103297a2907db25" target="_top" xlink:title=" ">
<polygon fill="white" stroke="black" points="656.5,-156.5 656.5,-186.5 779.5,-186.5 779.5,-156.5 656.5,-156.5"/>
<text text-anchor="start" x="664.5" y="-174.5" font-family="Helvetica,sans-Serif" font-size="10.00">UIWorldCreation.Click</text>
<text text-anchor="middle" x="718" y="-163.5" font-family="Helvetica,sans-Serif" font-size="10.00">_NamingAndCreating</text>
</a>
</g>
</g>
<!-- Node35&#45;&gt;Node36 -->
<g id="edge40" class="edge">
<title>Node35&#45;&gt;Node36</title>
<path fill="none" stroke="midnightblue" d="M1041.75,-169.61C1025.52,-172.89 1008.24,-175.82 992,-177.5 919.26,-185.03 835.07,-181.31 779.63,-177.16"/>
<polygon fill="midnightblue" stroke="midnightblue" points="1042.63,-173 1051.7,-167.53 1041.2,-166.15 1042.63,-173"/>
</g>
<!-- Node40 -->
<g id="node40" class="node">
<title>Node40</title>
<g id="a_node40"><a xlink:href="../../d0/d23/classUIWorldCreation_af638bda2e996f226fd060d5e1b1f609e.html#af638bda2e996f226fd060d5e1b1f609e" target="_top" xlink:title=" ">
<polygon fill="white" stroke="black" points="839,-137.5 839,-167.5 992,-167.5 992,-137.5 839,-137.5"/>
<text text-anchor="start" x="847" y="-155.5" font-family="Helvetica,sans-Serif" font-size="10.00">UIWorldCreation.OnFinished</text>
<text text-anchor="middle" x="915.5" y="-144.5" font-family="Helvetica,sans-Serif" font-size="10.00">NamingAndCreating</text>
</a>
</g>
</g>
<!-- Node35&#45;&gt;Node40 -->
<g id="edge44" class="edge">
<title>Node35&#45;&gt;Node40</title>
<path fill="none" stroke="midnightblue" d="M1017.87,-152.5C1009.26,-152.5 1000.6,-152.5 992.17,-152.5"/>
<polygon fill="midnightblue" stroke="midnightblue" points="1017.95,-156 1027.95,-152.5 1017.95,-149 1017.95,-156"/>
</g>
<!-- Node37 -->
<g id="node37" class="node">
<title>Node37</title>
<g id="a_node37"><a xlink:href="../../d0/d23/classUIWorldCreation_a14cc4f6712427e39118087c5dbf5fbdf.html#a14cc4f6712427e39118087c5dbf5fbdf" target="_top" xlink:title=" ">
<polygon fill="white" stroke="black" points="437.5,-156.5 437.5,-186.5 586.5,-186.5 586.5,-156.5 437.5,-156.5"/>
<text text-anchor="start" x="445.5" y="-174.5" font-family="Helvetica,sans-Serif" font-size="10.00">UIWorldCreation.MakeBack</text>
<text text-anchor="middle" x="512" y="-163.5" font-family="Helvetica,sans-Serif" font-size="10.00">AndCreatebuttons</text>
</a>
</g>
</g>
<!-- Node36&#45;&gt;Node37 -->
<g id="edge41" class="edge">
<title>Node36&#45;&gt;Node37</title>
<path fill="none" stroke="midnightblue" d="M646.17,-171.5C626.96,-171.5 606.13,-171.5 586.77,-171.5"/>
<polygon fill="midnightblue" stroke="midnightblue" points="646.35,-175 656.35,-171.5 646.35,-168 646.35,-175"/>
</g>
<!-- Node38 -->
<g id="node38" class="node">
<title>Node38</title>
<g id="a_node38"><a xlink:href="../../d0/d23/classUIWorldCreation_a0f730e8c0a20b7770ef7390a16f71f74.html#a0f730e8c0a20b7770ef7390a16f71f74" target="_top" xlink:title=" ">
<polygon fill="white" stroke="black" points="229.5,-162 229.5,-181 376.5,-181 376.5,-162 229.5,-162"/>
<text text-anchor="middle" x="303" y="-169" font-family="Helvetica,sans-Serif" font-size="10.00">UIWorldCreation.BuildPage</text>
</a>
</g>
</g>
<!-- Node37&#45;&gt;Node38 -->
<g id="edge42" class="edge">
<title>Node37&#45;&gt;Node38</title>
<path fill="none" stroke="midnightblue" d="M427.13,-171.5C410.39,-171.5 392.95,-171.5 376.63,-171.5"/>
<polygon fill="midnightblue" stroke="midnightblue" points="427.44,-175 437.44,-171.5 427.44,-168 427.44,-175"/>
</g>
<!-- Node39 -->
<g id="node39" class="node">
<title>Node39</title>
<g id="a_node39"><a xlink:href="../../d0/d23/classUIWorldCreation_ac73f49f1a3d0a31321764cdf835fa151.html#ac73f49f1a3d0a31321764cdf835fa151" target="_top" xlink:title=" ">
<polygon fill="white" stroke="black" points="0,-162 0,-181 179,-181 179,-162 0,-162"/>
<text text-anchor="middle" x="89.5" y="-169" font-family="Helvetica,sans-Serif" font-size="10.00">UIWorldCreation.UIWorldCreation</text>
</a>
</g>
</g>
<!-- Node38&#45;&gt;Node39 -->
<g id="edge43" class="edge">
<title>Node38&#45;&gt;Node39</title>
<path fill="none" stroke="midnightblue" d="M218.87,-171.5C205.82,-171.5 192.29,-171.5 179.13,-171.5"/>
<polygon fill="midnightblue" stroke="midnightblue" points="219.21,-175 229.21,-171.5 219.21,-168 219.21,-175"/>
</g>
<!-- Node40&#45;&gt;Node36 -->
<g id="edge45" class="edge">
<title>Node40&#45;&gt;Node36</title>
<path fill="none" stroke="midnightblue" d="M828.68,-160.84C812.12,-162.45 795.1,-164.1 779.55,-165.62"/>
<polygon fill="midnightblue" stroke="midnightblue" points="829.3,-164.3 838.91,-159.85 828.62,-157.33 829.3,-164.3"/>
</g>
<!-- Node41&#45;&gt;Node21 -->
<g id="edge47" class="edge">
<title>Node41&#45;&gt;Node21</title>
<path fill="none" stroke="midnightblue" d="M1052.72,-207.95C1024.26,-213.5 990.56,-220.07 963.79,-225.28"/>
<polygon fill="midnightblue" stroke="midnightblue" points="1053.4,-211.39 1062.54,-206.04 1052.06,-204.52 1053.4,-211.39"/>
</g>
<!-- Node44 -->
<g id="node44" class="node">
<title>Node44</title>
<g id="a_node44"><a xlink:href="../../d6/df9/classGraniteBiome_a32a05fd7dba2b61c19062a89978ba21e.html#a32a05fd7dba2b61c19062a89978ba21e" target="_top" xlink:title=" ">
<polygon fill="white" stroke="black" points="1817,-130 1817,-149 1930,-149 1930,-130 1817,-130"/>
<text text-anchor="middle" x="1873.5" y="-137" font-family="Helvetica,sans-Serif" font-size="10.00">GraniteBiome.Place</text>
</a>
</g>
</g>
<!-- Node43&#45;&gt;Node44 -->
<g id="edge50" class="edge">
<title>Node43&#45;&gt;Node44</title>
<path fill="none" stroke="midnightblue" d="M1958.74,-139.5C1948.93,-139.5 1939.2,-139.5 1930.03,-139.5"/>
<polygon fill="midnightblue" stroke="midnightblue" points="1958.98,-143 1968.98,-139.5 1958.98,-136 1958.98,-143"/>
</g>
<!-- Node46 -->
<g id="node46" class="node">
<title>Node46</title>
<g id="a_node46"><a xlink:href="../../db/d27/classTrackGenerator_a3a0f5143b36487d23b4117cc7cc137c8.html#a3a0f5143b36487d23b4117cc7cc137c8" target="_top" xlink:title=" ">
<polygon fill="white" stroke="black" points="1814,-92 1814,-111 1933,-111 1933,-92 1814,-92"/>
<text text-anchor="middle" x="1873.5" y="-99" font-family="Helvetica,sans-Serif" font-size="10.00">TrackGenerator.Place</text>
</a>
</g>
</g>
<!-- Node45&#45;&gt;Node46 -->
<g id="edge52" class="edge">
<title>Node45&#45;&gt;Node46</title>
<path fill="none" stroke="midnightblue" d="M1974.75,-101.5C1960.75,-101.5 1946.4,-101.5 1933.1,-101.5"/>
<polygon fill="midnightblue" stroke="midnightblue" points="1974.86,-105 1984.86,-101.5 1974.86,-98 1974.86,-105"/>
</g>
<!-- Node48 -->
<g id="node48" class="node">
<title>Node48</title>
<g id="a_node48"><a xlink:href="../../dd/dbd/classMarbleBiome_a784a95255ba5bd3c75e7a0b5d4c27350.html#a784a95255ba5bd3c75e7a0b5d4c27350" target="_top" xlink:title=" ">
<polygon fill="white" stroke="black" points="1818,-54 1818,-73 1929,-73 1929,-54 1818,-54"/>
<text text-anchor="middle" x="1873.5" y="-61" font-family="Helvetica,sans-Serif" font-size="10.00">MarbleBiome.Place</text>
</a>
</g>
</g>
<!-- Node47&#45;&gt;Node48 -->
<g id="edge54" class="edge">
<title>Node47&#45;&gt;Node48</title>
<path fill="none" stroke="midnightblue" d="M1978.73,-63.5C1962.14,-63.5 1944.88,-63.5 1929.29,-63.5"/>
<polygon fill="midnightblue" stroke="midnightblue" points="1978.94,-67 1988.94,-63.5 1978.94,-60 1978.94,-67"/>
</g>
</g>
</svg>
        <g id="navigator" transform="translate(0 0)" fill="#404254">
                <rect fill="#f2f5e9" fill-opacity="0.5" stroke="#606060" stroke-width=".5" x="0" y="0" width="60" height="60"/>
                <use id="zoomplus" xlink:href="#zoomPlus" x="17" y="9" onmousedown="handleZoom(evt,'in')"/>
                <use id="zoomminus" xlink:href="#zoomMin" x="42" y="9" onmousedown="handleZoom(evt,'out')"/>
                <use id="reset" xlink:href="#resetDef" x="30" y="36" onmousedown="handleReset()"/>
                <g id="arrowUp" xlink:href="#dirArrow" transform="translate(30 24)" onmousedown="handlePan(0,-1)">
                  <use xlink:href="#rim" fill="#404040">
                        <set attributeName="fill" to="#808080" begin="arrowUp.mouseover" end="arrowUp.mouseout"/>
                  </use>
                  <path fill="none" stroke="white" stroke-width="1.5" d="M0,-3.0v7 M-2.5,-0.5L0,-3.0L2.5,-0.5"/>
                </g>
                <g id="arrowRight" xlink:href="#dirArrow" transform="rotate(90) translate(36 -43)" onmousedown="handlePan(1,0)">
                  <use xlink:href="#rim" fill="#404040">
                        <set attributeName="fill" to="#808080" begin="arrowRight.mouseover" end="arrowRight.mouseout"/>
                  </use>
                  <path fill="none" stroke="white" stroke-width="1.5" d="M0,-3.0v7 M-2.5,-0.5L0,-3.0L2.5,-0.5"/>
                </g>
                <g id="arrowDown" xlink:href="#dirArrow" transform="rotate(180) translate(-30 -48)" onmousedown="handlePan(0,1)">
                  <use xlink:href="#rim" fill="#404040">
                        <set attributeName="fill" to="#808080" begin="arrowDown.mouseover" end="arrowDown.mouseout"/>
                  </use>
                  <path fill="none" stroke="white" stroke-width="1.5" d="M0,-3.0v7 M-2.5,-0.5L0,-3.0L2.5,-0.5"/>
                </g>
                <g id="arrowLeft" xlink:href="#dirArrow" transform="rotate(270) translate(-36 17)" onmousedown="handlePan(-1,0)">
                  <use xlink:href="#rim" fill="#404040">
                        <set attributeName="fill" to="#808080" begin="arrowLeft.mouseover" end="arrowLeft.mouseout"/>
                  </use>
                  <path fill="none" stroke="white" stroke-width="1.5" d="M0,-3.0v7 M-2.5,-0.5L0,-3.0L2.5,-0.5"/>
                </g>
        </g>
        <svg viewBox="0 0 15 15" width="100%" height="30px" preserveAspectRatio="xMaxYMin meet">
         <g id="arrow_out" transform="scale(0.3 0.3)">
          <a xlink:href="classWorldUtils_af7693c26f924df53172b2501c236b4e8_af7693c26f924df53172b2501c236b4e8_icgraph_org.svg" target="_base">
           <rect id="button" ry="5" rx="5" y="6" x="6" height="38" width="38"
                fill="#f2f5e9" fill-opacity="0.5" stroke="#606060" stroke-width="1.0"/>
           <path id="arrow"
             d="M 11.500037,31.436501 C 11.940474,20.09759 22.043105,11.32322 32.158766,21.979434 L 37.068811,17.246167 C 37.068811,17.246167 37.088388,32 37.088388,32 L 22.160133,31.978069 C 22.160133,31.978069 26.997745,27.140456 26.997745,27.140456 C 18.528582,18.264221 13.291696,25.230495 11.500037,31.436501 z"
             style="fill:#404040;"/>
          </a>
         </g>
        </svg>
</svg>
