<?xml version="1.0" encoding="UTF-8" standalone="no"?>
<!DOCTYPE svg PUBLIC "-//W3C//DTD SVG 1.1//EN"
 "http://www.w3.org/Graphics/SVG/1.1/DTD/svg11.dtd">
<!-- Generated by graphviz version 2.43.0 (0)
 -->
<!-- Title: Terraria.GameContent.UI.States.UICharacterCreation.RgbToScaledHsl Pages: 1 -->
<!--zoomable 226 -->

<svg id="main" version="1.1" xmlns="http://www.w3.org/2000/svg" xmlns:xlink="http://www.w3.org/1999/xlink" xml:space="preserve" onload="init(evt)">
<style type="text/css"><![CDATA[
.node, .edge {opacity: 0.7;}
.node.selected, .edge.selected {opacity: 1;}
.edge:hover path { stroke: red; }
.edge:hover polygon { stroke: red; fill: red; }
]]></style>

<defs>
  <circle id="rim" cx="0" cy="0" r="7"/>
  <circle id="rim2" cx="0" cy="0" r="3.5"/>
  <g id="zoomPlus">
    <use xlink:href="#rim" fill="#404040"><set attributeName="fill" to="#808080" begin="zoomplus.mouseover" end="zoomplus.mouseout"/></use>
    <path d="M-4,0h8M0,-4v8" fill="none" stroke="white" stroke-width="1.5" pointer-events="none"/>
  </g>
  <g id="zoomMin">
    <use xlink:href="#rim" fill="#404040"><set attributeName="fill" to="#808080" begin="zoomminus.mouseover" end="zoomminus.mouseout"/></use>
    <path d="M-4,0h8" fill="none" stroke="white" stroke-width="1.5" pointer-events="none"/>
  </g>
  <g id="arrowUp" transform="translate(30 24)">
    <use xlink:href="#rim"/>
    <path pointer-events="none" fill="none" stroke="white" stroke-width="1.5" d="M0,-3.0v7 M-2.5,-0.5L0,-3.0L2.5,-0.5"/>
  </g>
  <g id="arrowRight" transform="rotate(90) translate(36 -43)">
    <use xlink:href="#rim"/>
    <path pointer-events="none" fill="none" stroke="white" stroke-width="1.5" d="M0,-3.0v7 M-2.5,-0.5L0,-3.0L2.5,-0.5"/>
  </g>
  <g id="arrowDown" transform="rotate(180) translate(-30 -48)">
    <use xlink:href="#rim"/>
    <path pointer-events="none" fill="none" stroke="white" stroke-width="1.5" d="M0,-3.0v7 M-2.5,-0.5L0,-3.0L2.5,-0.5"/>
  </g>
  <g id="arrowLeft" transform="rotate(270) translate(-36 17)">
    <use xlink:href="#rim"/>
    <path pointer-events="none" fill="none" stroke="white" stroke-width="1.5" d="M0,-3.0v7 M-2.5,-0.5L0,-3.0L2.5,-0.5"/>
  </g>
  <g id="resetDef">
    <use xlink:href="#rim2" fill="#404040"><set attributeName="fill" to="#808080" begin="reset.mouseover" end="reset.mouseout"/></use>
  </g>
</defs>
<script type="application/ecmascript">
var viewWidth = 1527;
var viewHeight = 226;
var sectionId = 'dynsection-1';
</script>
<script type="application/ecmascript" xlink:href="../../svg.min.js"/>
<svg id="graph" class="graph">
<g id="viewport">
<title>Terraria.GameContent.UI.States.UICharacterCreation.RgbToScaledHsl</title>
<!-- Node1 -->
<g id="Node000001" class="node">
<title>Node1</title>
<g id="a_Node000001"><a xlink:title=" ">
<polygon fill="#999999" stroke="#666666" points="1519,-153 1348,-153 1348,-112 1519,-112 1519,-153"/>
<text text-anchor="start" x="1356" y="-141" font-family="Helvetica,sans-Serif" font-size="10.00">Terraria.GameContent.UI.</text>
<text text-anchor="start" x="1356" y="-130" font-family="Helvetica,sans-Serif" font-size="10.00">States.UICharacterCreation.Rgb</text>
<text text-anchor="middle" x="1433.5" y="-119" font-family="Helvetica,sans-Serif" font-size="10.00">ToScaledHsl</text>
</a>
</g>
</g>
<!-- Node2 -->
<g id="Node000002" class="node">
<title>Node2</title>
<g id="a_Node000002"><a xlink:href="../../d8/db0/classTerraria_1_1GameContent_1_1UI_1_1States_1_1UICharacterCreation_a1d82ec5a39203d2f2630615f2f959cec.html#a1d82ec5a39203d2f2630615f2f959cec" target="_top" xlink:title=" ">
<polygon fill="white" stroke="#666666" points="1091,-188 921,-188 921,-147 1091,-147 1091,-188"/>
<text text-anchor="start" x="929" y="-176" font-family="Helvetica,sans-Serif" font-size="10.00">Terraria.GameContent.UI.</text>
<text text-anchor="start" x="929" y="-165" font-family="Helvetica,sans-Serif" font-size="10.00">States.UICharacterCreation.Get</text>
<text text-anchor="middle" x="1006" y="-154" font-family="Helvetica,sans-Serif" font-size="10.00">HexColor</text>
</a>
</g>
</g>
<!-- Node1&#45;&gt;Node2 -->
<g id="edge1_Node000001_Node000002" class="edge">
<title>Node1&#45;&gt;Node2</title>
<g id="a_edge1_Node000001_Node000002"><a xlink:title=" ">
<path fill="none" stroke="#63b8ff" d="M1337.69,-140.3C1263.77,-146.38 1162.08,-154.74 1091.05,-160.59"/>
<polygon fill="#63b8ff" stroke="#63b8ff" points="1338.25,-143.76 1347.93,-139.46 1337.67,-136.79 1338.25,-143.76"/>
</a>
</g>
</g>
<!-- Node9 -->
<g id="Node000009" class="node">
<title>Node9</title>
<g id="a_Node000009"><a xlink:href="../../d8/db0/classTerraria_1_1GameContent_1_1UI_1_1States_1_1UICharacterCreation_ae3b42ad69abaaea0c4a6f72e275eae05.html#ae3b42ad69abaaea0c4a6f72e275eae05" target="_top" xlink:title=" ">
<polygon fill="white" stroke="#666666" points="1312,-129 1130,-129 1130,-88 1312,-88 1312,-129"/>
<text text-anchor="start" x="1138" y="-117" font-family="Helvetica,sans-Serif" font-size="10.00">Terraria.GameContent.UI.</text>
<text text-anchor="start" x="1138" y="-106" font-family="Helvetica,sans-Serif" font-size="10.00">States.UICharacterCreation.Select</text>
<text text-anchor="middle" x="1221" y="-95" font-family="Helvetica,sans-Serif" font-size="10.00">ColorPicker</text>
</a>
</g>
</g>
<!-- Node1&#45;&gt;Node9 -->
<g id="edge9_Node000001_Node000009" class="edge">
<title>Node1&#45;&gt;Node9</title>
<g id="a_edge9_Node000001_Node000009"><a xlink:title=" ">
<path fill="none" stroke="#63b8ff" d="M1337.79,-121.7C1329.23,-120.73 1320.57,-119.74 1312.04,-118.77"/>
<polygon fill="#63b8ff" stroke="#63b8ff" points="1337.46,-125.19 1347.79,-122.84 1338.25,-118.23 1337.46,-125.19"/>
</a>
</g>
</g>
<!-- Node3 -->
<g id="Node000003" class="node">
<title>Node3</title>
<g id="a_Node000003"><a xlink:href="../../d8/db0/classTerraria_1_1GameContent_1_1UI_1_1States_1_1UICharacterCreation_a0cd518a3a20e8483d629aba07b2955c3.html#a0cd518a3a20e8483d629aba07b2955c3" target="_top" xlink:title=" ">
<polygon fill="white" stroke="#666666" points="877.5,-159 701.5,-159 701.5,-118 877.5,-118 877.5,-159"/>
<text text-anchor="start" x="709.5" y="-147" font-family="Helvetica,sans-Serif" font-size="10.00">Terraria.GameContent.UI.</text>
<text text-anchor="start" x="709.5" y="-136" font-family="Helvetica,sans-Serif" font-size="10.00">States.UICharacterCreation.Click</text>
<text text-anchor="middle" x="789.5" y="-125" font-family="Helvetica,sans-Serif" font-size="10.00">_PasteHex</text>
</a>
</g>
</g>
<!-- Node2&#45;&gt;Node3 -->
<g id="edge2_Node000002_Node000003" class="edge">
<title>Node2&#45;&gt;Node3</title>
<g id="a_edge2_Node000002_Node000003"><a xlink:title=" ">
<path fill="none" stroke="#63b8ff" d="M910.77,-154.76C899.74,-153.27 888.52,-151.75 877.59,-150.27"/>
<polygon fill="#63b8ff" stroke="#63b8ff" points="910.46,-158.25 920.84,-156.12 911.4,-151.31 910.46,-158.25"/>
</a>
</g>
</g>
<!-- Node7 -->
<g id="Node000007" class="node">
<title>Node7</title>
<g id="a_Node000007"><a xlink:href="../../d8/db0/classTerraria_1_1GameContent_1_1UI_1_1States_1_1UICharacterCreation_a467488107feede559686868397f78527.html#a467488107feede559686868397f78527" target="_top" xlink:title=" ">
<polygon fill="white" stroke="#666666" points="877.5,-218 701.5,-218 701.5,-177 877.5,-177 877.5,-218"/>
<text text-anchor="start" x="709.5" y="-206" font-family="Helvetica,sans-Serif" font-size="10.00">Terraria.GameContent.UI.</text>
<text text-anchor="start" x="709.5" y="-195" font-family="Helvetica,sans-Serif" font-size="10.00">States.UICharacterCreation.Click</text>
<text text-anchor="middle" x="789.5" y="-184" font-family="Helvetica,sans-Serif" font-size="10.00">_PastePlayerTemplate</text>
</a>
</g>
</g>
<!-- Node2&#45;&gt;Node7 -->
<g id="edge6_Node000002_Node000007" class="edge">
<title>Node2&#45;&gt;Node7</title>
<g id="a_edge6_Node000002_Node000007"><a xlink:title=" ">
<path fill="none" stroke="#63b8ff" d="M910.77,-180.68C899.74,-182.22 888.52,-183.79 877.59,-185.32"/>
<polygon fill="#63b8ff" stroke="#63b8ff" points="911.42,-184.12 920.84,-179.27 910.45,-177.19 911.42,-184.12"/>
</a>
</g>
</g>
<!-- Node4 -->
<g id="Node000004" class="node">
<title>Node4</title>
<g id="a_Node000004"><a xlink:href="../../d8/db0/classTerraria_1_1GameContent_1_1UI_1_1States_1_1UICharacterCreation_ad222e5397bd8676273ad2a17765b5346.html#ad222e5397bd8676273ad2a17765b5346" target="_top" xlink:title=" ">
<polygon fill="white" stroke="#666666" points="661,-144 482,-144 482,-103 661,-103 661,-144"/>
<text text-anchor="start" x="490" y="-132" font-family="Helvetica,sans-Serif" font-size="10.00">Terraria.GameContent.UI.</text>
<text text-anchor="start" x="490" y="-121" font-family="Helvetica,sans-Serif" font-size="10.00">States.UICharacterCreation.Make</text>
<text text-anchor="middle" x="571.5" y="-110" font-family="Helvetica,sans-Serif" font-size="10.00">HSLMenu</text>
</a>
</g>
</g>
<!-- Node3&#45;&gt;Node4 -->
<g id="edge3_Node000003_Node000004" class="edge">
<title>Node3&#45;&gt;Node4</title>
<g id="a_edge3_Node000003_Node000004"><a xlink:title=" ">
<path fill="none" stroke="#63b8ff" d="M691.28,-131.75C681.23,-131.05 671.06,-130.34 661.11,-129.65"/>
<polygon fill="#63b8ff" stroke="#63b8ff" points="691.05,-135.24 701.27,-132.44 691.53,-128.26 691.05,-135.24"/>
</a>
</g>
</g>
<!-- Node5 -->
<g id="Node000005" class="node">
<title>Node5</title>
<g id="a_Node000005"><a xlink:href="../../d8/db0/classTerraria_1_1GameContent_1_1UI_1_1States_1_1UICharacterCreation_ada5cce4c07e227d6d7ebf8fd4cc983ff.html#ada5cce4c07e227d6d7ebf8fd4cc983ff" target="_top" xlink:title=" ">
<polygon fill="white" stroke="#666666" points="446,-138.5 246,-138.5 246,-108.5 446,-108.5 446,-138.5"/>
<text text-anchor="start" x="254" y="-126.5" font-family="Helvetica,sans-Serif" font-size="10.00">Terraria.GameContent.UI.</text>
<text text-anchor="middle" x="346" y="-115.5" font-family="Helvetica,sans-Serif" font-size="10.00">States.UICharacterCreation.BuildPage</text>
</a>
</g>
</g>
<!-- Node4&#45;&gt;Node5 -->
<g id="edge4_Node000004_Node000005" class="edge">
<title>Node4&#45;&gt;Node5</title>
<g id="a_edge4_Node000004_Node000005"><a xlink:title=" ">
<path fill="none" stroke="#63b8ff" d="M471.62,-123.5C463.19,-123.5 454.66,-123.5 446.23,-123.5"/>
<polygon fill="#63b8ff" stroke="#63b8ff" points="471.85,-127 481.85,-123.5 471.85,-120 471.85,-127"/>
</a>
</g>
</g>
<!-- Node6 -->
<g id="Node000006" class="node">
<title>Node6</title>
<g id="a_Node000006"><a xlink:href="../../d8/db0/classTerraria_1_1GameContent_1_1UI_1_1States_1_1UICharacterCreation_a37cd131542ad073d137b053ee14e285f.html#a37cd131542ad073d137b053ee14e285f" target="_top" xlink:title=" ">
<polygon fill="white" stroke="#666666" points="210,-144 0,-144 0,-103 210,-103 210,-144"/>
<text text-anchor="start" x="8" y="-132" font-family="Helvetica,sans-Serif" font-size="10.00">Terraria.GameContent.UI.</text>
<text text-anchor="start" x="8" y="-121" font-family="Helvetica,sans-Serif" font-size="10.00">States.UICharacterCreation.UICharacter</text>
<text text-anchor="middle" x="105" y="-110" font-family="Helvetica,sans-Serif" font-size="10.00">Creation</text>
</a>
</g>
</g>
<!-- Node5&#45;&gt;Node6 -->
<g id="edge5_Node000005_Node000006" class="edge">
<title>Node5&#45;&gt;Node6</title>
<g id="a_edge5_Node000005_Node000006"><a xlink:title=" ">
<path fill="none" stroke="#63b8ff" d="M235.54,-123.5C227.16,-123.5 218.72,-123.5 210.37,-123.5"/>
<polygon fill="#63b8ff" stroke="#63b8ff" points="235.72,-127 245.72,-123.5 235.72,-120 235.72,-127"/>
</a>
</g>
</g>
<!-- Node8 -->
<g id="Node000008" class="node">
<title>Node8</title>
<g id="a_Node000008"><a xlink:href="../../d8/db0/classTerraria_1_1GameContent_1_1UI_1_1States_1_1UICharacterCreation_aa55aaf9c411c41dae5c8c23dbfdcdcd4.html#aa55aaf9c411c41dae5c8c23dbfdcdcd4" target="_top" xlink:title=" ">
<polygon fill="white" stroke="#666666" points="661,-210 482,-210 482,-169 661,-169 661,-210"/>
<text text-anchor="start" x="490" y="-198" font-family="Helvetica,sans-Serif" font-size="10.00">Terraria.GameContent.UI.</text>
<text text-anchor="start" x="490" y="-187" font-family="Helvetica,sans-Serif" font-size="10.00">States.UICharacterCreation.Make</text>
<text text-anchor="middle" x="571.5" y="-176" font-family="Helvetica,sans-Serif" font-size="10.00">ClothStylesMenu</text>
</a>
</g>
</g>
<!-- Node7&#45;&gt;Node8 -->
<g id="edge7_Node000007_Node000008" class="edge">
<title>Node7&#45;&gt;Node8</title>
<g id="a_edge7_Node000007_Node000008"><a xlink:title=" ">
<path fill="none" stroke="#63b8ff" d="M690.96,-193.89C681.02,-193.52 670.96,-193.15 661.11,-192.78"/>
<polygon fill="#63b8ff" stroke="#63b8ff" points="691.14,-197.4 701.27,-194.27 691.4,-190.4 691.14,-197.4"/>
</a>
</g>
</g>
<!-- Node8&#45;&gt;Node5 -->
<g id="edge8_Node000008_Node000005" class="edge">
<title>Node8&#45;&gt;Node5</title>
<g id="a_edge8_Node000008_Node000005"><a xlink:title=" ">
<path fill="none" stroke="#63b8ff" d="M491.09,-166.05C460.12,-156.9 425.52,-146.69 397.99,-138.56"/>
<polygon fill="#63b8ff" stroke="#63b8ff" points="490.43,-169.5 501.01,-168.98 492.41,-162.79 490.43,-169.5"/>
</a>
</g>
</g>
<!-- Node10 -->
<g id="Node000010" class="node">
<title>Node10</title>
<g id="a_Node000010"><a xlink:href="../../d8/db0/classTerraria_1_1GameContent_1_1UI_1_1States_1_1UICharacterCreation_ad08eb9ef37bb9754a164076f562302b1.html#ad08eb9ef37bb9754a164076f562302b1" target="_top" xlink:title=" ">
<polygon fill="white" stroke="#666666" points="1094,-70 918,-70 918,-29 1094,-29 1094,-70"/>
<text text-anchor="start" x="926" y="-58" font-family="Helvetica,sans-Serif" font-size="10.00">Terraria.GameContent.UI.</text>
<text text-anchor="start" x="926" y="-47" font-family="Helvetica,sans-Serif" font-size="10.00">States.UICharacterCreation.Click</text>
<text text-anchor="middle" x="1006" y="-36" font-family="Helvetica,sans-Serif" font-size="10.00">_ColorPicker</text>
</a>
</g>
</g>
<!-- Node9&#45;&gt;Node10 -->
<g id="edge10_Node000009_Node000010" class="edge">
<title>Node9&#45;&gt;Node10</title>
<g id="a_edge10_Node000009_Node000010"><a xlink:title=" ">
<path fill="none" stroke="#63b8ff" d="M1136.14,-85.27C1118.03,-80.25 1099.01,-74.99 1081.29,-70.08"/>
<polygon fill="#63b8ff" stroke="#63b8ff" points="1135.23,-88.65 1145.8,-87.95 1137.1,-81.9 1135.23,-88.65"/>
</a>
</g>
</g>
<!-- Node14 -->
<g id="Node000014" class="node">
<title>Node14</title>
<g id="a_Node000014"><a xlink:href="../../d8/db0/classTerraria_1_1GameContent_1_1UI_1_1States_1_1UICharacterCreation_a3324e4fae8fd70f1a3373a9e6a6c6006.html#a3324e4fae8fd70f1a3373a9e6a6c6006" target="_top" xlink:title=" ">
<polygon fill="white" stroke="#666666" points="1089.5,-129 922.5,-129 922.5,-88 1089.5,-88 1089.5,-129"/>
<text text-anchor="start" x="930.5" y="-117" font-family="Helvetica,sans-Serif" font-size="10.00">Terraria.GameContent.UI.</text>
<text text-anchor="start" x="930.5" y="-106" font-family="Helvetica,sans-Serif" font-size="10.00">States.UICharacterCreation.Try</text>
<text text-anchor="middle" x="1006" y="-95" font-family="Helvetica,sans-Serif" font-size="10.00">MovingCategory</text>
</a>
</g>
</g>
<!-- Node9&#45;&gt;Node14 -->
<g id="edge16_Node000009_Node000014" class="edge">
<title>Node9&#45;&gt;Node14</title>
<g id="a_edge16_Node000009_Node000014"><a xlink:title=" ">
<path fill="none" stroke="#63b8ff" d="M1119.88,-108.5C1109.74,-108.5 1099.52,-108.5 1089.59,-108.5"/>
<polygon fill="#63b8ff" stroke="#63b8ff" points="1119.98,-112 1129.98,-108.5 1119.98,-105 1119.98,-112"/>
</a>
</g>
</g>
<!-- Node11 -->
<g id="Node000011" class="node">
<title>Node11</title>
<g id="a_Node000011"><a xlink:href="../../d8/db0/classTerraria_1_1GameContent_1_1UI_1_1States_1_1UICharacterCreation_acd656b4fdb85ed10956255516c47c22e.html#acd656b4fdb85ed10956255516c47c22e" target="_top" xlink:title=" ">
<polygon fill="white" stroke="#666666" points="882,-41 697,-41 697,0 882,0 882,-41"/>
<text text-anchor="start" x="705" y="-29" font-family="Helvetica,sans-Serif" font-size="10.00">Terraria.GameContent.UI.</text>
<text text-anchor="start" x="705" y="-18" font-family="Helvetica,sans-Serif" font-size="10.00">States.UICharacterCreation.Create</text>
<text text-anchor="middle" x="789.5" y="-7" font-family="Helvetica,sans-Serif" font-size="10.00">ColorPicker</text>
</a>
</g>
</g>
<!-- Node10&#45;&gt;Node11 -->
<g id="edge11_Node000010_Node000011" class="edge">
<title>Node10&#45;&gt;Node11</title>
<g id="a_edge11_Node000010_Node000011"><a xlink:title=" ">
<path fill="none" stroke="#63b8ff" d="M907.81,-36.36C899.28,-35.21 890.68,-34.04 882.21,-32.9"/>
<polygon fill="#63b8ff" stroke="#63b8ff" points="907.38,-39.83 917.75,-37.7 908.31,-32.9 907.38,-39.83"/>
</a>
</g>
</g>
<!-- Node13 -->
<g id="Node000013" class="node">
<title>Node13</title>
<g id="a_Node000013"><a xlink:href="../../d8/db0/classTerraria_1_1GameContent_1_1UI_1_1States_1_1UICharacterCreation_afb1cd49007c95fb2e7a4db4e612ab005.html#afb1cd49007c95fb2e7a4db4e612ab005" target="_top" xlink:title=" ">
<polygon fill="white" stroke="#666666" points="882,-100 697,-100 697,-59 882,-59 882,-100"/>
<text text-anchor="start" x="705" y="-88" font-family="Helvetica,sans-Serif" font-size="10.00">Terraria.GameContent.UI.</text>
<text text-anchor="start" x="705" y="-77" font-family="Helvetica,sans-Serif" font-size="10.00">States.UICharacterCreation.Create</text>
<text text-anchor="middle" x="789.5" y="-66" font-family="Helvetica,sans-Serif" font-size="10.00">HSLSlider</text>
</a>
</g>
</g>
<!-- Node10&#45;&gt;Node13 -->
<g id="edge14_Node000010_Node000013" class="edge">
<title>Node10&#45;&gt;Node13</title>
<g id="a_edge14_Node000010_Node000013"><a xlink:title=" ">
<path fill="none" stroke="#63b8ff" d="M907.81,-63.09C899.28,-64.29 890.68,-65.49 882.21,-66.67"/>
<polygon fill="#63b8ff" stroke="#63b8ff" points="908.34,-66.55 917.75,-61.7 907.37,-59.62 908.34,-66.55"/>
</a>
</g>
</g>
<!-- Node12 -->
<g id="Node000012" class="node">
<title>Node12</title>
<g id="a_Node000012"><a xlink:href="../../d8/db0/classTerraria_1_1GameContent_1_1UI_1_1States_1_1UICharacterCreation_a1df5ec4daae067c391c7a211210ab299.html#a1df5ec4daae067c391c7a211210ab299" target="_top" xlink:title=" ">
<polygon fill="white" stroke="#666666" points="661,-70 482,-70 482,-29 661,-29 661,-70"/>
<text text-anchor="start" x="490" y="-58" font-family="Helvetica,sans-Serif" font-size="10.00">Terraria.GameContent.UI.</text>
<text text-anchor="start" x="490" y="-47" font-family="Helvetica,sans-Serif" font-size="10.00">States.UICharacterCreation.Make</text>
<text text-anchor="middle" x="571.5" y="-36" font-family="Helvetica,sans-Serif" font-size="10.00">CategoriesBar</text>
</a>
</g>
</g>
<!-- Node11&#45;&gt;Node12 -->
<g id="edge12_Node000011_Node000012" class="edge">
<title>Node11&#45;&gt;Node12</title>
<g id="a_edge12_Node000011_Node000012"><a xlink:title=" ">
<path fill="none" stroke="#63b8ff" d="M686.85,-34.15C678.27,-35.3 669.62,-36.46 661.15,-37.6"/>
<polygon fill="#63b8ff" stroke="#63b8ff" points="687.45,-37.6 696.9,-32.8 686.52,-30.66 687.45,-37.6"/>
</a>
</g>
</g>
<!-- Node12&#45;&gt;Node5 -->
<g id="edge13_Node000012_Node000005" class="edge">
<title>Node12&#45;&gt;Node5</title>
<g id="a_edge13_Node000012_Node000005"><a xlink:title=" ">
<path fill="none" stroke="#63b8ff" d="M498.86,-73.22C463.93,-84.79 422.96,-98.35 392.39,-108.47"/>
<polygon fill="#63b8ff" stroke="#63b8ff" points="500.15,-76.48 508.54,-70.01 497.95,-69.84 500.15,-76.48"/>
</a>
</g>
</g>
<!-- Node13&#45;&gt;Node4 -->
<g id="edge15_Node000013_Node000004" class="edge">
<title>Node13&#45;&gt;Node4</title>
<g id="a_edge15_Node000013_Node000004"><a xlink:title=" ">
<path fill="none" stroke="#63b8ff" d="M686.85,-100.21C678.27,-101.96 669.62,-103.72 661.15,-105.44"/>
<polygon fill="#63b8ff" stroke="#63b8ff" points="687.8,-103.59 696.9,-98.16 686.4,-96.73 687.8,-103.59"/>
</a>
</g>
</g>
</g>
</svg>

<g id="navigator" transform="translate(0 0)" fill="#404254">
  <rect fill="#f2f5e9" fill-opacity="0.5" stroke="#606060" stroke-width=".5" x="0" y="0" width="60" height="60"/>
  <use id="zoomplus" xlink:href="#zoomPlus" x="17" y="9" onmousedown="handleZoom(evt,'in')"/>
  <use id="zoomminus" xlink:href="#zoomMin" x="42" y="9" onmousedown="handleZoom(evt,'out')"/>
  <use id="reset" xlink:href="#resetDef" x="30" y="36" onmousedown="handleReset()"/>
   <use id="arrowup" xlink:href="#arrowUp" x="0" y="0" onmousedown="handlePan(0,-1)"/>
  <use id="arrowright" xlink:href="#arrowRight" x="0" y="0" onmousedown="handlePan(1,0)"/>
  <use id="arrowdown" xlink:href="#arrowDown" x="0" y="0" onmousedown="handlePan(0,1)"/>
  <use id="arrowleft" xlink:href="#arrowLeft" x="0" y="0" onmousedown="handlePan(-1,0)"/>
</g>
<svg viewBox="0 0 15 15" width="100%" height="30px" preserveAspectRatio="xMaxYMin meet">
 <g id="arrow_out" transform="scale(0.3 0.3)">
  <a xlink:href="classTerraria_1_1GameContent_1_1UI_1_1States_1_1UICharacterCreation_ac0777feb6237ae066003e0cad4beb090_ac0777feb6237ae066003e0cad4beb090_icgraph_org.svg" target="_base">
   <rect id="button" ry="5" rx="5" y="6" x="6" height="38" width="38"
        fill="#f2f5e9" fill-opacity="0.5" stroke="#606060" stroke-width="1.0"/>
   <path id="arrow"
     d="M 11.500037,31.436501 C 11.940474,20.09759 22.043105,11.32322 32.158766,21.979434 L 37.068811,17.246167 C 37.068811,17.246167 37.088388,32 37.088388,32 L 22.160133,31.978069 C 22.160133,31.978069 26.997745,27.140456 26.997745,27.140456 C 18.528582,18.264221 13.291696,25.230495 11.500037,31.436501 z"
     style="fill:#404040;"/>
  </a>
 </g>
</svg>

<style type='text/css'>
<![CDATA[
[data-mouse-over-selected='false'] { opacity: 0.7; }
[data-mouse-over-selected='true']  { opacity: 1.0; }
]]>
</style>
<script type="application/ecmascript"><![CDATA[
document.addEventListener('DOMContentLoaded', (event) => {
  highlightEdges();
  highlightAdjacentNodes();
});
]]></script>
</svg>
