<?xml version="1.0" encoding="UTF-8" standalone="no"?>
<!DOCTYPE svg PUBLIC "-//W3C//DTD SVG 1.1//EN"
 "http://www.w3.org/Graphics/SVG/1.1/DTD/svg11.dtd">
<!-- Generated by graphviz version 2.43.0 (0)
 -->
<!-- Title: Terraria.GameContent.UI.States.UICharacterCreation.GetHexText Pages: 1 -->
<svg width="2020pt" height="367pt"
 viewBox="0.00 0.00 2020.00 367.00" xmlns="http://www.w3.org/2000/svg" xmlns:xlink="http://www.w3.org/1999/xlink">
<g id="graph0" class="graph" transform="scale(1 1) rotate(0) translate(4 363)">
<title>Terraria.GameContent.UI.States.UICharacterCreation.GetHexText</title>
<!-- Node1 -->
<g id="Node000001" class="node">
<title>Node1</title>
<g id="a_Node000001"><a xlink:title=" ">
<polygon fill="#999999" stroke="#666666" points="2012,-280 1842,-280 1842,-239 2012,-239 2012,-280"/>
<text text-anchor="start" x="1850" y="-268" font-family="Helvetica,sans-Serif" font-size="10.00">Terraria.GameContent.UI.</text>
<text text-anchor="start" x="1850" y="-257" font-family="Helvetica,sans-Serif" font-size="10.00">States.UICharacterCreation.Get</text>
<text text-anchor="middle" x="1927" y="-246" font-family="Helvetica,sans-Serif" font-size="10.00">HexText</text>
</a>
</g>
</g>
<!-- Node2 -->
<g id="Node000002" class="node">
<title>Node2</title>
<g id="a_Node000002"><a xlink:href="../../d8/db0/classTerraria_1_1GameContent_1_1UI_1_1States_1_1UICharacterCreation_ae4ee25bd5d3068c5d9dd630cb98e3762.html#ae4ee25bd5d3068c5d9dd630cb98e3762" target="_top" xlink:title=" ">
<polygon fill="white" stroke="#666666" points="1800,-334 1624,-334 1624,-293 1800,-293 1800,-334"/>
<text text-anchor="start" x="1632" y="-322" font-family="Helvetica,sans-Serif" font-size="10.00">Terraria.GameContent.UI.</text>
<text text-anchor="start" x="1632" y="-311" font-family="Helvetica,sans-Serif" font-size="10.00">States.UICharacterCreation.Click</text>
<text text-anchor="middle" x="1712" y="-300" font-family="Helvetica,sans-Serif" font-size="10.00">_CopyPlayerTemplate</text>
</a>
</g>
</g>
<!-- Node1&#45;&gt;Node2 -->
<g id="edge1_Node000001_Node000002" class="edge">
<title>Node1&#45;&gt;Node2</title>
<g id="a_edge1_Node000001_Node000002"><a xlink:title=" ">
<path fill="none" stroke="#63b8ff" d="M1835,-282.57C1821.34,-286.03 1807.34,-289.58 1793.91,-292.99"/>
<polygon fill="#63b8ff" stroke="#63b8ff" points="1836.03,-285.92 1844.87,-280.07 1834.31,-279.13 1836.03,-285.92"/>
</a>
</g>
</g>
<!-- Node6 -->
<g id="Node000006" class="node">
<title>Node6</title>
<g id="a_Node000006"><a xlink:href="../../d8/db0/classTerraria_1_1GameContent_1_1UI_1_1States_1_1UICharacterCreation_a1de0af41411514626b5678b76157b720.html#a1de0af41411514626b5678b76157b720" target="_top" xlink:title=" ">
<polygon fill="white" stroke="#666666" points="1806,-251 1618,-251 1618,-210 1806,-210 1806,-251"/>
<text text-anchor="start" x="1626" y="-239" font-family="Helvetica,sans-Serif" font-size="10.00">Terraria.GameContent.UI.</text>
<text text-anchor="start" x="1626" y="-228" font-family="Helvetica,sans-Serif" font-size="10.00">States.UICharacterCreation.Update</text>
<text text-anchor="middle" x="1712" y="-217" font-family="Helvetica,sans-Serif" font-size="10.00">HexText</text>
</a>
</g>
</g>
<!-- Node1&#45;&gt;Node6 -->
<g id="edge5_Node000001_Node000006" class="edge">
<title>Node1&#45;&gt;Node6</title>
<g id="a_edge5_Node000001_Node000006"><a xlink:title=" ">
<path fill="none" stroke="#63b8ff" d="M1831.83,-246.68C1823.27,-245.51 1814.6,-244.33 1806.05,-243.17"/>
<polygon fill="#63b8ff" stroke="#63b8ff" points="1831.44,-250.16 1841.82,-248.04 1832.38,-243.22 1831.44,-250.16"/>
</a>
</g>
</g>
<!-- Node3 -->
<g id="Node000003" class="node">
<title>Node3</title>
<g id="a_Node000003"><a xlink:href="../../d8/db0/classTerraria_1_1GameContent_1_1UI_1_1States_1_1UICharacterCreation_aa55aaf9c411c41dae5c8c23dbfdcdcd4.html#aa55aaf9c411c41dae5c8c23dbfdcdcd4" target="_top" xlink:title=" ">
<polygon fill="white" stroke="#666666" points="879,-359 700,-359 700,-318 879,-318 879,-359"/>
<text text-anchor="start" x="708" y="-347" font-family="Helvetica,sans-Serif" font-size="10.00">Terraria.GameContent.UI.</text>
<text text-anchor="start" x="708" y="-336" font-family="Helvetica,sans-Serif" font-size="10.00">States.UICharacterCreation.Make</text>
<text text-anchor="middle" x="789.5" y="-325" font-family="Helvetica,sans-Serif" font-size="10.00">ClothStylesMenu</text>
</a>
</g>
</g>
<!-- Node2&#45;&gt;Node3 -->
<g id="edge2_Node000002_Node000003" class="edge">
<title>Node2&#45;&gt;Node3</title>
<g id="a_edge2_Node000002_Node000003"><a xlink:title=" ">
<path fill="none" stroke="#63b8ff" d="M1613.7,-318.26C1603,-318.71 1592.27,-319.14 1582,-319.5 1327.01,-328.49 1025.66,-334.43 879.25,-337.02"/>
<polygon fill="#63b8ff" stroke="#63b8ff" points="1614.09,-321.75 1623.93,-317.82 1613.78,-314.75 1614.09,-321.75"/>
</a>
</g>
</g>
<!-- Node4 -->
<g id="Node000004" class="node">
<title>Node4</title>
<g id="a_Node000004"><a xlink:href="../../d8/db0/classTerraria_1_1GameContent_1_1UI_1_1States_1_1UICharacterCreation_ada5cce4c07e227d6d7ebf8fd4cc983ff.html#ada5cce4c07e227d6d7ebf8fd4cc983ff" target="_top" xlink:title=" ">
<polygon fill="white" stroke="#666666" points="446,-266.5 246,-266.5 246,-236.5 446,-236.5 446,-266.5"/>
<text text-anchor="start" x="254" y="-254.5" font-family="Helvetica,sans-Serif" font-size="10.00">Terraria.GameContent.UI.</text>
<text text-anchor="middle" x="346" y="-243.5" font-family="Helvetica,sans-Serif" font-size="10.00">States.UICharacterCreation.BuildPage</text>
</a>
</g>
</g>
<!-- Node3&#45;&gt;Node4 -->
<g id="edge3_Node000003_Node000004" class="edge">
<title>Node3&#45;&gt;Node4</title>
<g id="a_edge3_Node000003_Node000004"><a xlink:title=" ">
<path fill="none" stroke="#63b8ff" d="M689.94,-321.07C629.77,-310.21 551.32,-295.64 482,-281.5 459.3,-276.87 434.53,-271.47 412.48,-266.53"/>
<polygon fill="#63b8ff" stroke="#63b8ff" points="689.36,-324.52 699.82,-322.85 690.6,-317.63 689.36,-324.52"/>
</a>
</g>
</g>
<!-- Node5 -->
<g id="Node000005" class="node">
<title>Node5</title>
<g id="a_Node000005"><a xlink:href="../../d8/db0/classTerraria_1_1GameContent_1_1UI_1_1States_1_1UICharacterCreation_a37cd131542ad073d137b053ee14e285f.html#a37cd131542ad073d137b053ee14e285f" target="_top" xlink:title=" ">
<polygon fill="white" stroke="#666666" points="210,-272 0,-272 0,-231 210,-231 210,-272"/>
<text text-anchor="start" x="8" y="-260" font-family="Helvetica,sans-Serif" font-size="10.00">Terraria.GameContent.UI.</text>
<text text-anchor="start" x="8" y="-249" font-family="Helvetica,sans-Serif" font-size="10.00">States.UICharacterCreation.UICharacter</text>
<text text-anchor="middle" x="105" y="-238" font-family="Helvetica,sans-Serif" font-size="10.00">Creation</text>
</a>
</g>
</g>
<!-- Node4&#45;&gt;Node5 -->
<g id="edge4_Node000004_Node000005" class="edge">
<title>Node4&#45;&gt;Node5</title>
<g id="a_edge4_Node000004_Node000005"><a xlink:title=" ">
<path fill="none" stroke="#63b8ff" d="M235.54,-251.5C227.16,-251.5 218.72,-251.5 210.37,-251.5"/>
<polygon fill="#63b8ff" stroke="#63b8ff" points="235.72,-255 245.72,-251.5 235.72,-248 235.72,-255"/>
</a>
</g>
</g>
<!-- Node7 -->
<g id="Node000007" class="node">
<title>Node7</title>
<g id="a_Node000007"><a xlink:href="../../d8/db0/classTerraria_1_1GameContent_1_1UI_1_1States_1_1UICharacterCreation_a0cd518a3a20e8483d629aba07b2955c3.html#a0cd518a3a20e8483d629aba07b2955c3" target="_top" xlink:title=" ">
<polygon fill="white" stroke="#666666" points="1576,-310 1400,-310 1400,-269 1576,-269 1576,-310"/>
<text text-anchor="start" x="1408" y="-298" font-family="Helvetica,sans-Serif" font-size="10.00">Terraria.GameContent.UI.</text>
<text text-anchor="start" x="1408" y="-287" font-family="Helvetica,sans-Serif" font-size="10.00">States.UICharacterCreation.Click</text>
<text text-anchor="middle" x="1488" y="-276" font-family="Helvetica,sans-Serif" font-size="10.00">_PasteHex</text>
</a>
</g>
</g>
<!-- Node6&#45;&gt;Node7 -->
<g id="edge6_Node000006_Node000007" class="edge">
<title>Node6&#45;&gt;Node7</title>
<g id="a_edge6_Node000006_Node000007"><a xlink:title=" ">
<path fill="none" stroke="#63b8ff" d="M1623.86,-253.66C1604.9,-258.7 1584.98,-263.99 1566.43,-268.92"/>
<polygon fill="#63b8ff" stroke="#63b8ff" points="1624.9,-257 1633.67,-251.05 1623.1,-250.24 1624.9,-257"/>
</a>
</g>
</g>
<!-- Node9 -->
<g id="Node000009" class="node">
<title>Node9</title>
<g id="a_Node000009"><a xlink:href="../../d8/db0/classTerraria_1_1GameContent_1_1UI_1_1States_1_1UICharacterCreation_adf08d1aba1bf7b8af34c94bee1d84bb7.html#adf08d1aba1bf7b8af34c94bee1d84bb7" target="_top" xlink:title=" ">
<polygon fill="white" stroke="#666666" points="1576,-251 1400,-251 1400,-210 1576,-210 1576,-251"/>
<text text-anchor="start" x="1408" y="-239" font-family="Helvetica,sans-Serif" font-size="10.00">Terraria.GameContent.UI.</text>
<text text-anchor="start" x="1408" y="-228" font-family="Helvetica,sans-Serif" font-size="10.00">States.UICharacterCreation.Click</text>
<text text-anchor="middle" x="1488" y="-217" font-family="Helvetica,sans-Serif" font-size="10.00">_RandomizeSingleColor</text>
</a>
</g>
</g>
<!-- Node6&#45;&gt;Node9 -->
<g id="edge9_Node000006_Node000009" class="edge">
<title>Node6&#45;&gt;Node9</title>
<g id="a_edge9_Node000006_Node000009"><a xlink:title=" ">
<path fill="none" stroke="#63b8ff" d="M1607.76,-230.5C1597.23,-230.5 1586.61,-230.5 1576.27,-230.5"/>
<polygon fill="#63b8ff" stroke="#63b8ff" points="1607.82,-234 1617.82,-230.5 1607.82,-227 1607.82,-234"/>
</a>
</g>
</g>
<!-- Node10 -->
<g id="Node000010" class="node">
<title>Node10</title>
<g id="a_Node000010"><a xlink:href="../../d8/db0/classTerraria_1_1GameContent_1_1UI_1_1States_1_1UICharacterCreation_ae3b42ad69abaaea0c4a6f72e275eae05.html#ae3b42ad69abaaea0c4a6f72e275eae05" target="_top" xlink:title=" ">
<polygon fill="white" stroke="#666666" points="1339.5,-41 1157.5,-41 1157.5,0 1339.5,0 1339.5,-41"/>
<text text-anchor="start" x="1165.5" y="-29" font-family="Helvetica,sans-Serif" font-size="10.00">Terraria.GameContent.UI.</text>
<text text-anchor="start" x="1165.5" y="-18" font-family="Helvetica,sans-Serif" font-size="10.00">States.UICharacterCreation.Select</text>
<text text-anchor="middle" x="1248.5" y="-7" font-family="Helvetica,sans-Serif" font-size="10.00">ColorPicker</text>
</a>
</g>
</g>
<!-- Node6&#45;&gt;Node10 -->
<g id="edge11_Node000006_Node000010" class="edge">
<title>Node6&#45;&gt;Node10</title>
<g id="a_edge11_Node000006_Node000010"><a xlink:title=" ">
<path fill="none" stroke="#63b8ff" d="M1681.7,-203.05C1656.79,-180.92 1619.24,-150.34 1582,-130.5 1503.92,-88.91 1407.19,-59.06 1338.23,-41.04"/>
<polygon fill="#63b8ff" stroke="#63b8ff" points="1679.56,-205.82 1689.33,-209.91 1684.24,-200.62 1679.56,-205.82"/>
</a>
</g>
</g>
<!-- Node16 -->
<g id="Node000016" class="node">
<title>Node16</title>
<g id="a_Node000016"><a xlink:href="../../d8/db0/classTerraria_1_1GameContent_1_1UI_1_1States_1_1UICharacterCreation_a3e880decd1b77a413934abbfed353bcc.html#a3e880decd1b77a413934abbfed353bcc" target="_top" xlink:title=" ">
<polygon fill="white" stroke="#666666" points="1582,-181 1394,-181 1394,-140 1582,-140 1582,-181"/>
<text text-anchor="start" x="1402" y="-169" font-family="Helvetica,sans-Serif" font-size="10.00">Terraria.GameContent.UI.</text>
<text text-anchor="start" x="1402" y="-158" font-family="Helvetica,sans-Serif" font-size="10.00">States.UICharacterCreation.Update</text>
<text text-anchor="middle" x="1488" y="-147" font-family="Helvetica,sans-Serif" font-size="10.00">HSLValue</text>
</a>
</g>
</g>
<!-- Node6&#45;&gt;Node16 -->
<g id="edge19_Node000006_Node000016" class="edge">
<title>Node6&#45;&gt;Node16</title>
<g id="a_edge19_Node000006_Node000016"><a xlink:title=" ">
<path fill="none" stroke="#63b8ff" d="M1636.24,-206.93C1609.61,-198.53 1579.86,-189.15 1554.11,-181.03"/>
<polygon fill="#63b8ff" stroke="#63b8ff" points="1635.3,-210.3 1645.89,-209.97 1637.41,-203.63 1635.3,-210.3"/>
</a>
</g>
</g>
<!-- Node8 -->
<g id="Node000008" class="node">
<title>Node8</title>
<g id="a_Node000008"><a xlink:href="../../d8/db0/classTerraria_1_1GameContent_1_1UI_1_1States_1_1UICharacterCreation_ad222e5397bd8676273ad2a17765b5346.html#ad222e5397bd8676273ad2a17765b5346" target="_top" xlink:title=" ">
<polygon fill="white" stroke="#666666" points="661,-272 482,-272 482,-231 661,-231 661,-272"/>
<text text-anchor="start" x="490" y="-260" font-family="Helvetica,sans-Serif" font-size="10.00">Terraria.GameContent.UI.</text>
<text text-anchor="start" x="490" y="-249" font-family="Helvetica,sans-Serif" font-size="10.00">States.UICharacterCreation.Make</text>
<text text-anchor="middle" x="571.5" y="-238" font-family="Helvetica,sans-Serif" font-size="10.00">HSLMenu</text>
</a>
</g>
</g>
<!-- Node7&#45;&gt;Node8 -->
<g id="edge7_Node000007_Node000008" class="edge">
<title>Node7&#45;&gt;Node8</title>
<g id="a_edge7_Node000007_Node000008"><a xlink:title=" ">
<path fill="none" stroke="#63b8ff" d="M1389.82,-287.04C1240.7,-283.02 946.51,-274.09 697,-260.5 685.42,-259.87 673.25,-259.11 661.23,-258.3"/>
<polygon fill="#63b8ff" stroke="#63b8ff" points="1389.77,-290.54 1399.86,-287.31 1389.96,-283.54 1389.77,-290.54"/>
</a>
</g>
</g>
<!-- Node8&#45;&gt;Node4 -->
<g id="edge8_Node000008_Node000004" class="edge">
<title>Node8&#45;&gt;Node4</title>
<g id="a_edge8_Node000008_Node000004"><a xlink:title=" ">
<path fill="none" stroke="#63b8ff" d="M471.62,-251.5C463.19,-251.5 454.66,-251.5 446.23,-251.5"/>
<polygon fill="#63b8ff" stroke="#63b8ff" points="471.85,-255 481.85,-251.5 471.85,-248 471.85,-255"/>
</a>
</g>
</g>
<!-- Node9&#45;&gt;Node8 -->
<g id="edge10_Node000009_Node000008" class="edge">
<title>Node9&#45;&gt;Node8</title>
<g id="a_edge10_Node000009_Node000008"><a xlink:title=" ">
<path fill="none" stroke="#63b8ff" d="M1389.54,-232.74C1210.75,-236.84 832.94,-245.52 661.03,-249.47"/>
<polygon fill="#63b8ff" stroke="#63b8ff" points="1389.81,-236.23 1399.73,-232.5 1389.65,-229.23 1389.81,-236.23"/>
</a>
</g>
</g>
<!-- Node11 -->
<g id="Node000011" class="node">
<title>Node11</title>
<g id="a_Node000011"><a xlink:href="../../d8/db0/classTerraria_1_1GameContent_1_1UI_1_1States_1_1UICharacterCreation_ad08eb9ef37bb9754a164076f562302b1.html#ad08eb9ef37bb9754a164076f562302b1" target="_top" xlink:title=" ">
<polygon fill="white" stroke="#666666" points="1098.5,-47 922.5,-47 922.5,-6 1098.5,-6 1098.5,-47"/>
<text text-anchor="start" x="930.5" y="-35" font-family="Helvetica,sans-Serif" font-size="10.00">Terraria.GameContent.UI.</text>
<text text-anchor="start" x="930.5" y="-24" font-family="Helvetica,sans-Serif" font-size="10.00">States.UICharacterCreation.Click</text>
<text text-anchor="middle" x="1010.5" y="-13" font-family="Helvetica,sans-Serif" font-size="10.00">_ColorPicker</text>
</a>
</g>
</g>
<!-- Node10&#45;&gt;Node11 -->
<g id="edge12_Node000010_Node000011" class="edge">
<title>Node10&#45;&gt;Node11</title>
<g id="a_edge12_Node000010_Node000011"><a xlink:title=" ">
<path fill="none" stroke="#63b8ff" d="M1147.26,-23.05C1131.06,-23.46 1114.42,-23.88 1098.57,-24.29"/>
<polygon fill="#63b8ff" stroke="#63b8ff" points="1147.36,-26.55 1157.27,-22.79 1147.18,-19.55 1147.36,-26.55"/>
</a>
</g>
</g>
<!-- Node15 -->
<g id="Node000015" class="node">
<title>Node15</title>
<g id="a_Node000015"><a xlink:href="../../d8/db0/classTerraria_1_1GameContent_1_1UI_1_1States_1_1UICharacterCreation_a3324e4fae8fd70f1a3373a9e6a6c6006.html#a3324e4fae8fd70f1a3373a9e6a6c6006" target="_top" xlink:title=" ">
<polygon fill="white" stroke="#666666" points="1094,-106 927,-106 927,-65 1094,-65 1094,-106"/>
<text text-anchor="start" x="935" y="-94" font-family="Helvetica,sans-Serif" font-size="10.00">Terraria.GameContent.UI.</text>
<text text-anchor="start" x="935" y="-83" font-family="Helvetica,sans-Serif" font-size="10.00">States.UICharacterCreation.Try</text>
<text text-anchor="middle" x="1010.5" y="-72" font-family="Helvetica,sans-Serif" font-size="10.00">MovingCategory</text>
</a>
</g>
</g>
<!-- Node10&#45;&gt;Node15 -->
<g id="edge18_Node000010_Node000015" class="edge">
<title>Node10&#45;&gt;Node15</title>
<g id="a_edge18_Node000010_Node000015"><a xlink:title=" ">
<path fill="none" stroke="#63b8ff" d="M1162.96,-43.79C1137.84,-50.7 1110.52,-58.23 1086.09,-64.96"/>
<polygon fill="#63b8ff" stroke="#63b8ff" points="1164.12,-47.1 1172.83,-41.07 1162.26,-40.35 1164.12,-47.1"/>
</a>
</g>
</g>
<!-- Node12 -->
<g id="Node000012" class="node">
<title>Node12</title>
<g id="a_Node000012"><a xlink:href="../../d8/db0/classTerraria_1_1GameContent_1_1UI_1_1States_1_1UICharacterCreation_acd656b4fdb85ed10956255516c47c22e.html#acd656b4fdb85ed10956255516c47c22e" target="_top" xlink:title=" ">
<polygon fill="white" stroke="#666666" points="882,-79 697,-79 697,-38 882,-38 882,-79"/>
<text text-anchor="start" x="705" y="-67" font-family="Helvetica,sans-Serif" font-size="10.00">Terraria.GameContent.UI.</text>
<text text-anchor="start" x="705" y="-56" font-family="Helvetica,sans-Serif" font-size="10.00">States.UICharacterCreation.Create</text>
<text text-anchor="middle" x="789.5" y="-45" font-family="Helvetica,sans-Serif" font-size="10.00">ColorPicker</text>
</a>
</g>
</g>
<!-- Node11&#45;&gt;Node12 -->
<g id="edge13_Node000011_Node000012" class="edge">
<title>Node11&#45;&gt;Node12</title>
<g id="a_edge13_Node000011_Node000012"><a xlink:title=" ">
<path fill="none" stroke="#63b8ff" d="M912.31,-40.7C902.25,-42.17 892.05,-43.66 882.05,-45.12"/>
<polygon fill="#63b8ff" stroke="#63b8ff" points="912.93,-44.15 922.32,-39.24 911.92,-37.22 912.93,-44.15"/>
</a>
</g>
</g>
<!-- Node14 -->
<g id="Node000014" class="node">
<title>Node14</title>
<g id="a_Node000014"><a xlink:href="../../d8/db0/classTerraria_1_1GameContent_1_1UI_1_1States_1_1UICharacterCreation_afb1cd49007c95fb2e7a4db4e612ab005.html#afb1cd49007c95fb2e7a4db4e612ab005" target="_top" xlink:title=" ">
<polygon fill="white" stroke="#666666" points="882,-170 697,-170 697,-129 882,-129 882,-170"/>
<text text-anchor="start" x="705" y="-158" font-family="Helvetica,sans-Serif" font-size="10.00">Terraria.GameContent.UI.</text>
<text text-anchor="start" x="705" y="-147" font-family="Helvetica,sans-Serif" font-size="10.00">States.UICharacterCreation.Create</text>
<text text-anchor="middle" x="789.5" y="-136" font-family="Helvetica,sans-Serif" font-size="10.00">HSLSlider</text>
</a>
</g>
</g>
<!-- Node11&#45;&gt;Node14 -->
<g id="edge16_Node000011_Node000014" class="edge">
<title>Node11&#45;&gt;Node14</title>
<g id="a_edge16_Node000011_Node000014"><a xlink:title=" ">
<path fill="none" stroke="#63b8ff" d="M925.75,-51.4C923.11,-52.7 920.51,-54.07 918,-55.5 899.39,-66.08 898.9,-74.36 882,-87.5 863.07,-102.23 840.81,-117.35 822.99,-128.98"/>
<polygon fill="#63b8ff" stroke="#63b8ff" points="927.33,-54.53 934.95,-47.17 924.4,-48.16 927.33,-54.53"/>
</a>
</g>
</g>
<!-- Node13 -->
<g id="Node000013" class="node">
<title>Node13</title>
<g id="a_Node000013"><a xlink:href="../../d8/db0/classTerraria_1_1GameContent_1_1UI_1_1States_1_1UICharacterCreation_a1df5ec4daae067c391c7a211210ab299.html#a1df5ec4daae067c391c7a211210ab299" target="_top" xlink:title=" ">
<polygon fill="white" stroke="#666666" points="661,-146 482,-146 482,-105 661,-105 661,-146"/>
<text text-anchor="start" x="490" y="-134" font-family="Helvetica,sans-Serif" font-size="10.00">Terraria.GameContent.UI.</text>
<text text-anchor="start" x="490" y="-123" font-family="Helvetica,sans-Serif" font-size="10.00">States.UICharacterCreation.Make</text>
<text text-anchor="middle" x="571.5" y="-112" font-family="Helvetica,sans-Serif" font-size="10.00">CategoriesBar</text>
</a>
</g>
</g>
<!-- Node12&#45;&gt;Node13 -->
<g id="edge14_Node000012_Node000013" class="edge">
<title>Node12&#45;&gt;Node13</title>
<g id="a_edge14_Node000012_Node000013"><a xlink:title=" ">
<path fill="none" stroke="#63b8ff" d="M712.42,-82.1C688.36,-89.56 661.96,-97.75 638.65,-104.98"/>
<polygon fill="#63b8ff" stroke="#63b8ff" points="713.71,-85.36 722.22,-79.06 711.64,-78.68 713.71,-85.36"/>
</a>
</g>
</g>
<!-- Node13&#45;&gt;Node4 -->
<g id="edge15_Node000013_Node000004" class="edge">
<title>Node13&#45;&gt;Node4</title>
<g id="a_edge15_Node000013_Node000004"><a xlink:title=" ">
<path fill="none" stroke="#63b8ff" d="M525.33,-150.96C479.92,-176.56 411.41,-215.19 373.9,-236.33"/>
<polygon fill="#63b8ff" stroke="#63b8ff" points="527.1,-153.98 534.09,-146.02 523.66,-147.89 527.1,-153.98"/>
</a>
</g>
</g>
<!-- Node14&#45;&gt;Node8 -->
<g id="edge17_Node000014_Node000008" class="edge">
<title>Node14&#45;&gt;Node8</title>
<g id="a_edge17_Node000014_Node000008"><a xlink:title=" ">
<path fill="none" stroke="#63b8ff" d="M735.99,-174.3C699.29,-191.63 650.86,-214.5 616.25,-230.84"/>
<polygon fill="#63b8ff" stroke="#63b8ff" points="737.5,-177.45 745.05,-170.02 734.51,-171.12 737.5,-177.45"/>
</a>
</g>
</g>
<!-- Node17 -->
<g id="Node000017" class="node">
<title>Node17</title>
<g id="a_Node000017"><a xlink:href="../../d8/db0/classTerraria_1_1GameContent_1_1UI_1_1States_1_1UICharacterCreation_a8f48f3edb0b443b94decf7368d71abcb.html#a8f48f3edb0b443b94decf7368d71abcb" target="_top" xlink:title=" ">
<polygon fill="white" stroke="#666666" points="1103,-170 918,-170 918,-129 1103,-129 1103,-170"/>
<text text-anchor="start" x="926" y="-158" font-family="Helvetica,sans-Serif" font-size="10.00">Terraria.GameContent.UI.</text>
<text text-anchor="start" x="926" y="-147" font-family="Helvetica,sans-Serif" font-size="10.00">States.UICharacterCreation.Create</text>
<text text-anchor="middle" x="1010.5" y="-136" font-family="Helvetica,sans-Serif" font-size="10.00">HSLSliderButtonBase</text>
</a>
</g>
</g>
<!-- Node16&#45;&gt;Node17 -->
<g id="edge20_Node000016_Node000017" class="edge">
<title>Node16&#45;&gt;Node17</title>
<g id="a_edge20_Node000016_Node000017"><a xlink:title=" ">
<path fill="none" stroke="#63b8ff" d="M1451.26,-133.98C1426.49,-117.31 1391.97,-97.34 1358,-88.5 1263.8,-63.99 1231.61,-58.55 1139,-88.5 1120.22,-94.57 1120.36,-105.12 1103,-114.5 1093.27,-119.76 1082.59,-124.6 1072.06,-128.9"/>
<polygon fill="#63b8ff" stroke="#63b8ff" points="1449.38,-136.93 1459.6,-139.71 1453.34,-131.16 1449.38,-136.93"/>
</a>
</g>
</g>
<!-- Node18 -->
<g id="Node000018" class="node">
<title>Node18</title>
<g id="a_Node000018"><a xlink:href="../../d8/db0/classTerraria_1_1GameContent_1_1UI_1_1States_1_1UICharacterCreation_a7b69226f9e1e6b4192d71e8c76c5d6b8.html#a7b69226f9e1e6b4192d71e8c76c5d6b8" target="_top" xlink:title=" ">
<polygon fill="white" stroke="#666666" points="1358,-223.5 1139,-223.5 1139,-193.5 1358,-193.5 1358,-223.5"/>
<text text-anchor="start" x="1147" y="-211.5" font-family="Helvetica,sans-Serif" font-size="10.00">Terraria.GameContent.UI.</text>
<text text-anchor="middle" x="1248.5" y="-200.5" font-family="Helvetica,sans-Serif" font-size="10.00">States.UICharacterCreation.UpdateHSL_H</text>
</a>
</g>
</g>
<!-- Node16&#45;&gt;Node18 -->
<g id="edge22_Node000016_Node000018" class="edge">
<title>Node16&#45;&gt;Node18</title>
<g id="a_edge22_Node000016_Node000018"><a xlink:title=" ">
<path fill="none" stroke="#63b8ff" d="M1383.99,-181.32C1363.84,-185.39 1343.08,-189.59 1324.08,-193.43"/>
<polygon fill="#63b8ff" stroke="#63b8ff" points="1384.71,-184.74 1393.82,-179.33 1383.32,-177.88 1384.71,-184.74"/>
</a>
</g>
</g>
<!-- Node19 -->
<g id="Node000019" class="node">
<title>Node19</title>
<g id="a_Node000019"><a xlink:href="../../d8/db0/classTerraria_1_1GameContent_1_1UI_1_1States_1_1UICharacterCreation_ab77a629d6ad7dd6c47b6ef4d19e811e8.html#ab77a629d6ad7dd6c47b6ef4d19e811e8" target="_top" xlink:title=" ">
<polygon fill="white" stroke="#666666" points="1357,-175.5 1140,-175.5 1140,-145.5 1357,-145.5 1357,-175.5"/>
<text text-anchor="start" x="1148" y="-163.5" font-family="Helvetica,sans-Serif" font-size="10.00">Terraria.GameContent.UI.</text>
<text text-anchor="middle" x="1248.5" y="-152.5" font-family="Helvetica,sans-Serif" font-size="10.00">States.UICharacterCreation.UpdateHSL_L</text>
</a>
</g>
</g>
<!-- Node16&#45;&gt;Node19 -->
<g id="edge24_Node000016_Node000019" class="edge">
<title>Node16&#45;&gt;Node19</title>
<g id="a_edge24_Node000016_Node000019"><a xlink:title=" ">
<path fill="none" stroke="#63b8ff" d="M1383.65,-160.5C1374.94,-160.5 1366.12,-160.5 1357.38,-160.5"/>
<polygon fill="#63b8ff" stroke="#63b8ff" points="1383.82,-164 1393.82,-160.5 1383.82,-157 1383.82,-164"/>
</a>
</g>
</g>
<!-- Node20 -->
<g id="Node000020" class="node">
<title>Node20</title>
<g id="a_Node000020"><a xlink:href="../../d8/db0/classTerraria_1_1GameContent_1_1UI_1_1States_1_1UICharacterCreation_af1a15bee7852ad37a4e3a175daacccda.html#af1a15bee7852ad37a4e3a175daacccda" target="_top" xlink:title=" ">
<polygon fill="white" stroke="#666666" points="1357.5,-127.5 1139.5,-127.5 1139.5,-97.5 1357.5,-97.5 1357.5,-127.5"/>
<text text-anchor="start" x="1147.5" y="-115.5" font-family="Helvetica,sans-Serif" font-size="10.00">Terraria.GameContent.UI.</text>
<text text-anchor="middle" x="1248.5" y="-104.5" font-family="Helvetica,sans-Serif" font-size="10.00">States.UICharacterCreation.UpdateHSL_S</text>
</a>
</g>
</g>
<!-- Node16&#45;&gt;Node20 -->
<g id="edge26_Node000016_Node000020" class="edge">
<title>Node16&#45;&gt;Node20</title>
<g id="a_edge26_Node000016_Node000020"><a xlink:title=" ">
<path fill="none" stroke="#63b8ff" d="M1383.99,-139.68C1363.84,-135.61 1343.08,-131.41 1324.08,-127.57"/>
<polygon fill="#63b8ff" stroke="#63b8ff" points="1383.32,-143.12 1393.82,-141.67 1384.71,-136.26 1383.32,-143.12"/>
</a>
</g>
</g>
<!-- Node17&#45;&gt;Node14 -->
<g id="edge21_Node000017_Node000014" class="edge">
<title>Node17&#45;&gt;Node14</title>
<g id="a_edge21_Node000017_Node000014"><a xlink:title=" ">
<path fill="none" stroke="#63b8ff" d="M907.85,-149.5C899.26,-149.5 890.6,-149.5 882.09,-149.5"/>
<polygon fill="#63b8ff" stroke="#63b8ff" points="907.89,-153 917.89,-149.5 907.89,-146 907.89,-153"/>
</a>
</g>
</g>
<!-- Node18&#45;&gt;Node17 -->
<g id="edge23_Node000018_Node000017" class="edge">
<title>Node18&#45;&gt;Node17</title>
<g id="a_edge23_Node000018_Node000017"><a xlink:title=" ">
<path fill="none" stroke="#63b8ff" d="M1167.17,-191.21C1157.66,-189.02 1148.1,-186.75 1139,-184.5 1121.06,-180.06 1101.8,-174.95 1083.82,-170.03"/>
<polygon fill="#63b8ff" stroke="#63b8ff" points="1166.52,-194.65 1177.05,-193.46 1168.08,-187.82 1166.52,-194.65"/>
</a>
</g>
</g>
<!-- Node19&#45;&gt;Node17 -->
<g id="edge25_Node000019_Node000017" class="edge">
<title>Node19&#45;&gt;Node17</title>
<g id="a_edge25_Node000019_Node000017"><a xlink:title=" ">
<path fill="none" stroke="#63b8ff" d="M1129.76,-155.01C1120.81,-154.6 1111.86,-154.18 1103.11,-153.77"/>
<polygon fill="#63b8ff" stroke="#63b8ff" points="1129.71,-158.51 1139.86,-155.48 1130.03,-151.52 1129.71,-158.51"/>
</a>
</g>
</g>
<!-- Node20&#45;&gt;Node17 -->
<g id="edge27_Node000020_Node000017" class="edge">
<title>Node20&#45;&gt;Node17</title>
<g id="a_edge27_Node000020_Node000017"><a xlink:title=" ">
<path fill="none" stroke="#63b8ff" d="M1141.35,-129.14C1128.62,-131.14 1115.71,-133.16 1103.21,-135.12"/>
<polygon fill="#63b8ff" stroke="#63b8ff" points="1142.17,-132.56 1151.51,-127.55 1141.09,-125.64 1142.17,-132.56"/>
</a>
</g>
</g>
</g>
</svg>
