<?xml version="1.0" encoding="UTF-8" standalone="no"?>
<!DOCTYPE svg PUBLIC "-//W3C//DTD SVG 1.1//EN"
 "http://www.w3.org/Graphics/SVG/1.1/DTD/svg11.dtd">
<!-- Generated by graphviz version 2.43.0 (0)
 -->
<!-- Title: Terraria.GameContent.ItemDropRules.ItemDropRule.NotScalingWithLuck Pages: 1 -->
<svg width="929pt" height="245pt"
 viewBox="0.00 0.00 929.00 245.00" xmlns="http://www.w3.org/2000/svg" xmlns:xlink="http://www.w3.org/1999/xlink">
<g id="graph0" class="graph" transform="scale(1 1) rotate(0) translate(4 241)">
<title>Terraria.GameContent.ItemDropRules.ItemDropRule.NotScalingWithLuck</title>
<!-- Node1 -->
<g id="Node000001" class="node">
<title>Node1</title>
<g id="a_Node000001"><a xlink:title=" ">
<polygon fill="#999999" stroke="#666666" points="921,-139 728,-139 728,-98 921,-98 921,-139"/>
<text text-anchor="start" x="736" y="-127" font-family="Helvetica,sans-Serif" font-size="10.00">Terraria.GameContent.Item</text>
<text text-anchor="start" x="736" y="-116" font-family="Helvetica,sans-Serif" font-size="10.00">DropRules.ItemDropRule.NotScaling</text>
<text text-anchor="middle" x="824.5" y="-105" font-family="Helvetica,sans-Serif" font-size="10.00">WithLuck</text>
</a>
</g>
</g>
<!-- Node2 -->
<g id="Node000002" class="node">
<title>Node2</title>
<g id="a_Node000002"><a xlink:href="../../d0/d67/classTerraria_1_1GameContent_1_1ItemDropRules_1_1ItemDropRule_a166df80399772c86851cbea083cad66e.html#a166df80399772c86851cbea083cad66e" target="_top" xlink:title=" ">
<polygon fill="white" stroke="#666666" points="683,-237 495,-237 495,-196 683,-196 683,-237"/>
<text text-anchor="start" x="503" y="-225" font-family="Helvetica,sans-Serif" font-size="10.00">Terraria.GameContent.Item</text>
<text text-anchor="start" x="503" y="-214" font-family="Helvetica,sans-Serif" font-size="10.00">DropRules.ItemDropRule.Normalvs</text>
<text text-anchor="middle" x="589" y="-203" font-family="Helvetica,sans-Serif" font-size="10.00">ExpertNotScalingWithLuck</text>
</a>
</g>
</g>
<!-- Node1&#45;&gt;Node2 -->
<g id="edge1_Node000001_Node000002" class="edge">
<title>Node1&#45;&gt;Node2</title>
<g id="a_edge1_Node000001_Node000002"><a xlink:title=" ">
<path fill="none" stroke="#63b8ff" d="M774.67,-143.56C750.16,-155.71 719.84,-170.1 692,-181.5 679.7,-186.54 666.38,-191.47 653.54,-195.98"/>
<polygon fill="#63b8ff" stroke="#63b8ff" points="776.37,-146.62 783.76,-139.03 773.25,-140.36 776.37,-146.62"/>
</a>
</g>
</g>
<!-- Node3 -->
<g id="Node000003" class="node">
<title>Node3</title>
<g id="a_Node000003"><a xlink:href="../../da/d96/classTerraria_1_1GameContent_1_1ItemDropRules_1_1ItemDropDatabase_a7c3e63dc56c456acb66557905bb9afe7.html#a7c3e63dc56c456acb66557905bb9afe7" target="_top" xlink:title=" ">
<polygon fill="white" stroke="#666666" points="450,-188 244,-188 244,-147 450,-147 450,-188"/>
<text text-anchor="start" x="252" y="-176" font-family="Helvetica,sans-Serif" font-size="10.00">Terraria.GameContent.Item</text>
<text text-anchor="start" x="252" y="-165" font-family="Helvetica,sans-Serif" font-size="10.00">DropRules.ItemDropDatabase.Register</text>
<text text-anchor="middle" x="347" y="-154" font-family="Helvetica,sans-Serif" font-size="10.00">DD2EventDrops</text>
</a>
</g>
</g>
<!-- Node1&#45;&gt;Node3 -->
<g id="edge9_Node000001_Node000003" class="edge">
<title>Node1&#45;&gt;Node3</title>
<g id="a_edge9_Node000001_Node000003"><a xlink:title=" ">
<path fill="none" stroke="#63b8ff" d="M733.28,-141.19C719.52,-144.04 705.43,-146.61 692,-148.5 611.15,-159.87 518.72,-164.52 450.04,-166.38"/>
<polygon fill="#63b8ff" stroke="#63b8ff" points="734.18,-144.58 743.23,-139.08 732.72,-137.73 734.18,-144.58"/>
</a>
</g>
</g>
<!-- Node5 -->
<g id="Node000005" class="node">
<title>Node5</title>
<g id="a_Node000005"><a xlink:href="../../da/d96/classTerraria_1_1GameContent_1_1ItemDropRules_1_1ItemDropDatabase_a2278e6acb17b370ec7e010409644df0e.html#a2278e6acb17b370ec7e010409644df0e" target="_top" xlink:title=" ">
<polygon fill="white" stroke="#666666" points="692,-139 486,-139 486,-98 692,-98 692,-139"/>
<text text-anchor="start" x="494" y="-127" font-family="Helvetica,sans-Serif" font-size="10.00">Terraria.GameContent.Item</text>
<text text-anchor="start" x="494" y="-116" font-family="Helvetica,sans-Serif" font-size="10.00">DropRules.ItemDropDatabase.Register</text>
<text text-anchor="middle" x="589" y="-105" font-family="Helvetica,sans-Serif" font-size="10.00">Boss_KingSlime</text>
</a>
</g>
</g>
<!-- Node1&#45;&gt;Node5 -->
<g id="edge4_Node000001_Node000005" class="edge">
<title>Node1&#45;&gt;Node5</title>
<g id="a_edge4_Node000001_Node000005"><a xlink:title=" ">
<path fill="none" stroke="#63b8ff" d="M717.63,-118.5C709.22,-118.5 700.72,-118.5 692.33,-118.5"/>
<polygon fill="#63b8ff" stroke="#63b8ff" points="717.85,-122 727.85,-118.5 717.85,-115 717.85,-122"/>
</a>
</g>
</g>
<!-- Node7 -->
<g id="Node000007" class="node">
<title>Node7</title>
<g id="a_Node000007"><a xlink:href="../../da/d96/classTerraria_1_1GameContent_1_1ItemDropRules_1_1ItemDropDatabase_abf372c39a0f35a40a46352332d3b63ff.html#abf372c39a0f35a40a46352332d3b63ff" target="_top" xlink:title=" ">
<polygon fill="white" stroke="#666666" points="692,-80 486,-80 486,-39 692,-39 692,-80"/>
<text text-anchor="start" x="494" y="-68" font-family="Helvetica,sans-Serif" font-size="10.00">Terraria.GameContent.Item</text>
<text text-anchor="start" x="494" y="-57" font-family="Helvetica,sans-Serif" font-size="10.00">DropRules.ItemDropDatabase.Register</text>
<text text-anchor="middle" x="589" y="-46" font-family="Helvetica,sans-Serif" font-size="10.00">Boss_QueenSlime</text>
</a>
</g>
</g>
<!-- Node1&#45;&gt;Node7 -->
<g id="edge7_Node000001_Node000007" class="edge">
<title>Node1&#45;&gt;Node7</title>
<g id="a_edge7_Node000001_Node000007"><a xlink:title=" ">
<path fill="none" stroke="#63b8ff" d="M732.39,-95.48C712.29,-90.4 691.13,-85.05 671.44,-80.08"/>
<polygon fill="#63b8ff" stroke="#63b8ff" points="731.61,-98.89 742.16,-97.95 733.32,-92.1 731.61,-98.89"/>
</a>
</g>
</g>
<!-- Node8 -->
<g id="Node000008" class="node">
<title>Node8</title>
<g id="a_Node000008"><a xlink:href="../../da/d96/classTerraria_1_1GameContent_1_1ItemDropRules_1_1ItemDropDatabase_a24a802f5d3355f20af6ef7e4543e32a1.html#a24a802f5d3355f20af6ef7e4543e32a1" target="_top" xlink:title=" ">
<polygon fill="white" stroke="#666666" points="450,-41 244,-41 244,0 450,0 450,-41"/>
<text text-anchor="start" x="252" y="-29" font-family="Helvetica,sans-Serif" font-size="10.00">Terraria.GameContent.Item</text>
<text text-anchor="start" x="252" y="-18" font-family="Helvetica,sans-Serif" font-size="10.00">DropRules.ItemDropDatabase.Register</text>
<text text-anchor="middle" x="347" y="-7" font-family="Helvetica,sans-Serif" font-size="10.00">MiscDrops</text>
</a>
</g>
</g>
<!-- Node1&#45;&gt;Node8 -->
<g id="edge10_Node000001_Node000008" class="edge">
<title>Node1&#45;&gt;Node8</title>
<g id="a_edge10_Node000001_Node000008"><a xlink:title=" ">
<path fill="none" stroke="#63b8ff" d="M793.77,-91C768.72,-69.76 730.84,-41.97 692,-29.5 613.64,-4.35 520.01,-3.66 450.23,-8.39"/>
<polygon fill="#63b8ff" stroke="#63b8ff" points="791.58,-93.73 801.44,-97.63 796.17,-88.44 791.58,-93.73"/>
</a>
</g>
</g>
<!-- Node2&#45;&gt;Node3 -->
<g id="edge2_Node000002_Node000003" class="edge">
<title>Node2&#45;&gt;Node3</title>
<g id="a_edge2_Node000002_Node000003"><a xlink:title=" ">
<path fill="none" stroke="#63b8ff" d="M484.85,-195.44C472.84,-192.99 460.61,-190.49 448.64,-188.05"/>
<polygon fill="#63b8ff" stroke="#63b8ff" points="484.37,-198.91 494.87,-197.49 485.77,-192.06 484.37,-198.91"/>
</a>
</g>
</g>
<!-- Node4 -->
<g id="Node000004" class="node">
<title>Node4</title>
<g id="a_Node000004"><a xlink:href="../../da/d96/classTerraria_1_1GameContent_1_1ItemDropRules_1_1ItemDropDatabase_a16698a157a1f741b09cb2604d78bce95.html#a16698a157a1f741b09cb2604d78bce95" target="_top" xlink:title=" ">
<polygon fill="white" stroke="#666666" points="208,-113.5 0,-113.5 0,-83.5 208,-83.5 208,-113.5"/>
<text text-anchor="start" x="8" y="-101.5" font-family="Helvetica,sans-Serif" font-size="10.00">Terraria.GameContent.Item</text>
<text text-anchor="middle" x="104" y="-90.5" font-family="Helvetica,sans-Serif" font-size="10.00">DropRules.ItemDropDatabase.Populate</text>
</a>
</g>
</g>
<!-- Node3&#45;&gt;Node4 -->
<g id="edge3_Node000003_Node000004" class="edge">
<title>Node3&#45;&gt;Node4</title>
<g id="a_edge3_Node000003_Node000004"><a xlink:title=" ">
<path fill="none" stroke="#63b8ff" d="M264.53,-144.17C229.22,-134.07 188.9,-122.52 157.63,-113.57"/>
<polygon fill="#63b8ff" stroke="#63b8ff" points="263.77,-147.6 274.34,-146.98 265.69,-140.87 263.77,-147.6"/>
</a>
</g>
</g>
<!-- Node6 -->
<g id="Node000006" class="node">
<title>Node6</title>
<g id="a_Node000006"><a xlink:href="../../da/d96/classTerraria_1_1GameContent_1_1ItemDropRules_1_1ItemDropDatabase_a78aaea5aef7e16eeb59aa2ef4796d5c9.html#a78aaea5aef7e16eeb59aa2ef4796d5c9" target="_top" xlink:title=" ">
<polygon fill="white" stroke="#666666" points="450,-119 244,-119 244,-78 450,-78 450,-119"/>
<text text-anchor="start" x="252" y="-107" font-family="Helvetica,sans-Serif" font-size="10.00">Terraria.GameContent.Item</text>
<text text-anchor="start" x="252" y="-96" font-family="Helvetica,sans-Serif" font-size="10.00">DropRules.ItemDropDatabase.Register</text>
<text text-anchor="middle" x="347" y="-85" font-family="Helvetica,sans-Serif" font-size="10.00">Bosses</text>
</a>
</g>
</g>
<!-- Node5&#45;&gt;Node6 -->
<g id="edge5_Node000005_Node000006" class="edge">
<title>Node5&#45;&gt;Node6</title>
<g id="a_edge5_Node000005_Node000006"><a xlink:title=" ">
<path fill="none" stroke="#63b8ff" d="M475.81,-109.15C467.22,-108.43 458.57,-107.71 450.04,-107"/>
<polygon fill="#63b8ff" stroke="#63b8ff" points="475.61,-112.65 485.87,-109.99 476.2,-105.67 475.61,-112.65"/>
</a>
</g>
</g>
<!-- Node6&#45;&gt;Node4 -->
<g id="edge6_Node000006_Node000004" class="edge">
<title>Node6&#45;&gt;Node4</title>
<g id="a_edge6_Node000006_Node000004"><a xlink:title=" ">
<path fill="none" stroke="#63b8ff" d="M233.79,-98.5C225.24,-98.5 216.63,-98.5 208.13,-98.5"/>
<polygon fill="#63b8ff" stroke="#63b8ff" points="233.79,-102 243.79,-98.5 233.79,-95 233.79,-102"/>
</a>
</g>
</g>
<!-- Node7&#45;&gt;Node6 -->
<g id="edge8_Node000007_Node000006" class="edge">
<title>Node7&#45;&gt;Node6</title>
<g id="a_edge8_Node000007_Node000006"><a xlink:title=" ">
<path fill="none" stroke="#63b8ff" d="M475.81,-77.73C467.22,-79.13 458.57,-80.53 450.04,-81.92"/>
<polygon fill="#63b8ff" stroke="#63b8ff" points="476.56,-81.15 485.87,-76.1 475.44,-74.25 476.56,-81.15"/>
</a>
</g>
</g>
<!-- Node8&#45;&gt;Node4 -->
<g id="edge11_Node000008_Node000004" class="edge">
<title>Node8&#45;&gt;Node4</title>
<g id="a_edge11_Node000008_Node000004"><a xlink:title=" ">
<path fill="none" stroke="#63b8ff" d="M272.53,-44.28C233.1,-57.04 185.71,-72.38 151.4,-83.48"/>
<polygon fill="#63b8ff" stroke="#63b8ff" points="273.93,-47.5 282.36,-41.1 271.77,-40.84 273.93,-47.5"/>
</a>
</g>
</g>
</g>
</svg>
