<?xml version="1.0" encoding="UTF-8" standalone="no"?>
<!DOCTYPE svg PUBLIC "-//W3C//DTD SVG 1.1//EN"
 "http://www.w3.org/Graphics/SVG/1.1/DTD/svg11.dtd">
<!-- Generated by graphviz version 2.43.0 (0)
 -->
<!-- Title: Terraria.GameContent.RGB.CultistShader Pages: 1 -->
<svg width="182pt" height="601pt"
 viewBox="0.00 0.00 182.00 601.00" xmlns="http://www.w3.org/2000/svg" xmlns:xlink="http://www.w3.org/1999/xlink">
<g id="graph0" class="graph" transform="scale(1 1) rotate(0) translate(4 597)">
<title>Terraria.GameContent.RGB.CultistShader</title>
<!-- Node1 -->
<g id="Node000001" class="node">
<title>Node1</title>
<g id="a_Node000001"><a xlink:title=" ">
<polygon fill="#999999" stroke="transparent" points="169,-260 5,-260 5,0 169,0 169,-260"/>
<text text-anchor="start" x="19.5" y="-248" font-family="Helvetica,sans-Serif" font-size="10.00">Terraria.GameContent.RGB.</text>
<text text-anchor="start" x="54" y="-237" font-family="Helvetica,sans-Serif" font-size="10.00">CultistShader</text>
<text text-anchor="start" x="9" y="-222" font-family="Helvetica,sans-Serif" font-size="10.00">&#45;</text>
<text text-anchor="start" x="17" y="-222" font-family="Helvetica,sans-Serif" font-size="10.00">readonly Vector4 _lightning</text>
<text text-anchor="start" x="17" y="-211" font-family="Helvetica,sans-Serif" font-size="10.00">DarkColor</text>
<text text-anchor="start" x="9" y="-196" font-family="Helvetica,sans-Serif" font-size="10.00">&#45;</text>
<text text-anchor="start" x="17" y="-196" font-family="Helvetica,sans-Serif" font-size="10.00">readonly Vector4 _lightning</text>
<text text-anchor="start" x="17" y="-185" font-family="Helvetica,sans-Serif" font-size="10.00">BrightColor</text>
<text text-anchor="start" x="9" y="-170" font-family="Helvetica,sans-Serif" font-size="10.00">&#45;</text>
<text text-anchor="start" x="17" y="-170" font-family="Helvetica,sans-Serif" font-size="10.00">readonly Vector4 _fireDark</text>
<text text-anchor="start" x="17" y="-159" font-family="Helvetica,sans-Serif" font-size="10.00">Color</text>
<text text-anchor="start" x="9" y="-144" font-family="Helvetica,sans-Serif" font-size="10.00">&#45;</text>
<text text-anchor="start" x="17" y="-144" font-family="Helvetica,sans-Serif" font-size="10.00">readonly Vector4 _fireBright</text>
<text text-anchor="start" x="17" y="-133" font-family="Helvetica,sans-Serif" font-size="10.00">Color</text>
<text text-anchor="start" x="9" y="-118" font-family="Helvetica,sans-Serif" font-size="10.00">&#45;</text>
<text text-anchor="start" x="17" y="-118" font-family="Helvetica,sans-Serif" font-size="10.00">readonly Vector4 _iceDark</text>
<text text-anchor="start" x="17" y="-107" font-family="Helvetica,sans-Serif" font-size="10.00">Color</text>
<text text-anchor="start" x="9" y="-92" font-family="Helvetica,sans-Serif" font-size="10.00">&#45;</text>
<text text-anchor="start" x="17" y="-92" font-family="Helvetica,sans-Serif" font-size="10.00">readonly Vector4 _iceBright</text>
<text text-anchor="start" x="17" y="-81" font-family="Helvetica,sans-Serif" font-size="10.00">Color</text>
<text text-anchor="start" x="9" y="-66" font-family="Helvetica,sans-Serif" font-size="10.00">&#45;</text>
<text text-anchor="start" x="17" y="-66" font-family="Helvetica,sans-Serif" font-size="10.00">readonly Vector4 _background</text>
<text text-anchor="start" x="17" y="-55" font-family="Helvetica,sans-Serif" font-size="10.00">Color</text>
<text text-anchor="start" x="9" y="-40" font-family="Helvetica,sans-Serif" font-size="10.00">&#45;</text>
<text text-anchor="start" x="17" y="-40" font-family="Helvetica,sans-Serif" font-size="10.00">void ProcessHighDetail</text>
<text text-anchor="start" x="17" y="-29" font-family="Helvetica,sans-Serif" font-size="10.00">(RgbDevice device, Fragment</text>
<text text-anchor="start" x="17" y="-18" font-family="Helvetica,sans-Serif" font-size="10.00"> fragment, EffectDetailLevel</text>
<text text-anchor="start" x="17" y="-7" font-family="Helvetica,sans-Serif" font-size="10.00"> quality, float time)</text>
<polygon fill="#666666" stroke="#666666" points="5,-232 5,-232 169,-232 169,-232 5,-232"/>
<polygon fill="#666666" stroke="#666666" points="5,-50 5,-50 15,-50 15,-50 5,-50"/>
<polygon fill="#666666" stroke="#666666" points="15,-50 15,-50 169,-50 169,-50 15,-50"/>
<polygon fill="none" stroke="#666666" points="5,0 5,-260 169,-260 169,0 5,0"/>
</a>
</g>
</g>
<!-- Node2 -->
<g id="Node000002" class="node">
<title>Node2</title>
<g id="a_Node000002"><a xlink:href="../../d0/dff/classReLogic_1_1Peripherals_1_1RGB_1_1ChromaShader.html" target="_top" xlink:title=" ">
<polygon fill="white" stroke="transparent" points="174,-593 0,-593 0,-296 174,-296 174,-593"/>
<text text-anchor="start" x="50.5" y="-580.5" font-family="Helvetica,sans-Serif" font-size="10.00">ChromaShader</text>
<text text-anchor="start" x="4" y="-565.5" font-family="Helvetica,sans-Serif" font-size="10.00">+</text>
<text text-anchor="start" x="17" y="-565.5" font-family="Helvetica,sans-Serif" font-size="10.00">readonly bool Transparent</text>
<text text-anchor="start" x="17" y="-554.5" font-family="Helvetica,sans-Serif" font-size="10.00">AtAnyDetailLevel</text>
<text text-anchor="start" x="6.5" y="-539.5" font-family="Helvetica,sans-Serif" font-size="10.00">&#45;</text>
<text text-anchor="start" x="17" y="-539.5" font-family="Helvetica,sans-Serif" font-size="10.00">readonly List&lt; BoundProcessor</text>
<text text-anchor="start" x="17" y="-528.5" font-family="Helvetica,sans-Serif" font-size="10.00"> &gt; _processors</text>
<text text-anchor="start" x="4" y="-513.5" font-family="Helvetica,sans-Serif" font-size="10.00">+</text>
<text text-anchor="start" x="17" y="-513.5" font-family="Helvetica,sans-Serif" font-size="10.00">delegate void Processor</text>
<text text-anchor="start" x="17" y="-502.5" font-family="Helvetica,sans-Serif" font-size="10.00">(RgbDevice device, Fragment</text>
<text text-anchor="start" x="17" y="-491.5" font-family="Helvetica,sans-Serif" font-size="10.00"> fragment, EffectDetailLevel</text>
<text text-anchor="start" x="17" y="-480.5" font-family="Helvetica,sans-Serif" font-size="10.00"> quality, float time)</text>
<text text-anchor="start" x="4" y="-465.5" font-family="Helvetica,sans-Serif" font-size="10.00">+</text>
<text text-anchor="start" x="17" y="-465.5" font-family="Helvetica,sans-Serif" font-size="10.00">virtual bool IsTransparent</text>
<text text-anchor="start" x="17" y="-454.5" font-family="Helvetica,sans-Serif" font-size="10.00">At(EffectDetailLevel quality)</text>
<text text-anchor="start" x="4" y="-439.5" font-family="Helvetica,sans-Serif" font-size="10.00">+</text>
<text text-anchor="start" x="17" y="-439.5" font-family="Helvetica,sans-Serif" font-size="10.00">virtual void Update</text>
<text text-anchor="start" x="17" y="-428.5" font-family="Helvetica,sans-Serif" font-size="10.00">(float elapsedTime)</text>
<text text-anchor="start" x="4" y="-413.5" font-family="Helvetica,sans-Serif" font-size="10.00">+</text>
<text text-anchor="start" x="17" y="-413.5" font-family="Helvetica,sans-Serif" font-size="10.00">virtual void Process</text>
<text text-anchor="start" x="17" y="-402.5" font-family="Helvetica,sans-Serif" font-size="10.00">(RgbDevice device, Fragment</text>
<text text-anchor="start" x="17" y="-391.5" font-family="Helvetica,sans-Serif" font-size="10.00"> fragment, EffectDetailLevel</text>
<text text-anchor="start" x="17" y="-380.5" font-family="Helvetica,sans-Serif" font-size="10.00"> quality, float time)</text>
<text text-anchor="start" x="4" y="-365.5" font-family="Helvetica,sans-Serif" font-size="10.00">#</text>
<text text-anchor="start" x="17" y="-365.5" font-family="Helvetica,sans-Serif" font-size="10.00">ChromaShader()</text>
<text text-anchor="start" x="6.5" y="-350.5" font-family="Helvetica,sans-Serif" font-size="10.00">&#45;</text>
<text text-anchor="start" x="17" y="-350.5" font-family="Helvetica,sans-Serif" font-size="10.00">void BindProcessors()</text>
<text text-anchor="start" x="6.5" y="-335.5" font-family="Helvetica,sans-Serif" font-size="10.00">&#45;</text>
<text text-anchor="start" x="17" y="-335.5" font-family="Helvetica,sans-Serif" font-size="10.00">void BindProcessor</text>
<text text-anchor="start" x="17" y="-324.5" font-family="Helvetica,sans-Serif" font-size="10.00">(Processor processor,</text>
<text text-anchor="start" x="17" y="-313.5" font-family="Helvetica,sans-Serif" font-size="10.00"> RgbProcessorAttribute</text>
<text text-anchor="start" x="17" y="-302.5" font-family="Helvetica,sans-Serif" font-size="10.00"> attribute)</text>
<polygon fill="#666666" stroke="#666666" points="0,-575.5 0,-575.5 174,-575.5 174,-575.5 0,-575.5"/>
<polygon fill="#666666" stroke="#666666" points="0,-523.5 0,-523.5 15,-523.5 15,-523.5 0,-523.5"/>
<polygon fill="#666666" stroke="#666666" points="15,-523.5 15,-523.5 174,-523.5 174,-523.5 15,-523.5"/>
<polygon fill="none" stroke="#666666" points="0,-296 0,-593 174,-593 174,-296 0,-296"/>
</a>
</g>
</g>
<!-- Node2&#45;&gt;Node1 -->
<g id="edge1_Node000001_Node000002" class="edge">
<title>Node2&#45;&gt;Node1</title>
<g id="a_edge1_Node000001_Node000002"><a xlink:title=" ">
<path fill="none" stroke="#63b8ff" d="M87,-285.93C87,-277.4 87,-268.88 87,-260.46"/>
<polygon fill="none" stroke="#63b8ff" points="83.5,-285.94 87,-295.94 90.5,-285.94 83.5,-285.94"/>
</a>
</g>
</g>
</g>
</svg>
