<?xml version="1.0" encoding="UTF-8" standalone="no"?>
<!DOCTYPE svg PUBLIC "-//W3C//DTD SVG 1.1//EN"
 "http://www.w3.org/Graphics/SVG/1.1/DTD/svg11.dtd">
<!-- Generated by graphviz version 2.43.0 (0)
 -->
<!-- Title: Terraria.Graphics.VertexStrip.DrawTrail Pages: 1 -->
<svg width="344pt" height="278pt"
 viewBox="0.00 0.00 344.00 278.00" xmlns="http://www.w3.org/2000/svg" xmlns:xlink="http://www.w3.org/1999/xlink">
<g id="graph0" class="graph" transform="scale(1 1) rotate(0) translate(4 274)">
<title>Terraria.Graphics.VertexStrip.DrawTrail</title>
<!-- Node1 -->
<g id="Node000001" class="node">
<title>Node1</title>
<g id="a_Node000001"><a xlink:title=" ">
<polygon fill="#999999" stroke="#666666" points="336,-150 202,-150 202,-120 336,-120 336,-150"/>
<text text-anchor="start" x="210" y="-138" font-family="Helvetica,sans-Serif" font-size="10.00">Terraria.Graphics.Vertex</text>
<text text-anchor="middle" x="269" y="-127" font-family="Helvetica,sans-Serif" font-size="10.00">Strip.DrawTrail</text>
</a>
</g>
</g>
<!-- Node2 -->
<g id="Node000002" class="node">
<title>Node2</title>
<g id="a_Node000002"><a xlink:href="../../dc/d52/structTerraria_1_1Graphics_1_1EmpressBladeDrawer_afd30f6a6c03cf05c5898af03ab884c6b.html#afd30f6a6c03cf05c5898af03ab884c6b" target="_top" xlink:title=" ">
<polygon fill="white" stroke="#666666" points="155,-270 11,-270 11,-240 155,-240 155,-270"/>
<text text-anchor="start" x="19" y="-258" font-family="Helvetica,sans-Serif" font-size="10.00">Terraria.Graphics.Empress</text>
<text text-anchor="middle" x="83" y="-247" font-family="Helvetica,sans-Serif" font-size="10.00">BladeDrawer.Draw</text>
</a>
</g>
</g>
<!-- Node1&#45;&gt;Node2 -->
<g id="edge1_Node000001_Node000002" class="edge">
<title>Node1&#45;&gt;Node2</title>
<g id="a_edge1_Node000001_Node000002"><a xlink:title=" ">
<path fill="none" stroke="#63b8ff" d="M249.2,-158.11C230.32,-179.88 199.31,-211.93 166,-231 160.08,-234.39 153.64,-237.34 147.05,-239.89"/>
<polygon fill="#63b8ff" stroke="#63b8ff" points="252.02,-160.2 255.83,-150.32 246.68,-155.67 252.02,-160.2"/>
</a>
</g>
</g>
<!-- Node3 -->
<g id="Node000003" class="node">
<title>Node3</title>
<g id="a_Node000003"><a xlink:href="../../de/d15/structTerraria_1_1Graphics_1_1FinalFractalHelper_a9329d0e19a2df813c1beb67e54e93b55.html#a9329d0e19a2df813c1beb67e54e93b55" target="_top" xlink:title=" ">
<polygon fill="white" stroke="#666666" points="162,-222 4,-222 4,-192 162,-192 162,-222"/>
<text text-anchor="start" x="12" y="-210" font-family="Helvetica,sans-Serif" font-size="10.00">Terraria.Graphics.FinalFractal</text>
<text text-anchor="middle" x="83" y="-199" font-family="Helvetica,sans-Serif" font-size="10.00">Helper.Draw</text>
</a>
</g>
</g>
<!-- Node1&#45;&gt;Node3 -->
<g id="edge2_Node000001_Node000003" class="edge">
<title>Node1&#45;&gt;Node3</title>
<g id="a_edge2_Node000001_Node000003"><a xlink:title=" ">
<path fill="none" stroke="#63b8ff" d="M229.89,-154.66C210.97,-163.97 187.6,-174.81 166,-183 157.68,-186.15 148.75,-189.15 139.96,-191.88"/>
<polygon fill="#63b8ff" stroke="#63b8ff" points="231.67,-157.68 239.06,-150.09 228.55,-151.41 231.67,-157.68"/>
</a>
</g>
</g>
<!-- Node4 -->
<g id="Node000004" class="node">
<title>Node4</title>
<g id="a_Node000004"><a xlink:href="../../d8/dbe/structTerraria_1_1Graphics_1_1FlameLashDrawer_ade2fe4607873b6bd3040c095c0f8d7a8.html#ade2fe4607873b6bd3040c095c0f8d7a8" target="_top" xlink:title=" ">
<polygon fill="white" stroke="#666666" points="160.5,-174 5.5,-174 5.5,-144 160.5,-144 160.5,-174"/>
<text text-anchor="start" x="13.5" y="-162" font-family="Helvetica,sans-Serif" font-size="10.00">Terraria.Graphics.FlameLash</text>
<text text-anchor="middle" x="83" y="-151" font-family="Helvetica,sans-Serif" font-size="10.00">Drawer.Draw</text>
</a>
</g>
</g>
<!-- Node1&#45;&gt;Node4 -->
<g id="edge3_Node000001_Node000004" class="edge">
<title>Node1&#45;&gt;Node4</title>
<g id="a_edge3_Node000001_Node000004"><a xlink:title=" ">
<path fill="none" stroke="#63b8ff" d="M191.66,-144.96C181.37,-146.3 170.82,-147.68 160.53,-149.02"/>
<polygon fill="#63b8ff" stroke="#63b8ff" points="192.37,-148.39 201.83,-143.63 191.46,-141.45 192.37,-148.39"/>
</a>
</g>
</g>
<!-- Node5 -->
<g id="Node000005" class="node">
<title>Node5</title>
<g id="a_Node000005"><a xlink:href="../../dd/db7/structTerraria_1_1Graphics_1_1LightDiscDrawer_afaec7134b08d8d0d2c0d11715753d587.html#afaec7134b08d8d0d2c0d11715753d587" target="_top" xlink:title=" ">
<polygon fill="white" stroke="#666666" points="156.5,-126 9.5,-126 9.5,-96 156.5,-96 156.5,-126"/>
<text text-anchor="start" x="17.5" y="-114" font-family="Helvetica,sans-Serif" font-size="10.00">Terraria.Graphics.LightDisc</text>
<text text-anchor="middle" x="83" y="-103" font-family="Helvetica,sans-Serif" font-size="10.00">Drawer.Draw</text>
</a>
</g>
</g>
<!-- Node1&#45;&gt;Node5 -->
<g id="edge4_Node000001_Node000005" class="edge">
<title>Node1&#45;&gt;Node5</title>
<g id="a_edge4_Node000001_Node000005"><a xlink:title=" ">
<path fill="none" stroke="#63b8ff" d="M191.76,-125.06C180.18,-123.55 168.25,-121.99 156.75,-120.49"/>
<polygon fill="#63b8ff" stroke="#63b8ff" points="191.46,-128.55 201.83,-126.37 192.37,-121.61 191.46,-128.55"/>
</a>
</g>
</g>
<!-- Node6 -->
<g id="Node000006" class="node">
<title>Node6</title>
<g id="a_Node000006"><a xlink:href="../../db/d19/structTerraria_1_1Graphics_1_1MagicMissileDrawer_ad78d3c58251d7cfb17cb43040944587b.html#ad78d3c58251d7cfb17cb43040944587b" target="_top" xlink:title=" ">
<polygon fill="white" stroke="#666666" points="166,-78 0,-78 0,-48 166,-48 166,-78"/>
<text text-anchor="start" x="8" y="-66" font-family="Helvetica,sans-Serif" font-size="10.00">Terraria.Graphics.MagicMissile</text>
<text text-anchor="middle" x="83" y="-55" font-family="Helvetica,sans-Serif" font-size="10.00">Drawer.Draw</text>
</a>
</g>
</g>
<!-- Node1&#45;&gt;Node6 -->
<g id="edge5_Node000001_Node000006" class="edge">
<title>Node1&#45;&gt;Node6</title>
<g id="a_edge5_Node000001_Node000006"><a xlink:title=" ">
<path fill="none" stroke="#63b8ff" d="M229.89,-115.34C210.97,-106.03 187.6,-95.19 166,-87 157.68,-83.85 148.75,-80.85 139.96,-78.12"/>
<polygon fill="#63b8ff" stroke="#63b8ff" points="228.55,-118.59 239.06,-119.91 231.67,-112.32 228.55,-118.59"/>
</a>
</g>
</g>
<!-- Node7 -->
<g id="Node000007" class="node">
<title>Node7</title>
<g id="a_Node000007"><a xlink:href="../../d1/dc2/structTerraria_1_1Graphics_1_1RainbowRodDrawer_a5ef515cd2a076fbb5eef1f6c4e64525b.html#a5ef515cd2a076fbb5eef1f6c4e64525b" target="_top" xlink:title=" ">
<polygon fill="white" stroke="#666666" points="155,-30 11,-30 11,0 155,0 155,-30"/>
<text text-anchor="start" x="19" y="-18" font-family="Helvetica,sans-Serif" font-size="10.00">Terraria.Graphics.Rainbow</text>
<text text-anchor="middle" x="83" y="-7" font-family="Helvetica,sans-Serif" font-size="10.00">RodDrawer.Draw</text>
</a>
</g>
</g>
<!-- Node1&#45;&gt;Node7 -->
<g id="edge6_Node000001_Node000007" class="edge">
<title>Node1&#45;&gt;Node7</title>
<g id="a_edge6_Node000001_Node000007"><a xlink:title=" ">
<path fill="none" stroke="#63b8ff" d="M249.2,-111.89C230.32,-90.12 199.31,-58.07 166,-39 160.08,-35.61 153.64,-32.66 147.05,-30.11"/>
<polygon fill="#63b8ff" stroke="#63b8ff" points="246.68,-114.33 255.83,-119.68 252.02,-109.8 246.68,-114.33"/>
</a>
</g>
</g>
</g>
</svg>
