<?xml version="1.0" encoding="UTF-8" standalone="no"?>
<!DOCTYPE svg PUBLIC "-//W3C//DTD SVG 1.1//EN"
 "http://www.w3.org/Graphics/SVG/1.1/DTD/svg11.dtd">
<!-- Generated by graphviz version 2.43.0 (0)
 -->
<!-- Title: Terraria.GameContent.RGB.DD2Shader Pages: 1 -->
<svg width="182pt" height="497pt"
 viewBox="0.00 0.00 182.00 497.00" xmlns="http://www.w3.org/2000/svg" xmlns:xlink="http://www.w3.org/1999/xlink">
<g id="graph0" class="graph" transform="scale(1 1) rotate(0) translate(4 493)">
<title>Terraria.GameContent.RGB.DD2Shader</title>
<!-- Node1 -->
<g id="Node000001" class="node">
<title>Node1</title>
<g id="a_Node000001"><a xlink:title=" ">
<polygon fill="#999999" stroke="transparent" points="170,-156 4,-156 4,0 170,0 170,-156"/>
<text text-anchor="start" x="19.5" y="-144" font-family="Helvetica,sans-Serif" font-size="10.00">Terraria.GameContent.RGB.</text>
<text text-anchor="start" x="59.5" y="-133" font-family="Helvetica,sans-Serif" font-size="10.00">DD2Shader</text>
<text text-anchor="start" x="10.5" y="-118" font-family="Helvetica,sans-Serif" font-size="10.00">&#45;</text>
<text text-anchor="start" x="21" y="-118" font-family="Helvetica,sans-Serif" font-size="10.00">readonly Vector4 _darkGlow</text>
<text text-anchor="start" x="21" y="-107" font-family="Helvetica,sans-Serif" font-size="10.00">Color</text>
<text text-anchor="start" x="10.5" y="-92" font-family="Helvetica,sans-Serif" font-size="10.00">&#45;</text>
<text text-anchor="start" x="21" y="-92" font-family="Helvetica,sans-Serif" font-size="10.00">readonly Vector4 _lightGlow</text>
<text text-anchor="start" x="21" y="-81" font-family="Helvetica,sans-Serif" font-size="10.00">Color</text>
<text text-anchor="start" x="8" y="-66" font-family="Helvetica,sans-Serif" font-size="10.00">+</text>
<text text-anchor="start" x="21" y="-66" font-family="Helvetica,sans-Serif" font-size="10.00">DD2Shader(Color darkGlow</text>
<text text-anchor="start" x="21" y="-55" font-family="Helvetica,sans-Serif" font-size="10.00">Color, Color lightGlowColor)</text>
<text text-anchor="start" x="10.5" y="-40" font-family="Helvetica,sans-Serif" font-size="10.00">&#45;</text>
<text text-anchor="start" x="21" y="-40" font-family="Helvetica,sans-Serif" font-size="10.00">void ProcessHighDetail</text>
<text text-anchor="start" x="21" y="-29" font-family="Helvetica,sans-Serif" font-size="10.00">(RgbDevice device, Fragment</text>
<text text-anchor="start" x="21" y="-18" font-family="Helvetica,sans-Serif" font-size="10.00"> fragment, EffectDetailLevel</text>
<text text-anchor="start" x="21" y="-7" font-family="Helvetica,sans-Serif" font-size="10.00"> quality, float time)</text>
<polygon fill="#666666" stroke="#666666" points="4,-128 4,-128 170,-128 170,-128 4,-128"/>
<polygon fill="#666666" stroke="#666666" points="4,-76 4,-76 19,-76 19,-76 4,-76"/>
<polygon fill="#666666" stroke="#666666" points="19,-76 19,-76 170,-76 170,-76 19,-76"/>
<polygon fill="none" stroke="#666666" points="4,0 4,-156 170,-156 170,0 4,0"/>
</a>
</g>
</g>
<!-- Node2 -->
<g id="Node000002" class="node">
<title>Node2</title>
<g id="a_Node000002"><a xlink:href="../../d0/dff/classReLogic_1_1Peripherals_1_1RGB_1_1ChromaShader.html" target="_top" xlink:title=" ">
<polygon fill="white" stroke="transparent" points="174,-489 0,-489 0,-192 174,-192 174,-489"/>
<text text-anchor="start" x="50.5" y="-476.5" font-family="Helvetica,sans-Serif" font-size="10.00">ChromaShader</text>
<text text-anchor="start" x="4" y="-461.5" font-family="Helvetica,sans-Serif" font-size="10.00">+</text>
<text text-anchor="start" x="17" y="-461.5" font-family="Helvetica,sans-Serif" font-size="10.00">readonly bool Transparent</text>
<text text-anchor="start" x="17" y="-450.5" font-family="Helvetica,sans-Serif" font-size="10.00">AtAnyDetailLevel</text>
<text text-anchor="start" x="6.5" y="-435.5" font-family="Helvetica,sans-Serif" font-size="10.00">&#45;</text>
<text text-anchor="start" x="17" y="-435.5" font-family="Helvetica,sans-Serif" font-size="10.00">readonly List&lt; BoundProcessor</text>
<text text-anchor="start" x="17" y="-424.5" font-family="Helvetica,sans-Serif" font-size="10.00"> &gt; _processors</text>
<text text-anchor="start" x="4" y="-409.5" font-family="Helvetica,sans-Serif" font-size="10.00">+</text>
<text text-anchor="start" x="17" y="-409.5" font-family="Helvetica,sans-Serif" font-size="10.00">delegate void Processor</text>
<text text-anchor="start" x="17" y="-398.5" font-family="Helvetica,sans-Serif" font-size="10.00">(RgbDevice device, Fragment</text>
<text text-anchor="start" x="17" y="-387.5" font-family="Helvetica,sans-Serif" font-size="10.00"> fragment, EffectDetailLevel</text>
<text text-anchor="start" x="17" y="-376.5" font-family="Helvetica,sans-Serif" font-size="10.00"> quality, float time)</text>
<text text-anchor="start" x="4" y="-361.5" font-family="Helvetica,sans-Serif" font-size="10.00">+</text>
<text text-anchor="start" x="17" y="-361.5" font-family="Helvetica,sans-Serif" font-size="10.00">virtual bool IsTransparent</text>
<text text-anchor="start" x="17" y="-350.5" font-family="Helvetica,sans-Serif" font-size="10.00">At(EffectDetailLevel quality)</text>
<text text-anchor="start" x="4" y="-335.5" font-family="Helvetica,sans-Serif" font-size="10.00">+</text>
<text text-anchor="start" x="17" y="-335.5" font-family="Helvetica,sans-Serif" font-size="10.00">virtual void Update</text>
<text text-anchor="start" x="17" y="-324.5" font-family="Helvetica,sans-Serif" font-size="10.00">(float elapsedTime)</text>
<text text-anchor="start" x="4" y="-309.5" font-family="Helvetica,sans-Serif" font-size="10.00">+</text>
<text text-anchor="start" x="17" y="-309.5" font-family="Helvetica,sans-Serif" font-size="10.00">virtual void Process</text>
<text text-anchor="start" x="17" y="-298.5" font-family="Helvetica,sans-Serif" font-size="10.00">(RgbDevice device, Fragment</text>
<text text-anchor="start" x="17" y="-287.5" font-family="Helvetica,sans-Serif" font-size="10.00"> fragment, EffectDetailLevel</text>
<text text-anchor="start" x="17" y="-276.5" font-family="Helvetica,sans-Serif" font-size="10.00"> quality, float time)</text>
<text text-anchor="start" x="4" y="-261.5" font-family="Helvetica,sans-Serif" font-size="10.00">#</text>
<text text-anchor="start" x="17" y="-261.5" font-family="Helvetica,sans-Serif" font-size="10.00">ChromaShader()</text>
<text text-anchor="start" x="6.5" y="-246.5" font-family="Helvetica,sans-Serif" font-size="10.00">&#45;</text>
<text text-anchor="start" x="17" y="-246.5" font-family="Helvetica,sans-Serif" font-size="10.00">void BindProcessors()</text>
<text text-anchor="start" x="6.5" y="-231.5" font-family="Helvetica,sans-Serif" font-size="10.00">&#45;</text>
<text text-anchor="start" x="17" y="-231.5" font-family="Helvetica,sans-Serif" font-size="10.00">void BindProcessor</text>
<text text-anchor="start" x="17" y="-220.5" font-family="Helvetica,sans-Serif" font-size="10.00">(Processor processor,</text>
<text text-anchor="start" x="17" y="-209.5" font-family="Helvetica,sans-Serif" font-size="10.00"> RgbProcessorAttribute</text>
<text text-anchor="start" x="17" y="-198.5" font-family="Helvetica,sans-Serif" font-size="10.00"> attribute)</text>
<polygon fill="#666666" stroke="#666666" points="0,-471.5 0,-471.5 174,-471.5 174,-471.5 0,-471.5"/>
<polygon fill="#666666" stroke="#666666" points="0,-419.5 0,-419.5 15,-419.5 15,-419.5 0,-419.5"/>
<polygon fill="#666666" stroke="#666666" points="15,-419.5 15,-419.5 174,-419.5 174,-419.5 15,-419.5"/>
<polygon fill="none" stroke="#666666" points="0,-192 0,-489 174,-489 174,-192 0,-192"/>
</a>
</g>
</g>
<!-- Node2&#45;&gt;Node1 -->
<g id="edge1_Node000001_Node000002" class="edge">
<title>Node2&#45;&gt;Node1</title>
<g id="a_edge1_Node000001_Node000002"><a xlink:title=" ">
<path fill="none" stroke="#63b8ff" d="M87,-181.53C87,-172.89 87,-164.42 87,-156.29"/>
<polygon fill="none" stroke="#63b8ff" points="83.5,-181.74 87,-191.74 90.5,-181.74 83.5,-181.74"/>
</a>
</g>
</g>
</g>
</svg>
