<?xml version="1.0" encoding="UTF-8" standalone="no"?>
<!DOCTYPE svg PUBLIC "-//W3C//DTD SVG 1.1//EN"
 "http://www.w3.org/Graphics/SVG/1.1/DTD/svg11.dtd">
<!-- Generated by graphviz version 2.43.0 (0)
 -->
<!-- Title: Terraria.GameContent.UI.Elements.UICharacterListItem.CloudMouseOver Pages: 1 -->
<svg width="982pt" height="190pt"
 viewBox="0.00 0.00 982.00 189.50" xmlns="http://www.w3.org/2000/svg" xmlns:xlink="http://www.w3.org/1999/xlink">
<g id="graph0" class="graph" transform="scale(1 1) rotate(0) translate(4 185.5)">
<title>Terraria.GameContent.UI.Elements.UICharacterListItem.CloudMouseOver</title>
<!-- Node1 -->
<g id="Node000001" class="node">
<title>Node1</title>
<g id="a_Node000001"><a xlink:title=" ">
<polygon fill="#999999" stroke="#666666" points="166,-121 0,-121 0,-80 166,-80 166,-121"/>
<text text-anchor="start" x="8" y="-109" font-family="Helvetica,sans-Serif" font-size="10.00">Terraria.GameContent.UI.</text>
<text text-anchor="start" x="8" y="-98" font-family="Helvetica,sans-Serif" font-size="10.00">Elements.UICharacterListItem.</text>
<text text-anchor="middle" x="83" y="-87" font-family="Helvetica,sans-Serif" font-size="10.00">CloudMouseOver</text>
</a>
</g>
</g>
<!-- Node2 -->
<g id="Node000002" class="node">
<title>Node2</title>
<g id="a_Node000002"><a xlink:href="../../d4/d8f/classTerraria_1_1Localization_1_1Language_ae4636a4800b9ecbaa498954520462f78.html#ae4636a4800b9ecbaa498954520462f78" target="_top" xlink:title=" ">
<polygon fill="white" stroke="#666666" points="370,-139.5 202,-139.5 202,-109.5 370,-109.5 370,-139.5"/>
<text text-anchor="start" x="210" y="-127.5" font-family="Helvetica,sans-Serif" font-size="10.00">Terraria.Localization.Language.</text>
<text text-anchor="middle" x="286" y="-116.5" font-family="Helvetica,sans-Serif" font-size="10.00">GetTextValue</text>
</a>
</g>
</g>
<!-- Node1&#45;&gt;Node2 -->
<g id="edge1_Node000001_Node000002" class="edge">
<title>Node1&#45;&gt;Node2</title>
<g id="a_edge1_Node000001_Node000002"><a xlink:title=" ">
<path fill="none" stroke="#63b8ff" d="M166.04,-110.3C174.55,-111.31 183.24,-112.35 191.85,-113.38"/>
<polygon fill="#63b8ff" stroke="#63b8ff" points="191.57,-116.87 201.91,-114.58 192.4,-109.92 191.57,-116.87"/>
</a>
</g>
</g>
<!-- Node4 -->
<g id="Node000004" class="node">
<title>Node4</title>
<g id="a_Node000004"><a xlink:href="../../df/da8/classTerraria_1_1GameContent_1_1UI_1_1Elements_1_1UIText_a3f27882b54715c7adb4e9859ec77c395.html#a3f27882b54715c7adb4e9859ec77c395" target="_top" xlink:title=" ">
<polygon fill="white" stroke="#666666" points="356,-91.5 216,-91.5 216,-61.5 356,-61.5 356,-91.5"/>
<text text-anchor="start" x="224" y="-79.5" font-family="Helvetica,sans-Serif" font-size="10.00">Terraria.GameContent.UI.</text>
<text text-anchor="middle" x="286" y="-68.5" font-family="Helvetica,sans-Serif" font-size="10.00">Elements.UIText.SetText</text>
</a>
</g>
</g>
<!-- Node1&#45;&gt;Node4 -->
<g id="edge3_Node000001_Node000004" class="edge">
<title>Node1&#45;&gt;Node4</title>
<g id="a_edge3_Node000001_Node000004"><a xlink:title=" ">
<path fill="none" stroke="#63b8ff" d="M166.04,-90.7C179.06,-89.15 192.51,-87.54 205.47,-86"/>
<polygon fill="#63b8ff" stroke="#63b8ff" points="206.23,-89.43 215.74,-84.77 205.4,-82.48 206.23,-89.43"/>
</a>
</g>
</g>
<!-- Node3 -->
<g id="Node000003" class="node">
<title>Node3</title>
<g id="a_Node000003"><a xlink:href="../../d8/d74/classTerraria_1_1Localization_1_1LanguageManager_a9f1901e50105d9873d2fdf8816e122de.html#a9f1901e50105d9873d2fdf8816e122de" target="_top" xlink:title=" ">
<polygon fill="white" stroke="#666666" points="575,-139.5 410,-139.5 410,-109.5 575,-109.5 575,-139.5"/>
<text text-anchor="start" x="418" y="-127.5" font-family="Helvetica,sans-Serif" font-size="10.00">Terraria.Localization.Language</text>
<text text-anchor="middle" x="492.5" y="-116.5" font-family="Helvetica,sans-Serif" font-size="10.00">Manager.GetTextValue</text>
</a>
</g>
</g>
<!-- Node2&#45;&gt;Node3 -->
<g id="edge2_Node000002_Node000003" class="edge">
<title>Node2&#45;&gt;Node3</title>
<g id="a_edge2_Node000002_Node000003"><a xlink:title=" ">
<path fill="none" stroke="#63b8ff" d="M370.18,-124.5C379.86,-124.5 389.78,-124.5 399.58,-124.5"/>
<polygon fill="#63b8ff" stroke="#63b8ff" points="399.72,-128 409.72,-124.5 399.72,-121 399.72,-128"/>
</a>
</g>
</g>
<!-- Node5 -->
<g id="Node000005" class="node">
<title>Node5</title>
<g id="a_Node000005"><a xlink:href="../../df/da8/classTerraria_1_1GameContent_1_1UI_1_1Elements_1_1UIText_a6b38a5021c0225460c802dc8376d39ac.html#a6b38a5021c0225460c802dc8376d39ac" target="_top" xlink:title=" ">
<polygon fill="white" stroke="#666666" points="579,-91.5 406,-91.5 406,-61.5 579,-61.5 579,-91.5"/>
<text text-anchor="start" x="414" y="-79.5" font-family="Helvetica,sans-Serif" font-size="10.00">Terraria.GameContent.UI.</text>
<text text-anchor="middle" x="492.5" y="-68.5" font-family="Helvetica,sans-Serif" font-size="10.00">Elements.UIText.InternalSetText</text>
</a>
</g>
</g>
<!-- Node4&#45;&gt;Node5 -->
<g id="edge4_Node000004_Node000005" class="edge">
<title>Node4&#45;&gt;Node5</title>
<g id="a_edge4_Node000004_Node000005"><a xlink:title=" ">
<path fill="none" stroke="#63b8ff" d="M356.23,-76.5C368.88,-76.5 382.29,-76.5 395.55,-76.5"/>
<polygon fill="#63b8ff" stroke="#63b8ff" points="395.65,-80 405.65,-76.5 395.65,-73 395.65,-80"/>
</a>
</g>
</g>
<!-- Node6 -->
<g id="Node000006" class="node">
<title>Node6</title>
<g id="a_Node000006"><a xlink:href="../../d1/df5/classReLogic_1_1Graphics_1_1DynamicSpriteFont_a54aa9b0922188fe24854b32231ceae78.html#a54aa9b0922188fe24854b32231ceae78" target="_top" xlink:title=" ">
<polygon fill="white" stroke="#666666" points="780.5,-163.5 615.5,-163.5 615.5,-133.5 780.5,-133.5 780.5,-163.5"/>
<text text-anchor="start" x="623.5" y="-151.5" font-family="Helvetica,sans-Serif" font-size="10.00">ReLogic.Graphics.Dynamic</text>
<text text-anchor="middle" x="698" y="-140.5" font-family="Helvetica,sans-Serif" font-size="10.00">SpriteFont.CreateWrappedText</text>
</a>
</g>
</g>
<!-- Node5&#45;&gt;Node6 -->
<g id="edge5_Node000005_Node000006" class="edge">
<title>Node5&#45;&gt;Node6</title>
<g id="a_edge5_Node000005_Node000006"><a xlink:title=" ">
<path fill="none" stroke="#63b8ff" d="M555.97,-91.55C563.86,-94.17 571.72,-97.15 579,-100.5 596.47,-108.53 597.57,-116.37 615,-124.5 619.12,-126.42 623.43,-128.23 627.82,-129.92"/>
<polygon fill="#63b8ff" stroke="#63b8ff" points="626.94,-133.32 637.53,-133.43 629.32,-126.73 626.94,-133.32"/>
</a>
</g>
</g>
<!-- Node7 -->
<g id="Node000007" class="node">
<title>Node7</title>
<g id="a_Node000007"><a xlink:href="../../d7/d72/classTerraria_1_1UI_1_1UIElement_a5ad03f5ce0e776511a3b7e4a29e16caf.html#a5ad03f5ce0e776511a3b7e4a29e16caf" target="_top" xlink:title=" ">
<polygon fill="white" stroke="#666666" points="768.5,-115.5 627.5,-115.5 627.5,-85.5 768.5,-85.5 768.5,-115.5"/>
<text text-anchor="start" x="635.5" y="-103.5" font-family="Helvetica,sans-Serif" font-size="10.00">Terraria.UI.UIElement.Get</text>
<text text-anchor="middle" x="698" y="-92.5" font-family="Helvetica,sans-Serif" font-size="10.00">InnerDimensions</text>
</a>
</g>
</g>
<!-- Node5&#45;&gt;Node7 -->
<g id="edge7_Node000005_Node000007" class="edge">
<title>Node5&#45;&gt;Node7</title>
<g id="a_edge7_Node000005_Node000007"><a xlink:title=" ">
<path fill="none" stroke="#63b8ff" d="M579.21,-86.61C591.9,-88.1 604.92,-89.64 617.48,-91.12"/>
<polygon fill="#63b8ff" stroke="#63b8ff" points="617.08,-94.6 627.42,-92.29 617.9,-87.65 617.08,-94.6"/>
</a>
</g>
</g>
<!-- Node8 -->
<g id="Node000008" class="node">
<title>Node8</title>
<g id="a_Node000008"><a xlink:href="../../d1/df5/classReLogic_1_1Graphics_1_1DynamicSpriteFont_a49e4a12c0f6e26ca73b5c3d95d0197b2.html#a49e4a12c0f6e26ca73b5c3d95d0197b2" target="_top" xlink:title=" ">
<polygon fill="white" stroke="#666666" points="771.5,-67.5 624.5,-67.5 624.5,-37.5 771.5,-37.5 771.5,-67.5"/>
<text text-anchor="start" x="632.5" y="-55.5" font-family="Helvetica,sans-Serif" font-size="10.00">ReLogic.Graphics.Dynamic</text>
<text text-anchor="middle" x="698" y="-44.5" font-family="Helvetica,sans-Serif" font-size="10.00">SpriteFont.MeasureString</text>
</a>
</g>
</g>
<!-- Node5&#45;&gt;Node8 -->
<g id="edge8_Node000005_Node000008" class="edge">
<title>Node5&#45;&gt;Node8</title>
<g id="a_edge8_Node000005_Node000008"><a xlink:title=" ">
<path fill="none" stroke="#63b8ff" d="M579.21,-66.39C590.81,-65.02 602.69,-63.62 614.23,-62.26"/>
<polygon fill="#63b8ff" stroke="#63b8ff" points="614.74,-65.73 624.27,-61.08 613.92,-58.77 614.74,-65.73"/>
</a>
</g>
</g>
<!-- Node10 -->
<g id="Node000010" class="node">
<title>Node10</title>
<g id="a_Node000010"><a xlink:href="../../d8/d74/structTerraria_1_1UI_1_1StyleDimension_a93e6acf229427c6435d7ee83958efba0.html#a93e6acf229427c6435d7ee83958efba0" target="_top" xlink:title=" ">
<polygon fill="white" stroke="#666666" points="781,-19 615,-19 615,0 781,0 781,-19"/>
<text text-anchor="middle" x="698" y="-7" font-family="Helvetica,sans-Serif" font-size="10.00">Terraria.UI.StyleDimension.Set</text>
</a>
</g>
</g>
<!-- Node5&#45;&gt;Node10 -->
<g id="edge10_Node000005_Node000010" class="edge">
<title>Node5&#45;&gt;Node10</title>
<g id="a_edge10_Node000005_Node000010"><a xlink:title=" ">
<path fill="none" stroke="#63b8ff" d="M527.58,-61.46C551.67,-51.22 584.9,-37.88 615,-28.5 623.12,-25.97 631.79,-23.61 640.34,-21.47"/>
<polygon fill="#63b8ff" stroke="#63b8ff" points="641.38,-24.82 650.28,-19.06 639.73,-18.01 641.38,-24.82"/>
</a>
</g>
</g>
<!-- Node6&#45;&gt;Node6 -->
<g id="edge6_Node000006_Node000006" class="edge">
<title>Node6&#45;&gt;Node6</title>
<g id="a_edge6_Node000006_Node000006"><a xlink:title=" ">
<path fill="none" stroke="#63b8ff" d="M663.55,-163.78C655.89,-172.91 667.38,-181.5 698,-181.5 716.18,-181.5 727.62,-178.47 732.31,-174.1"/>
<polygon fill="#63b8ff" stroke="#63b8ff" points="735.81,-173.82 732.45,-163.78 728.81,-173.72 735.81,-173.82"/>
</a>
</g>
</g>
<!-- Node9 -->
<g id="Node000009" class="node">
<title>Node9</title>
<g id="a_Node000009"><a xlink:href="../../d1/df5/classReLogic_1_1Graphics_1_1DynamicSpriteFont_a9bd1064ef52867d336c09d84817f9e34.html#a9bd1064ef52867d336c09d84817f9e34" target="_top" xlink:title=" ">
<polygon fill="white" stroke="#666666" points="974,-67.5 817,-67.5 817,-37.5 974,-37.5 974,-67.5"/>
<text text-anchor="start" x="825" y="-55.5" font-family="Helvetica,sans-Serif" font-size="10.00">ReLogic.Graphics.Dynamic</text>
<text text-anchor="middle" x="895.5" y="-44.5" font-family="Helvetica,sans-Serif" font-size="10.00">SpriteFont.GetCharacterData</text>
</a>
</g>
</g>
<!-- Node8&#45;&gt;Node9 -->
<g id="edge9_Node000008_Node000009" class="edge">
<title>Node8&#45;&gt;Node9</title>
<g id="a_edge9_Node000008_Node000009"><a xlink:title=" ">
<path fill="none" stroke="#63b8ff" d="M771.52,-52.5C782.95,-52.5 794.87,-52.5 806.61,-52.5"/>
<polygon fill="#63b8ff" stroke="#63b8ff" points="806.85,-56 816.85,-52.5 806.85,-49 806.85,-56"/>
</a>
</g>
</g>
</g>
</svg>
