<?xml version="1.0" encoding="UTF-8" standalone="no"?>
<!DOCTYPE svg PUBLIC "-//W3C//DTD SVG 1.1//EN"
 "http://www.w3.org/Graphics/SVG/1.1/DTD/svg11.dtd">
<!-- Generated by graphviz version 2.43.0 (0)
 -->
<!-- Title: Terraria.GameContent.Generation.ActionPlaceStatue.Apply Pages: 1 -->
<!--zoomable 577 -->

<svg id="main" version="1.1" xmlns="http://www.w3.org/2000/svg" xmlns:xlink="http://www.w3.org/1999/xlink" xml:space="preserve" onload="init(evt)">
<style type="text/css"><![CDATA[
.node, .edge {opacity: 0.7;}
.node.selected, .edge.selected {opacity: 1;}
.edge:hover path { stroke: red; }
.edge:hover polygon { stroke: red; fill: red; }
]]></style>

<defs>
  <circle id="rim" cx="0" cy="0" r="7"/>
  <circle id="rim2" cx="0" cy="0" r="3.5"/>
  <g id="zoomPlus">
    <use xlink:href="#rim" fill="#404040"><set attributeName="fill" to="#808080" begin="zoomplus.mouseover" end="zoomplus.mouseout"/></use>
    <path d="M-4,0h8M0,-4v8" fill="none" stroke="white" stroke-width="1.5" pointer-events="none"/>
  </g>
  <g id="zoomMin">
    <use xlink:href="#rim" fill="#404040"><set attributeName="fill" to="#808080" begin="zoomminus.mouseover" end="zoomminus.mouseout"/></use>
    <path d="M-4,0h8" fill="none" stroke="white" stroke-width="1.5" pointer-events="none"/>
  </g>
  <g id="arrowUp" transform="translate(30 24)">
    <use xlink:href="#rim"/>
    <path pointer-events="none" fill="none" stroke="white" stroke-width="1.5" d="M0,-3.0v7 M-2.5,-0.5L0,-3.0L2.5,-0.5"/>
  </g>
  <g id="arrowRight" transform="rotate(90) translate(36 -43)">
    <use xlink:href="#rim"/>
    <path pointer-events="none" fill="none" stroke="white" stroke-width="1.5" d="M0,-3.0v7 M-2.5,-0.5L0,-3.0L2.5,-0.5"/>
  </g>
  <g id="arrowDown" transform="rotate(180) translate(-30 -48)">
    <use xlink:href="#rim"/>
    <path pointer-events="none" fill="none" stroke="white" stroke-width="1.5" d="M0,-3.0v7 M-2.5,-0.5L0,-3.0L2.5,-0.5"/>
  </g>
  <g id="arrowLeft" transform="rotate(270) translate(-36 17)">
    <use xlink:href="#rim"/>
    <path pointer-events="none" fill="none" stroke="white" stroke-width="1.5" d="M0,-3.0v7 M-2.5,-0.5L0,-3.0L2.5,-0.5"/>
  </g>
  <g id="resetDef">
    <use xlink:href="#rim2" fill="#404040"><set attributeName="fill" to="#808080" begin="reset.mouseover" end="reset.mouseout"/></use>
  </g>
</defs>
<script type="application/ecmascript">
var viewWidth = 940;
var viewHeight = 577;
var sectionId = 'dynsection-0';
</script>
<script type="application/ecmascript" xlink:href="../../svg.min.js"/>
<svg id="graph" class="graph">
<g id="viewport">
<title>Terraria.GameContent.Generation.ActionPlaceStatue.Apply</title>
<!-- Node1 -->
<g id="Node000001" class="node">
<title>Node1</title>
<g id="a_Node000001"><a xlink:title=" ">
<polygon fill="#999999" stroke="#666666" points="184,-199 0,-199 0,-169 184,-169 184,-199"/>
<text text-anchor="start" x="8" y="-187" font-family="Helvetica,sans-Serif" font-size="10.00">Terraria.GameContent.Generation.</text>
<text text-anchor="middle" x="92" y="-176" font-family="Helvetica,sans-Serif" font-size="10.00">ActionPlaceStatue.Apply</text>
</a>
</g>
</g>
<!-- Node2 -->
<g id="Node000002" class="node">
<title>Node2</title>
<g id="a_Node000002"><a xlink:href="../../de/da1/classTerraria_1_1WorldGen_a44be8e88cfbc0e27b42eea0f79c37c3c.html#a44be8e88cfbc0e27b42eea0f79c37c3c" target="_top" xlink:title=" ">
<polygon fill="white" stroke="#666666" points="371,-333.5 220,-333.5 220,-314.5 371,-314.5 371,-333.5"/>
<text text-anchor="middle" x="295.5" y="-321.5" font-family="Helvetica,sans-Serif" font-size="10.00">Terraria.WorldGen.PlaceTile</text>
</a>
</g>
</g>
<!-- Node1&#45;&gt;Node2 -->
<g id="edge1_Node000001_Node000002" class="edge">
<title>Node1&#45;&gt;Node2</title>
<g id="a_edge1_Node000001_Node000002"><a xlink:title=" ">
<path fill="none" stroke="#63b8ff" d="M114.95,-199.25C153.48,-226.02 232.88,-281.19 271.88,-308.28"/>
<polygon fill="#63b8ff" stroke="#63b8ff" points="270.23,-311.4 280.44,-314.23 274.22,-305.65 270.23,-311.4"/>
</a>
</g>
</g>
<!-- Node19 -->
<g id="Node000019" class="node">
<title>Node19</title>
<g id="a_Node000019"><a xlink:href="../../db/d55/classTerraria_1_1WorldBuilding_1_1GenAction_a1ca7e06f26116e014e45a365601235a9.html#a1ca7e06f26116e014e45a365601235a9" target="_top" xlink:title=" ">
<polygon fill="white" stroke="#666666" points="368.5,-78 222.5,-78 222.5,-48 368.5,-48 368.5,-78"/>
<text text-anchor="start" x="230.5" y="-66" font-family="Helvetica,sans-Serif" font-size="10.00">Terraria.WorldBuilding.Gen</text>
<text text-anchor="middle" x="295.5" y="-55" font-family="Helvetica,sans-Serif" font-size="10.00">Action.UnitApply</text>
</a>
</g>
</g>
<!-- Node1&#45;&gt;Node19 -->
<g id="edge24_Node000001_Node000019" class="edge">
<title>Node1&#45;&gt;Node19</title>
<g id="a_edge24_Node000001_Node000019"><a xlink:title=" ">
<path fill="none" stroke="#63b8ff" d="M118.11,-168.92C154.11,-147.3 220.46,-107.46 260.72,-83.28"/>
<polygon fill="#63b8ff" stroke="#63b8ff" points="262.62,-86.23 269.39,-78.08 259.01,-80.23 262.62,-86.23"/>
</a>
</g>
</g>
<!-- Node3 -->
<g id="Node000003" class="node">
<title>Node3</title>
<g id="a_Node000003"><a xlink:href="../../d3/ddc/classTerraria_1_1Tile_a9a3f37926e6d7f23ba057d6c0aeab1a5.html#a9a3f37926e6d7f23ba057d6c0aeab1a5" target="_top" xlink:title=" ">
<polygon fill="white" stroke="#666666" points="918.5,-352.5 811.5,-352.5 811.5,-333.5 918.5,-333.5 918.5,-352.5"/>
<text text-anchor="middle" x="865" y="-340.5" font-family="Helvetica,sans-Serif" font-size="10.00">Terraria.Tile.active</text>
</a>
</g>
</g>
<!-- Node2&#45;&gt;Node3 -->
<g id="edge2_Node000002_Node000003" class="edge">
<title>Node2&#45;&gt;Node3</title>
<g id="a_edge2_Node000002_Node000003"><a xlink:title=" ">
<path fill="none" stroke="#63b8ff" d="M371.24,-320.62C463.34,-317.3 624.5,-314.27 762,-326 776.39,-327.23 791.82,-329.36 806.2,-331.71"/>
<polygon fill="#63b8ff" stroke="#63b8ff" points="806.02,-335.23 816.46,-333.46 807.19,-328.33 806.02,-335.23"/>
</a>
</g>
</g>
<!-- Node4 -->
<g id="Node000004" class="node">
<title>Node4</title>
<g id="a_Node000004"><a xlink:href="../../d3/ddc/classTerraria_1_1Tile_a2b748f465ab88d4218d7b75a70468f56.html#a2b748f465ab88d4218d7b75a70468f56" target="_top" xlink:title=" ">
<polygon fill="white" stroke="#666666" points="751,-153.5 611,-153.5 611,-134.5 751,-134.5 751,-153.5"/>
<text text-anchor="middle" x="681" y="-141.5" font-family="Helvetica,sans-Serif" font-size="10.00">Terraria.Tile.bottomSlope</text>
</a>
</g>
</g>
<!-- Node2&#45;&gt;Node4 -->
<g id="edge3_Node000002_Node000004" class="edge">
<title>Node2&#45;&gt;Node4</title>
<g id="a_edge3_Node000002_Node000004"><a xlink:title=" ">
<path fill="none" stroke="#63b8ff" d="M299.91,-314.47C310.58,-286.23 346.27,-202.86 407,-168 465.58,-134.37 543.16,-130.66 600.63,-134.03"/>
<polygon fill="#63b8ff" stroke="#63b8ff" points="600.55,-137.53 610.76,-134.71 601.02,-130.55 600.55,-137.53"/>
</a>
</g>
</g>
<!-- Node5 -->
<g id="Node000005" class="node">
<title>Node5</title>
<g id="a_Node000005"><a xlink:href="../../d3/ddc/classTerraria_1_1Tile_ab9bfb24365d03f2b4fe0842f6a406765.html#ab9bfb24365d03f2b4fe0842f6a406765" target="_top" xlink:title=" ">
<polygon fill="white" stroke="#666666" points="917,-191.5 813,-191.5 813,-172.5 917,-172.5 917,-191.5"/>
<text text-anchor="middle" x="865" y="-179.5" font-family="Helvetica,sans-Serif" font-size="10.00">Terraria.Tile.slope</text>
</a>
</g>
</g>
<!-- Node2&#45;&gt;Node5 -->
<g id="edge23_Node000002_Node000005" class="edge">
<title>Node2&#45;&gt;Node5</title>
<g id="a_edge23_Node000002_Node000005"><a xlink:title=" ">
<path fill="none" stroke="#63b8ff" d="M307.59,-314.29C326.61,-298.14 367.26,-265.78 407,-248 539.11,-188.9 712.18,-180.33 802.73,-180.42"/>
<polygon fill="#63b8ff" stroke="#63b8ff" points="802.8,-183.92 812.82,-180.46 802.84,-176.92 802.8,-183.92"/>
</a>
</g>
</g>
<!-- Node6 -->
<g id="Node000006" class="node">
<title>Node6</title>
<g id="a_Node000006"><a xlink:href="../../d3/ddc/classTerraria_1_1Tile_a51bea62ea9c2d895b6242d337728b4b6.html#a51bea62ea9c2d895b6242d337728b4b6" target="_top" xlink:title=" ">
<polygon fill="white" stroke="#666666" points="560.5,-115.5 410.5,-115.5 410.5,-96.5 560.5,-96.5 560.5,-115.5"/>
<text text-anchor="middle" x="485.5" y="-103.5" font-family="Helvetica,sans-Serif" font-size="10.00">Terraria.Tile.checkingLiquid</text>
</a>
</g>
</g>
<!-- Node2&#45;&gt;Node6 -->
<g id="edge5_Node000002_Node000006" class="edge">
<title>Node2&#45;&gt;Node6</title>
<g id="a_edge5_Node000002_Node000006"><a xlink:title=" ">
<path fill="none" stroke="#63b8ff" d="M299.22,-314.24C308.56,-282.61 342.33,-181.94 407,-130 412.31,-125.73 418.38,-122.22 424.74,-119.33"/>
<polygon fill="#63b8ff" stroke="#63b8ff" points="426.22,-122.51 434.2,-115.53 423.61,-116.01 426.22,-122.51"/>
</a>
</g>
</g>
<!-- Node7 -->
<g id="Node000007" class="node">
<title>Node7</title>
<g id="a_Node000007"><a xlink:href="../../d3/ddc/classTerraria_1_1Tile_a083f90a80ef987726fd28c52ffc4787e.html#a083f90a80ef987726fd28c52ffc4787e" target="_top" xlink:title=" ">
<polygon fill="white" stroke="#666666" points="536,-568.5 435,-568.5 435,-549.5 536,-549.5 536,-568.5"/>
<text text-anchor="middle" x="485.5" y="-556.5" font-family="Helvetica,sans-Serif" font-size="10.00">Terraria.Tile.color</text>
</a>
</g>
</g>
<!-- Node2&#45;&gt;Node7 -->
<g id="edge6_Node000002_Node000007" class="edge">
<title>Node2&#45;&gt;Node7</title>
<g id="a_edge6_Node000002_Node000007"><a xlink:title=" ">
<path fill="none" stroke="#63b8ff" d="M298.38,-333.64C305.59,-367.85 334.75,-484.46 407,-541 412.41,-545.23 418.64,-548.5 425.17,-551.02"/>
<polygon fill="#63b8ff" stroke="#63b8ff" points="424.3,-554.41 434.89,-554.19 426.47,-547.76 424.3,-554.41"/>
</a>
</g>
</g>
<!-- Node8 -->
<g id="Node000008" class="node">
<title>Node8</title>
<g id="a_Node000008"><a xlink:href="../../de/d1d/classTerraria_1_1Collision_a6489a1a9d15c3b1a4923f127560e5092.html#a6489a1a9d15c3b1a4923f127560e5092" target="_top" xlink:title=" ">
<polygon fill="white" stroke="#666666" points="756.5,-390.5 605.5,-390.5 605.5,-371.5 756.5,-371.5 756.5,-390.5"/>
<text text-anchor="middle" x="681" y="-378.5" font-family="Helvetica,sans-Serif" font-size="10.00">Terraria.Collision.EmptyTile</text>
</a>
</g>
</g>
<!-- Node2&#45;&gt;Node8 -->
<g id="edge7_Node000002_Node000008" class="edge">
<title>Node2&#45;&gt;Node8</title>
<g id="a_edge7_Node000002_Node000008"><a xlink:title=" ">
<path fill="none" stroke="#63b8ff" d="M338.33,-333.54C358.93,-338.03 384.19,-343.21 407,-347 469.74,-357.42 541.08,-366.2 595.1,-372.23"/>
<polygon fill="#63b8ff" stroke="#63b8ff" points="594.99,-375.74 605.32,-373.36 595.76,-368.78 594.99,-375.74"/>
</a>
</g>
</g>
<!-- Node9 -->
<g id="Node000009" class="node">
<title>Node9</title>
<g id="a_Node000009"><a xlink:href="../../d3/ddc/classTerraria_1_1Tile_afac1102270d7f948e822bfbe76d4533d.html#afac1102270d7f948e822bfbe76d4533d" target="_top" xlink:title=" ">
<polygon fill="white" stroke="#666666" points="546,-531.5 425,-531.5 425,-512.5 546,-512.5 546,-531.5"/>
<text text-anchor="middle" x="485.5" y="-519.5" font-family="Helvetica,sans-Serif" font-size="10.00">Terraria.Tile.halfBrick</text>
</a>
</g>
</g>
<!-- Node2&#45;&gt;Node9 -->
<g id="edge9_Node000002_Node000009" class="edge">
<title>Node2&#45;&gt;Node9</title>
<g id="a_edge9_Node000002_Node000009"><a xlink:title=" ">
<path fill="none" stroke="#63b8ff" d="M299.44,-333.67C309.21,-364.06 343.62,-458.35 407,-504 409.69,-505.94 412.56,-507.67 415.54,-509.22"/>
<polygon fill="#63b8ff" stroke="#63b8ff" points="414.25,-512.47 424.81,-513.34 417.09,-506.08 414.25,-512.47"/>
</a>
</g>
</g>
<!-- Node10 -->
<g id="Node000010" class="node">
<title>Node10</title>
<g id="a_Node000010"><a xlink:href="../../d3/ddc/classTerraria_1_1Tile_a38bb9749f89eeb6c767e86efa96dbc91.html#a38bb9749f89eeb6c767e86efa96dbc91" target="_top" xlink:title=" ">
<polygon fill="white" stroke="#666666" points="542,-494.5 429,-494.5 429,-475.5 542,-475.5 542,-494.5"/>
<text text-anchor="middle" x="485.5" y="-482.5" font-family="Helvetica,sans-Serif" font-size="10.00">Terraria.Tile.nactive</text>
</a>
</g>
</g>
<!-- Node2&#45;&gt;Node10 -->
<g id="edge10_Node000002_Node000010" class="edge">
<title>Node2&#45;&gt;Node10</title>
<g id="a_edge10_Node000002_Node000010"><a xlink:title=" ">
<path fill="none" stroke="#63b8ff" d="M301.13,-333.75C313.98,-359.7 352.74,-430.84 407,-466 410.83,-468.48 414.96,-470.64 419.25,-472.52"/>
<polygon fill="#63b8ff" stroke="#63b8ff" points="418.24,-475.88 428.83,-476.19 420.74,-469.34 418.24,-475.88"/>
</a>
</g>
</g>
<!-- Node11 -->
<g id="Node000011" class="node">
<title>Node11</title>
<g id="a_Node000011"><a xlink:href="../../dc/de5/classTerraria_1_1Dust_a977a36a9376966862406a3094e3b70ab.html#a977a36a9376966862406a3094e3b70ab" target="_top" xlink:title=" ">
<polygon fill="white" stroke="#666666" points="548.5,-276.5 422.5,-276.5 422.5,-257.5 548.5,-257.5 548.5,-276.5"/>
<text text-anchor="middle" x="485.5" y="-264.5" font-family="Helvetica,sans-Serif" font-size="10.00">Terraria.Dust.NewDust</text>
</a>
</g>
</g>
<!-- Node2&#45;&gt;Node11 -->
<g id="edge11_Node000002_Node000011" class="edge">
<title>Node2&#45;&gt;Node11</title>
<g id="a_edge11_Node000002_Node000011"><a xlink:title=" ">
<path fill="none" stroke="#63b8ff" d="M327.97,-314.46C359.55,-304.88 408.38,-290.08 443.09,-279.55"/>
<polygon fill="#63b8ff" stroke="#63b8ff" points="444.38,-282.82 452.93,-276.57 442.35,-276.12 444.38,-282.82"/>
</a>
</g>
</g>
<!-- Node17 -->
<g id="Node000017" class="node">
<title>Node17</title>
<g id="a_Node000017"><a xlink:href="../../de/d1f/classTerraria_1_1Minecart_a6066176bc8dc2c84bc14e64dcedac0c6.html#a6066176bc8dc2c84bc14e64dcedac0c6" target="_top" xlink:title=" ">
<polygon fill="white" stroke="#666666" points="758,-353.5 604,-353.5 604,-334.5 758,-334.5 758,-353.5"/>
<text text-anchor="middle" x="681" y="-341.5" font-family="Helvetica,sans-Serif" font-size="10.00">Terraria.Minecart.PlaceTrack</text>
</a>
</g>
</g>
<!-- Node2&#45;&gt;Node17 -->
<g id="edge19_Node000002_Node000017" class="edge">
<title>Node2&#45;&gt;Node17</title>
<g id="a_edge19_Node000002_Node000017"><a xlink:title=" ">
<path fill="none" stroke="#63b8ff" d="M371.35,-327.9C435.11,-331.23 526.75,-336.01 593.6,-339.49"/>
<polygon fill="#63b8ff" stroke="#63b8ff" points="593.53,-343 603.7,-340.02 593.89,-336 593.53,-343"/>
</a>
</g>
</g>
<!-- Node18 -->
<g id="Node000018" class="node">
<title>Node18</title>
<g id="a_Node000018"><a xlink:href="../../d3/d78/classTerraria_1_1Audio_1_1SoundEngine_a65b4b1502c673e839c9bd620e23b2c94.html#a65b4b1502c673e839c9bd620e23b2c94" target="_top" xlink:title=" ">
<polygon fill="white" stroke="#666666" points="562,-439 409,-439 409,-409 562,-409 562,-439"/>
<text text-anchor="start" x="417" y="-427" font-family="Helvetica,sans-Serif" font-size="10.00">Terraria.Audio.SoundEngine.</text>
<text text-anchor="middle" x="485.5" y="-416" font-family="Helvetica,sans-Serif" font-size="10.00">PlaySound</text>
</a>
</g>
</g>
<!-- Node2&#45;&gt;Node18 -->
<g id="edge21_Node000002_Node000018" class="edge">
<title>Node2&#45;&gt;Node18</title>
<g id="a_edge21_Node000002_Node000018"><a xlink:title=" ">
<path fill="none" stroke="#63b8ff" d="M309.56,-333.71C329.7,-348.36 369.9,-376.41 407,-395 414.21,-398.62 421.99,-402.04 429.74,-405.18"/>
<polygon fill="#63b8ff" stroke="#63b8ff" points="428.55,-408.48 439.14,-408.87 431.11,-401.96 428.55,-408.48"/>
</a>
</g>
</g>
<!-- Node4&#45;&gt;Node5 -->
<g id="edge4_Node000004_Node000005" class="edge">
<title>Node4&#45;&gt;Node5</title>
<g id="a_edge4_Node000004_Node000005"><a xlink:title=" ">
<path fill="none" stroke="#63b8ff" d="M727.93,-153.59C752.38,-158.69 782.63,-165.01 808.4,-170.39"/>
<polygon fill="#63b8ff" stroke="#63b8ff" points="807.9,-173.86 818.4,-172.48 809.33,-167.01 807.9,-173.86"/>
</a>
</g>
</g>
<!-- Node8&#45;&gt;Node3 -->
<g id="edge8_Node000008_Node000003" class="edge">
<title>Node8&#45;&gt;Node3</title>
<g id="a_edge8_Node000008_Node000003"><a xlink:title=" ">
<path fill="none" stroke="#63b8ff" d="M727.93,-371.41C752.38,-366.31 782.63,-359.99 808.4,-354.61"/>
<polygon fill="#63b8ff" stroke="#63b8ff" points="809.33,-357.99 818.4,-352.52 807.9,-351.14 809.33,-357.99"/>
</a>
</g>
</g>
<!-- Node12 -->
<g id="Node000012" class="node">
<title>Node12</title>
<g id="a_Node000012"><a xlink:href="../../d9/db1/classTerraria_1_1Utilities_1_1UnifiedRandom_ac4ecc6320b69ab939b9c45eaf7d89000.html#ac4ecc6320b69ab939b9c45eaf7d89000" target="_top" xlink:title=" ">
<polygon fill="white" stroke="#666666" points="747,-240 615,-240 615,-210 747,-210 747,-240"/>
<text text-anchor="start" x="623" y="-228" font-family="Helvetica,sans-Serif" font-size="10.00">Terraria.Utilities.Unified</text>
<text text-anchor="middle" x="681" y="-217" font-family="Helvetica,sans-Serif" font-size="10.00">Random.Next</text>
</a>
</g>
</g>
<!-- Node11&#45;&gt;Node12 -->
<g id="edge12_Node000011_Node000012" class="edge">
<title>Node11&#45;&gt;Node12</title>
<g id="a_edge12_Node000011_Node000012"><a xlink:title=" ">
<path fill="none" stroke="#63b8ff" d="M530.41,-257.47C552.46,-252.68 579.79,-246.75 605.04,-241.27"/>
<polygon fill="#63b8ff" stroke="#63b8ff" points="605.93,-244.66 614.96,-239.12 604.45,-237.82 605.93,-244.66"/>
</a>
</g>
</g>
<!-- Node14 -->
<g id="Node000014" class="node">
<title>Node14</title>
<g id="a_Node000014"><a xlink:href="../../de/d1d/classTerraria_1_1Collision_a1c65206ace403aa59afc32d20e5d282e.html#a1c65206ace403aa59afc32d20e5d282e" target="_top" xlink:title=" ">
<polygon fill="white" stroke="#666666" points="762,-277.5 600,-277.5 600,-258.5 762,-258.5 762,-277.5"/>
<text text-anchor="middle" x="681" y="-265.5" font-family="Helvetica,sans-Serif" font-size="10.00">Terraria.Collision.WetCollision</text>
</a>
</g>
</g>
<!-- Node11&#45;&gt;Node14 -->
<g id="edge14_Node000011_Node000014" class="edge">
<title>Node11&#45;&gt;Node14</title>
<g id="a_edge14_Node000011_Node000014"><a xlink:title=" ">
<path fill="none" stroke="#63b8ff" d="M548.52,-267.32C561.69,-267.39 575.84,-267.46 589.81,-267.53"/>
<polygon fill="#63b8ff" stroke="#63b8ff" points="589.92,-271.03 599.94,-267.59 589.95,-264.03 589.92,-271.03"/>
</a>
</g>
</g>
<!-- Node13 -->
<g id="Node000013" class="node">
<title>Node13</title>
<g id="a_Node000013"><a xlink:href="../../d9/db1/classTerraria_1_1Utilities_1_1UnifiedRandom_a173f09196ff526b107c0223c2d58c59a.html#a173f09196ff526b107c0223c2d58c59a" target="_top" xlink:title=" ">
<polygon fill="white" stroke="#666666" points="932,-240 798,-240 798,-210 932,-210 932,-240"/>
<text text-anchor="start" x="806" y="-228" font-family="Helvetica,sans-Serif" font-size="10.00">Terraria.Utilities.Unified</text>
<text text-anchor="middle" x="865" y="-217" font-family="Helvetica,sans-Serif" font-size="10.00">Random.InternalSample</text>
</a>
</g>
</g>
<!-- Node12&#45;&gt;Node13 -->
<g id="edge13_Node000012_Node000013" class="edge">
<title>Node12&#45;&gt;Node13</title>
<g id="a_edge13_Node000012_Node000013"><a xlink:title=" ">
<path fill="none" stroke="#63b8ff" d="M747.19,-225C760.28,-225 774.14,-225 787.57,-225"/>
<polygon fill="#63b8ff" stroke="#63b8ff" points="787.73,-228.5 797.73,-225 787.73,-221.5 787.73,-228.5"/>
</a>
</g>
</g>
<!-- Node14&#45;&gt;Node3 -->
<g id="edge15_Node000014_Node000003" class="edge">
<title>Node14&#45;&gt;Node3</title>
<g id="a_edge15_Node000014_Node000003"><a xlink:title=" ">
<path fill="none" stroke="#63b8ff" d="M726.16,-277.53C738.22,-281.11 750.98,-285.85 762,-292 780.69,-302.43 779.25,-313.67 798,-324 801.99,-326.2 806.25,-328.16 810.62,-329.91"/>
<polygon fill="#63b8ff" stroke="#63b8ff" points="809.7,-333.3 820.29,-333.41 812.08,-326.72 809.7,-333.3"/>
</a>
</g>
</g>
<!-- Node14&#45;&gt;Node5 -->
<g id="edge18_Node000014_Node000005" class="edge">
<title>Node14&#45;&gt;Node5</title>
<g id="a_edge18_Node000014_Node000005"><a xlink:title=" ">
<path fill="none" stroke="#63b8ff" d="M742.44,-258.49C749.34,-256.02 756.03,-252.91 762,-249 784.3,-234.38 776.05,-216.14 798,-201 800.88,-199.01 803.98,-197.23 807.19,-195.63"/>
<polygon fill="#63b8ff" stroke="#63b8ff" points="808.71,-198.78 816.5,-191.6 805.93,-192.36 808.71,-198.78"/>
</a>
</g>
</g>
<!-- Node15 -->
<g id="Node000015" class="node">
<title>Node15</title>
<g id="a_Node000015"><a xlink:href="../../d3/ddc/classTerraria_1_1Tile_abce32b6727439dc5fd177ed547a260a6.html#abce32b6727439dc5fd177ed547a260a6" target="_top" xlink:title=" ">
<polygon fill="white" stroke="#666666" points="918.5,-277.5 811.5,-277.5 811.5,-258.5 918.5,-258.5 918.5,-277.5"/>
<text text-anchor="middle" x="865" y="-265.5" font-family="Helvetica,sans-Serif" font-size="10.00">Terraria.Tile.honey</text>
</a>
</g>
</g>
<!-- Node14&#45;&gt;Node15 -->
<g id="edge16_Node000014_Node000015" class="edge">
<title>Node14&#45;&gt;Node15</title>
<g id="a_edge16_Node000014_Node000015"><a xlink:title=" ">
<path fill="none" stroke="#63b8ff" d="M762.09,-268C775.13,-268 788.47,-268 801.03,-268"/>
<polygon fill="#63b8ff" stroke="#63b8ff" points="801.36,-271.5 811.36,-268 801.36,-264.5 801.36,-271.5"/>
</a>
</g>
</g>
<!-- Node16 -->
<g id="Node000016" class="node">
<title>Node16</title>
<g id="a_Node000016"><a xlink:href="../../d3/ddc/classTerraria_1_1Tile_ac658b0c4cc04dc4d86deb55b99decfc5.html#ac658b0c4cc04dc4d86deb55b99decfc5" target="_top" xlink:title=" ">
<polygon fill="white" stroke="#666666" points="925.5,-314.5 804.5,-314.5 804.5,-295.5 925.5,-295.5 925.5,-314.5"/>
<text text-anchor="middle" x="865" y="-302.5" font-family="Helvetica,sans-Serif" font-size="10.00">Terraria.Tile.shimmer</text>
</a>
</g>
</g>
<!-- Node14&#45;&gt;Node16 -->
<g id="edge17_Node000014_Node000016" class="edge">
<title>Node14&#45;&gt;Node16</title>
<g id="a_edge17_Node000014_Node000016"><a xlink:title=" ">
<path fill="none" stroke="#63b8ff" d="M728.87,-277.53C752.66,-282.36 781.76,-288.28 806.85,-293.38"/>
<polygon fill="#63b8ff" stroke="#63b8ff" points="806.48,-296.88 816.97,-295.44 807.87,-290.02 806.48,-296.88"/>
</a>
</g>
</g>
<!-- Node17&#45;&gt;Node3 -->
<g id="edge20_Node000017_Node000003" class="edge">
<title>Node17&#45;&gt;Node3</title>
<g id="a_edge20_Node000017_Node000003"><a xlink:title=" ">
<path fill="none" stroke="#63b8ff" d="M758.13,-343.58C772.41,-343.5 787.2,-343.42 801.02,-343.35"/>
<polygon fill="#63b8ff" stroke="#63b8ff" points="801.41,-346.84 811.39,-343.29 801.37,-339.84 801.41,-346.84"/>
</a>
</g>
</g>
<!-- Node18&#45;&gt;Node18 -->
<g id="edge22_Node000018_Node000018" class="edge">
<title>Node18&#45;&gt;Node18</title>
<g id="a_edge22_Node000018_Node000018"><a xlink:title=" ">
<path fill="none" stroke="#63b8ff" d="M452.1,-439.28C444.68,-448.41 455.81,-457 485.5,-457 503.13,-457 514.21,-453.97 518.76,-449.6"/>
<polygon fill="#63b8ff" stroke="#63b8ff" points="522.26,-449.32 518.9,-439.28 515.26,-449.23 522.26,-449.32"/>
</a>
</g>
</g>
<!-- Node20 -->
<g id="Node000020" class="node">
<title>Node20</title>
<g id="a_Node000020"><a xlink:href="../../d3/d09/classTerraria_1_1WorldBuilding_1_1ShapeData_a7bda19029dd0b4a9ddc77d7c1345019e.html#a7bda19029dd0b4a9ddc77d7c1345019e" target="_top" xlink:title=" ">
<polygon fill="white" stroke="#666666" points="564,-78 407,-78 407,-48 564,-48 564,-78"/>
<text text-anchor="start" x="415" y="-66" font-family="Helvetica,sans-Serif" font-size="10.00">Terraria.WorldBuilding.Shape</text>
<text text-anchor="middle" x="485.5" y="-55" font-family="Helvetica,sans-Serif" font-size="10.00">Data.Add</text>
</a>
</g>
</g>
<!-- Node19&#45;&gt;Node20 -->
<g id="edge25_Node000019_Node000020" class="edge">
<title>Node19&#45;&gt;Node20</title>
<g id="a_edge25_Node000019_Node000020"><a xlink:title=" ">
<path fill="none" stroke="#63b8ff" d="M368.65,-63C377.85,-63 387.35,-63 396.76,-63"/>
<polygon fill="#63b8ff" stroke="#63b8ff" points="396.92,-66.5 406.92,-63 396.92,-59.5 396.92,-66.5"/>
</a>
</g>
</g>
<!-- Node21 -->
<g id="Node000021" class="node">
<title>Node21</title>
<g id="a_Node000021"><a xlink:href="../../db/d55/classTerraria_1_1WorldBuilding_1_1GenAction_ad0df0d8109785c56ef228c37ebf88181.html#ad0df0d8109785c56ef228c37ebf88181" target="_top" xlink:title=" ">
<polygon fill="white" stroke="#666666" points="558.5,-30 412.5,-30 412.5,0 558.5,0 558.5,-30"/>
<text text-anchor="start" x="420.5" y="-18" font-family="Helvetica,sans-Serif" font-size="10.00">Terraria.WorldBuilding.Gen</text>
<text text-anchor="middle" x="485.5" y="-7" font-family="Helvetica,sans-Serif" font-size="10.00">Action.Apply</text>
</a>
</g>
</g>
<!-- Node19&#45;&gt;Node21 -->
<g id="edge26_Node000019_Node000021" class="edge">
<title>Node19&#45;&gt;Node21</title>
<g id="a_edge26_Node000019_Node000021"><a xlink:title=" ">
<path fill="none" stroke="#63b8ff" d="M355.47,-47.94C374.63,-43.05 396.06,-37.58 415.86,-32.52"/>
<polygon fill="#63b8ff" stroke="#63b8ff" points="416.92,-35.87 425.74,-30 415.19,-29.09 416.92,-35.87"/>
</a>
</g>
</g>
</g>
</svg>

<g id="navigator" transform="translate(0 0)" fill="#404254">
  <rect fill="#f2f5e9" fill-opacity="0.5" stroke="#606060" stroke-width=".5" x="0" y="0" width="60" height="60"/>
  <use id="zoomplus" xlink:href="#zoomPlus" x="17" y="9" onmousedown="handleZoom(evt,'in')"/>
  <use id="zoomminus" xlink:href="#zoomMin" x="42" y="9" onmousedown="handleZoom(evt,'out')"/>
  <use id="reset" xlink:href="#resetDef" x="30" y="36" onmousedown="handleReset()"/>
   <use id="arrowup" xlink:href="#arrowUp" x="0" y="0" onmousedown="handlePan(0,-1)"/>
  <use id="arrowright" xlink:href="#arrowRight" x="0" y="0" onmousedown="handlePan(1,0)"/>
  <use id="arrowdown" xlink:href="#arrowDown" x="0" y="0" onmousedown="handlePan(0,1)"/>
  <use id="arrowleft" xlink:href="#arrowLeft" x="0" y="0" onmousedown="handlePan(-1,0)"/>
</g>
<svg viewBox="0 0 15 15" width="100%" height="30px" preserveAspectRatio="xMaxYMin meet">
 <g id="arrow_out" transform="scale(0.3 0.3)">
  <a xlink:href="classTerraria_1_1GameContent_1_1Generation_1_1ActionPlaceStatue_a74f4a953c612d361fd3b8390708fde31_a74f4a953c612d361fd3b8390708fde31_cgraph_org.svg" target="_base">
   <rect id="button" ry="5" rx="5" y="6" x="6" height="38" width="38"
        fill="#f2f5e9" fill-opacity="0.5" stroke="#606060" stroke-width="1.0"/>
   <path id="arrow"
     d="M 11.500037,31.436501 C 11.940474,20.09759 22.043105,11.32322 32.158766,21.979434 L 37.068811,17.246167 C 37.068811,17.246167 37.088388,32 37.088388,32 L 22.160133,31.978069 C 22.160133,31.978069 26.997745,27.140456 26.997745,27.140456 C 18.528582,18.264221 13.291696,25.230495 11.500037,31.436501 z"
     style="fill:#404040;"/>
  </a>
 </g>
</svg>

<style type='text/css'>
<![CDATA[
[data-mouse-over-selected='false'] { opacity: 0.7; }
[data-mouse-over-selected='true']  { opacity: 1.0; }
]]>
</style>
<script type="application/ecmascript"><![CDATA[
document.addEventListener('DOMContentLoaded', (event) => {
  highlightEdges();
  highlightAdjacentNodes();
});
]]></script>
</svg>
