<?xml version="1.0" encoding="UTF-8" standalone="no"?>
<!DOCTYPE svg PUBLIC "-//W3C//DTD SVG 1.1//EN"
 "http://www.w3.org/Graphics/SVG/1.1/DTD/svg11.dtd">
<!-- Generated by graphviz version 2.43.0 (0)
 -->
<!-- Title: Terraria.GameContent.Creative.SortingSteps.ACreativeItemSortStep Pages: 1 -->
<!--zoomable 485 -->

<svg id="main" version="1.1" xmlns="http://www.w3.org/2000/svg" xmlns:xlink="http://www.w3.org/1999/xlink" xml:space="preserve" onload="init(evt)">
<style type="text/css"><![CDATA[
.node, .edge {opacity: 0.7;}
.node.selected, .edge.selected {opacity: 1;}
.edge:hover path { stroke: red; }
.edge:hover polygon { stroke: red; fill: red; }
]]></style>

<defs>
  <circle id="rim" cx="0" cy="0" r="7"/>
  <circle id="rim2" cx="0" cy="0" r="3.5"/>
  <g id="zoomPlus">
    <use xlink:href="#rim" fill="#404040"><set attributeName="fill" to="#808080" begin="zoomplus.mouseover" end="zoomplus.mouseout"/></use>
    <path d="M-4,0h8M0,-4v8" fill="none" stroke="white" stroke-width="1.5" pointer-events="none"/>
  </g>
  <g id="zoomMin">
    <use xlink:href="#rim" fill="#404040"><set attributeName="fill" to="#808080" begin="zoomminus.mouseover" end="zoomminus.mouseout"/></use>
    <path d="M-4,0h8" fill="none" stroke="white" stroke-width="1.5" pointer-events="none"/>
  </g>
  <g id="arrowUp" transform="translate(30 24)">
    <use xlink:href="#rim"/>
    <path pointer-events="none" fill="none" stroke="white" stroke-width="1.5" d="M0,-3.0v7 M-2.5,-0.5L0,-3.0L2.5,-0.5"/>
  </g>
  <g id="arrowRight" transform="rotate(90) translate(36 -43)">
    <use xlink:href="#rim"/>
    <path pointer-events="none" fill="none" stroke="white" stroke-width="1.5" d="M0,-3.0v7 M-2.5,-0.5L0,-3.0L2.5,-0.5"/>
  </g>
  <g id="arrowDown" transform="rotate(180) translate(-30 -48)">
    <use xlink:href="#rim"/>
    <path pointer-events="none" fill="none" stroke="white" stroke-width="1.5" d="M0,-3.0v7 M-2.5,-0.5L0,-3.0L2.5,-0.5"/>
  </g>
  <g id="arrowLeft" transform="rotate(270) translate(-36 17)">
    <use xlink:href="#rim"/>
    <path pointer-events="none" fill="none" stroke="white" stroke-width="1.5" d="M0,-3.0v7 M-2.5,-0.5L0,-3.0L2.5,-0.5"/>
  </g>
  <g id="resetDef">
    <use xlink:href="#rim2" fill="#404040"><set attributeName="fill" to="#808080" begin="reset.mouseover" end="reset.mouseout"/></use>
  </g>
</defs>
<script type="application/ecmascript">
var viewWidth = 392;
var viewHeight = 485;
var sectionId = 'dynsection-1';
</script>
<script type="application/ecmascript" xlink:href="../../svg.min.js"/>
<svg id="graph" class="graph">
<g id="viewport">
<title>Terraria.GameContent.Creative.SortingSteps.ACreativeItemSortStep</title>
<!-- Node1 -->
<g id="Node000001" class="node">
<title>Node1</title>
<g id="a_Node000001"><a xlink:title=" ">
<polygon fill="#999999" stroke="transparent" points="320,-112 133,-112 133,0 320,0 320,-112"/>
<text text-anchor="start" x="138.5" y="-100" font-family="Helvetica,sans-Serif" font-size="10.00">Terraria.GameContent.Creative.</text>
<text text-anchor="start" x="138.5" y="-89" font-family="Helvetica,sans-Serif" font-size="10.00">SortingSteps.ACreativeItemSortStep</text>
<text text-anchor="start" x="225" y="-74" font-family="Helvetica,sans-Serif" font-size="10.00"> </text>
<text text-anchor="start" x="144" y="-59" font-family="Helvetica,sans-Serif" font-size="10.00">+</text>
<text text-anchor="start" x="163.5" y="-59" font-family="Helvetica,sans-Serif" font-size="10.00">string GetDisplayNameKey()</text>
<text text-anchor="start" x="144" y="-44" font-family="Helvetica,sans-Serif" font-size="10.00">+</text>
<text text-anchor="start" x="163.5" y="-44" font-family="Helvetica,sans-Serif" font-size="10.00">int Compare(int x,</text>
<text text-anchor="start" x="163.5" y="-33" font-family="Helvetica,sans-Serif" font-size="10.00"> int y)</text>
<text text-anchor="start" x="144" y="-18" font-family="Helvetica,sans-Serif" font-size="10.00">+</text>
<text text-anchor="start" x="163.5" y="-18" font-family="Helvetica,sans-Serif" font-size="10.00">int Compare(Item x,</text>
<text text-anchor="start" x="163.5" y="-7" font-family="Helvetica,sans-Serif" font-size="10.00"> Item y)</text>
<polygon fill="#666666" stroke="#666666" points="133.5,-84 133.5,-84 320.5,-84 320.5,-84 133.5,-84"/>
<polygon fill="#666666" stroke="#666666" points="133.5,-69 133.5,-69 320.5,-69 320.5,-69 133.5,-69"/>
<polygon fill="none" stroke="#666666" points="133,0 133,-112 320,-112 320,0 133,0"/>
</a>
</g>
</g>
<!-- Node2 -->
<g id="Node000002" class="node">
<title>Node2</title>
<g id="a_Node000002"><a xlink:href="../../dd/d2d/interfaceTerraria_1_1GameContent_1_1Creative_1_1ICreativeItemSortStep.html" target="_top" xlink:title=" ">
<polygon fill="white" stroke="transparent" points="220,-198 101,-198 101,-149 220,-149 220,-198"/>
<text text-anchor="start" x="106.5" y="-185.5" font-family="Helvetica,sans-Serif" font-size="10.00">ICreativeItemSortStep</text>
<text text-anchor="start" x="159" y="-170.5" font-family="Helvetica,sans-Serif" font-size="10.00"> </text>
<text text-anchor="start" x="159" y="-155.5" font-family="Helvetica,sans-Serif" font-size="10.00"> </text>
<polygon fill="#666666" stroke="#666666" points="101.5,-180.5 101.5,-180.5 220.5,-180.5 220.5,-180.5 101.5,-180.5"/>
<polygon fill="#666666" stroke="#666666" points="101.5,-165.5 101.5,-165.5 220.5,-165.5 220.5,-165.5 101.5,-165.5"/>
<polygon fill="none" stroke="#666666" points="101,-149 101,-198 220,-198 220,-149 101,-149"/>
</a>
</g>
</g>
<!-- Node2&#45;&gt;Node1 -->
<g id="edge1_Node000001_Node000002" class="edge">
<title>Node2&#45;&gt;Node1</title>
<g id="a_edge1_Node000001_Node000002"><a xlink:title=" ">
<path fill="none" stroke="#63b8ff" d="M178.99,-140.14C183.98,-131.4 189.53,-121.7 195.02,-112.09"/>
<polygon fill="none" stroke="#63b8ff" points="175.94,-138.43 174.02,-148.85 182.02,-141.9 175.94,-138.43"/>
</a>
</g>
</g>
<!-- Node3 -->
<g id="Node000003" class="node">
<title>Node3</title>
<g id="a_Node000003"><a xlink:href="../../d0/db8/interfaceTerraria_1_1DataStructures_1_1IEntrySortStep.html" target="_top" xlink:title=" ">
<polygon fill="white" stroke="transparent" points="161,-284 0,-284 0,-235 161,-235 161,-284"/>
<text text-anchor="start" x="28" y="-271.5" font-family="Helvetica,sans-Serif" font-size="10.00">IEntrySortStep&lt; int &gt;</text>
<text text-anchor="start" x="79" y="-256.5" font-family="Helvetica,sans-Serif" font-size="10.00"> </text>
<text text-anchor="start" x="4.5" y="-241.5" font-family="Helvetica,sans-Serif" font-size="10.00">+</text>
<text text-anchor="start" x="17.5" y="-241.5" font-family="Helvetica,sans-Serif" font-size="10.00">string GetDisplayNameKey()</text>
<polygon fill="#666666" stroke="#666666" points="0.5,-266.5 0.5,-266.5 161.5,-266.5 161.5,-266.5 0.5,-266.5"/>
<polygon fill="#666666" stroke="#666666" points="0.5,-251.5 0.5,-251.5 161.5,-251.5 161.5,-251.5 0.5,-251.5"/>
<polygon fill="none" stroke="#666666" points="0,-235 0,-284 161,-284 161,-235 0,-235"/>
</a>
</g>
</g>
<!-- Node3&#45;&gt;Node1 -->
<g id="edge6_Node000001_Node000003" class="edge">
<title>Node3&#45;&gt;Node1</title>
<g id="a_edge6_Node000001_Node000003"><a xlink:title=" ">
<path fill="none" stroke="#63b8ff" d="M76.77,-224.66C75.88,-201.77 78.01,-171.68 91.5,-149 101.72,-131.81 116.55,-117.11 132.67,-104.84"/>
<polygon fill="none" stroke="#63b8ff" points="73.3,-225.17 77.39,-234.94 80.28,-224.75 73.3,-225.17"/>
</a>
</g>
</g>
<!-- Node3&#45;&gt;Node2 -->
<g id="edge2_Node000002_Node000003" class="edge">
<title>Node3&#45;&gt;Node2</title>
<g id="a_edge2_Node000002_Node000003"><a xlink:title=" ">
<path fill="none" stroke="#63b8ff" d="M110.35,-227.15C119.51,-217.54 129.43,-207.12 138.01,-198.12"/>
<polygon fill="none" stroke="#63b8ff" points="107.57,-225 103.21,-234.65 112.64,-229.83 107.57,-225"/>
</a>
</g>
</g>
<!-- Node4 -->
<g id="Node000004" class="node">
<title>Node4</title>
<g id="a_Node000004"><a xlink:href="../../d0/db8/interfaceTerraria_1_1DataStructures_1_1IEntrySortStep.html" target="_top" xlink:title=" ">
<polygon fill="white" stroke="transparent" points="161,-391 0,-391 0,-331 161,-331 161,-391"/>
<text text-anchor="start" x="23" y="-379" font-family="Helvetica,sans-Serif" font-size="10.00">Terraria.DataStructures.</text>
<text text-anchor="start" x="31.5" y="-368" font-family="Helvetica,sans-Serif" font-size="10.00">IEntrySortStep&lt; T &gt;</text>
<text text-anchor="start" x="79" y="-353" font-family="Helvetica,sans-Serif" font-size="10.00"> </text>
<text text-anchor="start" x="4.5" y="-338" font-family="Helvetica,sans-Serif" font-size="10.00">+</text>
<text text-anchor="start" x="17.5" y="-338" font-family="Helvetica,sans-Serif" font-size="10.00">string GetDisplayNameKey()</text>
<polygon fill="#666666" stroke="#666666" points="0.5,-363 0.5,-363 161.5,-363 161.5,-363 0.5,-363"/>
<polygon fill="#666666" stroke="#666666" points="0.5,-348 0.5,-348 161.5,-348 161.5,-348 0.5,-348"/>
<polygon fill="none" stroke="#666666" points="0,-331 0,-391 161,-391 161,-331 0,-331"/>
</a>
</g>
</g>
<!-- Node4&#45;&gt;Node3 -->
<g id="edge3_Node000003_Node000004" class="edge">
<title>Node4&#45;&gt;Node3</title>
<g id="a_edge3_Node000003_Node000004"><a xlink:title=" ">
<path fill="none" stroke="orange" d="M80.5,-320.8C80.5,-308.38 80.5,-295.03 80.5,-284.06"/>
<polygon fill="orange" stroke="orange" points="77,-320.95 80.5,-330.95 84,-320.95 77,-320.95"/>
</a>
</g>
<text text-anchor="middle" x="100" y="-305" font-family="Helvetica,sans-Serif" font-size="10.00" fill="grey"> &lt; int &gt;</text>
</g>
<!-- Node5 -->
<g id="Node000005" class="node">
<title>Node5</title>
<g id="a_Node000005"><a xlink:href="../../d7/de5/classIComparer.html" target="_top" xlink:title=" ">
<polygon fill="white" stroke="transparent" points="125.5,-477 35.5,-477 35.5,-428 125.5,-428 125.5,-477"/>
<text text-anchor="start" x="40.5" y="-464.5" font-family="Helvetica,sans-Serif" font-size="10.00">IComparer&lt; T &gt;</text>
<text text-anchor="start" x="78.5" y="-449.5" font-family="Helvetica,sans-Serif" font-size="10.00"> </text>
<text text-anchor="start" x="78.5" y="-434.5" font-family="Helvetica,sans-Serif" font-size="10.00"> </text>
<polygon fill="#666666" stroke="#666666" points="35.5,-459.5 35.5,-459.5 125.5,-459.5 125.5,-459.5 35.5,-459.5"/>
<polygon fill="#666666" stroke="#666666" points="35.5,-444.5 35.5,-444.5 125.5,-444.5 125.5,-444.5 35.5,-444.5"/>
<polygon fill="none" stroke="#666666" points="35.5,-428 35.5,-477 125.5,-477 125.5,-428 35.5,-428"/>
</a>
</g>
</g>
<!-- Node5&#45;&gt;Node4 -->
<g id="edge4_Node000004_Node000005" class="edge">
<title>Node5&#45;&gt;Node4</title>
<g id="a_edge4_Node000004_Node000005"><a xlink:title=" ">
<path fill="none" stroke="#63b8ff" d="M80.5,-417.7C80.5,-408.95 80.5,-399.6 80.5,-391.12"/>
<polygon fill="none" stroke="#63b8ff" points="77,-417.98 80.5,-427.98 84,-417.98 77,-417.98"/>
</a>
</g>
</g>
<!-- Node6 -->
<g id="Node000006" class="node">
<title>Node6</title>
<g id="a_Node000006"><a xlink:href="../../d7/de5/classIComparer.html" target="_top" xlink:title=" ">
<polygon fill="white" stroke="transparent" points="290,-284 193,-284 193,-235 290,-235 290,-284"/>
<text text-anchor="start" x="198.5" y="-271.5" font-family="Helvetica,sans-Serif" font-size="10.00">IComparer&lt; int &gt;</text>
<text text-anchor="start" x="240" y="-256.5" font-family="Helvetica,sans-Serif" font-size="10.00"> </text>
<text text-anchor="start" x="240" y="-241.5" font-family="Helvetica,sans-Serif" font-size="10.00"> </text>
<polygon fill="#666666" stroke="#666666" points="193.5,-266.5 193.5,-266.5 290.5,-266.5 290.5,-266.5 193.5,-266.5"/>
<polygon fill="#666666" stroke="#666666" points="193.5,-251.5 193.5,-251.5 290.5,-251.5 290.5,-251.5 193.5,-251.5"/>
<polygon fill="none" stroke="#666666" points="193,-235 193,-284 290,-284 290,-235 193,-235"/>
</a>
</g>
</g>
<!-- Node6&#45;&gt;Node1 -->
<g id="edge7_Node000001_Node000006" class="edge">
<title>Node6&#45;&gt;Node1</title>
<g id="a_edge7_Node000001_Node000006"><a xlink:title=" ">
<path fill="none" stroke="#63b8ff" d="M238.99,-224.81C236.71,-194.14 233.29,-148.26 230.61,-112.23"/>
<polygon fill="none" stroke="#63b8ff" points="235.52,-225.28 239.75,-234.99 242.5,-224.76 235.52,-225.28"/>
</a>
</g>
</g>
<!-- Node6&#45;&gt;Node2 -->
<g id="edge5_Node000002_Node000006" class="edge">
<title>Node6&#45;&gt;Node2</title>
<g id="a_edge5_Node000002_Node000006"><a xlink:title=" ">
<path fill="none" stroke="#63b8ff" d="M211.55,-227.44C202.2,-217.74 192.04,-207.21 183.27,-198.12"/>
<polygon fill="none" stroke="#63b8ff" points="209.04,-229.88 218.51,-234.65 214.08,-225.03 209.04,-229.88"/>
</a>
</g>
</g>
<!-- Node7 -->
<g id="Node000007" class="node">
<title>Node7</title>
<g id="a_Node000007"><a xlink:href="../../d7/de5/classIComparer.html" target="_top" xlink:title=" ">
<polygon fill="white" stroke="transparent" points="384,-198 277,-198 277,-149 384,-149 384,-198"/>
<text text-anchor="start" x="282.5" y="-185.5" font-family="Helvetica,sans-Serif" font-size="10.00">IComparer&lt; Item &gt;</text>
<text text-anchor="start" x="329" y="-170.5" font-family="Helvetica,sans-Serif" font-size="10.00"> </text>
<text text-anchor="start" x="329" y="-155.5" font-family="Helvetica,sans-Serif" font-size="10.00"> </text>
<polygon fill="#666666" stroke="#666666" points="277.5,-180.5 277.5,-180.5 384.5,-180.5 384.5,-180.5 277.5,-180.5"/>
<polygon fill="#666666" stroke="#666666" points="277.5,-165.5 277.5,-165.5 384.5,-165.5 384.5,-165.5 277.5,-165.5"/>
<polygon fill="none" stroke="#666666" points="277,-149 277,-198 384,-198 384,-149 277,-149"/>
</a>
</g>
</g>
<!-- Node7&#45;&gt;Node1 -->
<g id="edge8_Node000001_Node000007" class="edge">
<title>Node7&#45;&gt;Node1</title>
<g id="a_edge8_Node000001_Node000007"><a xlink:title=" ">
<path fill="none" stroke="#63b8ff" d="M302.35,-141.24C294.23,-132.22 285.12,-122.1 276.11,-112.09"/>
<polygon fill="none" stroke="#63b8ff" points="299.91,-143.76 309.2,-148.85 305.11,-139.07 299.91,-143.76"/>
</a>
</g>
</g>
</g>
</svg>

<g id="navigator" transform="translate(0 0)" fill="#404254">
  <rect fill="#f2f5e9" fill-opacity="0.5" stroke="#606060" stroke-width=".5" x="0" y="0" width="60" height="60"/>
  <use id="zoomplus" xlink:href="#zoomPlus" x="17" y="9" onmousedown="handleZoom(evt,'in')"/>
  <use id="zoomminus" xlink:href="#zoomMin" x="42" y="9" onmousedown="handleZoom(evt,'out')"/>
  <use id="reset" xlink:href="#resetDef" x="30" y="36" onmousedown="handleReset()"/>
   <use id="arrowup" xlink:href="#arrowUp" x="0" y="0" onmousedown="handlePan(0,-1)"/>
  <use id="arrowright" xlink:href="#arrowRight" x="0" y="0" onmousedown="handlePan(1,0)"/>
  <use id="arrowdown" xlink:href="#arrowDown" x="0" y="0" onmousedown="handlePan(0,1)"/>
  <use id="arrowleft" xlink:href="#arrowLeft" x="0" y="0" onmousedown="handlePan(-1,0)"/>
</g>
<svg viewBox="0 0 15 15" width="100%" height="30px" preserveAspectRatio="xMaxYMin meet">
 <g id="arrow_out" transform="scale(0.3 0.3)">
  <a xlink:href="classTerraria_1_1GameContent_1_1Creative_1_1SortingSteps_1_1ACreativeItemSortStep__coll__graph_org.svg" target="_base">
   <rect id="button" ry="5" rx="5" y="6" x="6" height="38" width="38"
        fill="#f2f5e9" fill-opacity="0.5" stroke="#606060" stroke-width="1.0"/>
   <path id="arrow"
     d="M 11.500037,31.436501 C 11.940474,20.09759 22.043105,11.32322 32.158766,21.979434 L 37.068811,17.246167 C 37.068811,17.246167 37.088388,32 37.088388,32 L 22.160133,31.978069 C 22.160133,31.978069 26.997745,27.140456 26.997745,27.140456 C 18.528582,18.264221 13.291696,25.230495 11.500037,31.436501 z"
     style="fill:#404040;"/>
  </a>
 </g>
</svg>

<style type='text/css'>
<![CDATA[
[data-mouse-over-selected='false'] { opacity: 0.7; }
[data-mouse-over-selected='true']  { opacity: 1.0; }
]]>
</style>
<script type="application/ecmascript"><![CDATA[
document.addEventListener('DOMContentLoaded', (event) => {
  highlightEdges();
  highlightAdjacentNodes();
});
]]></script>
</svg>
