<?xml version="1.0" encoding="UTF-8" standalone="no"?>
<!DOCTYPE svg PUBLIC "-//W3C//DTD SVG 1.1//EN"
 "http://www.w3.org/Graphics/SVG/1.1/DTD/svg11.dtd">
<!-- Generated by graphviz version 2.43.0 (0)
 -->
<!-- Title: TileDrawing.CacheSpecialDraws_Part1 Pages: 1 -->
<svg width="354pt" height="268pt"
 viewBox="0.00 0.00 354.00 267.50" xmlns="http://www.w3.org/2000/svg" xmlns:xlink="http://www.w3.org/1999/xlink">
<g id="graph0" class="graph" transform="scale(1 1) rotate(0) translate(4 263.5)">
<title>TileDrawing.CacheSpecialDraws_Part1</title>
<polygon fill="white" stroke="transparent" points="-4,4 -4,-263.5 350,-263.5 350,4 -4,4"/>
<!-- Node1 -->
<g id="node1" class="node">
<title>Node1</title>
<g id="a_node1"><a xlink:title=" ">
<polygon fill="#bfbfbf" stroke="black" points="0,-109 0,-139 143,-139 143,-109 0,-109"/>
<text text-anchor="start" x="8" y="-127" font-family="Helvetica,sans-Serif" font-size="10.00">TileDrawing.CacheSpecial</text>
<text text-anchor="middle" x="71.5" y="-116" font-family="Helvetica,sans-Serif" font-size="10.00">Draws_Part1</text>
</a>
</g>
</g>
<!-- Node2 -->
<g id="node2" class="node">
<title>Node2</title>
<g id="a_node2"><a xlink:href="../../d1/db9/classTileDrawing_a82a5087b146818ad1f4ec7b54fa9aec2.html#a82a5087b146818ad1f4ec7b54fa9aec2" target="_top" xlink:title=" ">
<polygon fill="white" stroke="black" points="179,-229 179,-259 346,-259 346,-229 179,-229"/>
<text text-anchor="start" x="187" y="-247" font-family="Helvetica,sans-Serif" font-size="10.00">TileDrawing.AddSpecialLegacy</text>
<text text-anchor="middle" x="262.5" y="-236" font-family="Helvetica,sans-Serif" font-size="10.00">Point</text>
</a>
</g>
</g>
<!-- Node1&#45;&gt;Node2 -->
<g id="edge1" class="edge">
<title>Node1&#45;&gt;Node2</title>
<path fill="none" stroke="midnightblue" d="M85.42,-139.07C104.07,-159.92 140.54,-197.42 179,-219 182.92,-221.2 187.06,-223.23 191.31,-225.1"/>
<polygon fill="midnightblue" stroke="midnightblue" points="190.18,-228.41 200.76,-228.93 192.81,-221.93 190.18,-228.41"/>
</g>
<!-- Node3 -->
<g id="node3" class="node">
<title>Node3</title>
<g id="a_node3"><a xlink:href="../../d1/db9/classTileDrawing_a0af170d8db0cc8598e746425fad62eac.html#a0af170d8db0cc8598e746425fad62eac" target="_top" xlink:title=" ">
<polygon fill="white" stroke="black" points="184,-190.5 184,-209.5 341,-209.5 341,-190.5 184,-190.5"/>
<text text-anchor="middle" x="262.5" y="-197.5" font-family="Helvetica,sans-Serif" font-size="10.00">TileDrawing.AddSpecialPoint</text>
</a>
</g>
</g>
<!-- Node1&#45;&gt;Node3 -->
<g id="edge2" class="edge">
<title>Node1&#45;&gt;Node3</title>
<path fill="none" stroke="midnightblue" d="M96.17,-139.03C117.21,-151.81 149.15,-169.8 179,-181 185.81,-183.56 193.07,-185.83 200.36,-187.84"/>
<polygon fill="midnightblue" stroke="midnightblue" points="199.7,-191.29 210.26,-190.42 201.47,-184.52 199.7,-191.29"/>
</g>
<!-- Node4 -->
<g id="node4" class="node">
<title>Node4</title>
<g id="a_node4"><a xlink:href="../../da/de3/classTEDisplayDoll_a41af0f424a0232e9d00676a5d6e77651.html#a41af0f424a0232e9d00676a5d6e77651" target="_top" xlink:title=" ">
<polygon fill="white" stroke="black" points="208.5,-152.5 208.5,-171.5 316.5,-171.5 316.5,-152.5 208.5,-152.5"/>
<text text-anchor="middle" x="262.5" y="-159.5" font-family="Helvetica,sans-Serif" font-size="10.00">TEDisplayDoll.Find</text>
</a>
</g>
</g>
<!-- Node1&#45;&gt;Node4 -->
<g id="edge3" class="edge">
<title>Node1&#45;&gt;Node4</title>
<path fill="none" stroke="midnightblue" d="M143.15,-138.2C163.32,-142.26 185.06,-146.63 204.32,-150.5"/>
<polygon fill="midnightblue" stroke="midnightblue" points="203.66,-153.94 214.15,-152.48 205.04,-147.08 203.66,-153.94"/>
</g>
<!-- Node5 -->
<g id="node5" class="node">
<title>Node5</title>
<g id="a_node5"><a xlink:href="../../dc/dd0/classTEFoodPlatter_a6d290c0775dcdee0c784e8a0ec5cfd5a.html#a6d290c0775dcdee0c784e8a0ec5cfd5a" target="_top" xlink:title=" ">
<polygon fill="white" stroke="black" points="209,-114.5 209,-133.5 316,-133.5 316,-114.5 209,-114.5"/>
<text text-anchor="middle" x="262.5" y="-121.5" font-family="Helvetica,sans-Serif" font-size="10.00">TEFoodPlatter.Find</text>
</a>
</g>
</g>
<!-- Node1&#45;&gt;Node5 -->
<g id="edge4" class="edge">
<title>Node1&#45;&gt;Node5</title>
<path fill="none" stroke="midnightblue" d="M143.15,-124C161.38,-124 180.87,-124 198.68,-124"/>
<polygon fill="midnightblue" stroke="midnightblue" points="198.94,-127.5 208.94,-124 198.94,-120.5 198.94,-127.5"/>
</g>
<!-- Node6 -->
<g id="node6" class="node">
<title>Node6</title>
<g id="a_node6"><a xlink:href="../../d4/d53/classTEHatRack_ae0691c30bb479159ea7e104cadc5615b.html#ae0691c30bb479159ea7e104cadc5615b" target="_top" xlink:title=" ">
<polygon fill="white" stroke="black" points="216,-76.5 216,-95.5 309,-95.5 309,-76.5 216,-76.5"/>
<text text-anchor="middle" x="262.5" y="-83.5" font-family="Helvetica,sans-Serif" font-size="10.00">TEHatRack.Find</text>
</a>
</g>
</g>
<!-- Node1&#45;&gt;Node6 -->
<g id="edge5" class="edge">
<title>Node1&#45;&gt;Node6</title>
<path fill="none" stroke="midnightblue" d="M143.15,-109.8C163.86,-105.63 186.21,-101.14 205.85,-97.19"/>
<polygon fill="midnightblue" stroke="midnightblue" points="206.74,-100.58 215.85,-95.18 205.36,-93.72 206.74,-100.58"/>
</g>
<!-- Node7 -->
<g id="node7" class="node">
<title>Node7</title>
<g id="a_node7"><a xlink:href="../../de/dc4/classTEItemFrame_affef40489aafe167b93e2894e00af26f.html#affef40489aafe167b93e2894e00af26f" target="_top" xlink:title=" ">
<polygon fill="white" stroke="black" points="210,-38.5 210,-57.5 315,-57.5 315,-38.5 210,-38.5"/>
<text text-anchor="middle" x="262.5" y="-45.5" font-family="Helvetica,sans-Serif" font-size="10.00">TEItemFrame.Find</text>
</a>
</g>
</g>
<!-- Node1&#45;&gt;Node7 -->
<g id="edge6" class="edge">
<title>Node1&#45;&gt;Node7</title>
<path fill="none" stroke="midnightblue" d="M96.17,-108.97C117.21,-96.19 149.15,-78.2 179,-67 185.81,-64.44 193.07,-62.17 200.36,-60.16"/>
<polygon fill="midnightblue" stroke="midnightblue" points="201.47,-63.48 210.26,-57.58 199.7,-56.71 201.47,-63.48"/>
</g>
<!-- Node8 -->
<g id="node8" class="node">
<title>Node8</title>
<g id="a_node8"><a xlink:href="../../d7/d93/classTEWeaponsRack_a2308e8f41ec75fc510fb01a9c6182ebe.html#a2308e8f41ec75fc510fb01a9c6182ebe" target="_top" xlink:title=" ">
<polygon fill="white" stroke="black" points="202.5,-0.5 202.5,-19.5 322.5,-19.5 322.5,-0.5 202.5,-0.5"/>
<text text-anchor="middle" x="262.5" y="-7.5" font-family="Helvetica,sans-Serif" font-size="10.00">TEWeaponsRack.Find</text>
</a>
</g>
</g>
<!-- Node1&#45;&gt;Node8 -->
<g id="edge7" class="edge">
<title>Node1&#45;&gt;Node8</title>
<path fill="none" stroke="midnightblue" d="M84.92,-108.92C103.23,-87.7 139.61,-49.38 179,-29 183.53,-26.65 188.36,-24.6 193.31,-22.79"/>
<polygon fill="midnightblue" stroke="midnightblue" points="194.54,-26.07 202.94,-19.62 192.34,-19.42 194.54,-26.07"/>
</g>
</g>
</svg>
