<?xml version="1.0" encoding="UTF-8" standalone="no"?>
<!DOCTYPE svg PUBLIC "-//W3C//DTD SVG 1.1//EN"
 "http://www.w3.org/Graphics/SVG/1.1/DTD/svg11.dtd">
<!-- Generated by graphviz version 2.43.0 (0)
 -->
<!-- Title: Tile.ClearTile Pages: 1 -->
<svg width="206pt" height="142pt"
 viewBox="0.00 0.00 206.00 142.00" xmlns="http://www.w3.org/2000/svg" xmlns:xlink="http://www.w3.org/1999/xlink">
<g id="graph0" class="graph" transform="scale(1 1) rotate(0) translate(4 138)">
<title>Tile.ClearTile</title>
<polygon fill="white" stroke="transparent" points="-4,4 -4,-138 202,-138 202,4 -4,4"/>
<!-- Node1 -->
<g id="node1" class="node">
<title>Node1</title>
<g id="a_node1"><a xlink:title=" ">
<polygon fill="#bfbfbf" stroke="black" points="0,-57.5 0,-76.5 81,-76.5 81,-57.5 0,-57.5"/>
<text text-anchor="middle" x="40.5" y="-64.5" font-family="Helvetica,sans-Serif" font-size="10.00">Tile.ClearTile</text>
</a>
</g>
</g>
<!-- Node2 -->
<g id="node2" class="node">
<title>Node2</title>
<g id="a_node2"><a xlink:href="../../d6/dba/classTile_a64e4b5e9c17707d5bf63cf590bb48c9b.html#a64e4b5e9c17707d5bf63cf590bb48c9b" target="_top" xlink:title=" ">
<polygon fill="white" stroke="black" points="123.5,-114.5 123.5,-133.5 191.5,-133.5 191.5,-114.5 123.5,-114.5"/>
<text text-anchor="middle" x="157.5" y="-121.5" font-family="Helvetica,sans-Serif" font-size="10.00">Tile.active</text>
</a>
</g>
</g>
<!-- Node1&#45;&gt;Node2 -->
<g id="edge1" class="edge">
<title>Node1&#45;&gt;Node2</title>
<path fill="none" stroke="midnightblue" d="M60.38,-76.62C75.62,-84.36 97.65,-95.48 117,-105 120.34,-106.64 123.84,-108.35 127.32,-110.04"/>
<polygon fill="midnightblue" stroke="midnightblue" points="125.84,-113.21 136.37,-114.4 128.89,-106.91 125.84,-113.21"/>
</g>
<!-- Node3 -->
<g id="node3" class="node">
<title>Node3</title>
<g id="a_node3"><a xlink:href="../../d6/dba/classTile_a975f34b33a09445dfd475309fdcfd6a0.html#a975f34b33a09445dfd475309fdcfd6a0" target="_top" xlink:title=" ">
<polygon fill="white" stroke="black" points="117,-76.5 117,-95.5 198,-95.5 198,-76.5 117,-76.5"/>
<text text-anchor="middle" x="157.5" y="-83.5" font-family="Helvetica,sans-Serif" font-size="10.00">Tile.halfBrick</text>
</a>
</g>
</g>
<!-- Node1&#45;&gt;Node3 -->
<g id="edge2" class="edge">
<title>Node1&#45;&gt;Node3</title>
<path fill="none" stroke="midnightblue" d="M81.08,-73.54C89.39,-74.91 98.26,-76.38 106.88,-77.8"/>
<polygon fill="midnightblue" stroke="midnightblue" points="106.41,-81.27 116.85,-79.45 107.55,-74.37 106.41,-81.27"/>
</g>
<!-- Node4 -->
<g id="node4" class="node">
<title>Node4</title>
<g id="a_node4"><a xlink:href="../../d6/dba/classTile_abb2a30463eddd9cbdc91f329d2aa4bf8.html#abb2a30463eddd9cbdc91f329d2aa4bf8" target="_top" xlink:title=" ">
<polygon fill="white" stroke="black" points="119,-38.5 119,-57.5 196,-57.5 196,-38.5 119,-38.5"/>
<text text-anchor="middle" x="157.5" y="-45.5" font-family="Helvetica,sans-Serif" font-size="10.00">Tile.inActive</text>
</a>
</g>
</g>
<!-- Node1&#45;&gt;Node4 -->
<g id="edge3" class="edge">
<title>Node1&#45;&gt;Node4</title>
<path fill="none" stroke="midnightblue" d="M81.08,-60.46C89.95,-59 99.46,-57.42 108.63,-55.91"/>
<polygon fill="midnightblue" stroke="midnightblue" points="109.49,-59.31 118.79,-54.23 108.35,-52.41 109.49,-59.31"/>
</g>
<!-- Node5 -->
<g id="node5" class="node">
<title>Node5</title>
<g id="a_node5"><a xlink:href="../../d6/dba/classTile_a402ffa996ee74bf853b1538dfd39831c.html#a402ffa996ee74bf853b1538dfd39831c" target="_top" xlink:title=" ">
<polygon fill="white" stroke="black" points="125.5,-0.5 125.5,-19.5 189.5,-19.5 189.5,-0.5 125.5,-0.5"/>
<text text-anchor="middle" x="157.5" y="-7.5" font-family="Helvetica,sans-Serif" font-size="10.00">Tile.slope</text>
</a>
</g>
</g>
<!-- Node1&#45;&gt;Node5 -->
<g id="edge4" class="edge">
<title>Node1&#45;&gt;Node5</title>
<path fill="none" stroke="midnightblue" d="M60.38,-57.38C75.62,-49.64 97.65,-38.52 117,-29 120.34,-27.36 123.84,-25.65 127.32,-23.96"/>
<polygon fill="midnightblue" stroke="midnightblue" points="128.89,-27.09 136.37,-19.6 125.84,-20.79 128.89,-27.09"/>
</g>
</g>
</svg>
