<?xml version="1.0" encoding="UTF-8" standalone="no"?>
<!DOCTYPE svg PUBLIC "-//W3C//DTD SVG 1.1//EN"
 "http://www.w3.org/Graphics/SVG/1.1/DTD/svg11.dtd">
<!-- Generated by graphviz version 2.43.0 (0)
 -->
<!-- Title: ReLogic.Peripherals.RGB.Corsair.CorsairMouse Pages: 1 -->
<!--zoomable 827 -->

<svg id="main" version="1.1" xmlns="http://www.w3.org/2000/svg" xmlns:xlink="http://www.w3.org/1999/xlink" xml:space="preserve" onload="init(evt)">
<style type="text/css"><![CDATA[
.node, .edge {opacity: 0.7;}
.node.selected, .edge.selected {opacity: 1;}
.edge:hover path { stroke: red; }
.edge:hover polygon { stroke: red; fill: red; }
]]></style>

<defs>
  <circle id="rim" cx="0" cy="0" r="7"/>
  <circle id="rim2" cx="0" cy="0" r="3.5"/>
  <g id="zoomPlus">
    <use xlink:href="#rim" fill="#404040"><set attributeName="fill" to="#808080" begin="zoomplus.mouseover" end="zoomplus.mouseout"/></use>
    <path d="M-4,0h8M0,-4v8" fill="none" stroke="white" stroke-width="1.5" pointer-events="none"/>
  </g>
  <g id="zoomMin">
    <use xlink:href="#rim" fill="#404040"><set attributeName="fill" to="#808080" begin="zoomminus.mouseover" end="zoomminus.mouseout"/></use>
    <path d="M-4,0h8" fill="none" stroke="white" stroke-width="1.5" pointer-events="none"/>
  </g>
  <g id="arrowUp" transform="translate(30 24)">
    <use xlink:href="#rim"/>
    <path pointer-events="none" fill="none" stroke="white" stroke-width="1.5" d="M0,-3.0v7 M-2.5,-0.5L0,-3.0L2.5,-0.5"/>
  </g>
  <g id="arrowRight" transform="rotate(90) translate(36 -43)">
    <use xlink:href="#rim"/>
    <path pointer-events="none" fill="none" stroke="white" stroke-width="1.5" d="M0,-3.0v7 M-2.5,-0.5L0,-3.0L2.5,-0.5"/>
  </g>
  <g id="arrowDown" transform="rotate(180) translate(-30 -48)">
    <use xlink:href="#rim"/>
    <path pointer-events="none" fill="none" stroke="white" stroke-width="1.5" d="M0,-3.0v7 M-2.5,-0.5L0,-3.0L2.5,-0.5"/>
  </g>
  <g id="arrowLeft" transform="rotate(270) translate(-36 17)">
    <use xlink:href="#rim"/>
    <path pointer-events="none" fill="none" stroke="white" stroke-width="1.5" d="M0,-3.0v7 M-2.5,-0.5L0,-3.0L2.5,-0.5"/>
  </g>
  <g id="resetDef">
    <use xlink:href="#rim2" fill="#404040"><set attributeName="fill" to="#808080" begin="reset.mouseover" end="reset.mouseout"/></use>
  </g>
</defs>
<script type="application/ecmascript">
var viewWidth = 224;
var viewHeight = 827;
var sectionId = 'dynsection-0';
</script>
<script type="application/ecmascript" xlink:href="../../svg.min.js"/>
<svg id="graph" class="graph">
<g id="viewport">
<title>ReLogic.Peripherals.RGB.Corsair.CorsairMouse</title>
<!-- Node1 -->
<g id="Node000001" class="node">
<title>Node1</title>
<g id="a_Node000001"><a xlink:title=" ">
<polygon fill="#999999" stroke="transparent" points="196,-141 20,-141 20,0 196,0 196,-141"/>
<text text-anchor="start" x="46" y="-128.5" font-family="Helvetica,sans-Serif" font-size="10.00">ReLogic.Peripherals.RGB.</text>
<text text-anchor="start" x="56" y="-117.5" font-family="Helvetica,sans-Serif" font-size="10.00">Corsair.CorsairMouse</text>
<text text-anchor="start" x="106" y="-102.5" font-family="Helvetica,sans-Serif" font-size="10.00"> </text>
<text text-anchor="start" x="24" y="-87.5" font-family="Helvetica,sans-Serif" font-size="10.00">+</text>
<text text-anchor="start" x="37" y="-87.5" font-family="Helvetica,sans-Serif" font-size="10.00">static CorsairMouse</text>
<text text-anchor="start" x="37" y="-76.5" font-family="Helvetica,sans-Serif" font-size="10.00"> Create(int deviceIndex,</text>
<text text-anchor="start" x="37" y="-65.5" font-family="Helvetica,sans-Serif" font-size="10.00"> CorsairDeviceInfo deviceInfo,</text>
<text text-anchor="start" x="37" y="-54.5" font-family="Helvetica,sans-Serif" font-size="10.00"> DeviceColorProfile colorProfile)</text>
<text text-anchor="start" x="26.5" y="-39.5" font-family="Helvetica,sans-Serif" font-size="10.00">&#45;</text>
<text text-anchor="start" x="37" y="-39.5" font-family="Helvetica,sans-Serif" font-size="10.00">CorsairMouse(Fragment</text>
<text text-anchor="start" x="37" y="-28.5" font-family="Helvetica,sans-Serif" font-size="10.00"> fragment, CorsairLedPosition</text>
<text text-anchor="start" x="37" y="-17.5" font-family="Helvetica,sans-Serif" font-size="10.00">[] leds, DeviceColorProfile</text>
<text text-anchor="start" x="37" y="-6.5" font-family="Helvetica,sans-Serif" font-size="10.00"> colorProfile)</text>
<polygon fill="#666666" stroke="#666666" points="20,-112.5 20,-112.5 196,-112.5 196,-112.5 20,-112.5"/>
<polygon fill="#666666" stroke="#666666" points="20,-97.5 20,-97.5 196,-97.5 196,-97.5 20,-97.5"/>
<polygon fill="none" stroke="#666666" points="20,0 20,-141 196,-141 196,0 20,0"/>
</a>
</g>
</g>
<!-- Node2 -->
<g id="Node000002" class="node">
<title>Node2</title>
<g id="a_Node000002"><a xlink:href="../../da/d5b/classReLogic_1_1Peripherals_1_1RGB_1_1Corsair_1_1CorsairGenericDevice.html" target="_top" xlink:title=" ">
<polygon fill="white" stroke="transparent" points="216,-296 0,-296 0,-177 216,-177 216,-296"/>
<text text-anchor="start" x="55" y="-283.5" font-family="Helvetica,sans-Serif" font-size="10.00">CorsairGenericDevice</text>
<text text-anchor="start" x="6.5" y="-268.5" font-family="Helvetica,sans-Serif" font-size="10.00">&#45;</text>
<text text-anchor="start" x="17" y="-268.5" font-family="Helvetica,sans-Serif" font-size="10.00">readonly CorsairLedColor</text>
<text text-anchor="start" x="17" y="-257.5" font-family="Helvetica,sans-Serif" font-size="10.00">[] _ledColors</text>
<text text-anchor="start" x="4" y="-242.5" font-family="Helvetica,sans-Serif" font-size="10.00">+</text>
<text text-anchor="start" x="17" y="-242.5" font-family="Helvetica,sans-Serif" font-size="10.00">override void Present()</text>
<text text-anchor="start" x="4" y="-227.5" font-family="Helvetica,sans-Serif" font-size="10.00">#</text>
<text text-anchor="start" x="17" y="-227.5" font-family="Helvetica,sans-Serif" font-size="10.00">CorsairGenericDevice</text>
<text text-anchor="start" x="17" y="-216.5" font-family="Helvetica,sans-Serif" font-size="10.00">(RgbDeviceType deviceType,</text>
<text text-anchor="start" x="17" y="-205.5" font-family="Helvetica,sans-Serif" font-size="10.00"> Fragment fragment, CorsairLedPosition</text>
<text text-anchor="start" x="17" y="-194.5" font-family="Helvetica,sans-Serif" font-size="10.00">[] ledPositions, DeviceColorProfile</text>
<text text-anchor="start" x="17" y="-183.5" font-family="Helvetica,sans-Serif" font-size="10.00"> colorProfile)</text>
<polygon fill="#666666" stroke="#666666" points="0,-278.5 0,-278.5 216,-278.5 216,-278.5 0,-278.5"/>
<polygon fill="#666666" stroke="#666666" points="0,-252.5 0,-252.5 15,-252.5 15,-252.5 0,-252.5"/>
<polygon fill="#666666" stroke="#666666" points="15,-252.5 15,-252.5 216,-252.5 216,-252.5 15,-252.5"/>
<polygon fill="none" stroke="#666666" points="0,-177 0,-296 216,-296 216,-177 0,-177"/>
</a>
</g>
</g>
<!-- Node2&#45;&gt;Node1 -->
<g id="edge1_Node000001_Node000002" class="edge">
<title>Node2&#45;&gt;Node1</title>
<g id="a_edge1_Node000001_Node000002"><a xlink:title=" ">
<path fill="none" stroke="#63b8ff" d="M108,-166.57C108,-158.12 108,-149.48 108,-141.02"/>
<polygon fill="none" stroke="#63b8ff" points="104.5,-166.76 108,-176.76 111.5,-166.76 104.5,-166.76"/>
</a>
</g>
</g>
<!-- Node3 -->
<g id="Node000003" class="node">
<title>Node3</title>
<g id="a_Node000003"><a xlink:href="../../d0/dc0/classReLogic_1_1Peripherals_1_1RGB_1_1RgbDevice.html" target="_top" xlink:title=" ">
<polygon fill="white" stroke="transparent" points="215.5,-819 0.5,-819 0.5,-332 215.5,-332 215.5,-819"/>
<text text-anchor="start" x="82" y="-806.5" font-family="Helvetica,sans-Serif" font-size="10.00">RgbDevice</text>
<text text-anchor="start" x="5" y="-791.5" font-family="Helvetica,sans-Serif" font-size="10.00">+</text>
<text text-anchor="start" x="18" y="-791.5" font-family="Helvetica,sans-Serif" font-size="10.00">readonly RgbDeviceType Type</text>
<text text-anchor="start" x="5" y="-776.5" font-family="Helvetica,sans-Serif" font-size="10.00">+</text>
<text text-anchor="start" x="18" y="-776.5" font-family="Helvetica,sans-Serif" font-size="10.00">readonly RgbDeviceVendor</text>
<text text-anchor="start" x="18" y="-765.5" font-family="Helvetica,sans-Serif" font-size="10.00"> Vendor</text>
<text text-anchor="start" x="5" y="-750.5" font-family="Helvetica,sans-Serif" font-size="10.00">+</text>
<text text-anchor="start" x="18" y="-750.5" font-family="Helvetica,sans-Serif" font-size="10.00">EffectDetailLevel Preferred</text>
<text text-anchor="start" x="18" y="-739.5" font-family="Helvetica,sans-Serif" font-size="10.00">LevelOfDetail</text>
<text text-anchor="start" x="5" y="-724.5" font-family="Helvetica,sans-Serif" font-size="10.00">+</text>
<text text-anchor="start" x="18" y="-724.5" font-family="Helvetica,sans-Serif" font-size="10.00">int LedCount</text>
<text text-anchor="start" x="7.5" y="-709.5" font-family="Helvetica,sans-Serif" font-size="10.00">&#45;</text>
<text text-anchor="start" x="18" y="-709.5" font-family="Helvetica,sans-Serif" font-size="10.00">readonly Fragment </text>
<text text-anchor="start" x="18" y="-698.5" font-family="Helvetica,sans-Serif" font-size="10.00">_backBuffer</text>
<text text-anchor="start" x="7.5" y="-683.5" font-family="Helvetica,sans-Serif" font-size="10.00">&#45;</text>
<text text-anchor="start" x="18" y="-683.5" font-family="Helvetica,sans-Serif" font-size="10.00">readonly Fragment </text>
<text text-anchor="start" x="18" y="-672.5" font-family="Helvetica,sans-Serif" font-size="10.00">_workingFragment</text>
<text text-anchor="start" x="7.5" y="-657.5" font-family="Helvetica,sans-Serif" font-size="10.00">&#45;</text>
<text text-anchor="start" x="18" y="-657.5" font-family="Helvetica,sans-Serif" font-size="10.00">readonly DeviceColorProfile</text>
<text text-anchor="start" x="18" y="-646.5" font-family="Helvetica,sans-Serif" font-size="10.00"> _colorProfile</text>
<text text-anchor="start" x="5" y="-631.5" font-family="Helvetica,sans-Serif" font-size="10.00">+</text>
<text text-anchor="start" x="18" y="-631.5" font-family="Helvetica,sans-Serif" font-size="10.00">virtual Fragment Rasterize()</text>
<text text-anchor="start" x="5" y="-616.5" font-family="Helvetica,sans-Serif" font-size="10.00">+</text>
<text text-anchor="start" x="18" y="-616.5" font-family="Helvetica,sans-Serif" font-size="10.00">void SetLedColor(int</text>
<text text-anchor="start" x="18" y="-605.5" font-family="Helvetica,sans-Serif" font-size="10.00"> index, Vector4 color)</text>
<text text-anchor="start" x="5" y="-590.5" font-family="Helvetica,sans-Serif" font-size="10.00">+</text>
<text text-anchor="start" x="18" y="-590.5" font-family="Helvetica,sans-Serif" font-size="10.00">Vector2 GetLedCanvasPosition</text>
<text text-anchor="start" x="18" y="-579.5" font-family="Helvetica,sans-Serif" font-size="10.00">(int index)</text>
<text text-anchor="start" x="5" y="-564.5" font-family="Helvetica,sans-Serif" font-size="10.00">+</text>
<text text-anchor="start" x="18" y="-564.5" font-family="Helvetica,sans-Serif" font-size="10.00">Point GetLedGridPosition</text>
<text text-anchor="start" x="18" y="-553.5" font-family="Helvetica,sans-Serif" font-size="10.00">(int index)</text>
<text text-anchor="start" x="5" y="-538.5" font-family="Helvetica,sans-Serif" font-size="10.00">+</text>
<text text-anchor="start" x="18" y="-538.5" font-family="Helvetica,sans-Serif" font-size="10.00">virtual void Render</text>
<text text-anchor="start" x="18" y="-527.5" font-family="Helvetica,sans-Serif" font-size="10.00">(Fragment fragment,</text>
<text text-anchor="start" x="18" y="-516.5" font-family="Helvetica,sans-Serif" font-size="10.00"> ShaderBlendState blendState)</text>
<text text-anchor="start" x="5" y="-501.5" font-family="Helvetica,sans-Serif" font-size="10.00">+</text>
<text text-anchor="start" x="18" y="-501.5" font-family="Helvetica,sans-Serif" font-size="10.00">void Present()</text>
<text text-anchor="start" x="5" y="-486.5" font-family="Helvetica,sans-Serif" font-size="10.00">+</text>
<text text-anchor="start" x="18" y="-486.5" font-family="Helvetica,sans-Serif" font-size="10.00">virtual void DebugDraw</text>
<text text-anchor="start" x="18" y="-475.5" font-family="Helvetica,sans-Serif" font-size="10.00">(IDebugDrawer drawer,</text>
<text text-anchor="start" x="18" y="-464.5" font-family="Helvetica,sans-Serif" font-size="10.00"> Vector2 position, float scale)</text>
<text text-anchor="start" x="5" y="-449.5" font-family="Helvetica,sans-Serif" font-size="10.00">#</text>
<text text-anchor="start" x="18" y="-449.5" font-family="Helvetica,sans-Serif" font-size="10.00">RgbDevice(RgbDeviceVendor</text>
<text text-anchor="start" x="18" y="-438.5" font-family="Helvetica,sans-Serif" font-size="10.00"> vendor, RgbDeviceType type,</text>
<text text-anchor="start" x="18" y="-427.5" font-family="Helvetica,sans-Serif" font-size="10.00"> Fragment fragment, DeviceColorProfile</text>
<text text-anchor="start" x="18" y="-416.5" font-family="Helvetica,sans-Serif" font-size="10.00"> colorProfile)</text>
<text text-anchor="start" x="5" y="-401.5" font-family="Helvetica,sans-Serif" font-size="10.00">#</text>
<text text-anchor="start" x="18" y="-401.5" font-family="Helvetica,sans-Serif" font-size="10.00">Vector4 GetProcessedLedColor</text>
<text text-anchor="start" x="18" y="-390.5" font-family="Helvetica,sans-Serif" font-size="10.00">(int index)</text>
<text text-anchor="start" x="5" y="-375.5" font-family="Helvetica,sans-Serif" font-size="10.00">#</text>
<text text-anchor="start" x="18" y="-375.5" font-family="Helvetica,sans-Serif" font-size="10.00">Vector4 GetUnprocessedLed</text>
<text text-anchor="start" x="18" y="-364.5" font-family="Helvetica,sans-Serif" font-size="10.00">Color(int index)</text>
<text text-anchor="start" x="5" y="-349.5" font-family="Helvetica,sans-Serif" font-size="10.00">#</text>
<text text-anchor="start" x="18" y="-349.5" font-family="Helvetica,sans-Serif" font-size="10.00">Color ProcessLedColor</text>
<text text-anchor="start" x="18" y="-338.5" font-family="Helvetica,sans-Serif" font-size="10.00">(Color color)</text>
<polygon fill="#666666" stroke="#666666" points="1,-801.5 1,-801.5 216,-801.5 216,-801.5 1,-801.5"/>
<polygon fill="#666666" stroke="#666666" points="1,-641.5 1,-641.5 16,-641.5 16,-641.5 1,-641.5"/>
<polygon fill="#666666" stroke="#666666" points="16,-641.5 16,-641.5 216,-641.5 216,-641.5 16,-641.5"/>
<polygon fill="none" stroke="#666666" points="0.5,-332 0.5,-819 215.5,-819 215.5,-332 0.5,-332"/>
</a>
</g>
</g>
<!-- Node3&#45;&gt;Node2 -->
<g id="edge2_Node000002_Node000003" class="edge">
<title>Node3&#45;&gt;Node2</title>
<g id="a_edge2_Node000002_Node000003"><a xlink:title=" ">
<path fill="none" stroke="#63b8ff" d="M108,-321.56C108,-312.62 108,-304.11 108,-296.18"/>
<polygon fill="none" stroke="#63b8ff" points="104.5,-321.82 108,-331.82 111.5,-321.82 104.5,-321.82"/>
</a>
</g>
</g>
</g>
</svg>

<g id="navigator" transform="translate(0 0)" fill="#404254">
  <rect fill="#f2f5e9" fill-opacity="0.5" stroke="#606060" stroke-width=".5" x="0" y="0" width="60" height="60"/>
  <use id="zoomplus" xlink:href="#zoomPlus" x="17" y="9" onmousedown="handleZoom(evt,'in')"/>
  <use id="zoomminus" xlink:href="#zoomMin" x="42" y="9" onmousedown="handleZoom(evt,'out')"/>
  <use id="reset" xlink:href="#resetDef" x="30" y="36" onmousedown="handleReset()"/>
   <use id="arrowup" xlink:href="#arrowUp" x="0" y="0" onmousedown="handlePan(0,-1)"/>
  <use id="arrowright" xlink:href="#arrowRight" x="0" y="0" onmousedown="handlePan(1,0)"/>
  <use id="arrowdown" xlink:href="#arrowDown" x="0" y="0" onmousedown="handlePan(0,1)"/>
  <use id="arrowleft" xlink:href="#arrowLeft" x="0" y="0" onmousedown="handlePan(-1,0)"/>
</g>
<svg viewBox="0 0 15 15" width="100%" height="30px" preserveAspectRatio="xMaxYMin meet">
 <g id="arrow_out" transform="scale(0.3 0.3)">
  <a xlink:href="classReLogic_1_1Peripherals_1_1RGB_1_1Corsair_1_1CorsairMouse__inherit__graph_org.svg" target="_base">
   <rect id="button" ry="5" rx="5" y="6" x="6" height="38" width="38"
        fill="#f2f5e9" fill-opacity="0.5" stroke="#606060" stroke-width="1.0"/>
   <path id="arrow"
     d="M 11.500037,31.436501 C 11.940474,20.09759 22.043105,11.32322 32.158766,21.979434 L 37.068811,17.246167 C 37.068811,17.246167 37.088388,32 37.088388,32 L 22.160133,31.978069 C 22.160133,31.978069 26.997745,27.140456 26.997745,27.140456 C 18.528582,18.264221 13.291696,25.230495 11.500037,31.436501 z"
     style="fill:#404040;"/>
  </a>
 </g>
</svg>

<style type='text/css'>
<![CDATA[
[data-mouse-over-selected='false'] { opacity: 0.7; }
[data-mouse-over-selected='true']  { opacity: 1.0; }
]]>
</style>
<script type="application/ecmascript"><![CDATA[
document.addEventListener('DOMContentLoaded', (event) => {
  highlightEdges();
  highlightAdjacentNodes();
});
]]></script>
</svg>
