<?xml version="1.0" encoding="UTF-8" standalone="no"?>
<!DOCTYPE svg PUBLIC "-//W3C//DTD SVG 1.1//EN"
 "http://www.w3.org/Graphics/SVG/1.1/DTD/svg11.dtd">
<!-- Generated by graphviz version 2.43.0 (0)
 -->
<!-- Title: FancyClassicPlayerResourcesDisplaySet.Draw Pages: 1 -->
<svg width="1397pt" height="274pt"
 viewBox="0.00 0.00 1397.00 274.00" xmlns="http://www.w3.org/2000/svg" xmlns:xlink="http://www.w3.org/1999/xlink">
<g id="graph0" class="graph" transform="scale(1 1) rotate(0) translate(4 270)">
<title>FancyClassicPlayerResourcesDisplaySet.Draw</title>
<polygon fill="white" stroke="transparent" points="-4,4 -4,-270 1393,-270 1393,4 -4,4"/>
<!-- Node1 -->
<g id="node1" class="node">
<title>Node1</title>
<g id="a_node1"><a xlink:title=" ">
<polygon fill="#bfbfbf" stroke="black" points="0,-68.5 0,-98.5 160,-98.5 160,-68.5 0,-68.5"/>
<text text-anchor="start" x="8" y="-86.5" font-family="Helvetica,sans-Serif" font-size="10.00">FancyClassicPlayerResources</text>
<text text-anchor="middle" x="80" y="-75.5" font-family="Helvetica,sans-Serif" font-size="10.00">DisplaySet.Draw</text>
</a>
</g>
</g>
<!-- Node2 -->
<g id="node2" class="node">
<title>Node2</title>
<g id="a_node2"><a xlink:href="../../da/d03/classFancyClassicPlayerResourcesDisplaySet_aae0c6bb82a2e35eeafae81535045fc3b.html#aae0c6bb82a2e35eeafae81535045fc3b" target="_top" xlink:title=" ">
<polygon fill="white" stroke="black" points="196,-137.5 196,-167.5 356,-167.5 356,-137.5 196,-137.5"/>
<text text-anchor="start" x="204" y="-155.5" font-family="Helvetica,sans-Serif" font-size="10.00">FancyClassicPlayerResources</text>
<text text-anchor="middle" x="276" y="-144.5" font-family="Helvetica,sans-Serif" font-size="10.00">DisplaySet.DrawLifeBar</text>
</a>
</g>
</g>
<!-- Node1&#45;&gt;Node2 -->
<g id="edge1" class="edge">
<title>Node1&#45;&gt;Node2</title>
<path fill="none" stroke="midnightblue" d="M123.57,-98.64C152.76,-109.02 191.67,-122.86 222.74,-133.91"/>
<polygon fill="midnightblue" stroke="midnightblue" points="221.93,-137.34 232.53,-137.39 224.28,-130.74 221.93,-137.34"/>
</g>
<!-- Node12 -->
<g id="node12" class="node">
<title>Node12</title>
<g id="a_node12"><a xlink:href="../../da/d03/classFancyClassicPlayerResourcesDisplaySet_a9499fd9cdf0d3a3b27aa40e6809c1fd3.html#a9499fd9cdf0d3a3b27aa40e6809c1fd3" target="_top" xlink:title=" ">
<polygon fill="white" stroke="black" points="196,-68.5 196,-98.5 356,-98.5 356,-68.5 196,-68.5"/>
<text text-anchor="start" x="204" y="-86.5" font-family="Helvetica,sans-Serif" font-size="10.00">FancyClassicPlayerResources</text>
<text text-anchor="middle" x="276" y="-75.5" font-family="Helvetica,sans-Serif" font-size="10.00">DisplaySet.DrawManaBar</text>
</a>
</g>
</g>
<!-- Node1&#45;&gt;Node12 -->
<g id="edge12" class="edge">
<title>Node1&#45;&gt;Node12</title>
<path fill="none" stroke="midnightblue" d="M160.19,-83.5C168.53,-83.5 177.05,-83.5 185.5,-83.5"/>
<polygon fill="midnightblue" stroke="midnightblue" points="185.75,-87 195.75,-83.5 185.75,-80 185.75,-87"/>
</g>
<!-- Node15 -->
<g id="node15" class="node">
<title>Node15</title>
<g id="a_node15"><a xlink:href="../../da/d03/classFancyClassicPlayerResourcesDisplaySet_a5549e076739d76f11884b5eafe2ef685.html#a5549e076739d76f11884b5eafe2ef685" target="_top" xlink:title=" ">
<polygon fill="white" stroke="black" points="196,-19.5 196,-49.5 356,-49.5 356,-19.5 196,-19.5"/>
<text text-anchor="start" x="204" y="-37.5" font-family="Helvetica,sans-Serif" font-size="10.00">FancyClassicPlayerResources</text>
<text text-anchor="middle" x="276" y="-26.5" font-family="Helvetica,sans-Serif" font-size="10.00">DisplaySet.PrepareFields</text>
</a>
</g>
</g>
<!-- Node1&#45;&gt;Node15 -->
<g id="edge17" class="edge">
<title>Node1&#45;&gt;Node15</title>
<path fill="none" stroke="midnightblue" d="M140.52,-68.47C161.1,-63.27 184.34,-57.4 205.63,-52.02"/>
<polygon fill="midnightblue" stroke="midnightblue" points="206.75,-55.35 215.59,-49.51 205.04,-48.56 206.75,-55.35"/>
</g>
<!-- Node3 -->
<g id="node3" class="node">
<title>Node3</title>
<g id="a_node3"><a xlink:href="../../d9/d9a/structResourceDrawSettings_a8aa4f81d8d62b340f7509a41830fcb38.html#a8aa4f81d8d62b340f7509a41830fcb38" target="_top" xlink:title=" ">
<polygon fill="white" stroke="black" points="396.5,-99 396.5,-118 551.5,-118 551.5,-99 396.5,-99"/>
<text text-anchor="middle" x="474" y="-106" font-family="Helvetica,sans-Serif" font-size="10.00">ResourceDrawSettings.Draw</text>
</a>
</g>
</g>
<!-- Node2&#45;&gt;Node3 -->
<g id="edge2" class="edge">
<title>Node2&#45;&gt;Node3</title>
<path fill="none" stroke="midnightblue" d="M343.9,-137.48C369.04,-131.84 397.21,-125.51 420.81,-120.22"/>
<polygon fill="midnightblue" stroke="midnightblue" points="421.64,-123.62 430.63,-118.01 420.1,-116.79 421.64,-123.62"/>
</g>
<!-- Node4 -->
<g id="node4" class="node">
<title>Node4</title>
<g id="a_node4"><a xlink:href="../../da/d03/classFancyClassicPlayerResourcesDisplaySet_a91148cc49ea08c8260d179ad629c89a4.html#a91148cc49ea08c8260d179ad629c89a4" target="_top" xlink:title=" ">
<polygon fill="white" stroke="black" points="394,-235.5 394,-265.5 554,-265.5 554,-235.5 394,-235.5"/>
<text text-anchor="start" x="402" y="-253.5" font-family="Helvetica,sans-Serif" font-size="10.00">FancyClassicPlayerResources</text>
<text text-anchor="middle" x="474" y="-242.5" font-family="Helvetica,sans-Serif" font-size="10.00">DisplaySet.DrawLifeBarText</text>
</a>
</g>
</g>
<!-- Node2&#45;&gt;Node4 -->
<g id="edge3" class="edge">
<title>Node2&#45;&gt;Node4</title>
<path fill="none" stroke="midnightblue" d="M297.24,-167.71C319.5,-183.86 356.79,-209.25 392,-225.5 397.01,-227.81 402.29,-229.99 407.66,-232.01"/>
<polygon fill="midnightblue" stroke="midnightblue" points="406.77,-235.41 417.36,-235.48 409.13,-228.82 406.77,-235.41"/>
</g>
<!-- Node9 -->
<g id="node9" class="node">
<title>Node9</title>
<g id="a_node9"><a xlink:href="../../da/d03/classFancyClassicPlayerResourcesDisplaySet_a2152bb9c7bb11387465ecd08fe6e52e6.html#a2152bb9c7bb11387465ecd08fe6e52e6" target="_top" xlink:title=" ">
<polygon fill="white" stroke="black" points="392,-186.5 392,-216.5 556,-216.5 556,-186.5 392,-186.5"/>
<text text-anchor="start" x="400" y="-204.5" font-family="Helvetica,sans-Serif" font-size="10.00">FancyClassicPlayerResources</text>
<text text-anchor="middle" x="474" y="-193.5" font-family="Helvetica,sans-Serif" font-size="10.00">DisplaySet.HeartFillingDrawer</text>
</a>
</g>
</g>
<!-- Node2&#45;&gt;Node9 -->
<g id="edge9" class="edge">
<title>Node2&#45;&gt;Node9</title>
<path fill="none" stroke="midnightblue" d="M337.14,-167.53C358.02,-172.76 381.61,-178.65 403.21,-184.05"/>
<polygon fill="midnightblue" stroke="midnightblue" points="402.42,-187.46 412.98,-186.49 404.12,-180.67 402.42,-187.46"/>
</g>
<!-- Node11 -->
<g id="node11" class="node">
<title>Node11</title>
<g id="a_node11"><a xlink:href="../../da/d03/classFancyClassicPlayerResourcesDisplaySet_acda03935d074eb6048bd88d9e84834a3.html#acda03935d074eb6048bd88d9e84834a3" target="_top" xlink:title=" ">
<polygon fill="white" stroke="black" points="393.5,-137.5 393.5,-167.5 554.5,-167.5 554.5,-137.5 393.5,-137.5"/>
<text text-anchor="start" x="401.5" y="-155.5" font-family="Helvetica,sans-Serif" font-size="10.00">FancyClassicPlayerResources</text>
<text text-anchor="middle" x="474" y="-144.5" font-family="Helvetica,sans-Serif" font-size="10.00">DisplaySet.HeartPanelDrawer</text>
</a>
</g>
</g>
<!-- Node2&#45;&gt;Node11 -->
<g id="edge11" class="edge">
<title>Node2&#45;&gt;Node11</title>
<path fill="none" stroke="midnightblue" d="M356.16,-152.5C365.03,-152.5 374.12,-152.5 383.12,-152.5"/>
<polygon fill="midnightblue" stroke="midnightblue" points="383.23,-156 393.23,-152.5 383.23,-149 383.23,-156"/>
</g>
<!-- Node5 -->
<g id="node5" class="node">
<title>Node5</title>
<g id="a_node5"><a xlink:href="../../d1/da8/classDynamicSpriteFontExtensionMethods_a486d15d13d93b4b4fa7810ecd507f0cf.html#a486d15d13d93b4b4fa7810ecd507f0cf" target="_top" xlink:title=" ">
<polygon fill="white" stroke="black" points="592,-235.5 592,-265.5 750,-265.5 750,-235.5 592,-235.5"/>
<text text-anchor="start" x="600" y="-253.5" font-family="Helvetica,sans-Serif" font-size="10.00">DynamicSpriteFontExtension</text>
<text text-anchor="middle" x="671" y="-242.5" font-family="Helvetica,sans-Serif" font-size="10.00">Methods.DrawString</text>
</a>
</g>
</g>
<!-- Node4&#45;&gt;Node5 -->
<g id="edge4" class="edge">
<title>Node4&#45;&gt;Node5</title>
<path fill="none" stroke="midnightblue" d="M554.03,-250.5C563.08,-250.5 572.36,-250.5 581.52,-250.5"/>
<polygon fill="midnightblue" stroke="midnightblue" points="581.8,-254 591.8,-250.5 581.8,-247 581.8,-254"/>
</g>
<!-- Node6 -->
<g id="node6" class="node">
<title>Node6</title>
<g id="a_node6"><a xlink:href="../../da/d82/classDynamicSpriteFont_a1aba350f55e012b88428a697b790f2ed.html#a1aba350f55e012b88428a697b790f2ed" target="_top" xlink:title=" ">
<polygon fill="white" stroke="black" points="786,-241 786,-260 962,-260 962,-241 786,-241"/>
<text text-anchor="middle" x="874" y="-248" font-family="Helvetica,sans-Serif" font-size="10.00">DynamicSpriteFont.InternalDraw</text>
</a>
</g>
</g>
<!-- Node5&#45;&gt;Node6 -->
<g id="edge5" class="edge">
<title>Node5&#45;&gt;Node6</title>
<path fill="none" stroke="midnightblue" d="M750.29,-250.5C758.69,-250.5 767.3,-250.5 775.88,-250.5"/>
<polygon fill="midnightblue" stroke="midnightblue" points="775.93,-254 785.93,-250.5 775.93,-247 775.93,-254"/>
</g>
<!-- Node7 -->
<g id="node7" class="node">
<title>Node7</title>
<g id="a_node7"><a xlink:href="../../da/d82/classDynamicSpriteFont_a7ea9789665f8d0638966e54a9b4536f6.html#a7ea9789665f8d0638966e54a9b4536f6" target="_top" xlink:title=" ">
<polygon fill="white" stroke="black" points="1189,-241 1189,-260 1389,-260 1389,-241 1189,-241"/>
<text text-anchor="middle" x="1289" y="-248" font-family="Helvetica,sans-Serif" font-size="10.00">DynamicSpriteFont.GetCharacterData</text>
</a>
</g>
</g>
<!-- Node6&#45;&gt;Node7 -->
<g id="edge6" class="edge">
<title>Node6&#45;&gt;Node7</title>
<path fill="none" stroke="midnightblue" d="M962.01,-252.89C974.1,-253.14 986.36,-253.36 998,-253.5 1066.88,-254.34 1084.12,-254.27 1153,-253.5 1161.34,-253.41 1169.97,-253.28 1178.65,-253.14"/>
<polygon fill="midnightblue" stroke="midnightblue" points="1178.9,-256.63 1188.84,-252.96 1178.78,-249.63 1178.9,-256.63"/>
</g>
<!-- Node8 -->
<g id="node8" class="node">
<title>Node8</title>
<g id="a_node8"><a xlink:href="../../da/d82/classDynamicSpriteFont_a60cbfbf43aa1bebceaf16a64457fc297.html#a60cbfbf43aa1bebceaf16a64457fc297" target="_top" xlink:title=" ">
<polygon fill="white" stroke="black" points="998,-213.5 998,-243.5 1153,-243.5 1153,-213.5 998,-213.5"/>
<text text-anchor="start" x="1006" y="-231.5" font-family="Helvetica,sans-Serif" font-size="10.00">DynamicSpriteFont.Measure</text>
<text text-anchor="middle" x="1075.5" y="-220.5" font-family="Helvetica,sans-Serif" font-size="10.00">String</text>
</a>
</g>
</g>
<!-- Node6&#45;&gt;Node8 -->
<g id="edge7" class="edge">
<title>Node6&#45;&gt;Node8</title>
<path fill="none" stroke="midnightblue" d="M961.34,-240.98C970.05,-240.02 978.89,-239.04 987.6,-238.08"/>
<polygon fill="midnightblue" stroke="midnightblue" points="988.19,-241.54 997.75,-236.96 987.42,-234.58 988.19,-241.54"/>
</g>
<!-- Node8&#45;&gt;Node7 -->
<g id="edge8" class="edge">
<title>Node8&#45;&gt;Node7</title>
<path fill="none" stroke="midnightblue" d="M1153.16,-236.47C1163.93,-237.59 1175.13,-238.76 1186.28,-239.92"/>
<polygon fill="midnightblue" stroke="midnightblue" points="1186.18,-243.43 1196.49,-240.98 1186.9,-236.47 1186.18,-243.43"/>
</g>
<!-- Node10 -->
<g id="node10" class="node">
<title>Node10</title>
<g id="a_node10"><a xlink:href="../../dc/dc5/classUtils_a8752cc9bcae5a57679669ec6100ed630.html#a8752cc9bcae5a57679669ec6100ed630" target="_top" xlink:title=" ">
<polygon fill="white" stroke="black" points="617.5,-124 617.5,-143 724.5,-143 724.5,-124 617.5,-124"/>
<text text-anchor="middle" x="671" y="-131" font-family="Helvetica,sans-Serif" font-size="10.00">Utils.GetLerpValue</text>
</a>
</g>
</g>
<!-- Node9&#45;&gt;Node10 -->
<g id="edge10" class="edge">
<title>Node9&#45;&gt;Node10</title>
<path fill="none" stroke="midnightblue" d="M525.71,-186.37C535.78,-183.22 546.25,-179.84 556,-176.5 583.19,-167.18 613.64,-155.64 636.22,-146.86"/>
<polygon fill="midnightblue" stroke="midnightblue" points="637.65,-150.06 645.7,-143.16 635.11,-143.54 637.65,-150.06"/>
</g>
<!-- Node12&#45;&gt;Node3 -->
<g id="edge13" class="edge">
<title>Node12&#45;&gt;Node3</title>
<path fill="none" stroke="midnightblue" d="M356.16,-93.6C366.7,-94.94 377.55,-96.33 388.19,-97.68"/>
<polygon fill="midnightblue" stroke="midnightblue" points="387.95,-101.18 398.31,-98.97 388.83,-94.24 387.95,-101.18"/>
</g>
<!-- Node13 -->
<g id="node13" class="node">
<title>Node13</title>
<g id="a_node13"><a xlink:href="../../da/d03/classFancyClassicPlayerResourcesDisplaySet_a4c460311dfda5d31298e9bf81a5a7a8e.html#a4c460311dfda5d31298e9bf81a5a7a8e" target="_top" xlink:title=" ">
<polygon fill="white" stroke="black" points="394,-49.5 394,-79.5 554,-79.5 554,-49.5 394,-49.5"/>
<text text-anchor="start" x="402" y="-67.5" font-family="Helvetica,sans-Serif" font-size="10.00">FancyClassicPlayerResources</text>
<text text-anchor="middle" x="474" y="-56.5" font-family="Helvetica,sans-Serif" font-size="10.00">DisplaySet.StarFillingDrawer</text>
</a>
</g>
</g>
<!-- Node12&#45;&gt;Node13 -->
<g id="edge14" class="edge">
<title>Node12&#45;&gt;Node13</title>
<path fill="none" stroke="midnightblue" d="M356.16,-75.83C365.28,-74.94 374.64,-74.03 383.89,-73.14"/>
<polygon fill="midnightblue" stroke="midnightblue" points="384.25,-76.62 393.87,-72.17 383.58,-69.65 384.25,-76.62"/>
</g>
<!-- Node14 -->
<g id="node14" class="node">
<title>Node14</title>
<g id="a_node14"><a xlink:href="../../da/d03/classFancyClassicPlayerResourcesDisplaySet_a2f18857db418bfb1bc0e69a0487c3e5f.html#a2f18857db418bfb1bc0e69a0487c3e5f" target="_top" xlink:title=" ">
<polygon fill="white" stroke="black" points="394,-0.5 394,-30.5 554,-30.5 554,-0.5 394,-0.5"/>
<text text-anchor="start" x="402" y="-18.5" font-family="Helvetica,sans-Serif" font-size="10.00">FancyClassicPlayerResources</text>
<text text-anchor="middle" x="474" y="-7.5" font-family="Helvetica,sans-Serif" font-size="10.00">DisplaySet.StarPanelDrawer</text>
</a>
</g>
</g>
<!-- Node12&#45;&gt;Node14 -->
<g id="edge16" class="edge">
<title>Node12&#45;&gt;Node14</title>
<path fill="none" stroke="midnightblue" d="M329.32,-68.4C338.32,-65.39 347.51,-62.05 356,-58.5 372.69,-51.52 375.25,-46.33 392,-39.5 396.8,-37.54 401.82,-35.67 406.91,-33.9"/>
<polygon fill="midnightblue" stroke="midnightblue" points="408.36,-37.1 416.73,-30.6 406.13,-30.46 408.36,-37.1"/>
</g>
<!-- Node13&#45;&gt;Node10 -->
<g id="edge15" class="edge">
<title>Node13&#45;&gt;Node10</title>
<path fill="none" stroke="midnightblue" d="M525.73,-79.57C535.8,-82.73 546.27,-86.12 556,-89.5 583.59,-99.07 614.46,-111.07 637.12,-120.12"/>
<polygon fill="midnightblue" stroke="midnightblue" points="636.01,-123.44 646.59,-123.92 638.62,-116.95 636.01,-123.44"/>
</g>
</g>
</svg>
