<?xml version="1.0" encoding="UTF-8" standalone="no"?>
<!DOCTYPE svg PUBLIC "-//W3C//DTD SVG 1.1//EN"
 "http://www.w3.org/Graphics/SVG/1.1/DTD/svg11.dtd">
<!-- Generated by graphviz version 2.43.0 (0)
 -->
<!-- Title: Terraria.Player.Hooks.EnterWorld Pages: 1 -->
<svg width="2437pt" height="374pt"
 viewBox="0.00 0.00 2437.00 373.50" xmlns="http://www.w3.org/2000/svg" xmlns:xlink="http://www.w3.org/1999/xlink">
<g id="graph0" class="graph" transform="scale(1 1) rotate(0) translate(4 369.5)">
<title>Terraria.Player.Hooks.EnterWorld</title>
<!-- Node1 -->
<g id="Node000001" class="node">
<title>Node1</title>
<g id="a_Node000001"><a xlink:title=" ">
<polygon fill="#999999" stroke="#666666" points="2429,-127 2280,-127 2280,-97 2429,-97 2429,-127"/>
<text text-anchor="start" x="2288" y="-115" font-family="Helvetica,sans-Serif" font-size="10.00">Terraria.Player.Hooks.Enter</text>
<text text-anchor="middle" x="2354.5" y="-104" font-family="Helvetica,sans-Serif" font-size="10.00">World</text>
</a>
</g>
</g>
<!-- Node2 -->
<g id="Node000002" class="node">
<title>Node2</title>
<g id="a_Node000002"><a xlink:href="../../d4/d03/classTerraria_1_1Player_adb9707afe7e95e54d3413e1c2e5bccd8.html#adb9707afe7e95e54d3413e1c2e5bccd8" target="_top" xlink:title=" ">
<polygon fill="white" stroke="#666666" points="2244,-121.5 2122,-121.5 2122,-102.5 2244,-102.5 2244,-121.5"/>
<text text-anchor="middle" x="2183" y="-109.5" font-family="Helvetica,sans-Serif" font-size="10.00">Terraria.Player.Spawn</text>
</a>
</g>
</g>
<!-- Node1&#45;&gt;Node2 -->
<g id="edge1_Node000001_Node000002" class="edge">
<title>Node1&#45;&gt;Node2</title>
<g id="a_edge1_Node000001_Node000002"><a xlink:title=" ">
<path fill="none" stroke="#63b8ff" d="M2269.59,-112C2261,-112 2252.4,-112 2244.13,-112"/>
<polygon fill="#63b8ff" stroke="#63b8ff" points="2269.65,-115.5 2279.65,-112 2269.65,-108.5 2269.65,-115.5"/>
</a>
</g>
</g>
<!-- Node3 -->
<g id="Node000003" class="node">
<title>Node3</title>
<g id="a_Node000003"><a xlink:href="../../db/d63/classTerraria_1_1MessageBuffer_ab4039006321b0ab8e7d66acbd82370b0.html#ab4039006321b0ab8e7d66acbd82370b0" target="_top" xlink:title=" ">
<polygon fill="white" stroke="#666666" points="2086,-144.5 1914,-144.5 1914,-125.5 2086,-125.5 2086,-144.5"/>
<text text-anchor="middle" x="2000" y="-132.5" font-family="Helvetica,sans-Serif" font-size="10.00">Terraria.MessageBuffer.GetData</text>
</a>
</g>
</g>
<!-- Node2&#45;&gt;Node3 -->
<g id="edge2_Node000002_Node000003" class="edge">
<title>Node2&#45;&gt;Node3</title>
<g id="a_edge2_Node000002_Node000003"><a xlink:title=" ">
<path fill="none" stroke="#63b8ff" d="M2111.81,-120.92C2100.08,-122.41 2087.86,-123.96 2076.01,-125.47"/>
<polygon fill="#63b8ff" stroke="#63b8ff" points="2112.5,-124.36 2121.98,-119.63 2111.62,-117.42 2112.5,-124.36"/>
</a>
</g>
</g>
<!-- Node35 -->
<g id="Node000035" class="node">
<title>Node35</title>
<g id="a_Node000035"><a xlink:href="../../de/da1/classTerraria_1_1WorldGen_acbd90d109c0eee624b8037efee7ab811.html#acbd90d109c0eee624b8037efee7ab811" target="_top" xlink:title=" ">
<polygon fill="white" stroke="#666666" points="2077.5,-106 1922.5,-106 1922.5,-76 2077.5,-76 2077.5,-106"/>
<text text-anchor="start" x="1930.5" y="-94" font-family="Helvetica,sans-Serif" font-size="10.00">Terraria.WorldGen.playWorld</text>
<text text-anchor="middle" x="2000" y="-83" font-family="Helvetica,sans-Serif" font-size="10.00">CallBack</text>
</a>
</g>
</g>
<!-- Node2&#45;&gt;Node35 -->
<g id="edge39_Node000002_Node000035" class="edge">
<title>Node2&#45;&gt;Node35</title>
<g id="a_edge39_Node000002_Node000035"><a xlink:title=" ">
<path fill="none" stroke="#63b8ff" d="M2111.83,-103.86C2100.62,-102.56 2088.97,-101.21 2077.62,-99.89"/>
<polygon fill="#63b8ff" stroke="#63b8ff" points="2111.64,-107.36 2121.98,-105.04 2112.45,-100.41 2111.64,-107.36"/>
</a>
</g>
</g>
<!-- Node4 -->
<g id="Node000004" class="node">
<title>Node4</title>
<g id="a_Node000004"><a xlink:href="../../d2/dfe/classTerraria_1_1NetMessage_a0e34d7a3b999304ba194c4163243ce55.html#a0e34d7a3b999304ba194c4163243ce55" target="_top" xlink:title=" ">
<polygon fill="white" stroke="#666666" points="1875.5,-235 1725.5,-235 1725.5,-205 1875.5,-205 1875.5,-235"/>
<text text-anchor="start" x="1733.5" y="-223" font-family="Helvetica,sans-Serif" font-size="10.00">Terraria.NetMessage.Check</text>
<text text-anchor="middle" x="1800.5" y="-212" font-family="Helvetica,sans-Serif" font-size="10.00">Bytes</text>
</a>
</g>
</g>
<!-- Node3&#45;&gt;Node4 -->
<g id="edge3_Node000003_Node000004" class="edge">
<title>Node3&#45;&gt;Node4</title>
<g id="a_edge3_Node000003_Node000004"><a xlink:title=" ">
<path fill="none" stroke="#63b8ff" d="M1967.28,-148.65C1931.57,-164.02 1873.7,-188.93 1836.64,-204.87"/>
<polygon fill="#63b8ff" stroke="#63b8ff" points="1968.93,-151.75 1976.73,-144.59 1966.16,-145.32 1968.93,-151.75"/>
</a>
</g>
</g>
<!-- Node5 -->
<g id="Node000005" class="node">
<title>Node5</title>
<g id="a_Node000005"><a xlink:href="../../db/d90/classTerraria_1_1Netplay_a0177534cae0ae33727d0590e3585777a.html#a0177534cae0ae33727d0590e3585777a" target="_top" xlink:title=" ">
<polygon fill="white" stroke="#666666" points="1675,-208.5 1502,-208.5 1502,-189.5 1675,-189.5 1675,-208.5"/>
<text text-anchor="middle" x="1588.5" y="-196.5" font-family="Helvetica,sans-Serif" font-size="10.00">Terraria.Netplay.InnerClientLoop</text>
</a>
</g>
</g>
<!-- Node4&#45;&gt;Node5 -->
<g id="edge4_Node000004_Node000005" class="edge">
<title>Node4&#45;&gt;Node5</title>
<g id="a_edge4_Node000004_Node000005"><a xlink:title=" ">
<path fill="none" stroke="#63b8ff" d="M1715.41,-211.59C1702.13,-210.26 1688.38,-208.89 1675.07,-207.56"/>
<polygon fill="#63b8ff" stroke="#63b8ff" points="1715.16,-215.08 1725.46,-212.6 1715.86,-208.12 1715.16,-215.08"/>
</a>
</g>
</g>
<!-- Node29 -->
<g id="Node000029" class="node">
<title>Node29</title>
<g id="a_Node000029"><a xlink:href="../../db/d90/classTerraria_1_1Netplay_aa90a53404e1e4f7791f3bb47e5d4b2e8.html#aa90a53404e1e4f7791f3bb47e5d4b2e8" target="_top" xlink:title=" ">
<polygon fill="white" stroke="#666666" points="1668.5,-305 1508.5,-305 1508.5,-275 1668.5,-275 1668.5,-305"/>
<text text-anchor="start" x="1516.5" y="-293" font-family="Helvetica,sans-Serif" font-size="10.00">Terraria.Netplay.UpdateClient</text>
<text text-anchor="middle" x="1588.5" y="-282" font-family="Helvetica,sans-Serif" font-size="10.00">InMainThread</text>
</a>
</g>
</g>
<!-- Node4&#45;&gt;Node29 -->
<g id="edge32_Node000004_Node000029" class="edge">
<title>Node4&#45;&gt;Node29</title>
<g id="a_edge32_Node000004_Node000029"><a xlink:title=" ">
<path fill="none" stroke="#63b8ff" d="M1756.82,-239.18C1736.02,-248.08 1710.49,-258.35 1687,-266 1677.14,-269.21 1666.59,-272.23 1656.21,-274.96"/>
<polygon fill="#63b8ff" stroke="#63b8ff" points="1758.22,-242.39 1766.01,-235.2 1755.45,-235.96 1758.22,-242.39"/>
</a>
</g>
</g>
<!-- Node34 -->
<g id="Node000034" class="node">
<title>Node34</title>
<g id="a_Node000034"><a xlink:href="../../db/d90/classTerraria_1_1Netplay_aec54ed7e3dd3c29dae1930335ca1b763.html#aec54ed7e3dd3c29dae1930335ca1b763" target="_top" xlink:title=" ">
<polygon fill="white" stroke="#666666" points="1670,-257 1507,-257 1507,-227 1670,-227 1670,-257"/>
<text text-anchor="start" x="1515" y="-245" font-family="Helvetica,sans-Serif" font-size="10.00">Terraria.Netplay.UpdateServer</text>
<text text-anchor="middle" x="1588.5" y="-234" font-family="Helvetica,sans-Serif" font-size="10.00">InMainThread</text>
</a>
</g>
</g>
<!-- Node4&#45;&gt;Node34 -->
<g id="edge37_Node000004_Node000034" class="edge">
<title>Node4&#45;&gt;Node34</title>
<g id="a_edge37_Node000004_Node000034"><a xlink:title=" ">
<path fill="none" stroke="#63b8ff" d="M1715.24,-228.83C1700.32,-230.39 1684.82,-232.01 1670.01,-233.57"/>
<polygon fill="#63b8ff" stroke="#63b8ff" points="1715.88,-232.28 1725.46,-227.76 1715.15,-225.32 1715.88,-232.28"/>
</a>
</g>
</g>
<!-- Node6 -->
<g id="Node000006" class="node">
<title>Node6</title>
<g id="a_Node000006"><a xlink:href="../../db/d90/classTerraria_1_1Netplay_a0aab65a17de3d6fde6c56638080a0eb3.html#a0aab65a17de3d6fde6c56638080a0eb3" target="_top" xlink:title=" ">
<polygon fill="white" stroke="#666666" points="1450,-251.5 1273,-251.5 1273,-232.5 1450,-232.5 1450,-251.5"/>
<text text-anchor="middle" x="1361.5" y="-239.5" font-family="Helvetica,sans-Serif" font-size="10.00">Terraria.Netplay.SocialClientLoop</text>
</a>
</g>
</g>
<!-- Node5&#45;&gt;Node6 -->
<g id="edge5_Node000005_Node000006" class="edge">
<title>Node5&#45;&gt;Node6</title>
<g id="a_edge5_Node000005_Node000006"><a xlink:title=" ">
<path fill="none" stroke="#63b8ff" d="M1527.67,-210.43C1491.66,-217.32 1446.35,-225.98 1412.3,-232.48"/>
<polygon fill="#63b8ff" stroke="#63b8ff" points="1528.4,-213.86 1537.57,-208.54 1527.09,-206.98 1528.4,-213.86"/>
</a>
</g>
</g>
<!-- Node17 -->
<g id="Node000017" class="node">
<title>Node17</title>
<g id="a_Node000017"><a xlink:href="../../db/d90/classTerraria_1_1Netplay_a3b934fcb0fe838d54abafb6b31e2d0c0.html#a3b934fcb0fe838d54abafb6b31e2d0c0" target="_top" xlink:title=" ">
<polygon fill="white" stroke="#666666" points="1443.5,-192.5 1279.5,-192.5 1279.5,-173.5 1443.5,-173.5 1443.5,-192.5"/>
<text text-anchor="middle" x="1361.5" y="-180.5" font-family="Helvetica,sans-Serif" font-size="10.00">Terraria.Netplay.TcpClientLoop</text>
</a>
</g>
</g>
<!-- Node5&#45;&gt;Node17 -->
<g id="edge17_Node000005_Node000017" class="edge">
<title>Node5&#45;&gt;Node17</title>
<g id="a_edge17_Node000005_Node000017"><a xlink:title=" ">
<path fill="none" stroke="#63b8ff" d="M1491.39,-192.17C1475.44,-191.03 1459.05,-189.87 1443.52,-188.76"/>
<polygon fill="#63b8ff" stroke="#63b8ff" points="1491.57,-195.69 1501.8,-192.91 1492.07,-188.7 1491.57,-195.69"/>
</a>
</g>
</g>
<!-- Node7 -->
<g id="Node000007" class="node">
<title>Node7</title>
<g id="a_Node000007"><a xlink:href="../../db/d90/classTerraria_1_1Netplay_a95fbcd51bf95f62c790c052becf3ca70.html#a95fbcd51bf95f62c790c052becf3ca70" target="_top" xlink:title=" ">
<polygon fill="white" stroke="#666666" points="1233,-265 1084,-265 1084,-235 1233,-235 1233,-265"/>
<text text-anchor="start" x="1092" y="-253" font-family="Helvetica,sans-Serif" font-size="10.00">Terraria.Netplay.StartSocial</text>
<text text-anchor="middle" x="1158.5" y="-242" font-family="Helvetica,sans-Serif" font-size="10.00">Client</text>
</a>
</g>
</g>
<!-- Node6&#45;&gt;Node7 -->
<g id="edge6_Node000006_Node000007" class="edge">
<title>Node6&#45;&gt;Node7</title>
<g id="a_edge6_Node000006_Node000007"><a xlink:title=" ">
<path fill="none" stroke="#63b8ff" d="M1262.65,-245.89C1252.77,-246.29 1242.85,-246.68 1233.28,-247.06"/>
<polygon fill="#63b8ff" stroke="#63b8ff" points="1263.07,-249.38 1272.92,-245.49 1262.79,-242.39 1263.07,-249.38"/>
</a>
</g>
</g>
<!-- Node8 -->
<g id="Node000008" class="node">
<title>Node8</title>
<g id="a_Node000008"><a xlink:href="../../db/d90/classTerraria_1_1Netplay_a735e2f9e72e38fcb094d3cec93a90cb3.html#a735e2f9e72e38fcb094d3cec93a90cb3" target="_top" xlink:title=" ">
<polygon fill="white" stroke="#666666" points="1047,-280 886,-280 886,-250 1047,-250 1047,-280"/>
<text text-anchor="start" x="894" y="-268" font-family="Helvetica,sans-Serif" font-size="10.00">Terraria.Netplay.OnConnected</text>
<text text-anchor="middle" x="966.5" y="-257" font-family="Helvetica,sans-Serif" font-size="10.00">ToSocialServer</text>
</a>
</g>
</g>
<!-- Node7&#45;&gt;Node8 -->
<g id="edge7_Node000007_Node000008" class="edge">
<title>Node7&#45;&gt;Node8</title>
<g id="a_edge7_Node000007_Node000008"><a xlink:title=" ">
<path fill="none" stroke="#63b8ff" d="M1073.55,-256.63C1064.78,-257.32 1055.89,-258.02 1047.17,-258.71"/>
<polygon fill="#63b8ff" stroke="#63b8ff" points="1074.08,-260.1 1083.77,-255.82 1073.52,-253.12 1074.08,-260.1"/>
</a>
</g>
</g>
<!-- Node9 -->
<g id="Node000009" class="node">
<title>Node9</title>
<g id="a_Node000009"><a xlink:href="../../dc/d94/classTerraria_1_1Social_1_1WeGame_1_1NetClientSocialModule_a3aa4e495c006216e805fb76e98be06e0.html#a3aa4e495c006216e805fb76e98be06e0" target="_top" xlink:title=" ">
<polygon fill="white" stroke="#666666" points="846,-328 658,-328 658,-298 846,-298 846,-328"/>
<text text-anchor="start" x="666" y="-316" font-family="Helvetica,sans-Serif" font-size="10.00">Terraria.Social.WeGame.Net</text>
<text text-anchor="middle" x="752" y="-305" font-family="Helvetica,sans-Serif" font-size="10.00">ClientSocialModule.OnAuthSuccess</text>
</a>
</g>
</g>
<!-- Node8&#45;&gt;Node9 -->
<g id="edge8_Node000008_Node000009" class="edge">
<title>Node8&#45;&gt;Node9</title>
<g id="a_edge8_Node000008_Node000009"><a xlink:title=" ">
<path fill="none" stroke="#63b8ff" d="M888.9,-282.3C866.16,-287.44 841.45,-293.02 819.42,-298"/>
<polygon fill="#63b8ff" stroke="#63b8ff" points="889.86,-285.67 898.85,-280.06 888.32,-278.85 889.86,-285.67"/>
</a>
</g>
</g>
<!-- Node12 -->
<g id="Node000012" class="node">
<title>Node12</title>
<g id="a_Node000012"><a xlink:href="../../d7/d4a/classTerraria_1_1Social_1_1Steam_1_1NetClientSocialModule_a22273ba592889cc0dfcc144f06138bbc.html#a22273ba592889cc0dfcc144f06138bbc" target="_top" xlink:title=" ">
<polygon fill="white" stroke="#666666" points="849,-280 655,-280 655,-250 849,-250 849,-280"/>
<text text-anchor="start" x="663" y="-268" font-family="Helvetica,sans-Serif" font-size="10.00">Terraria.Social.Steam.Net</text>
<text text-anchor="middle" x="752" y="-257" font-family="Helvetica,sans-Serif" font-size="10.00">ClientSocialModule.OnLobbyEntered</text>
</a>
</g>
</g>
<!-- Node8&#45;&gt;Node12 -->
<g id="edge11_Node000008_Node000012" class="edge">
<title>Node8&#45;&gt;Node12</title>
<g id="a_edge11_Node000008_Node000012"><a xlink:title=" ">
<path fill="none" stroke="#63b8ff" d="M875.63,-265C866.93,-265 858.08,-265 849.31,-265"/>
<polygon fill="#63b8ff" stroke="#63b8ff" points="875.77,-268.5 885.77,-265 875.77,-261.5 875.77,-268.5"/>
</a>
</g>
</g>
<!-- Node10 -->
<g id="Node000010" class="node">
<title>Node10</title>
<g id="a_Node000010"><a xlink:href="../../dc/d94/classTerraria_1_1Social_1_1WeGame_1_1NetClientSocialModule_a805b557babee519c34c71e4612e1b9af.html#a805b557babee519c34c71e4612e1b9af" target="_top" xlink:title=" ">
<polygon fill="white" stroke="#666666" points="614,-352 431,-352 431,-322 614,-322 614,-352"/>
<text text-anchor="start" x="439" y="-340" font-family="Helvetica,sans-Serif" font-size="10.00">Terraria.Social.WeGame.Net</text>
<text text-anchor="middle" x="522.5" y="-329" font-family="Helvetica,sans-Serif" font-size="10.00">ClientSocialModule.OnPacketRead</text>
</a>
</g>
</g>
<!-- Node9&#45;&gt;Node10 -->
<g id="edge9_Node000009_Node000010" class="edge">
<title>Node9&#45;&gt;Node10</title>
<g id="a_edge9_Node000009_Node000010"><a xlink:title=" ">
<path fill="none" stroke="#63b8ff" d="M647.65,-323.9C636.54,-325.07 625.29,-326.26 614.34,-327.42"/>
<polygon fill="#63b8ff" stroke="#63b8ff" points="648.23,-327.36 657.81,-322.83 647.5,-320.4 648.23,-327.36"/>
</a>
</g>
</g>
<!-- Node11 -->
<g id="Node000011" class="node">
<title>Node11</title>
<g id="a_Node000011"><a xlink:href="../../dc/d94/classTerraria_1_1Social_1_1WeGame_1_1NetClientSocialModule_ab875d83363ffab735301f201edb65488.html#ab875d83363ffab735301f201edb65488" target="_top" xlink:title=" ">
<polygon fill="white" stroke="#666666" points="368,-355 213,-355 213,-325 368,-325 368,-355"/>
<text text-anchor="start" x="221" y="-343" font-family="Helvetica,sans-Serif" font-size="10.00">Terraria.Social.WeGame.Net</text>
<text text-anchor="middle" x="290.5" y="-332" font-family="Helvetica,sans-Serif" font-size="10.00">ClientSocialModule.Initialize</text>
</a>
</g>
</g>
<!-- Node10&#45;&gt;Node11 -->
<g id="edge10_Node000010_Node000011" class="edge">
<title>Node10&#45;&gt;Node11</title>
<g id="a_edge10_Node000010_Node000011"><a xlink:title=" ">
<path fill="none" stroke="#63b8ff" d="M420.64,-338.32C403.06,-338.54 385.04,-338.78 368.24,-339"/>
<polygon fill="#63b8ff" stroke="#63b8ff" points="420.97,-341.81 430.93,-338.18 420.88,-334.81 420.97,-341.81"/>
</a>
</g>
</g>
<!-- Node13 -->
<g id="Node000013" class="node">
<title>Node13</title>
<g id="a_Node000013"><a xlink:href="../../d7/d4a/classTerraria_1_1Social_1_1Steam_1_1NetClientSocialModule_a3c558d5f5dc5d483d6c3d6ac0d9507c2.html#a3c558d5f5dc5d483d6c3d6ac0d9507c2" target="_top" xlink:title=" ">
<polygon fill="white" stroke="#666666" points="619,-258 426,-258 426,-228 619,-228 619,-258"/>
<text text-anchor="start" x="434" y="-246" font-family="Helvetica,sans-Serif" font-size="10.00">Terraria.Social.Steam.Net</text>
<text text-anchor="middle" x="522.5" y="-235" font-family="Helvetica,sans-Serif" font-size="10.00">ClientSocialModule.ConnectToLobby</text>
</a>
</g>
</g>
<!-- Node12&#45;&gt;Node13 -->
<g id="edge12_Node000012_Node000013" class="edge">
<title>Node12&#45;&gt;Node13</title>
<g id="a_edge12_Node000012_Node000013"><a xlink:title=" ">
<path fill="none" stroke="#63b8ff" d="M644.87,-254.74C636.35,-253.91 627.76,-253.08 619.31,-252.26"/>
<polygon fill="#63b8ff" stroke="#63b8ff" points="644.56,-258.22 654.85,-255.7 645.23,-251.26 644.56,-258.22"/>
</a>
</g>
</g>
<!-- Node16 -->
<g id="Node000016" class="node">
<title>Node16</title>
<g id="a_Node000016"><a xlink:href="../../d7/d4a/classTerraria_1_1Social_1_1Steam_1_1NetClientSocialModule_a590e1d127b423851d741ee658eaba1ba.html#a590e1d127b423851d741ee658eaba1ba" target="_top" xlink:title=" ">
<polygon fill="white" stroke="#666666" points="377.5,-306.5 203.5,-306.5 203.5,-265.5 377.5,-265.5 377.5,-306.5"/>
<text text-anchor="start" x="211.5" y="-294.5" font-family="Helvetica,sans-Serif" font-size="10.00">Terraria.Social.Steam.Net</text>
<text text-anchor="start" x="211.5" y="-283.5" font-family="Helvetica,sans-Serif" font-size="10.00">ClientSocialModule.OnLobbyJoin</text>
<text text-anchor="middle" x="290.5" y="-272.5" font-family="Helvetica,sans-Serif" font-size="10.00">Request</text>
</a>
</g>
</g>
<!-- Node12&#45;&gt;Node16 -->
<g id="edge15_Node000012_Node000016" class="edge">
<title>Node12&#45;&gt;Node16</title>
<g id="a_edge15_Node000012_Node000016"><a xlink:title=" ">
<path fill="none" stroke="#63b8ff" d="M644.72,-269.86C563.64,-273.56 453.38,-278.6 377.73,-282.06"/>
<polygon fill="#63b8ff" stroke="#63b8ff" points="645.12,-273.34 654.95,-269.39 644.8,-266.35 645.12,-273.34"/>
</a>
</g>
</g>
<!-- Node14 -->
<g id="Node000014" class="node">
<title>Node14</title>
<g id="a_Node000014"><a xlink:href="../../d7/d4a/classTerraria_1_1Social_1_1Steam_1_1NetClientSocialModule_a4a444adca38141b0cb7d6eb6b0176a14.html#a4a444adca38141b0cb7d6eb6b0176a14" target="_top" xlink:title=" ">
<polygon fill="white" stroke="#666666" points="390,-247 191,-247 191,-217 390,-217 390,-247"/>
<text text-anchor="start" x="199" y="-235" font-family="Helvetica,sans-Serif" font-size="10.00">Terraria.Social.Steam.Net</text>
<text text-anchor="middle" x="290.5" y="-224" font-family="Helvetica,sans-Serif" font-size="10.00">ClientSocialModule.CheckParameters</text>
</a>
</g>
</g>
<!-- Node13&#45;&gt;Node14 -->
<g id="edge13_Node000013_Node000014" class="edge">
<title>Node13&#45;&gt;Node14</title>
<g id="a_edge13_Node000013_Node000014"><a xlink:title=" ">
<path fill="none" stroke="#63b8ff" d="M415.9,-237.95C407.3,-237.54 398.63,-237.12 390.08,-236.71"/>
<polygon fill="#63b8ff" stroke="#63b8ff" points="415.8,-241.45 425.96,-238.43 416.14,-234.46 415.8,-241.45"/>
</a>
</g>
</g>
<!-- Node15 -->
<g id="Node000015" class="node">
<title>Node15</title>
<g id="a_Node000015"><a xlink:href="../../d7/d4a/classTerraria_1_1Social_1_1Steam_1_1NetClientSocialModule_af383ef4d3738050686d31eeea14a4ecf.html#af383ef4d3738050686d31eeea14a4ecf" target="_top" xlink:title=" ">
<polygon fill="white" stroke="#666666" points="155,-274 0,-274 0,-244 155,-244 155,-274"/>
<text text-anchor="start" x="8" y="-262" font-family="Helvetica,sans-Serif" font-size="10.00">Terraria.Social.Steam.Net</text>
<text text-anchor="middle" x="77.5" y="-251" font-family="Helvetica,sans-Serif" font-size="10.00">ClientSocialModule.Initialize</text>
</a>
</g>
</g>
<!-- Node14&#45;&gt;Node15 -->
<g id="edge14_Node000014_Node000015" class="edge">
<title>Node14&#45;&gt;Node15</title>
<g id="a_edge14_Node000014_Node000015"><a xlink:title=" ">
<path fill="none" stroke="#63b8ff" d="M180.65,-245.93C172,-247.04 163.38,-248.14 155.03,-249.21"/>
<polygon fill="#63b8ff" stroke="#63b8ff" points="181.32,-249.37 190.8,-244.63 180.43,-242.43 181.32,-249.37"/>
</a>
</g>
</g>
<!-- Node16&#45;&gt;Node15 -->
<g id="edge16_Node000016_Node000015" class="edge">
<title>Node16&#45;&gt;Node15</title>
<g id="a_edge16_Node000016_Node000015"><a xlink:title=" ">
<path fill="none" stroke="#63b8ff" d="M193.21,-273.68C180.47,-272.05 167.55,-270.4 155.21,-268.82"/>
<polygon fill="#63b8ff" stroke="#63b8ff" points="193.01,-277.18 203.37,-274.98 193.9,-270.24 193.01,-277.18"/>
</a>
</g>
</g>
<!-- Node18 -->
<g id="Node000018" class="node">
<title>Node18</title>
<g id="a_Node000018"><a xlink:href="../../db/d90/classTerraria_1_1Netplay_a9e9dd745269441e0d737ad3cc8ac437d.html#a9e9dd745269441e0d737ad3cc8ac437d" target="_top" xlink:title=" ">
<polygon fill="white" stroke="#666666" points="1226,-190 1091,-190 1091,-160 1226,-160 1226,-190"/>
<text text-anchor="start" x="1099" y="-178" font-family="Helvetica,sans-Serif" font-size="10.00">Terraria.Netplay.StartTcp</text>
<text text-anchor="middle" x="1158.5" y="-167" font-family="Helvetica,sans-Serif" font-size="10.00">Client</text>
</a>
</g>
</g>
<!-- Node17&#45;&gt;Node18 -->
<g id="edge18_Node000017_Node000018" class="edge">
<title>Node17&#45;&gt;Node18</title>
<g id="a_edge18_Node000017_Node000018"><a xlink:title=" ">
<path fill="none" stroke="#63b8ff" d="M1269.32,-179.37C1254.8,-178.79 1240.01,-178.2 1226.18,-177.65"/>
<polygon fill="#63b8ff" stroke="#63b8ff" points="1269.19,-182.87 1279.32,-179.77 1269.47,-175.87 1269.19,-182.87"/>
</a>
</g>
</g>
<!-- Node19 -->
<g id="Node000019" class="node">
<title>Node19</title>
<g id="a_Node000019"><a xlink:href="../../da/dd5/classTerraria_1_1Main_a41717edb6525f73f966d5bfb874d8056.html#a41717edb6525f73f966d5bfb874d8056" target="_top" xlink:title=" ">
<polygon fill="white" stroke="#666666" points="1048,-96 885,-96 885,-66 1048,-66 1048,-96"/>
<text text-anchor="start" x="893" y="-84" font-family="Helvetica,sans-Serif" font-size="10.00">Terraria.Main.OnSubmitServer</text>
<text text-anchor="middle" x="966.5" y="-73" font-family="Helvetica,sans-Serif" font-size="10.00">Password</text>
</a>
</g>
</g>
<!-- Node18&#45;&gt;Node19 -->
<g id="edge19_Node000018_Node000019" class="edge">
<title>Node18&#45;&gt;Node19</title>
<g id="a_edge19_Node000018_Node000019"><a xlink:title=" ">
<path fill="none" stroke="#63b8ff" d="M1117.81,-155.37C1082.13,-137.71 1030.47,-112.15 997.95,-96.07"/>
<polygon fill="#63b8ff" stroke="#63b8ff" points="1116.46,-158.6 1126.97,-159.9 1119.56,-152.33 1116.46,-158.6"/>
</a>
</g>
</g>
<!-- Node24 -->
<g id="Node000024" class="node">
<title>Node24</title>
<g id="a_Node000024"><a xlink:href="../../da/dd5/classTerraria_1_1Main_a8e23db199a88c74f61dba8141b3e1464.html#a8e23db199a88c74f61dba8141b3e1464" target="_top" xlink:title=" ">
<polygon fill="white" stroke="#666666" points="1038.5,-217.5 894.5,-217.5 894.5,-198.5 1038.5,-198.5 1038.5,-217.5"/>
<text text-anchor="middle" x="966.5" y="-205.5" font-family="Helvetica,sans-Serif" font-size="10.00">Terraria.Main.SelectPlayer</text>
</a>
</g>
</g>
<!-- Node18&#45;&gt;Node24 -->
<g id="edge25_Node000018_Node000024" class="edge">
<title>Node18&#45;&gt;Node24</title>
<g id="a_edge25_Node000018_Node000024"><a xlink:title=" ">
<path fill="none" stroke="#63b8ff" d="M1080.7,-188.34C1061.19,-191.73 1040.62,-195.3 1022.44,-198.46"/>
<polygon fill="#63b8ff" stroke="#63b8ff" points="1081.53,-191.75 1090.78,-186.59 1080.33,-184.85 1081.53,-191.75"/>
</a>
</g>
</g>
<!-- Node27 -->
<g id="Node000027" class="node">
<title>Node27</title>
<g id="a_Node000027"><a xlink:href="../../da/dd5/classTerraria_1_1Main_a365b23519a738e1955e6d70aa4bccafd.html#a365b23519a738e1955e6d70aa4bccafd" target="_top" xlink:title=" ">
<polygon fill="white" stroke="#666666" points="1034,-177 899,-177 899,-147 1034,-147 1034,-177"/>
<text text-anchor="start" x="907" y="-165" font-family="Helvetica,sans-Serif" font-size="10.00">Terraria.Main.StartClient</text>
<text text-anchor="middle" x="966.5" y="-154" font-family="Helvetica,sans-Serif" font-size="10.00">Gameplay</text>
</a>
</g>
</g>
<!-- Node18&#45;&gt;Node27 -->
<g id="edge28_Node000018_Node000027" class="edge">
<title>Node18&#45;&gt;Node27</title>
<g id="a_edge28_Node000018_Node000027"><a xlink:title=" ">
<path fill="none" stroke="#63b8ff" d="M1080.73,-169.75C1065.27,-168.69 1049.14,-167.59 1034.06,-166.55"/>
<polygon fill="#63b8ff" stroke="#63b8ff" points="1080.56,-173.24 1090.78,-170.43 1081.04,-166.26 1080.56,-173.24"/>
</a>
</g>
</g>
<!-- Node20 -->
<g id="Node000020" class="node">
<title>Node20</title>
<g id="a_Node000020"><a xlink:href="../../da/dd5/classTerraria_1_1Main_ae7acc9fe7fb0914ed02aacdfdc9039c5.html#ae7acc9fe7fb0914ed02aacdfdc9039c5" target="_top" xlink:title=" ">
<polygon fill="white" stroke="#666666" points="590.5,-109.5 454.5,-109.5 454.5,-90.5 590.5,-90.5 590.5,-109.5"/>
<text text-anchor="middle" x="522.5" y="-97.5" font-family="Helvetica,sans-Serif" font-size="10.00">Terraria.Main.DrawMenu</text>
</a>
</g>
</g>
<!-- Node19&#45;&gt;Node20 -->
<g id="edge20_Node000019_Node000020" class="edge">
<title>Node19&#45;&gt;Node20</title>
<g id="a_edge20_Node000019_Node000020"><a xlink:title=" ">
<path fill="none" stroke="#63b8ff" d="M894.08,-63.9C879.26,-61.03 863.69,-58.5 849,-57 763.22,-48.26 740.15,-43.43 655,-57 615.39,-63.31 571.5,-79.69 545.77,-90.31"/>
<polygon fill="#63b8ff" stroke="#63b8ff" points="893.7,-67.4 904.19,-65.94 895.08,-60.54 893.7,-67.4"/>
</a>
</g>
</g>
<!-- Node23 -->
<g id="Node000023" class="node">
<title>Node23</title>
<g id="a_Node000023"><a xlink:href="../../da/dd5/classTerraria_1_1Main_a4235ca20881bf906c51075bd2dfefea1.html#a4235ca20881bf906c51075bd2dfefea1" target="_top" xlink:title=" ">
<polygon fill="white" stroke="#666666" points="833.5,-96 670.5,-96 670.5,-66 833.5,-66 833.5,-96"/>
<text text-anchor="start" x="678.5" y="-84" font-family="Helvetica,sans-Serif" font-size="10.00">Terraria.Main.OnSubmitServer</text>
<text text-anchor="middle" x="752" y="-73" font-family="Helvetica,sans-Serif" font-size="10.00">Password</text>
</a>
</g>
</g>
<!-- Node19&#45;&gt;Node23 -->
<g id="edge24_Node000019_Node000023" class="edge">
<title>Node19&#45;&gt;Node23</title>
<g id="a_edge24_Node000019_Node000023"><a xlink:title=" ">
<path fill="none" stroke="#63b8ff" d="M874.53,-81C860.92,-81 846.96,-81 833.59,-81"/>
<polygon fill="#63b8ff" stroke="#63b8ff" points="874.86,-84.5 884.86,-81 874.86,-77.5 874.86,-84.5"/>
</a>
</g>
</g>
<!-- Node21 -->
<g id="Node000021" class="node">
<title>Node21</title>
<g id="a_Node000021"><a xlink:href="../../da/dd5/classTerraria_1_1Main_a474beeecaea4d6dd108fba56cd554d46.html#a474beeecaea4d6dd108fba56cd554d46" target="_top" xlink:title=" ">
<polygon fill="white" stroke="#666666" points="351.5,-109.5 229.5,-109.5 229.5,-90.5 351.5,-90.5 351.5,-109.5"/>
<text text-anchor="middle" x="290.5" y="-97.5" font-family="Helvetica,sans-Serif" font-size="10.00">Terraria.Main.DoDraw</text>
</a>
</g>
</g>
<!-- Node20&#45;&gt;Node21 -->
<g id="edge21_Node000020_Node000021" class="edge">
<title>Node20&#45;&gt;Node21</title>
<g id="a_edge21_Node000020_Node000021"><a xlink:title=" ">
<path fill="none" stroke="#63b8ff" d="M444.28,-100C414.09,-100 379.98,-100 351.67,-100"/>
<polygon fill="#63b8ff" stroke="#63b8ff" points="444.36,-103.5 454.36,-100 444.36,-96.5 444.36,-103.5"/>
</a>
</g>
</g>
<!-- Node22 -->
<g id="Node000022" class="node">
<title>Node22</title>
<g id="a_Node000022"><a xlink:href="../../da/dd5/classTerraria_1_1Main_a516aa31311860bad4242ade32e5effcd.html#a516aa31311860bad4242ade32e5effcd" target="_top" xlink:title=" ">
<polygon fill="white" stroke="#666666" points="132,-109.5 23,-109.5 23,-90.5 132,-90.5 132,-109.5"/>
<text text-anchor="middle" x="77.5" y="-97.5" font-family="Helvetica,sans-Serif" font-size="10.00">Terraria.Main.Draw</text>
</a>
</g>
</g>
<!-- Node21&#45;&gt;Node22 -->
<g id="edge22_Node000021_Node000022" class="edge">
<title>Node21&#45;&gt;Node22</title>
<g id="a_edge22_Node000021_Node000022"><a xlink:title=" ">
<path fill="none" stroke="#63b8ff" d="M219.08,-93.59C190.77,-93.02 158.66,-93.17 132.28,-94.03"/>
<polygon fill="#63b8ff" stroke="#63b8ff" points="219.24,-97.1 229.32,-93.84 219.4,-90.1 219.24,-97.1"/>
</a>
</g>
</g>
<!-- Node22&#45;&gt;Node21 -->
<g id="edge23_Node000022_Node000021" class="edge">
<title>Node22&#45;&gt;Node21</title>
<g id="a_edge23_Node000022_Node000021"><a xlink:title=" ">
<path fill="none" stroke="#63b8ff" d="M142.61,-106.27C170.17,-106.94 202.21,-106.91 229.32,-106.16"/>
<polygon fill="#63b8ff" stroke="#63b8ff" points="142.38,-102.76 132.28,-105.97 142.18,-109.75 142.38,-102.76"/>
</a>
</g>
</g>
<!-- Node25 -->
<g id="Node000025" class="node">
<title>Node25</title>
<g id="a_Node000025"><a xlink:href="../../d8/d13/classTerraria_1_1GameContent_1_1UI_1_1Elements_1_1UICharacterListItem_a340caf28f2ffe89144b036695ef7e860.html#a340caf28f2ffe89144b036695ef7e860" target="_top" xlink:title=" ">
<polygon fill="white" stroke="#666666" points="835,-231.5 669,-231.5 669,-190.5 835,-190.5 835,-231.5"/>
<text text-anchor="start" x="677" y="-219.5" font-family="Helvetica,sans-Serif" font-size="10.00">Terraria.GameContent.UI.</text>
<text text-anchor="start" x="677" y="-208.5" font-family="Helvetica,sans-Serif" font-size="10.00">Elements.UICharacterListItem.</text>
<text text-anchor="middle" x="752" y="-197.5" font-family="Helvetica,sans-Serif" font-size="10.00">PlayGame</text>
</a>
</g>
</g>
<!-- Node24&#45;&gt;Node25 -->
<g id="edge26_Node000024_Node000025" class="edge">
<title>Node24&#45;&gt;Node25</title>
<g id="a_edge26_Node000024_Node000025"><a xlink:title=" ">
<path fill="none" stroke="#63b8ff" d="M884.02,-209.15C867.96,-209.38 851.09,-209.62 835.01,-209.84"/>
<polygon fill="#63b8ff" stroke="#63b8ff" points="884.5,-212.64 894.45,-209 884.4,-205.64 884.5,-212.64"/>
</a>
</g>
</g>
<!-- Node26 -->
<g id="Node000026" class="node">
<title>Node26</title>
<g id="a_Node000026"><a xlink:href="../../d8/d13/classTerraria_1_1GameContent_1_1UI_1_1Elements_1_1UICharacterListItem_a84c7d2bebc258bb2126ce4847c484e99.html#a84c7d2bebc258bb2126ce4847c484e99" target="_top" xlink:title=" ">
<polygon fill="white" stroke="#666666" points="605.5,-209.5 439.5,-209.5 439.5,-168.5 605.5,-168.5 605.5,-209.5"/>
<text text-anchor="start" x="447.5" y="-197.5" font-family="Helvetica,sans-Serif" font-size="10.00">Terraria.GameContent.UI.</text>
<text text-anchor="start" x="447.5" y="-186.5" font-family="Helvetica,sans-Serif" font-size="10.00">Elements.UICharacterListItem.</text>
<text text-anchor="middle" x="522.5" y="-175.5" font-family="Helvetica,sans-Serif" font-size="10.00">UICharacterListItem</text>
</a>
</g>
</g>
<!-- Node25&#45;&gt;Node26 -->
<g id="edge27_Node000025_Node000026" class="edge">
<title>Node25&#45;&gt;Node26</title>
<g id="a_edge27_Node000025_Node000026"><a xlink:title=" ">
<path fill="none" stroke="#63b8ff" d="M658.61,-202.07C641.03,-200.37 622.74,-198.6 605.51,-196.93"/>
<polygon fill="#63b8ff" stroke="#63b8ff" points="658.58,-205.58 668.87,-203.06 659.25,-198.61 658.58,-205.58"/>
</a>
</g>
</g>
<!-- Node27&#45;&gt;Node20 -->
<g id="edge29_Node000027_Node000020" class="edge">
<title>Node27&#45;&gt;Node20</title>
<g id="a_edge29_Node000027_Node000020"><a xlink:title=" ">
<path fill="none" stroke="#63b8ff" d="M888.6,-162.25C825.37,-161.22 733.69,-156.87 655,-142 616.38,-134.7 573.27,-119.52 547.28,-109.55"/>
<polygon fill="#63b8ff" stroke="#63b8ff" points="888.84,-165.76 898.89,-162.4 888.94,-158.76 888.84,-165.76"/>
</a>
</g>
</g>
<!-- Node28 -->
<g id="Node000028" class="node">
<title>Node28</title>
<g id="a_Node000028"><a xlink:href="../../da/dd5/classTerraria_1_1Main_a33ab56670ca7132e963f3f6f9c757e38.html#a33ab56670ca7132e963f3f6f9c757e38" target="_top" xlink:title=" ">
<polygon fill="white" stroke="#666666" points="843,-133.5 661,-133.5 661,-114.5 843,-114.5 843,-133.5"/>
<text text-anchor="middle" x="752" y="-121.5" font-family="Helvetica,sans-Serif" font-size="10.00">Terraria.Main.OnSubmitServerPort</text>
</a>
</g>
</g>
<!-- Node27&#45;&gt;Node28 -->
<g id="edge30_Node000027_Node000028" class="edge">
<title>Node27&#45;&gt;Node28</title>
<g id="a_edge30_Node000027_Node000028"><a xlink:title=" ">
<path fill="none" stroke="#63b8ff" d="M888.9,-148.3C861.52,-143.41 831.28,-138 806.29,-133.53"/>
<polygon fill="#63b8ff" stroke="#63b8ff" points="888.39,-151.77 898.85,-150.08 889.62,-144.88 888.39,-151.77"/>
</a>
</g>
</g>
<!-- Node28&#45;&gt;Node20 -->
<g id="edge31_Node000028_Node000020" class="edge">
<title>Node28&#45;&gt;Node20</title>
<g id="a_edge31_Node000028_Node000020"><a xlink:title=" ">
<path fill="none" stroke="#63b8ff" d="M650.57,-113.41C630.35,-111.27 609.57,-109.08 590.81,-107.1"/>
<polygon fill="#63b8ff" stroke="#63b8ff" points="650.45,-116.91 660.76,-114.48 651.18,-109.95 650.45,-116.91"/>
</a>
</g>
</g>
<!-- Node30 -->
<g id="Node000030" class="node">
<title>Node30</title>
<g id="a_Node000030"><a xlink:href="../../db/d90/classTerraria_1_1Netplay_ae1189b2f060611d11bb9faa824ed2eb7.html#ae1189b2f060611d11bb9faa824ed2eb7" target="_top" xlink:title=" ">
<polygon fill="white" stroke="#666666" points="1431.5,-305 1291.5,-305 1291.5,-275 1431.5,-275 1431.5,-305"/>
<text text-anchor="start" x="1299.5" y="-293" font-family="Helvetica,sans-Serif" font-size="10.00">Terraria.Netplay.UpdateIn</text>
<text text-anchor="middle" x="1361.5" y="-282" font-family="Helvetica,sans-Serif" font-size="10.00">MainThread</text>
</a>
</g>
</g>
<!-- Node29&#45;&gt;Node30 -->
<g id="edge33_Node000029_Node000030" class="edge">
<title>Node29&#45;&gt;Node30</title>
<g id="a_edge33_Node000029_Node000030"><a xlink:title=" ">
<path fill="none" stroke="#63b8ff" d="M1498.38,-290C1476.17,-290 1452.68,-290 1431.59,-290"/>
<polygon fill="#63b8ff" stroke="#63b8ff" points="1498.49,-293.5 1508.49,-290 1498.49,-286.5 1498.49,-293.5"/>
</a>
</g>
</g>
<!-- Node31 -->
<g id="Node000031" class="node">
<title>Node31</title>
<g id="a_Node000031"><a xlink:href="../../da/dd5/classTerraria_1_1Main_a96341b8439a15bcefc0f119767e24e35.html#a96341b8439a15bcefc0f119767e24e35" target="_top" xlink:title=" ">
<polygon fill="white" stroke="#666666" points="1224.5,-328.5 1092.5,-328.5 1092.5,-309.5 1224.5,-309.5 1224.5,-328.5"/>
<text text-anchor="middle" x="1158.5" y="-316.5" font-family="Helvetica,sans-Serif" font-size="10.00">Terraria.Main.DoUpdate</text>
</a>
</g>
</g>
<!-- Node30&#45;&gt;Node31 -->
<g id="edge34_Node000030_Node000031" class="edge">
<title>Node30&#45;&gt;Node31</title>
<g id="a_edge34_Node000030_Node000031"><a xlink:title=" ">
<path fill="none" stroke="#63b8ff" d="M1281.33,-301.42C1262.58,-304.13 1242.79,-306.98 1224.74,-309.59"/>
<polygon fill="#63b8ff" stroke="#63b8ff" points="1281.93,-304.87 1291.33,-299.98 1280.93,-297.94 1281.93,-304.87"/>
</a>
</g>
</g>
<!-- Node32 -->
<g id="Node000032" class="node">
<title>Node32</title>
<g id="a_Node000032"><a xlink:href="../../da/dd5/classTerraria_1_1Main_a49776516aea1626e33c722fc8896a7de.html#a49776516aea1626e33c722fc8896a7de" target="_top" xlink:title=" ">
<polygon fill="white" stroke="#666666" points="1026,-341.5 907,-341.5 907,-322.5 1026,-322.5 1026,-341.5"/>
<text text-anchor="middle" x="966.5" y="-329.5" font-family="Helvetica,sans-Serif" font-size="10.00">Terraria.Main.Update</text>
</a>
</g>
</g>
<!-- Node31&#45;&gt;Node32 -->
<g id="edge35_Node000031_Node000032" class="edge">
<title>Node31&#45;&gt;Node32</title>
<g id="a_edge35_Node000031_Node000032"><a xlink:title=" ">
<path fill="none" stroke="#63b8ff" d="M1082.16,-324.15C1063.54,-325.43 1043.86,-326.78 1026.17,-327.99"/>
<polygon fill="#63b8ff" stroke="#63b8ff" points="1082.64,-327.63 1092.38,-323.46 1082.16,-320.65 1082.64,-327.63"/>
</a>
</g>
</g>
<!-- Node33 -->
<g id="Node000033" class="node">
<title>Node33</title>
<g id="a_Node000033"><a xlink:href="../../da/dd5/classTerraria_1_1Main_acc7c7058447ffaab5490befcb8ff2bf4.html#acc7c7058447ffaab5490befcb8ff2bf4" target="_top" xlink:title=" ">
<polygon fill="white" stroke="#666666" points="814.5,-365.5 689.5,-365.5 689.5,-346.5 814.5,-346.5 814.5,-365.5"/>
<text text-anchor="middle" x="752" y="-353.5" font-family="Helvetica,sans-Serif" font-size="10.00">Terraria.Main.DedServ</text>
</a>
</g>
</g>
<!-- Node32&#45;&gt;Node33 -->
<g id="edge36_Node000032_Node000033" class="edge">
<title>Node32&#45;&gt;Node33</title>
<g id="a_edge36_Node000032_Node000033"><a xlink:title=" ">
<path fill="none" stroke="#63b8ff" d="M896.59,-339.78C870.25,-342.76 840.41,-346.13 814.78,-349.02"/>
<polygon fill="#63b8ff" stroke="#63b8ff" points="897.33,-343.22 906.87,-338.62 896.54,-336.27 897.33,-343.22"/>
</a>
</g>
</g>
<!-- Node34&#45;&gt;Node30 -->
<g id="edge38_Node000034_Node000030" class="edge">
<title>Node34&#45;&gt;Node30</title>
<g id="a_edge38_Node000034_Node000030"><a xlink:title=" ">
<path fill="none" stroke="#63b8ff" d="M1506.89,-259.2C1482.28,-264.45 1455.45,-270.17 1431.67,-275.24"/>
<polygon fill="#63b8ff" stroke="#63b8ff" points="1507.88,-262.57 1516.93,-257.06 1506.42,-255.72 1507.88,-262.57"/>
</a>
</g>
</g>
<!-- Node36 -->
<g id="Node000036" class="node">
<title>Node36</title>
<g id="a_Node000036"><a xlink:href="../../de/da1/classTerraria_1_1WorldGen_a9430d1a03c7e4a42fdcc33f9c130a4cc.html#a9430d1a03c7e4a42fdcc33f9c130a4cc" target="_top" xlink:title=" ">
<polygon fill="white" stroke="#666666" points="1878,-98.5 1723,-98.5 1723,-79.5 1878,-79.5 1878,-98.5"/>
<text text-anchor="middle" x="1800.5" y="-86.5" font-family="Helvetica,sans-Serif" font-size="10.00">Terraria.WorldGen.playWorld</text>
</a>
</g>
</g>
<!-- Node35&#45;&gt;Node36 -->
<g id="edge40_Node000035_Node000036" class="edge">
<title>Node35&#45;&gt;Node36</title>
<g id="a_edge40_Node000035_Node000036"><a xlink:title=" ">
<path fill="none" stroke="#63b8ff" d="M1912.05,-90.12C1900.74,-90 1889.22,-89.89 1878.1,-89.78"/>
<polygon fill="#63b8ff" stroke="#63b8ff" points="1912.32,-93.62 1922.36,-90.22 1912.39,-86.62 1912.32,-93.62"/>
</a>
</g>
</g>
<!-- Node36&#45;&gt;Node20 -->
<g id="edge41_Node000036_Node000020" class="edge">
<title>Node36&#45;&gt;Node20</title>
<g id="a_edge41_Node000036_Node000020"><a xlink:title=" ">
<path fill="none" stroke="#63b8ff" d="M1762.42,-76.19C1687.71,-51.55 1513.35,0 1362.5,0 1362.5,0 1362.5,0 965.5,0 826.06,0 789.39,-7.8 655,-45 613.26,-56.55 567.14,-78.01 542.13,-90.44"/>
<polygon fill="#63b8ff" stroke="#63b8ff" points="1761.69,-79.63 1772.28,-79.48 1763.9,-72.99 1761.69,-79.63"/>
</a>
</g>
</g>
<!-- Node37 -->
<g id="Node000037" class="node">
<title>Node37</title>
<g id="a_Node000037"><a xlink:href="../../d4/d21/classTerraria_1_1GameContent_1_1UI_1_1Elements_1_1UIWorldListItem_ac9add2a09c02fd084d0465b6e66e9f23.html#ac9add2a09c02fd084d0465b6e66e9f23" target="_top" xlink:title=" ">
<polygon fill="white" stroke="#666666" points="1687,-104 1490,-104 1490,-74 1687,-74 1687,-104"/>
<text text-anchor="start" x="1498" y="-92" font-family="Helvetica,sans-Serif" font-size="10.00">Terraria.GameContent.UI.</text>
<text text-anchor="middle" x="1588.5" y="-81" font-family="Helvetica,sans-Serif" font-size="10.00">Elements.UIWorldListItem.PlayGame</text>
</a>
</g>
</g>
<!-- Node36&#45;&gt;Node37 -->
<g id="edge42_Node000036_Node000037" class="edge">
<title>Node36&#45;&gt;Node37</title>
<g id="a_edge42_Node000036_Node000037"><a xlink:title=" ">
<path fill="none" stroke="#63b8ff" d="M1712.63,-89C1704.21,-89 1695.64,-89 1687.13,-89"/>
<polygon fill="#63b8ff" stroke="#63b8ff" points="1712.79,-92.5 1722.79,-89 1712.79,-85.5 1712.79,-92.5"/>
</a>
</g>
</g>
<!-- Node38 -->
<g id="Node000038" class="node">
<title>Node38</title>
<g id="a_Node000038"><a xlink:href="../../d4/d21/classTerraria_1_1GameContent_1_1UI_1_1Elements_1_1UIWorldListItem_acd0e5dd4f12948236126edd407c8a635.html#acd0e5dd4f12948236126edd407c8a635" target="_top" xlink:title=" ">
<polygon fill="white" stroke="#666666" points="1454,-109.5 1269,-109.5 1269,-68.5 1454,-68.5 1454,-109.5"/>
<text text-anchor="start" x="1277" y="-97.5" font-family="Helvetica,sans-Serif" font-size="10.00">Terraria.GameContent.UI.</text>
<text text-anchor="start" x="1277" y="-86.5" font-family="Helvetica,sans-Serif" font-size="10.00">Elements.UIWorldListItem.UIWorld</text>
<text text-anchor="middle" x="1361.5" y="-75.5" font-family="Helvetica,sans-Serif" font-size="10.00">ListItem</text>
</a>
</g>
</g>
<!-- Node37&#45;&gt;Node38 -->
<g id="edge43_Node000037_Node000038" class="edge">
<title>Node37&#45;&gt;Node38</title>
<g id="a_edge43_Node000037_Node000038"><a xlink:title=" ">
<path fill="none" stroke="#63b8ff" d="M1479.75,-89C1471.16,-89 1462.54,-89 1454.08,-89"/>
<polygon fill="#63b8ff" stroke="#63b8ff" points="1479.79,-92.5 1489.79,-89 1479.79,-85.5 1479.79,-92.5"/>
</a>
</g>
</g>
</g>
</svg>
