<?xml version="1.0" encoding="UTF-8" standalone="no"?>
<!DOCTYPE svg PUBLIC "-//W3C//DTD SVG 1.1//EN"
 "http://www.w3.org/Graphics/SVG/1.1/DTD/svg11.dtd">
<!-- Generated by graphviz version 2.43.0 (0)
 -->
<!-- Title: Main.DrawToMap_Section Pages: 1 -->
<svg width="667pt" height="66pt"
 viewBox="0.00 0.00 667.00 66.00" xmlns="http://www.w3.org/2000/svg" xmlns:xlink="http://www.w3.org/1999/xlink">
<g id="graph0" class="graph" transform="scale(1 1) rotate(0) translate(4 62)">
<title>Main.DrawToMap_Section</title>
<polygon fill="white" stroke="transparent" points="-4,4 -4,-62 663,-62 663,4 -4,4"/>
<!-- Node1 -->
<g id="node1" class="node">
<title>Node1</title>
<g id="a_node1"><a xlink:title=" ">
<polygon fill="#bfbfbf" stroke="black" points="0,-19.5 0,-38.5 142,-38.5 142,-19.5 0,-19.5"/>
<text text-anchor="middle" x="71" y="-26.5" font-family="Helvetica,sans-Serif" font-size="10.00">Main.DrawToMap_Section</text>
</a>
</g>
</g>
<!-- Node2 -->
<g id="node2" class="node">
<title>Node2</title>
<g id="a_node2"><a xlink:href="../../db/d4a/classMain_ab7d2b976da45425e79df1ad76183664a.html#ab7d2b976da45425e79df1ad76183664a" target="_top" xlink:title=" ">
<polygon fill="white" stroke="black" points="218,-38.5 218,-57.5 311,-57.5 311,-38.5 218,-38.5"/>
<text text-anchor="middle" x="264.5" y="-45.5" font-family="Helvetica,sans-Serif" font-size="10.00">Main.checkMap</text>
</a>
</g>
</g>
<!-- Node1&#45;&gt;Node2 -->
<g id="edge1" class="edge">
<title>Node1&#45;&gt;Node2</title>
<path fill="none" stroke="midnightblue" d="M142.22,-35.97C163.77,-38.11 187.18,-40.43 207.64,-42.46"/>
<polygon fill="midnightblue" stroke="midnightblue" points="207.43,-45.95 217.73,-43.46 208.12,-38.99 207.43,-45.95"/>
</g>
<!-- Node3 -->
<g id="node3" class="node">
<title>Node3</title>
<g id="a_node3"><a xlink:href="../../da/d1f/classMapHelper_a45f19cdf0cfb64e83ac5bdeab7ef6a18.html#a45f19cdf0cfb64e83ac5bdeab7ef6a18" target="_top" xlink:title=" ">
<polygon fill="white" stroke="black" points="178,-0.5 178,-19.5 351,-19.5 351,-0.5 178,-0.5"/>
<text text-anchor="middle" x="264.5" y="-7.5" font-family="Helvetica,sans-Serif" font-size="10.00">MapHelper.GetMapTileXnaColor</text>
</a>
</g>
</g>
<!-- Node1&#45;&gt;Node3 -->
<g id="edge2" class="edge">
<title>Node1&#45;&gt;Node3</title>
<path fill="none" stroke="midnightblue" d="M142.22,-22.03C150.58,-21.2 159.23,-20.35 167.87,-19.49"/>
<polygon fill="midnightblue" stroke="midnightblue" points="168.39,-22.95 178,-18.48 167.7,-15.99 168.39,-22.95"/>
</g>
<!-- Node4 -->
<g id="node4" class="node">
<title>Node4</title>
<g id="a_node4"><a xlink:href="../../da/d1f/classMapHelper_a71b4f632be77b267339101af5d968d0b.html#a71b4f632be77b267339101af5d968d0b" target="_top" xlink:title=" ">
<polygon fill="white" stroke="black" points="387,-0.5 387,-19.5 506,-19.5 506,-0.5 387,-0.5"/>
<text text-anchor="middle" x="446.5" y="-7.5" font-family="Helvetica,sans-Serif" font-size="10.00">MapHelper.MapColor</text>
</a>
</g>
</g>
<!-- Node3&#45;&gt;Node4 -->
<g id="edge3" class="edge">
<title>Node3&#45;&gt;Node4</title>
<path fill="none" stroke="midnightblue" d="M351.02,-10C359.66,-10 368.36,-10 376.79,-10"/>
<polygon fill="midnightblue" stroke="midnightblue" points="376.92,-13.5 386.92,-10 376.92,-6.5 376.92,-13.5"/>
</g>
<!-- Node5 -->
<g id="node5" class="node">
<title>Node5</title>
<g id="a_node5"><a xlink:href="../../db/de4/classWorldGen_a79e5cfbb695d6a706a075ac5035d3b94.html#a79e5cfbb695d6a706a075ac5035d3b94" target="_top" xlink:title=" ">
<polygon fill="white" stroke="black" points="542,-0.5 542,-19.5 659,-19.5 659,-0.5 542,-0.5"/>
<text text-anchor="middle" x="600.5" y="-7.5" font-family="Helvetica,sans-Serif" font-size="10.00">WorldGen.paintColor</text>
</a>
</g>
</g>
<!-- Node4&#45;&gt;Node5 -->
<g id="edge4" class="edge">
<title>Node4&#45;&gt;Node5</title>
<path fill="none" stroke="midnightblue" d="M506.27,-10C514.58,-10 523.19,-10 531.66,-10"/>
<polygon fill="midnightblue" stroke="midnightblue" points="531.89,-13.5 541.89,-10 531.89,-6.5 531.89,-13.5"/>
</g>
</g>
</svg>
