<?xml version="1.0" encoding="UTF-8" standalone="no"?>
<!DOCTYPE svg PUBLIC "-//W3C//DTD SVG 1.1//EN"
 "http://www.w3.org/Graphics/SVG/1.1/DTD/svg11.dtd">
<!-- Generated by graphviz version 2.43.0 (0)
 -->
<!-- Title: Main.UpdateServer Pages: 1 -->
<svg width="1026pt" height="1672pt"
 viewBox="0.00 0.00 1026.00 1672.18" xmlns="http://www.w3.org/2000/svg" xmlns:xlink="http://www.w3.org/1999/xlink">
<g id="graph0" class="graph" transform="scale(1 1) rotate(0) translate(4 1668.18)">
<title>Main.UpdateServer</title>
<polygon fill="white" stroke="transparent" points="-4,4 -4,-1668.18 1022,-1668.18 1022,4 -4,4"/>
<!-- Node1 -->
<g id="node1" class="node">
<title>Node1</title>
<g id="a_node1"><a xlink:title=" ">
<polygon fill="#bfbfbf" stroke="black" points="0,-900 0,-919 110,-919 110,-900 0,-900"/>
<text text-anchor="middle" x="55" y="-907" font-family="Helvetica,sans-Serif" font-size="10.00">Main.UpdateServer</text>
</a>
</g>
</g>
<!-- Node2 -->
<g id="node2" class="node">
<title>Node2</title>
<g id="a_node2"><a xlink:href="../../db/d53/classRemoteClient_a384da5bb7b448f85457d6e6604e3fc35.html#a384da5bb7b448f85457d6e6604e3fc35" target="_top" xlink:title=" ">
<polygon fill="white" stroke="black" points="146,-1535 146,-1554 298,-1554 298,-1535 146,-1535"/>
<text text-anchor="middle" x="222" y="-1542" font-family="Helvetica,sans-Serif" font-size="10.00">RemoteClient.CheckSection</text>
</a>
</g>
</g>
<!-- Node1&#45;&gt;Node2 -->
<g id="edge1" class="edge">
<title>Node1&#45;&gt;Node2</title>
<path fill="none" stroke="midnightblue" d="M58.53,-919.22C76.95,-990.14 190.69,-1427.84 216.01,-1525.29"/>
<polygon fill="midnightblue" stroke="midnightblue" points="212.63,-1526.2 218.53,-1535 219.4,-1524.44 212.63,-1526.2"/>
</g>
<!-- Node7 -->
<g id="node6" class="node">
<title>Node7</title>
<g id="a_node6"><a xlink:href="../../dc/d81/classNetMessage_aae9f950a067b8cd26edda26e73a41b2d.html#aae9f950a067b8cd26edda26e73a41b2d" target="_top" xlink:title=" ">
<polygon fill="white" stroke="black" points="528,-834 528,-853 656,-853 656,-834 528,-834"/>
<text text-anchor="middle" x="592" y="-841" font-family="Helvetica,sans-Serif" font-size="10.00">NetMessage.SendData</text>
</a>
</g>
</g>
<!-- Node1&#45;&gt;Node7 -->
<g id="edge58" class="edge">
<title>Node1&#45;&gt;Node7</title>
<path fill="none" stroke="midnightblue" d="M68.39,-899.82C85.12,-887.2 116.25,-865.25 146,-852.5 225.17,-818.58 248.52,-816.02 334,-805.5 403.7,-796.92 422.95,-792.7 492,-805.5 516.93,-810.12 543.69,-820.77 563.1,-829.62"/>
<polygon fill="midnightblue" stroke="midnightblue" points="561.72,-832.84 572.26,-833.92 564.69,-826.5 561.72,-832.84"/>
</g>
<!-- Node72 -->
<g id="node46" class="node">
<title>Node72</title>
<g id="a_node46"><a xlink:href="../../d0/dae/classItem_a819a76b9b3b6aee78cc97b6d37140606.html#a819a76b9b3b6aee78cc97b6d37140606" target="_top" xlink:title=" ">
<polygon fill="white" stroke="black" points="175,-862 175,-881 269,-881 269,-862 175,-862"/>
<text text-anchor="middle" x="222" y="-869" font-family="Helvetica,sans-Serif" font-size="10.00">Item.FindOwner</text>
</a>
</g>
</g>
<!-- Node1&#45;&gt;Node72 -->
<g id="edge54" class="edge">
<title>Node1&#45;&gt;Node72</title>
<path fill="none" stroke="midnightblue" d="M97.64,-899.91C119.51,-894.87 146.51,-888.66 169.66,-883.32"/>
<polygon fill="midnightblue" stroke="midnightblue" points="170.7,-886.68 179.66,-881.02 169.13,-879.85 170.7,-886.68"/>
</g>
<!-- Node76 -->
<g id="node49" class="node">
<title>Node76</title>
<g id="a_node49"><a xlink:href="../../db/d53/classRemoteClient_a628de8f6e4248fe8d9d409a7e60374df.html#a628de8f6e4248fe8d9d409a7e60374df" target="_top" xlink:title=" ">
<polygon fill="white" stroke="red" points="147.5,-910 147.5,-929 296.5,-929 296.5,-910 147.5,-910"/>
<text text-anchor="middle" x="222" y="-917" font-family="Helvetica,sans-Serif" font-size="10.00">RemoteClient.SpamUpdate</text>
</a>
</g>
</g>
<!-- Node1&#45;&gt;Node76 -->
<g id="edge59" class="edge">
<title>Node1&#45;&gt;Node76</title>
<path fill="none" stroke="midnightblue" d="M110.03,-912.77C118.79,-913.31 128.05,-913.87 137.32,-914.43"/>
<polygon fill="midnightblue" stroke="midnightblue" points="137.18,-917.93 147.37,-915.04 137.6,-910.94 137.18,-917.93"/>
</g>
<!-- Node3 -->
<g id="node3" class="node">
<title>Node3</title>
<g id="a_node3"><a xlink:href="../../d9/d43/classNetplay_ab61acde52f6e2c8d92b5816ba67ccadf.html#ab61acde52f6e2c8d92b5816ba67ccadf" target="_top" xlink:title=" ">
<polygon fill="white" stroke="black" points="902,-1611 902,-1630 1018,-1630 1018,-1611 902,-1611"/>
<text text-anchor="middle" x="960" y="-1618" font-family="Helvetica,sans-Serif" font-size="10.00">Netplay.GetSectionX</text>
</a>
</g>
</g>
<!-- Node2&#45;&gt;Node3 -->
<g id="edge2" class="edge">
<title>Node2&#45;&gt;Node3</title>
<path fill="none" stroke="midnightblue" d="M232.26,-1554.2C250.01,-1572.04 290.9,-1609.58 334,-1624.5 536.15,-1694.46 797.6,-1654.3 907.13,-1632.13"/>
<polygon fill="midnightblue" stroke="midnightblue" points="908.16,-1635.49 917.25,-1630.05 906.75,-1628.64 908.16,-1635.49"/>
</g>
<!-- Node4 -->
<g id="node4" class="node">
<title>Node4</title>
<g id="a_node4"><a xlink:href="../../d9/d43/classNetplay_a5d153f58e51f26baa5e12b5e6d86c56b.html#a5d153f58e51f26baa5e12b5e6d86c56b" target="_top" xlink:title=" ">
<polygon fill="white" stroke="black" points="902,-1497 902,-1516 1018,-1516 1018,-1497 902,-1497"/>
<text text-anchor="middle" x="960" y="-1504" font-family="Helvetica,sans-Serif" font-size="10.00">Netplay.GetSectionY</text>
</a>
</g>
</g>
<!-- Node2&#45;&gt;Node4 -->
<g id="edge3" class="edge">
<title>Node2&#45;&gt;Node4</title>
<path fill="none" stroke="midnightblue" d="M298.01,-1545.65C352.25,-1547.48 427.1,-1552.09 492,-1563.5 657.6,-1592.62 714.11,-1692.61 866,-1620.5 907.53,-1600.78 936.64,-1552.43 950.26,-1525.46"/>
<polygon fill="midnightblue" stroke="midnightblue" points="953.5,-1526.8 954.71,-1516.28 947.2,-1523.75 953.5,-1526.8"/>
</g>
<!-- Node5 -->
<g id="node5" class="node">
<title>Node5</title>
<g id="a_node5"><a xlink:href="../../d0/d41/classLanguage_a9f392308c3f9927bacc3d83792b46408.html#a9f392308c3f9927bacc3d83792b46408" target="_top" xlink:title=" ">
<polygon fill="white" stroke="red" points="713.5,-1592 713.5,-1611 844.5,-1611 844.5,-1592 713.5,-1592"/>
<text text-anchor="middle" x="779" y="-1599" font-family="Helvetica,sans-Serif" font-size="10.00">Language.GetTextValue</text>
</a>
</g>
</g>
<!-- Node2&#45;&gt;Node5 -->
<g id="edge4" class="edge">
<title>Node2&#45;&gt;Node5</title>
<path fill="none" stroke="midnightblue" d="M236.52,-1554.17C256.62,-1567.88 296.1,-1592.34 334,-1601.5 460.79,-1632.15 613.97,-1622.28 703.25,-1612.06"/>
<polygon fill="midnightblue" stroke="midnightblue" points="703.76,-1615.53 713.28,-1610.88 702.94,-1608.58 703.76,-1615.53"/>
</g>
<!-- Node2&#45;&gt;Node7 -->
<g id="edge5" class="edge">
<title>Node2&#45;&gt;Node7</title>
<path fill="none" stroke="midnightblue" d="M228.06,-1534.86C267.66,-1459.42 527.64,-964.19 581.32,-861.95"/>
<polygon fill="midnightblue" stroke="midnightblue" points="584.43,-863.55 585.98,-853.07 578.23,-860.3 584.43,-863.55"/>
</g>
<!-- Node63 -->
<g id="node44" class="node">
<title>Node63</title>
<g id="a_node44"><a xlink:href="../../dc/d81/classNetMessage_a53ce0a69398b4bf22cd22a29999d0fab.html#a53ce0a69398b4bf22cd22a29999d0fab" target="_top" xlink:title=" ">
<polygon fill="white" stroke="black" points="343,-1497 343,-1516 483,-1516 483,-1497 343,-1497"/>
<text text-anchor="middle" x="413" y="-1504" font-family="Helvetica,sans-Serif" font-size="10.00">NetMessage.SendSection</text>
</a>
</g>
</g>
<!-- Node2&#45;&gt;Node63 -->
<g id="edge49" class="edge">
<title>Node2&#45;&gt;Node63</title>
<path fill="none" stroke="midnightblue" d="M270.69,-1534.91C296.2,-1529.78 327.78,-1523.43 354.62,-1518.04"/>
<polygon fill="midnightblue" stroke="midnightblue" points="355.54,-1521.42 364.65,-1516.02 354.16,-1514.56 355.54,-1521.42"/>
</g>
<!-- Node64 -->
<g id="node45" class="node">
<title>Node64</title>
<g id="a_node45"><a xlink:href="../../d1/d68/classLocalizedText_a08cc2c3a27a44eda49ff8813c08c2dbf.html#a08cc2c3a27a44eda49ff8813c08c2dbf" target="_top" xlink:title=" ">
<polygon fill="white" stroke="red" points="334,-1573 334,-1592 492,-1592 492,-1573 334,-1573"/>
<text text-anchor="middle" x="413" y="-1580" font-family="Helvetica,sans-Serif" font-size="10.00">LocalizedText.ToNetworkText</text>
</a>
</g>
</g>
<!-- Node2&#45;&gt;Node64 -->
<g id="edge53" class="edge">
<title>Node2&#45;&gt;Node64</title>
<path fill="none" stroke="midnightblue" d="M270.69,-1554.09C296.2,-1559.22 327.78,-1565.57 354.62,-1570.96"/>
<polygon fill="midnightblue" stroke="midnightblue" points="354.16,-1574.44 364.65,-1572.98 355.54,-1567.58 354.16,-1574.44"/>
</g>
<!-- Node7&#45;&gt;Node3 -->
<g id="edge20" class="edge">
<title>Node7&#45;&gt;Node3</title>
<path fill="none" stroke="midnightblue" d="M593.18,-853.02C594.75,-926.07 608.05,-1397.82 692,-1506.5 695.84,-1511.48 856.02,-1578 926.4,-1607.07"/>
<polygon fill="midnightblue" stroke="midnightblue" points="925.13,-1610.33 935.71,-1610.91 927.8,-1603.86 925.13,-1610.33"/>
</g>
<!-- Node7&#45;&gt;Node4 -->
<g id="edge21" class="edge">
<title>Node7&#45;&gt;Node4</title>
<path fill="none" stroke="midnightblue" d="M593.83,-853.33C598.98,-912.01 628.47,-1215.52 692,-1278.5 748.22,-1334.23 803.73,-1267.64 866,-1316.5 922.4,-1360.75 946.86,-1447.98 955.3,-1486.92"/>
<polygon fill="midnightblue" stroke="midnightblue" points="951.87,-1487.66 957.3,-1496.75 958.73,-1486.26 951.87,-1487.66"/>
</g>
<!-- Node7&#45;&gt;Node5 -->
<g id="edge22" class="edge">
<title>Node7&#45;&gt;Node5</title>
<path fill="none" stroke="midnightblue" d="M592.9,-853.13C592.3,-931.35 591.95,-1462.58 692,-1577.5 695.54,-1581.56 699.69,-1584.96 704.24,-1587.81"/>
<polygon fill="midnightblue" stroke="midnightblue" points="702.93,-1591.07 713.41,-1592.62 706.18,-1584.87 702.93,-1591.07"/>
</g>
<!-- Node8 -->
<g id="node7" class="node">
<title>Node8</title>
<g id="a_node7"><a xlink:href="../../d6/dba/classTile_a64e4b5e9c17707d5bf63cf590bb48c9b.html#a64e4b5e9c17707d5bf63cf590bb48c9b" target="_top" xlink:title=" ">
<polygon fill="white" stroke="black" points="745,-872 745,-891 813,-891 813,-872 745,-872"/>
<text text-anchor="middle" x="779" y="-879" font-family="Helvetica,sans-Serif" font-size="10.00">Tile.active</text>
</a>
</g>
</g>
<!-- Node7&#45;&gt;Node8 -->
<g id="edge6" class="edge">
<title>Node7&#45;&gt;Node8</title>
<path fill="none" stroke="midnightblue" d="M639.68,-853.09C668.86,-859.08 706.16,-866.74 734.68,-872.6"/>
<polygon fill="midnightblue" stroke="midnightblue" points="734.25,-876.09 744.75,-874.67 735.66,-869.23 734.25,-876.09"/>
</g>
<!-- Node9 -->
<g id="node8" class="node">
<title>Node9</title>
<g id="a_node8"><a xlink:href="../../d6/dba/classTile_aaf7a749e2f172ceb884144afc820ba05.html#aaf7a749e2f172ceb884144afc820ba05" target="_top" xlink:title=" ">
<polygon fill="white" stroke="black" points="740,-834 740,-853 818,-853 818,-834 740,-834"/>
<text text-anchor="middle" x="779" y="-841" font-family="Helvetica,sans-Serif" font-size="10.00">Tile.actuator</text>
</a>
</g>
</g>
<!-- Node7&#45;&gt;Node9 -->
<g id="edge7" class="edge">
<title>Node7&#45;&gt;Node9</title>
<path fill="none" stroke="midnightblue" d="M656.15,-843.5C680.19,-843.5 707.17,-843.5 729.63,-843.5"/>
<polygon fill="midnightblue" stroke="midnightblue" points="729.93,-847 739.93,-843.5 729.93,-840 729.93,-847"/>
</g>
<!-- Node10 -->
<g id="node9" class="node">
<title>Node10</title>
<g id="a_node9"><a xlink:href="../../dd/dc4/interfaceISocket_a511af46ee3de67c1203113b24bb71d07.html#a511af46ee3de67c1203113b24bb71d07" target="_top" xlink:title=" ">
<polygon fill="white" stroke="black" points="725,-796 725,-815 833,-815 833,-796 725,-796"/>
<text text-anchor="middle" x="779" y="-803" font-family="Helvetica,sans-Serif" font-size="10.00">ISocket.AsyncSend</text>
</a>
</g>
</g>
<!-- Node7&#45;&gt;Node10 -->
<g id="edge8" class="edge">
<title>Node7&#45;&gt;Node10</title>
<path fill="none" stroke="midnightblue" d="M639.68,-833.91C664.65,-828.78 695.56,-822.43 721.83,-817.04"/>
<polygon fill="midnightblue" stroke="midnightblue" points="722.56,-820.46 731.65,-815.02 721.15,-813.6 722.56,-820.46"/>
</g>
<!-- Node11 -->
<g id="node10" class="node">
<title>Node11</title>
<g id="a_node10"><a xlink:href="../../d3/d0e/classRemoteServer_a42c60d555de36d82c304afacb843109c.html#a42c60d555de36d82c304afacb843109c" target="_top" xlink:title=" ">
<polygon fill="white" stroke="black" points="707.5,-746.5 707.5,-776.5 850.5,-776.5 850.5,-746.5 707.5,-746.5"/>
<text text-anchor="start" x="715.5" y="-764.5" font-family="Helvetica,sans-Serif" font-size="10.00">RemoteServer.ClientWrite</text>
<text text-anchor="middle" x="779" y="-753.5" font-family="Helvetica,sans-Serif" font-size="10.00">CallBack</text>
</a>
</g>
</g>
<!-- Node7&#45;&gt;Node11 -->
<g id="edge9" class="edge">
<title>Node7&#45;&gt;Node11</title>
<path fill="none" stroke="midnightblue" d="M607.19,-833.86C625.93,-821.5 660.25,-800.02 692,-786.5 697.5,-784.16 703.28,-781.96 709.15,-779.9"/>
<polygon fill="midnightblue" stroke="midnightblue" points="710.68,-783.08 719.05,-776.6 708.46,-776.44 710.68,-783.08"/>
</g>
<!-- Node12 -->
<g id="node11" class="node">
<title>Node12</title>
<g id="a_node11"><a xlink:href="../../d6/dba/classTile_aab901c8f842b5afa78ab3605f6c5d542.html#aab901c8f842b5afa78ab3605f6c5d542" target="_top" xlink:title=" ">
<polygon fill="white" stroke="black" points="748,-708 748,-727 810,-727 810,-708 748,-708"/>
<text text-anchor="middle" x="779" y="-715" font-family="Helvetica,sans-Serif" font-size="10.00">Tile.color</text>
</a>
</g>
</g>
<!-- Node7&#45;&gt;Node12 -->
<g id="edge10" class="edge">
<title>Node7&#45;&gt;Node12</title>
<path fill="none" stroke="midnightblue" d="M598.84,-834C612.37,-812.83 648.1,-761.69 692,-736.5 705.79,-728.59 722.57,-723.97 737.64,-721.27"/>
<polygon fill="midnightblue" stroke="midnightblue" points="738.39,-724.7 747.73,-719.7 737.31,-717.78 738.39,-724.7"/>
</g>
<!-- Node13 -->
<g id="node12" class="node">
<title>Node13</title>
<g id="a_node12"><a xlink:href="../../dc/d81/classNetMessage_aeb123127a7678b0a62966969dd5435e3.html#aeb123127a7678b0a62966969dd5435e3" target="_top" xlink:title=" ">
<polygon fill="white" stroke="red" points="692,-670 692,-689 866,-689 866,-670 692,-670"/>
<text text-anchor="middle" x="779" y="-677" font-family="Helvetica,sans-Serif" font-size="10.00">NetMessage.CompressTileBlock</text>
</a>
</g>
</g>
<!-- Node7&#45;&gt;Node13 -->
<g id="edge11" class="edge">
<title>Node7&#45;&gt;Node13</title>
<path fill="none" stroke="midnightblue" d="M596.6,-833.86C606.95,-807.54 639.48,-734.02 692,-698.5 694.94,-696.51 698.05,-694.73 701.28,-693.13"/>
<polygon fill="midnightblue" stroke="midnightblue" points="702.86,-696.26 710.65,-689.09 700.09,-689.83 702.86,-696.26"/>
</g>
<!-- Node44 -->
<g id="node13" class="node">
<title>Node44</title>
<g id="a_node13"><a xlink:href="../../d1/d6d/interfaceINetDiagnosticsUI_a076e65303a310f5c718916c3d433c966.html#a076e65303a310f5c718916c3d433c966" target="_top" xlink:title=" ">
<polygon fill="white" stroke="black" points="700,-620.5 700,-650.5 858,-650.5 858,-620.5 700,-620.5"/>
<text text-anchor="start" x="708" y="-638.5" font-family="Helvetica,sans-Serif" font-size="10.00">INetDiagnosticsUI.CountSent</text>
<text text-anchor="middle" x="779" y="-627.5" font-family="Helvetica,sans-Serif" font-size="10.00">Message</text>
</a>
</g>
</g>
<!-- Node7&#45;&gt;Node44 -->
<g id="edge12" class="edge">
<title>Node7&#45;&gt;Node44</title>
<path fill="none" stroke="midnightblue" d="M595.37,-833.83C603.35,-803.42 632.12,-708.81 692,-660.5 694.27,-658.67 696.67,-656.97 699.16,-655.4"/>
<polygon fill="midnightblue" stroke="midnightblue" points="700.93,-658.42 707.98,-650.52 697.54,-652.3 700.93,-658.42"/>
</g>
<!-- Node23 -->
<g id="node14" class="node">
<title>Node23</title>
<g id="a_node14"><a xlink:href="../../d6/dba/classTile_ac1019500ca7fcafcb5b51f226fec3686.html#ac1019500ca7fcafcb5b51f226fec3686" target="_top" xlink:title=" ">
<polygon fill="white" stroke="black" points="724.5,-582 724.5,-601 833.5,-601 833.5,-582 724.5,-582"/>
<text text-anchor="middle" x="779" y="-589" font-family="Helvetica,sans-Serif" font-size="10.00">Tile.fullbrightBlock</text>
</a>
</g>
</g>
<!-- Node7&#45;&gt;Node23 -->
<g id="edge13" class="edge">
<title>Node7&#45;&gt;Node23</title>
<path fill="none" stroke="midnightblue" d="M594.02,-833.67C598.33,-797.64 618.3,-671.73 692,-610.5 698.59,-605.02 706.42,-601.03 714.63,-598.14"/>
<polygon fill="midnightblue" stroke="midnightblue" points="715.81,-601.44 724.39,-595.23 713.81,-594.73 715.81,-601.44"/>
</g>
<!-- Node24 -->
<g id="node15" class="node">
<title>Node24</title>
<g id="a_node15"><a xlink:href="../../d6/dba/classTile_a6771973d2404aad67503906dc8131567.html#a6771973d2404aad67503906dc8131567" target="_top" xlink:title=" ">
<polygon fill="white" stroke="black" points="727.5,-544 727.5,-563 830.5,-563 830.5,-544 727.5,-544"/>
<text text-anchor="middle" x="779" y="-551" font-family="Helvetica,sans-Serif" font-size="10.00">Tile.fullbrightWall</text>
</a>
</g>
</g>
<!-- Node7&#45;&gt;Node24 -->
<g id="edge14" class="edge">
<title>Node7&#45;&gt;Node24</title>
<path fill="none" stroke="midnightblue" d="M593.37,-833.78C595.44,-794.4 608.7,-645.41 692,-572.5 699.26,-566.15 708.16,-561.77 717.46,-558.78"/>
<polygon fill="midnightblue" stroke="midnightblue" points="718.49,-562.13 727.24,-556.15 716.67,-555.37 718.49,-562.13"/>
</g>
<!-- Node45 -->
<g id="node16" class="node">
<title>Node45</title>
<g id="a_node16"><a xlink:href="../../d5/ded/classNetSocialModule_af0090e196791182cf907e4bd9a55412f.html#af0090e196791182cf907e4bd9a55412f" target="_top" xlink:title=" ">
<polygon fill="white" stroke="black" points="700,-506 700,-525 858,-525 858,-506 700,-506"/>
<text text-anchor="middle" x="779" y="-513" font-family="Helvetica,sans-Serif" font-size="10.00">NetSocialModule.GetLobbyId</text>
</a>
</g>
</g>
<!-- Node7&#45;&gt;Node45 -->
<g id="edge15" class="edge">
<title>Node7&#45;&gt;Node45</title>
<path fill="none" stroke="midnightblue" d="M592.88,-833.92C592.91,-791.56 598.95,-619.31 692,-534.5 693.7,-532.95 695.49,-531.52 697.37,-530.2"/>
<polygon fill="midnightblue" stroke="midnightblue" points="699.23,-533.16 706.05,-525.06 695.66,-527.14 699.23,-533.16"/>
</g>
<!-- Node46 -->
<g id="node17" class="node">
<title>Node46</title>
<g id="a_node17"><a xlink:href="../../de/d71/classNPC_a4c39a8890e0e18375e6ab1ef2365b0d1.html#a4c39a8890e0e18375e6ab1ef2365b0d1" target="_top" xlink:title=" ">
<polygon fill="white" stroke="black" points="740.5,-468 740.5,-487 817.5,-487 817.5,-468 740.5,-468"/>
<text text-anchor="middle" x="779" y="-475" font-family="Helvetica,sans-Serif" font-size="10.00">NPC.getRect</text>
</a>
</g>
</g>
<!-- Node7&#45;&gt;Node46 -->
<g id="edge16" class="edge">
<title>Node7&#45;&gt;Node46</title>
<path fill="none" stroke="midnightblue" d="M592.49,-833.72C590.67,-787.95 589.36,-593.11 692,-496.5 702.3,-486.8 716.4,-481.63 730.19,-478.98"/>
<polygon fill="midnightblue" stroke="midnightblue" points="730.76,-482.44 740.12,-477.47 729.71,-475.52 730.76,-482.44"/>
</g>
<!-- Node47 -->
<g id="node18" class="node">
<title>Node47</title>
<g id="a_node18"><a xlink:href="../../d2/d4b/classPlayer_af6df066c2c1b4e670be718cb58b66968.html#af6df066c2c1b4e670be718cb58b66968" target="_top" xlink:title=" ">
<polygon fill="white" stroke="black" points="735.5,-430 735.5,-449 822.5,-449 822.5,-430 735.5,-430"/>
<text text-anchor="middle" x="779" y="-437" font-family="Helvetica,sans-Serif" font-size="10.00">Player.getRect</text>
</a>
</g>
</g>
<!-- Node7&#45;&gt;Node47 -->
<g id="edge17" class="edge">
<title>Node7&#45;&gt;Node47</title>
<path fill="none" stroke="midnightblue" d="M594.13,-833.75C600.64,-779.31 635.05,-513.53 692,-458.5 700.93,-449.87 712.86,-444.8 724.98,-441.9"/>
<polygon fill="midnightblue" stroke="midnightblue" points="725.98,-445.28 735.14,-439.95 724.66,-438.4 725.98,-445.28"/>
</g>
<!-- Node48 -->
<g id="node19" class="node">
<title>Node48</title>
<g id="a_node19"><a xlink:href="../../d9/d4b/classProjectile_a0133e73e3ee32fc8aae1c7fdb6bb4cde.html#a0133e73e3ee32fc8aae1c7fdb6bb4cde" target="_top" xlink:title=" ">
<polygon fill="white" stroke="black" points="727.5,-392 727.5,-411 830.5,-411 830.5,-392 727.5,-392"/>
<text text-anchor="middle" x="779" y="-399" font-family="Helvetica,sans-Serif" font-size="10.00">Projectile.getRect</text>
</a>
</g>
</g>
<!-- Node7&#45;&gt;Node48 -->
<g id="edge18" class="edge">
<title>Node7&#45;&gt;Node48</title>
<path fill="none" stroke="midnightblue" d="M593.87,-833.94C599.29,-776.87 630.02,-481.71 692,-420.5 699.1,-413.49 708.17,-408.82 717.74,-405.75"/>
<polygon fill="midnightblue" stroke="midnightblue" points="718.65,-409.13 727.42,-403.19 716.86,-402.36 718.65,-409.13"/>
</g>
<!-- Node49 -->
<g id="node20" class="node">
<title>Node49</title>
<g id="a_node20"><a xlink:href="../../dd/dc4/interfaceISocket_acd5af726d37763775e8b7e204378c039.html#acd5af726d37763775e8b7e204378c039" target="_top" xlink:title=" ">
<polygon fill="white" stroke="black" points="704.5,-354 704.5,-373 853.5,-373 853.5,-354 704.5,-354"/>
<text text-anchor="middle" x="779" y="-361" font-family="Helvetica,sans-Serif" font-size="10.00">ISocket.GetRemoteAddress</text>
</a>
</g>
</g>
<!-- Node7&#45;&gt;Node49 -->
<g id="edge19" class="edge">
<title>Node7&#45;&gt;Node49</title>
<path fill="none" stroke="midnightblue" d="M593.68,-833.88C598.14,-773.74 625.05,-449.84 692,-382.5 693.3,-381.2 694.66,-379.97 696.09,-378.82"/>
<polygon fill="midnightblue" stroke="midnightblue" points="698.41,-381.48 704.82,-373.05 694.55,-375.64 698.41,-381.48"/>
</g>
<!-- Node25 -->
<g id="node21" class="node">
<title>Node25</title>
<g id="a_node21"><a xlink:href="../../d6/dba/classTile_a975f34b33a09445dfd475309fdcfd6a0.html#a975f34b33a09445dfd475309fdcfd6a0" target="_top" xlink:title=" ">
<polygon fill="white" stroke="black" points="738.5,-316 738.5,-335 819.5,-335 819.5,-316 738.5,-316"/>
<text text-anchor="middle" x="779" y="-323" font-family="Helvetica,sans-Serif" font-size="10.00">Tile.halfBrick</text>
</a>
</g>
</g>
<!-- Node7&#45;&gt;Node25 -->
<g id="edge23" class="edge">
<title>Node7&#45;&gt;Node25</title>
<path fill="none" stroke="midnightblue" d="M593.51,-833.92C597.06,-771.08 620.03,-418.04 692,-344.5 701.55,-334.75 714.89,-329.48 728.22,-326.77"/>
<polygon fill="midnightblue" stroke="midnightblue" points="729.02,-330.18 738.35,-325.15 727.92,-323.27 729.02,-330.18"/>
</g>
<!-- Node27 -->
<g id="node22" class="node">
<title>Node27</title>
<g id="a_node22"><a xlink:href="../../d6/dba/classTile_abb2a30463eddd9cbdc91f329d2aa4bf8.html#abb2a30463eddd9cbdc91f329d2aa4bf8" target="_top" xlink:title=" ">
<polygon fill="white" stroke="black" points="740.5,-278 740.5,-297 817.5,-297 817.5,-278 740.5,-278"/>
<text text-anchor="middle" x="779" y="-285" font-family="Helvetica,sans-Serif" font-size="10.00">Tile.inActive</text>
</a>
</g>
</g>
<!-- Node7&#45;&gt;Node27 -->
<g id="edge24" class="edge">
<title>Node7&#45;&gt;Node27</title>
<path fill="none" stroke="midnightblue" d="M593.38,-833.63C596.12,-767.25 615.12,-386.12 692,-306.5 702,-296.14 716.28,-290.83 730.33,-288.26"/>
<polygon fill="midnightblue" stroke="midnightblue" points="731.04,-291.7 740.46,-286.84 730.07,-284.76 731.04,-291.7"/>
</g>
<!-- Node28 -->
<g id="node23" class="node">
<title>Node28</title>
<g id="a_node23"><a xlink:href="../../d6/dba/classTile_ab79d72d2c148d8bbd6dbc20055eec3d6.html#ab79d72d2c148d8bbd6dbc20055eec3d6" target="_top" xlink:title=" ">
<polygon fill="white" stroke="black" points="726,-240 726,-259 832,-259 832,-240 726,-240"/>
<text text-anchor="middle" x="779" y="-247" font-family="Helvetica,sans-Serif" font-size="10.00">Tile.invisibleBlock</text>
</a>
</g>
</g>
<!-- Node7&#45;&gt;Node28 -->
<g id="edge25" class="edge">
<title>Node7&#45;&gt;Node28</title>
<path fill="none" stroke="midnightblue" d="M593.24,-833.83C595.16,-765.41 610.01,-354.43 692,-268.5 698.51,-261.68 706.88,-257.04 715.83,-253.93"/>
<polygon fill="midnightblue" stroke="midnightblue" points="717.05,-257.22 725.71,-251.12 715.13,-250.49 717.05,-257.22"/>
</g>
<!-- Node29 -->
<g id="node24" class="node">
<title>Node29</title>
<g id="a_node24"><a xlink:href="../../d6/dba/classTile_a5f91c633897ca90de65f8c0bac41b000.html#a5f91c633897ca90de65f8c0bac41b000" target="_top" xlink:title=" ">
<polygon fill="white" stroke="black" points="729,-202 729,-221 829,-221 829,-202 729,-202"/>
<text text-anchor="middle" x="779" y="-209" font-family="Helvetica,sans-Serif" font-size="10.00">Tile.invisibleWall</text>
</a>
</g>
</g>
<!-- Node7&#45;&gt;Node29 -->
<g id="edge26" class="edge">
<title>Node7&#45;&gt;Node29</title>
<path fill="none" stroke="midnightblue" d="M593.13,-833.66C594.31,-762.16 605.04,-322.6 692,-230.5 699.24,-222.83 708.82,-217.92 718.95,-214.83"/>
<polygon fill="midnightblue" stroke="midnightblue" points="719.91,-218.2 728.78,-212.4 718.23,-211.4 719.91,-218.2"/>
</g>
<!-- Node50 -->
<g id="node25" class="node">
<title>Node50</title>
<g id="a_node25"><a xlink:href="../../dd/dc4/interfaceISocket_a36309c9c292db8e6f6b103814e62861d.html#a36309c9c292db8e6f6b103814e62861d" target="_top" xlink:title=" ">
<polygon fill="white" stroke="black" points="902.5,-107 902.5,-126 1017.5,-126 1017.5,-107 902.5,-107"/>
<text text-anchor="middle" x="960" y="-114" font-family="Helvetica,sans-Serif" font-size="10.00">ISocket.IsConnected</text>
</a>
</g>
</g>
<!-- Node7&#45;&gt;Node50 -->
<g id="edge27" class="edge">
<title>Node7&#45;&gt;Node50</title>
<path fill="none" stroke="midnightblue" d="M593.5,-833.74C597.94,-748.4 632.09,-131.16 692,-78.5 761.53,-17.39 882.9,-73.33 934.58,-101.98"/>
<polygon fill="midnightblue" stroke="midnightblue" points="932.96,-105.08 943.39,-106.97 936.42,-98.99 932.96,-105.08"/>
</g>
<!-- Node51 -->
<g id="node26" class="node">
<title>Node51</title>
<g id="a_node26"><a xlink:href="../../db/d53/classRemoteClient_a12dad1d00d836ac7ab31b780cbde6b70.html#a12dad1d00d836ac7ab31b780cbde6b70" target="_top" xlink:title=" ">
<polygon fill="white" stroke="black" points="706,-164 706,-183 852,-183 852,-164 706,-164"/>
<text text-anchor="middle" x="779" y="-171" font-family="Helvetica,sans-Serif" font-size="10.00">RemoteClient.IsConnected</text>
</a>
</g>
</g>
<!-- Node7&#45;&gt;Node51 -->
<g id="edge28" class="edge">
<title>Node7&#45;&gt;Node51</title>
<path fill="none" stroke="midnightblue" d="M593.03,-833.54C593.49,-759.16 600.03,-290.8 692,-192.5 693.61,-190.78 695.34,-189.19 697.17,-187.73"/>
<polygon fill="midnightblue" stroke="midnightblue" points="699.29,-190.53 705.76,-182.14 695.47,-184.67 699.29,-190.53"/>
</g>
<!-- Node52 -->
<g id="node27" class="node">
<title>Node52</title>
<g id="a_node27"><a xlink:href="../../d6/dba/classTile_ae3a537e6afc69261928beeb910d9e29d.html#ae3a537e6afc69261928beeb910d9e29d" target="_top" xlink:title=" ">
<polygon fill="white" stroke="red" points="735.5,-126 735.5,-145 822.5,-145 822.5,-126 735.5,-126"/>
<text text-anchor="middle" x="779" y="-133" font-family="Helvetica,sans-Serif" font-size="10.00">Tile.liquidType</text>
</a>
</g>
</g>
<!-- Node7&#45;&gt;Node52 -->
<g id="edge30" class="edge">
<title>Node7&#45;&gt;Node52</title>
<path fill="none" stroke="midnightblue" d="M592.94,-833.94C592.7,-758.49 594.8,-259.25 692,-154.5 700.7,-145.13 712.89,-139.85 725.37,-136.99"/>
<polygon fill="midnightblue" stroke="midnightblue" points="726.16,-140.41 735.38,-135.19 724.92,-133.52 726.16,-140.41"/>
</g>
<!-- Node54 -->
<g id="node28" class="node">
<title>Node54</title>
<g id="a_node28"><a xlink:href="../../df/d9d/classMessageBuffer_abed3beea6de2ff8064638640f3fcf6be.html#abed3beea6de2ff8064638640f3fcf6be" target="_top" xlink:title=" ">
<polygon fill="white" stroke="black" points="704.5,-88 704.5,-107 853.5,-107 853.5,-88 704.5,-88"/>
<text text-anchor="middle" x="779" y="-95" font-family="Helvetica,sans-Serif" font-size="10.00">MessageBuffer.ResetWriter</text>
</a>
</g>
</g>
<!-- Node7&#45;&gt;Node54 -->
<g id="edge31" class="edge">
<title>Node7&#45;&gt;Node54</title>
<path fill="none" stroke="midnightblue" d="M592.87,-833.92C591.97,-756.07 589.74,-227.52 692,-116.5 693.25,-115.15 694.57,-113.88 695.95,-112.69"/>
<polygon fill="midnightblue" stroke="midnightblue" points="698.29,-115.32 704.49,-106.73 694.29,-109.58 698.29,-115.32"/>
</g>
<!-- Node55 -->
<g id="node29" class="node">
<title>Node55</title>
<g id="a_node29"><a xlink:href="../../db/d53/classRemoteClient_a18c7e508f7994d26c51c785021eee7dc.html#a18c7e508f7994d26c51c785021eee7dc" target="_top" xlink:title=" ">
<polygon fill="white" stroke="black" points="702.5,-1478 702.5,-1497 855.5,-1497 855.5,-1478 702.5,-1478"/>
<text text-anchor="middle" x="779" y="-1485" font-family="Helvetica,sans-Serif" font-size="10.00">RemoteClient.SectionRange</text>
</a>
</g>
</g>
<!-- Node7&#45;&gt;Node55 -->
<g id="edge32" class="edge">
<title>Node7&#45;&gt;Node55</title>
<path fill="none" stroke="midnightblue" d="M593.1,-853.07C594.02,-924.5 603.33,-1374.31 692,-1468.5 693.22,-1469.8 694.52,-1471.02 695.87,-1472.17"/>
<polygon fill="midnightblue" stroke="midnightblue" points="693.98,-1475.12 704.19,-1477.96 697.98,-1469.37 693.98,-1475.12"/>
</g>
<!-- Node56 -->
<g id="node30" class="node">
<title>Node56</title>
<g id="a_node30"><a xlink:href="../../db/d53/classRemoteClient_aa2252e1d8a932f84cc0e3afc4162f5ea.html#aa2252e1d8a932f84cc0e3afc4162f5ea" target="_top" xlink:title=" ">
<polygon fill="white" stroke="black" points="707,-0.5 707,-30.5 851,-30.5 851,-0.5 707,-0.5"/>
<text text-anchor="start" x="715" y="-18.5" font-family="Helvetica,sans-Serif" font-size="10.00">RemoteClient.ServerWrite</text>
<text text-anchor="middle" x="779" y="-7.5" font-family="Helvetica,sans-Serif" font-size="10.00">CallBack</text>
</a>
</g>
</g>
<!-- Node7&#45;&gt;Node56 -->
<g id="edge35" class="edge">
<title>Node7&#45;&gt;Node56</title>
<path fill="none" stroke="midnightblue" d="M592.85,-833.88C591.75,-752.19 587.74,-174.61 692,-45.5 694.87,-41.94 698.19,-38.81 701.82,-36.04"/>
<polygon fill="midnightblue" stroke="midnightblue" points="703.75,-38.96 710.21,-30.56 699.92,-33.1 703.75,-38.96"/>
</g>
<!-- Node57 -->
<g id="node31" class="node">
<title>Node57</title>
<g id="a_node31"><a xlink:href="../../d0/dae/classItem_aa1903fbd65a9a12fd6bd7e217ec00ae4.html#aa1903fbd65a9a12fd6bd7e217ec00ae4" target="_top" xlink:title=" ">
<polygon fill="white" stroke="black" points="729.5,-1440 729.5,-1459 828.5,-1459 828.5,-1440 729.5,-1440"/>
<text text-anchor="middle" x="779" y="-1447" font-family="Helvetica,sans-Serif" font-size="10.00">Item.SetDefaults</text>
</a>
</g>
</g>
<!-- Node7&#45;&gt;Node57 -->
<g id="edge36" class="edge">
<title>Node7&#45;&gt;Node57</title>
<path fill="none" stroke="midnightblue" d="M593.21,-853.37C594.91,-923.21 608.5,-1342.69 692,-1430.5 699.35,-1438.23 709.07,-1443.15 719.33,-1446.23"/>
<polygon fill="midnightblue" stroke="midnightblue" points="718.73,-1449.69 729.27,-1448.65 720.38,-1442.89 718.73,-1449.69"/>
</g>
<!-- Node37 -->
<g id="node32" class="node">
<title>Node37</title>
<g id="a_node32"><a xlink:href="../../d6/dba/classTile_a402ffa996ee74bf853b1538dfd39831c.html#a402ffa996ee74bf853b1538dfd39831c" target="_top" xlink:title=" ">
<polygon fill="white" stroke="black" points="747,-1402 747,-1421 811,-1421 811,-1402 747,-1402"/>
<text text-anchor="middle" x="779" y="-1409" font-family="Helvetica,sans-Serif" font-size="10.00">Tile.slope</text>
</a>
</g>
</g>
<!-- Node7&#45;&gt;Node37 -->
<g id="edge37" class="edge">
<title>Node7&#45;&gt;Node37</title>
<path fill="none" stroke="midnightblue" d="M593.33,-853.16C595.78,-919.77 613.45,-1310.83 692,-1392.5 703.48,-1404.43 720.63,-1409.67 736.61,-1411.74"/>
<polygon fill="midnightblue" stroke="midnightblue" points="736.58,-1415.26 746.86,-1412.68 737.22,-1408.28 736.58,-1415.26"/>
</g>
<!-- Node58 -->
<g id="node33" class="node">
<title>Node58</title>
<g id="a_node33"><a xlink:href="../../d2/d6c/classTreeTopsInfo_a7fc74f76714e48075b4b233e570294be.html#a7fc74f76714e48075b4b233e570294be" target="_top" xlink:title=" ">
<polygon fill="white" stroke="black" points="715,-1364 715,-1383 843,-1383 843,-1364 715,-1364"/>
<text text-anchor="middle" x="779" y="-1371" font-family="Helvetica,sans-Serif" font-size="10.00">TreeTopsInfo.SyncSend</text>
</a>
</g>
</g>
<!-- Node7&#45;&gt;Node58 -->
<g id="edge38" class="edge">
<title>Node7&#45;&gt;Node58</title>
<path fill="none" stroke="midnightblue" d="M593.47,-853.31C596.79,-917.65 618.54,-1279.1 692,-1354.5 695.93,-1358.54 700.52,-1361.81 705.49,-1364.45"/>
<polygon fill="midnightblue" stroke="midnightblue" points="704.22,-1367.71 714.78,-1368.54 707.04,-1361.31 704.22,-1367.71"/>
</g>
<!-- Node31 -->
<g id="node34" class="node">
<title>Node31</title>
<g id="a_node34"><a xlink:href="../../d6/dba/classTile_a34554428a8acc3d2525ecad6dadff885.html#a34554428a8acc3d2525ecad6dadff885" target="_top" xlink:title=" ">
<polygon fill="white" stroke="black" points="737.5,-1326 737.5,-1345 820.5,-1345 820.5,-1326 737.5,-1326"/>
<text text-anchor="middle" x="779" y="-1333" font-family="Helvetica,sans-Serif" font-size="10.00">Tile.wallColor</text>
</a>
</g>
</g>
<!-- Node7&#45;&gt;Node31 -->
<g id="edge39" class="edge">
<title>Node7&#45;&gt;Node31</title>
<path fill="none" stroke="midnightblue" d="M593.71,-853.22C598.33,-913.96 626.08,-1241.25 692,-1311.5 701.3,-1321.41 714.31,-1327.35 727.4,-1330.87"/>
<polygon fill="midnightblue" stroke="midnightblue" points="726.85,-1334.33 737.37,-1333.12 728.39,-1327.5 726.85,-1334.33"/>
</g>
<!-- Node38 -->
<g id="node35" class="node">
<title>Node38</title>
<g id="a_node35"><a xlink:href="../../d6/dba/classTile_a60adbd2001dd6bff09114f7a65b56eb8.html#a60adbd2001dd6bff09114f7a65b56eb8" target="_top" xlink:title=" ">
<polygon fill="white" stroke="black" points="749.5,-1250 749.5,-1269 808.5,-1269 808.5,-1250 749.5,-1250"/>
<text text-anchor="middle" x="779" y="-1257" font-family="Helvetica,sans-Serif" font-size="10.00">Tile.wire</text>
</a>
</g>
</g>
<!-- Node7&#45;&gt;Node38 -->
<g id="edge40" class="edge">
<title>Node7&#45;&gt;Node38</title>
<path fill="none" stroke="midnightblue" d="M594.04,-853.19C600.2,-908.47 633.46,-1183.52 692,-1240.5 704.43,-1252.6 722.73,-1257.71 739.26,-1259.64"/>
<polygon fill="midnightblue" stroke="midnightblue" points="739,-1263.13 749.26,-1260.47 739.58,-1256.16 739,-1263.13"/>
</g>
<!-- Node39 -->
<g id="node36" class="node">
<title>Node39</title>
<g id="a_node36"><a xlink:href="../../d6/dba/classTile_aad0aa67791a865603ae50081ff2c69b1.html#aad0aa67791a865603ae50081ff2c69b1" target="_top" xlink:title=" ">
<polygon fill="white" stroke="black" points="746.5,-1212 746.5,-1231 811.5,-1231 811.5,-1212 746.5,-1212"/>
<text text-anchor="middle" x="779" y="-1219" font-family="Helvetica,sans-Serif" font-size="10.00">Tile.wire2</text>
</a>
</g>
</g>
<!-- Node7&#45;&gt;Node39 -->
<g id="edge41" class="edge">
<title>Node7&#45;&gt;Node39</title>
<path fill="none" stroke="midnightblue" d="M594.33,-853.28C601.62,-905.56 638.44,-1151.63 692,-1202.5 703.82,-1213.73 720.72,-1218.9 736.41,-1221.11"/>
<polygon fill="midnightblue" stroke="midnightblue" points="736.17,-1224.6 746.48,-1222.17 736.9,-1217.64 736.17,-1224.6"/>
</g>
<!-- Node40 -->
<g id="node37" class="node">
<title>Node40</title>
<g id="a_node37"><a xlink:href="../../d6/dba/classTile_a01ced283c7a936cf51337817031f4e2f.html#a01ced283c7a936cf51337817031f4e2f" target="_top" xlink:title=" ">
<polygon fill="white" stroke="black" points="746.5,-1174 746.5,-1193 811.5,-1193 811.5,-1174 746.5,-1174"/>
<text text-anchor="middle" x="779" y="-1181" font-family="Helvetica,sans-Serif" font-size="10.00">Tile.wire3</text>
</a>
</g>
</g>
<!-- Node7&#45;&gt;Node40 -->
<g id="edge42" class="edge">
<title>Node7&#45;&gt;Node40</title>
<path fill="none" stroke="midnightblue" d="M592.75,-853.14C592.19,-896.6 595.93,-1075.98 692,-1164.5 703.9,-1175.46 720.66,-1180.61 736.22,-1182.88"/>
<polygon fill="midnightblue" stroke="midnightblue" points="735.89,-1186.36 746.21,-1183.98 736.66,-1179.4 735.89,-1186.36"/>
</g>
<!-- Node32 -->
<g id="node38" class="node">
<title>Node32</title>
<g id="a_node38"><a xlink:href="../../d6/dba/classTile_a0508314e2ec39c199c92edf77e31c28b.html#a0508314e2ec39c199c92edf77e31c28b" target="_top" xlink:title=" ">
<polygon fill="white" stroke="black" points="746.5,-1136 746.5,-1155 811.5,-1155 811.5,-1136 746.5,-1136"/>
<text text-anchor="middle" x="779" y="-1143" font-family="Helvetica,sans-Serif" font-size="10.00">Tile.wire4</text>
</a>
</g>
</g>
<!-- Node7&#45;&gt;Node32 -->
<g id="edge43" class="edge">
<title>Node7&#45;&gt;Node32</title>
<path fill="none" stroke="midnightblue" d="M593.2,-853.09C594.59,-893.31 605.57,-1049.8 692,-1126.5 704.1,-1137.24 720.89,-1142.35 736.43,-1144.64"/>
<polygon fill="midnightblue" stroke="midnightblue" points="736.06,-1148.13 746.4,-1145.78 736.86,-1141.17 736.06,-1148.13"/>
</g>
<!-- Node59 -->
<g id="node39" class="node">
<title>Node59</title>
<g id="a_node39"><a xlink:href="../../d0/d59/structTrackedProjectileReference_a725d0c61f0b474d8a5e857d015ec1015.html#a725d0c61f0b474d8a5e857d015ec1015" target="_top" xlink:title=" ">
<polygon fill="white" stroke="black" points="703,-1086.5 703,-1116.5 855,-1116.5 855,-1086.5 703,-1086.5"/>
<text text-anchor="start" x="711" y="-1104.5" font-family="Helvetica,sans-Serif" font-size="10.00">TrackedProjectileReference.</text>
<text text-anchor="middle" x="779" y="-1093.5" font-family="Helvetica,sans-Serif" font-size="10.00">Write</text>
</a>
</g>
</g>
<!-- Node7&#45;&gt;Node59 -->
<g id="edge44" class="edge">
<title>Node7&#45;&gt;Node59</title>
<path fill="none" stroke="midnightblue" d="M594.16,-853.17C598.94,-888.65 620.34,-1012.89 692,-1076.5 693.75,-1078.05 695.59,-1079.51 697.5,-1080.87"/>
<polygon fill="midnightblue" stroke="midnightblue" points="695.97,-1084.04 706.32,-1086.3 699.64,-1078.08 695.97,-1084.04"/>
</g>
<!-- Node41 -->
<g id="node40" class="node">
<title>Node41</title>
<g id="a_node40"><a xlink:href="../../de/d47/classTileEntity_a0dee4b6d34517c88d8bfa1591b06a475.html#a0dee4b6d34517c88d8bfa1591b06a475" target="_top" xlink:title=" ">
<polygon fill="white" stroke="red" points="733.5,-1048 733.5,-1067 824.5,-1067 824.5,-1048 733.5,-1048"/>
<text text-anchor="middle" x="779" y="-1055" font-family="Helvetica,sans-Serif" font-size="10.00">TileEntity.Write</text>
</a>
</g>
</g>
<!-- Node7&#45;&gt;Node41 -->
<g id="edge45" class="edge">
<title>Node7&#45;&gt;Node41</title>
<path fill="none" stroke="midnightblue" d="M594.84,-853.06C601.5,-884.94 627.47,-988.5 692,-1038.5 701.07,-1045.53 712.21,-1050.07 723.42,-1052.97"/>
<polygon fill="midnightblue" stroke="midnightblue" points="722.73,-1056.41 733.25,-1055.13 724.23,-1049.57 722.73,-1056.41"/>
</g>
<!-- Node60 -->
<g id="node41" class="node">
<title>Node60</title>
<g id="a_node41"><a xlink:href="../../dc/d81/classNetMessage_a99db4c34a0bc6ed088ab287798ef76c2.html#a99db4c34a0bc6ed088ab287798ef76c2" target="_top" xlink:title=" ">
<polygon fill="white" stroke="black" points="701,-998.5 701,-1028.5 857,-1028.5 857,-998.5 701,-998.5"/>
<text text-anchor="start" x="709" y="-1016.5" font-family="Helvetica,sans-Serif" font-size="10.00">NetMessage.WriteAccessory</text>
<text text-anchor="middle" x="779" y="-1005.5" font-family="Helvetica,sans-Serif" font-size="10.00">Visibility</text>
</a>
</g>
</g>
<!-- Node7&#45;&gt;Node60 -->
<g id="edge46" class="edge">
<title>Node7&#45;&gt;Node60</title>
<path fill="none" stroke="midnightblue" d="M596.88,-853.33C607.72,-879.52 640.92,-951.46 692,-988.5 694.64,-990.42 697.43,-992.19 700.32,-993.82"/>
<polygon fill="midnightblue" stroke="midnightblue" points="698.76,-996.96 709.27,-998.33 701.92,-990.71 698.76,-996.96"/>
</g>
<!-- Node61 -->
<g id="node42" class="node">
<title>Node61</title>
<g id="a_node42"><a xlink:href="../../d1/d46/classPlayerDeathReason_a9cb3e688fdc8ef090d13267b5371bece.html#a9cb3e688fdc8ef090d13267b5371bece" target="_top" xlink:title=" ">
<polygon fill="white" stroke="black" points="693.5,-960 693.5,-979 864.5,-979 864.5,-960 693.5,-960"/>
<text text-anchor="middle" x="779" y="-967" font-family="Helvetica,sans-Serif" font-size="10.00">PlayerDeathReason.WriteSelfTo</text>
</a>
</g>
</g>
<!-- Node7&#45;&gt;Node61 -->
<g id="edge47" class="edge">
<title>Node7&#45;&gt;Node61</title>
<path fill="none" stroke="midnightblue" d="M598.84,-853C612.37,-874.17 648.1,-925.31 692,-950.5 695.91,-952.74 700.06,-954.72 704.34,-956.47"/>
<polygon fill="midnightblue" stroke="midnightblue" points="703.3,-959.81 713.89,-959.93 705.68,-953.23 703.3,-959.81"/>
</g>
<!-- Node62 -->
<g id="node43" class="node">
<title>Node62</title>
<g id="a_node43"><a xlink:href="../../d9/d8f/structNetMessage_1_1NetSoundInfo_a4b2e61e150b062868171dafa4b656da9.html#a4b2e61e150b062868171dafa4b656da9" target="_top" xlink:title=" ">
<polygon fill="white" stroke="black" points="704.5,-910.5 704.5,-940.5 853.5,-940.5 853.5,-910.5 704.5,-910.5"/>
<text text-anchor="start" x="712.5" y="-928.5" font-family="Helvetica,sans-Serif" font-size="10.00">NetMessage.NetSoundInfo.</text>
<text text-anchor="middle" x="779" y="-917.5" font-family="Helvetica,sans-Serif" font-size="10.00">WriteSelfTo</text>
</a>
</g>
</g>
<!-- Node7&#45;&gt;Node62 -->
<g id="edge48" class="edge">
<title>Node7&#45;&gt;Node62</title>
<path fill="none" stroke="midnightblue" d="M607.19,-853.14C625.93,-865.5 660.25,-886.98 692,-900.5 697.5,-902.84 703.28,-905.04 709.15,-907.1"/>
<polygon fill="midnightblue" stroke="midnightblue" points="708.46,-910.56 719.05,-910.4 710.68,-903.92 708.46,-910.56"/>
</g>
<!-- Node51&#45;&gt;Node50 -->
<g id="edge29" class="edge">
<title>Node51&#45;&gt;Node50</title>
<path fill="none" stroke="midnightblue" d="M829.95,-163.98C841.87,-161.29 854.47,-158.1 866,-154.5 887.49,-147.79 910.96,-138.18 928.94,-130.31"/>
<polygon fill="midnightblue" stroke="midnightblue" points="930.6,-133.4 938.32,-126.14 927.76,-127 930.6,-133.4"/>
</g>
<!-- Node55&#45;&gt;Node3 -->
<g id="edge33" class="edge">
<title>Node55&#45;&gt;Node3</title>
<path fill="none" stroke="midnightblue" d="M793.49,-1497.05C810.49,-1509.13 840.58,-1530.64 866,-1549.5 891.21,-1568.2 919.87,-1590.2 938.63,-1604.69"/>
<polygon fill="midnightblue" stroke="midnightblue" points="936.7,-1607.62 946.75,-1610.97 940.98,-1602.09 936.7,-1607.62"/>
</g>
<!-- Node55&#45;&gt;Node4 -->
<g id="edge34" class="edge">
<title>Node55&#45;&gt;Node4</title>
<path fill="none" stroke="midnightblue" d="M855.65,-1495.53C867.61,-1496.8 879.9,-1498.1 891.65,-1499.35"/>
<polygon fill="midnightblue" stroke="midnightblue" points="891.5,-1502.85 901.81,-1500.43 892.24,-1495.89 891.5,-1502.85"/>
</g>
<!-- Node63&#45;&gt;Node3 -->
<g id="edge50" class="edge">
<title>Node63&#45;&gt;Node3</title>
<path fill="none" stroke="midnightblue" d="M430.83,-1516.15C473.05,-1539.75 587.59,-1599.92 692,-1620.5 758.97,-1633.7 837.24,-1631.71 891.65,-1627.64"/>
<polygon fill="midnightblue" stroke="midnightblue" points="892.18,-1631.11 901.87,-1626.84 891.62,-1624.14 892.18,-1631.11"/>
</g>
<!-- Node63&#45;&gt;Node4 -->
<g id="edge51" class="edge">
<title>Node63&#45;&gt;Node4</title>
<path fill="none" stroke="midnightblue" d="M483.02,-1506.5C588.22,-1506.5 787.41,-1506.5 891.62,-1506.5"/>
<polygon fill="midnightblue" stroke="midnightblue" points="891.71,-1510 901.71,-1506.5 891.71,-1503 891.71,-1510"/>
</g>
<!-- Node63&#45;&gt;Node7 -->
<g id="edge52" class="edge">
<title>Node63&#45;&gt;Node7</title>
<path fill="none" stroke="midnightblue" d="M417.16,-1496.63C428.1,-1462.29 465.22,-1344.71 492,-1246.5 531.89,-1100.21 573.1,-922.07 586.5,-863.33"/>
<polygon fill="midnightblue" stroke="midnightblue" points="590,-863.74 588.8,-853.22 583.17,-862.19 590,-863.74"/>
</g>
<!-- Node72&#45;&gt;Node7 -->
<g id="edge57" class="edge">
<title>Node72&#45;&gt;Node7</title>
<path fill="none" stroke="midnightblue" d="M269.14,-879.3C323.08,-887.03 414.8,-895.81 492,-881.5 516.93,-876.88 543.69,-866.23 563.1,-857.38"/>
<polygon fill="midnightblue" stroke="midnightblue" points="564.69,-860.5 572.26,-853.08 561.72,-854.16 564.69,-860.5"/>
</g>
<!-- Node73 -->
<g id="node47" class="node">
<title>Node73</title>
<g id="a_node47"><a xlink:href="../../d2/d4b/classPlayer_a932f3236a3ce41fc45981d0f6b8548e6.html#a932f3236a3ce41fc45981d0f6b8548e6" target="_top" xlink:title=" ">
<polygon fill="white" stroke="black" points="358.5,-815 358.5,-834 467.5,-834 467.5,-815 358.5,-815"/>
<text text-anchor="middle" x="413" y="-822" font-family="Helvetica,sans-Serif" font-size="10.00">Player.CanPullItem</text>
</a>
</g>
</g>
<!-- Node72&#45;&gt;Node73 -->
<g id="edge55" class="edge">
<title>Node72&#45;&gt;Node73</title>
<path fill="none" stroke="midnightblue" d="M260.49,-861.96C281.99,-856.51 309.5,-849.57 334,-843.5 343.34,-841.19 353.31,-838.74 362.9,-836.4"/>
<polygon fill="midnightblue" stroke="midnightblue" points="363.82,-839.77 372.7,-834.01 362.16,-832.97 363.82,-839.77"/>
</g>
<!-- Node74 -->
<g id="node48" class="node">
<title>Node74</title>
<g id="a_node48"><a xlink:href="../../d2/d4b/classPlayer_ae9bb31fee05c0320e20768ad211395db.html#ae9bb31fee05c0320e20768ad211395db" target="_top" xlink:title=" ">
<polygon fill="white" stroke="red" points="362.5,-853 362.5,-872 463.5,-872 463.5,-853 362.5,-853"/>
<text text-anchor="middle" x="413" y="-860" font-family="Helvetica,sans-Serif" font-size="10.00">Player.ItemSpace</text>
</a>
</g>
</g>
<!-- Node72&#45;&gt;Node74 -->
<g id="edge56" class="edge">
<title>Node72&#45;&gt;Node74</title>
<path fill="none" stroke="midnightblue" d="M269.23,-869.3C294.24,-868.11 325.4,-866.62 352.22,-865.35"/>
<polygon fill="midnightblue" stroke="midnightblue" points="352.45,-868.84 362.27,-864.87 352.12,-861.85 352.45,-868.84"/>
</g>
<!-- Node77 -->
<g id="node50" class="node">
<title>Node77</title>
<g id="a_node50"><a xlink:href="../../dc/d81/classNetMessage_ab54e331df8c2161bc5ac106dbce18398.html#ab54e331df8c2161bc5ac106dbce18398" target="_top" xlink:title=" ">
<polygon fill="white" stroke="black" points="346,-929 346,-948 480,-948 480,-929 346,-929"/>
<text text-anchor="middle" x="413" y="-936" font-family="Helvetica,sans-Serif" font-size="10.00">NetMessage.BootPlayer</text>
</a>
</g>
</g>
<!-- Node76&#45;&gt;Node77 -->
<g id="edge60" class="edge">
<title>Node76&#45;&gt;Node77</title>
<path fill="none" stroke="midnightblue" d="M296.61,-926.9C309.45,-928.19 322.84,-929.54 335.75,-930.83"/>
<polygon fill="midnightblue" stroke="midnightblue" points="335.68,-934.34 345.98,-931.86 336.38,-927.38 335.68,-934.34"/>
</g>
<!-- Node77&#45;&gt;Node7 -->
<g id="edge61" class="edge">
<title>Node77&#45;&gt;Node7</title>
<path fill="none" stroke="midnightblue" d="M453.84,-928.94C466.38,-925.22 480.07,-920.42 492,-914.5 522.24,-899.51 553.24,-875.62 572.31,-859.75"/>
<polygon fill="midnightblue" stroke="midnightblue" points="574.81,-862.22 580.19,-853.09 570.29,-856.88 574.81,-862.22"/>
</g>
</g>
</svg>
