<?xml version="1.0" encoding="UTF-8" standalone="no"?>
<!DOCTYPE svg PUBLIC "-//W3C//DTD SVG 1.1//EN"
 "http://www.w3.org/Graphics/SVG/1.1/DTD/svg11.dtd">
<!-- Generated by graphviz version 2.43.0 (0)
 -->
<!-- Title: Main.InputTextSign Pages: 1 -->
<!--zoomable 198 -->
<svg id="main" version="1.1" xmlns="http://www.w3.org/2000/svg" xmlns:xlink="http://www.w3.org/1999/xlink" xml:space="preserve" onload="init(evt)">
<style type="text/css"><![CDATA[
.edge:hover path { stroke: red; }
.edge:hover polygon { stroke: red; fill: red; }
]]></style>
<script type="text/javascript"><![CDATA[
var edges = document.getElementsByTagName('g');
if (edges && edges.length) {
  for (var i=0;i<edges.length;i++) {
    if (edges[i].id.substr(0,4)=='edge') {
      edges[i].setAttribute('class','edge');
    }
  }
}
]]></script>
        <defs>
                <circle id="rim" cx="0" cy="0" r="7"/>
                <circle id="rim2" cx="0" cy="0" r="3.5"/>
                <g id="zoomPlus">
                        <use xlink:href="#rim" fill="#404040">
                                <set attributeName="fill" to="#808080" begin="zoomplus.mouseover" end="zoomplus.mouseout"/>
                        </use>
                        <path d="M-4,0h8M0,-4v8" fill="none" stroke="white" stroke-width="1.5" pointer-events="none"/>
                </g>
                <g id="zoomMin">
                        <use xlink:href="#rim" fill="#404040">
                                <set attributeName="fill" to="#808080" begin="zoomminus.mouseover" end="zoomminus.mouseout"/>
                        </use>
                        <path d="M-4,0h8" fill="none" stroke="white" stroke-width="1.5" pointer-events="none"/>
                </g>
                <g id="dirArrow">
                        <path fill="none" stroke="white" stroke-width="1.5" d="M0,-3.0v7 M-2.5,-0.5L0,-3.0L2.5,-0.5"/>
                </g>
               <g id="resetDef">
                       <use xlink:href="#rim2" fill="#404040">
                               <set attributeName="fill" to="#808080" begin="reset.mouseover" end="reset.mouseout"/>
                       </use>
               </g>
        </defs>

<script type="text/javascript">
var viewWidth = 721;
var viewHeight = 198;
var sectionId = 'dynsection-0';
</script>
<script xlink:href="../../svgpan.js"/>
<svg id="graph" class="graph">
<g id="viewport">
<title>Main.InputTextSign</title>
<polygon fill="white" stroke="transparent" points="-4,4 -4,-193.5 717,-193.5 717,4 -4,4"/>
<!-- Node1 -->
<g id="node1" class="node">
<title>Node1</title>
<g id="a_node1"><a xlink:title=" ">
<polygon fill="#bfbfbf" stroke="black" points="0,-101.5 0,-120.5 110,-120.5 110,-101.5 0,-101.5"/>
<text text-anchor="middle" x="55" y="-108.5" font-family="Helvetica,sans-Serif" font-size="10.00">Main.InputTextSign</text>
</a>
</g>
</g>
<!-- Node2 -->
<g id="node2" class="node">
<title>Node2</title>
<g id="a_node2"><a xlink:href="../../d2/dbc/classIngameFancyUI_a10fbc55823ae205d4b3a57ae2d8da4d2.html#a10fbc55823ae205d4b3a57ae2d8da4d2" target="_top" xlink:title=" ">
<polygon fill="white" stroke="black" points="146,-159 146,-189 318,-189 318,-159 146,-159"/>
<text text-anchor="start" x="154" y="-177" font-family="Helvetica,sans-Serif" font-size="10.00">IngameFancyUI.CanShowVirtual</text>
<text text-anchor="middle" x="232" y="-166" font-family="Helvetica,sans-Serif" font-size="10.00">Keyboard</text>
</a>
</g>
</g>
<!-- Node1&#45;&gt;Node2 -->
<g id="edge1" class="edge">
<title>Node1&#45;&gt;Node2</title>
<path fill="none" stroke="midnightblue" d="M76.83,-120.59C94.9,-128.72 121.88,-140.39 146,-149 152.67,-151.38 159.7,-153.72 166.73,-155.94"/>
<polygon fill="midnightblue" stroke="midnightblue" points="165.7,-159.29 176.29,-158.91 167.78,-152.6 165.7,-159.29"/>
</g>
<!-- Node4 -->
<g id="node4" class="node">
<title>Node4</title>
<g id="a_node4"><a xlink:href="../../db/d4a/classMain_aef9b417bb4c96a975a5f7d8aa91444b1.html#aef9b417bb4c96a975a5f7d8aa91444b1" target="_top" xlink:title=" ">
<polygon fill="white" stroke="black" points="179,-120.5 179,-139.5 285,-139.5 285,-120.5 179,-120.5"/>
<text text-anchor="middle" x="232" y="-127.5" font-family="Helvetica,sans-Serif" font-size="10.00">Main.GetInputText</text>
</a>
</g>
</g>
<!-- Node1&#45;&gt;Node4 -->
<g id="edge3" class="edge">
<title>Node1&#45;&gt;Node4</title>
<path fill="none" stroke="midnightblue" d="M110.41,-116.91C128.87,-118.91 149.63,-121.17 168.65,-123.23"/>
<polygon fill="midnightblue" stroke="midnightblue" points="168.4,-126.72 178.72,-124.32 169.15,-119.76 168.4,-126.72"/>
</g>
<!-- Node9 -->
<g id="node9" class="node">
<title>Node9</title>
<g id="a_node9"><a xlink:href="../../db/d4a/classMain_a5fc8b4aca20b0589361a9f809dabc6b7.html#a5fc8b4aca20b0589361a9f809dabc6b7" target="_top" xlink:title=" ">
<polygon fill="white" stroke="black" points="184,-82.5 184,-101.5 280,-101.5 280,-82.5 184,-82.5"/>
<text text-anchor="middle" x="232" y="-89.5" font-family="Helvetica,sans-Serif" font-size="10.00">Main.HandleIME</text>
</a>
</g>
</g>
<!-- Node1&#45;&gt;Node9 -->
<g id="edge8" class="edge">
<title>Node1&#45;&gt;Node9</title>
<path fill="none" stroke="midnightblue" d="M110.41,-105.09C130.5,-102.91 153.31,-100.43 173.65,-98.23"/>
<polygon fill="midnightblue" stroke="midnightblue" points="174.15,-101.69 183.72,-97.13 173.4,-94.73 174.15,-101.69"/>
</g>
<!-- Node10 -->
<g id="node10" class="node">
<title>Node10</title>
<g id="a_node10"><a xlink:href="../../db/d4a/classMain_a5677717aed6fea07ccc8db505dd6e0d6.html#a5677717aed6fea07ccc8db505dd6e0d6" target="_top" xlink:title=" ">
<polygon fill="white" stroke="black" points="160.5,-44.5 160.5,-63.5 303.5,-63.5 303.5,-44.5 160.5,-44.5"/>
<text text-anchor="middle" x="232" y="-51.5" font-family="Helvetica,sans-Serif" font-size="10.00">Main.InputTextSignCancel</text>
</a>
</g>
</g>
<!-- Node1&#45;&gt;Node10 -->
<g id="edge9" class="edge">
<title>Node1&#45;&gt;Node10</title>
<path fill="none" stroke="midnightblue" d="M75.98,-101.34C93.96,-92.94 121.28,-80.91 146,-73 154.07,-70.42 162.69,-68.05 171.22,-65.94"/>
<polygon fill="midnightblue" stroke="midnightblue" points="172.24,-69.29 181.16,-63.57 170.62,-62.48 172.24,-69.29"/>
</g>
<!-- Node3 -->
<g id="node3" class="node">
<title>Node3</title>
<g id="a_node3"><a xlink:href="../../d0/db5/classUIVirtualKeyboard_a37814f83c7fd6515e442e970b9382621.html#a37814f83c7fd6515e442e970b9382621" target="_top" xlink:title=" ">
<polygon fill="white" stroke="black" points="363.5,-164.5 363.5,-183.5 527.5,-183.5 527.5,-164.5 363.5,-164.5"/>
<text text-anchor="middle" x="445.5" y="-171.5" font-family="Helvetica,sans-Serif" font-size="10.00">UIVirtualKeyboard.CanDisplay</text>
</a>
</g>
</g>
<!-- Node2&#45;&gt;Node3 -->
<g id="edge2" class="edge">
<title>Node2&#45;&gt;Node3</title>
<path fill="none" stroke="midnightblue" d="M318.11,-174C329.65,-174 341.53,-174 353.18,-174"/>
<polygon fill="midnightblue" stroke="midnightblue" points="353.34,-177.5 363.34,-174 353.34,-170.5 353.34,-177.5"/>
</g>
<!-- Node5 -->
<g id="node5" class="node">
<title>Node5</title>
<g id="a_node5"><a xlink:href="../../d7/dc6/classChatManager_a7914bd4ec2979a1ec1eae4c7255e7faf.html#a7914bd4ec2979a1ec1eae4c7255e7faf" target="_top" xlink:title=" ">
<polygon fill="white" stroke="black" points="368.5,-126.5 368.5,-145.5 522.5,-145.5 522.5,-126.5 368.5,-126.5"/>
<text text-anchor="middle" x="445.5" y="-133.5" font-family="Helvetica,sans-Serif" font-size="10.00">ChatManager.ParseMessage</text>
</a>
</g>
</g>
<!-- Node4&#45;&gt;Node5 -->
<g id="edge4" class="edge">
<title>Node4&#45;&gt;Node5</title>
<path fill="none" stroke="midnightblue" d="M285.01,-131.48C307.05,-132.1 333.33,-132.85 358.13,-133.55"/>
<polygon fill="midnightblue" stroke="midnightblue" points="358.19,-137.05 368.28,-133.84 358.39,-130.06 358.19,-137.05"/>
</g>
<!-- Node8 -->
<g id="node8" class="node">
<title>Node8</title>
<g id="a_node8"><a xlink:href="../../db/d4a/classMain_a5687099a37ed8d165ae238c15e35d2dd.html#a5687099a37ed8d165ae238c15e35d2dd" target="_top" xlink:title=" ">
<polygon fill="white" stroke="black" points="396,-88.5 396,-107.5 495,-107.5 495,-88.5 396,-88.5"/>
<text text-anchor="middle" x="445.5" y="-95.5" font-family="Helvetica,sans-Serif" font-size="10.00">Main.PasteTextIn</text>
</a>
</g>
</g>
<!-- Node4&#45;&gt;Node8 -->
<g id="edge7" class="edge">
<title>Node4&#45;&gt;Node8</title>
<path fill="none" stroke="midnightblue" d="M285.01,-122.13C315.58,-117.51 354.31,-111.65 385.95,-106.86"/>
<polygon fill="midnightblue" stroke="midnightblue" points="386.59,-110.3 395.96,-105.34 385.55,-103.38 386.59,-110.3"/>
</g>
<!-- Node6 -->
<g id="node6" class="node">
<title>Node6</title>
<g id="a_node6"><a xlink:href="../../d7/dc6/classChatManager_a4ff17f19ee2ad551af3ee7117dd6a749.html#a4ff17f19ee2ad551af3ee7117dd6a749" target="_top" xlink:title=" ">
<polygon fill="white" stroke="black" points="573,-145.5 573,-164.5 713,-164.5 713,-145.5 573,-145.5"/>
<text text-anchor="middle" x="643" y="-152.5" font-family="Helvetica,sans-Serif" font-size="10.00">ChatManager.GetHandler</text>
</a>
</g>
</g>
<!-- Node5&#45;&gt;Node6 -->
<g id="edge5" class="edge">
<title>Node5&#45;&gt;Node6</title>
<path fill="none" stroke="midnightblue" d="M522.65,-143.4C535.8,-144.68 549.51,-146.01 562.75,-147.3"/>
<polygon fill="midnightblue" stroke="midnightblue" points="562.47,-150.79 572.76,-148.27 563.15,-143.82 562.47,-150.79"/>
</g>
<!-- Node7 -->
<g id="node7" class="node">
<title>Node7</title>
<g id="a_node7"><a xlink:href="../../d6/d0b/interfaceITagHandler_ae7081b735b2192ef8ef88676df4be15d.html#ae7081b735b2192ef8ef88676df4be15d" target="_top" xlink:title=" ">
<polygon fill="white" stroke="black" points="591.5,-107.5 591.5,-126.5 694.5,-126.5 694.5,-107.5 591.5,-107.5"/>
<text text-anchor="middle" x="643" y="-114.5" font-family="Helvetica,sans-Serif" font-size="10.00">ITagHandler.Parse</text>
</a>
</g>
</g>
<!-- Node5&#45;&gt;Node7 -->
<g id="edge6" class="edge">
<title>Node5&#45;&gt;Node7</title>
<path fill="none" stroke="midnightblue" d="M522.65,-128.6C542.09,-126.71 562.74,-124.7 581.3,-122.9"/>
<polygon fill="midnightblue" stroke="midnightblue" points="581.76,-126.37 591.38,-121.92 581.09,-119.4 581.76,-126.37"/>
</g>
<!-- Node11 -->
<g id="node11" class="node">
<title>Node11</title>
<g id="a_node11"><a xlink:href="../../d0/db5/classUIVirtualKeyboard_a7b29aa414e74dfcabe1bd33270561664.html#a7b29aa414e74dfcabe1bd33270561664" target="_top" xlink:title=" ">
<polygon fill="white" stroke="black" points="354,-39 354,-69 537,-69 537,-39 354,-39"/>
<text text-anchor="start" x="362" y="-57" font-family="Helvetica,sans-Serif" font-size="10.00">UIVirtualKeyboard.CacheCanceled</text>
<text text-anchor="middle" x="445.5" y="-46" font-family="Helvetica,sans-Serif" font-size="10.00">Input</text>
</a>
</g>
</g>
<!-- Node10&#45;&gt;Node11 -->
<g id="edge10" class="edge">
<title>Node10&#45;&gt;Node11</title>
<path fill="none" stroke="midnightblue" d="M303.72,-54C316.54,-54 330.14,-54 343.63,-54"/>
<polygon fill="midnightblue" stroke="midnightblue" points="343.91,-57.5 353.91,-54 343.91,-50.5 343.91,-57.5"/>
</g>
<!-- Node12 -->
<g id="node12" class="node">
<title>Node12</title>
<g id="a_node12"><a xlink:href="../../d7/d66/classSoundEngine_a6c31f285c7bb4711799ee29c96bb2806.html#a6c31f285c7bb4711799ee29c96bb2806" target="_top" xlink:title=" ">
<polygon fill="white" stroke="black" points="378.5,-0.5 378.5,-19.5 512.5,-19.5 512.5,-0.5 378.5,-0.5"/>
<text text-anchor="middle" x="445.5" y="-7.5" font-family="Helvetica,sans-Serif" font-size="10.00">SoundEngine.PlaySound</text>
</a>
</g>
</g>
<!-- Node10&#45;&gt;Node12 -->
<g id="edge11" class="edge">
<title>Node10&#45;&gt;Node12</title>
<path fill="none" stroke="midnightblue" d="M278.89,-44.45C311.18,-37.74 354.57,-28.71 388.84,-21.58"/>
<polygon fill="midnightblue" stroke="midnightblue" points="389.62,-24.99 398.7,-19.53 388.19,-18.14 389.62,-24.99"/>
</g>
</g>
</svg>
        <g id="navigator" transform="translate(0 0)" fill="#404254">
                <rect fill="#f2f5e9" fill-opacity="0.5" stroke="#606060" stroke-width=".5" x="0" y="0" width="60" height="60"/>
                <use id="zoomplus" xlink:href="#zoomPlus" x="17" y="9" onmousedown="handleZoom(evt,'in')"/>
                <use id="zoomminus" xlink:href="#zoomMin" x="42" y="9" onmousedown="handleZoom(evt,'out')"/>
                <use id="reset" xlink:href="#resetDef" x="30" y="36" onmousedown="handleReset()"/>
                <g id="arrowUp" xlink:href="#dirArrow" transform="translate(30 24)" onmousedown="handlePan(0,-1)">
                  <use xlink:href="#rim" fill="#404040">
                        <set attributeName="fill" to="#808080" begin="arrowUp.mouseover" end="arrowUp.mouseout"/>
                  </use>
                  <path fill="none" stroke="white" stroke-width="1.5" d="M0,-3.0v7 M-2.5,-0.5L0,-3.0L2.5,-0.5"/>
                </g>
                <g id="arrowRight" xlink:href="#dirArrow" transform="rotate(90) translate(36 -43)" onmousedown="handlePan(1,0)">
                  <use xlink:href="#rim" fill="#404040">
                        <set attributeName="fill" to="#808080" begin="arrowRight.mouseover" end="arrowRight.mouseout"/>
                  </use>
                  <path fill="none" stroke="white" stroke-width="1.5" d="M0,-3.0v7 M-2.5,-0.5L0,-3.0L2.5,-0.5"/>
                </g>
                <g id="arrowDown" xlink:href="#dirArrow" transform="rotate(180) translate(-30 -48)" onmousedown="handlePan(0,1)">
                  <use xlink:href="#rim" fill="#404040">
                        <set attributeName="fill" to="#808080" begin="arrowDown.mouseover" end="arrowDown.mouseout"/>
                  </use>
                  <path fill="none" stroke="white" stroke-width="1.5" d="M0,-3.0v7 M-2.5,-0.5L0,-3.0L2.5,-0.5"/>
                </g>
                <g id="arrowLeft" xlink:href="#dirArrow" transform="rotate(270) translate(-36 17)" onmousedown="handlePan(-1,0)">
                  <use xlink:href="#rim" fill="#404040">
                        <set attributeName="fill" to="#808080" begin="arrowLeft.mouseover" end="arrowLeft.mouseout"/>
                  </use>
                  <path fill="none" stroke="white" stroke-width="1.5" d="M0,-3.0v7 M-2.5,-0.5L0,-3.0L2.5,-0.5"/>
                </g>
        </g>
        <svg viewBox="0 0 15 15" width="100%" height="30px" preserveAspectRatio="xMaxYMin meet">
         <g id="arrow_out" transform="scale(0.3 0.3)">
          <a xlink:href="classMain_a3f376f686941c1e03041558b22514dac_a3f376f686941c1e03041558b22514dac_cgraph_org.svg" target="_base">
           <rect id="button" ry="5" rx="5" y="6" x="6" height="38" width="38"
                fill="#f2f5e9" fill-opacity="0.5" stroke="#606060" stroke-width="1.0"/>
           <path id="arrow"
             d="M 11.500037,31.436501 C 11.940474,20.09759 22.043105,11.32322 32.158766,21.979434 L 37.068811,17.246167 C 37.068811,17.246167 37.088388,32 37.088388,32 L 22.160133,31.978069 C 22.160133,31.978069 26.997745,27.140456 26.997745,27.140456 C 18.528582,18.264221 13.291696,25.230495 11.500037,31.436501 z"
             style="fill:#404040;"/>
          </a>
         </g>
        </svg>
</svg>
