<?xml version="1.0" encoding="UTF-8" standalone="no"?>
<!DOCTYPE svg PUBLIC "-//W3C//DTD SVG 1.1//EN"
 "http://www.w3.org/Graphics/SVG/1.1/DTD/svg11.dtd">
<!-- Generated by graphviz version 2.43.0 (0)
 -->
<!-- Title: Main.GetBuilderAccsCountToShow Pages: 1 -->
<!--zoomable 88 -->
<svg id="main" version="1.1" xmlns="http://www.w3.org/2000/svg" xmlns:xlink="http://www.w3.org/1999/xlink" xml:space="preserve" onload="init(evt)">
<style type="text/css"><![CDATA[
.edge:hover path { stroke: red; }
.edge:hover polygon { stroke: red; fill: red; }
]]></style>
<script type="text/javascript"><![CDATA[
var edges = document.getElementsByTagName('g');
if (edges && edges.length) {
  for (var i=0;i<edges.length;i++) {
    if (edges[i].id.substr(0,4)=='edge') {
      edges[i].setAttribute('class','edge');
    }
  }
}
]]></script>
        <defs>
                <circle id="rim" cx="0" cy="0" r="7"/>
                <circle id="rim2" cx="0" cy="0" r="3.5"/>
                <g id="zoomPlus">
                        <use xlink:href="#rim" fill="#404040">
                                <set attributeName="fill" to="#808080" begin="zoomplus.mouseover" end="zoomplus.mouseout"/>
                        </use>
                        <path d="M-4,0h8M0,-4v8" fill="none" stroke="white" stroke-width="1.5" pointer-events="none"/>
                </g>
                <g id="zoomMin">
                        <use xlink:href="#rim" fill="#404040">
                                <set attributeName="fill" to="#808080" begin="zoomminus.mouseover" end="zoomminus.mouseout"/>
                        </use>
                        <path d="M-4,0h8" fill="none" stroke="white" stroke-width="1.5" pointer-events="none"/>
                </g>
                <g id="dirArrow">
                        <path fill="none" stroke="white" stroke-width="1.5" d="M0,-3.0v7 M-2.5,-0.5L0,-3.0L2.5,-0.5"/>
                </g>
               <g id="resetDef">
                       <use xlink:href="#rim2" fill="#404040">
                               <set attributeName="fill" to="#808080" begin="reset.mouseover" end="reset.mouseout"/>
                       </use>
               </g>
        </defs>

<script type="text/javascript">
var viewWidth = 1094;
var viewHeight = 88;
var sectionId = 'dynsection-0';
</script>
<script xlink:href="../../svgpan.js"/>
<svg id="graph" class="graph">
<g id="viewport">
<title>Main.GetBuilderAccsCountToShow</title>
<polygon fill="white" stroke="transparent" points="-4,4 -4,-84 1090,-84 1090,4 -4,4"/>
<!-- Node1 -->
<g id="node1" class="node">
<title>Node1</title>
<g id="a_node1"><a xlink:title=" ">
<polygon fill="#bfbfbf" stroke="black" points="940,-24.5 940,-54.5 1086,-54.5 1086,-24.5 940,-24.5"/>
<text text-anchor="start" x="948" y="-42.5" font-family="Helvetica,sans-Serif" font-size="10.00">Main.GetBuilderAccsCount</text>
<text text-anchor="middle" x="1013" y="-31.5" font-family="Helvetica,sans-Serif" font-size="10.00">ToShow</text>
</a>
</g>
</g>
<!-- Node2 -->
<g id="node2" class="node">
<title>Node2</title>
<g id="a_node2"><a xlink:href="../../db/d4a/classMain_aed86f4ae78619c6a13e3113522128ee6.html#aed86f4ae78619c6a13e3113522128ee6" target="_top" xlink:title=" ">
<polygon fill="white" stroke="black" points="746,-52 746,-71 904,-71 904,-52 746,-52"/>
<text text-anchor="middle" x="825" y="-59" font-family="Helvetica,sans-Serif" font-size="10.00">Main.DrawBuilderAccToggles</text>
</a>
</g>
</g>
<!-- Node1&#45;&gt;Node2 -->
<g id="edge1" class="edge">
<title>Node1&#45;&gt;Node2</title>
<path fill="none" stroke="midnightblue" d="M929.63,-49.24C921.21,-50.24 912.68,-51.25 904.3,-52.24"/>
<polygon fill="midnightblue" stroke="midnightblue" points="930.3,-52.69 939.82,-48.04 929.48,-45.74 930.3,-52.69"/>
</g>
<!-- Node8 -->
<g id="node8" class="node">
<title>Node8</title>
<g id="a_node8"><a xlink:href="../../db/d4a/classMain_ac23e03f1a3a425224bfed8bc8eae8397.html#ac23e03f1a3a425224bfed8bc8eae8397" target="_top" xlink:title=" ">
<polygon fill="white" stroke="black" points="767,-11 767,-30 883,-30 883,-11 767,-11"/>
<text text-anchor="middle" x="825" y="-18" font-family="Helvetica,sans-Serif" font-size="10.00">Main.DrawInventory</text>
</a>
</g>
</g>
<!-- Node1&#45;&gt;Node8 -->
<g id="edge8" class="edge">
<title>Node1&#45;&gt;Node8</title>
<path fill="none" stroke="midnightblue" d="M929.6,-31.08C913.92,-29.48 897.83,-27.84 883.15,-26.34"/>
<polygon fill="midnightblue" stroke="midnightblue" points="929.52,-34.59 939.82,-32.13 930.23,-27.63 929.52,-34.59"/>
</g>
<!-- Node3 -->
<g id="node3" class="node">
<title>Node3</title>
<g id="a_node3"><a xlink:href="../../db/d4a/classMain_adc3dd0c90a531415e6ac26da85d083e1.html#adc3dd0c90a531415e6ac26da85d083e1" target="_top" xlink:title=" ">
<polygon fill="white" stroke="black" points="582,-49.5 582,-79.5 710,-79.5 710,-49.5 582,-49.5"/>
<text text-anchor="start" x="590" y="-67.5" font-family="Helvetica,sans-Serif" font-size="10.00">Main.DrawInterface</text>
<text text-anchor="middle" x="646" y="-56.5" font-family="Helvetica,sans-Serif" font-size="10.00">_31_BuilderAccToggles</text>
</a>
</g>
</g>
<!-- Node2&#45;&gt;Node3 -->
<g id="edge2" class="edge">
<title>Node2&#45;&gt;Node3</title>
<path fill="none" stroke="midnightblue" d="M735.73,-63C727.09,-63.14 718.45,-63.29 710.13,-63.43"/>
<polygon fill="midnightblue" stroke="midnightblue" points="735.91,-66.49 745.85,-62.82 735.79,-59.49 735.91,-66.49"/>
</g>
<!-- Node4 -->
<g id="node4" class="node">
<title>Node4</title>
<g id="a_node4"><a xlink:href="../../db/d4a/classMain_aaf00fdabdb1a5736ff0443825f2d4324.html#aaf00fdabdb1a5736ff0443825f2d4324" target="_top" xlink:title=" ">
<polygon fill="white" stroke="black" points="373,-30 373,-49 546,-49 546,-30 373,-30"/>
<text text-anchor="middle" x="459.5" y="-37" font-family="Helvetica,sans-Serif" font-size="10.00">Main.SetupDrawInterfaceLayers</text>
</a>
</g>
</g>
<!-- Node3&#45;&gt;Node4 -->
<g id="edge3" class="edge">
<title>Node3&#45;&gt;Node4</title>
<path fill="none" stroke="midnightblue" d="M571.57,-54.55C558.07,-52.72 544.01,-50.82 530.61,-49"/>
<polygon fill="midnightblue" stroke="midnightblue" points="571.38,-58.06 581.76,-55.93 572.32,-51.12 571.38,-58.06"/>
</g>
<!-- Node5 -->
<g id="node5" class="node">
<title>Node5</title>
<g id="a_node5"><a xlink:href="../../db/d4a/classMain_a394be66e030c385131f8239af0bd3af0.html#a394be66e030c385131f8239af0bd3af0" target="_top" xlink:title=" ">
<polygon fill="white" stroke="black" points="224,-30 224,-49 337,-49 337,-30 224,-30"/>
<text text-anchor="middle" x="280.5" y="-37" font-family="Helvetica,sans-Serif" font-size="10.00">Main.DrawInterface</text>
</a>
</g>
</g>
<!-- Node4&#45;&gt;Node5 -->
<g id="edge4" class="edge">
<title>Node4&#45;&gt;Node5</title>
<path fill="none" stroke="midnightblue" d="M362.58,-39.5C353.85,-39.5 345.22,-39.5 337.03,-39.5"/>
<polygon fill="midnightblue" stroke="midnightblue" points="362.85,-43 372.85,-39.5 362.85,-36 362.85,-43"/>
</g>
<!-- Node6 -->
<g id="node6" class="node">
<title>Node6</title>
<g id="a_node6"><a xlink:href="../../db/d4a/classMain_a4ca48570ee8c9e54ed5371ecb4ab1877.html#a4ca48570ee8c9e54ed5371ecb4ab1877" target="_top" xlink:title=" ">
<polygon fill="white" stroke="black" points="105,-30 105,-49 188,-49 188,-30 105,-30"/>
<text text-anchor="middle" x="146.5" y="-37" font-family="Helvetica,sans-Serif" font-size="10.00">Main.DoDraw</text>
</a>
</g>
</g>
<!-- Node5&#45;&gt;Node6 -->
<g id="edge5" class="edge">
<title>Node5&#45;&gt;Node6</title>
<path fill="none" stroke="midnightblue" d="M213.72,-39.5C205.02,-39.5 196.3,-39.5 188.19,-39.5"/>
<polygon fill="midnightblue" stroke="midnightblue" points="213.9,-43 223.9,-39.5 213.9,-36 213.9,-43"/>
</g>
<!-- Node7 -->
<g id="node7" class="node">
<title>Node7</title>
<g id="a_node7"><a xlink:href="../../db/d4a/classMain_a9df405f7c9ce2e93e9af9bbf70231672.html#a9df405f7c9ce2e93e9af9bbf70231672" target="_top" xlink:title=" ">
<polygon fill="white" stroke="black" points="0,-30 0,-49 69,-49 69,-30 0,-30"/>
<text text-anchor="middle" x="34.5" y="-37" font-family="Helvetica,sans-Serif" font-size="10.00">Main.Draw</text>
</a>
</g>
</g>
<!-- Node6&#45;&gt;Node7 -->
<g id="edge6" class="edge">
<title>Node6&#45;&gt;Node7</title>
<path fill="none" stroke="midnightblue" d="M94.77,-32.77C86.08,-32.69 77.24,-32.85 69.14,-33.22"/>
<polygon fill="midnightblue" stroke="midnightblue" points="94.79,-36.27 104.85,-32.96 94.92,-29.27 94.79,-36.27"/>
</g>
<!-- Node7&#45;&gt;Node6 -->
<g id="edge7" class="edge">
<title>Node7&#45;&gt;Node6</title>
<path fill="none" stroke="midnightblue" d="M79.21,-46.12C87.67,-46.32 96.5,-46.29 104.85,-46.04"/>
<polygon fill="midnightblue" stroke="midnightblue" points="79.25,-42.62 69.14,-45.78 79.01,-49.62 79.25,-42.62"/>
</g>
<!-- Node9 -->
<g id="node9" class="node">
<title>Node9</title>
<g id="a_node9"><a xlink:href="../../db/d4a/classMain_ab9585a9a2fbc71c67b8ae3a91c5ef880.html#ab9585a9a2fbc71c67b8ae3a91c5ef880" target="_top" xlink:title=" ">
<polygon fill="white" stroke="black" points="589.5,-0.5 589.5,-30.5 702.5,-30.5 702.5,-0.5 589.5,-0.5"/>
<text text-anchor="start" x="597.5" y="-18.5" font-family="Helvetica,sans-Serif" font-size="10.00">Main.DrawInterface</text>
<text text-anchor="middle" x="646" y="-7.5" font-family="Helvetica,sans-Serif" font-size="10.00">_27_Inventory</text>
</a>
</g>
</g>
<!-- Node8&#45;&gt;Node9 -->
<g id="edge9" class="edge">
<title>Node8&#45;&gt;Node9</title>
<path fill="none" stroke="midnightblue" d="M756.27,-18.59C738.56,-18.09 719.67,-17.55 702.67,-17.07"/>
<polygon fill="midnightblue" stroke="midnightblue" points="756.44,-22.09 766.53,-18.88 756.64,-15.1 756.44,-22.09"/>
</g>
<!-- Node9&#45;&gt;Node4 -->
<g id="edge10" class="edge">
<title>Node9&#45;&gt;Node4</title>
<path fill="none" stroke="midnightblue" d="M579.35,-24.04C564.57,-25.96 548.8,-28.01 533.74,-29.97"/>
<polygon fill="midnightblue" stroke="midnightblue" points="579.93,-27.49 589.39,-22.73 579.03,-20.55 579.93,-27.49"/>
</g>
</g>
</svg>
        <g id="navigator" transform="translate(0 0)" fill="#404254">
                <rect fill="#f2f5e9" fill-opacity="0.5" stroke="#606060" stroke-width=".5" x="0" y="0" width="60" height="60"/>
                <use id="zoomplus" xlink:href="#zoomPlus" x="17" y="9" onmousedown="handleZoom(evt,'in')"/>
                <use id="zoomminus" xlink:href="#zoomMin" x="42" y="9" onmousedown="handleZoom(evt,'out')"/>
                <use id="reset" xlink:href="#resetDef" x="30" y="36" onmousedown="handleReset()"/>
                <g id="arrowUp" xlink:href="#dirArrow" transform="translate(30 24)" onmousedown="handlePan(0,-1)">
                  <use xlink:href="#rim" fill="#404040">
                        <set attributeName="fill" to="#808080" begin="arrowUp.mouseover" end="arrowUp.mouseout"/>
                  </use>
                  <path fill="none" stroke="white" stroke-width="1.5" d="M0,-3.0v7 M-2.5,-0.5L0,-3.0L2.5,-0.5"/>
                </g>
                <g id="arrowRight" xlink:href="#dirArrow" transform="rotate(90) translate(36 -43)" onmousedown="handlePan(1,0)">
                  <use xlink:href="#rim" fill="#404040">
                        <set attributeName="fill" to="#808080" begin="arrowRight.mouseover" end="arrowRight.mouseout"/>
                  </use>
                  <path fill="none" stroke="white" stroke-width="1.5" d="M0,-3.0v7 M-2.5,-0.5L0,-3.0L2.5,-0.5"/>
                </g>
                <g id="arrowDown" xlink:href="#dirArrow" transform="rotate(180) translate(-30 -48)" onmousedown="handlePan(0,1)">
                  <use xlink:href="#rim" fill="#404040">
                        <set attributeName="fill" to="#808080" begin="arrowDown.mouseover" end="arrowDown.mouseout"/>
                  </use>
                  <path fill="none" stroke="white" stroke-width="1.5" d="M0,-3.0v7 M-2.5,-0.5L0,-3.0L2.5,-0.5"/>
                </g>
                <g id="arrowLeft" xlink:href="#dirArrow" transform="rotate(270) translate(-36 17)" onmousedown="handlePan(-1,0)">
                  <use xlink:href="#rim" fill="#404040">
                        <set attributeName="fill" to="#808080" begin="arrowLeft.mouseover" end="arrowLeft.mouseout"/>
                  </use>
                  <path fill="none" stroke="white" stroke-width="1.5" d="M0,-3.0v7 M-2.5,-0.5L0,-3.0L2.5,-0.5"/>
                </g>
        </g>
        <svg viewBox="0 0 15 15" width="100%" height="30px" preserveAspectRatio="xMaxYMin meet">
         <g id="arrow_out" transform="scale(0.3 0.3)">
          <a xlink:href="classMain_a87517da6911028f94327e2609f216acb_a87517da6911028f94327e2609f216acb_icgraph_org.svg" target="_base">
           <rect id="button" ry="5" rx="5" y="6" x="6" height="38" width="38"
                fill="#f2f5e9" fill-opacity="0.5" stroke="#606060" stroke-width="1.0"/>
           <path id="arrow"
             d="M 11.500037,31.436501 C 11.940474,20.09759 22.043105,11.32322 32.158766,21.979434 L 37.068811,17.246167 C 37.068811,17.246167 37.088388,32 37.088388,32 L 22.160133,31.978069 C 22.160133,31.978069 26.997745,27.140456 26.997745,27.140456 C 18.528582,18.264221 13.291696,25.230495 11.500037,31.436501 z"
             style="fill:#404040;"/>
          </a>
         </g>
        </svg>
</svg>
