<?xml version="1.0" encoding="UTF-8" standalone="no"?>
<!DOCTYPE svg PUBLIC "-//W3C//DTD SVG 1.1//EN"
 "http://www.w3.org/Graphics/SVG/1.1/DTD/svg11.dtd">
<!-- Generated by graphviz version 2.43.0 (0)
 -->
<!-- Title: Main.IsTileSpelunkable Pages: 1 -->
<svg width="1873pt" height="362pt"
 viewBox="0.00 0.00 1873.00 362.00" xmlns="http://www.w3.org/2000/svg" xmlns:xlink="http://www.w3.org/1999/xlink">
<g id="graph0" class="graph" transform="scale(1 1) rotate(0) translate(4 358)">
<title>Main.IsTileSpelunkable</title>
<polygon fill="white" stroke="transparent" points="-4,4 -4,-358 1869,-358 1869,4 -4,4"/>
<!-- Node1 -->
<g id="node1" class="node">
<title>Node1</title>
<g id="a_node1"><a xlink:title=" ">
<polygon fill="#bfbfbf" stroke="black" points="1736,-241 1736,-260 1865,-260 1865,-241 1736,-241"/>
<text text-anchor="middle" x="1800.5" y="-248" font-family="Helvetica,sans-Serif" font-size="10.00">Main.IsTileSpelunkable</text>
</a>
</g>
</g>
<!-- Node2 -->
<g id="node2" class="node">
<title>Node2</title>
<g id="a_node2"><a xlink:href="../../db/de3/classSpelunkerProjectileHelper_aeb748da6ca90668be140f1341df6b07e.html#aeb748da6ca90668be140f1341df6b07e" target="_top" xlink:title=" ">
<polygon fill="white" stroke="black" points="1547,-290.5 1547,-320.5 1692,-320.5 1692,-290.5 1547,-290.5"/>
<text text-anchor="start" x="1555" y="-308.5" font-family="Helvetica,sans-Serif" font-size="10.00">SpelunkerProjectileHelper.</text>
<text text-anchor="middle" x="1619.5" y="-297.5" font-family="Helvetica,sans-Serif" font-size="10.00">CheckSpot</text>
</a>
</g>
</g>
<!-- Node1&#45;&gt;Node2 -->
<g id="edge1" class="edge">
<title>Node1&#45;&gt;Node2</title>
<path fill="none" stroke="midnightblue" d="M1758.6,-263.07C1732.12,-271.2 1697.49,-281.84 1669.53,-290.43"/>
<polygon fill="midnightblue" stroke="midnightblue" points="1759.79,-266.36 1768.32,-260.08 1757.73,-259.67 1759.79,-266.36"/>
</g>
<!-- Node5 -->
<g id="node5" class="node">
<title>Node5</title>
<g id="a_node5"><a xlink:href="../../d1/db9/classTileDrawing_a92ce07a58e0f7ba653d28299717f86b5.html#a92ce07a58e0f7ba653d28299717f86b5" target="_top" xlink:title=" ">
<polygon fill="white" stroke="black" points="1539,-93.5 1539,-123.5 1700,-123.5 1700,-93.5 1539,-93.5"/>
<text text-anchor="start" x="1547" y="-111.5" font-family="Helvetica,sans-Serif" font-size="10.00">TileDrawing.DrawAnimated</text>
<text text-anchor="middle" x="1619.5" y="-100.5" font-family="Helvetica,sans-Serif" font-size="10.00">Tile_AdjustForVisionChangers</text>
</a>
</g>
</g>
<!-- Node1&#45;&gt;Node5 -->
<g id="edge4" class="edge">
<title>Node1&#45;&gt;Node5</title>
<path fill="none" stroke="midnightblue" d="M1779.46,-234.6C1744.67,-207 1673.55,-150.59 1639.5,-123.57"/>
<polygon fill="midnightblue" stroke="midnightblue" points="1777.47,-237.49 1787.48,-240.96 1781.82,-232.01 1777.47,-237.49"/>
</g>
<!-- Node24 -->
<g id="node24" class="node">
<title>Node24</title>
<g id="a_node24"><a xlink:href="../../d1/db9/classTileDrawing_ac0aac20cd18078fa043ea8439782c4e7.html#ac0aac20cd18078fa043ea8439782c4e7" target="_top" xlink:title=" ">
<polygon fill="white" stroke="black" points="1543.5,-241 1543.5,-260 1695.5,-260 1695.5,-241 1543.5,-241"/>
<text text-anchor="middle" x="1619.5" y="-248" font-family="Helvetica,sans-Serif" font-size="10.00">TileDrawing.DrawSingleTile</text>
</a>
</g>
</g>
<!-- Node1&#45;&gt;Node24 -->
<g id="edge31" class="edge">
<title>Node1&#45;&gt;Node24</title>
<path fill="none" stroke="midnightblue" d="M1725.64,-250.5C1715.7,-250.5 1705.49,-250.5 1695.53,-250.5"/>
<polygon fill="midnightblue" stroke="midnightblue" points="1725.89,-254 1735.89,-250.5 1725.89,-247 1725.89,-254"/>
</g>
<!-- Node3 -->
<g id="node3" class="node">
<title>Node3</title>
<g id="a_node3"><a xlink:href="../../db/de3/classSpelunkerProjectileHelper_aad9f9937cab6bfc8094ef9d2dc377ccb.html#aad9f9937cab6bfc8094ef9d2dc377ccb" target="_top" xlink:title=" ">
<polygon fill="white" stroke="black" points="1357.5,-312.5 1357.5,-342.5 1502.5,-342.5 1502.5,-312.5 1357.5,-312.5"/>
<text text-anchor="start" x="1365.5" y="-330.5" font-family="Helvetica,sans-Serif" font-size="10.00">SpelunkerProjectileHelper.</text>
<text text-anchor="middle" x="1430" y="-319.5" font-family="Helvetica,sans-Serif" font-size="10.00">AddSpotToCheck</text>
</a>
</g>
</g>
<!-- Node2&#45;&gt;Node3 -->
<g id="edge2" class="edge">
<title>Node2&#45;&gt;Node3</title>
<path fill="none" stroke="midnightblue" d="M1536.88,-315.08C1525.48,-316.41 1513.84,-317.78 1502.65,-319.09"/>
<polygon fill="midnightblue" stroke="midnightblue" points="1537.29,-318.55 1546.81,-313.91 1536.47,-311.6 1537.29,-318.55"/>
</g>
<!-- Node4 -->
<g id="node4" class="node">
<title>Node4</title>
<g id="a_node4"><a xlink:href="../../d2/d4b/classPlayer_a0bd0802be9d2eb6a3f03f283132209a8.html#a0bd0802be9d2eb6a3f03f283132209a8" target="_top" xlink:title=" ">
<polygon fill="white" stroke="black" points="1157,-323.5 1157,-353.5 1309,-353.5 1309,-323.5 1157,-323.5"/>
<text text-anchor="start" x="1165" y="-341.5" font-family="Helvetica,sans-Serif" font-size="10.00">Player.ItemCheck_EmitHeld</text>
<text text-anchor="middle" x="1233" y="-330.5" font-family="Helvetica,sans-Serif" font-size="10.00">ItemLight</text>
</a>
</g>
</g>
<!-- Node3&#45;&gt;Node4 -->
<g id="edge3" class="edge">
<title>Node3&#45;&gt;Node4</title>
<path fill="none" stroke="midnightblue" d="M1347.41,-332.1C1334.71,-332.82 1321.64,-333.56 1309.1,-334.26"/>
<polygon fill="midnightblue" stroke="midnightblue" points="1347.71,-335.59 1357.5,-331.53 1347.32,-328.6 1347.71,-335.59"/>
</g>
<!-- Node6 -->
<g id="node6" class="node">
<title>Node6</title>
<g id="a_node6"><a xlink:href="../../d1/db9/classTileDrawing_af3a3ca0d51682564fc7773aec5cf3532.html#af3a3ca0d51682564fc7773aec5cf3532" target="_top" xlink:title=" ">
<polygon fill="white" stroke="black" points="1145,-137.5 1145,-167.5 1321,-167.5 1321,-137.5 1145,-137.5"/>
<text text-anchor="start" x="1153" y="-155.5" font-family="Helvetica,sans-Serif" font-size="10.00">TileDrawing.DrawAnyDirectional</text>
<text text-anchor="middle" x="1233" y="-144.5" font-family="Helvetica,sans-Serif" font-size="10.00">Grass</text>
</a>
</g>
</g>
<!-- Node5&#45;&gt;Node6 -->
<g id="edge5" class="edge">
<title>Node5&#45;&gt;Node6</title>
<path fill="none" stroke="midnightblue" d="M1528.63,-123.92C1519.98,-125.21 1511.33,-126.43 1503,-127.5 1442.41,-135.29 1373.84,-141.62 1321.09,-145.97"/>
<polygon fill="midnightblue" stroke="midnightblue" points="1529.41,-127.34 1538.77,-122.37 1528.35,-120.42 1529.41,-127.34"/>
</g>
<!-- Node19 -->
<g id="node19" class="node">
<title>Node19</title>
<g id="a_node19"><a xlink:href="../../d1/db9/classTileDrawing_a5c41fca3327511ff676e456107c82b2a.html#a5c41fca3327511ff676e456107c82b2a" target="_top" xlink:title=" ">
<polygon fill="white" stroke="black" points="1364.5,-99 1364.5,-118 1495.5,-118 1495.5,-99 1364.5,-99"/>
<text text-anchor="middle" x="1430" y="-106" font-family="Helvetica,sans-Serif" font-size="10.00">TileDrawing.DrawGrass</text>
</a>
</g>
</g>
<!-- Node5&#45;&gt;Node19 -->
<g id="edge23" class="edge">
<title>Node5&#45;&gt;Node19</title>
<path fill="none" stroke="midnightblue" d="M1528.75,-108.5C1517.56,-108.5 1506.3,-108.5 1495.6,-108.5"/>
<polygon fill="midnightblue" stroke="midnightblue" points="1528.98,-112 1538.98,-108.5 1528.98,-105 1528.98,-112"/>
</g>
<!-- Node20 -->
<g id="node20" class="node">
<title>Node20</title>
<g id="a_node20"><a xlink:href="../../d1/db9/classTileDrawing_a3de726f34cc33193ef349fc407c8ba80.html#a3de726f34cc33193ef349fc407c8ba80" target="_top" xlink:title=" ">
<polygon fill="white" stroke="black" points="1357,-49.5 1357,-79.5 1503,-79.5 1503,-49.5 1357,-49.5"/>
<text text-anchor="start" x="1365" y="-67.5" font-family="Helvetica,sans-Serif" font-size="10.00">TileDrawing.DrawMultiTile</text>
<text text-anchor="middle" x="1430" y="-56.5" font-family="Helvetica,sans-Serif" font-size="10.00">GrassInWind</text>
</a>
</g>
</g>
<!-- Node5&#45;&gt;Node20 -->
<g id="edge25" class="edge">
<title>Node5&#45;&gt;Node20</title>
<path fill="none" stroke="midnightblue" d="M1544.45,-91.12C1528.11,-87.29 1510.94,-83.26 1495.03,-79.53"/>
<polygon fill="midnightblue" stroke="midnightblue" points="1543.96,-94.6 1554.5,-93.48 1545.56,-87.79 1543.96,-94.6"/>
</g>
<!-- Node22 -->
<g id="node22" class="node">
<title>Node22</title>
<g id="a_node22"><a xlink:href="../../d1/db9/classTileDrawing_a2a1ae67a1abd9edf4dabaaf13f028a40.html#a2a1ae67a1abd9edf4dabaaf13f028a40" target="_top" xlink:title=" ">
<polygon fill="white" stroke="black" points="1357,-0.5 1357,-30.5 1503,-30.5 1503,-0.5 1357,-0.5"/>
<text text-anchor="start" x="1365" y="-18.5" font-family="Helvetica,sans-Serif" font-size="10.00">TileDrawing.DrawMultiTile</text>
<text text-anchor="middle" x="1430" y="-7.5" font-family="Helvetica,sans-Serif" font-size="10.00">VinesInWind</text>
</a>
</g>
</g>
<!-- Node5&#45;&gt;Node22 -->
<g id="edge28" class="edge">
<title>Node5&#45;&gt;Node22</title>
<path fill="none" stroke="midnightblue" d="M1587.76,-87.63C1565.05,-72.84 1532.99,-53.26 1503,-39.5 1495.93,-36.26 1488.3,-33.24 1480.74,-30.5"/>
<polygon fill="midnightblue" stroke="midnightblue" points="1586.01,-90.67 1596.29,-93.24 1589.86,-84.82 1586.01,-90.67"/>
</g>
<!-- Node7 -->
<g id="node7" class="node">
<title>Node7</title>
<g id="a_node7"><a xlink:href="../../d1/db9/classTileDrawing_a571485737560e3fb67c3ebe2d79e4290.html#a571485737560e3fb67c3ebe2d79e4290" target="_top" xlink:title=" ">
<polygon fill="white" stroke="black" points="961,-143 961,-162 1109,-162 1109,-143 961,-143"/>
<text text-anchor="middle" x="1035" y="-150" font-family="Helvetica,sans-Serif" font-size="10.00">TileDrawing.PostDrawTiles</text>
</a>
</g>
</g>
<!-- Node6&#45;&gt;Node7 -->
<g id="edge6" class="edge">
<title>Node6&#45;&gt;Node7</title>
<path fill="none" stroke="midnightblue" d="M1134.76,-152.5C1126.12,-152.5 1117.46,-152.5 1109.07,-152.5"/>
<polygon fill="midnightblue" stroke="midnightblue" points="1134.89,-156 1144.89,-152.5 1134.89,-149 1134.89,-156"/>
</g>
<!-- Node8 -->
<g id="node8" class="node">
<title>Node8</title>
<g id="a_node8"><a xlink:href="../../db/d4a/classMain_aef2eb69e78dc34f3f9f3b01cf5032b2e.html#aef2eb69e78dc34f3f9f3b01cf5032b2e" target="_top" xlink:title=" ">
<polygon fill="white" stroke="black" points="801,-176 801,-195 925,-195 925,-176 801,-176"/>
<text text-anchor="middle" x="863" y="-183" font-family="Helvetica,sans-Serif" font-size="10.00">Main.DrawTileEntities</text>
</a>
</g>
</g>
<!-- Node7&#45;&gt;Node8 -->
<g id="edge7" class="edge">
<title>Node7&#45;&gt;Node8</title>
<path fill="none" stroke="midnightblue" d="M974.82,-163.99C954.65,-167.9 932.34,-172.23 913.06,-175.98"/>
<polygon fill="midnightblue" stroke="midnightblue" points="975.68,-167.39 984.83,-162.04 974.35,-160.51 975.68,-167.39"/>
</g>
<!-- Node9 -->
<g id="node9" class="node">
<title>Node9</title>
<g id="a_node9"><a xlink:href="../../db/d4a/classMain_a49fbca8cbcc633f5953266eb58916377.html#a49fbca8cbcc633f5953266eb58916377" target="_top" xlink:title=" ">
<polygon fill="white" stroke="black" points="605,-252 605,-271 765,-271 765,-252 605,-252"/>
<text text-anchor="middle" x="685" y="-259" font-family="Helvetica,sans-Serif" font-size="10.00">Main.DoDraw_Tiles_NonSolid</text>
</a>
</g>
</g>
<!-- Node8&#45;&gt;Node9 -->
<g id="edge8" class="edge">
<title>Node8&#45;&gt;Node9</title>
<path fill="none" stroke="midnightblue" d="M838.11,-200.64C814.43,-215.44 779.63,-236.59 765,-242.5 755.71,-246.25 745.5,-249.38 735.59,-251.95"/>
<polygon fill="midnightblue" stroke="midnightblue" points="840.27,-203.41 846.88,-195.13 836.55,-197.48 840.27,-203.41"/>
</g>
<!-- Node13 -->
<g id="node13" class="node">
<title>Node13</title>
<g id="a_node13"><a xlink:href="../../db/d4a/classMain_a227a81a823ee604ece9750df1492bb4a.html#a227a81a823ee604ece9750df1492bb4a" target="_top" xlink:title=" ">
<polygon fill="white" stroke="black" points="615,-290 615,-309 755,-309 755,-290 615,-290"/>
<text text-anchor="middle" x="685" y="-297" font-family="Helvetica,sans-Serif" font-size="10.00">Main.DoDraw_Tiles_Solid</text>
</a>
</g>
</g>
<!-- Node8&#45;&gt;Node13 -->
<g id="edge13" class="edge">
<title>Node8&#45;&gt;Node13</title>
<path fill="none" stroke="midnightblue" d="M832.97,-199.98C822.15,-206.26 810.26,-214.29 801,-223.5 779.75,-244.62 789.36,-263.05 765,-280.5 759.61,-284.36 753.54,-287.45 747.21,-289.91"/>
<polygon fill="midnightblue" stroke="midnightblue" points="834.67,-203.04 841.72,-195.14 831.28,-196.92 834.67,-203.04"/>
</g>
<!-- Node14 -->
<g id="node14" class="node">
<title>Node14</title>
<g id="a_node14"><a xlink:href="../../db/d4a/classMain_a4974e62de1747c04f85a9412644e10a4.html#a4974e62de1747c04f85a9412644e10a4" target="_top" xlink:title=" ">
<polygon fill="white" stroke="black" points="631.5,-214 631.5,-233 738.5,-233 738.5,-214 631.5,-214"/>
<text text-anchor="middle" x="685" y="-221" font-family="Helvetica,sans-Serif" font-size="10.00">Main.DrawCapture</text>
</a>
</g>
</g>
<!-- Node8&#45;&gt;Node14 -->
<g id="edge15" class="edge">
<title>Node8&#45;&gt;Node14</title>
<path fill="none" stroke="midnightblue" d="M807.57,-197.25C782.68,-202.63 753.58,-208.91 730.09,-213.98"/>
<polygon fill="midnightblue" stroke="midnightblue" points="808.55,-200.62 817.59,-195.09 807.07,-193.78 808.55,-200.62"/>
</g>
<!-- Node17 -->
<g id="node17" class="node">
<title>Node17</title>
<g id="a_node17"><a xlink:href="../../db/d4a/classMain_a4214c8144461dc8addb68789bd972e27.html#a4214c8144461dc8addb68789bd972e27" target="_top" xlink:title=" ">
<polygon fill="white" stroke="black" points="634.5,-176 634.5,-195 735.5,-195 735.5,-176 634.5,-176"/>
<text text-anchor="middle" x="685" y="-183" font-family="Helvetica,sans-Serif" font-size="10.00">Main.RenderTiles</text>
</a>
</g>
</g>
<!-- Node8&#45;&gt;Node17 -->
<g id="edge19" class="edge">
<title>Node8&#45;&gt;Node17</title>
<path fill="none" stroke="midnightblue" d="M790.78,-185.5C772.27,-185.5 752.73,-185.5 735.61,-185.5"/>
<polygon fill="midnightblue" stroke="midnightblue" points="790.94,-189 800.94,-185.5 790.94,-182 790.94,-189"/>
</g>
<!-- Node18 -->
<g id="node18" class="node">
<title>Node18</title>
<g id="a_node18"><a xlink:href="../../db/d4a/classMain_a563e1396e992e40426e5bf9eae412c88.html#a563e1396e992e40426e5bf9eae412c88" target="_top" xlink:title=" ">
<polygon fill="white" stroke="black" points="631.5,-138 631.5,-157 738.5,-157 738.5,-138 631.5,-138"/>
<text text-anchor="middle" x="685" y="-145" font-family="Helvetica,sans-Serif" font-size="10.00">Main.RenderTiles2</text>
</a>
</g>
</g>
<!-- Node8&#45;&gt;Node18 -->
<g id="edge21" class="edge">
<title>Node8&#45;&gt;Node18</title>
<path fill="none" stroke="midnightblue" d="M807.57,-173.75C782.68,-168.37 753.58,-162.09 730.09,-157.02"/>
<polygon fill="midnightblue" stroke="midnightblue" points="807.07,-177.22 817.59,-175.91 808.55,-170.38 807.07,-177.22"/>
</g>
<!-- Node10 -->
<g id="node10" class="node">
<title>Node10</title>
<g id="a_node10"><a xlink:href="../../db/d4a/classMain_a7e2d2a0a6034fbb1714af4128681068d.html#a7e2d2a0a6034fbb1714af4128681068d" target="_top" xlink:title=" ">
<polygon fill="white" stroke="black" points="406,-252 406,-271 569,-271 569,-252 406,-252"/>
<text text-anchor="middle" x="487.5" y="-259" font-family="Helvetica,sans-Serif" font-size="10.00">Main.DoDraw_WallsTilesNPCs</text>
</a>
</g>
</g>
<!-- Node9&#45;&gt;Node10 -->
<g id="edge9" class="edge">
<title>Node9&#45;&gt;Node10</title>
<path fill="none" stroke="midnightblue" d="M594.5,-261.5C586.04,-261.5 577.49,-261.5 569.12,-261.5"/>
<polygon fill="midnightblue" stroke="midnightblue" points="594.76,-265 604.76,-261.5 594.76,-258 594.76,-265"/>
</g>
<!-- Node11 -->
<g id="node11" class="node">
<title>Node11</title>
<g id="a_node11"><a xlink:href="../../db/d4a/classMain_a4ca48570ee8c9e54ed5371ecb4ab1877.html#a4ca48570ee8c9e54ed5371ecb4ab1877" target="_top" xlink:title=" ">
<polygon fill="white" stroke="black" points="105,-195 105,-214 188,-214 188,-195 105,-195"/>
<text text-anchor="middle" x="146.5" y="-202" font-family="Helvetica,sans-Serif" font-size="10.00">Main.DoDraw</text>
</a>
</g>
</g>
<!-- Node10&#45;&gt;Node11 -->
<g id="edge10" class="edge">
<title>Node10&#45;&gt;Node11</title>
<path fill="none" stroke="midnightblue" d="M395.82,-263.53C344.57,-262.55 279.79,-257.74 224,-242.5 201.25,-236.29 177.25,-223.13 162.33,-214.06"/>
<polygon fill="midnightblue" stroke="midnightblue" points="395.84,-267.03 405.89,-263.67 395.94,-260.03 395.84,-267.03"/>
</g>
<!-- Node12 -->
<g id="node12" class="node">
<title>Node12</title>
<g id="a_node12"><a xlink:href="../../db/d4a/classMain_a9df405f7c9ce2e93e9af9bbf70231672.html#a9df405f7c9ce2e93e9af9bbf70231672" target="_top" xlink:title=" ">
<polygon fill="white" stroke="black" points="0,-195 0,-214 69,-214 69,-195 0,-195"/>
<text text-anchor="middle" x="34.5" y="-202" font-family="Helvetica,sans-Serif" font-size="10.00">Main.Draw</text>
</a>
</g>
</g>
<!-- Node11&#45;&gt;Node12 -->
<g id="edge11" class="edge">
<title>Node11&#45;&gt;Node12</title>
<path fill="none" stroke="midnightblue" d="M94.77,-197.77C86.08,-197.69 77.24,-197.85 69.14,-198.22"/>
<polygon fill="midnightblue" stroke="midnightblue" points="94.79,-201.27 104.85,-197.96 94.92,-194.27 94.79,-201.27"/>
</g>
<!-- Node12&#45;&gt;Node11 -->
<g id="edge12" class="edge">
<title>Node12&#45;&gt;Node11</title>
<path fill="none" stroke="midnightblue" d="M79.21,-211.12C87.67,-211.32 96.5,-211.29 104.85,-211.04"/>
<polygon fill="midnightblue" stroke="midnightblue" points="79.25,-207.62 69.14,-210.78 79.01,-214.62 79.25,-207.62"/>
</g>
<!-- Node13&#45;&gt;Node10 -->
<g id="edge14" class="edge">
<title>Node13&#45;&gt;Node10</title>
<path fill="none" stroke="midnightblue" d="M624.89,-288.01C597,-282.59 564.1,-276.19 537.6,-271.04"/>
<polygon fill="midnightblue" stroke="midnightblue" points="624.44,-291.49 634.92,-289.96 625.77,-284.62 624.44,-291.49"/>
</g>
<!-- Node15 -->
<g id="node15" class="node">
<title>Node15</title>
<g id="a_node15"><a xlink:href="../../d5/d00/classCaptureCamera_a8fa0ba1b174c03b961a56ccc4bcdd664.html#a8fa0ba1b174c03b961a56ccc4bcdd664" target="_top" xlink:title=" ">
<polygon fill="white" stroke="black" points="416.5,-214 416.5,-233 558.5,-233 558.5,-214 416.5,-214"/>
<text text-anchor="middle" x="487.5" y="-221" font-family="Helvetica,sans-Serif" font-size="10.00">CaptureCamera.DrawTick</text>
</a>
</g>
</g>
<!-- Node14&#45;&gt;Node15 -->
<g id="edge16" class="edge">
<title>Node14&#45;&gt;Node15</title>
<path fill="none" stroke="midnightblue" d="M621.13,-223.5C601.16,-223.5 578.96,-223.5 558.52,-223.5"/>
<polygon fill="midnightblue" stroke="midnightblue" points="621.35,-227 631.35,-223.5 621.35,-220 621.35,-227"/>
</g>
<!-- Node16 -->
<g id="node16" class="node">
<title>Node16</title>
<g id="a_node16"><a xlink:href="../../db/d87/classCaptureManager_ac215a4135ee09bd51a7e41253733fd22.html#ac215a4135ee09bd51a7e41253733fd22" target="_top" xlink:title=" ">
<polygon fill="white" stroke="black" points="224,-214 224,-233 370,-233 370,-214 224,-214"/>
<text text-anchor="middle" x="297" y="-221" font-family="Helvetica,sans-Serif" font-size="10.00">CaptureManager.DrawTick</text>
</a>
</g>
</g>
<!-- Node15&#45;&gt;Node16 -->
<g id="edge17" class="edge">
<title>Node15&#45;&gt;Node16</title>
<path fill="none" stroke="midnightblue" d="M406.31,-223.5C394.3,-223.5 381.97,-223.5 370.14,-223.5"/>
<polygon fill="midnightblue" stroke="midnightblue" points="406.31,-227 416.31,-223.5 406.31,-220 406.31,-227"/>
</g>
<!-- Node16&#45;&gt;Node11 -->
<g id="edge18" class="edge">
<title>Node16&#45;&gt;Node11</title>
<path fill="none" stroke="midnightblue" d="M213.87,-212.99C205,-211.86 196.28,-210.74 188.23,-209.71"/>
<polygon fill="midnightblue" stroke="midnightblue" points="213.56,-216.48 223.93,-214.28 214.45,-209.54 213.56,-216.48"/>
</g>
<!-- Node17&#45;&gt;Node11 -->
<g id="edge20" class="edge">
<title>Node17&#45;&gt;Node11</title>
<path fill="none" stroke="midnightblue" d="M624.23,-187.62C514.19,-191.51 282.23,-199.73 188.29,-203.06"/>
<polygon fill="midnightblue" stroke="midnightblue" points="624.62,-191.11 634.49,-187.25 624.37,-184.11 624.62,-191.11"/>
</g>
<!-- Node18&#45;&gt;Node11 -->
<g id="edge22" class="edge">
<title>Node18&#45;&gt;Node11</title>
<path fill="none" stroke="midnightblue" d="M621.3,-152.47C532.65,-159.77 365.65,-174.48 224,-192.5 212.4,-193.98 199.85,-195.84 188.33,-197.65"/>
<polygon fill="midnightblue" stroke="midnightblue" points="621.78,-155.94 631.46,-151.64 621.21,-148.97 621.78,-155.94"/>
</g>
<!-- Node19&#45;&gt;Node7 -->
<g id="edge24" class="edge">
<title>Node19&#45;&gt;Node7</title>
<path fill="none" stroke="midnightblue" d="M1354.34,-110.77C1296.87,-113.24 1215.61,-118.3 1145,-128.5 1120.84,-131.99 1094.05,-137.86 1073.08,-142.92"/>
<polygon fill="midnightblue" stroke="midnightblue" points="1354.57,-114.27 1364.42,-110.35 1354.29,-107.27 1354.57,-114.27"/>
</g>
<!-- Node21 -->
<g id="node21" class="node">
<title>Node21</title>
<g id="a_node21"><a xlink:href="../../d1/db9/classTileDrawing_a52f613d8bd8df0e0ace90306f4f29396.html#a52f613d8bd8df0e0ace90306f4f29396" target="_top" xlink:title=" ">
<polygon fill="white" stroke="black" points="1160,-49.5 1160,-79.5 1306,-79.5 1306,-49.5 1160,-49.5"/>
<text text-anchor="start" x="1168" y="-67.5" font-family="Helvetica,sans-Serif" font-size="10.00">TileDrawing.DrawMultiTile</text>
<text text-anchor="middle" x="1233" y="-56.5" font-family="Helvetica,sans-Serif" font-size="10.00">Grass</text>
</a>
</g>
</g>
<!-- Node20&#45;&gt;Node21 -->
<g id="edge26" class="edge">
<title>Node20&#45;&gt;Node21</title>
<path fill="none" stroke="midnightblue" d="M1346.71,-64.5C1333.21,-64.5 1319.31,-64.5 1306.09,-64.5"/>
<polygon fill="midnightblue" stroke="midnightblue" points="1346.94,-68 1356.94,-64.5 1346.94,-61 1346.94,-68"/>
</g>
<!-- Node21&#45;&gt;Node7 -->
<g id="edge27" class="edge">
<title>Node21&#45;&gt;Node7</title>
<path fill="none" stroke="midnightblue" d="M1174.61,-82.86C1164.63,-86.45 1154.44,-90.39 1145,-94.5 1111,-109.3 1073.17,-130.58 1052.22,-142.83"/>
<polygon fill="midnightblue" stroke="midnightblue" points="1175.81,-86.15 1184.07,-79.52 1173.48,-79.54 1175.81,-86.15"/>
</g>
<!-- Node23 -->
<g id="node23" class="node">
<title>Node23</title>
<g id="a_node23"><a xlink:href="../../d1/db9/classTileDrawing_a4a41162ee0e6c3684dc3431329432911.html#a4a41162ee0e6c3684dc3431329432911" target="_top" xlink:title=" ">
<polygon fill="white" stroke="black" points="1160,-0.5 1160,-30.5 1306,-30.5 1306,-0.5 1160,-0.5"/>
<text text-anchor="start" x="1168" y="-18.5" font-family="Helvetica,sans-Serif" font-size="10.00">TileDrawing.DrawMultiTile</text>
<text text-anchor="middle" x="1233" y="-7.5" font-family="Helvetica,sans-Serif" font-size="10.00">Vines</text>
</a>
</g>
</g>
<!-- Node22&#45;&gt;Node23 -->
<g id="edge29" class="edge">
<title>Node22&#45;&gt;Node23</title>
<path fill="none" stroke="midnightblue" d="M1346.71,-15.5C1333.21,-15.5 1319.31,-15.5 1306.09,-15.5"/>
<polygon fill="midnightblue" stroke="midnightblue" points="1346.94,-19 1356.94,-15.5 1346.94,-12 1346.94,-19"/>
</g>
<!-- Node23&#45;&gt;Node7 -->
<g id="edge30" class="edge">
<title>Node23&#45;&gt;Node7</title>
<path fill="none" stroke="midnightblue" d="M1154.32,-34.55C1151.11,-36.08 1147.99,-37.72 1145,-39.5 1097.9,-67.49 1057.57,-121.19 1042.41,-142.97"/>
<polygon fill="midnightblue" stroke="midnightblue" points="1155.78,-37.73 1163.57,-30.55 1153,-31.31 1155.78,-37.73"/>
</g>
<!-- Node25 -->
<g id="node25" class="node">
<title>Node25</title>
<g id="a_node25"><a xlink:href="../../d1/db9/classTileDrawing_a01dc0d84a570e822e96f8b282535fcc0.html#a01dc0d84a570e822e96f8b282535fcc0" target="_top" xlink:title=" ">
<polygon fill="white" stroke="black" points="1378,-241 1378,-260 1482,-260 1482,-241 1378,-241"/>
<text text-anchor="middle" x="1430" y="-248" font-family="Helvetica,sans-Serif" font-size="10.00">TileDrawing.Draw</text>
</a>
</g>
</g>
<!-- Node24&#45;&gt;Node25 -->
<g id="edge32" class="edge">
<title>Node24&#45;&gt;Node25</title>
<path fill="none" stroke="midnightblue" d="M1533.11,-250.5C1515.65,-250.5 1497.81,-250.5 1482.03,-250.5"/>
<polygon fill="midnightblue" stroke="midnightblue" points="1533.32,-254 1543.32,-250.5 1533.32,-247 1533.32,-254"/>
</g>
<!-- Node26 -->
<g id="node26" class="node">
<title>Node26</title>
<g id="a_node26"><a xlink:href="../../d1/db9/classTileDrawing_ab91dd3fdb80fc2503ee715a05cc2cfbb.html#ab91dd3fdb80fc2503ee715a05cc2cfbb" target="_top" xlink:title=" ">
<polygon fill="white" stroke="black" points="1163,-235.5 1163,-265.5 1303,-265.5 1303,-235.5 1163,-235.5"/>
<text text-anchor="start" x="1171" y="-253.5" font-family="Helvetica,sans-Serif" font-size="10.00">TileDrawing.DrawEntities</text>
<text text-anchor="middle" x="1233" y="-242.5" font-family="Helvetica,sans-Serif" font-size="10.00">_DisplayDolls</text>
</a>
</g>
</g>
<!-- Node25&#45;&gt;Node26 -->
<g id="edge33" class="edge">
<title>Node25&#45;&gt;Node26</title>
<path fill="none" stroke="midnightblue" d="M1367.63,-250.5C1347.17,-250.5 1324.24,-250.5 1303.22,-250.5"/>
<polygon fill="midnightblue" stroke="midnightblue" points="1367.77,-254 1377.77,-250.5 1367.77,-247 1367.77,-254"/>
</g>
<!-- Node27 -->
<g id="node27" class="node">
<title>Node27</title>
<g id="a_node27"><a xlink:href="../../d1/db9/classTileDrawing_af8e9762ef6c994c6651404fea9e7a596.html#af8e9762ef6c994c6651404fea9e7a596" target="_top" xlink:title=" ">
<polygon fill="white" stroke="black" points="1163,-186.5 1163,-216.5 1303,-216.5 1303,-186.5 1163,-186.5"/>
<text text-anchor="start" x="1171" y="-204.5" font-family="Helvetica,sans-Serif" font-size="10.00">TileDrawing.DrawEntities</text>
<text text-anchor="middle" x="1233" y="-193.5" font-family="Helvetica,sans-Serif" font-size="10.00">_HatRacks</text>
</a>
</g>
</g>
<!-- Node25&#45;&gt;Node27 -->
<g id="edge35" class="edge">
<title>Node25&#45;&gt;Node27</title>
<path fill="none" stroke="midnightblue" d="M1381.19,-238.49C1354.84,-231.86 1321.88,-223.58 1293.84,-216.54"/>
<polygon fill="midnightblue" stroke="midnightblue" points="1380.39,-241.89 1390.94,-240.94 1382.09,-235.1 1380.39,-241.89"/>
</g>
<!-- Node28 -->
<g id="node28" class="node">
<title>Node28</title>
<g id="a_node28"><a xlink:href="../../db/d4a/classMain_a8e20f716cb5a5a33b489394f028c6cb9.html#a8e20f716cb5a5a33b489394f028c6cb9" target="_top" xlink:title=" ">
<polygon fill="white" stroke="black" points="817,-233 817,-252 909,-252 909,-233 817,-233"/>
<text text-anchor="middle" x="863" y="-240" font-family="Helvetica,sans-Serif" font-size="10.00">Main.DrawTiles</text>
</a>
</g>
</g>
<!-- Node25&#45;&gt;Node28 -->
<g id="edge37" class="edge">
<title>Node25&#45;&gt;Node28</title>
<path fill="none" stroke="midnightblue" d="M1386.35,-262.73C1366.65,-267.77 1342.82,-273.01 1321,-275.5 1170.64,-292.68 991.37,-266.1 909.2,-251.31"/>
<polygon fill="midnightblue" stroke="midnightblue" points="1387.47,-266.06 1396.25,-260.13 1385.69,-259.29 1387.47,-266.06"/>
</g>
<!-- Node26&#45;&gt;Node7 -->
<g id="edge34" class="edge">
<title>Node26&#45;&gt;Node7</title>
<path fill="none" stroke="midnightblue" d="M1158.41,-232.07C1153.81,-230.34 1149.31,-228.49 1145,-226.5 1106.38,-208.66 1066.34,-177.68 1047.33,-162.07"/>
<polygon fill="midnightblue" stroke="midnightblue" points="1157.34,-235.4 1167.94,-235.43 1159.67,-228.8 1157.34,-235.4"/>
</g>
<!-- Node27&#45;&gt;Node7 -->
<g id="edge36" class="edge">
<title>Node27&#45;&gt;Node7</title>
<path fill="none" stroke="midnightblue" d="M1161.98,-184C1132.37,-176.59 1099.05,-168.26 1074.11,-162.03"/>
<polygon fill="midnightblue" stroke="midnightblue" points="1161.31,-187.44 1171.86,-186.47 1163.01,-180.64 1161.31,-187.44"/>
</g>
<!-- Node28&#45;&gt;Node9 -->
<g id="edge38" class="edge">
<title>Node28&#45;&gt;Node9</title>
<path fill="none" stroke="midnightblue" d="M806.46,-248.5C793.39,-249.91 779.21,-251.44 765.32,-252.94"/>
<polygon fill="midnightblue" stroke="midnightblue" points="807.11,-251.95 816.68,-247.39 806.36,-244.99 807.11,-251.95"/>
</g>
<!-- Node28&#45;&gt;Node13 -->
<g id="edge39" class="edge">
<title>Node28&#45;&gt;Node13</title>
<path fill="none" stroke="midnightblue" d="M830.69,-256.03C811.88,-263.84 787.33,-273.48 765,-280.5 753.97,-283.97 741.89,-287.17 730.58,-289.91"/>
<polygon fill="midnightblue" stroke="midnightblue" points="832.1,-259.23 839.97,-252.14 829.39,-252.78 832.1,-259.23"/>
</g>
<!-- Node28&#45;&gt;Node14 -->
<g id="edge40" class="edge">
<title>Node28&#45;&gt;Node14</title>
<path fill="none" stroke="midnightblue" d="M806.62,-236.52C784.9,-234.18 760.1,-231.5 738.66,-229.18"/>
<polygon fill="midnightblue" stroke="midnightblue" points="806.36,-240.01 816.68,-237.61 807.11,-233.05 806.36,-240.01"/>
</g>
<!-- Node28&#45;&gt;Node17 -->
<g id="edge41" class="edge">
<title>Node28&#45;&gt;Node17</title>
<path fill="none" stroke="midnightblue" d="M830.69,-228.97C811.88,-221.16 787.33,-211.52 765,-204.5 753.97,-201.03 741.89,-197.83 730.58,-195.09"/>
<polygon fill="midnightblue" stroke="midnightblue" points="829.39,-232.22 839.97,-232.86 832.1,-225.77 829.39,-232.22"/>
</g>
<!-- Node28&#45;&gt;Node18 -->
<g id="edge42" class="edge">
<title>Node28&#45;&gt;Node18</title>
<path fill="none" stroke="midnightblue" d="M835.29,-227.88C824.24,-221.32 811.57,-213.13 801,-204.5 782.98,-189.79 785.14,-178.14 765,-166.5 756.94,-161.84 747.79,-158.32 738.64,-155.66"/>
<polygon fill="midnightblue" stroke="midnightblue" points="833.7,-231 844.11,-232.97 837.2,-224.94 833.7,-231"/>
</g>
</g>
</svg>
