<?xml version="1.0" encoding="UTF-8" standalone="no"?>
<!DOCTYPE svg PUBLIC "-//W3C//DTD SVG 1.1//EN"
 "http://www.w3.org/Graphics/SVG/1.1/DTD/svg11.dtd">
<!-- Generated by graphviz version 2.43.0 (0)
 -->
<!-- Title: Main.MouseTextNoOverride Pages: 1 -->
<!--zoomable 830 -->
<svg id="main" version="1.1" xmlns="http://www.w3.org/2000/svg" xmlns:xlink="http://www.w3.org/1999/xlink" xml:space="preserve" onload="init(evt)">
<style type="text/css"><![CDATA[
.edge:hover path { stroke: red; }
.edge:hover polygon { stroke: red; fill: red; }
]]></style>
<script type="text/javascript"><![CDATA[
var edges = document.getElementsByTagName('g');
if (edges && edges.length) {
  for (var i=0;i<edges.length;i++) {
    if (edges[i].id.substr(0,4)=='edge') {
      edges[i].setAttribute('class','edge');
    }
  }
}
]]></script>
        <defs>
                <circle id="rim" cx="0" cy="0" r="7"/>
                <circle id="rim2" cx="0" cy="0" r="3.5"/>
                <g id="zoomPlus">
                        <use xlink:href="#rim" fill="#404040">
                                <set attributeName="fill" to="#808080" begin="zoomplus.mouseover" end="zoomplus.mouseout"/>
                        </use>
                        <path d="M-4,0h8M0,-4v8" fill="none" stroke="white" stroke-width="1.5" pointer-events="none"/>
                </g>
                <g id="zoomMin">
                        <use xlink:href="#rim" fill="#404040">
                                <set attributeName="fill" to="#808080" begin="zoomminus.mouseover" end="zoomminus.mouseout"/>
                        </use>
                        <path d="M-4,0h8" fill="none" stroke="white" stroke-width="1.5" pointer-events="none"/>
                </g>
                <g id="dirArrow">
                        <path fill="none" stroke="white" stroke-width="1.5" d="M0,-3.0v7 M-2.5,-0.5L0,-3.0L2.5,-0.5"/>
                </g>
               <g id="resetDef">
                       <use xlink:href="#rim2" fill="#404040">
                               <set attributeName="fill" to="#808080" begin="reset.mouseover" end="reset.mouseout"/>
                       </use>
               </g>
        </defs>

<script type="text/javascript">
var viewWidth = 1284;
var viewHeight = 830;
var sectionId = 'dynsection-1';
</script>
<script xlink:href="../../svgpan.js"/>
<svg id="graph" class="graph">
<g id="viewport">
<title>Main.MouseTextNoOverride</title>
<polygon fill="white" stroke="transparent" points="-4,4 -4,-825.5 1280,-825.5 1280,4 -4,4"/>
<!-- Node1 -->
<g id="node1" class="node">
<title>Node1</title>
<g id="a_node1"><a xlink:title=" ">
<polygon fill="#bfbfbf" stroke="black" points="1124,-404.5 1124,-423.5 1276,-423.5 1276,-404.5 1124,-404.5"/>
<text text-anchor="middle" x="1200" y="-411.5" font-family="Helvetica,sans-Serif" font-size="10.00">Main.MouseTextNoOverride</text>
</a>
</g>
</g>
<!-- Node2 -->
<g id="node2" class="node">
<title>Node2</title>
<g id="a_node2"><a xlink:href="../../da/d46/classCreativePowers_1_1APerPlayerTogglePower_ac0fd7ec323067a03ecde013b9b7a9db4.html#ac0fd7ec323067a03ecde013b9b7a9db4" target="_top" xlink:title=" ">
<polygon fill="white" stroke="black" points="903.5,-791 903.5,-821 1069.5,-821 1069.5,-791 903.5,-791"/>
<text text-anchor="start" x="911.5" y="-809" font-family="Helvetica,sans-Serif" font-size="10.00">CreativePowers.APerPlayer</text>
<text text-anchor="middle" x="986.5" y="-798" font-family="Helvetica,sans-Serif" font-size="10.00">TogglePower.button_OnUpdate</text>
</a>
</g>
</g>
<!-- Node1&#45;&gt;Node2 -->
<g id="edge1" class="edge">
<title>Node1&#45;&gt;Node2</title>
<path fill="none" stroke="midnightblue" d="M1199.29,-433.81C1199.07,-494.94 1189.72,-682.39 1088,-780 1082.67,-785.12 1076.47,-789.26 1069.81,-792.61"/>
<polygon fill="midnightblue" stroke="midnightblue" points="1202.79,-433.6 1199.25,-423.62 1195.79,-433.64 1202.79,-433.6"/>
</g>
<!-- Node4 -->
<g id="node4" class="node">
<title>Node4</title>
<g id="a_node4"><a xlink:href="../../dd/dd1/classCreativePowers_1_1ASharedButtonPower_af2e48acdbcdf3dd21efaf4dcccecc8ee.html#af2e48acdbcdf3dd21efaf4dcccecc8ee" target="_top" xlink:title=" ">
<polygon fill="white" stroke="black" points="902,-740 902,-770 1071,-770 1071,-740 902,-740"/>
<text text-anchor="start" x="910" y="-758" font-family="Helvetica,sans-Serif" font-size="10.00">CreativePowers.ASharedButton</text>
<text text-anchor="middle" x="986.5" y="-747" font-family="Helvetica,sans-Serif" font-size="10.00">Power.button_OnUpdate</text>
</a>
</g>
</g>
<!-- Node1&#45;&gt;Node4 -->
<g id="edge3" class="edge">
<title>Node1&#45;&gt;Node4</title>
<path fill="none" stroke="midnightblue" d="M1197.98,-433.63C1194.06,-488.32 1175.37,-643.79 1088,-726 1082.05,-731.6 1075.08,-736.13 1067.65,-739.79"/>
<polygon fill="midnightblue" stroke="midnightblue" points="1201.48,-433.75 1198.61,-423.55 1194.49,-433.31 1201.48,-433.75"/>
</g>
<!-- Node6 -->
<g id="node6" class="node">
<title>Node6</title>
<g id="a_node6"><a xlink:href="../../d8/d49/classCreativePowers_1_1ASharedTogglePower_a57b36235d7f3cd8d252f580fe378304c.html#a57b36235d7f3cd8d252f580fe378304c" target="_top" xlink:title=" ">
<polygon fill="white" stroke="black" points="902.5,-686 902.5,-716 1070.5,-716 1070.5,-686 902.5,-686"/>
<text text-anchor="start" x="910.5" y="-704" font-family="Helvetica,sans-Serif" font-size="10.00">CreativePowers.ASharedToggle</text>
<text text-anchor="middle" x="986.5" y="-693" font-family="Helvetica,sans-Serif" font-size="10.00">Power.button_OnUpdate</text>
</a>
</g>
</g>
<!-- Node1&#45;&gt;Node6 -->
<g id="edge5" class="edge">
<title>Node1&#45;&gt;Node6</title>
<path fill="none" stroke="midnightblue" d="M1195.9,-433.74C1187.46,-480.94 1159.71,-601.29 1088,-667 1079.17,-675.09 1068.35,-681.26 1057.11,-685.97"/>
<polygon fill="midnightblue" stroke="midnightblue" points="1199.39,-434.07 1197.61,-423.62 1192.49,-432.9 1199.39,-434.07"/>
</g>
<!-- Node8 -->
<g id="node8" class="node">
<title>Node8</title>
<g id="a_node8"><a xlink:href="../../d1/dd7/classCreativePowers_1_1APerPlayerSliderPower_a60d3a2766e7bba4911969acdb9ba1dbc.html#a60d3a2766e7bba4911969acdb9ba1dbc" target="_top" xlink:title=" ">
<polygon fill="white" stroke="black" points="910.5,-616.5 910.5,-657.5 1062.5,-657.5 1062.5,-616.5 910.5,-616.5"/>
<text text-anchor="start" x="918.5" y="-645.5" font-family="Helvetica,sans-Serif" font-size="10.00">CreativePowers.APerPlayer</text>
<text text-anchor="start" x="918.5" y="-634.5" font-family="Helvetica,sans-Serif" font-size="10.00">SliderPower.categoryButton</text>
<text text-anchor="middle" x="986.5" y="-623.5" font-family="Helvetica,sans-Serif" font-size="10.00">_OnUpdate</text>
</a>
</g>
</g>
<!-- Node1&#45;&gt;Node8 -->
<g id="edge7" class="edge">
<title>Node1&#45;&gt;Node8</title>
<path fill="none" stroke="midnightblue" d="M1191.16,-433.18C1175.98,-468.26 1139.47,-543.35 1088,-589 1075.41,-600.16 1059.78,-609.28 1044.61,-616.46"/>
<polygon fill="midnightblue" stroke="midnightblue" points="1194.52,-434.23 1195.18,-423.65 1188.07,-431.5 1194.52,-434.23"/>
</g>
<!-- Node10 -->
<g id="node10" class="node">
<title>Node10</title>
<g id="a_node10"><a xlink:href="../../d8/d18/classCreativePowers_1_1ASharedSliderPower_ad988cac4065201e7dbff2209dab16b55.html#ad988cac4065201e7dbff2209dab16b55" target="_top" xlink:title=" ">
<polygon fill="white" stroke="black" points="897.5,-549 897.5,-579 1075.5,-579 1075.5,-549 897.5,-549"/>
<text text-anchor="start" x="905.5" y="-567" font-family="Helvetica,sans-Serif" font-size="10.00">CreativePowers.ASharedSlider</text>
<text text-anchor="middle" x="986.5" y="-556" font-family="Helvetica,sans-Serif" font-size="10.00">Power.categoryButton_OnUpdate</text>
</a>
</g>
</g>
<!-- Node1&#45;&gt;Node10 -->
<g id="edge9" class="edge">
<title>Node1&#45;&gt;Node10</title>
<path fill="none" stroke="midnightblue" d="M1187.61,-432.22C1169.74,-459.25 1132.54,-509.72 1088,-537 1080.22,-541.77 1071.6,-545.7 1062.77,-548.95"/>
<polygon fill="midnightblue" stroke="midnightblue" points="1190.62,-434.01 1193.1,-423.71 1184.74,-430.21 1190.62,-434.01"/>
</g>
<!-- Node12 -->
<g id="node12" class="node">
<title>Node12</title>
<g id="a_node12"><a xlink:href="../../d7/d97/classUICreativePowersMenu_ae691aeddff132aa55efaf9ee2a009727.html#ae691aeddff132aa55efaf9ee2a009727" target="_top" xlink:title=" ">
<polygon fill="white" stroke="black" points="895.5,-497 895.5,-527 1077.5,-527 1077.5,-497 895.5,-497"/>
<text text-anchor="start" x="903.5" y="-515" font-family="Helvetica,sans-Serif" font-size="10.00">UICreativePowersMenu.Category</text>
<text text-anchor="middle" x="986.5" y="-504" font-family="Helvetica,sans-Serif" font-size="10.00">Button_OnUpdate_DisplayTooltips</text>
</a>
</g>
</g>
<!-- Node1&#45;&gt;Node12 -->
<g id="edge11" class="edge">
<title>Node1&#45;&gt;Node12</title>
<path fill="none" stroke="midnightblue" d="M1179.58,-430.08C1158.35,-446.88 1122.71,-472.87 1088,-488 1080.19,-491.41 1071.82,-494.37 1063.36,-496.95"/>
<polygon fill="midnightblue" stroke="midnightblue" points="1181.9,-432.71 1187.5,-423.71 1177.51,-427.25 1181.9,-432.71"/>
</g>
<!-- Node21 -->
<g id="node21" class="node">
<title>Node21</title>
<g id="a_node21"><a xlink:href="../../d9/d9a/classCreativePowers_1_1DifficultySliderPower_aab9dbdc638f8ba2bcd60d0117ae0009e.html#aab9dbdc638f8ba2bcd60d0117ae0009e" target="_top" xlink:title=" ">
<polygon fill="white" stroke="black" points="902,-448 902,-478 1071,-478 1071,-448 902,-448"/>
<text text-anchor="start" x="910" y="-466" font-family="Helvetica,sans-Serif" font-size="10.00">CreativePowers.Difficulty</text>
<text text-anchor="middle" x="986.5" y="-455" font-family="Helvetica,sans-Serif" font-size="10.00">SliderPower.MouseOver_Expert</text>
</a>
</g>
</g>
<!-- Node1&#45;&gt;Node21 -->
<g id="edge24" class="edge">
<title>Node1&#45;&gt;Node21</title>
<path fill="none" stroke="midnightblue" d="M1148.15,-425.78C1119.46,-432.43 1083.3,-440.81 1052.55,-447.93"/>
<polygon fill="midnightblue" stroke="midnightblue" points="1149.02,-429.17 1157.97,-423.51 1147.44,-422.35 1149.02,-429.17"/>
</g>
<!-- Node23 -->
<g id="node23" class="node">
<title>Node23</title>
<g id="a_node23"><a xlink:href="../../d9/d9a/classCreativePowers_1_1DifficultySliderPower_a0881b5a40041828714c79e9087036a0c.html#a0881b5a40041828714c79e9087036a0c" target="_top" xlink:title=" ">
<polygon fill="white" stroke="black" points="899.5,-399 899.5,-429 1073.5,-429 1073.5,-399 899.5,-399"/>
<text text-anchor="start" x="907.5" y="-417" font-family="Helvetica,sans-Serif" font-size="10.00">CreativePowers.Difficulty</text>
<text text-anchor="middle" x="986.5" y="-406" font-family="Helvetica,sans-Serif" font-size="10.00">SliderPower.MouseOver_Journey</text>
</a>
</g>
</g>
<!-- Node1&#45;&gt;Node23 -->
<g id="edge26" class="edge">
<title>Node1&#45;&gt;Node23</title>
<path fill="none" stroke="midnightblue" d="M1113.81,-414C1100.56,-414 1086.87,-414 1073.6,-414"/>
<polygon fill="midnightblue" stroke="midnightblue" points="1113.84,-417.5 1123.84,-414 1113.84,-410.5 1113.84,-417.5"/>
</g>
<!-- Node24 -->
<g id="node24" class="node">
<title>Node24</title>
<g id="a_node24"><a xlink:href="../../d9/d9a/classCreativePowers_1_1DifficultySliderPower_aab62912896132d9b4ad15098818798de.html#aab62912896132d9b4ad15098818798de" target="_top" xlink:title=" ">
<polygon fill="white" stroke="black" points="901,-350 901,-380 1072,-380 1072,-350 901,-350"/>
<text text-anchor="start" x="909" y="-368" font-family="Helvetica,sans-Serif" font-size="10.00">CreativePowers.Difficulty</text>
<text text-anchor="middle" x="986.5" y="-357" font-family="Helvetica,sans-Serif" font-size="10.00">SliderPower.MouseOver_Master</text>
</a>
</g>
</g>
<!-- Node1&#45;&gt;Node24 -->
<g id="edge28" class="edge">
<title>Node1&#45;&gt;Node24</title>
<path fill="none" stroke="midnightblue" d="M1148.15,-402.22C1119.46,-395.57 1083.3,-387.19 1052.55,-380.07"/>
<polygon fill="midnightblue" stroke="midnightblue" points="1147.44,-405.65 1157.97,-404.49 1149.02,-398.83 1147.44,-405.65"/>
</g>
<!-- Node25 -->
<g id="node25" class="node">
<title>Node25</title>
<g id="a_node25"><a xlink:href="../../d9/d9a/classCreativePowers_1_1DifficultySliderPower_a844b066492ff3799448e2572ef7dc90e.html#a844b066492ff3799448e2572ef7dc90e" target="_top" xlink:title=" ">
<polygon fill="white" stroke="black" points="900,-301 900,-331 1073,-331 1073,-301 900,-301"/>
<text text-anchor="start" x="908" y="-319" font-family="Helvetica,sans-Serif" font-size="10.00">CreativePowers.Difficulty</text>
<text text-anchor="middle" x="986.5" y="-308" font-family="Helvetica,sans-Serif" font-size="10.00">SliderPower.MouseOver_Normal</text>
</a>
</g>
</g>
<!-- Node1&#45;&gt;Node25 -->
<g id="edge30" class="edge">
<title>Node1&#45;&gt;Node25</title>
<path fill="none" stroke="midnightblue" d="M1179.52,-398.21C1158.23,-381.7 1122.54,-356.13 1088,-341 1079.27,-337.18 1069.85,-333.87 1060.39,-331.02"/>
<polygon fill="midnightblue" stroke="midnightblue" points="1177.44,-401.03 1187.46,-404.47 1181.77,-395.53 1177.44,-401.03"/>
</g>
<!-- Node26 -->
<g id="node26" class="node">
<title>Node26</title>
<g id="a_node26"><a xlink:href="../../d6/d04/classCreativePowers_1_1ModifyTimeRate_a77cbe5b677ae32503b8e64763329b144.html#a77cbe5b677ae32503b8e64763329b144" target="_top" xlink:title=" ">
<polygon fill="white" stroke="black" points="888,-180.5 888,-221.5 1085,-221.5 1085,-180.5 888,-180.5"/>
<text text-anchor="start" x="896" y="-209.5" font-family="Helvetica,sans-Serif" font-size="10.00">CreativePowers.ModifyTime</text>
<text text-anchor="start" x="896" y="-198.5" font-family="Helvetica,sans-Serif" font-size="10.00">Rate.UpdateSliderAndShowMultiplier</text>
<text text-anchor="middle" x="986.5" y="-187.5" font-family="Helvetica,sans-Serif" font-size="10.00">MouseOver</text>
</a>
</g>
</g>
<!-- Node1&#45;&gt;Node26 -->
<g id="edge32" class="edge">
<title>Node1&#45;&gt;Node26</title>
<path fill="none" stroke="midnightblue" d="M1192.63,-394.67C1179.33,-357.33 1145,-275.04 1088,-231 1083.39,-227.44 1078.36,-224.3 1073.09,-221.53"/>
<polygon fill="midnightblue" stroke="midnightblue" points="1189.39,-396.02 1195.96,-404.34 1196.01,-393.75 1189.39,-396.02"/>
</g>
<!-- Node28 -->
<g id="node28" class="node">
<title>Node28</title>
<g id="a_node28"><a xlink:href="../../d8/d8f/classCreativePowers_1_1ModifyWindDirectionAndStrength_a474f0bb3f1d3583762d1b0169dcf0263.html#a474f0bb3f1d3583762d1b0169dcf0263" target="_top" xlink:title=" ">
<polygon fill="white" stroke="black" points="893,-120.5 893,-161.5 1080,-161.5 1080,-120.5 893,-120.5"/>
<text text-anchor="start" x="901" y="-149.5" font-family="Helvetica,sans-Serif" font-size="10.00">CreativePowers.ModifyWind</text>
<text text-anchor="start" x="901" y="-138.5" font-family="Helvetica,sans-Serif" font-size="10.00">DirectionAndStrength.UpdateSlider</text>
<text text-anchor="middle" x="986.5" y="-127.5" font-family="Helvetica,sans-Serif" font-size="10.00">AndShowMultiplierMouseOver</text>
</a>
</g>
</g>
<!-- Node1&#45;&gt;Node28 -->
<g id="edge34" class="edge">
<title>Node1&#45;&gt;Node28</title>
<path fill="none" stroke="midnightblue" d="M1195.74,-394.55C1187.01,-348.61 1158.78,-232.61 1088,-171 1084.02,-167.53 1079.65,-164.47 1075.03,-161.75"/>
<polygon fill="midnightblue" stroke="midnightblue" points="1192.3,-395.2 1197.52,-404.42 1199.19,-393.96 1192.3,-395.2"/>
</g>
<!-- Node30 -->
<g id="node30" class="node">
<title>Node30</title>
<g id="a_node30"><a xlink:href="../../d3/da6/classCreativePowers_1_1ModifyRainPower_a6cc13ab87ce6aaa5c54b98b90afd05da.html#a6cc13ab87ce6aaa5c54b98b90afd05da" target="_top" xlink:title=" ">
<polygon fill="white" stroke="black" points="885,-60.5 885,-101.5 1088,-101.5 1088,-60.5 885,-60.5"/>
<text text-anchor="start" x="893" y="-89.5" font-family="Helvetica,sans-Serif" font-size="10.00">CreativePowers.ModifyRain</text>
<text text-anchor="start" x="893" y="-78.5" font-family="Helvetica,sans-Serif" font-size="10.00">Power.UpdateSliderAndShowMultiplier</text>
<text text-anchor="middle" x="986.5" y="-67.5" font-family="Helvetica,sans-Serif" font-size="10.00">MouseOver</text>
</a>
</g>
</g>
<!-- Node1&#45;&gt;Node30 -->
<g id="edge36" class="edge">
<title>Node1&#45;&gt;Node30</title>
<path fill="none" stroke="midnightblue" d="M1197.69,-394.27C1193.06,-340.62 1172.77,-190.75 1088,-111 1084.29,-107.51 1080.18,-104.42 1075.82,-101.69"/>
<polygon fill="midnightblue" stroke="midnightblue" points="1194.22,-394.76 1198.48,-404.46 1201.2,-394.22 1194.22,-394.76"/>
</g>
<!-- Node32 -->
<g id="node32" class="node">
<title>Node32</title>
<g id="a_node32"><a xlink:href="../../d4/dab/classCreativePowers_1_1SpawnRateSliderPerPlayerPower_a61db01af70b8fc9012171cb4bd24bf12.html#a61db01af70b8fc9012171cb4bd24bf12" target="_top" xlink:title=" ">
<polygon fill="white" stroke="black" points="893.5,-0.5 893.5,-41.5 1079.5,-41.5 1079.5,-0.5 893.5,-0.5"/>
<text text-anchor="start" x="901.5" y="-29.5" font-family="Helvetica,sans-Serif" font-size="10.00">CreativePowers.SpawnRate</text>
<text text-anchor="start" x="901.5" y="-18.5" font-family="Helvetica,sans-Serif" font-size="10.00">SliderPerPlayerPower.UpdateSlider</text>
<text text-anchor="middle" x="986.5" y="-7.5" font-family="Helvetica,sans-Serif" font-size="10.00">AndShowMultiplierMouseOver</text>
</a>
</g>
</g>
<!-- Node1&#45;&gt;Node32 -->
<g id="edge38" class="edge">
<title>Node1&#45;&gt;Node32</title>
<path fill="none" stroke="midnightblue" d="M1199.07,-394.11C1198.18,-333.52 1187.05,-149.39 1088,-51 1084.51,-47.54 1080.64,-44.47 1076.51,-41.75"/>
<polygon fill="midnightblue" stroke="midnightblue" points="1195.57,-394.25 1199.14,-404.23 1202.57,-394.21 1195.57,-394.25"/>
</g>
<!-- Node34 -->
<g id="node34" class="node">
<title>Node34</title>
<g id="a_node34"><a xlink:href="../../d9/d9a/classCreativePowers_1_1DifficultySliderPower_aabd1e9a1adfb29db55ea84e31162b643.html#aabd1e9a1adfb29db55ea84e31162b643" target="_top" xlink:title=" ">
<polygon fill="white" stroke="black" points="894.5,-240.5 894.5,-281.5 1078.5,-281.5 1078.5,-240.5 894.5,-240.5"/>
<text text-anchor="start" x="902.5" y="-269.5" font-family="Helvetica,sans-Serif" font-size="10.00">CreativePowers.Difficulty</text>
<text text-anchor="start" x="902.5" y="-258.5" font-family="Helvetica,sans-Serif" font-size="10.00">SliderPower.UpdateSliderColorAnd</text>
<text text-anchor="middle" x="986.5" y="-247.5" font-family="Helvetica,sans-Serif" font-size="10.00">ShowMultiplierMouseOver</text>
</a>
</g>
</g>
<!-- Node1&#45;&gt;Node34 -->
<g id="edge40" class="edge">
<title>Node1&#45;&gt;Node34</title>
<path fill="none" stroke="midnightblue" d="M1187.44,-396.14C1169.37,-369.59 1131.89,-319.88 1088,-292 1081.83,-288.08 1075.14,-284.64 1068.24,-281.6"/>
<polygon fill="midnightblue" stroke="midnightblue" points="1184.55,-398.1 1193.01,-404.49 1190.37,-394.22 1184.55,-398.1"/>
</g>
<!-- Node3 -->
<g id="node3" class="node">
<title>Node3</title>
<g id="a_node3"><a xlink:href="../../da/d46/classCreativePowers_1_1APerPlayerTogglePower_a458cb0ce8b53e906479a5456908a4cf8.html#a458cb0ce8b53e906479a5456908a4cf8" target="_top" xlink:title=" ">
<polygon fill="white" stroke="black" points="662.5,-791 662.5,-821 847.5,-821 847.5,-791 662.5,-791"/>
<text text-anchor="start" x="670.5" y="-809" font-family="Helvetica,sans-Serif" font-size="10.00">CreativePowers.APerPlayer</text>
<text text-anchor="middle" x="755" y="-798" font-family="Helvetica,sans-Serif" font-size="10.00">TogglePower.ProvidePowerButtons</text>
</a>
</g>
</g>
<!-- Node2&#45;&gt;Node3 -->
<g id="edge2" class="edge">
<title>Node2&#45;&gt;Node3</title>
<path fill="none" stroke="midnightblue" d="M893.05,-806C878.13,-806 862.67,-806 847.76,-806"/>
<polygon fill="midnightblue" stroke="midnightblue" points="893.29,-809.5 903.29,-806 893.29,-802.5 893.29,-809.5"/>
</g>
<!-- Node5 -->
<g id="node5" class="node">
<title>Node5</title>
<g id="a_node5"><a xlink:href="../../dd/dd1/classCreativePowers_1_1ASharedButtonPower_a55d3fcc6519761ef91a7cccedf988f83.html#a55d3fcc6519761ef91a7cccedf988f83" target="_top" xlink:title=" ">
<polygon fill="white" stroke="black" points="670.5,-742 670.5,-772 839.5,-772 839.5,-742 670.5,-742"/>
<text text-anchor="start" x="678.5" y="-760" font-family="Helvetica,sans-Serif" font-size="10.00">CreativePowers.ASharedButton</text>
<text text-anchor="middle" x="755" y="-749" font-family="Helvetica,sans-Serif" font-size="10.00">Power.ProvidePowerButtons</text>
</a>
</g>
</g>
<!-- Node4&#45;&gt;Node5 -->
<g id="edge4" class="edge">
<title>Node4&#45;&gt;Node5</title>
<path fill="none" stroke="midnightblue" d="M891.93,-755.82C874.68,-755.97 856.77,-756.12 839.83,-756.27"/>
<polygon fill="midnightblue" stroke="midnightblue" points="892.03,-759.31 902,-755.73 891.97,-752.32 892.03,-759.31"/>
</g>
<!-- Node7 -->
<g id="node7" class="node">
<title>Node7</title>
<g id="a_node7"><a xlink:href="../../d8/d49/classCreativePowers_1_1ASharedTogglePower_a28ea273fb1f67b16fa6b7001fc4868a2.html#a28ea273fb1f67b16fa6b7001fc4868a2" target="_top" xlink:title=" ">
<polygon fill="white" stroke="black" points="671,-693 671,-723 839,-723 839,-693 671,-693"/>
<text text-anchor="start" x="679" y="-711" font-family="Helvetica,sans-Serif" font-size="10.00">CreativePowers.ASharedToggle</text>
<text text-anchor="middle" x="755" y="-700" font-family="Helvetica,sans-Serif" font-size="10.00">Power.ProvidePowerButtons</text>
</a>
</g>
</g>
<!-- Node6&#45;&gt;Node7 -->
<g id="edge6" class="edge">
<title>Node6&#45;&gt;Node7</title>
<path fill="none" stroke="midnightblue" d="M892.11,-703.85C874.62,-704.38 856.44,-704.94 839.28,-705.46"/>
<polygon fill="midnightblue" stroke="midnightblue" points="892.43,-707.34 902.32,-703.54 892.22,-700.34 892.43,-707.34"/>
</g>
<!-- Node9 -->
<g id="node9" class="node">
<title>Node9</title>
<g id="a_node9"><a xlink:href="../../d1/dd7/classCreativePowers_1_1APerPlayerSliderPower_afd6d368182f1e2213485828c6f0fa40a.html#afd6d368182f1e2213485828c6f0fa40a" target="_top" xlink:title=" ">
<polygon fill="white" stroke="black" points="676,-644 676,-674 834,-674 834,-644 676,-644"/>
<text text-anchor="start" x="684" y="-662" font-family="Helvetica,sans-Serif" font-size="10.00">CreativePowers.APerPlayer</text>
<text text-anchor="middle" x="755" y="-651" font-family="Helvetica,sans-Serif" font-size="10.00">SliderPower.GetOptionButton</text>
</a>
</g>
</g>
<!-- Node8&#45;&gt;Node9 -->
<g id="edge8" class="edge">
<title>Node8&#45;&gt;Node9</title>
<path fill="none" stroke="midnightblue" d="M900.19,-645.18C878.52,-647.25 855.36,-649.48 834.07,-651.52"/>
<polygon fill="midnightblue" stroke="midnightblue" points="900.73,-648.64 910.35,-644.2 900.06,-641.67 900.73,-648.64"/>
</g>
<!-- Node11 -->
<g id="node11" class="node">
<title>Node11</title>
<g id="a_node11"><a xlink:href="../../d8/d18/classCreativePowers_1_1ASharedSliderPower_a2203214d2f2d04830ffd1374b43d144b.html#a2203214d2f2d04830ffd1374b43d144b" target="_top" xlink:title=" ">
<polygon fill="white" stroke="black" points="673,-595 673,-625 837,-625 837,-595 673,-595"/>
<text text-anchor="start" x="681" y="-613" font-family="Helvetica,sans-Serif" font-size="10.00">CreativePowers.ASharedSlider</text>
<text text-anchor="middle" x="755" y="-602" font-family="Helvetica,sans-Serif" font-size="10.00">Power.GetOptionButton</text>
</a>
</g>
</g>
<!-- Node10&#45;&gt;Node11 -->
<g id="edge10" class="edge">
<title>Node10&#45;&gt;Node11</title>
<path fill="none" stroke="midnightblue" d="M900.36,-581.07C877.57,-585.63 853.11,-590.53 830.92,-594.98"/>
<polygon fill="midnightblue" stroke="midnightblue" points="901.24,-584.46 910.35,-579.06 899.86,-577.6 901.24,-584.46"/>
</g>
<!-- Node13 -->
<g id="node13" class="node">
<title>Node13</title>
<g id="a_node13"><a xlink:href="../../d7/d97/classUICreativePowersMenu_ab7d4b8b048ab2f4d195440bb4324c4ab.html#ab7d4b8b048ab2f4d195440bb4324c4ab" target="_top" xlink:title=" ">
<polygon fill="white" stroke="black" points="674.5,-546 674.5,-576 835.5,-576 835.5,-546 674.5,-546"/>
<text text-anchor="start" x="682.5" y="-564" font-family="Helvetica,sans-Serif" font-size="10.00">UICreativePowersMenu.items</text>
<text text-anchor="middle" x="755" y="-553" font-family="Helvetica,sans-Serif" font-size="10.00">WindowButton_OnUpdate</text>
</a>
</g>
</g>
<!-- Node12&#45;&gt;Node13 -->
<g id="edge12" class="edge">
<title>Node12&#45;&gt;Node13</title>
<path fill="none" stroke="midnightblue" d="M905.01,-529.19C879.35,-534.66 851.17,-540.68 826.28,-545.99"/>
<polygon fill="midnightblue" stroke="midnightblue" points="906.03,-532.55 915.08,-527.03 904.57,-525.7 906.03,-532.55"/>
</g>
<!-- Node17 -->
<g id="node17" class="node">
<title>Node17</title>
<g id="a_node17"><a xlink:href="../../d7/d97/classUICreativePowersMenu_a034bc7fe3fadb58b2903c5c76511ac5f.html#a034bc7fe3fadb58b2903c5c76511ac5f" target="_top" xlink:title=" ">
<polygon fill="white" stroke="black" points="667,-497 667,-527 843,-527 843,-497 667,-497"/>
<text text-anchor="start" x="675" y="-515" font-family="Helvetica,sans-Serif" font-size="10.00">UICreativePowersMenu.personal</text>
<text text-anchor="middle" x="755" y="-504" font-family="Helvetica,sans-Serif" font-size="10.00">CategoryButton_OnUpdate</text>
</a>
</g>
</g>
<!-- Node12&#45;&gt;Node17 -->
<g id="edge16" class="edge">
<title>Node12&#45;&gt;Node17</title>
<path fill="none" stroke="midnightblue" d="M885.3,-512C871.26,-512 856.93,-512 843.16,-512"/>
<polygon fill="midnightblue" stroke="midnightblue" points="885.45,-515.5 895.45,-512 885.45,-508.5 885.45,-515.5"/>
</g>
<!-- Node18 -->
<g id="node18" class="node">
<title>Node18</title>
<g id="a_node18"><a xlink:href="../../d7/d97/classUICreativePowersMenu_a7c3531e5507a15038971e7c71f7485d7.html#a7c3531e5507a15038971e7c71f7485d7" target="_top" xlink:title=" ">
<polygon fill="white" stroke="black" points="667,-448 667,-478 843,-478 843,-448 667,-448"/>
<text text-anchor="start" x="675" y="-466" font-family="Helvetica,sans-Serif" font-size="10.00">UICreativePowersMenu.research</text>
<text text-anchor="middle" x="755" y="-455" font-family="Helvetica,sans-Serif" font-size="10.00">WindowButton_OnUpdate</text>
</a>
</g>
</g>
<!-- Node12&#45;&gt;Node18 -->
<g id="edge18" class="edge">
<title>Node12&#45;&gt;Node18</title>
<path fill="none" stroke="midnightblue" d="M905.01,-494.81C879.35,-489.34 851.17,-483.32 826.28,-478.01"/>
<polygon fill="midnightblue" stroke="midnightblue" points="904.57,-498.3 915.08,-496.97 906.03,-491.45 904.57,-498.3"/>
</g>
<!-- Node19 -->
<g id="node19" class="node">
<title>Node19</title>
<g id="a_node19"><a xlink:href="../../d7/d97/classUICreativePowersMenu_a2142c0b24055a6956b15602dd428bce3.html#a2142c0b24055a6956b15602dd428bce3" target="_top" xlink:title=" ">
<polygon fill="white" stroke="black" points="677,-399 677,-429 833,-429 833,-399 677,-399"/>
<text text-anchor="start" x="685" y="-417" font-family="Helvetica,sans-Serif" font-size="10.00">UICreativePowersMenu.time</text>
<text text-anchor="middle" x="755" y="-406" font-family="Helvetica,sans-Serif" font-size="10.00">CategoryButton_OnUpdate</text>
</a>
</g>
</g>
<!-- Node12&#45;&gt;Node19 -->
<g id="edge20" class="edge">
<title>Node12&#45;&gt;Node19</title>
<path fill="none" stroke="midnightblue" d="M892.63,-492.56C890,-491.14 887.45,-489.63 885,-488 862.48,-473.06 871.31,-454.26 849,-439 843.34,-435.13 837.11,-431.86 830.64,-429.09"/>
<polygon fill="midnightblue" stroke="midnightblue" points="891.29,-495.8 901.82,-496.98 894.33,-489.49 891.29,-495.8"/>
</g>
<!-- Node20 -->
<g id="node20" class="node">
<title>Node20</title>
<g id="a_node20"><a xlink:href="../../d7/d97/classUICreativePowersMenu_a06695a95a9b3698fe65cbbf313cdc5d7.html#a06695a95a9b3698fe65cbbf313cdc5d7" target="_top" xlink:title=" ">
<polygon fill="white" stroke="black" points="668.5,-350 668.5,-380 841.5,-380 841.5,-350 668.5,-350"/>
<text text-anchor="start" x="676.5" y="-368" font-family="Helvetica,sans-Serif" font-size="10.00">UICreativePowersMenu.weather</text>
<text text-anchor="middle" x="755" y="-357" font-family="Helvetica,sans-Serif" font-size="10.00">CategoryButton_OnUpdate</text>
</a>
</g>
</g>
<!-- Node12&#45;&gt;Node20 -->
<g id="edge22" class="edge">
<title>Node12&#45;&gt;Node20</title>
<path fill="none" stroke="midnightblue" d="M888.63,-491C887.38,-490.04 886.17,-489.04 885,-488 850.32,-457.17 883.24,-421.31 849,-390 844.8,-386.16 840.08,-382.91 835.05,-380.14"/>
<polygon fill="midnightblue" stroke="midnightblue" points="887.01,-494.13 897.28,-496.74 890.88,-488.29 887.01,-494.13"/>
</g>
<!-- Node14 -->
<g id="node14" class="node">
<title>Node14</title>
<g id="a_node14"><a xlink:href="../../d7/d97/classUICreativePowersMenu_ae90d128bb04727f8a7a5efdd70dabd4d.html#ae90d128bb04727f8a7a5efdd70dabd4d" target="_top" xlink:title=" ">
<polygon fill="white" stroke="black" points="459,-448 459,-478 625,-478 625,-448 459,-448"/>
<text text-anchor="start" x="467" y="-466" font-family="Helvetica,sans-Serif" font-size="10.00">UICreativePowersMenu.Create</text>
<text text-anchor="middle" x="542" y="-455" font-family="Helvetica,sans-Serif" font-size="10.00">MainPowerStrip</text>
</a>
</g>
</g>
<!-- Node13&#45;&gt;Node14 -->
<g id="edge13" class="edge">
<title>Node13&#45;&gt;Node14</title>
<path fill="none" stroke="midnightblue" d="M675.8,-542.72C670.74,-540.95 665.76,-539.05 661,-537 624.13,-521.13 585.46,-494.73 562.83,-478.12"/>
<polygon fill="midnightblue" stroke="midnightblue" points="675.04,-546.15 685.63,-545.94 677.22,-539.5 675.04,-546.15"/>
</g>
<!-- Node15 -->
<g id="node15" class="node">
<title>Node15</title>
<g id="a_node15"><a xlink:href="../../d7/d97/classUICreativePowersMenu_aa4f6dcab6a6c1171660fcbcfbc958c93.html#aa4f6dcab6a6c1171660fcbcfbc958c93" target="_top" xlink:title=" ">
<polygon fill="white" stroke="black" points="224,-453.5 224,-472.5 423,-472.5 423,-453.5 224,-453.5"/>
<text text-anchor="middle" x="323.5" y="-460.5" font-family="Helvetica,sans-Serif" font-size="10.00">UICreativePowersMenu.InitializePage</text>
</a>
</g>
</g>
<!-- Node14&#45;&gt;Node15 -->
<g id="edge14" class="edge">
<title>Node14&#45;&gt;Node15</title>
<path fill="none" stroke="midnightblue" d="M448.69,-463C440.3,-463 431.78,-463 423.33,-463"/>
<polygon fill="midnightblue" stroke="midnightblue" points="448.84,-466.5 458.84,-463 448.84,-459.5 448.84,-466.5"/>
</g>
<!-- Node16 -->
<g id="node16" class="node">
<title>Node16</title>
<g id="a_node16"><a xlink:href="../../d7/d97/classUICreativePowersMenu_a20cce538df395462dd1e9bf04c9dfc7e.html#a20cce538df395462dd1e9bf04c9dfc7e" target="_top" xlink:title=" ">
<polygon fill="white" stroke="black" points="0,-453.5 0,-472.5 188,-472.5 188,-453.5 0,-453.5"/>
<text text-anchor="middle" x="94" y="-460.5" font-family="Helvetica,sans-Serif" font-size="10.00">UICreativePowersMenu.OnActivate</text>
</a>
</g>
</g>
<!-- Node15&#45;&gt;Node16 -->
<g id="edge15" class="edge">
<title>Node15&#45;&gt;Node16</title>
<path fill="none" stroke="midnightblue" d="M213.48,-463C205.06,-463 196.61,-463 188.32,-463"/>
<polygon fill="midnightblue" stroke="midnightblue" points="213.71,-466.5 223.71,-463 213.71,-459.5 213.71,-466.5"/>
</g>
<!-- Node17&#45;&gt;Node14 -->
<g id="edge17" class="edge">
<title>Node17&#45;&gt;Node14</title>
<path fill="none" stroke="midnightblue" d="M679.37,-494.67C655.94,-489.23 630.29,-483.27 607.62,-478.01"/>
<polygon fill="midnightblue" stroke="midnightblue" points="678.73,-498.11 689.26,-496.97 680.31,-491.29 678.73,-498.11"/>
</g>
<!-- Node18&#45;&gt;Node14 -->
<g id="edge19" class="edge">
<title>Node18&#45;&gt;Node14</title>
<path fill="none" stroke="midnightblue" d="M656.83,-463C646.22,-463 635.5,-463 625.09,-463"/>
<polygon fill="midnightblue" stroke="midnightblue" points="656.96,-466.5 666.96,-463 656.96,-459.5 656.96,-466.5"/>
</g>
<!-- Node19&#45;&gt;Node14 -->
<g id="edge21" class="edge">
<title>Node19&#45;&gt;Node14</title>
<path fill="none" stroke="midnightblue" d="M679.37,-431.33C655.94,-436.77 630.29,-442.73 607.62,-447.99"/>
<polygon fill="midnightblue" stroke="midnightblue" points="680.31,-434.71 689.26,-429.03 678.73,-427.89 680.31,-434.71"/>
</g>
<!-- Node20&#45;&gt;Node14 -->
<g id="edge23" class="edge">
<title>Node20&#45;&gt;Node14</title>
<path fill="none" stroke="midnightblue" d="M678.61,-383.23C672.58,-385.31 666.64,-387.56 661,-390 624.52,-405.78 586.05,-431.55 563.3,-447.87"/>
<polygon fill="midnightblue" stroke="midnightblue" points="679.71,-386.55 688.14,-380.13 677.55,-379.9 679.71,-386.55"/>
</g>
<!-- Node22 -->
<g id="node22" class="node">
<title>Node22</title>
<g id="a_node22"><a xlink:href="../../d9/d9a/classCreativePowers_1_1DifficultySliderPower_a88add3a8183e3920149d835a651f7f6c.html#a88add3a8183e3920149d835a651f7f6c" target="_top" xlink:title=" ">
<polygon fill="white" stroke="black" points="684.5,-301 684.5,-331 825.5,-331 825.5,-301 684.5,-301"/>
<text text-anchor="start" x="692.5" y="-319" font-family="Helvetica,sans-Serif" font-size="10.00">CreativePowers.Difficulty</text>
<text text-anchor="middle" x="755" y="-308" font-family="Helvetica,sans-Serif" font-size="10.00">SliderPower.ProvideSlider</text>
</a>
</g>
</g>
<!-- Node21&#45;&gt;Node22 -->
<g id="edge25" class="edge">
<title>Node21&#45;&gt;Node22</title>
<path fill="none" stroke="midnightblue" d="M892.9,-445.05C890.13,-443.22 887.48,-441.2 885,-439 850.32,-408.17 883.24,-372.31 849,-341 842.34,-334.91 834.35,-330.27 825.89,-326.75"/>
<polygon fill="midnightblue" stroke="midnightblue" points="891.17,-448.09 901.58,-450.04 894.66,-442.02 891.17,-448.09"/>
</g>
<!-- Node23&#45;&gt;Node22 -->
<g id="edge27" class="edge">
<title>Node23&#45;&gt;Node22</title>
<path fill="none" stroke="midnightblue" d="M892.63,-394.56C890,-393.14 887.45,-391.63 885,-390 862.48,-375.06 871.31,-356.26 849,-341 841.96,-336.19 834.04,-332.3 825.86,-329.16"/>
<polygon fill="midnightblue" stroke="midnightblue" points="891.29,-397.8 901.82,-398.98 894.33,-391.49 891.29,-397.8"/>
</g>
<!-- Node24&#45;&gt;Node22 -->
<g id="edge29" class="edge">
<title>Node24&#45;&gt;Node22</title>
<path fill="none" stroke="midnightblue" d="M904.96,-347.8C879.17,-342.3 850.85,-336.25 825.89,-330.92"/>
<polygon fill="midnightblue" stroke="midnightblue" points="904.57,-351.3 915.08,-349.97 906.03,-344.45 904.57,-351.3"/>
</g>
<!-- Node25&#45;&gt;Node22 -->
<g id="edge31" class="edge">
<title>Node25&#45;&gt;Node22</title>
<path fill="none" stroke="midnightblue" d="M889.6,-316C868.13,-316 845.76,-316 825.6,-316"/>
<polygon fill="midnightblue" stroke="midnightblue" points="889.72,-319.5 899.72,-316 889.72,-312.5 889.72,-319.5"/>
</g>
<!-- Node27 -->
<g id="node27" class="node">
<title>Node27</title>
<g id="a_node27"><a xlink:href="../../d6/d04/classCreativePowers_1_1ModifyTimeRate_a31a60a6b9010330344cad8b1d7253de9.html#a31a60a6b9010330344cad8b1d7253de9" target="_top" xlink:title=" ">
<polygon fill="white" stroke="black" points="678,-186 678,-216 832,-216 832,-186 678,-186"/>
<text text-anchor="start" x="686" y="-204" font-family="Helvetica,sans-Serif" font-size="10.00">CreativePowers.ModifyTime</text>
<text text-anchor="middle" x="755" y="-193" font-family="Helvetica,sans-Serif" font-size="10.00">Rate.ProvideSlider</text>
</a>
</g>
</g>
<!-- Node26&#45;&gt;Node27 -->
<g id="edge33" class="edge">
<title>Node26&#45;&gt;Node27</title>
<path fill="none" stroke="midnightblue" d="M877.73,-201C862.29,-201 846.68,-201 832.02,-201"/>
<polygon fill="midnightblue" stroke="midnightblue" points="877.84,-204.5 887.84,-201 877.84,-197.5 877.84,-204.5"/>
</g>
<!-- Node29 -->
<g id="node29" class="node">
<title>Node29</title>
<g id="a_node29"><a xlink:href="../../d8/d8f/classCreativePowers_1_1ModifyWindDirectionAndStrength_a9429f981177f2f5b40b812244a2fb070.html#a9429f981177f2f5b40b812244a2fb070" target="_top" xlink:title=" ">
<polygon fill="white" stroke="black" points="661,-126 661,-156 849,-156 849,-126 661,-126"/>
<text text-anchor="start" x="669" y="-144" font-family="Helvetica,sans-Serif" font-size="10.00">CreativePowers.ModifyWind</text>
<text text-anchor="middle" x="755" y="-133" font-family="Helvetica,sans-Serif" font-size="10.00">DirectionAndStrength.ProvideSlider</text>
</a>
</g>
</g>
<!-- Node28&#45;&gt;Node29 -->
<g id="edge35" class="edge">
<title>Node28&#45;&gt;Node29</title>
<path fill="none" stroke="midnightblue" d="M882.6,-141C871.42,-141 860.09,-141 849.03,-141"/>
<polygon fill="midnightblue" stroke="midnightblue" points="882.82,-144.5 892.82,-141 882.82,-137.5 882.82,-144.5"/>
</g>
<!-- Node31 -->
<g id="node31" class="node">
<title>Node31</title>
<g id="a_node31"><a xlink:href="../../d3/da6/classCreativePowers_1_1ModifyRainPower_a3a8e782ac4249fa8b60d3b2e49ae904b.html#a3a8e782ac4249fa8b60d3b2e49ae904b" target="_top" xlink:title=" ">
<polygon fill="white" stroke="black" points="679.5,-66 679.5,-96 830.5,-96 830.5,-66 679.5,-66"/>
<text text-anchor="start" x="687.5" y="-84" font-family="Helvetica,sans-Serif" font-size="10.00">CreativePowers.ModifyRain</text>
<text text-anchor="middle" x="755" y="-73" font-family="Helvetica,sans-Serif" font-size="10.00">Power.ProvideSlider</text>
</a>
</g>
</g>
<!-- Node30&#45;&gt;Node31 -->
<g id="edge37" class="edge">
<title>Node30&#45;&gt;Node31</title>
<path fill="none" stroke="midnightblue" d="M874.57,-81C859.7,-81 844.75,-81 830.71,-81"/>
<polygon fill="midnightblue" stroke="midnightblue" points="874.84,-84.5 884.84,-81 874.84,-77.5 874.84,-84.5"/>
</g>
<!-- Node33 -->
<g id="node33" class="node">
<title>Node33</title>
<g id="a_node33"><a xlink:href="../../d4/dab/classCreativePowers_1_1SpawnRateSliderPerPlayerPower_ac9478d7113f17fdecced065cd4d4cf6e.html#ac9478d7113f17fdecced065cd4d4cf6e" target="_top" xlink:title=" ">
<polygon fill="white" stroke="black" points="675,-0.5 675,-41.5 835,-41.5 835,-0.5 675,-0.5"/>
<text text-anchor="start" x="683" y="-29.5" font-family="Helvetica,sans-Serif" font-size="10.00">CreativePowers.SpawnRate</text>
<text text-anchor="start" x="683" y="-18.5" font-family="Helvetica,sans-Serif" font-size="10.00">SliderPerPlayerPower.Provide</text>
<text text-anchor="middle" x="755" y="-7.5" font-family="Helvetica,sans-Serif" font-size="10.00">Slider</text>
</a>
</g>
</g>
<!-- Node32&#45;&gt;Node33 -->
<g id="edge39" class="edge">
<title>Node32&#45;&gt;Node33</title>
<path fill="none" stroke="midnightblue" d="M883.44,-21C867.24,-21 850.69,-21 835.11,-21"/>
<polygon fill="midnightblue" stroke="midnightblue" points="883.48,-24.5 893.48,-21 883.48,-17.5 883.48,-24.5"/>
</g>
<!-- Node34&#45;&gt;Node22 -->
<g id="edge41" class="edge">
<title>Node34&#45;&gt;Node22</title>
<path fill="none" stroke="midnightblue" d="M889.87,-283.92C865.86,-289.67 840.7,-295.7 818.76,-300.96"/>
<polygon fill="midnightblue" stroke="midnightblue" points="890.81,-287.29 899.72,-281.56 889.18,-280.49 890.81,-287.29"/>
</g>
</g>
</svg>
        <g id="navigator" transform="translate(0 0)" fill="#404254">
                <rect fill="#f2f5e9" fill-opacity="0.5" stroke="#606060" stroke-width=".5" x="0" y="0" width="60" height="60"/>
                <use id="zoomplus" xlink:href="#zoomPlus" x="17" y="9" onmousedown="handleZoom(evt,'in')"/>
                <use id="zoomminus" xlink:href="#zoomMin" x="42" y="9" onmousedown="handleZoom(evt,'out')"/>
                <use id="reset" xlink:href="#resetDef" x="30" y="36" onmousedown="handleReset()"/>
                <g id="arrowUp" xlink:href="#dirArrow" transform="translate(30 24)" onmousedown="handlePan(0,-1)">
                  <use xlink:href="#rim" fill="#404040">
                        <set attributeName="fill" to="#808080" begin="arrowUp.mouseover" end="arrowUp.mouseout"/>
                  </use>
                  <path fill="none" stroke="white" stroke-width="1.5" d="M0,-3.0v7 M-2.5,-0.5L0,-3.0L2.5,-0.5"/>
                </g>
                <g id="arrowRight" xlink:href="#dirArrow" transform="rotate(90) translate(36 -43)" onmousedown="handlePan(1,0)">
                  <use xlink:href="#rim" fill="#404040">
                        <set attributeName="fill" to="#808080" begin="arrowRight.mouseover" end="arrowRight.mouseout"/>
                  </use>
                  <path fill="none" stroke="white" stroke-width="1.5" d="M0,-3.0v7 M-2.5,-0.5L0,-3.0L2.5,-0.5"/>
                </g>
                <g id="arrowDown" xlink:href="#dirArrow" transform="rotate(180) translate(-30 -48)" onmousedown="handlePan(0,1)">
                  <use xlink:href="#rim" fill="#404040">
                        <set attributeName="fill" to="#808080" begin="arrowDown.mouseover" end="arrowDown.mouseout"/>
                  </use>
                  <path fill="none" stroke="white" stroke-width="1.5" d="M0,-3.0v7 M-2.5,-0.5L0,-3.0L2.5,-0.5"/>
                </g>
                <g id="arrowLeft" xlink:href="#dirArrow" transform="rotate(270) translate(-36 17)" onmousedown="handlePan(-1,0)">
                  <use xlink:href="#rim" fill="#404040">
                        <set attributeName="fill" to="#808080" begin="arrowLeft.mouseover" end="arrowLeft.mouseout"/>
                  </use>
                  <path fill="none" stroke="white" stroke-width="1.5" d="M0,-3.0v7 M-2.5,-0.5L0,-3.0L2.5,-0.5"/>
                </g>
        </g>
        <svg viewBox="0 0 15 15" width="100%" height="30px" preserveAspectRatio="xMaxYMin meet">
         <g id="arrow_out" transform="scale(0.3 0.3)">
          <a xlink:href="classMain_a5528938946cf03e9117a3af59af828f1_a5528938946cf03e9117a3af59af828f1_icgraph_org.svg" target="_base">
           <rect id="button" ry="5" rx="5" y="6" x="6" height="38" width="38"
                fill="#f2f5e9" fill-opacity="0.5" stroke="#606060" stroke-width="1.0"/>
           <path id="arrow"
             d="M 11.500037,31.436501 C 11.940474,20.09759 22.043105,11.32322 32.158766,21.979434 L 37.068811,17.246167 C 37.068811,17.246167 37.088388,32 37.088388,32 L 22.160133,31.978069 C 22.160133,31.978069 26.997745,27.140456 26.997745,27.140456 C 18.528582,18.264221 13.291696,25.230495 11.500037,31.436501 z"
             style="fill:#404040;"/>
          </a>
         </g>
        </svg>
</svg>
