<?xml version="1.0" encoding="UTF-8" standalone="no"?>
<!DOCTYPE svg PUBLIC "-//W3C//DTD SVG 1.1//EN"
 "http://www.w3.org/Graphics/SVG/1.1/DTD/svg11.dtd">
<!-- Generated by graphviz version 2.43.0 (0)
 -->
<!-- Title: Main.DrawSurfaceBG_BackMountainsStep1 Pages: 1 -->
<svg width="711pt" height="154pt"
 viewBox="0.00 0.00 711.00 153.50" xmlns="http://www.w3.org/2000/svg" xmlns:xlink="http://www.w3.org/1999/xlink">
<g id="graph0" class="graph" transform="scale(1 1) rotate(0) translate(4 149.5)">
<title>Main.DrawSurfaceBG_BackMountainsStep1</title>
<polygon fill="white" stroke="transparent" points="-4,4 -4,-149.5 707,-149.5 707,4 -4,4"/>
<!-- Node1 -->
<g id="node1" class="node">
<title>Node1</title>
<g id="a_node1"><a xlink:title=" ">
<polygon fill="#bfbfbf" stroke="black" points="0,-33 0,-63 125,-63 125,-33 0,-33"/>
<text text-anchor="start" x="8" y="-51" font-family="Helvetica,sans-Serif" font-size="10.00">Main.DrawSurfaceBG</text>
<text text-anchor="middle" x="62.5" y="-40" font-family="Helvetica,sans-Serif" font-size="10.00">_BackMountainsStep1</text>
</a>
</g>
</g>
<!-- Node2 -->
<g id="node2" class="node">
<title>Node2</title>
<g id="a_node2"><a xlink:href="../../db/d4a/classMain_aed2ac35a80f798a61110f14a37e6bfb2.html#aed2ac35a80f798a61110f14a37e6bfb2" target="_top" xlink:title=" ">
<polygon fill="white" stroke="black" points="161,-63 161,-93 310,-93 310,-63 161,-63"/>
<text text-anchor="start" x="169" y="-81" font-family="Helvetica,sans-Serif" font-size="10.00">Main.DrawSurfaceBG</text>
<text text-anchor="middle" x="235.5" y="-70" font-family="Helvetica,sans-Serif" font-size="10.00">_DrawBackMountainsLayer</text>
</a>
</g>
</g>
<!-- Node1&#45;&gt;Node2 -->
<g id="edge1" class="edge">
<title>Node1&#45;&gt;Node2</title>
<path fill="none" stroke="midnightblue" d="M125.23,-58.83C133.55,-60.29 142.2,-61.81 150.82,-63.32"/>
<polygon fill="midnightblue" stroke="midnightblue" points="150.46,-66.81 160.91,-65.09 151.67,-59.91 150.46,-66.81"/>
</g>
<!-- Node7 -->
<g id="node7" class="node">
<title>Node7</title>
<g id="a_node7"><a xlink:href="../../d8/da2/classSkyManager_afdbcff4e56b74da309c44055d2167863.html#afdbcff4e56b74da309c44055d2167863" target="_top" xlink:title=" ">
<polygon fill="white" stroke="black" points="163.5,-16.5 163.5,-35.5 307.5,-35.5 307.5,-16.5 163.5,-16.5"/>
<text text-anchor="middle" x="235.5" y="-23.5" font-family="Helvetica,sans-Serif" font-size="10.00">SkyManager.DrawToDepth</text>
</a>
</g>
</g>
<!-- Node1&#45;&gt;Node7 -->
<g id="edge6" class="edge">
<title>Node1&#45;&gt;Node7</title>
<path fill="none" stroke="midnightblue" d="M125.23,-40.06C134.3,-38.89 143.75,-37.68 153.13,-36.47"/>
<polygon fill="midnightblue" stroke="midnightblue" points="153.79,-39.91 163.27,-35.16 152.9,-32.97 153.79,-39.91"/>
</g>
<!-- Node3 -->
<g id="node3" class="node">
<title>Node3</title>
<g id="a_node3"><a xlink:href="../../db/d4a/classMain_a531bca70080ce1017fe52bcc77c6d391.html#a531bca70080ce1017fe52bcc77c6d391" target="_top" xlink:title=" ">
<polygon fill="white" stroke="black" points="368,-115 368,-145 488,-145 488,-115 368,-115"/>
<text text-anchor="start" x="376" y="-133" font-family="Helvetica,sans-Serif" font-size="10.00">Main.DrawSurfaceBG</text>
<text text-anchor="middle" x="428" y="-122" font-family="Helvetica,sans-Serif" font-size="10.00">_GetLayerYOffset</text>
</a>
</g>
</g>
<!-- Node2&#45;&gt;Node3 -->
<g id="edge2" class="edge">
<title>Node2&#45;&gt;Node3</title>
<path fill="none" stroke="midnightblue" d="M291.6,-93.04C313.72,-99.08 339.36,-106.08 362.35,-112.35"/>
<polygon fill="midnightblue" stroke="midnightblue" points="361.45,-115.74 372.02,-114.99 363.3,-108.98 361.45,-115.74"/>
</g>
<!-- Node4 -->
<g id="node4" class="node">
<title>Node4</title>
<g id="a_node4"><a xlink:href="../../db/d4a/classMain_a8584ec74f4555dcaee3f1204ee859621.html#a8584ec74f4555dcaee3f1204ee859621" target="_top" xlink:title=" ">
<polygon fill="white" stroke="black" points="358,-76.5 358,-95.5 498,-95.5 498,-76.5 358,-76.5"/>
<text text-anchor="middle" x="428" y="-83.5" font-family="Helvetica,sans-Serif" font-size="10.00">Main.GetBackgroundRect</text>
</a>
</g>
</g>
<!-- Node2&#45;&gt;Node4 -->
<g id="edge3" class="edge">
<title>Node2&#45;&gt;Node4</title>
<path fill="none" stroke="midnightblue" d="M310.15,-81.09C322.42,-81.61 335.2,-82.14 347.6,-82.67"/>
<polygon fill="midnightblue" stroke="midnightblue" points="347.78,-86.18 357.92,-83.1 348.07,-79.18 347.78,-86.18"/>
</g>
<!-- Node6 -->
<g id="node6" class="node">
<title>Node6</title>
<g id="a_node6"><a xlink:href="../../db/d4a/classMain_a4e676a3e5e69d154a425ad26215c3735.html#a4e676a3e5e69d154a425ad26215c3735" target="_top" xlink:title=" ">
<polygon fill="white" stroke="black" points="365.5,-38.5 365.5,-57.5 490.5,-57.5 490.5,-38.5 365.5,-38.5"/>
<text text-anchor="middle" x="428" y="-45.5" font-family="Helvetica,sans-Serif" font-size="10.00">Main.LoadBackground</text>
</a>
</g>
</g>
<!-- Node2&#45;&gt;Node6 -->
<g id="edge5" class="edge">
<title>Node2&#45;&gt;Node6</title>
<path fill="none" stroke="midnightblue" d="M310.15,-66.4C325.29,-64.02 341.21,-61.51 356.24,-59.14"/>
<polygon fill="midnightblue" stroke="midnightblue" points="357.16,-62.54 366.49,-57.53 356.07,-55.63 357.16,-62.54"/>
</g>
<!-- Node5 -->
<g id="node5" class="node">
<title>Node5</title>
<g id="a_node5"><a xlink:href="../../db/d4a/classMain_ac32c208b81a622fba60a91323a5e9f44.html#ac32c208b81a622fba60a91323a5e9f44" target="_top" xlink:title=" ">
<polygon fill="white" stroke="black" points="546,-76.5 546,-95.5 703,-95.5 703,-76.5 546,-76.5"/>
<text text-anchor="middle" x="624.5" y="-83.5" font-family="Helvetica,sans-Serif" font-size="10.00">Main.GetBackgroundCounter</text>
</a>
</g>
</g>
<!-- Node4&#45;&gt;Node5 -->
<g id="edge4" class="edge">
<title>Node4&#45;&gt;Node5</title>
<path fill="none" stroke="midnightblue" d="M498.12,-86C510.36,-86 523.24,-86 535.9,-86"/>
<polygon fill="midnightblue" stroke="midnightblue" points="536,-89.5 546,-86 536,-82.5 536,-89.5"/>
</g>
<!-- Node8 -->
<g id="node8" class="node">
<title>Node8</title>
<g id="a_node8"><a xlink:href="../../d8/da2/classSkyManager_aecd32f619bd295ce4fe1c66c808b8e9a.html#aecd32f619bd295ce4fe1c66c808b8e9a" target="_top" xlink:title=" ">
<polygon fill="white" stroke="black" points="346,-0.5 346,-19.5 510,-19.5 510,-0.5 346,-0.5"/>
<text text-anchor="middle" x="428" y="-7.5" font-family="Helvetica,sans-Serif" font-size="10.00">SkyManager.DrawDepthRange</text>
</a>
</g>
</g>
<!-- Node7&#45;&gt;Node8 -->
<g id="edge7" class="edge">
<title>Node7&#45;&gt;Node8</title>
<path fill="none" stroke="midnightblue" d="M307.71,-20.02C316.86,-19.25 326.34,-18.45 335.76,-17.66"/>
<polygon fill="midnightblue" stroke="midnightblue" points="336.28,-21.13 345.95,-16.81 335.69,-14.16 336.28,-21.13"/>
</g>
<!-- Node9 -->
<g id="node9" class="node">
<title>Node9</title>
<g id="a_node9"><a xlink:href="../../d2/d4e/classCustomSky_a221f0f241e97c6990d321cc98690bb5d.html#a221f0f241e97c6990d321cc98690bb5d" target="_top" xlink:title=" ">
<polygon fill="white" stroke="black" points="575.5,-0.5 575.5,-19.5 673.5,-19.5 673.5,-0.5 575.5,-0.5"/>
<text text-anchor="middle" x="624.5" y="-7.5" font-family="Helvetica,sans-Serif" font-size="10.00">CustomSky.Draw</text>
</a>
</g>
</g>
<!-- Node8&#45;&gt;Node9 -->
<g id="edge8" class="edge">
<title>Node8&#45;&gt;Node9</title>
<path fill="none" stroke="midnightblue" d="M510.08,-10C528.46,-10 547.64,-10 564.89,-10"/>
<polygon fill="midnightblue" stroke="midnightblue" points="565.35,-13.5 575.35,-10 565.35,-6.5 565.35,-13.5"/>
</g>
</g>
</svg>
