<?xml version="1.0" encoding="UTF-8" standalone="no"?>
<!DOCTYPE svg PUBLIC "-//W3C//DTD SVG 1.1//EN"
 "http://www.w3.org/Graphics/SVG/1.1/DTD/svg11.dtd">
<!-- Generated by graphviz version 2.43.0 (0)
 -->
<!-- Title: Main.DrawCursor Pages: 1 -->
<svg width="305pt" height="166pt"
 viewBox="0.00 0.00 305.00 165.50" xmlns="http://www.w3.org/2000/svg" xmlns:xlink="http://www.w3.org/1999/xlink">
<g id="graph0" class="graph" transform="scale(1 1) rotate(0) translate(4 161.5)">
<title>Main.DrawCursor</title>
<polygon fill="white" stroke="transparent" points="-4,4 -4,-161.5 301,-161.5 301,4 -4,4"/>
<!-- Node1 -->
<g id="node1" class="node">
<title>Node1</title>
<g id="a_node1"><a xlink:title=" ">
<polygon fill="#bfbfbf" stroke="black" points="0,-72 0,-91 101,-91 101,-72 0,-72"/>
<text text-anchor="middle" x="50.5" y="-79" font-family="Helvetica,sans-Serif" font-size="10.00">Main.DrawCursor</text>
</a>
</g>
</g>
<!-- Node2 -->
<g id="node2" class="node">
<title>Node2</title>
<g id="a_node2"><a xlink:href="../../db/d4a/classMain_a6c2eb19e1678eb1f2e8f1ed28f5e12d0.html#a6c2eb19e1678eb1f2e8f1ed28f5e12d0" target="_top" xlink:title=" ">
<polygon fill="white" stroke="black" points="149,-138 149,-157 285,-157 285,-138 149,-138"/>
<text text-anchor="middle" x="217" y="-145" font-family="Helvetica,sans-Serif" font-size="10.00">Main.ClearSmartInteract</text>
</a>
</g>
</g>
<!-- Node1&#45;&gt;Node2 -->
<g id="edge1" class="edge">
<title>Node1&#45;&gt;Node2</title>
<path fill="none" stroke="midnightblue" d="M66.05,-91.08C82.61,-101.6 110.78,-118.35 137,-128.5 143.45,-131 150.33,-133.24 157.24,-135.22"/>
<polygon fill="midnightblue" stroke="midnightblue" points="156.76,-138.72 167.33,-137.95 158.59,-131.96 156.76,-138.72"/>
</g>
<!-- Node3 -->
<g id="node3" class="node">
<title>Node3</title>
<g id="a_node3"><a xlink:href="../../d1/d8f/classSmartSelectGamepadPointer_a55b3b27aeb6821d9119993b1c4d4a1ae.html#a55b3b27aeb6821d9119993b1c4d4a1ae" target="_top" xlink:title=" ">
<polygon fill="white" stroke="black" points="137,-88.5 137,-118.5 297,-118.5 297,-88.5 137,-88.5"/>
<text text-anchor="start" x="145" y="-106.5" font-family="Helvetica,sans-Serif" font-size="10.00">SmartSelectGamepadPointer.</text>
<text text-anchor="middle" x="217" y="-95.5" font-family="Helvetica,sans-Serif" font-size="10.00">GetPointerPosition</text>
</a>
</g>
</g>
<!-- Node1&#45;&gt;Node3 -->
<g id="edge2" class="edge">
<title>Node1&#45;&gt;Node3</title>
<path fill="none" stroke="midnightblue" d="M101.3,-88.16C109.48,-89.25 118.16,-90.42 126.95,-91.59"/>
<polygon fill="midnightblue" stroke="midnightblue" points="126.52,-95.06 136.9,-92.92 127.45,-88.13 126.52,-95.06"/>
</g>
<!-- Node4 -->
<g id="node4" class="node">
<title>Node4</title>
<g id="a_node4"><a xlink:href="../../db/d4a/classMain_a7ecf7958fb0cf3c32dc38bc5e5fad159.html#a7ecf7958fb0cf3c32dc38bc5e5fad159" target="_top" xlink:title=" ">
<polygon fill="white" stroke="black" points="173.5,-50 173.5,-69 260.5,-69 260.5,-50 173.5,-50"/>
<text text-anchor="middle" x="217" y="-57" font-family="Helvetica,sans-Serif" font-size="10.00">Main.hslToRgb</text>
</a>
</g>
</g>
<!-- Node1&#45;&gt;Node4 -->
<g id="edge3" class="edge">
<title>Node1&#45;&gt;Node4</title>
<path fill="none" stroke="midnightblue" d="M101.3,-74.84C120.87,-72.22 143.36,-69.22 163.21,-66.56"/>
<polygon fill="midnightblue" stroke="midnightblue" points="163.87,-70 173.32,-65.21 162.94,-63.07 163.87,-70"/>
</g>
<!-- Node5 -->
<g id="node5" class="node">
<title>Node5</title>
<g id="a_node5"><a xlink:href="../../d1/d8f/classSmartSelectGamepadPointer_a05f9b4543d3e95fa31c86a18ddcb89a8.html#a05f9b4543d3e95fa31c86a18ddcb89a8" target="_top" xlink:title=" ">
<polygon fill="white" stroke="black" points="137,-0.5 137,-30.5 297,-30.5 297,-0.5 137,-0.5"/>
<text text-anchor="start" x="145" y="-18.5" font-family="Helvetica,sans-Serif" font-size="10.00">SmartSelectGamepadPointer.</text>
<text text-anchor="middle" x="217" y="-7.5" font-family="Helvetica,sans-Serif" font-size="10.00">UpdateCenter</text>
</a>
</g>
</g>
<!-- Node1&#45;&gt;Node5 -->
<g id="edge4" class="edge">
<title>Node1&#45;&gt;Node5</title>
<path fill="none" stroke="midnightblue" d="M69.52,-71.94C86.59,-63.11 113.12,-49.95 137,-40.5 142.79,-38.21 148.89,-35.97 155.02,-33.85"/>
<polygon fill="midnightblue" stroke="midnightblue" points="156.28,-37.11 164.63,-30.6 154.04,-30.48 156.28,-37.11"/>
</g>
</g>
</svg>
