<?xml version="1.0" encoding="UTF-8" standalone="no"?>
<!DOCTYPE svg PUBLIC "-//W3C//DTD SVG 1.1//EN"
 "http://www.w3.org/Graphics/SVG/1.1/DTD/svg11.dtd">
<!-- Generated by graphviz version 2.43.0 (0)
 -->
<!-- Title: Main.DrawInterface_2_SmartCursorTargets Pages: 1 -->
<svg width="613pt" height="66pt"
 viewBox="0.00 0.00 613.00 66.00" xmlns="http://www.w3.org/2000/svg" xmlns:xlink="http://www.w3.org/1999/xlink">
<g id="graph0" class="graph" transform="scale(1 1) rotate(0) translate(4 62)">
<title>Main.DrawInterface_2_SmartCursorTargets</title>
<polygon fill="white" stroke="transparent" points="-4,4 -4,-62 609,-62 609,4 -4,4"/>
<!-- Node1 -->
<g id="node1" class="node">
<title>Node1</title>
<g id="a_node1"><a xlink:title=" ">
<polygon fill="#bfbfbf" stroke="black" points="0,-14 0,-44 129,-44 129,-14 0,-14"/>
<text text-anchor="start" x="8" y="-32" font-family="Helvetica,sans-Serif" font-size="10.00">Main.DrawInterface</text>
<text text-anchor="middle" x="64.5" y="-21" font-family="Helvetica,sans-Serif" font-size="10.00">_2_SmartCursorTargets</text>
</a>
</g>
</g>
<!-- Node2 -->
<g id="node2" class="node">
<title>Node2</title>
<g id="a_node2"><a xlink:href="../../db/d4a/classMain_a5f16db621d233254c722d0da3559797b.html#a5f16db621d233254c722d0da3559797b" target="_top" xlink:title=" ">
<polygon fill="white" stroke="black" points="165,-19.5 165,-38.5 295,-38.5 295,-19.5 165,-19.5"/>
<text text-anchor="middle" x="230" y="-26.5" font-family="Helvetica,sans-Serif" font-size="10.00">Main.DrawSmartCursor</text>
</a>
</g>
</g>
<!-- Node1&#45;&gt;Node2 -->
<g id="edge1" class="edge">
<title>Node1&#45;&gt;Node2</title>
<path fill="none" stroke="midnightblue" d="M129.18,-29C137.62,-29 146.34,-29 154.94,-29"/>
<polygon fill="midnightblue" stroke="midnightblue" points="154.95,-32.5 164.95,-29 154.95,-25.5 154.95,-32.5"/>
</g>
<!-- Node3 -->
<g id="node3" class="node">
<title>Node3</title>
<g id="a_node3"><a xlink:href="../../db/d4a/classMain_ac3519d9e5602d7937d8c0fe31dfd39ae.html#ac3519d9e5602d7937d8c0fe31dfd39ae" target="_top" xlink:title=" ">
<polygon fill="white" stroke="black" points="337.5,-38.5 337.5,-57.5 425.5,-57.5 425.5,-38.5 337.5,-38.5"/>
<text text-anchor="middle" x="381.5" y="-45.5" font-family="Helvetica,sans-Serif" font-size="10.00">Main.buffColor</text>
</a>
</g>
</g>
<!-- Node2&#45;&gt;Node3 -->
<g id="edge2" class="edge">
<title>Node2&#45;&gt;Node3</title>
<path fill="none" stroke="midnightblue" d="M295.27,-37.17C305.95,-38.53 316.93,-39.92 327.3,-41.24"/>
<polygon fill="midnightblue" stroke="midnightblue" points="327.07,-44.74 337.43,-42.53 327.96,-37.79 327.07,-44.74"/>
</g>
<!-- Node4 -->
<g id="node4" class="node">
<title>Node4</title>
<g id="a_node4"><a xlink:href="../../d0/d24/classLighting_a2d4dad695635fc155f6a05af9a63348d.html#a2d4dad695635fc155f6a05af9a63348d" target="_top" xlink:title=" ">
<polygon fill="white" stroke="black" points="331,-0.5 331,-19.5 432,-19.5 432,-0.5 331,-0.5"/>
<text text-anchor="middle" x="381.5" y="-7.5" font-family="Helvetica,sans-Serif" font-size="10.00">Lighting.GetColor</text>
</a>
</g>
</g>
<!-- Node2&#45;&gt;Node4 -->
<g id="edge3" class="edge">
<title>Node2&#45;&gt;Node4</title>
<path fill="none" stroke="midnightblue" d="M295.27,-20.83C303.71,-19.76 312.33,-18.66 320.69,-17.6"/>
<polygon fill="midnightblue" stroke="midnightblue" points="321.25,-21.06 330.73,-16.33 320.37,-14.11 321.25,-21.06"/>
</g>
<!-- Node5 -->
<g id="node5" class="node">
<title>Node5</title>
<g id="a_node5"><a xlink:href="../../db/d9d/interfaceILightingEngine_ac231bb2aace0c74f3286f65dbf23ac21.html#ac231bb2aace0c74f3286f65dbf23ac21" target="_top" xlink:title=" ">
<polygon fill="white" stroke="black" points="468,-0.5 468,-19.5 605,-19.5 605,-0.5 468,-0.5"/>
<text text-anchor="middle" x="536.5" y="-7.5" font-family="Helvetica,sans-Serif" font-size="10.00">ILightingEngine.GetColor</text>
</a>
</g>
</g>
<!-- Node4&#45;&gt;Node5 -->
<g id="edge4" class="edge">
<title>Node4&#45;&gt;Node5</title>
<path fill="none" stroke="midnightblue" d="M432.17,-10C440.39,-10 449.08,-10 457.79,-10"/>
<polygon fill="midnightblue" stroke="midnightblue" points="457.99,-13.5 467.99,-10 457.99,-6.5 457.99,-13.5"/>
</g>
</g>
</svg>
