<?xml version="1.0" encoding="UTF-8" standalone="no"?>
<!DOCTYPE svg PUBLIC "-//W3C//DTD SVG 1.1//EN"
 "http://www.w3.org/Graphics/SVG/1.1/DTD/svg11.dtd">
<!-- Generated by graphviz version 2.43.0 (0)
 -->
<!-- Title: Terraria.GameContent.Bestiary.BestiaryDatabaseNPCsPopulator.CommonTags.SpawnConditions.Times Pages: 1 -->
<!--zoomable 671 -->

<svg id="main" version="1.1" xmlns="http://www.w3.org/2000/svg" xmlns:xlink="http://www.w3.org/1999/xlink" xml:space="preserve" onload="init(evt)">
<style type="text/css"><![CDATA[
.node, .edge {opacity: 0.7;}
.node.selected, .edge.selected {opacity: 1;}
.edge:hover path { stroke: red; }
.edge:hover polygon { stroke: red; fill: red; }
]]></style>

<defs>
  <circle id="rim" cx="0" cy="0" r="7"/>
  <circle id="rim2" cx="0" cy="0" r="3.5"/>
  <g id="zoomPlus">
    <use xlink:href="#rim" fill="#404040"><set attributeName="fill" to="#808080" begin="zoomplus.mouseover" end="zoomplus.mouseout"/></use>
    <path d="M-4,0h8M0,-4v8" fill="none" stroke="white" stroke-width="1.5" pointer-events="none"/>
  </g>
  <g id="zoomMin">
    <use xlink:href="#rim" fill="#404040"><set attributeName="fill" to="#808080" begin="zoomminus.mouseover" end="zoomminus.mouseout"/></use>
    <path d="M-4,0h8" fill="none" stroke="white" stroke-width="1.5" pointer-events="none"/>
  </g>
  <g id="arrowUp" transform="translate(30 24)">
    <use xlink:href="#rim"/>
    <path pointer-events="none" fill="none" stroke="white" stroke-width="1.5" d="M0,-3.0v7 M-2.5,-0.5L0,-3.0L2.5,-0.5"/>
  </g>
  <g id="arrowRight" transform="rotate(90) translate(36 -43)">
    <use xlink:href="#rim"/>
    <path pointer-events="none" fill="none" stroke="white" stroke-width="1.5" d="M0,-3.0v7 M-2.5,-0.5L0,-3.0L2.5,-0.5"/>
  </g>
  <g id="arrowDown" transform="rotate(180) translate(-30 -48)">
    <use xlink:href="#rim"/>
    <path pointer-events="none" fill="none" stroke="white" stroke-width="1.5" d="M0,-3.0v7 M-2.5,-0.5L0,-3.0L2.5,-0.5"/>
  </g>
  <g id="arrowLeft" transform="rotate(270) translate(-36 17)">
    <use xlink:href="#rim"/>
    <path pointer-events="none" fill="none" stroke="white" stroke-width="1.5" d="M0,-3.0v7 M-2.5,-0.5L0,-3.0L2.5,-0.5"/>
  </g>
  <g id="resetDef">
    <use xlink:href="#rim2" fill="#404040"><set attributeName="fill" to="#808080" begin="reset.mouseover" end="reset.mouseout"/></use>
  </g>
</defs>
<script type="application/ecmascript">
var viewWidth = 1339;
var viewHeight = 671;
var sectionId = 'dynsection-0';
</script>
<script type="application/ecmascript" xlink:href="../../svg.min.js"/>
<svg id="graph" class="graph">
<g id="viewport">
<title>Terraria.GameContent.Bestiary.BestiaryDatabaseNPCsPopulator.CommonTags.SpawnConditions.Times</title>
<!-- Node1 -->
<g id="Node000001" class="node">
<title>Node1</title>
<g id="a_Node000001"><a xlink:title=" ">
<polygon fill="#999999" stroke="transparent" points="1111.5,-71 895.5,-71 895.5,0 1111.5,0 1111.5,-71"/>
<text text-anchor="start" x="900.5" y="-58.5" font-family="Helvetica,sans-Serif" font-size="10.00">Terraria.GameContent.Bestiary.</text>
<text text-anchor="start" x="900.5" y="-47.5" font-family="Helvetica,sans-Serif" font-size="10.00">BestiaryDatabaseNPCsPopulator.Common</text>
<text text-anchor="start" x="932.5" y="-36.5" font-family="Helvetica,sans-Serif" font-size="10.00">Tags.SpawnConditions.Times</text>
<text text-anchor="start" x="1001.5" y="-21.5" font-family="Helvetica,sans-Serif" font-size="10.00"> </text>
<text text-anchor="start" x="1001.5" y="-6.5" font-family="Helvetica,sans-Serif" font-size="10.00"> </text>
<polygon fill="#666666" stroke="#666666" points="895.5,-31.5 895.5,-31.5 1111.5,-31.5 1111.5,-31.5 895.5,-31.5"/>
<polygon fill="#666666" stroke="#666666" points="895.5,-16.5 895.5,-16.5 1111.5,-16.5 1111.5,-16.5 895.5,-16.5"/>
<polygon fill="none" stroke="#666666" points="895.5,0 895.5,-71 1111.5,-71 1111.5,0 895.5,0"/>
</a>
</g>
</g>
<!-- Node2 -->
<g id="Node000002" class="node">
<title>Node2</title>
<g id="a_Node000002"><a xlink:href="../../dc/d5a/classTerraria_1_1GameContent_1_1Bestiary_1_1SpawnConditionBestiaryInfoElement.html" target="_top" xlink:title=" ">
<polygon fill="white" stroke="transparent" points="1100,-274 907,-274 907,-129 1100,-129 1100,-274"/>
<text text-anchor="start" x="914.5" y="-261.5" font-family="Helvetica,sans-Serif" font-size="10.00">Terraria.GameContent.Bestiary.</text>
<text text-anchor="start" x="914.5" y="-250.5" font-family="Helvetica,sans-Serif" font-size="10.00">SpawnConditionBestiaryInfoElement</text>
<text text-anchor="start" x="911.5" y="-235.5" font-family="Helvetica,sans-Serif" font-size="10.00">+</text>
<text text-anchor="start" x="924.5" y="-235.5" font-family="Helvetica,sans-Serif" font-size="10.00">float OrderPriority</text>
<text text-anchor="start" x="911.5" y="-220.5" font-family="Helvetica,sans-Serif" font-size="10.00">+</text>
<text text-anchor="start" x="924.5" y="-220.5" font-family="Helvetica,sans-Serif" font-size="10.00">SpawnConditionBestiaryInfo</text>
<text text-anchor="start" x="924.5" y="-209.5" font-family="Helvetica,sans-Serif" font-size="10.00">Element(string nameLanguageKey,</text>
<text text-anchor="start" x="924.5" y="-198.5" font-family="Helvetica,sans-Serif" font-size="10.00"> int filterIconFrame, string</text>
<text text-anchor="start" x="924.5" y="-187.5" font-family="Helvetica,sans-Serif" font-size="10.00"> backgroundImagePath=null, Color</text>
<text text-anchor="start" x="924.5" y="-176.5" font-family="Helvetica,sans-Serif" font-size="10.00">? backgroundColor=null)</text>
<text text-anchor="start" x="911.5" y="-161.5" font-family="Helvetica,sans-Serif" font-size="10.00">+</text>
<text text-anchor="start" x="924.5" y="-161.5" font-family="Helvetica,sans-Serif" font-size="10.00">Asset&lt; Texture2D &gt;</text>
<text text-anchor="start" x="924.5" y="-150.5" font-family="Helvetica,sans-Serif" font-size="10.00"> GetBackgroundImage()</text>
<text text-anchor="start" x="911.5" y="-135.5" font-family="Helvetica,sans-Serif" font-size="10.00">+</text>
<text text-anchor="start" x="924.5" y="-135.5" font-family="Helvetica,sans-Serif" font-size="10.00">Color? GetBackgroundColor()</text>
<polygon fill="#666666" stroke="#666666" points="907.5,-245.5 907.5,-245.5 1100.5,-245.5 1100.5,-245.5 907.5,-245.5"/>
<polygon fill="#666666" stroke="#666666" points="907.5,-230.5 907.5,-230.5 922.5,-230.5 922.5,-230.5 907.5,-230.5"/>
<polygon fill="#666666" stroke="#666666" points="922.5,-230.5 922.5,-230.5 1100.5,-230.5 1100.5,-230.5 922.5,-230.5"/>
<polygon fill="none" stroke="#666666" points="907,-129 907,-274 1100,-274 1100,-129 907,-129"/>
</a>
</g>
</g>
<!-- Node2&#45;&gt;Node1 -->
<g id="edge1_Node000001_Node000002" class="edge">
<title>Node2&#45;&gt;Node1</title>
<g id="a_edge1_Node000001_Node000002"><a xlink:title=" ">
<path fill="none" stroke="#63b8ff" d="M1003.5,-128.57C1003.5,-113.28 1003.5,-97.52 1003.5,-83.45"/>
<polygon fill="none" stroke="#63b8ff" points="1003.5,-83.07 999.5,-77.07 1003.5,-71.07 1007.5,-77.07 1003.5,-83.07"/>
</a>
</g>
<text text-anchor="middle" x="1033.5" y="-103" font-family="Helvetica,sans-Serif" font-size="10.00" fill="grey"> +DayTime</text>
<text text-anchor="middle" x="1033.5" y="-92" font-family="Helvetica,sans-Serif" font-size="10.00" fill="grey">+NightTime</text>
</g>
<!-- Node3 -->
<g id="Node000003" class="node">
<title>Node3</title>
<g id="a_Node000003"><a xlink:href="../../d4/daa/classTerraria_1_1GameContent_1_1Bestiary_1_1FilterProviderInfoElement.html" target="_top" xlink:title=" ">
<polygon fill="white" stroke="transparent" points="603.5,-541 417.5,-541 417.5,-321 603.5,-321 603.5,-541"/>
<text text-anchor="start" x="448" y="-529" font-family="Helvetica,sans-Serif" font-size="10.00">FilterProviderInfoElement</text>
<text text-anchor="start" x="421.5" y="-514" font-family="Helvetica,sans-Serif" font-size="10.00">+</text>
<text text-anchor="start" x="434.5" y="-514" font-family="Helvetica,sans-Serif" font-size="10.00">int DisplayTextPriority</text>
<text text-anchor="start" x="421.5" y="-499" font-family="Helvetica,sans-Serif" font-size="10.00">+</text>
<text text-anchor="start" x="434.5" y="-499" font-family="Helvetica,sans-Serif" font-size="10.00">bool HideInPortraitInfo</text>
<text text-anchor="start" x="421.5" y="-484" font-family="Helvetica,sans-Serif" font-size="10.00">+</text>
<text text-anchor="start" x="434.5" y="-484" font-family="Helvetica,sans-Serif" font-size="10.00">FilterProviderInfoElement</text>
<text text-anchor="start" x="434.5" y="-473" font-family="Helvetica,sans-Serif" font-size="10.00">(string nameLanguageKey,</text>
<text text-anchor="start" x="434.5" y="-462" font-family="Helvetica,sans-Serif" font-size="10.00"> int filterIconFrame)</text>
<text text-anchor="start" x="421.5" y="-447" font-family="Helvetica,sans-Serif" font-size="10.00">+</text>
<text text-anchor="start" x="434.5" y="-447" font-family="Helvetica,sans-Serif" font-size="10.00">UIElement GetFilterImage()</text>
<text text-anchor="start" x="421.5" y="-432" font-family="Helvetica,sans-Serif" font-size="10.00">+</text>
<text text-anchor="start" x="434.5" y="-432" font-family="Helvetica,sans-Serif" font-size="10.00">string GetSearchString</text>
<text text-anchor="start" x="434.5" y="-421" font-family="Helvetica,sans-Serif" font-size="10.00">(ref BestiaryUICollectionInfo info)</text>
<text text-anchor="start" x="421.5" y="-406" font-family="Helvetica,sans-Serif" font-size="10.00">+</text>
<text text-anchor="start" x="434.5" y="-406" font-family="Helvetica,sans-Serif" font-size="10.00">string GetDisplayNameKey()</text>
<text text-anchor="start" x="421.5" y="-391" font-family="Helvetica,sans-Serif" font-size="10.00">+</text>
<text text-anchor="start" x="434.5" y="-391" font-family="Helvetica,sans-Serif" font-size="10.00">UIElement ProvideUIElement</text>
<text text-anchor="start" x="434.5" y="-380" font-family="Helvetica,sans-Serif" font-size="10.00">(BestiaryUICollectionInfo info)</text>
<text text-anchor="start" x="424" y="-365" font-family="Helvetica,sans-Serif" font-size="10.00">&#45;</text>
<text text-anchor="start" x="434.5" y="-365" font-family="Helvetica,sans-Serif" font-size="10.00">void AddOnHover(UIElement</text>
<text text-anchor="start" x="434.5" y="-354" font-family="Helvetica,sans-Serif" font-size="10.00"> button)</text>
<text text-anchor="start" x="424" y="-339" font-family="Helvetica,sans-Serif" font-size="10.00">&#45;</text>
<text text-anchor="start" x="434.5" y="-339" font-family="Helvetica,sans-Serif" font-size="10.00">void ShowButtonName</text>
<text text-anchor="start" x="434.5" y="-328" font-family="Helvetica,sans-Serif" font-size="10.00">(UIElement element)</text>
<polygon fill="#666666" stroke="#666666" points="417.5,-524 417.5,-524 603.5,-524 603.5,-524 417.5,-524"/>
<polygon fill="#666666" stroke="#666666" points="417.5,-494 417.5,-494 432.5,-494 432.5,-494 417.5,-494"/>
<polygon fill="#666666" stroke="#666666" points="432.5,-494 432.5,-494 603.5,-494 603.5,-494 432.5,-494"/>
<polygon fill="none" stroke="#666666" points="417.5,-321 417.5,-541 603.5,-541 603.5,-321 417.5,-321"/>
</a>
</g>
</g>
<!-- Node3&#45;&gt;Node2 -->
<g id="edge2_Node000002_Node000003" class="edge">
<title>Node3&#45;&gt;Node2</title>
<g id="a_edge2_Node000002_Node000003"><a xlink:title=" ">
<path fill="none" stroke="#63b8ff" d="M612.63,-371.5C659.44,-345.71 716.06,-315.89 768.5,-292 813.19,-271.64 863.99,-251.89 906.89,-236.14"/>
<polygon fill="none" stroke="#63b8ff" points="610.77,-368.54 603.71,-376.44 614.15,-374.66 610.77,-368.54"/>
</a>
</g>
</g>
<!-- Node4 -->
<g id="Node000004" class="node">
<title>Node4</title>
<g id="a_Node000004"><a xlink:href="../../d0/d1a/interfaceTerraria_1_1GameContent_1_1Bestiary_1_1IFilterInfoProvider.html" target="_top" xlink:title=" ">
<polygon fill="white" stroke="transparent" points="161,-663 0,-663 0,-599 161,-599 161,-663"/>
<text text-anchor="start" x="37" y="-651" font-family="Helvetica,sans-Serif" font-size="10.00">IFilterInfoProvider</text>
<text text-anchor="start" x="79" y="-636" font-family="Helvetica,sans-Serif" font-size="10.00"> </text>
<text text-anchor="start" x="4.5" y="-621" font-family="Helvetica,sans-Serif" font-size="10.00">+</text>
<text text-anchor="start" x="17.5" y="-621" font-family="Helvetica,sans-Serif" font-size="10.00">UIElement GetFilterImage()</text>
<text text-anchor="start" x="4.5" y="-606" font-family="Helvetica,sans-Serif" font-size="10.00">+</text>
<text text-anchor="start" x="17.5" y="-606" font-family="Helvetica,sans-Serif" font-size="10.00">string GetDisplayNameKey()</text>
<polygon fill="#666666" stroke="#666666" points="0.5,-646 0.5,-646 161.5,-646 161.5,-646 0.5,-646"/>
<polygon fill="#666666" stroke="#666666" points="0.5,-631 0.5,-631 161.5,-631 161.5,-631 0.5,-631"/>
<polygon fill="none" stroke="#666666" points="0,-599 0,-663 161,-663 161,-599 0,-599"/>
</a>
</g>
</g>
<!-- Node4&#45;&gt;Node3 -->
<g id="edge3_Node000003_Node000004" class="edge">
<title>Node4&#45;&gt;Node3</title>
<g id="a_edge3_Node000003_Node000004"><a xlink:title=" ">
<path fill="none" stroke="#63b8ff" d="M157.29,-594.64C230.07,-561.13 339.53,-510.73 417.28,-474.93"/>
<polygon fill="none" stroke="#63b8ff" points="155.78,-591.48 148.16,-598.84 158.71,-597.84 155.78,-591.48"/>
</a>
</g>
</g>
<!-- Node5 -->
<g id="Node000005" class="node">
<title>Node5</title>
<g id="a_Node000005"><a xlink:href="../../d8/df8/interfaceTerraria_1_1GameContent_1_1Bestiary_1_1IProvideSearchFilterString.html" target="_top" xlink:title=" ">
<polygon fill="white" stroke="transparent" points="365.5,-661 179.5,-661 179.5,-601 365.5,-601 365.5,-661"/>
<text text-anchor="start" x="209" y="-649" font-family="Helvetica,sans-Serif" font-size="10.00">IProvideSearchFilterString</text>
<text text-anchor="start" x="270.5" y="-634" font-family="Helvetica,sans-Serif" font-size="10.00"> </text>
<text text-anchor="start" x="183.5" y="-619" font-family="Helvetica,sans-Serif" font-size="10.00">+</text>
<text text-anchor="start" x="196.5" y="-619" font-family="Helvetica,sans-Serif" font-size="10.00">string GetSearchString</text>
<text text-anchor="start" x="196.5" y="-608" font-family="Helvetica,sans-Serif" font-size="10.00">(ref BestiaryUICollectionInfo info)</text>
<polygon fill="#666666" stroke="#666666" points="179.5,-644 179.5,-644 365.5,-644 365.5,-644 179.5,-644"/>
<polygon fill="#666666" stroke="#666666" points="179.5,-629 179.5,-629 365.5,-629 365.5,-629 179.5,-629"/>
<polygon fill="none" stroke="#666666" points="179.5,-601 179.5,-661 365.5,-661 365.5,-601 179.5,-601"/>
</a>
</g>
</g>
<!-- Node5&#45;&gt;Node3 -->
<g id="edge4_Node000003_Node000005" class="edge">
<title>Node5&#45;&gt;Node3</title>
<g id="a_edge4_Node000003_Node000005"><a xlink:title=" ">
<path fill="none" stroke="#63b8ff" d="M315.11,-594.55C343.56,-570.88 382.1,-538.82 417.44,-509.42"/>
<polygon fill="none" stroke="#63b8ff" points="312.81,-591.91 307.36,-601 317.29,-597.29 312.81,-591.91"/>
</a>
</g>
</g>
<!-- Node6 -->
<g id="Node000006" class="node">
<title>Node6</title>
<g id="a_Node000006"><a xlink:href="../../d9/d8f/interfaceTerraria_1_1GameContent_1_1Bestiary_1_1IBestiaryInfoElement.html" target="_top" xlink:title=" ">
<polygon fill="white" stroke="transparent" points="552,-661 383,-661 383,-601 552,-601 552,-661"/>
<text text-anchor="start" x="416.5" y="-649" font-family="Helvetica,sans-Serif" font-size="10.00">IBestiaryInfoElement</text>
<text text-anchor="start" x="466" y="-634" font-family="Helvetica,sans-Serif" font-size="10.00"> </text>
<text text-anchor="start" x="387.5" y="-619" font-family="Helvetica,sans-Serif" font-size="10.00">+</text>
<text text-anchor="start" x="400.5" y="-619" font-family="Helvetica,sans-Serif" font-size="10.00">UIElement ProvideUIElement</text>
<text text-anchor="start" x="400.5" y="-608" font-family="Helvetica,sans-Serif" font-size="10.00">(BestiaryUICollectionInfo info)</text>
<polygon fill="#666666" stroke="#666666" points="383.5,-644 383.5,-644 552.5,-644 552.5,-644 383.5,-644"/>
<polygon fill="#666666" stroke="#666666" points="383.5,-629 383.5,-629 552.5,-629 552.5,-629 383.5,-629"/>
<polygon fill="none" stroke="#666666" points="383,-601 383,-661 552,-661 552,-601 383,-601"/>
</a>
</g>
</g>
<!-- Node6&#45;&gt;Node3 -->
<g id="edge5_Node000003_Node000006" class="edge">
<title>Node6&#45;&gt;Node3</title>
<g id="a_edge5_Node000003_Node000006"><a xlink:title=" ">
<path fill="none" stroke="#63b8ff" d="M476.03,-590.72C479.19,-576.18 482.94,-558.9 486.79,-541.18"/>
<polygon fill="none" stroke="#63b8ff" points="472.55,-590.27 473.84,-600.78 479.39,-591.76 472.55,-590.27"/>
</a>
</g>
</g>
<!-- Node7 -->
<g id="Node000007" class="node">
<title>Node7</title>
<g id="a_Node000007"><a xlink:href="../../d1/da0/classint.html" target="_top" xlink:title=" ">
<polygon fill="white" stroke="transparent" points="593,-655.5 570,-655.5 570,-606.5 593,-606.5 593,-655.5"/>
<text text-anchor="start" x="575.5" y="-643" font-family="Helvetica,sans-Serif" font-size="10.00">int</text>
<text text-anchor="start" x="580" y="-628" font-family="Helvetica,sans-Serif" font-size="10.00"> </text>
<text text-anchor="start" x="580" y="-613" font-family="Helvetica,sans-Serif" font-size="10.00"> </text>
<polygon fill="#666666" stroke="#666666" points="570.5,-638 570.5,-638 593.5,-638 593.5,-638 570.5,-638"/>
<polygon fill="#666666" stroke="#666666" points="570.5,-623 570.5,-623 593.5,-623 593.5,-623 570.5,-623"/>
<polygon fill="none" stroke="#666666" points="570,-606.5 570,-655.5 593,-655.5 593,-606.5 570,-606.5"/>
</a>
</g>
</g>
<!-- Node7&#45;&gt;Node3 -->
<g id="edge6_Node000003_Node000007" class="edge">
<title>Node7&#45;&gt;Node3</title>
<g id="a_edge6_Node000003_Node000007"><a xlink:title=" ">
<path fill="none" stroke="#63b8ff" d="M569.79,-608.81C567.1,-605.19 563.98,-601.72 560.5,-599 542.22,-584.71 524.84,-599.98 511.5,-581 505.51,-572.48 501.38,-562.96 498.67,-552.96"/>
<polygon fill="none" stroke="#63b8ff" points="498.63,-552.76 493.47,-547.73 496.12,-541.03 501.29,-546.06 498.63,-552.76"/>
</a>
</g>
<text text-anchor="middle" x="559" y="-573" font-family="Helvetica,sans-Serif" font-size="10.00" fill="grey"> &#45;framesPerColumn</text>
<text text-anchor="middle" x="559" y="-562" font-family="Helvetica,sans-Serif" font-size="10.00" fill="grey">&#45;framesPerRow</text>
</g>
<!-- Node8 -->
<g id="Node000008" class="node">
<title>Node8</title>
<g id="a_Node000008"><a xlink:title=" ">
<polygon fill="white" stroke="transparent" points="646,-655.5 611,-655.5 611,-606.5 646,-606.5 646,-655.5"/>
<text text-anchor="start" x="616.5" y="-643" font-family="Helvetica,sans-Serif" font-size="10.00">Point</text>
<text text-anchor="start" x="627" y="-628" font-family="Helvetica,sans-Serif" font-size="10.00"> </text>
<text text-anchor="start" x="627" y="-613" font-family="Helvetica,sans-Serif" font-size="10.00"> </text>
<polygon fill="#666666" stroke="#666666" points="611.5,-638 611.5,-638 646.5,-638 646.5,-638 611.5,-638"/>
<polygon fill="#666666" stroke="#666666" points="611.5,-623 611.5,-623 646.5,-623 646.5,-623 611.5,-623"/>
<polygon fill="none" stroke="#666666" points="611,-606.5 611,-655.5 646,-655.5 646,-606.5 611,-606.5"/>
</a>
</g>
</g>
<!-- Node8&#45;&gt;Node3 -->
<g id="edge7_Node000003_Node000008" class="edge">
<title>Node8&#45;&gt;Node3</title>
<g id="a_edge7_Node000003_Node000008"><a xlink:title=" ">
<path fill="none" stroke="#63b8ff" d="M623.32,-606.18C619.71,-592 614.16,-573.93 606.5,-559 605.27,-556.6 603.99,-554.2 602.68,-551.81"/>
<polygon fill="none" stroke="#63b8ff" points="602.64,-551.73 596.18,-548.51 596.67,-541.32 603.12,-544.53 602.64,-551.73"/>
</a>
</g>
<text text-anchor="middle" x="658.5" y="-567.5" font-family="Helvetica,sans-Serif" font-size="10.00" fill="grey"> &#45;_filterIconFrame</text>
</g>
<!-- Node9 -->
<g id="Node000009" class="node">
<title>Node9</title>
<g id="a_Node000009"><a xlink:href="../../d5/d92/classstring.html" target="_top" xlink:title=" ">
<polygon fill="white" stroke="transparent" points="779.5,-655.5 741.5,-655.5 741.5,-606.5 779.5,-606.5 779.5,-655.5"/>
<text text-anchor="start" x="746.5" y="-643" font-family="Helvetica,sans-Serif" font-size="10.00">string</text>
<text text-anchor="start" x="758.5" y="-628" font-family="Helvetica,sans-Serif" font-size="10.00"> </text>
<text text-anchor="start" x="758.5" y="-613" font-family="Helvetica,sans-Serif" font-size="10.00"> </text>
<polygon fill="#666666" stroke="#666666" points="741.5,-638 741.5,-638 779.5,-638 779.5,-638 741.5,-638"/>
<polygon fill="#666666" stroke="#666666" points="741.5,-623 741.5,-623 779.5,-623 779.5,-623 741.5,-623"/>
<polygon fill="none" stroke="#666666" points="741.5,-606.5 741.5,-655.5 779.5,-655.5 779.5,-606.5 741.5,-606.5"/>
</a>
</g>
</g>
<!-- Node9&#45;&gt;Node2 -->
<g id="edge11_Node000002_Node000009" class="edge">
<title>Node9&#45;&gt;Node2</title>
<g id="a_edge11_Node000002_Node000009"><a xlink:title=" ">
<path fill="none" stroke="#63b8ff" d="M761.61,-606.43C765.01,-538.35 775.94,-344.72 791.5,-321 816.07,-283.54 856.77,-256.76 895.98,-238.25"/>
<polygon fill="none" stroke="#63b8ff" points="896.06,-238.21 899.86,-232.09 906.98,-233.24 903.17,-239.37 896.06,-238.21"/>
</a>
</g>
<text text-anchor="middle" x="852" y="-428.5" font-family="Helvetica,sans-Serif" font-size="10.00" fill="grey"> &#45;_backgroundImagePath</text>
</g>
<!-- Node9&#45;&gt;Node3 -->
<g id="edge8_Node000003_Node000009" class="edge">
<title>Node9&#45;&gt;Node3</title>
<g id="a_edge8_Node000003_Node000009"><a xlink:title=" ">
<path fill="none" stroke="#63b8ff" d="M745.17,-606.31C735,-591.67 720.75,-573.05 705.5,-559 678.14,-533.79 645.23,-510.28 614.3,-490.52"/>
<polygon fill="none" stroke="#63b8ff" points="614.05,-490.36 606.84,-490.54 603.9,-483.96 611.11,-483.78 614.05,-490.36"/>
</a>
</g>
<text text-anchor="middle" x="741.5" y="-567.5" font-family="Helvetica,sans-Serif" font-size="10.00" fill="grey"> &#45;_key</text>
</g>
<!-- Node10 -->
<g id="Node000010" class="node">
<title>Node10</title>
<g id="a_Node000010"><a xlink:href="../../d2/dfa/interfaceTerraria_1_1GameContent_1_1Bestiary_1_1IBestiaryBackgroundImagePathAndColorProvider.html" target="_top" xlink:title=" ">
<polygon fill="white" stroke="transparent" points="1085,-474 922,-474 922,-388 1085,-388 1085,-474"/>
<text text-anchor="start" x="937.5" y="-462" font-family="Helvetica,sans-Serif" font-size="10.00">IBestiaryBackgroundImage</text>
<text text-anchor="start" x="951" y="-451" font-family="Helvetica,sans-Serif" font-size="10.00">PathAndColorProvider</text>
<text text-anchor="start" x="1002" y="-436" font-family="Helvetica,sans-Serif" font-size="10.00"> </text>
<text text-anchor="start" x="926.5" y="-421" font-family="Helvetica,sans-Serif" font-size="10.00">+</text>
<text text-anchor="start" x="939.5" y="-421" font-family="Helvetica,sans-Serif" font-size="10.00">Asset&lt; Texture2D &gt;</text>
<text text-anchor="start" x="939.5" y="-410" font-family="Helvetica,sans-Serif" font-size="10.00"> GetBackgroundImage()</text>
<text text-anchor="start" x="926.5" y="-395" font-family="Helvetica,sans-Serif" font-size="10.00">+</text>
<text text-anchor="start" x="939.5" y="-395" font-family="Helvetica,sans-Serif" font-size="10.00">Color? GetBackgroundColor()</text>
<polygon fill="#666666" stroke="#666666" points="922.5,-446 922.5,-446 1085.5,-446 1085.5,-446 922.5,-446"/>
<polygon fill="#666666" stroke="#666666" points="922.5,-431 922.5,-431 1085.5,-431 1085.5,-431 922.5,-431"/>
<polygon fill="none" stroke="#666666" points="922,-388 922,-474 1085,-474 1085,-388 922,-388"/>
</a>
</g>
</g>
<!-- Node10&#45;&gt;Node2 -->
<g id="edge9_Node000002_Node000010" class="edge">
<title>Node10&#45;&gt;Node2</title>
<g id="a_edge9_Node000002_Node000010"><a xlink:title=" ">
<path fill="none" stroke="#63b8ff" d="M1003.5,-377.66C1003.5,-346.92 1003.5,-307.62 1003.5,-274.04"/>
<polygon fill="none" stroke="#63b8ff" points="1000,-377.74 1003.5,-387.74 1007,-377.74 1000,-377.74"/>
</a>
</g>
</g>
<!-- Node11 -->
<g id="Node000011" class="node">
<title>Node11</title>
<g id="a_Node000011"><a xlink:href="../../d4/d02/interfaceTerraria_1_1GameContent_1_1Bestiary_1_1IBestiaryPrioritizedElement.html" target="_top" xlink:title=" ">
<polygon fill="white" stroke="transparent" points="1247.5,-455.5 1103.5,-455.5 1103.5,-406.5 1247.5,-406.5 1247.5,-455.5"/>
<text text-anchor="start" x="1108.5" y="-443" font-family="Helvetica,sans-Serif" font-size="10.00">IBestiaryPrioritizedElement</text>
<text text-anchor="start" x="1116" y="-428" font-family="Helvetica,sans-Serif" font-size="10.00">+</text>
<text text-anchor="start" x="1137.5" y="-428" font-family="Helvetica,sans-Serif" font-size="10.00">float OrderPriority</text>
<text text-anchor="start" x="1173.5" y="-413" font-family="Helvetica,sans-Serif" font-size="10.00"> </text>
<polygon fill="#666666" stroke="#666666" points="1103.5,-438 1103.5,-438 1247.5,-438 1247.5,-438 1103.5,-438"/>
<polygon fill="#666666" stroke="#666666" points="1103.5,-423 1103.5,-423 1135.5,-423 1135.5,-423 1103.5,-423"/>
<polygon fill="#666666" stroke="#666666" points="1135.5,-423 1135.5,-423 1247.5,-423 1247.5,-423 1135.5,-423"/>
<polygon fill="none" stroke="#666666" points="1103.5,-406.5 1103.5,-455.5 1247.5,-455.5 1247.5,-406.5 1103.5,-406.5"/>
</a>
</g>
</g>
<!-- Node11&#45;&gt;Node2 -->
<g id="edge10_Node000002_Node000011" class="edge">
<title>Node11&#45;&gt;Node2</title>
<g id="a_edge10_Node000002_Node000011"><a xlink:title=" ">
<path fill="none" stroke="#63b8ff" d="M1151.44,-397.94C1135.12,-376.21 1113.04,-346.85 1093.5,-321 1082.05,-305.85 1069.76,-289.64 1058.05,-274.21"/>
<polygon fill="none" stroke="#63b8ff" points="1148.81,-400.27 1157.62,-406.16 1154.41,-396.06 1148.81,-400.27"/>
</a>
</g>
</g>
<!-- Node12 -->
<g id="Node000012" class="node">
<title>Node12</title>
<g id="a_Node000012"><a xlink:title=" ">
<polygon fill="white" stroke="transparent" points="1301.5,-455.5 1265.5,-455.5 1265.5,-406.5 1301.5,-406.5 1301.5,-455.5"/>
<text text-anchor="start" x="1270.5" y="-443" font-family="Helvetica,sans-Serif" font-size="10.00">Color</text>
<text text-anchor="start" x="1281.5" y="-428" font-family="Helvetica,sans-Serif" font-size="10.00"> </text>
<text text-anchor="start" x="1281.5" y="-413" font-family="Helvetica,sans-Serif" font-size="10.00"> </text>
<polygon fill="#666666" stroke="#666666" points="1265.5,-438 1265.5,-438 1301.5,-438 1301.5,-438 1265.5,-438"/>
<polygon fill="#666666" stroke="#666666" points="1265.5,-423 1265.5,-423 1301.5,-423 1301.5,-423 1265.5,-423"/>
<polygon fill="none" stroke="#666666" points="1265.5,-406.5 1265.5,-455.5 1301.5,-455.5 1301.5,-406.5 1265.5,-406.5"/>
</a>
</g>
</g>
<!-- Node12&#45;&gt;Node2 -->
<g id="edge12_Node000002_Node000012" class="edge">
<title>Node12&#45;&gt;Node2</title>
<g id="a_edge12_Node000002_Node000012"><a xlink:title=" ">
<path fill="none" stroke="#63b8ff" d="M1283.34,-406.13C1281.97,-382.11 1276.43,-345.25 1256.5,-321 1219.79,-276.32 1162.39,-247.55 1111.54,-229.57"/>
<polygon fill="none" stroke="#63b8ff" points="1111.48,-229.55 1104.51,-231.39 1100.13,-225.67 1107.1,-223.82 1111.48,-229.55"/>
</a>
</g>
<text text-anchor="middle" x="1283" y="-295" font-family="Helvetica,sans-Serif" font-size="10.00" fill="grey"> &#45;_backgroundColor</text>
</g>
</g>
</svg>

<g id="navigator" transform="translate(0 0)" fill="#404254">
  <rect fill="#f2f5e9" fill-opacity="0.5" stroke="#606060" stroke-width=".5" x="0" y="0" width="60" height="60"/>
  <use id="zoomplus" xlink:href="#zoomPlus" x="17" y="9" onmousedown="handleZoom(evt,'in')"/>
  <use id="zoomminus" xlink:href="#zoomMin" x="42" y="9" onmousedown="handleZoom(evt,'out')"/>
  <use id="reset" xlink:href="#resetDef" x="30" y="36" onmousedown="handleReset()"/>
   <use id="arrowup" xlink:href="#arrowUp" x="0" y="0" onmousedown="handlePan(0,-1)"/>
  <use id="arrowright" xlink:href="#arrowRight" x="0" y="0" onmousedown="handlePan(1,0)"/>
  <use id="arrowdown" xlink:href="#arrowDown" x="0" y="0" onmousedown="handlePan(0,1)"/>
  <use id="arrowleft" xlink:href="#arrowLeft" x="0" y="0" onmousedown="handlePan(-1,0)"/>
</g>
<svg viewBox="0 0 15 15" width="100%" height="30px" preserveAspectRatio="xMaxYMin meet">
 <g id="arrow_out" transform="scale(0.3 0.3)">
  <a xlink:href="classTerraria_1_1GameContent_1_1Bestiary_1_1BestiaryDatabaseNPCsPopulator_1_1CommonTags_1_1Spawn520bbce456fdc93cc57ae204520d6804_org.svg" target="_base">
   <rect id="button" ry="5" rx="5" y="6" x="6" height="38" width="38"
        fill="#f2f5e9" fill-opacity="0.5" stroke="#606060" stroke-width="1.0"/>
   <path id="arrow"
     d="M 11.500037,31.436501 C 11.940474,20.09759 22.043105,11.32322 32.158766,21.979434 L 37.068811,17.246167 C 37.068811,17.246167 37.088388,32 37.088388,32 L 22.160133,31.978069 C 22.160133,31.978069 26.997745,27.140456 26.997745,27.140456 C 18.528582,18.264221 13.291696,25.230495 11.500037,31.436501 z"
     style="fill:#404040;"/>
  </a>
 </g>
</svg>

<style type='text/css'>
<![CDATA[
[data-mouse-over-selected='false'] { opacity: 0.7; }
[data-mouse-over-selected='true']  { opacity: 1.0; }
]]>
</style>
<script type="application/ecmascript"><![CDATA[
document.addEventListener('DOMContentLoaded', (event) => {
  highlightEdges();
  highlightAdjacentNodes();
});
]]></script>
</svg>
