<?xml version="1.0" encoding="UTF-8" standalone="no"?>
<!DOCTYPE svg PUBLIC "-//W3C//DTD SVG 1.1//EN"
 "http://www.w3.org/Graphics/SVG/1.1/DTD/svg11.dtd">
<!-- Generated by graphviz version 2.43.0 (0)
 -->
<!-- Title: Item.SetDefaults5 Pages: 1 -->
<!--zoomable 1128 -->
<svg id="main" version="1.1" xmlns="http://www.w3.org/2000/svg" xmlns:xlink="http://www.w3.org/1999/xlink" xml:space="preserve" onload="init(evt)">
<style type="text/css"><![CDATA[
.edge:hover path { stroke: red; }
.edge:hover polygon { stroke: red; fill: red; }
]]></style>
<script type="text/javascript"><![CDATA[
var edges = document.getElementsByTagName('g');
if (edges && edges.length) {
  for (var i=0;i<edges.length;i++) {
    if (edges[i].id.substr(0,4)=='edge') {
      edges[i].setAttribute('class','edge');
    }
  }
}
]]></script>
        <defs>
                <circle id="rim" cx="0" cy="0" r="7"/>
                <circle id="rim2" cx="0" cy="0" r="3.5"/>
                <g id="zoomPlus">
                        <use xlink:href="#rim" fill="#404040">
                                <set attributeName="fill" to="#808080" begin="zoomplus.mouseover" end="zoomplus.mouseout"/>
                        </use>
                        <path d="M-4,0h8M0,-4v8" fill="none" stroke="white" stroke-width="1.5" pointer-events="none"/>
                </g>
                <g id="zoomMin">
                        <use xlink:href="#rim" fill="#404040">
                                <set attributeName="fill" to="#808080" begin="zoomminus.mouseover" end="zoomminus.mouseout"/>
                        </use>
                        <path d="M-4,0h8" fill="none" stroke="white" stroke-width="1.5" pointer-events="none"/>
                </g>
                <g id="dirArrow">
                        <path fill="none" stroke="white" stroke-width="1.5" d="M0,-3.0v7 M-2.5,-0.5L0,-3.0L2.5,-0.5"/>
                </g>
               <g id="resetDef">
                       <use xlink:href="#rim2" fill="#404040">
                               <set attributeName="fill" to="#808080" begin="reset.mouseover" end="reset.mouseout"/>
                       </use>
               </g>
        </defs>

<script type="text/javascript">
var viewWidth = 513;
var viewHeight = 1128;
var sectionId = 'dynsection-0';
</script>
<script xlink:href="../../svgpan.js"/>
<svg id="graph" class="graph">
<g id="viewport">
<title>Item.SetDefaults5</title>
<polygon fill="white" stroke="transparent" points="-4,4 -4,-1123.56 509,-1123.56 509,4 -4,4"/>
<!-- Node1 -->
<g id="node1" class="node">
<title>Node1</title>
<g id="a_node1"><a xlink:title=" ">
<polygon fill="#bfbfbf" stroke="black" points="0,-551.5 0,-570.5 105,-570.5 105,-551.5 0,-551.5"/>
<text text-anchor="middle" x="52.5" y="-558.5" font-family="Helvetica,sans-Serif" font-size="10.00">Item.SetDefaults5</text>
</a>
</g>
</g>
<!-- Node2 -->
<g id="node2" class="node">
<title>Node2</title>
<g id="a_node2"><a xlink:href="../../d0/dae/classItem_ae9396042f559601050ad34dfe823ee89.html#ae9396042f559601050ad34dfe823ee89" target="_top" xlink:title=" ">
<polygon fill="white" stroke="black" points="381,-1026.5 381,-1045.5 465,-1045.5 465,-1026.5 381,-1026.5"/>
<text text-anchor="middle" x="423" y="-1033.5" font-family="Helvetica,sans-Serif" font-size="10.00">Item.buyPrice</text>
</a>
</g>
</g>
<!-- Node1&#45;&gt;Node2 -->
<g id="edge1" class="edge">
<title>Node1&#45;&gt;Node2</title>
<path fill="none" stroke="midnightblue" d="M53.48,-570.54C53.54,-636.33 57.51,-1022.12 141,-1093 217.61,-1158.04 348.14,-1085.05 399.9,-1051.29"/>
<polygon fill="midnightblue" stroke="midnightblue" points="401.96,-1054.12 408.35,-1045.67 398.08,-1048.29 401.96,-1054.12"/>
</g>
<!-- Node3 -->
<g id="node3" class="node">
<title>Node3</title>
<g id="a_node3"><a xlink:href="../../d0/dae/classItem_a4b68055ac850e3374573e6a1ec0f0a4c.html#a4b68055ac850e3374573e6a1ec0f0a4c" target="_top" xlink:title=" ">
<polygon fill="white" stroke="black" points="154,-836.5 154,-855.5 292,-855.5 292,-836.5 154,-836.5"/>
<text text-anchor="middle" x="223" y="-843.5" font-family="Helvetica,sans-Serif" font-size="10.00">Item.DefaultToAccessory</text>
</a>
</g>
</g>
<!-- Node1&#45;&gt;Node3 -->
<g id="edge2" class="edge">
<title>Node1&#45;&gt;Node3</title>
<path fill="none" stroke="midnightblue" d="M53.72,-570.7C55.1,-608.71 65.35,-748.98 141,-822 145.09,-825.95 149.8,-829.25 154.84,-832.01"/>
<polygon fill="midnightblue" stroke="midnightblue" points="153.69,-835.33 164.22,-836.42 156.66,-829 153.69,-835.33"/>
</g>
<!-- Node4 -->
<g id="node4" class="node">
<title>Node4</title>
<g id="a_node4"><a xlink:href="../../d0/dae/classItem_a44d0a13e5be52f0b91fdede47cf38c7c.html#a44d0a13e5be52f0b91fdede47cf38c7c" target="_top" xlink:title=" ">
<polygon fill="white" stroke="black" points="168,-760.5 168,-779.5 278,-779.5 278,-760.5 168,-760.5"/>
<text text-anchor="middle" x="223" y="-767.5" font-family="Helvetica,sans-Serif" font-size="10.00">Item.DefaultToBow</text>
</a>
</g>
</g>
<!-- Node1&#45;&gt;Node4 -->
<g id="edge3" class="edge">
<title>Node1&#45;&gt;Node4</title>
<path fill="none" stroke="midnightblue" d="M54.93,-570.69C60.1,-602.1 80.81,-701.84 141,-751 146.07,-755.14 151.87,-758.41 158,-760.98"/>
<polygon fill="midnightblue" stroke="midnightblue" points="157.24,-764.43 167.84,-764.49 159.59,-757.83 157.24,-764.43"/>
</g>
<!-- Node5 -->
<g id="node5" class="node">
<title>Node5</title>
<g id="a_node5"><a xlink:href="../../d0/dae/classItem_abeed7c1e5eacb8797aeecc9d158d0b41.html#abeed7c1e5eacb8797aeecc9d158d0b41" target="_top" xlink:title=" ">
<polygon fill="white" stroke="black" points="341,-779.5 341,-798.5 505,-798.5 505,-779.5 341,-779.5"/>
<text text-anchor="middle" x="423" y="-786.5" font-family="Helvetica,sans-Serif" font-size="10.00">Item.DefaultToRangedWeapon</text>
</a>
</g>
</g>
<!-- Node1&#45;&gt;Node5 -->
<g id="edge25" class="edge">
<title>Node1&#45;&gt;Node5</title>
<path fill="none" stroke="midnightblue" d="M53.66,-570.62C54.85,-606.94 64.48,-736.4 141,-789 214.39,-839.44 325.99,-817.95 383.99,-801.46"/>
<polygon fill="midnightblue" stroke="midnightblue" points="385.24,-804.74 393.84,-798.56 383.26,-798.03 385.24,-804.74"/>
</g>
<!-- Node6 -->
<g id="node6" class="node">
<title>Node6</title>
<g id="a_node6"><a xlink:href="../../d0/dae/classItem_a66817d6c72f281eef52f9c82b58a2936.html#a66817d6c72f281eef52f9c82b58a2936" target="_top" xlink:title=" ">
<polygon fill="white" stroke="black" points="141,-722.5 141,-741.5 305,-741.5 305,-722.5 141,-722.5"/>
<text text-anchor="middle" x="223" y="-729.5" font-family="Helvetica,sans-Serif" font-size="10.00">Item.DefaultToCapturedCritter</text>
</a>
</g>
</g>
<!-- Node1&#45;&gt;Node6 -->
<g id="edge5" class="edge">
<title>Node1&#45;&gt;Node6</title>
<path fill="none" stroke="midnightblue" d="M56.1,-570.65C63.93,-597.74 89.93,-675.02 141,-713 143.53,-714.88 146.21,-716.58 149.01,-718.11"/>
<polygon fill="midnightblue" stroke="midnightblue" points="147.72,-721.37 158.26,-722.46 150.7,-715.04 147.72,-721.37"/>
</g>
<!-- Node7 -->
<g id="node7" class="node">
<title>Node7</title>
<g id="a_node7"><a xlink:href="../../d0/dae/classItem_aee75bcf06e3325fe8c165a3b24a0ae73.html#aee75bcf06e3325fe8c165a3b24a0ae73" target="_top" xlink:title=" ">
<polygon fill="white" stroke="black" points="167,-1064.5 167,-1083.5 279,-1083.5 279,-1064.5 167,-1064.5"/>
<text text-anchor="middle" x="223" y="-1071.5" font-family="Helvetica,sans-Serif" font-size="10.00">Item.DefaultToFood</text>
</a>
</g>
</g>
<!-- Node1&#45;&gt;Node7 -->
<g id="edge6" class="edge">
<title>Node1&#45;&gt;Node7</title>
<path fill="none" stroke="midnightblue" d="M53.82,-570.86C56.05,-634.03 71.4,-981.46 141,-1055 145.56,-1059.82 151.09,-1063.52 157.1,-1066.35"/>
<polygon fill="midnightblue" stroke="midnightblue" points="156.27,-1069.78 166.86,-1070.11 158.79,-1063.25 156.27,-1069.78"/>
</g>
<!-- Node8 -->
<g id="node8" class="node">
<title>Node8</title>
<g id="a_node8"><a xlink:href="../../d0/dae/classItem_a0b8a6ab0ee5fc8c511629256dc772bbd.html#a0b8a6ab0ee5fc8c511629256dc772bbd" target="_top" xlink:title=" ">
<polygon fill="white" stroke="black" points="159,-988.5 159,-1007.5 287,-1007.5 287,-988.5 159,-988.5"/>
<text text-anchor="middle" x="223" y="-995.5" font-family="Helvetica,sans-Serif" font-size="10.00">Item.DefaultToGolfBall</text>
</a>
</g>
</g>
<!-- Node1&#45;&gt;Node8 -->
<g id="edge8" class="edge">
<title>Node1&#45;&gt;Node8</title>
<path fill="none" stroke="midnightblue" d="M54.15,-570.8C58.17,-627.95 81.31,-917.86 141,-979 143.68,-981.75 146.68,-984.13 149.89,-986.19"/>
<polygon fill="midnightblue" stroke="midnightblue" points="148.39,-989.35 158.86,-990.93 151.66,-983.16 148.39,-989.35"/>
</g>
<!-- Node9 -->
<g id="node9" class="node">
<title>Node9</title>
<g id="a_node9"><a xlink:href="../../d0/dae/classItem_a31ed2d402ea04272696879770ff21a5b.html#a31ed2d402ea04272696879770ff21a5b" target="_top" xlink:title=" ">
<polygon fill="white" stroke="black" points="366,-950.5 366,-969.5 480,-969.5 480,-950.5 366,-950.5"/>
<text text-anchor="middle" x="423" y="-957.5" font-family="Helvetica,sans-Serif" font-size="10.00">Item.SetShopValues</text>
</a>
</g>
</g>
<!-- Node1&#45;&gt;Node9 -->
<g id="edge40" class="edge">
<title>Node1&#45;&gt;Node9</title>
<path fill="none" stroke="midnightblue" d="M54.69,-570.76C60.96,-620.84 91.89,-848.42 141,-896 156.43,-910.95 277.69,-934.66 355.79,-948.63"/>
<polygon fill="midnightblue" stroke="midnightblue" points="355.58,-952.15 366.04,-950.46 356.81,-945.26 355.58,-952.15"/>
</g>
<!-- Node10 -->
<g id="node10" class="node">
<title>Node10</title>
<g id="a_node10"><a xlink:href="../../d0/dae/classItem_a4b57bdecb39eb5ff6d258a6d78cbc348.html#a4b57bdecb39eb5ff6d258a6d78cbc348" target="_top" xlink:title=" ">
<polygon fill="white" stroke="black" points="157.5,-684.5 157.5,-703.5 288.5,-703.5 288.5,-684.5 157.5,-684.5"/>
<text text-anchor="middle" x="223" y="-691.5" font-family="Helvetica,sans-Serif" font-size="10.00">Item.DefaultToGolfClub</text>
</a>
</g>
</g>
<!-- Node1&#45;&gt;Node10 -->
<g id="edge11" class="edge">
<title>Node1&#45;&gt;Node10</title>
<path fill="none" stroke="midnightblue" d="M58.05,-570.76C68.96,-593.03 98.87,-647.8 141,-675 144.16,-677.04 147.51,-678.86 150.99,-680.49"/>
<polygon fill="midnightblue" stroke="midnightblue" points="149.85,-683.8 160.43,-684.35 152.5,-677.32 149.85,-683.8"/>
</g>
<!-- Node11 -->
<g id="node11" class="node">
<title>Node11</title>
<g id="a_node11"><a xlink:href="../../d0/dae/classItem_a6f9ed8b3490d38d9c6dffb8b0ae2802e.html#a6f9ed8b3490d38d9c6dffb8b0ae2802e" target="_top" xlink:title=" ">
<polygon fill="white" stroke="black" points="163.5,-646.5 163.5,-665.5 282.5,-665.5 282.5,-646.5 163.5,-646.5"/>
<text text-anchor="middle" x="223" y="-653.5" font-family="Helvetica,sans-Serif" font-size="10.00">Item.DefaultToGuitar</text>
</a>
</g>
</g>
<!-- Node1&#45;&gt;Node11 -->
<g id="edge12" class="edge">
<title>Node1&#45;&gt;Node11</title>
<path fill="none" stroke="midnightblue" d="M61.61,-570.59C75.92,-586.86 107.32,-619.77 141,-637 145.62,-639.36 150.55,-641.44 155.59,-643.26"/>
<polygon fill="midnightblue" stroke="midnightblue" points="154.81,-646.69 165.4,-646.46 156.98,-640.03 154.81,-646.69"/>
</g>
<!-- Node12 -->
<g id="node12" class="node">
<title>Node12</title>
<g id="a_node12"><a xlink:href="../../d0/dae/classItem_a831741d94b6d8604ca81534e414969b9.html#a831741d94b6d8604ca81534e414969b9" target="_top" xlink:title=" ">
<polygon fill="white" stroke="black" points="155,-608.5 155,-627.5 291,-627.5 291,-608.5 155,-608.5"/>
<text text-anchor="middle" x="223" y="-615.5" font-family="Helvetica,sans-Serif" font-size="10.00">Item.DefaultToHeadgear</text>
</a>
</g>
</g>
<!-- Node1&#45;&gt;Node12 -->
<g id="edge13" class="edge">
<title>Node1&#45;&gt;Node12</title>
<path fill="none" stroke="midnightblue" d="M72.91,-570.63C90.39,-579.01 116.95,-591.03 141,-599 148.7,-601.55 156.92,-603.9 165.06,-606.01"/>
<polygon fill="midnightblue" stroke="midnightblue" points="164.36,-609.44 174.91,-608.46 166.06,-602.65 164.36,-609.44"/>
</g>
<!-- Node13 -->
<g id="node13" class="node">
<title>Node13</title>
<g id="a_node13"><a xlink:href="../../d0/dae/classItem_ae86ce0d06f419edc9aa4d8ab943c847a.html#ae86ce0d06f419edc9aa4d8ab943c847a" target="_top" xlink:title=" ">
<polygon fill="white" stroke="black" points="169.5,-950.5 169.5,-969.5 276.5,-969.5 276.5,-950.5 169.5,-950.5"/>
<text text-anchor="middle" x="223" y="-957.5" font-family="Helvetica,sans-Serif" font-size="10.00">Item.DefaultTokite</text>
</a>
</g>
</g>
<!-- Node1&#45;&gt;Node13 -->
<g id="edge14" class="edge">
<title>Node1&#45;&gt;Node13</title>
<path fill="none" stroke="midnightblue" d="M54.46,-570.78C59.91,-624.18 88.49,-880.31 141,-936 146.19,-941.5 152.57,-945.76 159.46,-949.06"/>
<polygon fill="midnightblue" stroke="midnightblue" points="158.52,-952.45 169.1,-952.98 161.15,-945.97 158.52,-952.45"/>
</g>
<!-- Node14 -->
<g id="node14" class="node">
<title>Node14</title>
<g id="a_node14"><a xlink:href="../../d0/dae/classItem_a6d0580c12112603bee5cfa8a44126b85.html#a6d0580c12112603bee5cfa8a44126b85" target="_top" xlink:title=" ">
<polygon fill="white" stroke="black" points="341,-893.5 341,-912.5 505,-912.5 505,-893.5 341,-893.5"/>
<text text-anchor="middle" x="423" y="-900.5" font-family="Helvetica,sans-Serif" font-size="10.00">Item.DefaultToThrownWeapon</text>
</a>
</g>
</g>
<!-- Node1&#45;&gt;Node14 -->
<g id="edge33" class="edge">
<title>Node1&#45;&gt;Node14</title>
<path fill="none" stroke="midnightblue" d="M54.84,-570.56C61.66,-617.66 93.93,-824.34 141,-865 168.78,-889 259.59,-897.93 330.55,-901.21"/>
<polygon fill="midnightblue" stroke="midnightblue" points="330.72,-904.72 340.86,-901.65 331.02,-897.73 330.72,-904.72"/>
</g>
<!-- Node15 -->
<g id="node15" class="node">
<title>Node15</title>
<g id="a_node15"><a xlink:href="../../d0/dae/classItem_a476e86363c117d0d9c7f63782387bec0.html#a476e86363c117d0d9c7f63782387bec0" target="_top" xlink:title=" ">
<polygon fill="white" stroke="black" points="149.5,-570.5 149.5,-589.5 296.5,-589.5 296.5,-570.5 149.5,-570.5"/>
<text text-anchor="middle" x="223" y="-577.5" font-family="Helvetica,sans-Serif" font-size="10.00">Item.DefaultToLawnMower</text>
</a>
</g>
</g>
<!-- Node1&#45;&gt;Node15 -->
<g id="edge18" class="edge">
<title>Node1&#45;&gt;Node15</title>
<path fill="none" stroke="midnightblue" d="M105.43,-566.86C116.2,-568.07 127.8,-569.38 139.36,-570.68"/>
<polygon fill="midnightblue" stroke="midnightblue" points="139.16,-574.18 149.49,-571.82 139.94,-567.22 139.16,-574.18"/>
</g>
<!-- Node16 -->
<g id="node16" class="node">
<title>Node16</title>
<g id="a_node16"><a xlink:href="../../d0/dae/classItem_a1c4234850be36ca5bba7c8901b16df52.html#a1c4234850be36ca5bba7c8901b16df52" target="_top" xlink:title=" ">
<polygon fill="white" stroke="black" points="344.5,-513.5 344.5,-532.5 501.5,-532.5 501.5,-513.5 344.5,-513.5"/>
<text text-anchor="middle" x="423" y="-520.5" font-family="Helvetica,sans-Serif" font-size="10.00">Item.DefaultToMagicWeapon</text>
</a>
</g>
</g>
<!-- Node1&#45;&gt;Node16 -->
<g id="edge19" class="edge">
<title>Node1&#45;&gt;Node16</title>
<path fill="none" stroke="midnightblue" d="M105.13,-555.68C164.41,-549.56 262.65,-539.43 334.06,-532.07"/>
<polygon fill="midnightblue" stroke="midnightblue" points="334.8,-535.51 344.39,-531 334.08,-528.55 334.8,-535.51"/>
</g>
<!-- Node17 -->
<g id="node17" class="node">
<title>Node17</title>
<g id="a_node17"><a xlink:href="../../d0/dae/classItem_a599d4bf45cfec37311e43a32e9d6c4f3.html#a599d4bf45cfec37311e43a32e9d6c4f3" target="_top" xlink:title=" ">
<polygon fill="white" stroke="black" points="163.5,-456.5 163.5,-475.5 282.5,-475.5 282.5,-456.5 163.5,-456.5"/>
<text text-anchor="middle" x="223" y="-463.5" font-family="Helvetica,sans-Serif" font-size="10.00">Item.DefaultToMount</text>
</a>
</g>
</g>
<!-- Node1&#45;&gt;Node17 -->
<g id="edge20" class="edge">
<title>Node1&#45;&gt;Node17</title>
<path fill="none" stroke="midnightblue" d="M61.61,-551.41C75.92,-535.14 107.32,-502.23 141,-485 145.62,-482.64 150.55,-480.56 155.59,-478.74"/>
<polygon fill="midnightblue" stroke="midnightblue" points="156.98,-481.97 165.4,-475.54 154.81,-475.31 156.98,-481.97"/>
</g>
<!-- Node18 -->
<g id="node18" class="node">
<title>Node18</title>
<g id="a_node18"><a xlink:href="../../d0/dae/classItem_a07b8f633e77424d3008a1584bf7187ff.html#a07b8f633e77424d3008a1584bf7187ff" target="_top" xlink:title=" ">
<polygon fill="white" stroke="black" points="155,-418.5 155,-437.5 291,-437.5 291,-418.5 155,-418.5"/>
<text text-anchor="middle" x="223" y="-425.5" font-family="Helvetica,sans-Serif" font-size="10.00">Item.DefaultToMusicBox</text>
</a>
</g>
</g>
<!-- Node1&#45;&gt;Node18 -->
<g id="edge21" class="edge">
<title>Node1&#45;&gt;Node18</title>
<path fill="none" stroke="midnightblue" d="M58.05,-551.24C68.96,-528.97 98.87,-474.2 141,-447 144.16,-444.96 147.51,-443.14 150.99,-441.51"/>
<polygon fill="midnightblue" stroke="midnightblue" points="152.5,-444.68 160.43,-437.65 149.85,-438.2 152.5,-444.68"/>
</g>
<!-- Node19 -->
<g id="node19" class="node">
<title>Node19</title>
<g id="a_node19"><a xlink:href="../../d0/dae/classItem_a1061abfdfd3ac08ab701c531ba05d923.html#a1061abfdfd3ac08ab701c531ba05d923" target="_top" xlink:title=" ">
<polygon fill="white" stroke="black" points="146,-380.5 146,-399.5 300,-399.5 300,-380.5 146,-380.5"/>
<text text-anchor="middle" x="223" y="-387.5" font-family="Helvetica,sans-Serif" font-size="10.00">Item.DefaultToPlaceableTile</text>
</a>
</g>
</g>
<!-- Node1&#45;&gt;Node19 -->
<g id="edge22" class="edge">
<title>Node1&#45;&gt;Node19</title>
<path fill="none" stroke="midnightblue" d="M56.1,-551.35C63.93,-524.26 89.93,-446.98 141,-409 143.53,-407.12 146.21,-405.42 149.01,-403.89"/>
<polygon fill="midnightblue" stroke="midnightblue" points="150.7,-406.96 158.26,-399.54 147.72,-400.63 150.7,-406.96"/>
</g>
<!-- Node20 -->
<g id="node20" class="node">
<title>Node20</title>
<g id="a_node20"><a xlink:href="../../d0/dae/classItem_af22d283e92e3746a8ff423ee5d52215a.html#af22d283e92e3746a8ff423ee5d52215a" target="_top" xlink:title=" ">
<polygon fill="white" stroke="black" points="144.5,-342.5 144.5,-361.5 301.5,-361.5 301.5,-342.5 144.5,-342.5"/>
<text text-anchor="middle" x="223" y="-349.5" font-family="Helvetica,sans-Serif" font-size="10.00">Item.DefaultToPlaceableWall</text>
</a>
</g>
</g>
<!-- Node1&#45;&gt;Node20 -->
<g id="edge23" class="edge">
<title>Node1&#45;&gt;Node20</title>
<path fill="none" stroke="midnightblue" d="M54.93,-551.31C60.1,-519.9 80.81,-420.16 141,-371 143.06,-369.32 145.23,-367.79 147.51,-366.38"/>
<polygon fill="midnightblue" stroke="midnightblue" points="149.43,-369.32 156.68,-361.59 146.19,-363.12 149.43,-369.32"/>
</g>
<!-- Node21 -->
<g id="node21" class="node">
<title>Node21</title>
<g id="a_node21"><a xlink:href="../../d0/dae/classItem_a68643788fa2b858ff6175918fd846db6.html#a68643788fa2b858ff6175918fd846db6" target="_top" xlink:title=" ">
<polygon fill="white" stroke="black" points="154.5,-304.5 154.5,-323.5 291.5,-323.5 291.5,-304.5 154.5,-304.5"/>
<text text-anchor="middle" x="223" y="-311.5" font-family="Helvetica,sans-Serif" font-size="10.00">Item.DefaultToQuestFish</text>
</a>
</g>
</g>
<!-- Node1&#45;&gt;Node21 -->
<g id="edge24" class="edge">
<title>Node1&#45;&gt;Node21</title>
<path fill="none" stroke="midnightblue" d="M54.11,-551.44C56.87,-516.38 71.35,-393.76 141,-333 142.77,-331.46 144.64,-330.03 146.59,-328.72"/>
<polygon fill="midnightblue" stroke="midnightblue" points="148.62,-331.6 155.61,-323.64 145.18,-325.5 148.62,-331.6"/>
</g>
<!-- Node22 -->
<g id="node22" class="node">
<title>Node22</title>
<g id="a_node22"><a xlink:href="../../d0/dae/classItem_a17bb6ec906807007559cea9c377d3023.html#a17bb6ec906807007559cea9c377d3023" target="_top" xlink:title=" ">
<polygon fill="white" stroke="black" points="157.5,-228.5 157.5,-247.5 288.5,-247.5 288.5,-228.5 157.5,-228.5"/>
<text text-anchor="middle" x="223" y="-235.5" font-family="Helvetica,sans-Serif" font-size="10.00">Item.DefaultToSeaShell</text>
</a>
</g>
</g>
<!-- Node1&#45;&gt;Node22 -->
<g id="edge26" class="edge">
<title>Node1&#45;&gt;Node22</title>
<path fill="none" stroke="midnightblue" d="M53.24,-551.36C52.67,-510.17 56.05,-347.24 141,-262 144.95,-258.04 149.52,-254.73 154.43,-251.96"/>
<polygon fill="midnightblue" stroke="midnightblue" points="156.11,-255.03 163.6,-247.53 153.07,-248.73 156.11,-255.03"/>
</g>
<!-- Node23 -->
<g id="node23" class="node">
<title>Node23</title>
<g id="a_node23"><a xlink:href="../../d0/dae/classItem_ad30ec39319d94558e35650cf2350e2cf.html#ad30ec39319d94558e35650cf2350e2cf" target="_top" xlink:title=" ">
<polygon fill="white" stroke="black" points="381.5,-228.5 381.5,-247.5 464.5,-247.5 464.5,-228.5 381.5,-228.5"/>
<text text-anchor="middle" x="423" y="-235.5" font-family="Helvetica,sans-Serif" font-size="10.00">Item.sellPrice</text>
</a>
</g>
</g>
<!-- Node1&#45;&gt;Node23 -->
<g id="edge38" class="edge">
<title>Node1&#45;&gt;Node23</title>
<path fill="none" stroke="midnightblue" d="M53.46,-551.45C53.83,-512.75 60.69,-366.37 141,-295 149.6,-287.36 292.44,-261.01 371.06,-246.97"/>
<polygon fill="midnightblue" stroke="midnightblue" points="372.02,-250.35 381.25,-245.16 370.79,-243.46 372.02,-250.35"/>
</g>
<!-- Node24 -->
<g id="node24" class="node">
<title>Node24</title>
<g id="a_node24"><a xlink:href="../../d0/dae/classItem_a72948c5c911e46de5b4215389b889494.html#a72948c5c911e46de5b4215389b889494" target="_top" xlink:title=" ">
<polygon fill="white" stroke="black" points="159,-1026.5 159,-1045.5 287,-1045.5 287,-1026.5 159,-1026.5"/>
<text text-anchor="middle" x="223" y="-1033.5" font-family="Helvetica,sans-Serif" font-size="10.00">Item.DefaultToSolution</text>
</a>
</g>
</g>
<!-- Node1&#45;&gt;Node24 -->
<g id="edge28" class="edge">
<title>Node1&#45;&gt;Node24</title>
<path fill="none" stroke="midnightblue" d="M53.98,-570.88C57.08,-631.22 76.38,-949.69 141,-1017 143.66,-1019.77 146.63,-1022.17 149.84,-1024.24"/>
<polygon fill="midnightblue" stroke="midnightblue" points="148.31,-1027.39 158.78,-1029.01 151.6,-1021.22 148.31,-1027.39"/>
</g>
<!-- Node25 -->
<g id="node25" class="node">
<title>Node25</title>
<g id="a_node25"><a xlink:href="../../d0/dae/classItem_ab4d669e2ba5c01caa33d56350b6d6634.html#ab4d669e2ba5c01caa33d56350b6d6634" target="_top" xlink:title=" ">
<polygon fill="white" stroke="black" points="165,-152.5 165,-171.5 281,-171.5 281,-152.5 165,-152.5"/>
<text text-anchor="middle" x="223" y="-159.5" font-family="Helvetica,sans-Serif" font-size="10.00">Item.DefaultToSpear</text>
</a>
</g>
</g>
<!-- Node1&#45;&gt;Node25 -->
<g id="edge30" class="edge">
<title>Node1&#45;&gt;Node25</title>
<path fill="none" stroke="midnightblue" d="M54.36,-551.4C59.33,-497.8 86.18,-236.04 141,-181 145.18,-176.8 150.1,-173.46 155.41,-170.82"/>
<polygon fill="midnightblue" stroke="midnightblue" points="156.77,-174.04 164.66,-166.98 154.09,-167.58 156.77,-174.04"/>
</g>
<!-- Node26 -->
<g id="node26" class="node">
<title>Node26</title>
<g id="a_node26"><a xlink:href="../../d0/dae/classItem_a3104a92b783c6405e110ad612898976a.html#a3104a92b783c6405e110ad612898976a" target="_top" xlink:title=" ">
<polygon fill="white" stroke="black" points="167.5,-494.5 167.5,-513.5 278.5,-513.5 278.5,-494.5 167.5,-494.5"/>
<text text-anchor="middle" x="223" y="-501.5" font-family="Helvetica,sans-Serif" font-size="10.00">Item.DefaultToStaff</text>
</a>
</g>
</g>
<!-- Node1&#45;&gt;Node26 -->
<g id="edge31" class="edge">
<title>Node1&#45;&gt;Node26</title>
<path fill="none" stroke="midnightblue" d="M77.47,-551.42C94.96,-544.57 119.3,-535.3 141,-528 152.84,-524.02 165.76,-520.03 177.74,-516.48"/>
<polygon fill="midnightblue" stroke="midnightblue" points="178.93,-519.78 187.54,-513.61 176.96,-513.06 178.93,-519.78"/>
</g>
<!-- Node27 -->
<g id="node27" class="node">
<title>Node27</title>
<g id="a_node27"><a xlink:href="../../d0/dae/classItem_aaa6053ee8774a18489e343eb47378994.html#aaa6053ee8774a18489e343eb47378994" target="_top" xlink:title=" ">
<polygon fill="white" stroke="black" points="166,-114.5 166,-133.5 280,-133.5 280,-114.5 166,-114.5"/>
<text text-anchor="middle" x="223" y="-121.5" font-family="Helvetica,sans-Serif" font-size="10.00">Item.DefaultToTorch</text>
</a>
</g>
</g>
<!-- Node1&#45;&gt;Node27 -->
<g id="edge34" class="edge">
<title>Node1&#45;&gt;Node27</title>
<path fill="none" stroke="midnightblue" d="M54.15,-551.2C58.17,-494.05 81.31,-204.14 141,-143 145.44,-138.46 150.74,-134.91 156.48,-132.16"/>
<polygon fill="midnightblue" stroke="midnightblue" points="157.8,-135.4 165.79,-128.45 155.21,-128.9 157.8,-135.4"/>
</g>
<!-- Node28 -->
<g id="node28" class="node">
<title>Node28</title>
<g id="a_node28"><a xlink:href="../../d0/dae/classItem_a1fd749ba4fd47bbcef3a96d6b8b2111b.html#a1fd749ba4fd47bbcef3a96d6b8b2111b" target="_top" xlink:title=" ">
<polygon fill="white" stroke="black" points="155.5,-190.5 155.5,-209.5 290.5,-209.5 290.5,-190.5 155.5,-190.5"/>
<text text-anchor="middle" x="223" y="-197.5" font-family="Helvetica,sans-Serif" font-size="10.00">Item.DefaultToVanitypet</text>
</a>
</g>
</g>
<!-- Node1&#45;&gt;Node28 -->
<g id="edge35" class="edge">
<title>Node1&#45;&gt;Node28</title>
<path fill="none" stroke="midnightblue" d="M54.62,-551.38C60.68,-500.98 91.1,-267.91 141,-219 142.68,-217.36 144.47,-215.85 146.35,-214.46"/>
<polygon fill="midnightblue" stroke="midnightblue" points="148.4,-217.3 155.13,-209.12 144.76,-211.32 148.4,-217.3"/>
</g>
<!-- Node29 -->
<g id="node29" class="node">
<title>Node29</title>
<g id="a_node29"><a xlink:href="../../d0/dae/classItem_a19677680af3f6930fe59649fa96086b9.html#a19677680af3f6930fe59649fa96086b9" target="_top" xlink:title=" ">
<polygon fill="white" stroke="black" points="166.5,-76.5 166.5,-95.5 279.5,-95.5 279.5,-76.5 166.5,-76.5"/>
<text text-anchor="middle" x="223" y="-83.5" font-family="Helvetica,sans-Serif" font-size="10.00">Item.DefaultToWhip</text>
</a>
</g>
</g>
<!-- Node1&#45;&gt;Node29 -->
<g id="edge37" class="edge">
<title>Node1&#45;&gt;Node29</title>
<path fill="none" stroke="midnightblue" d="M53.98,-551.12C57.08,-490.78 76.38,-172.31 141,-105 145.46,-100.35 150.83,-96.74 156.66,-93.96"/>
<polygon fill="midnightblue" stroke="midnightblue" points="158.1,-97.15 166.11,-90.23 155.53,-90.64 158.1,-97.15"/>
</g>
<!-- Node30 -->
<g id="node30" class="node">
<title>Node30</title>
<g id="a_node30"><a xlink:href="../../d0/dae/classItem_aa1903fbd65a9a12fd6bd7e217ec00ae4.html#aa1903fbd65a9a12fd6bd7e217ec00ae4" target="_top" xlink:title=" ">
<polygon fill="white" stroke="black" points="173.5,-38.5 173.5,-57.5 272.5,-57.5 272.5,-38.5 173.5,-38.5"/>
<text text-anchor="middle" x="223" y="-45.5" font-family="Helvetica,sans-Serif" font-size="10.00">Item.SetDefaults</text>
</a>
</g>
</g>
<!-- Node1&#45;&gt;Node30 -->
<g id="edge39" class="edge">
<title>Node1&#45;&gt;Node30</title>
<path fill="none" stroke="midnightblue" d="M53.82,-551.14C56.05,-487.97 71.4,-140.54 141,-67 147.13,-60.52 155.02,-56.06 163.46,-53.03"/>
<polygon fill="midnightblue" stroke="midnightblue" points="164.55,-56.35 173.16,-50.17 162.57,-49.64 164.55,-56.35"/>
</g>
<!-- Node31 -->
<g id="node31" class="node">
<title>Node31</title>
<g id="a_node31"><a xlink:href="../../d0/dae/classItem_a69c624003358019f1bcd0137badcd637.html#a69c624003358019f1bcd0137badcd637" target="_top" xlink:title=" ">
<polygon fill="white" stroke="black" points="158.5,-0.5 158.5,-19.5 287.5,-19.5 287.5,-0.5 158.5,-0.5"/>
<text text-anchor="middle" x="223" y="-7.5" font-family="Helvetica,sans-Serif" font-size="10.00">Item.SetWeaponValues</text>
</a>
</g>
</g>
<!-- Node1&#45;&gt;Node31 -->
<g id="edge41" class="edge">
<title>Node1&#45;&gt;Node31</title>
<path fill="none" stroke="midnightblue" d="M53.68,-551.24C55.09,-485.63 66.37,-108.83 141,-29 143.49,-26.33 146.28,-24.01 149.28,-21.98"/>
<polygon fill="midnightblue" stroke="midnightblue" points="151.18,-24.93 158.25,-17.04 147.8,-18.81 151.18,-24.93"/>
</g>
<!-- Node4&#45;&gt;Node5 -->
<g id="edge4" class="edge">
<title>Node4&#45;&gt;Node5</title>
<path fill="none" stroke="midnightblue" d="M278.1,-775.19C294.43,-776.76 312.83,-778.52 330.87,-780.26"/>
<polygon fill="midnightblue" stroke="midnightblue" points="330.55,-783.74 340.84,-781.21 331.22,-776.77 330.55,-783.74"/>
</g>
<!-- Node7&#45;&gt;Node2 -->
<g id="edge7" class="edge">
<title>Node7&#45;&gt;Node2</title>
<path fill="none" stroke="midnightblue" d="M273.71,-1064.46C303.45,-1058.75 341.17,-1051.51 371.12,-1045.77"/>
<polygon fill="midnightblue" stroke="midnightblue" points="371.79,-1049.2 380.95,-1043.88 370.47,-1042.33 371.79,-1049.2"/>
</g>
<!-- Node8&#45;&gt;Node2 -->
<g id="edge9" class="edge">
<title>Node8&#45;&gt;Node2</title>
<path fill="none" stroke="midnightblue" d="M273.71,-1007.54C303.45,-1013.25 341.17,-1020.49 371.12,-1026.23"/>
<polygon fill="midnightblue" stroke="midnightblue" points="370.47,-1029.67 380.95,-1028.12 371.79,-1022.8 370.47,-1029.67"/>
</g>
<!-- Node8&#45;&gt;Node9 -->
<g id="edge10" class="edge">
<title>Node8&#45;&gt;Node9</title>
<path fill="none" stroke="midnightblue" d="M273.71,-988.46C300.54,-983.31 333.86,-976.92 362.11,-971.49"/>
<polygon fill="midnightblue" stroke="midnightblue" points="363.11,-974.87 372.27,-969.54 361.79,-967.99 363.11,-974.87"/>
</g>
<!-- Node13&#45;&gt;Node2 -->
<g id="edge15" class="edge">
<title>Node13&#45;&gt;Node2</title>
<path fill="none" stroke="midnightblue" d="M272.48,-969.51C283.32,-972.15 294.66,-975.32 305,-979 337.74,-990.65 373.37,-1008.88 396.61,-1021.57"/>
<polygon fill="midnightblue" stroke="midnightblue" points="395.02,-1024.69 405.46,-1026.47 398.41,-1018.57 395.02,-1024.69"/>
</g>
<!-- Node13&#45;&gt;Node9 -->
<g id="edge17" class="edge">
<title>Node13&#45;&gt;Node9</title>
<path fill="none" stroke="midnightblue" d="M276.54,-960C300.81,-960 329.91,-960 355.67,-960"/>
<polygon fill="midnightblue" stroke="midnightblue" points="355.74,-963.5 365.74,-960 355.74,-956.5 355.74,-963.5"/>
</g>
<!-- Node13&#45;&gt;Node14 -->
<g id="edge16" class="edge">
<title>Node13&#45;&gt;Node14</title>
<path fill="none" stroke="midnightblue" d="M257.14,-950.46C290.55,-940.84 342.27,-925.95 378.86,-915.42"/>
<polygon fill="midnightblue" stroke="midnightblue" points="380.11,-918.7 388.75,-912.57 378.17,-911.97 380.11,-918.7"/>
</g>
<!-- Node22&#45;&gt;Node23 -->
<g id="edge27" class="edge">
<title>Node22&#45;&gt;Node23</title>
<path fill="none" stroke="midnightblue" d="M288.56,-238C315.44,-238 346.19,-238 371.39,-238"/>
<polygon fill="midnightblue" stroke="midnightblue" points="371.46,-241.5 381.46,-238 371.46,-234.5 371.46,-241.5"/>
</g>
<!-- Node24&#45;&gt;Node2 -->
<g id="edge29" class="edge">
<title>Node24&#45;&gt;Node2</title>
<path fill="none" stroke="midnightblue" d="M287.19,-1036C314.15,-1036 345.2,-1036 370.7,-1036"/>
<polygon fill="midnightblue" stroke="midnightblue" points="370.9,-1039.5 380.9,-1036 370.9,-1032.5 370.9,-1039.5"/>
</g>
<!-- Node26&#45;&gt;Node16 -->
<g id="edge32" class="edge">
<title>Node26&#45;&gt;Node16</title>
<path fill="none" stroke="midnightblue" d="M278.63,-509.24C295.8,-510.89 315.22,-512.75 334.1,-514.56"/>
<polygon fill="midnightblue" stroke="midnightblue" points="333.92,-518.06 344.21,-515.53 334.59,-511.1 333.92,-518.06"/>
</g>
<!-- Node28&#45;&gt;Node23 -->
<g id="edge36" class="edge">
<title>Node28&#45;&gt;Node23</title>
<path fill="none" stroke="midnightblue" d="M273.71,-209.54C303.55,-215.27 341.43,-222.54 371.43,-228.29"/>
<polygon fill="midnightblue" stroke="midnightblue" points="370.79,-231.74 381.28,-230.18 372.11,-224.86 370.79,-231.74"/>
</g>
</g>
</svg>
        <g id="navigator" transform="translate(0 0)" fill="#404254">
                <rect fill="#f2f5e9" fill-opacity="0.5" stroke="#606060" stroke-width=".5" x="0" y="0" width="60" height="60"/>
                <use id="zoomplus" xlink:href="#zoomPlus" x="17" y="9" onmousedown="handleZoom(evt,'in')"/>
                <use id="zoomminus" xlink:href="#zoomMin" x="42" y="9" onmousedown="handleZoom(evt,'out')"/>
                <use id="reset" xlink:href="#resetDef" x="30" y="36" onmousedown="handleReset()"/>
                <g id="arrowUp" xlink:href="#dirArrow" transform="translate(30 24)" onmousedown="handlePan(0,-1)">
                  <use xlink:href="#rim" fill="#404040">
                        <set attributeName="fill" to="#808080" begin="arrowUp.mouseover" end="arrowUp.mouseout"/>
                  </use>
                  <path fill="none" stroke="white" stroke-width="1.5" d="M0,-3.0v7 M-2.5,-0.5L0,-3.0L2.5,-0.5"/>
                </g>
                <g id="arrowRight" xlink:href="#dirArrow" transform="rotate(90) translate(36 -43)" onmousedown="handlePan(1,0)">
                  <use xlink:href="#rim" fill="#404040">
                        <set attributeName="fill" to="#808080" begin="arrowRight.mouseover" end="arrowRight.mouseout"/>
                  </use>
                  <path fill="none" stroke="white" stroke-width="1.5" d="M0,-3.0v7 M-2.5,-0.5L0,-3.0L2.5,-0.5"/>
                </g>
                <g id="arrowDown" xlink:href="#dirArrow" transform="rotate(180) translate(-30 -48)" onmousedown="handlePan(0,1)">
                  <use xlink:href="#rim" fill="#404040">
                        <set attributeName="fill" to="#808080" begin="arrowDown.mouseover" end="arrowDown.mouseout"/>
                  </use>
                  <path fill="none" stroke="white" stroke-width="1.5" d="M0,-3.0v7 M-2.5,-0.5L0,-3.0L2.5,-0.5"/>
                </g>
                <g id="arrowLeft" xlink:href="#dirArrow" transform="rotate(270) translate(-36 17)" onmousedown="handlePan(-1,0)">
                  <use xlink:href="#rim" fill="#404040">
                        <set attributeName="fill" to="#808080" begin="arrowLeft.mouseover" end="arrowLeft.mouseout"/>
                  </use>
                  <path fill="none" stroke="white" stroke-width="1.5" d="M0,-3.0v7 M-2.5,-0.5L0,-3.0L2.5,-0.5"/>
                </g>
        </g>
        <svg viewBox="0 0 15 15" width="100%" height="30px" preserveAspectRatio="xMaxYMin meet">
         <g id="arrow_out" transform="scale(0.3 0.3)">
          <a xlink:href="classItem_a6e844f39de572d32438e6e572febf632_a6e844f39de572d32438e6e572febf632_cgraph_org.svg" target="_base">
           <rect id="button" ry="5" rx="5" y="6" x="6" height="38" width="38"
                fill="#f2f5e9" fill-opacity="0.5" stroke="#606060" stroke-width="1.0"/>
           <path id="arrow"
             d="M 11.500037,31.436501 C 11.940474,20.09759 22.043105,11.32322 32.158766,21.979434 L 37.068811,17.246167 C 37.068811,17.246167 37.088388,32 37.088388,32 L 22.160133,31.978069 C 22.160133,31.978069 26.997745,27.140456 26.997745,27.140456 C 18.528582,18.264221 13.291696,25.230495 11.500037,31.436501 z"
             style="fill:#404040;"/>
          </a>
         </g>
        </svg>
</svg>
