<?xml version="1.0" encoding="UTF-8" standalone="no"?>
<!DOCTYPE svg PUBLIC "-//W3C//DTD SVG 1.1//EN"
 "http://www.w3.org/Graphics/SVG/1.1/DTD/svg11.dtd">
<!-- Generated by graphviz version 2.43.0 (0)
 -->
<!-- Title: Terraria.Projectile.AI_138_ExplosiveTrap Pages: 1 -->
<!--zoomable 168 -->

<svg id="main" version="1.1" xmlns="http://www.w3.org/2000/svg" xmlns:xlink="http://www.w3.org/1999/xlink" xml:space="preserve" onload="init(evt)">
<style type="text/css"><![CDATA[
.node, .edge {opacity: 0.7;}
.node.selected, .edge.selected {opacity: 1;}
.edge:hover path { stroke: red; }
.edge:hover polygon { stroke: red; fill: red; }
]]></style>

<defs>
  <circle id="rim" cx="0" cy="0" r="7"/>
  <circle id="rim2" cx="0" cy="0" r="3.5"/>
  <g id="zoomPlus">
    <use xlink:href="#rim" fill="#404040"><set attributeName="fill" to="#808080" begin="zoomplus.mouseover" end="zoomplus.mouseout"/></use>
    <path d="M-4,0h8M0,-4v8" fill="none" stroke="white" stroke-width="1.5" pointer-events="none"/>
  </g>
  <g id="zoomMin">
    <use xlink:href="#rim" fill="#404040"><set attributeName="fill" to="#808080" begin="zoomminus.mouseover" end="zoomminus.mouseout"/></use>
    <path d="M-4,0h8" fill="none" stroke="white" stroke-width="1.5" pointer-events="none"/>
  </g>
  <g id="arrowUp" transform="translate(30 24)">
    <use xlink:href="#rim"/>
    <path pointer-events="none" fill="none" stroke="white" stroke-width="1.5" d="M0,-3.0v7 M-2.5,-0.5L0,-3.0L2.5,-0.5"/>
  </g>
  <g id="arrowRight" transform="rotate(90) translate(36 -43)">
    <use xlink:href="#rim"/>
    <path pointer-events="none" fill="none" stroke="white" stroke-width="1.5" d="M0,-3.0v7 M-2.5,-0.5L0,-3.0L2.5,-0.5"/>
  </g>
  <g id="arrowDown" transform="rotate(180) translate(-30 -48)">
    <use xlink:href="#rim"/>
    <path pointer-events="none" fill="none" stroke="white" stroke-width="1.5" d="M0,-3.0v7 M-2.5,-0.5L0,-3.0L2.5,-0.5"/>
  </g>
  <g id="arrowLeft" transform="rotate(270) translate(-36 17)">
    <use xlink:href="#rim"/>
    <path pointer-events="none" fill="none" stroke="white" stroke-width="1.5" d="M0,-3.0v7 M-2.5,-0.5L0,-3.0L2.5,-0.5"/>
  </g>
  <g id="resetDef">
    <use xlink:href="#rim2" fill="#404040"><set attributeName="fill" to="#808080" begin="reset.mouseover" end="reset.mouseout"/></use>
  </g>
</defs>
<script type="application/ecmascript">
var viewWidth = 541;
var viewHeight = 168;
var sectionId = 'dynsection-0';
</script>
<script type="application/ecmascript" xlink:href="../../svg.min.js"/>
<svg id="graph" class="graph">
<g id="viewport">
<title>Terraria.Projectile.AI_138_ExplosiveTrap</title>
<!-- Node1 -->
<g id="Node000001" class="node">
<title>Node1</title>
<g id="a_Node000001"><a xlink:title=" ">
<polygon fill="#999999" stroke="#666666" points="115,-91 0,-91 0,-61 115,-61 115,-91"/>
<text text-anchor="start" x="8" y="-79" font-family="Helvetica,sans-Serif" font-size="10.00">Terraria.Projectile.AI</text>
<text text-anchor="middle" x="57.5" y="-68" font-family="Helvetica,sans-Serif" font-size="10.00">_138_ExplosiveTrap</text>
</a>
</g>
</g>
<!-- Node2 -->
<g id="Node000002" class="node">
<title>Node2</title>
<g id="a_Node000002"><a xlink:href="../../d0/d12/classTerraria_1_1Lighting_ae428de99ded78bcdb8e44e80d98d6216.html#ae428de99ded78bcdb8e44e80d98d6216" target="_top" xlink:title=" ">
<polygon fill="white" stroke="#666666" points="309,-141.5 168,-141.5 168,-122.5 309,-122.5 309,-141.5"/>
<text text-anchor="middle" x="238.5" y="-129.5" font-family="Helvetica,sans-Serif" font-size="10.00">Terraria.Lighting.AddLight</text>
</a>
</g>
</g>
<!-- Node1&#45;&gt;Node2 -->
<g id="edge1_Node000001_Node000002" class="edge">
<title>Node1&#45;&gt;Node2</title>
<g id="a_edge1_Node000001_Node000002"><a xlink:title=" ">
<path fill="none" stroke="#63b8ff" d="M90.93,-91.04C108.43,-98.72 130.58,-107.74 151,-114 158.42,-116.28 166.3,-118.36 174.15,-120.23"/>
<polygon fill="#63b8ff" stroke="#63b8ff" points="173.51,-123.67 184.04,-122.49 175.07,-116.85 173.51,-123.67"/>
</a>
</g>
</g>
<!-- Node3 -->
<g id="Node000003" class="node">
<title>Node3</title>
<g id="a_Node000003"><a xlink:href="../../df/d0d/classTerraria_1_1NPC_a88fb04cefeb3d121612538889bd56102.html#a88fb04cefeb3d121612538889bd56102" target="_top" xlink:title=" ">
<polygon fill="white" stroke="#666666" points="318.5,-104.5 158.5,-104.5 158.5,-85.5 318.5,-85.5 318.5,-104.5"/>
<text text-anchor="middle" x="238.5" y="-92.5" font-family="Helvetica,sans-Serif" font-size="10.00">Terraria.NPC.CanBeChasedBy</text>
</a>
</g>
</g>
<!-- Node1&#45;&gt;Node3 -->
<g id="edge3_Node000001_Node000003" class="edge">
<title>Node1&#45;&gt;Node3</title>
<g id="a_edge3_Node000001_Node000003"><a xlink:title=" ">
<path fill="none" stroke="#63b8ff" d="M115.14,-82.01C125.64,-83.13 136.85,-84.32 148.06,-85.51"/>
<polygon fill="#63b8ff" stroke="#63b8ff" points="148.02,-89.02 158.34,-86.6 148.76,-82.06 148.02,-89.02"/>
</a>
</g>
</g>
<!-- Node4 -->
<g id="Node000004" class="node">
<title>Node4</title>
<g id="a_Node000004"><a xlink:href="../../d1/d9c/classTerraria_1_1Utils_af1719e7aa7cb20441b26320d7eef901c.html#af1719e7aa7cb20441b26320d7eef901c" target="_top" xlink:title=" ">
<polygon fill="white" stroke="#666666" points="326,-67.5 151,-67.5 151,-48.5 326,-48.5 326,-67.5"/>
<text text-anchor="middle" x="238.5" y="-55.5" font-family="Helvetica,sans-Serif" font-size="10.00">Terraria.Utils.CenteredRectangle</text>
</a>
</g>
</g>
<!-- Node1&#45;&gt;Node4 -->
<g id="edge4_Node000001_Node000004" class="edge">
<title>Node1&#45;&gt;Node4</title>
<g id="a_edge4_Node000001_Node000004"><a xlink:title=" ">
<path fill="none" stroke="#63b8ff" d="M115.14,-70.3C123.31,-69.48 131.9,-68.62 140.59,-67.74"/>
<polygon fill="#63b8ff" stroke="#63b8ff" points="141.22,-71.2 150.82,-66.72 140.52,-64.23 141.22,-71.2"/>
</a>
</g>
</g>
<!-- Node5 -->
<g id="Node000005" class="node">
<title>Node5</title>
<g id="a_Node000005"><a xlink:href="../../d3/d78/classTerraria_1_1Audio_1_1SoundEngine_a60780f059789de8541120c6cdb85954d.html#a60780f059789de8541120c6cdb85954d" target="_top" xlink:title=" ">
<polygon fill="white" stroke="#666666" points="315,-30 162,-30 162,0 315,0 315,-30"/>
<text text-anchor="start" x="170" y="-18" font-family="Helvetica,sans-Serif" font-size="10.00">Terraria.Audio.SoundEngine.</text>
<text text-anchor="middle" x="238.5" y="-7" font-family="Helvetica,sans-Serif" font-size="10.00">PlayTrackedSound</text>
</a>
</g>
</g>
<!-- Node1&#45;&gt;Node5 -->
<g id="edge5_Node000001_Node000005" class="edge">
<title>Node1&#45;&gt;Node5</title>
<g id="a_edge5_Node000001_Node000005"><a xlink:title=" ">
<path fill="none" stroke="#63b8ff" d="M95.13,-60.87C112.01,-54.12 132.39,-46.3 151,-40 157.92,-37.66 165.2,-35.34 172.48,-33.11"/>
<polygon fill="#63b8ff" stroke="#63b8ff" points="173.79,-36.37 182.36,-30.13 171.77,-29.67 173.79,-36.37"/>
</a>
</g>
</g>
<!-- Node2&#45;&gt;Node2 -->
<g id="edge2_Node000002_Node000002" class="edge">
<title>Node2&#45;&gt;Node2</title>
<g id="a_edge2_Node000002_Node000002"><a xlink:title=" ">
<path fill="none" stroke="#63b8ff" d="M210.76,-141.58C197.26,-150.23 206.51,-159.5 238.5,-159.5 259.99,-159.5 271.22,-155.32 272.18,-149.95"/>
<polygon fill="#63b8ff" stroke="#63b8ff" points="274.89,-147.71 266.24,-141.58 269.18,-151.76 274.89,-147.71"/>
</a>
</g>
</g>
<!-- Node6 -->
<g id="Node000006" class="node">
<title>Node6</title>
<g id="a_Node000006"><a xlink:href="../../dc/d40/classTerraria_1_1Audio_1_1SoundPlayer_a9ca59947a29c9cb899fcf20c192efacc.html#a9ca59947a29c9cb899fcf20c192efacc" target="_top" xlink:title=" ">
<polygon fill="white" stroke="#666666" points="533,-24.5 362,-24.5 362,-5.5 533,-5.5 533,-24.5"/>
<text text-anchor="middle" x="447.5" y="-12.5" font-family="Helvetica,sans-Serif" font-size="10.00">Terraria.Audio.SoundPlayer.Play</text>
</a>
</g>
</g>
<!-- Node5&#45;&gt;Node6 -->
<g id="edge6_Node000005_Node000006" class="edge">
<title>Node5&#45;&gt;Node6</title>
<g id="a_edge6_Node000005_Node000006"><a xlink:title=" ">
<path fill="none" stroke="#63b8ff" d="M315.11,-15C327.02,-15 339.46,-15 351.74,-15"/>
<polygon fill="#63b8ff" stroke="#63b8ff" points="352,-18.5 362,-15 352,-11.5 352,-18.5"/>
</a>
</g>
</g>
</g>
</svg>

<g id="navigator" transform="translate(0 0)" fill="#404254">
  <rect fill="#f2f5e9" fill-opacity="0.5" stroke="#606060" stroke-width=".5" x="0" y="0" width="60" height="60"/>
  <use id="zoomplus" xlink:href="#zoomPlus" x="17" y="9" onmousedown="handleZoom(evt,'in')"/>
  <use id="zoomminus" xlink:href="#zoomMin" x="42" y="9" onmousedown="handleZoom(evt,'out')"/>
  <use id="reset" xlink:href="#resetDef" x="30" y="36" onmousedown="handleReset()"/>
   <use id="arrowup" xlink:href="#arrowUp" x="0" y="0" onmousedown="handlePan(0,-1)"/>
  <use id="arrowright" xlink:href="#arrowRight" x="0" y="0" onmousedown="handlePan(1,0)"/>
  <use id="arrowdown" xlink:href="#arrowDown" x="0" y="0" onmousedown="handlePan(0,1)"/>
  <use id="arrowleft" xlink:href="#arrowLeft" x="0" y="0" onmousedown="handlePan(-1,0)"/>
</g>
<svg viewBox="0 0 15 15" width="100%" height="30px" preserveAspectRatio="xMaxYMin meet">
 <g id="arrow_out" transform="scale(0.3 0.3)">
  <a xlink:href="classTerraria_1_1Projectile_ae4dc78669dbd867a7f12fc29474d0ac9_ae4dc78669dbd867a7f12fc29474d0ac9_cgraph_org.svg" target="_base">
   <rect id="button" ry="5" rx="5" y="6" x="6" height="38" width="38"
        fill="#f2f5e9" fill-opacity="0.5" stroke="#606060" stroke-width="1.0"/>
   <path id="arrow"
     d="M 11.500037,31.436501 C 11.940474,20.09759 22.043105,11.32322 32.158766,21.979434 L 37.068811,17.246167 C 37.068811,17.246167 37.088388,32 37.088388,32 L 22.160133,31.978069 C 22.160133,31.978069 26.997745,27.140456 26.997745,27.140456 C 18.528582,18.264221 13.291696,25.230495 11.500037,31.436501 z"
     style="fill:#404040;"/>
  </a>
 </g>
</svg>

<style type='text/css'>
<![CDATA[
[data-mouse-over-selected='false'] { opacity: 0.7; }
[data-mouse-over-selected='true']  { opacity: 1.0; }
]]>
</style>
<script type="application/ecmascript"><![CDATA[
document.addEventListener('DOMContentLoaded', (event) => {
  highlightEdges();
  highlightAdjacentNodes();
});
]]></script>
</svg>
