<?xml version="1.0" encoding="UTF-8" standalone="no"?>
<!DOCTYPE svg PUBLIC "-//W3C//DTD SVG 1.1//EN"
 "http://www.w3.org/Graphics/SVG/1.1/DTD/svg11.dtd">
<!-- Generated by graphviz version 2.43.0 (0)
 -->
<!-- Title: UIMouseEvent Pages: 1 -->
<svg width="1419pt" height="1103pt"
 viewBox="0.00 0.00 1419.00 1103.00" xmlns="http://www.w3.org/2000/svg" xmlns:xlink="http://www.w3.org/1999/xlink">
<g id="graph0" class="graph" transform="scale(1 1) rotate(0) translate(4 1099)">
<title>UIMouseEvent</title>
<polygon fill="white" stroke="transparent" points="-4,4 -4,-1099 1415,-1099 1415,4 -4,4"/>
<!-- Node1 -->
<g id="node1" class="node">
<title>Node1</title>
<g id="a_node1"><a xlink:title=" ">
<polygon fill="#bfbfbf" stroke="black" points="32.5,-0.5 32.5,-68.5 202.5,-68.5 202.5,-0.5 32.5,-0.5"/>
<text text-anchor="middle" x="117.5" y="-56.5" font-family="Helvetica,sans-Serif" font-size="10.00">UIMouseEvent</text>
<polyline fill="none" stroke="black" points="32.5,-49.5 202.5,-49.5 "/>
<text text-anchor="middle" x="117.5" y="-37.5" font-family="Helvetica,sans-Serif" font-size="10.00"> </text>
<polyline fill="none" stroke="black" points="32.5,-30.5 202.5,-30.5 "/>
<text text-anchor="start" x="40.5" y="-18.5" font-family="Helvetica,sans-Serif" font-size="10.00">+ UIMouseEvent(UIElement</text>
<text text-anchor="start" x="40.5" y="-7.5" font-family="Helvetica,sans-Serif" font-size="10.00"> target, Vector2 mousePosition)</text>
</a>
</g>
</g>
<!-- Node2 -->
<g id="node2" class="node">
<title>Node2</title>
<g id="a_node2"><a xlink:href="../../da/d7e/classUIEvent.html" target="_top" xlink:title=" ">
<polygon fill="white" stroke="black" points="366,-106.5 366,-174.5 487,-174.5 487,-106.5 366,-106.5"/>
<text text-anchor="middle" x="426.5" y="-162.5" font-family="Helvetica,sans-Serif" font-size="10.00">UIEvent</text>
<polyline fill="none" stroke="black" points="366,-155.5 487,-155.5 "/>
<text text-anchor="middle" x="426.5" y="-143.5" font-family="Helvetica,sans-Serif" font-size="10.00"> </text>
<polyline fill="none" stroke="black" points="366,-136.5 487,-136.5 "/>
<text text-anchor="start" x="374" y="-124.5" font-family="Helvetica,sans-Serif" font-size="10.00">+ UIEvent(UIElement</text>
<text text-anchor="start" x="374" y="-113.5" font-family="Helvetica,sans-Serif" font-size="10.00"> target)</text>
</a>
</g>
</g>
<!-- Node2&#45;&gt;Node1 -->
<g id="edge1" class="edge">
<title>Node2&#45;&gt;Node1</title>
<path fill="none" stroke="midnightblue" d="M356.31,-115.88C310.68,-100.52 250.92,-80.41 202.6,-64.14"/>
<polygon fill="none" stroke="midnightblue" points="355.23,-119.2 365.82,-119.08 357.46,-112.57 355.23,-119.2"/>
</g>
<!-- Node3 -->
<g id="node3" class="node">
<title>Node3</title>
<g id="a_node3"><a xlink:href="../../de/db3/classUIElement.html" target="_top" xlink:title=" ">
<polygon fill="white" stroke="black" points="655.5,-222.5 655.5,-642.5 859.5,-642.5 859.5,-222.5 655.5,-222.5"/>
<text text-anchor="middle" x="757.5" y="-630.5" font-family="Helvetica,sans-Serif" font-size="10.00">UIElement</text>
<polyline fill="none" stroke="black" points="655.5,-623.5 859.5,-623.5 "/>
<text text-anchor="start" x="663.5" y="-611.5" font-family="Helvetica,sans-Serif" font-size="10.00">+ UIElement Parent</text>
<text text-anchor="start" x="663.5" y="-600.5" font-family="Helvetica,sans-Serif" font-size="10.00">+ int UniqueId</text>
<text text-anchor="start" x="663.5" y="-589.5" font-family="Helvetica,sans-Serif" font-size="10.00">+ IEnumerable&lt; UIElement</text>
<text text-anchor="start" x="663.5" y="-578.5" font-family="Helvetica,sans-Serif" font-size="10.00"> &gt; Children</text>
<text text-anchor="start" x="663.5" y="-567.5" font-family="Helvetica,sans-Serif" font-size="10.00">+ bool IsMouseHovering</text>
<polyline fill="none" stroke="black" points="655.5,-560.5 859.5,-560.5 "/>
<text text-anchor="start" x="663.5" y="-548.5" font-family="Helvetica,sans-Serif" font-size="10.00">+ delegate void MouseEvent</text>
<text text-anchor="start" x="663.5" y="-537.5" font-family="Helvetica,sans-Serif" font-size="10.00">(UIMouseEvent evt, UIElement</text>
<text text-anchor="start" x="663.5" y="-526.5" font-family="Helvetica,sans-Serif" font-size="10.00"> listeningElement)</text>
<text text-anchor="start" x="663.5" y="-515.5" font-family="Helvetica,sans-Serif" font-size="10.00">+ delegate void ScrollWheel</text>
<text text-anchor="start" x="663.5" y="-504.5" font-family="Helvetica,sans-Serif" font-size="10.00">Event(UIScrollWheelEvent</text>
<text text-anchor="start" x="663.5" y="-493.5" font-family="Helvetica,sans-Serif" font-size="10.00"> evt, UIElement listeningElement)</text>
<text text-anchor="start" x="663.5" y="-482.5" font-family="Helvetica,sans-Serif" font-size="10.00">+ delegate void ElementEvent</text>
<text text-anchor="start" x="663.5" y="-471.5" font-family="Helvetica,sans-Serif" font-size="10.00">(UIElement affectedElement)</text>
<text text-anchor="start" x="663.5" y="-460.5" font-family="Helvetica,sans-Serif" font-size="10.00">+ delegate void UIElementAction</text>
<text text-anchor="start" x="663.5" y="-449.5" font-family="Helvetica,sans-Serif" font-size="10.00">(UIElement element)</text>
<text text-anchor="start" x="663.5" y="-438.5" font-family="Helvetica,sans-Serif" font-size="10.00">+ UIElement()</text>
<text text-anchor="start" x="663.5" y="-427.5" font-family="Helvetica,sans-Serif" font-size="10.00">+ void SetSnapPoint(string</text>
<text text-anchor="start" x="663.5" y="-416.5" font-family="Helvetica,sans-Serif" font-size="10.00"> name, int id, Vector2</text>
<text text-anchor="start" x="663.5" y="-405.5" font-family="Helvetica,sans-Serif" font-size="10.00">? anchor=null, Vector2?</text>
<text text-anchor="start" x="663.5" y="-394.5" font-family="Helvetica,sans-Serif" font-size="10.00"> offset=null)</text>
<text text-anchor="start" x="663.5" y="-383.5" font-family="Helvetica,sans-Serif" font-size="10.00">+ bool GetSnapPoint(out</text>
<text text-anchor="start" x="663.5" y="-372.5" font-family="Helvetica,sans-Serif" font-size="10.00"> SnapPoint point)</text>
<text text-anchor="start" x="663.5" y="-361.5" font-family="Helvetica,sans-Serif" font-size="10.00">+ virtual void ExecuteRecursively</text>
<text text-anchor="start" x="663.5" y="-350.5" font-family="Helvetica,sans-Serif" font-size="10.00">(UIElementAction action)</text>
<text text-anchor="start" x="663.5" y="-339.5" font-family="Helvetica,sans-Serif" font-size="10.00">+ void Append(UIElement</text>
<text text-anchor="start" x="663.5" y="-328.5" font-family="Helvetica,sans-Serif" font-size="10.00"> element)</text>
<text text-anchor="start" x="663.5" y="-317.5" font-family="Helvetica,sans-Serif" font-size="10.00">+ void Remove()</text>
<text text-anchor="start" x="663.5" y="-306.5" font-family="Helvetica,sans-Serif" font-size="10.00">and 35 more...</text>
<text text-anchor="start" x="663.5" y="-295.5" font-family="Helvetica,sans-Serif" font-size="10.00"># virtual void DrawSelf</text>
<text text-anchor="start" x="663.5" y="-284.5" font-family="Helvetica,sans-Serif" font-size="10.00">(SpriteBatch spriteBatch)</text>
<text text-anchor="start" x="663.5" y="-273.5" font-family="Helvetica,sans-Serif" font-size="10.00"># virtual void DrawChildren</text>
<text text-anchor="start" x="663.5" y="-262.5" font-family="Helvetica,sans-Serif" font-size="10.00">(SpriteBatch spriteBatch)</text>
<text text-anchor="start" x="663.5" y="-251.5" font-family="Helvetica,sans-Serif" font-size="10.00">&#45; CalculatedStyle GetDimensions</text>
<text text-anchor="start" x="663.5" y="-240.5" font-family="Helvetica,sans-Serif" font-size="10.00">BasedOnParentDimensions(Calculated</text>
<text text-anchor="start" x="663.5" y="-229.5" font-family="Helvetica,sans-Serif" font-size="10.00">Style parentDimensions)</text>
</a>
</g>
</g>
<!-- Node3&#45;&gt;Node2 -->
<g id="edge2" class="edge">
<title>Node3&#45;&gt;Node2</title>
<path fill="none" stroke="#404040" d="M655.49,-342.12C594.76,-288.92 520.6,-223.94 473.45,-182.63"/>
<polygon fill="none" stroke="#404040" points="473.42,-182.6 466.27,-181.66 464.39,-174.7 471.54,-175.64 473.42,-182.6"/>
<text text-anchor="middle" x="511.5" y="-196" font-family="Helvetica,sans-Serif" font-size="10.00"> +Target</text>
</g>
<!-- Node4 -->
<g id="node4" class="node">
<title>Node4</title>
<g id="a_node4"><a xlink:href="../../d9/d6f/classIComparable.html" target="_top" xlink:title=" ">
<polygon fill="white" stroke="black" points="1332,-833.5 1332,-890.5 1411,-890.5 1411,-833.5 1332,-833.5"/>
<text text-anchor="middle" x="1371.5" y="-878.5" font-family="Helvetica,sans-Serif" font-size="10.00">IComparable</text>
<polyline fill="none" stroke="black" points="1332,-871.5 1411,-871.5 "/>
<text text-anchor="middle" x="1371.5" y="-859.5" font-family="Helvetica,sans-Serif" font-size="10.00"> </text>
<polyline fill="none" stroke="black" points="1332,-852.5 1411,-852.5 "/>
<text text-anchor="middle" x="1371.5" y="-840.5" font-family="Helvetica,sans-Serif" font-size="10.00"> </text>
</a>
</g>
</g>
<!-- Node4&#45;&gt;Node3 -->
<g id="edge3" class="edge">
<title>Node4&#45;&gt;Node3</title>
<path fill="none" stroke="midnightblue" d="M1379.74,-823.35C1386.99,-779.78 1391.6,-708.01 1356.5,-661 1238.7,-503.23 997.45,-454.87 859.77,-440.05"/>
<polygon fill="none" stroke="midnightblue" points="1376.29,-822.8 1377.97,-833.26 1383.18,-824.03 1376.29,-822.8"/>
</g>
<!-- Node5 -->
<g id="node5" class="node">
<title>Node5</title>
<g id="a_node5"><a xlink:href="../../d3/d8e/classSnapPoint.html" target="_top" xlink:title=" ">
<polygon fill="white" stroke="black" points="34.5,-789.5 34.5,-934.5 210.5,-934.5 210.5,-789.5 34.5,-789.5"/>
<text text-anchor="middle" x="122.5" y="-922.5" font-family="Helvetica,sans-Serif" font-size="10.00">SnapPoint</text>
<polyline fill="none" stroke="black" points="34.5,-915.5 210.5,-915.5 "/>
<text text-anchor="start" x="42.5" y="-903.5" font-family="Helvetica,sans-Serif" font-size="10.00">+ int Id</text>
<text text-anchor="start" x="42.5" y="-892.5" font-family="Helvetica,sans-Serif" font-size="10.00">+ Vector2 Position</text>
<polyline fill="none" stroke="black" points="34.5,-885.5 210.5,-885.5 "/>
<text text-anchor="start" x="42.5" y="-873.5" font-family="Helvetica,sans-Serif" font-size="10.00">+ SnapPoint(string name,</text>
<text text-anchor="start" x="42.5" y="-862.5" font-family="Helvetica,sans-Serif" font-size="10.00"> int id, Vector2 anchor,</text>
<text text-anchor="start" x="42.5" y="-851.5" font-family="Helvetica,sans-Serif" font-size="10.00"> Vector2 offset)</text>
<text text-anchor="start" x="42.5" y="-840.5" font-family="Helvetica,sans-Serif" font-size="10.00">+ void Calculate(UIElement</text>
<text text-anchor="start" x="42.5" y="-829.5" font-family="Helvetica,sans-Serif" font-size="10.00"> element)</text>
<text text-anchor="start" x="42.5" y="-818.5" font-family="Helvetica,sans-Serif" font-size="10.00">+ void ThisIsAHackThatChanges</text>
<text text-anchor="start" x="42.5" y="-807.5" font-family="Helvetica,sans-Serif" font-size="10.00">TheSnapPointsInfo(Vector2</text>
<text text-anchor="start" x="42.5" y="-796.5" font-family="Helvetica,sans-Serif" font-size="10.00"> anchor, Vector2 offset, int id)</text>
</a>
</g>
</g>
<!-- Node5&#45;&gt;Node3 -->
<g id="edge4" class="edge">
<title>Node5&#45;&gt;Node3</title>
<path fill="none" stroke="#404040" d="M124.09,-789.21C128.59,-747.35 140.72,-696.06 171.5,-661 293.32,-522.21 510.13,-467.5 643.13,-446.36"/>
<polygon fill="none" stroke="#404040" points="643.48,-446.3 648.8,-441.44 655.34,-444.47 650.02,-449.34 643.48,-446.3"/>
<text text-anchor="middle" x="202" y="-702.5" font-family="Helvetica,sans-Serif" font-size="10.00"> &#45;_snapPoint</text>
</g>
<!-- Node6 -->
<g id="node6" class="node">
<title>Node6</title>
<g id="a_node6"><a xlink:title=" ">
<polygon fill="white" stroke="#bfbfbf" points="100.5,-1037.5 100.5,-1094.5 144.5,-1094.5 144.5,-1037.5 100.5,-1037.5"/>
<text text-anchor="middle" x="122.5" y="-1082.5" font-family="Helvetica,sans-Serif" font-size="10.00">string</text>
<polyline fill="none" stroke="#bfbfbf" points="100.5,-1075.5 144.5,-1075.5 "/>
<text text-anchor="middle" x="122.5" y="-1063.5" font-family="Helvetica,sans-Serif" font-size="10.00"> </text>
<polyline fill="none" stroke="#bfbfbf" points="100.5,-1056.5 144.5,-1056.5 "/>
<text text-anchor="middle" x="122.5" y="-1044.5" font-family="Helvetica,sans-Serif" font-size="10.00"> </text>
</a>
</g>
</g>
<!-- Node6&#45;&gt;Node5 -->
<g id="edge5" class="edge">
<title>Node6&#45;&gt;Node5</title>
<path fill="none" stroke="#404040" d="M122.5,-1037.34C122.5,-1013.96 122.5,-979.21 122.5,-946.87"/>
<polygon fill="none" stroke="#404040" points="122.5,-946.62 118.5,-940.62 122.5,-934.62 126.5,-940.62 122.5,-946.62"/>
<text text-anchor="middle" x="143" y="-994.5" font-family="Helvetica,sans-Serif" font-size="10.00"> +Name</text>
</g>
<!-- Node7 -->
<g id="node7" class="node">
<title>Node7</title>
<g id="a_node7"><a xlink:title=" ">
<polygon fill="white" stroke="#bfbfbf" points="0,-1037.5 0,-1094.5 53,-1094.5 53,-1037.5 0,-1037.5"/>
<text text-anchor="middle" x="26.5" y="-1082.5" font-family="Helvetica,sans-Serif" font-size="10.00">Vector2</text>
<polyline fill="none" stroke="#bfbfbf" points="0,-1075.5 53,-1075.5 "/>
<text text-anchor="middle" x="26.5" y="-1063.5" font-family="Helvetica,sans-Serif" font-size="10.00"> </text>
<polyline fill="none" stroke="#bfbfbf" points="0,-1056.5 53,-1056.5 "/>
<text text-anchor="middle" x="26.5" y="-1044.5" font-family="Helvetica,sans-Serif" font-size="10.00"> </text>
</a>
</g>
</g>
<!-- Node7&#45;&gt;Node1 -->
<g id="edge18" class="edge">
<title>Node7&#45;&gt;Node1</title>
<path fill="none" stroke="#404040" d="M22.01,-1037.31C16.11,-998.47 6.5,-925.55 6.5,-863 6.5,-863 6.5,-863 6.5,-139.5 6.5,-113.74 22.62,-92.51 42.57,-76.1"/>
<polygon fill="none" stroke="#404040" points="42.76,-75.96 45.09,-69.13 52.29,-68.67 49.95,-75.49 42.76,-75.96"/>
<text text-anchor="middle" x="48" y="-430" font-family="Helvetica,sans-Serif" font-size="10.00"> +MousePosition</text>
</g>
<!-- Node7&#45;&gt;Node5 -->
<g id="edge6" class="edge">
<title>Node7&#45;&gt;Node5</title>
<path fill="none" stroke="#404040" d="M39.65,-1037.34C50.9,-1013.65 67.71,-978.29 83.25,-945.59"/>
<polygon fill="none" stroke="#404040" points="83.31,-945.46 82.27,-938.32 88.46,-934.62 89.5,-941.76 83.31,-945.46"/>
<text text-anchor="middle" x="92.5" y="-1000" font-family="Helvetica,sans-Serif" font-size="10.00"> &#45;_anchor</text>
<text text-anchor="middle" x="92.5" y="-989" font-family="Helvetica,sans-Serif" font-size="10.00">&#45;_offset</text>
</g>
<!-- Node8 -->
<g id="node8" class="node">
<title>Node8</title>
<g id="a_node8"><a xlink:href="../../d8/daa/structCalculatedStyle.html" target="_top" xlink:title=" ">
<polygon fill="white" stroke="black" points="347.5,-806 347.5,-918 493.5,-918 493.5,-806 347.5,-806"/>
<text text-anchor="middle" x="420.5" y="-906" font-family="Helvetica,sans-Serif" font-size="10.00">CalculatedStyle</text>
<polyline fill="none" stroke="black" points="347.5,-899 493.5,-899 "/>
<text text-anchor="middle" x="420.5" y="-887" font-family="Helvetica,sans-Serif" font-size="10.00"> </text>
<polyline fill="none" stroke="black" points="347.5,-880 493.5,-880 "/>
<text text-anchor="start" x="355.5" y="-868" font-family="Helvetica,sans-Serif" font-size="10.00">+ CalculatedStyle(float</text>
<text text-anchor="start" x="355.5" y="-857" font-family="Helvetica,sans-Serif" font-size="10.00"> x, float y, float width,</text>
<text text-anchor="start" x="355.5" y="-846" font-family="Helvetica,sans-Serif" font-size="10.00"> float height)</text>
<text text-anchor="start" x="355.5" y="-835" font-family="Helvetica,sans-Serif" font-size="10.00">+ Rectangle ToRectangle()</text>
<text text-anchor="start" x="355.5" y="-824" font-family="Helvetica,sans-Serif" font-size="10.00">+ Vector2 Position()</text>
<text text-anchor="start" x="355.5" y="-813" font-family="Helvetica,sans-Serif" font-size="10.00">+ Vector2 Center()</text>
</a>
</g>
</g>
<!-- Node8&#45;&gt;Node3 -->
<g id="edge7" class="edge">
<title>Node8&#45;&gt;Node3</title>
<path fill="none" stroke="#404040" d="M447.17,-805.59C468.3,-764.07 499.94,-706.77 534.5,-661 567.59,-617.18 608.56,-573.12 646.32,-535.61"/>
<polygon fill="none" stroke="#404040" points="646.79,-535.15 648.25,-528.09 655.33,-526.72 653.87,-533.78 646.79,-535.15"/>
<text text-anchor="middle" x="581" y="-713.5" font-family="Helvetica,sans-Serif" font-size="10.00"> &#45;_dimensions</text>
<text text-anchor="middle" x="581" y="-702.5" font-family="Helvetica,sans-Serif" font-size="10.00">&#45;_innerDimensions</text>
<text text-anchor="middle" x="581" y="-691.5" font-family="Helvetica,sans-Serif" font-size="10.00">&#45;_outerDimensions</text>
</g>
<!-- Node9 -->
<g id="node9" class="node">
<title>Node9</title>
<g id="a_node9"><a xlink:title=" ">
<polygon fill="white" stroke="#bfbfbf" points="401.5,-1037.5 401.5,-1094.5 439.5,-1094.5 439.5,-1037.5 401.5,-1037.5"/>
<text text-anchor="middle" x="420.5" y="-1082.5" font-family="Helvetica,sans-Serif" font-size="10.00">float</text>
<polyline fill="none" stroke="#bfbfbf" points="401.5,-1075.5 439.5,-1075.5 "/>
<text text-anchor="middle" x="420.5" y="-1063.5" font-family="Helvetica,sans-Serif" font-size="10.00"> </text>
<polyline fill="none" stroke="#bfbfbf" points="401.5,-1056.5 439.5,-1056.5 "/>
<text text-anchor="middle" x="420.5" y="-1044.5" font-family="Helvetica,sans-Serif" font-size="10.00"> </text>
</a>
</g>
</g>
<!-- Node9&#45;&gt;Node3 -->
<g id="edge10" class="edge">
<title>Node9&#45;&gt;Node3</title>
<path fill="none" stroke="#404040" d="M401.43,-1059.25C365.15,-1047.16 287.01,-1015.28 255.5,-957 215.34,-882.72 215.59,-841.42 255.5,-767 337.23,-614.58 522.7,-519.95 643.87,-472.03"/>
<polygon fill="none" stroke="#404040" points="644.21,-471.9 648.35,-465.99 655.39,-467.54 651.26,-473.45 644.21,-471.9"/>
<text text-anchor="middle" x="297" y="-914.5" font-family="Helvetica,sans-Serif" font-size="10.00"> +HAlign</text>
<text text-anchor="middle" x="297" y="-903.5" font-family="Helvetica,sans-Serif" font-size="10.00">+MarginBottom</text>
<text text-anchor="middle" x="297" y="-892.5" font-family="Helvetica,sans-Serif" font-size="10.00">+MarginLeft</text>
<text text-anchor="middle" x="297" y="-881.5" font-family="Helvetica,sans-Serif" font-size="10.00">+MarginRight</text>
<text text-anchor="middle" x="297" y="-870.5" font-family="Helvetica,sans-Serif" font-size="10.00">+MarginTop</text>
<text text-anchor="middle" x="297" y="-859.5" font-family="Helvetica,sans-Serif" font-size="10.00">+PaddingBottom</text>
<text text-anchor="middle" x="297" y="-848.5" font-family="Helvetica,sans-Serif" font-size="10.00">+PaddingLeft</text>
<text text-anchor="middle" x="297" y="-837.5" font-family="Helvetica,sans-Serif" font-size="10.00">+PaddingRight</text>
<text text-anchor="middle" x="297" y="-826.5" font-family="Helvetica,sans-Serif" font-size="10.00">+PaddingTop</text>
<text text-anchor="middle" x="297" y="-815.5" font-family="Helvetica,sans-Serif" font-size="10.00">+VAlign</text>
<text text-anchor="middle" x="297" y="-804.5" font-family="Helvetica,sans-Serif" font-size="10.00">...</text>
</g>
<!-- Node9&#45;&gt;Node8 -->
<g id="edge8" class="edge">
<title>Node9&#45;&gt;Node8</title>
<path fill="none" stroke="#404040" d="M420.5,-1037.34C420.5,-1009.86 420.5,-966.68 420.5,-930.17"/>
<polygon fill="none" stroke="#404040" points="420.5,-930.08 416.5,-924.08 420.5,-918.08 424.5,-924.08 420.5,-930.08"/>
<text text-anchor="middle" x="442.5" y="-1011" font-family="Helvetica,sans-Serif" font-size="10.00"> +Height</text>
<text text-anchor="middle" x="442.5" y="-1000" font-family="Helvetica,sans-Serif" font-size="10.00">+Width</text>
<text text-anchor="middle" x="442.5" y="-989" font-family="Helvetica,sans-Serif" font-size="10.00">+X</text>
<text text-anchor="middle" x="442.5" y="-978" font-family="Helvetica,sans-Serif" font-size="10.00">+Y</text>
</g>
<!-- Node11 -->
<g id="node11" class="node">
<title>Node11</title>
<g id="a_node11"><a xlink:href="../../d1/de0/structStyleDimension.html" target="_top" xlink:title=" ">
<polygon fill="white" stroke="black" points="511.5,-767.5 511.5,-956.5 661.5,-956.5 661.5,-767.5 511.5,-767.5"/>
<text text-anchor="middle" x="586.5" y="-944.5" font-family="Helvetica,sans-Serif" font-size="10.00">StyleDimension</text>
<polyline fill="none" stroke="black" points="511.5,-937.5 661.5,-937.5 "/>
<text text-anchor="middle" x="586.5" y="-925.5" font-family="Helvetica,sans-Serif" font-size="10.00"> </text>
<polyline fill="none" stroke="black" points="511.5,-918.5 661.5,-918.5 "/>
<text text-anchor="start" x="519.5" y="-906.5" font-family="Helvetica,sans-Serif" font-size="10.00">+ StyleDimension(float</text>
<text text-anchor="start" x="519.5" y="-895.5" font-family="Helvetica,sans-Serif" font-size="10.00"> pixels, float precent)</text>
<text text-anchor="start" x="519.5" y="-884.5" font-family="Helvetica,sans-Serif" font-size="10.00">+ void Set(float pixels,</text>
<text text-anchor="start" x="519.5" y="-873.5" font-family="Helvetica,sans-Serif" font-size="10.00"> float precent)</text>
<text text-anchor="start" x="519.5" y="-862.5" font-family="Helvetica,sans-Serif" font-size="10.00">+ float GetValue(float</text>
<text text-anchor="start" x="519.5" y="-851.5" font-family="Helvetica,sans-Serif" font-size="10.00"> containerSize)</text>
<text text-anchor="start" x="519.5" y="-840.5" font-family="Helvetica,sans-Serif" font-size="10.00">+ static StyleDimension</text>
<text text-anchor="start" x="519.5" y="-829.5" font-family="Helvetica,sans-Serif" font-size="10.00"> FromPixels(float pixels)</text>
<text text-anchor="start" x="519.5" y="-818.5" font-family="Helvetica,sans-Serif" font-size="10.00">+ static StyleDimension</text>
<text text-anchor="start" x="519.5" y="-807.5" font-family="Helvetica,sans-Serif" font-size="10.00"> FromPercent(float percent)</text>
<text text-anchor="start" x="519.5" y="-796.5" font-family="Helvetica,sans-Serif" font-size="10.00">+ static StyleDimension</text>
<text text-anchor="start" x="519.5" y="-785.5" font-family="Helvetica,sans-Serif" font-size="10.00"> FromPixelsAndPercent</text>
<text text-anchor="start" x="519.5" y="-774.5" font-family="Helvetica,sans-Serif" font-size="10.00">(float pixels, float percent)</text>
</a>
</g>
</g>
<!-- Node9&#45;&gt;Node11 -->
<g id="edge12" class="edge">
<title>Node9&#45;&gt;Node11</title>
<path fill="none" stroke="#404040" d="M439.88,-1047.75C448.91,-1039.39 459.6,-1029 468.5,-1019 483.07,-1002.62 497.79,-984.59 511.67,-966.77"/>
<polygon fill="none" stroke="#404040" points="511.95,-966.41 512.45,-959.21 519.28,-956.91 518.78,-964.1 511.95,-966.41"/>
<text text-anchor="middle" x="526.5" y="-1000" font-family="Helvetica,sans-Serif" font-size="10.00"> +Pixels</text>
<text text-anchor="middle" x="526.5" y="-989" font-family="Helvetica,sans-Serif" font-size="10.00">+Precent</text>
</g>
<!-- Node10 -->
<g id="node10" class="node">
<title>Node10</title>
<g id="a_node10"><a xlink:title=" ">
<polygon fill="white" stroke="#bfbfbf" points="740.5,-828 740.5,-896 882.5,-896 882.5,-828 740.5,-828"/>
<text text-anchor="start" x="748.5" y="-884" font-family="Helvetica,sans-Serif" font-size="10.00">static readonly Rasterizer</text>
<text text-anchor="middle" x="811.5" y="-873" font-family="Helvetica,sans-Serif" font-size="10.00">State</text>
<polyline fill="none" stroke="#bfbfbf" points="740.5,-866 882.5,-866 "/>
<text text-anchor="middle" x="811.5" y="-854" font-family="Helvetica,sans-Serif" font-size="10.00"> </text>
<polyline fill="none" stroke="#bfbfbf" points="740.5,-847 882.5,-847 "/>
<text text-anchor="middle" x="811.5" y="-835" font-family="Helvetica,sans-Serif" font-size="10.00"> </text>
</a>
</g>
</g>
<!-- Node10&#45;&gt;Node3 -->
<g id="edge9" class="edge">
<title>Node10&#45;&gt;Node3</title>
<path fill="none" stroke="#404040" d="M790.93,-827.61C778.87,-806.04 764.82,-776.9 758.5,-749 751.69,-718.92 747.83,-686.81 745.95,-655.01"/>
<polygon fill="none" stroke="#404040" points="745.94,-654.83 741.64,-649.05 745.32,-642.85 749.63,-648.64 745.94,-654.83"/>
<text text-anchor="start" x="758.5" y="-708" font-family="Helvetica,sans-Serif" font-size="10.00"> &#45;OverflowHiddenRasterizer</text>
<text text-anchor="middle" x="826" y="-697" font-family="Helvetica,sans-Serif" font-size="10.00">State</text>
</g>
<!-- Node11&#45;&gt;Node3 -->
<g id="edge11" class="edge">
<title>Node11&#45;&gt;Node3</title>
<path fill="none" stroke="#404040" d="M623.92,-767.45C637.44,-733.64 653.34,-693.9 669.36,-653.84"/>
<polygon fill="none" stroke="#404040" points="669.43,-653.68 667.94,-646.62 673.88,-642.54 675.37,-649.6 669.43,-653.68"/>
<text text-anchor="middle" x="692.5" y="-741" font-family="Helvetica,sans-Serif" font-size="10.00"> +Height</text>
<text text-anchor="middle" x="692.5" y="-730" font-family="Helvetica,sans-Serif" font-size="10.00">+Left</text>
<text text-anchor="middle" x="692.5" y="-719" font-family="Helvetica,sans-Serif" font-size="10.00">+MaxHeight</text>
<text text-anchor="middle" x="692.5" y="-708" font-family="Helvetica,sans-Serif" font-size="10.00">+MaxWidth</text>
<text text-anchor="middle" x="692.5" y="-697" font-family="Helvetica,sans-Serif" font-size="10.00">+MinHeight</text>
<text text-anchor="middle" x="692.5" y="-686" font-family="Helvetica,sans-Serif" font-size="10.00">+MinWidth</text>
<text text-anchor="middle" x="692.5" y="-675" font-family="Helvetica,sans-Serif" font-size="10.00">+Top</text>
<text text-anchor="middle" x="692.5" y="-664" font-family="Helvetica,sans-Serif" font-size="10.00">+Width</text>
</g>
<!-- Node11&#45;&gt;Node11 -->
<g id="edge13" class="edge">
<title>Node11&#45;&gt;Node11</title>
<path fill="none" stroke="#404040" d="M661.67,-884.55C672.34,-880.9 679.5,-873.38 679.5,-862 679.5,-855.06 676.84,-849.56 672.35,-845.5"/>
<polygon fill="none" stroke="#404040" points="672.11,-845.36 664.92,-845.89 661.67,-839.45 668.86,-838.93 672.11,-845.36"/>
<text text-anchor="middle" x="701" y="-865" font-family="Helvetica,sans-Serif" font-size="10.00"> +Empty</text>
<text text-anchor="middle" x="701" y="-854" font-family="Helvetica,sans-Serif" font-size="10.00">+Fill</text>
</g>
<!-- Node12 -->
<g id="node12" class="node">
<title>Node12</title>
<g id="a_node12"><a xlink:title=" ">
<polygon fill="white" stroke="#bfbfbf" points="901,-833.5 901,-890.5 930,-890.5 930,-833.5 901,-833.5"/>
<text text-anchor="middle" x="915.5" y="-878.5" font-family="Helvetica,sans-Serif" font-size="10.00">int</text>
<polyline fill="none" stroke="#bfbfbf" points="901,-871.5 930,-871.5 "/>
<text text-anchor="middle" x="915.5" y="-859.5" font-family="Helvetica,sans-Serif" font-size="10.00"> </text>
<polyline fill="none" stroke="#bfbfbf" points="901,-852.5 930,-852.5 "/>
<text text-anchor="middle" x="915.5" y="-840.5" font-family="Helvetica,sans-Serif" font-size="10.00"> </text>
</a>
</g>
</g>
<!-- Node12&#45;&gt;Node3 -->
<g id="edge14" class="edge">
<title>Node12&#45;&gt;Node3</title>
<path fill="none" stroke="#404040" d="M916.13,-833.36C916.22,-794.02 913.36,-720.11 893.5,-661 886.07,-638.89 876.25,-616.62 865.28,-595.11"/>
<polygon fill="none" stroke="#404040" points="865.18,-594.92 858.86,-591.45 859.63,-584.28 865.95,-587.75 865.18,-594.92"/>
<text text-anchor="middle" x="940.5" y="-702.5" font-family="Helvetica,sans-Serif" font-size="10.00"> &#45;_idCounter</text>
</g>
<!-- Node13 -->
<g id="node13" class="node">
<title>Node13</title>
<g id="a_node13"><a xlink:title=" ">
<polygon fill="white" stroke="#bfbfbf" points="948,-833.5 948,-890.5 1055,-890.5 1055,-833.5 948,-833.5"/>
<text text-anchor="middle" x="1001.5" y="-878.5" font-family="Helvetica,sans-Serif" font-size="10.00">List&lt; UIElement &gt;</text>
<polyline fill="none" stroke="#bfbfbf" points="948,-871.5 1055,-871.5 "/>
<text text-anchor="middle" x="1001.5" y="-859.5" font-family="Helvetica,sans-Serif" font-size="10.00"> </text>
<polyline fill="none" stroke="#bfbfbf" points="948,-852.5 1055,-852.5 "/>
<text text-anchor="middle" x="1001.5" y="-840.5" font-family="Helvetica,sans-Serif" font-size="10.00"> </text>
</a>
</g>
</g>
<!-- Node13&#45;&gt;Node3 -->
<g id="edge15" class="edge">
<title>Node13&#45;&gt;Node3</title>
<path fill="none" stroke="#404040" d="M1003.01,-833.28C1004.06,-793.21 1001.74,-717.69 974.5,-661 949.56,-609.09 908.31,-561.33 868.44,-523.11"/>
<polygon fill="none" stroke="#404040" points="868.42,-523.09 861.31,-521.88 859.7,-514.85 866.8,-516.06 868.42,-523.09"/>
<text text-anchor="middle" x="1026.5" y="-702.5" font-family="Helvetica,sans-Serif" font-size="10.00"> #Elements</text>
</g>
<!-- Node14 -->
<g id="node14" class="node">
<title>Node14</title>
<g id="a_node14"><a xlink:title=" ">
<polygon fill="white" stroke="#bfbfbf" points="1073.5,-833.5 1073.5,-890.5 1111.5,-890.5 1111.5,-833.5 1073.5,-833.5"/>
<text text-anchor="middle" x="1092.5" y="-878.5" font-family="Helvetica,sans-Serif" font-size="10.00">bool</text>
<polyline fill="none" stroke="#bfbfbf" points="1073.5,-871.5 1111.5,-871.5 "/>
<text text-anchor="middle" x="1092.5" y="-859.5" font-family="Helvetica,sans-Serif" font-size="10.00"> </text>
<polyline fill="none" stroke="#bfbfbf" points="1073.5,-852.5 1111.5,-852.5 "/>
<text text-anchor="middle" x="1092.5" y="-840.5" font-family="Helvetica,sans-Serif" font-size="10.00"> </text>
</a>
</g>
</g>
<!-- Node14&#45;&gt;Node3 -->
<g id="edge16" class="edge">
<title>Node14&#45;&gt;Node3</title>
<path fill="none" stroke="#404040" d="M1090.32,-833.3C1086.13,-785.41 1075.83,-689.52 1058.5,-661 1013.78,-587.4 935.61,-529.4 870.14,-490.38"/>
<polygon fill="none" stroke="#404040" points="870.1,-490.36 862.9,-490.77 859.75,-484.28 866.95,-483.87 870.1,-490.36"/>
<text text-anchor="middle" x="1147" y="-719" font-family="Helvetica,sans-Serif" font-size="10.00"> +IgnoresMouseInteraction</text>
<text text-anchor="middle" x="1147" y="-708" font-family="Helvetica,sans-Serif" font-size="10.00">+OverflowHidden</text>
<text text-anchor="middle" x="1147" y="-697" font-family="Helvetica,sans-Serif" font-size="10.00">+UseImmediateMode</text>
<text text-anchor="middle" x="1147" y="-686" font-family="Helvetica,sans-Serif" font-size="10.00">&#45;_isInitialized</text>
</g>
<!-- Node15 -->
<g id="node15" class="node">
<title>Node15</title>
<g id="a_node15"><a xlink:title=" ">
<polygon fill="white" stroke="#bfbfbf" points="1195,-833.5 1195,-890.5 1278,-890.5 1278,-833.5 1195,-833.5"/>
<text text-anchor="middle" x="1236.5" y="-878.5" font-family="Helvetica,sans-Serif" font-size="10.00">SamplerState</text>
<polyline fill="none" stroke="#bfbfbf" points="1195,-871.5 1278,-871.5 "/>
<text text-anchor="middle" x="1236.5" y="-859.5" font-family="Helvetica,sans-Serif" font-size="10.00"> </text>
<polyline fill="none" stroke="#bfbfbf" points="1195,-852.5 1278,-852.5 "/>
<text text-anchor="middle" x="1236.5" y="-840.5" font-family="Helvetica,sans-Serif" font-size="10.00"> </text>
</a>
</g>
</g>
<!-- Node15&#45;&gt;Node3 -->
<g id="edge17" class="edge">
<title>Node15&#45;&gt;Node3</title>
<path fill="none" stroke="#404040" d="M1236.65,-833.4C1236.41,-785.2 1233.49,-688.21 1214.5,-661 1134.33,-546.11 978.92,-486.36 871.76,-457.46"/>
<polygon fill="none" stroke="#404040" points="871.52,-457.4 864.7,-459.74 859.92,-454.34 866.74,-452 871.52,-457.4"/>
<text text-anchor="middle" x="1292.5" y="-702.5" font-family="Helvetica,sans-Serif" font-size="10.00"> +OverrideSamplerState</text>
</g>
</g>
</svg>
