<?xml version="1.0" encoding="UTF-8" standalone="no"?>
<!DOCTYPE svg PUBLIC "-//W3C//DTD SVG 1.1//EN"
 "http://www.w3.org/Graphics/SVG/1.1/DTD/svg11.dtd">
<!-- Generated by graphviz version 2.43.0 (0)
 -->
<!-- Title: Terraria.Player.GetItem Pages: 1 -->
<svg width="2038pt" height="426pt"
 viewBox="0.00 0.00 2038.00 425.50" xmlns="http://www.w3.org/2000/svg" xmlns:xlink="http://www.w3.org/1999/xlink">
<g id="graph0" class="graph" transform="scale(1 1) rotate(0) translate(4 421.5)">
<title>Terraria.Player.GetItem</title>
<!-- Node1 -->
<g id="Node000001" class="node">
<title>Node1</title>
<g id="a_Node000001"><a xlink:title=" ">
<polygon fill="#999999" stroke="#666666" points="2030,-228.5 1901,-228.5 1901,-209.5 2030,-209.5 2030,-228.5"/>
<text text-anchor="middle" x="1965.5" y="-216.5" font-family="Helvetica,sans-Serif" font-size="10.00">Terraria.Player.GetItem</text>
</a>
</g>
</g>
<!-- Node2 -->
<g id="Node000002" class="node">
<title>Node2</title>
<g id="a_Node000002"><a xlink:href="../../da/dd3/classTerraria_1_1Projectile_af7673f35adb645f23359ac05354c1d13.html#af7673f35adb645f23359ac05354c1d13" target="_top" xlink:title=" ">
<polygon fill="white" stroke="#666666" points="1861.5,-417.5 1686.5,-417.5 1686.5,-376.5 1861.5,-376.5 1861.5,-417.5"/>
<text text-anchor="start" x="1694.5" y="-405.5" font-family="Helvetica,sans-Serif" font-size="10.00">Terraria.Projectile.AI</text>
<text text-anchor="start" x="1694.5" y="-394.5" font-family="Helvetica,sans-Serif" font-size="10.00">_061_FishingBobber_GiveItemTo</text>
<text text-anchor="middle" x="1774" y="-383.5" font-family="Helvetica,sans-Serif" font-size="10.00">Player</text>
</a>
</g>
</g>
<!-- Node1&#45;&gt;Node2 -->
<g id="edge1_Node000001_Node000002" class="edge">
<title>Node1&#45;&gt;Node2</title>
<g id="a_edge1_Node000001_Node000002"><a xlink:title=" ">
<path fill="none" stroke="#63b8ff" d="M1955.76,-238.27C1941.09,-268.59 1908.79,-327.53 1865,-362 1857.89,-367.6 1849.77,-372.39 1841.39,-376.47"/>
<polygon fill="#63b8ff" stroke="#63b8ff" points="1959.11,-239.36 1960.2,-228.82 1952.78,-236.38 1959.11,-239.36"/>
</a>
</g>
</g>
<!-- Node3 -->
<g id="Node000003" class="node">
<title>Node3</title>
<g id="a_Node000003"><a xlink:href="../../df/dd3/classTerraria_1_1Lang_aa01ab0d8d3b6e8f3aa9f2867cb7696c3.html#aa01ab0d8d3b6e8f3aa9f2867cb7696c3" target="_top" xlink:title=" ">
<polygon fill="white" stroke="#666666" points="1647,-354.5 1474,-354.5 1474,-335.5 1647,-335.5 1647,-354.5"/>
<text text-anchor="middle" x="1560.5" y="-342.5" font-family="Helvetica,sans-Serif" font-size="10.00">Terraria.Lang.BartenderHelpText</text>
</a>
</g>
</g>
<!-- Node1&#45;&gt;Node3 -->
<g id="edge2_Node000001_Node000003" class="edge">
<title>Node1&#45;&gt;Node3</title>
<g id="a_edge2_Node000001_Node000003"><a xlink:title=" ">
<path fill="none" stroke="#63b8ff" d="M1954.24,-237.44C1938.73,-263.25 1906.65,-309.18 1865,-329 1786.26,-366.46 1682.72,-362.23 1619.19,-354.52"/>
<polygon fill="#63b8ff" stroke="#63b8ff" points="1957.36,-239.04 1959.36,-228.64 1951.31,-235.52 1957.36,-239.04"/>
</a>
</g>
</g>
<!-- Node13 -->
<g id="Node000013" class="node">
<title>Node13</title>
<g id="a_Node000013"><a xlink:href="../../d4/d03/classTerraria_1_1Player_ab30c53bfe9ce3fa492a047726c4bee4d.html#ab30c53bfe9ce3fa492a047726c4bee4d" target="_top" xlink:title=" ">
<polygon fill="white" stroke="#666666" points="1841,-320 1707,-320 1707,-290 1841,-290 1841,-320"/>
<text text-anchor="start" x="1715" y="-308" font-family="Helvetica,sans-Serif" font-size="10.00">Terraria.Player.dropItem</text>
<text text-anchor="middle" x="1774" y="-297" font-family="Helvetica,sans-Serif" font-size="10.00">Check</text>
</a>
</g>
</g>
<!-- Node1&#45;&gt;Node13 -->
<g id="edge14_Node000001_Node000013" class="edge">
<title>Node1&#45;&gt;Node13</title>
<g id="a_edge14_Node000001_Node000013"><a xlink:title=" ">
<path fill="none" stroke="#63b8ff" d="M1943.86,-234.42C1924.41,-248.31 1893.99,-268.44 1865,-281 1857.28,-284.34 1848.99,-287.32 1840.67,-289.94"/>
<polygon fill="#63b8ff" stroke="#63b8ff" points="1945.95,-237.23 1951.98,-228.52 1941.83,-231.56 1945.95,-237.23"/>
</a>
</g>
</g>
<!-- Node14 -->
<g id="Node000014" class="node">
<title>Node14</title>
<g id="a_Node000014"><a xlink:href="../../d4/d03/classTerraria_1_1Player_a85d68d1e02d8ca3eaa232afad1fde400.html#a85d68d1e02d8ca3eaa232afad1fde400" target="_top" xlink:title=" ">
<polygon fill="white" stroke="#666666" points="1862.5,-271.5 1685.5,-271.5 1685.5,-252.5 1862.5,-252.5 1862.5,-271.5"/>
<text text-anchor="middle" x="1774" y="-259.5" font-family="Helvetica,sans-Serif" font-size="10.00">Terraria.Player.DropSelectedItem</text>
</a>
</g>
</g>
<!-- Node1&#45;&gt;Node14 -->
<g id="edge15_Node000001_Node000014" class="edge">
<title>Node1&#45;&gt;Node14</title>
<g id="a_edge15_Node000001_Node000014"><a xlink:title=" ">
<path fill="none" stroke="#63b8ff" d="M1916.01,-230.99C1899.81,-234.92 1881.65,-239.24 1865,-243 1850.83,-246.2 1835.36,-249.53 1821.3,-252.49"/>
<polygon fill="#63b8ff" stroke="#63b8ff" points="1916.92,-234.37 1925.81,-228.6 1915.27,-227.57 1916.92,-234.37"/>
</a>
</g>
</g>
<!-- Node15 -->
<g id="Node000015" class="node">
<title>Node15</title>
<g id="a_Node000015"><a xlink:href="../../d4/d2e/classTerraria_1_1Initializers_1_1UILinksInitializer_abbf91771978c3de53d8e4d7c7e12df8c.html#abbf91771978c3de53d8e4d7c7e12df8c" target="_top" xlink:title=" ">
<polygon fill="white" stroke="#666666" points="1847,-234 1701,-234 1701,-204 1847,-204 1847,-234"/>
<text text-anchor="start" x="1709" y="-222" font-family="Helvetica,sans-Serif" font-size="10.00">Terraria.Initializers.UILinks</text>
<text text-anchor="middle" x="1774" y="-211" font-family="Helvetica,sans-Serif" font-size="10.00">Initializer.Load</text>
</a>
</g>
</g>
<!-- Node1&#45;&gt;Node15 -->
<g id="edge16_Node000001_Node000015" class="edge">
<title>Node1&#45;&gt;Node15</title>
<g id="a_edge16_Node000001_Node000015"><a xlink:title=" ">
<path fill="none" stroke="#63b8ff" d="M1890.64,-219C1876.39,-219 1861.48,-219 1847.28,-219"/>
<polygon fill="#63b8ff" stroke="#63b8ff" points="1890.87,-222.5 1900.87,-219 1890.87,-215.5 1890.87,-222.5"/>
</a>
</g>
</g>
<!-- Node19 -->
<g id="Node000019" class="node">
<title>Node19</title>
<g id="a_Node000019"><a xlink:href="../../d8/dd3/classTerraria_1_1UI_1_1ChestUI_a727dd1debdf390efd9367e751d2b437a.html#a727dd1debdf390efd9367e751d2b437a" target="_top" xlink:title=" ">
<polygon fill="white" stroke="#666666" points="1846.5,-185.5 1701.5,-185.5 1701.5,-166.5 1846.5,-166.5 1846.5,-185.5"/>
<text text-anchor="middle" x="1774" y="-173.5" font-family="Helvetica,sans-Serif" font-size="10.00">Terraria.UI.ChestUI.LootAll</text>
</a>
</g>
</g>
<!-- Node1&#45;&gt;Node19 -->
<g id="edge20_Node000001_Node000019" class="edge">
<title>Node1&#45;&gt;Node19</title>
<g id="a_edge20_Node000001_Node000019"><a xlink:title=" ">
<path fill="none" stroke="#63b8ff" d="M1916.01,-207.01C1899.81,-203.08 1881.65,-198.76 1865,-195 1850.83,-191.8 1835.36,-188.47 1821.3,-185.51"/>
<polygon fill="#63b8ff" stroke="#63b8ff" points="1915.27,-210.43 1925.81,-209.4 1916.92,-203.63 1915.27,-210.43"/>
</a>
</g>
</g>
<!-- Node25 -->
<g id="Node000025" class="node">
<title>Node25</title>
<g id="a_Node000025"><a xlink:href="../../d9/d66/classTerraria_1_1GameContent_1_1Tile__Entities_1_1TEDisplayDoll_a076e2f6d376457028bd1ccb595441798.html#a076e2f6d376457028bd1ccb595441798" target="_top" xlink:title=" ">
<polygon fill="white" stroke="#666666" points="1861.5,-148.5 1686.5,-148.5 1686.5,-107.5 1861.5,-107.5 1861.5,-148.5"/>
<text text-anchor="start" x="1694.5" y="-136.5" font-family="Helvetica,sans-Serif" font-size="10.00">Terraria.GameContent.Tile</text>
<text text-anchor="start" x="1694.5" y="-125.5" font-family="Helvetica,sans-Serif" font-size="10.00">_Entities.TEDisplayDoll.Override</text>
<text text-anchor="middle" x="1774" y="-114.5" font-family="Helvetica,sans-Serif" font-size="10.00">ItemSlotLeftClick</text>
</a>
</g>
</g>
<!-- Node1&#45;&gt;Node25 -->
<g id="edge27_Node000001_Node000025" class="edge">
<title>Node1&#45;&gt;Node25</title>
<g id="a_edge27_Node000001_Node000025"><a xlink:title=" ">
<path fill="none" stroke="#63b8ff" d="M1942.98,-203.81C1923.35,-190.44 1893.19,-171.13 1865,-158 1857.83,-154.66 1850.19,-151.52 1842.5,-148.62"/>
<polygon fill="#63b8ff" stroke="#63b8ff" points="1940.99,-206.69 1951.21,-209.48 1944.96,-200.93 1940.99,-206.69"/>
</a>
</g>
</g>
<!-- Node26 -->
<g id="Node000026" class="node">
<title>Node26</title>
<g id="a_Node000026"><a xlink:href="../../d3/d99/classTerraria_1_1GameContent_1_1Tile__Entities_1_1TEHatRack_add5c9159ae52922893a4440625eb3764.html#add5c9159ae52922893a4440625eb3764" target="_top" xlink:title=" ">
<polygon fill="white" stroke="#666666" points="1865,-89.5 1683,-89.5 1683,-48.5 1865,-48.5 1865,-89.5"/>
<text text-anchor="start" x="1691" y="-77.5" font-family="Helvetica,sans-Serif" font-size="10.00">Terraria.GameContent.Tile</text>
<text text-anchor="start" x="1691" y="-66.5" font-family="Helvetica,sans-Serif" font-size="10.00">_Entities.TEHatRack.OverrideItem</text>
<text text-anchor="middle" x="1774" y="-55.5" font-family="Helvetica,sans-Serif" font-size="10.00">SlotLeftClick</text>
</a>
</g>
</g>
<!-- Node1&#45;&gt;Node26 -->
<g id="edge28_Node000001_Node000026" class="edge">
<title>Node1&#45;&gt;Node26</title>
<g id="a_edge28_Node000001_Node000026"><a xlink:title=" ">
<path fill="none" stroke="#63b8ff" d="M1954.08,-200.58C1938.19,-174.11 1905.46,-125.51 1865,-98 1860.38,-94.86 1855.41,-92.05 1850.25,-89.52"/>
<polygon fill="#63b8ff" stroke="#63b8ff" points="1951.08,-202.38 1959.15,-209.24 1957.12,-198.84 1951.08,-202.38"/>
</a>
</g>
</g>
<!-- Node27 -->
<g id="Node000027" class="node">
<title>Node27</title>
<g id="a_Node000027"><a xlink:href="../../dd/de1/classTerraria_1_1UI_1_1ItemSlot_a10000bf84a9e39bc8db67c0b1b4670c2.html#a10000bf84a9e39bc8db67c0b1b4670c2" target="_top" xlink:title=" ">
<polygon fill="white" stroke="#666666" points="1852,-30 1696,-30 1696,0 1852,0 1852,-30"/>
<text text-anchor="start" x="1704" y="-18" font-family="Helvetica,sans-Serif" font-size="10.00">Terraria.UI.ItemSlot.Override</text>
<text text-anchor="middle" x="1774" y="-7" font-family="Helvetica,sans-Serif" font-size="10.00">LeftClick</text>
</a>
</g>
</g>
<!-- Node1&#45;&gt;Node27 -->
<g id="edge29_Node000001_Node000027" class="edge">
<title>Node1&#45;&gt;Node27</title>
<g id="a_edge29_Node000001_Node000027"><a xlink:title=" ">
<path fill="none" stroke="#63b8ff" d="M1959.26,-199.39C1948.29,-162.22 1919.31,-81.43 1865,-39 1860.67,-35.62 1855.9,-32.71 1850.88,-30.21"/>
<polygon fill="#63b8ff" stroke="#63b8ff" points="1956.01,-200.76 1962.09,-209.43 1962.75,-198.86 1956.01,-200.76"/>
</a>
</g>
</g>
<!-- Node4 -->
<g id="Node000004" class="node">
<title>Node4</title>
<g id="a_Node000004"><a xlink:href="../../da/dd5/classTerraria_1_1Main_a746bea587142bb866356468c565b04d0.html#a746bea587142bb866356468c565b04d0" target="_top" xlink:title=" ">
<polygon fill="white" stroke="#666666" points="1438,-358 1289,-358 1289,-328 1438,-328 1438,-358"/>
<text text-anchor="start" x="1297" y="-346" font-family="Helvetica,sans-Serif" font-size="10.00">Terraria.Main.GUIChatDraw</text>
<text text-anchor="middle" x="1363.5" y="-335" font-family="Helvetica,sans-Serif" font-size="10.00">Inner</text>
</a>
</g>
</g>
<!-- Node3&#45;&gt;Node4 -->
<g id="edge3_Node000003_Node000004" class="edge">
<title>Node3&#45;&gt;Node4</title>
<g id="a_edge3_Node000003_Node000004"><a xlink:title=" ">
<path fill="none" stroke="#63b8ff" d="M1463.83,-344.02C1455.16,-343.93 1446.48,-343.84 1438.06,-343.75"/>
<polygon fill="#63b8ff" stroke="#63b8ff" points="1463.93,-347.52 1473.97,-344.12 1464.01,-340.52 1463.93,-347.52"/>
</a>
</g>
</g>
<!-- Node5 -->
<g id="Node000005" class="node">
<title>Node5</title>
<g id="a_Node000005"><a xlink:href="../../da/dd5/classTerraria_1_1Main_ac04e1d983086e75b687ab1649a86b97a.html#ac04e1d983086e75b687ab1649a86b97a" target="_top" xlink:title=" ">
<polygon fill="white" stroke="#666666" points="1253,-347.5 1104,-347.5 1104,-328.5 1253,-328.5 1253,-347.5"/>
<text text-anchor="middle" x="1178.5" y="-335.5" font-family="Helvetica,sans-Serif" font-size="10.00">Terraria.Main.GUIChatDraw</text>
</a>
</g>
</g>
<!-- Node4&#45;&gt;Node5 -->
<g id="edge4_Node000004_Node000005" class="edge">
<title>Node4&#45;&gt;Node5</title>
<g id="a_edge4_Node000004_Node000005"><a xlink:title=" ">
<path fill="none" stroke="#63b8ff" d="M1278.61,-340.71C1270.16,-340.48 1261.62,-340.24 1253.29,-340.02"/>
<polygon fill="#63b8ff" stroke="#63b8ff" points="1278.77,-344.21 1288.86,-340.99 1278.96,-337.22 1278.77,-344.21"/>
</a>
</g>
</g>
<!-- Node6 -->
<g id="Node000006" class="node">
<title>Node6</title>
<g id="a_Node000006"><a xlink:href="../../df/d43/classTerraria_1_1UI_1_1IngameFancyUI_a37db885fcf4d711ae255c02524ca2f6c.html#a37db885fcf4d711ae255c02524ca2f6c" target="_top" xlink:title=" ">
<polygon fill="white" stroke="#666666" points="1068,-347.5 895,-347.5 895,-328.5 1068,-328.5 1068,-347.5"/>
<text text-anchor="middle" x="981.5" y="-335.5" font-family="Helvetica,sans-Serif" font-size="10.00">Terraria.UI.IngameFancyUI.Draw</text>
</a>
</g>
</g>
<!-- Node5&#45;&gt;Node6 -->
<g id="edge5_Node000005_Node000006" class="edge">
<title>Node5&#45;&gt;Node6</title>
<g id="a_edge5_Node000005_Node000006"><a xlink:title=" ">
<path fill="none" stroke="#63b8ff" d="M1093.57,-338C1085.14,-338 1076.56,-338 1068.11,-338"/>
<polygon fill="#63b8ff" stroke="#63b8ff" points="1093.78,-341.5 1103.78,-338 1093.78,-334.5 1093.78,-341.5"/>
</a>
</g>
</g>
<!-- Node12 -->
<g id="Node000012" class="node">
<title>Node12</title>
<g id="a_Node000012"><a xlink:href="../../da/dd5/classTerraria_1_1Main_a782665fd3081af03089586918e01fde5.html#a782665fd3081af03089586918e01fde5" target="_top" xlink:title=" ">
<polygon fill="white" stroke="#666666" points="859,-305 707,-305 707,-275 859,-275 859,-305"/>
<text text-anchor="start" x="715" y="-293" font-family="Helvetica,sans-Serif" font-size="10.00">Terraria.Main.DrawInterface</text>
<text text-anchor="middle" x="783" y="-282" font-family="Helvetica,sans-Serif" font-size="10.00">_23_NPCSignsDialog</text>
</a>
</g>
</g>
<!-- Node5&#45;&gt;Node12 -->
<g id="edge12_Node000005_Node000012" class="edge">
<title>Node5&#45;&gt;Node12</title>
<g id="a_edge12_Node000005_Node000012"><a xlink:title=" ">
<path fill="none" stroke="#63b8ff" d="M1113.43,-326.83C1098.54,-324.41 1082.74,-321.99 1068,-320 997.37,-310.47 916.51,-302.19 859.18,-296.75"/>
<polygon fill="#63b8ff" stroke="#63b8ff" points="1113.13,-330.33 1123.57,-328.5 1114.27,-323.42 1113.13,-330.33"/>
</a>
</g>
</g>
<!-- Node7 -->
<g id="Node000007" class="node">
<title>Node7</title>
<g id="a_Node000007"><a xlink:href="../../da/dd5/classTerraria_1_1Main_a0645b9bdd9bbcdc3e250041b2b0dc0c3.html#a0645b9bdd9bbcdc3e250041b2b0dc0c3" target="_top" xlink:title=" ">
<polygon fill="white" stroke="#666666" points="859,-353 707,-353 707,-323 859,-323 859,-353"/>
<text text-anchor="start" x="715" y="-341" font-family="Helvetica,sans-Serif" font-size="10.00">Terraria.Main.DrawInterface</text>
<text text-anchor="middle" x="783" y="-330" font-family="Helvetica,sans-Serif" font-size="10.00">_12_IngameFancyUI</text>
</a>
</g>
</g>
<!-- Node6&#45;&gt;Node7 -->
<g id="edge6_Node000006_Node000007" class="edge">
<title>Node6&#45;&gt;Node7</title>
<g id="a_edge6_Node000006_Node000007"><a xlink:title=" ">
<path fill="none" stroke="#63b8ff" d="M884.8,-338C876.2,-338 867.56,-338 859.16,-338"/>
<polygon fill="#63b8ff" stroke="#63b8ff" points="884.88,-341.5 894.88,-338 884.88,-334.5 884.88,-341.5"/>
</a>
</g>
</g>
<!-- Node8 -->
<g id="Node000008" class="node">
<title>Node8</title>
<g id="a_Node000008"><a xlink:href="../../da/dd5/classTerraria_1_1Main_a635639e6a6d3795bbfbcf0e24fc3aac5.html#a635639e6a6d3795bbfbcf0e24fc3aac5" target="_top" xlink:title=" ">
<polygon fill="white" stroke="#666666" points="671,-305 491,-305 491,-275 671,-275 671,-305"/>
<text text-anchor="start" x="499" y="-293" font-family="Helvetica,sans-Serif" font-size="10.00">Terraria.Main.SetupDrawInterface</text>
<text text-anchor="middle" x="581" y="-282" font-family="Helvetica,sans-Serif" font-size="10.00">Layers</text>
</a>
</g>
</g>
<!-- Node7&#45;&gt;Node8 -->
<g id="edge7_Node000007_Node000008" class="edge">
<title>Node7&#45;&gt;Node8</title>
<g id="a_edge7_Node000007_Node000008"><a xlink:title=" ">
<path fill="none" stroke="#63b8ff" d="M709.33,-320.56C688.09,-315.46 665.06,-309.93 644.51,-305"/>
<polygon fill="#63b8ff" stroke="#63b8ff" points="708.73,-324.01 719.27,-322.94 710.36,-317.21 708.73,-324.01"/>
</a>
</g>
</g>
<!-- Node9 -->
<g id="Node000009" class="node">
<title>Node9</title>
<g id="a_Node000009"><a xlink:href="../../da/dd5/classTerraria_1_1Main_a36d139a1fd2647d53f25a241f3d5d5f4.html#a36d139a1fd2647d53f25a241f3d5d5f4" target="_top" xlink:title=" ">
<polygon fill="white" stroke="#666666" points="455,-299.5 303,-299.5 303,-280.5 455,-280.5 455,-299.5"/>
<text text-anchor="middle" x="379" y="-287.5" font-family="Helvetica,sans-Serif" font-size="10.00">Terraria.Main.DrawInterface</text>
</a>
</g>
</g>
<!-- Node8&#45;&gt;Node9 -->
<g id="edge8_Node000008_Node000009" class="edge">
<title>Node8&#45;&gt;Node9</title>
<g id="a_edge8_Node000008_Node000009"><a xlink:title=" ">
<path fill="none" stroke="#63b8ff" d="M480.77,-290C472.19,-290 463.6,-290 455.26,-290"/>
<polygon fill="#63b8ff" stroke="#63b8ff" points="480.82,-293.5 490.82,-290 480.82,-286.5 480.82,-293.5"/>
</a>
</g>
</g>
<!-- Node10 -->
<g id="Node000010" class="node">
<title>Node10</title>
<g id="a_Node000010"><a xlink:href="../../da/dd5/classTerraria_1_1Main_a474beeecaea4d6dd108fba56cd554d46.html#a474beeecaea4d6dd108fba56cd554d46" target="_top" xlink:title=" ">
<polygon fill="white" stroke="#666666" points="267,-299.5 145,-299.5 145,-280.5 267,-280.5 267,-299.5"/>
<text text-anchor="middle" x="206" y="-287.5" font-family="Helvetica,sans-Serif" font-size="10.00">Terraria.Main.DoDraw</text>
</a>
</g>
</g>
<!-- Node9&#45;&gt;Node10 -->
<g id="edge9_Node000009_Node000010" class="edge">
<title>Node9&#45;&gt;Node10</title>
<g id="a_edge9_Node000009_Node000010"><a xlink:title=" ">
<path fill="none" stroke="#63b8ff" d="M292.81,-290C284.1,-290 275.4,-290 267.05,-290"/>
<polygon fill="#63b8ff" stroke="#63b8ff" points="293,-293.5 303,-290 293,-286.5 293,-293.5"/>
</a>
</g>
</g>
<!-- Node11 -->
<g id="Node000011" class="node">
<title>Node11</title>
<g id="a_Node000011"><a xlink:href="../../da/dd5/classTerraria_1_1Main_a516aa31311860bad4242ade32e5effcd.html#a516aa31311860bad4242ade32e5effcd" target="_top" xlink:title=" ">
<polygon fill="white" stroke="#666666" points="109,-299.5 0,-299.5 0,-280.5 109,-280.5 109,-299.5"/>
<text text-anchor="middle" x="54.5" y="-287.5" font-family="Helvetica,sans-Serif" font-size="10.00">Terraria.Main.Draw</text>
</a>
</g>
</g>
<!-- Node10&#45;&gt;Node11 -->
<g id="edge10_Node000010_Node000011" class="edge">
<title>Node10&#45;&gt;Node11</title>
<g id="a_edge10_Node000010_Node000011"><a xlink:title=" ">
<path fill="none" stroke="#63b8ff" d="M134.41,-283.26C125.99,-283.22 117.49,-283.3 109.35,-283.49"/>
<polygon fill="#63b8ff" stroke="#63b8ff" points="134.59,-286.76 144.62,-283.36 134.66,-279.76 134.59,-286.76"/>
</a>
</g>
</g>
<!-- Node11&#45;&gt;Node10 -->
<g id="edge11_Node000011_Node000010" class="edge">
<title>Node11&#45;&gt;Node10</title>
<g id="a_edge11_Node000011_Node000010"><a xlink:title=" ">
<path fill="none" stroke="#63b8ff" d="M119.43,-296.69C127.79,-296.79 136.33,-296.77 144.62,-296.64"/>
<polygon fill="#63b8ff" stroke="#63b8ff" points="119.41,-293.19 109.35,-296.51 119.29,-300.18 119.41,-293.19"/>
</a>
</g>
</g>
<!-- Node12&#45;&gt;Node8 -->
<g id="edge13_Node000012_Node000008" class="edge">
<title>Node12&#45;&gt;Node8</title>
<g id="a_edge13_Node000012_Node000008"><a xlink:title=" ">
<path fill="none" stroke="#63b8ff" d="M696.76,-290C688.33,-290 679.76,-290 671.28,-290"/>
<polygon fill="#63b8ff" stroke="#63b8ff" points="696.96,-293.5 706.96,-290 696.96,-286.5 696.96,-293.5"/>
</a>
</g>
</g>
<!-- Node16 -->
<g id="Node000016" class="node">
<title>Node16</title>
<g id="a_Node000016"><a xlink:href="../../da/dd5/classTerraria_1_1Main_a25091de3c91f3e2202d5085499eda062.html#a25091de3c91f3e2202d5085499eda062" target="_top" xlink:title=" ">
<polygon fill="white" stroke="#666666" points="1637.5,-228.5 1483.5,-228.5 1483.5,-209.5 1637.5,-209.5 1637.5,-228.5"/>
<text text-anchor="middle" x="1560.5" y="-216.5" font-family="Helvetica,sans-Serif" font-size="10.00">Terraria.Main.ClientInitialize</text>
</a>
</g>
</g>
<!-- Node15&#45;&gt;Node16 -->
<g id="edge17_Node000015_Node000016" class="edge">
<title>Node15&#45;&gt;Node16</title>
<g id="a_edge17_Node000015_Node000016"><a xlink:title=" ">
<path fill="none" stroke="#63b8ff" d="M1690.66,-219C1673.22,-219 1654.9,-219 1637.7,-219"/>
<polygon fill="#63b8ff" stroke="#63b8ff" points="1690.81,-222.5 1700.81,-219 1690.81,-215.5 1690.81,-222.5"/>
</a>
</g>
</g>
<!-- Node17 -->
<g id="Node000017" class="node">
<title>Node17</title>
<g id="a_Node000017"><a xlink:href="../../da/dd5/classTerraria_1_1Main_aed4b6a8ad3e867bdb2bdcab2ab6ab0f9.html#aed4b6a8ad3e867bdb2bdcab2ab6ab0f9" target="_top" xlink:title=" ">
<polygon fill="white" stroke="#666666" points="1426,-228.5 1301,-228.5 1301,-209.5 1426,-209.5 1426,-228.5"/>
<text text-anchor="middle" x="1363.5" y="-216.5" font-family="Helvetica,sans-Serif" font-size="10.00">Terraria.Main.Initialize</text>
</a>
</g>
</g>
<!-- Node16&#45;&gt;Node17 -->
<g id="edge18_Node000016_Node000017" class="edge">
<title>Node16&#45;&gt;Node17</title>
<g id="a_edge18_Node000016_Node000017"><a xlink:title=" ">
<path fill="none" stroke="#63b8ff" d="M1472.99,-219C1457.23,-219 1441.08,-219 1426.22,-219"/>
<polygon fill="#63b8ff" stroke="#63b8ff" points="1473.27,-222.5 1483.27,-219 1473.27,-215.5 1473.27,-222.5"/>
</a>
</g>
</g>
<!-- Node18 -->
<g id="Node000018" class="node">
<title>Node18</title>
<g id="a_Node000018"><a xlink:href="../../da/dd5/classTerraria_1_1Main_acc7c7058447ffaab5490befcb8ff2bf4.html#acc7c7058447ffaab5490befcb8ff2bf4" target="_top" xlink:title=" ">
<polygon fill="white" stroke="#666666" points="1241,-228.5 1116,-228.5 1116,-209.5 1241,-209.5 1241,-228.5"/>
<text text-anchor="middle" x="1178.5" y="-216.5" font-family="Helvetica,sans-Serif" font-size="10.00">Terraria.Main.DedServ</text>
</a>
</g>
</g>
<!-- Node17&#45;&gt;Node18 -->
<g id="edge19_Node000017_Node000018" class="edge">
<title>Node17&#45;&gt;Node18</title>
<g id="a_edge19_Node000017_Node000018"><a xlink:title=" ">
<path fill="none" stroke="#63b8ff" d="M1290.75,-219C1274.39,-219 1257.14,-219 1241.24,-219"/>
<polygon fill="#63b8ff" stroke="#63b8ff" points="1290.8,-222.5 1300.8,-219 1290.8,-215.5 1290.8,-222.5"/>
</a>
</g>
</g>
<!-- Node20 -->
<g id="Node000020" class="node">
<title>Node20</title>
<g id="a_Node000020"><a xlink:href="../../d8/dd3/classTerraria_1_1UI_1_1ChestUI_a8bf2eff440d946a95977889b34ff8b91.html#a8bf2eff440d946a95977889b34ff8b91" target="_top" xlink:title=" ">
<polygon fill="white" stroke="#666666" points="1629,-191 1492,-191 1492,-161 1629,-161 1629,-191"/>
<text text-anchor="start" x="1500" y="-179" font-family="Helvetica,sans-Serif" font-size="10.00">Terraria.UI.ChestUI.Draw</text>
<text text-anchor="middle" x="1560.5" y="-168" font-family="Helvetica,sans-Serif" font-size="10.00">Button</text>
</a>
</g>
</g>
<!-- Node19&#45;&gt;Node20 -->
<g id="edge21_Node000019_Node000020" class="edge">
<title>Node19&#45;&gt;Node20</title>
<g id="a_edge21_Node000019_Node000020"><a xlink:title=" ">
<path fill="none" stroke="#63b8ff" d="M1691.12,-176C1670.61,-176 1648.83,-176 1629.1,-176"/>
<polygon fill="#63b8ff" stroke="#63b8ff" points="1691.4,-179.5 1701.4,-176 1691.4,-172.5 1691.4,-179.5"/>
</a>
</g>
</g>
<!-- Node21 -->
<g id="Node000021" class="node">
<title>Node21</title>
<g id="a_Node000021"><a xlink:href="../../d8/dd3/classTerraria_1_1UI_1_1ChestUI_a29ff526beab31298925ae3b889af5f83.html#a29ff526beab31298925ae3b889af5f83" target="_top" xlink:title=" ">
<polygon fill="white" stroke="#666666" points="1432,-191 1295,-191 1295,-161 1432,-161 1432,-191"/>
<text text-anchor="start" x="1303" y="-179" font-family="Helvetica,sans-Serif" font-size="10.00">Terraria.UI.ChestUI.Draw</text>
<text text-anchor="middle" x="1363.5" y="-168" font-family="Helvetica,sans-Serif" font-size="10.00">Buttons</text>
</a>
</g>
</g>
<!-- Node20&#45;&gt;Node21 -->
<g id="edge22_Node000020_Node000021" class="edge">
<title>Node20&#45;&gt;Node21</title>
<g id="a_edge22_Node000020_Node000021"><a xlink:title=" ">
<path fill="none" stroke="#63b8ff" d="M1481.73,-176C1465.28,-176 1448.06,-176 1432.03,-176"/>
<polygon fill="#63b8ff" stroke="#63b8ff" points="1481.85,-179.5 1491.85,-176 1481.85,-172.5 1481.85,-179.5"/>
</a>
</g>
</g>
<!-- Node22 -->
<g id="Node000022" class="node">
<title>Node22</title>
<g id="a_Node000022"><a xlink:href="../../d8/dd3/classTerraria_1_1UI_1_1ChestUI_a88b244e7968d6898255653a9d6790103.html#a88b244e7968d6898255653a9d6790103" target="_top" xlink:title=" ">
<polygon fill="white" stroke="#666666" points="1247,-188.5 1110,-188.5 1110,-169.5 1247,-169.5 1247,-188.5"/>
<text text-anchor="middle" x="1178.5" y="-176.5" font-family="Helvetica,sans-Serif" font-size="10.00">Terraria.UI.ChestUI.Draw</text>
</a>
</g>
</g>
<!-- Node21&#45;&gt;Node22 -->
<g id="edge23_Node000021_Node000022" class="edge">
<title>Node21&#45;&gt;Node22</title>
<g id="a_edge23_Node000021_Node000022"><a xlink:title=" ">
<path fill="none" stroke="#63b8ff" d="M1284.53,-177.28C1272.1,-177.48 1259.32,-177.69 1247.15,-177.89"/>
<polygon fill="#63b8ff" stroke="#63b8ff" points="1284.94,-180.77 1294.88,-177.11 1284.82,-173.77 1284.94,-180.77"/>
</a>
</g>
</g>
<!-- Node23 -->
<g id="Node000023" class="node">
<title>Node23</title>
<g id="a_Node000023"><a xlink:href="../../da/dd5/classTerraria_1_1Main_a3d98f18e1b3a22533d5282611b6d8dfe.html#a3d98f18e1b3a22533d5282611b6d8dfe" target="_top" xlink:title=" ">
<polygon fill="white" stroke="#666666" points="1059,-224.5 904,-224.5 904,-205.5 1059,-205.5 1059,-224.5"/>
<text text-anchor="middle" x="981.5" y="-212.5" font-family="Helvetica,sans-Serif" font-size="10.00">Terraria.Main.DrawInventory</text>
</a>
</g>
</g>
<!-- Node22&#45;&gt;Node23 -->
<g id="edge24_Node000022_Node000023" class="edge">
<title>Node22&#45;&gt;Node23</title>
<g id="a_edge24_Node000022_Node000023"><a xlink:title=" ">
<path fill="none" stroke="#63b8ff" d="M1116.15,-190.33C1089.83,-195.18 1059.43,-200.8 1034.28,-205.44"/>
<polygon fill="#63b8ff" stroke="#63b8ff" points="1116.81,-193.76 1126.01,-188.51 1115.54,-186.88 1116.81,-193.76"/>
</a>
</g>
</g>
<!-- Node24 -->
<g id="Node000024" class="node">
<title>Node24</title>
<g id="a_Node000024"><a xlink:href="../../da/dd5/classTerraria_1_1Main_a6ec2a6dd6eea7cf9082122035842a01b.html#a6ec2a6dd6eea7cf9082122035842a01b" target="_top" xlink:title=" ">
<polygon fill="white" stroke="#666666" points="859,-248 707,-248 707,-218 859,-218 859,-248"/>
<text text-anchor="start" x="715" y="-236" font-family="Helvetica,sans-Serif" font-size="10.00">Terraria.Main.DrawInterface</text>
<text text-anchor="middle" x="783" y="-225" font-family="Helvetica,sans-Serif" font-size="10.00">_27_Inventory</text>
</a>
</g>
</g>
<!-- Node23&#45;&gt;Node24 -->
<g id="edge25_Node000023_Node000024" class="edge">
<title>Node23&#45;&gt;Node24</title>
<g id="a_edge25_Node000023_Node000024"><a xlink:title=" ">
<path fill="none" stroke="#63b8ff" d="M893.84,-222.94C882.24,-224 870.42,-225.08 859.04,-226.13"/>
<polygon fill="#63b8ff" stroke="#63b8ff" points="894.33,-226.41 903.97,-222.01 893.69,-219.44 894.33,-226.41"/>
</a>
</g>
</g>
<!-- Node24&#45;&gt;Node8 -->
<g id="edge26_Node000024_Node000008" class="edge">
<title>Node24&#45;&gt;Node8</title>
<g id="a_edge26_Node000024_Node000008"><a xlink:title=" ">
<path fill="none" stroke="#63b8ff" d="M719.39,-250.84C692.21,-258.59 660.73,-267.56 634.76,-274.96"/>
<polygon fill="#63b8ff" stroke="#63b8ff" points="720.53,-254.16 729.19,-248.05 718.61,-247.43 720.53,-254.16"/>
</a>
</g>
</g>
<!-- Node28 -->
<g id="Node000028" class="node">
<title>Node28</title>
<g id="a_Node000028"><a xlink:href="../../dd/de1/classTerraria_1_1UI_1_1ItemSlot_a50cea2a4a8e7505857fa97ecd8b4b06c.html#a50cea2a4a8e7505857fa97ecd8b4b06c" target="_top" xlink:title=" ">
<polygon fill="white" stroke="#666666" points="1626.5,-30 1494.5,-30 1494.5,0 1626.5,0 1626.5,-30"/>
<text text-anchor="start" x="1502.5" y="-18" font-family="Helvetica,sans-Serif" font-size="10.00">Terraria.UI.ItemSlot.Left</text>
<text text-anchor="middle" x="1560.5" y="-7" font-family="Helvetica,sans-Serif" font-size="10.00">Click</text>
</a>
</g>
</g>
<!-- Node27&#45;&gt;Node28 -->
<g id="edge30_Node000027_Node000028" class="edge">
<title>Node27&#45;&gt;Node28</title>
<g id="a_edge30_Node000027_Node000028"><a xlink:title=" ">
<path fill="none" stroke="#63b8ff" d="M1685.55,-15C1665.86,-15 1645.31,-15 1626.72,-15"/>
<polygon fill="#63b8ff" stroke="#63b8ff" points="1685.75,-18.5 1695.75,-15 1685.75,-11.5 1685.75,-18.5"/>
</a>
</g>
</g>
</g>
</svg>
