<?xml version="1.0" encoding="UTF-8" standalone="no"?>
<!DOCTYPE svg PUBLIC "-//W3C//DTD SVG 1.1//EN"
 "http://www.w3.org/Graphics/SVG/1.1/DTD/svg11.dtd">
<!-- Generated by graphviz version 2.43.0 (0)
 -->
<!-- Title: Terraria.Player.InternalSaveMap Pages: 1 -->
<svg width="704pt" height="134pt"
 viewBox="0.00 0.00 704.00 134.00" xmlns="http://www.w3.org/2000/svg" xmlns:xlink="http://www.w3.org/1999/xlink">
<g id="graph0" class="graph" transform="scale(1 1) rotate(0) translate(4 130)">
<title>Terraria.Player.InternalSaveMap</title>
<!-- Node1 -->
<g id="Node000001" class="node">
<title>Node1</title>
<g id="a_Node000001"><a xlink:title=" ">
<polygon fill="#999999" stroke="#666666" points="127,-78 0,-78 0,-48 127,-48 127,-78"/>
<text text-anchor="start" x="8" y="-66" font-family="Helvetica,sans-Serif" font-size="10.00">Terraria.Player.Internal</text>
<text text-anchor="middle" x="63.5" y="-55" font-family="Helvetica,sans-Serif" font-size="10.00">SaveMap</text>
</a>
</g>
</g>
<!-- Node2 -->
<g id="Node000002" class="node">
<title>Node2</title>
<g id="a_Node000002"><a xlink:href="../../d1/d9c/classTerraria_1_1Utils_a20ff544f864fec62df413e995a9ca414.html#a20ff544f864fec62df413e995a9ca414" target="_top" xlink:title=" ">
<polygon fill="white" stroke="#666666" points="300,-78 163,-78 163,-48 300,-48 300,-78"/>
<text text-anchor="start" x="171" y="-66" font-family="Helvetica,sans-Serif" font-size="10.00">Terraria.Utils.TryCreating</text>
<text text-anchor="middle" x="231.5" y="-55" font-family="Helvetica,sans-Serif" font-size="10.00">Directory</text>
</a>
</g>
</g>
<!-- Node1&#45;&gt;Node2 -->
<g id="edge1_Node000001_Node000002" class="edge">
<title>Node1&#45;&gt;Node2</title>
<g id="a_edge1_Node000001_Node000002"><a xlink:title=" ">
<path fill="none" stroke="#63b8ff" d="M127.26,-63C135.64,-63 144.31,-63 152.91,-63"/>
<polygon fill="#63b8ff" stroke="#63b8ff" points="152.94,-66.5 162.94,-63 152.94,-59.5 152.94,-66.5"/>
</a>
</g>
</g>
<!-- Node3 -->
<g id="Node000003" class="node">
<title>Node3</title>
<g id="a_Node000003"><a xlink:href="../../dd/df7/classTerraria_1_1UI_1_1FancyErrorPrinter_ae0115236331d295adbc1e781728728f7.html#ae0115236331d295adbc1e781728728f7" target="_top" xlink:title=" ">
<polygon fill="white" stroke="#666666" points="505,-78 336,-78 336,-48 505,-48 505,-78"/>
<text text-anchor="start" x="344" y="-66" font-family="Helvetica,sans-Serif" font-size="10.00">Terraria.UI.FancyErrorPrinter.</text>
<text text-anchor="middle" x="420.5" y="-55" font-family="Helvetica,sans-Serif" font-size="10.00">ShowDirectoryCreationFailError</text>
</a>
</g>
</g>
<!-- Node2&#45;&gt;Node3 -->
<g id="edge2_Node000002_Node000003" class="edge">
<title>Node2&#45;&gt;Node3</title>
<g id="a_edge2_Node000002_Node000003"><a xlink:title=" ">
<path fill="none" stroke="#63b8ff" d="M300.01,-63C308.36,-63 317,-63 325.65,-63"/>
<polygon fill="#63b8ff" stroke="#63b8ff" points="325.79,-66.5 335.79,-63 325.79,-59.5 325.79,-66.5"/>
</a>
</g>
</g>
<!-- Node4 -->
<g id="Node000004" class="node">
<title>Node4</title>
<g id="a_Node000004"><a xlink:href="../../dd/df7/classTerraria_1_1UI_1_1FancyErrorPrinter_a6c9b4482b0b7da9f344d2576854450f9.html#a6c9b4482b0b7da9f344d2576854450f9" target="_top" xlink:title=" ">
<polygon fill="white" stroke="#666666" points="696,-126 541,-126 541,-96 696,-96 696,-126"/>
<text text-anchor="start" x="549" y="-114" font-family="Helvetica,sans-Serif" font-size="10.00">Terraria.UI.FancyErrorPrinter.</text>
<text text-anchor="middle" x="618.5" y="-103" font-family="Helvetica,sans-Serif" font-size="10.00">AppendSuggestions</text>
</a>
</g>
</g>
<!-- Node3&#45;&gt;Node4 -->
<g id="edge3_Node000003_Node000004" class="edge">
<title>Node3&#45;&gt;Node4</title>
<g id="a_edge3_Node000003_Node000004"><a xlink:title=" ">
<path fill="none" stroke="#63b8ff" d="M482.98,-78.06C503.14,-82.99 525.7,-88.52 546.51,-93.61"/>
<polygon fill="#63b8ff" stroke="#63b8ff" points="545.69,-97.02 556.24,-96 547.36,-90.22 545.69,-97.02"/>
</a>
</g>
</g>
<!-- Node5 -->
<g id="Node000005" class="node">
<title>Node5</title>
<g id="a_Node000005"><a xlink:href="../../dd/df7/classTerraria_1_1UI_1_1FancyErrorPrinter_a72a828c72dcd7b6c59a0cfc10196389e.html#a72a828c72dcd7b6c59a0cfc10196389e" target="_top" xlink:title=" ">
<polygon fill="white" stroke="#666666" points="696,-78 541,-78 541,-48 696,-48 696,-78"/>
<text text-anchor="start" x="549" y="-66" font-family="Helvetica,sans-Serif" font-size="10.00">Terraria.UI.FancyErrorPrinter.</text>
<text text-anchor="middle" x="618.5" y="-55" font-family="Helvetica,sans-Serif" font-size="10.00">IncludeOriginalMessage</text>
</a>
</g>
</g>
<!-- Node3&#45;&gt;Node5 -->
<g id="edge4_Node000003_Node000005" class="edge">
<title>Node3&#45;&gt;Node5</title>
<g id="a_edge4_Node000003_Node000005"><a xlink:title=" ">
<path fill="none" stroke="#63b8ff" d="M505.19,-63C513.62,-63 522.2,-63 530.66,-63"/>
<polygon fill="#63b8ff" stroke="#63b8ff" points="530.92,-66.5 540.92,-63 530.92,-59.5 530.92,-66.5"/>
</a>
</g>
</g>
<!-- Node6 -->
<g id="Node000006" class="node">
<title>Node6</title>
<g id="a_Node000006"><a xlink:href="../../dd/df7/classTerraria_1_1UI_1_1FancyErrorPrinter_abbf6492d203fc5f7831f48d73ae26abe.html#abbf6492d203fc5f7831f48d73ae26abe" target="_top" xlink:title=" ">
<polygon fill="white" stroke="#666666" points="696,-30 541,-30 541,0 696,0 696,-30"/>
<text text-anchor="start" x="549" y="-18" font-family="Helvetica,sans-Serif" font-size="10.00">Terraria.UI.FancyErrorPrinter.</text>
<text text-anchor="middle" x="618.5" y="-7" font-family="Helvetica,sans-Serif" font-size="10.00">ShowTheBox</text>
</a>
</g>
</g>
<!-- Node3&#45;&gt;Node6 -->
<g id="edge5_Node000003_Node000006" class="edge">
<title>Node3&#45;&gt;Node6</title>
<g id="a_edge5_Node000003_Node000006"><a xlink:title=" ">
<path fill="none" stroke="#63b8ff" d="M482.98,-47.94C503.14,-43.01 525.7,-37.48 546.51,-32.39"/>
<polygon fill="#63b8ff" stroke="#63b8ff" points="547.36,-35.78 556.24,-30 545.69,-28.98 547.36,-35.78"/>
</a>
</g>
</g>
</g>
</svg>
