<?xml version="1.0" encoding="UTF-8" standalone="no"?>
<!DOCTYPE svg PUBLIC "-//W3C//DTD SVG 1.1//EN"
 "http://www.w3.org/Graphics/SVG/1.1/DTD/svg11.dtd">
<!-- Generated by graphviz version 2.43.0 (0)
 -->
<!-- Title: CreativePowers.ASharedButtonPower.ProvidePowerButtons Pages: 1 -->
<svg width="1572pt" height="773pt"
 viewBox="0.00 0.00 1572.00 773.00" xmlns="http://www.w3.org/2000/svg" xmlns:xlink="http://www.w3.org/1999/xlink">
<g id="graph0" class="graph" transform="scale(1 1) rotate(0) translate(4 769)">
<title>CreativePowers.ASharedButtonPower.ProvidePowerButtons</title>
<polygon fill="white" stroke="transparent" points="-4,4 -4,-769 1568,-769 1568,4 -4,4"/>
<!-- Node1 -->
<g id="node1" class="node">
<title>Node1</title>
<g id="a_node1"><a xlink:title=" ">
<polygon fill="#bfbfbf" stroke="black" points="0,-257.5 0,-287.5 169,-287.5 169,-257.5 0,-257.5"/>
<text text-anchor="start" x="8" y="-275.5" font-family="Helvetica,sans-Serif" font-size="10.00">CreativePowers.ASharedButton</text>
<text text-anchor="middle" x="84.5" y="-264.5" font-family="Helvetica,sans-Serif" font-size="10.00">Power.ProvidePowerButtons</text>
</a>
</g>
</g>
<!-- Node2 -->
<g id="node2" class="node">
<title>Node2</title>
<g id="a_node2"><a xlink:href="../../de/db3/classUIElement_aba285d19a4f931a415048ae87b65afb9.html#aba285d19a4f931a415048ae87b65afb9" target="_top" xlink:title=" ">
<polygon fill="white" stroke="black" points="236,-582 236,-601 343,-601 343,-582 236,-582"/>
<text text-anchor="middle" x="289.5" y="-589" font-family="Helvetica,sans-Serif" font-size="10.00">UIElement.Append</text>
</a>
</g>
</g>
<!-- Node1&#45;&gt;Node2 -->
<g id="edge1" class="edge">
<title>Node1&#45;&gt;Node2</title>
<path fill="none" stroke="midnightblue" d="M94.61,-287.71C114.35,-320.58 162.7,-400.58 205,-466.5 229.64,-504.89 259.56,-549.13 276.06,-573.34"/>
<polygon fill="midnightblue" stroke="midnightblue" points="273.35,-575.57 281.88,-581.86 279.13,-571.62 273.35,-575.57"/>
</g>
<!-- Node11 -->
<g id="node11" class="node">
<title>Node11</title>
<g id="a_node11"><a xlink:href="../../dd/dd1/classCreativePowers_1_1ASharedButtonPower_adf4e5383c0ef3767e0f0cbcce8441bbf.html#adf4e5383c0ef3767e0f0cbcce8441bbf" target="_top" xlink:title=" ">
<polygon fill="white" stroke="black" points="205,-426.5 205,-456.5 374,-456.5 374,-426.5 205,-426.5"/>
<text text-anchor="start" x="213" y="-444.5" font-family="Helvetica,sans-Serif" font-size="10.00">CreativePowers.ASharedButton</text>
<text text-anchor="middle" x="289.5" y="-433.5" font-family="Helvetica,sans-Serif" font-size="10.00">Power.button_OnClick</text>
</a>
</g>
</g>
<!-- Node1&#45;&gt;Node11 -->
<g id="edge11" class="edge">
<title>Node1&#45;&gt;Node11</title>
<path fill="none" stroke="midnightblue" d="M103.87,-287.8C140.11,-317.96 220.86,-385.19 262.53,-419.88"/>
<polygon fill="midnightblue" stroke="midnightblue" points="260.39,-422.65 270.31,-426.36 264.87,-417.27 260.39,-422.65"/>
</g>
<!-- Node25 -->
<g id="node25" class="node">
<title>Node25</title>
<g id="a_node25"><a xlink:href="../../dd/dd1/classCreativePowers_1_1ASharedButtonPower_af2e48acdbcdf3dd21efaf4dcccecc8ee.html#af2e48acdbcdf3dd21efaf4dcccecc8ee" target="_top" xlink:title=" ">
<polygon fill="white" stroke="black" points="205,-294.5 205,-324.5 374,-324.5 374,-294.5 205,-294.5"/>
<text text-anchor="start" x="213" y="-312.5" font-family="Helvetica,sans-Serif" font-size="10.00">CreativePowers.ASharedButton</text>
<text text-anchor="middle" x="289.5" y="-301.5" font-family="Helvetica,sans-Serif" font-size="10.00">Power.button_OnUpdate</text>
</a>
</g>
</g>
<!-- Node1&#45;&gt;Node25 -->
<g id="edge27" class="edge">
<title>Node1&#45;&gt;Node25</title>
<path fill="none" stroke="midnightblue" d="M168.07,-287.55C177.26,-289.22 186.66,-290.94 195.97,-292.63"/>
<polygon fill="midnightblue" stroke="midnightblue" points="195.54,-296.11 206.01,-294.46 196.79,-289.23 195.54,-296.11"/>
</g>
<!-- Node34 -->
<g id="node34" class="node">
<title>Node34</title>
<g id="a_node34"><a xlink:href="../../dc/db4/classCreativePowersHelper_a818f1e8e23310cf4282bb61a2a3d52f4.html#a818f1e8e23310cf4282bb61a2a3d52f4" target="_top" xlink:title=" ">
<polygon fill="white" stroke="black" points="209.5,-98.5 209.5,-128.5 369.5,-128.5 369.5,-98.5 209.5,-98.5"/>
<text text-anchor="start" x="217.5" y="-116.5" font-family="Helvetica,sans-Serif" font-size="10.00">CreativePowersHelper.Create</text>
<text text-anchor="middle" x="289.5" y="-105.5" font-family="Helvetica,sans-Serif" font-size="10.00">SimpleButton</text>
</a>
</g>
</g>
<!-- Node1&#45;&gt;Node34 -->
<g id="edge40" class="edge">
<title>Node1&#45;&gt;Node34</title>
<path fill="none" stroke="midnightblue" d="M103.53,-257.46C126.75,-238.18 168.49,-203.85 205,-175.5 222.81,-161.67 243.11,-146.58 259.24,-134.75"/>
<polygon fill="midnightblue" stroke="midnightblue" points="261.72,-137.27 267.72,-128.54 257.59,-131.62 261.72,-137.27"/>
</g>
<!-- Node37 -->
<g id="node37" class="node">
<title>Node37</title>
<g id="a_node37"><a xlink:href="../../dc/db4/classCreativePowersHelper_a4c68336b5a21bc32eb4e556ca0bfbfca.html#a4c68336b5a21bc32eb4e556ca0bfbfca" target="_top" xlink:title=" ">
<polygon fill="white" stroke="black" points="217,-25.5 217,-55.5 362,-55.5 362,-25.5 217,-25.5"/>
<text text-anchor="start" x="225" y="-43.5" font-family="Helvetica,sans-Serif" font-size="10.00">CreativePowersHelper.Get</text>
<text text-anchor="middle" x="289.5" y="-32.5" font-family="Helvetica,sans-Serif" font-size="10.00">IconImage</text>
</a>
</g>
</g>
<!-- Node1&#45;&gt;Node37 -->
<g id="edge43" class="edge">
<title>Node1&#45;&gt;Node37</title>
<path fill="none" stroke="midnightblue" d="M92.39,-257.33C108.24,-223.69 150.21,-141.73 205,-89.5 216.98,-78.08 232.09,-68.2 246.15,-60.36"/>
<polygon fill="midnightblue" stroke="midnightblue" points="248.04,-63.32 255.2,-55.51 244.73,-57.15 248.04,-63.32"/>
</g>
<!-- Node39 -->
<g id="node39" class="node">
<title>Node39</title>
<g id="a_node39"><a xlink:href="../../dc/db4/classCreativePowersHelper_ae0d0b11be9a8fa5b99604bed13b71704.html#ae0d0b11be9a8fa5b99604bed13b71704" target="_top" xlink:title=" ">
<polygon fill="white" stroke="black" points="208,-184.5 208,-214.5 371,-214.5 371,-184.5 208,-184.5"/>
<text text-anchor="start" x="216" y="-202.5" font-family="Helvetica,sans-Serif" font-size="10.00">CreativePowersHelper.Update</text>
<text text-anchor="middle" x="289.5" y="-191.5" font-family="Helvetica,sans-Serif" font-size="10.00">UnlockStateByPower</text>
</a>
</g>
</g>
<!-- Node1&#45;&gt;Node39 -->
<g id="edge45" class="edge">
<title>Node1&#45;&gt;Node39</title>
<path fill="none" stroke="midnightblue" d="M127.56,-257.37C159.27,-245.97 202.93,-230.27 236.78,-218.1"/>
<polygon fill="midnightblue" stroke="midnightblue" points="238.27,-221.28 246.49,-214.61 235.9,-214.7 238.27,-221.28"/>
</g>
<!-- Node3 -->
<g id="node3" class="node">
<title>Node3</title>
<g id="a_node3"><a xlink:href="../../de/db3/classUIElement_aee194ceb3c88758159e31761805e6a9d.html#aee194ceb3c88758159e31761805e6a9d" target="_top" xlink:title=" ">
<polygon fill="white" stroke="black" points="430.5,-658 430.5,-677 558.5,-677 558.5,-658 430.5,-658"/>
<text text-anchor="middle" x="494.5" y="-665" font-family="Helvetica,sans-Serif" font-size="10.00">UIElement.Recalculate</text>
</a>
</g>
</g>
<!-- Node2&#45;&gt;Node3 -->
<g id="edge2" class="edge">
<title>Node2&#45;&gt;Node3</title>
<path fill="none" stroke="midnightblue" d="M316.21,-601.13C352.28,-614.63 418.03,-639.25 458.53,-654.41"/>
<polygon fill="midnightblue" stroke="midnightblue" points="457.41,-657.72 468,-657.95 459.86,-651.17 457.41,-657.72"/>
</g>
<!-- Node9 -->
<g id="node9" class="node">
<title>Node9</title>
<g id="a_node9"><a xlink:href="../../de/db3/classUIElement_a076aedca16efdf0972684e3548a0c73a.html#a076aedca16efdf0972684e3548a0c73a" target="_top" xlink:title=" ">
<polygon fill="white" stroke="black" points="439,-582 439,-601 550,-601 550,-582 439,-582"/>
<text text-anchor="middle" x="494.5" y="-589" font-family="Helvetica,sans-Serif" font-size="10.00">UIElement.Remove</text>
</a>
</g>
</g>
<!-- Node2&#45;&gt;Node9 -->
<g id="edge9" class="edge">
<title>Node2&#45;&gt;Node9</title>
<path fill="none" stroke="midnightblue" d="M343.04,-591.5C369.08,-591.5 400.78,-591.5 428.35,-591.5"/>
<polygon fill="midnightblue" stroke="midnightblue" points="428.7,-595 438.7,-591.5 428.7,-588 428.7,-595"/>
</g>
<!-- Node4 -->
<g id="node4" class="node">
<title>Node4</title>
<g id="a_node4"><a xlink:href="../../df/de1/classUserInterface_a0cfc3c35a0f4df271c43ed2d90975df1.html#a0cfc3c35a0f4df271c43ed2d90975df1" target="_top" xlink:title=" ">
<polygon fill="white" stroke="black" points="625,-620 625,-639 786,-639 786,-620 625,-620"/>
<text text-anchor="middle" x="705.5" y="-627" font-family="Helvetica,sans-Serif" font-size="10.00">UserInterface.GetDimensions</text>
</a>
</g>
</g>
<!-- Node3&#45;&gt;Node4 -->
<g id="edge3" class="edge">
<title>Node3&#45;&gt;Node4</title>
<path fill="none" stroke="midnightblue" d="M547.97,-657.96C576.54,-652.77 612.08,-646.3 642.07,-640.85"/>
<polygon fill="midnightblue" stroke="midnightblue" points="642.8,-644.28 652.01,-639.04 641.54,-637.39 642.8,-644.28"/>
</g>
<!-- Node5 -->
<g id="node5" class="node">
<title>Node5</title>
<g id="a_node5"><a xlink:href="../../de/db3/classUIElement_a5030449fa3a7231b282fb98cfdf1ce01.html#a5030449fa3a7231b282fb98cfdf1ce01" target="_top" xlink:title=" ">
<polygon fill="white" stroke="black" points="617.5,-734.5 617.5,-764.5 793.5,-764.5 793.5,-734.5 617.5,-734.5"/>
<text text-anchor="start" x="625.5" y="-752.5" font-family="Helvetica,sans-Serif" font-size="10.00">UIElement.GetDimensionsBased</text>
<text text-anchor="middle" x="705.5" y="-741.5" font-family="Helvetica,sans-Serif" font-size="10.00">OnParentDimensions</text>
</a>
</g>
</g>
<!-- Node3&#45;&gt;Node5 -->
<g id="edge4" class="edge">
<title>Node3&#45;&gt;Node5</title>
<path fill="none" stroke="midnightblue" d="M513.3,-677.19C536.28,-689.42 577.77,-710.54 615,-724.5 621.39,-726.9 628.12,-729.19 634.89,-731.33"/>
<polygon fill="midnightblue" stroke="midnightblue" points="634.23,-734.79 644.82,-734.38 636.29,-728.1 634.23,-734.79"/>
</g>
<!-- Node7 -->
<g id="node7" class="node">
<title>Node7</title>
<g id="a_node7"><a xlink:href="../../de/db3/classUIElement_adc42b475f74d77f6fe008b8f1e77ad19.html#adc42b475f74d77f6fe008b8f1e77ad19" target="_top" xlink:title=" ">
<polygon fill="white" stroke="black" points="620.5,-696 620.5,-715 790.5,-715 790.5,-696 620.5,-696"/>
<text text-anchor="middle" x="705.5" y="-703" font-family="Helvetica,sans-Serif" font-size="10.00">UIElement.GetInnerDimensions</text>
</a>
</g>
</g>
<!-- Node3&#45;&gt;Node7 -->
<g id="edge6" class="edge">
<title>Node3&#45;&gt;Node7</title>
<path fill="none" stroke="midnightblue" d="M547.97,-677.04C576.54,-682.23 612.08,-688.7 642.07,-694.15"/>
<polygon fill="midnightblue" stroke="midnightblue" points="641.54,-697.61 652.01,-695.96 642.8,-690.72 641.54,-697.61"/>
</g>
<!-- Node8 -->
<g id="node8" class="node">
<title>Node8</title>
<g id="a_node8"><a xlink:href="../../de/db3/classUIElement_af9e665c7647c2fb436ed3c20be3a40a2.html#af9e665c7647c2fb436ed3c20be3a40a2" target="_top" xlink:title=" ">
<polygon fill="white" stroke="black" points="621.5,-658 621.5,-677 789.5,-677 789.5,-658 621.5,-658"/>
<text text-anchor="middle" x="705.5" y="-665" font-family="Helvetica,sans-Serif" font-size="10.00">UIElement.RecalculateChildren</text>
</a>
</g>
</g>
<!-- Node3&#45;&gt;Node8 -->
<g id="edge7" class="edge">
<title>Node3&#45;&gt;Node8</title>
<path fill="none" stroke="midnightblue" d="M558.77,-661.24C575.25,-660.83 593.34,-660.68 611.02,-660.78"/>
<polygon fill="midnightblue" stroke="midnightblue" points="611.33,-664.29 621.36,-660.88 611.39,-657.29 611.33,-664.29"/>
</g>
<!-- Node6 -->
<g id="node6" class="node">
<title>Node6</title>
<g id="a_node6"><a xlink:href="../../d1/de0/structStyleDimension_a62acad4030569824dcced4b9e3a10e56.html#a62acad4030569824dcced4b9e3a10e56" target="_top" xlink:title=" ">
<polygon fill="white" stroke="black" points="848,-740 848,-759 989,-759 989,-740 848,-740"/>
<text text-anchor="middle" x="918.5" y="-747" font-family="Helvetica,sans-Serif" font-size="10.00">StyleDimension.GetValue</text>
</a>
</g>
</g>
<!-- Node5&#45;&gt;Node6 -->
<g id="edge5" class="edge">
<title>Node5&#45;&gt;Node6</title>
<path fill="none" stroke="midnightblue" d="M793.54,-749.5C808.06,-749.5 823.07,-749.5 837.41,-749.5"/>
<polygon fill="midnightblue" stroke="midnightblue" points="837.72,-753 847.72,-749.5 837.72,-746 837.72,-753"/>
</g>
<!-- Node8&#45;&gt;Node3 -->
<g id="edge8" class="edge">
<title>Node8&#45;&gt;Node3</title>
<path fill="none" stroke="midnightblue" d="M621.36,-674.12C604.09,-674.33 586.02,-674.28 569.12,-673.98"/>
<polygon fill="midnightblue" stroke="midnightblue" points="568.85,-670.47 558.77,-673.76 568.7,-677.47 568.85,-670.47"/>
</g>
<!-- Node10 -->
<g id="node10" class="node">
<title>Node10</title>
<g id="a_node10"><a xlink:href="../../de/db3/classUIElement_a016d4714237f6ee11a0d439dacd6a05d.html#a016d4714237f6ee11a0d439dacd6a05d" target="_top" xlink:title=" ">
<polygon fill="white" stroke="black" points="637.5,-582 637.5,-601 773.5,-601 773.5,-582 637.5,-582"/>
<text text-anchor="middle" x="705.5" y="-589" font-family="Helvetica,sans-Serif" font-size="10.00">UIElement.RemoveChild</text>
</a>
</g>
</g>
<!-- Node9&#45;&gt;Node10 -->
<g id="edge10" class="edge">
<title>Node9&#45;&gt;Node10</title>
<path fill="none" stroke="midnightblue" d="M550.14,-591.5C573.74,-591.5 601.76,-591.5 627.42,-591.5"/>
<polygon fill="midnightblue" stroke="midnightblue" points="627.49,-595 637.49,-591.5 627.49,-588 627.49,-595"/>
</g>
<!-- Node12 -->
<g id="node12" class="node">
<title>Node12</title>
<g id="a_node12"><a xlink:href="../../dc/db4/classCreativePowersHelper_a5e325f64cf27dd7610fa2655d9d84376.html#a5e325f64cf27dd7610fa2655d9d84376" target="_top" xlink:title=" ">
<polygon fill="white" stroke="black" points="615,-215.5 615,-245.5 796,-245.5 796,-215.5 615,-215.5"/>
<text text-anchor="start" x="623" y="-233.5" font-family="Helvetica,sans-Serif" font-size="10.00">CreativePowersHelper.IsAvailable</text>
<text text-anchor="middle" x="705.5" y="-222.5" font-family="Helvetica,sans-Serif" font-size="10.00">ForPlayer</text>
</a>
</g>
</g>
<!-- Node11&#45;&gt;Node12 -->
<g id="edge12" class="edge">
<title>Node11&#45;&gt;Node12</title>
<path fill="none" stroke="midnightblue" d="M374.02,-446.06C447.71,-448.31 548.07,-446.51 579,-422.5 619.63,-390.96 587.12,-355.73 615,-312.5 630.52,-288.43 654.78,-266.81 674.13,-251.82"/>
<polygon fill="midnightblue" stroke="midnightblue" points="676.48,-254.43 682.35,-245.61 672.26,-248.84 676.48,-254.43"/>
</g>
<!-- Node13 -->
<g id="node13" class="node">
<title>Node13</title>
<g id="a_node13"><a xlink:href="../../dd/dd1/classCreativePowers_1_1ASharedButtonPower_a7c78502f267e1b71c8e974305b1125d0.html#a7c78502f267e1b71c8e974305b1125d0" target="_top" xlink:title=" ">
<polygon fill="white" stroke="black" points="410,-508.5 410,-538.5 579,-538.5 579,-508.5 410,-508.5"/>
<text text-anchor="start" x="418" y="-526.5" font-family="Helvetica,sans-Serif" font-size="10.00">CreativePowers.ASharedButton</text>
<text text-anchor="middle" x="494.5" y="-515.5" font-family="Helvetica,sans-Serif" font-size="10.00">Power.RequestUse</text>
</a>
</g>
</g>
<!-- Node11&#45;&gt;Node13 -->
<g id="edge13" class="edge">
<title>Node11&#45;&gt;Node13</title>
<path fill="none" stroke="midnightblue" d="M318.93,-456.59C342.8,-468.89 378.04,-486.18 410,-498.5 416.17,-500.88 422.66,-503.17 429.19,-505.34"/>
<polygon fill="midnightblue" stroke="midnightblue" points="428.15,-508.68 438.74,-508.43 430.3,-502.02 428.15,-508.68"/>
</g>
<!-- Node14 -->
<g id="node14" class="node">
<title>Node14</title>
<g id="a_node14"><a xlink:href="../../d9/d27/classNetCreativePowersModule_abcd54cc9aef5f4bfc8c72b7b29da44c2.html#abcd54cc9aef5f4bfc8c72b7b29da44c2" target="_top" xlink:title=" ">
<polygon fill="white" stroke="black" points="631,-483.5 631,-513.5 780,-513.5 780,-483.5 631,-483.5"/>
<text text-anchor="start" x="639" y="-501.5" font-family="Helvetica,sans-Serif" font-size="10.00">NetCreativePowersModule.</text>
<text text-anchor="middle" x="705.5" y="-490.5" font-family="Helvetica,sans-Serif" font-size="10.00">PreparePacket</text>
</a>
</g>
</g>
<!-- Node13&#45;&gt;Node14 -->
<g id="edge14" class="edge">
<title>Node13&#45;&gt;Node14</title>
<path fill="none" stroke="midnightblue" d="M579,-513.51C592.82,-511.86 607.15,-510.15 620.96,-508.49"/>
<polygon fill="midnightblue" stroke="midnightblue" points="621.4,-511.96 630.92,-507.3 620.57,-505.01 621.4,-511.96"/>
</g>
<!-- Node15 -->
<g id="node15" class="node">
<title>Node15</title>
<g id="a_node15"><a xlink:href="../../d9/d9a/classNetManager_a1189fb9a566a7f139beddaefd6f87618.html#a1189fb9a566a7f139beddaefd6f87618" target="_top" xlink:title=" ">
<polygon fill="white" stroke="black" points="627.5,-532.5 627.5,-562.5 783.5,-562.5 783.5,-532.5 627.5,-532.5"/>
<text text-anchor="start" x="635.5" y="-550.5" font-family="Helvetica,sans-Serif" font-size="10.00">NetManager.SendToServerOr</text>
<text text-anchor="middle" x="705.5" y="-539.5" font-family="Helvetica,sans-Serif" font-size="10.00">Loopback</text>
</a>
</g>
</g>
<!-- Node13&#45;&gt;Node15 -->
<g id="edge15" class="edge">
<title>Node13&#45;&gt;Node15</title>
<path fill="none" stroke="midnightblue" d="M579,-533.09C591.56,-534.53 604.55,-536.02 617.18,-537.47"/>
<polygon fill="midnightblue" stroke="midnightblue" points="616.9,-540.96 627.23,-538.63 617.7,-534.01 616.9,-540.96"/>
</g>
<!-- Node16 -->
<g id="node16" class="node">
<title>Node16</title>
<g id="a_node16"><a xlink:href="../../d9/d9a/classNetManager_a4fbca54e2c547ffcb5ae3acfd942839d.html#a4fbca54e2c547ffcb5ae3acfd942839d" target="_top" xlink:title=" ">
<polygon fill="white" stroke="black" points="1041,-558 1041,-577 1173,-577 1173,-558 1041,-558"/>
<text text-anchor="middle" x="1107" y="-565" font-family="Helvetica,sans-Serif" font-size="10.00">NetManager.SendToSelf</text>
</a>
</g>
</g>
<!-- Node15&#45;&gt;Node16 -->
<g id="edge16" class="edge">
<title>Node15&#45;&gt;Node16</title>
<path fill="none" stroke="midnightblue" d="M783.53,-551.36C854.74,-554.92 959.92,-560.19 1030.6,-563.73"/>
<polygon fill="midnightblue" stroke="midnightblue" points="1030.61,-567.23 1040.77,-564.23 1030.96,-560.24 1030.61,-567.23"/>
</g>
<!-- Node21 -->
<g id="node21" class="node">
<title>Node21</title>
<g id="a_node21"><a xlink:href="../../d9/d9a/classNetManager_a54aed10c4e2569c304f7516cc8be1d4b.html#a54aed10c4e2569c304f7516cc8be1d4b" target="_top" xlink:title=" ">
<polygon fill="white" stroke="black" points="846,-518 846,-537 991,-537 991,-518 846,-518"/>
<text text-anchor="middle" x="918.5" y="-525" font-family="Helvetica,sans-Serif" font-size="10.00">NetManager.SendToServer</text>
</a>
</g>
</g>
<!-- Node15&#45;&gt;Node21 -->
<g id="edge21" class="edge">
<title>Node15&#45;&gt;Node21</title>
<path fill="none" stroke="midnightblue" d="M783.57,-540.19C800.6,-538.58 818.69,-536.87 835.89,-535.24"/>
<polygon fill="midnightblue" stroke="midnightblue" points="836.27,-538.72 845.9,-534.29 835.61,-531.75 836.27,-538.72"/>
</g>
<!-- Node17 -->
<g id="node17" class="node">
<title>Node17</title>
<g id="a_node17"><a xlink:href="../../d1/d6d/interfaceINetDiagnosticsUI_afd60b5e9c7fb514d13484421502f1aa3.html#afd60b5e9c7fb514d13484421502f1aa3" target="_top" xlink:title=" ">
<polygon fill="white" stroke="black" points="1209,-555.5 1209,-585.5 1367,-585.5 1367,-555.5 1209,-555.5"/>
<text text-anchor="start" x="1217" y="-573.5" font-family="Helvetica,sans-Serif" font-size="10.00">INetDiagnosticsUI.CountSent</text>
<text text-anchor="middle" x="1288" y="-562.5" font-family="Helvetica,sans-Serif" font-size="10.00">ModuleMessage</text>
</a>
</g>
</g>
<!-- Node16&#45;&gt;Node17 -->
<g id="edge17" class="edge">
<title>Node16&#45;&gt;Node17</title>
<path fill="none" stroke="midnightblue" d="M1173.13,-568.59C1181.46,-568.73 1190.1,-568.88 1198.73,-569.02"/>
<polygon fill="midnightblue" stroke="midnightblue" points="1198.77,-572.52 1208.83,-569.19 1198.89,-565.52 1198.77,-572.52"/>
</g>
<!-- Node18 -->
<g id="node18" class="node">
<title>Node18</title>
<g id="a_node18"><a xlink:href="../../d9/d9a/classNetManager_a390593232ab93cd9a865c3ce2e1c1b48.html#a390593232ab93cd9a865c3ce2e1c1b48" target="_top" xlink:title=" ">
<polygon fill="white" stroke="black" points="1236,-605 1236,-624 1340,-624 1340,-605 1236,-605"/>
<text text-anchor="middle" x="1288" y="-612" font-family="Helvetica,sans-Serif" font-size="10.00">NetManager.Read</text>
</a>
</g>
</g>
<!-- Node16&#45;&gt;Node18 -->
<g id="edge18" class="edge">
<title>Node16&#45;&gt;Node18</title>
<path fill="none" stroke="midnightblue" d="M1141.6,-577.1C1161.21,-582.63 1186.46,-589.63 1209,-595.5 1218.01,-597.85 1227.64,-600.26 1236.94,-602.55"/>
<polygon fill="midnightblue" stroke="midnightblue" points="1236.31,-606 1246.86,-604.98 1237.97,-599.2 1236.31,-606"/>
</g>
<!-- Node20 -->
<g id="node20" class="node">
<title>Node20</title>
<g id="a_node20"><a xlink:href="../../d9/d9a/classNetManager_aed6f7132a380634360c13187009a420e.html#aed6f7132a380634360c13187009a420e" target="_top" xlink:title=" ">
<polygon fill="white" stroke="black" points="1215.5,-517 1215.5,-536 1360.5,-536 1360.5,-517 1215.5,-517"/>
<text text-anchor="middle" x="1288" y="-524" font-family="Helvetica,sans-Serif" font-size="10.00">NetManager.SendCallback</text>
</a>
</g>
</g>
<!-- Node16&#45;&gt;Node20 -->
<g id="edge20" class="edge">
<title>Node16&#45;&gt;Node20</title>
<path fill="none" stroke="midnightblue" d="M1149.52,-557.99C1175.18,-552.11 1208.32,-544.52 1235.63,-538.27"/>
<polygon fill="midnightblue" stroke="midnightblue" points="1236.43,-541.67 1245.4,-536.03 1234.87,-534.85 1236.43,-541.67"/>
</g>
<!-- Node19 -->
<g id="node19" class="node">
<title>Node19</title>
<g id="a_node19"><a xlink:href="../../d1/d6d/interfaceINetDiagnosticsUI_a1c6a37fe2b2f6218a134c54ef97dcb1e.html#a1c6a37fe2b2f6218a134c54ef97dcb1e" target="_top" xlink:title=" ">
<polygon fill="white" stroke="black" points="1403,-599.5 1403,-629.5 1564,-629.5 1564,-599.5 1403,-599.5"/>
<text text-anchor="start" x="1411" y="-617.5" font-family="Helvetica,sans-Serif" font-size="10.00">INetDiagnosticsUI.CountRead</text>
<text text-anchor="middle" x="1483.5" y="-606.5" font-family="Helvetica,sans-Serif" font-size="10.00">ModuleMessage</text>
</a>
</g>
</g>
<!-- Node18&#45;&gt;Node19 -->
<g id="edge19" class="edge">
<title>Node18&#45;&gt;Node19</title>
<path fill="none" stroke="midnightblue" d="M1340.09,-614.5C1356.34,-614.5 1374.82,-614.5 1392.96,-614.5"/>
<polygon fill="midnightblue" stroke="midnightblue" points="1392.99,-618 1402.99,-614.5 1392.99,-611 1392.99,-618"/>
</g>
<!-- Node22 -->
<g id="node22" class="node">
<title>Node22</title>
<g id="a_node22"><a xlink:href="../../d9/d9a/classNetManager_ac03094689ce044c2439412fde3ce02b0.html#ac03094689ce044c2439412fde3ce02b0" target="_top" xlink:title=" ">
<polygon fill="white" stroke="black" points="1044,-517 1044,-536 1170,-536 1170,-517 1044,-517"/>
<text text-anchor="middle" x="1107" y="-524" font-family="Helvetica,sans-Serif" font-size="10.00">NetManager.SendData</text>
</a>
</g>
</g>
<!-- Node21&#45;&gt;Node22 -->
<g id="edge22" class="edge">
<title>Node21&#45;&gt;Node22</title>
<path fill="none" stroke="midnightblue" d="M991.07,-527.12C1005.04,-527.04 1019.7,-526.96 1033.69,-526.89"/>
<polygon fill="midnightblue" stroke="midnightblue" points="1033.76,-530.39 1043.74,-526.83 1033.73,-523.39 1033.76,-530.39"/>
</g>
<!-- Node22&#45;&gt;Node17 -->
<g id="edge24" class="edge">
<title>Node22&#45;&gt;Node17</title>
<path fill="none" stroke="midnightblue" d="M1146.84,-536.05C1166.99,-541 1192.26,-547.21 1215.76,-552.99"/>
<polygon fill="midnightblue" stroke="midnightblue" points="1215.16,-556.45 1225.71,-555.43 1216.84,-549.65 1215.16,-556.45"/>
</g>
<!-- Node22&#45;&gt;Node20 -->
<g id="edge25" class="edge">
<title>Node22&#45;&gt;Node20</title>
<path fill="none" stroke="midnightblue" d="M1170.1,-526.5C1181.43,-526.5 1193.4,-526.5 1205.19,-526.5"/>
<polygon fill="midnightblue" stroke="midnightblue" points="1205.49,-530 1215.49,-526.5 1205.49,-523 1205.49,-530"/>
</g>
<!-- Node23 -->
<g id="node23" class="node">
<title>Node23</title>
<g id="a_node23"><a xlink:href="../../dd/dc4/interfaceISocket_a511af46ee3de67c1203113b24bb71d07.html#a511af46ee3de67c1203113b24bb71d07" target="_top" xlink:title=" ">
<polygon fill="white" stroke="black" points="1234,-441 1234,-460 1342,-460 1342,-441 1234,-441"/>
<text text-anchor="middle" x="1288" y="-448" font-family="Helvetica,sans-Serif" font-size="10.00">ISocket.AsyncSend</text>
</a>
</g>
</g>
<!-- Node22&#45;&gt;Node23 -->
<g id="edge23" class="edge">
<title>Node22&#45;&gt;Node23</title>
<path fill="none" stroke="midnightblue" d="M1122.09,-516.88C1141.07,-504.33 1176.23,-482.45 1209,-469.5 1215.36,-466.99 1222.14,-464.74 1228.96,-462.75"/>
<polygon fill="midnightblue" stroke="midnightblue" points="1230.2,-466.04 1238.92,-460.01 1228.35,-459.29 1230.2,-466.04"/>
</g>
<!-- Node24 -->
<g id="node24" class="node">
<title>Node24</title>
<g id="a_node24"><a xlink:href="../../da/d23/structNetPacket_a2bb590c1ed30bf03d7ece82a7d3798c8.html#a2bb590c1ed30bf03d7ece82a7d3798c8" target="_top" xlink:title=" ">
<polygon fill="white" stroke="black" points="1227,-479 1227,-498 1349,-498 1349,-479 1227,-479"/>
<text text-anchor="middle" x="1288" y="-486" font-family="Helvetica,sans-Serif" font-size="10.00">NetPacket.ShrinkToFit</text>
</a>
</g>
</g>
<!-- Node22&#45;&gt;Node24 -->
<g id="edge26" class="edge">
<title>Node22&#45;&gt;Node24</title>
<path fill="none" stroke="midnightblue" d="M1153.17,-516.91C1177.22,-511.81 1206.97,-505.49 1232.32,-500.11"/>
<polygon fill="midnightblue" stroke="midnightblue" points="1233.1,-503.52 1242.16,-498.02 1231.65,-496.67 1233.1,-503.52"/>
</g>
<!-- Node26 -->
<g id="node26" class="node">
<title>Node26</title>
<g id="a_node26"><a xlink:href="../../dc/db4/classCreativePowersHelper_ae356c34bd213e6b5d0ec46f1f9d32990.html#ae356c34bd213e6b5d0ec46f1f9d32990" target="_top" xlink:title=" ">
<polygon fill="white" stroke="black" points="421.5,-294.5 421.5,-324.5 567.5,-324.5 567.5,-294.5 421.5,-294.5"/>
<text text-anchor="start" x="429.5" y="-312.5" font-family="Helvetica,sans-Serif" font-size="10.00">CreativePowersHelper.Add</text>
<text text-anchor="middle" x="494.5" y="-301.5" font-family="Helvetica,sans-Serif" font-size="10.00">DescriptionIfNeeded</text>
</a>
</g>
</g>
<!-- Node25&#45;&gt;Node26 -->
<g id="edge28" class="edge">
<title>Node25&#45;&gt;Node26</title>
<path fill="none" stroke="midnightblue" d="M374.24,-309.5C386.44,-309.5 399,-309.5 411.17,-309.5"/>
<polygon fill="midnightblue" stroke="midnightblue" points="411.29,-313 421.29,-309.5 411.29,-306 411.29,-313"/>
</g>
<!-- Node27 -->
<g id="node27" class="node">
<title>Node27</title>
<g id="a_node27"><a xlink:href="../../d0/d41/classLanguage_a9f392308c3f9927bacc3d83792b46408.html#a9f392308c3f9927bacc3d83792b46408" target="_top" xlink:title=" ">
<polygon fill="white" stroke="black" points="640,-322 640,-341 771,-341 771,-322 640,-322"/>
<text text-anchor="middle" x="705.5" y="-329" font-family="Helvetica,sans-Serif" font-size="10.00">Language.GetTextValue</text>
</a>
</g>
</g>
<!-- Node25&#45;&gt;Node27 -->
<g id="edge37" class="edge">
<title>Node25&#45;&gt;Node27</title>
<path fill="none" stroke="midnightblue" d="M350.3,-324.53C369.26,-328.62 390.39,-332.47 410,-334.5 484.52,-342.21 570.21,-340.11 629.88,-336.91"/>
<polygon fill="midnightblue" stroke="midnightblue" points="630.17,-340.4 639.96,-336.34 629.78,-333.41 630.17,-340.4"/>
</g>
<!-- Node29 -->
<g id="node29" class="node">
<title>Node29</title>
<g id="a_node29"><a xlink:href="../../dc/db4/classCreativePowersHelper_a33de5e95858ad274256b2c23d5c325d7.html#a33de5e95858ad274256b2c23d5c325d7" target="_top" xlink:title=" ">
<polygon fill="white" stroke="black" points="421.5,-196.5 421.5,-226.5 567.5,-226.5 567.5,-196.5 421.5,-196.5"/>
<text text-anchor="start" x="429.5" y="-214.5" font-family="Helvetica,sans-Serif" font-size="10.00">CreativePowersHelper.Add</text>
<text text-anchor="middle" x="494.5" y="-203.5" font-family="Helvetica,sans-Serif" font-size="10.00">PermissionTextIfNeeded</text>
</a>
</g>
</g>
<!-- Node25&#45;&gt;Node29 -->
<g id="edge31" class="edge">
<title>Node25&#45;&gt;Node29</title>
<path fill="none" stroke="midnightblue" d="M311.6,-294.29C334.79,-278.14 373.59,-252.74 410,-236.5 415.31,-234.13 420.91,-231.91 426.59,-229.84"/>
<polygon fill="midnightblue" stroke="midnightblue" points="427.89,-233.1 436.19,-226.52 425.6,-226.48 427.89,-233.1"/>
</g>
<!-- Node30 -->
<g id="node30" class="node">
<title>Node30</title>
<g id="a_node30"><a xlink:href="../../dc/db4/classCreativePowersHelper_a6a363686f665c1a4a1971ff6f2059a25.html#a6a363686f665c1a4a1971ff6f2059a25" target="_top" xlink:title=" ">
<polygon fill="white" stroke="black" points="421.5,-382.5 421.5,-412.5 567.5,-412.5 567.5,-382.5 421.5,-382.5"/>
<text text-anchor="start" x="429.5" y="-400.5" font-family="Helvetica,sans-Serif" font-size="10.00">CreativePowersHelper.Add</text>
<text text-anchor="middle" x="494.5" y="-389.5" font-family="Helvetica,sans-Serif" font-size="10.00">UnlockTextIfNeeded</text>
</a>
</g>
</g>
<!-- Node25&#45;&gt;Node30 -->
<g id="edge34" class="edge">
<title>Node25&#45;&gt;Node30</title>
<path fill="none" stroke="midnightblue" d="M319.56,-324.69C343.52,-336.94 378.54,-354.26 410,-367.5 419.37,-371.44 429.46,-375.35 439.27,-378.97"/>
<polygon fill="midnightblue" stroke="midnightblue" points="438.36,-382.37 448.96,-382.49 440.76,-375.79 438.36,-382.37"/>
</g>
<!-- Node31 -->
<g id="node31" class="node">
<title>Node31</title>
<g id="a_node31"><a xlink:href="../../dd/dd1/classCreativePowers_1_1ASharedButtonPower_a966b64681e852b6edb57225c8180ceba.html#a966b64681e852b6edb57225c8180ceba" target="_top" xlink:title=" ">
<polygon fill="white" stroke="black" points="410,-245.5 410,-275.5 579,-275.5 579,-245.5 410,-245.5"/>
<text text-anchor="start" x="418" y="-263.5" font-family="Helvetica,sans-Serif" font-size="10.00">CreativePowers.ASharedButton</text>
<text text-anchor="middle" x="494.5" y="-252.5" font-family="Helvetica,sans-Serif" font-size="10.00">Power.GetIsUnlocked</text>
</a>
</g>
</g>
<!-- Node25&#45;&gt;Node31 -->
<g id="edge36" class="edge">
<title>Node25&#45;&gt;Node31</title>
<path fill="none" stroke="midnightblue" d="M352.79,-294.47C374.51,-289.22 399.07,-283.29 421.52,-277.87"/>
<polygon fill="midnightblue" stroke="midnightblue" points="422.43,-281.25 431.33,-275.51 420.79,-274.45 422.43,-281.25"/>
</g>
<!-- Node32 -->
<g id="node32" class="node">
<title>Node32</title>
<g id="a_node32"><a xlink:href="../../db/d4a/classMain_a5528938946cf03e9117a3af59af828f1.html#a5528938946cf03e9117a3af59af828f1" target="_top" xlink:title=" ">
<polygon fill="white" stroke="black" points="418.5,-470 418.5,-489 570.5,-489 570.5,-470 418.5,-470"/>
<text text-anchor="middle" x="494.5" y="-477" font-family="Helvetica,sans-Serif" font-size="10.00">Main.MouseTextNoOverride</text>
</a>
</g>
</g>
<!-- Node25&#45;&gt;Node32 -->
<g id="edge38" class="edge">
<title>Node25&#45;&gt;Node32</title>
<path fill="none" stroke="midnightblue" d="M304.9,-324.56C326.68,-347.01 369.76,-390.08 410,-422.5 429.03,-437.83 452.05,-453.34 469.1,-464.31"/>
<polygon fill="midnightblue" stroke="midnightblue" points="467.58,-467.49 477.9,-469.9 471.34,-461.58 467.58,-467.49"/>
</g>
<!-- Node26&#45;&gt;Node27 -->
<g id="edge29" class="edge">
<title>Node26&#45;&gt;Node27</title>
<path fill="none" stroke="midnightblue" d="M567.72,-317.1C587.8,-319.22 609.66,-321.52 629.88,-323.64"/>
<polygon fill="midnightblue" stroke="midnightblue" points="629.66,-327.14 639.97,-324.71 630.39,-320.18 629.66,-327.14"/>
</g>
<!-- Node28 -->
<g id="node28" class="node">
<title>Node28</title>
<g id="a_node28"><a xlink:href="../../d2/d9f/classLanguageManager_a2672f0189a3c4aa8b0344a0bcc60c582.html#a2672f0189a3c4aa8b0344a0bcc60c582" target="_top" xlink:title=" ">
<polygon fill="white" stroke="black" points="832,-322 832,-341 1005,-341 1005,-322 832,-322"/>
<text text-anchor="middle" x="918.5" y="-329" font-family="Helvetica,sans-Serif" font-size="10.00">LanguageManager.GetTextValue</text>
</a>
</g>
</g>
<!-- Node27&#45;&gt;Node28 -->
<g id="edge30" class="edge">
<title>Node27&#45;&gt;Node28</title>
<path fill="none" stroke="midnightblue" d="M771.24,-331.5C787.24,-331.5 804.72,-331.5 821.85,-331.5"/>
<polygon fill="midnightblue" stroke="midnightblue" points="821.88,-335 831.88,-331.5 821.88,-328 821.88,-335"/>
</g>
<!-- Node29&#45;&gt;Node12 -->
<g id="edge33" class="edge">
<title>Node29&#45;&gt;Node12</title>
<path fill="none" stroke="midnightblue" d="M567.72,-218.07C579.73,-219.16 592.37,-220.31 604.92,-221.45"/>
<polygon fill="midnightblue" stroke="midnightblue" points="604.67,-224.94 614.94,-222.36 605.3,-217.97 604.67,-224.94"/>
</g>
<!-- Node29&#45;&gt;Node27 -->
<g id="edge32" class="edge">
<title>Node29&#45;&gt;Node27</title>
<path fill="none" stroke="midnightblue" d="M555.37,-226.57C563.49,-229.43 571.58,-232.73 579,-236.5 621.32,-257.97 663.98,-294.03 687.04,-315.01"/>
<polygon fill="midnightblue" stroke="midnightblue" points="684.89,-317.78 694.61,-321.99 689.64,-312.64 684.89,-317.78"/>
</g>
<!-- Node30&#45;&gt;Node27 -->
<g id="edge35" class="edge">
<title>Node30&#45;&gt;Node27</title>
<path fill="none" stroke="midnightblue" d="M543.19,-382.44C579.81,-370.88 629.81,-355.09 664.39,-344.17"/>
<polygon fill="midnightblue" stroke="midnightblue" points="665.67,-347.43 674.16,-341.08 663.57,-340.76 665.67,-347.43"/>
</g>
<!-- Node33 -->
<g id="node33" class="node">
<title>Node33</title>
<g id="a_node33"><a xlink:href="../../db/d4a/classMain_ac7053526b696695cc4ca5efc035fd83a.html#ac7053526b696695cc4ca5efc035fd83a" target="_top" xlink:title=" ">
<polygon fill="white" stroke="black" points="657.5,-445 657.5,-464 753.5,-464 753.5,-445 657.5,-445"/>
<text text-anchor="middle" x="705.5" y="-452" font-family="Helvetica,sans-Serif" font-size="10.00">Main.MouseText</text>
</a>
</g>
</g>
<!-- Node32&#45;&gt;Node33 -->
<g id="edge39" class="edge">
<title>Node32&#45;&gt;Node33</title>
<path fill="none" stroke="midnightblue" d="M570.66,-470.51C595.84,-467.5 623.49,-464.19 647.09,-461.37"/>
<polygon fill="midnightblue" stroke="midnightblue" points="647.77,-464.81 657.28,-460.15 646.94,-457.86 647.77,-464.81"/>
</g>
<!-- Node35 -->
<g id="node35" class="node">
<title>Node35</title>
<g id="a_node35"><a xlink:href="../../d9/d00/classGroupOptionButton_a348d104ccb90f0965c1525d4bfd86cf8.html#a348d104ccb90f0965c1525d4bfd86cf8" target="_top" xlink:title=" ">
<polygon fill="white" stroke="black" points="414.5,-98.5 414.5,-128.5 574.5,-128.5 574.5,-98.5 414.5,-98.5"/>
<text text-anchor="start" x="422.5" y="-116.5" font-family="Helvetica,sans-Serif" font-size="10.00">GroupOptionButton.SetColors</text>
<text text-anchor="middle" x="494.5" y="-105.5" font-family="Helvetica,sans-Serif" font-size="10.00">BasedOnSelectionState</text>
</a>
</g>
</g>
<!-- Node34&#45;&gt;Node35 -->
<g id="edge41" class="edge">
<title>Node34&#45;&gt;Node35</title>
<path fill="none" stroke="midnightblue" d="M369.57,-113.5C380.93,-113.5 392.69,-113.5 404.24,-113.5"/>
<polygon fill="midnightblue" stroke="midnightblue" points="404.32,-117 414.32,-113.5 404.32,-110 404.32,-117"/>
</g>
<!-- Node36 -->
<g id="node36" class="node">
<title>Node36</title>
<g id="a_node36"><a xlink:href="../../d9/d00/classGroupOptionButton_a38aaacd68c0a8bbc7061616f6c1bc4b9.html#a38aaacd68c0a8bbc7061616f6c1bc4b9" target="_top" xlink:title=" ">
<polygon fill="white" stroke="black" points="412,-49.5 412,-79.5 577,-79.5 577,-49.5 412,-49.5"/>
<text text-anchor="start" x="420" y="-67.5" font-family="Helvetica,sans-Serif" font-size="10.00">GroupOptionButton.SetCurrent</text>
<text text-anchor="middle" x="494.5" y="-56.5" font-family="Helvetica,sans-Serif" font-size="10.00">Option</text>
</a>
</g>
</g>
<!-- Node34&#45;&gt;Node36 -->
<g id="edge42" class="edge">
<title>Node34&#45;&gt;Node36</title>
<path fill="none" stroke="midnightblue" d="M352.79,-98.47C374.51,-93.22 399.07,-87.29 421.52,-81.87"/>
<polygon fill="midnightblue" stroke="midnightblue" points="422.43,-85.25 431.33,-79.51 420.79,-78.45 422.43,-85.25"/>
</g>
<!-- Node38 -->
<g id="node38" class="node">
<title>Node38</title>
<g id="a_node38"><a xlink:href="../../dc/db4/classCreativePowersHelper_ade58bffdffb9918a1d4bdbc91f4ded75.html#ade58bffdffb9918a1d4bdbc91f4ded75" target="_top" xlink:title=" ">
<polygon fill="white" stroke="black" points="422,-0.5 422,-30.5 567,-30.5 567,-0.5 422,-0.5"/>
<text text-anchor="start" x="430" y="-18.5" font-family="Helvetica,sans-Serif" font-size="10.00">CreativePowersHelper.Get</text>
<text text-anchor="middle" x="494.5" y="-7.5" font-family="Helvetica,sans-Serif" font-size="10.00">PowerIconAsset</text>
</a>
</g>
</g>
<!-- Node37&#45;&gt;Node38 -->
<g id="edge44" class="edge">
<title>Node37&#45;&gt;Node38</title>
<path fill="none" stroke="midnightblue" d="M362.07,-31.69C378.14,-29.71 395.31,-27.59 411.76,-25.57"/>
<polygon fill="midnightblue" stroke="midnightblue" points="412.39,-29.01 421.89,-24.32 411.54,-22.07 412.39,-29.01"/>
</g>
<!-- Node40 -->
<g id="node40" class="node">
<title>Node40</title>
<g id="a_node40"><a xlink:href="../../dc/db4/classCreativePowersHelper_ab627cbd17a1a0d0bf31a33c9dd9c7217.html#ab627cbd17a1a0d0bf31a33c9dd9c7217" target="_top" xlink:title=" ">
<polygon fill="white" stroke="black" points="413,-147.5 413,-177.5 576,-177.5 576,-147.5 413,-147.5"/>
<text text-anchor="start" x="421" y="-165.5" font-family="Helvetica,sans-Serif" font-size="10.00">CreativePowersHelper.Update</text>
<text text-anchor="middle" x="494.5" y="-154.5" font-family="Helvetica,sans-Serif" font-size="10.00">UnlockStateByPowerInternal</text>
</a>
</g>
</g>
<!-- Node39&#45;&gt;Node40 -->
<g id="edge46" class="edge">
<title>Node39&#45;&gt;Node40</title>
<path fill="none" stroke="midnightblue" d="M371.02,-184.82C381.42,-182.93 392.13,-180.98 402.69,-179.05"/>
<polygon fill="midnightblue" stroke="midnightblue" points="403.53,-182.46 412.74,-177.22 402.28,-175.57 403.53,-182.46"/>
</g>
<!-- Node40&#45;&gt;Node12 -->
<g id="edge48" class="edge">
<title>Node40&#45;&gt;Node12</title>
<path fill="none" stroke="midnightblue" d="M550.76,-177.57C560.28,-180.59 570,-183.93 579,-187.5 595.63,-194.09 598.31,-199.06 615,-205.5 621.27,-207.92 627.87,-210.21 634.53,-212.36"/>
<polygon fill="midnightblue" stroke="midnightblue" points="633.7,-215.76 644.28,-215.39 635.77,-209.08 633.7,-215.76"/>
</g>
<!-- Node41 -->
<g id="node41" class="node">
<title>Node41</title>
<g id="a_node41"><a xlink:href="../../d2/ddb/interfaceICreativePower_a436acb82e654b8fd650c86ef1e7fbb41.html#a436acb82e654b8fd650c86ef1e7fbb41" target="_top" xlink:title=" ">
<polygon fill="white" stroke="black" points="623.5,-177 623.5,-196 787.5,-196 787.5,-177 623.5,-177"/>
<text text-anchor="middle" x="705.5" y="-184" font-family="Helvetica,sans-Serif" font-size="10.00">ICreativePower.GetIsUnlocked</text>
</a>
</g>
</g>
<!-- Node40&#45;&gt;Node41 -->
<g id="edge47" class="edge">
<title>Node40&#45;&gt;Node41</title>
<path fill="none" stroke="midnightblue" d="M576.01,-171.74C588.13,-173.14 600.72,-174.58 613.06,-176"/>
<polygon fill="midnightblue" stroke="midnightblue" points="613.01,-179.52 623.35,-177.18 613.81,-172.56 613.01,-179.52"/>
</g>
<!-- Node42 -->
<g id="node42" class="node">
<title>Node42</title>
<g id="a_node42"><a xlink:href="../../d2/d6b/interfaceIGroupOptionButton_a50a203e4c985e9ca356b13d5de6b181e.html#a50a203e4c985e9ca356b13d5de6b181e" target="_top" xlink:title=" ">
<polygon fill="white" stroke="black" points="623.5,-127.5 623.5,-157.5 787.5,-157.5 787.5,-127.5 623.5,-127.5"/>
<text text-anchor="start" x="631.5" y="-145.5" font-family="Helvetica,sans-Serif" font-size="10.00">IGroupOptionButton.SetBorder</text>
<text text-anchor="middle" x="705.5" y="-134.5" font-family="Helvetica,sans-Serif" font-size="10.00">Color</text>
</a>
</g>
</g>
<!-- Node40&#45;&gt;Node42 -->
<g id="edge49" class="edge">
<title>Node40&#45;&gt;Node42</title>
<path fill="none" stroke="midnightblue" d="M576.01,-154.8C588.13,-153.64 600.72,-152.43 613.06,-151.25"/>
<polygon fill="midnightblue" stroke="midnightblue" points="613.72,-154.7 623.35,-150.27 613.06,-147.73 613.72,-154.7"/>
</g>
<!-- Node43 -->
<g id="node43" class="node">
<title>Node43</title>
<g id="a_node43"><a xlink:href="../../d2/d6b/interfaceIGroupOptionButton_a8209d2584321b33f1ddebb69e95d0c06.html#a8209d2584321b33f1ddebb69e95d0c06" target="_top" xlink:title=" ">
<polygon fill="white" stroke="black" points="624,-78.5 624,-108.5 787,-108.5 787,-78.5 624,-78.5"/>
<text text-anchor="start" x="632" y="-96.5" font-family="Helvetica,sans-Serif" font-size="10.00">IGroupOptionButton.SetColors</text>
<text text-anchor="middle" x="705.5" y="-85.5" font-family="Helvetica,sans-Serif" font-size="10.00">BasedOnSelectionState</text>
</a>
</g>
</g>
<!-- Node40&#45;&gt;Node43 -->
<g id="edge50" class="edge">
<title>Node40&#45;&gt;Node43</title>
<path fill="none" stroke="midnightblue" d="M554.48,-147.37C562.82,-144.71 571.2,-141.74 579,-138.5 595.9,-131.48 598.07,-125.45 615,-118.5 620.88,-116.09 627.06,-113.82 633.32,-111.72"/>
<polygon fill="midnightblue" stroke="midnightblue" points="634.74,-114.94 643.19,-108.56 632.6,-108.28 634.74,-114.94"/>
</g>
</g>
</svg>
