<?xml version="1.0" encoding="UTF-8" standalone="no"?>
<!DOCTYPE svg PUBLIC "-//W3C//DTD SVG 1.1//EN"
 "http://www.w3.org/Graphics/SVG/1.1/DTD/svg11.dtd">
<!-- Generated by graphviz version 2.43.0 (0)
 -->
<!-- Title: AmbientSky.WyvernSkyEntity.WyvernSkyEntity Pages: 1 -->
<svg width="724pt" height="116pt"
 viewBox="0.00 0.00 724.00 115.50" xmlns="http://www.w3.org/2000/svg" xmlns:xlink="http://www.w3.org/1999/xlink">
<g id="graph0" class="graph" transform="scale(1 1) rotate(0) translate(4 111.5)">
<title>AmbientSky.WyvernSkyEntity.WyvernSkyEntity</title>
<polygon fill="white" stroke="transparent" points="-4,4 -4,-111.5 720,-111.5 720,4 -4,4"/>
<!-- Node1 -->
<g id="node1" class="node">
<title>Node1</title>
<g id="a_node1"><a xlink:title=" ">
<polygon fill="#bfbfbf" stroke="black" points="0,-44.5 0,-74.5 161,-74.5 161,-44.5 0,-44.5"/>
<text text-anchor="start" x="8" y="-62.5" font-family="Helvetica,sans-Serif" font-size="10.00">AmbientSky.WyvernSkyEntity.</text>
<text text-anchor="middle" x="80.5" y="-51.5" font-family="Helvetica,sans-Serif" font-size="10.00">WyvernSkyEntity</text>
</a>
</g>
</g>
<!-- Node2 -->
<g id="node2" class="node">
<title>Node2</title>
<g id="a_node2"><a xlink:href="../../db/d84/structFastRandom_a3fef2d76e7ea880992a39cc982b5a851.html#a3fef2d76e7ea880992a39cc982b5a851" target="_top" xlink:title=" ">
<polygon fill="white" stroke="black" points="244.5,-88 244.5,-107 347.5,-107 347.5,-88 244.5,-88"/>
<text text-anchor="middle" x="296" y="-95" font-family="Helvetica,sans-Serif" font-size="10.00">FastRandom.Next</text>
</a>
</g>
</g>
<!-- Node1&#45;&gt;Node2 -->
<g id="edge1" class="edge">
<title>Node1&#45;&gt;Node2</title>
<path fill="none" stroke="midnightblue" d="M161.3,-73.7C185.55,-78.02 211.78,-82.69 234.53,-86.74"/>
<polygon fill="midnightblue" stroke="midnightblue" points="233.93,-90.18 244.38,-88.49 235.15,-83.29 233.93,-90.18"/>
</g>
<!-- Node5 -->
<g id="node5" class="node">
<title>Node5</title>
<g id="a_node5"><a xlink:href="../../db/d84/structFastRandom_a4ffe2951da8409602a014ff25da83ed4.html#a4ffe2951da8409602a014ff25da83ed4" target="_top" xlink:title=" ">
<polygon fill="white" stroke="black" points="232,-50 232,-69 360,-69 360,-50 232,-50"/>
<text text-anchor="middle" x="296" y="-57" font-family="Helvetica,sans-Serif" font-size="10.00">FastRandom.NextFloat</text>
</a>
</g>
</g>
<!-- Node1&#45;&gt;Node5 -->
<g id="edge4" class="edge">
<title>Node1&#45;&gt;Node5</title>
<path fill="none" stroke="midnightblue" d="M161.3,-59.5C181.17,-59.5 202.37,-59.5 221.9,-59.5"/>
<polygon fill="midnightblue" stroke="midnightblue" points="221.95,-63 231.95,-59.5 221.95,-56 221.95,-63"/>
</g>
<!-- Node6 -->
<g id="node6" class="node">
<title>Node6</title>
<g id="a_node6"><a xlink:href="../../d3/d6c/classAmbientSky_1_1SkyEntity_a5f408c649ebcd93f5e5b2f30fd3a76dd.html#a5f408c649ebcd93f5e5b2f30fd3a76dd" target="_top" xlink:title=" ">
<polygon fill="white" stroke="black" points="197,-0.5 197,-30.5 395,-30.5 395,-0.5 197,-0.5"/>
<text text-anchor="start" x="205" y="-18.5" font-family="Helvetica,sans-Serif" font-size="10.00">AmbientSky.SkyEntity.Set</text>
<text text-anchor="middle" x="296" y="-7.5" font-family="Helvetica,sans-Serif" font-size="10.00">PositionInWorldBasedOnScreenSpace</text>
</a>
</g>
</g>
<!-- Node1&#45;&gt;Node6 -->
<g id="edge6" class="edge">
<title>Node1&#45;&gt;Node6</title>
<path fill="none" stroke="midnightblue" d="M154.38,-44.48C173,-40.64 193.15,-36.49 212.23,-32.56"/>
<polygon fill="midnightblue" stroke="midnightblue" points="213,-35.97 222.09,-30.53 211.59,-29.12 213,-35.97"/>
</g>
<!-- Node3 -->
<g id="node3" class="node">
<title>Node3</title>
<g id="a_node3"><a xlink:href="../../db/d84/structFastRandom_a7cf681c97e0820f37e33ccad2c8676ca.html#a7cf681c97e0820f37e33ccad2c8676ca" target="_top" xlink:title=" ">
<polygon fill="white" stroke="black" points="431,-69 431,-88 553,-88 553,-69 431,-69"/>
<text text-anchor="middle" x="492" y="-76" font-family="Helvetica,sans-Serif" font-size="10.00">FastRandom.NextBits</text>
</a>
</g>
</g>
<!-- Node2&#45;&gt;Node3 -->
<g id="edge2" class="edge">
<title>Node2&#45;&gt;Node3</title>
<path fill="none" stroke="midnightblue" d="M347.72,-92.53C370.02,-90.35 396.58,-87.75 420.74,-85.38"/>
<polygon fill="midnightblue" stroke="midnightblue" points="421.32,-88.84 430.93,-84.38 420.63,-81.87 421.32,-88.84"/>
</g>
<!-- Node4 -->
<g id="node4" class="node">
<title>Node4</title>
<g id="a_node4"><a xlink:href="../../db/d84/structFastRandom_a6bbafa73421aa040298052c45bd4f305.html#a6bbafa73421aa040298052c45bd4f305" target="_top" xlink:title=" ">
<polygon fill="white" stroke="black" points="589,-69 589,-88 716,-88 716,-69 589,-69"/>
<text text-anchor="middle" x="652.5" y="-76" font-family="Helvetica,sans-Serif" font-size="10.00">FastRandom.NextSeed</text>
</a>
</g>
</g>
<!-- Node3&#45;&gt;Node4 -->
<g id="edge3" class="edge">
<title>Node3&#45;&gt;Node4</title>
<path fill="none" stroke="midnightblue" d="M553.37,-78.5C561.65,-78.5 570.21,-78.5 578.67,-78.5"/>
<polygon fill="midnightblue" stroke="midnightblue" points="578.93,-82 588.93,-78.5 578.93,-75 578.93,-82"/>
</g>
<!-- Node5&#45;&gt;Node3 -->
<g id="edge5" class="edge">
<title>Node5&#45;&gt;Node3</title>
<path fill="none" stroke="midnightblue" d="M360.25,-65.7C379.56,-67.59 400.9,-69.68 420.64,-71.61"/>
<polygon fill="midnightblue" stroke="midnightblue" points="420.51,-75.11 430.8,-72.6 421.19,-68.15 420.51,-75.11"/>
</g>
</g>
</svg>
