<?xml version="1.0" encoding="UTF-8" standalone="no"?>
<!DOCTYPE svg PUBLIC "-//W3C//DTD SVG 1.1//EN"
 "http://www.w3.org/Graphics/SVG/1.1/DTD/svg11.dtd">
<!-- Generated by graphviz version 2.43.0 (0)
 -->
<!-- Title: Terraria.GameContent.UI.Elements.UIBestiaryNPCEntryPortrait.UIBestiaryNPCEntryPortrait Pages: 1 -->
<svg width="1056pt" height="259pt"
 viewBox="0.00 0.00 1056.00 259.00" xmlns="http://www.w3.org/2000/svg" xmlns:xlink="http://www.w3.org/1999/xlink">
<g id="graph0" class="graph" transform="scale(1 1) rotate(0) translate(4 255)">
<title>Terraria.GameContent.UI.Elements.UIBestiaryNPCEntryPortrait.UIBestiaryNPCEntryPortrait</title>
<!-- Node1 -->
<g id="Node000001" class="node">
<title>Node1</title>
<g id="a_Node000001"><a xlink:title=" ">
<polygon fill="#999999" stroke="#666666" points="201,-78.5 0,-78.5 0,-37.5 201,-37.5 201,-78.5"/>
<text text-anchor="start" x="8" y="-66.5" font-family="Helvetica,sans-Serif" font-size="10.00">Terraria.GameContent.UI.</text>
<text text-anchor="start" x="8" y="-55.5" font-family="Helvetica,sans-Serif" font-size="10.00">Elements.UIBestiaryNPCEntryPortrait.</text>
<text text-anchor="middle" x="100.5" y="-44.5" font-family="Helvetica,sans-Serif" font-size="10.00">UIBestiaryNPCEntryPortrait</text>
</a>
</g>
</g>
<!-- Node2 -->
<g id="Node000002" class="node">
<title>Node2</title>
<g id="a_Node000002"><a xlink:href="../../d7/d72/classTerraria_1_1UI_1_1UIElement_a4f78a3ab59b3dffcdc5b68328a46f103.html#a4f78a3ab59b3dffcdc5b68328a46f103" target="_top" xlink:title=" ">
<polygon fill="white" stroke="#666666" points="400.5,-104.5 239.5,-104.5 239.5,-85.5 400.5,-85.5 400.5,-104.5"/>
<text text-anchor="middle" x="320" y="-92.5" font-family="Helvetica,sans-Serif" font-size="10.00">Terraria.UI.UIElement.Append</text>
</a>
</g>
</g>
<!-- Node1&#45;&gt;Node2 -->
<g id="edge1_Node000001_Node000002" class="edge">
<title>Node1&#45;&gt;Node2</title>
<g id="a_edge1_Node000001_Node000002"><a xlink:title=" ">
<path fill="none" stroke="#63b8ff" d="M201.02,-74.93C218.62,-77.92 236.54,-80.97 252.93,-83.76"/>
<polygon fill="#63b8ff" stroke="#63b8ff" points="252.48,-87.23 262.92,-85.46 253.65,-80.33 252.48,-87.23"/>
</a>
</g>
</g>
<!-- Node11 -->
<g id="Node000011" class="node">
<title>Node11</title>
<g id="a_Node000011"><a xlink:href="../../d8/d74/structTerraria_1_1UI_1_1StyleDimension_a93e6acf229427c6435d7ee83958efba0.html#a93e6acf229427c6435d7ee83958efba0" target="_top" xlink:title=" ">
<polygon fill="white" stroke="#666666" points="403,-67.5 237,-67.5 237,-48.5 403,-48.5 403,-67.5"/>
<text text-anchor="middle" x="320" y="-55.5" font-family="Helvetica,sans-Serif" font-size="10.00">Terraria.UI.StyleDimension.Set</text>
</a>
</g>
</g>
<!-- Node1&#45;&gt;Node11 -->
<g id="edge11_Node000001_Node000011" class="edge">
<title>Node1&#45;&gt;Node11</title>
<g id="a_edge11_Node000001_Node000011"><a xlink:title=" ">
<path fill="none" stroke="#63b8ff" d="M201.02,-58C209.53,-58 218.11,-58 226.56,-58"/>
<polygon fill="#63b8ff" stroke="#63b8ff" points="226.79,-61.5 236.79,-58 226.79,-54.5 226.79,-61.5"/>
</a>
</g>
</g>
<!-- Node12 -->
<g id="Node000012" class="node">
<title>Node12</title>
<g id="a_Node000012"><a xlink:href="../../d7/d72/classTerraria_1_1UI_1_1UIElement_af0511f4ddf033fdbf547690740e19d34.html#af0511f4ddf033fdbf547690740e19d34" target="_top" xlink:title=" ">
<polygon fill="white" stroke="#666666" points="390,-30 250,-30 250,0 390,0 390,-30"/>
<text text-anchor="start" x="258" y="-18" font-family="Helvetica,sans-Serif" font-size="10.00">Terraria.UI.UIElement.Set</text>
<text text-anchor="middle" x="320" y="-7" font-family="Helvetica,sans-Serif" font-size="10.00">Padding</text>
</a>
</g>
</g>
<!-- Node1&#45;&gt;Node12 -->
<g id="edge12_Node000001_Node000012" class="edge">
<title>Node1&#45;&gt;Node12</title>
<g id="a_edge12_Node000001_Node000012"><a xlink:title=" ">
<path fill="none" stroke="#63b8ff" d="M201.02,-38.32C214.08,-35.74 227.32,-33.12 239.98,-30.62"/>
<polygon fill="#63b8ff" stroke="#63b8ff" points="240.87,-34.02 250,-28.64 239.51,-27.15 240.87,-34.02"/>
</a>
</g>
</g>
<!-- Node3 -->
<g id="Node000003" class="node">
<title>Node3</title>
<g id="a_Node000003"><a xlink:href="../../d7/d72/classTerraria_1_1UI_1_1UIElement_aa33dca6c66f9820ef270bc2e23ef1496.html#aa33dca6c66f9820ef270bc2e23ef1496" target="_top" xlink:title=" ">
<polygon fill="white" stroke="#666666" points="620,-125.5 439,-125.5 439,-106.5 620,-106.5 620,-125.5"/>
<text text-anchor="middle" x="529.5" y="-113.5" font-family="Helvetica,sans-Serif" font-size="10.00">Terraria.UI.UIElement.Recalculate</text>
</a>
</g>
</g>
<!-- Node2&#45;&gt;Node3 -->
<g id="edge2_Node000002_Node000003" class="edge">
<title>Node2&#45;&gt;Node3</title>
<g id="a_edge2_Node000002_Node000003"><a xlink:title=" ">
<path fill="none" stroke="#63b8ff" d="M400.63,-103.06C409.78,-103.98 419.19,-104.94 428.57,-105.89"/>
<polygon fill="#63b8ff" stroke="#63b8ff" points="428.4,-109.39 438.7,-106.91 429.11,-102.42 428.4,-109.39"/>
</a>
</g>
</g>
<!-- Node9 -->
<g id="Node000009" class="node">
<title>Node9</title>
<g id="a_Node000009"><a xlink:href="../../d7/d72/classTerraria_1_1UI_1_1UIElement_a336d1ad28adbb657010e263b19095502.html#a336d1ad28adbb657010e263b19095502" target="_top" xlink:title=" ">
<polygon fill="white" stroke="#666666" points="611.5,-83.5 447.5,-83.5 447.5,-64.5 611.5,-64.5 611.5,-83.5"/>
<text text-anchor="middle" x="529.5" y="-71.5" font-family="Helvetica,sans-Serif" font-size="10.00">Terraria.UI.UIElement.Remove</text>
</a>
</g>
</g>
<!-- Node2&#45;&gt;Node9 -->
<g id="edge9_Node000002_Node000009" class="edge">
<title>Node2&#45;&gt;Node9</title>
<g id="a_edge9_Node000002_Node000009"><a xlink:title=" ">
<path fill="none" stroke="#63b8ff" d="M400.63,-86.94C412.6,-85.73 425.01,-84.47 437.2,-83.24"/>
<polygon fill="#63b8ff" stroke="#63b8ff" points="437.77,-86.7 447.36,-82.21 437.06,-79.74 437.77,-86.7"/>
</a>
</g>
</g>
<!-- Node4 -->
<g id="Node000004" class="node">
<title>Node4</title>
<g id="a_Node000004"><a xlink:href="../../dc/dc4/classTerraria_1_1UI_1_1UserInterface_af1df38079c1c3550e041458b43a9aceb.html#af1df38079c1c3550e041458b43a9aceb" target="_top" xlink:title=" ">
<polygon fill="white" stroke="#666666" points="828.5,-251 689.5,-251 689.5,-221 828.5,-221 828.5,-251"/>
<text text-anchor="start" x="697.5" y="-239" font-family="Helvetica,sans-Serif" font-size="10.00">Terraria.UI.UserInterface.</text>
<text text-anchor="middle" x="759" y="-228" font-family="Helvetica,sans-Serif" font-size="10.00">GetDimensions</text>
</a>
</g>
</g>
<!-- Node3&#45;&gt;Node4 -->
<g id="edge3_Node000003_Node000004" class="edge">
<title>Node3&#45;&gt;Node4</title>
<g id="a_edge3_Node000003_Node000004"><a xlink:title=" ">
<path fill="none" stroke="#63b8ff" d="M539.94,-125.56C559.65,-144.95 607.4,-189 656,-212 663.5,-215.55 671.58,-218.6 679.77,-221.21"/>
<polygon fill="#63b8ff" stroke="#63b8ff" points="678.84,-224.59 689.43,-224.08 680.84,-217.88 678.84,-224.59"/>
</a>
</g>
</g>
<!-- Node5 -->
<g id="Node000005" class="node">
<title>Node5</title>
<g id="a_Node000005"><a xlink:href="../../d7/d72/classTerraria_1_1UI_1_1UIElement_a8cb8692a001e504adb564ae67833de3d.html#a8cb8692a001e504adb564ae67833de3d" target="_top" xlink:title=" ">
<polygon fill="white" stroke="#666666" points="862,-203 656,-203 656,-173 862,-173 862,-203"/>
<text text-anchor="start" x="664" y="-191" font-family="Helvetica,sans-Serif" font-size="10.00">Terraria.UI.UIElement.Get</text>
<text text-anchor="middle" x="759" y="-180" font-family="Helvetica,sans-Serif" font-size="10.00">DimensionsBasedOnParentDimensions</text>
</a>
</g>
</g>
<!-- Node3&#45;&gt;Node5 -->
<g id="edge4_Node000003_Node000005" class="edge">
<title>Node3&#45;&gt;Node5</title>
<g id="a_edge4_Node000003_Node000005"><a xlink:title=" ">
<path fill="none" stroke="#63b8ff" d="M552.85,-125.6C577.71,-136.02 619.21,-152.69 656,-164 663.34,-166.25 671.02,-168.42 678.75,-170.46"/>
<polygon fill="#63b8ff" stroke="#63b8ff" points="677.97,-173.87 688.53,-172.98 679.72,-167.09 677.97,-173.87"/>
</a>
</g>
</g>
<!-- Node7 -->
<g id="Node000007" class="node">
<title>Node7</title>
<g id="a_Node000007"><a xlink:href="../../d7/d72/classTerraria_1_1UI_1_1UIElement_a5ad03f5ce0e776511a3b7e4a29e16caf.html#a5ad03f5ce0e776511a3b7e4a29e16caf" target="_top" xlink:title=" ">
<polygon fill="white" stroke="#666666" points="829.5,-155 688.5,-155 688.5,-125 829.5,-125 829.5,-155"/>
<text text-anchor="start" x="696.5" y="-143" font-family="Helvetica,sans-Serif" font-size="10.00">Terraria.UI.UIElement.Get</text>
<text text-anchor="middle" x="759" y="-132" font-family="Helvetica,sans-Serif" font-size="10.00">InnerDimensions</text>
</a>
</g>
</g>
<!-- Node3&#45;&gt;Node7 -->
<g id="edge6_Node000003_Node000007" class="edge">
<title>Node3&#45;&gt;Node7</title>
<g id="a_edge6_Node000003_Node000007"><a xlink:title=" ">
<path fill="none" stroke="#63b8ff" d="M620.09,-125.45C639.27,-127.47 659.41,-129.6 678.2,-131.58"/>
<polygon fill="#63b8ff" stroke="#63b8ff" points="677.87,-135.07 688.18,-132.63 678.6,-128.1 677.87,-135.07"/>
</a>
</g>
</g>
<!-- Node8 -->
<g id="Node000008" class="node">
<title>Node8</title>
<g id="a_Node000008"><a xlink:href="../../d7/d72/classTerraria_1_1UI_1_1UIElement_a8bf52a8c33b045d1df8dbcc96bcbc818.html#a8bf52a8c33b045d1df8dbcc96bcbc818" target="_top" xlink:title=" ">
<polygon fill="white" stroke="#666666" points="849.5,-107 668.5,-107 668.5,-77 849.5,-77 849.5,-107"/>
<text text-anchor="start" x="676.5" y="-95" font-family="Helvetica,sans-Serif" font-size="10.00">Terraria.UI.UIElement.Recalculate</text>
<text text-anchor="middle" x="759" y="-84" font-family="Helvetica,sans-Serif" font-size="10.00">Children</text>
</a>
</g>
</g>
<!-- Node3&#45;&gt;Node8 -->
<g id="edge7_Node000003_Node000008" class="edge">
<title>Node3&#45;&gt;Node8</title>
<g id="a_edge7_Node000003_Node000008"><a xlink:title=" ">
<path fill="none" stroke="#63b8ff" d="M570.65,-106.47C595.05,-102.75 627.37,-98.87 658.29,-95.81"/>
<polygon fill="#63b8ff" stroke="#63b8ff" points="658.65,-99.3 668.26,-94.85 657.97,-92.33 658.65,-99.3"/>
</a>
</g>
</g>
<!-- Node6 -->
<g id="Node000006" class="node">
<title>Node6</title>
<g id="a_Node000006"><a xlink:href="../../d8/d74/structTerraria_1_1UI_1_1StyleDimension_acffa4ba4c6fbf99b983c8c59f17cc855.html#acffa4ba4c6fbf99b983c8c59f17cc855" target="_top" xlink:title=" ">
<polygon fill="white" stroke="#666666" points="1048,-203 898,-203 898,-173 1048,-173 1048,-203"/>
<text text-anchor="start" x="906" y="-191" font-family="Helvetica,sans-Serif" font-size="10.00">Terraria.UI.StyleDimension.</text>
<text text-anchor="middle" x="973" y="-180" font-family="Helvetica,sans-Serif" font-size="10.00">GetValue</text>
</a>
</g>
</g>
<!-- Node5&#45;&gt;Node6 -->
<g id="edge5_Node000005_Node000006" class="edge">
<title>Node5&#45;&gt;Node6</title>
<g id="a_edge5_Node000005_Node000006"><a xlink:title=" ">
<path fill="none" stroke="#63b8ff" d="M862.27,-188C870.78,-188 879.32,-188 887.67,-188"/>
<polygon fill="#63b8ff" stroke="#63b8ff" points="887.75,-191.5 897.75,-188 887.75,-184.5 887.75,-191.5"/>
</a>
</g>
</g>
<!-- Node8&#45;&gt;Node3 -->
<g id="edge8_Node000008_Node000003" class="edge">
<title>Node8&#45;&gt;Node3</title>
<g id="a_edge8_Node000008_Node000003"><a xlink:title=" ">
<path fill="none" stroke="#63b8ff" d="M677,-107.04C661.87,-108.88 645.9,-110.63 630.29,-112.18"/>
<polygon fill="#63b8ff" stroke="#63b8ff" points="629.71,-108.72 620.09,-113.16 630.38,-115.69 629.71,-108.72"/>
</a>
</g>
</g>
<!-- Node10 -->
<g id="Node000010" class="node">
<title>Node10</title>
<g id="a_Node000010"><a xlink:href="../../d7/d72/classTerraria_1_1UI_1_1UIElement_ac407afd27d2b68e6c175951c22e263b5.html#ac407afd27d2b68e6c175951c22e263b5" target="_top" xlink:title=" ">
<polygon fill="white" stroke="#666666" points="841,-59 677,-59 677,-29 841,-29 841,-59"/>
<text text-anchor="start" x="685" y="-47" font-family="Helvetica,sans-Serif" font-size="10.00">Terraria.UI.UIElement.Remove</text>
<text text-anchor="middle" x="759" y="-36" font-family="Helvetica,sans-Serif" font-size="10.00">Child</text>
</a>
</g>
</g>
<!-- Node9&#45;&gt;Node10 -->
<g id="edge10_Node000009_Node000010" class="edge">
<title>Node9&#45;&gt;Node10</title>
<g id="a_edge10_Node000009_Node000010"><a xlink:title=" ">
<path fill="none" stroke="#63b8ff" d="M602.8,-64.47C623.12,-61.79 645.5,-58.83 666.78,-56.03"/>
<polygon fill="#63b8ff" stroke="#63b8ff" points="667.34,-59.49 676.8,-54.71 666.43,-52.55 667.34,-59.49"/>
</a>
</g>
</g>
</g>
</svg>
