<?xml version="1.0" encoding="UTF-8" standalone="no"?>
<!DOCTYPE svg PUBLIC "-//W3C//DTD SVG 1.1//EN"
 "http://www.w3.org/Graphics/SVG/1.1/DTD/svg11.dtd">
<!-- Generated by graphviz version 2.43.0 (0)
 -->
<!-- Title: UICreativeInfiniteItemsDisplay.GetSacrificeAnimationProgress Pages: 1 -->
<svg width="2905pt" height="457pt"
 viewBox="0.00 0.00 2905.00 456.50" xmlns="http://www.w3.org/2000/svg" xmlns:xlink="http://www.w3.org/1999/xlink">
<g id="graph0" class="graph" transform="scale(1 1) rotate(0) translate(4 452.5)">
<title>UICreativeInfiniteItemsDisplay.GetSacrificeAnimationProgress</title>
<polygon fill="white" stroke="transparent" points="-4,4 -4,-452.5 2901,-452.5 2901,4 -4,4"/>
<!-- Node1 -->
<g id="node1" class="node">
<title>Node1</title>
<g id="a_node1"><a xlink:title=" ">
<polygon fill="#bfbfbf" stroke="black" points="2729,-315.5 2729,-345.5 2897,-345.5 2897,-315.5 2729,-315.5"/>
<text text-anchor="start" x="2737" y="-333.5" font-family="Helvetica,sans-Serif" font-size="10.00">UICreativeInfiniteItemsDisplay.</text>
<text text-anchor="middle" x="2813" y="-322.5" font-family="Helvetica,sans-Serif" font-size="10.00">GetSacrificeAnimationProgress</text>
</a>
</g>
</g>
<!-- Node2 -->
<g id="node2" class="node">
<title>Node2</title>
<g id="a_node2"><a xlink:href="../../da/dfc/classUICreativeInfiniteItemsDisplay_aeab09fac976d12ce556d61c80d12706e.html#aeab09fac976d12ce556d61c80d12706e" target="_top" xlink:title=" ">
<polygon fill="white" stroke="black" points="2525,-315.5 2525,-345.5 2693,-345.5 2693,-315.5 2525,-315.5"/>
<text text-anchor="start" x="2533" y="-333.5" font-family="Helvetica,sans-Serif" font-size="10.00">UICreativeInfiniteItemsDisplay.</text>
<text text-anchor="middle" x="2609" y="-322.5" font-family="Helvetica,sans-Serif" font-size="10.00">UpdateVisualFrame</text>
</a>
</g>
</g>
<!-- Node1&#45;&gt;Node2 -->
<g id="edge1" class="edge">
<title>Node1&#45;&gt;Node2</title>
<path fill="none" stroke="midnightblue" d="M2718.89,-330.5C2710.27,-330.5 2701.56,-330.5 2693.04,-330.5"/>
<polygon fill="midnightblue" stroke="midnightblue" points="2718.96,-334 2728.96,-330.5 2718.96,-327 2718.96,-334"/>
</g>
<!-- Node3 -->
<g id="node3" class="node">
<title>Node3</title>
<g id="a_node3"><a xlink:href="../../da/dfc/classUICreativeInfiniteItemsDisplay_a6c47acd8995ed1dd152d9a5e7d6ec098.html#a6c47acd8995ed1dd152d9a5e7d6ec098" target="_top" xlink:title=" ">
<polygon fill="white" stroke="black" points="2280,-340.5 2280,-370.5 2489,-370.5 2489,-340.5 2280,-340.5"/>
<text text-anchor="start" x="2288" y="-358.5" font-family="Helvetica,sans-Serif" font-size="10.00">UICreativeInfiniteItemsDisplay.sacrifice</text>
<text text-anchor="middle" x="2384.5" y="-347.5" font-family="Helvetica,sans-Serif" font-size="10.00">Window_OnUpdate</text>
</a>
</g>
</g>
<!-- Node2&#45;&gt;Node3 -->
<g id="edge2" class="edge">
<title>Node2&#45;&gt;Node3</title>
<path fill="none" stroke="midnightblue" d="M2514.68,-340.99C2506.28,-341.93 2497.74,-342.89 2489.27,-343.84"/>
<polygon fill="midnightblue" stroke="midnightblue" points="2515.29,-344.44 2524.83,-339.84 2514.5,-337.48 2515.29,-344.44"/>
</g>
<!-- Node7 -->
<g id="node7" class="node">
<title>Node7</title>
<g id="a_node7"><a xlink:href="../../da/dfc/classUICreativeInfiniteItemsDisplay_ab216e2e06902804273a7918b026725fd.html#ab216e2e06902804273a7918b026725fd" target="_top" xlink:title=" ">
<polygon fill="white" stroke="black" points="2300.5,-291.5 2300.5,-321.5 2468.5,-321.5 2468.5,-291.5 2300.5,-291.5"/>
<text text-anchor="start" x="2308.5" y="-309.5" font-family="Helvetica,sans-Serif" font-size="10.00">UICreativeInfiniteItemsDisplay.</text>
<text text-anchor="middle" x="2384.5" y="-298.5" font-family="Helvetica,sans-Serif" font-size="10.00">StopPlayingAnimation</text>
</a>
</g>
</g>
<!-- Node2&#45;&gt;Node7 -->
<g id="edge6" class="edge">
<title>Node2&#45;&gt;Node7</title>
<path fill="none" stroke="midnightblue" d="M2514.83,-320.45C2499.47,-318.79 2483.65,-317.09 2468.57,-315.46"/>
<polygon fill="midnightblue" stroke="midnightblue" points="2514.52,-323.94 2524.83,-321.53 2515.27,-316.98 2514.52,-323.94"/>
</g>
<!-- Node4 -->
<g id="node4" class="node">
<title>Node4</title>
<g id="a_node4"><a xlink:href="../../da/dfc/classUICreativeInfiniteItemsDisplay_a691167d827a4e396a78986fcb3d3be42.html#a691167d827a4e396a78986fcb3d3be42" target="_top" xlink:title=" ">
<polygon fill="white" stroke="black" points="1884,-397.5 1884,-427.5 2052,-427.5 2052,-397.5 1884,-397.5"/>
<text text-anchor="start" x="1892" y="-415.5" font-family="Helvetica,sans-Serif" font-size="10.00">UICreativeInfiniteItemsDisplay.</text>
<text text-anchor="middle" x="1968" y="-404.5" font-family="Helvetica,sans-Serif" font-size="10.00">BuildSacrificeMenuContents</text>
</a>
</g>
</g>
<!-- Node3&#45;&gt;Node4 -->
<g id="edge3" class="edge">
<title>Node3&#45;&gt;Node4</title>
<path fill="none" stroke="midnightblue" d="M2269.94,-371.12C2201.04,-380.59 2114.64,-392.47 2052.11,-401.07"/>
<polygon fill="midnightblue" stroke="midnightblue" points="2270.54,-374.57 2279.97,-369.74 2269.59,-367.63 2270.54,-374.57"/>
</g>
<!-- Node5 -->
<g id="node5" class="node">
<title>Node5</title>
<g id="a_node5"><a xlink:href="../../da/dfc/classUICreativeInfiniteItemsDisplay_ac881a9ef2f83428c4517dff1c4be52c0.html#ac881a9ef2f83428c4517dff1c4be52c0" target="_top" xlink:title=" ">
<polygon fill="white" stroke="black" points="471,-401.5 471,-431.5 639,-431.5 639,-401.5 471,-401.5"/>
<text text-anchor="start" x="479" y="-419.5" font-family="Helvetica,sans-Serif" font-size="10.00">UICreativeInfiniteItemsDisplay.</text>
<text text-anchor="middle" x="555" y="-408.5" font-family="Helvetica,sans-Serif" font-size="10.00">BuildPage</text>
</a>
</g>
</g>
<!-- Node4&#45;&gt;Node5 -->
<g id="edge4" class="edge">
<title>Node4&#45;&gt;Node5</title>
<path fill="none" stroke="midnightblue" d="M1873.41,-426.7C1798.97,-436.77 1692.06,-448.5 1598,-448.5 1598,-448.5 1598,-448.5 967,-448.5 853.2,-448.5 722.22,-436.16 639.29,-426.8"/>
<polygon fill="midnightblue" stroke="midnightblue" points="1874.26,-430.12 1883.69,-425.29 1873.31,-423.18 1874.26,-430.12"/>
</g>
<!-- Node6 -->
<g id="node6" class="node">
<title>Node6</title>
<g id="a_node6"><a xlink:href="../../da/dfc/classUICreativeInfiniteItemsDisplay_a387fc60d0b0cff01e05fcc78566fbab7.html#a387fc60d0b0cff01e05fcc78566fbab7" target="_top" xlink:title=" ">
<polygon fill="white" stroke="black" points="266.5,-401.5 266.5,-431.5 434.5,-431.5 434.5,-401.5 266.5,-401.5"/>
<text text-anchor="start" x="274.5" y="-419.5" font-family="Helvetica,sans-Serif" font-size="10.00">UICreativeInfiniteItemsDisplay.</text>
<text text-anchor="middle" x="350.5" y="-408.5" font-family="Helvetica,sans-Serif" font-size="10.00">UICreativeInfiniteItemsDisplay</text>
</a>
</g>
</g>
<!-- Node5&#45;&gt;Node6 -->
<g id="edge5" class="edge">
<title>Node5&#45;&gt;Node6</title>
<path fill="none" stroke="midnightblue" d="M460.66,-416.5C452.01,-416.5 443.29,-416.5 434.75,-416.5"/>
<polygon fill="midnightblue" stroke="midnightblue" points="460.76,-420 470.76,-416.5 460.76,-413 460.76,-420"/>
</g>
<!-- Node8 -->
<g id="node8" class="node">
<title>Node8</title>
<g id="a_node8"><a xlink:href="../../d7/d97/classUICreativePowersMenu_ab019dd7eb0fd227d1155d92ba6991861.html#ab019dd7eb0fd227d1155d92ba6991861" target="_top" xlink:title=" ">
<polygon fill="white" stroke="black" points="2089,-291.5 2089,-321.5 2244,-321.5 2244,-291.5 2089,-291.5"/>
<text text-anchor="start" x="2097" y="-309.5" font-family="Helvetica,sans-Serif" font-size="10.00">UICreativePowersMenu.Stop</text>
<text text-anchor="middle" x="2166.5" y="-298.5" font-family="Helvetica,sans-Serif" font-size="10.00">PlayingResearchAnimations</text>
</a>
</g>
</g>
<!-- Node7&#45;&gt;Node8 -->
<g id="edge7" class="edge">
<title>Node7&#45;&gt;Node8</title>
<path fill="none" stroke="midnightblue" d="M2290.28,-306.5C2274.93,-306.5 2259.18,-306.5 2244.29,-306.5"/>
<polygon fill="midnightblue" stroke="midnightblue" points="2290.3,-310 2300.3,-306.5 2290.3,-303 2290.3,-310"/>
</g>
<!-- Node9 -->
<g id="node9" class="node">
<title>Node9</title>
<g id="a_node9"><a xlink:href="../../d6/d1b/classCreativeUI_a0b36a51c5705574de14ab0effa7c593d.html#a0b36a51c5705574de14ab0effa7c593d" target="_top" xlink:title=" ">
<polygon fill="white" stroke="black" points="1883,-291.5 1883,-321.5 2053,-321.5 2053,-291.5 1883,-291.5"/>
<text text-anchor="start" x="1891" y="-309.5" font-family="Helvetica,sans-Serif" font-size="10.00">CreativeUI.StopPlayingSacrifice</text>
<text text-anchor="middle" x="1968" y="-298.5" font-family="Helvetica,sans-Serif" font-size="10.00">Animations</text>
</a>
</g>
</g>
<!-- Node8&#45;&gt;Node9 -->
<g id="edge8" class="edge">
<title>Node8&#45;&gt;Node9</title>
<path fill="none" stroke="midnightblue" d="M2078.69,-306.5C2070.2,-306.5 2061.6,-306.5 2053.14,-306.5"/>
<polygon fill="midnightblue" stroke="midnightblue" points="2078.97,-310 2088.97,-306.5 2078.97,-303 2078.97,-310"/>
</g>
<!-- Node10 -->
<g id="node10" class="node">
<title>Node10</title>
<g id="a_node10"><a xlink:href="../../d6/d1b/classCreativeUI_a030006095dccf93f2918de768f638888.html#a030006095dccf93f2918de768f638888" target="_top" xlink:title=" ">
<polygon fill="white" stroke="black" points="1719.5,-199 1719.5,-218 1844.5,-218 1844.5,-199 1719.5,-199"/>
<text text-anchor="middle" x="1782" y="-206" font-family="Helvetica,sans-Serif" font-size="10.00">CreativeUI.CloseMenu</text>
</a>
</g>
</g>
<!-- Node9&#45;&gt;Node10 -->
<g id="edge9" class="edge">
<title>Node9&#45;&gt;Node10</title>
<path fill="none" stroke="midnightblue" d="M1929.67,-286.62C1890.57,-265.79 1830.78,-233.95 1801.06,-218.12"/>
<polygon fill="midnightblue" stroke="midnightblue" points="1928.18,-289.79 1938.65,-291.4 1931.47,-283.61 1928.18,-289.79"/>
</g>
<!-- Node53 -->
<g id="node39" class="node">
<title>Node53</title>
<g id="a_node39"><a xlink:href="../../d6/d1b/classCreativeUI_ad4935877e1a4bb8de9ddcbb756ab098d.html#ad4935877e1a4bb8de9ddcbb756ab098d" target="_top" xlink:title=" ">
<polygon fill="white" stroke="black" points="1717,-297 1717,-316 1847,-316 1847,-297 1717,-297"/>
<text text-anchor="middle" x="1782" y="-304" font-family="Helvetica,sans-Serif" font-size="10.00">CreativeUI.ToggleMenu</text>
</a>
</g>
</g>
<!-- Node9&#45;&gt;Node53 -->
<g id="edge41" class="edge">
<title>Node9&#45;&gt;Node53</title>
<path fill="none" stroke="midnightblue" d="M1872.64,-306.5C1863.98,-306.5 1855.35,-306.5 1847.05,-306.5"/>
<polygon fill="midnightblue" stroke="midnightblue" points="1872.81,-310 1882.81,-306.5 1872.81,-303 1872.81,-310"/>
</g>
<!-- Node11 -->
<g id="node11" class="node">
<title>Node11</title>
<g id="a_node11"><a xlink:href="../../db/d4a/classMain_ab9585a9a2fbc71c67b8ae3a91c5ef880.html#ab9585a9a2fbc71c67b8ae3a91c5ef880" target="_top" xlink:title=" ">
<polygon fill="white" stroke="black" points="911.5,-275.5 911.5,-305.5 1024.5,-305.5 1024.5,-275.5 911.5,-275.5"/>
<text text-anchor="start" x="919.5" y="-293.5" font-family="Helvetica,sans-Serif" font-size="10.00">Main.DrawInterface</text>
<text text-anchor="middle" x="968" y="-282.5" font-family="Helvetica,sans-Serif" font-size="10.00">_27_Inventory</text>
</a>
</g>
</g>
<!-- Node10&#45;&gt;Node11 -->
<g id="edge10" class="edge">
<title>Node10&#45;&gt;Node11</title>
<path fill="none" stroke="midnightblue" d="M1709.2,-208.21C1616.47,-208.56 1450.2,-211.66 1309,-227.5 1207.88,-238.84 1091.61,-262.79 1024.59,-277.67"/>
<polygon fill="midnightblue" stroke="midnightblue" points="1709.32,-211.71 1719.31,-208.18 1709.3,-204.71 1709.32,-211.71"/>
</g>
<!-- Node16 -->
<g id="node16" class="node">
<title>Node16</title>
<g id="a_node16"><a xlink:href="../../de/d47/classTileEntity_a71f3e42a74f9387e20b907be52e815b9.html#a71f3e42a74f9387e20b907be52e815b9" target="_top" xlink:title=" ">
<polygon fill="white" stroke="black" points="1530.5,-142.5 1530.5,-172.5 1663.5,-172.5 1663.5,-142.5 1530.5,-142.5"/>
<text text-anchor="start" x="1538.5" y="-160.5" font-family="Helvetica,sans-Serif" font-size="10.00">TileEntity.SetInteraction</text>
<text text-anchor="middle" x="1597" y="-149.5" font-family="Helvetica,sans-Serif" font-size="10.00">Anchor</text>
</a>
</g>
</g>
<!-- Node10&#45;&gt;Node16 -->
<g id="edge16" class="edge">
<title>Node10&#45;&gt;Node16</title>
<path fill="none" stroke="midnightblue" d="M1736.81,-196.18C1711.31,-189.08 1679.05,-180.09 1652.05,-172.56"/>
<polygon fill="midnightblue" stroke="midnightblue" points="1736.01,-199.59 1746.58,-198.91 1737.89,-192.85 1736.01,-199.59"/>
</g>
<!-- Node12 -->
<g id="node12" class="node">
<title>Node12</title>
<g id="a_node12"><a xlink:href="../../db/d4a/classMain_aaf00fdabdb1a5736ff0443825f2d4324.html#aaf00fdabdb1a5736ff0443825f2d4324" target="_top" xlink:title=" ">
<polygon fill="white" stroke="black" points="675,-281 675,-300 848,-300 848,-281 675,-281"/>
<text text-anchor="middle" x="761.5" y="-288" font-family="Helvetica,sans-Serif" font-size="10.00">Main.SetupDrawInterfaceLayers</text>
</a>
</g>
</g>
<!-- Node11&#45;&gt;Node12 -->
<g id="edge11" class="edge">
<title>Node11&#45;&gt;Node12</title>
<path fill="none" stroke="midnightblue" d="M901.09,-290.5C884.2,-290.5 865.8,-290.5 848.08,-290.5"/>
<polygon fill="midnightblue" stroke="midnightblue" points="901.39,-294 911.39,-290.5 901.39,-287 901.39,-294"/>
</g>
<!-- Node13 -->
<g id="node13" class="node">
<title>Node13</title>
<g id="a_node13"><a xlink:href="../../db/d4a/classMain_a394be66e030c385131f8239af0bd3af0.html#a394be66e030c385131f8239af0bd3af0" target="_top" xlink:title=" ">
<polygon fill="white" stroke="black" points="498.5,-281 498.5,-300 611.5,-300 611.5,-281 498.5,-281"/>
<text text-anchor="middle" x="555" y="-288" font-family="Helvetica,sans-Serif" font-size="10.00">Main.DrawInterface</text>
</a>
</g>
</g>
<!-- Node12&#45;&gt;Node13 -->
<g id="edge12" class="edge">
<title>Node12&#45;&gt;Node13</title>
<path fill="none" stroke="midnightblue" d="M664.9,-290.5C646.7,-290.5 628.23,-290.5 611.79,-290.5"/>
<polygon fill="midnightblue" stroke="midnightblue" points="664.96,-294 674.96,-290.5 664.96,-287 664.96,-294"/>
</g>
<!-- Node14 -->
<g id="node14" class="node">
<title>Node14</title>
<g id="a_node14"><a xlink:href="../../db/d4a/classMain_a4ca48570ee8c9e54ed5371ecb4ab1877.html#a4ca48570ee8c9e54ed5371ecb4ab1877" target="_top" xlink:title=" ">
<polygon fill="white" stroke="black" points="309,-281 309,-300 392,-300 392,-281 309,-281"/>
<text text-anchor="middle" x="350.5" y="-288" font-family="Helvetica,sans-Serif" font-size="10.00">Main.DoDraw</text>
</a>
</g>
</g>
<!-- Node13&#45;&gt;Node14 -->
<g id="edge13" class="edge">
<title>Node13&#45;&gt;Node14</title>
<path fill="none" stroke="midnightblue" d="M488.33,-290.5C456.68,-290.5 419.73,-290.5 392.2,-290.5"/>
<polygon fill="midnightblue" stroke="midnightblue" points="488.4,-294 498.4,-290.5 488.4,-287 488.4,-294"/>
</g>
<!-- Node15 -->
<g id="node15" class="node">
<title>Node15</title>
<g id="a_node15"><a xlink:href="../../db/d4a/classMain_a9df405f7c9ce2e93e9af9bbf70231672.html#a9df405f7c9ce2e93e9af9bbf70231672" target="_top" xlink:title=" ">
<polygon fill="white" stroke="black" points="153,-281 153,-300 222,-300 222,-281 153,-281"/>
<text text-anchor="middle" x="187.5" y="-288" font-family="Helvetica,sans-Serif" font-size="10.00">Main.Draw</text>
</a>
</g>
</g>
<!-- Node14&#45;&gt;Node15 -->
<g id="edge14" class="edge">
<title>Node14&#45;&gt;Node15</title>
<path fill="none" stroke="midnightblue" d="M298.81,-284.18C273.77,-283.43 244.25,-283.66 222.05,-284.9"/>
<polygon fill="midnightblue" stroke="midnightblue" points="298.75,-287.68 308.87,-284.55 299.01,-280.68 298.75,-287.68"/>
</g>
<!-- Node15&#45;&gt;Node14 -->
<g id="edge15" class="edge">
<title>Node15&#45;&gt;Node14</title>
<path fill="none" stroke="midnightblue" d="M232.26,-296.58C256.13,-297.51 285.5,-297.47 308.87,-296.45"/>
<polygon fill="midnightblue" stroke="midnightblue" points="232.21,-293.08 222.05,-296.1 231.88,-300.07 232.21,-293.08"/>
</g>
<!-- Node17 -->
<g id="node17" class="node">
<title>Node17</title>
<g id="a_node17"><a xlink:href="../../de/d47/classTileEntity_a839177f8d586fbe387026fdf7c66ce75.html#a839177f8d586fbe387026fdf7c66ce75" target="_top" xlink:title=" ">
<polygon fill="white" stroke="black" points="1321.5,-142.5 1321.5,-172.5 1464.5,-172.5 1464.5,-142.5 1321.5,-142.5"/>
<text text-anchor="start" x="1329.5" y="-160.5" font-family="Helvetica,sans-Serif" font-size="10.00">TileEntity.BasicOpenClose</text>
<text text-anchor="middle" x="1393" y="-149.5" font-family="Helvetica,sans-Serif" font-size="10.00">Interaction</text>
</a>
</g>
</g>
<!-- Node16&#45;&gt;Node17 -->
<g id="edge17" class="edge">
<title>Node16&#45;&gt;Node17</title>
<path fill="none" stroke="midnightblue" d="M1520.18,-157.5C1502.04,-157.5 1482.74,-157.5 1464.83,-157.5"/>
<polygon fill="midnightblue" stroke="midnightblue" points="1520.42,-161 1530.42,-157.5 1520.42,-154 1520.42,-161"/>
</g>
<!-- Node21 -->
<g id="node21" class="node">
<title>Node21</title>
<g id="a_node21"><a xlink:href="../../df/d9d/classMessageBuffer_a579cda2888a9a367b8635b9080c94a39.html#a579cda2888a9a367b8635b9080c94a39" target="_top" xlink:title=" ">
<polygon fill="white" stroke="black" points="1327,-89 1327,-108 1459,-108 1459,-89 1327,-89"/>
<text text-anchor="middle" x="1393" y="-96" font-family="Helvetica,sans-Serif" font-size="10.00">MessageBuffer.GetData</text>
</a>
</g>
</g>
<!-- Node16&#45;&gt;Node21 -->
<g id="edge22" class="edge">
<title>Node16&#45;&gt;Node21</title>
<path fill="none" stroke="midnightblue" d="M1534.71,-139.6C1499.18,-129.22 1455.85,-116.56 1426.74,-108.06"/>
<polygon fill="midnightblue" stroke="midnightblue" points="1533.92,-143.02 1544.5,-142.46 1535.89,-136.3 1533.92,-143.02"/>
</g>
<!-- Node18 -->
<g id="node18" class="node">
<title>Node18</title>
<g id="a_node18"><a xlink:href="../../da/de3/classTEDisplayDoll_a56076b030a89db9286b82eff5b202eb4.html#a56076b030a89db9286b82eff5b202eb4" target="_top" xlink:title=" ">
<polygon fill="white" stroke="black" points="1088,-161 1088,-180 1273,-180 1273,-161 1088,-161"/>
<text text-anchor="middle" x="1180.5" y="-168" font-family="Helvetica,sans-Serif" font-size="10.00">TEDisplayDoll.OnPlayerInteraction</text>
</a>
</g>
</g>
<!-- Node17&#45;&gt;Node18 -->
<g id="edge18" class="edge">
<title>Node17&#45;&gt;Node18</title>
<path fill="none" stroke="midnightblue" d="M1311.07,-162.5C1298.71,-163.26 1285.87,-164.05 1273.3,-164.83"/>
<polygon fill="midnightblue" stroke="midnightblue" points="1311.56,-165.97 1321.32,-161.86 1311.12,-158.99 1311.56,-165.97"/>
</g>
<!-- Node20 -->
<g id="node20" class="node">
<title>Node20</title>
<g id="a_node20"><a xlink:href="../../d4/d53/classTEHatRack_aa0b479f88d90f61d992789d8735adc72.html#aa0b479f88d90f61d992789d8735adc72" target="_top" xlink:title=" ">
<polygon fill="white" stroke="black" points="1095.5,-123 1095.5,-142 1265.5,-142 1265.5,-123 1095.5,-123"/>
<text text-anchor="middle" x="1180.5" y="-130" font-family="Helvetica,sans-Serif" font-size="10.00">TEHatRack.OnPlayerInteraction</text>
</a>
</g>
</g>
<!-- Node17&#45;&gt;Node20 -->
<g id="edge20" class="edge">
<title>Node17&#45;&gt;Node20</title>
<path fill="none" stroke="midnightblue" d="M1311.33,-147.92C1295.09,-145.99 1278.02,-143.96 1261.79,-142.04"/>
<polygon fill="midnightblue" stroke="midnightblue" points="1310.98,-151.4 1321.32,-149.11 1311.8,-144.45 1310.98,-151.4"/>
</g>
<!-- Node19 -->
<g id="node19" class="node">
<title>Node19</title>
<g id="a_node19"><a xlink:href="../../d2/d4b/classPlayer_a2424e60f6290a935df7e2e6398c96726.html#a2424e60f6290a935df7e2e6398c96726" target="_top" xlink:title=" ">
<polygon fill="white" stroke="black" points="896,-166 896,-185 1040,-185 1040,-166 896,-166"/>
<text text-anchor="middle" x="968" y="-173" font-family="Helvetica,sans-Serif" font-size="10.00">Player.TileInteractionsUse</text>
</a>
</g>
</g>
<!-- Node18&#45;&gt;Node19 -->
<g id="edge19" class="edge">
<title>Node18&#45;&gt;Node19</title>
<path fill="none" stroke="midnightblue" d="M1077.65,-172.92C1064.97,-173.22 1052.23,-173.52 1040.16,-173.81"/>
<polygon fill="midnightblue" stroke="midnightblue" points="1077.87,-176.42 1087.78,-172.68 1077.7,-169.42 1077.87,-176.42"/>
</g>
<!-- Node20&#45;&gt;Node19 -->
<g id="edge21" class="edge">
<title>Node20&#45;&gt;Node19</title>
<path fill="none" stroke="midnightblue" d="M1122.66,-144.11C1089.11,-150.96 1047.17,-159.53 1015.59,-165.98"/>
<polygon fill="midnightblue" stroke="midnightblue" points="1123.69,-147.47 1132.78,-142.04 1122.29,-140.62 1123.69,-147.47"/>
</g>
<!-- Node22 -->
<g id="node22" class="node">
<title>Node22</title>
<g id="a_node22"><a xlink:href="../../dc/d81/classNetMessage_a8f9598403300241239adf3387329877b.html#a8f9598403300241239adf3387329877b" target="_top" xlink:title=" ">
<polygon fill="white" stroke="black" points="1111.5,-81 1111.5,-100 1249.5,-100 1249.5,-81 1111.5,-81"/>
<text text-anchor="middle" x="1180.5" y="-88" font-family="Helvetica,sans-Serif" font-size="10.00">NetMessage.CheckBytes</text>
</a>
</g>
</g>
<!-- Node21&#45;&gt;Node22 -->
<g id="edge23" class="edge">
<title>Node21&#45;&gt;Node22</title>
<path fill="none" stroke="midnightblue" d="M1316.61,-95.63C1294.75,-94.8 1271.02,-93.9 1249.63,-93.09"/>
<polygon fill="midnightblue" stroke="midnightblue" points="1316.71,-99.14 1326.84,-96.02 1316.98,-92.15 1316.71,-99.14"/>
</g>
<!-- Node23 -->
<g id="node23" class="node">
<title>Node23</title>
<g id="a_node23"><a xlink:href="../../d9/d43/classNetplay_aa51004bde61130683ddf3943f46708f3.html#aa51004bde61130683ddf3943f46708f3" target="_top" xlink:title=" ">
<polygon fill="white" stroke="black" points="901.5,-29 901.5,-48 1034.5,-48 1034.5,-29 901.5,-29"/>
<text text-anchor="middle" x="968" y="-36" font-family="Helvetica,sans-Serif" font-size="10.00">Netplay.InnerClientLoop</text>
</a>
</g>
</g>
<!-- Node22&#45;&gt;Node23 -->
<g id="edge24" class="edge">
<title>Node22&#45;&gt;Node23</title>
<path fill="none" stroke="midnightblue" d="M1134.17,-78.44C1109.85,-72.05 1079.33,-64.16 1052,-57.5 1038.93,-54.31 1024.67,-50.99 1011.71,-48.03"/>
<polygon fill="midnightblue" stroke="midnightblue" points="1133.28,-81.82 1143.84,-80.98 1135.07,-75.05 1133.28,-81.82"/>
</g>
<!-- Node44 -->
<g id="node32" class="node">
<title>Node44</title>
<g id="a_node32"><a xlink:href="../../d9/d43/classNetplay_a1d565aba028375ad0cfbe2fbbf3ba074.html#a1d565aba028375ad0cfbe2fbbf3ba074" target="_top" xlink:title=" ">
<polygon fill="white" stroke="black" points="891.5,-116.5 891.5,-146.5 1044.5,-146.5 1044.5,-116.5 891.5,-116.5"/>
<text text-anchor="start" x="899.5" y="-134.5" font-family="Helvetica,sans-Serif" font-size="10.00">Netplay.UpdateClientInMain</text>
<text text-anchor="middle" x="968" y="-123.5" font-family="Helvetica,sans-Serif" font-size="10.00">Thread</text>
</a>
</g>
</g>
<!-- Node22&#45;&gt;Node44 -->
<g id="edge33" class="edge">
<title>Node22&#45;&gt;Node44</title>
<path fill="none" stroke="midnightblue" d="M1120.84,-101.93C1097.28,-106.51 1069.81,-111.86 1044.77,-116.74"/>
<polygon fill="midnightblue" stroke="midnightblue" points="1121.53,-105.36 1130.68,-100.01 1120.19,-98.49 1121.53,-105.36"/>
</g>
<!-- Node52 -->
<g id="node38" class="node">
<title>Node52</title>
<g id="a_node38"><a xlink:href="../../d9/d43/classNetplay_ac1ed25c26842f4ebc49600aabb748d79.html#ac1ed25c26842f4ebc49600aabb748d79" target="_top" xlink:title=" ">
<polygon fill="white" stroke="black" points="890,-67.5 890,-97.5 1046,-97.5 1046,-67.5 890,-67.5"/>
<text text-anchor="start" x="898" y="-85.5" font-family="Helvetica,sans-Serif" font-size="10.00">Netplay.UpdateServerInMain</text>
<text text-anchor="middle" x="968" y="-74.5" font-family="Helvetica,sans-Serif" font-size="10.00">Thread</text>
</a>
</g>
</g>
<!-- Node22&#45;&gt;Node52 -->
<g id="edge39" class="edge">
<title>Node22&#45;&gt;Node52</title>
<path fill="none" stroke="midnightblue" d="M1101.31,-87.53C1083.34,-86.85 1064.25,-86.12 1046.32,-85.44"/>
<polygon fill="midnightblue" stroke="midnightblue" points="1101.32,-91.03 1111.45,-87.91 1101.59,-84.04 1101.32,-91.03"/>
</g>
<!-- Node24 -->
<g id="node24" class="node">
<title>Node24</title>
<g id="a_node24"><a xlink:href="../../d9/d43/classNetplay_a3e9cd925db762ba5216b26b7902fe747.html#a3e9cd925db762ba5216b26b7902fe747" target="_top" xlink:title=" ">
<polygon fill="white" stroke="black" points="693,-16 693,-35 830,-35 830,-16 693,-16"/>
<text text-anchor="middle" x="761.5" y="-23" font-family="Helvetica,sans-Serif" font-size="10.00">Netplay.SocialClientLoop</text>
</a>
</g>
</g>
<!-- Node23&#45;&gt;Node24 -->
<g id="edge25" class="edge">
<title>Node23&#45;&gt;Node24</title>
<path fill="none" stroke="midnightblue" d="M891.41,-33.7C871.33,-32.42 849.77,-31.05 830.14,-29.8"/>
<polygon fill="midnightblue" stroke="midnightblue" points="891.25,-37.19 901.45,-34.33 891.69,-30.21 891.25,-37.19"/>
</g>
<!-- Node34 -->
<g id="node27" class="node">
<title>Node34</title>
<g id="a_node27"><a xlink:href="../../d9/d43/classNetplay_aae9569d1172d19c4f1a6fc81f2b4d469.html#aae9569d1172d19c4f1a6fc81f2b4d469" target="_top" xlink:title=" ">
<polygon fill="white" stroke="black" points="699.5,-69 699.5,-88 823.5,-88 823.5,-69 699.5,-69"/>
<text text-anchor="middle" x="761.5" y="-76" font-family="Helvetica,sans-Serif" font-size="10.00">Netplay.TcpClientLoop</text>
</a>
</g>
</g>
<!-- Node23&#45;&gt;Node34 -->
<g id="edge28" class="edge">
<title>Node23&#45;&gt;Node34</title>
<path fill="none" stroke="midnightblue" d="M908.13,-50.02C877.41,-56.02 840.28,-63.29 811.2,-68.97"/>
<polygon fill="midnightblue" stroke="midnightblue" points="909.13,-53.38 918.28,-48.03 907.79,-46.51 909.13,-53.38"/>
</g>
<!-- Node25 -->
<g id="node25" class="node">
<title>Node25</title>
<g id="a_node25"><a xlink:href="../../d9/d43/classNetplay_aa38bbb2de38149c83989ecbeaa17eb9f.html#aa38bbb2de38149c83989ecbeaa17eb9f" target="_top" xlink:title=" ">
<polygon fill="white" stroke="black" points="486.5,-9 486.5,-28 623.5,-28 623.5,-9 486.5,-9"/>
<text text-anchor="middle" x="555" y="-16" font-family="Helvetica,sans-Serif" font-size="10.00">Netplay.StartSocialClient</text>
</a>
</g>
</g>
<!-- Node24&#45;&gt;Node25 -->
<g id="edge26" class="edge">
<title>Node24&#45;&gt;Node25</title>
<path fill="none" stroke="midnightblue" d="M682.93,-22.84C663.47,-22.18 642.75,-21.47 623.81,-20.82"/>
<polygon fill="midnightblue" stroke="midnightblue" points="682.86,-26.34 692.97,-23.19 683.1,-19.35 682.86,-26.34"/>
</g>
<!-- Node26 -->
<g id="node26" class="node">
<title>Node26</title>
<g id="a_node26"><a xlink:href="../../d9/d43/classNetplay_a1754af82e28f7da0551c22def5bb724d.html#a1754af82e28f7da0551c22def5bb724d" target="_top" xlink:title=" ">
<polygon fill="white" stroke="red" points="270,-0.5 270,-30.5 431,-30.5 431,-0.5 270,-0.5"/>
<text text-anchor="start" x="278" y="-18.5" font-family="Helvetica,sans-Serif" font-size="10.00">Netplay.OnConnectedToSocial</text>
<text text-anchor="middle" x="350.5" y="-7.5" font-family="Helvetica,sans-Serif" font-size="10.00">Server</text>
</a>
</g>
</g>
<!-- Node25&#45;&gt;Node26 -->
<g id="edge27" class="edge">
<title>Node25&#45;&gt;Node26</title>
<path fill="none" stroke="midnightblue" d="M476.18,-17.35C461.4,-17.13 445.91,-16.9 431.07,-16.68"/>
<polygon fill="midnightblue" stroke="midnightblue" points="476.24,-20.85 486.29,-17.5 476.34,-13.85 476.24,-20.85"/>
</g>
<!-- Node35 -->
<g id="node28" class="node">
<title>Node35</title>
<g id="a_node28"><a xlink:href="../../d9/d43/classNetplay_a3f443befeca543d0dcc4a1874bcdfbff.html#a3f443befeca543d0dcc4a1874bcdfbff" target="_top" xlink:title=" ">
<polygon fill="white" stroke="black" points="493,-79 493,-98 617,-98 617,-79 493,-79"/>
<text text-anchor="middle" x="555" y="-86" font-family="Helvetica,sans-Serif" font-size="10.00">Netplay.StartTcpClient</text>
</a>
</g>
</g>
<!-- Node34&#45;&gt;Node35 -->
<g id="edge29" class="edge">
<title>Node34&#45;&gt;Node35</title>
<path fill="none" stroke="midnightblue" d="M689.17,-81.99C665.67,-83.14 639.78,-84.4 617.12,-85.51"/>
<polygon fill="midnightblue" stroke="midnightblue" points="689.6,-85.47 699.42,-81.49 689.26,-78.48 689.6,-85.47"/>
</g>
<!-- Node36 -->
<g id="node29" class="node">
<title>Node36</title>
<g id="a_node29"><a xlink:href="../../db/d4a/classMain_af3afb54b5ca7b6966866351b80524994.html#af3afb54b5ca7b6966866351b80524994" target="_top" xlink:title=" ">
<polygon fill="white" stroke="red" points="266,-126 266,-145 435,-145 435,-126 266,-126"/>
<text text-anchor="middle" x="350.5" y="-133" font-family="Helvetica,sans-Serif" font-size="10.00">Main.OnSubmitServerPassword</text>
</a>
</g>
</g>
<!-- Node35&#45;&gt;Node36 -->
<g id="edge30" class="edge">
<title>Node35&#45;&gt;Node36</title>
<path fill="none" stroke="midnightblue" d="M504.01,-100.35C482.75,-105.37 457.67,-111.25 435,-116.5 421.53,-119.62 406.83,-122.98 393.56,-125.99"/>
<polygon fill="midnightblue" stroke="midnightblue" points="504.88,-103.74 513.81,-98.03 503.27,-96.93 504.88,-103.74"/>
</g>
<!-- Node39 -->
<g id="node30" class="node">
<title>Node39</title>
<g id="a_node30"><a xlink:href="../../db/d4a/classMain_a0612c217f46f58621a6b704c9e2c823c.html#a0612c217f46f58621a6b704c9e2c823c" target="_top" xlink:title=" ">
<polygon fill="white" stroke="red" points="298.5,-88 298.5,-107 402.5,-107 402.5,-88 298.5,-88"/>
<text text-anchor="middle" x="350.5" y="-95" font-family="Helvetica,sans-Serif" font-size="10.00">Main.SelectPlayer</text>
</a>
</g>
</g>
<!-- Node35&#45;&gt;Node39 -->
<g id="edge31" class="edge">
<title>Node35&#45;&gt;Node39</title>
<path fill="none" stroke="midnightblue" d="M482.97,-91.66C456.45,-92.84 426.88,-94.15 402.51,-95.23"/>
<polygon fill="midnightblue" stroke="midnightblue" points="483.13,-95.15 492.97,-91.21 482.82,-88.16 483.13,-95.15"/>
</g>
<!-- Node42 -->
<g id="node31" class="node">
<title>Node42</title>
<g id="a_node31"><a xlink:href="../../db/d4a/classMain_ab208579586ed425ef1f10cf76653ffe9.html#ab208579586ed425ef1f10cf76653ffe9" target="_top" xlink:title=" ">
<polygon fill="white" stroke="red" points="277.5,-50 277.5,-69 423.5,-69 423.5,-50 277.5,-50"/>
<text text-anchor="middle" x="350.5" y="-57" font-family="Helvetica,sans-Serif" font-size="10.00">Main.StartClientGameplay</text>
</a>
</g>
</g>
<!-- Node35&#45;&gt;Node42 -->
<g id="edge32" class="edge">
<title>Node35&#45;&gt;Node42</title>
<path fill="none" stroke="midnightblue" d="M482.81,-78.3C461.76,-75.29 438.8,-72 418.06,-69.03"/>
<polygon fill="midnightblue" stroke="midnightblue" points="482.57,-81.81 492.97,-79.76 483.57,-74.88 482.57,-81.81"/>
</g>
<!-- Node45 -->
<g id="node33" class="node">
<title>Node45</title>
<g id="a_node33"><a xlink:href="../../d9/d43/classNetplay_a4c50e501e00e21da10238312a0d9239f.html#a4c50e501e00e21da10238312a0d9239f" target="_top" xlink:title=" ">
<polygon fill="white" stroke="black" points="682.5,-122 682.5,-141 840.5,-141 840.5,-122 682.5,-122"/>
<text text-anchor="middle" x="761.5" y="-129" font-family="Helvetica,sans-Serif" font-size="10.00">Netplay.UpdateInMainThread</text>
</a>
</g>
</g>
<!-- Node44&#45;&gt;Node45 -->
<g id="edge34" class="edge">
<title>Node44&#45;&gt;Node45</title>
<path fill="none" stroke="midnightblue" d="M881.27,-131.5C867.86,-131.5 854.07,-131.5 840.84,-131.5"/>
<polygon fill="midnightblue" stroke="midnightblue" points="881.43,-135 891.43,-131.5 881.43,-128 881.43,-135"/>
</g>
<!-- Node46 -->
<g id="node34" class="node">
<title>Node46</title>
<g id="a_node34"><a xlink:href="../../db/d4a/classMain_a04b0697fe556a643c9811ab59495dacd.html#a04b0697fe556a643c9811ab59495dacd" target="_top" xlink:title=" ">
<polygon fill="white" stroke="black" points="509,-194 509,-213 601,-213 601,-194 509,-194"/>
<text text-anchor="middle" x="555" y="-201" font-family="Helvetica,sans-Serif" font-size="10.00">Main.DoUpdate</text>
</a>
</g>
</g>
<!-- Node45&#45;&gt;Node46 -->
<g id="edge35" class="edge">
<title>Node45&#45;&gt;Node46</title>
<path fill="none" stroke="midnightblue" d="M723.87,-144.4C683.48,-158.62 619.46,-181.16 583.27,-193.9"/>
<polygon fill="midnightblue" stroke="midnightblue" points="725.07,-147.68 733.34,-141.06 722.75,-141.08 725.07,-147.68"/>
</g>
<!-- Node47 -->
<g id="node35" class="node">
<title>Node47</title>
<g id="a_node35"><a xlink:href="../../db/d4a/classMain_ae1995a6cd30001bd0b4eb2ade469d462.html#ae1995a6cd30001bd0b4eb2ade469d462" target="_top" xlink:title=" ">
<polygon fill="white" stroke="black" points="311,-194 311,-213 390,-213 390,-194 311,-194"/>
<text text-anchor="middle" x="350.5" y="-201" font-family="Helvetica,sans-Serif" font-size="10.00">Main.Update</text>
</a>
</g>
</g>
<!-- Node46&#45;&gt;Node47 -->
<g id="edge36" class="edge">
<title>Node46&#45;&gt;Node47</title>
<path fill="none" stroke="midnightblue" d="M498.44,-203.5C464.04,-203.5 420.74,-203.5 390.08,-203.5"/>
<polygon fill="midnightblue" stroke="midnightblue" points="498.81,-207 508.81,-203.5 498.81,-200 498.81,-207"/>
</g>
<!-- Node48 -->
<g id="node36" class="node">
<title>Node48</title>
<g id="a_node36"><a xlink:href="../../db/d4a/classMain_aa0692b82ef0f39d28df7aae89daa2480.html#aa0692b82ef0f39d28df7aae89daa2480" target="_top" xlink:title=" ">
<polygon fill="white" stroke="black" points="145,-194 145,-213 230,-213 230,-194 145,-194"/>
<text text-anchor="middle" x="187.5" y="-201" font-family="Helvetica,sans-Serif" font-size="10.00">Main.DedServ</text>
</a>
</g>
</g>
<!-- Node47&#45;&gt;Node48 -->
<g id="edge37" class="edge">
<title>Node47&#45;&gt;Node48</title>
<path fill="none" stroke="midnightblue" d="M300.88,-203.5C278.31,-203.5 251.76,-203.5 230.13,-203.5"/>
<polygon fill="midnightblue" stroke="midnightblue" points="300.94,-207 310.94,-203.5 300.94,-200 300.94,-207"/>
</g>
<!-- Node49 -->
<g id="node37" class="node">
<title>Node49</title>
<g id="a_node37"><a xlink:href="../../dc/db5/classProgram_a7046fff16d913c8ea7291c3efa4cb4ed.html#a7046fff16d913c8ea7291c3efa4cb4ed" target="_top" xlink:title=" ">
<polygon fill="white" stroke="red" points="0,-194 0,-213 109,-213 109,-194 0,-194"/>
<text text-anchor="middle" x="54.5" y="-201" font-family="Helvetica,sans-Serif" font-size="10.00">Program.RunGame</text>
</a>
</g>
</g>
<!-- Node48&#45;&gt;Node49 -->
<g id="edge38" class="edge">
<title>Node48&#45;&gt;Node49</title>
<path fill="none" stroke="midnightblue" d="M134.44,-203.5C126.2,-203.5 117.65,-203.5 109.37,-203.5"/>
<polygon fill="midnightblue" stroke="midnightblue" points="134.69,-207 144.69,-203.5 134.69,-200 134.69,-207"/>
</g>
<!-- Node52&#45;&gt;Node45 -->
<g id="edge40" class="edge">
<title>Node52&#45;&gt;Node45</title>
<path fill="none" stroke="midnightblue" d="M894.35,-99.91C863.36,-107.33 828.4,-115.71 802.26,-121.97"/>
<polygon fill="midnightblue" stroke="midnightblue" points="895.34,-103.27 904.25,-97.53 893.71,-96.46 895.34,-103.27"/>
</g>
<!-- Node54 -->
<g id="node40" class="node">
<title>Node54</title>
<g id="a_node40"><a xlink:href="../../d6/d1b/classCreativeUI_ade5083c377076a0228ab58dc575d472f.html#ade5083c377076a0228ab58dc575d472f" target="_top" xlink:title=" ">
<polygon fill="white" stroke="black" points="1516.5,-275 1516.5,-294 1677.5,-294 1677.5,-275 1516.5,-275"/>
<text text-anchor="middle" x="1597" y="-282" font-family="Helvetica,sans-Serif" font-size="10.00">CreativeUI.DrawToggleButton</text>
</a>
</g>
</g>
<!-- Node53&#45;&gt;Node54 -->
<g id="edge42" class="edge">
<title>Node53&#45;&gt;Node54</title>
<path fill="none" stroke="midnightblue" d="M1706.89,-297.59C1697.08,-296.41 1686.99,-295.2 1677.1,-294.01"/>
<polygon fill="midnightblue" stroke="midnightblue" points="1706.65,-301.09 1717,-298.81 1707.48,-294.14 1706.65,-301.09"/>
</g>
<!-- Node57 -->
<g id="node43" class="node">
<title>Node57</title>
<g id="a_node43"><a xlink:href="../../da/dfc/classUICreativeInfiniteItemsDisplay_a24d0cc35aadac1acde85d9e6ece68b7a.html#a24d0cc35aadac1acde85d9e6ece68b7a" target="_top" xlink:title=" ">
<polygon fill="white" stroke="black" points="1513,-376.5 1513,-406.5 1681,-406.5 1681,-376.5 1513,-376.5"/>
<text text-anchor="start" x="1521" y="-394.5" font-family="Helvetica,sans-Serif" font-size="10.00">UICreativeInfiniteItemsDisplay.</text>
<text text-anchor="middle" x="1597" y="-383.5" font-family="Helvetica,sans-Serif" font-size="10.00">EscapeVirtualKeyboard</text>
</a>
</g>
</g>
<!-- Node53&#45;&gt;Node57 -->
<g id="edge46" class="edge">
<title>Node53&#45;&gt;Node57</title>
<path fill="none" stroke="midnightblue" d="M1751.56,-320.43C1731.66,-329.82 1704.78,-342.47 1681,-353.5 1664.61,-361.1 1646.36,-369.47 1631.15,-376.41"/>
<polygon fill="midnightblue" stroke="midnightblue" points="1753.18,-323.54 1760.73,-316.1 1750.19,-317.21 1753.18,-323.54"/>
</g>
<!-- Node61 -->
<g id="node47" class="node">
<title>Node61</title>
<g id="a_node47"><a xlink:href="../../da/dfc/classUICreativeInfiniteItemsDisplay_ae2fdba4adb1acb7e99724afd4558601d.html#ae2fdba4adb1acb7e99724afd4558601d" target="_top" xlink:title=" ">
<polygon fill="white" stroke="black" points="1513,-313.5 1513,-343.5 1681,-343.5 1681,-313.5 1513,-313.5"/>
<text text-anchor="start" x="1521" y="-331.5" font-family="Helvetica,sans-Serif" font-size="10.00">UICreativeInfiniteItemsDisplay.</text>
<text text-anchor="middle" x="1597" y="-320.5" font-family="Helvetica,sans-Serif" font-size="10.00">GoBackHere</text>
</a>
</g>
</g>
<!-- Node53&#45;&gt;Node61 -->
<g id="edge51" class="edge">
<title>Node53&#45;&gt;Node61</title>
<path fill="none" stroke="midnightblue" d="M1706.84,-315.41C1698.42,-316.43 1689.8,-317.46 1681.27,-318.49"/>
<polygon fill="midnightblue" stroke="midnightblue" points="1707.48,-318.86 1717,-314.19 1706.65,-311.91 1707.48,-318.86"/>
</g>
<!-- Node63 -->
<g id="node49" class="node">
<title>Node63</title>
<g id="a_node49"><a xlink:href="../../d2/d4b/classPlayer_aeb89524d2ad69fab7fe32534e09e581c.html#aeb89524d2ad69fab7fe32534e09e581c" target="_top" xlink:title=" ">
<polygon fill="white" stroke="black" points="1522.5,-237 1522.5,-256 1671.5,-256 1671.5,-237 1522.5,-237"/>
<text text-anchor="middle" x="1597" y="-244" font-family="Helvetica,sans-Serif" font-size="10.00">Player.ToggleCreativeMenu</text>
</a>
</g>
</g>
<!-- Node53&#45;&gt;Node63 -->
<g id="edge55" class="edge">
<title>Node53&#45;&gt;Node63</title>
<path fill="none" stroke="midnightblue" d="M1750.98,-292.68C1731.36,-284.03 1705.02,-273.12 1681,-265.5 1669.73,-261.93 1657.39,-258.73 1645.77,-256.02"/>
<polygon fill="midnightblue" stroke="midnightblue" points="1749.74,-295.96 1760.3,-296.84 1752.6,-289.57 1749.74,-295.96"/>
</g>
<!-- Node55 -->
<g id="node41" class="node">
<title>Node55</title>
<g id="a_node41"><a xlink:href="../../d6/d1b/classCreativeUI_a1bbd08d59bae38b035896c2834168961.html#a1bbd08d59bae38b035896c2834168961" target="_top" xlink:title=" ">
<polygon fill="white" stroke="black" points="1344.5,-275 1344.5,-294 1441.5,-294 1441.5,-275 1344.5,-275"/>
<text text-anchor="middle" x="1393" y="-282" font-family="Helvetica,sans-Serif" font-size="10.00">CreativeUI.Draw</text>
</a>
</g>
</g>
<!-- Node54&#45;&gt;Node55 -->
<g id="edge43" class="edge">
<title>Node54&#45;&gt;Node55</title>
<path fill="none" stroke="midnightblue" d="M1506.3,-284.5C1484.04,-284.5 1461.05,-284.5 1441.7,-284.5"/>
<polygon fill="midnightblue" stroke="midnightblue" points="1506.45,-288 1516.45,-284.5 1506.45,-281 1506.45,-288"/>
</g>
<!-- Node56 -->
<g id="node42" class="node">
<title>Node56</title>
<g id="a_node42"><a xlink:href="../../db/d4a/classMain_ac23e03f1a3a425224bfed8bc8eae8397.html#ac23e03f1a3a425224bfed8bc8eae8397" target="_top" xlink:title=" ">
<polygon fill="white" stroke="black" points="1122.5,-278 1122.5,-297 1238.5,-297 1238.5,-278 1122.5,-278"/>
<text text-anchor="middle" x="1180.5" y="-285" font-family="Helvetica,sans-Serif" font-size="10.00">Main.DrawInventory</text>
</a>
</g>
</g>
<!-- Node55&#45;&gt;Node56 -->
<g id="edge44" class="edge">
<title>Node55&#45;&gt;Node56</title>
<path fill="none" stroke="midnightblue" d="M1334.25,-285.32C1304.46,-285.75 1268.25,-286.26 1238.56,-286.69"/>
<polygon fill="midnightblue" stroke="midnightblue" points="1334.55,-288.82 1344.5,-285.18 1334.45,-281.82 1334.55,-288.82"/>
</g>
<!-- Node56&#45;&gt;Node11 -->
<g id="edge45" class="edge">
<title>Node56&#45;&gt;Node11</title>
<path fill="none" stroke="midnightblue" d="M1112.09,-288.46C1083.92,-288.86 1051.58,-289.32 1024.78,-289.71"/>
<polygon fill="midnightblue" stroke="midnightblue" points="1112.31,-291.96 1122.26,-288.32 1112.21,-284.96 1112.31,-291.96"/>
</g>
<!-- Node58 -->
<g id="node44" class="node">
<title>Node58</title>
<g id="a_node44"><a xlink:href="../../da/dfc/classUICreativeInfiniteItemsDisplay_acd62e0c18a26b2f0c45520236250ce7a.html#acd62e0c18a26b2f0c45520236250ce7a" target="_top" xlink:title=" ">
<polygon fill="white" stroke="black" points="1088,-356.5 1088,-386.5 1273,-386.5 1273,-356.5 1088,-356.5"/>
<text text-anchor="start" x="1096" y="-374.5" font-family="Helvetica,sans-Serif" font-size="10.00">UICreativeInfiniteItemsDisplay.</text>
<text text-anchor="middle" x="1180.5" y="-363.5" font-family="Helvetica,sans-Serif" font-size="10.00">OpenVirtualKeyboardWhenNeeded</text>
</a>
</g>
</g>
<!-- Node57&#45;&gt;Node58 -->
<g id="edge47" class="edge">
<title>Node57&#45;&gt;Node58</title>
<path fill="none" stroke="midnightblue" d="M1502.68,-395.16C1446.48,-396.46 1373.54,-396.53 1309,-391.5 1294.82,-390.39 1279.82,-388.61 1265.3,-386.54"/>
<polygon fill="midnightblue" stroke="midnightblue" points="1503.07,-398.65 1512.98,-394.91 1502.89,-391.65 1503.07,-398.65"/>
</g>
<!-- Node59 -->
<g id="node45" class="node">
<title>Node59</title>
<g id="a_node45"><a xlink:href="../../da/dfc/classUICreativeInfiniteItemsDisplay_a6f3db9d4381fddbfeb7a6f6963a53478.html#a6f3db9d4381fddbfeb7a6f6963a53478" target="_top" xlink:title=" ">
<polygon fill="white" stroke="black" points="884,-365.5 884,-395.5 1052,-395.5 1052,-365.5 884,-365.5"/>
<text text-anchor="start" x="892" y="-383.5" font-family="Helvetica,sans-Serif" font-size="10.00">UICreativeInfiniteItemsDisplay.</text>
<text text-anchor="middle" x="968" y="-372.5" font-family="Helvetica,sans-Serif" font-size="10.00">AddSearchBar</text>
</a>
</g>
</g>
<!-- Node58&#45;&gt;Node59 -->
<g id="edge48" class="edge">
<title>Node58&#45;&gt;Node59</title>
<path fill="none" stroke="midnightblue" d="M1077.74,-375.85C1069.16,-376.22 1060.55,-376.59 1052.14,-376.95"/>
<polygon fill="midnightblue" stroke="midnightblue" points="1077.94,-379.35 1087.78,-375.42 1077.64,-372.35 1077.94,-379.35"/>
</g>
<!-- Node60 -->
<g id="node46" class="node">
<title>Node60</title>
<g id="a_node46"><a xlink:href="../../da/dfc/classUICreativeInfiniteItemsDisplay_a6931d1b1eeca159a461d9bf20fbf63f1.html#a6931d1b1eeca159a461d9bf20fbf63f1" target="_top" xlink:title=" ">
<polygon fill="white" stroke="black" points="677.5,-370.5 677.5,-400.5 845.5,-400.5 845.5,-370.5 677.5,-370.5"/>
<text text-anchor="start" x="685.5" y="-388.5" font-family="Helvetica,sans-Serif" font-size="10.00">UICreativeInfiniteItemsDisplay.</text>
<text text-anchor="middle" x="761.5" y="-377.5" font-family="Helvetica,sans-Serif" font-size="10.00">BuildInfinitesMenuContents</text>
</a>
</g>
</g>
<!-- Node59&#45;&gt;Node60 -->
<g id="edge49" class="edge">
<title>Node59&#45;&gt;Node60</title>
<path fill="none" stroke="midnightblue" d="M873.71,-382.78C864.33,-383.01 854.86,-383.24 845.6,-383.47"/>
<polygon fill="midnightblue" stroke="midnightblue" points="873.91,-386.28 883.82,-382.53 873.74,-379.28 873.91,-386.28"/>
</g>
<!-- Node60&#45;&gt;Node5 -->
<g id="edge50" class="edge">
<title>Node60&#45;&gt;Node5</title>
<path fill="none" stroke="midnightblue" d="M667.21,-399.64C657.83,-401.06 648.36,-402.5 639.1,-403.9"/>
<polygon fill="midnightblue" stroke="midnightblue" points="667.96,-403.07 677.32,-398.11 666.91,-396.15 667.96,-403.07"/>
</g>
<!-- Node61&#45;&gt;Node58 -->
<g id="edge54" class="edge">
<title>Node61&#45;&gt;Node58</title>
<path fill="none" stroke="midnightblue" d="M1502.45,-328.94C1446.16,-330.23 1373.21,-333.7 1309,-342.5 1285.5,-345.72 1259.94,-351.14 1237.92,-356.44"/>
<polygon fill="midnightblue" stroke="midnightblue" points="1502.83,-332.43 1512.76,-328.72 1502.68,-325.43 1502.83,-332.43"/>
</g>
<!-- Node62 -->
<g id="node48" class="node">
<title>Node62</title>
<g id="a_node48"><a xlink:href="../../da/dfc/classUICreativeInfiniteItemsDisplay_a622c7cc6c54d1efbbe7c278ef4e9440c.html#a622c7cc6c54d1efbbe7c278ef4e9440c" target="_top" xlink:title=" ">
<polygon fill="white" stroke="black" points="1309,-351.5 1309,-381.5 1477,-381.5 1477,-351.5 1309,-351.5"/>
<text text-anchor="start" x="1317" y="-369.5" font-family="Helvetica,sans-Serif" font-size="10.00">UICreativeInfiniteItemsDisplay.</text>
<text text-anchor="middle" x="1393" y="-358.5" font-family="Helvetica,sans-Serif" font-size="10.00">OnFinishedSettingName</text>
</a>
</g>
</g>
<!-- Node61&#45;&gt;Node62 -->
<g id="edge52" class="edge">
<title>Node61&#45;&gt;Node62</title>
<path fill="none" stroke="midnightblue" d="M1506.32,-345.37C1495.52,-347.4 1484.56,-349.46 1473.92,-351.47"/>
<polygon fill="midnightblue" stroke="midnightblue" points="1506.98,-348.81 1516.16,-343.52 1505.69,-341.93 1506.98,-348.81"/>
</g>
<!-- Node62&#45;&gt;Node58 -->
<g id="edge53" class="edge">
<title>Node62&#45;&gt;Node58</title>
<path fill="none" stroke="midnightblue" d="M1298.56,-368.72C1290.11,-368.92 1281.55,-369.12 1273.11,-369.32"/>
<polygon fill="midnightblue" stroke="midnightblue" points="1298.89,-372.21 1308.8,-368.48 1298.72,-365.21 1298.89,-372.21"/>
</g>
<!-- Node64 -->
<g id="node50" class="node">
<title>Node64</title>
<g id="a_node50"><a xlink:href="../../db/d4a/classMain_a7f48edf00ea0678d9c657ead6d9697a7.html#a7f48edf00ea0678d9c657ead6d9697a7" target="_top" xlink:title=" ">
<polygon fill="white" stroke="black" points="1313,-237 1313,-256 1473,-256 1473,-237 1313,-237"/>
<text text-anchor="middle" x="1393" y="-244" font-family="Helvetica,sans-Serif" font-size="10.00">Main.DoUpdate_WhilePaused</text>
</a>
</g>
</g>
<!-- Node63&#45;&gt;Node64 -->
<g id="edge56" class="edge">
<title>Node63&#45;&gt;Node64</title>
<path fill="none" stroke="midnightblue" d="M1511.97,-246.5C1499.08,-246.5 1485.81,-246.5 1473.03,-246.5"/>
<polygon fill="midnightblue" stroke="midnightblue" points="1512.22,-250 1522.22,-246.5 1512.22,-243 1512.22,-250"/>
</g>
<!-- Node64&#45;&gt;Node46 -->
<g id="edge57" class="edge">
<title>Node64&#45;&gt;Node46</title>
<path fill="none" stroke="midnightblue" d="M1302.89,-241.92C1125.5,-232.79 733.86,-212.65 601.06,-205.82"/>
<polygon fill="midnightblue" stroke="midnightblue" points="1302.81,-245.42 1312.97,-242.44 1303.17,-238.43 1302.81,-245.42"/>
</g>
</g>
</svg>
