<?xml version="1.0" encoding="UTF-8" standalone="no"?>
<!DOCTYPE svg PUBLIC "-//W3C//DTD SVG 1.1//EN"
 "http://www.w3.org/Graphics/SVG/1.1/DTD/svg11.dtd">
<!-- Generated by graphviz version 2.43.0 (0)
 -->
<!-- Title: UICreativePowersMenu.TimeCategoryButtonClick Pages: 1 -->
<svg width="827pt" height="39pt"
 viewBox="0.00 0.00 827.00 39.00" xmlns="http://www.w3.org/2000/svg" xmlns:xlink="http://www.w3.org/1999/xlink">
<g id="graph0" class="graph" transform="scale(1 1) rotate(0) translate(4 35)">
<title>UICreativePowersMenu.TimeCategoryButtonClick</title>
<polygon fill="white" stroke="transparent" points="-4,4 -4,-35 823,-35 823,4 -4,4"/>
<!-- Node1 -->
<g id="node1" class="node">
<title>Node1</title>
<g id="a_node1"><a xlink:title=" ">
<polygon fill="#bfbfbf" stroke="black" points="661,-0.5 661,-30.5 819,-30.5 819,-0.5 661,-0.5"/>
<text text-anchor="start" x="669" y="-18.5" font-family="Helvetica,sans-Serif" font-size="10.00">UICreativePowersMenu.Time</text>
<text text-anchor="middle" x="740" y="-7.5" font-family="Helvetica,sans-Serif" font-size="10.00">CategoryButtonClick</text>
</a>
</g>
</g>
<!-- Node2 -->
<g id="node2" class="node">
<title>Node2</title>
<g id="a_node2"><a xlink:href="../../d7/d97/classUICreativePowersMenu_af21fdc00a9eec5a1b52da47561a37ed1.html#af21fdc00a9eec5a1b52da47561a37ed1" target="_top" xlink:title=" ">
<polygon fill="white" stroke="black" points="459,-0.5 459,-30.5 625,-30.5 625,-0.5 459,-0.5"/>
<text text-anchor="start" x="467" y="-18.5" font-family="Helvetica,sans-Serif" font-size="10.00">UICreativePowersMenu.Create</text>
<text text-anchor="middle" x="542" y="-7.5" font-family="Helvetica,sans-Serif" font-size="10.00">TimePowerStrip</text>
</a>
</g>
</g>
<!-- Node1&#45;&gt;Node2 -->
<g id="edge1" class="edge">
<title>Node1&#45;&gt;Node2</title>
<path fill="none" stroke="midnightblue" d="M650.71,-15.5C642.24,-15.5 633.67,-15.5 625.26,-15.5"/>
<polygon fill="midnightblue" stroke="midnightblue" points="650.97,-19 660.97,-15.5 650.97,-12 650.97,-19"/>
</g>
<!-- Node3 -->
<g id="node3" class="node">
<title>Node3</title>
<g id="a_node3"><a xlink:href="../../d7/d97/classUICreativePowersMenu_aa4f6dcab6a6c1171660fcbcfbc958c93.html#aa4f6dcab6a6c1171660fcbcfbc958c93" target="_top" xlink:title=" ">
<polygon fill="white" stroke="black" points="224,-6 224,-25 423,-25 423,-6 224,-6"/>
<text text-anchor="middle" x="323.5" y="-13" font-family="Helvetica,sans-Serif" font-size="10.00">UICreativePowersMenu.InitializePage</text>
</a>
</g>
</g>
<!-- Node2&#45;&gt;Node3 -->
<g id="edge2" class="edge">
<title>Node2&#45;&gt;Node3</title>
<path fill="none" stroke="midnightblue" d="M448.69,-15.5C440.3,-15.5 431.78,-15.5 423.33,-15.5"/>
<polygon fill="midnightblue" stroke="midnightblue" points="448.84,-19 458.84,-15.5 448.84,-12 448.84,-19"/>
</g>
<!-- Node4 -->
<g id="node4" class="node">
<title>Node4</title>
<g id="a_node4"><a xlink:href="../../d7/d97/classUICreativePowersMenu_a20cce538df395462dd1e9bf04c9dfc7e.html#a20cce538df395462dd1e9bf04c9dfc7e" target="_top" xlink:title=" ">
<polygon fill="white" stroke="black" points="0,-6 0,-25 188,-25 188,-6 0,-6"/>
<text text-anchor="middle" x="94" y="-13" font-family="Helvetica,sans-Serif" font-size="10.00">UICreativePowersMenu.OnActivate</text>
</a>
</g>
</g>
<!-- Node3&#45;&gt;Node4 -->
<g id="edge3" class="edge">
<title>Node3&#45;&gt;Node4</title>
<path fill="none" stroke="midnightblue" d="M213.48,-15.5C205.06,-15.5 196.61,-15.5 188.32,-15.5"/>
<polygon fill="midnightblue" stroke="midnightblue" points="213.71,-19 223.71,-15.5 213.71,-12 213.71,-19"/>
</g>
</g>
</svg>
