<?xml version="1.0" encoding="UTF-8" standalone="no"?>
<!DOCTYPE svg PUBLIC "-//W3C//DTD SVG 1.1//EN"
 "http://www.w3.org/Graphics/SVG/1.1/DTD/svg11.dtd">
<!-- Generated by graphviz version 2.43.0 (0)
 -->
<!-- Title: FnaIme Pages: 1 -->
<svg width="576pt" height="761pt"
 viewBox="0.00 0.00 576.00 761.00" xmlns="http://www.w3.org/2000/svg" xmlns:xlink="http://www.w3.org/1999/xlink">
<g id="graph0" class="graph" transform="scale(1 1) rotate(0) translate(4 757)">
<title>FnaIme</title>
<polygon fill="white" stroke="transparent" points="-4,4 -4,-757 572,-757 572,4 -4,4"/>
<!-- Node1 -->
<g id="node1" class="node">
<title>Node1</title>
<g id="a_node1"><a xlink:title=" ">
<polygon fill="#bfbfbf" stroke="black" points="308.5,-0.5 308.5,-189.5 493.5,-189.5 493.5,-0.5 308.5,-0.5"/>
<text text-anchor="middle" x="401" y="-177.5" font-family="Helvetica,sans-Serif" font-size="10.00">FnaIme</text>
<polyline fill="none" stroke="black" points="308.5,-170.5 493.5,-170.5 "/>
<text text-anchor="start" x="316.5" y="-158.5" font-family="Helvetica,sans-Serif" font-size="10.00">+ override uint CandidateCount</text>
<text text-anchor="start" x="316.5" y="-147.5" font-family="Helvetica,sans-Serif" font-size="10.00">+ override string Composition</text>
<text text-anchor="start" x="316.5" y="-136.5" font-family="Helvetica,sans-Serif" font-size="10.00">String</text>
<text text-anchor="start" x="316.5" y="-125.5" font-family="Helvetica,sans-Serif" font-size="10.00">+ override bool IsCandidate</text>
<text text-anchor="start" x="316.5" y="-114.5" font-family="Helvetica,sans-Serif" font-size="10.00">ListVisible</text>
<text text-anchor="start" x="316.5" y="-103.5" font-family="Helvetica,sans-Serif" font-size="10.00">+ override uint SelectedCandidate</text>
<polyline fill="none" stroke="black" points="308.5,-96.5 493.5,-96.5 "/>
<text text-anchor="start" x="316.5" y="-84.5" font-family="Helvetica,sans-Serif" font-size="10.00">+ FnaIme()</text>
<text text-anchor="start" x="316.5" y="-73.5" font-family="Helvetica,sans-Serif" font-size="10.00">+ override string GetCandidate</text>
<text text-anchor="start" x="316.5" y="-62.5" font-family="Helvetica,sans-Serif" font-size="10.00">(uint index)</text>
<text text-anchor="start" x="316.5" y="-51.5" font-family="Helvetica,sans-Serif" font-size="10.00"># override void Dispose</text>
<text text-anchor="start" x="316.5" y="-40.5" font-family="Helvetica,sans-Serif" font-size="10.00">(bool disposing)</text>
<text text-anchor="start" x="316.5" y="-29.5" font-family="Helvetica,sans-Serif" font-size="10.00">&#45; void OnCharCallback</text>
<text text-anchor="start" x="316.5" y="-18.5" font-family="Helvetica,sans-Serif" font-size="10.00">(char key)</text>
<text text-anchor="start" x="316.5" y="-7.5" font-family="Helvetica,sans-Serif" font-size="10.00">&#45; ~FnaIme()</text>
</a>
</g>
</g>
<!-- Node2 -->
<g id="node2" class="node">
<title>Node2</title>
<g id="a_node2"><a xlink:href="../../d2/d49/classPlatformIme.html" target="_top" xlink:title=" ">
<polygon fill="white" stroke="black" points="197,-227.5 197,-526.5 381,-526.5 381,-227.5 197,-227.5"/>
<text text-anchor="middle" x="289" y="-514.5" font-family="Helvetica,sans-Serif" font-size="10.00">PlatformIme</text>
<polyline fill="none" stroke="black" points="197,-507.5 381,-507.5 "/>
<text text-anchor="start" x="205" y="-495.5" font-family="Helvetica,sans-Serif" font-size="10.00">+ abstract string Composition</text>
<text text-anchor="start" x="205" y="-484.5" font-family="Helvetica,sans-Serif" font-size="10.00">String</text>
<text text-anchor="start" x="205" y="-473.5" font-family="Helvetica,sans-Serif" font-size="10.00">+ abstract bool IsCandidate</text>
<text text-anchor="start" x="205" y="-462.5" font-family="Helvetica,sans-Serif" font-size="10.00">ListVisible</text>
<text text-anchor="start" x="205" y="-451.5" font-family="Helvetica,sans-Serif" font-size="10.00">+ abstract uint SelectedCandidate</text>
<text text-anchor="start" x="205" y="-440.5" font-family="Helvetica,sans-Serif" font-size="10.00">+ abstract uint CandidateCount</text>
<text text-anchor="start" x="205" y="-429.5" font-family="Helvetica,sans-Serif" font-size="10.00">+ bool IsEnabled</text>
<polyline fill="none" stroke="black" points="197,-422.5 381,-422.5 "/>
<text text-anchor="start" x="205" y="-410.5" font-family="Helvetica,sans-Serif" font-size="10.00">+ void AddKeyListener</text>
<text text-anchor="start" x="205" y="-399.5" font-family="Helvetica,sans-Serif" font-size="10.00">(Action&lt; char &gt; listener)</text>
<text text-anchor="start" x="205" y="-388.5" font-family="Helvetica,sans-Serif" font-size="10.00">+ void RemoveKeyListener</text>
<text text-anchor="start" x="205" y="-377.5" font-family="Helvetica,sans-Serif" font-size="10.00">(Action&lt; char &gt; listener)</text>
<text text-anchor="start" x="205" y="-366.5" font-family="Helvetica,sans-Serif" font-size="10.00">+ abstract string GetCandidate</text>
<text text-anchor="start" x="205" y="-355.5" font-family="Helvetica,sans-Serif" font-size="10.00">(uint index)</text>
<text text-anchor="start" x="205" y="-344.5" font-family="Helvetica,sans-Serif" font-size="10.00">+ void Enable()</text>
<text text-anchor="start" x="205" y="-333.5" font-family="Helvetica,sans-Serif" font-size="10.00">+ void Disable()</text>
<text text-anchor="start" x="205" y="-322.5" font-family="Helvetica,sans-Serif" font-size="10.00">+ void Dispose()</text>
<text text-anchor="start" x="205" y="-311.5" font-family="Helvetica,sans-Serif" font-size="10.00"># PlatformIme()</text>
<text text-anchor="start" x="205" y="-300.5" font-family="Helvetica,sans-Serif" font-size="10.00"># void OnKeyPress(char</text>
<text text-anchor="start" x="205" y="-289.5" font-family="Helvetica,sans-Serif" font-size="10.00"> character)</text>
<text text-anchor="start" x="205" y="-278.5" font-family="Helvetica,sans-Serif" font-size="10.00"># virtual void OnEnable()</text>
<text text-anchor="start" x="205" y="-267.5" font-family="Helvetica,sans-Serif" font-size="10.00"># virtual void OnDisable()</text>
<text text-anchor="start" x="205" y="-256.5" font-family="Helvetica,sans-Serif" font-size="10.00"># virtual void Dispose</text>
<text text-anchor="start" x="205" y="-245.5" font-family="Helvetica,sans-Serif" font-size="10.00">(bool disposing)</text>
<text text-anchor="start" x="205" y="-234.5" font-family="Helvetica,sans-Serif" font-size="10.00">&#45; ~PlatformIme()</text>
</a>
</g>
</g>
<!-- Node2&#45;&gt;Node1 -->
<g id="edge1" class="edge">
<title>Node2&#45;&gt;Node1</title>
<path fill="none" stroke="midnightblue" d="M352.16,-218.09C356.03,-208.43 359.85,-198.88 363.55,-189.63"/>
<polygon fill="none" stroke="midnightblue" points="348.91,-216.81 348.44,-227.39 355.41,-219.41 348.91,-216.81"/>
</g>
<!-- Node3 -->
<g id="node3" class="node">
<title>Node3</title>
<g id="a_node3"><a xlink:href="../../df/d92/interfaceIImeService.html" target="_top" xlink:title=" ">
<polygon fill="white" stroke="black" points="0,-574.5 0,-752.5 160,-752.5 160,-574.5 0,-574.5"/>
<text text-anchor="middle" x="80" y="-740.5" font-family="Helvetica,sans-Serif" font-size="10.00">IImeService</text>
<polyline fill="none" stroke="black" points="0,-733.5 160,-733.5 "/>
<text text-anchor="start" x="8" y="-721.5" font-family="Helvetica,sans-Serif" font-size="10.00">+ string CompositionString</text>
<text text-anchor="start" x="8" y="-710.5" font-family="Helvetica,sans-Serif" font-size="10.00">+ bool IsCandidateListVisible</text>
<text text-anchor="start" x="8" y="-699.5" font-family="Helvetica,sans-Serif" font-size="10.00">+ uint SelectedCandidate</text>
<text text-anchor="start" x="8" y="-688.5" font-family="Helvetica,sans-Serif" font-size="10.00">+ uint CandidateCount</text>
<text text-anchor="start" x="8" y="-677.5" font-family="Helvetica,sans-Serif" font-size="10.00">+ bool IsEnabled</text>
<polyline fill="none" stroke="black" points="0,-670.5 160,-670.5 "/>
<text text-anchor="start" x="8" y="-658.5" font-family="Helvetica,sans-Serif" font-size="10.00">+ string GetCandidate</text>
<text text-anchor="start" x="8" y="-647.5" font-family="Helvetica,sans-Serif" font-size="10.00">(uint index)</text>
<text text-anchor="start" x="8" y="-636.5" font-family="Helvetica,sans-Serif" font-size="10.00">+ void Enable()</text>
<text text-anchor="start" x="8" y="-625.5" font-family="Helvetica,sans-Serif" font-size="10.00">+ void Disable()</text>
<text text-anchor="start" x="8" y="-614.5" font-family="Helvetica,sans-Serif" font-size="10.00">+ void AddKeyListener</text>
<text text-anchor="start" x="8" y="-603.5" font-family="Helvetica,sans-Serif" font-size="10.00">(Action&lt; char &gt; listener)</text>
<text text-anchor="start" x="8" y="-592.5" font-family="Helvetica,sans-Serif" font-size="10.00">+ void RemoveKeyListener</text>
<text text-anchor="start" x="8" y="-581.5" font-family="Helvetica,sans-Serif" font-size="10.00">(Action&lt; char &gt; listener)</text>
</a>
</g>
</g>
<!-- Node3&#45;&gt;Node2 -->
<g id="edge2" class="edge">
<title>Node3&#45;&gt;Node2</title>
<path fill="none" stroke="midnightblue" d="M150.77,-566.16C165.62,-545.95 181.49,-524.35 196.98,-503.26"/>
<polygon fill="none" stroke="midnightblue" points="147.8,-564.3 144.7,-574.43 153.44,-568.44 147.8,-564.3"/>
</g>
<!-- Node4 -->
<g id="node4" class="node">
<title>Node4</title>
<g id="a_node4"><a xlink:href="../../d0/d07/classIDisposable.html" target="_top" xlink:title=" ">
<polygon fill="white" stroke="black" points="178,-635 178,-692 252,-692 252,-635 178,-635"/>
<text text-anchor="middle" x="215" y="-680" font-family="Helvetica,sans-Serif" font-size="10.00">IDisposable</text>
<polyline fill="none" stroke="black" points="178,-673 252,-673 "/>
<text text-anchor="middle" x="215" y="-661" font-family="Helvetica,sans-Serif" font-size="10.00"> </text>
<polyline fill="none" stroke="black" points="178,-654 252,-654 "/>
<text text-anchor="middle" x="215" y="-642" font-family="Helvetica,sans-Serif" font-size="10.00"> </text>
</a>
</g>
</g>
<!-- Node4&#45;&gt;Node2 -->
<g id="edge3" class="edge">
<title>Node4&#45;&gt;Node2</title>
<path fill="none" stroke="midnightblue" d="M224.68,-625.27C231.38,-599.51 240.78,-563.37 250.33,-526.66"/>
<polygon fill="none" stroke="midnightblue" points="221.29,-624.4 222.16,-634.96 228.07,-626.17 221.29,-624.4"/>
</g>
<!-- Node5 -->
<g id="node5" class="node">
<title>Node5</title>
<g id="a_node5"><a xlink:title=" ">
<polygon fill="white" stroke="#bfbfbf" points="270,-629.5 270,-697.5 392,-697.5 392,-629.5 270,-629.5"/>
<text text-anchor="start" x="278" y="-685.5" font-family="Helvetica,sans-Serif" font-size="10.00">readonly List&lt; Action</text>
<text text-anchor="middle" x="331" y="-674.5" font-family="Helvetica,sans-Serif" font-size="10.00">&lt; char &gt; &gt;</text>
<polyline fill="none" stroke="#bfbfbf" points="270,-667.5 392,-667.5 "/>
<text text-anchor="middle" x="331" y="-655.5" font-family="Helvetica,sans-Serif" font-size="10.00"> </text>
<polyline fill="none" stroke="#bfbfbf" points="270,-648.5 392,-648.5 "/>
<text text-anchor="middle" x="331" y="-636.5" font-family="Helvetica,sans-Serif" font-size="10.00"> </text>
</a>
</g>
</g>
<!-- Node5&#45;&gt;Node2 -->
<g id="edge4" class="edge">
<title>Node5&#45;&gt;Node2</title>
<path fill="none" stroke="#404040" d="M314.66,-629.36C305.44,-608.79 294.81,-581.5 290,-556 288.93,-550.32 288.01,-544.52 287.22,-538.65"/>
<polygon fill="none" stroke="#404040" points="287.2,-538.43 282.52,-532.94 285.79,-526.51 290.47,-532 287.2,-538.43"/>
<text text-anchor="middle" x="341.5" y="-548" font-family="Helvetica,sans-Serif" font-size="10.00"> &#45;_keyPressCallbacks</text>
</g>
<!-- Node6 -->
<g id="node6" class="node">
<title>Node6</title>
<g id="a_node6"><a xlink:title=" ">
<polygon fill="white" stroke="#bfbfbf" points="452,-635 452,-692 490,-692 490,-635 452,-635"/>
<text text-anchor="middle" x="471" y="-680" font-family="Helvetica,sans-Serif" font-size="10.00">bool</text>
<polyline fill="none" stroke="#bfbfbf" points="452,-673 490,-673 "/>
<text text-anchor="middle" x="471" y="-661" font-family="Helvetica,sans-Serif" font-size="10.00"> </text>
<polyline fill="none" stroke="#bfbfbf" points="452,-654 490,-654 "/>
<text text-anchor="middle" x="471" y="-642" font-family="Helvetica,sans-Serif" font-size="10.00"> </text>
</a>
</g>
</g>
<!-- Node6&#45;&gt;Node1 -->
<g id="edge6" class="edge">
<title>Node6&#45;&gt;Node1</title>
<path fill="none" stroke="#404040" d="M478.85,-634.58C484.61,-610.83 490.95,-575.78 488,-545 476.6,-426.24 448.61,-292.22 427.43,-201.75"/>
<polygon fill="none" stroke="#404040" points="427.38,-201.52 422.11,-196.59 424.63,-189.84 429.9,-194.76 427.38,-201.52"/>
<text text-anchor="middle" x="526.5" y="-374.5" font-family="Helvetica,sans-Serif" font-size="10.00"> &#45;_disposedValue</text>
</g>
<!-- Node6&#45;&gt;Node2 -->
<g id="edge5" class="edge">
<title>Node6&#45;&gt;Node2</title>
<path fill="none" stroke="#404040" d="M453.38,-634.96C437.55,-610.22 412.95,-571.75 387.55,-532.06"/>
<polygon fill="none" stroke="#404040" points="387.55,-532.05 380.95,-529.15 381.08,-521.95 387.69,-524.84 387.55,-532.05"/>
<text text-anchor="middle" x="442.5" y="-548" font-family="Helvetica,sans-Serif" font-size="10.00"> &#45;_disposedValue</text>
</g>
</g>
</svg>
