<?xml version="1.0" encoding="UTF-8" standalone="no"?>
<!DOCTYPE svg PUBLIC "-//W3C//DTD SVG 1.1//EN"
 "http://www.w3.org/Graphics/SVG/1.1/DTD/svg11.dtd">
<!-- Generated by graphviz version 2.43.0 (0)
 -->
<!-- Title: NetClientSocialModule.SendAuthTicket Pages: 1 -->
<svg width="955pt" height="88pt"
 viewBox="0.00 0.00 955.00 88.00" xmlns="http://www.w3.org/2000/svg" xmlns:xlink="http://www.w3.org/1999/xlink">
<g id="graph0" class="graph" transform="scale(1 1) rotate(0) translate(4 84)">
<title>NetClientSocialModule.SendAuthTicket</title>
<polygon fill="white" stroke="transparent" points="-4,4 -4,-84 951,-84 951,4 -4,4"/>
<!-- Node1 -->
<g id="node1" class="node">
<title>Node1</title>
<g id="a_node1"><a xlink:title=" ">
<polygon fill="#bfbfbf" stroke="black" points="792,-24.5 792,-54.5 947,-54.5 947,-24.5 792,-24.5"/>
<text text-anchor="start" x="800" y="-42.5" font-family="Helvetica,sans-Serif" font-size="10.00">NetClientSocialModule.Send</text>
<text text-anchor="middle" x="869.5" y="-31.5" font-family="Helvetica,sans-Serif" font-size="10.00">AuthTicket</text>
</a>
</g>
</g>
<!-- Node2 -->
<g id="node2" class="node">
<title>Node2</title>
<g id="a_node2"><a xlink:href="../../d9/d43/classNetClientSocialModule_a4ca2ae421a4cae391b6da707be7dbb2e.html#a4ca2ae421a4cae391b6da707be7dbb2e" target="_top" xlink:title=" ">
<polygon fill="white" stroke="black" points="612,-24.5 612,-54.5 756,-54.5 756,-24.5 612,-24.5"/>
<text text-anchor="start" x="620" y="-42.5" font-family="Helvetica,sans-Serif" font-size="10.00">NetClientSocialModule.On</text>
<text text-anchor="middle" x="684" y="-31.5" font-family="Helvetica,sans-Serif" font-size="10.00">LobbyEntered</text>
</a>
</g>
</g>
<!-- Node1&#45;&gt;Node2 -->
<g id="edge1" class="edge">
<title>Node1&#45;&gt;Node2</title>
<path fill="none" stroke="midnightblue" d="M781.74,-39.5C773.17,-39.5 764.55,-39.5 756.18,-39.5"/>
<polygon fill="midnightblue" stroke="midnightblue" points="781.74,-43 791.74,-39.5 781.74,-36 781.74,-43"/>
</g>
<!-- Node3 -->
<g id="node3" class="node">
<title>Node3</title>
<g id="a_node3"><a xlink:href="../../d9/d43/classNetClientSocialModule_afe08bce0a7e9dca4d68d47dcaa1af23f.html#afe08bce0a7e9dca4d68d47dcaa1af23f" target="_top" xlink:title=" ">
<polygon fill="white" stroke="black" points="406,-47.5 406,-77.5 576,-77.5 576,-47.5 406,-47.5"/>
<text text-anchor="start" x="414" y="-65.5" font-family="Helvetica,sans-Serif" font-size="10.00">NetClientSocialModule.Connect</text>
<text text-anchor="middle" x="491" y="-54.5" font-family="Helvetica,sans-Serif" font-size="10.00">ToLobby</text>
</a>
</g>
</g>
<!-- Node2&#45;&gt;Node3 -->
<g id="edge2" class="edge">
<title>Node2&#45;&gt;Node3</title>
<path fill="none" stroke="midnightblue" d="M601.93,-49.26C593.38,-50.29 584.67,-51.34 576.08,-52.38"/>
<polygon fill="midnightblue" stroke="midnightblue" points="602.37,-52.73 611.88,-48.06 601.53,-45.79 602.37,-52.73"/>
</g>
<!-- Node6 -->
<g id="node6" class="node">
<title>Node6</title>
<g id="a_node6"><a xlink:href="../../d9/d43/classNetClientSocialModule_aac286e7443b8568464959e72cb4d36f1.html#aac286e7443b8568464959e72cb4d36f1" target="_top" xlink:title=" ">
<polygon fill="white" stroke="black" points="217.5,-0.5 217.5,-30.5 361.5,-30.5 361.5,-0.5 217.5,-0.5"/>
<text text-anchor="start" x="225.5" y="-18.5" font-family="Helvetica,sans-Serif" font-size="10.00">NetClientSocialModule.On</text>
<text text-anchor="middle" x="289.5" y="-7.5" font-family="Helvetica,sans-Serif" font-size="10.00">LobbyJoinRequest</text>
</a>
</g>
</g>
<!-- Node2&#45;&gt;Node6 -->
<g id="edge5" class="edge">
<title>Node2&#45;&gt;Node6</title>
<path fill="none" stroke="midnightblue" d="M601.71,-34.53C530.93,-30.2 429.35,-23.99 361.71,-19.85"/>
<polygon fill="midnightblue" stroke="midnightblue" points="601.73,-38.04 611.92,-35.15 602.15,-31.05 601.73,-38.04"/>
</g>
<!-- Node4 -->
<g id="node4" class="node">
<title>Node4</title>
<g id="a_node4"><a xlink:href="../../d9/d43/classNetClientSocialModule_ab90f8b6b25a6751303b442b9378a9389.html#ab90f8b6b25a6751303b442b9378a9389" target="_top" xlink:title=" ">
<polygon fill="white" stroke="black" points="209,-49.5 209,-79.5 370,-79.5 370,-49.5 209,-49.5"/>
<text text-anchor="start" x="217" y="-67.5" font-family="Helvetica,sans-Serif" font-size="10.00">NetClientSocialModule.Check</text>
<text text-anchor="middle" x="289.5" y="-56.5" font-family="Helvetica,sans-Serif" font-size="10.00">Parameters</text>
</a>
</g>
</g>
<!-- Node3&#45;&gt;Node4 -->
<g id="edge3" class="edge">
<title>Node3&#45;&gt;Node4</title>
<path fill="none" stroke="midnightblue" d="M395.94,-63.44C387.36,-63.53 378.73,-63.62 370.29,-63.7"/>
<polygon fill="midnightblue" stroke="midnightblue" points="396.01,-66.94 405.97,-63.34 395.94,-59.94 396.01,-66.94"/>
</g>
<!-- Node5 -->
<g id="node5" class="node">
<title>Node5</title>
<g id="a_node5"><a xlink:href="../../d9/d43/classNetClientSocialModule_a5c4e43d04a37c86f7bde34658eaac359.html#a5c4e43d04a37c86f7bde34658eaac359" target="_top" xlink:title=" ">
<polygon fill="white" stroke="black" points="0,-30 0,-49 173,-49 173,-30 0,-30"/>
<text text-anchor="middle" x="86.5" y="-37" font-family="Helvetica,sans-Serif" font-size="10.00">NetClientSocialModule.Initialize</text>
</a>
</g>
</g>
<!-- Node4&#45;&gt;Node5 -->
<g id="edge4" class="edge">
<title>Node4&#45;&gt;Node5</title>
<path fill="none" stroke="midnightblue" d="M198.71,-53.33C187.18,-51.9 175.47,-50.44 164.18,-49.04"/>
<polygon fill="midnightblue" stroke="midnightblue" points="198.42,-56.82 208.77,-54.58 199.28,-49.88 198.42,-56.82"/>
</g>
<!-- Node6&#45;&gt;Node5 -->
<g id="edge6" class="edge">
<title>Node6&#45;&gt;Node5</title>
<path fill="none" stroke="midnightblue" d="M207.32,-25.19C194.06,-26.78 180.33,-28.42 167.11,-29.99"/>
<polygon fill="midnightblue" stroke="midnightblue" points="207.84,-28.66 217.35,-24 207.01,-21.71 207.84,-28.66"/>
</g>
</g>
</svg>
