<?xml version="1.0" encoding="UTF-8" standalone="no"?>
<!DOCTYPE svg PUBLIC "-//W3C//DTD SVG 1.1//EN"
 "http://www.w3.org/Graphics/SVG/1.1/DTD/svg11.dtd">
<!-- Generated by graphviz version 2.43.0 (0)
 -->
<!-- Title: Terraria.GameContent.Biomes.HiveBiome Pages: 1 -->
<svg width="189pt" height="675pt"
 viewBox="0.00 0.00 189.00 675.00" xmlns="http://www.w3.org/2000/svg" xmlns:xlink="http://www.w3.org/1999/xlink">
<g id="graph0" class="graph" transform="scale(1 1) rotate(0) translate(4 671)">
<title>Terraria.GameContent.Biomes.HiveBiome</title>
<!-- Node1 -->
<g id="Node000001" class="node">
<title>Node1</title>
<g id="a_Node000001"><a xlink:title=" ">
<polygon fill="#999999" stroke="transparent" points="181,-323 0,-323 0,0 181,0 181,-323"/>
<text text-anchor="start" x="15.5" y="-310.5" font-family="Helvetica,sans-Serif" font-size="10.00">Terraria.GameContent.Biomes.</text>
<text text-anchor="start" x="63.5" y="-299.5" font-family="Helvetica,sans-Serif" font-size="10.00">HiveBiome</text>
<text text-anchor="start" x="89" y="-284.5" font-family="Helvetica,sans-Serif" font-size="10.00"> </text>
<text text-anchor="start" x="4.5" y="-269.5" font-family="Helvetica,sans-Serif" font-size="10.00">+</text>
<text text-anchor="start" x="17.5" y="-269.5" font-family="Helvetica,sans-Serif" font-size="10.00">override bool Place</text>
<text text-anchor="start" x="17.5" y="-258.5" font-family="Helvetica,sans-Serif" font-size="10.00">(Point origin, StructureMap</text>
<text text-anchor="start" x="17.5" y="-247.5" font-family="Helvetica,sans-Serif" font-size="10.00"> structures)</text>
<text text-anchor="start" x="4.5" y="-232.5" font-family="Helvetica,sans-Serif" font-size="10.00">+</text>
<text text-anchor="start" x="17.5" y="-232.5" font-family="Helvetica,sans-Serif" font-size="10.00">static void CreateStandFor</text>
<text text-anchor="start" x="17.5" y="-221.5" font-family="Helvetica,sans-Serif" font-size="10.00">Larva(Vector2D position)</text>
<text text-anchor="start" x="7" y="-206.5" font-family="Helvetica,sans-Serif" font-size="10.00">&#45;</text>
<text text-anchor="start" x="17.5" y="-206.5" font-family="Helvetica,sans-Serif" font-size="10.00">static void FrameOutAllHive</text>
<text text-anchor="start" x="17.5" y="-195.5" font-family="Helvetica,sans-Serif" font-size="10.00">Contents(Point origin, int</text>
<text text-anchor="start" x="17.5" y="-184.5" font-family="Helvetica,sans-Serif" font-size="10.00"> squareHalfWidth)</text>
<text text-anchor="start" x="7" y="-169.5" font-family="Helvetica,sans-Serif" font-size="10.00">&#45;</text>
<text text-anchor="start" x="17.5" y="-169.5" font-family="Helvetica,sans-Serif" font-size="10.00">static Vector2D CreateHive</text>
<text text-anchor="start" x="17.5" y="-158.5" font-family="Helvetica,sans-Serif" font-size="10.00">Tunnel(int i, int j, UnifiedRandom</text>
<text text-anchor="start" x="17.5" y="-147.5" font-family="Helvetica,sans-Serif" font-size="10.00"> random)</text>
<text text-anchor="start" x="7" y="-132.5" font-family="Helvetica,sans-Serif" font-size="10.00">&#45;</text>
<text text-anchor="start" x="17.5" y="-132.5" font-family="Helvetica,sans-Serif" font-size="10.00">static bool TooCloseToImportant</text>
<text text-anchor="start" x="17.5" y="-121.5" font-family="Helvetica,sans-Serif" font-size="10.00">Locations(Point origin)</text>
<text text-anchor="start" x="7" y="-106.5" font-family="Helvetica,sans-Serif" font-size="10.00">&#45;</text>
<text text-anchor="start" x="17.5" y="-106.5" font-family="Helvetica,sans-Serif" font-size="10.00">static void CreateDentFor</text>
<text text-anchor="start" x="17.5" y="-95.5" font-family="Helvetica,sans-Serif" font-size="10.00">HoneyFall(int x, int y,</text>
<text text-anchor="start" x="17.5" y="-84.5" font-family="Helvetica,sans-Serif" font-size="10.00"> int dir)</text>
<text text-anchor="start" x="7" y="-69.5" font-family="Helvetica,sans-Serif" font-size="10.00">&#45;</text>
<text text-anchor="start" x="17.5" y="-69.5" font-family="Helvetica,sans-Serif" font-size="10.00">static void CreateBlocked</text>
<text text-anchor="start" x="17.5" y="-58.5" font-family="Helvetica,sans-Serif" font-size="10.00">HoneyCube(int x, int y)</text>
<text text-anchor="start" x="7" y="-43.5" font-family="Helvetica,sans-Serif" font-size="10.00">&#45;</text>
<text text-anchor="start" x="17.5" y="-43.5" font-family="Helvetica,sans-Serif" font-size="10.00">static bool SpotActually</text>
<text text-anchor="start" x="17.5" y="-32.5" font-family="Helvetica,sans-Serif" font-size="10.00">NotInHive(int x, int y)</text>
<text text-anchor="start" x="7" y="-17.5" font-family="Helvetica,sans-Serif" font-size="10.00">&#45;</text>
<text text-anchor="start" x="17.5" y="-17.5" font-family="Helvetica,sans-Serif" font-size="10.00">static bool BadSpotForHoney</text>
<text text-anchor="start" x="17.5" y="-6.5" font-family="Helvetica,sans-Serif" font-size="10.00">Fall(int x, int y)</text>
<polygon fill="#666666" stroke="#666666" points="0.5,-294.5 0.5,-294.5 181.5,-294.5 181.5,-294.5 0.5,-294.5"/>
<polygon fill="#666666" stroke="#666666" points="0.5,-279.5 0.5,-279.5 181.5,-279.5 181.5,-279.5 0.5,-279.5"/>
<polygon fill="none" stroke="#666666" points="0,0 0,-323 181,-323 181,0 0,0"/>
</a>
</g>
</g>
<!-- Node2 -->
<g id="Node000002" class="node">
<title>Node2</title>
<g id="a_Node000002"><a xlink:href="../../da/d53/classTerraria_1_1WorldBuilding_1_1MicroBiome.html" target="_top" xlink:title=" ">
<polygon fill="white" stroke="transparent" points="125,-408 56,-408 56,-359 125,-359 125,-408"/>
<text text-anchor="start" x="61.5" y="-395.5" font-family="Helvetica,sans-Serif" font-size="10.00">MicroBiome</text>
<text text-anchor="start" x="89" y="-380.5" font-family="Helvetica,sans-Serif" font-size="10.00"> </text>
<text text-anchor="start" x="89" y="-365.5" font-family="Helvetica,sans-Serif" font-size="10.00"> </text>
<polygon fill="#666666" stroke="#666666" points="56.5,-390.5 56.5,-390.5 125.5,-390.5 125.5,-390.5 56.5,-390.5"/>
<polygon fill="#666666" stroke="#666666" points="56.5,-375.5 56.5,-375.5 125.5,-375.5 125.5,-375.5 56.5,-375.5"/>
<polygon fill="none" stroke="#666666" points="56,-359 56,-408 125,-408 125,-359 56,-359"/>
</a>
</g>
</g>
<!-- Node2&#45;&gt;Node1 -->
<g id="edge1_Node000001_Node000002" class="edge">
<title>Node2&#45;&gt;Node1</title>
<g id="a_edge1_Node000001_Node000002"><a xlink:title=" ">
<path fill="none" stroke="#63b8ff" d="M90.5,-348.74C90.5,-341.03 90.5,-332.33 90.5,-323.01"/>
<polygon fill="none" stroke="#63b8ff" points="87,-348.96 90.5,-358.96 94,-348.96 87,-348.96"/>
</a>
</g>
</g>
<!-- Node3 -->
<g id="Node000003" class="node">
<title>Node3</title>
<g id="a_Node000003"><a xlink:href="../../dd/dae/classTerraria_1_1WorldBuilding_1_1GenStructure.html" target="_top" xlink:title=" ">
<polygon fill="white" stroke="transparent" points="163,-504 18,-504 18,-444 163,-444 163,-504"/>
<text text-anchor="start" x="59" y="-492" font-family="Helvetica,sans-Serif" font-size="10.00">GenStructure</text>
<text text-anchor="start" x="89" y="-477" font-family="Helvetica,sans-Serif" font-size="10.00"> </text>
<text text-anchor="start" x="22.5" y="-462" font-family="Helvetica,sans-Serif" font-size="10.00">+</text>
<text text-anchor="start" x="35.5" y="-462" font-family="Helvetica,sans-Serif" font-size="10.00">bool Place(Point origin,</text>
<text text-anchor="start" x="35.5" y="-451" font-family="Helvetica,sans-Serif" font-size="10.00"> StructureMap structures)</text>
<polygon fill="#666666" stroke="#666666" points="18.5,-487 18.5,-487 163.5,-487 163.5,-487 18.5,-487"/>
<polygon fill="#666666" stroke="#666666" points="18.5,-472 18.5,-472 163.5,-472 163.5,-472 18.5,-472"/>
<polygon fill="none" stroke="#666666" points="18,-444 18,-504 163,-504 163,-444 18,-444"/>
</a>
</g>
</g>
<!-- Node3&#45;&gt;Node2 -->
<g id="edge2_Node000002_Node000003" class="edge">
<title>Node3&#45;&gt;Node2</title>
<g id="a_edge2_Node000002_Node000003"><a xlink:title=" ">
<path fill="none" stroke="#63b8ff" d="M90.5,-433.3C90.5,-424.75 90.5,-415.97 90.5,-408.26"/>
<polygon fill="none" stroke="#63b8ff" points="87,-433.53 90.5,-443.53 94,-433.53 87,-433.53"/>
</a>
</g>
</g>
<!-- Node4 -->
<g id="Node000004" class="node">
<title>Node4</title>
<g id="a_Node000004"><a xlink:href="../../d4/dd6/classTerraria_1_1WorldBuilding_1_1GenBase.html" target="_top" xlink:title=" ">
<polygon fill="white" stroke="transparent" points="173,-667 8,-667 8,-540 173,-540 173,-667"/>
<text text-anchor="start" x="69" y="-654.5" font-family="Helvetica,sans-Serif" font-size="10.00">GenBase</text>
<text text-anchor="start" x="12.5" y="-639.5" font-family="Helvetica,sans-Serif" font-size="10.00">+</text>
<text text-anchor="start" x="25.5" y="-639.5" font-family="Helvetica,sans-Serif" font-size="10.00">static UnifiedRandom</text>
<text text-anchor="start" x="25.5" y="-628.5" font-family="Helvetica,sans-Serif" font-size="10.00"> _random</text>
<text text-anchor="start" x="12.5" y="-613.5" font-family="Helvetica,sans-Serif" font-size="10.00">+</text>
<text text-anchor="start" x="25.5" y="-613.5" font-family="Helvetica,sans-Serif" font-size="10.00">static Tile[,] _tiles</text>
<text text-anchor="start" x="12.5" y="-598.5" font-family="Helvetica,sans-Serif" font-size="10.00">+</text>
<text text-anchor="start" x="25.5" y="-598.5" font-family="Helvetica,sans-Serif" font-size="10.00">static int _worldWidth</text>
<text text-anchor="start" x="12.5" y="-583.5" font-family="Helvetica,sans-Serif" font-size="10.00">+</text>
<text text-anchor="start" x="25.5" y="-583.5" font-family="Helvetica,sans-Serif" font-size="10.00">static int _worldHeight</text>
<text text-anchor="start" x="12.5" y="-568.5" font-family="Helvetica,sans-Serif" font-size="10.00">+</text>
<text text-anchor="start" x="25.5" y="-568.5" font-family="Helvetica,sans-Serif" font-size="10.00">delegate bool CustomPerUnit</text>
<text text-anchor="start" x="25.5" y="-557.5" font-family="Helvetica,sans-Serif" font-size="10.00">Action(int x, int y, params</text>
<text text-anchor="start" x="25.5" y="-546.5" font-family="Helvetica,sans-Serif" font-size="10.00"> object[] args)</text>
<polygon fill="#666666" stroke="#666666" points="8.5,-649.5 8.5,-649.5 173.5,-649.5 173.5,-649.5 8.5,-649.5"/>
<polygon fill="#666666" stroke="#666666" points="8.5,-578.5 8.5,-578.5 23.5,-578.5 23.5,-578.5 8.5,-578.5"/>
<polygon fill="#666666" stroke="#666666" points="23.5,-578.5 23.5,-578.5 173.5,-578.5 173.5,-578.5 23.5,-578.5"/>
<polygon fill="none" stroke="#666666" points="8,-540 8,-667 173,-667 173,-540 8,-540"/>
</a>
</g>
</g>
<!-- Node4&#45;&gt;Node3 -->
<g id="edge3_Node000003_Node000004" class="edge">
<title>Node4&#45;&gt;Node3</title>
<g id="a_edge3_Node000003_Node000004"><a xlink:title=" ">
<path fill="none" stroke="#63b8ff" d="M90.5,-529.67C90.5,-520.69 90.5,-511.96 90.5,-504.2"/>
<polygon fill="none" stroke="#63b8ff" points="87,-529.87 90.5,-539.87 94,-529.87 87,-529.87"/>
</a>
</g>
</g>
</g>
</svg>
