<?xml version="1.0" encoding="UTF-8" standalone="no"?>
<!DOCTYPE svg PUBLIC "-//W3C//DTD SVG 1.1//EN"
 "http://www.w3.org/Graphics/SVG/1.1/DTD/svg11.dtd">
<!-- Generated by graphviz version 2.43.0 (0)
 -->
<!-- Title: FilterProviderInfoElement Pages: 1 -->
<svg width="563pt" height="573pt"
 viewBox="0.00 0.00 562.50 573.00" xmlns="http://www.w3.org/2000/svg" xmlns:xlink="http://www.w3.org/1999/xlink">
<g id="graph0" class="graph" transform="scale(1 1) rotate(0) translate(4 569)">
<title>FilterProviderInfoElement</title>
<polygon fill="white" stroke="transparent" points="-4,4 -4,-569 558.5,-569 558.5,4 -4,4"/>
<!-- Node1 -->
<g id="node1" class="node">
<title>Node1</title>
<g id="a_node1"><a xlink:title=" ">
<polygon fill="#bfbfbf" stroke="black" points="185,-215.5 185,-459.5 366,-459.5 366,-215.5 185,-215.5"/>
<text text-anchor="middle" x="275.5" y="-447.5" font-family="Helvetica,sans-Serif" font-size="10.00">FilterProviderInfoElement</text>
<polyline fill="none" stroke="black" points="185,-440.5 366,-440.5 "/>
<text text-anchor="start" x="193" y="-428.5" font-family="Helvetica,sans-Serif" font-size="10.00">+ int DisplayTextPriority</text>
<text text-anchor="start" x="193" y="-417.5" font-family="Helvetica,sans-Serif" font-size="10.00">+ bool HideInPortraitInfo</text>
<text text-anchor="start" x="193" y="-406.5" font-family="Helvetica,sans-Serif" font-size="10.00">&#45; Point _filterIconFrame</text>
<text text-anchor="start" x="193" y="-395.5" font-family="Helvetica,sans-Serif" font-size="10.00">&#45; string _key</text>
<text text-anchor="start" x="193" y="-384.5" font-family="Helvetica,sans-Serif" font-size="10.00">&#45; const int framesPerRow</text>
<text text-anchor="start" x="193" y="-373.5" font-family="Helvetica,sans-Serif" font-size="10.00">&#45; const int framesPerColumn</text>
<polyline fill="none" stroke="black" points="185,-366.5 366,-366.5 "/>
<text text-anchor="start" x="193" y="-354.5" font-family="Helvetica,sans-Serif" font-size="10.00">+ FilterProviderInfoElement</text>
<text text-anchor="start" x="193" y="-343.5" font-family="Helvetica,sans-Serif" font-size="10.00">(string nameLanguageKey,</text>
<text text-anchor="start" x="193" y="-332.5" font-family="Helvetica,sans-Serif" font-size="10.00"> int filterIconFrame)</text>
<text text-anchor="start" x="193" y="-321.5" font-family="Helvetica,sans-Serif" font-size="10.00">+ UIElement GetFilterImage()</text>
<text text-anchor="start" x="193" y="-310.5" font-family="Helvetica,sans-Serif" font-size="10.00">+ string GetSearchString</text>
<text text-anchor="start" x="193" y="-299.5" font-family="Helvetica,sans-Serif" font-size="10.00">(ref BestiaryUICollectionInfo info)</text>
<text text-anchor="start" x="193" y="-288.5" font-family="Helvetica,sans-Serif" font-size="10.00">+ string GetDisplayNameKey()</text>
<text text-anchor="start" x="193" y="-277.5" font-family="Helvetica,sans-Serif" font-size="10.00">+ UIElement ProvideUIElement</text>
<text text-anchor="start" x="193" y="-266.5" font-family="Helvetica,sans-Serif" font-size="10.00">(BestiaryUICollectionInfo info)</text>
<text text-anchor="start" x="193" y="-255.5" font-family="Helvetica,sans-Serif" font-size="10.00">&#45; void AddOnHover(UIElement</text>
<text text-anchor="start" x="193" y="-244.5" font-family="Helvetica,sans-Serif" font-size="10.00"> button)</text>
<text text-anchor="start" x="193" y="-233.5" font-family="Helvetica,sans-Serif" font-size="10.00">&#45; void ShowButtonName</text>
<text text-anchor="start" x="193" y="-222.5" font-family="Helvetica,sans-Serif" font-size="10.00">(UIElement element)</text>
</a>
</g>
</g>
<!-- Node5 -->
<g id="node5" class="node">
<title>Node5</title>
<g id="a_node5"><a xlink:href="../../d3/d02/classSpawnConditionBestiaryInfoElement.html" target="_top" xlink:title=" ">
<polygon fill="white" stroke="black" points="72.5,-6 72.5,-173 260.5,-173 260.5,-6 72.5,-6"/>
<text text-anchor="start" x="80.5" y="-161" font-family="Helvetica,sans-Serif" font-size="10.00">SpawnConditionBestiaryInfo</text>
<text text-anchor="middle" x="166.5" y="-150" font-family="Helvetica,sans-Serif" font-size="10.00">Element</text>
<polyline fill="none" stroke="black" points="72.5,-143 260.5,-143 "/>
<text text-anchor="start" x="80.5" y="-131" font-family="Helvetica,sans-Serif" font-size="10.00">+ float OrderPriority</text>
<text text-anchor="start" x="80.5" y="-120" font-family="Helvetica,sans-Serif" font-size="10.00">&#45; string _backgroundImagePath</text>
<text text-anchor="start" x="80.5" y="-109" font-family="Helvetica,sans-Serif" font-size="10.00">&#45; Color? _backgroundColor</text>
<polyline fill="none" stroke="black" points="72.5,-102 260.5,-102 "/>
<text text-anchor="start" x="80.5" y="-90" font-family="Helvetica,sans-Serif" font-size="10.00">+ SpawnConditionBestiaryInfo</text>
<text text-anchor="start" x="80.5" y="-79" font-family="Helvetica,sans-Serif" font-size="10.00">Element(string nameLanguageKey,</text>
<text text-anchor="start" x="80.5" y="-68" font-family="Helvetica,sans-Serif" font-size="10.00"> int filterIconFrame, string</text>
<text text-anchor="start" x="80.5" y="-57" font-family="Helvetica,sans-Serif" font-size="10.00"> backgroundImagePath=null, Color</text>
<text text-anchor="start" x="80.5" y="-46" font-family="Helvetica,sans-Serif" font-size="10.00">? backgroundColor=null)</text>
<text text-anchor="start" x="80.5" y="-35" font-family="Helvetica,sans-Serif" font-size="10.00">+ Asset&lt; Texture2D &gt;</text>
<text text-anchor="start" x="80.5" y="-24" font-family="Helvetica,sans-Serif" font-size="10.00"> GetBackgroundImage()</text>
<text text-anchor="start" x="80.5" y="-13" font-family="Helvetica,sans-Serif" font-size="10.00">+ Color? GetBackgroundColor()</text>
</a>
</g>
</g>
<!-- Node1&#45;&gt;Node5 -->
<g id="edge4" class="edge">
<title>Node1&#45;&gt;Node5</title>
<path fill="none" stroke="midnightblue" d="M217.64,-205.91C212.69,-194.75 207.78,-183.67 203.08,-173.05"/>
<polygon fill="none" stroke="midnightblue" points="214.55,-207.58 221.8,-215.3 220.95,-204.74 214.55,-207.58"/>
</g>
<!-- Node6 -->
<g id="node6" class="node">
<title>Node6</title>
<g id="a_node6"><a xlink:href="../../df/d80/classSpawnConditionBestiaryOverlayInfoElement.html" target="_top" xlink:title=" ">
<polygon fill="white" stroke="black" points="279,-0.5 279,-178.5 492,-178.5 492,-0.5 279,-0.5"/>
<text text-anchor="start" x="287" y="-166.5" font-family="Helvetica,sans-Serif" font-size="10.00">SpawnConditionBestiaryOverlay</text>
<text text-anchor="middle" x="385.5" y="-155.5" font-family="Helvetica,sans-Serif" font-size="10.00">InfoElement</text>
<polyline fill="none" stroke="black" points="279,-148.5 492,-148.5 "/>
<text text-anchor="start" x="287" y="-136.5" font-family="Helvetica,sans-Serif" font-size="10.00">+ float DisplayPriority</text>
<text text-anchor="start" x="287" y="-125.5" font-family="Helvetica,sans-Serif" font-size="10.00">+ float OrderPriority</text>
<text text-anchor="start" x="287" y="-114.5" font-family="Helvetica,sans-Serif" font-size="10.00">&#45; string _overlayImagePath</text>
<text text-anchor="start" x="287" y="-103.5" font-family="Helvetica,sans-Serif" font-size="10.00">&#45; Color? _overlayColor</text>
<polyline fill="none" stroke="black" points="279,-96.5 492,-96.5 "/>
<text text-anchor="start" x="287" y="-84.5" font-family="Helvetica,sans-Serif" font-size="10.00">+ SpawnConditionBestiaryOverlay</text>
<text text-anchor="start" x="287" y="-73.5" font-family="Helvetica,sans-Serif" font-size="10.00">InfoElement(string nameLanguageKey,</text>
<text text-anchor="start" x="287" y="-62.5" font-family="Helvetica,sans-Serif" font-size="10.00"> int filterIconFrame, string overlayImage</text>
<text text-anchor="start" x="287" y="-51.5" font-family="Helvetica,sans-Serif" font-size="10.00">Path=null, Color? overlayColor=null)</text>
<text text-anchor="start" x="287" y="-40.5" font-family="Helvetica,sans-Serif" font-size="10.00">+ Asset&lt; Texture2D &gt;</text>
<text text-anchor="start" x="287" y="-29.5" font-family="Helvetica,sans-Serif" font-size="10.00"> GetBackgroundOverlayImage()</text>
<text text-anchor="start" x="287" y="-18.5" font-family="Helvetica,sans-Serif" font-size="10.00">+ Color? GetBackgroundOverlay</text>
<text text-anchor="start" x="287" y="-7.5" font-family="Helvetica,sans-Serif" font-size="10.00">Color()</text>
</a>
</g>
</g>
<!-- Node1&#45;&gt;Node6 -->
<g id="edge5" class="edge">
<title>Node1&#45;&gt;Node6</title>
<path fill="none" stroke="midnightblue" d="M333.84,-206.03C337.98,-196.76 342.1,-187.56 346.1,-178.62"/>
<polygon fill="none" stroke="midnightblue" points="330.58,-204.74 329.69,-215.3 336.97,-207.6 330.58,-204.74"/>
</g>
<!-- Node2 -->
<g id="node2" class="node">
<title>Node2</title>
<g id="a_node2"><a xlink:href="../../da/d19/interfaceIFilterInfoProvider.html" target="_top" xlink:title=" ">
<polygon fill="white" stroke="black" points="0,-496.5 0,-564.5 167,-564.5 167,-496.5 0,-496.5"/>
<text text-anchor="middle" x="83.5" y="-552.5" font-family="Helvetica,sans-Serif" font-size="10.00">IFilterInfoProvider</text>
<polyline fill="none" stroke="black" points="0,-545.5 167,-545.5 "/>
<text text-anchor="middle" x="83.5" y="-533.5" font-family="Helvetica,sans-Serif" font-size="10.00"> </text>
<polyline fill="none" stroke="black" points="0,-526.5 167,-526.5 "/>
<text text-anchor="start" x="8" y="-514.5" font-family="Helvetica,sans-Serif" font-size="10.00">+ UIElement GetFilterImage()</text>
<text text-anchor="start" x="8" y="-503.5" font-family="Helvetica,sans-Serif" font-size="10.00">+ string GetDisplayNameKey()</text>
</a>
</g>
</g>
<!-- Node2&#45;&gt;Node1 -->
<g id="edge1" class="edge">
<title>Node2&#45;&gt;Node1</title>
<path fill="none" stroke="midnightblue" d="M124.29,-488.92C142.01,-471.3 163.52,-449.89 184.7,-428.83"/>
<polygon fill="none" stroke="midnightblue" points="121.56,-486.7 116.94,-496.23 126.5,-491.66 121.56,-486.7"/>
</g>
<!-- Node3 -->
<g id="node3" class="node">
<title>Node3</title>
<g id="a_node3"><a xlink:href="../../d8/d37/interfaceIProvideSearchFilterString.html" target="_top" xlink:title=" ">
<polygon fill="white" stroke="black" points="185,-496.5 185,-564.5 366,-564.5 366,-496.5 185,-496.5"/>
<text text-anchor="middle" x="275.5" y="-552.5" font-family="Helvetica,sans-Serif" font-size="10.00">IProvideSearchFilterString</text>
<polyline fill="none" stroke="black" points="185,-545.5 366,-545.5 "/>
<text text-anchor="middle" x="275.5" y="-533.5" font-family="Helvetica,sans-Serif" font-size="10.00"> </text>
<polyline fill="none" stroke="black" points="185,-526.5 366,-526.5 "/>
<text text-anchor="start" x="193" y="-514.5" font-family="Helvetica,sans-Serif" font-size="10.00">+ string GetSearchString</text>
<text text-anchor="start" x="193" y="-503.5" font-family="Helvetica,sans-Serif" font-size="10.00">(ref BestiaryUICollectionInfo info)</text>
</a>
</g>
</g>
<!-- Node3&#45;&gt;Node1 -->
<g id="edge2" class="edge">
<title>Node3&#45;&gt;Node1</title>
<path fill="none" stroke="midnightblue" d="M275.5,-485.98C275.5,-477.84 275.5,-468.98 275.5,-459.77"/>
<polygon fill="none" stroke="midnightblue" points="272,-486.23 275.5,-496.23 279,-486.23 272,-486.23"/>
</g>
<!-- Node4 -->
<g id="node4" class="node">
<title>Node4</title>
<g id="a_node4"><a xlink:href="../../d0/d86/interfaceIBestiaryInfoElement.html" target="_top" xlink:title=" ">
<polygon fill="white" stroke="black" points="384.5,-496.5 384.5,-564.5 554.5,-564.5 554.5,-496.5 384.5,-496.5"/>
<text text-anchor="middle" x="469.5" y="-552.5" font-family="Helvetica,sans-Serif" font-size="10.00">IBestiaryInfoElement</text>
<polyline fill="none" stroke="black" points="384.5,-545.5 554.5,-545.5 "/>
<text text-anchor="middle" x="469.5" y="-533.5" font-family="Helvetica,sans-Serif" font-size="10.00"> </text>
<polyline fill="none" stroke="black" points="384.5,-526.5 554.5,-526.5 "/>
<text text-anchor="start" x="392.5" y="-514.5" font-family="Helvetica,sans-Serif" font-size="10.00">+ UIElement ProvideUIElement</text>
<text text-anchor="start" x="392.5" y="-503.5" font-family="Helvetica,sans-Serif" font-size="10.00">(BestiaryUICollectionInfo info)</text>
</a>
</g>
</g>
<!-- Node4&#45;&gt;Node1 -->
<g id="edge3" class="edge">
<title>Node4&#45;&gt;Node1</title>
<path fill="none" stroke="midnightblue" d="M428.2,-488.83C410.08,-471 388.04,-449.3 366.41,-428.01"/>
<polygon fill="none" stroke="midnightblue" points="426.13,-491.71 435.71,-496.23 431.04,-486.72 426.13,-491.71"/>
</g>
</g>
</svg>
