<?xml version="1.0" encoding="UTF-8" standalone="no"?>
<!DOCTYPE svg PUBLIC "-//W3C//DTD SVG 1.1//EN"
 "http://www.w3.org/Graphics/SVG/1.1/DTD/svg11.dtd">
<!-- Generated by graphviz version 2.43.0 (0)
 -->
<!-- Title: Terraria.Mount.Reset Pages: 1 -->
<svg width="505pt" height="198pt"
 viewBox="0.00 0.00 505.00 197.50" xmlns="http://www.w3.org/2000/svg" xmlns:xlink="http://www.w3.org/1999/xlink">
<g id="graph0" class="graph" transform="scale(1 1) rotate(0) translate(4 193.5)">
<title>Terraria.Mount.Reset</title>
<!-- Node1 -->
<g id="Node000001" class="node">
<title>Node1</title>
<g id="a_Node000001"><a xlink:title=" ">
<polygon fill="#999999" stroke="#666666" points="497,-133.5 379,-133.5 379,-114.5 497,-114.5 497,-133.5"/>
<text text-anchor="middle" x="438" y="-121.5" font-family="Helvetica,sans-Serif" font-size="10.00">Terraria.Mount.Reset</text>
</a>
</g>
</g>
<!-- Node2 -->
<g id="Node000002" class="node">
<title>Node2</title>
<g id="a_Node000002"><a xlink:href="../../d2/d0d/classTerraria_1_1Mount_aeb066db2404ac540ea61a9a194270b0c.html#aeb066db2404ac540ea61a9a194270b0c" target="_top" xlink:title=" ">
<polygon fill="white" stroke="#666666" points="335,-152.5 214,-152.5 214,-133.5 335,-133.5 335,-152.5"/>
<text text-anchor="middle" x="274.5" y="-140.5" font-family="Helvetica,sans-Serif" font-size="10.00">Terraria.Mount.Mount</text>
</a>
</g>
</g>
<!-- Node1&#45;&gt;Node2 -->
<g id="edge1_Node000001_Node000002" class="edge">
<title>Node1&#45;&gt;Node2</title>
<g id="a_edge1_Node000001_Node000002"><a xlink:title=" ">
<path fill="none" stroke="#63b8ff" d="M368.58,-132.05C357.44,-133.36 345.98,-134.71 335.08,-135.99"/>
<polygon fill="#63b8ff" stroke="#63b8ff" points="369.17,-135.5 378.69,-130.86 368.35,-128.55 369.17,-135.5"/>
</a>
</g>
</g>
<!-- Node3 -->
<g id="Node000003" class="node">
<title>Node3</title>
<g id="a_Node000003"><a xlink:href="../../d2/d0d/classTerraria_1_1Mount_a3f43c1977aa17d30e8cf6939b5c6a14f.html#a3f43c1977aa17d30e8cf6939b5c6a14f" target="_top" xlink:title=" ">
<polygon fill="white" stroke="#666666" points="343,-115.5 206,-115.5 206,-96.5 343,-96.5 343,-115.5"/>
<text text-anchor="middle" x="274.5" y="-103.5" font-family="Helvetica,sans-Serif" font-size="10.00">Terraria.Mount.Dismount</text>
</a>
</g>
</g>
<!-- Node1&#45;&gt;Node3 -->
<g id="edge2_Node000001_Node000003" class="edge">
<title>Node1&#45;&gt;Node3</title>
<g id="a_edge2_Node000001_Node000003"><a xlink:title=" ">
<path fill="none" stroke="#63b8ff" d="M368.52,-116.37C360.09,-115.43 351.47,-114.47 343.05,-113.53"/>
<polygon fill="#63b8ff" stroke="#63b8ff" points="368.37,-119.87 378.69,-117.5 369.14,-112.92 368.37,-119.87"/>
</a>
</g>
</g>
<!-- Node4 -->
<g id="Node000004" class="node">
<title>Node4</title>
<g id="a_Node000004"><a xlink:href="../../d2/d0d/classTerraria_1_1Mount_a0fa2e6614567e18e9b090aa493882156.html#a0fa2e6614567e18e9b090aa493882156" target="_top" xlink:title=" ">
<polygon fill="white" stroke="#666666" points="170,-189.5 0,-189.5 0,-170.5 170,-170.5 170,-189.5"/>
<text text-anchor="middle" x="85" y="-177.5" font-family="Helvetica,sans-Serif" font-size="10.00">Terraria.Mount.CheckMountBuff</text>
</a>
</g>
</g>
<!-- Node3&#45;&gt;Node4 -->
<g id="edge3_Node000003_Node000004" class="edge">
<title>Node3&#45;&gt;Node4</title>
<g id="a_edge3_Node000003_Node000004"><a xlink:title=" ">
<path fill="none" stroke="#63b8ff" d="M217.58,-119.18C213.56,-120.9 209.65,-122.83 206,-125 186.28,-136.73 190.08,-150.9 170,-162 163.87,-165.39 157.15,-168.15 150.28,-170.38"/>
<polygon fill="#63b8ff" stroke="#63b8ff" points="219.03,-122.37 227.14,-115.55 216.54,-115.83 219.03,-122.37"/>
</a>
</g>
</g>
<!-- Node5 -->
<g id="Node000005" class="node">
<title>Node5</title>
<g id="a_Node000005"><a xlink:href="../../d4/d03/classTerraria_1_1Player_a70ae3e0d9ccf9eab703180b364db7a68.html#a70ae3e0d9ccf9eab703180b364db7a68" target="_top" xlink:title=" ">
<polygon fill="white" stroke="#666666" points="162.5,-152.5 7.5,-152.5 7.5,-133.5 162.5,-133.5 162.5,-152.5"/>
<text text-anchor="middle" x="85" y="-140.5" font-family="Helvetica,sans-Serif" font-size="10.00">Terraria.Player.QuickGrapple</text>
</a>
</g>
</g>
<!-- Node3&#45;&gt;Node5 -->
<g id="edge4_Node000003_Node000005" class="edge">
<title>Node3&#45;&gt;Node5</title>
<g id="a_edge4_Node000003_Node000005"><a xlink:title=" ">
<path fill="none" stroke="#63b8ff" d="M215.14,-117.52C189.23,-122.63 159.09,-128.58 134.45,-133.44"/>
<polygon fill="#63b8ff" stroke="#63b8ff" points="216.08,-120.9 225.21,-115.53 214.73,-114.03 216.08,-120.9"/>
</a>
</g>
</g>
<!-- Node6 -->
<g id="Node000006" class="node">
<title>Node6</title>
<g id="a_Node000006"><a xlink:href="../../d4/d03/classTerraria_1_1Player_a8f2dd1098d6a8f74b9d574760344b5b0.html#a8f2dd1098d6a8f74b9d574760344b5b0" target="_top" xlink:title=" ">
<polygon fill="white" stroke="#666666" points="159,-115.5 11,-115.5 11,-96.5 159,-96.5 159,-115.5"/>
<text text-anchor="middle" x="85" y="-103.5" font-family="Helvetica,sans-Serif" font-size="10.00">Terraria.Player.QuickMount</text>
</a>
</g>
</g>
<!-- Node3&#45;&gt;Node6 -->
<g id="edge5_Node000003_Node000006" class="edge">
<title>Node3&#45;&gt;Node6</title>
<g id="a_edge5_Node000003_Node000006"><a xlink:title=" ">
<path fill="none" stroke="#63b8ff" d="M195.77,-106C183.7,-106 171.27,-106 159.3,-106"/>
<polygon fill="#63b8ff" stroke="#63b8ff" points="195.81,-109.5 205.81,-106 195.81,-102.5 195.81,-109.5"/>
</a>
</g>
</g>
<!-- Node7 -->
<g id="Node000007" class="node">
<title>Node7</title>
<g id="a_Node000007"><a xlink:href="../../d6/dc6/structTerraria_1_1GameContent_1_1PlayerSittingHelper_ad28e913c6a667e6d5253d9c0915729a5.html#ad28e913c6a667e6d5253d9c0915729a5" target="_top" xlink:title=" ">
<polygon fill="white" stroke="#666666" points="164,-78 6,-78 6,-48 164,-48 164,-78"/>
<text text-anchor="start" x="14" y="-66" font-family="Helvetica,sans-Serif" font-size="10.00">Terraria.GameContent.Player</text>
<text text-anchor="middle" x="85" y="-55" font-family="Helvetica,sans-Serif" font-size="10.00">SittingHelper.SitDown</text>
</a>
</g>
</g>
<!-- Node3&#45;&gt;Node7 -->
<g id="edge6_Node000003_Node000007" class="edge">
<title>Node3&#45;&gt;Node7</title>
<g id="a_edge6_Node000003_Node000007"><a xlink:title=" ">
<path fill="none" stroke="#63b8ff" d="M221.86,-94.16C200.09,-89.16 174.5,-83.3 151.43,-78.01"/>
<polygon fill="#63b8ff" stroke="#63b8ff" points="221.36,-97.63 231.89,-96.46 222.92,-90.81 221.36,-97.63"/>
</a>
</g>
</g>
<!-- Node8 -->
<g id="Node000008" class="node">
<title>Node8</title>
<g id="a_Node000008"><a xlink:href="../../d2/d74/structTerraria_1_1GameContent_1_1PlayerSleepingHelper_a31b12b16c8118e1a79cb36eb400780ea.html#a31b12b16c8118e1a79cb36eb400780ea" target="_top" xlink:title=" ">
<polygon fill="white" stroke="#666666" points="164,-30 6,-30 6,0 164,0 164,-30"/>
<text text-anchor="start" x="14" y="-18" font-family="Helvetica,sans-Serif" font-size="10.00">Terraria.GameContent.Player</text>
<text text-anchor="middle" x="85" y="-7" font-family="Helvetica,sans-Serif" font-size="10.00">SleepingHelper.StartSleeping</text>
</a>
</g>
</g>
<!-- Node3&#45;&gt;Node8 -->
<g id="edge7_Node000003_Node000008" class="edge">
<title>Node3&#45;&gt;Node8</title>
<g id="a_edge7_Node000003_Node000008"><a xlink:title=" ">
<path fill="none" stroke="#63b8ff" d="M253.35,-90.36C233.22,-75.38 200.9,-53.04 170,-39 162.68,-35.68 154.79,-32.7 146.88,-30.07"/>
<polygon fill="#63b8ff" stroke="#63b8ff" points="251.36,-93.24 261.45,-96.48 255.58,-87.66 251.36,-93.24"/>
</a>
</g>
</g>
</g>
</svg>
