<?xml version="1.0" encoding="UTF-8" standalone="no"?>
<!DOCTYPE svg PUBLIC "-//W3C//DTD SVG 1.1//EN"
 "http://www.w3.org/Graphics/SVG/1.1/DTD/svg11.dtd">
<!-- Generated by graphviz version 2.43.0 (0)
 -->
<!-- Title: Terraria.GameContent.HairstyleUnlocksHelper.UpdateUnlocks Pages: 1 -->
<svg width="406pt" height="86pt"
 viewBox="0.00 0.00 406.00 86.00" xmlns="http://www.w3.org/2000/svg" xmlns:xlink="http://www.w3.org/1999/xlink">
<g id="graph0" class="graph" transform="scale(1 1) rotate(0) translate(4 82)">
<title>Terraria.GameContent.HairstyleUnlocksHelper.UpdateUnlocks</title>
<!-- Node1 -->
<g id="Node000001" class="node">
<title>Node1</title>
<g id="a_Node000001"><a xlink:title=" ">
<polygon fill="#999999" stroke="#666666" points="171,-54 0,-54 0,-24 171,-24 171,-54"/>
<text text-anchor="start" x="8" y="-42" font-family="Helvetica,sans-Serif" font-size="10.00">Terraria.GameContent.Hairstyle</text>
<text text-anchor="middle" x="85.5" y="-31" font-family="Helvetica,sans-Serif" font-size="10.00">UnlocksHelper.UpdateUnlocks</text>
</a>
</g>
</g>
<!-- Node2 -->
<g id="Node000002" class="node">
<title>Node2</title>
<g id="a_Node000002"><a xlink:href="../../d5/dc3/classTerraria_1_1GameContent_1_1HairstyleUnlocksHelper_a3c5e6755eac14ed2ee8b59ba812fabbc.html#a3c5e6755eac14ed2ee8b59ba812fabbc" target="_top" xlink:title=" ">
<polygon fill="white" stroke="#666666" points="398,-78 207,-78 207,-48 398,-48 398,-78"/>
<text text-anchor="start" x="215" y="-66" font-family="Helvetica,sans-Serif" font-size="10.00">Terraria.GameContent.Hairstyle</text>
<text text-anchor="middle" x="302.5" y="-55" font-family="Helvetica,sans-Serif" font-size="10.00">UnlocksHelper.ListWarrantsRemake</text>
</a>
</g>
</g>
<!-- Node1&#45;&gt;Node2 -->
<g id="edge1_Node000001_Node000002" class="edge">
<title>Node1&#45;&gt;Node2</title>
<g id="a_edge1_Node000001_Node000002"><a xlink:title=" ">
<path fill="none" stroke="#63b8ff" d="M171.17,-48.45C179.61,-49.39 188.25,-50.36 196.87,-51.32"/>
<polygon fill="#63b8ff" stroke="#63b8ff" points="196.64,-54.82 206.97,-52.45 197.42,-47.86 196.64,-54.82"/>
</a>
</g>
</g>
<!-- Node3 -->
<g id="Node000003" class="node">
<title>Node3</title>
<g id="a_Node000003"><a xlink:href="../../d5/dc3/classTerraria_1_1GameContent_1_1HairstyleUnlocksHelper_a4b766afa38fe3e1e43b15cf7cee83def.html#a4b766afa38fe3e1e43b15cf7cee83def" target="_top" xlink:title=" ">
<polygon fill="white" stroke="#666666" points="388,-30 217,-30 217,0 388,0 388,-30"/>
<text text-anchor="start" x="225" y="-18" font-family="Helvetica,sans-Serif" font-size="10.00">Terraria.GameContent.Hairstyle</text>
<text text-anchor="middle" x="302.5" y="-7" font-family="Helvetica,sans-Serif" font-size="10.00">UnlocksHelper.RebuildList</text>
</a>
</g>
</g>
<!-- Node1&#45;&gt;Node3 -->
<g id="edge2_Node000001_Node000003" class="edge">
<title>Node1&#45;&gt;Node3</title>
<g id="a_edge2_Node000001_Node000003"><a xlink:title=" ">
<path fill="none" stroke="#63b8ff" d="M171.17,-29.55C182.92,-28.24 195.05,-26.88 206.97,-25.55"/>
<polygon fill="#63b8ff" stroke="#63b8ff" points="207.36,-29.03 216.91,-24.44 206.59,-22.07 207.36,-29.03"/>
</a>
</g>
</g>
</g>
</svg>
