<?xml version="1.0" encoding="UTF-8" standalone="no"?>
<!DOCTYPE svg PUBLIC "-//W3C//DTD SVG 1.1//EN"
 "http://www.w3.org/Graphics/SVG/1.1/DTD/svg11.dtd">
<!-- Generated by graphviz version 2.43.0 (0)
 -->
<!-- Title: Terraria.GameContent.Bestiary.SalamanderShellyDadUICollectionInfoProvider.GetLowestAvailableUnlockStateFromEntriesThatAreInWorld Pages: 1 -->
<svg width="499pt" height="73pt"
 viewBox="0.00 0.00 499.00 72.50" xmlns="http://www.w3.org/2000/svg" xmlns:xlink="http://www.w3.org/1999/xlink">
<g id="graph0" class="graph" transform="scale(1 1) rotate(0) translate(4 68.5)">
<title>Terraria.GameContent.Bestiary.SalamanderShellyDadUICollectionInfoProvider.GetLowestAvailableUnlockStateFromEntriesThatAreInWorld</title>
<!-- Node1 -->
<g id="Node000001" class="node">
<title>Node1</title>
<g id="a_Node000001"><a xlink:title=" ">
<polygon fill="#999999" stroke="#666666" points="240,-52 0,-52 0,0 240,0 240,-52"/>
<text text-anchor="start" x="8" y="-40" font-family="Helvetica,sans-Serif" font-size="10.00">Terraria.GameContent.Bestiary.</text>
<text text-anchor="start" x="8" y="-29" font-family="Helvetica,sans-Serif" font-size="10.00">SalamanderShellyDadUICollectionInfo</text>
<text text-anchor="start" x="8" y="-18" font-family="Helvetica,sans-Serif" font-size="10.00">Provider.GetLowestAvailableUnlockStateFrom</text>
<text text-anchor="middle" x="120" y="-7" font-family="Helvetica,sans-Serif" font-size="10.00">EntriesThatAreInWorld</text>
</a>
</g>
</g>
<!-- Node2 -->
<g id="Node000002" class="node">
<title>Node2</title>
<g id="a_Node000002"><a xlink:href="../../d4/dcf/classTerraria_1_1GameContent_1_1Bestiary_1_1CommonEnemyUICollectionInfoProvider_ae98cc1626518f39131768c62adf96202.html#ae98cc1626518f39131768c62adf96202" target="_top" xlink:title=" ">
<polygon fill="white" stroke="#666666" points="491,-46.5 276,-46.5 276,-5.5 491,-5.5 491,-46.5"/>
<text text-anchor="start" x="284" y="-34.5" font-family="Helvetica,sans-Serif" font-size="10.00">Terraria.GameContent.Bestiary.</text>
<text text-anchor="start" x="284" y="-23.5" font-family="Helvetica,sans-Serif" font-size="10.00">CommonEnemyUICollectionInfoProvider.</text>
<text text-anchor="middle" x="383.5" y="-12.5" font-family="Helvetica,sans-Serif" font-size="10.00">GetUnlockStateByKillCount</text>
</a>
</g>
</g>
<!-- Node1&#45;&gt;Node2 -->
<g id="edge1_Node000001_Node000002" class="edge">
<title>Node1&#45;&gt;Node2</title>
<g id="a_edge1_Node000001_Node000002"><a xlink:title=" ">
<path fill="none" stroke="#63b8ff" d="M240.27,-26C248.7,-26 257.19,-26 265.6,-26"/>
<polygon fill="#63b8ff" stroke="#63b8ff" points="265.82,-29.5 275.82,-26 265.82,-22.5 265.82,-29.5"/>
</a>
</g>
</g>
<!-- Node2&#45;&gt;Node2 -->
<g id="edge2_Node000002_Node000002" class="edge">
<title>Node2&#45;&gt;Node2</title>
<g id="a_edge2_Node000002_Node000002"><a xlink:title=" ">
<path fill="none" stroke="#63b8ff" d="M335.35,-46.6C330.09,-56.15 346.14,-64.5 383.5,-64.5 406.85,-64.5 421.87,-61.24 428.58,-56.46"/>
<polygon fill="#63b8ff" stroke="#63b8ff" points="432.02,-57.19 431.65,-46.6 425.33,-55.1 432.02,-57.19"/>
</a>
</g>
</g>
</g>
</svg>
