<?xml version="1.0" encoding="UTF-8" standalone="no"?>
<!DOCTYPE svg PUBLIC "-//W3C//DTD SVG 1.1//EN"
 "http://www.w3.org/Graphics/SVG/1.1/DTD/svg11.dtd">
<!-- Generated by graphviz version 2.43.0 (0)
 -->
<!-- Title: ScreenShaderData.UseOpacity Pages: 1 -->
<svg width="382pt" height="78pt"
 viewBox="0.00 0.00 382.00 77.50" xmlns="http://www.w3.org/2000/svg" xmlns:xlink="http://www.w3.org/1999/xlink">
<g id="graph0" class="graph" transform="scale(1 1) rotate(0) translate(4 73.5)">
<title>ScreenShaderData.UseOpacity</title>
<polygon fill="white" stroke="transparent" points="-4,4 -4,-73.5 378,-73.5 378,4 -4,4"/>
<!-- Node1 -->
<g id="node1" class="node">
<title>Node1</title>
<g id="a_node1"><a xlink:title=" ">
<polygon fill="#bfbfbf" stroke="black" points="208,-22.5 208,-41.5 374,-41.5 374,-22.5 208,-22.5"/>
<text text-anchor="middle" x="291" y="-29.5" font-family="Helvetica,sans-Serif" font-size="10.00">ScreenShaderData.UseOpacity</text>
</a>
</g>
</g>
<!-- Node2 -->
<g id="node2" class="node">
<title>Node2</title>
<g id="a_node2"><a xlink:href="../../d2/d66/classBloodMoonScreenShaderData_a1f7551e890f535dee86f14c6b919b464.html#a1f7551e890f535dee86f14c6b919b464" target="_top" xlink:title=" ">
<polygon fill="white" stroke="black" points="4,-39 4,-69 168,-69 168,-39 4,-39"/>
<text text-anchor="start" x="12" y="-57" font-family="Helvetica,sans-Serif" font-size="10.00">BloodMoonScreenShaderData.</text>
<text text-anchor="middle" x="86" y="-46" font-family="Helvetica,sans-Serif" font-size="10.00">Update</text>
</a>
</g>
</g>
<!-- Node1&#45;&gt;Node2 -->
<g id="edge1" class="edge">
<title>Node1&#45;&gt;Node2</title>
<path fill="none" stroke="midnightblue" d="M197.54,-42.02C187.71,-43.09 177.76,-44.16 168.07,-45.21"/>
<polygon fill="midnightblue" stroke="midnightblue" points="198.16,-45.47 207.72,-40.92 197.41,-38.51 198.16,-45.47"/>
</g>
<!-- Node3 -->
<g id="node3" class="node">
<title>Node3</title>
<g id="a_node3"><a xlink:href="../../d0/d77/classSepiaScreenShaderData_a0b68448c27a2290cc54966e20405532a.html#a0b68448c27a2290cc54966e20405532a" target="_top" xlink:title=" ">
<polygon fill="white" stroke="black" points="0,-0.5 0,-19.5 172,-19.5 172,-0.5 0,-0.5"/>
<text text-anchor="middle" x="86" y="-7.5" font-family="Helvetica,sans-Serif" font-size="10.00">SepiaScreenShaderData.Update</text>
</a>
</g>
</g>
<!-- Node1&#45;&gt;Node3 -->
<g id="edge2" class="edge">
<title>Node1&#45;&gt;Node3</title>
<path fill="none" stroke="midnightblue" d="M197.73,-22C189.17,-21.07 180.53,-20.14 172.04,-19.22"/>
<polygon fill="midnightblue" stroke="midnightblue" points="197.41,-25.49 207.72,-23.08 198.16,-18.53 197.41,-25.49"/>
</g>
</g>
</svg>
