<?xml version="1.0" encoding="UTF-8" standalone="no"?>
<!DOCTYPE svg PUBLIC "-//W3C//DTD SVG 1.1//EN"
 "http://www.w3.org/Graphics/SVG/1.1/DTD/svg11.dtd">
<!-- Generated by graphviz version 2.43.0 (0)
 -->
<!-- Title: Terraria.UI.NetDiagnosticsUI.DrawText Pages: 1 -->
<!--zoomable 65 -->

<svg id="main" version="1.1" xmlns="http://www.w3.org/2000/svg" xmlns:xlink="http://www.w3.org/1999/xlink" xml:space="preserve" onload="init(evt)">
<style type="text/css"><![CDATA[
.node, .edge {opacity: 0.7;}
.node.selected, .edge.selected {opacity: 1;}
.edge:hover path { stroke: red; }
.edge:hover polygon { stroke: red; fill: red; }
]]></style>

<defs>
  <circle id="rim" cx="0" cy="0" r="7"/>
  <circle id="rim2" cx="0" cy="0" r="3.5"/>
  <g id="zoomPlus">
    <use xlink:href="#rim" fill="#404040"><set attributeName="fill" to="#808080" begin="zoomplus.mouseover" end="zoomplus.mouseout"/></use>
    <path d="M-4,0h8M0,-4v8" fill="none" stroke="white" stroke-width="1.5" pointer-events="none"/>
  </g>
  <g id="zoomMin">
    <use xlink:href="#rim" fill="#404040"><set attributeName="fill" to="#808080" begin="zoomminus.mouseover" end="zoomminus.mouseout"/></use>
    <path d="M-4,0h8" fill="none" stroke="white" stroke-width="1.5" pointer-events="none"/>
  </g>
  <g id="arrowUp" transform="translate(30 24)">
    <use xlink:href="#rim"/>
    <path pointer-events="none" fill="none" stroke="white" stroke-width="1.5" d="M0,-3.0v7 M-2.5,-0.5L0,-3.0L2.5,-0.5"/>
  </g>
  <g id="arrowRight" transform="rotate(90) translate(36 -43)">
    <use xlink:href="#rim"/>
    <path pointer-events="none" fill="none" stroke="white" stroke-width="1.5" d="M0,-3.0v7 M-2.5,-0.5L0,-3.0L2.5,-0.5"/>
  </g>
  <g id="arrowDown" transform="rotate(180) translate(-30 -48)">
    <use xlink:href="#rim"/>
    <path pointer-events="none" fill="none" stroke="white" stroke-width="1.5" d="M0,-3.0v7 M-2.5,-0.5L0,-3.0L2.5,-0.5"/>
  </g>
  <g id="arrowLeft" transform="rotate(270) translate(-36 17)">
    <use xlink:href="#rim"/>
    <path pointer-events="none" fill="none" stroke="white" stroke-width="1.5" d="M0,-3.0v7 M-2.5,-0.5L0,-3.0L2.5,-0.5"/>
  </g>
  <g id="resetDef">
    <use xlink:href="#rim2" fill="#404040"><set attributeName="fill" to="#808080" begin="reset.mouseover" end="reset.mouseout"/></use>
  </g>
</defs>
<script type="application/ecmascript">
var viewWidth = 932;
var viewHeight = 65;
var sectionId = 'dynsection-0';
</script>
<script type="application/ecmascript" xlink:href="../../svg.min.js"/>
<svg id="graph" class="graph">
<g id="viewport">
<title>Terraria.UI.NetDiagnosticsUI.DrawText</title>
<!-- Node1 -->
<g id="Node000001" class="node">
<title>Node1</title>
<g id="a_Node000001"><a xlink:title=" ">
<polygon fill="#999999" stroke="#666666" points="144,-51 0,-51 0,-21 144,-21 144,-51"/>
<text text-anchor="start" x="8" y="-39" font-family="Helvetica,sans-Serif" font-size="10.00">Terraria.UI.NetDiagnostics</text>
<text text-anchor="middle" x="72" y="-28" font-family="Helvetica,sans-Serif" font-size="10.00">UI.DrawText</text>
</a>
</g>
</g>
<!-- Node2 -->
<g id="Node000002" class="node">
<title>Node2</title>
<g id="a_Node000002"><a xlink:href="../../d7/d82/classReLogic_1_1Graphics_1_1DynamicSpriteFontExtensionMethods_aee186b17df53a5edef1af24369a5ea89.html#aee186b17df53a5edef1af24369a5ea89" target="_top" xlink:title=" ">
<polygon fill="white" stroke="#666666" points="365,-56.5 180,-56.5 180,-15.5 365,-15.5 365,-56.5"/>
<text text-anchor="start" x="188" y="-44.5" font-family="Helvetica,sans-Serif" font-size="10.00">ReLogic.Graphics.Dynamic</text>
<text text-anchor="start" x="188" y="-33.5" font-family="Helvetica,sans-Serif" font-size="10.00">SpriteFontExtensionMethods.Draw</text>
<text text-anchor="middle" x="272.5" y="-22.5" font-family="Helvetica,sans-Serif" font-size="10.00">String</text>
</a>
</g>
</g>
<!-- Node1&#45;&gt;Node2 -->
<g id="edge1_Node000001_Node000002" class="edge">
<title>Node1&#45;&gt;Node2</title>
<g id="a_edge1_Node000001_Node000002"><a xlink:title=" ">
<path fill="none" stroke="#63b8ff" d="M144.1,-36C152.42,-36 161.02,-36 169.65,-36"/>
<polygon fill="#63b8ff" stroke="#63b8ff" points="169.78,-39.5 179.78,-36 169.78,-32.5 169.78,-39.5"/>
</a>
</g>
</g>
<!-- Node3 -->
<g id="Node000003" class="node">
<title>Node3</title>
<g id="a_Node000003"><a xlink:href="../../d1/df5/classReLogic_1_1Graphics_1_1DynamicSpriteFont_ad2d5e1527f560e24c2b95640f0263e42.html#ad2d5e1527f560e24c2b95640f0263e42" target="_top" xlink:title=" ">
<polygon fill="white" stroke="#666666" points="548,-51 401,-51 401,-21 548,-21 548,-51"/>
<text text-anchor="start" x="409" y="-39" font-family="Helvetica,sans-Serif" font-size="10.00">ReLogic.Graphics.Dynamic</text>
<text text-anchor="middle" x="474.5" y="-28" font-family="Helvetica,sans-Serif" font-size="10.00">SpriteFont.InternalDraw</text>
</a>
</g>
</g>
<!-- Node2&#45;&gt;Node3 -->
<g id="edge2_Node000002_Node000003" class="edge">
<title>Node2&#45;&gt;Node3</title>
<g id="a_edge2_Node000002_Node000003"><a xlink:title=" ">
<path fill="none" stroke="#63b8ff" d="M365.01,-36C373.57,-36 382.21,-36 390.68,-36"/>
<polygon fill="#63b8ff" stroke="#63b8ff" points="390.91,-39.5 400.91,-36 390.91,-32.5 390.91,-39.5"/>
</a>
</g>
</g>
<!-- Node4 -->
<g id="Node000004" class="node">
<title>Node4</title>
<g id="a_Node000004"><a xlink:href="../../d1/df5/classReLogic_1_1Graphics_1_1DynamicSpriteFont_a9bd1064ef52867d336c09d84817f9e34.html#a9bd1064ef52867d336c09d84817f9e34" target="_top" xlink:title=" ">
<polygon fill="white" stroke="#666666" points="924,-51 767,-51 767,-21 924,-21 924,-51"/>
<text text-anchor="start" x="775" y="-39" font-family="Helvetica,sans-Serif" font-size="10.00">ReLogic.Graphics.Dynamic</text>
<text text-anchor="middle" x="845.5" y="-28" font-family="Helvetica,sans-Serif" font-size="10.00">SpriteFont.GetCharacterData</text>
</a>
</g>
</g>
<!-- Node3&#45;&gt;Node4 -->
<g id="edge3_Node000003_Node000004" class="edge">
<title>Node3&#45;&gt;Node4</title>
<g id="a_edge3_Node000003_Node000004"><a xlink:title=" ">
<path fill="none" stroke="#63b8ff" d="M548.16,-38.29C560.13,-38.58 572.41,-38.84 584,-39 649.33,-39.9 665.67,-39.86 731,-39 739.36,-38.89 748.06,-38.73 756.77,-38.55"/>
<polygon fill="#63b8ff" stroke="#63b8ff" points="757.05,-42.04 766.97,-38.32 756.89,-35.05 757.05,-42.04"/>
</a>
</g>
</g>
<!-- Node5 -->
<g id="Node000005" class="node">
<title>Node5</title>
<g id="a_Node000005"><a xlink:href="../../d1/df5/classReLogic_1_1Graphics_1_1DynamicSpriteFont_a49e4a12c0f6e26ca73b5c3d95d0197b2.html#a49e4a12c0f6e26ca73b5c3d95d0197b2" target="_top" xlink:title=" ">
<polygon fill="white" stroke="#666666" points="731,-30 584,-30 584,0 731,0 731,-30"/>
<text text-anchor="start" x="592" y="-18" font-family="Helvetica,sans-Serif" font-size="10.00">ReLogic.Graphics.Dynamic</text>
<text text-anchor="middle" x="657.5" y="-7" font-family="Helvetica,sans-Serif" font-size="10.00">SpriteFont.MeasureString</text>
</a>
</g>
</g>
<!-- Node3&#45;&gt;Node5 -->
<g id="edge4_Node000003_Node000005" class="edge">
<title>Node3&#45;&gt;Node5</title>
<g id="a_edge4_Node000003_Node000005"><a xlink:title=" ">
<path fill="none" stroke="#63b8ff" d="M548.08,-27.58C556.56,-26.6 565.26,-25.59 573.87,-24.59"/>
<polygon fill="#63b8ff" stroke="#63b8ff" points="574.38,-28.05 583.91,-23.42 573.57,-21.1 574.38,-28.05"/>
</a>
</g>
</g>
<!-- Node5&#45;&gt;Node4 -->
<g id="edge5_Node000005_Node000004" class="edge">
<title>Node5&#45;&gt;Node4</title>
<g id="a_edge5_Node000005_Node000004"><a xlink:title=" ">
<path fill="none" stroke="#63b8ff" d="M731.21,-23.21C739.63,-24.16 748.29,-25.14 756.88,-26.11"/>
<polygon fill="#63b8ff" stroke="#63b8ff" points="756.6,-29.6 766.92,-27.24 757.38,-22.64 756.6,-29.6"/>
</a>
</g>
</g>
</g>
</svg>

<g id="navigator" transform="translate(0 0)" fill="#404254">
  <rect fill="#f2f5e9" fill-opacity="0.5" stroke="#606060" stroke-width=".5" x="0" y="0" width="60" height="60"/>
  <use id="zoomplus" xlink:href="#zoomPlus" x="17" y="9" onmousedown="handleZoom(evt,'in')"/>
  <use id="zoomminus" xlink:href="#zoomMin" x="42" y="9" onmousedown="handleZoom(evt,'out')"/>
  <use id="reset" xlink:href="#resetDef" x="30" y="36" onmousedown="handleReset()"/>
   <use id="arrowup" xlink:href="#arrowUp" x="0" y="0" onmousedown="handlePan(0,-1)"/>
  <use id="arrowright" xlink:href="#arrowRight" x="0" y="0" onmousedown="handlePan(1,0)"/>
  <use id="arrowdown" xlink:href="#arrowDown" x="0" y="0" onmousedown="handlePan(0,1)"/>
  <use id="arrowleft" xlink:href="#arrowLeft" x="0" y="0" onmousedown="handlePan(-1,0)"/>
</g>
<svg viewBox="0 0 15 15" width="100%" height="30px" preserveAspectRatio="xMaxYMin meet">
 <g id="arrow_out" transform="scale(0.3 0.3)">
  <a xlink:href="classTerraria_1_1UI_1_1NetDiagnosticsUI_ad8d7243ec5fe4bae6c122cfd977d78f9_ad8d7243ec5fe4bae6c122cfd977d78f9_cgraph_org.svg" target="_base">
   <rect id="button" ry="5" rx="5" y="6" x="6" height="38" width="38"
        fill="#f2f5e9" fill-opacity="0.5" stroke="#606060" stroke-width="1.0"/>
   <path id="arrow"
     d="M 11.500037,31.436501 C 11.940474,20.09759 22.043105,11.32322 32.158766,21.979434 L 37.068811,17.246167 C 37.068811,17.246167 37.088388,32 37.088388,32 L 22.160133,31.978069 C 22.160133,31.978069 26.997745,27.140456 26.997745,27.140456 C 18.528582,18.264221 13.291696,25.230495 11.500037,31.436501 z"
     style="fill:#404040;"/>
  </a>
 </g>
</svg>

<style type='text/css'>
<![CDATA[
[data-mouse-over-selected='false'] { opacity: 0.7; }
[data-mouse-over-selected='true']  { opacity: 1.0; }
]]>
</style>
<script type="application/ecmascript"><![CDATA[
document.addEventListener('DOMContentLoaded', (event) => {
  highlightEdges();
  highlightAdjacentNodes();
});
]]></script>
</svg>
