<?xml version="1.0" encoding="UTF-8" standalone="no"?>
<!DOCTYPE svg PUBLIC "-//W3C//DTD SVG 1.1//EN"
 "http://www.w3.org/Graphics/SVG/1.1/DTD/svg11.dtd">
<!-- Generated by graphviz version 2.43.0 (0)
 -->
<!-- Title: Player.RandomTeleportationAttemptSettings Pages: 1 -->
<svg width="312pt" height="226pt"
 viewBox="0.00 0.00 311.50 226.00" xmlns="http://www.w3.org/2000/svg" xmlns:xlink="http://www.w3.org/1999/xlink">
<g id="graph0" class="graph" transform="scale(1 1) rotate(0) translate(4 222)">
<title>Player.RandomTeleportationAttemptSettings</title>
<polygon fill="white" stroke="transparent" points="-4,4 -4,-222 307.5,-222 307.5,4 -4,4"/>
<!-- Node1 -->
<g id="node1" class="node">
<title>Node1</title>
<g id="a_node1"><a xlink:title=" ">
<polygon fill="#bfbfbf" stroke="black" points="37.5,-0.5 37.5,-68.5 191.5,-68.5 191.5,-0.5 37.5,-0.5"/>
<text text-anchor="start" x="45.5" y="-56.5" font-family="Helvetica,sans-Serif" font-size="10.00">Player.RandomTeleportation</text>
<text text-anchor="middle" x="114.5" y="-45.5" font-family="Helvetica,sans-Serif" font-size="10.00">AttemptSettings</text>
<polyline fill="none" stroke="black" points="37.5,-38.5 191.5,-38.5 "/>
<text text-anchor="middle" x="114.5" y="-26.5" font-family="Helvetica,sans-Serif" font-size="10.00"> </text>
<polyline fill="none" stroke="black" points="37.5,-19.5 191.5,-19.5 "/>
<text text-anchor="middle" x="114.5" y="-7.5" font-family="Helvetica,sans-Serif" font-size="10.00"> </text>
</a>
</g>
</g>
<!-- Node2 -->
<g id="node2" class="node">
<title>Node2</title>
<g id="a_node2"><a xlink:title=" ">
<polygon fill="white" stroke="#bfbfbf" points="0,-160.5 0,-217.5 29,-217.5 29,-160.5 0,-160.5"/>
<text text-anchor="middle" x="14.5" y="-205.5" font-family="Helvetica,sans-Serif" font-size="10.00">int</text>
<polyline fill="none" stroke="#bfbfbf" points="0,-198.5 29,-198.5 "/>
<text text-anchor="middle" x="14.5" y="-186.5" font-family="Helvetica,sans-Serif" font-size="10.00"> </text>
<polyline fill="none" stroke="#bfbfbf" points="0,-179.5 29,-179.5 "/>
<text text-anchor="middle" x="14.5" y="-167.5" font-family="Helvetica,sans-Serif" font-size="10.00"> </text>
</a>
</g>
</g>
<!-- Node2&#45;&gt;Node1 -->
<g id="edge1" class="edge">
<title>Node2&#45;&gt;Node1</title>
<path fill="none" stroke="#404040" d="M7.48,-160.17C3.67,-138.6 2.11,-108.82 15.5,-87 18.84,-81.57 22.95,-76.68 27.58,-72.29"/>
<polygon fill="none" stroke="#404040" points="27.83,-72.08 29.91,-65.18 37.08,-64.44 35,-71.34 27.83,-72.08"/>
<text text-anchor="middle" x="104.5" y="-123" font-family="Helvetica,sans-Serif" font-size="10.00"> +attemptsBeforeGivingUp</text>
<text text-anchor="start" x="15.5" y="-112" font-family="Helvetica,sans-Serif" font-size="10.00">+maximumFallDistanceFromOrignal</text>
<text text-anchor="middle" x="104.5" y="-101" font-family="Helvetica,sans-Serif" font-size="10.00">Point</text>
</g>
<!-- Node3 -->
<g id="node3" class="node">
<title>Node3</title>
<g id="a_node3"><a xlink:title=" ">
<polygon fill="white" stroke="#bfbfbf" points="196.5,-160.5 196.5,-217.5 234.5,-217.5 234.5,-160.5 196.5,-160.5"/>
<text text-anchor="middle" x="215.5" y="-205.5" font-family="Helvetica,sans-Serif" font-size="10.00">bool</text>
<polyline fill="none" stroke="#bfbfbf" points="196.5,-198.5 234.5,-198.5 "/>
<text text-anchor="middle" x="215.5" y="-186.5" font-family="Helvetica,sans-Serif" font-size="10.00"> </text>
<polyline fill="none" stroke="#bfbfbf" points="196.5,-179.5 234.5,-179.5 "/>
<text text-anchor="middle" x="215.5" y="-167.5" font-family="Helvetica,sans-Serif" font-size="10.00"> </text>
</a>
</g>
</g>
<!-- Node3&#45;&gt;Node1 -->
<g id="edge2" class="edge">
<title>Node3&#45;&gt;Node1</title>
<path fill="none" stroke="#404040" d="M215.08,-160.47C213.51,-138.8 208.48,-108.72 193.5,-87 191.1,-83.53 188.39,-80.23 185.44,-77.11"/>
<polygon fill="none" stroke="#404040" points="185.34,-77.01 178.23,-75.81 176.61,-68.78 183.72,-69.99 185.34,-77.01"/>
<text text-anchor="middle" x="258" y="-134" font-family="Helvetica,sans-Serif" font-size="10.00"> +avoidAnyLiquid</text>
<text text-anchor="middle" x="258" y="-123" font-family="Helvetica,sans-Serif" font-size="10.00">+avoidHurtTiles</text>
<text text-anchor="middle" x="258" y="-112" font-family="Helvetica,sans-Serif" font-size="10.00">+avoidLava</text>
<text text-anchor="middle" x="258" y="-101" font-family="Helvetica,sans-Serif" font-size="10.00">+avoidWalls</text>
<text text-anchor="middle" x="258" y="-90" font-family="Helvetica,sans-Serif" font-size="10.00">+mostlySolidFloor</text>
</g>
</g>
</svg>
