<?xml version="1.0" encoding="UTF-8" standalone="no"?>
<!DOCTYPE svg PUBLIC "-//W3C//DTD SVG 1.1//EN"
 "http://www.w3.org/Graphics/SVG/1.1/DTD/svg11.dtd">
<!-- Generated by graphviz version 2.43.0 (0)
 -->
<!-- Title: Terraria.GameContent.Achievements.ItemCraftCondition Pages: 1 -->
<svg width="728pt" height="661pt"
 viewBox="0.00 0.00 727.50 661.00" xmlns="http://www.w3.org/2000/svg" xmlns:xlink="http://www.w3.org/1999/xlink">
<g id="graph0" class="graph" transform="scale(1 1) rotate(0) translate(4 657)">
<title>Terraria.GameContent.Achievements.ItemCraftCondition</title>
<!-- Node1 -->
<g id="Node000001" class="node">
<title>Node1</title>
<g id="a_Node000001"><a xlink:title=" ">
<polygon fill="#999999" stroke="transparent" points="409,-238 215,-238 215,0 409,0 409,-238"/>
<text text-anchor="start" x="220" y="-226" font-family="Helvetica,sans-Serif" font-size="10.00">Terraria.GameContent.Achievements.</text>
<text text-anchor="start" x="265.5" y="-215" font-family="Helvetica,sans-Serif" font-size="10.00">ItemCraftCondition</text>
<text text-anchor="start" x="310" y="-200" font-family="Helvetica,sans-Serif" font-size="10.00"> </text>
<text text-anchor="start" x="225" y="-185" font-family="Helvetica,sans-Serif" font-size="10.00">+</text>
<text text-anchor="start" x="244" y="-185" font-family="Helvetica,sans-Serif" font-size="10.00">static AchievementCondition</text>
<text text-anchor="start" x="244" y="-174" font-family="Helvetica,sans-Serif" font-size="10.00"> Create(params short[] items)</text>
<text text-anchor="start" x="225" y="-159" font-family="Helvetica,sans-Serif" font-size="10.00">+</text>
<text text-anchor="start" x="244" y="-159" font-family="Helvetica,sans-Serif" font-size="10.00">static AchievementCondition</text>
<text text-anchor="start" x="244" y="-148" font-family="Helvetica,sans-Serif" font-size="10.00"> Create(short item)</text>
<text text-anchor="start" x="225" y="-133" font-family="Helvetica,sans-Serif" font-size="10.00">+</text>
<text text-anchor="start" x="244" y="-133" font-family="Helvetica,sans-Serif" font-size="10.00">static AchievementCondition</text>
<text text-anchor="start" x="244" y="-122" font-family="Helvetica,sans-Serif" font-size="10.00">[] CreateMany(params short</text>
<text text-anchor="start" x="244" y="-111" font-family="Helvetica,sans-Serif" font-size="10.00">[] items)</text>
<text text-anchor="start" x="227.5" y="-96" font-family="Helvetica,sans-Serif" font-size="10.00">&#45;</text>
<text text-anchor="start" x="244" y="-96" font-family="Helvetica,sans-Serif" font-size="10.00">ItemCraftCondition</text>
<text text-anchor="start" x="244" y="-85" font-family="Helvetica,sans-Serif" font-size="10.00">(short itemId)</text>
<text text-anchor="start" x="227.5" y="-70" font-family="Helvetica,sans-Serif" font-size="10.00">&#45;</text>
<text text-anchor="start" x="244" y="-70" font-family="Helvetica,sans-Serif" font-size="10.00">ItemCraftCondition</text>
<text text-anchor="start" x="244" y="-59" font-family="Helvetica,sans-Serif" font-size="10.00">(short[] itemIds)</text>
<text text-anchor="start" x="227.5" y="-44" font-family="Helvetica,sans-Serif" font-size="10.00">&#45;</text>
<text text-anchor="start" x="244" y="-44" font-family="Helvetica,sans-Serif" font-size="10.00">static void ListenForCraft</text>
<text text-anchor="start" x="244" y="-33" font-family="Helvetica,sans-Serif" font-size="10.00">(ItemCraftCondition condition)</text>
<text text-anchor="start" x="227.5" y="-18" font-family="Helvetica,sans-Serif" font-size="10.00">&#45;</text>
<text text-anchor="start" x="244" y="-18" font-family="Helvetica,sans-Serif" font-size="10.00">static void ItemCraftListener</text>
<text text-anchor="start" x="244" y="-7" font-family="Helvetica,sans-Serif" font-size="10.00">(short itemId, int count)</text>
<polygon fill="#666666" stroke="#666666" points="215,-210 215,-210 409,-210 409,-210 215,-210"/>
<polygon fill="#666666" stroke="#666666" points="215,-195 215,-195 409,-195 409,-195 215,-195"/>
<polygon fill="none" stroke="#666666" points="215,0 215,-238 409,-238 409,0 215,0"/>
</a>
</g>
</g>
<!-- Node2 -->
<g id="Node000002" class="node">
<title>Node2</title>
<g id="a_Node000002"><a xlink:href="../../d5/dfd/classTerraria_1_1Achievements_1_1AchievementCondition.html" target="_top" xlink:title=" ">
<polygon fill="white" stroke="transparent" points="274,-490 102,-490 102,-285 274,-285 274,-490"/>
<text text-anchor="start" x="132" y="-477.5" font-family="Helvetica,sans-Serif" font-size="10.00">AchievementCondition</text>
<text text-anchor="start" x="106" y="-462.5" font-family="Helvetica,sans-Serif" font-size="10.00">+</text>
<text text-anchor="start" x="119" y="-462.5" font-family="Helvetica,sans-Serif" font-size="10.00">bool IsCompleted</text>
<text text-anchor="start" x="106" y="-447.5" font-family="Helvetica,sans-Serif" font-size="10.00">+</text>
<text text-anchor="start" x="119" y="-447.5" font-family="Helvetica,sans-Serif" font-size="10.00">delegate void Achievement</text>
<text text-anchor="start" x="119" y="-436.5" font-family="Helvetica,sans-Serif" font-size="10.00">Update(AchievementCondition</text>
<text text-anchor="start" x="119" y="-425.5" font-family="Helvetica,sans-Serif" font-size="10.00"> condition)</text>
<text text-anchor="start" x="106" y="-410.5" font-family="Helvetica,sans-Serif" font-size="10.00">+</text>
<text text-anchor="start" x="119" y="-410.5" font-family="Helvetica,sans-Serif" font-size="10.00">virtual void Load(JObject</text>
<text text-anchor="start" x="119" y="-399.5" font-family="Helvetica,sans-Serif" font-size="10.00"> state)</text>
<text text-anchor="start" x="106" y="-384.5" font-family="Helvetica,sans-Serif" font-size="10.00">+</text>
<text text-anchor="start" x="119" y="-384.5" font-family="Helvetica,sans-Serif" font-size="10.00">virtual void Clear()</text>
<text text-anchor="start" x="106" y="-369.5" font-family="Helvetica,sans-Serif" font-size="10.00">+</text>
<text text-anchor="start" x="119" y="-369.5" font-family="Helvetica,sans-Serif" font-size="10.00">virtual void Complete()</text>
<text text-anchor="start" x="106" y="-354.5" font-family="Helvetica,sans-Serif" font-size="10.00">+</text>
<text text-anchor="start" x="119" y="-354.5" font-family="Helvetica,sans-Serif" font-size="10.00">IAchievementTracker</text>
<text text-anchor="start" x="119" y="-343.5" font-family="Helvetica,sans-Serif" font-size="10.00"> GetAchievementTracker()</text>
<text text-anchor="start" x="106" y="-328.5" font-family="Helvetica,sans-Serif" font-size="10.00">#</text>
<text text-anchor="start" x="119" y="-328.5" font-family="Helvetica,sans-Serif" font-size="10.00">AchievementCondition</text>
<text text-anchor="start" x="119" y="-317.5" font-family="Helvetica,sans-Serif" font-size="10.00">(string name)</text>
<text text-anchor="start" x="106" y="-302.5" font-family="Helvetica,sans-Serif" font-size="10.00">#</text>
<text text-anchor="start" x="119" y="-302.5" font-family="Helvetica,sans-Serif" font-size="10.00">virtual IAchievementTracker</text>
<text text-anchor="start" x="119" y="-291.5" font-family="Helvetica,sans-Serif" font-size="10.00"> CreateAchievementTracker()</text>
<polygon fill="#666666" stroke="#666666" points="102,-472.5 102,-472.5 274,-472.5 274,-472.5 102,-472.5"/>
<polygon fill="#666666" stroke="#666666" points="102,-457.5 102,-457.5 117,-457.5 117,-457.5 102,-457.5"/>
<polygon fill="#666666" stroke="#666666" points="117,-457.5 117,-457.5 274,-457.5 274,-457.5 117,-457.5"/>
<polygon fill="none" stroke="#666666" points="102,-285 102,-490 274,-490 274,-285 102,-285"/>
</a>
</g>
</g>
<!-- Node2&#45;&gt;Node1 -->
<g id="edge1_Node000001_Node000002" class="edge">
<title>Node2&#45;&gt;Node1</title>
<g id="a_edge1_Node000001_Node000002"><a xlink:title=" ">
<path fill="none" stroke="#63b8ff" d="M239.6,-275.6C245.35,-263.25 251.22,-250.63 257.01,-238.19"/>
<polygon fill="none" stroke="#63b8ff" points="236.28,-274.44 235.23,-284.99 242.62,-277.4 236.28,-274.44"/>
</a>
</g>
</g>
<!-- Node3 -->
<g id="Node000003" class="node">
<title>Node3</title>
<g id="a_Node000003"><a xlink:href="../../d5/d92/classstring.html" target="_top" xlink:title=" ">
<polygon fill="white" stroke="transparent" points="38,-619.5 0,-619.5 0,-570.5 38,-570.5 38,-619.5"/>
<text text-anchor="start" x="5" y="-607" font-family="Helvetica,sans-Serif" font-size="10.00">string</text>
<text text-anchor="start" x="17" y="-592" font-family="Helvetica,sans-Serif" font-size="10.00"> </text>
<text text-anchor="start" x="17" y="-577" font-family="Helvetica,sans-Serif" font-size="10.00"> </text>
<polygon fill="#666666" stroke="#666666" points="0,-602 0,-602 38,-602 38,-602 0,-602"/>
<polygon fill="#666666" stroke="#666666" points="0,-587 0,-587 38,-587 38,-587 0,-587"/>
<polygon fill="none" stroke="#666666" points="0,-570.5 0,-619.5 38,-619.5 38,-570.5 0,-570.5"/>
</a>
</g>
</g>
<!-- Node3&#45;&gt;Node1 -->
<g id="edge5_Node000001_Node000003" class="edge">
<title>Node3&#45;&gt;Node1</title>
<g id="a_edge5_Node000001_Node000003"><a xlink:title=" ">
<path fill="none" stroke="#63b8ff" d="M13.92,-570.12C3.61,-515.14 -14.36,-377.28 42,-285 78.52,-225.21 145.66,-184.04 203.85,-157.78"/>
<polygon fill="none" stroke="#63b8ff" points="203.99,-157.72 207.87,-151.64 214.97,-152.89 211.09,-158.97 203.99,-157.72"/>
</a>
</g>
<text text-anchor="middle" x="67.5" y="-385" font-family="Helvetica,sans-Serif" font-size="10.00" fill="grey"> &#45;Identifier</text>
</g>
<!-- Node3&#45;&gt;Node2 -->
<g id="edge2_Node000002_Node000003" class="edge">
<title>Node3&#45;&gt;Node2</title>
<g id="a_edge2_Node000002_Node000003"><a xlink:title=" ">
<path fill="none" stroke="#63b8ff" d="M28.66,-570.36C33.48,-559.75 39.82,-547.32 47,-537 60.7,-517.32 76.97,-497.69 93.51,-479.47"/>
<polygon fill="none" stroke="#63b8ff" points="93.51,-479.47 94.63,-472.34 101.64,-470.64 100.52,-477.76 93.51,-479.47"/>
</a>
</g>
<text text-anchor="middle" x="88.5" y="-511" font-family="Helvetica,sans-Serif" font-size="10.00" fill="grey"> +Name</text>
</g>
<!-- Node4 -->
<g id="Node000004" class="node">
<title>Node4</title>
<g id="a_Node000004"><a xlink:href="../../d2/d17/interfaceTerraria_1_1Achievements_1_1IAchievementTracker.html" target="_top" xlink:title=" ">
<polygon fill="white" stroke="transparent" points="247.5,-653 56.5,-653 56.5,-537 247.5,-537 247.5,-653"/>
<text text-anchor="start" x="62" y="-641" font-family="Helvetica,sans-Serif" font-size="10.00">Terraria.Achievements.IAchievement</text>
<text text-anchor="start" x="135" y="-630" font-family="Helvetica,sans-Serif" font-size="10.00">Tracker</text>
<text text-anchor="start" x="150.5" y="-615" font-family="Helvetica,sans-Serif" font-size="10.00"> </text>
<text text-anchor="start" x="68" y="-600" font-family="Helvetica,sans-Serif" font-size="10.00">+</text>
<text text-anchor="start" x="88" y="-600" font-family="Helvetica,sans-Serif" font-size="10.00">void ReportAs(string</text>
<text text-anchor="start" x="88" y="-589" font-family="Helvetica,sans-Serif" font-size="10.00"> name)</text>
<text text-anchor="start" x="68" y="-574" font-family="Helvetica,sans-Serif" font-size="10.00">+</text>
<text text-anchor="start" x="88" y="-574" font-family="Helvetica,sans-Serif" font-size="10.00">TrackerType GetTrackerType()</text>
<text text-anchor="start" x="68" y="-559" font-family="Helvetica,sans-Serif" font-size="10.00">+</text>
<text text-anchor="start" x="88" y="-559" font-family="Helvetica,sans-Serif" font-size="10.00">void Load()</text>
<text text-anchor="start" x="68" y="-544" font-family="Helvetica,sans-Serif" font-size="10.00">+</text>
<text text-anchor="start" x="88" y="-544" font-family="Helvetica,sans-Serif" font-size="10.00">void Clear()</text>
<polygon fill="#666666" stroke="#666666" points="57,-625 57,-625 248,-625 248,-625 57,-625"/>
<polygon fill="#666666" stroke="#666666" points="57,-610 57,-610 248,-610 248,-610 57,-610"/>
<polygon fill="none" stroke="#666666" points="56.5,-537 56.5,-653 247.5,-653 247.5,-537 56.5,-537"/>
</a>
</g>
</g>
<!-- Node4&#45;&gt;Node2 -->
<g id="edge3_Node000002_Node000004" class="edge">
<title>Node4&#45;&gt;Node2</title>
<g id="a_edge3_Node000002_Node000004"><a xlink:title=" ">
<path fill="none" stroke="#63b8ff" d="M150.31,-536.68C150.19,-530.71 150.08,-524.73 150,-519 149.93,-514.11 149.25,-512.83 150,-508 150.32,-505.97 150.66,-503.92 151.03,-501.86"/>
<polygon fill="none" stroke="#63b8ff" points="151.05,-501.78 148.31,-495.11 153.42,-490.02 156.15,-496.69 151.05,-501.78"/>
</a>
</g>
<text text-anchor="middle" x="175.5" y="-511" font-family="Helvetica,sans-Serif" font-size="10.00" fill="grey"> #_tracker</text>
</g>
<!-- Node5 -->
<g id="Node000005" class="node">
<title>Node5</title>
<g id="a_Node000005"><a xlink:href="../../d9/db9/classbool.html" target="_top" xlink:title=" ">
<polygon fill="white" stroke="transparent" points="313,-619.5 281,-619.5 281,-570.5 313,-570.5 313,-619.5"/>
<text text-anchor="start" x="286" y="-607" font-family="Helvetica,sans-Serif" font-size="10.00">bool</text>
<text text-anchor="start" x="295" y="-592" font-family="Helvetica,sans-Serif" font-size="10.00"> </text>
<text text-anchor="start" x="295" y="-577" font-family="Helvetica,sans-Serif" font-size="10.00"> </text>
<polygon fill="#666666" stroke="#666666" points="281,-602 281,-602 313,-602 313,-602 281,-602"/>
<polygon fill="#666666" stroke="#666666" points="281,-587 281,-587 313,-587 313,-587 281,-587"/>
<polygon fill="none" stroke="#666666" points="281,-570.5 281,-619.5 313,-619.5 313,-570.5 281,-570.5"/>
</a>
</g>
</g>
<!-- Node5&#45;&gt;Node1 -->
<g id="edge7_Node000001_Node000005" class="edge">
<title>Node5&#45;&gt;Node1</title>
<g id="a_edge7_Node000001_Node000005"><a xlink:title=" ">
<path fill="none" stroke="#63b8ff" d="M297.74,-570.49C299.56,-512.95 304.35,-361.6 307.88,-250.13"/>
<polygon fill="none" stroke="#63b8ff" points="307.88,-250.11 304.07,-243.98 308.26,-238.11 312.07,-244.24 307.88,-250.11"/>
</a>
</g>
<text text-anchor="middle" x="355.5" y="-385" font-family="Helvetica,sans-Serif" font-size="10.00" fill="grey"> &#45;_isListenerHooked</text>
</g>
<!-- Node5&#45;&gt;Node2 -->
<g id="edge4_Node000002_Node000005" class="edge">
<title>Node5&#45;&gt;Node2</title>
<g id="a_edge4_Node000002_Node000005"><a xlink:title=" ">
<path fill="none" stroke="#63b8ff" d="M283.27,-570.25C276.11,-559.23 266.63,-546.51 256,-537 243.84,-526.12 234.05,-531.85 224,-519 219.64,-513.43 215.81,-507.36 212.44,-500.99"/>
<polygon fill="none" stroke="#63b8ff" points="212.37,-500.85 206.18,-497.16 207.2,-490.02 213.39,-493.71 212.37,-500.85"/>
</a>
</g>
<text text-anchor="middle" x="261" y="-511" font-family="Helvetica,sans-Serif" font-size="10.00" fill="grey"> &#45;_isCompleted</text>
</g>
<!-- Node6 -->
<g id="Node000006" class="node">
<title>Node6</title>
<g id="a_Node000006"><a xlink:title=" ">
<polygon fill="white" stroke="transparent" points="666.5,-423 427.5,-423 427.5,-352 666.5,-352 666.5,-423"/>
<text text-anchor="start" x="433" y="-410.5" font-family="Helvetica,sans-Serif" font-size="10.00">static Dictionary&lt;</text>
<text text-anchor="start" x="433" y="-399.5" font-family="Helvetica,sans-Serif" font-size="10.00"> short, List&lt; Terraria.Game</text>
<text text-anchor="start" x="433" y="-388.5" font-family="Helvetica,sans-Serif" font-size="10.00">Content.Achievements.ItemCraftCondition &gt; &gt;</text>
<text text-anchor="start" x="545.5" y="-373.5" font-family="Helvetica,sans-Serif" font-size="10.00"> </text>
<text text-anchor="start" x="545.5" y="-358.5" font-family="Helvetica,sans-Serif" font-size="10.00"> </text>
<polygon fill="#666666" stroke="#666666" points="428,-383.5 428,-383.5 667,-383.5 667,-383.5 428,-383.5"/>
<polygon fill="#666666" stroke="#666666" points="428,-368.5 428,-368.5 667,-368.5 667,-368.5 428,-368.5"/>
<polygon fill="none" stroke="#666666" points="427.5,-352 427.5,-423 666.5,-423 666.5,-352 427.5,-352"/>
</a>
</g>
</g>
<!-- Node6&#45;&gt;Node1 -->
<g id="edge6_Node000001_Node000006" class="edge">
<title>Node6&#45;&gt;Node1</title>
<g id="a_edge6_Node000001_Node000006"><a xlink:title=" ">
<path fill="none" stroke="#63b8ff" d="M516.52,-351.93C491.06,-323.07 453.22,-280.14 416.97,-239.04"/>
<polygon fill="none" stroke="#63b8ff" points="416.96,-239.03 410,-237.18 409.03,-230.03 416,-231.89 416.96,-239.03"/>
</a>
</g>
<text text-anchor="middle" x="464.5" y="-259" font-family="Helvetica,sans-Serif" font-size="10.00" fill="grey"> &#45;_listeners</text>
</g>
<!-- Node7 -->
<g id="Node000007" class="node">
<title>Node7</title>
<g id="a_Node000007"><a xlink:title=" ">
<polygon fill="white" stroke="transparent" points="719.5,-412 684.5,-412 684.5,-363 719.5,-363 719.5,-412"/>
<text text-anchor="start" x="690" y="-399.5" font-family="Helvetica,sans-Serif" font-size="10.00">short</text>
<text text-anchor="start" x="700.5" y="-384.5" font-family="Helvetica,sans-Serif" font-size="10.00"> </text>
<text text-anchor="start" x="700.5" y="-369.5" font-family="Helvetica,sans-Serif" font-size="10.00"> </text>
<polygon fill="#666666" stroke="#666666" points="685,-394.5 685,-394.5 720,-394.5 720,-394.5 685,-394.5"/>
<polygon fill="#666666" stroke="#666666" points="685,-379.5 685,-379.5 720,-379.5 720,-379.5 685,-379.5"/>
<polygon fill="none" stroke="#666666" points="684.5,-363 684.5,-412 719.5,-412 719.5,-363 684.5,-363"/>
</a>
</g>
</g>
<!-- Node7&#45;&gt;Node1 -->
<g id="edge8_Node000001_Node000007" class="edge">
<title>Node7&#45;&gt;Node1</title>
<g id="a_edge8_Node000001_Node000007"><a xlink:title=" ">
<path fill="none" stroke="#63b8ff" d="M701.61,-362.95C700.05,-340.52 694.47,-307.02 676,-285 611.12,-207.66 502.41,-164.93 420.64,-142.46"/>
<polygon fill="none" stroke="#63b8ff" points="420.63,-142.45 413.8,-144.77 409.04,-139.35 415.87,-137.04 420.63,-142.45"/>
</a>
</g>
<text text-anchor="middle" x="678.5" y="-259" font-family="Helvetica,sans-Serif" font-size="10.00" fill="grey"> &#45;_itemIds</text>
</g>
</g>
</svg>
