<?xml version="1.0" encoding="UTF-8" standalone="no"?>
<!DOCTYPE svg PUBLIC "-//W3C//DTD SVG 1.1//EN"
 "http://www.w3.org/Graphics/SVG/1.1/DTD/svg11.dtd">
<!-- Generated by graphviz version 2.43.0 (0)
 -->
<!-- Title: ContainerTransferContext.ContainerTransferContext Pages: 1 -->
<svg width="1401pt" height="88pt"
 viewBox="0.00 0.00 1401.00 88.00" xmlns="http://www.w3.org/2000/svg" xmlns:xlink="http://www.w3.org/1999/xlink">
<g id="graph0" class="graph" transform="scale(1 1) rotate(0) translate(4 84)">
<title>ContainerTransferContext.ContainerTransferContext</title>
<polygon fill="white" stroke="transparent" points="-4,4 -4,-84 1397,-84 1397,4 -4,4"/>
<!-- Node1 -->
<g id="node1" class="node">
<title>Node1</title>
<g id="a_node1"><a xlink:title=" ">
<polygon fill="#bfbfbf" stroke="black" points="1249,-24.5 1249,-54.5 1393,-54.5 1393,-24.5 1249,-24.5"/>
<text text-anchor="start" x="1257" y="-42.5" font-family="Helvetica,sans-Serif" font-size="10.00">ContainerTransferContext.</text>
<text text-anchor="middle" x="1321" y="-31.5" font-family="Helvetica,sans-Serif" font-size="10.00">ContainerTransferContext</text>
</a>
</g>
</g>
<!-- Node2 -->
<g id="node2" class="node">
<title>Node2</title>
<g id="a_node2"><a xlink:href="../../dc/d39/structContainerTransferContext_a0e518f9174cdfaf21ea3b41a9c1941f5.html#a0e518f9174cdfaf21ea3b41a9c1941f5" target="_top" xlink:title=" ">
<polygon fill="white" stroke="black" points="1069,-49.5 1069,-79.5 1213,-79.5 1213,-49.5 1069,-49.5"/>
<text text-anchor="start" x="1077" y="-67.5" font-family="Helvetica,sans-Serif" font-size="10.00">ContainerTransferContext.</text>
<text text-anchor="middle" x="1141" y="-56.5" font-family="Helvetica,sans-Serif" font-size="10.00">FromBlockPosition</text>
</a>
</g>
</g>
<!-- Node1&#45;&gt;Node2 -->
<g id="edge1" class="edge">
<title>Node1&#45;&gt;Node2</title>
<path fill="none" stroke="midnightblue" d="M1238.83,-50.9C1230.21,-52.11 1221.49,-53.34 1213,-54.53"/>
<polygon fill="midnightblue" stroke="midnightblue" points="1239.47,-54.35 1248.88,-49.49 1238.49,-47.41 1239.47,-54.35"/>
</g>
<!-- Node10 -->
<g id="node10" class="node">
<title>Node10</title>
<g id="a_node10"><a xlink:href="../../dc/d39/structContainerTransferContext_a2f238c407fa3dd3c59e4e38dc4ecd94e.html#a2f238c407fa3dd3c59e4e38dc4ecd94e" target="_top" xlink:title=" ">
<polygon fill="white" stroke="black" points="1069,-0.5 1069,-30.5 1213,-30.5 1213,-0.5 1069,-0.5"/>
<text text-anchor="start" x="1077" y="-18.5" font-family="Helvetica,sans-Serif" font-size="10.00">ContainerTransferContext.</text>
<text text-anchor="middle" x="1141" y="-7.5" font-family="Helvetica,sans-Serif" font-size="10.00">FromProjectile</text>
</a>
</g>
</g>
<!-- Node1&#45;&gt;Node10 -->
<g id="edge10" class="edge">
<title>Node1&#45;&gt;Node10</title>
<path fill="none" stroke="midnightblue" d="M1238.83,-28.56C1230.21,-27.39 1221.49,-26.22 1213,-25.07"/>
<polygon fill="midnightblue" stroke="midnightblue" points="1238.5,-32.04 1248.88,-29.91 1239.44,-25.11 1238.5,-32.04"/>
</g>
<!-- Node3 -->
<g id="node3" class="node">
<title>Node3</title>
<g id="a_node3"><a xlink:href="../../d2/d4b/classPlayer_ab765b7be9a6a25719ab91567648a235e.html#ab765b7be9a6a25719ab91567648a235e" target="_top" xlink:title=" ">
<polygon fill="white" stroke="black" points="883,-30 883,-49 1033,-49 1033,-30 883,-30"/>
<text text-anchor="middle" x="958" y="-37" font-family="Helvetica,sans-Serif" font-size="10.00">Player.QuickStackAllChests</text>
</a>
</g>
</g>
<!-- Node2&#45;&gt;Node3 -->
<g id="edge2" class="edge">
<title>Node2&#45;&gt;Node3</title>
<path fill="none" stroke="midnightblue" d="M1058.79,-53.28C1048.52,-51.86 1038.09,-50.42 1028.03,-49.04"/>
<polygon fill="midnightblue" stroke="midnightblue" points="1058.6,-56.79 1068.98,-54.69 1059.56,-49.86 1058.6,-56.79"/>
</g>
<!-- Node4 -->
<g id="node4" class="node">
<title>Node4</title>
<g id="a_node4"><a xlink:href="../../db/d4a/classMain_ac23e03f1a3a425224bfed8bc8eae8397.html#ac23e03f1a3a425224bfed8bc8eae8397" target="_top" xlink:title=" ">
<polygon fill="white" stroke="black" points="731,-30 731,-49 847,-49 847,-30 731,-30"/>
<text text-anchor="middle" x="789" y="-37" font-family="Helvetica,sans-Serif" font-size="10.00">Main.DrawInventory</text>
</a>
</g>
</g>
<!-- Node3&#45;&gt;Node4 -->
<g id="edge3" class="edge">
<title>Node3&#45;&gt;Node4</title>
<path fill="none" stroke="midnightblue" d="M872.67,-39.5C864.05,-39.5 855.43,-39.5 847.2,-39.5"/>
<polygon fill="midnightblue" stroke="midnightblue" points="872.78,-43 882.78,-39.5 872.78,-36 872.78,-43"/>
</g>
<!-- Node5 -->
<g id="node5" class="node">
<title>Node5</title>
<g id="a_node5"><a xlink:href="../../db/d4a/classMain_ab9585a9a2fbc71c67b8ae3a91c5ef880.html#ab9585a9a2fbc71c67b8ae3a91c5ef880" target="_top" xlink:title=" ">
<polygon fill="white" stroke="black" points="582,-24.5 582,-54.5 695,-54.5 695,-24.5 582,-24.5"/>
<text text-anchor="start" x="590" y="-42.5" font-family="Helvetica,sans-Serif" font-size="10.00">Main.DrawInterface</text>
<text text-anchor="middle" x="638.5" y="-31.5" font-family="Helvetica,sans-Serif" font-size="10.00">_27_Inventory</text>
</a>
</g>
</g>
<!-- Node4&#45;&gt;Node5 -->
<g id="edge4" class="edge">
<title>Node4&#45;&gt;Node5</title>
<path fill="none" stroke="midnightblue" d="M720.42,-39.5C712.02,-39.5 703.5,-39.5 695.3,-39.5"/>
<polygon fill="midnightblue" stroke="midnightblue" points="720.59,-43 730.59,-39.5 720.59,-36 720.59,-43"/>
</g>
<!-- Node6 -->
<g id="node6" class="node">
<title>Node6</title>
<g id="a_node6"><a xlink:href="../../db/d4a/classMain_aaf00fdabdb1a5736ff0443825f2d4324.html#aaf00fdabdb1a5736ff0443825f2d4324" target="_top" xlink:title=" ">
<polygon fill="white" stroke="black" points="373,-30 373,-49 546,-49 546,-30 373,-30"/>
<text text-anchor="middle" x="459.5" y="-37" font-family="Helvetica,sans-Serif" font-size="10.00">Main.SetupDrawInterfaceLayers</text>
</a>
</g>
</g>
<!-- Node5&#45;&gt;Node6 -->
<g id="edge5" class="edge">
<title>Node5&#45;&gt;Node6</title>
<path fill="none" stroke="midnightblue" d="M571.95,-39.5C563.58,-39.5 554.92,-39.5 546.29,-39.5"/>
<polygon fill="midnightblue" stroke="midnightblue" points="571.98,-43 581.98,-39.5 571.98,-36 571.98,-43"/>
</g>
<!-- Node7 -->
<g id="node7" class="node">
<title>Node7</title>
<g id="a_node7"><a xlink:href="../../db/d4a/classMain_a394be66e030c385131f8239af0bd3af0.html#a394be66e030c385131f8239af0bd3af0" target="_top" xlink:title=" ">
<polygon fill="white" stroke="black" points="224,-30 224,-49 337,-49 337,-30 224,-30"/>
<text text-anchor="middle" x="280.5" y="-37" font-family="Helvetica,sans-Serif" font-size="10.00">Main.DrawInterface</text>
</a>
</g>
</g>
<!-- Node6&#45;&gt;Node7 -->
<g id="edge6" class="edge">
<title>Node6&#45;&gt;Node7</title>
<path fill="none" stroke="midnightblue" d="M362.58,-39.5C353.85,-39.5 345.22,-39.5 337.03,-39.5"/>
<polygon fill="midnightblue" stroke="midnightblue" points="362.85,-43 372.85,-39.5 362.85,-36 362.85,-43"/>
</g>
<!-- Node8 -->
<g id="node8" class="node">
<title>Node8</title>
<g id="a_node8"><a xlink:href="../../db/d4a/classMain_a4ca48570ee8c9e54ed5371ecb4ab1877.html#a4ca48570ee8c9e54ed5371ecb4ab1877" target="_top" xlink:title=" ">
<polygon fill="white" stroke="black" points="105,-30 105,-49 188,-49 188,-30 105,-30"/>
<text text-anchor="middle" x="146.5" y="-37" font-family="Helvetica,sans-Serif" font-size="10.00">Main.DoDraw</text>
</a>
</g>
</g>
<!-- Node7&#45;&gt;Node8 -->
<g id="edge7" class="edge">
<title>Node7&#45;&gt;Node8</title>
<path fill="none" stroke="midnightblue" d="M213.72,-39.5C205.02,-39.5 196.3,-39.5 188.19,-39.5"/>
<polygon fill="midnightblue" stroke="midnightblue" points="213.9,-43 223.9,-39.5 213.9,-36 213.9,-43"/>
</g>
<!-- Node9 -->
<g id="node9" class="node">
<title>Node9</title>
<g id="a_node9"><a xlink:href="../../db/d4a/classMain_a9df405f7c9ce2e93e9af9bbf70231672.html#a9df405f7c9ce2e93e9af9bbf70231672" target="_top" xlink:title=" ">
<polygon fill="white" stroke="black" points="0,-30 0,-49 69,-49 69,-30 0,-30"/>
<text text-anchor="middle" x="34.5" y="-37" font-family="Helvetica,sans-Serif" font-size="10.00">Main.Draw</text>
</a>
</g>
</g>
<!-- Node8&#45;&gt;Node9 -->
<g id="edge8" class="edge">
<title>Node8&#45;&gt;Node9</title>
<path fill="none" stroke="midnightblue" d="M94.77,-32.77C86.08,-32.69 77.24,-32.85 69.14,-33.22"/>
<polygon fill="midnightblue" stroke="midnightblue" points="94.79,-36.27 104.85,-32.96 94.92,-29.27 94.79,-36.27"/>
</g>
<!-- Node9&#45;&gt;Node8 -->
<g id="edge9" class="edge">
<title>Node9&#45;&gt;Node8</title>
<path fill="none" stroke="midnightblue" d="M79.21,-46.12C87.67,-46.32 96.5,-46.29 104.85,-46.04"/>
<polygon fill="midnightblue" stroke="midnightblue" points="79.25,-42.62 69.14,-45.78 79.01,-49.62 79.25,-42.62"/>
</g>
<!-- Node10&#45;&gt;Node3 -->
<g id="edge11" class="edge">
<title>Node10&#45;&gt;Node3</title>
<path fill="none" stroke="midnightblue" d="M1058.87,-26.26C1049.48,-27.5 1039.95,-28.77 1030.7,-29.99"/>
<polygon fill="midnightblue" stroke="midnightblue" points="1059.53,-29.7 1068.98,-24.92 1058.61,-22.76 1059.53,-29.7"/>
</g>
</g>
</svg>
