<?xml version="1.0" encoding="UTF-8" standalone="no"?>
<!DOCTYPE svg PUBLIC "-//W3C//DTD SVG 1.1//EN"
 "http://www.w3.org/Graphics/SVG/1.1/DTD/svg11.dtd">
<!-- Generated by graphviz version 2.43.0 (0)
 -->
<!-- Title: CreditsRollComposer.AddWavingNPC Pages: 1 -->
<svg width="611pt" height="102pt"
 viewBox="0.00 0.00 611.00 101.50" xmlns="http://www.w3.org/2000/svg" xmlns:xlink="http://www.w3.org/1999/xlink">
<g id="graph0" class="graph" transform="scale(1 1) rotate(0) translate(4 97.5)">
<title>CreditsRollComposer.AddWavingNPC</title>
<polygon fill="white" stroke="transparent" points="-4,4 -4,-97.5 607,-97.5 607,4 -4,4"/>
<!-- Node1 -->
<g id="node1" class="node">
<title>Node1</title>
<g id="a_node1"><a xlink:title=" ">
<polygon fill="#bfbfbf" stroke="black" points="0,-52 0,-71 197,-71 197,-52 0,-52"/>
<text text-anchor="middle" x="98.5" y="-59" font-family="Helvetica,sans-Serif" font-size="10.00">CreditsRollComposer.AddWavingNPC</text>
</a>
</g>
</g>
<!-- Node2 -->
<g id="node2" class="node">
<title>Node2</title>
<g id="a_node2"><a xlink:href="../../dc/d5e/classCreditsRollComposer_aabf35c72b421aafbc5aa4ecd26c19cb3.html#aabf35c72b421aafbc5aa4ecd26c19cb3" target="_top" xlink:title=" ">
<polygon fill="white" stroke="black" points="233,-74 233,-93 405,-93 405,-74 233,-74"/>
<text text-anchor="middle" x="319" y="-81" font-family="Helvetica,sans-Serif" font-size="10.00">CreditsRollComposer.AddEmote</text>
</a>
</g>
</g>
<!-- Node1&#45;&gt;Node2 -->
<g id="edge1" class="edge">
<title>Node1&#45;&gt;Node2</title>
<path fill="none" stroke="midnightblue" d="M194.07,-71.02C203.55,-71.98 213.19,-72.95 222.68,-73.9"/>
<polygon fill="midnightblue" stroke="midnightblue" points="222.62,-77.41 232.92,-74.93 223.32,-70.45 222.62,-77.41"/>
</g>
<!-- Node3 -->
<g id="node3" class="node">
<title>Node3</title>
<g id="a_node3"><a xlink:href="../../d5/d32/classSegments_1_1AnimationSegmentWithActions_ad66d74d23d26efb2f48e397bc5ade895.html#ad66d74d23d26efb2f48e397bc5ade895" target="_top" xlink:title=" ">
<polygon fill="white" stroke="black" points="238,-24.5 238,-54.5 400,-54.5 400,-24.5 238,-24.5"/>
<text text-anchor="start" x="246" y="-42.5" font-family="Helvetica,sans-Serif" font-size="10.00">Segments.AnimationSegment</text>
<text text-anchor="middle" x="319" y="-31.5" font-family="Helvetica,sans-Serif" font-size="10.00">WithActions.Then</text>
</a>
</g>
</g>
<!-- Node1&#45;&gt;Node3 -->
<g id="edge2" class="edge">
<title>Node1&#45;&gt;Node3</title>
<path fill="none" stroke="midnightblue" d="M194.07,-51.98C205.19,-50.86 216.53,-49.72 227.59,-48.6"/>
<polygon fill="midnightblue" stroke="midnightblue" points="228.07,-52.07 237.67,-47.59 227.37,-45.11 228.07,-52.07"/>
</g>
<!-- Node4 -->
<g id="node4" class="node">
<title>Node4</title>
<g id="a_node4"><a xlink:href="../../d5/d32/classSegments_1_1AnimationSegmentWithActions_a2f8c2013d50764203db4835fb38d15ca.html#a2f8c2013d50764203db4835fb38d15ca" target="_top" xlink:title=" ">
<polygon fill="white" stroke="black" points="441,-49.5 441,-79.5 603,-79.5 603,-49.5 441,-49.5"/>
<text text-anchor="start" x="449" y="-67.5" font-family="Helvetica,sans-Serif" font-size="10.00">Segments.AnimationSegment</text>
<text text-anchor="middle" x="522" y="-56.5" font-family="Helvetica,sans-Serif" font-size="10.00">WithActions.Bind</text>
</a>
</g>
</g>
<!-- Node3&#45;&gt;Node4 -->
<g id="edge3" class="edge">
<title>Node3&#45;&gt;Node4</title>
<path fill="none" stroke="midnightblue" d="M400.02,-49.45C410.12,-50.71 420.5,-52 430.75,-53.27"/>
<polygon fill="midnightblue" stroke="midnightblue" points="430.57,-56.78 440.93,-54.54 431.44,-49.83 430.57,-56.78"/>
</g>
<!-- Node5 -->
<g id="node5" class="node">
<title>Node5</title>
<g id="a_node5"><a xlink:href="../../d8/d8d/interfaceIAnimationSegmentAction_ad9b30e93073f76c5bc2438964bf1ab29.html#ad9b30e93073f76c5bc2438964bf1ab29" target="_top" xlink:title=" ">
<polygon fill="white" stroke="black" points="448.5,-0.5 448.5,-30.5 595.5,-30.5 595.5,-0.5 448.5,-0.5"/>
<text text-anchor="start" x="456.5" y="-18.5" font-family="Helvetica,sans-Serif" font-size="10.00">IAnimationSegmentAction.</text>
<text text-anchor="middle" x="522" y="-7.5" font-family="Helvetica,sans-Serif" font-size="10.00">SetDelay</text>
</a>
</g>
</g>
<!-- Node3&#45;&gt;Node5 -->
<g id="edge4" class="edge">
<title>Node3&#45;&gt;Node5</title>
<path fill="none" stroke="midnightblue" d="M400.02,-29.95C412.63,-28.44 425.69,-26.88 438.36,-25.37"/>
<polygon fill="midnightblue" stroke="midnightblue" points="438.91,-28.83 448.42,-24.17 438.08,-21.88 438.91,-28.83"/>
</g>
</g>
</svg>
