<?xml version="1.0" encoding="UTF-8" standalone="no"?>
<!DOCTYPE svg PUBLIC "-//W3C//DTD SVG 1.1//EN"
 "http://www.w3.org/Graphics/SVG/1.1/DTD/svg11.dtd">
<!-- Generated by graphviz version 2.43.0 (0)
 -->
<!-- Title: GraniteBiome.SimulatePressure Pages: 1 -->
<svg width="599pt" height="104pt"
 viewBox="0.00 0.00 599.00 104.00" xmlns="http://www.w3.org/2000/svg" xmlns:xlink="http://www.w3.org/1999/xlink">
<g id="graph0" class="graph" transform="scale(1 1) rotate(0) translate(4 100)">
<title>GraniteBiome.SimulatePressure</title>
<polygon fill="white" stroke="transparent" points="-4,4 -4,-100 595,-100 595,4 -4,4"/>
<!-- Node1 -->
<g id="node1" class="node">
<title>Node1</title>
<g id="a_node1"><a xlink:title=" ">
<polygon fill="#bfbfbf" stroke="black" points="0,-38.5 0,-57.5 173,-57.5 173,-38.5 0,-38.5"/>
<text text-anchor="middle" x="86.5" y="-45.5" font-family="Helvetica,sans-Serif" font-size="10.00">GraniteBiome.SimulatePressure</text>
</a>
</g>
</g>
<!-- Node2 -->
<g id="node2" class="node">
<title>Node2</title>
<g id="a_node2"><a xlink:href="../../d6/d49/structGraniteBiome_1_1Magma_ad0ce105a11285c6617707b5be5c358c9.html#ad0ce105a11285c6617707b5be5c358c9" target="_top" xlink:title=" ">
<polygon fill="white" stroke="black" points="209,-76.5 209,-95.5 391,-95.5 391,-76.5 209,-76.5"/>
<text text-anchor="middle" x="300" y="-83.5" font-family="Helvetica,sans-Serif" font-size="10.00">GraniteBiome.Magma.CreateFlow</text>
</a>
</g>
</g>
<!-- Node1&#45;&gt;Node2 -->
<g id="edge1" class="edge">
<title>Node1&#45;&gt;Node2</title>
<path fill="none" stroke="midnightblue" d="M140.6,-57.54C169.51,-62.73 205.47,-69.2 235.82,-74.65"/>
<polygon fill="midnightblue" stroke="midnightblue" points="235.42,-78.13 245.88,-76.46 236.66,-71.24 235.42,-78.13"/>
</g>
<!-- Node4 -->
<g id="node4" class="node">
<title>Node4</title>
<g id="a_node4"><a xlink:href="../../dc/d2a/structVector2D_a4ccaa6d0854b670655970b50b47acb61.html#a4ccaa6d0854b670655970b50b47acb61" target="_top" xlink:title=" ">
<polygon fill="white" stroke="black" points="257.5,-0.5 257.5,-19.5 342.5,-19.5 342.5,-0.5 257.5,-0.5"/>
<text text-anchor="middle" x="300" y="-7.5" font-family="Helvetica,sans-Serif" font-size="10.00">Vector2D.Max</text>
</a>
</g>
</g>
<!-- Node1&#45;&gt;Node4 -->
<g id="edge3" class="edge">
<title>Node1&#45;&gt;Node4</title>
<path fill="none" stroke="midnightblue" d="M140.6,-38.46C173.17,-32.61 214.69,-25.15 247.05,-19.33"/>
<polygon fill="midnightblue" stroke="midnightblue" points="247.99,-22.72 257.21,-17.51 246.75,-15.83 247.99,-22.72"/>
</g>
<!-- Node6 -->
<g id="node6" class="node">
<title>Node6</title>
<g id="a_node6"><a xlink:href="../../d6/d49/structGraniteBiome_1_1Magma_a9f8bb6f0575b51a08a472d93d26f4671.html#a9f8bb6f0575b51a08a472d93d26f4671" target="_top" xlink:title=" ">
<polygon fill="white" stroke="black" points="219.5,-38.5 219.5,-57.5 380.5,-57.5 380.5,-38.5 219.5,-38.5"/>
<text text-anchor="middle" x="300" y="-45.5" font-family="Helvetica,sans-Serif" font-size="10.00">GraniteBiome.Magma.ToFlow</text>
</a>
</g>
</g>
<!-- Node1&#45;&gt;Node6 -->
<g id="edge5" class="edge">
<title>Node1&#45;&gt;Node6</title>
<path fill="none" stroke="midnightblue" d="M173.22,-48C185,-48 197.12,-48 208.98,-48"/>
<polygon fill="midnightblue" stroke="midnightblue" points="209.31,-51.5 219.31,-48 209.31,-44.5 209.31,-51.5"/>
</g>
<!-- Node3 -->
<g id="node3" class="node">
<title>Node3</title>
<g id="a_node3"><a xlink:href="../../d6/d49/structGraniteBiome_1_1Magma_ad7a9085a672d32b16ec77c50461b7896.html#ad7a9085a672d32b16ec77c50461b7896" target="_top" xlink:title=" ">
<polygon fill="white" stroke="black" points="427,-57.5 427,-76.5 591,-76.5 591,-57.5 427,-57.5"/>
<text text-anchor="middle" x="509" y="-64.5" font-family="Helvetica,sans-Serif" font-size="10.00">GraniteBiome.Magma.Magma</text>
</a>
</g>
</g>
<!-- Node2&#45;&gt;Node3 -->
<g id="edge2" class="edge">
<title>Node2&#45;&gt;Node3</title>
<path fill="none" stroke="midnightblue" d="M391.19,-77.72C399.73,-76.94 408.38,-76.14 416.93,-75.36"/>
<polygon fill="midnightblue" stroke="midnightblue" points="417.25,-78.84 426.89,-74.44 416.61,-71.87 417.25,-78.84"/>
</g>
<!-- Node5 -->
<g id="node5" class="node">
<title>Node5</title>
<g id="a_node5"><a xlink:href="../../dc/d2a/structVector2D_a2b70d10ac8da8fa4c97087beb72d5710.html#a2b70d10ac8da8fa4c97087beb72d5710" target="_top" xlink:title=" ">
<polygon fill="white" stroke="black" points="455,-0.5 455,-19.5 563,-19.5 563,-0.5 455,-0.5"/>
<text text-anchor="middle" x="509" y="-7.5" font-family="Helvetica,sans-Serif" font-size="10.00">Vector2D.Vector2D</text>
</a>
</g>
</g>
<!-- Node4&#45;&gt;Node5 -->
<g id="edge4" class="edge">
<title>Node4&#45;&gt;Node5</title>
<path fill="none" stroke="midnightblue" d="M342.89,-10C372.12,-10 411.65,-10 444.71,-10"/>
<polygon fill="midnightblue" stroke="midnightblue" points="444.74,-13.5 454.74,-10 444.74,-6.5 444.74,-13.5"/>
</g>
<!-- Node6&#45;&gt;Node3 -->
<g id="edge6" class="edge">
<title>Node6&#45;&gt;Node3</title>
<path fill="none" stroke="midnightblue" d="M380.74,-55.32C392.57,-56.4 404.84,-57.53 416.89,-58.64"/>
<polygon fill="midnightblue" stroke="midnightblue" points="416.66,-62.13 426.94,-59.56 417.3,-55.16 416.66,-62.13"/>
</g>
</g>
</svg>
