<?xml version="1.0" encoding="UTF-8" standalone="no"?>
<!DOCTYPE svg PUBLIC "-//W3C//DTD SVG 1.1//EN"
 "http://www.w3.org/Graphics/SVG/1.1/DTD/svg11.dtd">
<!-- Generated by graphviz version 2.43.0 (0)
 -->
<!-- Title: Terraria.GameContent.UI.Elements.UIItemSlot.DrawSelf Pages: 1 -->
<svg width="577pt" height="295pt"
 viewBox="0.00 0.00 577.00 295.00" xmlns="http://www.w3.org/2000/svg" xmlns:xlink="http://www.w3.org/1999/xlink">
<g id="graph0" class="graph" transform="scale(1 1) rotate(0) translate(4 291)">
<title>Terraria.GameContent.UI.Elements.UIItemSlot.DrawSelf</title>
<!-- Node1 -->
<g id="Node000001" class="node">
<title>Node1</title>
<g id="a_Node000001"><a xlink:title=" ">
<polygon fill="#999999" stroke="#666666" points="164,-204 0,-204 0,-174 164,-174 164,-204"/>
<text text-anchor="start" x="8" y="-192" font-family="Helvetica,sans-Serif" font-size="10.00">Terraria.GameContent.UI.</text>
<text text-anchor="middle" x="82" y="-181" font-family="Helvetica,sans-Serif" font-size="10.00">Elements.UIItemSlot.DrawSelf</text>
</a>
</g>
</g>
<!-- Node2 -->
<g id="Node000002" class="node">
<title>Node2</title>
<g id="a_Node000002"><a xlink:href="../../d6/d3a/structTerraria_1_1UI_1_1CalculatedStyle_aa4526da68e51833be2cb9cc9de21f57a.html#aa4526da68e51833be2cb9cc9de21f57a" target="_top" xlink:title=" ">
<polygon fill="white" stroke="#666666" points="363,-287 214,-287 214,-257 363,-257 363,-287"/>
<text text-anchor="start" x="222" y="-275" font-family="Helvetica,sans-Serif" font-size="10.00">Terraria.UI.CalculatedStyle.</text>
<text text-anchor="middle" x="288.5" y="-264" font-family="Helvetica,sans-Serif" font-size="10.00">Center</text>
</a>
</g>
</g>
<!-- Node1&#45;&gt;Node2 -->
<g id="edge1_Node000001_Node000002" class="edge">
<title>Node1&#45;&gt;Node2</title>
<g id="a_edge1_Node000001_Node000002"><a xlink:title=" ">
<path fill="none" stroke="#63b8ff" d="M109.26,-204.15C132.53,-217.11 167.73,-235.58 200,-248 205.37,-250.07 210.99,-252.03 216.67,-253.88"/>
<polygon fill="#63b8ff" stroke="#63b8ff" points="215.68,-257.24 226.27,-256.89 217.77,-250.56 215.68,-257.24"/>
</a>
</g>
</g>
<!-- Node3 -->
<g id="Node000003" class="node">
<title>Node3</title>
<g id="a_Node000003"><a xlink:href="../../dd/de1/classTerraria_1_1UI_1_1ItemSlot_a06fdb45a7b6486da4fe2f86c30093231.html#a06fdb45a7b6486da4fe2f86c30093231" target="_top" xlink:title=" ">
<polygon fill="white" stroke="#666666" points="358.5,-220.5 218.5,-220.5 218.5,-201.5 358.5,-201.5 358.5,-220.5"/>
<text text-anchor="middle" x="288.5" y="-208.5" font-family="Helvetica,sans-Serif" font-size="10.00">Terraria.UI.ItemSlot.Draw</text>
</a>
</g>
</g>
<!-- Node1&#45;&gt;Node3 -->
<g id="edge2_Node000001_Node000003" class="edge">
<title>Node1&#45;&gt;Node3</title>
<g id="a_edge2_Node000001_Node000003"><a xlink:title=" ">
<path fill="none" stroke="#63b8ff" d="M164.12,-197.73C178.56,-199.28 193.6,-200.9 208,-202.45"/>
<polygon fill="#63b8ff" stroke="#63b8ff" points="208.04,-205.97 218.36,-203.56 208.79,-199.01 208.04,-205.97"/>
</a>
</g>
</g>
<!-- Node4 -->
<g id="Node000004" class="node">
<title>Node4</title>
<g id="a_Node000004"><a xlink:href="../../d7/d72/classTerraria_1_1UI_1_1UIElement_abeb7b32927c9b86a4b1a4139e45ac6a5.html#abeb7b32927c9b86a4b1a4139e45ac6a5" target="_top" xlink:title=" ">
<polygon fill="white" stroke="#666666" points="359,-183 218,-183 218,-153 359,-153 359,-183"/>
<text text-anchor="start" x="226" y="-171" font-family="Helvetica,sans-Serif" font-size="10.00">Terraria.UI.UIElement.Get</text>
<text text-anchor="middle" x="288.5" y="-160" font-family="Helvetica,sans-Serif" font-size="10.00">Dimensions</text>
</a>
</g>
</g>
<!-- Node1&#45;&gt;Node4 -->
<g id="edge4_Node000001_Node000004" class="edge">
<title>Node1&#45;&gt;Node4</title>
<g id="a_edge4_Node000001_Node000004"><a xlink:title=" ">
<path fill="none" stroke="#63b8ff" d="M164.12,-180.67C178.39,-179.2 193.23,-177.68 207.46,-176.22"/>
<polygon fill="#63b8ff" stroke="#63b8ff" points="208.12,-179.67 217.71,-175.17 207.4,-172.71 208.12,-179.67"/>
</a>
</g>
</g>
<!-- Node5 -->
<g id="Node000005" class="node">
<title>Node5</title>
<g id="a_Node000005"><a xlink:href="../../db/d18/classTerraria_1_1GameContent_1_1UI_1_1Elements_1_1UIItemSlot_ac1ec597ae1920b2d3cd417d64b2a1e28.html#ac1ec597ae1920b2d3cd417d64b2a1e28" target="_top" xlink:title=" ">
<polygon fill="white" stroke="#666666" points="377,-134.5 200,-134.5 200,-93.5 377,-93.5 377,-134.5"/>
<text text-anchor="start" x="208" y="-122.5" font-family="Helvetica,sans-Serif" font-size="10.00">Terraria.GameContent.UI.</text>
<text text-anchor="start" x="208" y="-111.5" font-family="Helvetica,sans-Serif" font-size="10.00">Elements.UIItemSlot.HandleItem</text>
<text text-anchor="middle" x="288.5" y="-100.5" font-family="Helvetica,sans-Serif" font-size="10.00">SlotLogic</text>
</a>
</g>
</g>
<!-- Node1&#45;&gt;Node5 -->
<g id="edge5_Node000001_Node000005" class="edge">
<title>Node1&#45;&gt;Node5</title>
<g id="a_edge5_Node000001_Node000005"><a xlink:title=" ">
<path fill="none" stroke="#63b8ff" d="M121.07,-173.95C143.88,-165.03 173.51,-153.63 200,-144 205.51,-142 211.23,-139.95 216.99,-137.92"/>
<polygon fill="#63b8ff" stroke="#63b8ff" points="218.4,-141.14 226.68,-134.53 216.08,-134.53 218.4,-141.14"/>
</a>
</g>
</g>
<!-- Node3&#45;&gt;Node3 -->
<g id="edge3_Node000003_Node000003" class="edge">
<title>Node3&#45;&gt;Node3</title>
<g id="a_edge3_Node000003_Node000003"><a xlink:title=" ">
<path fill="none" stroke="#63b8ff" d="M257.37,-220.58C242.22,-229.23 252.6,-238.5 288.5,-238.5 313.74,-238.5 326.37,-233.92 326.37,-228.19"/>
<polygon fill="#63b8ff" stroke="#63b8ff" points="328.89,-225.75 319.63,-220.58 323.65,-230.39 328.89,-225.75"/>
</a>
</g>
</g>
<!-- Node6 -->
<g id="Node000006" class="node">
<title>Node6</title>
<g id="a_Node000006"><a xlink:href="../../dd/de1/classTerraria_1_1UI_1_1ItemSlot_a6cc22b713e54cb2a46c31f421b54a42e.html#a6cc22b713e54cb2a46c31f421b54a42e" target="_top" xlink:title=" ">
<polygon fill="white" stroke="#666666" points="557,-228 425,-228 425,-198 557,-198 557,-228"/>
<text text-anchor="start" x="433" y="-216" font-family="Helvetica,sans-Serif" font-size="10.00">Terraria.UI.ItemSlot.Left</text>
<text text-anchor="middle" x="491" y="-205" font-family="Helvetica,sans-Serif" font-size="10.00">Click</text>
</a>
</g>
</g>
<!-- Node5&#45;&gt;Node6 -->
<g id="edge6_Node000005_Node000006" class="edge">
<title>Node5&#45;&gt;Node6</title>
<g id="a_edge6_Node000005_Node000006"><a xlink:title=" ">
<path fill="none" stroke="#63b8ff" d="M360.93,-134.57C366.57,-137.36 372.01,-140.49 377,-144 397.95,-158.74 391.85,-174.56 413,-189 415.25,-190.54 417.61,-191.98 420.04,-193.34"/>
<polygon fill="#63b8ff" stroke="#63b8ff" points="418.6,-196.53 429.11,-197.86 421.72,-190.26 418.6,-196.53"/>
</a>
</g>
</g>
<!-- Node7 -->
<g id="Node000007" class="node">
<title>Node7</title>
<g id="a_Node000007"><a xlink:href="../../dd/de1/classTerraria_1_1UI_1_1ItemSlot_ac3d9373b4cd032ad4530ae2cdb18a022.html#ac3d9373b4cd032ad4530ae2cdb18a022" target="_top" xlink:title=" ">
<polygon fill="white" stroke="#666666" points="564,-162 418,-162 418,-132 564,-132 564,-162"/>
<text text-anchor="start" x="426" y="-150" font-family="Helvetica,sans-Serif" font-size="10.00">Terraria.UI.ItemSlot.Mouse</text>
<text text-anchor="middle" x="491" y="-139" font-family="Helvetica,sans-Serif" font-size="10.00">Hover</text>
</a>
</g>
</g>
<!-- Node5&#45;&gt;Node7 -->
<g id="edge8_Node000005_Node000007" class="edge">
<title>Node5&#45;&gt;Node7</title>
<g id="a_edge8_Node000005_Node000007"><a xlink:title=" ">
<path fill="none" stroke="#63b8ff" d="M377.15,-128.43C387.35,-130.1 397.72,-131.81 407.83,-133.48"/>
<polygon fill="#63b8ff" stroke="#63b8ff" points="407.42,-136.95 417.85,-135.13 408.55,-130.05 407.42,-136.95"/>
</a>
</g>
</g>
<!-- Node8 -->
<g id="Node000008" class="node">
<title>Node8</title>
<g id="a_Node000008"><a xlink:href="../../dd/de1/classTerraria_1_1UI_1_1ItemSlot_a33cf23ae898345085cf639bb03485f6d.html#a33cf23ae898345085cf639bb03485f6d" target="_top" xlink:title=" ">
<polygon fill="white" stroke="#666666" points="569,-96 413,-96 413,-66 569,-66 569,-96"/>
<text text-anchor="start" x="421" y="-84" font-family="Helvetica,sans-Serif" font-size="10.00">Terraria.UI.ItemSlot.Override</text>
<text text-anchor="middle" x="491" y="-73" font-family="Helvetica,sans-Serif" font-size="10.00">Hover</text>
</a>
</g>
</g>
<!-- Node5&#45;&gt;Node8 -->
<g id="edge10_Node000005_Node000008" class="edge">
<title>Node5&#45;&gt;Node8</title>
<g id="a_edge10_Node000005_Node000008"><a xlink:title=" ">
<path fill="none" stroke="#63b8ff" d="M377.15,-99.57C385.71,-98.17 394.39,-96.74 402.94,-95.33"/>
<polygon fill="#63b8ff" stroke="#63b8ff" points="403.61,-98.77 412.91,-93.69 402.47,-91.86 403.61,-98.77"/>
</a>
</g>
</g>
<!-- Node9 -->
<g id="Node000009" class="node">
<title>Node9</title>
<g id="a_Node000009"><a xlink:href="../../dd/de1/classTerraria_1_1UI_1_1ItemSlot_a66e2de36e035c82a1695f7f9a2385812.html#a66e2de36e035c82a1695f7f9a2385812" target="_top" xlink:title=" ">
<polygon fill="white" stroke="#666666" points="561,-30 421,-30 421,0 561,0 561,-30"/>
<text text-anchor="start" x="429" y="-18" font-family="Helvetica,sans-Serif" font-size="10.00">Terraria.UI.ItemSlot.Right</text>
<text text-anchor="middle" x="491" y="-7" font-family="Helvetica,sans-Serif" font-size="10.00">Click</text>
</a>
</g>
</g>
<!-- Node5&#45;&gt;Node9 -->
<g id="edge12_Node000005_Node000009" class="edge">
<title>Node5&#45;&gt;Node9</title>
<g id="a_edge12_Node000005_Node000009"><a xlink:title=" ">
<path fill="none" stroke="#63b8ff" d="M331.04,-93.49C366.06,-76.2 415.84,-51.62 450.32,-34.59"/>
<polygon fill="#63b8ff" stroke="#63b8ff" points="452.2,-37.57 459.61,-30 449.1,-31.29 452.2,-37.57"/>
</a>
</g>
</g>
<!-- Node6&#45;&gt;Node6 -->
<g id="edge7_Node000006_Node000006" class="edge">
<title>Node6&#45;&gt;Node6</title>
<g id="a_edge7_Node000006_Node000006"><a xlink:title=" ">
<path fill="none" stroke="#63b8ff" d="M455.49,-228.28C447.6,-237.41 459.44,-246 491,-246 509.74,-246 521.53,-242.97 526.36,-238.6"/>
<polygon fill="#63b8ff" stroke="#63b8ff" points="529.86,-238.33 526.51,-228.28 522.86,-238.22 529.86,-238.33"/>
</a>
</g>
</g>
<!-- Node7&#45;&gt;Node7 -->
<g id="edge9_Node000007_Node000007" class="edge">
<title>Node7&#45;&gt;Node7</title>
<g id="a_edge9_Node000007_Node000007"><a xlink:title=" ">
<path fill="none" stroke="#63b8ff" d="M455.49,-162.28C447.6,-171.41 459.44,-180 491,-180 509.74,-180 521.53,-176.97 526.36,-172.6"/>
<polygon fill="#63b8ff" stroke="#63b8ff" points="529.86,-172.33 526.51,-162.28 522.86,-172.22 529.86,-172.33"/>
</a>
</g>
</g>
<!-- Node8&#45;&gt;Node8 -->
<g id="edge11_Node000008_Node000008" class="edge">
<title>Node8&#45;&gt;Node8</title>
<g id="a_edge11_Node000008_Node000008"><a xlink:title=" ">
<path fill="none" stroke="#63b8ff" d="M455.49,-96.28C447.6,-105.41 459.44,-114 491,-114 509.74,-114 521.53,-110.97 526.36,-106.6"/>
<polygon fill="#63b8ff" stroke="#63b8ff" points="529.86,-106.33 526.51,-96.28 522.86,-106.22 529.86,-106.33"/>
</a>
</g>
</g>
<!-- Node9&#45;&gt;Node9 -->
<g id="edge13_Node000009_Node000009" class="edge">
<title>Node9&#45;&gt;Node9</title>
<g id="a_edge13_Node000009_Node000009"><a xlink:title=" ">
<path fill="none" stroke="#63b8ff" d="M455.49,-30.28C447.6,-39.41 459.44,-48 491,-48 509.74,-48 521.53,-44.97 526.36,-40.6"/>
<polygon fill="#63b8ff" stroke="#63b8ff" points="529.86,-40.33 526.51,-30.28 522.86,-40.22 529.86,-40.33"/>
</a>
</g>
</g>
</g>
</svg>
