<?xml version="1.0" encoding="UTF-8" standalone="no"?>
<!DOCTYPE svg PUBLIC "-//W3C//DTD SVG 1.1//EN"
 "http://www.w3.org/Graphics/SVG/1.1/DTD/svg11.dtd">
<!-- Generated by graphviz version 2.43.0 (0)
 -->
<!-- Title: ItemSlot.RightClick Pages: 1 -->
<svg width="1035pt" height="171pt"
 viewBox="0.00 0.00 1035.00 171.00" xmlns="http://www.w3.org/2000/svg" xmlns:xlink="http://www.w3.org/1999/xlink">
<g id="graph0" class="graph" transform="scale(1 1) rotate(0) translate(4 167)">
<title>ItemSlot.RightClick</title>
<polygon fill="white" stroke="transparent" points="-4,4 -4,-167 1031,-167 1031,4 -4,4"/>
<!-- Node1 -->
<g id="node1" class="node">
<title>Node1</title>
<g id="a_node1"><a xlink:title=" ">
<polygon fill="#bfbfbf" stroke="black" points="917,-72 917,-91 1027,-91 1027,-72 917,-72"/>
<text text-anchor="middle" x="972" y="-79" font-family="Helvetica,sans-Serif" font-size="10.00">ItemSlot.RightClick</text>
</a>
</g>
</g>
<!-- Node2 -->
<g id="node2" class="node">
<title>Node2</title>
<g id="a_node2"><a xlink:href="../../db/d4a/classMain_ac23e03f1a3a425224bfed8bc8eae8397.html#ac23e03f1a3a425224bfed8bc8eae8397" target="_top" xlink:title=" ">
<polygon fill="white" stroke="black" points="749.5,-138 749.5,-157 865.5,-157 865.5,-138 749.5,-138"/>
<text text-anchor="middle" x="807.5" y="-145" font-family="Helvetica,sans-Serif" font-size="10.00">Main.DrawInventory</text>
</a>
</g>
</g>
<!-- Node1&#45;&gt;Node2 -->
<g id="edge1" class="edge">
<title>Node1&#45;&gt;Node2</title>
<path fill="none" stroke="midnightblue" d="M946.19,-96.4C928.5,-106.53 903.89,-119.65 881,-128.5 871.65,-132.11 861.37,-135.27 851.56,-137.92"/>
<polygon fill="midnightblue" stroke="midnightblue" points="948.37,-99.18 955.25,-91.12 944.85,-93.13 948.37,-99.18"/>
</g>
<!-- Node8 -->
<g id="node8" class="node">
<title>Node8</title>
<g id="a_node8"><a xlink:href="../../d8/d9c/classUIDynamicItemCollection_a4bdda2a8fe5f81fb9d28e51d97ecb737.html#a4bdda2a8fe5f81fb9d28e51d97ecb737" target="_top" xlink:title=" ">
<polygon fill="white" stroke="black" points="735,-88.5 735,-118.5 880,-118.5 880,-88.5 735,-88.5"/>
<text text-anchor="start" x="743" y="-106.5" font-family="Helvetica,sans-Serif" font-size="10.00">UIDynamicItemCollection.</text>
<text text-anchor="middle" x="807.5" y="-95.5" font-family="Helvetica,sans-Serif" font-size="10.00">DrawSelf</text>
</a>
</g>
</g>
<!-- Node1&#45;&gt;Node8 -->
<g id="edge8" class="edge">
<title>Node1&#45;&gt;Node8</title>
<path fill="none" stroke="midnightblue" d="M906.74,-90.2C897.96,-91.39 888.91,-92.61 880.01,-93.82"/>
<polygon fill="midnightblue" stroke="midnightblue" points="907.45,-93.64 916.89,-88.83 906.51,-86.7 907.45,-93.64"/>
</g>
<!-- Node9 -->
<g id="node9" class="node">
<title>Node9</title>
<g id="a_node9"><a xlink:href="../../dd/d09/classItemSlot_a32a4062138cf096eecd0c031905bcdf9.html#a32a4062138cf096eecd0c031905bcdf9" target="_top" xlink:title=" ">
<polygon fill="white" stroke="black" points="760,-50 760,-69 855,-69 855,-50 760,-50"/>
<text text-anchor="middle" x="807.5" y="-57" font-family="Helvetica,sans-Serif" font-size="10.00">ItemSlot.Handle</text>
</a>
</g>
</g>
<!-- Node1&#45;&gt;Node9 -->
<g id="edge9" class="edge">
<title>Node1&#45;&gt;Node9</title>
<path fill="none" stroke="midnightblue" d="M906.85,-72.82C889.55,-70.47 871.17,-67.98 855.03,-65.8"/>
<polygon fill="midnightblue" stroke="midnightblue" points="906.51,-76.3 916.89,-74.17 907.45,-69.36 906.51,-76.3"/>
</g>
<!-- Node10 -->
<g id="node10" class="node">
<title>Node10</title>
<g id="a_node10"><a xlink:href="../../df/de7/classUIItemSlot_a5262bea3cf09ecc0dd73fbbb9cfcdb81.html#a5262bea3cf09ecc0dd73fbbb9cfcdb81" target="_top" xlink:title=" ">
<polygon fill="white" stroke="black" points="734,-0.5 734,-30.5 881,-30.5 881,-0.5 734,-0.5"/>
<text text-anchor="start" x="742" y="-18.5" font-family="Helvetica,sans-Serif" font-size="10.00">UIItemSlot.HandleItemSlot</text>
<text text-anchor="middle" x="807.5" y="-7.5" font-family="Helvetica,sans-Serif" font-size="10.00">Logic</text>
</a>
</g>
</g>
<!-- Node1&#45;&gt;Node10 -->
<g id="edge10" class="edge">
<title>Node1&#45;&gt;Node10</title>
<path fill="none" stroke="midnightblue" d="M942.44,-67.64C924.89,-59.34 901.86,-48.82 881,-40.5 872.47,-37.09 863.27,-33.71 854.38,-30.58"/>
<polygon fill="midnightblue" stroke="midnightblue" points="941.04,-70.85 951.57,-72 944.05,-64.53 941.04,-70.85"/>
</g>
<!-- Node3 -->
<g id="node3" class="node">
<title>Node3</title>
<g id="a_node3"><a xlink:href="../../db/d4a/classMain_ab9585a9a2fbc71c67b8ae3a91c5ef880.html#ab9585a9a2fbc71c67b8ae3a91c5ef880" target="_top" xlink:title=" ">
<polygon fill="white" stroke="black" points="583.5,-132.5 583.5,-162.5 696.5,-162.5 696.5,-132.5 583.5,-132.5"/>
<text text-anchor="start" x="591.5" y="-150.5" font-family="Helvetica,sans-Serif" font-size="10.00">Main.DrawInterface</text>
<text text-anchor="middle" x="640" y="-139.5" font-family="Helvetica,sans-Serif" font-size="10.00">_27_Inventory</text>
</a>
</g>
</g>
<!-- Node2&#45;&gt;Node3 -->
<g id="edge2" class="edge">
<title>Node2&#45;&gt;Node3</title>
<path fill="none" stroke="midnightblue" d="M738.97,-147.5C724.9,-147.5 710.22,-147.5 696.64,-147.5"/>
<polygon fill="midnightblue" stroke="midnightblue" points="739.08,-151 749.08,-147.5 739.08,-144 739.08,-151"/>
</g>
<!-- Node4 -->
<g id="node4" class="node">
<title>Node4</title>
<g id="a_node4"><a xlink:href="../../db/d4a/classMain_aaf00fdabdb1a5736ff0443825f2d4324.html#aaf00fdabdb1a5736ff0443825f2d4324" target="_top" xlink:title=" ">
<polygon fill="white" stroke="black" points="373,-138 373,-157 546,-157 546,-138 373,-138"/>
<text text-anchor="middle" x="459.5" y="-145" font-family="Helvetica,sans-Serif" font-size="10.00">Main.SetupDrawInterfaceLayers</text>
</a>
</g>
</g>
<!-- Node3&#45;&gt;Node4 -->
<g id="edge3" class="edge">
<title>Node3&#45;&gt;Node4</title>
<path fill="none" stroke="midnightblue" d="M573.28,-147.5C564.43,-147.5 555.25,-147.5 546.11,-147.5"/>
<polygon fill="midnightblue" stroke="midnightblue" points="573.5,-151 583.5,-147.5 573.5,-144 573.5,-151"/>
</g>
<!-- Node5 -->
<g id="node5" class="node">
<title>Node5</title>
<g id="a_node5"><a xlink:href="../../db/d4a/classMain_a394be66e030c385131f8239af0bd3af0.html#a394be66e030c385131f8239af0bd3af0" target="_top" xlink:title=" ">
<polygon fill="white" stroke="black" points="224,-138 224,-157 337,-157 337,-138 224,-138"/>
<text text-anchor="middle" x="280.5" y="-145" font-family="Helvetica,sans-Serif" font-size="10.00">Main.DrawInterface</text>
</a>
</g>
</g>
<!-- Node4&#45;&gt;Node5 -->
<g id="edge4" class="edge">
<title>Node4&#45;&gt;Node5</title>
<path fill="none" stroke="midnightblue" d="M362.58,-147.5C353.85,-147.5 345.22,-147.5 337.03,-147.5"/>
<polygon fill="midnightblue" stroke="midnightblue" points="362.85,-151 372.85,-147.5 362.85,-144 362.85,-151"/>
</g>
<!-- Node6 -->
<g id="node6" class="node">
<title>Node6</title>
<g id="a_node6"><a xlink:href="../../db/d4a/classMain_a4ca48570ee8c9e54ed5371ecb4ab1877.html#a4ca48570ee8c9e54ed5371ecb4ab1877" target="_top" xlink:title=" ">
<polygon fill="white" stroke="black" points="105,-138 105,-157 188,-157 188,-138 105,-138"/>
<text text-anchor="middle" x="146.5" y="-145" font-family="Helvetica,sans-Serif" font-size="10.00">Main.DoDraw</text>
</a>
</g>
</g>
<!-- Node5&#45;&gt;Node6 -->
<g id="edge5" class="edge">
<title>Node5&#45;&gt;Node6</title>
<path fill="none" stroke="midnightblue" d="M213.72,-147.5C205.02,-147.5 196.3,-147.5 188.19,-147.5"/>
<polygon fill="midnightblue" stroke="midnightblue" points="213.9,-151 223.9,-147.5 213.9,-144 213.9,-151"/>
</g>
<!-- Node7 -->
<g id="node7" class="node">
<title>Node7</title>
<g id="a_node7"><a xlink:href="../../db/d4a/classMain_a9df405f7c9ce2e93e9af9bbf70231672.html#a9df405f7c9ce2e93e9af9bbf70231672" target="_top" xlink:title=" ">
<polygon fill="white" stroke="black" points="0,-138 0,-157 69,-157 69,-138 0,-138"/>
<text text-anchor="middle" x="34.5" y="-145" font-family="Helvetica,sans-Serif" font-size="10.00">Main.Draw</text>
</a>
</g>
</g>
<!-- Node6&#45;&gt;Node7 -->
<g id="edge6" class="edge">
<title>Node6&#45;&gt;Node7</title>
<path fill="none" stroke="midnightblue" d="M94.77,-140.77C86.08,-140.69 77.24,-140.85 69.14,-141.22"/>
<polygon fill="midnightblue" stroke="midnightblue" points="94.79,-144.27 104.85,-140.96 94.92,-137.27 94.79,-144.27"/>
</g>
<!-- Node7&#45;&gt;Node6 -->
<g id="edge7" class="edge">
<title>Node7&#45;&gt;Node6</title>
<path fill="none" stroke="midnightblue" d="M79.21,-154.12C87.67,-154.32 96.5,-154.29 104.85,-154.04"/>
<polygon fill="midnightblue" stroke="midnightblue" points="79.25,-150.62 69.14,-153.78 79.01,-157.62 79.25,-150.62"/>
</g>
<!-- Node11 -->
<g id="node11" class="node">
<title>Node11</title>
<g id="a_node11"><a xlink:href="../../df/de7/classUIItemSlot_a7440760b290c94c8827f45d58a0dab2d.html#a7440760b290c94c8827f45d58a0dab2d" target="_top" xlink:title=" ">
<polygon fill="white" stroke="black" points="582,-6 582,-25 698,-25 698,-6 582,-6"/>
<text text-anchor="middle" x="640" y="-13" font-family="Helvetica,sans-Serif" font-size="10.00">UIItemSlot.DrawSelf</text>
</a>
</g>
</g>
<!-- Node10&#45;&gt;Node11 -->
<g id="edge11" class="edge">
<title>Node10&#45;&gt;Node11</title>
<path fill="none" stroke="midnightblue" d="M723.75,-15.5C715.08,-15.5 706.41,-15.5 698.11,-15.5"/>
<polygon fill="midnightblue" stroke="midnightblue" points="723.91,-19 733.91,-15.5 723.91,-12 723.91,-19"/>
</g>
</g>
</svg>
