<?xml version="1.0" encoding="UTF-8" standalone="no"?>
<!DOCTYPE svg PUBLIC "-//W3C//DTD SVG 1.1//EN"
 "http://www.w3.org/Graphics/SVG/1.1/DTD/svg11.dtd">
<!-- Generated by graphviz version 2.43.0 (0)
 -->
<!-- Title: ProjectileSmartInteractCandidateProvider.ProvideCandidate Pages: 1 -->
<svg width="410pt" height="88pt"
 viewBox="0.00 0.00 410.00 88.00" xmlns="http://www.w3.org/2000/svg" xmlns:xlink="http://www.w3.org/1999/xlink">
<g id="graph0" class="graph" transform="scale(1 1) rotate(0) translate(4 84)">
<title>ProjectileSmartInteractCandidateProvider.ProvideCandidate</title>
<polygon fill="white" stroke="transparent" points="-4,4 -4,-84 406,-84 406,4 -4,4"/>
<!-- Node1 -->
<g id="node1" class="node">
<title>Node1</title>
<g id="a_node1"><a xlink:title=" ">
<polygon fill="#bfbfbf" stroke="black" points="0,-24.5 0,-54.5 179,-54.5 179,-24.5 0,-24.5"/>
<text text-anchor="start" x="8" y="-42.5" font-family="Helvetica,sans-Serif" font-size="10.00">ProjectileSmartInteractCandidate</text>
<text text-anchor="middle" x="89.5" y="-31.5" font-family="Helvetica,sans-Serif" font-size="10.00">Provider.ProvideCandidate</text>
</a>
</g>
</g>
<!-- Node2 -->
<g id="node2" class="node">
<title>Node2</title>
<g id="a_node2"><a xlink:href="../../d2/d4b/classPlayer_af8323e71062dd4bec5fb4196715befc4.html#af8323e71062dd4bec5fb4196715befc4" target="_top" xlink:title=" ">
<polygon fill="white" stroke="black" points="235.5,-49.5 235.5,-79.5 381.5,-79.5 381.5,-49.5 235.5,-49.5"/>
<text text-anchor="start" x="243.5" y="-67.5" font-family="Helvetica,sans-Serif" font-size="10.00">Player.GetListOfProjectiles</text>
<text text-anchor="middle" x="308.5" y="-56.5" font-family="Helvetica,sans-Serif" font-size="10.00">ToInteractWithHack</text>
</a>
</g>
</g>
<!-- Node1&#45;&gt;Node2 -->
<g id="edge1" class="edge">
<title>Node1&#45;&gt;Node2</title>
<path fill="none" stroke="midnightblue" d="M179.08,-49.7C194.31,-51.46 210.09,-53.28 225.15,-55.01"/>
<polygon fill="midnightblue" stroke="midnightblue" points="225.11,-58.53 235.45,-56.2 225.92,-51.58 225.11,-58.53"/>
</g>
<!-- Node3 -->
<g id="node3" class="node">
<title>Node3</title>
<g id="a_node3"><a xlink:href="../../d8/d0e/classProjectileSmartInteractCandidateProvider_1_1ReusableCandidate_a8ebc5140d09e580cd2d2a2a99e5fad6e.html#a8ebc5140d09e580cd2d2a2a99e5fad6e" target="_top" xlink:title=" ">
<polygon fill="white" stroke="black" points="215,-0.5 215,-30.5 402,-30.5 402,-0.5 215,-0.5"/>
<text text-anchor="start" x="223" y="-18.5" font-family="Helvetica,sans-Serif" font-size="10.00">ProjectileSmartInteractCandidate</text>
<text text-anchor="middle" x="308.5" y="-7.5" font-family="Helvetica,sans-Serif" font-size="10.00">Provider.ReusableCandidate.Reuse</text>
</a>
</g>
</g>
<!-- Node1&#45;&gt;Node3 -->
<g id="edge2" class="edge">
<title>Node1&#45;&gt;Node3</title>
<path fill="none" stroke="midnightblue" d="M179.08,-29.7C187.58,-28.76 196.26,-27.8 204.89,-26.85"/>
<polygon fill="midnightblue" stroke="midnightblue" points="205.42,-30.31 214.98,-25.73 204.65,-23.35 205.42,-30.31"/>
</g>
</g>
</svg>
