<?xml version="1.0" encoding="UTF-8" standalone="no"?>
<!DOCTYPE svg PUBLIC "-//W3C//DTD SVG 1.1//EN"
 "http://www.w3.org/Graphics/SVG/1.1/DTD/svg11.dtd">
<!-- Generated by graphviz version 2.43.0 (0)
 -->
<!-- Title: Terraria.GameContent.Events.DD2Event.WouldFailSpawningHere Pages: 1 -->
<svg width="938pt" height="228pt"
 viewBox="0.00 0.00 938.00 227.50" xmlns="http://www.w3.org/2000/svg" xmlns:xlink="http://www.w3.org/1999/xlink">
<g id="graph0" class="graph" transform="scale(1 1) rotate(0) translate(4 223.5)">
<title>Terraria.GameContent.Events.DD2Event.WouldFailSpawningHere</title>
<!-- Node1 -->
<g id="Node000001" class="node">
<title>Node1</title>
<g id="a_Node000001"><a xlink:title=" ">
<polygon fill="#999999" stroke="#666666" points="185,-100.5 0,-100.5 0,-70.5 185,-70.5 185,-100.5"/>
<text text-anchor="start" x="8" y="-88.5" font-family="Helvetica,sans-Serif" font-size="10.00">Terraria.GameContent.Events.</text>
<text text-anchor="middle" x="92.5" y="-77.5" font-family="Helvetica,sans-Serif" font-size="10.00">DD2Event.WouldFailSpawningHere</text>
</a>
</g>
</g>
<!-- Node2 -->
<g id="Node000002" class="node">
<title>Node2</title>
<g id="a_Node000002"><a xlink:href="../../d5/de1/classTerraria_1_1StrayMethods_abc77053e1abb37881b1ed552f8ab9daa.html#abc77053e1abb37881b1ed552f8ab9daa" target="_top" xlink:title=" ">
<polygon fill="white" stroke="#666666" points="378,-100.5 221,-100.5 221,-70.5 378,-70.5 378,-100.5"/>
<text text-anchor="start" x="229" y="-88.5" font-family="Helvetica,sans-Serif" font-size="10.00">Terraria.StrayMethods.Check</text>
<text text-anchor="middle" x="299.5" y="-77.5" font-family="Helvetica,sans-Serif" font-size="10.00">ArenaScore</text>
</a>
</g>
</g>
<!-- Node1&#45;&gt;Node2 -->
<g id="edge1_Node000001_Node000002" class="edge">
<title>Node1&#45;&gt;Node2</title>
<g id="a_edge1_Node000001_Node000002"><a xlink:title=" ">
<path fill="none" stroke="#63b8ff" d="M185.21,-85.5C193.7,-85.5 202.28,-85.5 210.74,-85.5"/>
<polygon fill="#63b8ff" stroke="#63b8ff" points="210.96,-89 220.96,-85.5 210.96,-82 210.96,-89"/>
</a>
</g>
</g>
<!-- Node3 -->
<g id="Node000003" class="node">
<title>Node3</title>
<g id="a_Node000003"><a xlink:href="../../de/d1d/classTerraria_1_1Collision_a3d36193fc4343b52d6d0f3d7149b3e13.html#a3d36193fc4343b52d6d0f3d7149b3e13" target="_top" xlink:title=" ">
<polygon fill="white" stroke="#666666" points="739,-219.5 602,-219.5 602,-189.5 739,-189.5 739,-219.5"/>
<text text-anchor="start" x="610" y="-207.5" font-family="Helvetica,sans-Serif" font-size="10.00">Terraria.Collision.Expand</text>
<text text-anchor="middle" x="670.5" y="-196.5" font-family="Helvetica,sans-Serif" font-size="10.00">Vertically</text>
</a>
</g>
</g>
<!-- Node2&#45;&gt;Node3 -->
<g id="edge2_Node000002_Node000003" class="edge">
<title>Node2&#45;&gt;Node3</title>
<g id="a_edge2_Node000002_Node000003"><a xlink:title=" ">
<path fill="none" stroke="#63b8ff" d="M323.49,-100.58C345.79,-114.58 381,-135.09 414,-147.5 471.83,-169.25 540.28,-183.97 591.78,-193"/>
<polygon fill="#63b8ff" stroke="#63b8ff" points="591.39,-196.48 601.84,-194.73 592.58,-189.58 591.39,-196.48"/>
</a>
</g>
</g>
<!-- Node6 -->
<g id="Node000006" class="node">
<title>Node6</title>
<g id="a_Node000006"><a xlink:href="../../dc/de5/classTerraria_1_1Dust_afa5d4a4540bc17a4bd017d9bd66ab42a.html#afa5d4a4540bc17a4bd017d9bd66ab42a" target="_top" xlink:title=" ">
<polygon fill="white" stroke="#666666" points="918.5,-76 786.5,-76 786.5,-57 918.5,-57 918.5,-76"/>
<text text-anchor="middle" x="852.5" y="-64" font-family="Helvetica,sans-Serif" font-size="10.00">Terraria.Dust.QuickDust</text>
</a>
</g>
</g>
<!-- Node2&#45;&gt;Node6 -->
<g id="edge5_Node000002_Node000006" class="edge">
<title>Node2&#45;&gt;Node6</title>
<g id="a_edge5_Node000002_Node000006"><a xlink:title=" ">
<path fill="none" stroke="#63b8ff" d="M378.21,-79.25C439.06,-74.69 525.86,-68.9 602,-66.5 660.41,-64.66 726.54,-64.76 776.04,-65.27"/>
<polygon fill="#63b8ff" stroke="#63b8ff" points="776.3,-68.77 786.34,-65.38 776.38,-61.77 776.3,-68.77"/>
</a>
</g>
</g>
<!-- Node7 -->
<g id="Node000007" class="node">
<title>Node7</title>
<g id="a_Node000007"><a xlink:href="../../dc/de5/classTerraria_1_1Dust_a1fb6a80e64bd2ac11259071037ae7d2a.html#a1fb6a80e64bd2ac11259071037ae7d2a" target="_top" xlink:title=" ">
<polygon fill="white" stroke="#666666" points="566,-19 414,-19 414,0 566,0 566,-19"/>
<text text-anchor="middle" x="490" y="-7" font-family="Helvetica,sans-Serif" font-size="10.00">Terraria.Dust.QuickDustLine</text>
</a>
</g>
</g>
<!-- Node2&#45;&gt;Node7 -->
<g id="edge7_Node000002_Node000007" class="edge">
<title>Node2&#45;&gt;Node7</title>
<g id="a_edge7_Node000002_Node000007"><a xlink:title=" ">
<path fill="none" stroke="#63b8ff" d="M330.9,-70.36C353.52,-59.4 385.3,-44.62 414,-33.5 424.44,-29.45 435.88,-25.54 446.61,-22.09"/>
<polygon fill="#63b8ff" stroke="#63b8ff" points="447.73,-25.4 456.22,-19.06 445.63,-18.73 447.73,-25.4"/>
</a>
</g>
</g>
<!-- Node8 -->
<g id="Node000008" class="node">
<title>Node8</title>
<g id="a_Node000008"><a xlink:href="../../d5/de1/classTerraria_1_1StrayMethods_a24995b009db14016486cddb0d8d70a5f.html#a24995b009db14016486cddb0d8d70a5f" target="_top" xlink:title=" ">
<polygon fill="white" stroke="#666666" points="565.5,-138.5 414.5,-138.5 414.5,-108.5 565.5,-108.5 565.5,-138.5"/>
<text text-anchor="start" x="422.5" y="-126.5" font-family="Helvetica,sans-Serif" font-size="10.00">Terraria.StrayMethods.Send</text>
<text text-anchor="middle" x="490" y="-115.5" font-family="Helvetica,sans-Serif" font-size="10.00">Walker</text>
</a>
</g>
</g>
<!-- Node2&#45;&gt;Node8 -->
<g id="edge9_Node000002_Node000008" class="edge">
<title>Node2&#45;&gt;Node8</title>
<g id="a_edge9_Node000002_Node000008"><a xlink:title=" ">
<path fill="none" stroke="#63b8ff" d="M375,-100.52C384.73,-102.48 394.74,-104.5 404.62,-106.49"/>
<polygon fill="#63b8ff" stroke="#63b8ff" points="403.93,-109.92 414.42,-108.47 405.31,-103.06 403.93,-109.92"/>
</a>
</g>
</g>
<!-- Node4 -->
<g id="Node000004" class="node">
<title>Node4</title>
<g id="a_Node000004"><a xlink:href="../../de/da1/classTerraria_1_1WorldGen_adf59bfc3a2909993f72f0c69a5eaf553.html#adf59bfc3a2909993f72f0c69a5eaf553" target="_top" xlink:title=" ">
<polygon fill="white" stroke="#666666" points="924,-214 781,-214 781,-195 924,-195 924,-214"/>
<text text-anchor="middle" x="852.5" y="-202" font-family="Helvetica,sans-Serif" font-size="10.00">Terraria.WorldGen.InWorld</text>
</a>
</g>
</g>
<!-- Node3&#45;&gt;Node4 -->
<g id="edge3_Node000003_Node000004" class="edge">
<title>Node3&#45;&gt;Node4</title>
<g id="a_edge3_Node000003_Node000004"><a xlink:title=" ">
<path fill="none" stroke="#63b8ff" d="M739.04,-204.5C749.39,-204.5 760.18,-204.5 770.78,-204.5"/>
<polygon fill="#63b8ff" stroke="#63b8ff" points="770.88,-208 780.88,-204.5 770.88,-201 770.88,-208"/>
</a>
</g>
</g>
<!-- Node5 -->
<g id="Node000005" class="node">
<title>Node5</title>
<g id="a_Node000005"><a xlink:href="../../de/da1/classTerraria_1_1WorldGen_a4c2c40056132899194514bb271372568.html#a4c2c40056132899194514bb271372568" target="_top" xlink:title=" ">
<polygon fill="white" stroke="#666666" points="930,-174 775,-174 775,-155 930,-155 930,-174"/>
<text text-anchor="middle" x="852.5" y="-162" font-family="Helvetica,sans-Serif" font-size="10.00">Terraria.WorldGen.SolidTile3</text>
</a>
</g>
</g>
<!-- Node3&#45;&gt;Node5 -->
<g id="edge4_Node000003_Node000005" class="edge">
<title>Node3&#45;&gt;Node5</title>
<g id="a_edge4_Node000003_Node000005"><a xlink:title=" ">
<path fill="none" stroke="#63b8ff" d="M739.04,-189.49C758.82,-185.09 780.16,-180.35 798.87,-176.2"/>
<polygon fill="#63b8ff" stroke="#63b8ff" points="799.68,-179.6 808.68,-174.01 798.16,-172.77 799.68,-179.6"/>
</a>
</g>
</g>
<!-- Node6&#45;&gt;Node6 -->
<g id="edge6_Node000006_Node000006" class="edge">
<title>Node6&#45;&gt;Node6</title>
<g id="a_edge6_Node000006_Node000006"><a xlink:title=" ">
<path fill="none" stroke="#63b8ff" d="M824.45,-76.08C810.8,-84.73 820.15,-94 852.5,-94 874.74,-94 886.11,-89.62 886.61,-84.07"/>
<polygon fill="#63b8ff" stroke="#63b8ff" points="889.38,-81.94 880.55,-76.08 883.8,-86.17 889.38,-81.94"/>
</a>
</g>
</g>
<!-- Node7&#45;&gt;Node6 -->
<g id="edge8_Node000007_Node000006" class="edge">
<title>Node7&#45;&gt;Node6</title>
<g id="a_edge8_Node000007_Node000006"><a xlink:title=" ">
<path fill="none" stroke="#63b8ff" d="M566.14,-13.07C615.59,-16.33 681.56,-22.4 739,-33.5 764.65,-38.46 792.86,-46.74 814.61,-53.76"/>
<polygon fill="#63b8ff" stroke="#63b8ff" points="813.53,-57.09 824.12,-56.89 815.71,-50.44 813.53,-57.09"/>
</a>
</g>
</g>
<!-- Node8&#45;&gt;Node3 -->
<g id="edge10_Node000008_Node000003" class="edge">
<title>Node8&#45;&gt;Node3</title>
<g id="a_edge10_Node000008_Node000003"><a xlink:title=" ">
<path fill="none" stroke="#63b8ff" d="M522.45,-138.57C544.61,-149.1 575.01,-163.39 602,-175.5 609.2,-178.73 616.86,-182.1 624.34,-185.34"/>
<polygon fill="#63b8ff" stroke="#63b8ff" points="623.11,-188.62 633.67,-189.36 625.88,-182.19 623.11,-188.62"/>
</a>
</g>
</g>
<!-- Node8&#45;&gt;Node5 -->
<g id="edge14_Node000008_Node000005" class="edge">
<title>Node8&#45;&gt;Node5</title>
<g id="a_edge14_Node000008_Node000005"><a xlink:title=" ">
<path fill="none" stroke="#63b8ff" d="M565.61,-133.09C577.77,-134.6 590.23,-136.12 602,-137.5 656.03,-143.83 716.72,-150.41 764.71,-155.49"/>
<polygon fill="#63b8ff" stroke="#63b8ff" points="764.43,-158.98 774.75,-156.55 765.17,-152.02 764.43,-158.98"/>
</a>
</g>
</g>
<!-- Node8&#45;&gt;Node6 -->
<g id="edge13_Node000008_Node000006" class="edge">
<title>Node8&#45;&gt;Node6</title>
<g id="a_edge13_Node000008_Node000006"><a xlink:title=" ">
<path fill="none" stroke="#63b8ff" d="M565.73,-122.61C615.3,-120.84 681.56,-116.21 739,-104.5 766.68,-98.86 796.95,-88.37 819.12,-79.84"/>
<polygon fill="#63b8ff" stroke="#63b8ff" points="820.66,-82.99 828.69,-76.08 818.11,-76.48 820.66,-82.99"/>
</a>
</g>
</g>
<!-- Node9 -->
<g id="Node000009" class="node">
<title>Node9</title>
<g id="a_Node000009"><a xlink:href="../../dc/de5/classTerraria_1_1Dust_a6311b541d23f8fe6b741e62145cbe5cd.html#a6311b541d23f8fe6b741e62145cbe5cd" target="_top" xlink:title=" ">
<polygon fill="white" stroke="#666666" points="734.5,-95 606.5,-95 606.5,-76 734.5,-76 734.5,-95"/>
<text text-anchor="middle" x="670.5" y="-83" font-family="Helvetica,sans-Serif" font-size="10.00">Terraria.Dust.QuickBox</text>
</a>
</g>
</g>
<!-- Node8&#45;&gt;Node9 -->
<g id="edge11_Node000008_Node000009" class="edge">
<title>Node8&#45;&gt;Node9</title>
<g id="a_edge11_Node000008_Node000009"><a xlink:title=" ">
<path fill="none" stroke="#63b8ff" d="M561.55,-108.48C579.22,-104.72 597.92,-100.74 614.7,-97.17"/>
<polygon fill="#63b8ff" stroke="#63b8ff" points="615.82,-100.51 624.87,-95 614.36,-93.66 615.82,-100.51"/>
</a>
</g>
</g>
<!-- Node9&#45;&gt;Node6 -->
<g id="edge12_Node000009_Node000006" class="edge">
<title>Node9&#45;&gt;Node6</title>
<g id="a_edge12_Node000009_Node000006"><a xlink:title=" ">
<path fill="none" stroke="#63b8ff" d="M734.71,-78.83C748.16,-77.41 762.49,-75.9 776.33,-74.43"/>
<polygon fill="#63b8ff" stroke="#63b8ff" points="776.73,-77.91 786.31,-73.38 776,-70.95 776.73,-77.91"/>
</a>
</g>
</g>
</g>
</svg>
