<?xml version="1.0" encoding="UTF-8" standalone="no"?>
<!DOCTYPE svg PUBLIC "-//W3C//DTD SVG 1.1//EN"
 "http://www.w3.org/Graphics/SVG/1.1/DTD/svg11.dtd">
<!-- Generated by graphviz version 2.43.0 (0)
 -->
<!-- Title: Terraria.Graphics.WindowStateController.TryMovingToScreen Pages: 1 -->
<svg width="396pt" height="157pt"
 viewBox="0.00 0.00 396.00 157.00" xmlns="http://www.w3.org/2000/svg" xmlns:xlink="http://www.w3.org/1999/xlink">
<g id="graph0" class="graph" transform="scale(1 1) rotate(0) translate(4 153)">
<title>Terraria.Graphics.WindowStateController.TryMovingToScreen</title>
<!-- Node1 -->
<g id="Node000001" class="node">
<title>Node1</title>
<g id="a_Node000001"><a xlink:title=" ">
<polygon fill="#999999" stroke="#666666" points="186,-89.5 0,-89.5 0,-59.5 186,-59.5 186,-89.5"/>
<text text-anchor="start" x="8" y="-77.5" font-family="Helvetica,sans-Serif" font-size="10.00">Terraria.Graphics.Window</text>
<text text-anchor="middle" x="93" y="-66.5" font-family="Helvetica,sans-Serif" font-size="10.00">StateController.TryMovingToScreen</text>
</a>
</g>
</g>
<!-- Node2 -->
<g id="Node000002" class="node">
<title>Node2</title>
<g id="a_Node000002"><a xlink:href="../../de/d81/classTerraria_1_1Graphics_1_1WindowStateController_a52c43b38f09a40dadc8ae3773030ee32.html#a52c43b38f09a40dadc8ae3773030ee32" target="_top" xlink:title=" ">
<polygon fill="white" stroke="#666666" points="388,-149 222,-149 222,-108 388,-108 388,-149"/>
<text text-anchor="start" x="230" y="-137" font-family="Helvetica,sans-Serif" font-size="10.00">Terraria.Graphics.Window</text>
<text text-anchor="start" x="230" y="-126" font-family="Helvetica,sans-Serif" font-size="10.00">StateController.IsVisibleOnAny</text>
<text text-anchor="middle" x="305" y="-115" font-family="Helvetica,sans-Serif" font-size="10.00">Screen</text>
</a>
</g>
</g>
<!-- Node1&#45;&gt;Node2 -->
<g id="edge1_Node000001_Node000002" class="edge">
<title>Node1&#45;&gt;Node2</title>
<g id="a_edge1_Node000001_Node000002"><a xlink:title=" ">
<path fill="none" stroke="#63b8ff" d="M152.5,-89.54C171.67,-94.47 193.43,-100.07 214.37,-105.45"/>
<polygon fill="#63b8ff" stroke="#63b8ff" points="213.68,-108.89 224.24,-107.99 215.42,-102.11 213.68,-108.89"/>
</a>
</g>
</g>
<!-- Node3 -->
<g id="Node000003" class="node">
<title>Node3</title>
<g id="a_Node000003"><a xlink:href="../../de/d81/classTerraria_1_1Graphics_1_1WindowStateController_a91aa5daf50db5f797338b18d7d56b00a.html#a91aa5daf50db5f797338b18d7d56b00a" target="_top" xlink:title=" ">
<polygon fill="white" stroke="#666666" points="385,-89.5 225,-89.5 225,-59.5 385,-59.5 385,-89.5"/>
<text text-anchor="start" x="233" y="-77.5" font-family="Helvetica,sans-Serif" font-size="10.00">Terraria.Graphics.Window</text>
<text text-anchor="middle" x="305" y="-66.5" font-family="Helvetica,sans-Serif" font-size="10.00">StateController.TryGetBounds</text>
</a>
</g>
</g>
<!-- Node1&#45;&gt;Node3 -->
<g id="edge2_Node000001_Node000003" class="edge">
<title>Node1&#45;&gt;Node3</title>
<g id="a_edge2_Node000001_Node000003"><a xlink:title=" ">
<path fill="none" stroke="#63b8ff" d="M186.11,-74.5C195.58,-74.5 205.19,-74.5 214.63,-74.5"/>
<polygon fill="#63b8ff" stroke="#63b8ff" points="214.79,-78 224.79,-74.5 214.79,-71 214.79,-78"/>
</a>
</g>
</g>
<!-- Node4 -->
<g id="Node000004" class="node">
<title>Node4</title>
<g id="a_Node000004"><a xlink:href="../../de/d81/classTerraria_1_1Graphics_1_1WindowStateController_ae65cdee8281cf51b0d81e00e0b477309.html#ae65cdee8281cf51b0d81e00e0b477309" target="_top" xlink:title=" ">
<polygon fill="white" stroke="#666666" points="384,-41 226,-41 226,0 384,0 384,-41"/>
<text text-anchor="start" x="234" y="-29" font-family="Helvetica,sans-Serif" font-size="10.00">Terraria.Graphics.Window</text>
<text text-anchor="start" x="234" y="-18" font-family="Helvetica,sans-Serif" font-size="10.00">StateController.WouldViewFit</text>
<text text-anchor="middle" x="305" y="-7" font-family="Helvetica,sans-Serif" font-size="10.00">InScreen</text>
</a>
</g>
</g>
<!-- Node1&#45;&gt;Node4 -->
<g id="edge3_Node000001_Node000004" class="edge">
<title>Node1&#45;&gt;Node4</title>
<g id="a_edge3_Node000001_Node000004"><a xlink:title=" ">
<path fill="none" stroke="#63b8ff" d="M152.5,-59.46C172.18,-54.4 194.59,-48.63 216.03,-43.12"/>
<polygon fill="#63b8ff" stroke="#63b8ff" points="216.98,-46.49 225.8,-40.61 215.24,-39.71 216.98,-46.49"/>
</a>
</g>
</g>
</g>
</svg>
