<?xml version="1.0" encoding="UTF-8" standalone="no"?>
<!DOCTYPE svg PUBLIC "-//W3C//DTD SVG 1.1//EN"
 "http://www.w3.org/Graphics/SVG/1.1/DTD/svg11.dtd">
<!-- Generated by graphviz version 2.43.0 (0)
 -->
<!-- Title: Netplay.KickClient Pages: 1 -->
<svg width="1545pt" height="76pt"
 viewBox="0.00 0.00 1545.00 75.50" xmlns="http://www.w3.org/2000/svg" xmlns:xlink="http://www.w3.org/1999/xlink">
<g id="graph0" class="graph" transform="scale(1 1) rotate(0) translate(4 71.5)">
<title>Netplay.KickClient</title>
<polygon fill="white" stroke="transparent" points="-4,4 -4,-71.5 1541,-71.5 1541,4 -4,4"/>
<!-- Node1 -->
<g id="node1" class="node">
<title>Node1</title>
<g id="a_node1"><a xlink:title=" ">
<polygon fill="#bfbfbf" stroke="black" points="1431,-28 1431,-47 1537,-47 1537,-28 1431,-28"/>
<text text-anchor="middle" x="1484" y="-35" font-family="Helvetica,sans-Serif" font-size="10.00">Netplay.KickClient</text>
</a>
</g>
</g>
<!-- Node2 -->
<g id="node2" class="node">
<title>Node2</title>
<g id="a_node2"><a xlink:href="../../d9/d43/classNetplay_a27e69d531bc4df446b5b2ccd0c982cef.html#a27e69d531bc4df446b5b2ccd0c982cef" target="_top" xlink:title=" ">
<polygon fill="white" stroke="black" points="1225,-28 1225,-47 1395,-47 1395,-28 1225,-28"/>
<text text-anchor="middle" x="1310" y="-35" font-family="Helvetica,sans-Serif" font-size="10.00">Netplay.OnConnectionAccepted</text>
</a>
</g>
</g>
<!-- Node1&#45;&gt;Node2 -->
<g id="edge1" class="edge">
<title>Node1&#45;&gt;Node2</title>
<path fill="none" stroke="midnightblue" d="M1420.67,-37.5C1412.42,-37.5 1403.85,-37.5 1395.31,-37.5"/>
<polygon fill="midnightblue" stroke="midnightblue" points="1420.93,-41 1430.93,-37.5 1420.93,-34 1420.93,-41"/>
</g>
<!-- Node3 -->
<g id="node3" class="node">
<title>Node3</title>
<g id="a_node3"><a xlink:href="../../d9/d43/classNetplay_aed448a6962842d5bf53e44a61b442bc7.html#aed448a6962842d5bf53e44a61b442bc7" target="_top" xlink:title=" ">
<polygon fill="white" stroke="black" points="1065,-28 1065,-47 1189,-47 1189,-28 1065,-28"/>
<text text-anchor="middle" x="1127" y="-35" font-family="Helvetica,sans-Serif" font-size="10.00">Netplay.StartListening</text>
</a>
</g>
</g>
<!-- Node2&#45;&gt;Node3 -->
<g id="edge2" class="edge">
<title>Node2&#45;&gt;Node3</title>
<path fill="none" stroke="midnightblue" d="M1214.72,-37.5C1206.08,-37.5 1197.49,-37.5 1189.25,-37.5"/>
<polygon fill="midnightblue" stroke="midnightblue" points="1214.86,-41 1224.86,-37.5 1214.86,-34 1214.86,-41"/>
</g>
<!-- Node4 -->
<g id="node4" class="node">
<title>Node4</title>
<g id="a_node4"><a xlink:href="../../d9/d43/classNetplay_a082aac8a47a0743dfa682c1101797f63.html#a082aac8a47a0743dfa682c1101797f63" target="_top" xlink:title=" ">
<polygon fill="white" stroke="black" points="732,-48 732,-67 862,-67 862,-48 732,-48"/>
<text text-anchor="middle" x="797" y="-55" font-family="Helvetica,sans-Serif" font-size="10.00">Netplay.InitializeServer</text>
</a>
</g>
</g>
<!-- Node3&#45;&gt;Node4 -->
<g id="edge3" class="edge">
<title>Node3&#45;&gt;Node4</title>
<path fill="none" stroke="midnightblue" d="M1054.61,-41.85C997.26,-45.35 917.42,-50.22 862.09,-53.59"/>
<polygon fill="midnightblue" stroke="midnightblue" points="1054.92,-45.34 1064.69,-41.24 1054.5,-38.35 1054.92,-45.34"/>
</g>
<!-- Node10 -->
<g id="node10" class="node">
<title>Node10</title>
<g id="a_node10"><a xlink:href="../../d9/d43/classNetplay_abd2ef037dcf88033d3512f02cc2ffef3.html#abd2ef037dcf88033d3512f02cc2ffef3" target="_top" xlink:title=" ">
<polygon fill="white" stroke="black" points="898,-0.5 898,-30.5 1029,-30.5 1029,-0.5 898,-0.5"/>
<text text-anchor="start" x="906" y="-18.5" font-family="Helvetica,sans-Serif" font-size="10.00">Netplay.StartListeningIf</text>
<text text-anchor="middle" x="963.5" y="-7.5" font-family="Helvetica,sans-Serif" font-size="10.00">Needed</text>
</a>
</g>
</g>
<!-- Node3&#45;&gt;Node10 -->
<g id="edge9" class="edge">
<title>Node3&#45;&gt;Node10</title>
<path fill="none" stroke="midnightblue" d="M1054.95,-27.82C1046.37,-26.65 1037.63,-25.46 1029.14,-24.31"/>
<polygon fill="midnightblue" stroke="midnightblue" points="1054.56,-31.3 1064.94,-29.18 1055.51,-24.36 1054.56,-31.3"/>
</g>
<!-- Node5 -->
<g id="node5" class="node">
<title>Node5</title>
<g id="a_node5"><a xlink:href="../../d9/d43/classNetplay_a590524b73a6968cac18b03c516460f1e.html#a590524b73a6968cac18b03c516460f1e" target="_top" xlink:title=" ">
<polygon fill="white" stroke="black" points="585,-28 585,-47 696,-47 696,-28 585,-28"/>
<text text-anchor="middle" x="640.5" y="-35" font-family="Helvetica,sans-Serif" font-size="10.00">Netplay.StartServer</text>
</a>
</g>
</g>
<!-- Node4&#45;&gt;Node5 -->
<g id="edge4" class="edge">
<title>Node4&#45;&gt;Node5</title>
<path fill="none" stroke="midnightblue" d="M721.81,-47.9C713.25,-46.79 704.63,-45.67 696.39,-44.61"/>
<polygon fill="midnightblue" stroke="midnightblue" points="721.45,-51.38 731.82,-49.19 722.35,-44.44 721.45,-51.38"/>
</g>
<!-- Node6 -->
<g id="node6" class="node">
<title>Node6</title>
<g id="a_node6"><a xlink:href="../../db/d4a/classMain_aa0692b82ef0f39d28df7aae89daa2480.html#aa0692b82ef0f39d28df7aae89daa2480" target="_top" xlink:title=" ">
<polygon fill="white" stroke="black" points="464,-28 464,-47 549,-47 549,-28 464,-28"/>
<text text-anchor="middle" x="506.5" y="-35" font-family="Helvetica,sans-Serif" font-size="10.00">Main.DedServ</text>
</a>
</g>
</g>
<!-- Node5&#45;&gt;Node6 -->
<g id="edge5" class="edge">
<title>Node5&#45;&gt;Node6</title>
<path fill="none" stroke="midnightblue" d="M574.54,-37.5C565.88,-37.5 557.19,-37.5 549.08,-37.5"/>
<polygon fill="midnightblue" stroke="midnightblue" points="574.67,-41 584.67,-37.5 574.67,-34 574.67,-41"/>
</g>
<!-- Node7 -->
<g id="node7" class="node">
<title>Node7</title>
<g id="a_node7"><a xlink:href="../../dc/db5/classProgram_a7046fff16d913c8ea7291c3efa4cb4ed.html#a7046fff16d913c8ea7291c3efa4cb4ed" target="_top" xlink:title=" ">
<polygon fill="white" stroke="black" points="319,-28 319,-47 428,-47 428,-28 319,-28"/>
<text text-anchor="middle" x="373.5" y="-35" font-family="Helvetica,sans-Serif" font-size="10.00">Program.RunGame</text>
</a>
</g>
</g>
<!-- Node6&#45;&gt;Node7 -->
<g id="edge6" class="edge">
<title>Node6&#45;&gt;Node7</title>
<path fill="none" stroke="midnightblue" d="M453.44,-37.5C445.2,-37.5 436.65,-37.5 428.37,-37.5"/>
<polygon fill="midnightblue" stroke="midnightblue" points="453.69,-41 463.69,-37.5 453.69,-34 453.69,-41"/>
</g>
<!-- Node8 -->
<g id="node8" class="node">
<title>Node8</title>
<g id="a_node8"><a xlink:href="../../dc/db5/classProgram_ac64eaca42975d2a403f25794697886fc.html#ac64eaca42975d2a403f25794697886fc" target="_top" xlink:title=" ">
<polygon fill="white" stroke="black" points="158,-28 158,-47 283,-47 283,-28 158,-28"/>
<text text-anchor="middle" x="220.5" y="-35" font-family="Helvetica,sans-Serif" font-size="10.00">Program.LaunchGame</text>
</a>
</g>
</g>
<!-- Node7&#45;&gt;Node8 -->
<g id="edge7" class="edge">
<title>Node7&#45;&gt;Node8</title>
<path fill="none" stroke="midnightblue" d="M308.68,-37.5C300.25,-37.5 291.62,-37.5 283.23,-37.5"/>
<polygon fill="midnightblue" stroke="midnightblue" points="308.84,-41 318.84,-37.5 308.84,-34 308.84,-41"/>
</g>
<!-- Node9 -->
<g id="node9" class="node">
<title>Node9</title>
<g id="a_node9"><a xlink:href="../../df/d9e/classWindowsLaunch_a48fb8633919b7d48cc10a62bd116902a.html#a48fb8633919b7d48cc10a62bd116902a" target="_top" xlink:title=" ">
<polygon fill="white" stroke="black" points="0,-28 0,-47 122,-47 122,-28 0,-28"/>
<text text-anchor="middle" x="61" y="-35" font-family="Helvetica,sans-Serif" font-size="10.00">WindowsLaunch.Main</text>
</a>
</g>
</g>
<!-- Node8&#45;&gt;Node9 -->
<g id="edge8" class="edge">
<title>Node8&#45;&gt;Node9</title>
<path fill="none" stroke="midnightblue" d="M147.43,-37.5C138.95,-37.5 130.36,-37.5 122.07,-37.5"/>
<polygon fill="midnightblue" stroke="midnightblue" points="147.7,-41 157.7,-37.5 147.7,-34 147.7,-41"/>
</g>
<!-- Node11 -->
<g id="node11" class="node">
<title>Node11</title>
<g id="a_node11"><a xlink:href="../../d9/d43/classNetplay_a9bf1b625d1ef8c04b06a097383b29f4f.html#a9bf1b625d1ef8c04b06a097383b29f4f" target="_top" xlink:title=" ">
<polygon fill="white" stroke="black" points="741.5,-9 741.5,-28 852.5,-28 852.5,-9 741.5,-9"/>
<text text-anchor="middle" x="797" y="-16" font-family="Helvetica,sans-Serif" font-size="10.00">Netplay.ServerLoop</text>
</a>
</g>
</g>
<!-- Node10&#45;&gt;Node11 -->
<g id="edge10" class="edge">
<title>Node10&#45;&gt;Node11</title>
<path fill="none" stroke="midnightblue" d="M887.64,-16.87C875.81,-17.08 863.77,-17.3 852.52,-17.51"/>
<polygon fill="midnightblue" stroke="midnightblue" points="888.02,-20.36 897.96,-16.68 887.9,-13.36 888.02,-20.36"/>
</g>
<!-- Node11&#45;&gt;Node5 -->
<g id="edge11" class="edge">
<title>Node11&#45;&gt;Node5</title>
<path fill="none" stroke="midnightblue" d="M731.04,-26.49C719.45,-27.91 707.49,-29.38 696.23,-30.77"/>
<polygon fill="midnightblue" stroke="midnightblue" points="731.6,-29.95 741.09,-25.25 730.74,-23 731.6,-29.95"/>
</g>
</g>
</svg>
