<?xml version="1.0" encoding="UTF-8" standalone="no"?>
<!DOCTYPE svg PUBLIC "-//W3C//DTD SVG 1.1//EN"
 "http://www.w3.org/Graphics/SVG/1.1/DTD/svg11.dtd">
<!-- Generated by graphviz version 2.43.0 (0)
 -->
<!-- Title: Terraria.Chat.ChatHelper.SendChatMessageToClient Pages: 1 -->
<svg width="1393pt" height="483pt"
 viewBox="0.00 0.00 1393.00 483.00" xmlns="http://www.w3.org/2000/svg" xmlns:xlink="http://www.w3.org/1999/xlink">
<g id="graph0" class="graph" transform="scale(1 1) rotate(0) translate(4 479)">
<title>Terraria.Chat.ChatHelper.SendChatMessageToClient</title>
<!-- Node1 -->
<g id="Node000001" class="node">
<title>Node1</title>
<g id="a_Node000001"><a xlink:title=" ">
<polygon fill="#999999" stroke="#666666" points="146,-195 0,-195 0,-165 146,-165 146,-195"/>
<text text-anchor="start" x="8" y="-183" font-family="Helvetica,sans-Serif" font-size="10.00">Terraria.Chat.ChatHelper.</text>
<text text-anchor="middle" x="73" y="-172" font-family="Helvetica,sans-Serif" font-size="10.00">SendChatMessageToClient</text>
</a>
</g>
</g>
<!-- Node2 -->
<g id="Node000002" class="node">
<title>Node2</title>
<g id="a_Node000002"><a xlink:href="../../db/df5/classTerraria_1_1Chat_1_1ChatHelper_adc4bc37605ecf0d429ac06bb7fef42f5.html#adc4bc37605ecf0d429ac06bb7fef42f5" target="_top" xlink:title=" ">
<polygon fill="white" stroke="#666666" points="340,-195 182,-195 182,-165 340,-165 340,-195"/>
<text text-anchor="start" x="190" y="-183" font-family="Helvetica,sans-Serif" font-size="10.00">Terraria.Chat.ChatHelper.</text>
<text text-anchor="middle" x="261" y="-172" font-family="Helvetica,sans-Serif" font-size="10.00">SendChatMessageToClientAs</text>
</a>
</g>
</g>
<!-- Node1&#45;&gt;Node2 -->
<g id="edge1_Node000001_Node000002" class="edge">
<title>Node1&#45;&gt;Node2</title>
<g id="a_edge1_Node000001_Node000002"><a xlink:title=" ">
<path fill="none" stroke="#63b8ff" d="M146.18,-180C154.45,-180 162.96,-180 171.42,-180"/>
<polygon fill="#63b8ff" stroke="#63b8ff" points="171.7,-183.5 181.7,-180 171.7,-176.5 171.7,-183.5"/>
</a>
</g>
</g>
<!-- Node3 -->
<g id="Node000003" class="node">
<title>Node3</title>
<g id="a_Node000003"><a xlink:href="../../db/df5/classTerraria_1_1Chat_1_1ChatHelper_acbde5de17f2e673cfc11a0fa5a511fae.html#acbde5de17f2e673cfc11a0fa5a511fae" target="_top" xlink:title=" ">
<polygon fill="white" stroke="#666666" points="535,-336 396,-336 396,-306 535,-306 535,-336"/>
<text text-anchor="start" x="404" y="-324" font-family="Helvetica,sans-Serif" font-size="10.00">Terraria.Chat.ChatHelper.</text>
<text text-anchor="middle" x="465.5" y="-313" font-family="Helvetica,sans-Serif" font-size="10.00">DisplayMessage</text>
</a>
</g>
</g>
<!-- Node2&#45;&gt;Node3 -->
<g id="edge2_Node000002_Node000003" class="edge">
<title>Node2&#45;&gt;Node3</title>
<g id="a_edge2_Node000002_Node000003"><a xlink:title=" ">
<path fill="none" stroke="#63b8ff" d="M283.67,-195.09C319.96,-220.36 393.1,-271.29 434.38,-300.03"/>
<polygon fill="#63b8ff" stroke="#63b8ff" points="432.47,-302.96 442.68,-305.81 436.47,-297.22 432.47,-302.96"/>
</a>
</g>
</g>
<!-- Node19 -->
<g id="Node000019" class="node">
<title>Node19</title>
<g id="a_Node000019"><a xlink:href="../../de/d3b/classTerraria_1_1Net_1_1NetManager_ac8c525479b37baa3d598b1a7ef6fe7f6.html#ac8c525479b37baa3d598b1a7ef6fe7f6" target="_top" xlink:title=" ">
<polygon fill="white" stroke="#666666" points="535,-195 396,-195 396,-165 535,-165 535,-195"/>
<text text-anchor="start" x="404" y="-183" font-family="Helvetica,sans-Serif" font-size="10.00">Terraria.Net.NetManager.</text>
<text text-anchor="middle" x="465.5" y="-172" font-family="Helvetica,sans-Serif" font-size="10.00">SendToClient</text>
</a>
</g>
</g>
<!-- Node2&#45;&gt;Node19 -->
<g id="edge22_Node000002_Node000019" class="edge">
<title>Node2&#45;&gt;Node19</title>
<g id="a_edge22_Node000002_Node000019"><a xlink:title=" ">
<path fill="none" stroke="#63b8ff" d="M340,-180C354.94,-180 370.59,-180 385.56,-180"/>
<polygon fill="#63b8ff" stroke="#63b8ff" points="385.79,-183.5 395.79,-180 385.79,-176.5 385.79,-183.5"/>
</a>
</g>
</g>
<!-- Node24 -->
<g id="Node000024" class="node">
<title>Node24</title>
<g id="a_Node000024"><a xlink:href="../../d3/df3/classTerraria_1_1GameContent_1_1NetModules_1_1NetTextModule_abf4d290dbfbc7f24435098c0b79e3883.html#abf4d290dbfbc7f24435098c0b79e3883" target="_top" xlink:title=" ">
<polygon fill="white" stroke="#666666" points="555,-128.5 376,-128.5 376,-87.5 555,-87.5 555,-128.5"/>
<text text-anchor="start" x="384" y="-116.5" font-family="Helvetica,sans-Serif" font-size="10.00">Terraria.GameContent.Net</text>
<text text-anchor="start" x="384" y="-105.5" font-family="Helvetica,sans-Serif" font-size="10.00">Modules.NetTextModule.Serialize</text>
<text text-anchor="middle" x="465.5" y="-94.5" font-family="Helvetica,sans-Serif" font-size="10.00">ServerMessage</text>
</a>
</g>
</g>
<!-- Node2&#45;&gt;Node24 -->
<g id="edge27_Node000002_Node000024" class="edge">
<title>Node2&#45;&gt;Node24</title>
<g id="a_edge27_Node000002_Node000024"><a xlink:title=" ">
<path fill="none" stroke="#63b8ff" d="M304.45,-164.91C331.24,-155.38 366.44,-142.87 397,-132"/>
<polygon fill="#63b8ff" stroke="#63b8ff" points="398.49,-135.18 406.74,-128.54 396.15,-128.59 398.49,-135.18"/>
</a>
</g>
</g>
<!-- Node4 -->
<g id="Node000004" class="node">
<title>Node4</title>
<g id="a_Node000004"><a xlink:href="../../db/df5/classTerraria_1_1Chat_1_1ChatHelper_a2873223aea4baf8cc37f8c6f8cd1fe16.html#a2873223aea4baf8cc37f8c6f8cd1fe16" target="_top" xlink:title=" ">
<polygon fill="white" stroke="#666666" points="755.5,-475 616.5,-475 616.5,-445 755.5,-445 755.5,-475"/>
<text text-anchor="start" x="624.5" y="-463" font-family="Helvetica,sans-Serif" font-size="10.00">Terraria.Chat.ChatHelper.</text>
<text text-anchor="middle" x="686" y="-452" font-family="Helvetica,sans-Serif" font-size="10.00">CacheMessage</text>
</a>
</g>
</g>
<!-- Node3&#45;&gt;Node4 -->
<g id="edge3_Node000003_Node000004" class="edge">
<title>Node3&#45;&gt;Node4</title>
<g id="a_edge3_Node000003_Node000004"><a xlink:title=" ">
<path fill="none" stroke="#63b8ff" d="M478.55,-336.23C498.98,-361 542.91,-409.86 591,-436 595.9,-438.66 601.11,-441.04 606.46,-443.16"/>
<polygon fill="#63b8ff" stroke="#63b8ff" points="605.62,-446.58 616.21,-446.7 608.01,-440 605.62,-446.58"/>
</a>
</g>
</g>
<!-- Node5 -->
<g id="Node000005" class="node">
<title>Node5</title>
<g id="a_Node000005"><a xlink:href="../../d7/d98/classTerraria_1_1GameContent_1_1UI_1_1Chat_1_1NameTagHandler_a5363ff74c8976dfc28cb76db3e53a98a.html#a5363ff74c8976dfc28cb76db3e53a98a" target="_top" xlink:title=" ">
<polygon fill="white" stroke="#666666" points="781,-427 591,-427 591,-397 781,-397 781,-427"/>
<text text-anchor="start" x="599" y="-415" font-family="Helvetica,sans-Serif" font-size="10.00">Terraria.GameContent.UI.</text>
<text text-anchor="middle" x="686" y="-404" font-family="Helvetica,sans-Serif" font-size="10.00">Chat.NameTagHandler.GenerateTag</text>
</a>
</g>
</g>
<!-- Node3&#45;&gt;Node5 -->
<g id="edge4_Node000003_Node000005" class="edge">
<title>Node3&#45;&gt;Node5</title>
<g id="a_edge4_Node000003_Node000005"><a xlink:title=" ">
<path fill="none" stroke="#63b8ff" d="M490.46,-336.18C514.93,-351.13 554.41,-373.73 591,-388 596.48,-390.14 602.21,-392.14 608.03,-394"/>
<polygon fill="#63b8ff" stroke="#63b8ff" points="607.28,-397.43 617.86,-397 609.32,-390.73 607.28,-397.43"/>
</a>
</g>
</g>
<!-- Node6 -->
<g id="Node000006" class="node">
<title>Node6</title>
<g id="a_Node000006"><a xlink:href="../../dc/d67/structTerraria_1_1Player_1_1OverheadMessage_a1fc31c3d0639503a0c472c5ca7026039.html#a1fc31c3d0639503a0c472c5ca7026039" target="_top" xlink:title=" ">
<polygon fill="white" stroke="#666666" points="754.5,-379 617.5,-379 617.5,-349 754.5,-349 754.5,-379"/>
<text text-anchor="start" x="625.5" y="-367" font-family="Helvetica,sans-Serif" font-size="10.00">Terraria.Player.Overhead</text>
<text text-anchor="middle" x="686" y="-356" font-family="Helvetica,sans-Serif" font-size="10.00">Message.NewMessage</text>
</a>
</g>
</g>
<!-- Node3&#45;&gt;Node6 -->
<g id="edge5_Node000003_Node000006" class="edge">
<title>Node3&#45;&gt;Node6</title>
<g id="a_edge5_Node000003_Node000006"><a xlink:title=" ">
<path fill="none" stroke="#63b8ff" d="M535.04,-334.49C558.03,-339.01 583.84,-344.09 607.47,-348.74"/>
<polygon fill="#63b8ff" stroke="#63b8ff" points="606.97,-352.21 617.46,-350.71 608.32,-345.34 606.97,-352.21"/>
</a>
</g>
</g>
<!-- Node11 -->
<g id="Node000011" class="node">
<title>Node11</title>
<g id="a_Node000011"><a xlink:href="../../da/dd5/classTerraria_1_1Main_abb54754e892a3693c53f8d91632eb20a.html#abb54754e892a3693c53f8d91632eb20a" target="_top" xlink:title=" ">
<polygon fill="white" stroke="#666666" points="770,-330.5 602,-330.5 602,-311.5 770,-311.5 770,-330.5"/>
<text text-anchor="middle" x="686" y="-318.5" font-family="Helvetica,sans-Serif" font-size="10.00">Terraria.Main.NewTextMultiline</text>
</a>
</g>
</g>
<!-- Node3&#45;&gt;Node11 -->
<g id="edge12_Node000003_Node000011" class="edge">
<title>Node3&#45;&gt;Node11</title>
<g id="a_edge12_Node000003_Node000011"><a xlink:title=" ">
<path fill="none" stroke="#63b8ff" d="M535.04,-321C552.96,-321 572.6,-321 591.58,-321"/>
<polygon fill="#63b8ff" stroke="#63b8ff" points="591.74,-324.5 601.74,-321 591.74,-317.5 591.74,-324.5"/>
</a>
</g>
</g>
<!-- Node13 -->
<g id="Node000013" class="node">
<title>Node13</title>
<g id="a_Node000013"><a xlink:href="../../db/df5/classTerraria_1_1Chat_1_1ChatHelper_a923699edfbaa3f2f8f18cf6282edcf53.html#a923699edfbaa3f2f8f18cf6282edcf53" target="_top" xlink:title=" ">
<polygon fill="white" stroke="#666666" points="755.5,-293 616.5,-293 616.5,-263 755.5,-263 755.5,-293"/>
<text text-anchor="start" x="624.5" y="-281" font-family="Helvetica,sans-Serif" font-size="10.00">Terraria.Chat.ChatHelper.</text>
<text text-anchor="middle" x="686" y="-270" font-family="Helvetica,sans-Serif" font-size="10.00">ShouldCacheMessage</text>
</a>
</g>
</g>
<!-- Node3&#45;&gt;Node13 -->
<g id="edge15_Node000003_Node000013" class="edge">
<title>Node3&#45;&gt;Node13</title>
<g id="a_edge15_Node000003_Node000013"><a xlink:title=" ">
<path fill="none" stroke="#63b8ff" d="M535.04,-307.51C557.7,-303.05 583.1,-298.05 606.46,-293.46"/>
<polygon fill="#63b8ff" stroke="#63b8ff" points="607.2,-296.88 616.33,-291.51 605.84,-290.01 607.2,-296.88"/>
</a>
</g>
</g>
<!-- Node14 -->
<g id="Node000014" class="node">
<title>Node14</title>
<g id="a_Node000014"><a xlink:href="../../dd/dd4/classTerraria_1_1Localization_1_1NetworkText_a82763de30a06fd8107fa4f3e40d8d20d.html#a82763de30a06fd8107fa4f3e40d8d20d" target="_top" xlink:title=" ">
<polygon fill="white" stroke="#666666" points="765.5,-242 606.5,-242 606.5,-212 765.5,-212 765.5,-242"/>
<text text-anchor="start" x="614.5" y="-230" font-family="Helvetica,sans-Serif" font-size="10.00">Terraria.Localization.Network</text>
<text text-anchor="middle" x="686" y="-219" font-family="Helvetica,sans-Serif" font-size="10.00">Text.ToString</text>
</a>
</g>
</g>
<!-- Node3&#45;&gt;Node14 -->
<g id="edge16_Node000003_Node000014" class="edge">
<title>Node3&#45;&gt;Node14</title>
<g id="a_edge16_Node000003_Node000014"><a xlink:title=" ">
<path fill="none" stroke="#63b8ff" d="M491.01,-305.77C515.58,-291 554.85,-268.72 591,-254 598.8,-250.82 607.1,-247.87 615.43,-245.16"/>
<polygon fill="#63b8ff" stroke="#63b8ff" points="616.68,-248.43 625.17,-242.1 614.59,-241.75 616.68,-248.43"/>
</a>
</g>
</g>
<!-- Node7 -->
<g id="Node000007" class="node">
<title>Node7</title>
<g id="a_Node000007"><a xlink:href="../../d7/df6/classTerraria_1_1UI_1_1Chat_1_1ChatManager_ad0daac781e8696c59955af964519db95.html#ad0daac781e8696c59955af964519db95" target="_top" xlink:title=" ">
<polygon fill="white" stroke="#666666" points="982.5,-440 819.5,-440 819.5,-410 982.5,-410 982.5,-440"/>
<text text-anchor="start" x="827.5" y="-428" font-family="Helvetica,sans-Serif" font-size="10.00">Terraria.UI.Chat.ChatManager.</text>
<text text-anchor="middle" x="901" y="-417" font-family="Helvetica,sans-Serif" font-size="10.00">GetStringSize</text>
</a>
</g>
</g>
<!-- Node6&#45;&gt;Node7 -->
<g id="edge6_Node000006_Node000007" class="edge">
<title>Node6&#45;&gt;Node7</title>
<g id="a_edge6_Node000006_Node000007"><a xlink:title=" ">
<path fill="none" stroke="#63b8ff" d="M747.8,-379.04C758.87,-381.91 770.3,-384.97 781,-388 801.57,-393.82 823.99,-400.66 843.76,-406.86"/>
<polygon fill="#63b8ff" stroke="#63b8ff" points="842.95,-410.28 853.54,-409.95 845.06,-403.6 842.95,-410.28"/>
</a>
</g>
</g>
<!-- Node8 -->
<g id="Node000008" class="node">
<title>Node8</title>
<g id="a_Node000008"><a xlink:href="../../d7/df6/classTerraria_1_1UI_1_1Chat_1_1ChatManager_af687cd1f70060817f5984ef2b554cf40.html#af687cd1f70060817f5984ef2b554cf40" target="_top" xlink:title=" ">
<polygon fill="white" stroke="#666666" points="1185,-418 1022,-418 1022,-388 1185,-388 1185,-418"/>
<text text-anchor="start" x="1030" y="-406" font-family="Helvetica,sans-Serif" font-size="10.00">Terraria.UI.Chat.ChatManager.</text>
<text text-anchor="middle" x="1103.5" y="-395" font-family="Helvetica,sans-Serif" font-size="10.00">ParseMessage</text>
</a>
</g>
</g>
<!-- Node6&#45;&gt;Node8 -->
<g id="edge11_Node000006_Node000008" class="edge">
<title>Node6&#45;&gt;Node8</title>
<g id="a_edge11_Node000006_Node000008"><a xlink:title=" ">
<path fill="none" stroke="#63b8ff" d="M754.68,-370.35C824.56,-376.91 934,-387.18 1011.43,-394.45"/>
<polygon fill="#63b8ff" stroke="#63b8ff" points="1011.38,-397.96 1021.66,-395.41 1012.03,-390.99 1011.38,-397.96"/>
</a>
</g>
</g>
<!-- Node7&#45;&gt;Node7 -->
<g id="edge7_Node000007_Node000007" class="edge">
<title>Node7&#45;&gt;Node7</title>
<g id="a_edge7_Node000007_Node000007"><a xlink:title=" ">
<path fill="none" stroke="#63b8ff" d="M865.49,-440.28C857.6,-449.41 869.44,-458 901,-458 919.74,-458 931.53,-454.97 936.36,-450.6"/>
<polygon fill="#63b8ff" stroke="#63b8ff" points="939.86,-450.33 936.51,-440.28 932.86,-450.22 939.86,-450.33"/>
</a>
</g>
</g>
<!-- Node7&#45;&gt;Node8 -->
<g id="edge8_Node000007_Node000008" class="edge">
<title>Node7&#45;&gt;Node8</title>
<g id="a_edge8_Node000007_Node000008"><a xlink:title=" ">
<path fill="none" stroke="#63b8ff" d="M982.68,-416.15C992.29,-415.09 1002.16,-414.01 1011.89,-412.94"/>
<polygon fill="#63b8ff" stroke="#63b8ff" points="1012.42,-416.4 1021.98,-411.84 1011.66,-409.45 1012.42,-416.4"/>
</a>
</g>
</g>
<!-- Node9 -->
<g id="Node000009" class="node">
<title>Node9</title>
<g id="a_Node000009"><a xlink:href="../../d7/df6/classTerraria_1_1UI_1_1Chat_1_1ChatManager_ad57d7ce4542b2df5cd9ff15c86855f3f.html#ad57d7ce4542b2df5cd9ff15c86855f3f" target="_top" xlink:title=" ">
<polygon fill="white" stroke="#666666" points="1385,-442 1222,-442 1222,-412 1385,-412 1385,-442"/>
<text text-anchor="start" x="1230" y="-430" font-family="Helvetica,sans-Serif" font-size="10.00">Terraria.UI.Chat.ChatManager.</text>
<text text-anchor="middle" x="1303.5" y="-419" font-family="Helvetica,sans-Serif" font-size="10.00">GetHandler</text>
</a>
</g>
</g>
<!-- Node8&#45;&gt;Node9 -->
<g id="edge9_Node000008_Node000009" class="edge">
<title>Node8&#45;&gt;Node9</title>
<g id="a_edge9_Node000008_Node000009"><a xlink:title=" ">
<path fill="none" stroke="#63b8ff" d="M1185.03,-412.76C1193.82,-413.83 1202.82,-414.92 1211.72,-416"/>
<polygon fill="#63b8ff" stroke="#63b8ff" points="1211.37,-419.48 1221.72,-417.21 1212.21,-412.53 1211.37,-419.48"/>
</a>
</g>
</g>
<!-- Node10 -->
<g id="Node000010" class="node">
<title>Node10</title>
<g id="a_Node000010"><a xlink:href="../../dc/d25/interfaceTerraria_1_1UI_1_1Chat_1_1ITagHandler_aa5a15f340434dc9990b2b10b306642a6.html#aa5a15f340434dc9990b2b10b306642a6" target="_top" xlink:title=" ">
<polygon fill="white" stroke="#666666" points="1381,-394 1226,-394 1226,-364 1381,-364 1381,-394"/>
<text text-anchor="start" x="1234" y="-382" font-family="Helvetica,sans-Serif" font-size="10.00">Terraria.UI.Chat.ITagHandler.</text>
<text text-anchor="middle" x="1303.5" y="-371" font-family="Helvetica,sans-Serif" font-size="10.00">Parse</text>
</a>
</g>
</g>
<!-- Node8&#45;&gt;Node10 -->
<g id="edge10_Node000008_Node000010" class="edge">
<title>Node8&#45;&gt;Node10</title>
<g id="a_edge10_Node000008_Node000010"><a xlink:title=" ">
<path fill="none" stroke="#63b8ff" d="M1185.03,-393.24C1195.15,-392.01 1205.54,-390.75 1215.74,-389.52"/>
<polygon fill="#63b8ff" stroke="#63b8ff" points="1216.37,-392.97 1225.88,-388.29 1215.53,-386.02 1216.37,-392.97"/>
</a>
</g>
</g>
<!-- Node12 -->
<g id="Node000012" class="node">
<title>Node12</title>
<g id="a_Node000012"><a xlink:href="../../d3/d78/classTerraria_1_1Audio_1_1SoundEngine_a65b4b1502c673e839c9bd620e23b2c94.html#a65b4b1502c673e839c9bd620e23b2c94" target="_top" xlink:title=" ">
<polygon fill="white" stroke="#666666" points="977.5,-336 824.5,-336 824.5,-306 977.5,-306 977.5,-336"/>
<text text-anchor="start" x="832.5" y="-324" font-family="Helvetica,sans-Serif" font-size="10.00">Terraria.Audio.SoundEngine.</text>
<text text-anchor="middle" x="901" y="-313" font-family="Helvetica,sans-Serif" font-size="10.00">PlaySound</text>
</a>
</g>
</g>
<!-- Node11&#45;&gt;Node12 -->
<g id="edge13_Node000011_Node000012" class="edge">
<title>Node11&#45;&gt;Node12</title>
<g id="a_edge13_Node000011_Node000012"><a xlink:title=" ">
<path fill="none" stroke="#63b8ff" d="M770.27,-321C784.63,-321 799.59,-321 814.03,-321"/>
<polygon fill="#63b8ff" stroke="#63b8ff" points="814.43,-324.5 824.43,-321 814.43,-317.5 814.43,-324.5"/>
</a>
</g>
</g>
<!-- Node12&#45;&gt;Node12 -->
<g id="edge14_Node000012_Node000012" class="edge">
<title>Node12&#45;&gt;Node12</title>
<g id="a_edge14_Node000012_Node000012"><a xlink:title=" ">
<path fill="none" stroke="#63b8ff" d="M865.49,-336.28C857.6,-345.41 869.44,-354 901,-354 919.74,-354 931.53,-350.97 936.36,-346.6"/>
<polygon fill="#63b8ff" stroke="#63b8ff" points="939.86,-346.33 936.51,-336.28 932.86,-346.22 939.86,-346.33"/>
</a>
</g>
</g>
<!-- Node15 -->
<g id="Node000015" class="node">
<title>Node15</title>
<g id="a_Node000015"><a xlink:href="../../d4/d8f/classTerraria_1_1Localization_1_1Language_ae4636a4800b9ecbaa498954520462f78.html#ae4636a4800b9ecbaa498954520462f78" target="_top" xlink:title=" ">
<polygon fill="white" stroke="#666666" points="985,-288 817,-288 817,-258 985,-258 985,-288"/>
<text text-anchor="start" x="825" y="-276" font-family="Helvetica,sans-Serif" font-size="10.00">Terraria.Localization.Language.</text>
<text text-anchor="middle" x="901" y="-265" font-family="Helvetica,sans-Serif" font-size="10.00">GetTextValue</text>
</a>
</g>
</g>
<!-- Node14&#45;&gt;Node15 -->
<g id="edge17_Node000014_Node000015" class="edge">
<title>Node14&#45;&gt;Node15</title>
<g id="a_edge17_Node000014_Node000015"><a xlink:title=" ">
<path fill="none" stroke="#63b8ff" d="M756.74,-242.06C777.17,-246.47 799.65,-251.33 820.62,-255.86"/>
<polygon fill="#63b8ff" stroke="#63b8ff" points="819.95,-259.29 830.46,-257.98 821.43,-252.45 819.95,-259.29"/>
</a>
</g>
</g>
<!-- Node17 -->
<g id="Node000017" class="node">
<title>Node17</title>
<g id="a_Node000017"><a xlink:href="../../dd/dd4/classTerraria_1_1Localization_1_1NetworkText_aaade702fe346ef5d217fea67020986a9.html#aaade702fe346ef5d217fea67020986a9" target="_top" xlink:title=" ">
<polygon fill="white" stroke="#666666" points="980.5,-240 821.5,-240 821.5,-210 980.5,-210 980.5,-240"/>
<text text-anchor="start" x="829.5" y="-228" font-family="Helvetica,sans-Serif" font-size="10.00">Terraria.Localization.Network</text>
<text text-anchor="middle" x="901" y="-217" font-family="Helvetica,sans-Serif" font-size="10.00">Text.SetToEmptyLiteral</text>
</a>
</g>
</g>
<!-- Node14&#45;&gt;Node17 -->
<g id="edge19_Node000014_Node000017" class="edge">
<title>Node14&#45;&gt;Node17</title>
<g id="a_edge19_Node000014_Node000017"><a xlink:title=" ">
<path fill="none" stroke="#63b8ff" d="M765.71,-226.26C780.44,-226.12 795.93,-225.98 810.95,-225.84"/>
<polygon fill="#63b8ff" stroke="#63b8ff" points="811.29,-229.33 821.26,-225.74 811.23,-222.33 811.29,-229.33"/>
</a>
</g>
</g>
<!-- Node18 -->
<g id="Node000018" class="node">
<title>Node18</title>
<g id="a_Node000018"><a xlink:href="../../dd/dd4/classTerraria_1_1Localization_1_1NetworkText_a0e756743934141abf7225f02a6e2441b.html#a0e756743934141abf7225f02a6e2441b" target="_top" xlink:title=" ">
<polygon fill="white" stroke="#666666" points="980.5,-174 821.5,-174 821.5,-144 980.5,-144 980.5,-174"/>
<text text-anchor="start" x="829.5" y="-162" font-family="Helvetica,sans-Serif" font-size="10.00">Terraria.Localization.Network</text>
<text text-anchor="middle" x="901" y="-151" font-family="Helvetica,sans-Serif" font-size="10.00">Text.ToDebugInfoString</text>
</a>
</g>
</g>
<!-- Node14&#45;&gt;Node18 -->
<g id="edge20_Node000014_Node000018" class="edge">
<title>Node14&#45;&gt;Node18</title>
<g id="a_edge20_Node000014_Node000018"><a xlink:title=" ">
<path fill="none" stroke="#63b8ff" d="M734.01,-211.99C766.12,-201.74 808.86,-188.1 842.93,-177.22"/>
<polygon fill="#63b8ff" stroke="#63b8ff" points="844.28,-180.46 852.74,-174.09 842.15,-173.79 844.28,-180.46"/>
</a>
</g>
</g>
<!-- Node16 -->
<g id="Node000016" class="node">
<title>Node16</title>
<g id="a_Node000016"><a xlink:href="../../d8/d74/classTerraria_1_1Localization_1_1LanguageManager_a9f1901e50105d9873d2fdf8816e122de.html#a9f1901e50105d9873d2fdf8816e122de" target="_top" xlink:title=" ">
<polygon fill="white" stroke="#666666" points="1186,-288 1021,-288 1021,-258 1186,-258 1186,-288"/>
<text text-anchor="start" x="1029" y="-276" font-family="Helvetica,sans-Serif" font-size="10.00">Terraria.Localization.Language</text>
<text text-anchor="middle" x="1103.5" y="-265" font-family="Helvetica,sans-Serif" font-size="10.00">Manager.GetTextValue</text>
</a>
</g>
</g>
<!-- Node15&#45;&gt;Node16 -->
<g id="edge18_Node000015_Node000016" class="edge">
<title>Node15&#45;&gt;Node16</title>
<g id="a_edge18_Node000015_Node000016"><a xlink:title=" ">
<path fill="none" stroke="#63b8ff" d="M985.29,-273C993.63,-273 1002.12,-273 1010.54,-273"/>
<polygon fill="#63b8ff" stroke="#63b8ff" points="1010.76,-276.5 1020.76,-273 1010.76,-269.5 1010.76,-276.5"/>
</a>
</g>
</g>
<!-- Node18&#45;&gt;Node18 -->
<g id="edge21_Node000018_Node000018" class="edge">
<title>Node18&#45;&gt;Node18</title>
<g id="a_edge21_Node000018_Node000018"><a xlink:title=" ">
<path fill="none" stroke="#63b8ff" d="M865.49,-174.28C857.6,-183.41 869.44,-192 901,-192 919.74,-192 931.53,-188.97 936.36,-184.6"/>
<polygon fill="#63b8ff" stroke="#63b8ff" points="939.86,-184.33 936.51,-174.28 932.86,-184.22 939.86,-184.33"/>
</a>
</g>
</g>
<!-- Node20 -->
<g id="Node000020" class="node">
<title>Node20</title>
<g id="a_Node000020"><a xlink:href="../../de/d3b/classTerraria_1_1Net_1_1NetManager_a64bad5c584b7c4897a2a088beecacbef.html#a64bad5c584b7c4897a2a088beecacbef" target="_top" xlink:title=" ">
<polygon fill="white" stroke="#666666" points="755.5,-102 616.5,-102 616.5,-72 755.5,-72 755.5,-102"/>
<text text-anchor="start" x="624.5" y="-90" font-family="Helvetica,sans-Serif" font-size="10.00">Terraria.Net.NetManager.</text>
<text text-anchor="middle" x="686" y="-79" font-family="Helvetica,sans-Serif" font-size="10.00">SendData</text>
</a>
</g>
</g>
<!-- Node19&#45;&gt;Node20 -->
<g id="edge23_Node000019_Node000020" class="edge">
<title>Node19&#45;&gt;Node20</title>
<g id="a_edge23_Node000019_Node000020"><a xlink:title=" ">
<path fill="none" stroke="#63b8ff" d="M526.1,-164.99C535.87,-162.01 545.8,-158.66 555,-155 588.72,-141.58 625.18,-122.03 650.89,-107.34"/>
<polygon fill="#63b8ff" stroke="#63b8ff" points="652.93,-110.19 659.84,-102.16 649.43,-104.13 652.93,-110.19"/>
</a>
</g>
</g>
<!-- Node21 -->
<g id="Node000021" class="node">
<title>Node21</title>
<g id="a_Node000021"><a xlink:href="../../d4/dcd/interfaceTerraria_1_1Net_1_1Sockets_1_1ISocket_a7148918709f1fbc785ee65e08ee5217c.html#a7148918709f1fbc785ee65e08ee5217c" target="_top" xlink:title=" ">
<polygon fill="white" stroke="#666666" points="978.5,-126 823.5,-126 823.5,-96 978.5,-96 978.5,-126"/>
<text text-anchor="start" x="831.5" y="-114" font-family="Helvetica,sans-Serif" font-size="10.00">Terraria.Net.Sockets.ISocket.</text>
<text text-anchor="middle" x="901" y="-103" font-family="Helvetica,sans-Serif" font-size="10.00">AsyncSend</text>
</a>
</g>
</g>
<!-- Node20&#45;&gt;Node21 -->
<g id="edge24_Node000020_Node000021" class="edge">
<title>Node20&#45;&gt;Node21</title>
<g id="a_edge24_Node000020_Node000021"><a xlink:title=" ">
<path fill="none" stroke="#63b8ff" d="M755.57,-94.73C774,-96.8 794.18,-99.08 813.45,-101.25"/>
<polygon fill="#63b8ff" stroke="#63b8ff" points="813.11,-104.73 823.44,-102.37 813.89,-97.78 813.11,-104.73"/>
</a>
</g>
</g>
<!-- Node22 -->
<g id="Node000022" class="node">
<title>Node22</title>
<g id="a_Node000022"><a xlink:href="../../de/d3b/classTerraria_1_1Net_1_1NetManager_a7f88d801d8fff49d525870935f4f3d89.html#a7f88d801d8fff49d525870935f4f3d89" target="_top" xlink:title=" ">
<polygon fill="white" stroke="#666666" points="970.5,-78 831.5,-78 831.5,-48 970.5,-48 970.5,-78"/>
<text text-anchor="start" x="839.5" y="-66" font-family="Helvetica,sans-Serif" font-size="10.00">Terraria.Net.NetManager.</text>
<text text-anchor="middle" x="901" y="-55" font-family="Helvetica,sans-Serif" font-size="10.00">SendCallback</text>
</a>
</g>
</g>
<!-- Node20&#45;&gt;Node22 -->
<g id="edge25_Node000020_Node000022" class="edge">
<title>Node20&#45;&gt;Node22</title>
<g id="a_edge25_Node000020_Node000022"><a xlink:title=" ">
<path fill="none" stroke="#63b8ff" d="M755.57,-79.27C776.46,-76.92 799.59,-74.31 821.11,-71.89"/>
<polygon fill="#63b8ff" stroke="#63b8ff" points="821.65,-75.35 831.2,-70.75 820.87,-68.39 821.65,-75.35"/>
</a>
</g>
</g>
<!-- Node23 -->
<g id="Node000023" class="node">
<title>Node23</title>
<g id="a_Node000023"><a xlink:href="../../d2/d84/structTerraria_1_1Net_1_1NetPacket_a22335ad9a27fdcda6d3c1952eeb6d308.html#a22335ad9a27fdcda6d3c1952eeb6d308" target="_top" xlink:title=" ">
<polygon fill="white" stroke="#666666" points="980.5,-30 821.5,-30 821.5,0 980.5,0 980.5,-30"/>
<text text-anchor="start" x="829.5" y="-18" font-family="Helvetica,sans-Serif" font-size="10.00">Terraria.Net.NetPacket.Shrink</text>
<text text-anchor="middle" x="901" y="-7" font-family="Helvetica,sans-Serif" font-size="10.00">ToFit</text>
</a>
</g>
</g>
<!-- Node20&#45;&gt;Node23 -->
<g id="edge26_Node000020_Node000023" class="edge">
<title>Node20&#45;&gt;Node23</title>
<g id="a_edge26_Node000020_Node000023"><a xlink:title=" ">
<path fill="none" stroke="#63b8ff" d="M725.42,-71.98C751.17,-62.13 785.92,-49.22 817,-39 823.08,-37 829.44,-35 835.81,-33.06"/>
<polygon fill="#63b8ff" stroke="#63b8ff" points="837.23,-36.29 845.8,-30.06 835.22,-29.58 837.23,-36.29"/>
</a>
</g>
</g>
<!-- Node24&#45;&gt;Node24 -->
<g id="edge28_Node000024_Node000024" class="edge">
<title>Node24&#45;&gt;Node24</title>
<g id="a_edge28_Node000024_Node000024"><a xlink:title=" ">
<path fill="none" stroke="#63b8ff" d="M428.01,-128.6C423.92,-138.15 436.41,-146.5 465.5,-146.5 483.68,-146.5 495.38,-143.24 500.6,-138.46"/>
<polygon fill="#63b8ff" stroke="#63b8ff" points="504.03,-139.14 502.99,-128.6 497.23,-137.49 504.03,-139.14"/>
</a>
</g>
</g>
</g>
</svg>
