<?xml version="1.0" encoding="UTF-8" standalone="no"?>
<!DOCTYPE svg PUBLIC "-//W3C//DTD SVG 1.1//EN"
 "http://www.w3.org/Graphics/SVG/1.1/DTD/svg11.dtd">
<!-- Generated by graphviz version 2.43.0 (0)
 -->
<!-- Title: UIBestiaryEntryGrid.UIBestiaryEntryGrid Pages: 1 -->
<!--zoomable 430 -->
<svg id="main" version="1.1" xmlns="http://www.w3.org/2000/svg" xmlns:xlink="http://www.w3.org/1999/xlink" xml:space="preserve" onload="init(evt)">
<style type="text/css"><![CDATA[
.edge:hover path { stroke: red; }
.edge:hover polygon { stroke: red; fill: red; }
]]></style>
<script type="text/javascript"><![CDATA[
var edges = document.getElementsByTagName('g');
if (edges && edges.length) {
  for (var i=0;i<edges.length;i++) {
    if (edges[i].id.substr(0,4)=='edge') {
      edges[i].setAttribute('class','edge');
    }
  }
}
]]></script>
        <defs>
                <circle id="rim" cx="0" cy="0" r="7"/>
                <circle id="rim2" cx="0" cy="0" r="3.5"/>
                <g id="zoomPlus">
                        <use xlink:href="#rim" fill="#404040">
                                <set attributeName="fill" to="#808080" begin="zoomplus.mouseover" end="zoomplus.mouseout"/>
                        </use>
                        <path d="M-4,0h8M0,-4v8" fill="none" stroke="white" stroke-width="1.5" pointer-events="none"/>
                </g>
                <g id="zoomMin">
                        <use xlink:href="#rim" fill="#404040">
                                <set attributeName="fill" to="#808080" begin="zoomminus.mouseover" end="zoomminus.mouseout"/>
                        </use>
                        <path d="M-4,0h8" fill="none" stroke="white" stroke-width="1.5" pointer-events="none"/>
                </g>
                <g id="dirArrow">
                        <path fill="none" stroke="white" stroke-width="1.5" d="M0,-3.0v7 M-2.5,-0.5L0,-3.0L2.5,-0.5"/>
                </g>
               <g id="resetDef">
                       <use xlink:href="#rim2" fill="#404040">
                               <set attributeName="fill" to="#808080" begin="reset.mouseover" end="reset.mouseout"/>
                       </use>
               </g>
        </defs>

<script type="text/javascript">
var viewWidth = 1141;
var viewHeight = 430;
var sectionId = 'dynsection-0';
</script>
<script xlink:href="../../svgpan.js"/>
<svg id="graph" class="graph">
<g id="viewport">
<title>UIBestiaryEntryGrid.UIBestiaryEntryGrid</title>
<polygon fill="white" stroke="transparent" points="-4,4 -4,-426 1137,-426 1137,4 -4,4"/>
<!-- Node1 -->
<g id="node1" class="node">
<title>Node1</title>
<g id="a_node1"><a xlink:title=" ">
<polygon fill="#bfbfbf" stroke="black" points="0,-33 0,-63 167,-63 167,-33 0,-33"/>
<text text-anchor="start" x="8" y="-51" font-family="Helvetica,sans-Serif" font-size="10.00">UIBestiaryEntryGrid.UIBestiary</text>
<text text-anchor="middle" x="83.5" y="-40" font-family="Helvetica,sans-Serif" font-size="10.00">EntryGrid</text>
</a>
</g>
</g>
<!-- Node2 -->
<g id="node2" class="node">
<title>Node2</title>
<g id="a_node2"><a xlink:href="../../da/d3a/classUIBestiaryEntryGrid_a8424037480e1e4d1410e4ff57d7e72a7.html#a8424037480e1e4d1410e4ff57d7e72a7" target="_top" xlink:title=" ">
<polygon fill="white" stroke="black" points="203,-115 203,-145 346,-145 346,-115 203,-115"/>
<text text-anchor="start" x="211" y="-133" font-family="Helvetica,sans-Serif" font-size="10.00">UIBestiaryEntryGrid.Fill</text>
<text text-anchor="middle" x="274.5" y="-122" font-family="Helvetica,sans-Serif" font-size="10.00">BestiarySpaceWithEntries</text>
</a>
</g>
</g>
<!-- Node1&#45;&gt;Node2 -->
<g id="edge1" class="edge">
<title>Node1&#45;&gt;Node2</title>
<path fill="none" stroke="midnightblue" d="M119.17,-63.04C150.11,-76.46 195.59,-96.2 229.16,-110.76"/>
<polygon fill="midnightblue" stroke="midnightblue" points="228.17,-114.15 238.73,-114.92 230.95,-107.73 228.17,-114.15"/>
</g>
<!-- Node19 -->
<g id="node19" class="node">
<title>Node19</title>
<g id="a_node19"><a xlink:href="../../da/d3a/classUIBestiaryEntryGrid_a20fd2fce1473b257ada049226606ab80.html#a20fd2fce1473b257ada049226606ab80" target="_top" xlink:title=" ">
<polygon fill="white" stroke="black" points="391.5,-14 391.5,-44 543.5,-44 543.5,-14 391.5,-14"/>
<text text-anchor="start" x="399.5" y="-32" font-family="Helvetica,sans-Serif" font-size="10.00">UIBestiaryEntryGrid.Update</text>
<text text-anchor="middle" x="467.5" y="-21" font-family="Helvetica,sans-Serif" font-size="10.00">Entries</text>
</a>
</g>
</g>
<!-- Node1&#45;&gt;Node19 -->
<g id="edge21" class="edge">
<title>Node1&#45;&gt;Node19</title>
<path fill="none" stroke="midnightblue" d="M167.39,-43.88C230.6,-40.73 317.38,-36.42 381.19,-33.24"/>
<polygon fill="midnightblue" stroke="midnightblue" points="381.41,-36.74 391.22,-32.74 381.06,-29.75 381.41,-36.74"/>
</g>
<!-- Node20 -->
<g id="node20" class="node">
<title>Node20</title>
<g id="a_node20"><a xlink:href="../../de/db3/classUIElement_a1f29861bcd6ed530a86ee95da524fdd6.html#a1f29861bcd6ed530a86ee95da524fdd6" target="_top" xlink:title=" ">
<polygon fill="white" stroke="black" points="212,-0.5 212,-19.5 337,-19.5 337,-0.5 212,-0.5"/>
<text text-anchor="middle" x="274.5" y="-7.5" font-family="Helvetica,sans-Serif" font-size="10.00">UIElement.SetPadding</text>
</a>
</g>
</g>
<!-- Node1&#45;&gt;Node20 -->
<g id="edge20" class="edge">
<title>Node1&#45;&gt;Node20</title>
<path fill="none" stroke="midnightblue" d="M159.2,-32.98C178.18,-29.17 198.27,-25.13 216.23,-21.52"/>
<polygon fill="midnightblue" stroke="midnightblue" points="217.13,-24.9 226.25,-19.5 215.75,-18.04 217.13,-24.9"/>
</g>
<!-- Node3 -->
<g id="node3" class="node">
<title>Node3</title>
<g id="a_node3"><a xlink:href="../../de/db3/classUIElement_aba285d19a4f931a415048ae87b65afb9.html#aba285d19a4f931a415048ae87b65afb9" target="_top" xlink:title=" ">
<polygon fill="white" stroke="black" points="414,-276.5 414,-295.5 521,-295.5 521,-276.5 414,-276.5"/>
<text text-anchor="middle" x="467.5" y="-283.5" font-family="Helvetica,sans-Serif" font-size="10.00">UIElement.Append</text>
</a>
</g>
</g>
<!-- Node2&#45;&gt;Node3 -->
<g id="edge2" class="edge">
<title>Node2&#45;&gt;Node3</title>
<path fill="none" stroke="midnightblue" d="M283.05,-145.43C297.85,-173.98 333.51,-234.96 382,-266 388.77,-270.33 396.39,-273.73 404.2,-276.39"/>
<polygon fill="midnightblue" stroke="midnightblue" points="403.2,-279.75 413.79,-279.29 405.23,-273.05 403.2,-279.75"/>
</g>
<!-- Node12 -->
<g id="node12" class="node">
<title>Node12</title>
<g id="a_node12"><a xlink:href="../../da/d3a/classUIBestiaryEntryGrid_aad6da8fc8da79a7b36160ddf2389c867.html#aad6da8fc8da79a7b36160ddf2389c867" target="_top" xlink:title=" ">
<polygon fill="white" stroke="black" points="382,-227 382,-257 553,-257 553,-227 382,-227"/>
<text text-anchor="start" x="390" y="-245" font-family="Helvetica,sans-Serif" font-size="10.00">UIBestiaryEntryGrid.FixBestiary</text>
<text text-anchor="middle" x="467.5" y="-234" font-family="Helvetica,sans-Serif" font-size="10.00">Range</text>
</a>
</g>
</g>
<!-- Node2&#45;&gt;Node12 -->
<g id="edge12" class="edge">
<title>Node2&#45;&gt;Node12</title>
<path fill="none" stroke="midnightblue" d="M289.98,-145.08C309.27,-164.37 345.27,-197.58 382,-217 386.26,-219.25 390.74,-221.32 395.34,-223.23"/>
<polygon fill="midnightblue" stroke="midnightblue" points="394.3,-226.58 404.89,-226.92 396.82,-220.05 394.3,-226.58"/>
</g>
<!-- Node13 -->
<g id="node13" class="node">
<title>Node13</title>
<g id="a_node13"><a xlink:href="../../da/d3a/classUIBestiaryEntryGrid_a5d6501a459f55bcf6a1d986d30020ccd.html#a5d6501a459f55bcf6a1d986d30020ccd" target="_top" xlink:title=" ">
<polygon fill="white" stroke="black" points="384,-178 384,-208 551,-208 551,-178 384,-178"/>
<text text-anchor="start" x="392" y="-196" font-family="Helvetica,sans-Serif" font-size="10.00">UIBestiaryEntryGrid.GetEntries</text>
<text text-anchor="middle" x="467.5" y="-185" font-family="Helvetica,sans-Serif" font-size="10.00">ToShow</text>
</a>
</g>
</g>
<!-- Node2&#45;&gt;Node13 -->
<g id="edge13" class="edge">
<title>Node2&#45;&gt;Node13</title>
<path fill="none" stroke="midnightblue" d="M316.03,-145.05C335.83,-152.26 360.07,-160.85 382,-168 389.18,-170.34 396.73,-172.71 404.25,-175.01"/>
<polygon fill="midnightblue" stroke="midnightblue" points="403.49,-178.43 414.07,-177.98 405.51,-171.73 403.49,-178.43"/>
</g>
<!-- Node16 -->
<g id="node16" class="node">
<title>Node16</title>
<g id="a_node16"><a xlink:href="../../de/db3/classUIElement_ab2827b9a164de86751e87ac278cf61b0.html#ab2827b9a164de86751e87ac278cf61b0" target="_top" xlink:title=" ">
<polygon fill="white" stroke="black" points="385.5,-139.5 385.5,-158.5 549.5,-158.5 549.5,-139.5 385.5,-139.5"/>
<text text-anchor="middle" x="467.5" y="-146.5" font-family="Helvetica,sans-Serif" font-size="10.00">UIElement.RemoveAllChildren</text>
</a>
</g>
</g>
<!-- Node2&#45;&gt;Node16 -->
<g id="edge16" class="edge">
<title>Node2&#45;&gt;Node16</title>
<path fill="none" stroke="midnightblue" d="M346.08,-137.02C355.54,-137.96 365.36,-138.94 375.12,-139.91"/>
<polygon fill="midnightblue" stroke="midnightblue" points="374.95,-143.41 385.25,-140.92 375.64,-136.44 374.95,-143.41"/>
</g>
<!-- Node17 -->
<g id="node17" class="node">
<title>Node17</title>
<g id="a_node17"><a xlink:href="../../d1/de0/structStyleDimension_a0c959bcdc133227ba2a5226e8cd4d4c4.html#a0c959bcdc133227ba2a5226e8cd4d4c4" target="_top" xlink:title=" ">
<polygon fill="white" stroke="black" points="411,-101.5 411,-120.5 524,-120.5 524,-101.5 411,-101.5"/>
<text text-anchor="middle" x="467.5" y="-108.5" font-family="Helvetica,sans-Serif" font-size="10.00">StyleDimension.Set</text>
</a>
</g>
</g>
<!-- Node2&#45;&gt;Node17 -->
<g id="edge17" class="edge">
<title>Node2&#45;&gt;Node17</title>
<path fill="none" stroke="midnightblue" d="M346.08,-122.98C363.93,-121.2 383.04,-119.3 400.65,-117.55"/>
<polygon fill="midnightblue" stroke="midnightblue" points="401.22,-121.01 410.83,-116.54 400.53,-114.05 401.22,-121.01"/>
</g>
<!-- Node18 -->
<g id="node18" class="node">
<title>Node18</title>
<g id="a_node18"><a xlink:href="../../de/db3/classUIElement_a1bc9a8d686f0103d5ad6371d8a4bc0a4.html#a1bc9a8d686f0103d5ad6371d8a4bc0a4" target="_top" xlink:title=" ">
<polygon fill="white" stroke="black" points="400,-63.5 400,-82.5 535,-82.5 535,-63.5 400,-63.5"/>
<text text-anchor="middle" x="467.5" y="-70.5" font-family="Helvetica,sans-Serif" font-size="10.00">UIElement.SetSnapPoint</text>
</a>
</g>
</g>
<!-- Node2&#45;&gt;Node18 -->
<g id="edge18" class="edge">
<title>Node2&#45;&gt;Node18</title>
<path fill="none" stroke="midnightblue" d="M314.08,-114.96C334.14,-107.46 359.18,-98.61 382,-92 390.8,-89.45 400.2,-87.04 409.42,-84.84"/>
<polygon fill="midnightblue" stroke="midnightblue" points="410.36,-88.22 419.31,-82.55 408.78,-81.4 410.36,-88.22"/>
</g>
<!-- Node2&#45;&gt;Node19 -->
<g id="edge19" class="edge">
<title>Node2&#45;&gt;Node19</title>
<path fill="none" stroke="midnightblue" d="M292.8,-114.86C312.97,-97.9 347.9,-70.63 382,-54 386.69,-51.71 391.64,-49.59 396.68,-47.63"/>
<polygon fill="midnightblue" stroke="midnightblue" points="398.27,-50.78 406.46,-44.06 395.87,-44.2 398.27,-50.78"/>
</g>
<!-- Node4 -->
<g id="node4" class="node">
<title>Node4</title>
<g id="a_node4"><a xlink:href="../../de/db3/classUIElement_aee194ceb3c88758159e31761805e6a9d.html#aee194ceb3c88758159e31761805e6a9d" target="_top" xlink:title=" ">
<polygon fill="white" stroke="black" points="602.5,-299.5 602.5,-318.5 730.5,-318.5 730.5,-299.5 602.5,-299.5"/>
<text text-anchor="middle" x="666.5" y="-306.5" font-family="Helvetica,sans-Serif" font-size="10.00">UIElement.Recalculate</text>
</a>
</g>
</g>
<!-- Node3&#45;&gt;Node4 -->
<g id="edge3" class="edge">
<title>Node3&#45;&gt;Node4</title>
<path fill="none" stroke="midnightblue" d="M521.03,-292.13C542.88,-294.68 568.6,-297.69 592.25,-300.45"/>
<polygon fill="midnightblue" stroke="midnightblue" points="591.9,-303.93 602.24,-301.61 592.71,-296.98 591.9,-303.93"/>
</g>
<!-- Node10 -->
<g id="node10" class="node">
<title>Node10</title>
<g id="a_node10"><a xlink:href="../../de/db3/classUIElement_a076aedca16efdf0972684e3548a0c73a.html#a076aedca16efdf0972684e3548a0c73a" target="_top" xlink:title=" ">
<polygon fill="white" stroke="black" points="611,-253.5 611,-272.5 722,-272.5 722,-253.5 611,-253.5"/>
<text text-anchor="middle" x="666.5" y="-260.5" font-family="Helvetica,sans-Serif" font-size="10.00">UIElement.Remove</text>
</a>
</g>
</g>
<!-- Node3&#45;&gt;Node10 -->
<g id="edge10" class="edge">
<title>Node3&#45;&gt;Node10</title>
<path fill="none" stroke="midnightblue" d="M521.03,-279.87C545.49,-277.01 574.81,-273.59 600.63,-270.57"/>
<polygon fill="midnightblue" stroke="midnightblue" points="601.18,-274.03 610.71,-269.4 600.37,-267.08 601.18,-274.03"/>
</g>
<!-- Node5 -->
<g id="node5" class="node">
<title>Node5</title>
<g id="a_node5"><a xlink:href="../../df/de1/classUserInterface_a0cfc3c35a0f4df271c43ed2d90975df1.html#a0cfc3c35a0f4df271c43ed2d90975df1" target="_top" xlink:title=" ">
<polygon fill="white" stroke="black" points="787.5,-402.5 787.5,-421.5 948.5,-421.5 948.5,-402.5 787.5,-402.5"/>
<text text-anchor="middle" x="868" y="-409.5" font-family="Helvetica,sans-Serif" font-size="10.00">UserInterface.GetDimensions</text>
</a>
</g>
</g>
<!-- Node4&#45;&gt;Node5 -->
<g id="edge4" class="edge">
<title>Node4&#45;&gt;Node5</title>
<path fill="none" stroke="midnightblue" d="M677.38,-318.76C695.87,-336.42 737.65,-373.67 780,-393 785.41,-395.47 791.15,-397.62 797.01,-399.5"/>
<polygon fill="midnightblue" stroke="midnightblue" points="796.36,-402.96 806.94,-402.42 798.33,-396.24 796.36,-402.96"/>
</g>
<!-- Node6 -->
<g id="node6" class="node">
<title>Node6</title>
<g id="a_node6"><a xlink:href="../../de/db3/classUIElement_a5030449fa3a7231b282fb98cfdf1ce01.html#a5030449fa3a7231b282fb98cfdf1ce01" target="_top" xlink:title=" ">
<polygon fill="white" stroke="black" points="780,-353 780,-383 956,-383 956,-353 780,-353"/>
<text text-anchor="start" x="788" y="-371" font-family="Helvetica,sans-Serif" font-size="10.00">UIElement.GetDimensionsBased</text>
<text text-anchor="middle" x="868" y="-360" font-family="Helvetica,sans-Serif" font-size="10.00">OnParentDimensions</text>
</a>
</g>
</g>
<!-- Node4&#45;&gt;Node6 -->
<g id="edge5" class="edge">
<title>Node4&#45;&gt;Node6</title>
<path fill="none" stroke="midnightblue" d="M698.99,-318.64C721.52,-325.51 752.6,-334.92 780,-343 787.82,-345.31 796.05,-347.7 804.2,-350.06"/>
<polygon fill="midnightblue" stroke="midnightblue" points="803.48,-353.5 814.06,-352.91 805.42,-346.77 803.48,-353.5"/>
</g>
<!-- Node8 -->
<g id="node8" class="node">
<title>Node8</title>
<g id="a_node8"><a xlink:href="../../de/db3/classUIElement_adc42b475f74d77f6fe008b8f1e77ad19.html#adc42b475f74d77f6fe008b8f1e77ad19" target="_top" xlink:title=" ">
<polygon fill="white" stroke="black" points="783,-314.5 783,-333.5 953,-333.5 953,-314.5 783,-314.5"/>
<text text-anchor="middle" x="868" y="-321.5" font-family="Helvetica,sans-Serif" font-size="10.00">UIElement.GetInnerDimensions</text>
</a>
</g>
</g>
<!-- Node4&#45;&gt;Node8 -->
<g id="edge7" class="edge">
<title>Node4&#45;&gt;Node8</title>
<path fill="none" stroke="midnightblue" d="M730.62,-313.75C743.94,-314.75 758.27,-315.83 772.46,-316.89"/>
<polygon fill="midnightblue" stroke="midnightblue" points="772.52,-320.41 782.76,-317.67 773.05,-313.43 772.52,-320.41"/>
</g>
<!-- Node9 -->
<g id="node9" class="node">
<title>Node9</title>
<g id="a_node9"><a xlink:href="../../de/db3/classUIElement_af9e665c7647c2fb436ed3c20be3a40a2.html#af9e665c7647c2fb436ed3c20be3a40a2" target="_top" xlink:title=" ">
<polygon fill="white" stroke="black" points="784,-276.5 784,-295.5 952,-295.5 952,-276.5 784,-276.5"/>
<text text-anchor="middle" x="868" y="-283.5" font-family="Helvetica,sans-Serif" font-size="10.00">UIElement.RecalculateChildren</text>
</a>
</g>
</g>
<!-- Node4&#45;&gt;Node9 -->
<g id="edge8" class="edge">
<title>Node4&#45;&gt;Node9</title>
<path fill="none" stroke="midnightblue" d="M703.63,-299.49C723.37,-296.19 748.81,-292.79 773.71,-290.02"/>
<polygon fill="midnightblue" stroke="midnightblue" points="774.39,-293.46 783.96,-288.91 773.64,-286.51 774.39,-293.46"/>
</g>
<!-- Node7 -->
<g id="node7" class="node">
<title>Node7</title>
<g id="a_node7"><a xlink:href="../../d1/de0/structStyleDimension_a62acad4030569824dcced4b9e3a10e56.html#a62acad4030569824dcced4b9e3a10e56" target="_top" xlink:title=" ">
<polygon fill="white" stroke="black" points="992,-358.5 992,-377.5 1133,-377.5 1133,-358.5 992,-358.5"/>
<text text-anchor="middle" x="1062.5" y="-365.5" font-family="Helvetica,sans-Serif" font-size="10.00">StyleDimension.GetValue</text>
</a>
</g>
</g>
<!-- Node6&#45;&gt;Node7 -->
<g id="edge6" class="edge">
<title>Node6&#45;&gt;Node7</title>
<path fill="none" stroke="midnightblue" d="M956.24,-368C964.73,-368 973.31,-368 981.71,-368"/>
<polygon fill="midnightblue" stroke="midnightblue" points="981.87,-371.5 991.87,-368 981.87,-364.5 981.87,-371.5"/>
</g>
<!-- Node9&#45;&gt;Node4 -->
<g id="edge9" class="edge">
<title>Node9&#45;&gt;Node4</title>
<path fill="none" stroke="midnightblue" d="M830.7,-295.53C805.64,-299.72 771.46,-304.06 740.85,-307.08"/>
<polygon fill="midnightblue" stroke="midnightblue" points="740.25,-303.62 730.62,-308.05 740.91,-310.59 740.25,-303.62"/>
</g>
<!-- Node11 -->
<g id="node11" class="node">
<title>Node11</title>
<g id="a_node11"><a xlink:href="../../de/db3/classUIElement_a016d4714237f6ee11a0d439dacd6a05d.html#a016d4714237f6ee11a0d439dacd6a05d" target="_top" xlink:title=" ">
<polygon fill="white" stroke="black" points="800,-238.5 800,-257.5 936,-257.5 936,-238.5 800,-238.5"/>
<text text-anchor="middle" x="868" y="-245.5" font-family="Helvetica,sans-Serif" font-size="10.00">UIElement.RemoveChild</text>
</a>
</g>
</g>
<!-- Node10&#45;&gt;Node11 -->
<g id="edge11" class="edge">
<title>Node10&#45;&gt;Node11</title>
<path fill="none" stroke="midnightblue" d="M722.01,-258.9C742.82,-257.34 766.97,-255.52 789.51,-253.83"/>
<polygon fill="midnightblue" stroke="midnightblue" points="790.03,-257.3 799.74,-253.06 789.5,-250.32 790.03,-257.3"/>
</g>
<!-- Node14 -->
<g id="node14" class="node">
<title>Node14</title>
<g id="a_node14"><a xlink:href="../../de/db3/classUIElement_a1573899b8299cd5438f5be708a6a0795.html#a1573899b8299cd5438f5be708a6a0795" target="_top" xlink:title=" ">
<polygon fill="white" stroke="black" points="593.5,-187.5 593.5,-206.5 739.5,-206.5 739.5,-187.5 593.5,-187.5"/>
<text text-anchor="middle" x="666.5" y="-194.5" font-family="Helvetica,sans-Serif" font-size="10.00">UIElement.GetDimensions</text>
</a>
</g>
</g>
<!-- Node13&#45;&gt;Node14 -->
<g id="edge14" class="edge">
<title>Node13&#45;&gt;Node14</title>
<path fill="none" stroke="midnightblue" d="M551.19,-194.68C561.8,-194.89 572.67,-195.12 583.27,-195.33"/>
<polygon fill="midnightblue" stroke="midnightblue" points="583.27,-198.83 593.34,-195.53 583.42,-191.83 583.27,-198.83"/>
</g>
<!-- Node15 -->
<g id="node15" class="node">
<title>Node15</title>
<g id="a_node15"><a xlink:href="../../d8/daa/structCalculatedStyle_a2efa67a6c74aa1c4eea7d9597d853aa4.html#a2efa67a6c74aa1c4eea7d9597d853aa4" target="_top" xlink:title=" ">
<polygon fill="white" stroke="black" points="589,-149.5 589,-168.5 744,-168.5 744,-149.5 589,-149.5"/>
<text text-anchor="middle" x="666.5" y="-156.5" font-family="Helvetica,sans-Serif" font-size="10.00">CalculatedStyle.ToRectangle</text>
</a>
</g>
</g>
<!-- Node13&#45;&gt;Node15 -->
<g id="edge15" class="edge">
<title>Node13&#45;&gt;Node15</title>
<path fill="none" stroke="midnightblue" d="M551.19,-178.73C567.51,-175.91 584.43,-172.99 600.09,-170.29"/>
<polygon fill="midnightblue" stroke="midnightblue" points="600.92,-173.7 610.18,-168.55 599.73,-166.8 600.92,-173.7"/>
</g>
</g>
</svg>
        <g id="navigator" transform="translate(0 0)" fill="#404254">
                <rect fill="#f2f5e9" fill-opacity="0.5" stroke="#606060" stroke-width=".5" x="0" y="0" width="60" height="60"/>
                <use id="zoomplus" xlink:href="#zoomPlus" x="17" y="9" onmousedown="handleZoom(evt,'in')"/>
                <use id="zoomminus" xlink:href="#zoomMin" x="42" y="9" onmousedown="handleZoom(evt,'out')"/>
                <use id="reset" xlink:href="#resetDef" x="30" y="36" onmousedown="handleReset()"/>
                <g id="arrowUp" xlink:href="#dirArrow" transform="translate(30 24)" onmousedown="handlePan(0,-1)">
                  <use xlink:href="#rim" fill="#404040">
                        <set attributeName="fill" to="#808080" begin="arrowUp.mouseover" end="arrowUp.mouseout"/>
                  </use>
                  <path fill="none" stroke="white" stroke-width="1.5" d="M0,-3.0v7 M-2.5,-0.5L0,-3.0L2.5,-0.5"/>
                </g>
                <g id="arrowRight" xlink:href="#dirArrow" transform="rotate(90) translate(36 -43)" onmousedown="handlePan(1,0)">
                  <use xlink:href="#rim" fill="#404040">
                        <set attributeName="fill" to="#808080" begin="arrowRight.mouseover" end="arrowRight.mouseout"/>
                  </use>
                  <path fill="none" stroke="white" stroke-width="1.5" d="M0,-3.0v7 M-2.5,-0.5L0,-3.0L2.5,-0.5"/>
                </g>
                <g id="arrowDown" xlink:href="#dirArrow" transform="rotate(180) translate(-30 -48)" onmousedown="handlePan(0,1)">
                  <use xlink:href="#rim" fill="#404040">
                        <set attributeName="fill" to="#808080" begin="arrowDown.mouseover" end="arrowDown.mouseout"/>
                  </use>
                  <path fill="none" stroke="white" stroke-width="1.5" d="M0,-3.0v7 M-2.5,-0.5L0,-3.0L2.5,-0.5"/>
                </g>
                <g id="arrowLeft" xlink:href="#dirArrow" transform="rotate(270) translate(-36 17)" onmousedown="handlePan(-1,0)">
                  <use xlink:href="#rim" fill="#404040">
                        <set attributeName="fill" to="#808080" begin="arrowLeft.mouseover" end="arrowLeft.mouseout"/>
                  </use>
                  <path fill="none" stroke="white" stroke-width="1.5" d="M0,-3.0v7 M-2.5,-0.5L0,-3.0L2.5,-0.5"/>
                </g>
        </g>
        <svg viewBox="0 0 15 15" width="100%" height="30px" preserveAspectRatio="xMaxYMin meet">
         <g id="arrow_out" transform="scale(0.3 0.3)">
          <a xlink:href="classUIBestiaryEntryGrid_a6284fe346c309835bb5e6468ee4d12c0_a6284fe346c309835bb5e6468ee4d12c0_cgraph_org.svg" target="_base">
           <rect id="button" ry="5" rx="5" y="6" x="6" height="38" width="38"
                fill="#f2f5e9" fill-opacity="0.5" stroke="#606060" stroke-width="1.0"/>
           <path id="arrow"
             d="M 11.500037,31.436501 C 11.940474,20.09759 22.043105,11.32322 32.158766,21.979434 L 37.068811,17.246167 C 37.068811,17.246167 37.088388,32 37.088388,32 L 22.160133,31.978069 C 22.160133,31.978069 26.997745,27.140456 26.997745,27.140456 C 18.528582,18.264221 13.291696,25.230495 11.500037,31.436501 z"
             style="fill:#404040;"/>
          </a>
         </g>
        </svg>
</svg>
