<?xml version="1.0" encoding="UTF-8" standalone="no"?>
<!DOCTYPE svg PUBLIC "-//W3C//DTD SVG 1.1//EN"
 "http://www.w3.org/Graphics/SVG/1.1/DTD/svg11.dtd">
<!-- Generated by graphviz version 2.43.0 (0)
 -->
<!-- Title: Terraria.Item.SetShopValues Pages: 1 -->
<svg width="738pt" height="204pt"
 viewBox="0.00 0.00 738.00 203.83" xmlns="http://www.w3.org/2000/svg" xmlns:xlink="http://www.w3.org/1999/xlink">
<g id="graph0" class="graph" transform="scale(1 1) rotate(0) translate(4 199.83)">
<title>Terraria.Item.SetShopValues</title>
<!-- Node1 -->
<g id="Node000001" class="node">
<title>Node1</title>
<g id="a_Node000001"><a xlink:title=" ">
<polygon fill="#999999" stroke="#666666" points="730,-100.83 576,-100.83 576,-81.83 730,-81.83 730,-100.83"/>
<text text-anchor="middle" x="653" y="-88.83" font-family="Helvetica,sans-Serif" font-size="10.00">Terraria.Item.SetShopValues</text>
</a>
</g>
</g>
<!-- Node2 -->
<g id="Node000002" class="node">
<title>Node2</title>
<g id="a_Node000002"><a xlink:href="../../db/d79/classTerraria_1_1Item_afefae2726a1112115114359cb0fc740c.html#afefae2726a1112115114359cb0fc740c" target="_top" xlink:title=" ">
<polygon fill="white" stroke="#666666" points="540,-119.83 373,-119.83 373,-100.83 540,-100.83 540,-119.83"/>
<text text-anchor="middle" x="456.5" y="-107.83" font-family="Helvetica,sans-Serif" font-size="10.00">Terraria.Item.DefaultToGolfBall</text>
</a>
</g>
</g>
<!-- Node1&#45;&gt;Node2 -->
<g id="edge1_Node000001_Node000002" class="edge">
<title>Node1&#45;&gt;Node2</title>
<g id="a_edge1_Node000001_Node000002"><a xlink:title=" ">
<path fill="none" stroke="#63b8ff" d="M565.99,-99.73C557.43,-100.56 548.76,-101.41 540.24,-102.24"/>
<polygon fill="#63b8ff" stroke="#63b8ff" points="566.35,-103.21 575.97,-98.75 565.67,-96.24 566.35,-103.21"/>
</a>
</g>
</g>
<!-- Node3 -->
<g id="Node000003" class="node">
<title>Node3</title>
<g id="a_Node000003"><a xlink:href="../../db/d79/classTerraria_1_1Item_adacebed294f0e939cd7a83a775ccacb0.html#adacebed294f0e939cd7a83a775ccacb0" target="_top" xlink:title=" ">
<polygon fill="white" stroke="#666666" points="328.5,-128.83 183.5,-128.83 183.5,-109.83 328.5,-109.83 328.5,-128.83"/>
<text text-anchor="middle" x="256" y="-116.83" font-family="Helvetica,sans-Serif" font-size="10.00">Terraria.Item.SetDefaults4</text>
</a>
</g>
</g>
<!-- Node1&#45;&gt;Node3 -->
<g id="edge11_Node000001_Node000003" class="edge">
<title>Node1&#45;&gt;Node3</title>
<g id="a_edge11_Node000001_Node000003"><a xlink:title=" ">
<path fill="none" stroke="#63b8ff" d="M621.14,-104.85C599.03,-113.78 568.29,-124.66 540,-129.33 465.78,-141.57 379.19,-135.61 321.53,-128.83"/>
<polygon fill="#63b8ff" stroke="#63b8ff" points="622.75,-107.98 630.65,-100.92 620.07,-101.51 622.75,-107.98"/>
</a>
</g>
</g>
<!-- Node5 -->
<g id="Node000005" class="node">
<title>Node5</title>
<g id="a_Node000005"><a xlink:href="../../db/d79/classTerraria_1_1Item_ae57469e3bb8bf1758819a35e15cad9e8.html#ae57469e3bb8bf1758819a35e15cad9e8" target="_top" xlink:title=" ">
<polygon fill="white" stroke="#666666" points="328.5,-86.83 183.5,-86.83 183.5,-67.83 328.5,-67.83 328.5,-86.83"/>
<text text-anchor="middle" x="256" y="-74.83" font-family="Helvetica,sans-Serif" font-size="10.00">Terraria.Item.SetDefaults5</text>
</a>
</g>
</g>
<!-- Node1&#45;&gt;Node5 -->
<g id="edge12_Node000001_Node000005" class="edge">
<title>Node1&#45;&gt;Node5</title>
<g id="a_edge12_Node000001_Node000005"><a xlink:title=" ">
<path fill="none" stroke="#63b8ff" d="M565.58,-88.26C494.58,-85.75 395.21,-82.23 328.6,-79.86"/>
<polygon fill="#63b8ff" stroke="#63b8ff" points="565.72,-91.77 575.84,-88.63 565.97,-84.78 565.72,-91.77"/>
</a>
</g>
</g>
<!-- Node6 -->
<g id="Node000006" class="node">
<title>Node6</title>
<g id="a_Node000006"><a xlink:href="../../db/d79/classTerraria_1_1Item_a0d0f4185996024d2b036bfae2447c0fd.html#a0d0f4185996024d2b036bfae2447c0fd" target="_top" xlink:title=" ">
<polygon fill="white" stroke="#666666" points="530,-43.83 383,-43.83 383,-24.83 530,-24.83 530,-43.83"/>
<text text-anchor="middle" x="456.5" y="-31.83" font-family="Helvetica,sans-Serif" font-size="10.00">Terraria.Item.DefaultTokite</text>
</a>
</g>
</g>
<!-- Node1&#45;&gt;Node6 -->
<g id="edge6_Node000001_Node000006" class="edge">
<title>Node1&#45;&gt;Node6</title>
<g id="a_edge6_Node000001_Node000006"><a xlink:title=" ">
<path fill="none" stroke="#63b8ff" d="M610.06,-78.93C589.04,-72.73 563.18,-65.11 540,-58.33 523.68,-53.55 505.54,-48.27 490.43,-43.88"/>
<polygon fill="#63b8ff" stroke="#63b8ff" points="609.08,-82.29 619.66,-81.77 611.06,-75.58 609.08,-82.29"/>
</a>
</g>
</g>
<!-- Node7 -->
<g id="Node000007" class="node">
<title>Node7</title>
<g id="a_Node000007"><a xlink:href="../../db/d79/classTerraria_1_1Item_ae8b5a2559719400dfa93baad5d589806.html#ae8b5a2559719400dfa93baad5d589806" target="_top" xlink:title=" ">
<polygon fill="white" stroke="#666666" points="529,-195.83 384,-195.83 384,-176.83 529,-176.83 529,-195.83"/>
<text text-anchor="middle" x="456.5" y="-183.83" font-family="Helvetica,sans-Serif" font-size="10.00">Terraria.Item.SetDefaults1</text>
</a>
</g>
</g>
<!-- Node1&#45;&gt;Node7 -->
<g id="edge8_Node000001_Node000007" class="edge">
<title>Node1&#45;&gt;Node7</title>
<g id="a_edge8_Node000001_Node000007"><a xlink:title=" ">
<path fill="none" stroke="#63b8ff" d="M631.42,-106.89C609.69,-122.71 573.93,-147.01 540,-162.33 526.95,-168.22 512.08,-173.07 498.6,-176.83"/>
<polygon fill="#63b8ff" stroke="#63b8ff" points="633.6,-109.63 639.57,-100.88 629.44,-104 633.6,-109.63"/>
</a>
</g>
</g>
<!-- Node8 -->
<g id="Node000008" class="node">
<title>Node8</title>
<g id="a_Node000008"><a xlink:href="../../db/d79/classTerraria_1_1Item_a7aaa3b99f93e00b411f6b0779eb0df8a.html#a7aaa3b99f93e00b411f6b0779eb0df8a" target="_top" xlink:title=" ">
<polygon fill="white" stroke="#666666" points="337,-30.83 175,-30.83 175,-11.83 337,-11.83 337,-30.83"/>
<text text-anchor="middle" x="256" y="-18.83" font-family="Helvetica,sans-Serif" font-size="10.00">Terraria.Item.SetFoodDefaults</text>
</a>
</g>
</g>
<!-- Node1&#45;&gt;Node8 -->
<g id="edge13_Node000001_Node000008" class="edge">
<title>Node1&#45;&gt;Node8</title>
<g id="a_edge13_Node000001_Node000008"><a xlink:title=" ">
<path fill="none" stroke="#63b8ff" d="M634.73,-74.63C614.12,-55.98 577.71,-26.91 540,-15.33 459.2,9.5 359.23,-1.74 302.32,-11.79"/>
<polygon fill="#63b8ff" stroke="#63b8ff" points="632.59,-77.42 642.3,-81.67 637.36,-72.3 632.59,-77.42"/>
</a>
</g>
</g>
<!-- Node2&#45;&gt;Node3 -->
<g id="edge2_Node000002_Node000003" class="edge">
<title>Node2&#45;&gt;Node3</title>
<g id="a_edge2_Node000002_Node000003"><a xlink:title=" ">
<path fill="none" stroke="#63b8ff" d="M362.72,-114.53C351.24,-115.05 339.65,-115.58 328.56,-116.08"/>
<polygon fill="#63b8ff" stroke="#63b8ff" points="362.92,-118.03 372.76,-114.08 362.61,-111.04 362.92,-118.03"/>
</a>
</g>
</g>
<!-- Node2&#45;&gt;Node5 -->
<g id="edge4_Node000002_Node000005" class="edge">
<title>Node2&#45;&gt;Node5</title>
<g id="a_edge4_Node000002_Node000005"><a xlink:title=" ">
<path fill="none" stroke="#63b8ff" d="M388.26,-99.15C364.28,-95.16 337.51,-90.71 314.43,-86.87"/>
<polygon fill="#63b8ff" stroke="#63b8ff" points="387.91,-102.64 398.35,-100.83 389.06,-95.73 387.91,-102.64"/>
</a>
</g>
</g>
<!-- Node4 -->
<g id="Node000004" class="node">
<title>Node4</title>
<g id="a_Node000004"><a xlink:href="../../db/d79/classTerraria_1_1Item_a91029fbaf8c135c7c044978e5bc50e30.html#a91029fbaf8c135c7c044978e5bc50e30" target="_top" xlink:title=" ">
<polygon fill="white" stroke="#666666" points="139,-105.83 0,-105.83 0,-86.83 139,-86.83 139,-105.83"/>
<text text-anchor="middle" x="69.5" y="-93.83" font-family="Helvetica,sans-Serif" font-size="10.00">Terraria.Item.SetDefaults</text>
</a>
</g>
</g>
<!-- Node3&#45;&gt;Node4 -->
<g id="edge3_Node000003_Node000004" class="edge">
<title>Node3&#45;&gt;Node4</title>
<g id="a_edge3_Node000003_Node000004"><a xlink:title=" ">
<path fill="none" stroke="#63b8ff" d="M173.4,-109.15C161.92,-107.72 150.23,-106.27 139.03,-104.87"/>
<polygon fill="#63b8ff" stroke="#63b8ff" points="173.05,-112.64 183.4,-110.4 173.91,-105.69 173.05,-112.64"/>
</a>
</g>
</g>
<!-- Node5&#45;&gt;Node4 -->
<g id="edge5_Node000005_Node000004" class="edge">
<title>Node5&#45;&gt;Node4</title>
<g id="a_edge5_Node000005_Node000004"><a xlink:title=" ">
<path fill="none" stroke="#63b8ff" d="M173.4,-85.73C161.92,-86.91 150.23,-88.12 139.03,-89.27"/>
<polygon fill="#63b8ff" stroke="#63b8ff" points="173.81,-89.21 183.4,-84.7 173.1,-82.24 173.81,-89.21"/>
</a>
</g>
</g>
<!-- Node6&#45;&gt;Node5 -->
<g id="edge7_Node000006_Node000005" class="edge">
<title>Node6&#45;&gt;Node5</title>
<g id="a_edge7_Node000006_Node000005"><a xlink:title=" ">
<path fill="none" stroke="#63b8ff" d="M401.49,-46.03C369.92,-52.86 330.59,-61.39 300.93,-67.81"/>
<polygon fill="#63b8ff" stroke="#63b8ff" points="402.41,-49.41 411.45,-43.87 400.93,-42.57 402.41,-49.41"/>
</a>
</g>
</g>
<!-- Node7&#45;&gt;Node3 -->
<g id="edge10_Node000007_Node000003" class="edge">
<title>Node7&#45;&gt;Node3</title>
<g id="a_edge10_Node000007_Node000003"><a xlink:title=" ">
<path fill="none" stroke="#63b8ff" d="M410.43,-173.85C398.23,-170.3 385.06,-166.31 373,-162.33 340.98,-151.75 304.61,-137.97 281.26,-128.9"/>
<polygon fill="#63b8ff" stroke="#63b8ff" points="409.83,-177.32 420.4,-176.72 411.76,-170.59 409.83,-177.32"/>
</a>
</g>
</g>
<!-- Node7&#45;&gt;Node4 -->
<g id="edge9_Node000007_Node000004" class="edge">
<title>Node7&#45;&gt;Node4</title>
<g id="a_edge9_Node000007_Node000004"><a xlink:title=" ">
<path fill="none" stroke="#63b8ff" d="M374,-177.04C317.47,-169.47 240.81,-156.95 175,-138.33 144.71,-129.75 111.19,-115.35 90.48,-105.84"/>
<polygon fill="#63b8ff" stroke="#63b8ff" points="373.59,-180.52 383.96,-178.35 374.5,-173.58 373.59,-180.52"/>
</a>
</g>
</g>
<!-- Node8&#45;&gt;Node4 -->
<g id="edge14_Node000008_Node000004" class="edge">
<title>Node8&#45;&gt;Node4</title>
<g id="a_edge14_Node000008_Node000004"><a xlink:title=" ">
<path fill="none" stroke="#63b8ff" d="M221.95,-34.76C185.16,-49.72 126.62,-73.51 94.15,-86.71"/>
<polygon fill="#63b8ff" stroke="#63b8ff" points="223.31,-37.99 231.26,-30.98 220.68,-31.5 223.31,-37.99"/>
</a>
</g>
</g>
</g>
</svg>
