<?xml version="1.0" encoding="UTF-8" standalone="no"?>
<!DOCTYPE svg PUBLIC "-//W3C//DTD SVG 1.1//EN"
 "http://www.w3.org/Graphics/SVG/1.1/DTD/svg11.dtd">
<!-- Generated by graphviz version 2.43.0 (0)
 -->
<!-- Title: Terraria.Item.RollAPrefix Pages: 1 -->
<svg width="500pt" height="86pt"
 viewBox="0.00 0.00 500.00 86.00" xmlns="http://www.w3.org/2000/svg" xmlns:xlink="http://www.w3.org/1999/xlink">
<g id="graph0" class="graph" transform="scale(1 1) rotate(0) translate(4 82)">
<title>Terraria.Item.RollAPrefix</title>
<!-- Node1 -->
<g id="Node000001" class="node">
<title>Node1</title>
<g id="a_Node000001"><a xlink:title=" ">
<polygon fill="#999999" stroke="#666666" points="135,-48.5 0,-48.5 0,-29.5 135,-29.5 135,-48.5"/>
<text text-anchor="middle" x="67.5" y="-36.5" font-family="Helvetica,sans-Serif" font-size="10.00">Terraria.Item.RollAPrefix</text>
</a>
</g>
</g>
<!-- Node2 -->
<g id="Node000002" class="node">
<title>Node2</title>
<g id="a_Node000002"><a xlink:href="../../db/d79/classTerraria_1_1Item_a75f24b0ed75223762bebd2169b0a89f2.html#a75f24b0ed75223762bebd2169b0a89f2" target="_top" xlink:title=" ">
<polygon fill="white" stroke="#666666" points="310,-78 171,-78 171,-48 310,-48 310,-78"/>
<text text-anchor="start" x="179" y="-66" font-family="Helvetica,sans-Serif" font-size="10.00">Terraria.Item.GetRollable</text>
<text text-anchor="middle" x="240.5" y="-55" font-family="Helvetica,sans-Serif" font-size="10.00">Prefixes</text>
</a>
</g>
</g>
<!-- Node1&#45;&gt;Node2 -->
<g id="edge1_Node000001_Node000002" class="edge">
<title>Node1&#45;&gt;Node2</title>
<g id="a_edge1_Node000001_Node000002"><a xlink:title=" ">
<path fill="none" stroke="#63b8ff" d="M135.1,-48.35C143.53,-49.53 152.21,-50.75 160.8,-51.95"/>
<polygon fill="#63b8ff" stroke="#63b8ff" points="160.43,-55.44 170.82,-53.36 161.41,-48.51 160.43,-55.44"/>
</a>
</g>
</g>
<!-- Node4 -->
<g id="Node000004" class="node">
<title>Node4</title>
<g id="a_Node000004"><a xlink:href="../../d9/db1/classTerraria_1_1Utilities_1_1UnifiedRandom_ac4ecc6320b69ab939b9c45eaf7d89000.html#ac4ecc6320b69ab939b9c45eaf7d89000" target="_top" xlink:title=" ">
<polygon fill="white" stroke="#666666" points="306.5,-30 174.5,-30 174.5,0 306.5,0 306.5,-30"/>
<text text-anchor="start" x="182.5" y="-18" font-family="Helvetica,sans-Serif" font-size="10.00">Terraria.Utilities.Unified</text>
<text text-anchor="middle" x="240.5" y="-7" font-family="Helvetica,sans-Serif" font-size="10.00">Random.Next</text>
</a>
</g>
</g>
<!-- Node1&#45;&gt;Node4 -->
<g id="edge3_Node000001_Node000004" class="edge">
<title>Node1&#45;&gt;Node4</title>
<g id="a_edge3_Node000001_Node000004"><a xlink:title=" ">
<path fill="none" stroke="#63b8ff" d="M135.1,-29.65C144.71,-28.3 154.65,-26.91 164.4,-25.54"/>
<polygon fill="#63b8ff" stroke="#63b8ff" points="165.07,-28.98 174.48,-24.13 164.09,-22.05 165.07,-28.98"/>
</a>
</g>
</g>
<!-- Node3 -->
<g id="Node000003" class="node">
<title>Node3</title>
<g id="a_Node000003"><a xlink:href="../../db/d79/classTerraria_1_1Item_ae7df936950051e88d47a93d634266207.html#ae7df936950051e88d47a93d634266207" target="_top" xlink:title=" ">
<polygon fill="white" stroke="#666666" points="492,-78 346,-78 346,-48 492,-48 492,-78"/>
<text text-anchor="start" x="354" y="-66" font-family="Helvetica,sans-Serif" font-size="10.00">Terraria.Item.IsAPrefixable</text>
<text text-anchor="middle" x="419" y="-55" font-family="Helvetica,sans-Serif" font-size="10.00">Accessory</text>
</a>
</g>
</g>
<!-- Node2&#45;&gt;Node3 -->
<g id="edge2_Node000002_Node000003" class="edge">
<title>Node2&#45;&gt;Node3</title>
<g id="a_edge2_Node000002_Node000003"><a xlink:title=" ">
<path fill="none" stroke="#63b8ff" d="M310.24,-63C318.66,-63 327.33,-63 335.92,-63"/>
<polygon fill="#63b8ff" stroke="#63b8ff" points="335.95,-66.5 345.95,-63 335.95,-59.5 335.95,-66.5"/>
</a>
</g>
</g>
<!-- Node5 -->
<g id="Node000005" class="node">
<title>Node5</title>
<g id="a_Node000005"><a xlink:href="../../d9/db1/classTerraria_1_1Utilities_1_1UnifiedRandom_a173f09196ff526b107c0223c2d58c59a.html#a173f09196ff526b107c0223c2d58c59a" target="_top" xlink:title=" ">
<polygon fill="white" stroke="#666666" points="486,-30 352,-30 352,0 486,0 486,-30"/>
<text text-anchor="start" x="360" y="-18" font-family="Helvetica,sans-Serif" font-size="10.00">Terraria.Utilities.Unified</text>
<text text-anchor="middle" x="419" y="-7" font-family="Helvetica,sans-Serif" font-size="10.00">Random.InternalSample</text>
</a>
</g>
</g>
<!-- Node4&#45;&gt;Node5 -->
<g id="edge4_Node000004_Node000005" class="edge">
<title>Node4&#45;&gt;Node5</title>
<g id="a_edge4_Node000004_Node000005"><a xlink:title=" ">
<path fill="none" stroke="#63b8ff" d="M306.72,-15C318.11,-15 330.06,-15 341.72,-15"/>
<polygon fill="#63b8ff" stroke="#63b8ff" points="341.87,-18.5 351.87,-15 341.87,-11.5 341.87,-18.5"/>
</a>
</g>
</g>
</g>
</svg>
