<?xml version="1.0" encoding="UTF-8" standalone="no"?>
<!DOCTYPE svg PUBLIC "-//W3C//DTD SVG 1.1//EN"
 "http://www.w3.org/Graphics/SVG/1.1/DTD/svg11.dtd">
<!-- Generated by graphviz version 2.43.0 (0)
 -->
<!-- Title: Terraria.Item.SetDefaults3 Pages: 1 -->
<svg width="509pt" height="64pt"
 viewBox="0.00 0.00 509.00 64.00" xmlns="http://www.w3.org/2000/svg" xmlns:xlink="http://www.w3.org/1999/xlink">
<g id="graph0" class="graph" transform="scale(1 1) rotate(0) translate(4 60)">
<title>Terraria.Item.SetDefaults3</title>
<!-- Node1 -->
<g id="Node000001" class="node">
<title>Node1</title>
<g id="a_Node000001"><a xlink:title=" ">
<polygon fill="#999999" stroke="#666666" points="501,-38 356,-38 356,-19 501,-19 501,-38"/>
<text text-anchor="middle" x="428.5" y="-26" font-family="Helvetica,sans-Serif" font-size="10.00">Terraria.Item.SetDefaults3</text>
</a>
</g>
</g>
<!-- Node1&#45;&gt;Node1 -->
<g id="edge2_Node000001_Node000001" class="edge">
<title>Node1&#45;&gt;Node1</title>
<g id="a_edge2_Node000001_Node000001"><a xlink:title=" ">
<path fill="none" stroke="#63b8ff" d="M462.18,-46.45C461.22,-51.82 449.99,-56 428.5,-56 396.51,-56 387.26,-46.73 400.76,-38.08"/>
<polygon fill="#63b8ff" stroke="#63b8ff" points="464.89,-44.21 456.24,-38.08 459.18,-48.26 464.89,-44.21"/>
</a>
</g>
</g>
<!-- Node2 -->
<g id="Node000002" class="node">
<title>Node2</title>
<g id="a_Node000002"><a xlink:href="../../db/d79/classTerraria_1_1Item_a91029fbaf8c135c7c044978e5bc50e30.html#a91029fbaf8c135c7c044978e5bc50e30" target="_top" xlink:title=" ">
<polygon fill="white" stroke="#666666" points="139,-38 0,-38 0,-19 139,-19 139,-38"/>
<text text-anchor="middle" x="69.5" y="-26" font-family="Helvetica,sans-Serif" font-size="10.00">Terraria.Item.SetDefaults</text>
</a>
</g>
</g>
<!-- Node1&#45;&gt;Node2 -->
<g id="edge1_Node000001_Node000002" class="edge">
<title>Node1&#45;&gt;Node2</title>
<g id="a_edge1_Node000001_Node000002"><a xlink:title=" ">
<path fill="none" stroke="#63b8ff" d="M345.47,-28.5C283.02,-28.5 198.05,-28.5 139.17,-28.5"/>
<polygon fill="#63b8ff" stroke="#63b8ff" points="345.69,-32 355.69,-28.5 345.69,-25 345.69,-32"/>
</a>
</g>
</g>
<!-- Node3 -->
<g id="Node000003" class="node">
<title>Node3</title>
<g id="a_Node000003"><a xlink:href="../../db/d79/classTerraria_1_1Item_adacebed294f0e939cd7a83a775ccacb0.html#adacebed294f0e939cd7a83a775ccacb0" target="_top" xlink:title=" ">
<polygon fill="white" stroke="#666666" points="320,-19 175,-19 175,0 320,0 320,-19"/>
<text text-anchor="middle" x="247.5" y="-7" font-family="Helvetica,sans-Serif" font-size="10.00">Terraria.Item.SetDefaults4</text>
</a>
</g>
</g>
<!-- Node1&#45;&gt;Node3 -->
<g id="edge3_Node000001_Node000003" class="edge">
<title>Node1&#45;&gt;Node3</title>
<g id="a_edge3_Node000001_Node000003"><a xlink:title=" ">
<path fill="none" stroke="#63b8ff" d="M345.96,-19.84C337.36,-18.93 328.67,-18.01 320.2,-17.11"/>
<polygon fill="#63b8ff" stroke="#63b8ff" points="345.67,-23.33 355.98,-20.91 346.41,-16.37 345.67,-23.33"/>
</a>
</g>
</g>
<!-- Node3&#45;&gt;Node2 -->
<g id="edge4_Node000003_Node000002" class="edge">
<title>Node3&#45;&gt;Node2</title>
<g id="a_edge4_Node000003_Node000002"><a xlink:title=" ">
<path fill="none" stroke="#63b8ff" d="M164.88,-18.31C156.28,-19.24 147.61,-20.18 139.18,-21.09"/>
<polygon fill="#63b8ff" stroke="#63b8ff" points="165.35,-21.78 174.91,-17.23 164.6,-14.82 165.35,-21.78"/>
</a>
</g>
</g>
</g>
</svg>
