<?xml version="1.0" encoding="UTF-8" standalone="no"?>
<!DOCTYPE svg PUBLIC "-//W3C//DTD SVG 1.1//EN"
 "http://www.w3.org/Graphics/SVG/1.1/DTD/svg11.dtd">
<!-- Generated by graphviz version 2.43.0 (0)
 -->
<!-- Title: UICreativePowersMenu.WeatherCategoryButtonClick Pages: 1 -->
<!--zoomable 247 -->
<svg id="main" version="1.1" xmlns="http://www.w3.org/2000/svg" xmlns:xlink="http://www.w3.org/1999/xlink" xml:space="preserve" onload="init(evt)">
<style type="text/css"><![CDATA[
.edge:hover path { stroke: red; }
.edge:hover polygon { stroke: red; fill: red; }
]]></style>
<script type="text/javascript"><![CDATA[
var edges = document.getElementsByTagName('g');
if (edges && edges.length) {
  for (var i=0;i<edges.length;i++) {
    if (edges[i].id.substr(0,4)=='edge') {
      edges[i].setAttribute('class','edge');
    }
  }
}
]]></script>
        <defs>
                <circle id="rim" cx="0" cy="0" r="7"/>
                <circle id="rim2" cx="0" cy="0" r="3.5"/>
                <g id="zoomPlus">
                        <use xlink:href="#rim" fill="#404040">
                                <set attributeName="fill" to="#808080" begin="zoomplus.mouseover" end="zoomplus.mouseout"/>
                        </use>
                        <path d="M-4,0h8M0,-4v8" fill="none" stroke="white" stroke-width="1.5" pointer-events="none"/>
                </g>
                <g id="zoomMin">
                        <use xlink:href="#rim" fill="#404040">
                                <set attributeName="fill" to="#808080" begin="zoomminus.mouseover" end="zoomminus.mouseout"/>
                        </use>
                        <path d="M-4,0h8" fill="none" stroke="white" stroke-width="1.5" pointer-events="none"/>
                </g>
                <g id="dirArrow">
                        <path fill="none" stroke="white" stroke-width="1.5" d="M0,-3.0v7 M-2.5,-0.5L0,-3.0L2.5,-0.5"/>
                </g>
               <g id="resetDef">
                       <use xlink:href="#rim2" fill="#404040">
                               <set attributeName="fill" to="#808080" begin="reset.mouseover" end="reset.mouseout"/>
                       </use>
               </g>
        </defs>

<script type="text/javascript">
var viewWidth = 1169;
var viewHeight = 247;
var sectionId = 'dynsection-0';
</script>
<script xlink:href="../../svgpan.js"/>
<svg id="graph" class="graph">
<g id="viewport">
<title>UICreativePowersMenu.WeatherCategoryButtonClick</title>
<polygon fill="white" stroke="transparent" points="-4,4 -4,-242.5 1165,-242.5 1165,4 -4,4"/>
<!-- Node1 -->
<g id="node1" class="node">
<title>Node1</title>
<g id="a_node1"><a xlink:title=" ">
<polygon fill="#bfbfbf" stroke="black" points="0,-73.5 0,-103.5 174,-103.5 174,-73.5 0,-73.5"/>
<text text-anchor="start" x="8" y="-91.5" font-family="Helvetica,sans-Serif" font-size="10.00">UICreativePowersMenu.Weather</text>
<text text-anchor="middle" x="87" y="-80.5" font-family="Helvetica,sans-Serif" font-size="10.00">CategoryButtonClick</text>
</a>
</g>
</g>
<!-- Node2 -->
<g id="node2" class="node">
<title>Node2</title>
<g id="a_node2"><a xlink:href="../../d8/d8f/classCreativePowers_1_1ModifyWindDirectionAndStrength_af48406f480acdee0b4385f735abd71b4.html#af48406f480acdee0b4385f735abd71b4" target="_top" xlink:title=" ">
<polygon fill="white" stroke="black" points="210,-147.5 210,-177.5 404,-177.5 404,-147.5 210,-147.5"/>
<text text-anchor="start" x="218" y="-165.5" font-family="Helvetica,sans-Serif" font-size="10.00">CreativePowers.ModifyWind</text>
<text text-anchor="middle" x="307" y="-154.5" font-family="Helvetica,sans-Serif" font-size="10.00">DirectionAndStrength.GetIsUnlocked</text>
</a>
</g>
</g>
<!-- Node1&#45;&gt;Node2 -->
<g id="edge1" class="edge">
<title>Node1&#45;&gt;Node2</title>
<path fill="none" stroke="midnightblue" d="M122.01,-103.52C146.25,-113.88 179.76,-127.53 210,-137.5 217.62,-140.01 225.64,-142.43 233.67,-144.72"/>
<polygon fill="midnightblue" stroke="midnightblue" points="232.86,-148.13 243.44,-147.44 234.74,-141.39 232.86,-148.13"/>
</g>
<!-- Node3 -->
<g id="node3" class="node">
<title>Node3</title>
<g id="a_node3"><a xlink:href="../../d3/da6/classCreativePowers_1_1ModifyRainPower_ac5bd867a9ba32476e4a6cce357b8f8ec.html#ac5bd867a9ba32476e4a6cce357b8f8ec" target="_top" xlink:title=" ">
<polygon fill="white" stroke="black" points="231.5,-98.5 231.5,-128.5 382.5,-128.5 382.5,-98.5 231.5,-98.5"/>
<text text-anchor="start" x="239.5" y="-116.5" font-family="Helvetica,sans-Serif" font-size="10.00">CreativePowers.ModifyRain</text>
<text text-anchor="middle" x="307" y="-105.5" font-family="Helvetica,sans-Serif" font-size="10.00">Power.GetIsUnlocked</text>
</a>
</g>
</g>
<!-- Node1&#45;&gt;Node3 -->
<g id="edge2" class="edge">
<title>Node1&#45;&gt;Node3</title>
<path fill="none" stroke="midnightblue" d="M174.16,-98.38C189.68,-100.16 205.85,-102.02 221.33,-103.79"/>
<polygon fill="midnightblue" stroke="midnightblue" points="221.06,-107.28 231.39,-104.94 221.86,-100.33 221.06,-107.28"/>
</g>
<!-- Node4 -->
<g id="node4" class="node">
<title>Node4</title>
<g id="a_node4"><a xlink:href="../../d7/d97/classUICreativePowersMenu_a68d7ea9a06536dff1282d067113e40dd.html#a68d7ea9a06536dff1282d067113e40dd" target="_top" xlink:title=" ">
<polygon fill="white" stroke="black" points="221.5,-49.5 221.5,-79.5 392.5,-79.5 392.5,-49.5 221.5,-49.5"/>
<text text-anchor="start" x="229.5" y="-67.5" font-family="Helvetica,sans-Serif" font-size="10.00">UICreativePowersMenu.Refresh</text>
<text text-anchor="middle" x="307" y="-56.5" font-family="Helvetica,sans-Serif" font-size="10.00">ElementsOrder</text>
</a>
</g>
</g>
<!-- Node1&#45;&gt;Node4 -->
<g id="edge3" class="edge">
<title>Node1&#45;&gt;Node4</title>
<path fill="none" stroke="midnightblue" d="M174.16,-79.01C186.25,-77.68 198.73,-76.31 210.97,-74.96"/>
<polygon fill="midnightblue" stroke="midnightblue" points="211.62,-78.41 221.18,-73.84 210.86,-71.45 211.62,-78.41"/>
</g>
<!-- Node16 -->
<g id="node16" class="node">
<title>Node16</title>
<g id="a_node16"><a xlink:href="../../d7/d97/classUICreativePowersMenu_a7a271b131f288300c9415b9ac4694604.html#a7a271b131f288300c9415b9ac4694604" target="_top" xlink:title=" ">
<polygon fill="white" stroke="black" points="224.5,-0.5 224.5,-30.5 389.5,-30.5 389.5,-0.5 224.5,-0.5"/>
<text text-anchor="start" x="232.5" y="-18.5" font-family="Helvetica,sans-Serif" font-size="10.00">UICreativePowersMenu.Toggle</text>
<text text-anchor="middle" x="307" y="-7.5" font-family="Helvetica,sans-Serif" font-size="10.00">WeatherCategory</text>
</a>
</g>
</g>
<!-- Node1&#45;&gt;Node16 -->
<g id="edge16" class="edge">
<title>Node1&#45;&gt;Node16</title>
<path fill="none" stroke="midnightblue" d="M121.98,-73.39C146.21,-62.99 179.71,-49.32 210,-39.5 216.8,-37.3 223.92,-35.18 231.08,-33.17"/>
<polygon fill="midnightblue" stroke="midnightblue" points="232.12,-36.51 240.85,-30.51 230.28,-29.76 232.12,-36.51"/>
</g>
<!-- Node5 -->
<g id="node5" class="node">
<title>Node5</title>
<g id="a_node5"><a xlink:href="../../de/db3/classUIElement_aba285d19a4f931a415048ae87b65afb9.html#aba285d19a4f931a415048ae87b65afb9" target="_top" xlink:title=" ">
<polygon fill="white" stroke="black" points="470.5,-93 470.5,-112 577.5,-112 577.5,-93 470.5,-93"/>
<text text-anchor="middle" x="524" y="-100" font-family="Helvetica,sans-Serif" font-size="10.00">UIElement.Append</text>
</a>
</g>
</g>
<!-- Node4&#45;&gt;Node5 -->
<g id="edge4" class="edge">
<title>Node4&#45;&gt;Node5</title>
<path fill="none" stroke="midnightblue" d="M392.67,-79.46C415.18,-83.44 439.11,-87.67 460.22,-91.4"/>
<polygon fill="midnightblue" stroke="midnightblue" points="459.89,-94.9 470.35,-93.19 461.11,-88.01 459.89,-94.9"/>
</g>
<!-- Node14 -->
<g id="node14" class="node">
<title>Node14</title>
<g id="a_node14"><a xlink:href="../../de/db3/classUIElement_ab2827b9a164de86751e87ac278cf61b0.html#ab2827b9a164de86751e87ac278cf61b0" target="_top" xlink:title=" ">
<polygon fill="white" stroke="black" points="442,-55 442,-74 606,-74 606,-55 442,-55"/>
<text text-anchor="middle" x="524" y="-62" font-family="Helvetica,sans-Serif" font-size="10.00">UIElement.RemoveAllChildren</text>
</a>
</g>
</g>
<!-- Node4&#45;&gt;Node14 -->
<g id="edge14" class="edge">
<title>Node4&#45;&gt;Node14</title>
<path fill="none" stroke="midnightblue" d="M392.67,-64.5C405.46,-64.5 418.71,-64.5 431.64,-64.5"/>
<polygon fill="midnightblue" stroke="midnightblue" points="431.92,-68 441.92,-64.5 431.92,-61 431.92,-68"/>
</g>
<!-- Node15 -->
<g id="node15" class="node">
<title>Node15</title>
<g id="a_node15"><a xlink:href="../../da/dfc/classUICreativeInfiniteItemsDisplay_aa67915c2820d55ba19799629c44044f6.html#aa67915c2820d55ba19799629c44044f6" target="_top" xlink:title=" ">
<polygon fill="white" stroke="black" points="440,-5.5 440,-35.5 608,-35.5 608,-5.5 440,-5.5"/>
<text text-anchor="start" x="448" y="-23.5" font-family="Helvetica,sans-Serif" font-size="10.00">UICreativeInfiniteItemsDisplay.</text>
<text text-anchor="middle" x="524" y="-12.5" font-family="Helvetica,sans-Serif" font-size="10.00">SetPageTypeToShow</text>
</a>
</g>
</g>
<!-- Node4&#45;&gt;Node15 -->
<g id="edge15" class="edge">
<title>Node4&#45;&gt;Node15</title>
<path fill="none" stroke="midnightblue" d="M381.39,-49.48C400.14,-45.64 420.43,-41.49 439.64,-37.56"/>
<polygon fill="midnightblue" stroke="midnightblue" points="440.48,-40.96 449.58,-35.53 439.08,-34.1 440.48,-40.96"/>
</g>
<!-- Node6 -->
<g id="node6" class="node">
<title>Node6</title>
<g id="a_node6"><a xlink:href="../../de/db3/classUIElement_aee194ceb3c88758159e31761805e6a9d.html#aee194ceb3c88758159e31761805e6a9d" target="_top" xlink:title=" ">
<polygon fill="white" stroke="black" points="644,-112 644,-131 772,-131 772,-112 644,-112"/>
<text text-anchor="middle" x="708" y="-119" font-family="Helvetica,sans-Serif" font-size="10.00">UIElement.Recalculate</text>
</a>
</g>
</g>
<!-- Node5&#45;&gt;Node6 -->
<g id="edge5" class="edge">
<title>Node5&#45;&gt;Node6</title>
<path fill="none" stroke="midnightblue" d="M577.64,-108C595.17,-109.83 615.03,-111.9 633.83,-113.86"/>
<polygon fill="midnightblue" stroke="midnightblue" points="633.53,-117.35 643.84,-114.91 634.26,-110.39 633.53,-117.35"/>
</g>
<!-- Node12 -->
<g id="node12" class="node">
<title>Node12</title>
<g id="a_node12"><a xlink:href="../../de/db3/classUIElement_a076aedca16efdf0972684e3548a0c73a.html#a076aedca16efdf0972684e3548a0c73a" target="_top" xlink:title=" ">
<polygon fill="white" stroke="black" points="652.5,-74 652.5,-93 763.5,-93 763.5,-74 652.5,-74"/>
<text text-anchor="middle" x="708" y="-81" font-family="Helvetica,sans-Serif" font-size="10.00">UIElement.Remove</text>
</a>
</g>
</g>
<!-- Node5&#45;&gt;Node12 -->
<g id="edge12" class="edge">
<title>Node5&#45;&gt;Node12</title>
<path fill="none" stroke="midnightblue" d="M577.64,-97C597.76,-94.9 620.94,-92.48 642.07,-90.28"/>
<polygon fill="midnightblue" stroke="midnightblue" points="642.68,-93.73 652.26,-89.21 641.95,-86.77 642.68,-93.73"/>
</g>
<!-- Node7 -->
<g id="node7" class="node">
<title>Node7</title>
<g id="a_node7"><a xlink:href="../../df/de1/classUserInterface_a0cfc3c35a0f4df271c43ed2d90975df1.html#a0cfc3c35a0f4df271c43ed2d90975df1" target="_top" xlink:title=" ">
<polygon fill="white" stroke="black" points="815.5,-219 815.5,-238 976.5,-238 976.5,-219 815.5,-219"/>
<text text-anchor="middle" x="896" y="-226" font-family="Helvetica,sans-Serif" font-size="10.00">UserInterface.GetDimensions</text>
</a>
</g>
</g>
<!-- Node6&#45;&gt;Node7 -->
<g id="edge6" class="edge">
<title>Node6&#45;&gt;Node7</title>
<path fill="none" stroke="midnightblue" d="M716.85,-131.21C732.26,-149.57 768.45,-189.37 808,-209.5 812.62,-211.85 817.52,-213.91 822.55,-215.72"/>
<polygon fill="midnightblue" stroke="midnightblue" points="821.74,-219.14 832.34,-218.89 823.9,-212.48 821.74,-219.14"/>
</g>
<!-- Node8 -->
<g id="node8" class="node">
<title>Node8</title>
<g id="a_node8"><a xlink:href="../../de/db3/classUIElement_a5030449fa3a7231b282fb98cfdf1ce01.html#a5030449fa3a7231b282fb98cfdf1ce01" target="_top" xlink:title=" ">
<polygon fill="white" stroke="black" points="808,-169.5 808,-199.5 984,-199.5 984,-169.5 808,-169.5"/>
<text text-anchor="start" x="816" y="-187.5" font-family="Helvetica,sans-Serif" font-size="10.00">UIElement.GetDimensionsBased</text>
<text text-anchor="middle" x="896" y="-176.5" font-family="Helvetica,sans-Serif" font-size="10.00">OnParentDimensions</text>
</a>
</g>
</g>
<!-- Node6&#45;&gt;Node8 -->
<g id="edge7" class="edge">
<title>Node6&#45;&gt;Node8</title>
<path fill="none" stroke="midnightblue" d="M732.4,-131.14C752.33,-139.19 781.81,-150.73 808,-159.5 815.15,-161.89 822.67,-164.27 830.18,-166.55"/>
<polygon fill="midnightblue" stroke="midnightblue" points="829.43,-169.98 840.01,-169.48 831.43,-163.27 829.43,-169.98"/>
</g>
<!-- Node10 -->
<g id="node10" class="node">
<title>Node10</title>
<g id="a_node10"><a xlink:href="../../de/db3/classUIElement_adc42b475f74d77f6fe008b8f1e77ad19.html#adc42b475f74d77f6fe008b8f1e77ad19" target="_top" xlink:title=" ">
<polygon fill="white" stroke="black" points="811,-131 811,-150 981,-150 981,-131 811,-131"/>
<text text-anchor="middle" x="896" y="-138" font-family="Helvetica,sans-Serif" font-size="10.00">UIElement.GetInnerDimensions</text>
</a>
</g>
</g>
<!-- Node6&#45;&gt;Node10 -->
<g id="edge9" class="edge">
<title>Node6&#45;&gt;Node10</title>
<path fill="none" stroke="midnightblue" d="M772.23,-127.96C781.45,-128.9 791.11,-129.89 800.79,-130.88"/>
<polygon fill="midnightblue" stroke="midnightblue" points="800.56,-134.37 810.87,-131.91 801.27,-127.41 800.56,-134.37"/>
</g>
<!-- Node11 -->
<g id="node11" class="node">
<title>Node11</title>
<g id="a_node11"><a xlink:href="../../de/db3/classUIElement_af9e665c7647c2fb436ed3c20be3a40a2.html#af9e665c7647c2fb436ed3c20be3a40a2" target="_top" xlink:title=" ">
<polygon fill="white" stroke="black" points="812,-93 812,-112 980,-112 980,-93 812,-93"/>
<text text-anchor="middle" x="896" y="-100" font-family="Helvetica,sans-Serif" font-size="10.00">UIElement.RecalculateChildren</text>
</a>
</g>
</g>
<!-- Node6&#45;&gt;Node11 -->
<g id="edge10" class="edge">
<title>Node6&#45;&gt;Node11</title>
<path fill="none" stroke="midnightblue" d="M747.54,-111.97C763.4,-109.58 782.52,-107.25 801.65,-105.29"/>
<polygon fill="midnightblue" stroke="midnightblue" points="802.04,-108.76 811.65,-104.3 801.35,-101.8 802.04,-108.76"/>
</g>
<!-- Node9 -->
<g id="node9" class="node">
<title>Node9</title>
<g id="a_node9"><a xlink:href="../../d1/de0/structStyleDimension_a62acad4030569824dcced4b9e3a10e56.html#a62acad4030569824dcced4b9e3a10e56" target="_top" xlink:title=" ">
<polygon fill="white" stroke="black" points="1020,-175 1020,-194 1161,-194 1161,-175 1020,-175"/>
<text text-anchor="middle" x="1090.5" y="-182" font-family="Helvetica,sans-Serif" font-size="10.00">StyleDimension.GetValue</text>
</a>
</g>
</g>
<!-- Node8&#45;&gt;Node9 -->
<g id="edge8" class="edge">
<title>Node8&#45;&gt;Node9</title>
<path fill="none" stroke="midnightblue" d="M984.24,-184.5C992.73,-184.5 1001.31,-184.5 1009.71,-184.5"/>
<polygon fill="midnightblue" stroke="midnightblue" points="1009.87,-188 1019.87,-184.5 1009.87,-181 1009.87,-188"/>
</g>
<!-- Node11&#45;&gt;Node6 -->
<g id="edge11" class="edge">
<title>Node11&#45;&gt;Node6</title>
<path fill="none" stroke="midnightblue" d="M856.61,-112.01C835.14,-115.24 807.65,-118.39 782.23,-120.63"/>
<polygon fill="midnightblue" stroke="midnightblue" points="781.9,-117.15 772.23,-121.47 782.49,-124.12 781.9,-117.15"/>
</g>
<!-- Node13 -->
<g id="node13" class="node">
<title>Node13</title>
<g id="a_node13"><a xlink:href="../../de/db3/classUIElement_a016d4714237f6ee11a0d439dacd6a05d.html#a016d4714237f6ee11a0d439dacd6a05d" target="_top" xlink:title=" ">
<polygon fill="white" stroke="black" points="828,-55 828,-74 964,-74 964,-55 828,-55"/>
<text text-anchor="middle" x="896" y="-62" font-family="Helvetica,sans-Serif" font-size="10.00">UIElement.RemoveChild</text>
</a>
</g>
</g>
<!-- Node12&#45;&gt;Node13 -->
<g id="edge13" class="edge">
<title>Node12&#45;&gt;Node13</title>
<path fill="none" stroke="midnightblue" d="M763.55,-77.93C780.55,-76.19 799.64,-74.24 817.88,-72.38"/>
<polygon fill="midnightblue" stroke="midnightblue" points="818.32,-75.85 827.91,-71.35 817.61,-68.89 818.32,-75.85"/>
</g>
</g>
</svg>
        <g id="navigator" transform="translate(0 0)" fill="#404254">
                <rect fill="#f2f5e9" fill-opacity="0.5" stroke="#606060" stroke-width=".5" x="0" y="0" width="60" height="60"/>
                <use id="zoomplus" xlink:href="#zoomPlus" x="17" y="9" onmousedown="handleZoom(evt,'in')"/>
                <use id="zoomminus" xlink:href="#zoomMin" x="42" y="9" onmousedown="handleZoom(evt,'out')"/>
                <use id="reset" xlink:href="#resetDef" x="30" y="36" onmousedown="handleReset()"/>
                <g id="arrowUp" xlink:href="#dirArrow" transform="translate(30 24)" onmousedown="handlePan(0,-1)">
                  <use xlink:href="#rim" fill="#404040">
                        <set attributeName="fill" to="#808080" begin="arrowUp.mouseover" end="arrowUp.mouseout"/>
                  </use>
                  <path fill="none" stroke="white" stroke-width="1.5" d="M0,-3.0v7 M-2.5,-0.5L0,-3.0L2.5,-0.5"/>
                </g>
                <g id="arrowRight" xlink:href="#dirArrow" transform="rotate(90) translate(36 -43)" onmousedown="handlePan(1,0)">
                  <use xlink:href="#rim" fill="#404040">
                        <set attributeName="fill" to="#808080" begin="arrowRight.mouseover" end="arrowRight.mouseout"/>
                  </use>
                  <path fill="none" stroke="white" stroke-width="1.5" d="M0,-3.0v7 M-2.5,-0.5L0,-3.0L2.5,-0.5"/>
                </g>
                <g id="arrowDown" xlink:href="#dirArrow" transform="rotate(180) translate(-30 -48)" onmousedown="handlePan(0,1)">
                  <use xlink:href="#rim" fill="#404040">
                        <set attributeName="fill" to="#808080" begin="arrowDown.mouseover" end="arrowDown.mouseout"/>
                  </use>
                  <path fill="none" stroke="white" stroke-width="1.5" d="M0,-3.0v7 M-2.5,-0.5L0,-3.0L2.5,-0.5"/>
                </g>
                <g id="arrowLeft" xlink:href="#dirArrow" transform="rotate(270) translate(-36 17)" onmousedown="handlePan(-1,0)">
                  <use xlink:href="#rim" fill="#404040">
                        <set attributeName="fill" to="#808080" begin="arrowLeft.mouseover" end="arrowLeft.mouseout"/>
                  </use>
                  <path fill="none" stroke="white" stroke-width="1.5" d="M0,-3.0v7 M-2.5,-0.5L0,-3.0L2.5,-0.5"/>
                </g>
        </g>
        <svg viewBox="0 0 15 15" width="100%" height="30px" preserveAspectRatio="xMaxYMin meet">
         <g id="arrow_out" transform="scale(0.3 0.3)">
          <a xlink:href="classUICreativePowersMenu_a544d1383461d72c5a4a7fba1efe86d72_a544d1383461d72c5a4a7fba1efe86d72_cgraph_org.svg" target="_base">
           <rect id="button" ry="5" rx="5" y="6" x="6" height="38" width="38"
                fill="#f2f5e9" fill-opacity="0.5" stroke="#606060" stroke-width="1.0"/>
           <path id="arrow"
             d="M 11.500037,31.436501 C 11.940474,20.09759 22.043105,11.32322 32.158766,21.979434 L 37.068811,17.246167 C 37.068811,17.246167 37.088388,32 37.088388,32 L 22.160133,31.978069 C 22.160133,31.978069 26.997745,27.140456 26.997745,27.140456 C 18.528582,18.264221 13.291696,25.230495 11.500037,31.436501 z"
             style="fill:#404040;"/>
          </a>
         </g>
        </svg>
</svg>
