<?xml version="1.0" encoding="UTF-8" standalone="no"?>
<!DOCTYPE svg PUBLIC "-//W3C//DTD SVG 1.1//EN"
 "http://www.w3.org/Graphics/SVG/1.1/DTD/svg11.dtd">
<!-- Generated by graphviz version 2.43.0 (0)
 -->
<!-- Title: ReLogic.Peripherals.RGB.RgbDevice Pages: 1 -->
<svg width="645pt" height="962pt"
 viewBox="0.00 0.00 644.50 962.00" xmlns="http://www.w3.org/2000/svg" xmlns:xlink="http://www.w3.org/1999/xlink">
<g id="graph0" class="graph" transform="scale(1 1) rotate(0) translate(4 958)">
<title>ReLogic.Peripherals.RGB.RgbDevice</title>
<!-- Node1 -->
<g id="Node000001" class="node">
<title>Node1</title>
<g id="a_Node000001"><a xlink:title=" ">
<polygon fill="#999999" stroke="transparent" points="389,-379 174,-379 174,0 389,0 389,-379"/>
<text text-anchor="start" x="220" y="-366.5" font-family="Helvetica,sans-Serif" font-size="10.00">ReLogic.Peripherals.RGB.</text>
<text text-anchor="start" x="255.5" y="-355.5" font-family="Helvetica,sans-Serif" font-size="10.00">RgbDevice</text>
<text text-anchor="start" x="178.5" y="-340.5" font-family="Helvetica,sans-Serif" font-size="10.00">+</text>
<text text-anchor="start" x="191.5" y="-340.5" font-family="Helvetica,sans-Serif" font-size="10.00">EffectDetailLevel Preferred</text>
<text text-anchor="start" x="191.5" y="-329.5" font-family="Helvetica,sans-Serif" font-size="10.00">LevelOfDetail</text>
<text text-anchor="start" x="178.5" y="-314.5" font-family="Helvetica,sans-Serif" font-size="10.00">+</text>
<text text-anchor="start" x="191.5" y="-314.5" font-family="Helvetica,sans-Serif" font-size="10.00">int LedCount</text>
<text text-anchor="start" x="178.5" y="-299.5" font-family="Helvetica,sans-Serif" font-size="10.00">+</text>
<text text-anchor="start" x="191.5" y="-299.5" font-family="Helvetica,sans-Serif" font-size="10.00">virtual Fragment Rasterize()</text>
<text text-anchor="start" x="178.5" y="-284.5" font-family="Helvetica,sans-Serif" font-size="10.00">+</text>
<text text-anchor="start" x="191.5" y="-284.5" font-family="Helvetica,sans-Serif" font-size="10.00">void SetLedColor(int</text>
<text text-anchor="start" x="191.5" y="-273.5" font-family="Helvetica,sans-Serif" font-size="10.00"> index, Vector4 color)</text>
<text text-anchor="start" x="178.5" y="-258.5" font-family="Helvetica,sans-Serif" font-size="10.00">+</text>
<text text-anchor="start" x="191.5" y="-258.5" font-family="Helvetica,sans-Serif" font-size="10.00">Vector2 GetLedCanvasPosition</text>
<text text-anchor="start" x="191.5" y="-247.5" font-family="Helvetica,sans-Serif" font-size="10.00">(int index)</text>
<text text-anchor="start" x="178.5" y="-232.5" font-family="Helvetica,sans-Serif" font-size="10.00">+</text>
<text text-anchor="start" x="191.5" y="-232.5" font-family="Helvetica,sans-Serif" font-size="10.00">Point GetLedGridPosition</text>
<text text-anchor="start" x="191.5" y="-221.5" font-family="Helvetica,sans-Serif" font-size="10.00">(int index)</text>
<text text-anchor="start" x="178.5" y="-206.5" font-family="Helvetica,sans-Serif" font-size="10.00">+</text>
<text text-anchor="start" x="191.5" y="-206.5" font-family="Helvetica,sans-Serif" font-size="10.00">virtual void Render</text>
<text text-anchor="start" x="191.5" y="-195.5" font-family="Helvetica,sans-Serif" font-size="10.00">(Fragment fragment,</text>
<text text-anchor="start" x="191.5" y="-184.5" font-family="Helvetica,sans-Serif" font-size="10.00"> ShaderBlendState blendState)</text>
<text text-anchor="start" x="178.5" y="-169.5" font-family="Helvetica,sans-Serif" font-size="10.00">+</text>
<text text-anchor="start" x="191.5" y="-169.5" font-family="Helvetica,sans-Serif" font-size="10.00">void Present()</text>
<text text-anchor="start" x="178.5" y="-154.5" font-family="Helvetica,sans-Serif" font-size="10.00">+</text>
<text text-anchor="start" x="191.5" y="-154.5" font-family="Helvetica,sans-Serif" font-size="10.00">virtual void DebugDraw</text>
<text text-anchor="start" x="191.5" y="-143.5" font-family="Helvetica,sans-Serif" font-size="10.00">(IDebugDrawer drawer,</text>
<text text-anchor="start" x="191.5" y="-132.5" font-family="Helvetica,sans-Serif" font-size="10.00"> Vector2 position, float scale)</text>
<text text-anchor="start" x="178.5" y="-117.5" font-family="Helvetica,sans-Serif" font-size="10.00">#</text>
<text text-anchor="start" x="191.5" y="-117.5" font-family="Helvetica,sans-Serif" font-size="10.00">RgbDevice(RgbDeviceVendor</text>
<text text-anchor="start" x="191.5" y="-106.5" font-family="Helvetica,sans-Serif" font-size="10.00"> vendor, RgbDeviceType type,</text>
<text text-anchor="start" x="191.5" y="-95.5" font-family="Helvetica,sans-Serif" font-size="10.00"> Fragment fragment, DeviceColorProfile</text>
<text text-anchor="start" x="191.5" y="-84.5" font-family="Helvetica,sans-Serif" font-size="10.00"> colorProfile)</text>
<text text-anchor="start" x="178.5" y="-69.5" font-family="Helvetica,sans-Serif" font-size="10.00">#</text>
<text text-anchor="start" x="191.5" y="-69.5" font-family="Helvetica,sans-Serif" font-size="10.00">Vector4 GetProcessedLedColor</text>
<text text-anchor="start" x="191.5" y="-58.5" font-family="Helvetica,sans-Serif" font-size="10.00">(int index)</text>
<text text-anchor="start" x="178.5" y="-43.5" font-family="Helvetica,sans-Serif" font-size="10.00">#</text>
<text text-anchor="start" x="191.5" y="-43.5" font-family="Helvetica,sans-Serif" font-size="10.00">Vector4 GetUnprocessedLed</text>
<text text-anchor="start" x="191.5" y="-32.5" font-family="Helvetica,sans-Serif" font-size="10.00">Color(int index)</text>
<text text-anchor="start" x="178.5" y="-17.5" font-family="Helvetica,sans-Serif" font-size="10.00">#</text>
<text text-anchor="start" x="191.5" y="-17.5" font-family="Helvetica,sans-Serif" font-size="10.00">Color ProcessLedColor</text>
<text text-anchor="start" x="191.5" y="-6.5" font-family="Helvetica,sans-Serif" font-size="10.00">(Color color)</text>
<polygon fill="#666666" stroke="#666666" points="174.5,-350.5 174.5,-350.5 389.5,-350.5 389.5,-350.5 174.5,-350.5"/>
<polygon fill="#666666" stroke="#666666" points="174.5,-309.5 174.5,-309.5 189.5,-309.5 189.5,-309.5 174.5,-309.5"/>
<polygon fill="#666666" stroke="#666666" points="189.5,-309.5 189.5,-309.5 389.5,-309.5 389.5,-309.5 189.5,-309.5"/>
<polygon fill="none" stroke="#666666" points="174,0 174,-379 389,-379 389,0 174,0"/>
</a>
</g>
</g>
<!-- Node2 -->
<g id="Node000002" class="node">
<title>Node2</title>
<g id="a_Node000002"><a xlink:title=" ">
<polygon fill="white" stroke="transparent" points="131,-672 0,-672 0,-623 131,-623 131,-672"/>
<text text-anchor="start" x="5.5" y="-659.5" font-family="Helvetica,sans-Serif" font-size="10.00">readonly RgbDeviceType</text>
<text text-anchor="start" x="64" y="-644.5" font-family="Helvetica,sans-Serif" font-size="10.00"> </text>
<text text-anchor="start" x="64" y="-629.5" font-family="Helvetica,sans-Serif" font-size="10.00"> </text>
<polygon fill="#666666" stroke="#666666" points="0.5,-654.5 0.5,-654.5 131.5,-654.5 131.5,-654.5 0.5,-654.5"/>
<polygon fill="#666666" stroke="#666666" points="0.5,-639.5 0.5,-639.5 131.5,-639.5 131.5,-639.5 0.5,-639.5"/>
<polygon fill="none" stroke="#666666" points="0,-623 0,-672 131,-672 131,-623 0,-623"/>
</a>
</g>
</g>
<!-- Node2&#45;&gt;Node1 -->
<g id="edge1_Node000001_Node000002" class="edge">
<title>Node2&#45;&gt;Node1</title>
<g id="a_edge1_Node000001_Node000002"><a xlink:title=" ">
<path fill="none" stroke="#63b8ff" d="M72.35,-622.7C84.04,-583.24 109.52,-502.18 139.5,-437 148.25,-417.98 158,-398.49 168.17,-379.22"/>
<polygon fill="none" stroke="#63b8ff" points="168.22,-379.13 167.51,-371.96 173.86,-368.54 174.57,-375.72 168.22,-379.13"/>
</a>
</g>
<text text-anchor="middle" x="173.5" y="-405.5" font-family="Helvetica,sans-Serif" font-size="10.00" fill="grey"> +Type</text>
</g>
<!-- Node3 -->
<g id="Node000003" class="node">
<title>Node3</title>
<g id="a_Node000003"><a xlink:title=" ">
<polygon fill="white" stroke="transparent" points="292,-672 149,-672 149,-623 292,-623 292,-672"/>
<text text-anchor="start" x="154.5" y="-659.5" font-family="Helvetica,sans-Serif" font-size="10.00">readonly RgbDeviceVendor</text>
<text text-anchor="start" x="219" y="-644.5" font-family="Helvetica,sans-Serif" font-size="10.00"> </text>
<text text-anchor="start" x="219" y="-629.5" font-family="Helvetica,sans-Serif" font-size="10.00"> </text>
<polygon fill="#666666" stroke="#666666" points="149.5,-654.5 149.5,-654.5 292.5,-654.5 292.5,-654.5 149.5,-654.5"/>
<polygon fill="#666666" stroke="#666666" points="149.5,-639.5 149.5,-639.5 292.5,-639.5 292.5,-639.5 149.5,-639.5"/>
<polygon fill="none" stroke="#666666" points="149,-623 149,-672 292,-672 292,-623 149,-623"/>
</a>
</g>
</g>
<!-- Node3&#45;&gt;Node1 -->
<g id="edge2_Node000001_Node000003" class="edge">
<title>Node3&#45;&gt;Node1</title>
<g id="a_edge2_Node000001_Node000003"><a xlink:title=" ">
<path fill="none" stroke="#63b8ff" d="M223.65,-622.94C229.48,-579.35 242.48,-482.21 254.68,-391.03"/>
<polygon fill="none" stroke="#63b8ff" points="254.68,-390.97 251.51,-384.49 256.27,-379.07 259.44,-385.55 254.68,-390.97"/>
</a>
</g>
<text text-anchor="middle" x="276.5" y="-405.5" font-family="Helvetica,sans-Serif" font-size="10.00" fill="grey"> +Vendor</text>
</g>
<!-- Node4 -->
<g id="Node000004" class="node">
<title>Node4</title>
<g id="a_Node000004"><a xlink:href="../../da/dd6/classReLogic_1_1Peripherals_1_1RGB_1_1Fragment.html" target="_top" xlink:title=" ">
<polygon fill="white" stroke="transparent" points="484.5,-858 310.5,-858 310.5,-437 484.5,-437 484.5,-858"/>
<text text-anchor="start" x="335.5" y="-845.5" font-family="Helvetica,sans-Serif" font-size="10.00">ReLogic.Peripherals.RGB.</text>
<text text-anchor="start" x="374" y="-834.5" font-family="Helvetica,sans-Serif" font-size="10.00">Fragment</text>
<text text-anchor="start" x="314.5" y="-819.5" font-family="Helvetica,sans-Serif" font-size="10.00">+</text>
<text text-anchor="start" x="327.5" y="-819.5" font-family="Helvetica,sans-Serif" font-size="10.00">Vector2 CanvasTopLeft</text>
<text text-anchor="start" x="314.5" y="-804.5" font-family="Helvetica,sans-Serif" font-size="10.00">+</text>
<text text-anchor="start" x="327.5" y="-804.5" font-family="Helvetica,sans-Serif" font-size="10.00">Vector2 CanvasBottomRight</text>
<text text-anchor="start" x="314.5" y="-789.5" font-family="Helvetica,sans-Serif" font-size="10.00">+</text>
<text text-anchor="start" x="327.5" y="-789.5" font-family="Helvetica,sans-Serif" font-size="10.00">Vector2 CanvasSize</text>
<text text-anchor="start" x="314.5" y="-774.5" font-family="Helvetica,sans-Serif" font-size="10.00">+</text>
<text text-anchor="start" x="327.5" y="-774.5" font-family="Helvetica,sans-Serif" font-size="10.00">Vector2 CanvasCenter</text>
<text text-anchor="start" x="314.5" y="-759.5" font-family="Helvetica,sans-Serif" font-size="10.00">+</text>
<text text-anchor="start" x="327.5" y="-759.5" font-family="Helvetica,sans-Serif" font-size="10.00">Fragment CreateCopy()</text>
<text text-anchor="start" x="314.5" y="-744.5" font-family="Helvetica,sans-Serif" font-size="10.00">+</text>
<text text-anchor="start" x="327.5" y="-744.5" font-family="Helvetica,sans-Serif" font-size="10.00">Vector2 GetCanvasPosition</text>
<text text-anchor="start" x="327.5" y="-733.5" font-family="Helvetica,sans-Serif" font-size="10.00">OfIndex(int index)</text>
<text text-anchor="start" x="314.5" y="-718.5" font-family="Helvetica,sans-Serif" font-size="10.00">+</text>
<text text-anchor="start" x="327.5" y="-718.5" font-family="Helvetica,sans-Serif" font-size="10.00">Point GetGridPositionOfIndex</text>
<text text-anchor="start" x="327.5" y="-707.5" font-family="Helvetica,sans-Serif" font-size="10.00">(int index)</text>
<text text-anchor="start" x="314.5" y="-692.5" font-family="Helvetica,sans-Serif" font-size="10.00">+</text>
<text text-anchor="start" x="327.5" y="-692.5" font-family="Helvetica,sans-Serif" font-size="10.00">void Clear()</text>
<text text-anchor="start" x="314.5" y="-677.5" font-family="Helvetica,sans-Serif" font-size="10.00">+</text>
<text text-anchor="start" x="327.5" y="-677.5" font-family="Helvetica,sans-Serif" font-size="10.00">void SetColor(int index,</text>
<text text-anchor="start" x="327.5" y="-666.5" font-family="Helvetica,sans-Serif" font-size="10.00"> Vector4 color)</text>
<text text-anchor="start" x="314.5" y="-651.5" font-family="Helvetica,sans-Serif" font-size="10.00">+</text>
<text text-anchor="start" x="327.5" y="-651.5" font-family="Helvetica,sans-Serif" font-size="10.00">void SetColor(int index,</text>
<text text-anchor="start" x="327.5" y="-640.5" font-family="Helvetica,sans-Serif" font-size="10.00"> float r, float g, float</text>
<text text-anchor="start" x="327.5" y="-629.5" font-family="Helvetica,sans-Serif" font-size="10.00"> b, float a=1f)</text>
<text text-anchor="start" x="314.5" y="-614.5" font-family="Helvetica,sans-Serif" font-size="10.00">+</text>
<text text-anchor="start" x="327.5" y="-614.5" font-family="Helvetica,sans-Serif" font-size="10.00">Vector4 GetAverage()</text>
<text text-anchor="start" x="314.5" y="-599.5" font-family="Helvetica,sans-Serif" font-size="10.00">+</text>
<text text-anchor="start" x="327.5" y="-599.5" font-family="Helvetica,sans-Serif" font-size="10.00">static Fragment FromGrid</text>
<text text-anchor="start" x="327.5" y="-588.5" font-family="Helvetica,sans-Serif" font-size="10.00">(Rectangle grid)</text>
<text text-anchor="start" x="314.5" y="-573.5" font-family="Helvetica,sans-Serif" font-size="10.00">+</text>
<text text-anchor="start" x="327.5" y="-573.5" font-family="Helvetica,sans-Serif" font-size="10.00">static Fragment FromCustom</text>
<text text-anchor="start" x="327.5" y="-562.5" font-family="Helvetica,sans-Serif" font-size="10.00">(Point[] gridPositions)</text>
<text text-anchor="start" x="314.5" y="-547.5" font-family="Helvetica,sans-Serif" font-size="10.00">+</text>
<text text-anchor="start" x="327.5" y="-547.5" font-family="Helvetica,sans-Serif" font-size="10.00">static Fragment FromCustom</text>
<text text-anchor="start" x="327.5" y="-536.5" font-family="Helvetica,sans-Serif" font-size="10.00">(Point[] gridPositions,</text>
<text text-anchor="start" x="327.5" y="-525.5" font-family="Helvetica,sans-Serif" font-size="10.00"> Vector2[] canvasPositions)</text>
<text text-anchor="start" x="317" y="-510.5" font-family="Helvetica,sans-Serif" font-size="10.00">&#45;</text>
<text text-anchor="start" x="327.5" y="-510.5" font-family="Helvetica,sans-Serif" font-size="10.00">Fragment(Point[] gridPositions)</text>
<text text-anchor="start" x="317" y="-495.5" font-family="Helvetica,sans-Serif" font-size="10.00">&#45;</text>
<text text-anchor="start" x="327.5" y="-495.5" font-family="Helvetica,sans-Serif" font-size="10.00">Fragment(Point[] gridPositions,</text>
<text text-anchor="start" x="327.5" y="-484.5" font-family="Helvetica,sans-Serif" font-size="10.00"> Vector2[] canvasPositions)</text>
<text text-anchor="start" x="317" y="-469.5" font-family="Helvetica,sans-Serif" font-size="10.00">&#45;</text>
<text text-anchor="start" x="327.5" y="-469.5" font-family="Helvetica,sans-Serif" font-size="10.00">void SetupCanvasBounds()</text>
<text text-anchor="start" x="317" y="-454.5" font-family="Helvetica,sans-Serif" font-size="10.00">&#45;</text>
<text text-anchor="start" x="327.5" y="-454.5" font-family="Helvetica,sans-Serif" font-size="10.00">static Vector2[] CreateCanvas</text>
<text text-anchor="start" x="327.5" y="-443.5" font-family="Helvetica,sans-Serif" font-size="10.00">Positions(Point[] gridPositions)</text>
<polygon fill="#666666" stroke="#666666" points="310.5,-829.5 310.5,-829.5 484.5,-829.5 484.5,-829.5 310.5,-829.5"/>
<polygon fill="#666666" stroke="#666666" points="310.5,-769.5 310.5,-769.5 325.5,-769.5 325.5,-769.5 310.5,-769.5"/>
<polygon fill="#666666" stroke="#666666" points="325.5,-769.5 325.5,-769.5 484.5,-769.5 484.5,-769.5 325.5,-769.5"/>
<polygon fill="none" stroke="#666666" points="310.5,-437 310.5,-858 484.5,-858 484.5,-437 310.5,-437"/>
</a>
</g>
</g>
<!-- Node4&#45;&gt;Node1 -->
<g id="edge3_Node000001_Node000004" class="edge">
<title>Node4&#45;&gt;Node1</title>
<g id="a_edge3_Node000001_Node000004"><a xlink:title=" ">
<path fill="none" stroke="#63b8ff" d="M344.17,-436.85C340.32,-421.71 336.44,-406.47 332.6,-391.39"/>
<polygon fill="none" stroke="#63b8ff" points="332.49,-390.96 327.14,-386.13 329.54,-379.33 334.89,-384.16 332.49,-390.96"/>
</a>
</g>
<text text-anchor="middle" x="387" y="-411" font-family="Helvetica,sans-Serif" font-size="10.00" fill="grey"> &#45;_backBuffer</text>
<text text-anchor="middle" x="387" y="-400" font-family="Helvetica,sans-Serif" font-size="10.00" fill="grey">&#45;_workingFragment</text>
</g>
<!-- Node5 -->
<g id="Node000005" class="node">
<title>Node5</title>
<g id="a_Node000005"><a xlink:title=" ">
<polygon fill="white" stroke="transparent" points="220,-954 119,-954 119,-905 220,-905 220,-954"/>
<text text-anchor="start" x="124.5" y="-941.5" font-family="Helvetica,sans-Serif" font-size="10.00">readonly Vector4[]</text>
<text text-anchor="start" x="168" y="-926.5" font-family="Helvetica,sans-Serif" font-size="10.00"> </text>
<text text-anchor="start" x="168" y="-911.5" font-family="Helvetica,sans-Serif" font-size="10.00"> </text>
<polygon fill="#666666" stroke="#666666" points="119.5,-936.5 119.5,-936.5 220.5,-936.5 220.5,-936.5 119.5,-936.5"/>
<polygon fill="#666666" stroke="#666666" points="119.5,-921.5 119.5,-921.5 220.5,-921.5 220.5,-921.5 119.5,-921.5"/>
<polygon fill="none" stroke="#666666" points="119,-905 119,-954 220,-954 220,-905 119,-905"/>
</a>
</g>
</g>
<!-- Node5&#45;&gt;Node4 -->
<g id="edge4_Node000004_Node000005" class="edge">
<title>Node5&#45;&gt;Node4</title>
<g id="a_edge4_Node000004_Node000005"><a xlink:title=" ">
<path fill="none" stroke="#63b8ff" d="M206.53,-904.82C222,-895.35 240.35,-884.65 257.5,-876 276,-866.67 285.58,-872.37 300.5,-858 300.91,-857.6 301.33,-857.2 301.74,-856.79"/>
<polygon fill="none" stroke="#63b8ff" points="301.85,-856.68 303.11,-849.58 310.15,-848.02 308.89,-855.12 301.85,-856.68"/>
</a>
</g>
<text text-anchor="middle" x="279" y="-879" font-family="Helvetica,sans-Serif" font-size="10.00" fill="grey"> +Colors</text>
</g>
<!-- Node6 -->
<g id="Node000006" class="node">
<title>Node6</title>
<g id="a_Node000006"><a xlink:title=" ">
<polygon fill="white" stroke="transparent" points="339,-954 238,-954 238,-905 339,-905 339,-954"/>
<text text-anchor="start" x="243.5" y="-941.5" font-family="Helvetica,sans-Serif" font-size="10.00">readonly Vector2[]</text>
<text text-anchor="start" x="287" y="-926.5" font-family="Helvetica,sans-Serif" font-size="10.00"> </text>
<text text-anchor="start" x="287" y="-911.5" font-family="Helvetica,sans-Serif" font-size="10.00"> </text>
<polygon fill="#666666" stroke="#666666" points="238.5,-936.5 238.5,-936.5 339.5,-936.5 339.5,-936.5 238.5,-936.5"/>
<polygon fill="#666666" stroke="#666666" points="238.5,-921.5 238.5,-921.5 339.5,-921.5 339.5,-921.5 238.5,-921.5"/>
<polygon fill="none" stroke="#666666" points="238,-905 238,-954 339,-954 339,-905 238,-905"/>
</a>
</g>
</g>
<!-- Node6&#45;&gt;Node4 -->
<g id="edge5_Node000004_Node000006" class="edge">
<title>Node6&#45;&gt;Node4</title>
<g id="a_edge5_Node000004_Node000006"><a xlink:title=" ">
<path fill="none" stroke="#63b8ff" d="M296.87,-904.92C300.13,-895.86 303.93,-885.43 307.5,-876 308.3,-873.89 309.1,-871.78 309.91,-869.65"/>
<polygon fill="none" stroke="#63b8ff" points="310,-869.42 308.4,-862.39 314.27,-858.21 315.87,-865.24 310,-869.42"/>
</a>
</g>
<text text-anchor="middle" x="353" y="-879" font-family="Helvetica,sans-Serif" font-size="10.00" fill="grey"> &#45;_canvasPositions</text>
</g>
<!-- Node7 -->
<g id="Node000007" class="node">
<title>Node7</title>
<g id="a_Node000007"><a xlink:title=" ">
<polygon fill="white" stroke="transparent" points="447,-954 358,-954 358,-905 447,-905 447,-954"/>
<text text-anchor="start" x="363.5" y="-941.5" font-family="Helvetica,sans-Serif" font-size="10.00">readonly Point[]</text>
<text text-anchor="start" x="401" y="-926.5" font-family="Helvetica,sans-Serif" font-size="10.00"> </text>
<text text-anchor="start" x="401" y="-911.5" font-family="Helvetica,sans-Serif" font-size="10.00"> </text>
<polygon fill="#666666" stroke="#666666" points="358.5,-936.5 358.5,-936.5 447.5,-936.5 447.5,-936.5 358.5,-936.5"/>
<polygon fill="#666666" stroke="#666666" points="358.5,-921.5 358.5,-921.5 447.5,-921.5 447.5,-921.5 358.5,-921.5"/>
<polygon fill="none" stroke="#666666" points="358,-905 358,-954 447,-954 447,-905 358,-905"/>
</a>
</g>
</g>
<!-- Node7&#45;&gt;Node4 -->
<g id="edge6_Node000004_Node000007" class="edge">
<title>Node7&#45;&gt;Node4</title>
<g id="a_edge6_Node000004_Node000007"><a xlink:title=" ">
<path fill="none" stroke="#63b8ff" d="M402.07,-904.63C401.91,-895.22 401.7,-883.48 401.46,-870.23"/>
<polygon fill="none" stroke="#63b8ff" points="401.46,-870.23 397.35,-864.3 401.25,-858.23 405.35,-864.16 401.46,-870.23"/>
</a>
</g>
<text text-anchor="middle" x="440.5" y="-879" font-family="Helvetica,sans-Serif" font-size="10.00" fill="grey"> &#45;_gridPositions</text>
</g>
<!-- Node8 -->
<g id="Node000008" class="node">
<title>Node8</title>
<g id="a_Node000008"><a xlink:href="../../d1/da0/classint.html" target="_top" xlink:title=" ">
<polygon fill="white" stroke="transparent" points="513,-954 490,-954 490,-905 513,-905 513,-954"/>
<text text-anchor="start" x="495.5" y="-941.5" font-family="Helvetica,sans-Serif" font-size="10.00">int</text>
<text text-anchor="start" x="500" y="-926.5" font-family="Helvetica,sans-Serif" font-size="10.00"> </text>
<text text-anchor="start" x="500" y="-911.5" font-family="Helvetica,sans-Serif" font-size="10.00"> </text>
<polygon fill="#666666" stroke="#666666" points="490.5,-936.5 490.5,-936.5 513.5,-936.5 513.5,-936.5 490.5,-936.5"/>
<polygon fill="#666666" stroke="#666666" points="490.5,-921.5 490.5,-921.5 513.5,-921.5 513.5,-921.5 490.5,-921.5"/>
<polygon fill="none" stroke="#666666" points="490,-905 490,-954 513,-954 513,-905 490,-905"/>
</a>
</g>
</g>
<!-- Node8&#45;&gt;Node4 -->
<g id="edge7_Node000004_Node000008" class="edge">
<title>Node8&#45;&gt;Node4</title>
<g id="a_edge7_Node000004_Node000008"><a xlink:title=" ">
<path fill="none" stroke="#63b8ff" d="M492.63,-904.63C489.1,-895.12 484.69,-883.24 479.71,-869.83"/>
<polygon fill="none" stroke="#63b8ff" points="479.58,-869.48 473.74,-865.25 475.4,-858.23 481.24,-862.46 479.58,-869.48"/>
</a>
</g>
<text text-anchor="middle" x="504.5" y="-879" font-family="Helvetica,sans-Serif" font-size="10.00" fill="grey"> +Count</text>
</g>
<!-- Node9 -->
<g id="Node000009" class="node">
<title>Node9</title>
<g id="a_Node000009"><a xlink:href="../../d4/de1/classReLogic_1_1Peripherals_1_1RGB_1_1DeviceColorProfile.html" target="_top" xlink:title=" ">
<polygon fill="white" stroke="transparent" points="636.5,-731.5 502.5,-731.5 502.5,-563.5 636.5,-563.5 636.5,-731.5"/>
<text text-anchor="start" x="507.5" y="-719.5" font-family="Helvetica,sans-Serif" font-size="10.00">ReLogic.Peripherals.RGB.</text>
<text text-anchor="start" x="524" y="-708.5" font-family="Helvetica,sans-Serif" font-size="10.00">DeviceColorProfile</text>
<text text-anchor="start" x="507.5" y="-693.5" font-family="Helvetica,sans-Serif" font-size="10.00">+</text>
<text text-anchor="start" x="521.5" y="-693.5" font-family="Helvetica,sans-Serif" font-size="10.00">float RedMultiplier</text>
<text text-anchor="start" x="507.5" y="-678.5" font-family="Helvetica,sans-Serif" font-size="10.00">+</text>
<text text-anchor="start" x="521.5" y="-678.5" font-family="Helvetica,sans-Serif" font-size="10.00">float GreenMultiplier</text>
<text text-anchor="start" x="507.5" y="-663.5" font-family="Helvetica,sans-Serif" font-size="10.00">+</text>
<text text-anchor="start" x="521.5" y="-663.5" font-family="Helvetica,sans-Serif" font-size="10.00">float BlueMultiplier</text>
<text text-anchor="start" x="507.5" y="-648.5" font-family="Helvetica,sans-Serif" font-size="10.00">+</text>
<text text-anchor="start" x="521.5" y="-648.5" font-family="Helvetica,sans-Serif" font-size="10.00">DeviceColorProfile()</text>
<text text-anchor="start" x="507.5" y="-633.5" font-family="Helvetica,sans-Serif" font-size="10.00">+</text>
<text text-anchor="start" x="521.5" y="-633.5" font-family="Helvetica,sans-Serif" font-size="10.00">DeviceColorProfile</text>
<text text-anchor="start" x="521.5" y="-622.5" font-family="Helvetica,sans-Serif" font-size="10.00">(Vector3 multiplier)</text>
<text text-anchor="start" x="507.5" y="-607.5" font-family="Helvetica,sans-Serif" font-size="10.00">+</text>
<text text-anchor="start" x="521.5" y="-607.5" font-family="Helvetica,sans-Serif" font-size="10.00">void Apply(ref Vector4</text>
<text text-anchor="start" x="521.5" y="-596.5" font-family="Helvetica,sans-Serif" font-size="10.00"> color)</text>
<text text-anchor="start" x="507.5" y="-581.5" font-family="Helvetica,sans-Serif" font-size="10.00">+</text>
<text text-anchor="start" x="521.5" y="-581.5" font-family="Helvetica,sans-Serif" font-size="10.00">void Apply(ref Vector3</text>
<text text-anchor="start" x="521.5" y="-570.5" font-family="Helvetica,sans-Serif" font-size="10.00"> color)</text>
<polygon fill="#666666" stroke="#666666" points="502.5,-703.5 502.5,-703.5 636.5,-703.5 636.5,-703.5 502.5,-703.5"/>
<polygon fill="#666666" stroke="#666666" points="502.5,-658.5 502.5,-658.5 519.5,-658.5 519.5,-658.5 502.5,-658.5"/>
<polygon fill="#666666" stroke="#666666" points="519.5,-658.5 519.5,-658.5 636.5,-658.5 636.5,-658.5 519.5,-658.5"/>
<polygon fill="none" stroke="#666666" points="502.5,-563.5 502.5,-731.5 636.5,-731.5 636.5,-563.5 502.5,-563.5"/>
</a>
</g>
</g>
<!-- Node9&#45;&gt;Node1 -->
<g id="edge8_Node000001_Node000009" class="edge">
<title>Node9&#45;&gt;Node1</title>
<g id="a_edge8_Node000001_Node000009"><a xlink:title=" ">
<path fill="none" stroke="#63b8ff" d="M546.99,-563.35C534.34,-523.6 516.45,-476.24 493.5,-437 466.92,-391.55 431.57,-346.5 397.36,-307.59"/>
<polygon fill="none" stroke="#63b8ff" points="397.13,-307.32 390.16,-305.49 389.16,-298.35 396.14,-300.18 397.13,-307.32"/>
</a>
</g>
<text text-anchor="middle" x="514" y="-405.5" font-family="Helvetica,sans-Serif" font-size="10.00" fill="grey"> &#45;_colorProfile</text>
</g>
<!-- Node10 -->
<g id="Node000010" class="node">
<title>Node10</title>
<g id="a_Node000010"><a xlink:title=" ">
<polygon fill="white" stroke="transparent" points="593,-954 546,-954 546,-905 593,-905 593,-954"/>
<text text-anchor="start" x="551.5" y="-941.5" font-family="Helvetica,sans-Serif" font-size="10.00">Vector3</text>
<text text-anchor="start" x="568" y="-926.5" font-family="Helvetica,sans-Serif" font-size="10.00"> </text>
<text text-anchor="start" x="568" y="-911.5" font-family="Helvetica,sans-Serif" font-size="10.00"> </text>
<polygon fill="#666666" stroke="#666666" points="546.5,-936.5 546.5,-936.5 593.5,-936.5 593.5,-936.5 546.5,-936.5"/>
<polygon fill="#666666" stroke="#666666" points="546.5,-921.5 546.5,-921.5 593.5,-921.5 593.5,-921.5 546.5,-921.5"/>
<polygon fill="none" stroke="#666666" points="546,-905 546,-954 593,-954 593,-905 546,-905"/>
</a>
</g>
</g>
<!-- Node10&#45;&gt;Node9 -->
<g id="edge9_Node000009_Node000010" class="edge">
<title>Node10&#45;&gt;Node9</title>
<g id="a_edge9_Node000009_Node000010"><a xlink:title=" ">
<path fill="none" stroke="#63b8ff" d="M569.5,-904.63C569.5,-869.25 569.5,-800.94 569.5,-743.75"/>
<polygon fill="none" stroke="#63b8ff" points="569.5,-743.74 565.5,-737.74 569.5,-731.74 573.5,-737.74 569.5,-743.74"/>
</a>
</g>
<text text-anchor="middle" x="599.5" y="-879" font-family="Helvetica,sans-Serif" font-size="10.00" fill="grey"> &#45;_multiplier</text>
</g>
</g>
</svg>
