<?xml version="1.0" encoding="UTF-8" standalone="no"?>
<!DOCTYPE svg PUBLIC "-//W3C//DTD SVG 1.1//EN"
 "http://www.w3.org/Graphics/SVG/1.1/DTD/svg11.dtd">
<!-- Generated by graphviz version 2.43.0 (0)
 -->
<!-- Title: WallID.Sets.Conversion Pages: 1 -->
<svg width="153pt" height="292pt"
 viewBox="0.00 0.00 153.00 292.00" xmlns="http://www.w3.org/2000/svg" xmlns:xlink="http://www.w3.org/1999/xlink">
<g id="graph0" class="graph" transform="scale(1 1) rotate(0) translate(4 288)">
<title>WallID.Sets.Conversion</title>
<polygon fill="white" stroke="transparent" points="-4,4 -4,-288 149,-288 149,4 -4,4"/>
<!-- Node1 -->
<g id="node1" class="node">
<title>Node1</title>
<g id="a_node1"><a xlink:title=" ">
<polygon fill="#bfbfbf" stroke="black" points="0,-0.5 0,-68.5 130,-68.5 130,-0.5 0,-0.5"/>
<text text-anchor="middle" x="65" y="-56.5" font-family="Helvetica,sans-Serif" font-size="10.00">WallID.Sets.Conversion</text>
<polyline fill="none" stroke="black" points="0,-49.5 130,-49.5 "/>
<text text-anchor="start" x="8" y="-37.5" font-family="Helvetica,sans-Serif" font-size="10.00">+ static bool[] Stone</text>
<text text-anchor="start" x="8" y="-26.5" font-family="Helvetica,sans-Serif" font-size="10.00">+ static bool[] Snow</text>
<polyline fill="none" stroke="black" points="0,-19.5 130,-19.5 "/>
<text text-anchor="middle" x="65" y="-7.5" font-family="Helvetica,sans-Serif" font-size="10.00"> </text>
</a>
</g>
</g>
<!-- Node2 -->
<g id="node2" class="node">
<title>Node2</title>
<g id="a_node2"><a xlink:title=" ">
<polygon fill="white" stroke="#bfbfbf" points="46,-226.5 46,-283.5 84,-283.5 84,-226.5 46,-226.5"/>
<text text-anchor="middle" x="65" y="-271.5" font-family="Helvetica,sans-Serif" font-size="10.00">bool</text>
<polyline fill="none" stroke="#bfbfbf" points="46,-264.5 84,-264.5 "/>
<text text-anchor="middle" x="65" y="-252.5" font-family="Helvetica,sans-Serif" font-size="10.00"> </text>
<polyline fill="none" stroke="#bfbfbf" points="46,-245.5 84,-245.5 "/>
<text text-anchor="middle" x="65" y="-233.5" font-family="Helvetica,sans-Serif" font-size="10.00"> </text>
</a>
</g>
</g>
<!-- Node2&#45;&gt;Node1 -->
<g id="edge1" class="edge">
<title>Node2&#45;&gt;Node1</title>
<path fill="none" stroke="#404040" d="M65,-226.33C65,-189.67 65,-124.54 65,-80.69"/>
<polygon fill="none" stroke="#404040" points="65,-80.65 61,-74.65 65,-68.65 69,-74.65 65,-80.65"/>
<text text-anchor="middle" x="105" y="-200" font-family="Helvetica,sans-Serif" font-size="10.00"> +Dirt</text>
<text text-anchor="middle" x="105" y="-189" font-family="Helvetica,sans-Serif" font-size="10.00">+Grass</text>
<text text-anchor="middle" x="105" y="-178" font-family="Helvetica,sans-Serif" font-size="10.00">+HardenedSand</text>
<text text-anchor="middle" x="105" y="-167" font-family="Helvetica,sans-Serif" font-size="10.00">+Ice</text>
<text text-anchor="middle" x="105" y="-156" font-family="Helvetica,sans-Serif" font-size="10.00">+NewWall1</text>
<text text-anchor="middle" x="105" y="-145" font-family="Helvetica,sans-Serif" font-size="10.00">+NewWall2</text>
<text text-anchor="middle" x="105" y="-134" font-family="Helvetica,sans-Serif" font-size="10.00">+NewWall3</text>
<text text-anchor="middle" x="105" y="-123" font-family="Helvetica,sans-Serif" font-size="10.00">+NewWall4</text>
<text text-anchor="middle" x="105" y="-112" font-family="Helvetica,sans-Serif" font-size="10.00">+PureSand</text>
<text text-anchor="middle" x="105" y="-101" font-family="Helvetica,sans-Serif" font-size="10.00">+Sandstone</text>
<text text-anchor="middle" x="105" y="-90" font-family="Helvetica,sans-Serif" font-size="10.00">...</text>
</g>
</g>
</svg>
