<?xml version="1.0" encoding="UTF-8" standalone="no"?>
<!DOCTYPE svg PUBLIC "-//W3C//DTD SVG 1.1//EN"
 "http://www.w3.org/Graphics/SVG/1.1/DTD/svg11.dtd">
<!-- Generated by graphviz version 2.43.0 (0)
 -->
<!-- Title: Terraria.GameContent.Bestiary.NPCWasNearPlayerTracker.RegisterWasNearby Pages: 1 -->
<svg width="826pt" height="182pt"
 viewBox="0.00 0.00 826.00 182.00" xmlns="http://www.w3.org/2000/svg" xmlns:xlink="http://www.w3.org/1999/xlink">
<g id="graph0" class="graph" transform="scale(1 1) rotate(0) translate(4 178)">
<title>Terraria.GameContent.Bestiary.NPCWasNearPlayerTracker.RegisterWasNearby</title>
<!-- Node1 -->
<g id="Node000001" class="node">
<title>Node1</title>
<g id="a_Node000001"><a xlink:title=" ">
<polygon fill="#999999" stroke="#666666" points="188,-89.5 0,-89.5 0,-48.5 188,-48.5 188,-89.5"/>
<text text-anchor="start" x="8" y="-77.5" font-family="Helvetica,sans-Serif" font-size="10.00">Terraria.GameContent.Bestiary.</text>
<text text-anchor="start" x="8" y="-66.5" font-family="Helvetica,sans-Serif" font-size="10.00">NPCWasNearPlayerTracker.Register</text>
<text text-anchor="middle" x="94" y="-55.5" font-family="Helvetica,sans-Serif" font-size="10.00">WasNearby</text>
</a>
</g>
</g>
<!-- Node2 -->
<g id="Node000002" class="node">
<title>Node2</title>
<g id="a_Node000002"><a xlink:href="../../de/d3b/classTerraria_1_1Net_1_1NetManager_a216f3e855a8d70b2aa070502a21f63af.html#a216f3e855a8d70b2aa070502a21f63af" target="_top" xlink:title=" ">
<polygon fill="white" stroke="#666666" points="405.5,-132 266.5,-132 266.5,-102 405.5,-102 405.5,-132"/>
<text text-anchor="start" x="274.5" y="-120" font-family="Helvetica,sans-Serif" font-size="10.00">Terraria.Net.NetManager.</text>
<text text-anchor="middle" x="336" y="-109" font-family="Helvetica,sans-Serif" font-size="10.00">Broadcast</text>
</a>
</g>
</g>
<!-- Node1&#45;&gt;Node2 -->
<g id="edge1_Node000001_Node000002" class="edge">
<title>Node1&#45;&gt;Node2</title>
<g id="a_edge1_Node000001_Node000002"><a xlink:title=" ">
<path fill="none" stroke="#63b8ff" d="M188.13,-87.63C210.76,-92.15 234.72,-96.94 256.59,-101.32"/>
<polygon fill="#63b8ff" stroke="#63b8ff" points="255.98,-104.77 266.48,-103.3 257.36,-97.9 255.98,-104.77"/>
</a>
</g>
</g>
<!-- Node9 -->
<g id="Node000009" class="node">
<title>Node9</title>
<g id="a_Node000009"><a xlink:href="../../df/d0d/classTerraria_1_1NPC_a9ee507ffca6ec720cd5e0eb7ed24eae5.html#a9ee507ffca6ec720cd5e0eb7ed24eae5" target="_top" xlink:title=" ">
<polygon fill="white" stroke="#666666" points="404.5,-84 267.5,-84 267.5,-54 404.5,-54 404.5,-84"/>
<text text-anchor="start" x="275.5" y="-72" font-family="Helvetica,sans-Serif" font-size="10.00">Terraria.NPC.GetBestiary</text>
<text text-anchor="middle" x="336" y="-61" font-family="Helvetica,sans-Serif" font-size="10.00">CreditId</text>
</a>
</g>
</g>
<!-- Node1&#45;&gt;Node9 -->
<g id="edge8_Node000001_Node000009" class="edge">
<title>Node1&#45;&gt;Node9</title>
<g id="a_edge8_Node000001_Node000009"><a xlink:title=" ">
<path fill="none" stroke="#63b8ff" d="M188.13,-69C210.88,-69 234.99,-69 256.95,-69"/>
<polygon fill="#63b8ff" stroke="#63b8ff" points="257.21,-72.5 267.21,-69 257.21,-65.5 257.21,-72.5"/>
</a>
</g>
</g>
<!-- Node10 -->
<g id="Node000010" class="node">
<title>Node10</title>
<g id="a_Node000010"><a xlink:href="../../d9/df8/classTerraria_1_1GameContent_1_1NetModules_1_1NetBestiaryModule_a8d7110ab9fec430b38cf5a48acf2f10d.html#a8d7110ab9fec430b38cf5a48acf2f10d" target="_top" xlink:title=" ">
<polygon fill="white" stroke="#666666" points="448,-36 224,-36 224,-6 448,-6 448,-36"/>
<text text-anchor="start" x="232" y="-24" font-family="Helvetica,sans-Serif" font-size="10.00">Terraria.GameContent.Net</text>
<text text-anchor="middle" x="336" y="-13" font-family="Helvetica,sans-Serif" font-size="10.00">Modules.NetBestiaryModule.SerializeSight</text>
</a>
</g>
</g>
<!-- Node1&#45;&gt;Node10 -->
<g id="edge9_Node000001_Node000010" class="edge">
<title>Node1&#45;&gt;Node10</title>
<g id="a_edge9_Node000001_Node000010"><a xlink:title=" ">
<path fill="none" stroke="#63b8ff" d="M188.13,-50.37C208.42,-46.32 229.79,-42.04 249.76,-38.05"/>
<polygon fill="#63b8ff" stroke="#63b8ff" points="250.62,-41.44 259.74,-36.05 249.25,-34.58 250.62,-41.44"/>
</a>
</g>
</g>
<!-- Node3 -->
<g id="Node000003" class="node">
<title>Node3</title>
<g id="a_Node000003"><a xlink:href="../../dc/d01/classTerraria_1_1RemoteClient_ac81c152a58ad2349694c928f8ad4f8f4.html#ac81c152a58ad2349694c928f8ad4f8f4" target="_top" xlink:title=" ">
<polygon fill="white" stroke="#666666" points="620.5,-162 486.5,-162 486.5,-132 620.5,-132 620.5,-162"/>
<text text-anchor="start" x="494.5" y="-150" font-family="Helvetica,sans-Serif" font-size="10.00">Terraria.RemoteClient.Is</text>
<text text-anchor="middle" x="553.5" y="-139" font-family="Helvetica,sans-Serif" font-size="10.00">Connected</text>
</a>
</g>
</g>
<!-- Node2&#45;&gt;Node3 -->
<g id="edge2_Node000002_Node000003" class="edge">
<title>Node2&#45;&gt;Node3</title>
<g id="a_edge2_Node000002_Node000003"><a xlink:title=" ">
<path fill="none" stroke="#63b8ff" d="M405.78,-126.57C428.2,-129.7 453.23,-133.18 476.18,-136.38"/>
<polygon fill="#63b8ff" stroke="#63b8ff" points="475.82,-139.86 486.21,-137.77 476.79,-132.93 475.82,-139.86"/>
</a>
</g>
</g>
<!-- Node5 -->
<g id="Node000005" class="node">
<title>Node5</title>
<g id="a_Node000005"><a xlink:href="../../de/d3b/classTerraria_1_1Net_1_1NetManager_a64bad5c584b7c4897a2a088beecacbef.html#a64bad5c584b7c4897a2a088beecacbef" target="_top" xlink:title=" ">
<polygon fill="white" stroke="#666666" points="623,-102 484,-102 484,-72 623,-72 623,-102"/>
<text text-anchor="start" x="492" y="-90" font-family="Helvetica,sans-Serif" font-size="10.00">Terraria.Net.NetManager.</text>
<text text-anchor="middle" x="553.5" y="-79" font-family="Helvetica,sans-Serif" font-size="10.00">SendData</text>
</a>
</g>
</g>
<!-- Node2&#45;&gt;Node5 -->
<g id="edge4_Node000002_Node000005" class="edge">
<title>Node2&#45;&gt;Node5</title>
<g id="a_edge4_Node000002_Node000005"><a xlink:title=" ">
<path fill="none" stroke="#63b8ff" d="M405.78,-107.43C427.36,-104.42 451.34,-101.08 473.57,-97.99"/>
<polygon fill="#63b8ff" stroke="#63b8ff" points="474.21,-101.43 483.64,-96.59 473.25,-94.5 474.21,-101.43"/>
</a>
</g>
</g>
<!-- Node4 -->
<g id="Node000004" class="node">
<title>Node4</title>
<g id="a_Node000004"><a xlink:href="../../d4/dcd/interfaceTerraria_1_1Net_1_1Sockets_1_1ISocket_ae4e8fe8f37c8053fd589f4ad4c9c8bd8.html#ae4e8fe8f37c8053fd589f4ad4c9c8bd8" target="_top" xlink:title=" ">
<polygon fill="white" stroke="#666666" points="816,-174 661,-174 661,-144 816,-144 816,-174"/>
<text text-anchor="start" x="669" y="-162" font-family="Helvetica,sans-Serif" font-size="10.00">Terraria.Net.Sockets.ISocket.</text>
<text text-anchor="middle" x="738.5" y="-151" font-family="Helvetica,sans-Serif" font-size="10.00">IsConnected</text>
</a>
</g>
</g>
<!-- Node3&#45;&gt;Node4 -->
<g id="edge3_Node000003_Node000004" class="edge">
<title>Node3&#45;&gt;Node4</title>
<g id="a_edge3_Node000003_Node000004"><a xlink:title=" ">
<path fill="none" stroke="#63b8ff" d="M620.57,-151.33C630.4,-151.98 640.65,-152.65 650.82,-153.32"/>
<polygon fill="#63b8ff" stroke="#63b8ff" points="650.74,-156.82 660.95,-153.98 651.2,-149.83 650.74,-156.82"/>
</a>
</g>
</g>
<!-- Node6 -->
<g id="Node000006" class="node">
<title>Node6</title>
<g id="a_Node000006"><a xlink:href="../../d4/dcd/interfaceTerraria_1_1Net_1_1Sockets_1_1ISocket_a7148918709f1fbc785ee65e08ee5217c.html#a7148918709f1fbc785ee65e08ee5217c" target="_top" xlink:title=" ">
<polygon fill="white" stroke="#666666" points="816,-126 661,-126 661,-96 816,-96 816,-126"/>
<text text-anchor="start" x="669" y="-114" font-family="Helvetica,sans-Serif" font-size="10.00">Terraria.Net.Sockets.ISocket.</text>
<text text-anchor="middle" x="738.5" y="-103" font-family="Helvetica,sans-Serif" font-size="10.00">AsyncSend</text>
</a>
</g>
</g>
<!-- Node5&#45;&gt;Node6 -->
<g id="edge5_Node000005_Node000006" class="edge">
<title>Node5&#45;&gt;Node6</title>
<g id="a_edge5_Node000005_Node000006"><a xlink:title=" ">
<path fill="none" stroke="#63b8ff" d="M623.16,-96C632.18,-97.19 641.5,-98.41 650.77,-99.63"/>
<polygon fill="#63b8ff" stroke="#63b8ff" points="650.4,-103.11 660.77,-100.94 651.31,-96.17 650.4,-103.11"/>
</a>
</g>
</g>
<!-- Node7 -->
<g id="Node000007" class="node">
<title>Node7</title>
<g id="a_Node000007"><a xlink:href="../../de/d3b/classTerraria_1_1Net_1_1NetManager_a7f88d801d8fff49d525870935f4f3d89.html#a7f88d801d8fff49d525870935f4f3d89" target="_top" xlink:title=" ">
<polygon fill="white" stroke="#666666" points="808,-78 669,-78 669,-48 808,-48 808,-78"/>
<text text-anchor="start" x="677" y="-66" font-family="Helvetica,sans-Serif" font-size="10.00">Terraria.Net.NetManager.</text>
<text text-anchor="middle" x="738.5" y="-55" font-family="Helvetica,sans-Serif" font-size="10.00">SendCallback</text>
</a>
</g>
</g>
<!-- Node5&#45;&gt;Node7 -->
<g id="edge6_Node000005_Node000007" class="edge">
<title>Node5&#45;&gt;Node7</title>
<g id="a_edge6_Node000005_Node000007"><a xlink:title=" ">
<path fill="none" stroke="#63b8ff" d="M623.16,-78C634.69,-76.48 646.74,-74.9 658.51,-73.36"/>
<polygon fill="#63b8ff" stroke="#63b8ff" points="659.3,-76.79 668.76,-72.02 658.39,-69.85 659.3,-76.79"/>
</a>
</g>
</g>
<!-- Node8 -->
<g id="Node000008" class="node">
<title>Node8</title>
<g id="a_Node000008"><a xlink:href="../../d2/d84/structTerraria_1_1Net_1_1NetPacket_a22335ad9a27fdcda6d3c1952eeb6d308.html#a22335ad9a27fdcda6d3c1952eeb6d308" target="_top" xlink:title=" ">
<polygon fill="white" stroke="#666666" points="818,-30 659,-30 659,0 818,0 818,-30"/>
<text text-anchor="start" x="667" y="-18" font-family="Helvetica,sans-Serif" font-size="10.00">Terraria.Net.NetPacket.Shrink</text>
<text text-anchor="middle" x="738.5" y="-7" font-family="Helvetica,sans-Serif" font-size="10.00">ToFit</text>
</a>
</g>
</g>
<!-- Node5&#45;&gt;Node8 -->
<g id="edge7_Node000005_Node000008" class="edge">
<title>Node5&#45;&gt;Node8</title>
<g id="a_edge7_Node000005_Node000008"><a xlink:title=" ">
<path fill="none" stroke="#63b8ff" d="M584.68,-71.83C605.31,-61.79 633.44,-48.73 659,-39 664.16,-37.04 669.56,-35.12 675,-33.27"/>
<polygon fill="#63b8ff" stroke="#63b8ff" points="676.41,-36.5 684.81,-30.04 674.22,-29.85 676.41,-36.5"/>
</a>
</g>
</g>
</g>
</svg>
