<?xml version="1.0" encoding="UTF-8" standalone="no"?>
<!DOCTYPE svg PUBLIC "-//W3C//DTD SVG 1.1//EN"
 "http://www.w3.org/Graphics/SVG/1.1/DTD/svg11.dtd">
<!-- Generated by graphviz version 2.43.0 (0)
 -->
<!-- Title: MessageDispatcherClient.Start Pages: 1 -->
<!--zoomable 85 -->
<svg id="main" version="1.1" xmlns="http://www.w3.org/2000/svg" xmlns:xlink="http://www.w3.org/1999/xlink" xml:space="preserve" onload="init(evt)">
<style type="text/css"><![CDATA[
.edge:hover path { stroke: red; }
.edge:hover polygon { stroke: red; fill: red; }
]]></style>
<script type="text/javascript"><![CDATA[
var edges = document.getElementsByTagName('g');
if (edges && edges.length) {
  for (var i=0;i<edges.length;i++) {
    if (edges[i].id.substr(0,4)=='edge') {
      edges[i].setAttribute('class','edge');
    }
  }
}
]]></script>
        <defs>
                <circle id="rim" cx="0" cy="0" r="7"/>
                <circle id="rim2" cx="0" cy="0" r="3.5"/>
                <g id="zoomPlus">
                        <use xlink:href="#rim" fill="#404040">
                                <set attributeName="fill" to="#808080" begin="zoomplus.mouseover" end="zoomplus.mouseout"/>
                        </use>
                        <path d="M-4,0h8M0,-4v8" fill="none" stroke="white" stroke-width="1.5" pointer-events="none"/>
                </g>
                <g id="zoomMin">
                        <use xlink:href="#rim" fill="#404040">
                                <set attributeName="fill" to="#808080" begin="zoomminus.mouseover" end="zoomminus.mouseout"/>
                        </use>
                        <path d="M-4,0h8" fill="none" stroke="white" stroke-width="1.5" pointer-events="none"/>
                </g>
                <g id="dirArrow">
                        <path fill="none" stroke="white" stroke-width="1.5" d="M0,-3.0v7 M-2.5,-0.5L0,-3.0L2.5,-0.5"/>
                </g>
               <g id="resetDef">
                       <use xlink:href="#rim2" fill="#404040">
                               <set attributeName="fill" to="#808080" begin="reset.mouseover" end="reset.mouseout"/>
                       </use>
               </g>
        </defs>

<script type="text/javascript">
var viewWidth = 855;
var viewHeight = 85;
var sectionId = 'dynsection-0';
</script>
<script xlink:href="../../svgpan.js"/>
<svg id="graph" class="graph">
<g id="viewport">
<title>MessageDispatcherClient.Start</title>
<polygon fill="white" stroke="transparent" points="-4,4 -4,-81 851,-81 851,4 -4,4"/>
<!-- Node1 -->
<g id="node1" class="node">
<title>Node1</title>
<g id="a_node1"><a xlink:title=" ">
<polygon fill="#bfbfbf" stroke="black" points="0,-14 0,-44 144,-44 144,-14 0,-14"/>
<text text-anchor="start" x="8" y="-32" font-family="Helvetica,sans-Serif" font-size="10.00">MessageDispatcherClient.</text>
<text text-anchor="middle" x="72" y="-21" font-family="Helvetica,sans-Serif" font-size="10.00">Start</text>
</a>
</g>
</g>
<!-- Node2 -->
<g id="node2" class="node">
<title>Node2</title>
<g id="a_node2"><a xlink:href="../../d0/dbc/classIPCClient_a85c48f01e95260397404deeabf968cfd.html#a85c48f01e95260397404deeabf968cfd" target="_top" xlink:title=" ">
<polygon fill="white" stroke="black" points="180,-19.5 180,-38.5 294,-38.5 294,-19.5 180,-19.5"/>
<text text-anchor="middle" x="237" y="-26.5" font-family="Helvetica,sans-Serif" font-size="10.00">IPCClient.ConnectTo</text>
</a>
</g>
</g>
<!-- Node1&#45;&gt;Node2 -->
<g id="edge1" class="edge">
<title>Node1&#45;&gt;Node2</title>
<path fill="none" stroke="midnightblue" d="M144.02,-29C152.56,-29 161.25,-29 169.72,-29"/>
<polygon fill="midnightblue" stroke="midnightblue" points="169.91,-32.5 179.91,-29 169.91,-25.5 169.91,-32.5"/>
</g>
<!-- Node3 -->
<g id="node3" class="node">
<title>Node3</title>
<g id="a_node3"><a xlink:href="../../de/d2d/classIPCBase_aecb375bd308058305a1ccb3c9394d91c.html#aecb375bd308058305a1ccb3c9394d91c" target="_top" xlink:title=" ">
<polygon fill="white" stroke="black" points="331,-38.5 331,-57.5 466,-57.5 466,-38.5 331,-38.5"/>
<text text-anchor="middle" x="398.5" y="-45.5" font-family="Helvetica,sans-Serif" font-size="10.00">IPCBase.BeginReadData</text>
</a>
</g>
</g>
<!-- Node2&#45;&gt;Node3 -->
<g id="edge2" class="edge">
<title>Node2&#45;&gt;Node3</title>
<path fill="none" stroke="midnightblue" d="M294.23,-35.7C302.84,-36.72 311.84,-37.8 320.79,-38.86"/>
<polygon fill="midnightblue" stroke="midnightblue" points="320.51,-42.35 330.85,-40.06 321.33,-35.4 320.51,-42.35"/>
</g>
<!-- Node7 -->
<g id="node7" class="node">
<title>Node7</title>
<g id="a_node7"><a xlink:href="../../d0/dbc/classIPCClient_a7a89d7924cf2779fd8dff734fa267e36.html#a7a89d7924cf2779fd8dff734fa267e36" target="_top" xlink:title=" ">
<polygon fill="white" stroke="black" points="330,-0.5 330,-19.5 467,-19.5 467,-0.5 330,-0.5"/>
<text text-anchor="middle" x="398.5" y="-7.5" font-family="Helvetica,sans-Serif" font-size="10.00">IPCClient.GetPipeStream</text>
</a>
</g>
</g>
<!-- Node2&#45;&gt;Node7 -->
<g id="edge7" class="edge">
<title>Node2&#45;&gt;Node7</title>
<path fill="none" stroke="midnightblue" d="M294.23,-22.3C302.49,-21.32 311.11,-20.29 319.7,-19.27"/>
<polygon fill="midnightblue" stroke="midnightblue" points="320.23,-22.73 329.74,-18.07 319.4,-15.78 320.23,-22.73"/>
</g>
<!-- Node4 -->
<g id="node4" class="node">
<title>Node4</title>
<g id="a_node4"><a xlink:href="../../de/d2d/classIPCBase_a5d25dc54d1bc29f2a9435e2ef56d6361.html#a5d25dc54d1bc29f2a9435e2ef56d6361" target="_top" xlink:title=" ">
<polygon fill="white" stroke="black" points="503,-57.5 503,-76.5 629,-76.5 629,-57.5 503,-57.5"/>
<text text-anchor="middle" x="566" y="-64.5" font-family="Helvetica,sans-Serif" font-size="10.00">IPCBase.ReadCallback</text>
</a>
</g>
</g>
<!-- Node3&#45;&gt;Node4 -->
<g id="edge3" class="edge">
<title>Node3&#45;&gt;Node4</title>
<path fill="none" stroke="midnightblue" d="M466.34,-55.67C475.04,-56.67 483.99,-57.7 492.78,-58.71"/>
<polygon fill="midnightblue" stroke="midnightblue" points="492.66,-62.22 503,-59.88 493.46,-55.26 492.66,-62.22"/>
</g>
<!-- Node6 -->
<g id="node6" class="node">
<title>Node6</title>
<g id="a_node6"><a xlink:href="../../d8/dc5/classWeGameHelper_add95cfd3e8221c611c8162ceff0436fb.html#add95cfd3e8221c611c8162ceff0436fb" target="_top" xlink:title=" ">
<polygon fill="white" stroke="black" points="665,-19.5 665,-38.5 847,-38.5 847,-19.5 665,-19.5"/>
<text text-anchor="middle" x="756" y="-26.5" font-family="Helvetica,sans-Serif" font-size="10.00">WeGameHelper.WriteDebugString</text>
</a>
</g>
</g>
<!-- Node3&#45;&gt;Node6 -->
<g id="edge6" class="edge">
<title>Node3&#45;&gt;Node6</title>
<path fill="none" stroke="midnightblue" d="M466.37,-44.43C519.41,-41.59 594.4,-37.58 654.64,-34.36"/>
<polygon fill="midnightblue" stroke="midnightblue" points="655.15,-37.84 664.94,-33.81 654.77,-30.85 655.15,-37.84"/>
</g>
<!-- Node5 -->
<g id="node5" class="node">
<title>Node5</title>
<g id="a_node5"><a xlink:href="../../de/d2d/classIPCBase_a741b8ddceb129b0c09cf31c572929748.html#a741b8ddceb129b0c09cf31c572929748" target="_top" xlink:title=" ">
<polygon fill="white" stroke="black" points="692,-57.5 692,-76.5 820,-76.5 820,-57.5 692,-57.5"/>
<text text-anchor="middle" x="756" y="-64.5" font-family="Helvetica,sans-Serif" font-size="10.00">IPCBase.AddPackToList</text>
</a>
</g>
</g>
<!-- Node4&#45;&gt;Node5 -->
<g id="edge4" class="edge">
<title>Node4&#45;&gt;Node5</title>
<path fill="none" stroke="midnightblue" d="M629.08,-67C645.89,-67 664.24,-67 681.61,-67"/>
<polygon fill="midnightblue" stroke="midnightblue" points="681.7,-70.5 691.7,-67 681.7,-63.5 681.7,-70.5"/>
</g>
<!-- Node4&#45;&gt;Node6 -->
<g id="edge5" class="edge">
<title>Node4&#45;&gt;Node6</title>
<path fill="none" stroke="midnightblue" d="M614.44,-57.41C639.81,-52.28 671.23,-45.93 697.92,-40.54"/>
<polygon fill="midnightblue" stroke="midnightblue" points="698.79,-43.93 707.9,-38.52 697.41,-37.07 698.79,-43.93"/>
</g>
</g>
</svg>
        <g id="navigator" transform="translate(0 0)" fill="#404254">
                <rect fill="#f2f5e9" fill-opacity="0.5" stroke="#606060" stroke-width=".5" x="0" y="0" width="60" height="60"/>
                <use id="zoomplus" xlink:href="#zoomPlus" x="17" y="9" onmousedown="handleZoom(evt,'in')"/>
                <use id="zoomminus" xlink:href="#zoomMin" x="42" y="9" onmousedown="handleZoom(evt,'out')"/>
                <use id="reset" xlink:href="#resetDef" x="30" y="36" onmousedown="handleReset()"/>
                <g id="arrowUp" xlink:href="#dirArrow" transform="translate(30 24)" onmousedown="handlePan(0,-1)">
                  <use xlink:href="#rim" fill="#404040">
                        <set attributeName="fill" to="#808080" begin="arrowUp.mouseover" end="arrowUp.mouseout"/>
                  </use>
                  <path fill="none" stroke="white" stroke-width="1.5" d="M0,-3.0v7 M-2.5,-0.5L0,-3.0L2.5,-0.5"/>
                </g>
                <g id="arrowRight" xlink:href="#dirArrow" transform="rotate(90) translate(36 -43)" onmousedown="handlePan(1,0)">
                  <use xlink:href="#rim" fill="#404040">
                        <set attributeName="fill" to="#808080" begin="arrowRight.mouseover" end="arrowRight.mouseout"/>
                  </use>
                  <path fill="none" stroke="white" stroke-width="1.5" d="M0,-3.0v7 M-2.5,-0.5L0,-3.0L2.5,-0.5"/>
                </g>
                <g id="arrowDown" xlink:href="#dirArrow" transform="rotate(180) translate(-30 -48)" onmousedown="handlePan(0,1)">
                  <use xlink:href="#rim" fill="#404040">
                        <set attributeName="fill" to="#808080" begin="arrowDown.mouseover" end="arrowDown.mouseout"/>
                  </use>
                  <path fill="none" stroke="white" stroke-width="1.5" d="M0,-3.0v7 M-2.5,-0.5L0,-3.0L2.5,-0.5"/>
                </g>
                <g id="arrowLeft" xlink:href="#dirArrow" transform="rotate(270) translate(-36 17)" onmousedown="handlePan(-1,0)">
                  <use xlink:href="#rim" fill="#404040">
                        <set attributeName="fill" to="#808080" begin="arrowLeft.mouseover" end="arrowLeft.mouseout"/>
                  </use>
                  <path fill="none" stroke="white" stroke-width="1.5" d="M0,-3.0v7 M-2.5,-0.5L0,-3.0L2.5,-0.5"/>
                </g>
        </g>
        <svg viewBox="0 0 15 15" width="100%" height="30px" preserveAspectRatio="xMaxYMin meet">
         <g id="arrow_out" transform="scale(0.3 0.3)">
          <a xlink:href="classMessageDispatcherClient_a104061f96880c1aee1b5d3c4eeb982fa_a104061f96880c1aee1b5d3c4eeb982fa_cgraph_org.svg" target="_base">
           <rect id="button" ry="5" rx="5" y="6" x="6" height="38" width="38"
                fill="#f2f5e9" fill-opacity="0.5" stroke="#606060" stroke-width="1.0"/>
           <path id="arrow"
             d="M 11.500037,31.436501 C 11.940474,20.09759 22.043105,11.32322 32.158766,21.979434 L 37.068811,17.246167 C 37.068811,17.246167 37.088388,32 37.088388,32 L 22.160133,31.978069 C 22.160133,31.978069 26.997745,27.140456 26.997745,27.140456 C 18.528582,18.264221 13.291696,25.230495 11.500037,31.436501 z"
             style="fill:#404040;"/>
          </a>
         </g>
        </svg>
</svg>
