<?xml version="1.0" encoding="UTF-8" standalone="no"?>
<!DOCTYPE svg PUBLIC "-//W3C//DTD SVG 1.1//EN"
 "http://www.w3.org/Graphics/SVG/1.1/DTD/svg11.dtd">
<!-- Generated by graphviz version 2.43.0 (0)
 -->
<!-- Title: UIVirtualKeyboard.OnActivate Pages: 1 -->
<svg width="1087pt" height="78pt"
 viewBox="0.00 0.00 1087.00 77.50" xmlns="http://www.w3.org/2000/svg" xmlns:xlink="http://www.w3.org/1999/xlink">
<g id="graph0" class="graph" transform="scale(1 1) rotate(0) translate(4 73.5)">
<title>UIVirtualKeyboard.OnActivate</title>
<polygon fill="white" stroke="transparent" points="-4,4 -4,-73.5 1083,-73.5 1083,4 -4,4"/>
<!-- Node1 -->
<g id="node1" class="node">
<title>Node1</title>
<g id="a_node1"><a xlink:title=" ">
<polygon fill="#bfbfbf" stroke="black" points="0,-22.5 0,-41.5 162,-41.5 162,-22.5 0,-22.5"/>
<text text-anchor="middle" x="81" y="-29.5" font-family="Helvetica,sans-Serif" font-size="10.00">UIVirtualKeyboard.OnActivate</text>
</a>
</g>
</g>
<!-- Node2 -->
<g id="node2" class="node">
<title>Node2</title>
<g id="a_node2"><a xlink:href="../../d8/d7b/classUILinkPointNavigator_a5cb711692920a97a68e086f3d20a23c6.html#a5cb711692920a97a68e086f3d20a23c6" target="_top" xlink:title=" ">
<polygon fill="white" stroke="black" points="198,-17 198,-47 357,-47 357,-17 198,-17"/>
<text text-anchor="start" x="206" y="-35" font-family="Helvetica,sans-Serif" font-size="10.00">UILinkPointNavigator.Change</text>
<text text-anchor="middle" x="277.5" y="-24" font-family="Helvetica,sans-Serif" font-size="10.00">Point</text>
</a>
</g>
</g>
<!-- Node1&#45;&gt;Node2 -->
<g id="edge1" class="edge">
<title>Node1&#45;&gt;Node2</title>
<path fill="none" stroke="midnightblue" d="M162.23,-32C170.57,-32 179.07,-32 187.49,-32"/>
<polygon fill="midnightblue" stroke="midnightblue" points="187.7,-35.5 197.7,-32 187.7,-28.5 187.7,-35.5"/>
</g>
<!-- Node3 -->
<g id="node3" class="node">
<title>Node3</title>
<g id="a_node3"><a xlink:href="../../d8/d7b/classUILinkPointNavigator_a27e5c9a3a1a251f02d291f861b4eb1e7.html#a27e5c9a3a1a251f02d291f861b4eb1e7" target="_top" xlink:title=" ">
<polygon fill="white" stroke="black" points="393,-17 393,-47 553,-47 553,-17 393,-17"/>
<text text-anchor="start" x="401" y="-35" font-family="Helvetica,sans-Serif" font-size="10.00">UILinkPointNavigator.Process</text>
<text text-anchor="middle" x="473" y="-24" font-family="Helvetica,sans-Serif" font-size="10.00">Changes</text>
</a>
</g>
</g>
<!-- Node2&#45;&gt;Node3 -->
<g id="edge2" class="edge">
<title>Node2&#45;&gt;Node3</title>
<path fill="none" stroke="midnightblue" d="M357.2,-32C365.54,-32 374.05,-32 382.49,-32"/>
<polygon fill="midnightblue" stroke="midnightblue" points="382.74,-35.5 392.74,-32 382.74,-28.5 382.74,-35.5"/>
</g>
<!-- Node4 -->
<g id="node4" class="node">
<title>Node4</title>
<g id="a_node4"><a xlink:href="../../d8/d7b/classUILinkPointNavigator_ab02ec6567f402857bffa2cebe175d515.html#ab02ec6567f402857bffa2cebe175d515" target="_top" xlink:title=" ">
<polygon fill="white" stroke="black" points="589,-39 589,-69 735,-69 735,-39 589,-39"/>
<text text-anchor="start" x="597" y="-57" font-family="Helvetica,sans-Serif" font-size="10.00">UILinkPointNavigator.GoTo</text>
<text text-anchor="middle" x="662" y="-46" font-family="Helvetica,sans-Serif" font-size="10.00">DefaultPage</text>
</a>
</g>
</g>
<!-- Node3&#45;&gt;Node4 -->
<g id="edge3" class="edge">
<title>Node3&#45;&gt;Node4</title>
<path fill="none" stroke="midnightblue" d="M553.03,-41.3C561.56,-42.3 570.25,-43.32 578.81,-44.33"/>
<polygon fill="midnightblue" stroke="midnightblue" points="578.45,-47.81 588.79,-45.5 579.26,-40.86 578.45,-47.81"/>
</g>
<!-- Node7 -->
<g id="node7" class="node">
<title>Node7</title>
<g id="a_node7"><a xlink:href="../../d9/d5c/classUILinkPage_a356f1c92876e5a9aa65c22bd2fdf891a.html#a356f1c92876e5a9aa65c22bd2fdf891a" target="_top" xlink:title=" ">
<polygon fill="white" stroke="black" points="610.5,-0.5 610.5,-19.5 713.5,-19.5 713.5,-0.5 610.5,-0.5"/>
<text text-anchor="middle" x="662" y="-7.5" font-family="Helvetica,sans-Serif" font-size="10.00">UILinkPage.Leave</text>
</a>
</g>
</g>
<!-- Node3&#45;&gt;Node7 -->
<g id="edge6" class="edge">
<title>Node3&#45;&gt;Node7</title>
<path fill="none" stroke="midnightblue" d="M553.03,-22.7C568.83,-20.84 585.18,-18.92 600.24,-17.15"/>
<polygon fill="midnightblue" stroke="midnightblue" points="600.92,-20.59 610.44,-15.95 600.1,-13.64 600.92,-20.59"/>
</g>
<!-- Node5 -->
<g id="node5" class="node">
<title>Node5</title>
<g id="a_node5"><a xlink:href="../../d1/dd1/structPlayerInteractionAnchor_a1eeaee558e0da419c0a069fd0dde8eca.html#a1eeaee558e0da419c0a069fd0dde8eca" target="_top" xlink:title=" ">
<polygon fill="white" stroke="black" points="771,-39 771,-69 907,-69 907,-39 771,-39"/>
<text text-anchor="start" x="779" y="-57" font-family="Helvetica,sans-Serif" font-size="10.00">PlayerInteractionAnchor.</text>
<text text-anchor="middle" x="839" y="-46" font-family="Helvetica,sans-Serif" font-size="10.00">GetTileEntity</text>
</a>
</g>
</g>
<!-- Node4&#45;&gt;Node5 -->
<g id="edge4" class="edge">
<title>Node4&#45;&gt;Node5</title>
<path fill="none" stroke="midnightblue" d="M735.19,-54C743.56,-54 752.12,-54 760.55,-54"/>
<polygon fill="midnightblue" stroke="midnightblue" points="760.75,-57.5 770.75,-54 760.75,-50.5 760.75,-57.5"/>
</g>
<!-- Node6 -->
<g id="node6" class="node">
<title>Node6</title>
<g id="a_node6"><a xlink:href="../../d1/dd1/structPlayerInteractionAnchor_a5fe451925a3d70309360d5cdab17fe8c.html#a5fe451925a3d70309360d5cdab17fe8c" target="_top" xlink:title=" ">
<polygon fill="white" stroke="black" points="943,-39 943,-69 1079,-69 1079,-39 943,-39"/>
<text text-anchor="start" x="951" y="-57" font-family="Helvetica,sans-Serif" font-size="10.00">PlayerInteractionAnchor.</text>
<text text-anchor="middle" x="1011" y="-46" font-family="Helvetica,sans-Serif" font-size="10.00">IsInValidUseTileEntity</text>
</a>
</g>
</g>
<!-- Node5&#45;&gt;Node6 -->
<g id="edge5" class="edge">
<title>Node5&#45;&gt;Node6</title>
<path fill="none" stroke="midnightblue" d="M907.19,-54C915.5,-54 924.05,-54 932.51,-54"/>
<polygon fill="midnightblue" stroke="midnightblue" points="932.74,-57.5 942.74,-54 932.74,-50.5 932.74,-57.5"/>
</g>
</g>
</svg>
