<?xml version="1.0" encoding="UTF-8" standalone="no"?>
<!DOCTYPE svg PUBLIC "-//W3C//DTD SVG 1.1//EN"
 "http://www.w3.org/Graphics/SVG/1.1/DTD/svg11.dtd">
<!-- Generated by graphviz version 2.43.0 (0)
 -->
<!-- Title: Terraria.GameContent.UI.States.UIBestiaryTest.SetupPointsForSortingGrid Pages: 1 -->
<!--zoomable 264 -->

<svg id="main" version="1.1" xmlns="http://www.w3.org/2000/svg" xmlns:xlink="http://www.w3.org/1999/xlink" xml:space="preserve" onload="init(evt)">
<style type="text/css"><![CDATA[
.node, .edge {opacity: 0.7;}
.node.selected, .edge.selected {opacity: 1;}
.edge:hover path { stroke: red; }
.edge:hover polygon { stroke: red; fill: red; }
]]></style>

<defs>
  <circle id="rim" cx="0" cy="0" r="7"/>
  <circle id="rim2" cx="0" cy="0" r="3.5"/>
  <g id="zoomPlus">
    <use xlink:href="#rim" fill="#404040"><set attributeName="fill" to="#808080" begin="zoomplus.mouseover" end="zoomplus.mouseout"/></use>
    <path d="M-4,0h8M0,-4v8" fill="none" stroke="white" stroke-width="1.5" pointer-events="none"/>
  </g>
  <g id="zoomMin">
    <use xlink:href="#rim" fill="#404040"><set attributeName="fill" to="#808080" begin="zoomminus.mouseover" end="zoomminus.mouseout"/></use>
    <path d="M-4,0h8" fill="none" stroke="white" stroke-width="1.5" pointer-events="none"/>
  </g>
  <g id="arrowUp" transform="translate(30 24)">
    <use xlink:href="#rim"/>
    <path pointer-events="none" fill="none" stroke="white" stroke-width="1.5" d="M0,-3.0v7 M-2.5,-0.5L0,-3.0L2.5,-0.5"/>
  </g>
  <g id="arrowRight" transform="rotate(90) translate(36 -43)">
    <use xlink:href="#rim"/>
    <path pointer-events="none" fill="none" stroke="white" stroke-width="1.5" d="M0,-3.0v7 M-2.5,-0.5L0,-3.0L2.5,-0.5"/>
  </g>
  <g id="arrowDown" transform="rotate(180) translate(-30 -48)">
    <use xlink:href="#rim"/>
    <path pointer-events="none" fill="none" stroke="white" stroke-width="1.5" d="M0,-3.0v7 M-2.5,-0.5L0,-3.0L2.5,-0.5"/>
  </g>
  <g id="arrowLeft" transform="rotate(270) translate(-36 17)">
    <use xlink:href="#rim"/>
    <path pointer-events="none" fill="none" stroke="white" stroke-width="1.5" d="M0,-3.0v7 M-2.5,-0.5L0,-3.0L2.5,-0.5"/>
  </g>
  <g id="resetDef">
    <use xlink:href="#rim2" fill="#404040"><set attributeName="fill" to="#808080" begin="reset.mouseover" end="reset.mouseout"/></use>
  </g>
</defs>
<script type="application/ecmascript">
var viewWidth = 601;
var viewHeight = 264;
var sectionId = 'dynsection-0';
</script>
<script type="application/ecmascript" xlink:href="../../svg.min.js"/>
<svg id="graph" class="graph">
<g id="viewport">
<title>Terraria.GameContent.UI.States.UIBestiaryTest.SetupPointsForSortingGrid</title>
<!-- Node1 -->
<g id="Node000001" class="node">
<title>Node1</title>
<g id="a_Node000001"><a xlink:title=" ">
<polygon fill="#999999" stroke="#666666" points="182,-137.5 0,-137.5 0,-96.5 182,-96.5 182,-137.5"/>
<text text-anchor="start" x="8" y="-125.5" font-family="Helvetica,sans-Serif" font-size="10.00">Terraria.GameContent.UI.</text>
<text text-anchor="start" x="8" y="-114.5" font-family="Helvetica,sans-Serif" font-size="10.00">States.UIBestiaryTest.SetupPoints</text>
<text text-anchor="middle" x="91" y="-103.5" font-family="Helvetica,sans-Serif" font-size="10.00">ForSortingGrid</text>
</a>
</g>
</g>
<!-- Node2 -->
<g id="Node000002" class="node">
<title>Node2</title>
<g id="a_Node000002"><a xlink:href="../../dd/d90/classTerraria_1_1GameContent_1_1UI_1_1Elements_1_1UIBestiarySortingOptionsGrid_a288db41c24e1630b7c79a52a30cf65b6.html#a288db41c24e1630b7c79a52a30cf65b6" target="_top" xlink:title=" ">
<polygon fill="white" stroke="#666666" points="406,-255.5 218,-255.5 218,-214.5 406,-214.5 406,-255.5"/>
<text text-anchor="start" x="226" y="-243.5" font-family="Helvetica,sans-Serif" font-size="10.00">Terraria.GameContent.UI.</text>
<text text-anchor="start" x="226" y="-232.5" font-family="Helvetica,sans-Serif" font-size="10.00">Elements.UIBestiarySortingOptions</text>
<text text-anchor="middle" x="312" y="-221.5" font-family="Helvetica,sans-Serif" font-size="10.00">Grid.GetEntriesToShow</text>
</a>
</g>
</g>
<!-- Node1&#45;&gt;Node2 -->
<g id="edge1_Node000001_Node000002" class="edge">
<title>Node1&#45;&gt;Node2</title>
<g id="a_edge1_Node000001_Node000002"><a xlink:title=" ">
<path fill="none" stroke="#63b8ff" d="M116.12,-137.53C140.46,-157.38 179.82,-187.15 218,-206 221.3,-207.63 224.72,-209.19 228.2,-210.69"/>
<polygon fill="#63b8ff" stroke="#63b8ff" points="226.97,-213.97 237.55,-214.49 229.6,-207.48 226.97,-213.97"/>
</a>
</g>
</g>
<!-- Node3 -->
<g id="Node000003" class="node">
<title>Node3</title>
<g id="a_Node000003"><a xlink:href="../../d5/d13/classTerraria_1_1GameContent_1_1UI_1_1States_1_1UIBestiaryTest_a839b277e27da7bcdc74953172d110a57.html#a839b277e27da7bcdc74953172d110a57" target="_top" xlink:title=" ">
<polygon fill="white" stroke="#666666" points="402,-196.5 222,-196.5 222,-155.5 402,-155.5 402,-196.5"/>
<text text-anchor="start" x="230" y="-184.5" font-family="Helvetica,sans-Serif" font-size="10.00">Terraria.GameContent.UI.</text>
<text text-anchor="start" x="230" y="-173.5" font-family="Helvetica,sans-Serif" font-size="10.00">States.UIBestiaryTest.GetOrdered</text>
<text text-anchor="middle" x="312" y="-162.5" font-family="Helvetica,sans-Serif" font-size="10.00">PointsByCategoryName</text>
</a>
</g>
</g>
<!-- Node1&#45;&gt;Node3 -->
<g id="edge2_Node000001_Node000003" class="edge">
<title>Node1&#45;&gt;Node3</title>
<g id="a_edge2_Node000001_Node000003"><a xlink:title=" ">
<path fill="none" stroke="#63b8ff" d="M168.29,-137.55C186.58,-142.48 206.24,-147.78 224.94,-152.81"/>
<polygon fill="#63b8ff" stroke="#63b8ff" points="224.05,-156.2 234.61,-155.42 225.87,-149.44 224.05,-156.2"/>
</a>
</g>
</g>
<!-- Node4 -->
<g id="Node000004" class="node">
<title>Node4</title>
<g id="a_Node000004"><a xlink:href="../../d5/d13/classTerraria_1_1GameContent_1_1UI_1_1States_1_1UIBestiaryTest_ad91c89dadf2fbc675ee190e2f9f84932.html#ad91c89dadf2fbc675ee190e2f9f84932" target="_top" xlink:title=" ">
<polygon fill="white" stroke="#666666" points="397,-137.5 227,-137.5 227,-96.5 397,-96.5 397,-137.5"/>
<text text-anchor="start" x="235" y="-125.5" font-family="Helvetica,sans-Serif" font-size="10.00">Terraria.GameContent.UI.</text>
<text text-anchor="start" x="235" y="-114.5" font-family="Helvetica,sans-Serif" font-size="10.00">States.UIBestiaryTest.MakeLink</text>
<text text-anchor="middle" x="312" y="-103.5" font-family="Helvetica,sans-Serif" font-size="10.00">PointFromSnapPoint</text>
</a>
</g>
</g>
<!-- Node1&#45;&gt;Node4 -->
<g id="edge3_Node000001_Node000004" class="edge">
<title>Node1&#45;&gt;Node4</title>
<g id="a_edge3_Node000001_Node000004"><a xlink:title=" ">
<path fill="none" stroke="#63b8ff" d="M182.02,-117C193.52,-117 205.31,-117 216.87,-117"/>
<polygon fill="#63b8ff" stroke="#63b8ff" points="216.96,-120.5 226.96,-117 216.96,-113.5 216.96,-120.5"/>
</a>
</g>
</g>
<!-- Node6 -->
<g id="Node000006" class="node">
<title>Node6</title>
<g id="a_Node000006"><a xlink:href="../../d5/d13/classTerraria_1_1GameContent_1_1UI_1_1States_1_1UIBestiaryTest_ad71bc72148fd39459a2643ef8b3a0260.html#ad71bc72148fd39459a2643ef8b3a0260" target="_top" xlink:title=" ">
<polygon fill="white" stroke="#666666" points="404.5,-78 219.5,-78 219.5,-48 404.5,-48 404.5,-78"/>
<text text-anchor="start" x="227.5" y="-66" font-family="Helvetica,sans-Serif" font-size="10.00">Terraria.GameContent.UI.</text>
<text text-anchor="middle" x="312" y="-55" font-family="Helvetica,sans-Serif" font-size="10.00">States.UIBestiaryTest.PairLeftRight</text>
</a>
</g>
</g>
<!-- Node1&#45;&gt;Node6 -->
<g id="edge5_Node000001_Node000006" class="edge">
<title>Node1&#45;&gt;Node6</title>
<g id="a_edge5_Node000001_Node000006"><a xlink:title=" ">
<path fill="none" stroke="#63b8ff" d="M175.42,-96.43C196.71,-91.18 219.41,-85.58 240.01,-80.5"/>
<polygon fill="#63b8ff" stroke="#63b8ff" points="241.08,-83.85 249.95,-78.05 239.4,-77.05 241.08,-83.85"/>
</a>
</g>
</g>
<!-- Node7 -->
<g id="Node000007" class="node">
<title>Node7</title>
<g id="a_Node000007"><a xlink:href="../../d5/d13/classTerraria_1_1GameContent_1_1UI_1_1States_1_1UIBestiaryTest_accfe920c6ec6359f6436c0610720dcab.html#accfe920c6ec6359f6436c0610720dcab" target="_top" xlink:title=" ">
<polygon fill="white" stroke="#666666" points="403.5,-30 220.5,-30 220.5,0 403.5,0 403.5,-30"/>
<text text-anchor="start" x="228.5" y="-18" font-family="Helvetica,sans-Serif" font-size="10.00">Terraria.GameContent.UI.</text>
<text text-anchor="middle" x="312" y="-7" font-family="Helvetica,sans-Serif" font-size="10.00">States.UIBestiaryTest.PairUpDown</text>
</a>
</g>
</g>
<!-- Node1&#45;&gt;Node7 -->
<g id="edge6_Node000001_Node000007" class="edge">
<title>Node1&#45;&gt;Node7</title>
<g id="a_edge6_Node000001_Node000007"><a xlink:title=" ">
<path fill="none" stroke="#63b8ff" d="M119.68,-96.44C144.36,-78.97 182.03,-54.35 218,-39 222.77,-36.97 227.75,-35.07 232.82,-33.31"/>
<polygon fill="#63b8ff" stroke="#63b8ff" points="234.23,-36.53 242.65,-30.1 232.06,-29.88 234.23,-36.53"/>
</a>
</g>
</g>
<!-- Node5 -->
<g id="Node000005" class="node">
<title>Node5</title>
<g id="a_Node000005"><a xlink:href="../../d4/dc5/classTerraria_1_1UI_1_1Gamepad_1_1UILinkPointNavigator_ac28776d33a359203c79dd1d72f217981.html#ac28776d33a359203c79dd1d72f217981" target="_top" xlink:title=" ">
<polygon fill="white" stroke="#666666" points="593,-132 442,-132 442,-102 593,-102 593,-132"/>
<text text-anchor="start" x="450" y="-120" font-family="Helvetica,sans-Serif" font-size="10.00">Terraria.UI.Gamepad.UILink</text>
<text text-anchor="middle" x="517.5" y="-109" font-family="Helvetica,sans-Serif" font-size="10.00">PointNavigator.SetPosition</text>
</a>
</g>
</g>
<!-- Node4&#45;&gt;Node5 -->
<g id="edge4_Node000004_Node000005" class="edge">
<title>Node4&#45;&gt;Node5</title>
<g id="a_edge4_Node000004_Node000005"><a xlink:title=" ">
<path fill="none" stroke="#63b8ff" d="M397.24,-117C408.54,-117 420.14,-117 431.46,-117"/>
<polygon fill="#63b8ff" stroke="#63b8ff" points="431.75,-120.5 441.75,-117 431.75,-113.5 431.75,-120.5"/>
</a>
</g>
</g>
</g>
</svg>

<g id="navigator" transform="translate(0 0)" fill="#404254">
  <rect fill="#f2f5e9" fill-opacity="0.5" stroke="#606060" stroke-width=".5" x="0" y="0" width="60" height="60"/>
  <use id="zoomplus" xlink:href="#zoomPlus" x="17" y="9" onmousedown="handleZoom(evt,'in')"/>
  <use id="zoomminus" xlink:href="#zoomMin" x="42" y="9" onmousedown="handleZoom(evt,'out')"/>
  <use id="reset" xlink:href="#resetDef" x="30" y="36" onmousedown="handleReset()"/>
   <use id="arrowup" xlink:href="#arrowUp" x="0" y="0" onmousedown="handlePan(0,-1)"/>
  <use id="arrowright" xlink:href="#arrowRight" x="0" y="0" onmousedown="handlePan(1,0)"/>
  <use id="arrowdown" xlink:href="#arrowDown" x="0" y="0" onmousedown="handlePan(0,1)"/>
  <use id="arrowleft" xlink:href="#arrowLeft" x="0" y="0" onmousedown="handlePan(-1,0)"/>
</g>
<svg viewBox="0 0 15 15" width="100%" height="30px" preserveAspectRatio="xMaxYMin meet">
 <g id="arrow_out" transform="scale(0.3 0.3)">
  <a xlink:href="classTerraria_1_1GameContent_1_1UI_1_1States_1_1UIBestiaryTest_a17cdaa468972db3ab296d59ee549dcb6_a17cdaa468972db3ab296d59ee549dcb6_cgraph_org.svg" target="_base">
   <rect id="button" ry="5" rx="5" y="6" x="6" height="38" width="38"
        fill="#f2f5e9" fill-opacity="0.5" stroke="#606060" stroke-width="1.0"/>
   <path id="arrow"
     d="M 11.500037,31.436501 C 11.940474,20.09759 22.043105,11.32322 32.158766,21.979434 L 37.068811,17.246167 C 37.068811,17.246167 37.088388,32 37.088388,32 L 22.160133,31.978069 C 22.160133,31.978069 26.997745,27.140456 26.997745,27.140456 C 18.528582,18.264221 13.291696,25.230495 11.500037,31.436501 z"
     style="fill:#404040;"/>
  </a>
 </g>
</svg>

<style type='text/css'>
<![CDATA[
[data-mouse-over-selected='false'] { opacity: 0.7; }
[data-mouse-over-selected='true']  { opacity: 1.0; }
]]>
</style>
<script type="application/ecmascript"><![CDATA[
document.addEventListener('DOMContentLoaded', (event) => {
  highlightEdges();
  highlightAdjacentNodes();
});
]]></script>
</svg>
