<?xml version="1.0" encoding="UTF-8" standalone="no"?>
<!DOCTYPE svg PUBLIC "-//W3C//DTD SVG 1.1//EN"
 "http://www.w3.org/Graphics/SVG/1.1/DTD/svg11.dtd">
<!-- Generated by graphviz version 2.43.0 (0)
 -->
<!-- Title: Terraria.GameContent.UI.States.UIBestiaryTest.GetCompletionPercentText Pages: 1 -->
<svg width="825pt" height="146pt"
 viewBox="0.00 0.00 825.00 145.50" xmlns="http://www.w3.org/2000/svg" xmlns:xlink="http://www.w3.org/1999/xlink">
<g id="graph0" class="graph" transform="scale(1 1) rotate(0) translate(4 141.5)">
<title>Terraria.GameContent.UI.States.UIBestiaryTest.GetCompletionPercentText</title>
<!-- Node1 -->
<g id="Node000001" class="node">
<title>Node1</title>
<g id="a_Node000001"><a xlink:title=" ">
<polygon fill="#999999" stroke="#666666" points="197,-83.5 0,-83.5 0,-42.5 197,-42.5 197,-83.5"/>
<text text-anchor="start" x="8" y="-71.5" font-family="Helvetica,sans-Serif" font-size="10.00">Terraria.GameContent.UI.</text>
<text text-anchor="start" x="8" y="-60.5" font-family="Helvetica,sans-Serif" font-size="10.00">States.UIBestiaryTest.GetCompletion</text>
<text text-anchor="middle" x="98.5" y="-49.5" font-family="Helvetica,sans-Serif" font-size="10.00">PercentText</text>
</a>
</g>
</g>
<!-- Node2 -->
<g id="Node000002" class="node">
<title>Node2</title>
<g id="a_Node000002"><a xlink:href="../../d5/d13/classTerraria_1_1GameContent_1_1UI_1_1States_1_1UIBestiaryTest_a6fc09059406211313108d3283a8f1373.html#a6fc09059406211313108d3283a8f1373" target="_top" xlink:title=" ">
<polygon fill="white" stroke="#666666" points="416,-137.5 233,-137.5 233,-96.5 416,-96.5 416,-137.5"/>
<text text-anchor="start" x="241" y="-125.5" font-family="Helvetica,sans-Serif" font-size="10.00">Terraria.GameContent.UI.</text>
<text text-anchor="start" x="241" y="-114.5" font-family="Helvetica,sans-Serif" font-size="10.00">States.UIBestiaryTest.GetProgress</text>
<text text-anchor="middle" x="324.5" y="-103.5" font-family="Helvetica,sans-Serif" font-size="10.00">Percent</text>
</a>
</g>
</g>
<!-- Node1&#45;&gt;Node2 -->
<g id="edge1_Node000001_Node000002" class="edge">
<title>Node1&#45;&gt;Node2</title>
<g id="a_edge1_Node000001_Node000002"><a xlink:title=" ">
<path fill="none" stroke="#63b8ff" d="M184.82,-83.57C199.09,-87.01 213.97,-90.59 228.46,-94.09"/>
<polygon fill="#63b8ff" stroke="#63b8ff" points="227.87,-97.55 238.41,-96.49 229.51,-90.74 227.87,-97.55"/>
</a>
</g>
</g>
<!-- Node3 -->
<g id="Node000003" class="node">
<title>Node3</title>
<g id="a_Node000003"><a xlink:href="../../d4/d8f/classTerraria_1_1Localization_1_1Language_aee1558e43a43c3c4a8bcbfd1d84ffe43.html#aee1558e43a43c3c4a8bcbfd1d84ffe43" target="_top" xlink:title=" ">
<polygon fill="white" stroke="#666666" points="408.5,-78 240.5,-78 240.5,-48 408.5,-48 408.5,-78"/>
<text text-anchor="start" x="248.5" y="-66" font-family="Helvetica,sans-Serif" font-size="10.00">Terraria.Localization.Language.</text>
<text text-anchor="middle" x="324.5" y="-55" font-family="Helvetica,sans-Serif" font-size="10.00">GetTextValueWith</text>
</a>
</g>
</g>
<!-- Node1&#45;&gt;Node3 -->
<g id="edge2_Node000001_Node000003" class="edge">
<title>Node1&#45;&gt;Node3</title>
<g id="a_edge2_Node000001_Node000003"><a xlink:title=" ">
<path fill="none" stroke="#63b8ff" d="M197.1,-63C208,-63 219.08,-63 229.93,-63"/>
<polygon fill="#63b8ff" stroke="#63b8ff" points="230.24,-66.5 240.24,-63 230.24,-59.5 230.24,-66.5"/>
</a>
</g>
</g>
<!-- Node7 -->
<g id="Node000007" class="node">
<title>Node7</title>
<g id="a_Node000007"><a xlink:href="../../d1/d9c/classTerraria_1_1Utils_ac2a7f640d805867cb2237aeb34afc07a.html#ac2a7f640d805867cb2237aeb34afc07a" target="_top" xlink:title=" ">
<polygon fill="white" stroke="#666666" points="401.5,-30 247.5,-30 247.5,0 401.5,0 401.5,-30"/>
<text text-anchor="start" x="255.5" y="-18" font-family="Helvetica,sans-Serif" font-size="10.00">Terraria.Utils.PrettifyPercent</text>
<text text-anchor="middle" x="324.5" y="-7" font-family="Helvetica,sans-Serif" font-size="10.00">Display</text>
</a>
</g>
</g>
<!-- Node1&#45;&gt;Node7 -->
<g id="edge6_Node000001_Node000007" class="edge">
<title>Node1&#45;&gt;Node7</title>
<g id="a_edge6_Node000001_Node000007"><a xlink:title=" ">
<path fill="none" stroke="#63b8ff" d="M195.47,-42.43C211.45,-39.01 227.86,-35.49 243.39,-32.17"/>
<polygon fill="#63b8ff" stroke="#63b8ff" points="244.41,-35.53 253.45,-30.01 242.94,-28.68 244.41,-35.53"/>
</a>
</g>
</g>
<!-- Node4 -->
<g id="Node000004" class="node">
<title>Node4</title>
<g id="a_Node000004"><a xlink:href="../../d5/d73/classTerraria_1_1Localization_1_1LocalizedText_a3a3b4c3c6cbb09daed1b0513c8b53807.html#a3a3b4c3c6cbb09daed1b0513c8b53807" target="_top" xlink:title=" ">
<polygon fill="white" stroke="#666666" points="616.5,-102 452.5,-102 452.5,-72 616.5,-72 616.5,-102"/>
<text text-anchor="start" x="460.5" y="-90" font-family="Helvetica,sans-Serif" font-size="10.00">Terraria.Localization.Localized</text>
<text text-anchor="middle" x="534.5" y="-79" font-family="Helvetica,sans-Serif" font-size="10.00">Text.FormatWith</text>
</a>
</g>
</g>
<!-- Node3&#45;&gt;Node4 -->
<g id="edge3_Node000003_Node000004" class="edge">
<title>Node3&#45;&gt;Node4</title>
<g id="a_edge3_Node000003_Node000004"><a xlink:title=" ">
<path fill="none" stroke="#63b8ff" d="M408.6,-72.59C419.61,-73.86 430.93,-75.17 442.07,-76.45"/>
<polygon fill="#63b8ff" stroke="#63b8ff" points="441.89,-79.95 452.22,-77.62 442.69,-73 441.89,-79.95"/>
</a>
</g>
</g>
<!-- Node6 -->
<g id="Node000006" class="node">
<title>Node6</title>
<g id="a_Node000006"><a xlink:href="../../d8/d74/classTerraria_1_1Localization_1_1LanguageManager_ad292c2b15ad9179331427a23cc8c4e8c.html#ad292c2b15ad9179331427a23cc8c4e8c" target="_top" xlink:title=" ">
<polygon fill="white" stroke="#666666" points="617,-54 452,-54 452,-24 617,-24 617,-54"/>
<text text-anchor="start" x="460" y="-42" font-family="Helvetica,sans-Serif" font-size="10.00">Terraria.Localization.Language</text>
<text text-anchor="middle" x="534.5" y="-31" font-family="Helvetica,sans-Serif" font-size="10.00">Manager.GetText</text>
</a>
</g>
</g>
<!-- Node3&#45;&gt;Node6 -->
<g id="edge5_Node000003_Node000006" class="edge">
<title>Node3&#45;&gt;Node6</title>
<g id="a_edge5_Node000003_Node000006"><a xlink:title=" ">
<path fill="none" stroke="#63b8ff" d="M408.6,-53.41C419.52,-52.15 430.76,-50.86 441.8,-49.58"/>
<polygon fill="#63b8ff" stroke="#63b8ff" points="442.35,-53.04 451.88,-48.42 441.55,-46.09 442.35,-53.04"/>
</a>
</g>
</g>
<!-- Node5 -->
<g id="Node000005" class="node">
<title>Node5</title>
<g id="a_Node000005"><a xlink:href="../../d5/d73/classTerraria_1_1Localization_1_1LocalizedText_a9598543af1ef9d9b4b30547c5bdfa250.html#a9598543af1ef9d9b4b30547c5bdfa250" target="_top" xlink:title=" ">
<polygon fill="white" stroke="#666666" points="817,-102 653,-102 653,-72 817,-72 817,-102"/>
<text text-anchor="start" x="661" y="-90" font-family="Helvetica,sans-Serif" font-size="10.00">Terraria.Localization.Localized</text>
<text text-anchor="middle" x="735" y="-79" font-family="Helvetica,sans-Serif" font-size="10.00">Text.ToString</text>
</a>
</g>
</g>
<!-- Node4&#45;&gt;Node5 -->
<g id="edge4_Node000004_Node000005" class="edge">
<title>Node4&#45;&gt;Node5</title>
<g id="a_edge4_Node000004_Node000005"><a xlink:title=" ">
<path fill="none" stroke="#63b8ff" d="M616.52,-87C625.15,-87 633.97,-87 642.71,-87"/>
<polygon fill="#63b8ff" stroke="#63b8ff" points="642.91,-90.5 652.91,-87 642.91,-83.5 642.91,-90.5"/>
</a>
</g>
</g>
</g>
</svg>
