<?xml version="1.0" encoding="UTF-8" standalone="no"?>
<!DOCTYPE svg PUBLIC "-//W3C//DTD SVG 1.1//EN"
 "http://www.w3.org/Graphics/SVG/1.1/DTD/svg11.dtd">
<!-- Generated by graphviz version 2.43.0 (0)
 -->
<!-- Title: Terraria.GameContent.UI.States.UIBestiaryTest.OpenVirtualKeyboardWhenNeeded Pages: 1 -->
<svg width="856pt" height="49pt"
 viewBox="0.00 0.00 856.00 49.00" xmlns="http://www.w3.org/2000/svg" xmlns:xlink="http://www.w3.org/1999/xlink">
<g id="graph0" class="graph" transform="scale(1 1) rotate(0) translate(4 45)">
<title>Terraria.GameContent.UI.States.UIBestiaryTest.OpenVirtualKeyboardWhenNeeded</title>
<!-- Node1 -->
<g id="Node000001" class="node">
<title>Node1</title>
<g id="a_Node000001"><a xlink:title=" ">
<polygon fill="#999999" stroke="#666666" points="848,-41 666,-41 666,0 848,0 848,-41"/>
<text text-anchor="start" x="674" y="-29" font-family="Helvetica,sans-Serif" font-size="10.00">Terraria.GameContent.UI.</text>
<text text-anchor="start" x="674" y="-18" font-family="Helvetica,sans-Serif" font-size="10.00">States.UIBestiaryTest.OpenVirtual</text>
<text text-anchor="middle" x="757" y="-7" font-family="Helvetica,sans-Serif" font-size="10.00">KeyboardWhenNeeded</text>
</a>
</g>
</g>
<!-- Node2 -->
<g id="Node000002" class="node">
<title>Node2</title>
<g id="a_Node000002"><a xlink:href="../../d5/d13/classTerraria_1_1GameContent_1_1UI_1_1States_1_1UIBestiaryTest_aa5052ab9dfca7f390313f7227547b006.html#aa5052ab9dfca7f390313f7227547b006" target="_top" xlink:title=" ">
<polygon fill="white" stroke="#666666" points="630,-35.5 438,-35.5 438,-5.5 630,-5.5 630,-35.5"/>
<text text-anchor="start" x="446" y="-23.5" font-family="Helvetica,sans-Serif" font-size="10.00">Terraria.GameContent.UI.</text>
<text text-anchor="middle" x="534" y="-12.5" font-family="Helvetica,sans-Serif" font-size="10.00">States.UIBestiaryTest.AddSearchBar</text>
</a>
</g>
</g>
<!-- Node1&#45;&gt;Node2 -->
<g id="edge1_Node000001_Node000002" class="edge">
<title>Node1&#45;&gt;Node2</title>
<g id="a_edge1_Node000001_Node000002"><a xlink:title=" ">
<path fill="none" stroke="#63b8ff" d="M655.58,-20.5C647.17,-20.5 638.68,-20.5 630.31,-20.5"/>
<polygon fill="#63b8ff" stroke="#63b8ff" points="655.79,-24 665.79,-20.5 655.79,-17 655.79,-24"/>
</a>
</g>
</g>
<!-- Node3 -->
<g id="Node000003" class="node">
<title>Node3</title>
<g id="a_Node000003"><a xlink:href="../../d5/d13/classTerraria_1_1GameContent_1_1UI_1_1States_1_1UIBestiaryTest_a9463c939bf83d7356f12b7ef345e384a.html#a9463c939bf83d7356f12b7ef345e384a" target="_top" xlink:title=" ">
<polygon fill="white" stroke="#666666" points="402,-35.5 230,-35.5 230,-5.5 402,-5.5 402,-35.5"/>
<text text-anchor="start" x="238" y="-23.5" font-family="Helvetica,sans-Serif" font-size="10.00">Terraria.GameContent.UI.</text>
<text text-anchor="middle" x="316" y="-12.5" font-family="Helvetica,sans-Serif" font-size="10.00">States.UIBestiaryTest.BuildPage</text>
</a>
</g>
</g>
<!-- Node2&#45;&gt;Node3 -->
<g id="edge2_Node000002_Node000003" class="edge">
<title>Node2&#45;&gt;Node3</title>
<g id="a_edge2_Node000002_Node000003"><a xlink:title=" ">
<path fill="none" stroke="#63b8ff" d="M427.88,-20.5C419.29,-20.5 410.67,-20.5 402.24,-20.5"/>
<polygon fill="#63b8ff" stroke="#63b8ff" points="427.94,-24 437.94,-20.5 427.94,-17 427.94,-24"/>
</a>
</g>
</g>
<!-- Node4 -->
<g id="Node000004" class="node">
<title>Node4</title>
<g id="a_Node000004"><a xlink:href="../../d5/d13/classTerraria_1_1GameContent_1_1UI_1_1States_1_1UIBestiaryTest_a859875561a43bd16b2555d620a4c312e.html#a859875561a43bd16b2555d620a4c312e" target="_top" xlink:title=" ">
<polygon fill="white" stroke="#666666" points="194,-35.5 0,-35.5 0,-5.5 194,-5.5 194,-35.5"/>
<text text-anchor="start" x="8" y="-23.5" font-family="Helvetica,sans-Serif" font-size="10.00">Terraria.GameContent.UI.</text>
<text text-anchor="middle" x="97" y="-12.5" font-family="Helvetica,sans-Serif" font-size="10.00">States.UIBestiaryTest.UIBestiaryTest</text>
</a>
</g>
</g>
<!-- Node3&#45;&gt;Node4 -->
<g id="edge3_Node000003_Node000004" class="edge">
<title>Node3&#45;&gt;Node4</title>
<g id="a_edge3_Node000003_Node000004"><a xlink:title=" ">
<path fill="none" stroke="#63b8ff" d="M219.58,-20.5C211.1,-20.5 202.51,-20.5 194.03,-20.5"/>
<polygon fill="#63b8ff" stroke="#63b8ff" points="219.86,-24 229.86,-20.5 219.86,-17 219.86,-24"/>
</a>
</g>
</g>
</g>
</svg>
