<?xml version="1.0" encoding="UTF-8" standalone="no"?>
<!DOCTYPE svg PUBLIC "-//W3C//DTD SVG 1.1//EN"
 "http://www.w3.org/Graphics/SVG/1.1/DTD/svg11.dtd">
<!-- Generated by graphviz version 2.43.0 (0)
 -->
<!-- Title: Terraria.GameContent.TeleportPylonInfo Pages: 1 -->
<!--zoomable 542 -->

<svg id="main" version="1.1" xmlns="http://www.w3.org/2000/svg" xmlns:xlink="http://www.w3.org/1999/xlink" xml:space="preserve" onload="init(evt)">
<style type="text/css"><![CDATA[
.node, .edge {opacity: 0.7;}
.node.selected, .edge.selected {opacity: 1;}
.edge:hover path { stroke: red; }
.edge:hover polygon { stroke: red; fill: red; }
]]></style>

<defs>
  <circle id="rim" cx="0" cy="0" r="7"/>
  <circle id="rim2" cx="0" cy="0" r="3.5"/>
  <g id="zoomPlus">
    <use xlink:href="#rim" fill="#404040"><set attributeName="fill" to="#808080" begin="zoomplus.mouseover" end="zoomplus.mouseout"/></use>
    <path d="M-4,0h8M0,-4v8" fill="none" stroke="white" stroke-width="1.5" pointer-events="none"/>
  </g>
  <g id="zoomMin">
    <use xlink:href="#rim" fill="#404040"><set attributeName="fill" to="#808080" begin="zoomminus.mouseover" end="zoomminus.mouseout"/></use>
    <path d="M-4,0h8" fill="none" stroke="white" stroke-width="1.5" pointer-events="none"/>
  </g>
  <g id="arrowUp" transform="translate(30 24)">
    <use xlink:href="#rim"/>
    <path pointer-events="none" fill="none" stroke="white" stroke-width="1.5" d="M0,-3.0v7 M-2.5,-0.5L0,-3.0L2.5,-0.5"/>
  </g>
  <g id="arrowRight" transform="rotate(90) translate(36 -43)">
    <use xlink:href="#rim"/>
    <path pointer-events="none" fill="none" stroke="white" stroke-width="1.5" d="M0,-3.0v7 M-2.5,-0.5L0,-3.0L2.5,-0.5"/>
  </g>
  <g id="arrowDown" transform="rotate(180) translate(-30 -48)">
    <use xlink:href="#rim"/>
    <path pointer-events="none" fill="none" stroke="white" stroke-width="1.5" d="M0,-3.0v7 M-2.5,-0.5L0,-3.0L2.5,-0.5"/>
  </g>
  <g id="arrowLeft" transform="rotate(270) translate(-36 17)">
    <use xlink:href="#rim"/>
    <path pointer-events="none" fill="none" stroke="white" stroke-width="1.5" d="M0,-3.0v7 M-2.5,-0.5L0,-3.0L2.5,-0.5"/>
  </g>
  <g id="resetDef">
    <use xlink:href="#rim2" fill="#404040"><set attributeName="fill" to="#808080" begin="reset.mouseover" end="reset.mouseout"/></use>
  </g>
</defs>
<script type="application/ecmascript">
var viewWidth = 533;
var viewHeight = 542;
var sectionId = 'dynsection-1';
</script>
<script type="application/ecmascript" xlink:href="../../svg.min.js"/>
<svg id="graph" class="graph">
<g id="viewport">
<title>Terraria.GameContent.TeleportPylonInfo</title>
<!-- Node1 -->
<g id="Node000001" class="node">
<title>Node1</title>
<g id="a_Node000001"><a xlink:title=" ">
<polygon fill="#999999" stroke="transparent" points="316,-71 156,-71 156,0 316,0 316,-71"/>
<text text-anchor="start" x="161" y="-58.5" font-family="Helvetica,sans-Serif" font-size="10.00">Terraria.GameContent.Teleport</text>
<text text-anchor="start" x="213" y="-47.5" font-family="Helvetica,sans-Serif" font-size="10.00">PylonInfo</text>
<text text-anchor="start" x="234" y="-32.5" font-family="Helvetica,sans-Serif" font-size="10.00"> </text>
<text text-anchor="start" x="163" y="-17.5" font-family="Helvetica,sans-Serif" font-size="10.00">+</text>
<text text-anchor="start" x="179" y="-17.5" font-family="Helvetica,sans-Serif" font-size="10.00">bool Equals(TeleportPylon</text>
<text text-anchor="start" x="179" y="-6.5" font-family="Helvetica,sans-Serif" font-size="10.00">Info other)</text>
<polygon fill="#666666" stroke="#666666" points="156,-42.5 156,-42.5 316,-42.5 316,-42.5 156,-42.5"/>
<polygon fill="#666666" stroke="#666666" points="156,-27.5 156,-27.5 316,-27.5 316,-27.5 156,-27.5"/>
<polygon fill="none" stroke="#666666" points="156,0 156,-71 316,-71 316,0 156,0"/>
</a>
</g>
</g>
<!-- Node2 -->
<g id="Node000002" class="node">
<title>Node2</title>
<g id="a_Node000002"><a xlink:href="../../d9/d1c/classIEquatable.html" target="_top" xlink:title=" ">
<polygon fill="white" stroke="transparent" points="140,-302.5 0,-302.5 0,-242.5 140,-242.5 140,-302.5"/>
<text text-anchor="start" x="5" y="-290.5" font-family="Helvetica,sans-Serif" font-size="10.00">IEquatable&lt; TeleportPylon</text>
<text text-anchor="start" x="54.5" y="-279.5" font-family="Helvetica,sans-Serif" font-size="10.00">Info &gt;</text>
<text text-anchor="start" x="68" y="-264.5" font-family="Helvetica,sans-Serif" font-size="10.00"> </text>
<text text-anchor="start" x="68" y="-249.5" font-family="Helvetica,sans-Serif" font-size="10.00"> </text>
<polygon fill="#666666" stroke="#666666" points="0,-274.5 0,-274.5 140,-274.5 140,-274.5 0,-274.5"/>
<polygon fill="#666666" stroke="#666666" points="0,-259.5 0,-259.5 140,-259.5 140,-259.5 0,-259.5"/>
<polygon fill="none" stroke="#666666" points="0,-242.5 0,-302.5 140,-302.5 140,-242.5 0,-242.5"/>
</a>
</g>
</g>
<!-- Node2&#45;&gt;Node1 -->
<g id="edge1_Node000001_Node000002" class="edge">
<title>Node2&#45;&gt;Node1</title>
<g id="a_edge1_Node000001_Node000002"><a xlink:title=" ">
<path fill="none" stroke="#63b8ff" d="M85.49,-232.79C99.45,-200.4 121.91,-153.88 149,-118 161.72,-101.15 178.11,-84.79 193.24,-71.2"/>
<polygon fill="none" stroke="#63b8ff" points="82.11,-231.78 81.43,-242.36 88.56,-234.51 82.11,-231.78"/>
</a>
</g>
</g>
<!-- Node3 -->
<g id="Node000003" class="node">
<title>Node3</title>
<g id="a_Node000003"><a xlink:href="../../df/d4d/structTerraria_1_1DataStructures_1_1Point16.html" target="_top" xlink:title=" ">
<polygon fill="white" stroke="transparent" points="313.5,-427 158.5,-427 158.5,-118 313.5,-118 313.5,-427"/>
<text text-anchor="start" x="178.5" y="-414.5" font-family="Helvetica,sans-Serif" font-size="10.00">Terraria.DataStructures.</text>
<text text-anchor="start" x="218" y="-403.5" font-family="Helvetica,sans-Serif" font-size="10.00">Point16</text>
<text text-anchor="start" x="234.5" y="-388.5" font-family="Helvetica,sans-Serif" font-size="10.00"> </text>
<text text-anchor="start" x="163" y="-373.5" font-family="Helvetica,sans-Serif" font-size="10.00">+</text>
<text text-anchor="start" x="176" y="-373.5" font-family="Helvetica,sans-Serif" font-size="10.00">Point16(Point point)</text>
<text text-anchor="start" x="163" y="-358.5" font-family="Helvetica,sans-Serif" font-size="10.00">+</text>
<text text-anchor="start" x="176" y="-358.5" font-family="Helvetica,sans-Serif" font-size="10.00">Point16(int X, int Y)</text>
<text text-anchor="start" x="163" y="-343.5" font-family="Helvetica,sans-Serif" font-size="10.00">+</text>
<text text-anchor="start" x="176" y="-343.5" font-family="Helvetica,sans-Serif" font-size="10.00">Point16(short X, short Y)</text>
<text text-anchor="start" x="163" y="-328.5" font-family="Helvetica,sans-Serif" font-size="10.00">+</text>
<text text-anchor="start" x="176" y="-328.5" font-family="Helvetica,sans-Serif" font-size="10.00">Point16 Max(int compareX,</text>
<text text-anchor="start" x="176" y="-317.5" font-family="Helvetica,sans-Serif" font-size="10.00"> int compareY)</text>
<text text-anchor="start" x="163" y="-302.5" font-family="Helvetica,sans-Serif" font-size="10.00">+</text>
<text text-anchor="start" x="176" y="-302.5" font-family="Helvetica,sans-Serif" font-size="10.00">Point16 Max(Point16</text>
<text text-anchor="start" x="176" y="-291.5" font-family="Helvetica,sans-Serif" font-size="10.00"> compareTo)</text>
<text text-anchor="start" x="163" y="-276.5" font-family="Helvetica,sans-Serif" font-size="10.00">+</text>
<text text-anchor="start" x="176" y="-276.5" font-family="Helvetica,sans-Serif" font-size="10.00">override bool Equals</text>
<text text-anchor="start" x="176" y="-265.5" font-family="Helvetica,sans-Serif" font-size="10.00">(object obj)</text>
<text text-anchor="start" x="163" y="-250.5" font-family="Helvetica,sans-Serif" font-size="10.00">+</text>
<text text-anchor="start" x="176" y="-250.5" font-family="Helvetica,sans-Serif" font-size="10.00">override int GetHashCode()</text>
<text text-anchor="start" x="163" y="-235.5" font-family="Helvetica,sans-Serif" font-size="10.00">+</text>
<text text-anchor="start" x="176" y="-235.5" font-family="Helvetica,sans-Serif" font-size="10.00">override string ToString()</text>
<text text-anchor="start" x="163" y="-220.5" font-family="Helvetica,sans-Serif" font-size="10.00">+</text>
<text text-anchor="start" x="176" y="-220.5" font-family="Helvetica,sans-Serif" font-size="10.00">static Point16 Max</text>
<text text-anchor="start" x="176" y="-209.5" font-family="Helvetica,sans-Serif" font-size="10.00">(int firstX, int firstY,</text>
<text text-anchor="start" x="176" y="-198.5" font-family="Helvetica,sans-Serif" font-size="10.00"> int secondX, int secondY)</text>
<text text-anchor="start" x="163" y="-183.5" font-family="Helvetica,sans-Serif" font-size="10.00">+</text>
<text text-anchor="start" x="176" y="-183.5" font-family="Helvetica,sans-Serif" font-size="10.00">static bool operator</text>
<text text-anchor="start" x="176" y="-172.5" font-family="Helvetica,sans-Serif" font-size="10.00">==(Point16 first, Point16</text>
<text text-anchor="start" x="176" y="-161.5" font-family="Helvetica,sans-Serif" font-size="10.00"> second)</text>
<text text-anchor="start" x="163" y="-146.5" font-family="Helvetica,sans-Serif" font-size="10.00">+</text>
<text text-anchor="start" x="176" y="-146.5" font-family="Helvetica,sans-Serif" font-size="10.00">static bool operator!</text>
<text text-anchor="start" x="176" y="-135.5" font-family="Helvetica,sans-Serif" font-size="10.00">=(Point16 first, Point16</text>
<text text-anchor="start" x="176" y="-124.5" font-family="Helvetica,sans-Serif" font-size="10.00"> second)</text>
<polygon fill="#666666" stroke="#666666" points="159,-398.5 159,-398.5 314,-398.5 314,-398.5 159,-398.5"/>
<polygon fill="#666666" stroke="#666666" points="159,-383.5 159,-383.5 314,-383.5 314,-383.5 159,-383.5"/>
<polygon fill="none" stroke="#666666" points="158.5,-118 158.5,-427 313.5,-427 313.5,-118 158.5,-118"/>
</a>
</g>
</g>
<!-- Node3&#45;&gt;Node1 -->
<g id="edge2_Node000001_Node000003" class="edge">
<title>Node3&#45;&gt;Node1</title>
<g id="a_edge2_Node000001_Node000003"><a xlink:title=" ">
<path fill="none" stroke="#63b8ff" d="M236,-117.7C236,-105.48 236,-93.85 236,-83.39"/>
<polygon fill="none" stroke="#63b8ff" points="236,-83.27 232,-77.27 236,-71.27 240,-77.27 236,-83.27"/>
</a>
</g>
<text text-anchor="middle" x="277.5" y="-92" font-family="Helvetica,sans-Serif" font-size="10.00" fill="grey"> +PositionInTiles</text>
</g>
<!-- Node3&#45;&gt;Node3 -->
<g id="edge4_Node000003_Node000003" class="edge">
<title>Node3&#45;&gt;Node3</title>
<g id="a_edge4_Node000003_Node000003"><a xlink:title=" ">
<path fill="none" stroke="#63b8ff" d="M313.57,-302.28C324.31,-297.38 331.5,-287.45 331.5,-272.5 331.5,-262.92 328.55,-255.41 323.61,-249.95"/>
<polygon fill="none" stroke="#63b8ff" points="323.3,-249.73 316.1,-249.47 313.57,-242.72 320.77,-242.98 323.3,-249.73"/>
</a>
</g>
<text text-anchor="middle" x="369.5" y="-275.5" font-family="Helvetica,sans-Serif" font-size="10.00" fill="grey"> +NegativeOne</text>
<text text-anchor="middle" x="369.5" y="-264.5" font-family="Helvetica,sans-Serif" font-size="10.00" fill="grey">+Zero</text>
</g>
<!-- Node4 -->
<g id="Node000004" class="node">
<title>Node4</title>
<g id="a_Node000004"><a xlink:title=" ">
<polygon fill="white" stroke="transparent" points="276.5,-534 195.5,-534 195.5,-485 276.5,-485 276.5,-534"/>
<text text-anchor="start" x="201" y="-521.5" font-family="Helvetica,sans-Serif" font-size="10.00">readonly short</text>
<text text-anchor="start" x="234.5" y="-506.5" font-family="Helvetica,sans-Serif" font-size="10.00"> </text>
<text text-anchor="start" x="234.5" y="-491.5" font-family="Helvetica,sans-Serif" font-size="10.00"> </text>
<polygon fill="#666666" stroke="#666666" points="196,-516.5 196,-516.5 277,-516.5 277,-516.5 196,-516.5"/>
<polygon fill="#666666" stroke="#666666" points="196,-501.5 196,-501.5 277,-501.5 277,-501.5 196,-501.5"/>
<polygon fill="none" stroke="#666666" points="195.5,-485 195.5,-534 276.5,-534 276.5,-485 195.5,-485"/>
</a>
</g>
</g>
<!-- Node4&#45;&gt;Node3 -->
<g id="edge3_Node000003_Node000004" class="edge">
<title>Node4&#45;&gt;Node3</title>
<g id="a_edge3_Node000003_Node000004"><a xlink:title=" ">
<path fill="none" stroke="#63b8ff" d="M236,-484.67C236,-472.58 236,-456.72 236,-439.12"/>
<polygon fill="none" stroke="#63b8ff" points="236,-439 232,-433 236,-427 240,-433 236,-439"/>
</a>
</g>
<text text-anchor="middle" x="245.5" y="-459" font-family="Helvetica,sans-Serif" font-size="10.00" fill="grey"> +X</text>
<text text-anchor="middle" x="245.5" y="-448" font-family="Helvetica,sans-Serif" font-size="10.00" fill="grey">+Y</text>
</g>
<!-- Node5 -->
<g id="Node000005" class="node">
<title>Node5</title>
<g id="a_Node000005"><a xlink:title=" ">
<polygon fill="white" stroke="transparent" points="524.5,-297 425.5,-297 425.5,-248 524.5,-248 524.5,-297"/>
<text text-anchor="start" x="431" y="-284.5" font-family="Helvetica,sans-Serif" font-size="10.00">TeleportPylonType</text>
<text text-anchor="start" x="473.5" y="-269.5" font-family="Helvetica,sans-Serif" font-size="10.00"> </text>
<text text-anchor="start" x="473.5" y="-254.5" font-family="Helvetica,sans-Serif" font-size="10.00"> </text>
<polygon fill="#666666" stroke="#666666" points="426,-279.5 426,-279.5 525,-279.5 525,-279.5 426,-279.5"/>
<polygon fill="#666666" stroke="#666666" points="426,-264.5 426,-264.5 525,-264.5 525,-264.5 426,-264.5"/>
<polygon fill="none" stroke="#666666" points="425.5,-248 425.5,-297 524.5,-297 524.5,-248 425.5,-248"/>
</a>
</g>
</g>
<!-- Node5&#45;&gt;Node1 -->
<g id="edge5_Node000001_Node000005" class="edge">
<title>Node5&#45;&gt;Node1</title>
<g id="a_edge5_Node000001_Node000005"><a xlink:title=" ">
<path fill="none" stroke="#63b8ff" d="M471.8,-247.72C466.21,-214.73 451.73,-154.95 417,-118 393.03,-92.51 359.61,-74.41 328,-61.86"/>
<polygon fill="none" stroke="#63b8ff" points="327.67,-61.74 320.64,-63.35 316.45,-57.49 323.48,-55.87 327.67,-61.74"/>
</a>
</g>
<text text-anchor="middle" x="428.5" y="-92" font-family="Helvetica,sans-Serif" font-size="10.00" fill="grey"> +TypeOfPylon</text>
</g>
</g>
</svg>

<g id="navigator" transform="translate(0 0)" fill="#404254">
  <rect fill="#f2f5e9" fill-opacity="0.5" stroke="#606060" stroke-width=".5" x="0" y="0" width="60" height="60"/>
  <use id="zoomplus" xlink:href="#zoomPlus" x="17" y="9" onmousedown="handleZoom(evt,'in')"/>
  <use id="zoomminus" xlink:href="#zoomMin" x="42" y="9" onmousedown="handleZoom(evt,'out')"/>
  <use id="reset" xlink:href="#resetDef" x="30" y="36" onmousedown="handleReset()"/>
   <use id="arrowup" xlink:href="#arrowUp" x="0" y="0" onmousedown="handlePan(0,-1)"/>
  <use id="arrowright" xlink:href="#arrowRight" x="0" y="0" onmousedown="handlePan(1,0)"/>
  <use id="arrowdown" xlink:href="#arrowDown" x="0" y="0" onmousedown="handlePan(0,1)"/>
  <use id="arrowleft" xlink:href="#arrowLeft" x="0" y="0" onmousedown="handlePan(-1,0)"/>
</g>
<svg viewBox="0 0 15 15" width="100%" height="30px" preserveAspectRatio="xMaxYMin meet">
 <g id="arrow_out" transform="scale(0.3 0.3)">
  <a xlink:href="structTerraria_1_1GameContent_1_1TeleportPylonInfo__coll__graph_org.svg" target="_base">
   <rect id="button" ry="5" rx="5" y="6" x="6" height="38" width="38"
        fill="#f2f5e9" fill-opacity="0.5" stroke="#606060" stroke-width="1.0"/>
   <path id="arrow"
     d="M 11.500037,31.436501 C 11.940474,20.09759 22.043105,11.32322 32.158766,21.979434 L 37.068811,17.246167 C 37.068811,17.246167 37.088388,32 37.088388,32 L 22.160133,31.978069 C 22.160133,31.978069 26.997745,27.140456 26.997745,27.140456 C 18.528582,18.264221 13.291696,25.230495 11.500037,31.436501 z"
     style="fill:#404040;"/>
  </a>
 </g>
</svg>

<style type='text/css'>
<![CDATA[
[data-mouse-over-selected='false'] { opacity: 0.7; }
[data-mouse-over-selected='true']  { opacity: 1.0; }
]]>
</style>
<script type="application/ecmascript"><![CDATA[
document.addEventListener('DOMContentLoaded', (event) => {
  highlightEdges();
  highlightAdjacentNodes();
});
]]></script>
</svg>
