<?xml version="1.0" encoding="UTF-8" standalone="no"?>
<!DOCTYPE svg PUBLIC "-//W3C//DTD SVG 1.1//EN"
 "http://www.w3.org/Graphics/SVG/1.1/DTD/svg11.dtd">
<!-- Generated by graphviz version 2.43.0 (0)
 -->
<!-- Title: TEItemFrame.Place Pages: 1 -->
<svg width="1475pt" height="97pt"
 viewBox="0.00 0.00 1475.00 96.50" xmlns="http://www.w3.org/2000/svg" xmlns:xlink="http://www.w3.org/1999/xlink">
<g id="graph0" class="graph" transform="scale(1 1) rotate(0) translate(4 92.5)">
<title>TEItemFrame.Place</title>
<polygon fill="white" stroke="transparent" points="-4,4 -4,-92.5 1471,-92.5 1471,4 -4,4"/>
<!-- Node1 -->
<g id="node1" class="node">
<title>Node1</title>
<g id="a_node1"><a xlink:title=" ">
<polygon fill="#bfbfbf" stroke="black" points="1356,-28 1356,-47 1467,-47 1467,-28 1356,-28"/>
<text text-anchor="middle" x="1411.5" y="-35" font-family="Helvetica,sans-Serif" font-size="10.00">TEItemFrame.Place</text>
</a>
</g>
</g>
<!-- Node2 -->
<g id="node2" class="node">
<title>Node2</title>
<g id="a_node2"><a xlink:href="../../de/dc4/classTEItemFrame_ad3cafad6d55fc3d3b9760888d2394487.html#ad3cafad6d55fc3d3b9760888d2394487" target="_top" xlink:title=" ">
<polygon fill="white" stroke="black" points="1129,-48 1129,-67 1320,-67 1320,-48 1129,-48"/>
<text text-anchor="middle" x="1224.5" y="-55" font-family="Helvetica,sans-Serif" font-size="10.00">TEItemFrame.Hook_AfterPlacement</text>
</a>
</g>
</g>
<!-- Node1&#45;&gt;Node2 -->
<g id="edge1" class="edge">
<title>Node1&#45;&gt;Node2</title>
<path fill="none" stroke="midnightblue" d="M1345.79,-44.5C1335.38,-45.62 1324.46,-46.8 1313.62,-47.97"/>
<polygon fill="midnightblue" stroke="midnightblue" points="1346.43,-47.95 1355.99,-43.39 1345.68,-40.99 1346.43,-47.95"/>
</g>
<!-- Node13 -->
<g id="node13" class="node">
<title>Node13</title>
<g id="a_node13"><a xlink:href="../../de/dc4/classTEItemFrame_a235d00b2fdaeffe89bbed05ba5db4e03.html#a235d00b2fdaeffe89bbed05ba5db4e03" target="_top" xlink:title=" ">
<polygon fill="white" stroke="black" points="1146,-9 1146,-28 1303,-28 1303,-9 1146,-9"/>
<text text-anchor="middle" x="1224.5" y="-16" font-family="Helvetica,sans-Serif" font-size="10.00">TEItemFrame.NetPlaceEntity</text>
</a>
</g>
</g>
<!-- Node1&#45;&gt;Node13 -->
<g id="edge13" class="edge">
<title>Node1&#45;&gt;Node13</title>
<path fill="none" stroke="midnightblue" d="M1345.71,-30.85C1332,-29.44 1317.39,-27.94 1303.26,-26.49"/>
<polygon fill="midnightblue" stroke="midnightblue" points="1345.69,-34.36 1355.99,-31.9 1346.4,-27.4 1345.69,-34.36"/>
</g>
<!-- Node3 -->
<g id="node3" class="node">
<title>Node3</title>
<g id="a_node3"><a xlink:href="../../d2/dce/classTileObjectData_a9f184e0bb1c5fce7091984bcf3f94250.html#a9f184e0bb1c5fce7091984bcf3f94250" target="_top" xlink:title=" ">
<polygon fill="white" stroke="black" points="947.5,-50 947.5,-69 1081.5,-69 1081.5,-50 947.5,-50"/>
<text text-anchor="middle" x="1014.5" y="-57" font-family="Helvetica,sans-Serif" font-size="10.00">TileObjectData.Initialize</text>
</a>
</g>
</g>
<!-- Node2&#45;&gt;Node3 -->
<g id="edge2" class="edge">
<title>Node2&#45;&gt;Node3</title>
<path fill="none" stroke="midnightblue" d="M1118.79,-58.51C1106.13,-58.63 1093.48,-58.75 1081.59,-58.86"/>
<polygon fill="midnightblue" stroke="midnightblue" points="1118.97,-62.01 1128.93,-58.41 1118.9,-55.01 1118.97,-62.01"/>
</g>
<!-- Node4 -->
<g id="node4" class="node">
<title>Node4</title>
<g id="a_node4"><a xlink:href="../../db/d4a/classMain_a25342c33fe017340cbe3a4d633951101.html#a25342c33fe017340cbe3a4d633951101" target="_top" xlink:title=" ">
<polygon fill="white" stroke="black" points="722,-50 722,-69 900,-69 900,-50 722,-50"/>
<text text-anchor="middle" x="811" y="-57" font-family="Helvetica,sans-Serif" font-size="10.00">Main.Initialize_AlmostEverything</text>
</a>
</g>
</g>
<!-- Node3&#45;&gt;Node4 -->
<g id="edge3" class="edge">
<title>Node3&#45;&gt;Node4</title>
<path fill="none" stroke="midnightblue" d="M937.23,-59.5C925.15,-59.5 912.57,-59.5 900.25,-59.5"/>
<polygon fill="midnightblue" stroke="midnightblue" points="937.24,-63 947.24,-59.5 937.24,-56 937.24,-63"/>
</g>
<!-- Node5 -->
<g id="node5" class="node">
<title>Node5</title>
<g id="a_node5"><a xlink:href="../../db/d4a/classMain_a5db4144feae3a661cf25ae1acf553895.html#a5db4144feae3a661cf25ae1acf553895" target="_top" xlink:title=" ">
<polygon fill="white" stroke="black" points="585,-69 585,-88 686,-88 686,-69 585,-69"/>
<text text-anchor="middle" x="635.5" y="-76" font-family="Helvetica,sans-Serif" font-size="10.00">Main.DrawSplash</text>
</a>
</g>
</g>
<!-- Node4&#45;&gt;Node5 -->
<g id="edge4" class="edge">
<title>Node4&#45;&gt;Node5</title>
<path fill="none" stroke="midnightblue" d="M712.91,-70.13C703.66,-71.15 694.56,-72.14 686.05,-73.07"/>
<polygon fill="midnightblue" stroke="midnightblue" points="713.44,-73.6 723,-69.03 712.67,-66.64 713.44,-73.6"/>
</g>
<!-- Node8 -->
<g id="node8" class="node">
<title>Node8</title>
<g id="a_node8"><a xlink:href="../../db/d4a/classMain_ad5aa3256b312cc9cfd98baeb2233727c.html#ad5aa3256b312cc9cfd98baeb2233727c" target="_top" xlink:title=" ">
<polygon fill="white" stroke="black" points="592.5,-31 592.5,-50 678.5,-50 678.5,-31 592.5,-31"/>
<text text-anchor="middle" x="635.5" y="-38" font-family="Helvetica,sans-Serif" font-size="10.00">Main.Initialize</text>
</a>
</g>
</g>
<!-- Node4&#45;&gt;Node8 -->
<g id="edge8" class="edge">
<title>Node4&#45;&gt;Node8</title>
<path fill="none" stroke="midnightblue" d="M712.92,-48.87C700.97,-47.56 689.29,-46.28 678.8,-45.13"/>
<polygon fill="midnightblue" stroke="midnightblue" points="712.67,-52.36 723,-49.97 713.44,-45.4 712.67,-52.36"/>
</g>
<!-- Node6 -->
<g id="node6" class="node">
<title>Node6</title>
<g id="a_node6"><a xlink:href="../../db/d4a/classMain_a4ca48570ee8c9e54ed5371ecb4ab1877.html#a4ca48570ee8c9e54ed5371ecb4ab1877" target="_top" xlink:title=" ">
<polygon fill="white" stroke="black" points="465,-69 465,-88 548,-88 548,-69 465,-69"/>
<text text-anchor="middle" x="506.5" y="-76" font-family="Helvetica,sans-Serif" font-size="10.00">Main.DoDraw</text>
</a>
</g>
</g>
<!-- Node5&#45;&gt;Node6 -->
<g id="edge5" class="edge">
<title>Node5&#45;&gt;Node6</title>
<path fill="none" stroke="midnightblue" d="M574.63,-78.5C565.67,-78.5 556.62,-78.5 548.18,-78.5"/>
<polygon fill="midnightblue" stroke="midnightblue" points="574.67,-82 584.67,-78.5 574.67,-75 574.67,-82"/>
</g>
<!-- Node7 -->
<g id="node7" class="node">
<title>Node7</title>
<g id="a_node7"><a xlink:href="../../db/d4a/classMain_a9df405f7c9ce2e93e9af9bbf70231672.html#a9df405f7c9ce2e93e9af9bbf70231672" target="_top" xlink:title=" ">
<polygon fill="white" stroke="black" points="339,-69 339,-88 408,-88 408,-69 339,-69"/>
<text text-anchor="middle" x="373.5" y="-76" font-family="Helvetica,sans-Serif" font-size="10.00">Main.Draw</text>
</a>
</g>
</g>
<!-- Node6&#45;&gt;Node7 -->
<g id="edge6" class="edge">
<title>Node6&#45;&gt;Node7</title>
<path fill="none" stroke="midnightblue" d="M454.72,-71.9C439.11,-71.57 422.33,-71.78 408.17,-72.52"/>
<polygon fill="midnightblue" stroke="midnightblue" points="454.67,-75.4 464.77,-72.2 454.88,-68.41 454.67,-75.4"/>
</g>
<!-- Node7&#45;&gt;Node6 -->
<g id="edge7" class="edge">
<title>Node7&#45;&gt;Node6</title>
<path fill="none" stroke="midnightblue" d="M418.25,-84.91C433.26,-85.4 450,-85.36 464.77,-84.8"/>
<polygon fill="midnightblue" stroke="midnightblue" points="418.31,-81.41 408.17,-84.48 418.01,-88.4 418.31,-81.41"/>
</g>
<!-- Node9 -->
<g id="node9" class="node">
<title>Node9</title>
<g id="a_node9"><a xlink:href="../../db/d4a/classMain_aa0692b82ef0f39d28df7aae89daa2480.html#aa0692b82ef0f39d28df7aae89daa2480" target="_top" xlink:title=" ">
<polygon fill="white" stroke="black" points="464,-31 464,-50 549,-50 549,-31 464,-31"/>
<text text-anchor="middle" x="506.5" y="-38" font-family="Helvetica,sans-Serif" font-size="10.00">Main.DedServ</text>
</a>
</g>
</g>
<!-- Node8&#45;&gt;Node9 -->
<g id="edge9" class="edge">
<title>Node8&#45;&gt;Node9</title>
<path fill="none" stroke="midnightblue" d="M581.92,-40.5C571,-40.5 559.64,-40.5 549.17,-40.5"/>
<polygon fill="midnightblue" stroke="midnightblue" points="582.21,-44 592.21,-40.5 582.21,-37 582.21,-44"/>
</g>
<!-- Node10 -->
<g id="node10" class="node">
<title>Node10</title>
<g id="a_node10"><a xlink:href="../../dc/db5/classProgram_a7046fff16d913c8ea7291c3efa4cb4ed.html#a7046fff16d913c8ea7291c3efa4cb4ed" target="_top" xlink:title=" ">
<polygon fill="white" stroke="black" points="319,-31 319,-50 428,-50 428,-31 319,-31"/>
<text text-anchor="middle" x="373.5" y="-38" font-family="Helvetica,sans-Serif" font-size="10.00">Program.RunGame</text>
</a>
</g>
</g>
<!-- Node9&#45;&gt;Node10 -->
<g id="edge10" class="edge">
<title>Node9&#45;&gt;Node10</title>
<path fill="none" stroke="midnightblue" d="M453.44,-40.5C445.2,-40.5 436.65,-40.5 428.37,-40.5"/>
<polygon fill="midnightblue" stroke="midnightblue" points="453.69,-44 463.69,-40.5 453.69,-37 453.69,-44"/>
</g>
<!-- Node11 -->
<g id="node11" class="node">
<title>Node11</title>
<g id="a_node11"><a xlink:href="../../dc/db5/classProgram_ac64eaca42975d2a403f25794697886fc.html#ac64eaca42975d2a403f25794697886fc" target="_top" xlink:title=" ">
<polygon fill="white" stroke="black" points="158,-31 158,-50 283,-50 283,-31 158,-31"/>
<text text-anchor="middle" x="220.5" y="-38" font-family="Helvetica,sans-Serif" font-size="10.00">Program.LaunchGame</text>
</a>
</g>
</g>
<!-- Node10&#45;&gt;Node11 -->
<g id="edge11" class="edge">
<title>Node10&#45;&gt;Node11</title>
<path fill="none" stroke="midnightblue" d="M308.68,-40.5C300.25,-40.5 291.62,-40.5 283.23,-40.5"/>
<polygon fill="midnightblue" stroke="midnightblue" points="308.84,-44 318.84,-40.5 308.84,-37 308.84,-44"/>
</g>
<!-- Node12 -->
<g id="node12" class="node">
<title>Node12</title>
<g id="a_node12"><a xlink:href="../../df/d9e/classWindowsLaunch_a48fb8633919b7d48cc10a62bd116902a.html#a48fb8633919b7d48cc10a62bd116902a" target="_top" xlink:title=" ">
<polygon fill="white" stroke="black" points="0,-31 0,-50 122,-50 122,-31 0,-31"/>
<text text-anchor="middle" x="61" y="-38" font-family="Helvetica,sans-Serif" font-size="10.00">WindowsLaunch.Main</text>
</a>
</g>
</g>
<!-- Node11&#45;&gt;Node12 -->
<g id="edge12" class="edge">
<title>Node11&#45;&gt;Node12</title>
<path fill="none" stroke="midnightblue" d="M147.43,-40.5C138.95,-40.5 130.36,-40.5 122.07,-40.5"/>
<polygon fill="midnightblue" stroke="midnightblue" points="147.7,-44 157.7,-40.5 147.7,-37 147.7,-44"/>
</g>
<!-- Node14 -->
<g id="node14" class="node">
<title>Node14</title>
<g id="a_node14"><a xlink:href="../../de/dc4/classTEItemFrame_a846ed3e3b976cc7df186eb493529810e.html#a846ed3e3b976cc7df186eb493529810e" target="_top" xlink:title=" ">
<polygon fill="white" stroke="black" points="936,-0.5 936,-30.5 1093,-30.5 1093,-0.5 936,-0.5"/>
<text text-anchor="start" x="944" y="-18.5" font-family="Helvetica,sans-Serif" font-size="10.00">TEItemFrame.NetPlaceEntity</text>
<text text-anchor="middle" x="1014.5" y="-7.5" font-family="Helvetica,sans-Serif" font-size="10.00">Attempt</text>
</a>
</g>
</g>
<!-- Node13&#45;&gt;Node14 -->
<g id="edge14" class="edge">
<title>Node13&#45;&gt;Node14</title>
<path fill="none" stroke="midnightblue" d="M1135.58,-17.23C1121.48,-17.03 1106.99,-16.82 1093.15,-16.62"/>
<polygon fill="midnightblue" stroke="midnightblue" points="1135.7,-20.73 1145.75,-17.38 1135.8,-13.73 1135.7,-20.73"/>
</g>
</g>
</svg>
