<?xml version="1.0" encoding="UTF-8" standalone="no"?>
<!DOCTYPE svg PUBLIC "-//W3C//DTD SVG 1.1//EN"
 "http://www.w3.org/Graphics/SVG/1.1/DTD/svg11.dtd">
<!-- Generated by graphviz version 2.43.0 (0)
 -->
<!-- Title: Projectile.Kill_DirtAndFluidProjectiles_RunDelegateMethodPushUpForHalfBricks Pages: 1 -->
<svg width="533pt" height="123pt"
 viewBox="0.00 0.00 533.00 123.00" xmlns="http://www.w3.org/2000/svg" xmlns:xlink="http://www.w3.org/1999/xlink">
<g id="graph0" class="graph" transform="scale(1 1) rotate(0) translate(4 119)">
<title>Projectile.Kill_DirtAndFluidProjectiles_RunDelegateMethodPushUpForHalfBricks</title>
<polygon fill="white" stroke="transparent" points="-4,4 -4,-119 529,-119 529,4 -4,4"/>
<!-- Node1 -->
<g id="node1" class="node">
<title>Node1</title>
<g id="a_node1"><a xlink:title=" ">
<polygon fill="#bfbfbf" stroke="black" points="0,-46.5 0,-87.5 196,-87.5 196,-46.5 0,-46.5"/>
<text text-anchor="start" x="8" y="-75.5" font-family="Helvetica,sans-Serif" font-size="10.00">Projectile.Kill_DirtAndFluid</text>
<text text-anchor="start" x="8" y="-64.5" font-family="Helvetica,sans-Serif" font-size="10.00">Projectiles_RunDelegateMethodPush</text>
<text text-anchor="middle" x="98" y="-53.5" font-family="Helvetica,sans-Serif" font-size="10.00">UpForHalfBricks</text>
</a>
</g>
</g>
<!-- Node2 -->
<g id="node2" class="node">
<title>Node2</title>
<g id="a_node2"><a xlink:href="../../d6/dba/classTile_a64e4b5e9c17707d5bf63cf590bb48c9b.html#a64e4b5e9c17707d5bf63cf590bb48c9b" target="_top" xlink:title=" ">
<polygon fill="white" stroke="black" points="439,-95.5 439,-114.5 507,-114.5 507,-95.5 439,-95.5"/>
<text text-anchor="middle" x="473" y="-102.5" font-family="Helvetica,sans-Serif" font-size="10.00">Tile.active</text>
</a>
</g>
</g>
<!-- Node1&#45;&gt;Node2 -->
<g id="edge1" class="edge">
<title>Node1&#45;&gt;Node2</title>
<path fill="none" stroke="midnightblue" d="M157.5,-87.52C180.42,-94.55 207.15,-101.52 232,-105 300.24,-114.56 380.46,-111.77 428.71,-108.59"/>
<polygon fill="midnightblue" stroke="midnightblue" points="429.07,-112.08 438.8,-107.89 428.58,-105.09 429.07,-112.08"/>
</g>
<!-- Node3 -->
<g id="node3" class="node">
<title>Node3</title>
<g id="a_node3"><a xlink:href="../../d6/dba/classTile_a975f34b33a09445dfd475309fdcfd6a0.html#a975f34b33a09445dfd475309fdcfd6a0" target="_top" xlink:title=" ">
<polygon fill="white" stroke="black" points="268,-76.5 268,-95.5 349,-95.5 349,-76.5 268,-76.5"/>
<text text-anchor="middle" x="308.5" y="-83.5" font-family="Helvetica,sans-Serif" font-size="10.00">Tile.halfBrick</text>
</a>
</g>
</g>
<!-- Node1&#45;&gt;Node3 -->
<g id="edge2" class="edge">
<title>Node1&#45;&gt;Node3</title>
<path fill="none" stroke="midnightblue" d="M196.23,-75.86C217.64,-77.81 239.44,-79.8 258.01,-81.49"/>
<polygon fill="midnightblue" stroke="midnightblue" points="257.7,-84.98 267.97,-82.4 258.33,-78 257.7,-84.98"/>
</g>
<!-- Node4 -->
<g id="node4" class="node">
<title>Node4</title>
<g id="a_node4"><a xlink:href="../../dc/dc5/classUtils_a50fe79cb07984ed8bb959b9510669637.html#a50fe79cb07984ed8bb959b9510669637" target="_top" xlink:title=" ">
<polygon fill="white" stroke="black" points="258,-0.5 258,-19.5 359,-19.5 359,-0.5 258,-0.5"/>
<text text-anchor="middle" x="308.5" y="-7.5" font-family="Helvetica,sans-Serif" font-size="10.00">Utils.PlotTileArea</text>
</a>
</g>
</g>
<!-- Node1&#45;&gt;Node4 -->
<g id="edge3" class="edge">
<title>Node1&#45;&gt;Node4</title>
<path fill="none" stroke="midnightblue" d="M169.29,-46.47C189.5,-40.69 211.59,-34.48 232,-29 240.63,-26.68 249.84,-24.29 258.75,-22.03"/>
<polygon fill="midnightblue" stroke="midnightblue" points="259.8,-25.37 268.64,-19.53 258.09,-18.58 259.8,-25.37"/>
</g>
<!-- Node6 -->
<g id="node6" class="node">
<title>Node6</title>
<g id="a_node6"><a xlink:href="../../db/de4/classWorldGen_a58839bde6dc00d6ea9cee15322c687c1.html#a58839bde6dc00d6ea9cee15322c687c1" target="_top" xlink:title=" ">
<polygon fill="white" stroke="black" points="232,-38.5 232,-57.5 385,-57.5 385,-38.5 232,-38.5"/>
<text text-anchor="middle" x="308.5" y="-45.5" font-family="Helvetica,sans-Serif" font-size="10.00">WorldGen.SolidOrSlopedTile</text>
</a>
</g>
</g>
<!-- Node1&#45;&gt;Node6 -->
<g id="edge5" class="edge">
<title>Node1&#45;&gt;Node6</title>
<path fill="none" stroke="midnightblue" d="M196.23,-58.14C204.76,-57.36 213.35,-56.58 221.78,-55.81"/>
<polygon fill="midnightblue" stroke="midnightblue" points="222.31,-59.28 231.95,-54.88 221.68,-52.31 222.31,-59.28"/>
</g>
<!-- Node5 -->
<g id="node5" class="node">
<title>Node5</title>
<g id="a_node5"><a xlink:href="../../db/de4/classWorldGen_a5ee5c1aa704eb7690bc7fdd4a1147e66.html#a5ee5c1aa704eb7690bc7fdd4a1147e66" target="_top" xlink:title=" ">
<polygon fill="white" stroke="black" points="421,-0.5 421,-19.5 525,-19.5 525,-0.5 421,-0.5"/>
<text text-anchor="middle" x="473" y="-7.5" font-family="Helvetica,sans-Serif" font-size="10.00">WorldGen.InWorld</text>
</a>
</g>
</g>
<!-- Node4&#45;&gt;Node5 -->
<g id="edge4" class="edge">
<title>Node4&#45;&gt;Node5</title>
<path fill="none" stroke="midnightblue" d="M359.14,-10C375.37,-10 393.6,-10 410.59,-10"/>
<polygon fill="midnightblue" stroke="midnightblue" points="410.98,-13.5 420.98,-10 410.98,-6.5 410.98,-13.5"/>
</g>
<!-- Node6&#45;&gt;Node2 -->
<g id="edge6" class="edge">
<title>Node6&#45;&gt;Node2</title>
<path fill="none" stroke="midnightblue" d="M352.58,-57.54C363.28,-60.26 374.64,-63.46 385,-67 404.95,-73.81 426.68,-83.3 443.43,-91.1"/>
<polygon fill="midnightblue" stroke="midnightblue" points="442.13,-94.35 452.67,-95.45 445.12,-88.02 442.13,-94.35"/>
</g>
<!-- Node7 -->
<g id="node7" class="node">
<title>Node7</title>
<g id="a_node7"><a xlink:href="../../d6/dba/classTile_abb2a30463eddd9cbdc91f329d2aa4bf8.html#abb2a30463eddd9cbdc91f329d2aa4bf8" target="_top" xlink:title=" ">
<polygon fill="white" stroke="black" points="434.5,-38.5 434.5,-57.5 511.5,-57.5 511.5,-38.5 434.5,-38.5"/>
<text text-anchor="middle" x="473" y="-45.5" font-family="Helvetica,sans-Serif" font-size="10.00">Tile.inActive</text>
</a>
</g>
</g>
<!-- Node6&#45;&gt;Node7 -->
<g id="edge7" class="edge">
<title>Node6&#45;&gt;Node7</title>
<path fill="none" stroke="midnightblue" d="M385.04,-48C398.38,-48 411.93,-48 424.23,-48"/>
<polygon fill="midnightblue" stroke="midnightblue" points="424.24,-51.5 434.24,-48 424.24,-44.5 424.24,-51.5"/>
</g>
</g>
</svg>
