<?xml version="1.0" encoding="UTF-8" standalone="no"?>
<!DOCTYPE svg PUBLIC "-//W3C//DTD SVG 1.1//EN"
 "http://www.w3.org/Graphics/SVG/1.1/DTD/svg11.dtd">
<!-- Generated by graphviz version 2.43.0 (0)
 -->
<!-- Title: Projectile.AI_067_TigerSpecialAttack Pages: 1 -->
<!--zoomable 208 -->
<svg id="main" version="1.1" xmlns="http://www.w3.org/2000/svg" xmlns:xlink="http://www.w3.org/1999/xlink" xml:space="preserve" onload="init(evt)">
<style type="text/css"><![CDATA[
.edge:hover path { stroke: red; }
.edge:hover polygon { stroke: red; fill: red; }
]]></style>
<script type="text/javascript"><![CDATA[
var edges = document.getElementsByTagName('g');
if (edges && edges.length) {
  for (var i=0;i<edges.length;i++) {
    if (edges[i].id.substr(0,4)=='edge') {
      edges[i].setAttribute('class','edge');
    }
  }
}
]]></script>
        <defs>
                <circle id="rim" cx="0" cy="0" r="7"/>
                <circle id="rim2" cx="0" cy="0" r="3.5"/>
                <g id="zoomPlus">
                        <use xlink:href="#rim" fill="#404040">
                                <set attributeName="fill" to="#808080" begin="zoomplus.mouseover" end="zoomplus.mouseout"/>
                        </use>
                        <path d="M-4,0h8M0,-4v8" fill="none" stroke="white" stroke-width="1.5" pointer-events="none"/>
                </g>
                <g id="zoomMin">
                        <use xlink:href="#rim" fill="#404040">
                                <set attributeName="fill" to="#808080" begin="zoomminus.mouseover" end="zoomminus.mouseout"/>
                        </use>
                        <path d="M-4,0h8" fill="none" stroke="white" stroke-width="1.5" pointer-events="none"/>
                </g>
                <g id="dirArrow">
                        <path fill="none" stroke="white" stroke-width="1.5" d="M0,-3.0v7 M-2.5,-0.5L0,-3.0L2.5,-0.5"/>
                </g>
               <g id="resetDef">
                       <use xlink:href="#rim2" fill="#404040">
                               <set attributeName="fill" to="#808080" begin="reset.mouseover" end="reset.mouseout"/>
                       </use>
               </g>
        </defs>

<script type="text/javascript">
var viewWidth = 548;
var viewHeight = 208;
var sectionId = 'dynsection-0';
</script>
<script xlink:href="../../svgpan.js"/>
<svg id="graph" class="graph">
<g id="viewport">
<title>Projectile.AI_067_TigerSpecialAttack</title>
<polygon fill="white" stroke="transparent" points="-4,4 -4,-204 544,-204 544,4 -4,4"/>
<!-- Node1 -->
<g id="node1" class="node">
<title>Node1</title>
<g id="a_node1"><a xlink:title=" ">
<polygon fill="#bfbfbf" stroke="black" points="0,-118 0,-148 164,-148 164,-118 0,-118"/>
<text text-anchor="start" x="8" y="-136" font-family="Helvetica,sans-Serif" font-size="10.00">Projectile.AI_067_TigerSpecial</text>
<text text-anchor="middle" x="82" y="-125" font-family="Helvetica,sans-Serif" font-size="10.00">Attack</text>
</a>
</g>
</g>
<!-- Node2 -->
<g id="node2" class="node">
<title>Node2</title>
<g id="a_node2"><a xlink:href="../../de/d71/classNPC_a495a1e3f088cfae6405d641d623321c4.html#a495a1e3f088cfae6405d641d623321c4" target="_top" xlink:title=" ">
<polygon fill="white" stroke="black" points="207.5,-180.5 207.5,-199.5 327.5,-199.5 327.5,-180.5 207.5,-180.5"/>
<text text-anchor="middle" x="267.5" y="-187.5" font-family="Helvetica,sans-Serif" font-size="10.00">NPC.CanBeChasedBy</text>
</a>
</g>
</g>
<!-- Node1&#45;&gt;Node2 -->
<g id="edge1" class="edge">
<title>Node1&#45;&gt;Node2</title>
<path fill="none" stroke="midnightblue" d="M128.16,-148.08C149.83,-155.22 176.2,-163.74 200,-171 207.27,-173.22 215,-175.5 222.53,-177.68"/>
<polygon fill="midnightblue" stroke="midnightblue" points="221.68,-181.07 232.26,-180.47 223.61,-174.35 221.68,-181.07"/>
</g>
<!-- Node3 -->
<g id="node3" class="node">
<title>Node3</title>
<g id="a_node3"><a xlink:href="../../dc/dc5/classUtils_ad156325f936d5d71a99d56d2972851bf.html#ad156325f936d5d71a99d56d2972851bf" target="_top" xlink:title=" ">
<polygon fill="white" stroke="black" points="200,-142.5 200,-161.5 335,-161.5 335,-142.5 200,-142.5"/>
<text text-anchor="middle" x="267.5" y="-149.5" font-family="Helvetica,sans-Serif" font-size="10.00">Utils.CenteredRectangle</text>
</a>
</g>
</g>
<!-- Node1&#45;&gt;Node3 -->
<g id="edge2" class="edge">
<title>Node1&#45;&gt;Node3</title>
<path fill="none" stroke="midnightblue" d="M164.02,-141.39C172.65,-142.28 181.4,-143.19 189.97,-144.08"/>
<polygon fill="midnightblue" stroke="midnightblue" points="189.62,-147.56 199.93,-145.11 190.35,-140.6 189.62,-147.56"/>
</g>
<!-- Node4 -->
<g id="node4" class="node">
<title>Node4</title>
<g id="a_node4"><a xlink:href="../../d6/d9a/classUnifiedRandom_a424f3e9455eb9b0a67085171d7d93d18.html#a424f3e9455eb9b0a67085171d7d93d18" target="_top" xlink:title=" ">
<polygon fill="white" stroke="black" points="208.5,-104.5 208.5,-123.5 326.5,-123.5 326.5,-104.5 208.5,-104.5"/>
<text text-anchor="middle" x="267.5" y="-111.5" font-family="Helvetica,sans-Serif" font-size="10.00">UnifiedRandom.Next</text>
</a>
</g>
</g>
<!-- Node1&#45;&gt;Node4 -->
<g id="edge3" class="edge">
<title>Node1&#45;&gt;Node4</title>
<path fill="none" stroke="midnightblue" d="M164.02,-124.61C175.49,-123.42 187.18,-122.21 198.37,-121.05"/>
<polygon fill="midnightblue" stroke="midnightblue" points="198.9,-124.52 208.49,-120.01 198.18,-117.56 198.9,-124.52"/>
</g>
<!-- Node6 -->
<g id="node6" class="node">
<title>Node6</title>
<g id="a_node6"><a xlink:href="../../d6/d57/classCollision_a824ea94d57bd2d7c74edca7c071c02c0.html#a824ea94d57bd2d7c74edca7c071c02c0" target="_top" xlink:title=" ">
<polygon fill="white" stroke="black" points="203.5,-57.5 203.5,-76.5 331.5,-76.5 331.5,-57.5 203.5,-57.5"/>
<text text-anchor="middle" x="267.5" y="-64.5" font-family="Helvetica,sans-Serif" font-size="10.00">Collision.SolidCollision</text>
</a>
</g>
</g>
<!-- Node1&#45;&gt;Node6 -->
<g id="edge5" class="edge">
<title>Node1&#45;&gt;Node6</title>
<path fill="none" stroke="midnightblue" d="M125.1,-117.86C156.85,-106.44 199.95,-90.93 230.2,-80.06"/>
<polygon fill="midnightblue" stroke="midnightblue" points="231.7,-83.24 239.93,-76.56 229.33,-76.65 231.7,-83.24"/>
</g>
<!-- Node5 -->
<g id="node5" class="node">
<title>Node5</title>
<g id="a_node5"><a xlink:href="../../d6/d9a/classUnifiedRandom_a005be01cf2fb47d9f5d02f0d44ed5921.html#a005be01cf2fb47d9f5d02f0d44ed5921" target="_top" xlink:title=" ">
<polygon fill="white" stroke="black" points="371,-114.5 371,-133.5 540,-133.5 540,-114.5 371,-114.5"/>
<text text-anchor="middle" x="455.5" y="-121.5" font-family="Helvetica,sans-Serif" font-size="10.00">UnifiedRandom.InternalSample</text>
</a>
</g>
</g>
<!-- Node4&#45;&gt;Node5 -->
<g id="edge4" class="edge">
<title>Node4&#45;&gt;Node5</title>
<path fill="none" stroke="midnightblue" d="M326.59,-117.12C337.47,-117.71 349.1,-118.33 360.74,-118.96"/>
<polygon fill="midnightblue" stroke="midnightblue" points="360.79,-122.47 370.96,-119.51 361.16,-115.48 360.79,-122.47"/>
</g>
<!-- Node7 -->
<g id="node7" class="node">
<title>Node7</title>
<g id="a_node7"><a xlink:href="../../d6/dba/classTile_a64e4b5e9c17707d5bf63cf590bb48c9b.html#a64e4b5e9c17707d5bf63cf590bb48c9b" target="_top" xlink:title=" ">
<polygon fill="white" stroke="black" points="421.5,-76.5 421.5,-95.5 489.5,-95.5 489.5,-76.5 421.5,-76.5"/>
<text text-anchor="middle" x="455.5" y="-83.5" font-family="Helvetica,sans-Serif" font-size="10.00">Tile.active</text>
</a>
</g>
</g>
<!-- Node6&#45;&gt;Node7 -->
<g id="edge6" class="edge">
<title>Node6&#45;&gt;Node7</title>
<path fill="none" stroke="midnightblue" d="M331.73,-73.46C357.97,-76.14 387.74,-79.18 411.39,-81.6"/>
<polygon fill="midnightblue" stroke="midnightblue" points="411.16,-85.09 421.46,-82.63 411.87,-78.13 411.16,-85.09"/>
</g>
<!-- Node8 -->
<g id="node8" class="node">
<title>Node8</title>
<g id="a_node8"><a xlink:href="../../d6/dba/classTile_a975f34b33a09445dfd475309fdcfd6a0.html#a975f34b33a09445dfd475309fdcfd6a0" target="_top" xlink:title=" ">
<polygon fill="white" stroke="black" points="415,-38.5 415,-57.5 496,-57.5 496,-38.5 415,-38.5"/>
<text text-anchor="middle" x="455.5" y="-45.5" font-family="Helvetica,sans-Serif" font-size="10.00">Tile.halfBrick</text>
</a>
</g>
</g>
<!-- Node6&#45;&gt;Node8 -->
<g id="edge7" class="edge">
<title>Node6&#45;&gt;Node8</title>
<path fill="none" stroke="midnightblue" d="M331.73,-60.54C355.57,-58.11 382.32,-55.37 404.75,-53.08"/>
<polygon fill="midnightblue" stroke="midnightblue" points="405.14,-56.56 414.73,-52.06 404.43,-49.6 405.14,-56.56"/>
</g>
<!-- Node9 -->
<g id="node9" class="node">
<title>Node9</title>
<g id="a_node9"><a xlink:href="../../d6/dba/classTile_abb2a30463eddd9cbdc91f329d2aa4bf8.html#abb2a30463eddd9cbdc91f329d2aa4bf8" target="_top" xlink:title=" ">
<polygon fill="white" stroke="black" points="417,-0.5 417,-19.5 494,-19.5 494,-0.5 417,-0.5"/>
<text text-anchor="middle" x="455.5" y="-7.5" font-family="Helvetica,sans-Serif" font-size="10.00">Tile.inActive</text>
</a>
</g>
</g>
<!-- Node6&#45;&gt;Node9 -->
<g id="edge8" class="edge">
<title>Node6&#45;&gt;Node9</title>
<path fill="none" stroke="midnightblue" d="M291.82,-57.36C312.4,-49.08 343.35,-37.23 371,-29 382.46,-25.59 394.96,-22.44 406.72,-19.74"/>
<polygon fill="midnightblue" stroke="midnightblue" points="407.83,-23.08 416.82,-17.47 406.29,-16.25 407.83,-23.08"/>
</g>
</g>
</svg>
        <g id="navigator" transform="translate(0 0)" fill="#404254">
                <rect fill="#f2f5e9" fill-opacity="0.5" stroke="#606060" stroke-width=".5" x="0" y="0" width="60" height="60"/>
                <use id="zoomplus" xlink:href="#zoomPlus" x="17" y="9" onmousedown="handleZoom(evt,'in')"/>
                <use id="zoomminus" xlink:href="#zoomMin" x="42" y="9" onmousedown="handleZoom(evt,'out')"/>
                <use id="reset" xlink:href="#resetDef" x="30" y="36" onmousedown="handleReset()"/>
                <g id="arrowUp" xlink:href="#dirArrow" transform="translate(30 24)" onmousedown="handlePan(0,-1)">
                  <use xlink:href="#rim" fill="#404040">
                        <set attributeName="fill" to="#808080" begin="arrowUp.mouseover" end="arrowUp.mouseout"/>
                  </use>
                  <path fill="none" stroke="white" stroke-width="1.5" d="M0,-3.0v7 M-2.5,-0.5L0,-3.0L2.5,-0.5"/>
                </g>
                <g id="arrowRight" xlink:href="#dirArrow" transform="rotate(90) translate(36 -43)" onmousedown="handlePan(1,0)">
                  <use xlink:href="#rim" fill="#404040">
                        <set attributeName="fill" to="#808080" begin="arrowRight.mouseover" end="arrowRight.mouseout"/>
                  </use>
                  <path fill="none" stroke="white" stroke-width="1.5" d="M0,-3.0v7 M-2.5,-0.5L0,-3.0L2.5,-0.5"/>
                </g>
                <g id="arrowDown" xlink:href="#dirArrow" transform="rotate(180) translate(-30 -48)" onmousedown="handlePan(0,1)">
                  <use xlink:href="#rim" fill="#404040">
                        <set attributeName="fill" to="#808080" begin="arrowDown.mouseover" end="arrowDown.mouseout"/>
                  </use>
                  <path fill="none" stroke="white" stroke-width="1.5" d="M0,-3.0v7 M-2.5,-0.5L0,-3.0L2.5,-0.5"/>
                </g>
                <g id="arrowLeft" xlink:href="#dirArrow" transform="rotate(270) translate(-36 17)" onmousedown="handlePan(-1,0)">
                  <use xlink:href="#rim" fill="#404040">
                        <set attributeName="fill" to="#808080" begin="arrowLeft.mouseover" end="arrowLeft.mouseout"/>
                  </use>
                  <path fill="none" stroke="white" stroke-width="1.5" d="M0,-3.0v7 M-2.5,-0.5L0,-3.0L2.5,-0.5"/>
                </g>
        </g>
        <svg viewBox="0 0 15 15" width="100%" height="30px" preserveAspectRatio="xMaxYMin meet">
         <g id="arrow_out" transform="scale(0.3 0.3)">
          <a xlink:href="classProjectile_a3ee105d0eac9b6e19d256bc1f1062de7_a3ee105d0eac9b6e19d256bc1f1062de7_cgraph_org.svg" target="_base">
           <rect id="button" ry="5" rx="5" y="6" x="6" height="38" width="38"
                fill="#f2f5e9" fill-opacity="0.5" stroke="#606060" stroke-width="1.0"/>
           <path id="arrow"
             d="M 11.500037,31.436501 C 11.940474,20.09759 22.043105,11.32322 32.158766,21.979434 L 37.068811,17.246167 C 37.068811,17.246167 37.088388,32 37.088388,32 L 22.160133,31.978069 C 22.160133,31.978069 26.997745,27.140456 26.997745,27.140456 C 18.528582,18.264221 13.291696,25.230495 11.500037,31.436501 z"
             style="fill:#404040;"/>
          </a>
         </g>
        </svg>
</svg>
