<?xml version="1.0" encoding="UTF-8" standalone="no"?>
<!DOCTYPE svg PUBLIC "-//W3C//DTD SVG 1.1//EN"
 "http://www.w3.org/Graphics/SVG/1.1/DTD/svg11.dtd">
<!-- Generated by graphviz version 2.43.0 (0)
 -->
<!-- Title: ContentSamples.CreativeHelper.ItemGroupAndOrderInGroup Pages: 1 -->
<svg width="184pt" height="204pt"
 viewBox="0.00 0.00 184.00 204.00" xmlns="http://www.w3.org/2000/svg" xmlns:xlink="http://www.w3.org/1999/xlink">
<g id="graph0" class="graph" transform="scale(1 1) rotate(0) translate(4 200)">
<title>ContentSamples.CreativeHelper.ItemGroupAndOrderInGroup</title>
<polygon fill="white" stroke="transparent" points="-4,4 -4,-200 180,-200 180,4 -4,4"/>
<!-- Node1 -->
<g id="node1" class="node">
<title>Node1</title>
<g id="a_node1"><a xlink:title=" ">
<polygon fill="#bfbfbf" stroke="black" points="0,-0.5 0,-79.5 176,-79.5 176,-0.5 0,-0.5"/>
<text text-anchor="start" x="8" y="-67.5" font-family="Helvetica,sans-Serif" font-size="10.00">ContentSamples.CreativeHelper.</text>
<text text-anchor="middle" x="88" y="-56.5" font-family="Helvetica,sans-Serif" font-size="10.00">ItemGroupAndOrderInGroup</text>
<polyline fill="none" stroke="black" points="0,-49.5 176,-49.5 "/>
<text text-anchor="middle" x="88" y="-37.5" font-family="Helvetica,sans-Serif" font-size="10.00"> </text>
<polyline fill="none" stroke="black" points="0,-30.5 176,-30.5 "/>
<text text-anchor="start" x="8" y="-18.5" font-family="Helvetica,sans-Serif" font-size="10.00">+ ItemGroupAndOrderInGroup</text>
<text text-anchor="start" x="8" y="-7.5" font-family="Helvetica,sans-Serif" font-size="10.00">(Item item)</text>
</a>
</g>
</g>
<!-- Node2 -->
<g id="node2" class="node">
<title>Node2</title>
<g id="a_node2"><a xlink:title=" ">
<polygon fill="white" stroke="#bfbfbf" points="25.5,-138.5 25.5,-195.5 54.5,-195.5 54.5,-138.5 25.5,-138.5"/>
<text text-anchor="middle" x="40" y="-183.5" font-family="Helvetica,sans-Serif" font-size="10.00">int</text>
<polyline fill="none" stroke="#bfbfbf" points="25.5,-176.5 54.5,-176.5 "/>
<text text-anchor="middle" x="40" y="-164.5" font-family="Helvetica,sans-Serif" font-size="10.00"> </text>
<polyline fill="none" stroke="#bfbfbf" points="25.5,-157.5 54.5,-157.5 "/>
<text text-anchor="middle" x="40" y="-145.5" font-family="Helvetica,sans-Serif" font-size="10.00"> </text>
</a>
</g>
</g>
<!-- Node2&#45;&gt;Node1 -->
<g id="edge1" class="edge">
<title>Node2&#45;&gt;Node1</title>
<path fill="none" stroke="#404040" d="M36.31,-138.44C35.64,-125.76 36.32,-110.74 41,-98 41.99,-95.31 43.16,-92.65 44.48,-90.04"/>
<polygon fill="none" stroke="#404040" points="44.53,-89.98 44.14,-82.78 50.63,-79.65 51.02,-86.85 44.53,-89.98"/>
<text text-anchor="middle" x="78" y="-112" font-family="Helvetica,sans-Serif" font-size="10.00"> +ItemType</text>
<text text-anchor="middle" x="78" y="-101" font-family="Helvetica,sans-Serif" font-size="10.00">+OrderInGroup</text>
</g>
<!-- Node3 -->
<g id="node3" class="node">
<title>Node3</title>
<g id="a_node3"><a xlink:title=" ">
<polygon fill="white" stroke="#bfbfbf" points="103,-138.5 103,-195.5 171,-195.5 171,-138.5 103,-138.5"/>
<text text-anchor="middle" x="137" y="-183.5" font-family="Helvetica,sans-Serif" font-size="10.00">ItemGroup</text>
<polyline fill="none" stroke="#bfbfbf" points="103,-176.5 171,-176.5 "/>
<text text-anchor="middle" x="137" y="-164.5" font-family="Helvetica,sans-Serif" font-size="10.00"> </text>
<polyline fill="none" stroke="#bfbfbf" points="103,-157.5 171,-157.5 "/>
<text text-anchor="middle" x="137" y="-145.5" font-family="Helvetica,sans-Serif" font-size="10.00"> </text>
</a>
</g>
</g>
<!-- Node3&#45;&gt;Node1 -->
<g id="edge2" class="edge">
<title>Node3&#45;&gt;Node1</title>
<path fill="none" stroke="#404040" d="M128.91,-138.25C125.06,-125.81 120.17,-111.03 115,-98 114.07,-95.65 113.09,-93.27 112.07,-90.87"/>
<polygon fill="none" stroke="#404040" points="111.96,-90.63 105.88,-86.75 107.13,-79.64 113.21,-83.52 111.96,-90.63"/>
<text text-anchor="middle" x="142.5" y="-106.5" font-family="Helvetica,sans-Serif" font-size="10.00"> +Group</text>
</g>
</g>
</svg>
