<?xml version="1.0" encoding="UTF-8" standalone="no"?>
<!DOCTYPE svg PUBLIC "-//W3C//DTD SVG 1.1//EN"
 "http://www.w3.org/Graphics/SVG/1.1/DTD/svg11.dtd">
<!-- Generated by graphviz version 2.43.0 (0)
 -->
<!-- Title: EntitySource_OldOnesArmy Pages: 1 -->
<svg width="159pt" height="160pt"
 viewBox="0.00 0.00 159.00 160.00" xmlns="http://www.w3.org/2000/svg" xmlns:xlink="http://www.w3.org/1999/xlink">
<g id="graph0" class="graph" transform="scale(1 1) rotate(0) translate(4 156)">
<title>EntitySource_OldOnesArmy</title>
<polygon fill="white" stroke="transparent" points="-4,4 -4,-156 155,-156 155,4 -4,4"/>
<!-- Node1 -->
<g id="node1" class="node">
<title>Node1</title>
<g id="a_node1"><a xlink:title=" ">
<polygon fill="#bfbfbf" stroke="black" points="0,-0.5 0,-57.5 151,-57.5 151,-0.5 0,-0.5"/>
<text text-anchor="middle" x="75.5" y="-45.5" font-family="Helvetica,sans-Serif" font-size="10.00">EntitySource_OldOnesArmy</text>
<polyline fill="none" stroke="black" points="0,-38.5 151,-38.5 "/>
<text text-anchor="middle" x="75.5" y="-26.5" font-family="Helvetica,sans-Serif" font-size="10.00"> </text>
<polyline fill="none" stroke="black" points="0,-19.5 151,-19.5 "/>
<text text-anchor="middle" x="75.5" y="-7.5" font-family="Helvetica,sans-Serif" font-size="10.00"> </text>
</a>
</g>
</g>
<!-- Node2 -->
<g id="node2" class="node">
<title>Node2</title>
<g id="a_node2"><a xlink:href="../../d1/dd9/interfaceIEntitySource.html" target="_top" xlink:title=" ">
<polygon fill="white" stroke="black" points="35,-94.5 35,-151.5 116,-151.5 116,-94.5 35,-94.5"/>
<text text-anchor="middle" x="75.5" y="-139.5" font-family="Helvetica,sans-Serif" font-size="10.00">IEntitySource</text>
<polyline fill="none" stroke="black" points="35,-132.5 116,-132.5 "/>
<text text-anchor="middle" x="75.5" y="-120.5" font-family="Helvetica,sans-Serif" font-size="10.00"> </text>
<polyline fill="none" stroke="black" points="35,-113.5 116,-113.5 "/>
<text text-anchor="middle" x="75.5" y="-101.5" font-family="Helvetica,sans-Serif" font-size="10.00"> </text>
</a>
</g>
</g>
<!-- Node2&#45;&gt;Node1 -->
<g id="edge1" class="edge">
<title>Node2&#45;&gt;Node1</title>
<path fill="none" stroke="midnightblue" d="M75.5,-84.21C75.5,-75.29 75.5,-65.95 75.5,-57.58"/>
<polygon fill="none" stroke="midnightblue" points="72,-84.4 75.5,-94.4 79,-84.4 72,-84.4"/>
</g>
</g>
</svg>
