<?xml version="1.0" encoding="UTF-8" standalone="no"?>
<!DOCTYPE svg PUBLIC "-//W3C//DTD SVG 1.1//EN"
 "http://www.w3.org/Graphics/SVG/1.1/DTD/svg11.dtd">
<!-- Generated by graphviz version 2.43.0 (0)
 -->
<!-- Title: Sandstorm.ChangeSeverityIntentions Pages: 1 -->
<svg width="1642pt" height="104pt"
 viewBox="0.00 0.00 1642.00 104.00" xmlns="http://www.w3.org/2000/svg" xmlns:xlink="http://www.w3.org/1999/xlink">
<g id="graph0" class="graph" transform="scale(1 1) rotate(0) translate(4 100)">
<title>Sandstorm.ChangeSeverityIntentions</title>
<polygon fill="white" stroke="transparent" points="-4,4 -4,-100 1638,-100 1638,4 -4,4"/>
<!-- Node1 -->
<g id="node1" class="node">
<title>Node1</title>
<g id="a_node1"><a xlink:title=" ">
<polygon fill="#bfbfbf" stroke="black" points="1485,-33 1485,-63 1634,-63 1634,-33 1485,-33"/>
<text text-anchor="start" x="1493" y="-51" font-family="Helvetica,sans-Serif" font-size="10.00">Sandstorm.ChangeSeverity</text>
<text text-anchor="middle" x="1559.5" y="-40" font-family="Helvetica,sans-Serif" font-size="10.00">Intentions</text>
</a>
</g>
</g>
<!-- Node2 -->
<g id="node2" class="node">
<title>Node2</title>
<g id="a_node2"><a xlink:href="../../df/d16/classSandstorm_a1ecac80afb8244aa560cef293b08a901.html#a1ecac80afb8244aa560cef293b08a901" target="_top" xlink:title=" ">
<polygon fill="white" stroke="black" points="1301,-76.5 1301,-95.5 1449,-95.5 1449,-76.5 1301,-76.5"/>
<text text-anchor="middle" x="1375" y="-83.5" font-family="Helvetica,sans-Serif" font-size="10.00">Sandstorm.StartSandstorm</text>
</a>
</g>
</g>
<!-- Node1&#45;&gt;Node2 -->
<g id="edge1" class="edge">
<title>Node1&#45;&gt;Node2</title>
<path fill="none" stroke="midnightblue" d="M1476.57,-65.06C1457.7,-68.99 1438.3,-73.03 1421.63,-76.5"/>
<polygon fill="midnightblue" stroke="midnightblue" points="1477.29,-68.48 1486.37,-63.02 1475.87,-61.63 1477.29,-68.48"/>
</g>
<!-- Node3 -->
<g id="node3" class="node">
<title>Node3</title>
<g id="a_node3"><a xlink:href="../../df/d16/classSandstorm_a340bb309bb4d6c1369eb760690a15f67.html#a340bb309bb4d6c1369eb760690a15f67" target="_top" xlink:title=" ">
<polygon fill="white" stroke="black" points="1133,-38.5 1133,-57.5 1265,-57.5 1265,-38.5 1133,-38.5"/>
<text text-anchor="middle" x="1199" y="-45.5" font-family="Helvetica,sans-Serif" font-size="10.00">Sandstorm.UpdateTime</text>
</a>
</g>
</g>
<!-- Node1&#45;&gt;Node3 -->
<g id="edge15" class="edge">
<title>Node1&#45;&gt;Node3</title>
<path fill="none" stroke="midnightblue" d="M1474.59,-48C1410.61,-48 1323.78,-48 1265.02,-48"/>
<polygon fill="midnightblue" stroke="midnightblue" points="1474.65,-51.5 1484.65,-48 1474.65,-44.5 1474.65,-51.5"/>
</g>
<!-- Node13 -->
<g id="node13" class="node">
<title>Node13</title>
<g id="a_node13"><a xlink:href="../../df/d16/classSandstorm_a53f7d43afa6b4f30f687d98080754f97.html#a53f7d43afa6b4f30f687d98080754f97" target="_top" xlink:title=" ">
<polygon fill="white" stroke="black" points="1302,-0.5 1302,-19.5 1448,-19.5 1448,-0.5 1302,-0.5"/>
<text text-anchor="middle" x="1375" y="-7.5" font-family="Helvetica,sans-Serif" font-size="10.00">Sandstorm.StopSandstorm</text>
</a>
</g>
</g>
<!-- Node1&#45;&gt;Node13 -->
<g id="edge13" class="edge">
<title>Node1&#45;&gt;Node13</title>
<path fill="none" stroke="midnightblue" d="M1476.57,-30.94C1457.7,-27.01 1438.3,-22.97 1421.63,-19.5"/>
<polygon fill="midnightblue" stroke="midnightblue" points="1475.87,-34.37 1486.37,-32.98 1477.29,-27.52 1475.87,-34.37"/>
</g>
<!-- Node2&#45;&gt;Node3 -->
<g id="edge2" class="edge">
<title>Node2&#45;&gt;Node3</title>
<path fill="none" stroke="midnightblue" d="M1320.19,-74.25C1295.58,-68.87 1266.81,-62.59 1243.59,-57.52"/>
<polygon fill="midnightblue" stroke="midnightblue" points="1319.58,-77.7 1330.09,-76.41 1321.07,-70.86 1319.58,-77.7"/>
</g>
<!-- Node4 -->
<g id="node4" class="node">
<title>Node4</title>
<g id="a_node4"><a xlink:href="../../db/d4a/classMain_a350b915bdc927b09e1447ad5ec8ee212.html#a350b915bdc927b09e1447ad5ec8ee212" target="_top" xlink:title=" ">
<polygon fill="white" stroke="black" points="993,-38.5 993,-57.5 1097,-57.5 1097,-38.5 993,-38.5"/>
<text text-anchor="middle" x="1045" y="-45.5" font-family="Helvetica,sans-Serif" font-size="10.00">Main.UpdateTime</text>
</a>
</g>
</g>
<!-- Node3&#45;&gt;Node4 -->
<g id="edge3" class="edge">
<title>Node3&#45;&gt;Node4</title>
<path fill="none" stroke="midnightblue" d="M1122.55,-48C1113.92,-48 1105.27,-48 1097.06,-48"/>
<polygon fill="midnightblue" stroke="midnightblue" points="1122.66,-51.5 1132.66,-48 1122.66,-44.5 1122.66,-51.5"/>
</g>
<!-- Node5 -->
<g id="node5" class="node">
<title>Node5</title>
<g id="a_node5"><a xlink:href="../../db/d4a/classMain_a9c63b91be69d3b0b29cab6aaf41b520f.html#a9c63b91be69d3b0b29cab6aaf41b520f" target="_top" xlink:title=" ">
<polygon fill="white" stroke="black" points="828,-57.5 828,-76.5 957,-76.5 957,-57.5 828,-57.5"/>
<text text-anchor="middle" x="892.5" y="-64.5" font-family="Helvetica,sans-Serif" font-size="10.00">Main.DoUpdateInWorld</text>
</a>
</g>
</g>
<!-- Node4&#45;&gt;Node5 -->
<g id="edge4" class="edge">
<title>Node4&#45;&gt;Node5</title>
<path fill="none" stroke="midnightblue" d="M982.56,-55.76C974.18,-56.81 965.57,-57.9 957.15,-58.96"/>
<polygon fill="midnightblue" stroke="midnightblue" points="983.14,-59.21 992.63,-54.49 982.27,-52.27 983.14,-59.21"/>
</g>
<!-- Node12 -->
<g id="node12" class="node">
<title>Node12</title>
<g id="a_node12"><a xlink:href="../../db/d4a/classMain_a32e9e75c0a29f772eee285fa36936d7b.html#a32e9e75c0a29f772eee285fa36936d7b" target="_top" xlink:title=" ">
<polygon fill="white" stroke="black" points="839.5,-19.5 839.5,-38.5 945.5,-38.5 945.5,-19.5 839.5,-19.5"/>
<text text-anchor="middle" x="892.5" y="-26.5" font-family="Helvetica,sans-Serif" font-size="10.00">Main.UpdateMenu</text>
</a>
</g>
</g>
<!-- Node4&#45;&gt;Node12 -->
<g id="edge11" class="edge">
<title>Node4&#45;&gt;Node12</title>
<path fill="none" stroke="midnightblue" d="M982.5,-40.24C970.27,-38.69 957.54,-37.09 945.66,-35.59"/>
<polygon fill="midnightblue" stroke="midnightblue" points="982.27,-43.73 992.63,-41.51 983.14,-36.79 982.27,-43.73"/>
</g>
<!-- Node6 -->
<g id="node6" class="node">
<title>Node6</title>
<g id="a_node6"><a xlink:href="../../db/d4a/classMain_a04b0697fe556a643c9811ab59495dacd.html#a04b0697fe556a643c9811ab59495dacd" target="_top" xlink:title=" ">
<polygon fill="white" stroke="black" points="700,-38.5 700,-57.5 792,-57.5 792,-38.5 700,-38.5"/>
<text text-anchor="middle" x="746" y="-45.5" font-family="Helvetica,sans-Serif" font-size="10.00">Main.DoUpdate</text>
</a>
</g>
</g>
<!-- Node5&#45;&gt;Node6 -->
<g id="edge5" class="edge">
<title>Node5&#45;&gt;Node6</title>
<path fill="none" stroke="midnightblue" d="M817.58,-57.28C808.94,-56.14 800.33,-55.01 792.26,-53.95"/>
<polygon fill="midnightblue" stroke="midnightblue" points="817.33,-60.78 827.7,-58.61 818.24,-53.84 817.33,-60.78"/>
</g>
<!-- Node7 -->
<g id="node7" class="node">
<title>Node7</title>
<g id="a_node7"><a xlink:href="../../db/d4a/classMain_ae1995a6cd30001bd0b4eb2ade469d462.html#ae1995a6cd30001bd0b4eb2ade469d462" target="_top" xlink:title=" ">
<polygon fill="white" stroke="black" points="585,-38.5 585,-57.5 664,-57.5 664,-38.5 585,-38.5"/>
<text text-anchor="middle" x="624.5" y="-45.5" font-family="Helvetica,sans-Serif" font-size="10.00">Main.Update</text>
</a>
</g>
</g>
<!-- Node6&#45;&gt;Node7 -->
<g id="edge6" class="edge">
<title>Node6&#45;&gt;Node7</title>
<path fill="none" stroke="midnightblue" d="M689.75,-48C681.08,-48 672.29,-48 664.1,-48"/>
<polygon fill="midnightblue" stroke="midnightblue" points="689.82,-51.5 699.82,-48 689.82,-44.5 689.82,-51.5"/>
</g>
<!-- Node8 -->
<g id="node8" class="node">
<title>Node8</title>
<g id="a_node8"><a xlink:href="../../db/d4a/classMain_aa0692b82ef0f39d28df7aae89daa2480.html#aa0692b82ef0f39d28df7aae89daa2480" target="_top" xlink:title=" ">
<polygon fill="white" stroke="black" points="464,-38.5 464,-57.5 549,-57.5 549,-38.5 464,-38.5"/>
<text text-anchor="middle" x="506.5" y="-45.5" font-family="Helvetica,sans-Serif" font-size="10.00">Main.DedServ</text>
</a>
</g>
</g>
<!-- Node7&#45;&gt;Node8 -->
<g id="edge7" class="edge">
<title>Node7&#45;&gt;Node8</title>
<path fill="none" stroke="midnightblue" d="M574.69,-48C566.2,-48 557.43,-48 549.15,-48"/>
<polygon fill="midnightblue" stroke="midnightblue" points="574.87,-51.5 584.87,-48 574.87,-44.5 574.87,-51.5"/>
</g>
<!-- Node9 -->
<g id="node9" class="node">
<title>Node9</title>
<g id="a_node9"><a xlink:href="../../dc/db5/classProgram_a7046fff16d913c8ea7291c3efa4cb4ed.html#a7046fff16d913c8ea7291c3efa4cb4ed" target="_top" xlink:title=" ">
<polygon fill="white" stroke="black" points="319,-38.5 319,-57.5 428,-57.5 428,-38.5 319,-38.5"/>
<text text-anchor="middle" x="373.5" y="-45.5" font-family="Helvetica,sans-Serif" font-size="10.00">Program.RunGame</text>
</a>
</g>
</g>
<!-- Node8&#45;&gt;Node9 -->
<g id="edge8" class="edge">
<title>Node8&#45;&gt;Node9</title>
<path fill="none" stroke="midnightblue" d="M453.44,-48C445.2,-48 436.65,-48 428.37,-48"/>
<polygon fill="midnightblue" stroke="midnightblue" points="453.69,-51.5 463.69,-48 453.69,-44.5 453.69,-51.5"/>
</g>
<!-- Node10 -->
<g id="node10" class="node">
<title>Node10</title>
<g id="a_node10"><a xlink:href="../../dc/db5/classProgram_ac64eaca42975d2a403f25794697886fc.html#ac64eaca42975d2a403f25794697886fc" target="_top" xlink:title=" ">
<polygon fill="white" stroke="black" points="158,-38.5 158,-57.5 283,-57.5 283,-38.5 158,-38.5"/>
<text text-anchor="middle" x="220.5" y="-45.5" font-family="Helvetica,sans-Serif" font-size="10.00">Program.LaunchGame</text>
</a>
</g>
</g>
<!-- Node9&#45;&gt;Node10 -->
<g id="edge9" class="edge">
<title>Node9&#45;&gt;Node10</title>
<path fill="none" stroke="midnightblue" d="M308.68,-48C300.25,-48 291.62,-48 283.23,-48"/>
<polygon fill="midnightblue" stroke="midnightblue" points="308.84,-51.5 318.84,-48 308.84,-44.5 308.84,-51.5"/>
</g>
<!-- Node11 -->
<g id="node11" class="node">
<title>Node11</title>
<g id="a_node11"><a xlink:href="../../df/d9e/classWindowsLaunch_a48fb8633919b7d48cc10a62bd116902a.html#a48fb8633919b7d48cc10a62bd116902a" target="_top" xlink:title=" ">
<polygon fill="white" stroke="black" points="0,-38.5 0,-57.5 122,-57.5 122,-38.5 0,-38.5"/>
<text text-anchor="middle" x="61" y="-45.5" font-family="Helvetica,sans-Serif" font-size="10.00">WindowsLaunch.Main</text>
</a>
</g>
</g>
<!-- Node10&#45;&gt;Node11 -->
<g id="edge10" class="edge">
<title>Node10&#45;&gt;Node11</title>
<path fill="none" stroke="midnightblue" d="M147.43,-48C138.95,-48 130.36,-48 122.07,-48"/>
<polygon fill="midnightblue" stroke="midnightblue" points="147.7,-51.5 157.7,-48 147.7,-44.5 147.7,-51.5"/>
</g>
<!-- Node12&#45;&gt;Node6 -->
<g id="edge12" class="edge">
<title>Node12&#45;&gt;Node6</title>
<path fill="none" stroke="midnightblue" d="M829.1,-37.21C816.76,-38.83 804.04,-40.5 792.4,-42.03"/>
<polygon fill="midnightblue" stroke="midnightblue" points="829.87,-40.63 839.33,-35.86 828.96,-33.69 829.87,-40.63"/>
</g>
<!-- Node13&#45;&gt;Node3 -->
<g id="edge14" class="edge">
<title>Node13&#45;&gt;Node3</title>
<path fill="none" stroke="midnightblue" d="M1320.19,-21.75C1295.58,-27.13 1266.81,-33.41 1243.59,-38.48"/>
<polygon fill="midnightblue" stroke="midnightblue" points="1321.07,-25.14 1330.09,-19.59 1319.58,-18.3 1321.07,-25.14"/>
</g>
</g>
</svg>
