<?xml version="1.0" encoding="UTF-8" standalone="no"?>
<!DOCTYPE svg PUBLIC "-//W3C//DTD SVG 1.1//EN"
 "http://www.w3.org/Graphics/SVG/1.1/DTD/svg11.dtd">
<!-- Generated by graphviz version 2.43.0 (0)
 -->
<!-- Title: Terraria.Initializers.ChromaInitializer.Load Pages: 1 -->
<svg width="320pt" height="51pt"
 viewBox="0.00 0.00 320.00 50.50" xmlns="http://www.w3.org/2000/svg" xmlns:xlink="http://www.w3.org/1999/xlink">
<g id="graph0" class="graph" transform="scale(1 1) rotate(0) translate(4 46.5)">
<title>Terraria.Initializers.ChromaInitializer.Load</title>
<!-- Node1 -->
<g id="Node000001" class="node">
<title>Node1</title>
<g id="a_Node000001"><a xlink:title=" ">
<polygon fill="#999999" stroke="#666666" points="149,-30 0,-30 0,0 149,0 149,-30"/>
<text text-anchor="start" x="8" y="-18" font-family="Helvetica,sans-Serif" font-size="10.00">Terraria.Initializers.Chroma</text>
<text text-anchor="middle" x="74.5" y="-7" font-family="Helvetica,sans-Serif" font-size="10.00">Initializer.Load</text>
</a>
</g>
</g>
<!-- Node2 -->
<g id="Node000002" class="node">
<title>Node2</title>
<g id="a_Node000002"><a xlink:href="../../da/dd5/classTerraria_1_1Main_adef1b0a0b4b9395367fcf88ce24d8c3d.html#adef1b0a0b4b9395367fcf88ce24d8c3d" target="_top" xlink:title=" ">
<polygon fill="white" stroke="#666666" points="312,-24.5 185,-24.5 185,-5.5 312,-5.5 312,-24.5"/>
<text text-anchor="middle" x="248.5" y="-12.5" font-family="Helvetica,sans-Serif" font-size="10.00">Terraria.Main.hslToRgb</text>
</a>
</g>
</g>
<!-- Node1&#45;&gt;Node2 -->
<g id="edge1_Node000001_Node000002" class="edge">
<title>Node1&#45;&gt;Node2</title>
<g id="a_edge1_Node000001_Node000002"><a xlink:title=" ">
<path fill="none" stroke="#63b8ff" d="M149.44,-15C157.86,-15 166.43,-15 174.83,-15"/>
<polygon fill="#63b8ff" stroke="#63b8ff" points="174.96,-18.5 184.96,-15 174.96,-11.5 174.96,-18.5"/>
</a>
</g>
</g>
<!-- Node2&#45;&gt;Node2 -->
<g id="edge2_Node000002_Node000002" class="edge">
<title>Node2&#45;&gt;Node2</title>
<g id="a_edge2_Node000002_Node000002"><a xlink:title=" ">
<path fill="none" stroke="#63b8ff" d="M221.68,-24.58C208.63,-33.23 217.57,-42.5 248.5,-42.5 269.28,-42.5 280.13,-38.32 281.06,-32.95"/>
<polygon fill="#63b8ff" stroke="#63b8ff" points="283.86,-30.85 275.32,-24.58 278.09,-34.81 283.86,-30.85"/>
</a>
</g>
</g>
</g>
</svg>
