<?xml version="1.0" encoding="UTF-8" standalone="no"?>
<!DOCTYPE svg PUBLIC "-//W3C//DTD SVG 1.1//EN"
 "http://www.w3.org/Graphics/SVG/1.1/DTD/svg11.dtd">
<!-- Generated by graphviz version 2.43.0 (0)
 -->
<!-- Title: Terraria.DataStructures.SelectionHolder.Wrapped_Configuration_OnLoad Pages: 1 -->
<svg width="578pt" height="108pt"
 viewBox="0.00 0.00 578.00 108.00" xmlns="http://www.w3.org/2000/svg" xmlns:xlink="http://www.w3.org/1999/xlink">
<g id="graph0" class="graph" transform="scale(1 1) rotate(0) translate(4 104)">
<title>Terraria.DataStructures.SelectionHolder.Wrapped_Configuration_OnLoad</title>
<!-- Node1 -->
<g id="Node000001" class="node">
<title>Node1</title>
<g id="a_Node000001"><a xlink:title=" ">
<polygon fill="#999999" stroke="#666666" points="140,-70 0,-70 0,-29 140,-29 140,-70"/>
<text text-anchor="start" x="8" y="-58" font-family="Helvetica,sans-Serif" font-size="10.00">Terraria.DataStructures.</text>
<text text-anchor="start" x="8" y="-47" font-family="Helvetica,sans-Serif" font-size="10.00">SelectionHolder.Wrapped</text>
<text text-anchor="middle" x="70" y="-36" font-family="Helvetica,sans-Serif" font-size="10.00">_Configuration_OnLoad</text>
</a>
</g>
</g>
<!-- Node2 -->
<g id="Node000002" class="node">
<title>Node2</title>
<g id="a_Node000002"><a xlink:href="../../da/d5b/classTerraria_1_1DataStructures_1_1SelectionHolder_a89b7f0c14aaa9348ea0a4051d76b50f2.html#a89b7f0c14aaa9348ea0a4051d76b50f2" target="_top" xlink:title=" ">
<polygon fill="white" stroke="#666666" points="349,-100 188,-100 188,-59 349,-59 349,-100"/>
<text text-anchor="start" x="196" y="-88" font-family="Helvetica,sans-Serif" font-size="10.00">Terraria.DataStructures.</text>
<text text-anchor="start" x="196" y="-77" font-family="Helvetica,sans-Serif" font-size="10.00">SelectionHolder.Configuration</text>
<text text-anchor="middle" x="268.5" y="-66" font-family="Helvetica,sans-Serif" font-size="10.00">_OnLoad</text>
</a>
</g>
</g>
<!-- Node1&#45;&gt;Node2 -->
<g id="edge1_Node000001_Node000002" class="edge">
<title>Node1&#45;&gt;Node2</title>
<g id="a_edge1_Node000001_Node000002"><a xlink:title=" ">
<path fill="none" stroke="#63b8ff" d="M140,-60.03C152.22,-61.9 165.1,-63.87 177.79,-65.8"/>
<polygon fill="#63b8ff" stroke="#63b8ff" points="177.49,-69.3 187.91,-67.35 178.55,-62.38 177.49,-69.3"/>
</a>
</g>
</g>
<!-- Node3 -->
<g id="Node000003" class="node">
<title>Node3</title>
<g id="a_Node000003"><a xlink:href="../../da/d5b/classTerraria_1_1DataStructures_1_1SelectionHolder_a873768bf196ea714881b8a213bbb9bf4.html#a873768bf196ea714881b8a213bbb9bf4" target="_top" xlink:title=" ">
<polygon fill="white" stroke="#666666" points="361,-41 176,-41 176,0 361,0 361,-41"/>
<text text-anchor="start" x="184" y="-29" font-family="Helvetica,sans-Serif" font-size="10.00">Terraria.DataStructures.</text>
<text text-anchor="start" x="184" y="-18" font-family="Helvetica,sans-Serif" font-size="10.00">SelectionHolder.SetActiveMinimap</text>
<text text-anchor="middle" x="268.5" y="-7" font-family="Helvetica,sans-Serif" font-size="10.00">FromLoadedConfigKey</text>
</a>
</g>
</g>
<!-- Node1&#45;&gt;Node3 -->
<g id="edge2_Node000001_Node000003" class="edge">
<title>Node1&#45;&gt;Node3</title>
<g id="a_edge2_Node000001_Node000003"><a xlink:title=" ">
<path fill="none" stroke="#63b8ff" d="M140,-39.32C148.44,-38.07 157.19,-36.78 165.98,-35.48"/>
<polygon fill="#63b8ff" stroke="#63b8ff" points="166.52,-38.94 175.9,-34.02 165.5,-32.02 166.52,-38.94"/>
</a>
</g>
</g>
<!-- Node4 -->
<g id="Node000004" class="node">
<title>Node4</title>
<g id="a_Node000004"><a xlink:href="../../da/d5b/classTerraria_1_1DataStructures_1_1SelectionHolder_a5995ae77cd0c9dfaf2e58c8406f71f98.html#a5995ae77cd0c9dfaf2e58c8406f71f98" target="_top" xlink:title=" ">
<polygon fill="white" stroke="#666666" points="570,-35.5 397,-35.5 397,-5.5 570,-5.5 570,-35.5"/>
<text text-anchor="start" x="405" y="-23.5" font-family="Helvetica,sans-Serif" font-size="10.00">Terraria.DataStructures.</text>
<text text-anchor="middle" x="483.5" y="-12.5" font-family="Helvetica,sans-Serif" font-size="10.00">SelectionHolder.SetActiveFrame</text>
</a>
</g>
</g>
<!-- Node3&#45;&gt;Node4 -->
<g id="edge3_Node000003_Node000004" class="edge">
<title>Node3&#45;&gt;Node4</title>
<g id="a_edge3_Node000003_Node000004"><a xlink:title=" ">
<path fill="none" stroke="#63b8ff" d="M361.07,-20.5C369.48,-20.5 378.03,-20.5 386.48,-20.5"/>
<polygon fill="#63b8ff" stroke="#63b8ff" points="386.74,-24 396.74,-20.5 386.74,-17 386.74,-24"/>
</a>
</g>
</g>
<!-- Node4&#45;&gt;Node4 -->
<g id="edge4_Node000004_Node000004" class="edge">
<title>Node4&#45;&gt;Node4</title>
<g id="a_edge4_Node000004_Node000004"><a xlink:title=" ">
<path fill="none" stroke="#63b8ff" d="M445.88,-35.78C437.52,-44.91 450.06,-53.5 483.5,-53.5 503.35,-53.5 515.84,-50.47 520.96,-46.1"/>
<polygon fill="#63b8ff" stroke="#63b8ff" points="524.46,-45.83 521.12,-35.78 517.46,-45.72 524.46,-45.83"/>
</a>
</g>
</g>
</g>
</svg>
