<?xml version="1.0" encoding="UTF-8" standalone="no"?>
<!DOCTYPE svg PUBLIC "-//W3C//DTD SVG 1.1//EN"
 "http://www.w3.org/Graphics/SVG/1.1/DTD/svg11.dtd">
<!-- Generated by graphviz version 2.43.0 (0)
 -->
<!-- Title: ReLogic.Localization.IME.WinImm32.NativeMethods.ImmGetCompositionString Pages: 1 -->
<svg width="706pt" height="49pt"
 viewBox="0.00 0.00 706.00 49.00" xmlns="http://www.w3.org/2000/svg" xmlns:xlink="http://www.w3.org/1999/xlink">
<g id="graph0" class="graph" transform="scale(1 1) rotate(0) translate(4 45)">
<title>ReLogic.Localization.IME.WinImm32.NativeMethods.ImmGetCompositionString</title>
<!-- Node1 -->
<g id="Node000001" class="node">
<title>Node1</title>
<g id="a_Node000001"><a xlink:title=" ">
<polygon fill="#999999" stroke="#666666" points="698,-41 447,-41 447,0 698,0 698,-41"/>
<text text-anchor="start" x="455" y="-29" font-family="Helvetica,sans-Serif" font-size="10.00">ReLogic.Localization.IME.</text>
<text text-anchor="start" x="455" y="-18" font-family="Helvetica,sans-Serif" font-size="10.00">WinImm32.NativeMethods.ImmGetComposition</text>
<text text-anchor="middle" x="572.5" y="-7" font-family="Helvetica,sans-Serif" font-size="10.00">String</text>
</a>
</g>
</g>
<!-- Node2 -->
<g id="Node000002" class="node">
<title>Node2</title>
<g id="a_Node000002"><a xlink:href="../../d9/de7/classReLogic_1_1Localization_1_1IME_1_1WinImm32Ime_aebf27f17a094344a4d6bd29ab4cfb2dd.html#aebf27f17a094344a4d6bd29ab4cfb2dd" target="_top" xlink:title=" ">
<polygon fill="white" stroke="#666666" points="411,-35.5 212,-35.5 212,-5.5 411,-5.5 411,-35.5"/>
<text text-anchor="start" x="220" y="-23.5" font-family="Helvetica,sans-Serif" font-size="10.00">ReLogic.Localization.IME.</text>
<text text-anchor="middle" x="311.5" y="-12.5" font-family="Helvetica,sans-Serif" font-size="10.00">WinImm32Ime.GetCompositionString</text>
</a>
</g>
</g>
<!-- Node1&#45;&gt;Node2 -->
<g id="edge1_Node000001_Node000002" class="edge">
<title>Node1&#45;&gt;Node2</title>
<g id="a_edge1_Node000001_Node000002"><a xlink:title=" ">
<path fill="none" stroke="#63b8ff" d="M436.76,-20.5C428.1,-20.5 419.47,-20.5 411.02,-20.5"/>
<polygon fill="#63b8ff" stroke="#63b8ff" points="436.93,-24 446.93,-20.5 436.93,-17 436.93,-24"/>
</a>
</g>
</g>
<!-- Node3 -->
<g id="Node000003" class="node">
<title>Node3</title>
<g id="a_Node000003"><a xlink:href="../../d9/de7/classReLogic_1_1Localization_1_1IME_1_1WinImm32Ime_a4feb53f20961c95365aeeeb3d3124ae2.html#a4feb53f20961c95365aeeeb3d3124ae2" target="_top" xlink:title=" ">
<polygon fill="white" stroke="#666666" points="176,-35.5 0,-35.5 0,-5.5 176,-5.5 176,-35.5"/>
<text text-anchor="start" x="8" y="-23.5" font-family="Helvetica,sans-Serif" font-size="10.00">ReLogic.Localization.IME.</text>
<text text-anchor="middle" x="88" y="-12.5" font-family="Helvetica,sans-Serif" font-size="10.00">WinImm32Ime.PreFilterMessage</text>
</a>
</g>
</g>
<!-- Node2&#45;&gt;Node3 -->
<g id="edge2_Node000002_Node000003" class="edge">
<title>Node2&#45;&gt;Node3</title>
<g id="a_edge2_Node000002_Node000003"><a xlink:title=" ">
<path fill="none" stroke="#63b8ff" d="M201.68,-20.5C193.09,-20.5 184.49,-20.5 176.08,-20.5"/>
<polygon fill="#63b8ff" stroke="#63b8ff" points="201.73,-24 211.73,-20.5 201.73,-17 201.73,-24"/>
</a>
</g>
</g>
</g>
</svg>
