<?xml version="1.0" encoding="UTF-8" standalone="no"?>
<!DOCTYPE svg PUBLIC "-//W3C//DTD SVG 1.1//EN"
 "http://www.w3.org/Graphics/SVG/1.1/DTD/svg11.dtd">
<!-- Generated by graphviz version 2.43.0 (0)
 -->
<!-- Title: Terraria.GameContent.Creative.CreativeUnlocksTracker Pages: 1 -->
<svg width="342pt" height="390pt"
 viewBox="0.00 0.00 342.00 390.00" xmlns="http://www.w3.org/2000/svg" xmlns:xlink="http://www.w3.org/1999/xlink">
<g id="graph0" class="graph" transform="scale(1 1) rotate(0) translate(4 386)">
<title>Terraria.GameContent.Creative.CreativeUnlocksTracker</title>
<!-- Node1 -->
<g id="Node000001" class="node">
<title>Node1</title>
<g id="a_Node000001"><a xlink:title=" ">
<polygon fill="#999999" stroke="transparent" points="281,-197 88,-197 88,0 281,0 281,-197"/>
<text text-anchor="start" x="107.5" y="-184.5" font-family="Helvetica,sans-Serif" font-size="10.00">Terraria.GameContent.Creative.</text>
<text text-anchor="start" x="127.5" y="-173.5" font-family="Helvetica,sans-Serif" font-size="10.00">CreativeUnlocksTracker</text>
<text text-anchor="start" x="92.5" y="-158.5" font-family="Helvetica,sans-Serif" font-size="10.00">+</text>
<text text-anchor="start" x="105.5" y="-158.5" font-family="Helvetica,sans-Serif" font-size="10.00">ItemsSacrificedUnlocksTracker</text>
<text text-anchor="start" x="105.5" y="-147.5" font-family="Helvetica,sans-Serif" font-size="10.00"> ItemSacrifices</text>
<text text-anchor="start" x="92.5" y="-132.5" font-family="Helvetica,sans-Serif" font-size="10.00">+</text>
<text text-anchor="start" x="105.5" y="-132.5" font-family="Helvetica,sans-Serif" font-size="10.00">void Save(BinaryWriter</text>
<text text-anchor="start" x="105.5" y="-121.5" font-family="Helvetica,sans-Serif" font-size="10.00"> writer)</text>
<text text-anchor="start" x="92.5" y="-106.5" font-family="Helvetica,sans-Serif" font-size="10.00">+</text>
<text text-anchor="start" x="105.5" y="-106.5" font-family="Helvetica,sans-Serif" font-size="10.00">void Load(BinaryReader</text>
<text text-anchor="start" x="105.5" y="-95.5" font-family="Helvetica,sans-Serif" font-size="10.00"> reader, int gameVersionSave</text>
<text text-anchor="start" x="105.5" y="-84.5" font-family="Helvetica,sans-Serif" font-size="10.00">WasMadeOn)</text>
<text text-anchor="start" x="92.5" y="-69.5" font-family="Helvetica,sans-Serif" font-size="10.00">+</text>
<text text-anchor="start" x="105.5" y="-69.5" font-family="Helvetica,sans-Serif" font-size="10.00">void ValidateWorld</text>
<text text-anchor="start" x="105.5" y="-58.5" font-family="Helvetica,sans-Serif" font-size="10.00">(BinaryReader reader,</text>
<text text-anchor="start" x="105.5" y="-47.5" font-family="Helvetica,sans-Serif" font-size="10.00"> int gameVersionSaveWasMadeOn)</text>
<text text-anchor="start" x="92.5" y="-32.5" font-family="Helvetica,sans-Serif" font-size="10.00">+</text>
<text text-anchor="start" x="105.5" y="-32.5" font-family="Helvetica,sans-Serif" font-size="10.00">void Reset()</text>
<text text-anchor="start" x="92.5" y="-17.5" font-family="Helvetica,sans-Serif" font-size="10.00">+</text>
<text text-anchor="start" x="105.5" y="-17.5" font-family="Helvetica,sans-Serif" font-size="10.00">void OnPlayerJoining</text>
<text text-anchor="start" x="105.5" y="-6.5" font-family="Helvetica,sans-Serif" font-size="10.00">(int playerIndex)</text>
<polygon fill="#666666" stroke="#666666" points="88.5,-168.5 88.5,-168.5 281.5,-168.5 281.5,-168.5 88.5,-168.5"/>
<polygon fill="#666666" stroke="#666666" points="88.5,-142.5 88.5,-142.5 103.5,-142.5 103.5,-142.5 88.5,-142.5"/>
<polygon fill="#666666" stroke="#666666" points="103.5,-142.5 103.5,-142.5 281.5,-142.5 281.5,-142.5 103.5,-142.5"/>
<polygon fill="none" stroke="#666666" points="88,0 88,-197 281,-197 281,0 88,0"/>
</a>
</g>
</g>
<!-- Node2 -->
<g id="Node000002" class="node">
<title>Node2</title>
<g id="a_Node000002"><a xlink:href="../../d7/d20/interfaceTerraria_1_1GameContent_1_1IPersistentPerWorldContent.html" target="_top" xlink:title=" ">
<polygon fill="white" stroke="transparent" points="193,-382 0,-382 0,-233 193,-233 193,-382"/>
<text text-anchor="start" x="30" y="-369.5" font-family="Helvetica,sans-Serif" font-size="10.00">IPersistentPerWorldContent</text>
<text text-anchor="start" x="95" y="-354.5" font-family="Helvetica,sans-Serif" font-size="10.00"> </text>
<text text-anchor="start" x="4.5" y="-339.5" font-family="Helvetica,sans-Serif" font-size="10.00">+</text>
<text text-anchor="start" x="17.5" y="-339.5" font-family="Helvetica,sans-Serif" font-size="10.00">void Save(BinaryWriter</text>
<text text-anchor="start" x="17.5" y="-328.5" font-family="Helvetica,sans-Serif" font-size="10.00"> writer)</text>
<text text-anchor="start" x="4.5" y="-313.5" font-family="Helvetica,sans-Serif" font-size="10.00">+</text>
<text text-anchor="start" x="17.5" y="-313.5" font-family="Helvetica,sans-Serif" font-size="10.00">void Load(BinaryReader</text>
<text text-anchor="start" x="17.5" y="-302.5" font-family="Helvetica,sans-Serif" font-size="10.00"> reader, int gameVersionSave</text>
<text text-anchor="start" x="17.5" y="-291.5" font-family="Helvetica,sans-Serif" font-size="10.00">WasMadeOn)</text>
<text text-anchor="start" x="4.5" y="-276.5" font-family="Helvetica,sans-Serif" font-size="10.00">+</text>
<text text-anchor="start" x="17.5" y="-276.5" font-family="Helvetica,sans-Serif" font-size="10.00">void ValidateWorld</text>
<text text-anchor="start" x="17.5" y="-265.5" font-family="Helvetica,sans-Serif" font-size="10.00">(BinaryReader reader,</text>
<text text-anchor="start" x="17.5" y="-254.5" font-family="Helvetica,sans-Serif" font-size="10.00"> int gameVersionSaveWasMadeOn)</text>
<text text-anchor="start" x="4.5" y="-239.5" font-family="Helvetica,sans-Serif" font-size="10.00">+</text>
<text text-anchor="start" x="17.5" y="-239.5" font-family="Helvetica,sans-Serif" font-size="10.00">void Reset()</text>
<polygon fill="#666666" stroke="#666666" points="0.5,-364.5 0.5,-364.5 193.5,-364.5 193.5,-364.5 0.5,-364.5"/>
<polygon fill="#666666" stroke="#666666" points="0.5,-349.5 0.5,-349.5 193.5,-349.5 193.5,-349.5 0.5,-349.5"/>
<polygon fill="none" stroke="#666666" points="0,-233 0,-382 193,-382 193,-233 0,-233"/>
</a>
</g>
</g>
<!-- Node2&#45;&gt;Node1 -->
<g id="edge1_Node000001_Node000002" class="edge">
<title>Node2&#45;&gt;Node1</title>
<g id="a_edge1_Node000001_Node000002"><a xlink:title=" ">
<path fill="none" stroke="#63b8ff" d="M131.75,-223.57C135.46,-214.86 139.25,-205.94 143.02,-197.08"/>
<polygon fill="none" stroke="#63b8ff" points="128.46,-222.36 127.77,-232.94 134.91,-225.1 128.46,-222.36"/>
</a>
</g>
</g>
<!-- Node3 -->
<g id="Node000003" class="node">
<title>Node3</title>
<g id="a_Node000003"><a xlink:href="../../d5/dea/interfaceTerraria_1_1GameContent_1_1IOnPlayerJoining.html" target="_top" xlink:title=" ">
<polygon fill="white" stroke="transparent" points="334,-337.5 211,-337.5 211,-277.5 334,-277.5 334,-337.5"/>
<text text-anchor="start" x="232.5" y="-325.5" font-family="Helvetica,sans-Serif" font-size="10.00">IOnPlayerJoining</text>
<text text-anchor="start" x="271" y="-310.5" font-family="Helvetica,sans-Serif" font-size="10.00"> </text>
<text text-anchor="start" x="215.5" y="-295.5" font-family="Helvetica,sans-Serif" font-size="10.00">+</text>
<text text-anchor="start" x="228.5" y="-295.5" font-family="Helvetica,sans-Serif" font-size="10.00">void OnPlayerJoining</text>
<text text-anchor="start" x="228.5" y="-284.5" font-family="Helvetica,sans-Serif" font-size="10.00">(int playerIndex)</text>
<polygon fill="#666666" stroke="#666666" points="211.5,-320.5 211.5,-320.5 334.5,-320.5 334.5,-320.5 211.5,-320.5"/>
<polygon fill="#666666" stroke="#666666" points="211.5,-305.5 211.5,-305.5 334.5,-305.5 334.5,-305.5 211.5,-305.5"/>
<polygon fill="none" stroke="#666666" points="211,-277.5 211,-337.5 334,-337.5 334,-277.5 211,-277.5"/>
</a>
</g>
</g>
<!-- Node3&#45;&gt;Node1 -->
<g id="edge2_Node000001_Node000003" class="edge">
<title>Node3&#45;&gt;Node1</title>
<g id="a_edge2_Node000001_Node000003"><a xlink:title=" ">
<path fill="none" stroke="#63b8ff" d="M256.09,-267.91C247.57,-247.87 236.74,-222.38 226.09,-197.34"/>
<polygon fill="none" stroke="#63b8ff" points="252.94,-269.45 260.08,-277.28 259.39,-266.71 252.94,-269.45"/>
</a>
</g>
</g>
</g>
</svg>
