<?xml version="1.0" encoding="UTF-8" standalone="no"?>
<!DOCTYPE svg PUBLIC "-//W3C//DTD SVG 1.1//EN"
 "http://www.w3.org/Graphics/SVG/1.1/DTD/svg11.dtd">
<!-- Generated by graphviz version 2.43.0 (0)
 -->
<!-- Title: UICharacterCreation.ApplyPendingColor Pages: 1 -->
<svg width="1504pt" height="263pt"
 viewBox="0.00 0.00 1504.00 263.00" xmlns="http://www.w3.org/2000/svg" xmlns:xlink="http://www.w3.org/1999/xlink">
<g id="graph0" class="graph" transform="scale(1 1) rotate(0) translate(4 259)">
<title>UICharacterCreation.ApplyPendingColor</title>
<polygon fill="white" stroke="transparent" points="-4,4 -4,-259 1500,-259 1500,4 -4,4"/>
<!-- Node1 -->
<g id="node1" class="node">
<title>Node1</title>
<g id="a_node1"><a xlink:title=" ">
<polygon fill="#bfbfbf" stroke="black" points="1350,-180.5 1350,-210.5 1496,-210.5 1496,-180.5 1350,-180.5"/>
<text text-anchor="start" x="1358" y="-198.5" font-family="Helvetica,sans-Serif" font-size="10.00">UICharacterCreation.Apply</text>
<text text-anchor="middle" x="1423" y="-187.5" font-family="Helvetica,sans-Serif" font-size="10.00">PendingColor</text>
</a>
</g>
</g>
<!-- Node2 -->
<g id="node2" class="node">
<title>Node2</title>
<g id="a_node2"><a xlink:href="../../dd/d99/classUICharacterCreation_a7e62dd94663fdb2f41ca271e50925139.html#a7e62dd94663fdb2f41ca271e50925139" target="_top" xlink:title=" ">
<polygon fill="white" stroke="black" points="787,-224.5 787,-254.5 930,-254.5 930,-224.5 787,-224.5"/>
<text text-anchor="start" x="795" y="-242.5" font-family="Helvetica,sans-Serif" font-size="10.00">UICharacterCreation.Click</text>
<text text-anchor="middle" x="858.5" y="-231.5" font-family="Helvetica,sans-Serif" font-size="10.00">_PasteHex</text>
</a>
</g>
</g>
<!-- Node1&#45;&gt;Node2 -->
<g id="edge1" class="edge">
<title>Node1&#45;&gt;Node2</title>
<path fill="none" stroke="midnightblue" d="M1339.63,-206.72C1330.98,-207.74 1322.32,-208.69 1314,-209.5 1178.43,-222.75 1019.53,-231.75 930.08,-236.22"/>
<polygon fill="midnightblue" stroke="midnightblue" points="1340.23,-210.18 1349.74,-205.51 1339.4,-203.23 1340.23,-210.18"/>
</g>
<!-- Node6 -->
<g id="node6" class="node">
<title>Node6</title>
<g id="a_node6"><a xlink:href="../../dd/d99/classUICharacterCreation_a870cf96b739bcb62452093e16a95ac6c.html#a870cf96b739bcb62452093e16a95ac6c" target="_top" xlink:title=" ">
<polygon fill="white" stroke="black" points="600,-180.5 600,-210.5 743,-210.5 743,-180.5 600,-180.5"/>
<text text-anchor="start" x="608" y="-198.5" font-family="Helvetica,sans-Serif" font-size="10.00">UICharacterCreation.Click</text>
<text text-anchor="middle" x="671.5" y="-187.5" font-family="Helvetica,sans-Serif" font-size="10.00">_RandomizeSingleColor</text>
</a>
</g>
</g>
<!-- Node1&#45;&gt;Node6 -->
<g id="edge5" class="edge">
<title>Node1&#45;&gt;Node6</title>
<path fill="none" stroke="midnightblue" d="M1339.4,-195.5C1191.15,-195.5 882.43,-195.5 743.25,-195.5"/>
<polygon fill="midnightblue" stroke="midnightblue" points="1339.79,-199 1349.79,-195.5 1339.79,-192 1339.79,-199"/>
</g>
<!-- Node7 -->
<g id="node7" class="node">
<title>Node7</title>
<g id="a_node7"><a xlink:href="../../dd/d99/classUICharacterCreation_a924128a974117efff09b272910006bc8.html#a924128a974117efff09b272910006bc8" target="_top" xlink:title=" ">
<polygon fill="white" stroke="black" points="1160,-98.5 1160,-128.5 1314,-128.5 1314,-98.5 1160,-98.5"/>
<text text-anchor="start" x="1168" y="-116.5" font-family="Helvetica,sans-Serif" font-size="10.00">UICharacterCreation.Update</text>
<text text-anchor="middle" x="1237" y="-105.5" font-family="Helvetica,sans-Serif" font-size="10.00">HSLValue</text>
</a>
</g>
</g>
<!-- Node1&#45;&gt;Node7 -->
<g id="edge7" class="edge">
<title>Node1&#45;&gt;Node7</title>
<path fill="none" stroke="midnightblue" d="M1378.94,-176.31C1346.28,-161.75 1302,-142.02 1271.85,-128.58"/>
<polygon fill="midnightblue" stroke="midnightblue" points="1377.69,-179.59 1388.25,-180.46 1380.54,-173.19 1377.69,-179.59"/>
</g>
<!-- Node3 -->
<g id="node3" class="node">
<title>Node3</title>
<g id="a_node3"><a xlink:href="../../dd/d99/classUICharacterCreation_afced28188005e891b94aec6c0380adee.html#afced28188005e891b94aec6c0380adee" target="_top" xlink:title=" ">
<polygon fill="white" stroke="black" points="415,-180.5 415,-210.5 560,-210.5 560,-180.5 415,-180.5"/>
<text text-anchor="start" x="423" y="-198.5" font-family="Helvetica,sans-Serif" font-size="10.00">UICharacterCreation.Make</text>
<text text-anchor="middle" x="487.5" y="-187.5" font-family="Helvetica,sans-Serif" font-size="10.00">HSLMenu</text>
</a>
</g>
</g>
<!-- Node2&#45;&gt;Node3 -->
<g id="edge2" class="edge">
<title>Node2&#45;&gt;Node3</title>
<path fill="none" stroke="midnightblue" d="M776.83,-236.89C724.95,-234.41 656.23,-229.63 596,-220.5 579.52,-218 561.82,-214.31 545.64,-210.53"/>
<polygon fill="midnightblue" stroke="midnightblue" points="776.82,-240.39 786.97,-237.36 777.14,-233.4 776.82,-240.39"/>
</g>
<!-- Node4 -->
<g id="node4" class="node">
<title>Node4</title>
<g id="a_node4"><a xlink:href="../../dd/d99/classUICharacterCreation_a767938d6a9d527fe51e657131fe7840b.html#a767938d6a9d527fe51e657131fe7840b" target="_top" xlink:title=" ">
<polygon fill="white" stroke="black" points="212,-186 212,-205 379,-205 379,-186 212,-186"/>
<text text-anchor="middle" x="295.5" y="-193" font-family="Helvetica,sans-Serif" font-size="10.00">UICharacterCreation.BuildPage</text>
</a>
</g>
</g>
<!-- Node3&#45;&gt;Node4 -->
<g id="edge3" class="edge">
<title>Node3&#45;&gt;Node4</title>
<path fill="none" stroke="midnightblue" d="M404.71,-195.5C396.24,-195.5 387.64,-195.5 379.17,-195.5"/>
<polygon fill="midnightblue" stroke="midnightblue" points="404.94,-199 414.94,-195.5 404.94,-192 404.94,-199"/>
</g>
<!-- Node5 -->
<g id="node5" class="node">
<title>Node5</title>
<g id="a_node5"><a xlink:href="../../dd/d99/classUICharacterCreation_aa75b719ecb854a93b45d8229c55a19a4.html#aa75b719ecb854a93b45d8229c55a19a4" target="_top" xlink:title=" ">
<polygon fill="white" stroke="black" points="0,-180.5 0,-210.5 176,-210.5 176,-180.5 0,-180.5"/>
<text text-anchor="start" x="8" y="-198.5" font-family="Helvetica,sans-Serif" font-size="10.00">UICharacterCreation.UICharacter</text>
<text text-anchor="middle" x="88" y="-187.5" font-family="Helvetica,sans-Serif" font-size="10.00">Creation</text>
</a>
</g>
</g>
<!-- Node4&#45;&gt;Node5 -->
<g id="edge4" class="edge">
<title>Node4&#45;&gt;Node5</title>
<path fill="none" stroke="midnightblue" d="M201.57,-195.5C193.14,-195.5 184.61,-195.5 176.23,-195.5"/>
<polygon fill="midnightblue" stroke="midnightblue" points="201.8,-199 211.8,-195.5 201.8,-192 201.8,-199"/>
</g>
<!-- Node6&#45;&gt;Node3 -->
<g id="edge6" class="edge">
<title>Node6&#45;&gt;Node3</title>
<path fill="none" stroke="midnightblue" d="M589.73,-195.5C579.92,-195.5 569.95,-195.5 560.29,-195.5"/>
<polygon fill="midnightblue" stroke="midnightblue" points="589.87,-199 599.87,-195.5 589.87,-192 589.87,-199"/>
</g>
<!-- Node8 -->
<g id="node8" class="node">
<title>Node8</title>
<g id="a_node8"><a xlink:href="../../dd/d99/classUICharacterCreation_aae04daaf056a06a7f1f1f3ea27f8df26.html#aae04daaf056a06a7f1f1f3ea27f8df26" target="_top" xlink:title=" ">
<polygon fill="white" stroke="black" points="783,-98.5 783,-128.5 934,-128.5 934,-98.5 783,-98.5"/>
<text text-anchor="start" x="791" y="-116.5" font-family="Helvetica,sans-Serif" font-size="10.00">UICharacterCreation.Create</text>
<text text-anchor="middle" x="858.5" y="-105.5" font-family="Helvetica,sans-Serif" font-size="10.00">HSLSliderButtonBase</text>
</a>
</g>
</g>
<!-- Node7&#45;&gt;Node8 -->
<g id="edge8" class="edge">
<title>Node7&#45;&gt;Node8</title>
<path fill="none" stroke="midnightblue" d="M1169.81,-130.79C1154.85,-134 1138.96,-136.85 1124,-138.5 1055.97,-146 1038.02,-146.1 970,-138.5 951.82,-136.47 932.27,-132.61 914.74,-128.53"/>
<polygon fill="midnightblue" stroke="midnightblue" points="1171,-134.11 1180,-128.53 1169.48,-127.28 1171,-134.11"/>
</g>
<!-- Node10 -->
<g id="node10" class="node">
<title>Node10</title>
<g id="a_node10"><a xlink:href="../../dd/d99/classUICharacterCreation_a25a2c2fb4d5b6950f48dd36284ed4589.html#a25a2c2fb4d5b6950f48dd36284ed4589" target="_top" xlink:title=" ">
<polygon fill="white" stroke="black" points="970,-98.5 970,-128.5 1124,-128.5 1124,-98.5 970,-98.5"/>
<text text-anchor="start" x="978" y="-116.5" font-family="Helvetica,sans-Serif" font-size="10.00">UICharacterCreation.Update</text>
<text text-anchor="middle" x="1047" y="-105.5" font-family="Helvetica,sans-Serif" font-size="10.00">HSL_H</text>
</a>
</g>
</g>
<!-- Node7&#45;&gt;Node10 -->
<g id="edge11" class="edge">
<title>Node7&#45;&gt;Node10</title>
<path fill="none" stroke="midnightblue" d="M1149.58,-113.5C1141.14,-113.5 1132.63,-113.5 1124.3,-113.5"/>
<polygon fill="midnightblue" stroke="midnightblue" points="1149.8,-117 1159.8,-113.5 1149.8,-110 1149.8,-117"/>
</g>
<!-- Node11 -->
<g id="node11" class="node">
<title>Node11</title>
<g id="a_node11"><a xlink:href="../../dd/d99/classUICharacterCreation_a23aac079c47c2df345a25815abb898f4.html#a23aac079c47c2df345a25815abb898f4" target="_top" xlink:title=" ">
<polygon fill="white" stroke="black" points="970,-49.5 970,-79.5 1124,-79.5 1124,-49.5 970,-49.5"/>
<text text-anchor="start" x="978" y="-67.5" font-family="Helvetica,sans-Serif" font-size="10.00">UICharacterCreation.Update</text>
<text text-anchor="middle" x="1047" y="-56.5" font-family="Helvetica,sans-Serif" font-size="10.00">HSL_L</text>
</a>
</g>
</g>
<!-- Node7&#45;&gt;Node11 -->
<g id="edge13" class="edge">
<title>Node7&#45;&gt;Node11</title>
<path fill="none" stroke="midnightblue" d="M1168.39,-95.88C1147.82,-90.52 1125.42,-84.68 1105.57,-79.51"/>
<polygon fill="midnightblue" stroke="midnightblue" points="1167.76,-99.33 1178.32,-98.47 1169.52,-92.56 1167.76,-99.33"/>
</g>
<!-- Node12 -->
<g id="node12" class="node">
<title>Node12</title>
<g id="a_node12"><a xlink:href="../../dd/d99/classUICharacterCreation_a46cf4ca163c003c5d702ba91e97685ef.html#a46cf4ca163c003c5d702ba91e97685ef" target="_top" xlink:title=" ">
<polygon fill="white" stroke="black" points="970,-0.5 970,-30.5 1124,-30.5 1124,-0.5 970,-0.5"/>
<text text-anchor="start" x="978" y="-18.5" font-family="Helvetica,sans-Serif" font-size="10.00">UICharacterCreation.Update</text>
<text text-anchor="middle" x="1047" y="-7.5" font-family="Helvetica,sans-Serif" font-size="10.00">HSL_S</text>
</a>
</g>
</g>
<!-- Node7&#45;&gt;Node12 -->
<g id="edge15" class="edge">
<title>Node7&#45;&gt;Node12</title>
<path fill="none" stroke="midnightblue" d="M1208.6,-92.25C1186.68,-76.05 1154.64,-54.11 1124,-39.5 1117.13,-36.22 1109.7,-33.25 1102.28,-30.6"/>
<polygon fill="midnightblue" stroke="midnightblue" points="1206.66,-95.18 1216.76,-98.37 1210.86,-89.57 1206.66,-95.18"/>
</g>
<!-- Node9 -->
<g id="node9" class="node">
<title>Node9</title>
<g id="a_node9"><a xlink:href="../../dd/d99/classUICharacterCreation_a749c11bb7464e1e8c24352e3dc280c95.html#a749c11bb7464e1e8c24352e3dc280c95" target="_top" xlink:title=" ">
<polygon fill="white" stroke="black" points="596,-115.5 596,-145.5 747,-145.5 747,-115.5 596,-115.5"/>
<text text-anchor="start" x="604" y="-133.5" font-family="Helvetica,sans-Serif" font-size="10.00">UICharacterCreation.Create</text>
<text text-anchor="middle" x="671.5" y="-122.5" font-family="Helvetica,sans-Serif" font-size="10.00">HSLSlider</text>
</a>
</g>
</g>
<!-- Node8&#45;&gt;Node9 -->
<g id="edge9" class="edge">
<title>Node8&#45;&gt;Node9</title>
<path fill="none" stroke="midnightblue" d="M772.81,-121.28C764.26,-122.07 755.62,-122.86 747.19,-123.64"/>
<polygon fill="midnightblue" stroke="midnightblue" points="773.15,-124.77 782.79,-120.37 772.51,-117.8 773.15,-124.77"/>
</g>
<!-- Node9&#45;&gt;Node3 -->
<g id="edge10" class="edge">
<title>Node9&#45;&gt;Node3</title>
<path fill="none" stroke="midnightblue" d="M618.72,-148.99C590.9,-158.93 557.02,-171.03 530.8,-180.39"/>
<polygon fill="midnightblue" stroke="midnightblue" points="620.05,-152.24 628.29,-145.58 617.69,-145.64 620.05,-152.24"/>
</g>
<!-- Node10&#45;&gt;Node8 -->
<g id="edge12" class="edge">
<title>Node10&#45;&gt;Node8</title>
<path fill="none" stroke="midnightblue" d="M959.86,-113.5C951.28,-113.5 942.62,-113.5 934.18,-113.5"/>
<polygon fill="midnightblue" stroke="midnightblue" points="959.87,-117 969.87,-113.5 959.87,-110 959.87,-117"/>
</g>
<!-- Node11&#45;&gt;Node8 -->
<g id="edge14" class="edge">
<title>Node11&#45;&gt;Node8</title>
<path fill="none" stroke="midnightblue" d="M978.93,-82.12C958.52,-87.48 936.3,-93.32 916.62,-98.49"/>
<polygon fill="midnightblue" stroke="midnightblue" points="979.99,-85.46 988.78,-79.53 978.22,-78.69 979.99,-85.46"/>
</g>
<!-- Node12&#45;&gt;Node8 -->
<g id="edge16" class="edge">
<title>Node12&#45;&gt;Node8</title>
<path fill="none" stroke="midnightblue" d="M982.01,-34.23C977.89,-35.89 973.86,-37.65 970,-39.5 935.66,-56 899.68,-81.97 878.44,-98.35"/>
<polygon fill="midnightblue" stroke="midnightblue" points="983.59,-37.38 991.7,-30.56 981.11,-30.83 983.59,-37.38"/>
</g>
</g>
</svg>
