<?xml version="1.0" encoding="UTF-8" standalone="no"?>
<!DOCTYPE svg PUBLIC "-//W3C//DTD SVG 1.1//EN"
 "http://www.w3.org/Graphics/SVG/1.1/DTD/svg11.dtd">
<!-- Generated by graphviz version 2.43.0 (0)
 -->
<!-- Title: UICharacterCreation.OnFinishedNaming Pages: 1 -->
<svg width="1212pt" height="606pt"
 viewBox="0.00 0.00 1212.00 605.50" xmlns="http://www.w3.org/2000/svg" xmlns:xlink="http://www.w3.org/1999/xlink">
<g id="graph0" class="graph" transform="scale(1 1) rotate(0) translate(4 601.5)">
<title>UICharacterCreation.OnFinishedNaming</title>
<polygon fill="white" stroke="transparent" points="-4,4 -4,-601.5 1208,-601.5 1208,4 -4,4"/>
<!-- Node1 -->
<g id="node1" class="node">
<title>Node1</title>
<g id="a_node1"><a xlink:title=" ">
<polygon fill="#bfbfbf" stroke="black" points="0,-317 0,-347 173,-347 173,-317 0,-317"/>
<text text-anchor="start" x="8" y="-335" font-family="Helvetica,sans-Serif" font-size="10.00">UICharacterCreation.OnFinished</text>
<text text-anchor="middle" x="86.5" y="-324" font-family="Helvetica,sans-Serif" font-size="10.00">Naming</text>
</a>
</g>
</g>
<!-- Node2 -->
<g id="node2" class="node">
<title>Node2</title>
<g id="a_node2"><a xlink:href="../../d8/d5c/classUICharacterNameButton_a865c2964189ca9693b2b8488a434734d.html#a865c2964189ca9693b2b8488a434734d" target="_top" xlink:title=" ">
<polygon fill="white" stroke="black" points="209,-474 209,-504 364,-504 364,-474 209,-474"/>
<text text-anchor="start" x="217" y="-492" font-family="Helvetica,sans-Serif" font-size="10.00">UICharacterNameButton.Set</text>
<text text-anchor="middle" x="286.5" y="-481" font-family="Helvetica,sans-Serif" font-size="10.00">Contents</text>
</a>
</g>
</g>
<!-- Node1&#45;&gt;Node2 -->
<g id="edge1" class="edge">
<title>Node1&#45;&gt;Node2</title>
<path fill="none" stroke="midnightblue" d="M106.49,-347.05C141.89,-375.13 218.08,-435.54 258.71,-467.76"/>
<polygon fill="midnightblue" stroke="midnightblue" points="256.56,-470.52 266.57,-473.99 260.91,-465.04 256.56,-470.52"/>
</g>
<!-- Node12 -->
<g id="node12" class="node">
<title>Node12</title>
<g id="a_node12"><a xlink:href="../../df/de1/classUserInterface_acf4e2457f637ffe67cb7c2850f58a14a.html#acf4e2457f637ffe67cb7c2850f58a14a" target="_top" xlink:title=" ">
<polygon fill="white" stroke="black" points="223,-193.5 223,-212.5 350,-212.5 350,-193.5 223,-193.5"/>
<text text-anchor="middle" x="286.5" y="-200.5" font-family="Helvetica,sans-Serif" font-size="10.00">UserInterface.SetState</text>
</a>
</g>
</g>
<!-- Node1&#45;&gt;Node12 -->
<g id="edge12" class="edge">
<title>Node1&#45;&gt;Node12</title>
<path fill="none" stroke="midnightblue" d="M110.6,-316.95C148.66,-292.15 224.12,-242.99 262.27,-218.14"/>
<polygon fill="midnightblue" stroke="midnightblue" points="264.22,-221.04 270.68,-212.65 260.4,-215.18 264.22,-221.04"/>
</g>
<!-- Node3 -->
<g id="node3" class="node">
<title>Node3</title>
<g id="a_node3"><a xlink:href="../../d1/de0/structStyleDimension_a21be55653049cf3d3408b7127294f23e.html#a21be55653049cf3d3408b7127294f23e" target="_top" xlink:title=" ">
<polygon fill="white" stroke="black" points="400,-536.5 400,-555.5 550,-555.5 550,-536.5 400,-536.5"/>
<text text-anchor="middle" x="475" y="-543.5" font-family="Helvetica,sans-Serif" font-size="10.00">StyleDimension.FromPixels</text>
</a>
</g>
</g>
<!-- Node2&#45;&gt;Node3 -->
<g id="edge2" class="edge">
<title>Node2&#45;&gt;Node3</title>
<path fill="none" stroke="midnightblue" d="M329.47,-504C350.52,-511.32 376.48,-520.02 400,-527 408.04,-529.39 416.63,-531.75 425,-533.97"/>
<polygon fill="midnightblue" stroke="midnightblue" points="424.12,-537.35 434.68,-536.48 425.88,-530.58 424.12,-537.35"/>
</g>
<!-- Node5 -->
<g id="node5" class="node">
<title>Node5</title>
<g id="a_node5"><a xlink:href="../../de/db3/classUIElement_adc42b475f74d77f6fe008b8f1e77ad19.html#adc42b475f74d77f6fe008b8f1e77ad19" target="_top" xlink:title=" ">
<polygon fill="white" stroke="black" points="798,-441.5 798,-460.5 968,-460.5 968,-441.5 798,-441.5"/>
<text text-anchor="middle" x="883" y="-448.5" font-family="Helvetica,sans-Serif" font-size="10.00">UIElement.GetInnerDimensions</text>
</a>
</g>
</g>
<!-- Node2&#45;&gt;Node5 -->
<g id="edge4" class="edge">
<title>Node2&#45;&gt;Node5</title>
<path fill="none" stroke="midnightblue" d="M364,-484.11C472.33,-477.19 670.27,-464.53 787.6,-457.03"/>
<polygon fill="midnightblue" stroke="midnightblue" points="787.89,-460.52 797.64,-456.39 787.44,-453.54 787.89,-460.52"/>
</g>
<!-- Node6 -->
<g id="node6" class="node">
<title>Node6</title>
<g id="a_node6"><a xlink:href="../../dc/d7f/classUIText_ad4bbb4edcd27858a4ae8e7817922a34b.html#ad4bbb4edcd27858a4ae8e7817922a34b" target="_top" xlink:title=" ">
<polygon fill="white" stroke="black" points="432,-498.5 432,-517.5 518,-517.5 518,-498.5 432,-498.5"/>
<text text-anchor="middle" x="475" y="-505.5" font-family="Helvetica,sans-Serif" font-size="10.00">UIText.SetText</text>
</a>
</g>
</g>
<!-- Node2&#45;&gt;Node6 -->
<g id="edge5" class="edge">
<title>Node2&#45;&gt;Node6</title>
<path fill="none" stroke="midnightblue" d="M364.16,-496.81C383.48,-498.78 403.78,-500.85 421.6,-502.66"/>
<polygon fill="midnightblue" stroke="midnightblue" points="421.47,-506.17 431.77,-503.7 422.18,-499.2 421.47,-506.17"/>
</g>
<!-- Node4 -->
<g id="node4" class="node">
<title>Node4</title>
<g id="a_node4"><a xlink:href="../../d1/de0/structStyleDimension_ada8ebbbc9d1119cc6017a278068c1fb2.html#ada8ebbbc9d1119cc6017a278068c1fb2" target="_top" xlink:title=" ">
<polygon fill="white" stroke="black" points="587,-536.5 587,-555.5 761,-555.5 761,-536.5 587,-536.5"/>
<text text-anchor="middle" x="674" y="-543.5" font-family="Helvetica,sans-Serif" font-size="10.00">StyleDimension.StyleDimension</text>
</a>
</g>
</g>
<!-- Node3&#45;&gt;Node4 -->
<g id="edge3" class="edge">
<title>Node3&#45;&gt;Node4</title>
<path fill="none" stroke="midnightblue" d="M550.2,-546C558.91,-546 567.9,-546 576.86,-546"/>
<polygon fill="midnightblue" stroke="midnightblue" points="576.95,-549.5 586.95,-546 576.95,-542.5 576.95,-549.5"/>
</g>
<!-- Node7 -->
<g id="node7" class="node">
<title>Node7</title>
<g id="a_node7"><a xlink:href="../../dc/d7f/classUIText_aa6bb6de3f61c0c740fb0d2038e75da63.html#aa6bb6de3f61c0c740fb0d2038e75da63" target="_top" xlink:title=" ">
<polygon fill="white" stroke="black" points="612,-498.5 612,-517.5 736,-517.5 736,-498.5 612,-498.5"/>
<text text-anchor="middle" x="674" y="-505.5" font-family="Helvetica,sans-Serif" font-size="10.00">UIText.InternalSetText</text>
</a>
</g>
</g>
<!-- Node6&#45;&gt;Node7 -->
<g id="edge6" class="edge">
<title>Node6&#45;&gt;Node7</title>
<path fill="none" stroke="midnightblue" d="M518.26,-508C542.53,-508 573.64,-508 601.6,-508"/>
<polygon fill="midnightblue" stroke="midnightblue" points="601.74,-511.5 611.74,-508 601.74,-504.5 601.74,-511.5"/>
</g>
<!-- Node7&#45;&gt;Node5 -->
<g id="edge8" class="edge">
<title>Node7&#45;&gt;Node5</title>
<path fill="none" stroke="midnightblue" d="M712.94,-498.43C728.28,-494.33 746.09,-489.27 762,-484 778.3,-478.6 781.58,-475.02 798,-470 806.41,-467.43 815.4,-465.03 824.25,-462.87"/>
<polygon fill="midnightblue" stroke="midnightblue" points="825.22,-466.24 834.14,-460.53 823.61,-459.43 825.22,-466.24"/>
</g>
<!-- Node8 -->
<g id="node8" class="node">
<title>Node8</title>
<g id="a_node8"><a xlink:href="../../da/d82/classDynamicSpriteFont_a10d6315c043e1837224642bbd2fcea89.html#a10d6315c043e1837224642bbd2fcea89" target="_top" xlink:title=" ">
<polygon fill="white" stroke="black" points="810.5,-567 810.5,-597 955.5,-597 955.5,-567 810.5,-567"/>
<text text-anchor="start" x="818.5" y="-585" font-family="Helvetica,sans-Serif" font-size="10.00">DynamicSpriteFont.Create</text>
<text text-anchor="middle" x="883" y="-574" font-family="Helvetica,sans-Serif" font-size="10.00">WrappedText</text>
</a>
</g>
</g>
<!-- Node7&#45;&gt;Node8 -->
<g id="edge7" class="edge">
<title>Node7&#45;&gt;Node8</title>
<path fill="none" stroke="midnightblue" d="M736.23,-517.33C745.12,-519.83 753.98,-523 762,-527 780.89,-536.43 779.42,-547.98 798,-558 801.43,-559.85 805.02,-561.57 808.7,-563.17"/>
<polygon fill="midnightblue" stroke="midnightblue" points="807.42,-566.43 818,-566.9 810.02,-559.93 807.42,-566.43"/>
</g>
<!-- Node9 -->
<g id="node9" class="node">
<title>Node9</title>
<g id="a_node9"><a xlink:href="../../da/d82/classDynamicSpriteFont_a60cbfbf43aa1bebceaf16a64457fc297.html#a60cbfbf43aa1bebceaf16a64457fc297" target="_top" xlink:title=" ">
<polygon fill="white" stroke="black" points="805.5,-518 805.5,-548 960.5,-548 960.5,-518 805.5,-518"/>
<text text-anchor="start" x="813.5" y="-536" font-family="Helvetica,sans-Serif" font-size="10.00">DynamicSpriteFont.Measure</text>
<text text-anchor="middle" x="883" y="-525" font-family="Helvetica,sans-Serif" font-size="10.00">String</text>
</a>
</g>
</g>
<!-- Node7&#45;&gt;Node9 -->
<g id="edge9" class="edge">
<title>Node7&#45;&gt;Node9</title>
<path fill="none" stroke="midnightblue" d="M736.27,-515.4C754.83,-517.64 775.58,-520.15 795.47,-522.55"/>
<polygon fill="midnightblue" stroke="midnightblue" points="795.11,-526.03 805.46,-523.76 795.95,-519.08 795.11,-526.03"/>
</g>
<!-- Node11 -->
<g id="node11" class="node">
<title>Node11</title>
<g id="a_node11"><a xlink:href="../../d1/de0/structStyleDimension_a0c959bcdc133227ba2a5226e8cd4d4c4.html#a0c959bcdc133227ba2a5226e8cd4d4c4" target="_top" xlink:title=" ">
<polygon fill="white" stroke="black" points="826.5,-479.5 826.5,-498.5 939.5,-498.5 939.5,-479.5 826.5,-479.5"/>
<text text-anchor="middle" x="883" y="-486.5" font-family="Helvetica,sans-Serif" font-size="10.00">StyleDimension.Set</text>
</a>
</g>
</g>
<!-- Node7&#45;&gt;Node11 -->
<g id="edge11" class="edge">
<title>Node7&#45;&gt;Node11</title>
<path fill="none" stroke="midnightblue" d="M736.27,-502.38C761.42,-500.07 790.59,-497.39 816.2,-495.04"/>
<polygon fill="midnightblue" stroke="midnightblue" points="816.55,-498.52 826.19,-494.12 815.91,-491.55 816.55,-498.52"/>
</g>
<!-- Node10 -->
<g id="node10" class="node">
<title>Node10</title>
<g id="a_node10"><a xlink:href="../../da/d82/classDynamicSpriteFont_a7ea9789665f8d0638966e54a9b4536f6.html#a7ea9789665f8d0638966e54a9b4536f6" target="_top" xlink:title=" ">
<polygon fill="white" stroke="black" points="1004,-523.5 1004,-542.5 1204,-542.5 1204,-523.5 1004,-523.5"/>
<text text-anchor="middle" x="1104" y="-530.5" font-family="Helvetica,sans-Serif" font-size="10.00">DynamicSpriteFont.GetCharacterData</text>
</a>
</g>
</g>
<!-- Node9&#45;&gt;Node10 -->
<g id="edge10" class="edge">
<title>Node9&#45;&gt;Node10</title>
<path fill="none" stroke="midnightblue" d="M960.6,-533C971.27,-533 982.4,-533 993.53,-533"/>
<polygon fill="midnightblue" stroke="midnightblue" points="993.74,-536.5 1003.74,-533 993.74,-529.5 993.74,-536.5"/>
</g>
<!-- Node13 -->
<g id="node13" class="node">
<title>Node13</title>
<g id="a_node13"><a xlink:href="../../de/db3/classUIElement_af39632decedc87af3a0e85f0f48a07b3.html#af39632decedc87af3a0e85f0f48a07b3" target="_top" xlink:title=" ">
<polygon fill="white" stroke="black" points="419.5,-124.5 419.5,-143.5 530.5,-143.5 530.5,-124.5 419.5,-124.5"/>
<text text-anchor="middle" x="475" y="-131.5" font-family="Helvetica,sans-Serif" font-size="10.00">UIElement.Activate</text>
</a>
</g>
</g>
<!-- Node12&#45;&gt;Node13 -->
<g id="edge13" class="edge">
<title>Node12&#45;&gt;Node13</title>
<path fill="none" stroke="midnightblue" d="M313.43,-193.41C346,-181.36 402.03,-160.63 438.54,-147.12"/>
<polygon fill="midnightblue" stroke="midnightblue" points="440.12,-150.27 448.29,-143.51 437.7,-143.7 440.12,-150.27"/>
</g>
<!-- Node17 -->
<g id="node17" class="node">
<title>Node17</title>
<g id="a_node17"><a xlink:href="../../df/de1/classUserInterface_a533118cc34178b3a6221137ad34881a9.html#a533118cc34178b3a6221137ad34881a9" target="_top" xlink:title=" ">
<polygon fill="white" stroke="black" points="400,-86.5 400,-105.5 550,-105.5 550,-86.5 400,-86.5"/>
<text text-anchor="middle" x="475" y="-93.5" font-family="Helvetica,sans-Serif" font-size="10.00">UserInterface.AddToHistory</text>
</a>
</g>
</g>
<!-- Node12&#45;&gt;Node17 -->
<g id="edge18" class="edge">
<title>Node12&#45;&gt;Node17</title>
<path fill="none" stroke="midnightblue" d="M296.79,-193.48C314.93,-175.42 357.07,-136.14 400,-115 404.83,-112.62 410,-110.52 415.26,-108.66"/>
<polygon fill="midnightblue" stroke="midnightblue" points="416.36,-111.99 424.81,-105.59 414.21,-105.32 416.36,-111.99"/>
</g>
<!-- Node18 -->
<g id="node18" class="node">
<title>Node18</title>
<g id="a_node18"><a xlink:href="../../de/db3/classUIElement_aa4662934ec14afe708537efc8127b3f0.html#aa4662934ec14afe708537efc8127b3f0" target="_top" xlink:title=" ">
<polygon fill="white" stroke="black" points="413,-4.5 413,-23.5 537,-23.5 537,-4.5 413,-4.5"/>
<text text-anchor="middle" x="475" y="-11.5" font-family="Helvetica,sans-Serif" font-size="10.00">UIElement.Deactivate</text>
</a>
</g>
</g>
<!-- Node12&#45;&gt;Node18 -->
<g id="edge19" class="edge">
<title>Node12&#45;&gt;Node18</title>
<path fill="none" stroke="midnightblue" d="M295.27,-193.43C312.98,-171.83 358.04,-117.98 400,-77 417.25,-60.15 438.31,-42.47 453.55,-30.15"/>
<polygon fill="midnightblue" stroke="midnightblue" points="456.16,-32.54 461.77,-23.56 451.78,-27.08 456.16,-32.54"/>
</g>
<!-- Node20 -->
<g id="node20" class="node">
<title>Node20</title>
<g id="a_node20"><a xlink:href="../../de/db3/classUIElement_ae7de30e265aacf3df915d1132f371e60.html#ae7de30e265aacf3df915d1132f371e60" target="_top" xlink:title=" ">
<polygon fill="white" stroke="black" points="614,-240.5 614,-259.5 734,-259.5 734,-240.5 614,-240.5"/>
<text text-anchor="middle" x="674" y="-247.5" font-family="Helvetica,sans-Serif" font-size="10.00">UIElement.MouseOut</text>
</a>
</g>
</g>
<!-- Node12&#45;&gt;Node20 -->
<g id="edge22" class="edge">
<title>Node12&#45;&gt;Node20</title>
<path fill="none" stroke="midnightblue" d="M339.48,-212.51C358.48,-215.79 380.18,-219.31 400,-222 469.11,-231.37 548.45,-239.18 603.72,-244.15"/>
<polygon fill="midnightblue" stroke="midnightblue" points="603.48,-247.64 613.76,-245.04 604.11,-240.67 603.48,-247.64"/>
</g>
<!-- Node21 -->
<g id="node21" class="node">
<title>Node21</title>
<g id="a_node21"><a xlink:href="../../de/db3/classUIElement_aee194ceb3c88758159e31761805e6a9d.html#aee194ceb3c88758159e31761805e6a9d" target="_top" xlink:title=" ">
<polygon fill="white" stroke="black" points="411,-318.5 411,-337.5 539,-337.5 539,-318.5 411,-318.5"/>
<text text-anchor="middle" x="475" y="-325.5" font-family="Helvetica,sans-Serif" font-size="10.00">UIElement.Recalculate</text>
</a>
</g>
</g>
<!-- Node12&#45;&gt;Node21 -->
<g id="edge24" class="edge">
<title>Node12&#45;&gt;Node21</title>
<path fill="none" stroke="midnightblue" d="M301.82,-212.6C333.96,-234.14 412.05,-286.48 451.04,-312.61"/>
<polygon fill="midnightblue" stroke="midnightblue" points="449.37,-315.71 459.63,-318.37 453.27,-309.89 449.37,-315.71"/>
</g>
<!-- Node26 -->
<g id="node26" class="node">
<title>Node26</title>
<g id="a_node26"><a xlink:href="../../df/de1/classUserInterface_a2bd6f390bef94b5709c1173e90972a6f.html#a2bd6f390bef94b5709c1173e90972a6f" target="_top" xlink:title=" ">
<polygon fill="white" stroke="black" points="405.5,-193.5 405.5,-212.5 544.5,-212.5 544.5,-193.5 405.5,-193.5"/>
<text text-anchor="middle" x="475" y="-200.5" font-family="Helvetica,sans-Serif" font-size="10.00">UserInterface.ResetState</text>
</a>
</g>
</g>
<!-- Node12&#45;&gt;Node26 -->
<g id="edge31" class="edge">
<title>Node12&#45;&gt;Node26</title>
<path fill="none" stroke="midnightblue" d="M350.12,-203C364.57,-203 380.11,-203 395.15,-203"/>
<polygon fill="midnightblue" stroke="midnightblue" points="395.46,-206.5 405.46,-203 395.46,-199.5 395.46,-206.5"/>
</g>
<!-- Node13&#45;&gt;Node13 -->
<g id="edge14" class="edge">
<title>Node13&#45;&gt;Node13</title>
<path fill="none" stroke="midnightblue" d="M446.02,-143.76C431.93,-152.57 441.59,-162 475,-162 497.97,-162 509.72,-157.54 510.23,-151.89"/>
<polygon fill="midnightblue" stroke="midnightblue" points="512.85,-149.55 503.98,-143.76 507.3,-153.82 512.85,-149.55"/>
</g>
<!-- Node14 -->
<g id="node14" class="node">
<title>Node14</title>
<g id="a_node14"><a xlink:href="../../de/db3/classUIElement_a0853980808ec01129eefb950dc6eaa9e.html#a0853980808ec01129eefb950dc6eaa9e" target="_top" xlink:title=" ">
<polygon fill="white" stroke="black" points="617.5,-76.5 617.5,-95.5 730.5,-95.5 730.5,-76.5 617.5,-76.5"/>
<text text-anchor="middle" x="674" y="-83.5" font-family="Helvetica,sans-Serif" font-size="10.00">UIElement.Initialize</text>
</a>
</g>
</g>
<!-- Node13&#45;&gt;Node14 -->
<g id="edge15" class="edge">
<title>Node13&#45;&gt;Node14</title>
<path fill="none" stroke="midnightblue" d="M513.68,-124.48C525.34,-121.49 538.21,-118.15 550,-115 566.04,-110.71 569.88,-109 586,-105 596.01,-102.52 606.7,-100.04 617.05,-97.73"/>
<polygon fill="midnightblue" stroke="midnightblue" points="617.82,-101.15 626.83,-95.58 616.32,-94.31 617.82,-101.15"/>
</g>
<!-- Node16 -->
<g id="node16" class="node">
<title>Node16</title>
<g id="a_node16"><a xlink:href="../../de/db3/classUIElement_a232530774c8530e65b675f4c86b6dfbd.html#a232530774c8530e65b675f4c86b6dfbd" target="_top" xlink:title=" ">
<polygon fill="white" stroke="black" points="611.5,-38.5 611.5,-57.5 736.5,-57.5 736.5,-38.5 611.5,-38.5"/>
<text text-anchor="middle" x="674" y="-45.5" font-family="Helvetica,sans-Serif" font-size="10.00">UIElement.OnActivate</text>
</a>
</g>
</g>
<!-- Node13&#45;&gt;Node16 -->
<g id="edge17" class="edge">
<title>Node13&#45;&gt;Node16</title>
<path fill="none" stroke="midnightblue" d="M530.77,-124.48C537.56,-122.01 544.16,-118.91 550,-115 572.17,-100.18 563.57,-81.42 586,-67 590.92,-63.84 596.28,-61.2 601.84,-58.99"/>
<polygon fill="midnightblue" stroke="midnightblue" points="603.07,-62.27 611.37,-55.68 600.77,-55.66 603.07,-62.27"/>
</g>
<!-- Node15 -->
<g id="node15" class="node">
<title>Node15</title>
<g id="a_node15"><a xlink:href="../../de/db3/classUIElement_a38a8b3ad267ccce9474b6907aa274cdf.html#a38a8b3ad267ccce9474b6907aa274cdf" target="_top" xlink:title=" ">
<polygon fill="white" stroke="black" points="820,-73.5 820,-92.5 946,-92.5 946,-73.5 820,-73.5"/>
<text text-anchor="middle" x="883" y="-80.5" font-family="Helvetica,sans-Serif" font-size="10.00">UIElement.OnInitialize</text>
</a>
</g>
</g>
<!-- Node14&#45;&gt;Node15 -->
<g id="edge16" class="edge">
<title>Node14&#45;&gt;Node15</title>
<path fill="none" stroke="midnightblue" d="M730.74,-85.19C755.06,-84.84 783.88,-84.42 809.8,-84.05"/>
<polygon fill="midnightblue" stroke="midnightblue" points="810.01,-87.54 819.96,-83.9 809.91,-80.54 810.01,-87.54"/>
</g>
<!-- Node18&#45;&gt;Node18 -->
<g id="edge20" class="edge">
<title>Node18&#45;&gt;Node18</title>
<path fill="none" stroke="midnightblue" d="M446.02,-23.76C431.93,-32.57 441.59,-42 475,-42 497.97,-42 509.72,-37.54 510.23,-31.89"/>
<polygon fill="midnightblue" stroke="midnightblue" points="512.85,-29.55 503.98,-23.76 507.3,-33.82 512.85,-29.55"/>
</g>
<!-- Node19 -->
<g id="node19" class="node">
<title>Node19</title>
<g id="a_node19"><a xlink:href="../../de/db3/classUIElement_ab68b757918a1a9cb016b900d3f770a40.html#ab68b757918a1a9cb016b900d3f770a40" target="_top" xlink:title=" ">
<polygon fill="white" stroke="black" points="605.5,-0.5 605.5,-19.5 742.5,-19.5 742.5,-0.5 605.5,-0.5"/>
<text text-anchor="middle" x="674" y="-7.5" font-family="Helvetica,sans-Serif" font-size="10.00">UIElement.OnDeactivate</text>
</a>
</g>
</g>
<!-- Node18&#45;&gt;Node19 -->
<g id="edge21" class="edge">
<title>Node18&#45;&gt;Node19</title>
<path fill="none" stroke="midnightblue" d="M537.25,-12.76C555.54,-12.38 575.83,-11.97 595.04,-11.58"/>
<polygon fill="midnightblue" stroke="midnightblue" points="595.34,-15.08 605.27,-11.38 595.2,-8.08 595.34,-15.08"/>
</g>
<!-- Node20&#45;&gt;Node20 -->
<g id="edge23" class="edge">
<title>Node20&#45;&gt;Node20</title>
<path fill="none" stroke="midnightblue" d="M643.48,-259.76C628.64,-268.57 638.81,-278 674,-278 698.74,-278 711.12,-273.34 711.12,-267.5"/>
<polygon fill="midnightblue" stroke="midnightblue" points="713.67,-265.09 704.52,-259.76 708.34,-269.64 713.67,-265.09"/>
</g>
<!-- Node21&#45;&gt;Node5 -->
<g id="edge28" class="edge">
<title>Node21&#45;&gt;Node5</title>
<path fill="none" stroke="midnightblue" d="M484.89,-337.67C502.3,-355.91 542.97,-395.17 586,-413 650.03,-439.53 727.96,-448.71 787.78,-451.43"/>
<polygon fill="midnightblue" stroke="midnightblue" points="787.84,-454.93 797.97,-451.84 788.12,-447.94 787.84,-454.93"/>
</g>
<!-- Node22 -->
<g id="node22" class="node">
<title>Node22</title>
<g id="a_node22"><a xlink:href="../../df/de1/classUserInterface_a0cfc3c35a0f4df271c43ed2d90975df1.html#a0cfc3c35a0f4df271c43ed2d90975df1" target="_top" xlink:title=" ">
<polygon fill="white" stroke="black" points="593.5,-384.5 593.5,-403.5 754.5,-403.5 754.5,-384.5 593.5,-384.5"/>
<text text-anchor="middle" x="674" y="-391.5" font-family="Helvetica,sans-Serif" font-size="10.00">UserInterface.GetDimensions</text>
</a>
</g>
</g>
<!-- Node21&#45;&gt;Node22 -->
<g id="edge25" class="edge">
<title>Node21&#45;&gt;Node22</title>
<path fill="none" stroke="midnightblue" d="M495.44,-337.64C517.1,-348.06 553.36,-364.57 586,-375 594.24,-377.63 603.03,-380.02 611.74,-382.15"/>
<polygon fill="midnightblue" stroke="midnightblue" points="610.97,-385.57 621.51,-384.44 612.57,-378.75 610.97,-385.57"/>
</g>
<!-- Node23 -->
<g id="node23" class="node">
<title>Node23</title>
<g id="a_node23"><a xlink:href="../../de/db3/classUIElement_a5030449fa3a7231b282fb98cfdf1ce01.html#a5030449fa3a7231b282fb98cfdf1ce01" target="_top" xlink:title=" ">
<polygon fill="white" stroke="black" points="586,-335 586,-365 762,-365 762,-335 586,-335"/>
<text text-anchor="start" x="594" y="-353" font-family="Helvetica,sans-Serif" font-size="10.00">UIElement.GetDimensionsBased</text>
<text text-anchor="middle" x="674" y="-342" font-family="Helvetica,sans-Serif" font-size="10.00">OnParentDimensions</text>
</a>
</g>
</g>
<!-- Node21&#45;&gt;Node23 -->
<g id="edge26" class="edge">
<title>Node21&#45;&gt;Node23</title>
<path fill="none" stroke="midnightblue" d="M539.14,-335.05C550.87,-336.36 563.36,-337.76 575.82,-339.15"/>
<polygon fill="midnightblue" stroke="midnightblue" points="575.47,-342.63 585.8,-340.26 576.25,-335.67 575.47,-342.63"/>
</g>
<!-- Node25 -->
<g id="node25" class="node">
<title>Node25</title>
<g id="a_node25"><a xlink:href="../../de/db3/classUIElement_af9e665c7647c2fb436ed3c20be3a40a2.html#af9e665c7647c2fb436ed3c20be3a40a2" target="_top" xlink:title=" ">
<polygon fill="white" stroke="black" points="590,-296.5 590,-315.5 758,-315.5 758,-296.5 590,-296.5"/>
<text text-anchor="middle" x="674" y="-303.5" font-family="Helvetica,sans-Serif" font-size="10.00">UIElement.RecalculateChildren</text>
</a>
</g>
</g>
<!-- Node21&#45;&gt;Node25 -->
<g id="edge29" class="edge">
<title>Node21&#45;&gt;Node25</title>
<path fill="none" stroke="midnightblue" d="M513.05,-318.45C532.07,-315.36 556.18,-312.23 579.87,-309.66"/>
<polygon fill="midnightblue" stroke="midnightblue" points="580.4,-313.12 589.98,-308.6 579.67,-306.16 580.4,-313.12"/>
</g>
<!-- Node24 -->
<g id="node24" class="node">
<title>Node24</title>
<g id="a_node24"><a xlink:href="../../d1/de0/structStyleDimension_a62acad4030569824dcced4b9e3a10e56.html#a62acad4030569824dcced4b9e3a10e56" target="_top" xlink:title=" ">
<polygon fill="white" stroke="black" points="812.5,-340.5 812.5,-359.5 953.5,-359.5 953.5,-340.5 812.5,-340.5"/>
<text text-anchor="middle" x="883" y="-347.5" font-family="Helvetica,sans-Serif" font-size="10.00">StyleDimension.GetValue</text>
</a>
</g>
</g>
<!-- Node23&#45;&gt;Node24 -->
<g id="edge27" class="edge">
<title>Node23&#45;&gt;Node24</title>
<path fill="none" stroke="midnightblue" d="M762.19,-350C775.35,-350 788.88,-350 801.88,-350"/>
<polygon fill="midnightblue" stroke="midnightblue" points="802.19,-353.5 812.19,-350 802.19,-346.5 802.19,-353.5"/>
</g>
<!-- Node25&#45;&gt;Node21 -->
<g id="edge30" class="edge">
<title>Node25&#45;&gt;Node21</title>
<path fill="none" stroke="midnightblue" d="M636.02,-315.54C611.67,-319.5 578.94,-323.53 549.43,-326.35"/>
<polygon fill="midnightblue" stroke="midnightblue" points="548.78,-322.9 539.14,-327.3 549.42,-329.87 548.78,-322.9"/>
</g>
<!-- Node26&#45;&gt;Node20 -->
<g id="edge36" class="edge">
<title>Node26&#45;&gt;Node20</title>
<path fill="none" stroke="midnightblue" d="M512.09,-212.52C533.52,-218.09 561.26,-225.15 586,-231 596.26,-233.43 607.23,-235.91 617.8,-238.24"/>
<polygon fill="midnightblue" stroke="midnightblue" points="617.26,-241.71 627.78,-240.43 618.76,-234.87 617.26,-241.71"/>
</g>
<!-- Node27 -->
<g id="node27" class="node">
<title>Node27</title>
<g id="a_node27"><a xlink:href="../../df/de1/classUserInterface_a8d5b797d3436e0850492cef86f8cc6d5.html#a8d5b797d3436e0850492cef86f8cc6d5" target="_top" xlink:title=" ">
<polygon fill="white" stroke="black" points="598.5,-114.5 598.5,-133.5 749.5,-133.5 749.5,-114.5 598.5,-114.5"/>
<text text-anchor="middle" x="674" y="-121.5" font-family="Helvetica,sans-Serif" font-size="10.00">UserInterface.ClearPointers</text>
</a>
</g>
</g>
<!-- Node26&#45;&gt;Node27 -->
<g id="edge32" class="edge">
<title>Node26&#45;&gt;Node27</title>
<path fill="none" stroke="midnightblue" d="M502.07,-193.47C516.58,-187.74 534.75,-179.85 550,-171 567.3,-160.96 567.86,-152.42 586,-144 592.23,-141.11 598.92,-138.61 605.71,-136.47"/>
<polygon fill="midnightblue" stroke="midnightblue" points="607.07,-139.72 615.7,-133.58 605.12,-133 607.07,-139.72"/>
</g>
<!-- Node29 -->
<g id="node29" class="node">
<title>Node29</title>
<g id="a_node29"><a xlink:href="../../df/de1/classUserInterface_ae58f7132b7d9fb48e3b35c008355a2a6.html#ae58f7132b7d9fb48e3b35c008355a2a6" target="_top" xlink:title=" ">
<polygon fill="white" stroke="black" points="587,-202.5 587,-221.5 761,-221.5 761,-202.5 587,-202.5"/>
<text text-anchor="middle" x="674" y="-209.5" font-family="Helvetica,sans-Serif" font-size="10.00">UserInterface.GetMousePosition</text>
</a>
</g>
</g>
<!-- Node26&#45;&gt;Node29 -->
<g id="edge34" class="edge">
<title>Node26&#45;&gt;Node29</title>
<path fill="none" stroke="midnightblue" d="M544.62,-206.14C555.08,-206.61 566.03,-207.11 576.95,-207.61"/>
<polygon fill="midnightblue" stroke="midnightblue" points="576.79,-211.11 586.94,-208.07 577.11,-204.12 576.79,-211.11"/>
</g>
<!-- Node30 -->
<g id="node30" class="node">
<title>Node30</title>
<g id="a_node30"><a xlink:href="../../df/de1/classUserInterface_ae15947b616e32c9d41eb179c1f535be3.html#ae15947b616e32c9d41eb179c1f535be3" target="_top" xlink:title=" ">
<polygon fill="white" stroke="black" points="600,-153 600,-183 748,-183 748,-153 600,-153"/>
<text text-anchor="start" x="608" y="-171" font-family="Helvetica,sans-Serif" font-size="10.00">UserInterface.Immediately</text>
<text text-anchor="middle" x="674" y="-160" font-family="Helvetica,sans-Serif" font-size="10.00">UpdateInputPointers</text>
</a>
</g>
</g>
<!-- Node26&#45;&gt;Node30 -->
<g id="edge35" class="edge">
<title>Node26&#45;&gt;Node30</title>
<path fill="none" stroke="midnightblue" d="M529.57,-193.48C548.17,-190.18 569.5,-186.39 589.92,-182.76"/>
<polygon fill="midnightblue" stroke="midnightblue" points="590.62,-186.19 599.85,-181 589.4,-179.3 590.62,-186.19"/>
</g>
<!-- Node28 -->
<g id="node28" class="node">
<title>Node28</title>
<g id="a_node28"><a xlink:href="../../d5/d32/classUserInterface_1_1InputPointerCache_aa2aafa6846c3011e9d54b21f7df77f51.html#aa2aafa6846c3011e9d54b21f7df77f51" target="_top" xlink:title=" ">
<polygon fill="white" stroke="black" points="810.5,-112 810.5,-142 955.5,-142 955.5,-112 810.5,-112"/>
<text text-anchor="start" x="818.5" y="-130" font-family="Helvetica,sans-Serif" font-size="10.00">UserInterface.InputPointer</text>
<text text-anchor="middle" x="883" y="-119" font-family="Helvetica,sans-Serif" font-size="10.00">Cache.Clear</text>
</a>
</g>
</g>
<!-- Node27&#45;&gt;Node28 -->
<g id="edge33" class="edge">
<title>Node27&#45;&gt;Node28</title>
<path fill="none" stroke="midnightblue" d="M749.73,-125.08C766.13,-125.32 783.58,-125.57 800.24,-125.82"/>
<polygon fill="midnightblue" stroke="midnightblue" points="800.44,-129.32 810.49,-125.96 800.54,-122.32 800.44,-129.32"/>
</g>
</g>
</svg>
