<?xml version="1.0" encoding="UTF-8" standalone="no"?>
<!DOCTYPE svg PUBLIC "-//W3C//DTD SVG 1.1//EN"
 "http://www.w3.org/Graphics/SVG/1.1/DTD/svg11.dtd">
<!-- Generated by graphviz version 2.43.0 (0)
 -->
<!-- Title: UICharacterCreation.UpdateHSLValue Pages: 1 -->
<svg width="1166pt" height="266pt"
 viewBox="0.00 0.00 1166.00 265.50" xmlns="http://www.w3.org/2000/svg" xmlns:xlink="http://www.w3.org/1999/xlink">
<g id="graph0" class="graph" transform="scale(1 1) rotate(0) translate(4 261.5)">
<title>UICharacterCreation.UpdateHSLValue</title>
<polygon fill="white" stroke="transparent" points="-4,4 -4,-261.5 1162,-261.5 1162,4 -4,4"/>
<!-- Node1 -->
<g id="node1" class="node">
<title>Node1</title>
<g id="a_node1"><a xlink:title=" ">
<polygon fill="#bfbfbf" stroke="black" points="0,-153 0,-183 154,-183 154,-153 0,-153"/>
<text text-anchor="start" x="8" y="-171" font-family="Helvetica,sans-Serif" font-size="10.00">UICharacterCreation.Update</text>
<text text-anchor="middle" x="77" y="-160" font-family="Helvetica,sans-Serif" font-size="10.00">HSLValue</text>
</a>
</g>
</g>
<!-- Node2 -->
<g id="node2" class="node">
<title>Node2</title>
<g id="a_node2"><a xlink:href="../../dd/d99/classUICharacterCreation_a02dcb63d1e0a1aa0aca7289695cfd98f.html#a02dcb63d1e0a1aa0aca7289695cfd98f" target="_top" xlink:title=" ">
<polygon fill="white" stroke="black" points="194,-227 194,-257 340,-257 340,-227 194,-227"/>
<text text-anchor="start" x="202" y="-245" font-family="Helvetica,sans-Serif" font-size="10.00">UICharacterCreation.Apply</text>
<text text-anchor="middle" x="267" y="-234" font-family="Helvetica,sans-Serif" font-size="10.00">PendingColor</text>
</a>
</g>
</g>
<!-- Node1&#45;&gt;Node2 -->
<g id="edge1" class="edge">
<title>Node1&#45;&gt;Node2</title>
<path fill="none" stroke="midnightblue" d="M109.46,-183.2C131.69,-193.66 162.33,-207.49 190,-218 195.09,-219.93 200.42,-221.84 205.78,-223.68"/>
<polygon fill="midnightblue" stroke="midnightblue" points="204.84,-227.06 215.44,-226.92 207.07,-220.42 204.84,-227.06"/>
</g>
<!-- Node3 -->
<g id="node3" class="node">
<title>Node3</title>
<g id="a_node3"><a xlink:href="../../dd/d99/classUICharacterCreation_acd7d15ad8a39a91fb1d856518f58f13a.html#acd7d15ad8a39a91fb1d856518f58f13a" target="_top" xlink:title=" ">
<polygon fill="white" stroke="black" points="191.5,-178 191.5,-208 342.5,-208 342.5,-178 191.5,-178"/>
<text text-anchor="start" x="199.5" y="-196" font-family="Helvetica,sans-Serif" font-size="10.00">UICharacterCreation.Scaled</text>
<text text-anchor="middle" x="267" y="-185" font-family="Helvetica,sans-Serif" font-size="10.00">HslToRgb</text>
</a>
</g>
</g>
<!-- Node1&#45;&gt;Node3 -->
<g id="edge2" class="edge">
<title>Node1&#45;&gt;Node3</title>
<path fill="none" stroke="midnightblue" d="M154.2,-178.13C163.07,-179.31 172.16,-180.52 181.15,-181.72"/>
<polygon fill="midnightblue" stroke="midnightblue" points="180.85,-185.21 191.22,-183.06 181.77,-178.27 180.85,-185.21"/>
</g>
<!-- Node4 -->
<g id="node4" class="node">
<title>Node4</title>
<g id="a_node4"><a xlink:href="../../d4/d2a/classUIColoredImageButton_a2f49695242810d632502733325e715e1.html#a2f49695242810d632502733325e715e1" target="_top" xlink:title=" ">
<polygon fill="white" stroke="black" points="194,-129 194,-159 340,-159 340,-129 194,-129"/>
<text text-anchor="start" x="202" y="-147" font-family="Helvetica,sans-Serif" font-size="10.00">UIColoredImageButton.Set</text>
<text text-anchor="middle" x="267" y="-136" font-family="Helvetica,sans-Serif" font-size="10.00">Color</text>
</a>
</g>
</g>
<!-- Node1&#45;&gt;Node4 -->
<g id="edge3" class="edge">
<title>Node1&#45;&gt;Node4</title>
<path fill="none" stroke="midnightblue" d="M154.2,-158.27C163.94,-157.03 173.95,-155.75 183.79,-154.5"/>
<polygon fill="midnightblue" stroke="midnightblue" points="184.48,-157.94 193.95,-153.2 183.59,-150.99 184.48,-157.94"/>
</g>
<!-- Node5 -->
<g id="node5" class="node">
<title>Node5</title>
<g id="a_node5"><a xlink:href="../../dd/d99/classUICharacterCreation_aec8b8d443f220ee65342bcb128cffe7b.html#aec8b8d443f220ee65342bcb128cffe7b" target="_top" xlink:title=" ">
<polygon fill="white" stroke="black" points="190,-80 190,-110 344,-110 344,-80 190,-80"/>
<text text-anchor="start" x="198" y="-98" font-family="Helvetica,sans-Serif" font-size="10.00">UICharacterCreation.Update</text>
<text text-anchor="middle" x="267" y="-87" font-family="Helvetica,sans-Serif" font-size="10.00">HexText</text>
</a>
</g>
</g>
<!-- Node1&#45;&gt;Node5 -->
<g id="edge4" class="edge">
<title>Node1&#45;&gt;Node5</title>
<path fill="none" stroke="midnightblue" d="M111.02,-152.95C133.16,-143.08 163.09,-130.17 190,-120 195.88,-117.78 202.06,-115.56 208.25,-113.41"/>
<polygon fill="midnightblue" stroke="midnightblue" points="209.6,-116.65 217.94,-110.11 207.34,-110.02 209.6,-116.65"/>
</g>
<!-- Node6 -->
<g id="node6" class="node">
<title>Node6</title>
<g id="a_node6"><a xlink:href="../../dd/d99/classUICharacterCreation_a98b29f9b56b0c50494168d7cc4afb5d2.html#a98b29f9b56b0c50494168d7cc4afb5d2" target="_top" xlink:title=" ">
<polygon fill="white" stroke="black" points="380,-104.5 380,-123.5 556,-123.5 556,-104.5 380,-104.5"/>
<text text-anchor="middle" x="468" y="-111.5" font-family="Helvetica,sans-Serif" font-size="10.00">UICharacterCreation.GetHexText</text>
</a>
</g>
</g>
<!-- Node5&#45;&gt;Node6 -->
<g id="edge5" class="edge">
<title>Node5&#45;&gt;Node6</title>
<path fill="none" stroke="midnightblue" d="M344.09,-102.26C352.52,-103.07 361.2,-103.9 369.85,-104.72"/>
<polygon fill="midnightblue" stroke="midnightblue" points="369.7,-108.23 379.98,-105.69 370.36,-101.26 369.7,-108.23"/>
</g>
<!-- Node7 -->
<g id="node7" class="node">
<title>Node7</title>
<g id="a_node7"><a xlink:href="../../dc/d7f/classUIText_ad4bbb4edcd27858a4ae8e7817922a34b.html#ad4bbb4edcd27858a4ae8e7817922a34b" target="_top" xlink:title=" ">
<polygon fill="white" stroke="black" points="425,-66.5 425,-85.5 511,-85.5 511,-66.5 425,-66.5"/>
<text text-anchor="middle" x="468" y="-73.5" font-family="Helvetica,sans-Serif" font-size="10.00">UIText.SetText</text>
</a>
</g>
</g>
<!-- Node5&#45;&gt;Node7 -->
<g id="edge6" class="edge">
<title>Node5&#45;&gt;Node7</title>
<path fill="none" stroke="midnightblue" d="M344.09,-87.74C367.77,-85.47 393.32,-83.03 414.97,-80.97"/>
<polygon fill="midnightblue" stroke="midnightblue" points="415.31,-84.45 424.93,-80.02 414.64,-77.48 415.31,-84.45"/>
</g>
<!-- Node8 -->
<g id="node8" class="node">
<title>Node8</title>
<g id="a_node8"><a xlink:href="../../dc/d7f/classUIText_aa6bb6de3f61c0c740fb0d2038e75da63.html#aa6bb6de3f61c0c740fb0d2038e75da63" target="_top" xlink:title=" ">
<polygon fill="white" stroke="black" points="592,-66.5 592,-85.5 716,-85.5 716,-66.5 592,-66.5"/>
<text text-anchor="middle" x="654" y="-73.5" font-family="Helvetica,sans-Serif" font-size="10.00">UIText.InternalSetText</text>
</a>
</g>
</g>
<!-- Node7&#45;&gt;Node8 -->
<g id="edge7" class="edge">
<title>Node7&#45;&gt;Node8</title>
<path fill="none" stroke="midnightblue" d="M511.21,-76C532.1,-76 557.89,-76 581.72,-76"/>
<polygon fill="midnightblue" stroke="midnightblue" points="581.8,-79.5 591.8,-76 581.8,-72.5 581.8,-79.5"/>
</g>
<!-- Node9 -->
<g id="node9" class="node">
<title>Node9</title>
<g id="a_node9"><a xlink:href="../../da/d82/classDynamicSpriteFont_a10d6315c043e1837224642bbd2fcea89.html#a10d6315c043e1837224642bbd2fcea89" target="_top" xlink:title=" ">
<polygon fill="white" stroke="black" points="764.5,-127 764.5,-157 909.5,-157 909.5,-127 764.5,-127"/>
<text text-anchor="start" x="772.5" y="-145" font-family="Helvetica,sans-Serif" font-size="10.00">DynamicSpriteFont.Create</text>
<text text-anchor="middle" x="837" y="-134" font-family="Helvetica,sans-Serif" font-size="10.00">WrappedText</text>
</a>
</g>
</g>
<!-- Node8&#45;&gt;Node9 -->
<g id="edge8" class="edge">
<title>Node8&#45;&gt;Node9</title>
<path fill="none" stroke="midnightblue" d="M675.93,-85.64C695.39,-94.42 725.33,-107.43 752,-117 758.45,-119.31 765.22,-121.59 772.02,-123.76"/>
<polygon fill="midnightblue" stroke="midnightblue" points="771.35,-127.22 781.94,-126.87 773.44,-120.54 771.35,-127.22"/>
</g>
<!-- Node10 -->
<g id="node10" class="node">
<title>Node10</title>
<g id="a_node10"><a xlink:href="../../de/db3/classUIElement_adc42b475f74d77f6fe008b8f1e77ad19.html#adc42b475f74d77f6fe008b8f1e77ad19" target="_top" xlink:title=" ">
<polygon fill="white" stroke="black" points="752,-88.5 752,-107.5 922,-107.5 922,-88.5 752,-88.5"/>
<text text-anchor="middle" x="837" y="-95.5" font-family="Helvetica,sans-Serif" font-size="10.00">UIElement.GetInnerDimensions</text>
</a>
</g>
</g>
<!-- Node8&#45;&gt;Node10 -->
<g id="edge9" class="edge">
<title>Node8&#45;&gt;Node10</title>
<path fill="none" stroke="midnightblue" d="M716.03,-83.42C726.14,-84.65 736.8,-85.94 747.42,-87.23"/>
<polygon fill="midnightblue" stroke="midnightblue" points="747.23,-90.74 757.58,-88.47 748.08,-83.79 747.23,-90.74"/>
</g>
<!-- Node11 -->
<g id="node11" class="node">
<title>Node11</title>
<g id="a_node11"><a xlink:href="../../da/d82/classDynamicSpriteFont_a60cbfbf43aa1bebceaf16a64457fc297.html#a60cbfbf43aa1bebceaf16a64457fc297" target="_top" xlink:title=" ">
<polygon fill="white" stroke="black" points="759.5,-39 759.5,-69 914.5,-69 914.5,-39 759.5,-39"/>
<text text-anchor="start" x="767.5" y="-57" font-family="Helvetica,sans-Serif" font-size="10.00">DynamicSpriteFont.Measure</text>
<text text-anchor="middle" x="837" y="-46" font-family="Helvetica,sans-Serif" font-size="10.00">String</text>
</a>
</g>
</g>
<!-- Node8&#45;&gt;Node11 -->
<g id="edge10" class="edge">
<title>Node8&#45;&gt;Node11</title>
<path fill="none" stroke="midnightblue" d="M716.03,-68.58C726.63,-67.29 737.85,-65.93 748.99,-64.58"/>
<polygon fill="midnightblue" stroke="midnightblue" points="749.68,-68.02 759.19,-63.34 748.84,-61.07 749.68,-68.02"/>
</g>
<!-- Node13 -->
<g id="node13" class="node">
<title>Node13</title>
<g id="a_node13"><a xlink:href="../../d1/de0/structStyleDimension_a0c959bcdc133227ba2a5226e8cd4d4c4.html#a0c959bcdc133227ba2a5226e8cd4d4c4" target="_top" xlink:title=" ">
<polygon fill="white" stroke="black" points="780.5,-0.5 780.5,-19.5 893.5,-19.5 893.5,-0.5 780.5,-0.5"/>
<text text-anchor="middle" x="837" y="-7.5" font-family="Helvetica,sans-Serif" font-size="10.00">StyleDimension.Set</text>
</a>
</g>
</g>
<!-- Node8&#45;&gt;Node13 -->
<g id="edge12" class="edge">
<title>Node8&#45;&gt;Node13</title>
<path fill="none" stroke="midnightblue" d="M672.41,-66.38C691.47,-56.17 723.17,-40.14 752,-30 760.52,-27 769.67,-24.31 778.7,-21.94"/>
<polygon fill="midnightblue" stroke="midnightblue" points="779.56,-25.34 788.41,-19.5 777.85,-18.55 779.56,-25.34"/>
</g>
<!-- Node12 -->
<g id="node12" class="node">
<title>Node12</title>
<g id="a_node12"><a xlink:href="../../da/d82/classDynamicSpriteFont_a7ea9789665f8d0638966e54a9b4536f6.html#a7ea9789665f8d0638966e54a9b4536f6" target="_top" xlink:title=" ">
<polygon fill="white" stroke="black" points="958,-44.5 958,-63.5 1158,-63.5 1158,-44.5 958,-44.5"/>
<text text-anchor="middle" x="1058" y="-51.5" font-family="Helvetica,sans-Serif" font-size="10.00">DynamicSpriteFont.GetCharacterData</text>
</a>
</g>
</g>
<!-- Node11&#45;&gt;Node12 -->
<g id="edge11" class="edge">
<title>Node11&#45;&gt;Node12</title>
<path fill="none" stroke="midnightblue" d="M914.6,-54C925.27,-54 936.4,-54 947.53,-54"/>
<polygon fill="midnightblue" stroke="midnightblue" points="947.74,-57.5 957.74,-54 947.74,-50.5 947.74,-57.5"/>
</g>
</g>
</svg>
