<?xml version="1.0" encoding="UTF-8" standalone="no"?>
<!DOCTYPE svg PUBLIC "-//W3C//DTD SVG 1.1//EN"
 "http://www.w3.org/Graphics/SVG/1.1/DTD/svg11.dtd">
<!-- Generated by graphviz version 2.43.0 (0)
 -->
<!-- Title: Terraria.GameContent.UI.States.UIVirtualKeyboard.PressSpace Pages: 1 -->
<svg width="641pt" height="156pt"
 viewBox="0.00 0.00 641.00 156.00" xmlns="http://www.w3.org/2000/svg" xmlns:xlink="http://www.w3.org/1999/xlink">
<g id="graph0" class="graph" transform="scale(1 1) rotate(0) translate(4 152)">
<title>Terraria.GameContent.UI.States.UIVirtualKeyboard.PressSpace</title>
<!-- Node1 -->
<g id="Node000001" class="node">
<title>Node1</title>
<g id="a_Node000001"><a xlink:title=" ">
<polygon fill="#999999" stroke="#666666" points="197,-82 0,-82 0,-52 197,-52 197,-82"/>
<text text-anchor="start" x="8" y="-70" font-family="Helvetica,sans-Serif" font-size="10.00">Terraria.GameContent.UI.</text>
<text text-anchor="middle" x="98.5" y="-59" font-family="Helvetica,sans-Serif" font-size="10.00">States.UIVirtualKeyboard.PressSpace</text>
</a>
</g>
</g>
<!-- Node2 -->
<g id="Node000002" class="node">
<title>Node2</title>
<g id="a_Node000002"><a xlink:href="../../d3/d78/classTerraria_1_1Audio_1_1SoundEngine_a65b4b1502c673e839c9bd620e23b2c94.html#a65b4b1502c673e839c9bd620e23b2c94" target="_top" xlink:title=" ">
<polygon fill="white" stroke="#666666" points="410.5,-130 257.5,-130 257.5,-100 410.5,-100 410.5,-130"/>
<text text-anchor="start" x="265.5" y="-118" font-family="Helvetica,sans-Serif" font-size="10.00">Terraria.Audio.SoundEngine.</text>
<text text-anchor="middle" x="334" y="-107" font-family="Helvetica,sans-Serif" font-size="10.00">PlaySound</text>
</a>
</g>
</g>
<!-- Node1&#45;&gt;Node2 -->
<g id="edge1_Node000001_Node000002" class="edge">
<title>Node1&#45;&gt;Node2</title>
<g id="a_edge1_Node000001_Node000002"><a xlink:title=" ">
<path fill="none" stroke="#63b8ff" d="M172.74,-82.06C197.3,-87.1 224.86,-92.77 250.1,-97.96"/>
<polygon fill="#63b8ff" stroke="#63b8ff" points="249.52,-101.41 260.02,-100 250.93,-94.56 249.52,-101.41"/>
</a>
</g>
</g>
<!-- Node3 -->
<g id="Node000003" class="node">
<title>Node3</title>
<g id="a_Node000003"><a xlink:href="../../d8/d7b/classTerraria_1_1GameContent_1_1UI_1_1States_1_1UIVirtualKeyboard_acd874e8396f2c5f6962a43c14803fe03.html#acd874e8396f2c5f6962a43c14803fe03" target="_top" xlink:title=" ">
<polygon fill="white" stroke="#666666" points="435,-82 233,-82 233,-52 435,-52 435,-82"/>
<text text-anchor="start" x="241" y="-70" font-family="Helvetica,sans-Serif" font-size="10.00">Terraria.GameContent.UI.</text>
<text text-anchor="middle" x="334" y="-59" font-family="Helvetica,sans-Serif" font-size="10.00">States.UIVirtualKeyboard.ValidateText</text>
</a>
</g>
</g>
<!-- Node1&#45;&gt;Node3 -->
<g id="edge3_Node000001_Node000003" class="edge">
<title>Node1&#45;&gt;Node3</title>
<g id="a_edge3_Node000001_Node000003"><a xlink:title=" ">
<path fill="none" stroke="#63b8ff" d="M197.17,-67C205.52,-67 214.01,-67 222.45,-67"/>
<polygon fill="#63b8ff" stroke="#63b8ff" points="222.72,-70.5 232.72,-67 222.72,-63.5 222.72,-70.5"/>
</a>
</g>
</g>
<!-- Node5 -->
<g id="Node000005" class="node">
<title>Node5</title>
<g id="a_Node000005"><a xlink:href="../../d5/dec/classTerraria_1_1GameContent_1_1UI_1_1Elements_1_1UITextBox_a434dbb7ee75b8868be75f8c3e378cc5e.html#a434dbb7ee75b8868be75f8c3e378cc5e" target="_top" xlink:title=" ">
<polygon fill="white" stroke="#666666" points="406,-33 262,-33 262,-3 406,-3 406,-33"/>
<text text-anchor="start" x="270" y="-21" font-family="Helvetica,sans-Serif" font-size="10.00">Terraria.GameContent.UI.</text>
<text text-anchor="middle" x="334" y="-10" font-family="Helvetica,sans-Serif" font-size="10.00">Elements.UITextBox.Write</text>
</a>
</g>
</g>
<!-- Node1&#45;&gt;Node5 -->
<g id="edge5_Node000001_Node000005" class="edge">
<title>Node1&#45;&gt;Node5</title>
<g id="a_edge5_Node000001_Node000005"><a xlink:title=" ">
<path fill="none" stroke="#63b8ff" d="M171.14,-51.97C196.7,-46.6 225.67,-40.52 251.96,-35.01"/>
<polygon fill="#63b8ff" stroke="#63b8ff" points="252.82,-38.4 261.89,-32.92 251.39,-31.55 252.82,-38.4"/>
</a>
</g>
</g>
<!-- Node2&#45;&gt;Node2 -->
<g id="edge2_Node000002_Node000002" class="edge">
<title>Node2&#45;&gt;Node2</title>
<g id="a_edge2_Node000002_Node000002"><a xlink:title=" ">
<path fill="none" stroke="#63b8ff" d="M295.68,-130.28C287.16,-139.41 299.94,-148 334,-148 354.22,-148 366.94,-144.97 372.16,-140.6"/>
<polygon fill="#63b8ff" stroke="#63b8ff" points="375.66,-140.33 372.32,-130.28 368.66,-140.22 375.66,-140.33"/>
</a>
</g>
</g>
<!-- Node4 -->
<g id="Node000004" class="node">
<title>Node4</title>
<g id="a_Node000004"><a xlink:href="../../d8/d7b/classTerraria_1_1GameContent_1_1UI_1_1States_1_1UIVirtualKeyboard_a4d0a49981b9ffff1aab504fdec1a4a69.html#a4d0a49981b9ffff1aab504fdec1a4a69" target="_top" xlink:title=" ">
<polygon fill="white" stroke="#666666" points="633,-89.5 471,-89.5 471,-48.5 633,-48.5 633,-89.5"/>
<text text-anchor="start" x="479" y="-77.5" font-family="Helvetica,sans-Serif" font-size="10.00">Terraria.GameContent.UI.</text>
<text text-anchor="start" x="479" y="-66.5" font-family="Helvetica,sans-Serif" font-size="10.00">States.UIVirtualKeyboard.Text</text>
<text text-anchor="middle" x="552" y="-55.5" font-family="Helvetica,sans-Serif" font-size="10.00">IsValidForSubmit</text>
</a>
</g>
</g>
<!-- Node3&#45;&gt;Node4 -->
<g id="edge4_Node000003_Node000004" class="edge">
<title>Node3&#45;&gt;Node4</title>
<g id="a_edge4_Node000003_Node000004"><a xlink:title=" ">
<path fill="none" stroke="#63b8ff" d="M435.1,-67.93C443.65,-68.01 452.27,-68.09 460.73,-68.16"/>
<polygon fill="#63b8ff" stroke="#63b8ff" points="460.94,-71.67 470.98,-68.26 461.01,-64.67 460.94,-71.67"/>
</a>
</g>
</g>
<!-- Node6 -->
<g id="Node000006" class="node">
<title>Node6</title>
<g id="a_Node000006"><a xlink:href="../../d5/dec/classTerraria_1_1GameContent_1_1UI_1_1Elements_1_1UITextBox_ae75c01e7bc43eae39b018b52aabe5e6f.html#ae75c01e7bc43eae39b018b52aabe5e6f" target="_top" xlink:title=" ">
<polygon fill="white" stroke="#666666" points="629,-30 475,-30 475,0 629,0 629,-30"/>
<text text-anchor="start" x="483" y="-18" font-family="Helvetica,sans-Serif" font-size="10.00">Terraria.GameContent.UI.</text>
<text text-anchor="middle" x="552" y="-7" font-family="Helvetica,sans-Serif" font-size="10.00">Elements.UITextBox.SetText</text>
</a>
</g>
</g>
<!-- Node5&#45;&gt;Node6 -->
<g id="edge6_Node000005_Node000006" class="edge">
<title>Node5&#45;&gt;Node6</title>
<g id="a_edge6_Node000005_Node000006"><a xlink:title=" ">
<path fill="none" stroke="#63b8ff" d="M406.03,-17.01C424.77,-16.75 445.2,-16.47 464.66,-16.2"/>
<polygon fill="#63b8ff" stroke="#63b8ff" points="464.78,-19.7 474.73,-16.06 464.68,-12.7 464.78,-19.7"/>
</a>
</g>
</g>
</g>
</svg>
