<?xml version="1.0" encoding="UTF-8" standalone="no"?>
<!DOCTYPE svg PUBLIC "-//W3C//DTD SVG 1.1//EN"
 "http://www.w3.org/Graphics/SVG/1.1/DTD/svg11.dtd">
<!-- Generated by graphviz version 2.43.0 (0)
 -->
<!-- Title: Terraria.DataStructures.PlayerDrawLayers.DrawPlayer_07_LeinforsHairShampoo Pages: 1 -->
<!--zoomable 187 -->

<svg id="main" version="1.1" xmlns="http://www.w3.org/2000/svg" xmlns:xlink="http://www.w3.org/1999/xlink" xml:space="preserve" onload="init(evt)">
<style type="text/css"><![CDATA[
.node, .edge {opacity: 0.7;}
.node.selected, .edge.selected {opacity: 1;}
.edge:hover path { stroke: red; }
.edge:hover polygon { stroke: red; fill: red; }
]]></style>

<defs>
  <circle id="rim" cx="0" cy="0" r="7"/>
  <circle id="rim2" cx="0" cy="0" r="3.5"/>
  <g id="zoomPlus">
    <use xlink:href="#rim" fill="#404040"><set attributeName="fill" to="#808080" begin="zoomplus.mouseover" end="zoomplus.mouseout"/></use>
    <path d="M-4,0h8M0,-4v8" fill="none" stroke="white" stroke-width="1.5" pointer-events="none"/>
  </g>
  <g id="zoomMin">
    <use xlink:href="#rim" fill="#404040"><set attributeName="fill" to="#808080" begin="zoomminus.mouseover" end="zoomminus.mouseout"/></use>
    <path d="M-4,0h8" fill="none" stroke="white" stroke-width="1.5" pointer-events="none"/>
  </g>
  <g id="arrowUp" transform="translate(30 24)">
    <use xlink:href="#rim"/>
    <path pointer-events="none" fill="none" stroke="white" stroke-width="1.5" d="M0,-3.0v7 M-2.5,-0.5L0,-3.0L2.5,-0.5"/>
  </g>
  <g id="arrowRight" transform="rotate(90) translate(36 -43)">
    <use xlink:href="#rim"/>
    <path pointer-events="none" fill="none" stroke="white" stroke-width="1.5" d="M0,-3.0v7 M-2.5,-0.5L0,-3.0L2.5,-0.5"/>
  </g>
  <g id="arrowDown" transform="rotate(180) translate(-30 -48)">
    <use xlink:href="#rim"/>
    <path pointer-events="none" fill="none" stroke="white" stroke-width="1.5" d="M0,-3.0v7 M-2.5,-0.5L0,-3.0L2.5,-0.5"/>
  </g>
  <g id="arrowLeft" transform="rotate(270) translate(-36 17)">
    <use xlink:href="#rim"/>
    <path pointer-events="none" fill="none" stroke="white" stroke-width="1.5" d="M0,-3.0v7 M-2.5,-0.5L0,-3.0L2.5,-0.5"/>
  </g>
  <g id="resetDef">
    <use xlink:href="#rim2" fill="#404040"><set attributeName="fill" to="#808080" begin="reset.mouseover" end="reset.mouseout"/></use>
  </g>
</defs>
<script type="application/ecmascript">
var viewWidth = 751;
var viewHeight = 187;
var sectionId = 'dynsection-0';
</script>
<script type="application/ecmascript" xlink:href="../../svg.min.js"/>
<svg id="graph" class="graph">
<g id="viewport">
<title>Terraria.DataStructures.PlayerDrawLayers.DrawPlayer_07_LeinforsHairShampoo</title>
<!-- Node1 -->
<g id="Node000001" class="node">
<title>Node1</title>
<g id="a_Node000001"><a xlink:title=" ">
<polygon fill="#999999" stroke="#666666" points="164,-134 0,-134 0,-93 164,-93 164,-134"/>
<text text-anchor="start" x="8" y="-122" font-family="Helvetica,sans-Serif" font-size="10.00">Terraria.DataStructures.</text>
<text text-anchor="start" x="8" y="-111" font-family="Helvetica,sans-Serif" font-size="10.00">PlayerDrawLayers.DrawPlayer</text>
<text text-anchor="middle" x="82" y="-100" font-family="Helvetica,sans-Serif" font-size="10.00">_07_LeinforsHairShampoo</text>
</a>
</g>
</g>
<!-- Node2 -->
<g id="Node000002" class="node">
<title>Node2</title>
<g id="a_Node000002"><a xlink:href="../../d1/d9c/classTerraria_1_1Utils_af1719e7aa7cb20441b26320d7eef901c.html#af1719e7aa7cb20441b26320d7eef901c" target="_top" xlink:title=" ">
<polygon fill="white" stroke="#666666" points="375,-160 200,-160 200,-141 375,-141 375,-160"/>
<text text-anchor="middle" x="287.5" y="-148" font-family="Helvetica,sans-Serif" font-size="10.00">Terraria.Utils.CenteredRectangle</text>
</a>
</g>
</g>
<!-- Node1&#45;&gt;Node2 -->
<g id="edge1_Node000001_Node000002" class="edge">
<title>Node1&#45;&gt;Node2</title>
<g id="a_edge1_Node000001_Node000002"><a xlink:title=" ">
<path fill="none" stroke="#63b8ff" d="M164.01,-128.23C184.03,-131.87 205.16,-135.71 224.13,-139.16"/>
<polygon fill="#63b8ff" stroke="#63b8ff" points="223.66,-142.63 234.13,-140.98 224.91,-135.74 223.66,-142.63"/>
</a>
</g>
</g>
<!-- Node3 -->
<g id="Node000003" class="node">
<title>Node3</title>
<g id="a_Node000003"><a xlink:href="../../dc/de5/classTerraria_1_1Dust_a977a36a9376966862406a3094e3b70ab.html#a977a36a9376966862406a3094e3b70ab" target="_top" xlink:title=" ">
<polygon fill="white" stroke="#666666" points="350.5,-123 224.5,-123 224.5,-104 350.5,-104 350.5,-123"/>
<text text-anchor="middle" x="287.5" y="-111" font-family="Helvetica,sans-Serif" font-size="10.00">Terraria.Dust.NewDust</text>
</a>
</g>
</g>
<!-- Node1&#45;&gt;Node3 -->
<g id="edge2_Node000001_Node000003" class="edge">
<title>Node1&#45;&gt;Node3</title>
<g id="a_edge2_Node000001_Node000003"><a xlink:title=" ">
<path fill="none" stroke="#63b8ff" d="M164.01,-113.5C180.47,-113.5 197.68,-113.5 213.83,-113.5"/>
<polygon fill="#63b8ff" stroke="#63b8ff" points="214.27,-117 224.27,-113.5 214.27,-110 214.27,-117"/>
</a>
</g>
</g>
<!-- Node11 -->
<g id="Node000011" class="node">
<title>Node11</title>
<g id="a_Node000011"><a xlink:href="../../da/dd5/classTerraria_1_1Main_aba54d6a437cb7ecd12fdd4aa36cb45d2.html#aba54d6a437cb7ecd12fdd4aa36cb45d2" target="_top" xlink:title=" ">
<polygon fill="white" stroke="#666666" points="350,-86 225,-86 225,-67 350,-67 350,-86"/>
<text text-anchor="middle" x="287.5" y="-74" font-family="Helvetica,sans-Serif" font-size="10.00">Terraria.Main.rgbToHsl</text>
</a>
</g>
</g>
<!-- Node1&#45;&gt;Node11 -->
<g id="edge10_Node000001_Node000011" class="edge">
<title>Node1&#45;&gt;Node11</title>
<g id="a_edge10_Node000001_Node000011"><a xlink:title=" ">
<path fill="none" stroke="#63b8ff" d="M164.01,-98.77C184.03,-95.13 205.16,-91.29 224.13,-87.84"/>
<polygon fill="#63b8ff" stroke="#63b8ff" points="224.91,-91.26 234.13,-86.02 223.66,-84.37 224.91,-91.26"/>
</a>
</g>
</g>
<!-- Node4 -->
<g id="Node000004" class="node">
<title>Node4</title>
<g id="a_Node000004"><a xlink:href="../../d9/db1/classTerraria_1_1Utilities_1_1UnifiedRandom_ac4ecc6320b69ab939b9c45eaf7d89000.html#ac4ecc6320b69ab939b9c45eaf7d89000" target="_top" xlink:title=" ">
<polygon fill="white" stroke="#666666" points="558,-159.5 426,-159.5 426,-129.5 558,-129.5 558,-159.5"/>
<text text-anchor="start" x="434" y="-147.5" font-family="Helvetica,sans-Serif" font-size="10.00">Terraria.Utilities.Unified</text>
<text text-anchor="middle" x="492" y="-136.5" font-family="Helvetica,sans-Serif" font-size="10.00">Random.Next</text>
</a>
</g>
</g>
<!-- Node3&#45;&gt;Node4 -->
<g id="edge3_Node000003_Node000004" class="edge">
<title>Node3&#45;&gt;Node4</title>
<g id="a_edge3_Node000003_Node000004"><a xlink:title=" ">
<path fill="none" stroke="#63b8ff" d="M350.63,-123.01C371.21,-126.16 394.33,-129.7 415.78,-132.98"/>
<polygon fill="#63b8ff" stroke="#63b8ff" points="415.41,-136.47 425.83,-134.52 416.47,-129.55 415.41,-136.47"/>
</a>
</g>
</g>
<!-- Node6 -->
<g id="Node000006" class="node">
<title>Node6</title>
<g id="a_Node000006"><a xlink:href="../../de/d1d/classTerraria_1_1Collision_a1c65206ace403aa59afc32d20e5d282e.html#a1c65206ace403aa59afc32d20e5d282e" target="_top" xlink:title=" ">
<polygon fill="white" stroke="#666666" points="573,-93 411,-93 411,-74 573,-74 573,-93"/>
<text text-anchor="middle" x="492" y="-81" font-family="Helvetica,sans-Serif" font-size="10.00">Terraria.Collision.WetCollision</text>
</a>
</g>
</g>
<!-- Node3&#45;&gt;Node6 -->
<g id="edge5_Node000003_Node000006" class="edge">
<title>Node3&#45;&gt;Node6</title>
<g id="a_edge5_Node000003_Node000006"><a xlink:title=" ">
<path fill="none" stroke="#63b8ff" d="M350.63,-104.3C371.41,-101.22 394.78,-97.75 416.41,-94.55"/>
<polygon fill="#63b8ff" stroke="#63b8ff" points="417.15,-97.98 426.53,-93.05 416.13,-91.05 417.15,-97.98"/>
</a>
</g>
</g>
<!-- Node5 -->
<g id="Node000005" class="node">
<title>Node5</title>
<g id="a_Node000005"><a xlink:href="../../d9/db1/classTerraria_1_1Utilities_1_1UnifiedRandom_a173f09196ff526b107c0223c2d58c59a.html#a173f09196ff526b107c0223c2d58c59a" target="_top" xlink:title=" ">
<polygon fill="white" stroke="#666666" points="743,-178.5 609,-178.5 609,-148.5 743,-148.5 743,-178.5"/>
<text text-anchor="start" x="617" y="-166.5" font-family="Helvetica,sans-Serif" font-size="10.00">Terraria.Utilities.Unified</text>
<text text-anchor="middle" x="676" y="-155.5" font-family="Helvetica,sans-Serif" font-size="10.00">Random.InternalSample</text>
</a>
</g>
</g>
<!-- Node4&#45;&gt;Node5 -->
<g id="edge4_Node000004_Node000005" class="edge">
<title>Node4&#45;&gt;Node5</title>
<g id="a_edge4_Node000004_Node000005"><a xlink:title=" ">
<path fill="none" stroke="#63b8ff" d="M558.19,-151.31C571.28,-152.67 585.14,-154.12 598.57,-155.52"/>
<polygon fill="#63b8ff" stroke="#63b8ff" points="598.42,-159.02 608.73,-156.58 599.15,-152.06 598.42,-159.02"/>
</a>
</g>
</g>
<!-- Node7 -->
<g id="Node000007" class="node">
<title>Node7</title>
<g id="a_Node000007"><a xlink:href="../../d3/ddc/classTerraria_1_1Tile_a9a3f37926e6d7f23ba057d6c0aeab1a5.html#a9a3f37926e6d7f23ba057d6c0aeab1a5" target="_top" xlink:title=" ">
<polygon fill="white" stroke="#666666" points="729.5,-130 622.5,-130 622.5,-111 729.5,-111 729.5,-130"/>
<text text-anchor="middle" x="676" y="-118" font-family="Helvetica,sans-Serif" font-size="10.00">Terraria.Tile.active</text>
</a>
</g>
</g>
<!-- Node6&#45;&gt;Node7 -->
<g id="edge6_Node000006_Node000007" class="edge">
<title>Node6&#45;&gt;Node7</title>
<g id="a_edge6_Node000006_Node000007"><a xlink:title=" ">
<path fill="none" stroke="#63b8ff" d="M539.87,-93.03C563.66,-97.86 592.76,-103.78 617.85,-108.88"/>
<polygon fill="#63b8ff" stroke="#63b8ff" points="617.48,-112.38 627.97,-110.94 618.87,-105.52 617.48,-112.38"/>
</a>
</g>
</g>
<!-- Node8 -->
<g id="Node000008" class="node">
<title>Node8</title>
<g id="a_Node000008"><a xlink:href="../../d3/ddc/classTerraria_1_1Tile_abce32b6727439dc5fd177ed547a260a6.html#abce32b6727439dc5fd177ed547a260a6" target="_top" xlink:title=" ">
<polygon fill="white" stroke="#666666" points="729.5,-93 622.5,-93 622.5,-74 729.5,-74 729.5,-93"/>
<text text-anchor="middle" x="676" y="-81" font-family="Helvetica,sans-Serif" font-size="10.00">Terraria.Tile.honey</text>
</a>
</g>
</g>
<!-- Node6&#45;&gt;Node8 -->
<g id="edge7_Node000006_Node000008" class="edge">
<title>Node6&#45;&gt;Node8</title>
<g id="a_edge7_Node000006_Node000008"><a xlink:title=" ">
<path fill="none" stroke="#63b8ff" d="M573.09,-83.5C586.13,-83.5 599.47,-83.5 612.03,-83.5"/>
<polygon fill="#63b8ff" stroke="#63b8ff" points="612.36,-87 622.36,-83.5 612.36,-80 612.36,-87"/>
</a>
</g>
</g>
<!-- Node9 -->
<g id="Node000009" class="node">
<title>Node9</title>
<g id="a_Node000009"><a xlink:href="../../d3/ddc/classTerraria_1_1Tile_ac658b0c4cc04dc4d86deb55b99decfc5.html#ac658b0c4cc04dc4d86deb55b99decfc5" target="_top" xlink:title=" ">
<polygon fill="white" stroke="#666666" points="736.5,-56 615.5,-56 615.5,-37 736.5,-37 736.5,-56"/>
<text text-anchor="middle" x="676" y="-44" font-family="Helvetica,sans-Serif" font-size="10.00">Terraria.Tile.shimmer</text>
</a>
</g>
</g>
<!-- Node6&#45;&gt;Node9 -->
<g id="edge8_Node000006_Node000009" class="edge">
<title>Node6&#45;&gt;Node9</title>
<g id="a_edge8_Node000006_Node000009"><a xlink:title=" ">
<path fill="none" stroke="#63b8ff" d="M539.87,-73.97C563.66,-69.14 592.76,-63.22 617.85,-58.12"/>
<polygon fill="#63b8ff" stroke="#63b8ff" points="618.87,-61.48 627.97,-56.06 617.48,-54.62 618.87,-61.48"/>
</a>
</g>
</g>
<!-- Node10 -->
<g id="Node000010" class="node">
<title>Node10</title>
<g id="a_Node000010"><a xlink:href="../../d3/ddc/classTerraria_1_1Tile_ab9bfb24365d03f2b4fe0842f6a406765.html#ab9bfb24365d03f2b4fe0842f6a406765" target="_top" xlink:title=" ">
<polygon fill="white" stroke="#666666" points="728,-19 624,-19 624,0 728,0 728,-19"/>
<text text-anchor="middle" x="676" y="-7" font-family="Helvetica,sans-Serif" font-size="10.00">Terraria.Tile.slope</text>
</a>
</g>
</g>
<!-- Node6&#45;&gt;Node10 -->
<g id="edge9_Node000006_Node000010" class="edge">
<title>Node6&#45;&gt;Node10</title>
<g id="a_edge9_Node000006_Node000010"><a xlink:title=" ">
<path fill="none" stroke="#63b8ff" d="M510.25,-73.93C532.53,-61.86 572.77,-41.06 609,-27.5 614.21,-25.55 619.73,-23.71 625.27,-22.01"/>
<polygon fill="#63b8ff" stroke="#63b8ff" points="626.58,-25.27 635.19,-19.09 624.61,-18.55 626.58,-25.27"/>
</a>
</g>
</g>
</g>
</svg>

<g id="navigator" transform="translate(0 0)" fill="#404254">
  <rect fill="#f2f5e9" fill-opacity="0.5" stroke="#606060" stroke-width=".5" x="0" y="0" width="60" height="60"/>
  <use id="zoomplus" xlink:href="#zoomPlus" x="17" y="9" onmousedown="handleZoom(evt,'in')"/>
  <use id="zoomminus" xlink:href="#zoomMin" x="42" y="9" onmousedown="handleZoom(evt,'out')"/>
  <use id="reset" xlink:href="#resetDef" x="30" y="36" onmousedown="handleReset()"/>
   <use id="arrowup" xlink:href="#arrowUp" x="0" y="0" onmousedown="handlePan(0,-1)"/>
  <use id="arrowright" xlink:href="#arrowRight" x="0" y="0" onmousedown="handlePan(1,0)"/>
  <use id="arrowdown" xlink:href="#arrowDown" x="0" y="0" onmousedown="handlePan(0,1)"/>
  <use id="arrowleft" xlink:href="#arrowLeft" x="0" y="0" onmousedown="handlePan(-1,0)"/>
</g>
<svg viewBox="0 0 15 15" width="100%" height="30px" preserveAspectRatio="xMaxYMin meet">
 <g id="arrow_out" transform="scale(0.3 0.3)">
  <a xlink:href="classTerraria_1_1DataStructures_1_1PlayerDrawLayers_ad4fc556075cc82678805e6fd8a56ac4e_ad4fc556075cc82678805e6fd8a56ac4e_cgraph_org.svg" target="_base">
   <rect id="button" ry="5" rx="5" y="6" x="6" height="38" width="38"
        fill="#f2f5e9" fill-opacity="0.5" stroke="#606060" stroke-width="1.0"/>
   <path id="arrow"
     d="M 11.500037,31.436501 C 11.940474,20.09759 22.043105,11.32322 32.158766,21.979434 L 37.068811,17.246167 C 37.068811,17.246167 37.088388,32 37.088388,32 L 22.160133,31.978069 C 22.160133,31.978069 26.997745,27.140456 26.997745,27.140456 C 18.528582,18.264221 13.291696,25.230495 11.500037,31.436501 z"
     style="fill:#404040;"/>
  </a>
 </g>
</svg>

<style type='text/css'>
<![CDATA[
[data-mouse-over-selected='false'] { opacity: 0.7; }
[data-mouse-over-selected='true']  { opacity: 1.0; }
]]>
</style>
<script type="application/ecmascript"><![CDATA[
document.addEventListener('DOMContentLoaded', (event) => {
  highlightEdges();
  highlightAdjacentNodes();
});
]]></script>
</svg>
