<?xml version="1.0" encoding="UTF-8" standalone="no"?>
<!DOCTYPE svg PUBLIC "-//W3C//DTD SVG 1.1//EN"
 "http://www.w3.org/Graphics/SVG/1.1/DTD/svg11.dtd">
<!-- Generated by graphviz version 2.43.0 (0)
 -->
<!-- Title: Terraria.DataStructures.PlayerDrawLayers.GetCompositeOffset_FrontArm Pages: 1 -->
<svg width="1492pt" height="108pt"
 viewBox="0.00 0.00 1492.00 108.00" xmlns="http://www.w3.org/2000/svg" xmlns:xlink="http://www.w3.org/1999/xlink">
<g id="graph0" class="graph" transform="scale(1 1) rotate(0) translate(4 104)">
<title>Terraria.DataStructures.PlayerDrawLayers.GetCompositeOffset_FrontArm</title>
<!-- Node1 -->
<g id="Node000001" class="node">
<title>Node1</title>
<g id="a_Node000001"><a xlink:title=" ">
<polygon fill="#999999" stroke="#666666" points="1484,-70 1306,-70 1306,-29 1484,-29 1484,-70"/>
<text text-anchor="start" x="1314" y="-58" font-family="Helvetica,sans-Serif" font-size="10.00">Terraria.DataStructures.</text>
<text text-anchor="start" x="1314" y="-47" font-family="Helvetica,sans-Serif" font-size="10.00">PlayerDrawLayers.GetComposite</text>
<text text-anchor="middle" x="1395" y="-36" font-family="Helvetica,sans-Serif" font-size="10.00">Offset_FrontArm</text>
</a>
</g>
</g>
<!-- Node2 -->
<g id="Node000002" class="node">
<title>Node2</title>
<g id="a_Node000002"><a xlink:href="../../d3/d28/classTerraria_1_1DataStructures_1_1PlayerDrawLayers_a13bcd2a93e29e4778fda2113e6a5749c.html#a13bcd2a93e29e4778fda2113e6a5749c" target="_top" xlink:title=" ">
<polygon fill="white" stroke="#666666" points="1270,-100 1106,-100 1106,-59 1270,-59 1270,-100"/>
<text text-anchor="start" x="1114" y="-88" font-family="Helvetica,sans-Serif" font-size="10.00">Terraria.DataStructures.</text>
<text text-anchor="start" x="1114" y="-77" font-family="Helvetica,sans-Serif" font-size="10.00">PlayerDrawLayers.DrawPlayer</text>
<text text-anchor="middle" x="1188" y="-66" font-family="Helvetica,sans-Serif" font-size="10.00">_12_Skin_Composite</text>
</a>
</g>
</g>
<!-- Node1&#45;&gt;Node2 -->
<g id="edge1_Node000001_Node000002" class="edge">
<title>Node1&#45;&gt;Node2</title>
<g id="a_edge1_Node000001_Node000002"><a xlink:title=" ">
<path fill="none" stroke="#63b8ff" d="M1295.84,-63.86C1287.27,-65.12 1278.66,-66.38 1270.25,-67.61"/>
<polygon fill="#63b8ff" stroke="#63b8ff" points="1296.48,-67.31 1305.87,-62.4 1295.47,-60.38 1296.48,-67.31"/>
</a>
</g>
</g>
<!-- Node8 -->
<g id="Node000008" class="node">
<title>Node8</title>
<g id="a_Node000008"><a xlink:href="../../d3/d28/classTerraria_1_1DataStructures_1_1PlayerDrawLayers_a432aca5c9445f6a564a947059511a55e.html#a432aca5c9445f6a564a947059511a55e" target="_top" xlink:title=" ">
<polygon fill="white" stroke="#666666" points="1270,-41 1106,-41 1106,0 1270,0 1270,-41"/>
<text text-anchor="start" x="1114" y="-29" font-family="Helvetica,sans-Serif" font-size="10.00">Terraria.DataStructures.</text>
<text text-anchor="start" x="1114" y="-18" font-family="Helvetica,sans-Serif" font-size="10.00">PlayerDrawLayers.DrawPlayer</text>
<text text-anchor="middle" x="1188" y="-7" font-family="Helvetica,sans-Serif" font-size="10.00">_28_ArmOverItemComposite</text>
</a>
</g>
</g>
<!-- Node1&#45;&gt;Node8 -->
<g id="edge7_Node000001_Node000008" class="edge">
<title>Node1&#45;&gt;Node8</title>
<g id="a_edge7_Node000001_Node000008"><a xlink:title=" ">
<path fill="none" stroke="#63b8ff" d="M1295.84,-35.61C1287.27,-34.4 1278.66,-33.18 1270.25,-31.99"/>
<polygon fill="#63b8ff" stroke="#63b8ff" points="1295.48,-39.1 1305.87,-37.03 1296.46,-32.17 1295.48,-39.1"/>
</a>
</g>
</g>
<!-- Node3 -->
<g id="Node000003" class="node">
<title>Node3</title>
<g id="a_Node000003"><a xlink:href="../../d3/d28/classTerraria_1_1DataStructures_1_1PlayerDrawLayers_aaa4959d64fa95806aa5dde3b1a236acf.html#aaa4959d64fa95806aa5dde3b1a236acf" target="_top" xlink:title=" ">
<polygon fill="white" stroke="#666666" points="1070,-100 906,-100 906,-59 1070,-59 1070,-100"/>
<text text-anchor="start" x="914" y="-88" font-family="Helvetica,sans-Serif" font-size="10.00">Terraria.DataStructures.</text>
<text text-anchor="start" x="914" y="-77" font-family="Helvetica,sans-Serif" font-size="10.00">PlayerDrawLayers.DrawPlayer</text>
<text text-anchor="middle" x="988" y="-66" font-family="Helvetica,sans-Serif" font-size="10.00">_12_Skin</text>
</a>
</g>
</g>
<!-- Node2&#45;&gt;Node3 -->
<g id="edge2_Node000002_Node000003" class="edge">
<title>Node2&#45;&gt;Node3</title>
<g id="a_edge2_Node000002_Node000003"><a xlink:title=" ">
<path fill="none" stroke="#63b8ff" d="M1095.64,-79.5C1087.18,-79.5 1078.65,-79.5 1070.3,-79.5"/>
<polygon fill="#63b8ff" stroke="#63b8ff" points="1095.89,-83 1105.89,-79.5 1095.89,-76 1095.89,-83"/>
</a>
</g>
</g>
<!-- Node4 -->
<g id="Node000004" class="node">
<title>Node4</title>
<g id="a_Node000004"><a xlink:href="../../d0/d10/classTerraria_1_1Graphics_1_1Renderers_1_1LegacyPlayerRenderer_a21ee417a793d606276fc35020307fe88.html#a21ee417a793d606276fc35020307fe88" target="_top" xlink:title=" ">
<polygon fill="white" stroke="#666666" points="870,-70 685,-70 685,-29 870,-29 870,-70"/>
<text text-anchor="start" x="693" y="-58" font-family="Helvetica,sans-Serif" font-size="10.00">Terraria.Graphics.Renderers.</text>
<text text-anchor="start" x="693" y="-47" font-family="Helvetica,sans-Serif" font-size="10.00">LegacyPlayerRenderer.DrawPlayer</text>
<text text-anchor="middle" x="777.5" y="-36" font-family="Helvetica,sans-Serif" font-size="10.00">_UseNormalLayers</text>
</a>
</g>
</g>
<!-- Node3&#45;&gt;Node4 -->
<g id="edge3_Node000003_Node000004" class="edge">
<title>Node3&#45;&gt;Node4</title>
<g id="a_edge3_Node000003_Node000004"><a xlink:title=" ">
<path fill="none" stroke="#63b8ff" d="M895.87,-66.39C887.36,-65.16 878.73,-63.92 870.21,-62.7"/>
<polygon fill="#63b8ff" stroke="#63b8ff" points="895.39,-69.86 905.79,-67.82 896.39,-62.93 895.39,-69.86"/>
</a>
</g>
</g>
<!-- Node5 -->
<g id="Node000005" class="node">
<title>Node5</title>
<g id="a_Node000005"><a xlink:href="../../d0/d10/classTerraria_1_1Graphics_1_1Renderers_1_1LegacyPlayerRenderer_a079be095611c894d8148919528421da4.html#a079be095611c894d8148919528421da4" target="_top" xlink:title=" ">
<polygon fill="white" stroke="#666666" points="649,-64.5 464,-64.5 464,-34.5 649,-34.5 649,-64.5"/>
<text text-anchor="start" x="472" y="-52.5" font-family="Helvetica,sans-Serif" font-size="10.00">Terraria.Graphics.Renderers.</text>
<text text-anchor="middle" x="556.5" y="-41.5" font-family="Helvetica,sans-Serif" font-size="10.00">LegacyPlayerRenderer.DrawPlayer</text>
</a>
</g>
</g>
<!-- Node4&#45;&gt;Node5 -->
<g id="edge4_Node000004_Node000005" class="edge">
<title>Node4&#45;&gt;Node5</title>
<g id="a_edge4_Node000004_Node000005"><a xlink:title=" ">
<path fill="none" stroke="#63b8ff" d="M674.85,-49.5C666.26,-49.5 657.6,-49.5 649.09,-49.5"/>
<polygon fill="#63b8ff" stroke="#63b8ff" points="674.89,-53 684.89,-49.5 674.89,-46 674.89,-53"/>
</a>
</g>
</g>
<!-- Node6 -->
<g id="Node000006" class="node">
<title>Node6</title>
<g id="a_Node000006"><a xlink:href="../../d0/d10/classTerraria_1_1Graphics_1_1Renderers_1_1LegacyPlayerRenderer_a77e682890657822db53a76bca78c604e.html#a77e682890657822db53a76bca78c604e" target="_top" xlink:title=" ">
<polygon fill="white" stroke="#666666" points="428,-64.5 226,-64.5 226,-34.5 428,-34.5 428,-64.5"/>
<text text-anchor="start" x="234" y="-52.5" font-family="Helvetica,sans-Serif" font-size="10.00">Terraria.Graphics.Renderers.</text>
<text text-anchor="middle" x="327" y="-41.5" font-family="Helvetica,sans-Serif" font-size="10.00">LegacyPlayerRenderer.DrawPlayerFull</text>
</a>
</g>
</g>
<!-- Node5&#45;&gt;Node6 -->
<g id="edge5_Node000005_Node000006" class="edge">
<title>Node5&#45;&gt;Node6</title>
<g id="a_edge5_Node000005_Node000006"><a xlink:title=" ">
<path fill="none" stroke="#63b8ff" d="M453.71,-49.5C445.27,-49.5 436.74,-49.5 428.3,-49.5"/>
<polygon fill="#63b8ff" stroke="#63b8ff" points="453.95,-53 463.95,-49.5 453.95,-46 453.95,-53"/>
</a>
</g>
</g>
<!-- Node7 -->
<g id="Node000007" class="node">
<title>Node7</title>
<g id="a_Node000007"><a xlink:href="../../d0/d10/classTerraria_1_1Graphics_1_1Renderers_1_1LegacyPlayerRenderer_a589e145d93da157a23d35afea5a17c13.html#a589e145d93da157a23d35afea5a17c13" target="_top" xlink:title=" ">
<polygon fill="white" stroke="#666666" points="190,-64.5 0,-64.5 0,-34.5 190,-34.5 190,-64.5"/>
<text text-anchor="start" x="8" y="-52.5" font-family="Helvetica,sans-Serif" font-size="10.00">Terraria.Graphics.Renderers.</text>
<text text-anchor="middle" x="95" y="-41.5" font-family="Helvetica,sans-Serif" font-size="10.00">LegacyPlayerRenderer.DrawPlayers</text>
</a>
</g>
</g>
<!-- Node6&#45;&gt;Node7 -->
<g id="edge6_Node000006_Node000007" class="edge">
<title>Node6&#45;&gt;Node7</title>
<g id="a_edge6_Node000006_Node000007"><a xlink:title=" ">
<path fill="none" stroke="#63b8ff" d="M215.74,-49.5C207.16,-49.5 198.54,-49.5 190.07,-49.5"/>
<polygon fill="#63b8ff" stroke="#63b8ff" points="215.79,-53 225.79,-49.5 215.79,-46 215.79,-53"/>
</a>
</g>
</g>
<!-- Node9 -->
<g id="Node000009" class="node">
<title>Node9</title>
<g id="a_Node000009"><a xlink:href="../../d3/d28/classTerraria_1_1DataStructures_1_1PlayerDrawLayers_a380e4bc339184cac210ddaf7ebe61038.html#a380e4bc339184cac210ddaf7ebe61038" target="_top" xlink:title=" ">
<polygon fill="white" stroke="#666666" points="1070,-41 906,-41 906,0 1070,0 1070,-41"/>
<text text-anchor="start" x="914" y="-29" font-family="Helvetica,sans-Serif" font-size="10.00">Terraria.DataStructures.</text>
<text text-anchor="start" x="914" y="-18" font-family="Helvetica,sans-Serif" font-size="10.00">PlayerDrawLayers.DrawPlayer</text>
<text text-anchor="middle" x="988" y="-7" font-family="Helvetica,sans-Serif" font-size="10.00">_28_ArmOverItem</text>
</a>
</g>
</g>
<!-- Node8&#45;&gt;Node9 -->
<g id="edge8_Node000008_Node000009" class="edge">
<title>Node8&#45;&gt;Node9</title>
<g id="a_edge8_Node000008_Node000009"><a xlink:title=" ">
<path fill="none" stroke="#63b8ff" d="M1095.64,-20.5C1087.18,-20.5 1078.65,-20.5 1070.3,-20.5"/>
<polygon fill="#63b8ff" stroke="#63b8ff" points="1095.89,-24 1105.89,-20.5 1095.89,-17 1095.89,-24"/>
</a>
</g>
</g>
<!-- Node9&#45;&gt;Node4 -->
<g id="edge9_Node000009_Node000004" class="edge">
<title>Node9&#45;&gt;Node4</title>
<g id="a_edge9_Node000009_Node000004"><a xlink:title=" ">
<path fill="none" stroke="#63b8ff" d="M895.87,-33.18C887.36,-34.36 878.73,-35.56 870.21,-36.74"/>
<polygon fill="#63b8ff" stroke="#63b8ff" points="896.37,-36.64 905.79,-31.8 895.4,-29.71 896.37,-36.64"/>
</a>
</g>
</g>
</g>
</svg>
