<?xml version="1.0" encoding="UTF-8" standalone="no"?>
<!DOCTYPE svg PUBLIC "-//W3C//DTD SVG 1.1//EN"
 "http://www.w3.org/Graphics/SVG/1.1/DTD/svg11.dtd">
<!-- Generated by graphviz version 2.43.0 (0)
 -->
<!-- Title: UIElement.RecalculateChildren Pages: 1 -->
<svg width="729pt" height="116pt"
 viewBox="0.00 0.00 729.00 116.00" xmlns="http://www.w3.org/2000/svg" xmlns:xlink="http://www.w3.org/1999/xlink">
<g id="graph0" class="graph" transform="scale(1 1) rotate(0) translate(4 112)">
<title>UIElement.RecalculateChildren</title>
<polygon fill="white" stroke="transparent" points="-4,4 -4,-112 725,-112 725,4 -4,4"/>
<!-- Node1 -->
<g id="node1" class="node">
<title>Node1</title>
<g id="a_node1"><a xlink:title=" ">
<polygon fill="#bfbfbf" stroke="black" points="0,-44.5 0,-63.5 168,-63.5 168,-44.5 0,-44.5"/>
<text text-anchor="middle" x="84" y="-51.5" font-family="Helvetica,sans-Serif" font-size="10.00">UIElement.RecalculateChildren</text>
</a>
</g>
</g>
<!-- Node2 -->
<g id="node2" class="node">
<title>Node2</title>
<g id="a_node2"><a xlink:href="../../de/db3/classUIElement_aee194ceb3c88758159e31761805e6a9d.html#aee194ceb3c88758159e31761805e6a9d" target="_top" xlink:title=" ">
<polygon fill="white" stroke="black" points="204,-44.5 204,-63.5 332,-63.5 332,-44.5 204,-44.5"/>
<text text-anchor="middle" x="268" y="-51.5" font-family="Helvetica,sans-Serif" font-size="10.00">UIElement.Recalculate</text>
</a>
</g>
</g>
<!-- Node1&#45;&gt;Node2 -->
<g id="edge1" class="edge">
<title>Node1&#45;&gt;Node2</title>
<path fill="none" stroke="midnightblue" d="M168.01,-47.27C176.61,-47.22 185.3,-47.25 193.78,-47.37"/>
<polygon fill="midnightblue" stroke="midnightblue" points="193.94,-50.87 204,-47.54 194.06,-43.87 193.94,-50.87"/>
</g>
<!-- Node2&#45;&gt;Node1 -->
<g id="edge6" class="edge">
<title>Node2&#45;&gt;Node1</title>
<path fill="none" stroke="midnightblue" d="M204,-60.46C195.65,-60.64 186.96,-60.73 178.24,-60.75"/>
<polygon fill="midnightblue" stroke="midnightblue" points="178.02,-57.25 168.01,-60.73 178,-64.25 178.02,-57.25"/>
</g>
<!-- Node3 -->
<g id="node3" class="node">
<title>Node3</title>
<g id="a_node3"><a xlink:href="../../df/de1/classUserInterface_a0cfc3c35a0f4df271c43ed2d90975df1.html#a0cfc3c35a0f4df271c43ed2d90975df1" target="_top" xlink:title=" ">
<polygon fill="white" stroke="black" points="375.5,-88.5 375.5,-107.5 536.5,-107.5 536.5,-88.5 375.5,-88.5"/>
<text text-anchor="middle" x="456" y="-95.5" font-family="Helvetica,sans-Serif" font-size="10.00">UserInterface.GetDimensions</text>
</a>
</g>
</g>
<!-- Node2&#45;&gt;Node3 -->
<g id="edge2" class="edge">
<title>Node2&#45;&gt;Node3</title>
<path fill="none" stroke="midnightblue" d="M305.6,-63.54C324.25,-68.33 347.29,-74.13 368,-79 378.26,-81.42 389.23,-83.89 399.81,-86.23"/>
<polygon fill="midnightblue" stroke="midnightblue" points="399.26,-89.69 409.78,-88.42 400.76,-82.85 399.26,-89.69"/>
</g>
<!-- Node4 -->
<g id="node4" class="node">
<title>Node4</title>
<g id="a_node4"><a xlink:href="../../de/db3/classUIElement_a5030449fa3a7231b282fb98cfdf1ce01.html#a5030449fa3a7231b282fb98cfdf1ce01" target="_top" xlink:title=" ">
<polygon fill="white" stroke="black" points="368,-39 368,-69 544,-69 544,-39 368,-39"/>
<text text-anchor="start" x="376" y="-57" font-family="Helvetica,sans-Serif" font-size="10.00">UIElement.GetDimensionsBased</text>
<text text-anchor="middle" x="456" y="-46" font-family="Helvetica,sans-Serif" font-size="10.00">OnParentDimensions</text>
</a>
</g>
</g>
<!-- Node2&#45;&gt;Node4 -->
<g id="edge3" class="edge">
<title>Node2&#45;&gt;Node4</title>
<path fill="none" stroke="midnightblue" d="M332.23,-54C340.48,-54 349.08,-54 357.73,-54"/>
<polygon fill="midnightblue" stroke="midnightblue" points="357.89,-57.5 367.89,-54 357.89,-50.5 357.89,-57.5"/>
</g>
<!-- Node6 -->
<g id="node6" class="node">
<title>Node6</title>
<g id="a_node6"><a xlink:href="../../de/db3/classUIElement_adc42b475f74d77f6fe008b8f1e77ad19.html#adc42b475f74d77f6fe008b8f1e77ad19" target="_top" xlink:title=" ">
<polygon fill="white" stroke="black" points="371,-0.5 371,-19.5 541,-19.5 541,-0.5 371,-0.5"/>
<text text-anchor="middle" x="456" y="-7.5" font-family="Helvetica,sans-Serif" font-size="10.00">UIElement.GetInnerDimensions</text>
</a>
</g>
</g>
<!-- Node2&#45;&gt;Node6 -->
<g id="edge5" class="edge">
<title>Node2&#45;&gt;Node6</title>
<path fill="none" stroke="midnightblue" d="M308,-44.43C326.22,-39.99 348.21,-34.67 368,-30 379.32,-27.33 391.47,-24.5 403,-21.85"/>
<polygon fill="midnightblue" stroke="midnightblue" points="403.98,-25.21 412.94,-19.56 402.41,-18.39 403.98,-25.21"/>
</g>
<!-- Node5 -->
<g id="node5" class="node">
<title>Node5</title>
<g id="a_node5"><a xlink:href="../../d1/de0/structStyleDimension_a62acad4030569824dcced4b9e3a10e56.html#a62acad4030569824dcced4b9e3a10e56" target="_top" xlink:title=" ">
<polygon fill="white" stroke="black" points="580,-44.5 580,-63.5 721,-63.5 721,-44.5 580,-44.5"/>
<text text-anchor="middle" x="650.5" y="-51.5" font-family="Helvetica,sans-Serif" font-size="10.00">StyleDimension.GetValue</text>
</a>
</g>
</g>
<!-- Node4&#45;&gt;Node5 -->
<g id="edge4" class="edge">
<title>Node4&#45;&gt;Node5</title>
<path fill="none" stroke="midnightblue" d="M544.24,-54C552.73,-54 561.31,-54 569.71,-54"/>
<polygon fill="midnightblue" stroke="midnightblue" points="569.87,-57.5 579.87,-54 569.87,-50.5 569.87,-57.5"/>
</g>
</g>
</svg>
