<?xml version="1.0" encoding="UTF-8" standalone="no"?>
<!DOCTYPE svg PUBLIC "-//W3C//DTD SVG 1.1//EN"
 "http://www.w3.org/Graphics/SVG/1.1/DTD/svg11.dtd">
<!-- Generated by graphviz version 2.43.0 (0)
 -->
<!-- Title: Terraria.GameContent.UI.Elements.UIHorizontalSeparator.DrawSelf Pages: 1 -->
<svg width="361pt" height="76pt"
 viewBox="0.00 0.00 361.00 75.50" xmlns="http://www.w3.org/2000/svg" xmlns:xlink="http://www.w3.org/1999/xlink">
<g id="graph0" class="graph" transform="scale(1 1) rotate(0) translate(4 71.5)">
<title>Terraria.GameContent.UI.Elements.UIHorizontalSeparator.DrawSelf</title>
<!-- Node1 -->
<g id="Node000001" class="node">
<title>Node1</title>
<g id="a_Node000001"><a xlink:title=" ">
<polygon fill="#999999" stroke="#666666" points="176,-56.5 0,-56.5 0,-15.5 176,-15.5 176,-56.5"/>
<text text-anchor="start" x="8" y="-44.5" font-family="Helvetica,sans-Serif" font-size="10.00">Terraria.GameContent.UI.</text>
<text text-anchor="start" x="8" y="-33.5" font-family="Helvetica,sans-Serif" font-size="10.00">Elements.UIHorizontalSeparator.</text>
<text text-anchor="middle" x="88" y="-22.5" font-family="Helvetica,sans-Serif" font-size="10.00">DrawSelf</text>
</a>
</g>
</g>
<!-- Node2 -->
<g id="Node000002" class="node">
<title>Node2</title>
<g id="a_Node000002"><a xlink:href="../../d1/d9c/classTerraria_1_1Utils_ab58be3f3cbc0d0590470025f9e4cad21.html#ab58be3f3cbc0d0590470025f9e4cad21" target="_top" xlink:title=" ">
<polygon fill="white" stroke="#666666" points="349.5,-67.5 215.5,-67.5 215.5,-48.5 349.5,-48.5 349.5,-67.5"/>
<text text-anchor="middle" x="282.5" y="-55.5" font-family="Helvetica,sans-Serif" font-size="10.00">Terraria.Utils.DrawPanel</text>
</a>
</g>
</g>
<!-- Node1&#45;&gt;Node2 -->
<g id="edge1_Node000001_Node000002" class="edge">
<title>Node1&#45;&gt;Node2</title>
<g id="a_edge1_Node000001_Node000002"><a xlink:title=" ">
<path fill="none" stroke="#63b8ff" d="M176.24,-45.97C185.88,-47.07 195.65,-48.19 205.14,-49.27"/>
<polygon fill="#63b8ff" stroke="#63b8ff" points="204.99,-52.78 215.32,-50.44 205.78,-45.82 204.99,-52.78"/>
</a>
</g>
</g>
<!-- Node3 -->
<g id="Node000003" class="node">
<title>Node3</title>
<g id="a_Node000003"><a xlink:href="../../d7/d72/classTerraria_1_1UI_1_1UIElement_abeb7b32927c9b86a4b1a4139e45ac6a5.html#abeb7b32927c9b86a4b1a4139e45ac6a5" target="_top" xlink:title=" ">
<polygon fill="white" stroke="#666666" points="353,-30 212,-30 212,0 353,0 353,-30"/>
<text text-anchor="start" x="220" y="-18" font-family="Helvetica,sans-Serif" font-size="10.00">Terraria.UI.UIElement.Get</text>
<text text-anchor="middle" x="282.5" y="-7" font-family="Helvetica,sans-Serif" font-size="10.00">Dimensions</text>
</a>
</g>
</g>
<!-- Node1&#45;&gt;Node3 -->
<g id="edge2_Node000001_Node000003" class="edge">
<title>Node1&#45;&gt;Node3</title>
<g id="a_edge2_Node000001_Node000003"><a xlink:title=" ">
<path fill="none" stroke="#63b8ff" d="M176.24,-26.48C184.73,-25.56 193.31,-24.62 201.71,-23.7"/>
<polygon fill="#63b8ff" stroke="#63b8ff" points="202.31,-27.16 211.87,-22.6 201.55,-20.2 202.31,-27.16"/>
</a>
</g>
</g>
</g>
</svg>
