<?xml version="1.0" encoding="UTF-8" standalone="no"?>
<!DOCTYPE svg PUBLIC "-//W3C//DTD SVG 1.1//EN"
 "http://www.w3.org/Graphics/SVG/1.1/DTD/svg11.dtd">
<!-- Generated by graphviz version 2.43.0 (0)
 -->
<!-- Title: UICharacterSelect.NewCharacterClick Pages: 1 -->
<svg width="933pt" height="465pt"
 viewBox="0.00 0.00 933.00 464.50" xmlns="http://www.w3.org/2000/svg" xmlns:xlink="http://www.w3.org/1999/xlink">
<g id="graph0" class="graph" transform="scale(1 1) rotate(0) translate(4 460.5)">
<title>UICharacterSelect.NewCharacterClick</title>
<polygon fill="white" stroke="transparent" points="-4,4 -4,-460.5 929,-460.5 929,4 -4,4"/>
<!-- Node1 -->
<g id="node1" class="node">
<title>Node1</title>
<g id="a_node1"><a xlink:title=" ">
<polygon fill="#bfbfbf" stroke="black" points="0,-303.5 0,-333.5 176,-333.5 176,-303.5 0,-303.5"/>
<text text-anchor="start" x="8" y="-321.5" font-family="Helvetica,sans-Serif" font-size="10.00">UICharacterSelect.NewCharacter</text>
<text text-anchor="middle" x="88" y="-310.5" font-family="Helvetica,sans-Serif" font-size="10.00">Click</text>
</a>
</g>
</g>
<!-- Node2 -->
<g id="node2" class="node">
<title>Node2</title>
<g id="a_node2"><a xlink:href="../../d7/d66/classSoundEngine_a6c31f285c7bb4711799ee29c96bb2806.html#a6c31f285c7bb4711799ee29c96bb2806" target="_top" xlink:title=" ">
<polygon fill="white" stroke="black" points="212,-328 212,-347 346,-347 346,-328 212,-328"/>
<text text-anchor="middle" x="279" y="-335" font-family="Helvetica,sans-Serif" font-size="10.00">SoundEngine.PlaySound</text>
</a>
</g>
</g>
<!-- Node1&#45;&gt;Node2 -->
<g id="edge1" class="edge">
<title>Node1&#45;&gt;Node2</title>
<path fill="none" stroke="midnightblue" d="M176.03,-327.25C184.57,-328.11 193.2,-328.97 201.62,-329.82"/>
<polygon fill="midnightblue" stroke="midnightblue" points="201.47,-333.32 211.77,-330.84 202.17,-326.36 201.47,-333.32"/>
</g>
<!-- Node3 -->
<g id="node3" class="node">
<title>Node3</title>
<g id="a_node3"><a xlink:href="../../df/de1/classUserInterface_acf4e2457f637ffe67cb7c2850f58a14a.html#acf4e2457f637ffe67cb7c2850f58a14a" target="_top" xlink:title=" ">
<polygon fill="white" stroke="black" points="215.5,-290 215.5,-309 342.5,-309 342.5,-290 215.5,-290"/>
<text text-anchor="middle" x="279" y="-297" font-family="Helvetica,sans-Serif" font-size="10.00">UserInterface.SetState</text>
</a>
</g>
</g>
<!-- Node1&#45;&gt;Node3 -->
<g id="edge2" class="edge">
<title>Node1&#45;&gt;Node3</title>
<path fill="none" stroke="midnightblue" d="M176.03,-309.75C185.78,-308.77 195.63,-307.78 205.18,-306.82"/>
<polygon fill="midnightblue" stroke="midnightblue" points="205.79,-310.28 215.39,-305.79 205.09,-303.31 205.79,-310.28"/>
</g>
<!-- Node4 -->
<g id="node4" class="node">
<title>Node4</title>
<g id="a_node4"><a xlink:href="../../de/db3/classUIElement_af39632decedc87af3a0e85f0f48a07b3.html#af39632decedc87af3a0e85f0f48a07b3" target="_top" xlink:title=" ">
<polygon fill="white" stroke="black" points="401.5,-403 401.5,-422 512.5,-422 512.5,-403 401.5,-403"/>
<text text-anchor="middle" x="457" y="-410" font-family="Helvetica,sans-Serif" font-size="10.00">UIElement.Activate</text>
</a>
</g>
</g>
<!-- Node3&#45;&gt;Node4 -->
<g id="edge3" class="edge">
<title>Node3&#45;&gt;Node4</title>
<path fill="none" stroke="midnightblue" d="M330.59,-309.13C336.15,-311.58 341.45,-314.65 346,-318.5 374.24,-342.37 353.42,-370.04 382,-393.5 385.08,-396.03 388.46,-398.23 392.03,-400.14"/>
<polygon fill="midnightblue" stroke="midnightblue" points="390.66,-403.36 401.21,-404.31 393.55,-396.99 390.66,-403.36"/>
</g>
<!-- Node8 -->
<g id="node8" class="node">
<title>Node8</title>
<g id="a_node8"><a xlink:href="../../df/de1/classUserInterface_a533118cc34178b3a6221137ad34881a9.html#a533118cc34178b3a6221137ad34881a9" target="_top" xlink:title=" ">
<polygon fill="white" stroke="black" points="382,-365 382,-384 532,-384 532,-365 382,-365"/>
<text text-anchor="middle" x="457" y="-372" font-family="Helvetica,sans-Serif" font-size="10.00">UserInterface.AddToHistory</text>
</a>
</g>
</g>
<!-- Node3&#45;&gt;Node8 -->
<g id="edge8" class="edge">
<title>Node3&#45;&gt;Node8</title>
<path fill="none" stroke="midnightblue" d="M324.99,-309.03C332.29,-311.53 339.56,-314.64 346,-318.5 365.68,-330.29 362.15,-344 382,-355.5 385.85,-357.73 389.96,-359.7 394.19,-361.44"/>
<polygon fill="midnightblue" stroke="midnightblue" points="393.03,-364.74 403.62,-364.91 395.44,-358.17 393.03,-364.74"/>
</g>
<!-- Node9 -->
<g id="node9" class="node">
<title>Node9</title>
<g id="a_node9"><a xlink:href="../../de/db3/classUIElement_aa4662934ec14afe708537efc8127b3f0.html#aa4662934ec14afe708537efc8127b3f0" target="_top" xlink:title=" ">
<polygon fill="white" stroke="black" points="395,-309 395,-328 519,-328 519,-309 395,-309"/>
<text text-anchor="middle" x="457" y="-316" font-family="Helvetica,sans-Serif" font-size="10.00">UIElement.Deactivate</text>
</a>
</g>
</g>
<!-- Node3&#45;&gt;Node9 -->
<g id="edge9" class="edge">
<title>Node3&#45;&gt;Node9</title>
<path fill="none" stroke="midnightblue" d="M342.55,-306.25C356.22,-307.73 370.79,-309.3 384.78,-310.81"/>
<polygon fill="midnightblue" stroke="midnightblue" points="384.52,-314.3 394.84,-311.9 385.27,-307.34 384.52,-314.3"/>
</g>
<!-- Node11 -->
<g id="node11" class="node">
<title>Node11</title>
<g id="a_node11"><a xlink:href="../../de/db3/classUIElement_ae7de30e265aacf3df915d1132f371e60.html#ae7de30e265aacf3df915d1132f371e60" target="_top" xlink:title=" ">
<polygon fill="white" stroke="black" points="596,-132 596,-151 716,-151 716,-132 596,-132"/>
<text text-anchor="middle" x="656" y="-139" font-family="Helvetica,sans-Serif" font-size="10.00">UIElement.MouseOut</text>
</a>
</g>
</g>
<!-- Node3&#45;&gt;Node11 -->
<g id="edge12" class="edge">
<title>Node3&#45;&gt;Node11</title>
<path fill="none" stroke="midnightblue" d="M302.61,-289.97C366.57,-263.03 548.89,-186.21 623.04,-154.96"/>
<polygon fill="midnightblue" stroke="midnightblue" points="624.5,-158.15 632.36,-151.04 621.78,-151.7 624.5,-158.15"/>
</g>
<!-- Node12 -->
<g id="node12" class="node">
<title>Node12</title>
<g id="a_node12"><a xlink:href="../../de/db3/classUIElement_aee194ceb3c88758159e31761805e6a9d.html#aee194ceb3c88758159e31761805e6a9d" target="_top" xlink:title=" ">
<polygon fill="white" stroke="black" points="393,-271 393,-290 521,-290 521,-271 393,-271"/>
<text text-anchor="middle" x="457" y="-278" font-family="Helvetica,sans-Serif" font-size="10.00">UIElement.Recalculate</text>
</a>
</g>
</g>
<!-- Node3&#45;&gt;Node12 -->
<g id="edge14" class="edge">
<title>Node3&#45;&gt;Node12</title>
<path fill="none" stroke="midnightblue" d="M342.55,-292.75C355.54,-291.35 369.34,-289.86 382.68,-288.42"/>
<polygon fill="midnightblue" stroke="midnightblue" points="383.2,-291.88 392.76,-287.33 382.45,-284.92 383.2,-291.88"/>
</g>
<!-- Node18 -->
<g id="node18" class="node">
<title>Node18</title>
<g id="a_node18"><a xlink:href="../../df/de1/classUserInterface_a2bd6f390bef94b5709c1173e90972a6f.html#a2bd6f390bef94b5709c1173e90972a6f" target="_top" xlink:title=" ">
<polygon fill="white" stroke="black" points="387.5,-94 387.5,-113 526.5,-113 526.5,-94 387.5,-94"/>
<text text-anchor="middle" x="457" y="-101" font-family="Helvetica,sans-Serif" font-size="10.00">UserInterface.ResetState</text>
</a>
</g>
</g>
<!-- Node3&#45;&gt;Node18 -->
<g id="edge21" class="edge">
<title>Node3&#45;&gt;Node18</title>
<path fill="none" stroke="midnightblue" d="M288.42,-289.92C305.81,-270.13 347,-223.38 382,-184.5 401.86,-162.44 424.96,-137.22 440,-120.87"/>
<polygon fill="midnightblue" stroke="midnightblue" points="442.87,-122.91 447.07,-113.18 437.72,-118.17 442.87,-122.91"/>
</g>
<!-- Node4&#45;&gt;Node4 -->
<g id="edge4" class="edge">
<title>Node4&#45;&gt;Node4</title>
<path fill="none" stroke="midnightblue" d="M429.57,-422.26C416.22,-431.07 425.36,-440.5 457,-440.5 478.75,-440.5 489.87,-436.04 490.36,-430.39"/>
<polygon fill="midnightblue" stroke="midnightblue" points="493.15,-428.28 484.43,-422.26 487.49,-432.4 493.15,-428.28"/>
</g>
<!-- Node5 -->
<g id="node5" class="node">
<title>Node5</title>
<g id="a_node5"><a xlink:href="../../de/db3/classUIElement_a0853980808ec01129eefb950dc6eaa9e.html#a0853980808ec01129eefb950dc6eaa9e" target="_top" xlink:title=" ">
<polygon fill="white" stroke="black" points="599.5,-399 599.5,-418 712.5,-418 712.5,-399 599.5,-399"/>
<text text-anchor="middle" x="656" y="-406" font-family="Helvetica,sans-Serif" font-size="10.00">UIElement.Initialize</text>
</a>
</g>
</g>
<!-- Node4&#45;&gt;Node5 -->
<g id="edge5" class="edge">
<title>Node4&#45;&gt;Node5</title>
<path fill="none" stroke="midnightblue" d="M512.61,-411.39C536.33,-410.91 564.32,-410.34 589.18,-409.84"/>
<polygon fill="midnightblue" stroke="midnightblue" points="589.33,-413.33 599.25,-409.63 589.18,-406.34 589.33,-413.33"/>
</g>
<!-- Node7 -->
<g id="node7" class="node">
<title>Node7</title>
<g id="a_node7"><a xlink:href="../../de/db3/classUIElement_a232530774c8530e65b675f4c86b6dfbd.html#a232530774c8530e65b675f4c86b6dfbd" target="_top" xlink:title=" ">
<polygon fill="white" stroke="black" points="593.5,-437 593.5,-456 718.5,-456 718.5,-437 593.5,-437"/>
<text text-anchor="middle" x="656" y="-444" font-family="Helvetica,sans-Serif" font-size="10.00">UIElement.OnActivate</text>
</a>
</g>
</g>
<!-- Node4&#45;&gt;Node7 -->
<g id="edge7" class="edge">
<title>Node4&#45;&gt;Node7</title>
<path fill="none" stroke="midnightblue" d="M512.61,-421.93C536.53,-426.05 564.79,-430.93 589.8,-435.25"/>
<polygon fill="midnightblue" stroke="midnightblue" points="589.49,-438.75 599.94,-437 590.68,-431.85 589.49,-438.75"/>
</g>
<!-- Node6 -->
<g id="node6" class="node">
<title>Node6</title>
<g id="a_node6"><a xlink:href="../../de/db3/classUIElement_a38a8b3ad267ccce9474b6907aa274cdf.html#a38a8b3ad267ccce9474b6907aa274cdf" target="_top" xlink:title=" ">
<polygon fill="white" stroke="black" points="789.5,-399 789.5,-418 915.5,-418 915.5,-399 789.5,-399"/>
<text text-anchor="middle" x="852.5" y="-406" font-family="Helvetica,sans-Serif" font-size="10.00">UIElement.OnInitialize</text>
</a>
</g>
</g>
<!-- Node5&#45;&gt;Node6 -->
<g id="edge6" class="edge">
<title>Node5&#45;&gt;Node6</title>
<path fill="none" stroke="midnightblue" d="M712.74,-408.5C733.38,-408.5 757.09,-408.5 779.01,-408.5"/>
<polygon fill="midnightblue" stroke="midnightblue" points="779.26,-412 789.26,-408.5 779.26,-405 779.26,-412"/>
</g>
<!-- Node9&#45;&gt;Node9 -->
<g id="edge10" class="edge">
<title>Node9&#45;&gt;Node9</title>
<path fill="none" stroke="midnightblue" d="M429.57,-328.26C416.22,-337.07 425.36,-346.5 457,-346.5 478.75,-346.5 489.87,-342.04 490.36,-336.39"/>
<polygon fill="midnightblue" stroke="midnightblue" points="493.15,-334.28 484.43,-328.26 487.49,-338.4 493.15,-334.28"/>
</g>
<!-- Node10 -->
<g id="node10" class="node">
<title>Node10</title>
<g id="a_node10"><a xlink:href="../../de/db3/classUIElement_ab68b757918a1a9cb016b900d3f770a40.html#ab68b757918a1a9cb016b900d3f770a40" target="_top" xlink:title=" ">
<polygon fill="white" stroke="black" points="587.5,-352 587.5,-371 724.5,-371 724.5,-352 587.5,-352"/>
<text text-anchor="middle" x="656" y="-359" font-family="Helvetica,sans-Serif" font-size="10.00">UIElement.OnDeactivate</text>
</a>
</g>
</g>
<!-- Node9&#45;&gt;Node10 -->
<g id="edge11" class="edge">
<title>Node9&#45;&gt;Node10</title>
<path fill="none" stroke="midnightblue" d="M501.72,-328.04C531.18,-334.47 570.22,-343 601.53,-349.83"/>
<polygon fill="midnightblue" stroke="midnightblue" points="600.89,-353.27 611.4,-351.98 602.38,-346.43 600.89,-353.27"/>
</g>
<!-- Node11&#45;&gt;Node11 -->
<g id="edge13" class="edge">
<title>Node11&#45;&gt;Node11</title>
<path fill="none" stroke="midnightblue" d="M625.79,-151.26C611.09,-160.07 621.16,-169.5 656,-169.5 680.49,-169.5 692.74,-164.84 692.75,-159"/>
<polygon fill="midnightblue" stroke="midnightblue" points="695.33,-156.64 686.21,-151.26 689.99,-161.16 695.33,-156.64"/>
</g>
<!-- Node13 -->
<g id="node13" class="node">
<title>Node13</title>
<g id="a_node13"><a xlink:href="../../df/de1/classUserInterface_a0cfc3c35a0f4df271c43ed2d90975df1.html#a0cfc3c35a0f4df271c43ed2d90975df1" target="_top" xlink:title=" ">
<polygon fill="white" stroke="black" points="575.5,-276 575.5,-295 736.5,-295 736.5,-276 575.5,-276"/>
<text text-anchor="middle" x="656" y="-283" font-family="Helvetica,sans-Serif" font-size="10.00">UserInterface.GetDimensions</text>
</a>
</g>
</g>
<!-- Node12&#45;&gt;Node13 -->
<g id="edge15" class="edge">
<title>Node12&#45;&gt;Node13</title>
<path fill="none" stroke="midnightblue" d="M521.14,-282.1C535.14,-282.46 550.22,-282.84 565.05,-283.22"/>
<polygon fill="midnightblue" stroke="midnightblue" points="565.17,-286.72 575.26,-283.48 565.35,-279.72 565.17,-286.72"/>
</g>
<!-- Node14 -->
<g id="node14" class="node">
<title>Node14</title>
<g id="a_node14"><a xlink:href="../../de/db3/classUIElement_a5030449fa3a7231b282fb98cfdf1ce01.html#a5030449fa3a7231b282fb98cfdf1ce01" target="_top" xlink:title=" ">
<polygon fill="white" stroke="black" points="568,-226.5 568,-256.5 744,-256.5 744,-226.5 568,-226.5"/>
<text text-anchor="start" x="576" y="-244.5" font-family="Helvetica,sans-Serif" font-size="10.00">UIElement.GetDimensionsBased</text>
<text text-anchor="middle" x="656" y="-233.5" font-family="Helvetica,sans-Serif" font-size="10.00">OnParentDimensions</text>
</a>
</g>
</g>
<!-- Node12&#45;&gt;Node14 -->
<g id="edge16" class="edge">
<title>Node12&#45;&gt;Node14</title>
<path fill="none" stroke="midnightblue" d="M506.19,-270.96C525.16,-267.2 547.52,-262.78 569.08,-258.51"/>
<polygon fill="midnightblue" stroke="midnightblue" points="569.78,-261.94 578.91,-256.56 568.42,-255.07 569.78,-261.94"/>
</g>
<!-- Node16 -->
<g id="node16" class="node">
<title>Node16</title>
<g id="a_node16"><a xlink:href="../../de/db3/classUIElement_adc42b475f74d77f6fe008b8f1e77ad19.html#adc42b475f74d77f6fe008b8f1e77ad19" target="_top" xlink:title=" ">
<polygon fill="white" stroke="black" points="571,-188 571,-207 741,-207 741,-188 571,-188"/>
<text text-anchor="middle" x="656" y="-195" font-family="Helvetica,sans-Serif" font-size="10.00">UIElement.GetInnerDimensions</text>
</a>
</g>
</g>
<!-- Node12&#45;&gt;Node16 -->
<g id="edge18" class="edge">
<title>Node12&#45;&gt;Node16</title>
<path fill="none" stroke="midnightblue" d="M471.2,-270.97C491.17,-256.99 530.73,-231 568,-216.5 574.74,-213.88 581.91,-211.58 589.15,-209.58"/>
<polygon fill="midnightblue" stroke="midnightblue" points="590.2,-212.92 599.01,-207.02 588.45,-206.14 590.2,-212.92"/>
</g>
<!-- Node17 -->
<g id="node17" class="node">
<title>Node17</title>
<g id="a_node17"><a xlink:href="../../de/db3/classUIElement_af9e665c7647c2fb436ed3c20be3a40a2.html#af9e665c7647c2fb436ed3c20be3a40a2" target="_top" xlink:title=" ">
<polygon fill="white" stroke="black" points="572,-314 572,-333 740,-333 740,-314 572,-314"/>
<text text-anchor="middle" x="656" y="-321" font-family="Helvetica,sans-Serif" font-size="10.00">UIElement.RecalculateChildren</text>
</a>
</g>
</g>
<!-- Node12&#45;&gt;Node17 -->
<g id="edge19" class="edge">
<title>Node12&#45;&gt;Node17</title>
<path fill="none" stroke="midnightblue" d="M521.14,-287.94C554.68,-294.46 594.51,-303.54 621.95,-311.09"/>
<polygon fill="midnightblue" stroke="midnightblue" points="621.25,-314.53 631.83,-313.9 623.17,-307.8 621.25,-314.53"/>
</g>
<!-- Node15 -->
<g id="node15" class="node">
<title>Node15</title>
<g id="a_node15"><a xlink:href="../../d1/de0/structStyleDimension_a62acad4030569824dcced4b9e3a10e56.html#a62acad4030569824dcced4b9e3a10e56" target="_top" xlink:title=" ">
<polygon fill="white" stroke="black" points="782,-232 782,-251 923,-251 923,-232 782,-232"/>
<text text-anchor="middle" x="852.5" y="-239" font-family="Helvetica,sans-Serif" font-size="10.00">StyleDimension.GetValue</text>
</a>
</g>
</g>
<!-- Node14&#45;&gt;Node15 -->
<g id="edge17" class="edge">
<title>Node14&#45;&gt;Node15</title>
<path fill="none" stroke="midnightblue" d="M744.01,-241.5C753.2,-241.5 762.51,-241.5 771.61,-241.5"/>
<polygon fill="midnightblue" stroke="midnightblue" points="771.77,-245 781.77,-241.5 771.77,-238 771.77,-245"/>
</g>
<!-- Node17&#45;&gt;Node12 -->
<g id="edge20" class="edge">
<title>Node17&#45;&gt;Node12</title>
<path fill="none" stroke="midnightblue" d="M581.35,-313.98C550.21,-307.68 515.53,-299.65 490.89,-292.87"/>
<polygon fill="midnightblue" stroke="midnightblue" points="491.56,-289.42 480.98,-290.04 489.64,-296.15 491.56,-289.42"/>
</g>
<!-- Node18&#45;&gt;Node11 -->
<g id="edge26" class="edge">
<title>Node18&#45;&gt;Node11</title>
<path fill="none" stroke="midnightblue" d="M507.46,-113.04C534.15,-118.19 567.3,-124.58 595.42,-130.01"/>
<polygon fill="midnightblue" stroke="midnightblue" points="595.04,-133.5 605.52,-131.96 596.37,-126.63 595.04,-133.5"/>
</g>
<!-- Node19 -->
<g id="node19" class="node">
<title>Node19</title>
<g id="a_node19"><a xlink:href="../../df/de1/classUserInterface_a8d5b797d3436e0850492cef86f8cc6d5.html#a8d5b797d3436e0850492cef86f8cc6d5" target="_top" xlink:title=" ">
<polygon fill="white" stroke="black" points="580.5,-6 580.5,-25 731.5,-25 731.5,-6 580.5,-6"/>
<text text-anchor="middle" x="656" y="-13" font-family="Helvetica,sans-Serif" font-size="10.00">UserInterface.ClearPointers</text>
</a>
</g>
</g>
<!-- Node18&#45;&gt;Node19 -->
<g id="edge22" class="edge">
<title>Node18&#45;&gt;Node19</title>
<path fill="none" stroke="midnightblue" d="M470.1,-93.92C489.57,-78.96 529.6,-50.18 568,-34.5 574.25,-31.95 580.9,-29.71 587.63,-27.76"/>
<polygon fill="midnightblue" stroke="midnightblue" points="588.77,-31.08 597.51,-25.1 586.95,-24.32 588.77,-31.08"/>
</g>
<!-- Node21 -->
<g id="node21" class="node">
<title>Node21</title>
<g id="a_node21"><a xlink:href="../../df/de1/classUserInterface_ae58f7132b7d9fb48e3b35c008355a2a6.html#ae58f7132b7d9fb48e3b35c008355a2a6" target="_top" xlink:title=" ">
<polygon fill="white" stroke="black" points="569,-94 569,-113 743,-113 743,-94 569,-94"/>
<text text-anchor="middle" x="656" y="-101" font-family="Helvetica,sans-Serif" font-size="10.00">UserInterface.GetMousePosition</text>
</a>
</g>
</g>
<!-- Node18&#45;&gt;Node21 -->
<g id="edge24" class="edge">
<title>Node18&#45;&gt;Node21</title>
<path fill="none" stroke="midnightblue" d="M526.62,-103.5C536.97,-103.5 547.81,-103.5 558.61,-103.5"/>
<polygon fill="midnightblue" stroke="midnightblue" points="558.94,-107 568.94,-103.5 558.94,-100 558.94,-107"/>
</g>
<!-- Node22 -->
<g id="node22" class="node">
<title>Node22</title>
<g id="a_node22"><a xlink:href="../../df/de1/classUserInterface_ae15947b616e32c9d41eb179c1f535be3.html#ae15947b616e32c9d41eb179c1f535be3" target="_top" xlink:title=" ">
<polygon fill="white" stroke="black" points="582,-44.5 582,-74.5 730,-74.5 730,-44.5 582,-44.5"/>
<text text-anchor="start" x="590" y="-62.5" font-family="Helvetica,sans-Serif" font-size="10.00">UserInterface.Immediately</text>
<text text-anchor="middle" x="656" y="-51.5" font-family="Helvetica,sans-Serif" font-size="10.00">UpdateInputPointers</text>
</a>
</g>
</g>
<!-- Node18&#45;&gt;Node22 -->
<g id="edge25" class="edge">
<title>Node18&#45;&gt;Node22</title>
<path fill="none" stroke="midnightblue" d="M500.75,-93.95C523.22,-88.93 551.48,-82.62 577.64,-76.78"/>
<polygon fill="midnightblue" stroke="midnightblue" points="578.55,-80.16 587.55,-74.57 577.03,-73.33 578.55,-80.16"/>
</g>
<!-- Node20 -->
<g id="node20" class="node">
<title>Node20</title>
<g id="a_node20"><a xlink:href="../../d5/d32/classUserInterface_1_1InputPointerCache_aa2aafa6846c3011e9d54b21f7df77f51.html#aa2aafa6846c3011e9d54b21f7df77f51" target="_top" xlink:title=" ">
<polygon fill="white" stroke="black" points="780,-0.5 780,-30.5 925,-30.5 925,-0.5 780,-0.5"/>
<text text-anchor="start" x="788" y="-18.5" font-family="Helvetica,sans-Serif" font-size="10.00">UserInterface.InputPointer</text>
<text text-anchor="middle" x="852.5" y="-7.5" font-family="Helvetica,sans-Serif" font-size="10.00">Cache.Clear</text>
</a>
</g>
</g>
<!-- Node19&#45;&gt;Node20 -->
<g id="edge23" class="edge">
<title>Node19&#45;&gt;Node20</title>
<path fill="none" stroke="midnightblue" d="M731.64,-15.5C744.15,-15.5 757.19,-15.5 769.87,-15.5"/>
<polygon fill="midnightblue" stroke="midnightblue" points="769.94,-19 779.94,-15.5 769.94,-12 769.94,-19"/>
</g>
</g>
</svg>
