<?xml version="1.0" encoding="UTF-8" standalone="no"?>
<!DOCTYPE svg PUBLIC "-//W3C//DTD SVG 1.1//EN"
 "http://www.w3.org/Graphics/SVG/1.1/DTD/svg11.dtd">
<!-- Generated by graphviz version 2.43.0 (0)
 -->
<!-- Title: DSTFilm.ControlPlayer Pages: 1 -->
<svg width="548pt" height="142pt"
 viewBox="0.00 0.00 548.00 142.00" xmlns="http://www.w3.org/2000/svg" xmlns:xlink="http://www.w3.org/1999/xlink">
<g id="graph0" class="graph" transform="scale(1 1) rotate(0) translate(4 138)">
<title>DSTFilm.ControlPlayer</title>
<polygon fill="white" stroke="transparent" points="-4,4 -4,-138 544,-138 544,4 -4,4"/>
<!-- Node1 -->
<g id="node1" class="node">
<title>Node1</title>
<g id="a_node1"><a xlink:title=" ">
<polygon fill="#bfbfbf" stroke="black" points="0,-57.5 0,-76.5 126,-76.5 126,-57.5 0,-57.5"/>
<text text-anchor="middle" x="63" y="-64.5" font-family="Helvetica,sans-Serif" font-size="10.00">DSTFilm.ControlPlayer</text>
</a>
</g>
</g>
<!-- Node2 -->
<g id="node2" class="node">
<title>Node2</title>
<g id="a_node2"><a xlink:href="../../d5/de1/classDSTFilm_aae95425127ba55afd5b38e0f543de0a2.html#aae95425127ba55afd5b38e0f543de0a2" target="_top" xlink:title=" ">
<polygon fill="white" stroke="black" points="162,-57.5 162,-76.5 278,-76.5 278,-57.5 162,-57.5"/>
<text text-anchor="middle" x="220" y="-64.5" font-family="Helvetica,sans-Serif" font-size="10.00">DSTFilm.FindFloorAt</text>
</a>
</g>
</g>
<!-- Node1&#45;&gt;Node2 -->
<g id="edge1" class="edge">
<title>Node1&#45;&gt;Node2</title>
<path fill="none" stroke="midnightblue" d="M126.15,-67C134.53,-67 143.17,-67 151.63,-67"/>
<polygon fill="midnightblue" stroke="midnightblue" points="151.85,-70.5 161.85,-67 151.85,-63.5 151.85,-70.5"/>
</g>
<!-- Node3 -->
<g id="node3" class="node">
<title>Node3</title>
<g id="a_node3"><a xlink:href="../../db/de4/classWorldGen_ad237c1d1dbe24c5a7229371c58e412dd.html#ad237c1d1dbe24c5a7229371c58e412dd" target="_top" xlink:title=" ">
<polygon fill="white" stroke="black" points="314,-57.5 314,-76.5 423,-76.5 423,-57.5 314,-57.5"/>
<text text-anchor="middle" x="368.5" y="-64.5" font-family="Helvetica,sans-Serif" font-size="10.00">WorldGen.SolidTile</text>
</a>
</g>
</g>
<!-- Node2&#45;&gt;Node3 -->
<g id="edge2" class="edge">
<title>Node2&#45;&gt;Node3</title>
<path fill="none" stroke="midnightblue" d="M278.06,-67C286.4,-67 295.03,-67 303.5,-67"/>
<polygon fill="midnightblue" stroke="midnightblue" points="303.71,-70.5 313.71,-67 303.71,-63.5 303.71,-70.5"/>
</g>
<!-- Node4 -->
<g id="node4" class="node">
<title>Node4</title>
<g id="a_node4"><a xlink:href="../../d6/dba/classTile_a64e4b5e9c17707d5bf63cf590bb48c9b.html#a64e4b5e9c17707d5bf63cf590bb48c9b" target="_top" xlink:title=" ">
<polygon fill="white" stroke="black" points="465.5,-114.5 465.5,-133.5 533.5,-133.5 533.5,-114.5 465.5,-114.5"/>
<text text-anchor="middle" x="499.5" y="-121.5" font-family="Helvetica,sans-Serif" font-size="10.00">Tile.active</text>
</a>
</g>
</g>
<!-- Node3&#45;&gt;Node4 -->
<g id="edge3" class="edge">
<title>Node3&#45;&gt;Node4</title>
<path fill="none" stroke="midnightblue" d="M391.09,-76.54C412.02,-85.79 443.98,-99.91 467.6,-110.35"/>
<polygon fill="midnightblue" stroke="midnightblue" points="466.28,-113.59 476.84,-114.43 469.11,-107.19 466.28,-113.59"/>
</g>
<!-- Node5 -->
<g id="node5" class="node">
<title>Node5</title>
<g id="a_node5"><a xlink:href="../../d6/dba/classTile_a975f34b33a09445dfd475309fdcfd6a0.html#a975f34b33a09445dfd475309fdcfd6a0" target="_top" xlink:title=" ">
<polygon fill="white" stroke="black" points="459,-76.5 459,-95.5 540,-95.5 540,-76.5 459,-76.5"/>
<text text-anchor="middle" x="499.5" y="-83.5" font-family="Helvetica,sans-Serif" font-size="10.00">Tile.halfBrick</text>
</a>
</g>
</g>
<!-- Node3&#45;&gt;Node5 -->
<g id="edge4" class="edge">
<title>Node3&#45;&gt;Node5</title>
<path fill="none" stroke="midnightblue" d="M423.09,-74.89C431.55,-76.14 440.27,-77.42 448.65,-78.66"/>
<polygon fill="midnightblue" stroke="midnightblue" points="448.25,-82.14 458.65,-80.13 449.27,-75.21 448.25,-82.14"/>
</g>
<!-- Node6 -->
<g id="node6" class="node">
<title>Node6</title>
<g id="a_node6"><a xlink:href="../../d6/dba/classTile_abb2a30463eddd9cbdc91f329d2aa4bf8.html#abb2a30463eddd9cbdc91f329d2aa4bf8" target="_top" xlink:title=" ">
<polygon fill="white" stroke="black" points="461,-38.5 461,-57.5 538,-57.5 538,-38.5 461,-38.5"/>
<text text-anchor="middle" x="499.5" y="-45.5" font-family="Helvetica,sans-Serif" font-size="10.00">Tile.inActive</text>
</a>
</g>
</g>
<!-- Node3&#45;&gt;Node6 -->
<g id="edge5" class="edge">
<title>Node3&#45;&gt;Node6</title>
<path fill="none" stroke="midnightblue" d="M423.09,-59.11C432.34,-57.74 441.9,-56.34 450.98,-55"/>
<polygon fill="midnightblue" stroke="midnightblue" points="451.6,-58.44 460.99,-53.53 450.58,-51.52 451.6,-58.44"/>
</g>
<!-- Node7 -->
<g id="node7" class="node">
<title>Node7</title>
<g id="a_node7"><a xlink:href="../../d6/dba/classTile_a402ffa996ee74bf853b1538dfd39831c.html#a402ffa996ee74bf853b1538dfd39831c" target="_top" xlink:title=" ">
<polygon fill="white" stroke="black" points="467.5,-0.5 467.5,-19.5 531.5,-19.5 531.5,-0.5 467.5,-0.5"/>
<text text-anchor="middle" x="499.5" y="-7.5" font-family="Helvetica,sans-Serif" font-size="10.00">Tile.slope</text>
</a>
</g>
</g>
<!-- Node3&#45;&gt;Node7 -->
<g id="edge6" class="edge">
<title>Node3&#45;&gt;Node7</title>
<path fill="none" stroke="midnightblue" d="M391.09,-57.46C412.02,-48.21 443.98,-34.09 467.6,-23.65"/>
<polygon fill="midnightblue" stroke="midnightblue" points="469.11,-26.81 476.84,-19.57 466.28,-20.41 469.11,-26.81"/>
</g>
</g>
</svg>
