<?xml version="1.0" encoding="UTF-8" standalone="no"?>
<!DOCTYPE svg PUBLIC "-//W3C//DTD SVG 1.1//EN"
 "http://www.w3.org/Graphics/SVG/1.1/DTD/svg11.dtd">
<!-- Generated by graphviz version 2.43.0 (0)
 -->
<!-- Title: Terraria.Cinematics.FrameEventData Pages: 1 -->
<svg width="163pt" height="298pt"
 viewBox="0.00 0.00 162.50 298.00" xmlns="http://www.w3.org/2000/svg" xmlns:xlink="http://www.w3.org/1999/xlink">
<g id="graph0" class="graph" transform="scale(1 1) rotate(0) translate(4 294)">
<title>Terraria.Cinematics.FrameEventData</title>
<!-- Node1 -->
<g id="Node000001" class="node">
<title>Node1</title>
<g id="a_Node000001"><a xlink:title=" ">
<polygon fill="#999999" stroke="transparent" points="139,-172 0,-172 0,0 139,0 139,-172"/>
<text text-anchor="start" x="5.5" y="-160" font-family="Helvetica,sans-Serif" font-size="10.00">Terraria.Cinematics.Frame</text>
<text text-anchor="start" x="44" y="-149" font-family="Helvetica,sans-Serif" font-size="10.00">EventData</text>
<text text-anchor="start" x="9" y="-134" font-family="Helvetica,sans-Serif" font-size="10.00">+</text>
<text text-anchor="start" x="26.5" y="-134" font-family="Helvetica,sans-Serif" font-size="10.00">int AbsoluteFrame</text>
<text text-anchor="start" x="9" y="-119" font-family="Helvetica,sans-Serif" font-size="10.00">+</text>
<text text-anchor="start" x="26.5" y="-119" font-family="Helvetica,sans-Serif" font-size="10.00">int Start</text>
<text text-anchor="start" x="9" y="-104" font-family="Helvetica,sans-Serif" font-size="10.00">+</text>
<text text-anchor="start" x="26.5" y="-104" font-family="Helvetica,sans-Serif" font-size="10.00">int Duration</text>
<text text-anchor="start" x="9" y="-89" font-family="Helvetica,sans-Serif" font-size="10.00">+</text>
<text text-anchor="start" x="26.5" y="-89" font-family="Helvetica,sans-Serif" font-size="10.00">int Frame</text>
<text text-anchor="start" x="9" y="-74" font-family="Helvetica,sans-Serif" font-size="10.00">+</text>
<text text-anchor="start" x="26.5" y="-74" font-family="Helvetica,sans-Serif" font-size="10.00">bool IsFirstFrame</text>
<text text-anchor="start" x="9" y="-59" font-family="Helvetica,sans-Serif" font-size="10.00">+</text>
<text text-anchor="start" x="26.5" y="-59" font-family="Helvetica,sans-Serif" font-size="10.00">bool IsLastFrame</text>
<text text-anchor="start" x="9" y="-44" font-family="Helvetica,sans-Serif" font-size="10.00">+</text>
<text text-anchor="start" x="26.5" y="-44" font-family="Helvetica,sans-Serif" font-size="10.00">int Remaining</text>
<text text-anchor="start" x="9" y="-29" font-family="Helvetica,sans-Serif" font-size="10.00">+</text>
<text text-anchor="start" x="26.5" y="-29" font-family="Helvetica,sans-Serif" font-size="10.00">FrameEventData(int</text>
<text text-anchor="start" x="26.5" y="-18" font-family="Helvetica,sans-Serif" font-size="10.00"> absoluteFrame, int</text>
<text text-anchor="start" x="26.5" y="-7" font-family="Helvetica,sans-Serif" font-size="10.00"> start, int duration)</text>
<polygon fill="#666666" stroke="#666666" points="0.5,-144 0.5,-144 139.5,-144 139.5,-144 0.5,-144"/>
<polygon fill="#666666" stroke="#666666" points="0.5,-39 0.5,-39 24.5,-39 24.5,-39 0.5,-39"/>
<polygon fill="#666666" stroke="#666666" points="24.5,-39 24.5,-39 139.5,-39 139.5,-39 24.5,-39"/>
<polygon fill="none" stroke="#666666" points="0,0 0,-172 139,-172 139,0 0,0"/>
</a>
</g>
</g>
<!-- Node2 -->
<g id="Node000002" class="node">
<title>Node2</title>
<g id="a_Node000002"><a xlink:href="../../d1/da0/classint.html" target="_top" xlink:title=" ">
<polygon fill="white" stroke="transparent" points="81,-290 58,-290 58,-241 81,-241 81,-290"/>
<text text-anchor="start" x="63.5" y="-277.5" font-family="Helvetica,sans-Serif" font-size="10.00">int</text>
<text text-anchor="start" x="68" y="-262.5" font-family="Helvetica,sans-Serif" font-size="10.00"> </text>
<text text-anchor="start" x="68" y="-247.5" font-family="Helvetica,sans-Serif" font-size="10.00"> </text>
<polygon fill="#666666" stroke="#666666" points="58.5,-272.5 58.5,-272.5 81.5,-272.5 81.5,-272.5 58.5,-272.5"/>
<polygon fill="#666666" stroke="#666666" points="58.5,-257.5 58.5,-257.5 81.5,-257.5 81.5,-257.5 58.5,-257.5"/>
<polygon fill="none" stroke="#666666" points="58,-241 58,-290 81,-290 81,-241 58,-241"/>
</a>
</g>
</g>
<!-- Node2&#45;&gt;Node1 -->
<g id="edge1_Node000001_Node000002" class="edge">
<title>Node2&#45;&gt;Node1</title>
<g id="a_edge1_Node000001_Node000002"><a xlink:title=" ">
<path fill="none" stroke="#63b8ff" d="M69.5,-240.93C69.5,-225.96 69.5,-205.48 69.5,-184.34"/>
<polygon fill="none" stroke="#63b8ff" points="69.5,-184.21 65.5,-178.21 69.5,-172.21 73.5,-178.21 69.5,-184.21"/>
</a>
</g>
<text text-anchor="middle" x="112" y="-215" font-family="Helvetica,sans-Serif" font-size="10.00" fill="grey"> &#45;_absoluteFrame</text>
<text text-anchor="middle" x="112" y="-204" font-family="Helvetica,sans-Serif" font-size="10.00" fill="grey">&#45;_duration</text>
<text text-anchor="middle" x="112" y="-193" font-family="Helvetica,sans-Serif" font-size="10.00" fill="grey">&#45;_start</text>
</g>
</g>
</svg>
