<?xml version="1.0" encoding="UTF-8" standalone="no"?>
<!DOCTYPE svg PUBLIC "-//W3C//DTD SVG 1.1//EN"
 "http://www.w3.org/Graphics/SVG/1.1/DTD/svg11.dtd">
<!-- Generated by graphviz version 2.43.0 (0)
 -->
<!-- Title: UIGamepadHelper.TryMovingBackIntoCreativeGridIfOutOfIt Pages: 1 -->
<svg width="1309pt" height="78pt"
 viewBox="0.00 0.00 1309.00 77.50" xmlns="http://www.w3.org/2000/svg" xmlns:xlink="http://www.w3.org/1999/xlink">
<g id="graph0" class="graph" transform="scale(1 1) rotate(0) translate(4 73.5)">
<title>UIGamepadHelper.TryMovingBackIntoCreativeGridIfOutOfIt</title>
<polygon fill="white" stroke="transparent" points="-4,4 -4,-73.5 1305,-73.5 1305,4 -4,4"/>
<!-- Node1 -->
<g id="node1" class="node">
<title>Node1</title>
<g id="a_node1"><a xlink:title=" ">
<polygon fill="#bfbfbf" stroke="black" points="0,-17 0,-47 163,-47 163,-17 0,-17"/>
<text text-anchor="start" x="8" y="-35" font-family="Helvetica,sans-Serif" font-size="10.00">UIGamepadHelper.TryMoving</text>
<text text-anchor="middle" x="81.5" y="-24" font-family="Helvetica,sans-Serif" font-size="10.00">BackIntoCreativeGridIfOutOfIt</text>
</a>
</g>
</g>
<!-- Node2 -->
<g id="node2" class="node">
<title>Node2</title>
<g id="a_node2"><a xlink:href="../../dd/d7e/structUIGamepadHelper_a3133e3ea2b5450727c5c74818b3a9d53.html#a3133e3ea2b5450727c5c74818b3a9d53" target="_top" xlink:title=" ">
<polygon fill="white" stroke="black" points="199,-17 199,-47 384,-47 384,-17 199,-17"/>
<text text-anchor="start" x="207" y="-35" font-family="Helvetica,sans-Serif" font-size="10.00">UIGamepadHelper.MoveToVisually</text>
<text text-anchor="middle" x="291.5" y="-24" font-family="Helvetica,sans-Serif" font-size="10.00">ClosestPoint</text>
</a>
</g>
</g>
<!-- Node1&#45;&gt;Node2 -->
<g id="edge1" class="edge">
<title>Node1&#45;&gt;Node2</title>
<path fill="none" stroke="midnightblue" d="M163.22,-32C171.59,-32 180.17,-32 188.74,-32"/>
<polygon fill="midnightblue" stroke="midnightblue" points="188.77,-35.5 198.77,-32 188.77,-28.5 188.77,-35.5"/>
</g>
<!-- Node3 -->
<g id="node3" class="node">
<title>Node3</title>
<g id="a_node3"><a xlink:href="../../d8/d7b/classUILinkPointNavigator_a5cb711692920a97a68e086f3d20a23c6.html#a5cb711692920a97a68e086f3d20a23c6" target="_top" xlink:title=" ">
<polygon fill="white" stroke="black" points="420,-17 420,-47 579,-47 579,-17 420,-17"/>
<text text-anchor="start" x="428" y="-35" font-family="Helvetica,sans-Serif" font-size="10.00">UILinkPointNavigator.Change</text>
<text text-anchor="middle" x="499.5" y="-24" font-family="Helvetica,sans-Serif" font-size="10.00">Point</text>
</a>
</g>
</g>
<!-- Node2&#45;&gt;Node3 -->
<g id="edge2" class="edge">
<title>Node2&#45;&gt;Node3</title>
<path fill="none" stroke="midnightblue" d="M384.05,-32C392.53,-32 401.12,-32 409.57,-32"/>
<polygon fill="midnightblue" stroke="midnightblue" points="409.81,-35.5 419.81,-32 409.81,-28.5 409.81,-35.5"/>
</g>
<!-- Node4 -->
<g id="node4" class="node">
<title>Node4</title>
<g id="a_node4"><a xlink:href="../../d8/d7b/classUILinkPointNavigator_a27e5c9a3a1a251f02d291f861b4eb1e7.html#a27e5c9a3a1a251f02d291f861b4eb1e7" target="_top" xlink:title=" ">
<polygon fill="white" stroke="black" points="615,-17 615,-47 775,-47 775,-17 615,-17"/>
<text text-anchor="start" x="623" y="-35" font-family="Helvetica,sans-Serif" font-size="10.00">UILinkPointNavigator.Process</text>
<text text-anchor="middle" x="695" y="-24" font-family="Helvetica,sans-Serif" font-size="10.00">Changes</text>
</a>
</g>
</g>
<!-- Node3&#45;&gt;Node4 -->
<g id="edge3" class="edge">
<title>Node3&#45;&gt;Node4</title>
<path fill="none" stroke="midnightblue" d="M579.2,-32C587.54,-32 596.05,-32 604.49,-32"/>
<polygon fill="midnightblue" stroke="midnightblue" points="604.74,-35.5 614.74,-32 604.74,-28.5 604.74,-35.5"/>
</g>
<!-- Node5 -->
<g id="node5" class="node">
<title>Node5</title>
<g id="a_node5"><a xlink:href="../../d8/d7b/classUILinkPointNavigator_ab02ec6567f402857bffa2cebe175d515.html#ab02ec6567f402857bffa2cebe175d515" target="_top" xlink:title=" ">
<polygon fill="white" stroke="black" points="811,-39 811,-69 957,-69 957,-39 811,-39"/>
<text text-anchor="start" x="819" y="-57" font-family="Helvetica,sans-Serif" font-size="10.00">UILinkPointNavigator.GoTo</text>
<text text-anchor="middle" x="884" y="-46" font-family="Helvetica,sans-Serif" font-size="10.00">DefaultPage</text>
</a>
</g>
</g>
<!-- Node4&#45;&gt;Node5 -->
<g id="edge4" class="edge">
<title>Node4&#45;&gt;Node5</title>
<path fill="none" stroke="midnightblue" d="M775.03,-41.3C783.56,-42.3 792.25,-43.32 800.81,-44.33"/>
<polygon fill="midnightblue" stroke="midnightblue" points="800.45,-47.81 810.79,-45.5 801.26,-40.86 800.45,-47.81"/>
</g>
<!-- Node8 -->
<g id="node8" class="node">
<title>Node8</title>
<g id="a_node8"><a xlink:href="../../d9/d5c/classUILinkPage_a356f1c92876e5a9aa65c22bd2fdf891a.html#a356f1c92876e5a9aa65c22bd2fdf891a" target="_top" xlink:title=" ">
<polygon fill="white" stroke="black" points="832.5,-0.5 832.5,-19.5 935.5,-19.5 935.5,-0.5 832.5,-0.5"/>
<text text-anchor="middle" x="884" y="-7.5" font-family="Helvetica,sans-Serif" font-size="10.00">UILinkPage.Leave</text>
</a>
</g>
</g>
<!-- Node4&#45;&gt;Node8 -->
<g id="edge7" class="edge">
<title>Node4&#45;&gt;Node8</title>
<path fill="none" stroke="midnightblue" d="M775.03,-22.7C790.83,-20.84 807.18,-18.92 822.24,-17.15"/>
<polygon fill="midnightblue" stroke="midnightblue" points="822.92,-20.59 832.44,-15.95 822.1,-13.64 822.92,-20.59"/>
</g>
<!-- Node6 -->
<g id="node6" class="node">
<title>Node6</title>
<g id="a_node6"><a xlink:href="../../d1/dd1/structPlayerInteractionAnchor_a1eeaee558e0da419c0a069fd0dde8eca.html#a1eeaee558e0da419c0a069fd0dde8eca" target="_top" xlink:title=" ">
<polygon fill="white" stroke="black" points="993,-39 993,-69 1129,-69 1129,-39 993,-39"/>
<text text-anchor="start" x="1001" y="-57" font-family="Helvetica,sans-Serif" font-size="10.00">PlayerInteractionAnchor.</text>
<text text-anchor="middle" x="1061" y="-46" font-family="Helvetica,sans-Serif" font-size="10.00">GetTileEntity</text>
</a>
</g>
</g>
<!-- Node5&#45;&gt;Node6 -->
<g id="edge5" class="edge">
<title>Node5&#45;&gt;Node6</title>
<path fill="none" stroke="midnightblue" d="M957.19,-54C965.56,-54 974.12,-54 982.55,-54"/>
<polygon fill="midnightblue" stroke="midnightblue" points="982.75,-57.5 992.75,-54 982.75,-50.5 982.75,-57.5"/>
</g>
<!-- Node7 -->
<g id="node7" class="node">
<title>Node7</title>
<g id="a_node7"><a xlink:href="../../d1/dd1/structPlayerInteractionAnchor_a5fe451925a3d70309360d5cdab17fe8c.html#a5fe451925a3d70309360d5cdab17fe8c" target="_top" xlink:title=" ">
<polygon fill="white" stroke="black" points="1165,-39 1165,-69 1301,-69 1301,-39 1165,-39"/>
<text text-anchor="start" x="1173" y="-57" font-family="Helvetica,sans-Serif" font-size="10.00">PlayerInteractionAnchor.</text>
<text text-anchor="middle" x="1233" y="-46" font-family="Helvetica,sans-Serif" font-size="10.00">IsInValidUseTileEntity</text>
</a>
</g>
</g>
<!-- Node6&#45;&gt;Node7 -->
<g id="edge6" class="edge">
<title>Node6&#45;&gt;Node7</title>
<path fill="none" stroke="midnightblue" d="M1129.19,-54C1137.5,-54 1146.05,-54 1154.51,-54"/>
<polygon fill="midnightblue" stroke="midnightblue" points="1154.74,-57.5 1164.74,-54 1154.74,-50.5 1154.74,-57.5"/>
</g>
</g>
</svg>
