<?xml version="1.0" encoding="UTF-8" standalone="no"?>
<!DOCTYPE svg PUBLIC "-//W3C//DTD SVG 1.1//EN"
 "http://www.w3.org/Graphics/SVG/1.1/DTD/svg11.dtd">
<!-- Generated by graphviz version 2.43.0 (0)
 -->
<!-- Title: Terraria.GameContent.UI.States.UICreativePowersMenu.MenuTree&lt; TEnum &gt; Pages: 1 -->
<svg width="373pt" height="186pt"
 viewBox="0.00 0.00 373.00 186.00" xmlns="http://www.w3.org/2000/svg" xmlns:xlink="http://www.w3.org/1999/xlink">
<g id="graph0" class="graph" transform="scale(1 1) rotate(0) translate(4 182)">
<title>Terraria.GameContent.UI.States.UICreativePowersMenu.MenuTree&lt; TEnum &gt;</title>
<!-- Node1 -->
<g id="Node000001" class="node">
<title>Node1</title>
<g id="a_Node000001"><a xlink:title=" ">
<polygon fill="#999999" stroke="transparent" points="205,-71 30,-71 30,0 205,0 205,-71"/>
<text text-anchor="start" x="42.5" y="-58.5" font-family="Helvetica,sans-Serif" font-size="10.00">Terraria.GameContent.UI.</text>
<text text-anchor="start" x="42.5" y="-47.5" font-family="Helvetica,sans-Serif" font-size="10.00">States.UICreativePowersMenu.</text>
<text text-anchor="start" x="66" y="-36.5" font-family="Helvetica,sans-Serif" font-size="10.00">MenuTree&lt; TEnum &gt;</text>
<text text-anchor="start" x="116" y="-21.5" font-family="Helvetica,sans-Serif" font-size="10.00"> </text>
<text text-anchor="start" x="34.5" y="-6.5" font-family="Helvetica,sans-Serif" font-size="10.00">+</text>
<text text-anchor="start" x="47.5" y="-6.5" font-family="Helvetica,sans-Serif" font-size="10.00">MenuTree(TEnum defaultValue)</text>
<polygon fill="#666666" stroke="#666666" points="30.5,-31.5 30.5,-31.5 205.5,-31.5 205.5,-31.5 30.5,-31.5"/>
<polygon fill="#666666" stroke="#666666" points="30.5,-16.5 30.5,-16.5 205.5,-16.5 205.5,-16.5 30.5,-16.5"/>
<polygon fill="none" stroke="#666666" points="30,0 30,-71 205,-71 205,0 30,0"/>
</a>
</g>
</g>
<!-- Node2 -->
<g id="Node000002" class="node">
<title>Node2</title>
<g id="a_Node000002"><a xlink:href="../../d1/da0/classint.html" target="_top" xlink:title=" ">
<polygon fill="white" stroke="transparent" points="23,-172.5 0,-172.5 0,-123.5 23,-123.5 23,-172.5"/>
<text text-anchor="start" x="5.5" y="-160" font-family="Helvetica,sans-Serif" font-size="10.00">int</text>
<text text-anchor="start" x="10" y="-145" font-family="Helvetica,sans-Serif" font-size="10.00"> </text>
<text text-anchor="start" x="10" y="-130" font-family="Helvetica,sans-Serif" font-size="10.00"> </text>
<polygon fill="#666666" stroke="#666666" points="0.5,-155 0.5,-155 23.5,-155 23.5,-155 0.5,-155"/>
<polygon fill="#666666" stroke="#666666" points="0.5,-140 0.5,-140 23.5,-140 23.5,-140 0.5,-140"/>
<polygon fill="none" stroke="#666666" points="0,-123.5 0,-172.5 23,-172.5 23,-123.5 0,-123.5"/>
</a>
</g>
</g>
<!-- Node2&#45;&gt;Node1 -->
<g id="edge1_Node000001_Node000002" class="edge">
<title>Node2&#45;&gt;Node1</title>
<g id="a_edge1_Node000001_Node000002"><a xlink:title=" ">
<path fill="none" stroke="#63b8ff" d="M16.67,-123.46C20.04,-112.13 25.37,-98.91 33.5,-89 36.34,-85.54 39.47,-82.24 42.81,-79.11"/>
<polygon fill="none" stroke="#63b8ff" points="42.93,-79 44.88,-72.06 52.04,-71.19 50.09,-78.13 42.93,-79"/>
</a>
</g>
<text text-anchor="middle" x="73.5" y="-92" font-family="Helvetica,sans-Serif" font-size="10.00" fill="grey"> +CurrentOption</text>
</g>
<!-- Node3 -->
<g id="Node000003" class="node">
<title>Node3</title>
<g id="a_Node000003"><a xlink:title=" ">
<polygon fill="white" stroke="transparent" points="193.5,-178 41.5,-178 41.5,-118 193.5,-118 193.5,-178"/>
<text text-anchor="start" x="46.5" y="-166" font-family="Helvetica,sans-Serif" font-size="10.00">Dictionary&lt; int, GroupOption</text>
<text text-anchor="start" x="78" y="-155" font-family="Helvetica,sans-Serif" font-size="10.00">Button&lt; int &gt; &gt;</text>
<text text-anchor="start" x="115.5" y="-140" font-family="Helvetica,sans-Serif" font-size="10.00"> </text>
<text text-anchor="start" x="115.5" y="-125" font-family="Helvetica,sans-Serif" font-size="10.00"> </text>
<polygon fill="#666666" stroke="#666666" points="41.5,-150 41.5,-150 193.5,-150 193.5,-150 41.5,-150"/>
<polygon fill="#666666" stroke="#666666" points="41.5,-135 41.5,-135 193.5,-135 193.5,-135 41.5,-135"/>
<polygon fill="none" stroke="#666666" points="41.5,-118 41.5,-178 193.5,-178 193.5,-118 41.5,-118"/>
</a>
</g>
</g>
<!-- Node3&#45;&gt;Node1 -->
<g id="edge2_Node000001_Node000003" class="edge">
<title>Node3&#45;&gt;Node1</title>
<g id="a_edge2_Node000001_Node000003"><a xlink:title=" ">
<path fill="none" stroke="#63b8ff" d="M117.5,-117.97C117.5,-107.45 117.5,-95.28 117.5,-83.61"/>
<polygon fill="none" stroke="#63b8ff" points="117.5,-83.24 113.5,-77.24 117.5,-71.24 121.5,-77.24 117.5,-83.24"/>
</a>
</g>
<text text-anchor="middle" x="142" y="-92" font-family="Helvetica,sans-Serif" font-size="10.00" fill="grey"> +Buttons</text>
</g>
<!-- Node4 -->
<g id="Node000004" class="node">
<title>Node4</title>
<g id="a_Node000004"><a xlink:title=" ">
<polygon fill="white" stroke="transparent" points="365,-172.5 212,-172.5 212,-123.5 365,-123.5 365,-172.5"/>
<text text-anchor="start" x="217.5" y="-160" font-family="Helvetica,sans-Serif" font-size="10.00">Dictionary&lt; int, UIElement &gt;</text>
<text text-anchor="start" x="287" y="-145" font-family="Helvetica,sans-Serif" font-size="10.00"> </text>
<text text-anchor="start" x="287" y="-130" font-family="Helvetica,sans-Serif" font-size="10.00"> </text>
<polygon fill="#666666" stroke="#666666" points="212.5,-155 212.5,-155 365.5,-155 365.5,-155 212.5,-155"/>
<polygon fill="#666666" stroke="#666666" points="212.5,-140 212.5,-140 365.5,-140 365.5,-140 212.5,-140"/>
<polygon fill="none" stroke="#666666" points="212,-123.5 212,-172.5 365,-172.5 365,-123.5 212,-123.5"/>
</a>
</g>
</g>
<!-- Node4&#45;&gt;Node1 -->
<g id="edge3_Node000001_Node000004" class="edge">
<title>Node4&#45;&gt;Node1</title>
<g id="a_edge3_Node000001_Node000004"><a xlink:title=" ">
<path fill="none" stroke="#63b8ff" d="M251.82,-123.29C231.3,-110.04 205.14,-93.14 181.37,-77.78"/>
<polygon fill="none" stroke="#63b8ff" points="181.08,-77.59 173.87,-77.69 171,-71.07 178.21,-70.97 181.08,-77.59"/>
</a>
</g>
<text text-anchor="middle" x="235" y="-92" font-family="Helvetica,sans-Serif" font-size="10.00" fill="grey"> +Sliders</text>
</g>
</g>
</svg>
