<?xml version="1.0" encoding="UTF-8" standalone="no"?>
<!DOCTYPE svg PUBLIC "-//W3C//DTD SVG 1.1//EN"
 "http://www.w3.org/Graphics/SVG/1.1/DTD/svg11.dtd">
<!-- Generated by graphviz version 2.43.0 (0)
 -->
<!-- Title: Terraria.GameContent.UI.States.AWorkshopPublishInfoState.Recalculate Pages: 1 -->
<svg width="1265pt" height="263pt"
 viewBox="0.00 0.00 1265.00 262.50" xmlns="http://www.w3.org/2000/svg" xmlns:xlink="http://www.w3.org/1999/xlink">
<g id="graph0" class="graph" transform="scale(1 1) rotate(0) translate(4 258.5)">
<title>Terraria.GameContent.UI.States.AWorkshopPublishInfoState.Recalculate</title>
<!-- Node1 -->
<g id="Node000001" class="node">
<title>Node1</title>
<g id="a_Node000001"><a xlink:title=" ">
<polygon fill="#999999" stroke="#666666" points="187,-68 0,-68 0,-27 187,-27 187,-68"/>
<text text-anchor="start" x="8" y="-56" font-family="Helvetica,sans-Serif" font-size="10.00">Terraria.GameContent.UI.</text>
<text text-anchor="start" x="8" y="-45" font-family="Helvetica,sans-Serif" font-size="10.00">States.AWorkshopPublishInfoState.</text>
<text text-anchor="middle" x="93.5" y="-34" font-family="Helvetica,sans-Serif" font-size="10.00">Recalculate</text>
</a>
</g>
</g>
<!-- Node2 -->
<g id="Node000002" class="node">
<title>Node2</title>
<g id="a_Node000002"><a xlink:href="../../d9/d6a/classTerraria_1_1GameContent_1_1UI_1_1States_1_1AWorkshopPublishInfoState_adaa7e870c59dfb69d242147441fda416.html#adaa7e870c59dfb69d242147441fda416" target="_top" xlink:title=" ">
<polygon fill="white" stroke="#666666" points="410,-68 223,-68 223,-27 410,-27 410,-68"/>
<text text-anchor="start" x="231" y="-56" font-family="Helvetica,sans-Serif" font-size="10.00">Terraria.GameContent.UI.</text>
<text text-anchor="start" x="231" y="-45" font-family="Helvetica,sans-Serif" font-size="10.00">States.AWorkshopPublishInfoState.</text>
<text text-anchor="middle" x="316.5" y="-34" font-family="Helvetica,sans-Serif" font-size="10.00">UpdateScrollbar</text>
</a>
</g>
</g>
<!-- Node1&#45;&gt;Node2 -->
<g id="edge1_Node000001_Node000002" class="edge">
<title>Node1&#45;&gt;Node2</title>
<g id="a_edge1_Node000001_Node000002"><a xlink:title=" ">
<path fill="none" stroke="#63b8ff" d="M187.26,-47.5C195.75,-47.5 204.39,-47.5 212.96,-47.5"/>
<polygon fill="#63b8ff" stroke="#63b8ff" points="212.97,-51 222.97,-47.5 212.97,-44 212.97,-51"/>
</a>
</g>
</g>
<!-- Node3 -->
<g id="Node000003" class="node">
<title>Node3</title>
<g id="a_Node000003"><a xlink:href="../../d7/d72/classTerraria_1_1UI_1_1UIElement_a4f78a3ab59b3dffcdc5b68328a46f103.html#a4f78a3ab59b3dffcdc5b68328a46f103" target="_top" xlink:title=" ">
<polygon fill="white" stroke="#666666" points="609.5,-95 448.5,-95 448.5,-76 609.5,-76 609.5,-95"/>
<text text-anchor="middle" x="529" y="-83" font-family="Helvetica,sans-Serif" font-size="10.00">Terraria.UI.UIElement.Append</text>
</a>
</g>
</g>
<!-- Node2&#45;&gt;Node3 -->
<g id="edge2_Node000002_Node000003" class="edge">
<title>Node2&#45;&gt;Node3</title>
<g id="a_edge2_Node000002_Node000003"><a xlink:title=" ">
<path fill="none" stroke="#63b8ff" d="M410.13,-64.22C428.76,-67.58 447.92,-71.04 465.24,-74.17"/>
<polygon fill="#63b8ff" stroke="#63b8ff" points="464.74,-77.64 475.2,-75.97 465.98,-70.75 464.74,-77.64"/>
</a>
</g>
</g>
<!-- Node11 -->
<g id="Node000011" class="node">
<title>Node11</title>
<g id="a_Node000011"><a xlink:href="../../d7/d72/classTerraria_1_1UI_1_1UIElement_ac407afd27d2b68e6c175951c22e263b5.html#ac407afd27d2b68e6c175951c22e263b5" target="_top" xlink:title=" ">
<polygon fill="white" stroke="#666666" points="1050,-62.5 886,-62.5 886,-32.5 1050,-32.5 1050,-62.5"/>
<text text-anchor="start" x="894" y="-50.5" font-family="Helvetica,sans-Serif" font-size="10.00">Terraria.UI.UIElement.Remove</text>
<text text-anchor="middle" x="968" y="-39.5" font-family="Helvetica,sans-Serif" font-size="10.00">Child</text>
</a>
</g>
</g>
<!-- Node2&#45;&gt;Node11 -->
<g id="edge12_Node000002_Node000011" class="edge">
<title>Node2&#45;&gt;Node11</title>
<g id="a_edge12_Node000002_Node000011"><a xlink:title=" ">
<path fill="none" stroke="#63b8ff" d="M410.21,-47.5C534.13,-47.5 752.42,-47.5 875.64,-47.5"/>
<polygon fill="#63b8ff" stroke="#63b8ff" points="875.81,-51 885.81,-47.5 875.81,-44 875.81,-51"/>
</a>
</g>
</g>
<!-- Node12 -->
<g id="Node000012" class="node">
<title>Node12</title>
<g id="a_Node000012"><a xlink:href="../../d8/d74/structTerraria_1_1UI_1_1StyleDimension_a93e6acf229427c6435d7ee83958efba0.html#a93e6acf229427c6435d7ee83958efba0" target="_top" xlink:title=" ">
<polygon fill="white" stroke="#666666" points="612,-19 446,-19 446,0 612,0 612,-19"/>
<text text-anchor="middle" x="529" y="-7" font-family="Helvetica,sans-Serif" font-size="10.00">Terraria.UI.StyleDimension.Set</text>
</a>
</g>
</g>
<!-- Node2&#45;&gt;Node12 -->
<g id="edge13_Node000002_Node000012" class="edge">
<title>Node2&#45;&gt;Node12</title>
<g id="a_edge13_Node000002_Node000012"><a xlink:title=" ">
<path fill="none" stroke="#63b8ff" d="M410.13,-30.78C428.76,-27.42 447.92,-23.96 465.24,-20.83"/>
<polygon fill="#63b8ff" stroke="#63b8ff" points="465.98,-24.25 475.2,-19.03 464.74,-17.36 465.98,-24.25"/>
</a>
</g>
</g>
<!-- Node4 -->
<g id="Node000004" class="node">
<title>Node4</title>
<g id="a_Node000004"><a xlink:href="../../d7/d72/classTerraria_1_1UI_1_1UIElement_aa33dca6c66f9820ef270bc2e23ef1496.html#aa33dca6c66f9820ef270bc2e23ef1496" target="_top" xlink:title=" ">
<polygon fill="white" stroke="#666666" points="829,-142 648,-142 648,-123 829,-123 829,-142"/>
<text text-anchor="middle" x="738.5" y="-130" font-family="Helvetica,sans-Serif" font-size="10.00">Terraria.UI.UIElement.Recalculate</text>
</a>
</g>
</g>
<!-- Node3&#45;&gt;Node4 -->
<g id="edge3_Node000003_Node000004" class="edge">
<title>Node3&#45;&gt;Node4</title>
<g id="a_edge3_Node000003_Node000004"><a xlink:title=" ">
<path fill="none" stroke="#63b8ff" d="M571.99,-95.01C604.65,-102.41 650.14,-112.71 685.17,-120.65"/>
<polygon fill="#63b8ff" stroke="#63b8ff" points="684.69,-124.13 695.22,-122.92 686.24,-117.3 684.69,-124.13"/>
</a>
</g>
</g>
<!-- Node10 -->
<g id="Node000010" class="node">
<title>Node10</title>
<g id="a_Node000010"><a xlink:href="../../d7/d72/classTerraria_1_1UI_1_1UIElement_a336d1ad28adbb657010e263b19095502.html#a336d1ad28adbb657010e263b19095502" target="_top" xlink:title=" ">
<polygon fill="white" stroke="#666666" points="820.5,-95 656.5,-95 656.5,-76 820.5,-76 820.5,-95"/>
<text text-anchor="middle" x="738.5" y="-83" font-family="Helvetica,sans-Serif" font-size="10.00">Terraria.UI.UIElement.Remove</text>
</a>
</g>
</g>
<!-- Node3&#45;&gt;Node10 -->
<g id="edge10_Node000003_Node000010" class="edge">
<title>Node3&#45;&gt;Node10</title>
<g id="a_edge10_Node000003_Node000010"><a xlink:title=" ">
<path fill="none" stroke="#63b8ff" d="M609.63,-85.5C621.6,-85.5 634.01,-85.5 646.2,-85.5"/>
<polygon fill="#63b8ff" stroke="#63b8ff" points="646.37,-89 656.36,-85.5 646.36,-82 646.37,-89"/>
</a>
</g>
</g>
<!-- Node5 -->
<g id="Node000005" class="node">
<title>Node5</title>
<g id="a_Node000005"><a xlink:href="../../dc/dc4/classTerraria_1_1UI_1_1UserInterface_af1df38079c1c3550e041458b43a9aceb.html#af1df38079c1c3550e041458b43a9aceb" target="_top" xlink:title=" ">
<polygon fill="white" stroke="#666666" points="1037.5,-254.5 898.5,-254.5 898.5,-224.5 1037.5,-224.5 1037.5,-254.5"/>
<text text-anchor="start" x="906.5" y="-242.5" font-family="Helvetica,sans-Serif" font-size="10.00">Terraria.UI.UserInterface.</text>
<text text-anchor="middle" x="968" y="-231.5" font-family="Helvetica,sans-Serif" font-size="10.00">GetDimensions</text>
</a>
</g>
</g>
<!-- Node4&#45;&gt;Node5 -->
<g id="edge4_Node000004_Node000005" class="edge">
<title>Node4&#45;&gt;Node5</title>
<g id="a_edge4_Node000004_Node000005"><a xlink:title=" ">
<path fill="none" stroke="#63b8ff" d="M750.81,-142.01C771.88,-159.25 819.2,-195.72 865,-215.5 872.56,-218.77 880.64,-221.63 888.82,-224.13"/>
<polygon fill="#63b8ff" stroke="#63b8ff" points="887.85,-227.49 898.43,-226.89 889.79,-220.76 887.85,-227.49"/>
</a>
</g>
</g>
<!-- Node6 -->
<g id="Node000006" class="node">
<title>Node6</title>
<g id="a_Node000006"><a xlink:href="../../d7/d72/classTerraria_1_1UI_1_1UIElement_a8cb8692a001e504adb564ae67833de3d.html#a8cb8692a001e504adb564ae67833de3d" target="_top" xlink:title=" ">
<polygon fill="white" stroke="#666666" points="1071,-206.5 865,-206.5 865,-176.5 1071,-176.5 1071,-206.5"/>
<text text-anchor="start" x="873" y="-194.5" font-family="Helvetica,sans-Serif" font-size="10.00">Terraria.UI.UIElement.Get</text>
<text text-anchor="middle" x="968" y="-183.5" font-family="Helvetica,sans-Serif" font-size="10.00">DimensionsBasedOnParentDimensions</text>
</a>
</g>
</g>
<!-- Node4&#45;&gt;Node6 -->
<g id="edge5_Node000004_Node000006" class="edge">
<title>Node4&#45;&gt;Node6</title>
<g id="a_edge5_Node000004_Node000006"><a xlink:title=" ">
<path fill="none" stroke="#63b8ff" d="M772.17,-142.01C797.44,-149.26 833.34,-159.36 865,-167.5 873.51,-169.69 882.45,-171.9 891.34,-174.06"/>
<polygon fill="#63b8ff" stroke="#63b8ff" points="890.79,-177.53 901.33,-176.47 892.43,-170.72 890.79,-177.53"/>
</a>
</g>
</g>
<!-- Node8 -->
<g id="Node000008" class="node">
<title>Node8</title>
<g id="a_Node000008"><a xlink:href="../../d7/d72/classTerraria_1_1UI_1_1UIElement_a5ad03f5ce0e776511a3b7e4a29e16caf.html#a5ad03f5ce0e776511a3b7e4a29e16caf" target="_top" xlink:title=" ">
<polygon fill="white" stroke="#666666" points="1038.5,-158.5 897.5,-158.5 897.5,-128.5 1038.5,-128.5 1038.5,-158.5"/>
<text text-anchor="start" x="905.5" y="-146.5" font-family="Helvetica,sans-Serif" font-size="10.00">Terraria.UI.UIElement.Get</text>
<text text-anchor="middle" x="968" y="-135.5" font-family="Helvetica,sans-Serif" font-size="10.00">InnerDimensions</text>
</a>
</g>
</g>
<!-- Node4&#45;&gt;Node8 -->
<g id="edge7_Node000004_Node000008" class="edge">
<title>Node4&#45;&gt;Node8</title>
<g id="a_edge7_Node000004_Node000008"><a xlink:title=" ">
<path fill="none" stroke="#63b8ff" d="M829.09,-136.83C848.18,-137.75 868.23,-138.72 886.94,-139.63"/>
<polygon fill="#63b8ff" stroke="#63b8ff" points="887.02,-143.14 897.18,-140.12 887.36,-136.15 887.02,-143.14"/>
</a>
</g>
</g>
<!-- Node9 -->
<g id="Node000009" class="node">
<title>Node9</title>
<g id="a_Node000009"><a xlink:href="../../d7/d72/classTerraria_1_1UI_1_1UIElement_a8bf52a8c33b045d1df8dbcc96bcbc818.html#a8bf52a8c33b045d1df8dbcc96bcbc818" target="_top" xlink:title=" ">
<polygon fill="white" stroke="#666666" points="1058.5,-110.5 877.5,-110.5 877.5,-80.5 1058.5,-80.5 1058.5,-110.5"/>
<text text-anchor="start" x="885.5" y="-98.5" font-family="Helvetica,sans-Serif" font-size="10.00">Terraria.UI.UIElement.Recalculate</text>
<text text-anchor="middle" x="968" y="-87.5" font-family="Helvetica,sans-Serif" font-size="10.00">Children</text>
</a>
</g>
</g>
<!-- Node4&#45;&gt;Node9 -->
<g id="edge8_Node000004_Node000009" class="edge">
<title>Node4&#45;&gt;Node9</title>
<g id="a_edge8_Node000004_Node000009"><a xlink:title=" ">
<path fill="none" stroke="#63b8ff" d="M769.24,-122.93C794.34,-117.3 831.77,-110.55 867.34,-105"/>
<polygon fill="#63b8ff" stroke="#63b8ff" points="867.96,-108.45 877.31,-103.47 866.89,-101.53 867.96,-108.45"/>
</a>
</g>
</g>
<!-- Node7 -->
<g id="Node000007" class="node">
<title>Node7</title>
<g id="a_Node000007"><a xlink:href="../../d8/d74/structTerraria_1_1UI_1_1StyleDimension_acffa4ba4c6fbf99b983c8c59f17cc855.html#acffa4ba4c6fbf99b983c8c59f17cc855" target="_top" xlink:title=" ">
<polygon fill="white" stroke="#666666" points="1257,-206.5 1107,-206.5 1107,-176.5 1257,-176.5 1257,-206.5"/>
<text text-anchor="start" x="1115" y="-194.5" font-family="Helvetica,sans-Serif" font-size="10.00">Terraria.UI.StyleDimension.</text>
<text text-anchor="middle" x="1182" y="-183.5" font-family="Helvetica,sans-Serif" font-size="10.00">GetValue</text>
</a>
</g>
</g>
<!-- Node6&#45;&gt;Node7 -->
<g id="edge6_Node000006_Node000007" class="edge">
<title>Node6&#45;&gt;Node7</title>
<g id="a_edge6_Node000006_Node000007"><a xlink:title=" ">
<path fill="none" stroke="#63b8ff" d="M1071.27,-191.5C1079.78,-191.5 1088.32,-191.5 1096.67,-191.5"/>
<polygon fill="#63b8ff" stroke="#63b8ff" points="1096.75,-195 1106.75,-191.5 1096.75,-188 1096.75,-195"/>
</a>
</g>
</g>
<!-- Node9&#45;&gt;Node4 -->
<g id="edge9_Node000009_Node000004" class="edge">
<title>Node9&#45;&gt;Node4</title>
<g id="a_edge9_Node000009_Node000004"><a xlink:title=" ">
<path fill="none" stroke="#63b8ff" d="M910.95,-110.52C889.27,-114.74 863.79,-119.15 839.19,-122.99"/>
<polygon fill="#63b8ff" stroke="#63b8ff" points="838.44,-119.56 829.09,-124.54 839.5,-126.48 838.44,-119.56"/>
</a>
</g>
</g>
<!-- Node10&#45;&gt;Node11 -->
<g id="edge11_Node000010_Node000011" class="edge">
<title>Node10&#45;&gt;Node11</title>
<g id="a_edge11_Node000010_Node000011"><a xlink:title=" ">
<path fill="none" stroke="#63b8ff" d="M796.61,-75.96C820.54,-71.96 848.95,-67.22 875.65,-62.76"/>
<polygon fill="#63b8ff" stroke="#63b8ff" points="876.5,-66.16 885.79,-61.06 875.35,-59.26 876.5,-66.16"/>
</a>
</g>
</g>
</g>
</svg>
