<?xml version="1.0" encoding="UTF-8" standalone="no"?>
<!DOCTYPE svg PUBLIC "-//W3C//DTD SVG 1.1//EN"
 "http://www.w3.org/Graphics/SVG/1.1/DTD/svg11.dtd">
<!-- Generated by graphviz version 2.43.0 (0)
 -->
<!-- Title: Terraria.GameContent.UI.Chat.PlainTagHandler.PlainSnippet Pages: 1 -->
<svg width="186pt" height="558pt"
 viewBox="0.00 0.00 186.00 558.00" xmlns="http://www.w3.org/2000/svg" xmlns:xlink="http://www.w3.org/1999/xlink">
<g id="graph0" class="graph" transform="scale(1 1) rotate(0) translate(4 554)">
<title>Terraria.GameContent.UI.Chat.PlainTagHandler.PlainSnippet</title>
<!-- Node1 -->
<g id="Node000001" class="node">
<title>Node1</title>
<g id="a_Node000001"><a xlink:title=" ">
<polygon fill="#999999" stroke="transparent" points="178,-134 0,-134 0,0 178,0 178,-134"/>
<text text-anchor="start" x="5" y="-122" font-family="Helvetica,sans-Serif" font-size="10.00">Terraria.GameContent.UI.</text>
<text text-anchor="start" x="5" y="-111" font-family="Helvetica,sans-Serif" font-size="10.00">Chat.PlainTagHandler.PlainSnippet</text>
<text text-anchor="start" x="87" y="-96" font-family="Helvetica,sans-Serif" font-size="10.00"> </text>
<text text-anchor="start" x="12.5" y="-81" font-family="Helvetica,sans-Serif" font-size="10.00">+</text>
<text text-anchor="start" x="34" y="-81" font-family="Helvetica,sans-Serif" font-size="10.00">PlainSnippet(string</text>
<text text-anchor="start" x="34" y="-70" font-family="Helvetica,sans-Serif" font-size="10.00"> text=&quot;&quot;)</text>
<text text-anchor="start" x="12.5" y="-55" font-family="Helvetica,sans-Serif" font-size="10.00">+</text>
<text text-anchor="start" x="34" y="-55" font-family="Helvetica,sans-Serif" font-size="10.00">PlainSnippet(string</text>
<text text-anchor="start" x="34" y="-44" font-family="Helvetica,sans-Serif" font-size="10.00"> text, Color color, float</text>
<text text-anchor="start" x="34" y="-33" font-family="Helvetica,sans-Serif" font-size="10.00"> scale=1f)</text>
<text text-anchor="start" x="12.5" y="-18" font-family="Helvetica,sans-Serif" font-size="10.00">+</text>
<text text-anchor="start" x="34" y="-18" font-family="Helvetica,sans-Serif" font-size="10.00">override Color GetVisible</text>
<text text-anchor="start" x="34" y="-7" font-family="Helvetica,sans-Serif" font-size="10.00">Color()</text>
<polygon fill="#666666" stroke="#666666" points="0,-106 0,-106 178,-106 178,-106 0,-106"/>
<polygon fill="#666666" stroke="#666666" points="0,-91 0,-91 178,-91 178,-91 0,-91"/>
<polygon fill="none" stroke="#666666" points="0,0 0,-134 178,-134 178,0 0,0"/>
</a>
</g>
</g>
<!-- Node2 -->
<g id="Node000002" class="node">
<title>Node2</title>
<g id="a_Node000002"><a xlink:href="../../d1/d46/classTerraria_1_1UI_1_1Chat_1_1TextSnippet.html" target="_top" xlink:title=" ">
<polygon fill="white" stroke="transparent" points="176.5,-550 1.5,-550 1.5,-170 176.5,-170 176.5,-550"/>
<text text-anchor="start" x="60.5" y="-538" font-family="Helvetica,sans-Serif" font-size="10.00">TextSnippet</text>
<text text-anchor="start" x="6" y="-523" font-family="Helvetica,sans-Serif" font-size="10.00">+</text>
<text text-anchor="start" x="19" y="-523" font-family="Helvetica,sans-Serif" font-size="10.00">string Text</text>
<text text-anchor="start" x="6" y="-508" font-family="Helvetica,sans-Serif" font-size="10.00">+</text>
<text text-anchor="start" x="19" y="-508" font-family="Helvetica,sans-Serif" font-size="10.00">string TextOriginal</text>
<text text-anchor="start" x="6" y="-493" font-family="Helvetica,sans-Serif" font-size="10.00">+</text>
<text text-anchor="start" x="19" y="-493" font-family="Helvetica,sans-Serif" font-size="10.00">Color Color</text>
<text text-anchor="start" x="6" y="-478" font-family="Helvetica,sans-Serif" font-size="10.00">+</text>
<text text-anchor="start" x="19" y="-478" font-family="Helvetica,sans-Serif" font-size="10.00">float Scale</text>
<text text-anchor="start" x="6" y="-463" font-family="Helvetica,sans-Serif" font-size="10.00">+</text>
<text text-anchor="start" x="19" y="-463" font-family="Helvetica,sans-Serif" font-size="10.00">bool CheckForHover</text>
<text text-anchor="start" x="6" y="-448" font-family="Helvetica,sans-Serif" font-size="10.00">+</text>
<text text-anchor="start" x="19" y="-448" font-family="Helvetica,sans-Serif" font-size="10.00">bool DeleteWhole</text>
<text text-anchor="start" x="6" y="-433" font-family="Helvetica,sans-Serif" font-size="10.00">+</text>
<text text-anchor="start" x="19" y="-433" font-family="Helvetica,sans-Serif" font-size="10.00">TextSnippet(string</text>
<text text-anchor="start" x="19" y="-422" font-family="Helvetica,sans-Serif" font-size="10.00"> text=&quot;&quot;)</text>
<text text-anchor="start" x="6" y="-407" font-family="Helvetica,sans-Serif" font-size="10.00">+</text>
<text text-anchor="start" x="19" y="-407" font-family="Helvetica,sans-Serif" font-size="10.00">TextSnippet(string</text>
<text text-anchor="start" x="19" y="-396" font-family="Helvetica,sans-Serif" font-size="10.00"> text, Color color,</text>
<text text-anchor="start" x="19" y="-385" font-family="Helvetica,sans-Serif" font-size="10.00"> float scale=1f)</text>
<text text-anchor="start" x="6" y="-370" font-family="Helvetica,sans-Serif" font-size="10.00">+</text>
<text text-anchor="start" x="19" y="-370" font-family="Helvetica,sans-Serif" font-size="10.00">virtual void Update()</text>
<text text-anchor="start" x="6" y="-355" font-family="Helvetica,sans-Serif" font-size="10.00">+</text>
<text text-anchor="start" x="19" y="-355" font-family="Helvetica,sans-Serif" font-size="10.00">virtual void OnHover()</text>
<text text-anchor="start" x="6" y="-340" font-family="Helvetica,sans-Serif" font-size="10.00">+</text>
<text text-anchor="start" x="19" y="-340" font-family="Helvetica,sans-Serif" font-size="10.00">virtual void OnClick()</text>
<text text-anchor="start" x="6" y="-325" font-family="Helvetica,sans-Serif" font-size="10.00">+</text>
<text text-anchor="start" x="19" y="-325" font-family="Helvetica,sans-Serif" font-size="10.00">virtual Color GetVisible</text>
<text text-anchor="start" x="19" y="-314" font-family="Helvetica,sans-Serif" font-size="10.00">Color()</text>
<text text-anchor="start" x="6" y="-299" font-family="Helvetica,sans-Serif" font-size="10.00">+</text>
<text text-anchor="start" x="19" y="-299" font-family="Helvetica,sans-Serif" font-size="10.00">virtual bool UniqueDraw</text>
<text text-anchor="start" x="19" y="-288" font-family="Helvetica,sans-Serif" font-size="10.00">(bool justCheckingString,</text>
<text text-anchor="start" x="19" y="-277" font-family="Helvetica,sans-Serif" font-size="10.00"> out Vector2 size, SpriteBatch</text>
<text text-anchor="start" x="19" y="-266" font-family="Helvetica,sans-Serif" font-size="10.00"> spriteBatch, Vector2 position</text>
<text text-anchor="start" x="19" y="-255" font-family="Helvetica,sans-Serif" font-size="10.00">=default(Vector2), Color color</text>
<text text-anchor="start" x="19" y="-244" font-family="Helvetica,sans-Serif" font-size="10.00">=default(Color), float scale=1f)</text>
<text text-anchor="start" x="6" y="-229" font-family="Helvetica,sans-Serif" font-size="10.00">+</text>
<text text-anchor="start" x="19" y="-229" font-family="Helvetica,sans-Serif" font-size="10.00">virtual TextSnippet</text>
<text text-anchor="start" x="19" y="-218" font-family="Helvetica,sans-Serif" font-size="10.00"> CopyMorph(string newText)</text>
<text text-anchor="start" x="6" y="-203" font-family="Helvetica,sans-Serif" font-size="10.00">+</text>
<text text-anchor="start" x="19" y="-203" font-family="Helvetica,sans-Serif" font-size="10.00">virtual float GetStringLength</text>
<text text-anchor="start" x="19" y="-192" font-family="Helvetica,sans-Serif" font-size="10.00">(DynamicSpriteFont font)</text>
<text text-anchor="start" x="6" y="-177" font-family="Helvetica,sans-Serif" font-size="10.00">+</text>
<text text-anchor="start" x="19" y="-177" font-family="Helvetica,sans-Serif" font-size="10.00">override string ToString()</text>
<polygon fill="#666666" stroke="#666666" points="2,-533 2,-533 177,-533 177,-533 2,-533"/>
<polygon fill="#666666" stroke="#666666" points="2,-443 2,-443 17,-443 17,-443 2,-443"/>
<polygon fill="#666666" stroke="#666666" points="17,-443 17,-443 177,-443 177,-443 17,-443"/>
<polygon fill="none" stroke="#666666" points="1.5,-170 1.5,-550 176.5,-550 176.5,-170 1.5,-170"/>
</a>
</g>
</g>
<!-- Node2&#45;&gt;Node1 -->
<g id="edge1_Node000001_Node000002" class="edge">
<title>Node2&#45;&gt;Node1</title>
<g id="a_edge1_Node000001_Node000002"><a xlink:title=" ">
<path fill="none" stroke="#63b8ff" d="M89,-159.65C89,-150.79 89,-142.24 89,-134.16"/>
<polygon fill="none" stroke="#63b8ff" points="85.5,-159.78 89,-169.78 92.5,-159.78 85.5,-159.78"/>
</a>
</g>
</g>
</g>
</svg>
