<?xml version="1.0" encoding="UTF-8" standalone="no"?>
<!DOCTYPE svg PUBLIC "-//W3C//DTD SVG 1.1//EN"
 "http://www.w3.org/Graphics/SVG/1.1/DTD/svg11.dtd">
<!-- Generated by graphviz version 2.43.0 (0)
 -->
<!-- Title: Terraria.IO.FileData Pages: 1 -->
<svg width="471pt" height="591pt"
 viewBox="0.00 0.00 471.00 591.00" xmlns="http://www.w3.org/2000/svg" xmlns:xlink="http://www.w3.org/1999/xlink">
<g id="graph0" class="graph" transform="scale(1 1) rotate(0) translate(4 587)">
<title>Terraria.IO.FileData</title>
<!-- Node1 -->
<g id="Node000001" class="node">
<title>Node1</title>
<g id="a_Node000001"><a xlink:title=" ">
<polygon fill="#999999" stroke="transparent" points="190,-217 0,-217 0,0 190,0 190,-217"/>
<text text-anchor="start" x="48" y="-204.5" font-family="Helvetica,sans-Serif" font-size="10.00">Terraria.IO.FileData</text>
<text text-anchor="start" x="4" y="-189.5" font-family="Helvetica,sans-Serif" font-size="10.00">+</text>
<text text-anchor="start" x="17" y="-189.5" font-family="Helvetica,sans-Serif" font-size="10.00">string Path</text>
<text text-anchor="start" x="4" y="-174.5" font-family="Helvetica,sans-Serif" font-size="10.00">+</text>
<text text-anchor="start" x="17" y="-174.5" font-family="Helvetica,sans-Serif" font-size="10.00">bool IsCloudSave</text>
<text text-anchor="start" x="4" y="-159.5" font-family="Helvetica,sans-Serif" font-size="10.00">+</text>
<text text-anchor="start" x="17" y="-159.5" font-family="Helvetica,sans-Serif" font-size="10.00">bool IsFavorite</text>
<text text-anchor="start" x="4" y="-144.5" font-family="Helvetica,sans-Serif" font-size="10.00">+</text>
<text text-anchor="start" x="17" y="-144.5" font-family="Helvetica,sans-Serif" font-size="10.00">void ToggleFavorite()</text>
<text text-anchor="start" x="4" y="-129.5" font-family="Helvetica,sans-Serif" font-size="10.00">+</text>
<text text-anchor="start" x="17" y="-129.5" font-family="Helvetica,sans-Serif" font-size="10.00">string GetFileName</text>
<text text-anchor="start" x="17" y="-118.5" font-family="Helvetica,sans-Serif" font-size="10.00">(bool includeExtension=true)</text>
<text text-anchor="start" x="4" y="-103.5" font-family="Helvetica,sans-Serif" font-size="10.00">+</text>
<text text-anchor="start" x="17" y="-103.5" font-family="Helvetica,sans-Serif" font-size="10.00">void SetFavorite(bool</text>
<text text-anchor="start" x="17" y="-92.5" font-family="Helvetica,sans-Serif" font-size="10.00"> favorite, bool saveChanges=true)</text>
<text text-anchor="start" x="4" y="-77.5" font-family="Helvetica,sans-Serif" font-size="10.00">+</text>
<text text-anchor="start" x="17" y="-77.5" font-family="Helvetica,sans-Serif" font-size="10.00">void SetAsActive()</text>
<text text-anchor="start" x="4" y="-62.5" font-family="Helvetica,sans-Serif" font-size="10.00">+</text>
<text text-anchor="start" x="17" y="-62.5" font-family="Helvetica,sans-Serif" font-size="10.00">void MoveToCloud()</text>
<text text-anchor="start" x="4" y="-47.5" font-family="Helvetica,sans-Serif" font-size="10.00">+</text>
<text text-anchor="start" x="17" y="-47.5" font-family="Helvetica,sans-Serif" font-size="10.00">void MoveToLocal()</text>
<text text-anchor="start" x="4" y="-32.5" font-family="Helvetica,sans-Serif" font-size="10.00">#</text>
<text text-anchor="start" x="17" y="-32.5" font-family="Helvetica,sans-Serif" font-size="10.00">FileData(string type)</text>
<text text-anchor="start" x="4" y="-17.5" font-family="Helvetica,sans-Serif" font-size="10.00">#</text>
<text text-anchor="start" x="17" y="-17.5" font-family="Helvetica,sans-Serif" font-size="10.00">FileData(string type,</text>
<text text-anchor="start" x="17" y="-6.5" font-family="Helvetica,sans-Serif" font-size="10.00"> string path, bool isCloud)</text>
<polygon fill="#666666" stroke="#666666" points="0,-199.5 0,-199.5 190,-199.5 190,-199.5 0,-199.5"/>
<polygon fill="#666666" stroke="#666666" points="0,-154.5 0,-154.5 15,-154.5 15,-154.5 0,-154.5"/>
<polygon fill="#666666" stroke="#666666" points="15,-154.5 15,-154.5 190,-154.5 190,-154.5 15,-154.5"/>
<polygon fill="none" stroke="#666666" points="0,0 0,-217 190,-217 190,0 0,0"/>
</a>
</g>
</g>
<!-- Node2 -->
<g id="Node000002" class="node">
<title>Node2</title>
<g id="a_Node000002"><a xlink:href="../../d5/d92/classstring.html" target="_top" xlink:title=" ">
<polygon fill="white" stroke="transparent" points="59,-411 21,-411 21,-362 59,-362 59,-411"/>
<text text-anchor="start" x="26" y="-398.5" font-family="Helvetica,sans-Serif" font-size="10.00">string</text>
<text text-anchor="start" x="38" y="-383.5" font-family="Helvetica,sans-Serif" font-size="10.00"> </text>
<text text-anchor="start" x="38" y="-368.5" font-family="Helvetica,sans-Serif" font-size="10.00"> </text>
<polygon fill="#666666" stroke="#666666" points="21,-393.5 21,-393.5 59,-393.5 59,-393.5 21,-393.5"/>
<polygon fill="#666666" stroke="#666666" points="21,-378.5 21,-378.5 59,-378.5 59,-378.5 21,-378.5"/>
<polygon fill="none" stroke="#666666" points="21,-362 21,-411 59,-411 59,-362 21,-362"/>
</a>
</g>
</g>
<!-- Node2&#45;&gt;Node1 -->
<g id="edge1_Node000001_Node000002" class="edge">
<title>Node2&#45;&gt;Node1</title>
<g id="a_edge1_Node000001_Node000002"><a xlink:title=" ">
<path fill="none" stroke="#63b8ff" d="M37.55,-361.99C35.06,-332.11 32.76,-279.12 42,-235 42.42,-232.97 42.88,-230.93 43.37,-228.89"/>
<polygon fill="none" stroke="#63b8ff" points="43.41,-228.76 41.08,-221.93 46.48,-217.16 48.81,-223.98 43.41,-228.76"/>
</a>
</g>
<text text-anchor="middle" x="61.5" y="-260" font-family="Helvetica,sans-Serif" font-size="10.00" fill="grey"> #_path</text>
<text text-anchor="middle" x="61.5" y="-249" font-family="Helvetica,sans-Serif" font-size="10.00" fill="grey">+Name</text>
<text text-anchor="middle" x="61.5" y="-238" font-family="Helvetica,sans-Serif" font-size="10.00" fill="grey">+Type</text>
</g>
<!-- Node3 -->
<g id="Node000003" class="node">
<title>Node3</title>
<g id="a_Node000003"><a xlink:href="../../d9/db9/classbool.html" target="_top" xlink:title=" ">
<polygon fill="white" stroke="transparent" points="128,-583 96,-583 96,-534 128,-534 128,-583"/>
<text text-anchor="start" x="101" y="-570.5" font-family="Helvetica,sans-Serif" font-size="10.00">bool</text>
<text text-anchor="start" x="110" y="-555.5" font-family="Helvetica,sans-Serif" font-size="10.00"> </text>
<text text-anchor="start" x="110" y="-540.5" font-family="Helvetica,sans-Serif" font-size="10.00"> </text>
<polygon fill="#666666" stroke="#666666" points="96,-565.5 96,-565.5 128,-565.5 128,-565.5 96,-565.5"/>
<polygon fill="#666666" stroke="#666666" points="96,-550.5 96,-550.5 128,-550.5 128,-550.5 96,-550.5"/>
<polygon fill="none" stroke="#666666" points="96,-534 96,-583 128,-583 128,-534 96,-534"/>
</a>
</g>
</g>
<!-- Node3&#45;&gt;Node1 -->
<g id="edge2_Node000001_Node000003" class="edge">
<title>Node3&#45;&gt;Node1</title>
<g id="a_edge2_Node000001_Node000003"><a xlink:title=" ">
<path fill="none" stroke="#63b8ff" d="M111.1,-533.73C108.97,-477.7 103.53,-334.21 99.56,-229.58"/>
<polygon fill="none" stroke="#63b8ff" points="99.55,-229.33 95.32,-223.49 99.09,-217.34 103.32,-223.18 99.55,-229.33"/>
</a>
</g>
<text text-anchor="middle" x="148.5" y="-389.5" font-family="Helvetica,sans-Serif" font-size="10.00" fill="grey"> #_isCloudSave</text>
<text text-anchor="middle" x="148.5" y="-378.5" font-family="Helvetica,sans-Serif" font-size="10.00" fill="grey">#_isFavorite</text>
</g>
<!-- Node4 -->
<g id="Node000004" class="node">
<title>Node4</title>
<g id="a_Node000004"><a xlink:href="../../d3/d37/classTerraria_1_1IO_1_1FileMetadata.html" target="_top" xlink:title=" ">
<polygon fill="white" stroke="transparent" points="376.5,-487 219.5,-487 219.5,-286 376.5,-286 376.5,-487"/>
<text text-anchor="start" x="239.5" y="-474.5" font-family="Helvetica,sans-Serif" font-size="10.00">Terraria.IO.FileMetadata</text>
<text text-anchor="start" x="296.5" y="-459.5" font-family="Helvetica,sans-Serif" font-size="10.00"> </text>
<text text-anchor="start" x="224" y="-444.5" font-family="Helvetica,sans-Serif" font-size="10.00">+</text>
<text text-anchor="start" x="237" y="-444.5" font-family="Helvetica,sans-Serif" font-size="10.00">void Write(BinaryWriter</text>
<text text-anchor="start" x="237" y="-433.5" font-family="Helvetica,sans-Serif" font-size="10.00"> writer)</text>
<text text-anchor="start" x="224" y="-418.5" font-family="Helvetica,sans-Serif" font-size="10.00">+</text>
<text text-anchor="start" x="237" y="-418.5" font-family="Helvetica,sans-Serif" font-size="10.00">void IncrementAndWrite</text>
<text text-anchor="start" x="237" y="-407.5" font-family="Helvetica,sans-Serif" font-size="10.00">(BinaryWriter writer)</text>
<text text-anchor="start" x="224" y="-392.5" font-family="Helvetica,sans-Serif" font-size="10.00">+</text>
<text text-anchor="start" x="237" y="-392.5" font-family="Helvetica,sans-Serif" font-size="10.00">static FileMetadata</text>
<text text-anchor="start" x="237" y="-381.5" font-family="Helvetica,sans-Serif" font-size="10.00"> FromCurrentSettings</text>
<text text-anchor="start" x="237" y="-370.5" font-family="Helvetica,sans-Serif" font-size="10.00">(FileType type)</text>
<text text-anchor="start" x="224" y="-355.5" font-family="Helvetica,sans-Serif" font-size="10.00">+</text>
<text text-anchor="start" x="237" y="-355.5" font-family="Helvetica,sans-Serif" font-size="10.00">static FileMetadata</text>
<text text-anchor="start" x="237" y="-344.5" font-family="Helvetica,sans-Serif" font-size="10.00"> Read(BinaryReader reader,</text>
<text text-anchor="start" x="237" y="-333.5" font-family="Helvetica,sans-Serif" font-size="10.00"> FileType expectedType)</text>
<text text-anchor="start" x="226.5" y="-318.5" font-family="Helvetica,sans-Serif" font-size="10.00">&#45;</text>
<text text-anchor="start" x="237" y="-318.5" font-family="Helvetica,sans-Serif" font-size="10.00">FileMetadata()</text>
<text text-anchor="start" x="226.5" y="-303.5" font-family="Helvetica,sans-Serif" font-size="10.00">&#45;</text>
<text text-anchor="start" x="237" y="-303.5" font-family="Helvetica,sans-Serif" font-size="10.00">void Read(BinaryReader</text>
<text text-anchor="start" x="237" y="-292.5" font-family="Helvetica,sans-Serif" font-size="10.00"> reader)</text>
<polygon fill="#666666" stroke="#666666" points="220,-469.5 220,-469.5 377,-469.5 377,-469.5 220,-469.5"/>
<polygon fill="#666666" stroke="#666666" points="220,-454.5 220,-454.5 377,-454.5 377,-454.5 220,-454.5"/>
<polygon fill="none" stroke="#666666" points="219.5,-286 219.5,-487 376.5,-487 376.5,-286 219.5,-286"/>
</a>
</g>
</g>
<!-- Node3&#45;&gt;Node4 -->
<g id="edge8_Node000004_Node000003" class="edge">
<title>Node3&#45;&gt;Node4</title>
<g id="a_edge8_Node000004_Node000003"><a xlink:title=" ">
<path fill="none" stroke="#63b8ff" d="M128.05,-535.99C135.78,-526.16 145.43,-514.59 155,-505 157.96,-502.04 182.21,-482.01 209.92,-459.31"/>
<polygon fill="none" stroke="#63b8ff" points="210.14,-459.13 212.25,-452.23 219.43,-451.53 217.32,-458.43 210.14,-459.13"/>
</a>
</g>
<text text-anchor="middle" x="184.5" y="-508" font-family="Helvetica,sans-Serif" font-size="10.00" fill="grey"> +IsFavorite</text>
</g>
<!-- Node4&#45;&gt;Node1 -->
<g id="edge3_Node000001_Node000004" class="edge">
<title>Node4&#45;&gt;Node1</title>
<g id="a_edge3_Node000001_Node000004"><a xlink:title=" ">
<path fill="none" stroke="#63b8ff" d="M224.71,-285.86C210.72,-266.84 195.96,-246.76 181.6,-227.24"/>
<polygon fill="none" stroke="#63b8ff" points="181.47,-227.06 174.69,-224.6 174.36,-217.39 181.13,-219.86 181.47,-227.06"/>
</a>
</g>
<text text-anchor="middle" x="238" y="-249" font-family="Helvetica,sans-Serif" font-size="10.00" fill="grey"> +Metadata</text>
</g>
<!-- Node5 -->
<g id="Node000005" class="node">
<title>Node5</title>
<g id="a_Node000005"><a xlink:title=" ">
<polygon fill="white" stroke="transparent" points="229,-583 191,-583 191,-534 229,-534 229,-583"/>
<text text-anchor="start" x="196" y="-570.5" font-family="Helvetica,sans-Serif" font-size="10.00">ulong</text>
<text text-anchor="start" x="208" y="-555.5" font-family="Helvetica,sans-Serif" font-size="10.00"> </text>
<text text-anchor="start" x="208" y="-540.5" font-family="Helvetica,sans-Serif" font-size="10.00"> </text>
<polygon fill="#666666" stroke="#666666" points="191,-565.5 191,-565.5 229,-565.5 229,-565.5 191,-565.5"/>
<polygon fill="#666666" stroke="#666666" points="191,-550.5 191,-550.5 229,-550.5 229,-550.5 191,-550.5"/>
<polygon fill="none" stroke="#666666" points="191,-534 191,-583 229,-583 229,-534 191,-534"/>
</a>
</g>
</g>
<!-- Node5&#45;&gt;Node4 -->
<g id="edge4_Node000004_Node000005" class="edge">
<title>Node5&#45;&gt;Node4</title>
<g id="a_edge4_Node000004_Node000005"><a xlink:title=" ">
<path fill="none" stroke="#63b8ff" d="M213.01,-533.94C214.68,-524.69 217.22,-514.12 221,-505 221.97,-502.67 222.98,-500.33 224.04,-498"/>
<polygon fill="none" stroke="#63b8ff" points="224.08,-497.91 223.07,-490.77 229.28,-487.09 230.29,-494.23 224.08,-497.91"/>
</a>
</g>
<text text-anchor="middle" x="268" y="-508" font-family="Helvetica,sans-Serif" font-size="10.00" fill="grey"> +MAGIC_NUMBER</text>
</g>
<!-- Node6 -->
<g id="Node000006" class="node">
<title>Node6</title>
<g id="a_Node000006"><a xlink:href="../../d1/da0/classint.html" target="_top" xlink:title=" ">
<polygon fill="white" stroke="transparent" points="338.5,-583 315.5,-583 315.5,-534 338.5,-534 338.5,-583"/>
<text text-anchor="start" x="321" y="-570.5" font-family="Helvetica,sans-Serif" font-size="10.00">int</text>
<text text-anchor="start" x="325.5" y="-555.5" font-family="Helvetica,sans-Serif" font-size="10.00"> </text>
<text text-anchor="start" x="325.5" y="-540.5" font-family="Helvetica,sans-Serif" font-size="10.00"> </text>
<polygon fill="#666666" stroke="#666666" points="316,-565.5 316,-565.5 339,-565.5 339,-565.5 316,-565.5"/>
<polygon fill="#666666" stroke="#666666" points="316,-550.5 316,-550.5 339,-550.5 339,-550.5 316,-550.5"/>
<polygon fill="none" stroke="#666666" points="315.5,-534 315.5,-583 338.5,-583 338.5,-534 315.5,-534"/>
</a>
</g>
</g>
<!-- Node6&#45;&gt;Node4 -->
<g id="edge5_Node000004_Node000006" class="edge">
<title>Node6&#45;&gt;Node4</title>
<g id="a_edge5_Node000004_Node000006"><a xlink:title=" ">
<path fill="none" stroke="#63b8ff" d="M322.97,-533.86C321.31,-524.15 319.26,-512.16 317.06,-499.24"/>
<polygon fill="none" stroke="#63b8ff" points="317.02,-498.99 312.07,-493.75 315,-487.17 319.95,-492.41 317.02,-498.99"/>
</a>
</g>
<text text-anchor="middle" x="337" y="-508" font-family="Helvetica,sans-Serif" font-size="10.00" fill="grey"> +SIZE</text>
</g>
<!-- Node7 -->
<g id="Node000007" class="node">
<title>Node7</title>
<g id="a_Node000007"><a xlink:title=" ">
<polygon fill="white" stroke="transparent" points="409,-583 359,-583 359,-534 409,-534 409,-583"/>
<text text-anchor="start" x="364" y="-570.5" font-family="Helvetica,sans-Serif" font-size="10.00">FileType</text>
<text text-anchor="start" x="382" y="-555.5" font-family="Helvetica,sans-Serif" font-size="10.00"> </text>
<text text-anchor="start" x="382" y="-540.5" font-family="Helvetica,sans-Serif" font-size="10.00"> </text>
<polygon fill="#666666" stroke="#666666" points="359,-565.5 359,-565.5 409,-565.5 409,-565.5 359,-565.5"/>
<polygon fill="#666666" stroke="#666666" points="359,-550.5 359,-550.5 409,-550.5 409,-550.5 359,-550.5"/>
<polygon fill="none" stroke="#666666" points="359,-534 359,-583 409,-583 409,-534 359,-534"/>
</a>
</g>
</g>
<!-- Node7&#45;&gt;Node4 -->
<g id="edge6_Node000004_Node000007" class="edge">
<title>Node7&#45;&gt;Node4</title>
<g id="a_edge6_Node000004_Node000007"><a xlink:title=" ">
<path fill="none" stroke="#63b8ff" d="M372.41,-533.95C367.93,-524.89 362.75,-514.45 358,-505 356.85,-502.72 355.69,-500.42 354.52,-498.1"/>
<polygon fill="none" stroke="#63b8ff" points="354.4,-497.85 348.12,-494.3 348.99,-487.14 355.26,-490.69 354.4,-497.85"/>
</a>
</g>
<text text-anchor="middle" x="381" y="-508" font-family="Helvetica,sans-Serif" font-size="10.00" fill="grey"> +Type</text>
</g>
<!-- Node8 -->
<g id="Node000008" class="node">
<title>Node8</title>
<g id="a_Node000008"><a xlink:title=" ">
<polygon fill="white" stroke="transparent" points="456.5,-583 427.5,-583 427.5,-534 456.5,-534 456.5,-583"/>
<text text-anchor="start" x="433" y="-570.5" font-family="Helvetica,sans-Serif" font-size="10.00">uint</text>
<text text-anchor="start" x="440.5" y="-555.5" font-family="Helvetica,sans-Serif" font-size="10.00"> </text>
<text text-anchor="start" x="440.5" y="-540.5" font-family="Helvetica,sans-Serif" font-size="10.00"> </text>
<polygon fill="#666666" stroke="#666666" points="428,-565.5 428,-565.5 457,-565.5 457,-565.5 428,-565.5"/>
<polygon fill="#666666" stroke="#666666" points="428,-550.5 428,-550.5 457,-550.5 457,-550.5 428,-550.5"/>
<polygon fill="none" stroke="#666666" points="427.5,-534 427.5,-583 456.5,-583 456.5,-534 427.5,-534"/>
</a>
</g>
</g>
<!-- Node8&#45;&gt;Node4 -->
<g id="edge7_Node000004_Node000008" class="edge">
<title>Node8&#45;&gt;Node4</title>
<g id="a_edge7_Node000004_Node000008"><a xlink:title=" ">
<path fill="none" stroke="#63b8ff" d="M427.33,-537.54C419.91,-527.62 410.66,-515.54 402,-505 396.41,-498.2 390.58,-491.24 384.65,-484.28"/>
<polygon fill="none" stroke="#63b8ff" points="384.33,-483.9 377.38,-481.95 376.52,-474.79 383.46,-476.74 384.33,-483.9"/>
</a>
</g>
<text text-anchor="middle" x="436" y="-508" font-family="Helvetica,sans-Serif" font-size="10.00" fill="grey"> +Revision</text>
</g>
</g>
</svg>
