<?xml version="1.0" encoding="UTF-8" standalone="no"?>
<!DOCTYPE svg PUBLIC "-//W3C//DTD SVG 1.1//EN"
 "http://www.w3.org/Graphics/SVG/1.1/DTD/svg11.dtd">
<!-- Generated by graphviz version 2.43.0 (0)
 -->
<!-- Title: ItemSorting Pages: 1 -->
<svg width="278pt" height="391pt"
 viewBox="0.00 0.00 278.00 391.00" xmlns="http://www.w3.org/2000/svg" xmlns:xlink="http://www.w3.org/1999/xlink">
<g id="graph0" class="graph" transform="scale(1 1) rotate(0) translate(4 387)">
<title>ItemSorting</title>
<polygon fill="white" stroke="transparent" points="-4,4 -4,-387 274,-387 274,4 -4,4"/>
<!-- Node1 -->
<g id="node1" class="node">
<title>Node1</title>
<g id="a_node1"><a xlink:title=" ">
<polygon fill="#bfbfbf" stroke="black" points="31.5,-0.5 31.5,-266.5 229.5,-266.5 229.5,-0.5 31.5,-0.5"/>
<text text-anchor="middle" x="130.5" y="-254.5" font-family="Helvetica,sans-Serif" font-size="10.00">ItemSorting</text>
<polyline fill="none" stroke="black" points="31.5,-247.5 229.5,-247.5 "/>
<text text-anchor="middle" x="130.5" y="-235.5" font-family="Helvetica,sans-Serif" font-size="10.00"> </text>
<polyline fill="none" stroke="black" points="31.5,-228.5 229.5,-228.5 "/>
<text text-anchor="start" x="39.5" y="-216.5" font-family="Helvetica,sans-Serif" font-size="10.00">+ static void SetupWhiteLists()</text>
<text text-anchor="start" x="39.5" y="-205.5" font-family="Helvetica,sans-Serif" font-size="10.00">+ static void SortInventory()</text>
<text text-anchor="start" x="39.5" y="-194.5" font-family="Helvetica,sans-Serif" font-size="10.00">+ static void SortChest()</text>
<text text-anchor="start" x="39.5" y="-183.5" font-family="Helvetica,sans-Serif" font-size="10.00">+ static void SortAmmo()</text>
<text text-anchor="start" x="39.5" y="-172.5" font-family="Helvetica,sans-Serif" font-size="10.00">+ static void FillAmmoFrom</text>
<text text-anchor="start" x="39.5" y="-161.5" font-family="Helvetica,sans-Serif" font-size="10.00">Inventory()</text>
<text text-anchor="start" x="39.5" y="-150.5" font-family="Helvetica,sans-Serif" font-size="10.00">+ static void ClearAmmoSlot</text>
<text text-anchor="start" x="39.5" y="-139.5" font-family="Helvetica,sans-Serif" font-size="10.00">Spaces()</text>
<text text-anchor="start" x="39.5" y="-128.5" font-family="Helvetica,sans-Serif" font-size="10.00">&#45; static void SetupSorting</text>
<text text-anchor="start" x="39.5" y="-117.5" font-family="Helvetica,sans-Serif" font-size="10.00">Priorities()</text>
<text text-anchor="start" x="39.5" y="-106.5" font-family="Helvetica,sans-Serif" font-size="10.00">&#45; static void Sort(Item</text>
<text text-anchor="start" x="39.5" y="-95.5" font-family="Helvetica,sans-Serif" font-size="10.00">[] inv, params int[]</text>
<text text-anchor="start" x="39.5" y="-84.5" font-family="Helvetica,sans-Serif" font-size="10.00"> ignoreSlots)</text>
<text text-anchor="start" x="39.5" y="-73.5" font-family="Helvetica,sans-Serif" font-size="10.00">&#45; static void SortCoins()</text>
<text text-anchor="start" x="39.5" y="-62.5" font-family="Helvetica,sans-Serif" font-size="10.00">&#45; static void RefillItemStack</text>
<text text-anchor="start" x="39.5" y="-51.5" font-family="Helvetica,sans-Serif" font-size="10.00">(Item[] inv, Item itemToRefill,</text>
<text text-anchor="start" x="39.5" y="-40.5" font-family="Helvetica,sans-Serif" font-size="10.00"> int loopStartIndex, int loopEndIndex)</text>
<text text-anchor="start" x="39.5" y="-29.5" font-family="Helvetica,sans-Serif" font-size="10.00">&#45; static void TrySlidingUp</text>
<text text-anchor="start" x="39.5" y="-18.5" font-family="Helvetica,sans-Serif" font-size="10.00">(Item[] inv, int slot,</text>
<text text-anchor="start" x="39.5" y="-7.5" font-family="Helvetica,sans-Serif" font-size="10.00"> int minimumIndex)</text>
</a>
</g>
</g>
<!-- Node2 -->
<g id="node2" class="node">
<title>Node2</title>
<g id="a_node2"><a xlink:title=" ">
<polygon fill="white" stroke="#bfbfbf" points="0,-314.5 0,-382.5 117,-382.5 117,-314.5 0,-314.5"/>
<text text-anchor="start" x="8" y="-370.5" font-family="Helvetica,sans-Serif" font-size="10.00">static Dictionary&lt;</text>
<text text-anchor="middle" x="58.5" y="-359.5" font-family="Helvetica,sans-Serif" font-size="10.00"> string, List&lt; int &gt; &gt;</text>
<polyline fill="none" stroke="#bfbfbf" points="0,-352.5 117,-352.5 "/>
<text text-anchor="middle" x="58.5" y="-340.5" font-family="Helvetica,sans-Serif" font-size="10.00"> </text>
<polyline fill="none" stroke="#bfbfbf" points="0,-333.5 117,-333.5 "/>
<text text-anchor="middle" x="58.5" y="-321.5" font-family="Helvetica,sans-Serif" font-size="10.00"> </text>
</a>
</g>
</g>
<!-- Node2&#45;&gt;Node1 -->
<g id="edge1" class="edge">
<title>Node2&#45;&gt;Node1</title>
<path fill="none" stroke="#404040" d="M69.75,-314.22C73.27,-303.81 77.4,-291.6 81.82,-278.52"/>
<polygon fill="none" stroke="#404040" points="81.93,-278.19 80.06,-271.23 85.77,-266.82 87.64,-273.79 81.93,-278.19"/>
<text text-anchor="middle" x="122.5" y="-288" font-family="Helvetica,sans-Serif" font-size="10.00"> &#45;_layerWhiteLists</text>
</g>
<!-- Node3 -->
<g id="node3" class="node">
<title>Node3</title>
<g id="a_node3"><a xlink:title=" ">
<polygon fill="white" stroke="#bfbfbf" points="135,-314.5 135,-382.5 270,-382.5 270,-314.5 135,-314.5"/>
<text text-anchor="start" x="143" y="-370.5" font-family="Helvetica,sans-Serif" font-size="10.00">static List&lt; ItemSorting.</text>
<text text-anchor="middle" x="202.5" y="-359.5" font-family="Helvetica,sans-Serif" font-size="10.00">ItemSortingLayer &gt;</text>
<polyline fill="none" stroke="#bfbfbf" points="135,-352.5 270,-352.5 "/>
<text text-anchor="middle" x="202.5" y="-340.5" font-family="Helvetica,sans-Serif" font-size="10.00"> </text>
<polyline fill="none" stroke="#bfbfbf" points="135,-333.5 270,-333.5 "/>
<text text-anchor="middle" x="202.5" y="-321.5" font-family="Helvetica,sans-Serif" font-size="10.00"> </text>
</a>
</g>
</g>
<!-- Node3&#45;&gt;Node1 -->
<g id="edge2" class="edge">
<title>Node3&#45;&gt;Node1</title>
<path fill="none" stroke="#404040" d="M191.25,-314.22C187.73,-303.81 183.6,-291.6 179.18,-278.52"/>
<polygon fill="none" stroke="#404040" points="179.07,-278.19 173.36,-273.79 175.23,-266.82 180.94,-271.23 179.07,-278.19"/>
<text text-anchor="middle" x="210" y="-288" font-family="Helvetica,sans-Serif" font-size="10.00"> &#45;_layerList</text>
</g>
</g>
</svg>
