<?xml version="1.0" encoding="UTF-8" standalone="no"?>
<!DOCTYPE svg PUBLIC "-//W3C//DTD SVG 1.1//EN"
 "http://www.w3.org/Graphics/SVG/1.1/DTD/svg11.dtd">
<!-- Generated by graphviz version 2.43.0 (0)
 -->
<!-- Title: Terraria.Graphics.Effects.FilterManager.Configuration_OnSave Pages: 1 -->
<svg width="980pt" height="38pt"
 viewBox="0.00 0.00 980.00 38.00" xmlns="http://www.w3.org/2000/svg" xmlns:xlink="http://www.w3.org/1999/xlink">
<g id="graph0" class="graph" transform="scale(1 1) rotate(0) translate(4 34)">
<title>Terraria.Graphics.Effects.FilterManager.Configuration_OnSave</title>
<!-- Node1 -->
<g id="Node000001" class="node">
<title>Node1</title>
<g id="a_Node000001"><a xlink:title=" ">
<polygon fill="#999999" stroke="#666666" points="194,-30 0,-30 0,0 194,0 194,-30"/>
<text text-anchor="start" x="8" y="-18" font-family="Helvetica,sans-Serif" font-size="10.00">Terraria.Graphics.Effects.</text>
<text text-anchor="middle" x="97" y="-7" font-family="Helvetica,sans-Serif" font-size="10.00">FilterManager.Configuration_OnSave</text>
</a>
</g>
</g>
<!-- Node2 -->
<g id="Node000002" class="node">
<title>Node2</title>
<g id="a_Node000002"><a xlink:href="../../df/d93/classTerraria_1_1IO_1_1Preferences_aa84a1538cf85f433fea013386c3b1738.html#aa84a1538cf85f433fea013386c3b1738" target="_top" xlink:title=" ">
<polygon fill="white" stroke="#666666" points="376,-24.5 230,-24.5 230,-5.5 376,-5.5 376,-24.5"/>
<text text-anchor="middle" x="303" y="-12.5" font-family="Helvetica,sans-Serif" font-size="10.00">Terraria.IO.Preferences.Put</text>
</a>
</g>
</g>
<!-- Node1&#45;&gt;Node2 -->
<g id="edge1_Node000001_Node000002" class="edge">
<title>Node1&#45;&gt;Node2</title>
<g id="a_edge1_Node000001_Node000002"><a xlink:title=" ">
<path fill="none" stroke="#63b8ff" d="M194.03,-15C202.62,-15 211.28,-15 219.74,-15"/>
<polygon fill="#63b8ff" stroke="#63b8ff" points="219.95,-18.5 229.95,-15 219.95,-11.5 219.95,-18.5"/>
</a>
</g>
</g>
<!-- Node3 -->
<g id="Node000003" class="node">
<title>Node3</title>
<g id="a_Node000003"><a xlink:href="../../df/d93/classTerraria_1_1IO_1_1Preferences_acc1eeb6dae40145e0255add52d3c7ec3.html#acc1eeb6dae40145e0255add52d3c7ec3" target="_top" xlink:title=" ">
<polygon fill="white" stroke="#666666" points="567,-24.5 412,-24.5 412,-5.5 567,-5.5 567,-24.5"/>
<text text-anchor="middle" x="489.5" y="-12.5" font-family="Helvetica,sans-Serif" font-size="10.00">Terraria.IO.Preferences.Save</text>
</a>
</g>
</g>
<!-- Node2&#45;&gt;Node3 -->
<g id="edge2_Node000002_Node000003" class="edge">
<title>Node2&#45;&gt;Node3</title>
<g id="a_edge2_Node000002_Node000003"><a xlink:title=" ">
<path fill="none" stroke="#63b8ff" d="M376.13,-15C384.55,-15 393.21,-15 401.81,-15"/>
<polygon fill="#63b8ff" stroke="#63b8ff" points="401.86,-18.5 411.86,-15 401.86,-11.5 401.86,-18.5"/>
</a>
</g>
</g>
<!-- Node4 -->
<g id="Node000004" class="node">
<title>Node4</title>
<g id="a_Node000004"><a xlink:href="../../d4/d8f/classTerraria_1_1Localization_1_1Language_ae4636a4800b9ecbaa498954520462f78.html#ae4636a4800b9ecbaa498954520462f78" target="_top" xlink:title=" ">
<polygon fill="white" stroke="#666666" points="771,-30 603,-30 603,0 771,0 771,-30"/>
<text text-anchor="start" x="611" y="-18" font-family="Helvetica,sans-Serif" font-size="10.00">Terraria.Localization.Language.</text>
<text text-anchor="middle" x="687" y="-7" font-family="Helvetica,sans-Serif" font-size="10.00">GetTextValue</text>
</a>
</g>
</g>
<!-- Node3&#45;&gt;Node4 -->
<g id="edge3_Node000003_Node000004" class="edge">
<title>Node3&#45;&gt;Node4</title>
<g id="a_edge3_Node000003_Node000004"><a xlink:title=" ">
<path fill="none" stroke="#63b8ff" d="M567.21,-15C575.59,-15 584.18,-15 592.74,-15"/>
<polygon fill="#63b8ff" stroke="#63b8ff" points="592.74,-18.5 602.74,-15 592.74,-11.5 592.74,-18.5"/>
</a>
</g>
</g>
<!-- Node5 -->
<g id="Node000005" class="node">
<title>Node5</title>
<g id="a_Node000005"><a xlink:href="../../d8/d74/classTerraria_1_1Localization_1_1LanguageManager_a9f1901e50105d9873d2fdf8816e122de.html#a9f1901e50105d9873d2fdf8816e122de" target="_top" xlink:title=" ">
<polygon fill="white" stroke="#666666" points="972,-30 807,-30 807,0 972,0 972,-30"/>
<text text-anchor="start" x="815" y="-18" font-family="Helvetica,sans-Serif" font-size="10.00">Terraria.Localization.Language</text>
<text text-anchor="middle" x="889.5" y="-7" font-family="Helvetica,sans-Serif" font-size="10.00">Manager.GetTextValue</text>
</a>
</g>
</g>
<!-- Node4&#45;&gt;Node5 -->
<g id="edge4_Node000004_Node000005" class="edge">
<title>Node4&#45;&gt;Node5</title>
<g id="a_edge4_Node000004_Node000005"><a xlink:title=" ">
<path fill="none" stroke="#63b8ff" d="M771.29,-15C779.63,-15 788.12,-15 796.54,-15"/>
<polygon fill="#63b8ff" stroke="#63b8ff" points="796.76,-18.5 806.76,-15 796.76,-11.5 796.76,-18.5"/>
</a>
</g>
</g>
</g>
</svg>
