<?xml version="1.0" encoding="UTF-8" standalone="no"?>
<!DOCTYPE svg PUBLIC "-//W3C//DTD SVG 1.1//EN"
 "http://www.w3.org/Graphics/SVG/1.1/DTD/svg11.dtd">
<!-- Generated by graphviz version 2.43.0 (0)
 -->
<!-- Title: SocialAPI.Initialize Pages: 1 -->
<svg width="525pt" height="154pt"
 viewBox="0.00 0.00 525.00 153.50" xmlns="http://www.w3.org/2000/svg" xmlns:xlink="http://www.w3.org/1999/xlink">
<g id="graph0" class="graph" transform="scale(1 1) rotate(0) translate(4 149.5)">
<title>SocialAPI.Initialize</title>
<polygon fill="white" stroke="transparent" points="-4,4 -4,-149.5 521,-149.5 521,4 -4,4"/>
<!-- Node1 -->
<g id="node1" class="node">
<title>Node1</title>
<g id="a_node1"><a xlink:title=" ">
<polygon fill="#bfbfbf" stroke="black" points="0,-69 0,-88 107,-88 107,-69 0,-69"/>
<text text-anchor="middle" x="53.5" y="-76" font-family="Helvetica,sans-Serif" font-size="10.00">SocialAPI.Initialize</text>
</a>
</g>
</g>
<!-- Node2 -->
<g id="node2" class="node">
<title>Node2</title>
<g id="a_node2"><a xlink:href="../../d7/d3f/interfaceISocialModule_a596ca1bbea314acda32d97316898be22.html#a596ca1bbea314acda32d97316898be22" target="_top" xlink:title=" ">
<polygon fill="white" stroke="black" points="156,-126 156,-145 286,-145 286,-126 156,-126"/>
<text text-anchor="middle" x="221" y="-133" font-family="Helvetica,sans-Serif" font-size="10.00">ISocialModule.Initialize</text>
</a>
</g>
</g>
<!-- Node1&#45;&gt;Node2 -->
<g id="edge1" class="edge">
<title>Node1&#45;&gt;Node2</title>
<path fill="none" stroke="midnightblue" d="M74.17,-88.05C91.87,-96.38 118.75,-108.36 143,-116.5 150.43,-118.99 158.37,-121.32 166.22,-123.43"/>
<polygon fill="midnightblue" stroke="midnightblue" points="165.51,-126.86 176.07,-125.98 167.27,-120.08 165.51,-126.86"/>
</g>
<!-- Node3 -->
<g id="node3" class="node">
<title>Node3</title>
<g id="a_node3"><a xlink:href="../../d8/d6a/classSocialAPI_aba9fdd3acc8e9425b3f49462f79ba49f.html#aba9fdd3acc8e9425b3f49462f79ba49f" target="_top" xlink:title=" ">
<polygon fill="white" stroke="black" points="161.5,-88 161.5,-107 280.5,-107 280.5,-88 161.5,-88"/>
<text text-anchor="middle" x="221" y="-95" font-family="Helvetica,sans-Serif" font-size="10.00">SocialAPI.LoadSteam</text>
</a>
</g>
</g>
<!-- Node1&#45;&gt;Node3 -->
<g id="edge2" class="edge">
<title>Node1&#45;&gt;Node3</title>
<path fill="none" stroke="midnightblue" d="M107.32,-84.56C121.31,-86.17 136.62,-87.93 151.31,-89.61"/>
<polygon fill="midnightblue" stroke="midnightblue" points="151.03,-93.11 161.37,-90.77 151.83,-86.15 151.03,-93.11"/>
</g>
<!-- Node5 -->
<g id="node5" class="node">
<title>Node5</title>
<g id="a_node5"><a xlink:href="../../d8/d6a/classSocialAPI_aec174f155888a13117849d2c5ca46cb7.html#aec174f155888a13117849d2c5ca46cb7" target="_top" xlink:title=" ">
<polygon fill="white" stroke="black" points="155,-50 155,-69 287,-69 287,-50 155,-50"/>
<text text-anchor="middle" x="221" y="-57" font-family="Helvetica,sans-Serif" font-size="10.00">SocialAPI.LoadWeGame</text>
</a>
</g>
</g>
<!-- Node1&#45;&gt;Node5 -->
<g id="edge4" class="edge">
<title>Node1&#45;&gt;Node5</title>
<path fill="none" stroke="midnightblue" d="M107.32,-72.44C119.26,-71.06 132.17,-69.58 144.83,-68.13"/>
<polygon fill="midnightblue" stroke="midnightblue" points="145.38,-71.59 154.92,-66.97 144.58,-64.64 145.38,-71.59"/>
</g>
<!-- Node6 -->
<g id="node6" class="node">
<title>Node6</title>
<g id="a_node6"><a xlink:href="../../dc/d62/classServerJoinRequestsManager_a6bc925245cf87cebf38da3cecf999488.html#a6bc925245cf87cebf38da3cecf999488" target="_top" xlink:title=" ">
<polygon fill="white" stroke="black" points="143,-0.5 143,-30.5 299,-30.5 299,-0.5 143,-0.5"/>
<text text-anchor="start" x="151" y="-18.5" font-family="Helvetica,sans-Serif" font-size="10.00">ServerJoinRequestsManager.</text>
<text text-anchor="middle" x="221" y="-7.5" font-family="Helvetica,sans-Serif" font-size="10.00">Update</text>
</a>
</g>
</g>
<!-- Node1&#45;&gt;Node6 -->
<g id="edge6" class="edge">
<title>Node1&#45;&gt;Node6</title>
<path fill="none" stroke="midnightblue" d="M75.38,-68.89C93.17,-60.86 119.52,-49.33 143,-40.5 148.96,-38.26 155.22,-36.03 161.48,-33.88"/>
<polygon fill="midnightblue" stroke="midnightblue" points="162.94,-37.08 171.3,-30.57 160.7,-30.45 162.94,-37.08"/>
</g>
<!-- Node4 -->
<g id="node4" class="node">
<title>Node4</title>
<g id="a_node4"><a xlink:href="../../d8/dc5/classWeGameHelper_add95cfd3e8221c611c8162ceff0436fb.html#add95cfd3e8221c611c8162ceff0436fb" target="_top" xlink:title=" ">
<polygon fill="white" stroke="black" points="335,-69 335,-88 517,-88 517,-69 335,-69"/>
<text text-anchor="middle" x="426" y="-76" font-family="Helvetica,sans-Serif" font-size="10.00">WeGameHelper.WriteDebugString</text>
</a>
</g>
</g>
<!-- Node3&#45;&gt;Node4 -->
<g id="edge3" class="edge">
<title>Node3&#45;&gt;Node4</title>
<path fill="none" stroke="midnightblue" d="M280.72,-92C294.42,-90.72 309.39,-89.32 324.34,-87.92"/>
<polygon fill="midnightblue" stroke="midnightblue" points="325.04,-91.37 334.67,-86.95 324.39,-84.4 325.04,-91.37"/>
</g>
<!-- Node5&#45;&gt;Node4 -->
<g id="edge5" class="edge">
<title>Node5&#45;&gt;Node4</title>
<path fill="none" stroke="midnightblue" d="M287.07,-65.59C299.06,-66.71 311.82,-67.91 324.57,-69.1"/>
<polygon fill="midnightblue" stroke="midnightblue" points="324.49,-72.61 334.77,-70.06 325.14,-65.64 324.49,-72.61"/>
</g>
<!-- Node7 -->
<g id="node7" class="node">
<title>Node7</title>
<g id="a_node7"><a xlink:href="../../dc/d62/classServerJoinRequestsManager_a23db68da7a082b5167dbf0e626161855.html#a23db68da7a082b5167dbf0e626161855" target="_top" xlink:title=" ">
<polygon fill="white" stroke="black" points="348,-0.5 348,-30.5 504,-30.5 504,-0.5 348,-0.5"/>
<text text-anchor="start" x="356" y="-18.5" font-family="Helvetica,sans-Serif" font-size="10.00">ServerJoinRequestsManager.</text>
<text text-anchor="middle" x="426" y="-7.5" font-family="Helvetica,sans-Serif" font-size="10.00">RemoveRequestAtIndex</text>
</a>
</g>
</g>
<!-- Node6&#45;&gt;Node7 -->
<g id="edge7" class="edge">
<title>Node6&#45;&gt;Node7</title>
<path fill="none" stroke="midnightblue" d="M299.04,-15.5C311.6,-15.5 324.7,-15.5 337.5,-15.5"/>
<polygon fill="midnightblue" stroke="midnightblue" points="337.68,-19 347.68,-15.5 337.68,-12 337.68,-19"/>
</g>
</g>
</svg>
