<?xml version="1.0" encoding="UTF-8" standalone="no"?>
<!DOCTYPE svg PUBLIC "-//W3C//DTD SVG 1.1//EN"
 "http://www.w3.org/Graphics/SVG/1.1/DTD/svg11.dtd">
<!-- Generated by graphviz version 2.43.0 (0)
 -->
<!-- Title: Terraria.WorldGen.RenameWorld Pages: 1 -->
<!--zoomable 108 -->

<svg id="main" version="1.1" xmlns="http://www.w3.org/2000/svg" xmlns:xlink="http://www.w3.org/1999/xlink" xml:space="preserve" onload="init(evt)">
<style type="text/css"><![CDATA[
.node, .edge {opacity: 0.7;}
.node.selected, .edge.selected {opacity: 1;}
.edge:hover path { stroke: red; }
.edge:hover polygon { stroke: red; fill: red; }
]]></style>

<defs>
  <circle id="rim" cx="0" cy="0" r="7"/>
  <circle id="rim2" cx="0" cy="0" r="3.5"/>
  <g id="zoomPlus">
    <use xlink:href="#rim" fill="#404040"><set attributeName="fill" to="#808080" begin="zoomplus.mouseover" end="zoomplus.mouseout"/></use>
    <path d="M-4,0h8M0,-4v8" fill="none" stroke="white" stroke-width="1.5" pointer-events="none"/>
  </g>
  <g id="zoomMin">
    <use xlink:href="#rim" fill="#404040"><set attributeName="fill" to="#808080" begin="zoomminus.mouseover" end="zoomminus.mouseout"/></use>
    <path d="M-4,0h8" fill="none" stroke="white" stroke-width="1.5" pointer-events="none"/>
  </g>
  <g id="arrowUp" transform="translate(30 24)">
    <use xlink:href="#rim"/>
    <path pointer-events="none" fill="none" stroke="white" stroke-width="1.5" d="M0,-3.0v7 M-2.5,-0.5L0,-3.0L2.5,-0.5"/>
  </g>
  <g id="arrowRight" transform="rotate(90) translate(36 -43)">
    <use xlink:href="#rim"/>
    <path pointer-events="none" fill="none" stroke="white" stroke-width="1.5" d="M0,-3.0v7 M-2.5,-0.5L0,-3.0L2.5,-0.5"/>
  </g>
  <g id="arrowDown" transform="rotate(180) translate(-30 -48)">
    <use xlink:href="#rim"/>
    <path pointer-events="none" fill="none" stroke="white" stroke-width="1.5" d="M0,-3.0v7 M-2.5,-0.5L0,-3.0L2.5,-0.5"/>
  </g>
  <g id="arrowLeft" transform="rotate(270) translate(-36 17)">
    <use xlink:href="#rim"/>
    <path pointer-events="none" fill="none" stroke="white" stroke-width="1.5" d="M0,-3.0v7 M-2.5,-0.5L0,-3.0L2.5,-0.5"/>
  </g>
  <g id="resetDef">
    <use xlink:href="#rim2" fill="#404040"><set attributeName="fill" to="#808080" begin="reset.mouseover" end="reset.mouseout"/></use>
  </g>
</defs>
<script type="application/ecmascript">
var viewWidth = 1018;
var viewHeight = 108;
var sectionId = 'dynsection-1';
</script>
<script type="application/ecmascript" xlink:href="../../svg.min.js"/>
<svg id="graph" class="graph">
<g id="viewport">
<title>Terraria.WorldGen.RenameWorld</title>
<!-- Node1 -->
<g id="Node000001" class="node">
<title>Node1</title>
<g id="a_Node000001"><a xlink:title=" ">
<polygon fill="#999999" stroke="#666666" points="1010,-64.5 863,-64.5 863,-34.5 1010,-34.5 1010,-64.5"/>
<text text-anchor="start" x="871" y="-52.5" font-family="Helvetica,sans-Serif" font-size="10.00">Terraria.WorldGen.Rename</text>
<text text-anchor="middle" x="936.5" y="-41.5" font-family="Helvetica,sans-Serif" font-size="10.00">World</text>
</a>
</g>
</g>
<!-- Node2 -->
<g id="Node000002" class="node">
<title>Node2</title>
<g id="a_Node000002"><a xlink:href="../../d5/d02/classTerraria_1_1IO_1_1WorldFileData_a4e951b85d278afe66f86cc49bf88d1ab.html#a4e951b85d278afe66f86cc49bf88d1ab" target="_top" xlink:title=" ">
<polygon fill="white" stroke="#666666" points="827,-91.5 686,-91.5 686,-61.5 827,-61.5 827,-91.5"/>
<text text-anchor="start" x="694" y="-79.5" font-family="Helvetica,sans-Serif" font-size="10.00">Terraria.IO.WorldFileData.</text>
<text text-anchor="middle" x="756.5" y="-68.5" font-family="Helvetica,sans-Serif" font-size="10.00">CopyToLocal</text>
</a>
</g>
</g>
<!-- Node1&#45;&gt;Node2 -->
<g id="edge1_Node000001_Node000002" class="edge">
<title>Node1&#45;&gt;Node2</title>
<g id="a_edge1_Node000001_Node000002"><a xlink:title=" ">
<path fill="none" stroke="#63b8ff" d="M852.79,-62.05C844.18,-63.35 835.49,-64.67 827.05,-65.95"/>
<polygon fill="#63b8ff" stroke="#63b8ff" points="853.48,-65.48 862.84,-60.52 852.43,-58.56 853.48,-65.48"/>
</a>
</g>
</g>
<!-- Node4 -->
<g id="Node000004" class="node">
<title>Node4</title>
<g id="a_Node000004"><a xlink:href="../../d5/d02/classTerraria_1_1IO_1_1WorldFileData_ac66c304860f25b9bdfdcc969acf1512b.html#ac66c304860f25b9bdfdcc969acf1512b" target="_top" xlink:title=" ">
<polygon fill="white" stroke="#666666" points="827,-40.5 686,-40.5 686,-10.5 827,-10.5 827,-40.5"/>
<text text-anchor="start" x="694" y="-28.5" font-family="Helvetica,sans-Serif" font-size="10.00">Terraria.IO.WorldFileData.</text>
<text text-anchor="middle" x="756.5" y="-17.5" font-family="Helvetica,sans-Serif" font-size="10.00">Rename</text>
</a>
</g>
</g>
<!-- Node1&#45;&gt;Node4 -->
<g id="edge3_Node000001_Node000004" class="edge">
<title>Node1&#45;&gt;Node4</title>
<g id="a_edge3_Node000001_Node000004"><a xlink:title=" ">
<path fill="none" stroke="#63b8ff" d="M852.79,-38.35C844.18,-37.19 835.49,-36.02 827.05,-34.88"/>
<polygon fill="#63b8ff" stroke="#63b8ff" points="852.47,-41.84 862.84,-39.7 853.4,-34.9 852.47,-41.84"/>
</a>
</g>
</g>
<!-- Node3 -->
<g id="Node000003" class="node">
<title>Node3</title>
<g id="a_Node000003"><a xlink:href="../../db/d1e/classTerraria_1_1Social_1_1Steam_1_1WorkshopSocialModule_a8af13617feab1b800a9fc88aa77ba288.html#a8af13617feab1b800a9fc88aa77ba288" target="_top" xlink:title=" ">
<polygon fill="white" stroke="#666666" points="650,-100 444,-100 444,-59 650,-59 650,-100"/>
<text text-anchor="start" x="452" y="-88" font-family="Helvetica,sans-Serif" font-size="10.00">Terraria.Social.Steam.Workshop</text>
<text text-anchor="start" x="452" y="-77" font-family="Helvetica,sans-Serif" font-size="10.00">SocialModule.ImportDownloadedWorld</text>
<text text-anchor="middle" x="547" y="-66" font-family="Helvetica,sans-Serif" font-size="10.00">ToLocalSaves</text>
</a>
</g>
</g>
<!-- Node2&#45;&gt;Node3 -->
<g id="edge2_Node000002_Node000003" class="edge">
<title>Node2&#45;&gt;Node3</title>
<g id="a_edge2_Node000002_Node000003"><a xlink:title=" ">
<path fill="none" stroke="#63b8ff" d="M675.78,-77.65C667.45,-77.77 658.89,-77.9 650.35,-78.02"/>
<polygon fill="#63b8ff" stroke="#63b8ff" points="675.88,-81.15 685.83,-77.51 675.78,-74.15 675.88,-81.15"/>
</a>
</g>
</g>
<!-- Node5 -->
<g id="Node000005" class="node">
<title>Node5</title>
<g id="a_Node000005"><a xlink:href="../../d4/d21/classTerraria_1_1GameContent_1_1UI_1_1Elements_1_1UIWorldListItem_ad6662308e196d3d6c7cc81ebadce097d.html#ad6662308e196d3d6c7cc81ebadce097d" target="_top" xlink:title=" ">
<polygon fill="white" stroke="#666666" points="647,-41 447,-41 447,0 647,0 647,-41"/>
<text text-anchor="start" x="455" y="-29" font-family="Helvetica,sans-Serif" font-size="10.00">Terraria.GameContent.UI.</text>
<text text-anchor="start" x="455" y="-18" font-family="Helvetica,sans-Serif" font-size="10.00">Elements.UIWorldListItem.OnFinished</text>
<text text-anchor="middle" x="547" y="-7" font-family="Helvetica,sans-Serif" font-size="10.00">SettingName</text>
</a>
</g>
</g>
<!-- Node4&#45;&gt;Node5 -->
<g id="edge4_Node000004_Node000005" class="edge">
<title>Node4&#45;&gt;Node5</title>
<g id="a_edge4_Node000004_Node000005"><a xlink:title=" ">
<path fill="none" stroke="#63b8ff" d="M675.74,-23.58C666.33,-23.35 656.64,-23.12 647.01,-22.89"/>
<polygon fill="#63b8ff" stroke="#63b8ff" points="675.75,-27.08 685.83,-23.82 675.92,-20.08 675.75,-27.08"/>
</a>
</g>
</g>
<!-- Node6 -->
<g id="Node000006" class="node">
<title>Node6</title>
<g id="a_Node000006"><a xlink:href="../../d4/d21/classTerraria_1_1GameContent_1_1UI_1_1Elements_1_1UIWorldListItem_a6f2bf1bc708114c0463d02cf0deb7199.html#a6f2bf1bc708114c0463d02cf0deb7199" target="_top" xlink:title=" ">
<polygon fill="white" stroke="#666666" points="408,-41 221,-41 221,0 408,0 408,-41"/>
<text text-anchor="start" x="229" y="-29" font-family="Helvetica,sans-Serif" font-size="10.00">Terraria.GameContent.UI.</text>
<text text-anchor="start" x="229" y="-18" font-family="Helvetica,sans-Serif" font-size="10.00">Elements.UIWorldListItem.Rename</text>
<text text-anchor="middle" x="314.5" y="-7" font-family="Helvetica,sans-Serif" font-size="10.00">ButtonClick</text>
</a>
</g>
</g>
<!-- Node5&#45;&gt;Node6 -->
<g id="edge5_Node000005_Node000006" class="edge">
<title>Node5&#45;&gt;Node6</title>
<g id="a_edge5_Node000005_Node000006"><a xlink:title=" ">
<path fill="none" stroke="#63b8ff" d="M436.65,-20.5C427.17,-20.5 417.64,-20.5 408.31,-20.5"/>
<polygon fill="#63b8ff" stroke="#63b8ff" points="436.91,-24 446.91,-20.5 436.91,-17 436.91,-24"/>
</a>
</g>
</g>
<!-- Node7 -->
<g id="Node000007" class="node">
<title>Node7</title>
<g id="a_Node000007"><a xlink:href="../../d4/d21/classTerraria_1_1GameContent_1_1UI_1_1Elements_1_1UIWorldListItem_acd0e5dd4f12948236126edd407c8a635.html#acd0e5dd4f12948236126edd407c8a635" target="_top" xlink:title=" ">
<polygon fill="white" stroke="#666666" points="185,-41 0,-41 0,0 185,0 185,-41"/>
<text text-anchor="start" x="8" y="-29" font-family="Helvetica,sans-Serif" font-size="10.00">Terraria.GameContent.UI.</text>
<text text-anchor="start" x="8" y="-18" font-family="Helvetica,sans-Serif" font-size="10.00">Elements.UIWorldListItem.UIWorld</text>
<text text-anchor="middle" x="92.5" y="-7" font-family="Helvetica,sans-Serif" font-size="10.00">ListItem</text>
</a>
</g>
</g>
<!-- Node6&#45;&gt;Node7 -->
<g id="edge6_Node000006_Node000007" class="edge">
<title>Node6&#45;&gt;Node7</title>
<g id="a_edge6_Node000006_Node000007"><a xlink:title=" ">
<path fill="none" stroke="#63b8ff" d="M210.6,-20.5C202.17,-20.5 193.69,-20.5 185.35,-20.5"/>
<polygon fill="#63b8ff" stroke="#63b8ff" points="210.84,-24 220.84,-20.5 210.84,-17 210.84,-24"/>
</a>
</g>
</g>
</g>
</svg>

<g id="navigator" transform="translate(0 0)" fill="#404254">
  <rect fill="#f2f5e9" fill-opacity="0.5" stroke="#606060" stroke-width=".5" x="0" y="0" width="60" height="60"/>
  <use id="zoomplus" xlink:href="#zoomPlus" x="17" y="9" onmousedown="handleZoom(evt,'in')"/>
  <use id="zoomminus" xlink:href="#zoomMin" x="42" y="9" onmousedown="handleZoom(evt,'out')"/>
  <use id="reset" xlink:href="#resetDef" x="30" y="36" onmousedown="handleReset()"/>
   <use id="arrowup" xlink:href="#arrowUp" x="0" y="0" onmousedown="handlePan(0,-1)"/>
  <use id="arrowright" xlink:href="#arrowRight" x="0" y="0" onmousedown="handlePan(1,0)"/>
  <use id="arrowdown" xlink:href="#arrowDown" x="0" y="0" onmousedown="handlePan(0,1)"/>
  <use id="arrowleft" xlink:href="#arrowLeft" x="0" y="0" onmousedown="handlePan(-1,0)"/>
</g>
<svg viewBox="0 0 15 15" width="100%" height="30px" preserveAspectRatio="xMaxYMin meet">
 <g id="arrow_out" transform="scale(0.3 0.3)">
  <a xlink:href="classTerraria_1_1WorldGen_aeba77f3de7033850ffa317bc9613a82d_aeba77f3de7033850ffa317bc9613a82d_icgraph_org.svg" target="_base">
   <rect id="button" ry="5" rx="5" y="6" x="6" height="38" width="38"
        fill="#f2f5e9" fill-opacity="0.5" stroke="#606060" stroke-width="1.0"/>
   <path id="arrow"
     d="M 11.500037,31.436501 C 11.940474,20.09759 22.043105,11.32322 32.158766,21.979434 L 37.068811,17.246167 C 37.068811,17.246167 37.088388,32 37.088388,32 L 22.160133,31.978069 C 22.160133,31.978069 26.997745,27.140456 26.997745,27.140456 C 18.528582,18.264221 13.291696,25.230495 11.500037,31.436501 z"
     style="fill:#404040;"/>
  </a>
 </g>
</svg>

<style type='text/css'>
<![CDATA[
[data-mouse-over-selected='false'] { opacity: 0.7; }
[data-mouse-over-selected='true']  { opacity: 1.0; }
]]>
</style>
<script type="application/ecmascript"><![CDATA[
document.addEventListener('DOMContentLoaded', (event) => {
  highlightEdges();
  highlightAdjacentNodes();
});
]]></script>
</svg>
