<?xml version="1.0" encoding="UTF-8" standalone="no"?>
<!DOCTYPE svg PUBLIC "-//W3C//DTD SVG 1.1//EN"
 "http://www.w3.org/Graphics/SVG/1.1/DTD/svg11.dtd">
<!-- Generated by graphviz version 2.43.0 (0)
 -->
<!-- Title: Terraria.WorldGen.GetTreeBottom Pages: 1 -->
<svg width="322pt" height="94pt"
 viewBox="0.00 0.00 322.00 93.50" xmlns="http://www.w3.org/2000/svg" xmlns:xlink="http://www.w3.org/1999/xlink">
<g id="graph0" class="graph" transform="scale(1 1) rotate(0) translate(4 89.5)">
<title>Terraria.WorldGen.GetTreeBottom</title>
<!-- Node1 -->
<g id="Node000001" class="node">
<title>Node1</title>
<g id="a_Node000001"><a xlink:title=" ">
<polygon fill="#999999" stroke="#666666" points="144,-60 0,-60 0,-30 144,-30 144,-60"/>
<text text-anchor="start" x="8" y="-48" font-family="Helvetica,sans-Serif" font-size="10.00">Terraria.WorldGen.GetTree</text>
<text text-anchor="middle" x="72" y="-37" font-family="Helvetica,sans-Serif" font-size="10.00">Bottom</text>
</a>
</g>
</g>
<!-- Node2 -->
<g id="Node000002" class="node">
<title>Node2</title>
<g id="a_Node000002"><a xlink:href="../../d3/ddc/classTerraria_1_1Tile_a9a3f37926e6d7f23ba057d6c0aeab1a5.html#a9a3f37926e6d7f23ba057d6c0aeab1a5" target="_top" xlink:title=" ">
<polygon fill="white" stroke="#666666" points="300.5,-85.5 193.5,-85.5 193.5,-66.5 300.5,-66.5 300.5,-85.5"/>
<text text-anchor="middle" x="247" y="-73.5" font-family="Helvetica,sans-Serif" font-size="10.00">Terraria.Tile.active</text>
</a>
</g>
</g>
<!-- Node1&#45;&gt;Node2 -->
<g id="edge1_Node000001_Node000002" class="edge">
<title>Node1&#45;&gt;Node2</title>
<g id="a_edge1_Node000001_Node000002"><a xlink:title=" ">
<path fill="none" stroke="#63b8ff" d="M144.36,-57.79C157.29,-60.1 170.68,-62.5 183.33,-64.77"/>
<polygon fill="#63b8ff" stroke="#63b8ff" points="182.84,-68.24 193.3,-66.56 184.08,-61.35 182.84,-68.24"/>
</a>
</g>
</g>
<!-- Node3 -->
<g id="Node000003" class="node">
<title>Node3</title>
<g id="a_Node000003"><a xlink:href="../../dc/dd7/classTerraria_1_1Framing_adf8f859033cd5cb805b13aad59a55236.html#adf8f859033cd5cb805b13aad59a55236" target="_top" xlink:title=" ">
<polygon fill="white" stroke="#666666" points="314,-30 180,-30 180,0 314,0 314,-30"/>
<text text-anchor="start" x="188" y="-18" font-family="Helvetica,sans-Serif" font-size="10.00">Terraria.Framing.GetTile</text>
<text text-anchor="middle" x="247" y="-7" font-family="Helvetica,sans-Serif" font-size="10.00">Safely</text>
</a>
</g>
</g>
<!-- Node1&#45;&gt;Node3 -->
<g id="edge2_Node000001_Node000003" class="edge">
<title>Node1&#45;&gt;Node3</title>
<g id="a_edge2_Node000001_Node000003"><a xlink:title=" ">
<path fill="none" stroke="#63b8ff" d="M144.36,-32.62C152.79,-31.16 161.42,-29.67 169.91,-28.19"/>
<polygon fill="#63b8ff" stroke="#63b8ff" points="170.54,-31.64 179.8,-26.48 169.35,-24.74 170.54,-31.64"/>
</a>
</g>
</g>
<!-- Node3&#45;&gt;Node3 -->
<g id="edge3_Node000003_Node000003" class="edge">
<title>Node3&#45;&gt;Node3</title>
<g id="a_edge3_Node000003_Node000003"><a xlink:title=" ">
<path fill="none" stroke="#63b8ff" d="M216.41,-30.28C209.62,-39.41 219.81,-48 247,-48 263.14,-48 273.29,-44.97 277.46,-40.6"/>
<polygon fill="#63b8ff" stroke="#63b8ff" points="280.96,-40.32 277.59,-30.28 273.96,-40.23 280.96,-40.32"/>
</a>
</g>
</g>
</g>
</svg>
