<?xml version="1.0" encoding="UTF-8" standalone="no"?>
<!DOCTYPE svg PUBLIC "-//W3C//DTD SVG 1.1//EN"
 "http://www.w3.org/Graphics/SVG/1.1/DTD/svg11.dtd">
<!-- Generated by graphviz version 2.43.0 (0)
 -->
<!-- Title: Terraria.WorldGen.AnchorValid Pages: 1 -->
<svg width="517pt" height="213pt"
 viewBox="0.00 0.00 517.00 213.14" xmlns="http://www.w3.org/2000/svg" xmlns:xlink="http://www.w3.org/1999/xlink">
<g id="graph0" class="graph" transform="scale(1 1) rotate(0) translate(4 209.14)">
<title>Terraria.WorldGen.AnchorValid</title>
<!-- Node1 -->
<g id="Node000001" class="node">
<title>Node1</title>
<g id="a_Node000001"><a xlink:title=" ">
<polygon fill="#999999" stroke="#666666" points="140,-128.5 0,-128.5 0,-98.5 140,-98.5 140,-128.5"/>
<text text-anchor="start" x="8" y="-116.5" font-family="Helvetica,sans-Serif" font-size="10.00">Terraria.WorldGen.Anchor</text>
<text text-anchor="middle" x="70" y="-105.5" font-family="Helvetica,sans-Serif" font-size="10.00">Valid</text>
</a>
</g>
</g>
<!-- Node2 -->
<g id="Node000002" class="node">
<title>Node2</title>
<g id="a_Node000002"><a xlink:href="../../d3/ddc/classTerraria_1_1Tile_ab70b6707bdcec72a6b5e63ac7a9515eb.html#ab70b6707bdcec72a6b5e63ac7a9515eb" target="_top" xlink:title=" ">
<polygon fill="white" stroke="#666666" points="327,-179 201,-179 201,-160 327,-160 327,-179"/>
<text text-anchor="middle" x="264" y="-167" font-family="Helvetica,sans-Serif" font-size="10.00">Terraria.Tile.blockType</text>
</a>
</g>
</g>
<!-- Node1&#45;&gt;Node2 -->
<g id="edge1_Node000001_Node000002" class="edge">
<title>Node1&#45;&gt;Node2</title>
<g id="a_edge1_Node000001_Node000002"><a xlink:title=" ">
<path fill="none" stroke="#63b8ff" d="M108.48,-128.54C128.33,-136.13 153.24,-145.06 176,-151.5 184,-153.76 192.49,-155.87 200.91,-157.79"/>
<polygon fill="#63b8ff" stroke="#63b8ff" points="200.2,-161.22 210.72,-159.95 201.71,-154.38 200.2,-161.22"/>
</a>
</g>
</g>
<!-- Node3 -->
<g id="Node000003" class="node">
<title>Node3</title>
<g id="a_Node000003"><a xlink:href="../../d3/ddc/classTerraria_1_1Tile_afac1102270d7f948e822bfbe76d4533d.html#afac1102270d7f948e822bfbe76d4533d" target="_top" xlink:title=" ">
<polygon fill="white" stroke="#666666" points="509,-198 388,-198 388,-179 509,-179 509,-198"/>
<text text-anchor="middle" x="448.5" y="-186" font-family="Helvetica,sans-Serif" font-size="10.00">Terraria.Tile.halfBrick</text>
</a>
</g>
</g>
<!-- Node1&#45;&gt;Node3 -->
<g id="edge6_Node000001_Node000003" class="edge">
<title>Node1&#45;&gt;Node3</title>
<g id="a_edge6_Node000001_Node000003"><a xlink:title=" ">
<path fill="none" stroke="#63b8ff" d="M85.64,-128.63C104.52,-146.93 139.31,-176.74 176,-188.5 244.14,-210.34 326.93,-206.28 383.04,-199.35"/>
<polygon fill="#63b8ff" stroke="#63b8ff" points="383.74,-202.79 393.2,-198.03 382.83,-195.85 383.74,-202.79"/>
</a>
</g>
</g>
<!-- Node5 -->
<g id="Node000005" class="node">
<title>Node5</title>
<g id="a_Node000005"><a xlink:href="../../d3/ddc/classTerraria_1_1Tile_a2b748f465ab88d4218d7b75a70468f56.html#a2b748f465ab88d4218d7b75a70468f56" target="_top" xlink:title=" ">
<polygon fill="white" stroke="#666666" points="334,-142 194,-142 194,-123 334,-123 334,-142"/>
<text text-anchor="middle" x="264" y="-130" font-family="Helvetica,sans-Serif" font-size="10.00">Terraria.Tile.bottomSlope</text>
</a>
</g>
</g>
<!-- Node1&#45;&gt;Node5 -->
<g id="edge4_Node000001_Node000005" class="edge">
<title>Node1&#45;&gt;Node5</title>
<g id="a_edge4_Node000001_Node000005"><a xlink:title=" ">
<path fill="none" stroke="#63b8ff" d="M140.05,-120.33C154.28,-121.74 169.38,-123.24 183.94,-124.68"/>
<polygon fill="#63b8ff" stroke="#63b8ff" points="183.63,-128.16 193.92,-125.66 184.32,-121.2 183.63,-128.16"/>
</a>
</g>
</g>
<!-- Node6 -->
<g id="Node000006" class="node">
<title>Node6</title>
<g id="a_Node000006"><a xlink:href="../../d3/ddc/classTerraria_1_1Tile_a38bb9749f89eeb6c767e86efa96dbc91.html#a38bb9749f89eeb6c767e86efa96dbc91" target="_top" xlink:title=" ">
<polygon fill="white" stroke="#666666" points="320.5,-105 207.5,-105 207.5,-86 320.5,-86 320.5,-105"/>
<text text-anchor="middle" x="264" y="-93" font-family="Helvetica,sans-Serif" font-size="10.00">Terraria.Tile.nactive</text>
</a>
</g>
</g>
<!-- Node1&#45;&gt;Node6 -->
<g id="edge7_Node000001_Node000006" class="edge">
<title>Node1&#45;&gt;Node6</title>
<g id="a_edge7_Node000001_Node000006"><a xlink:title=" ">
<path fill="none" stroke="#63b8ff" d="M140.05,-107.03C158.73,-105.28 178.9,-103.38 197.39,-101.65"/>
<polygon fill="#63b8ff" stroke="#63b8ff" points="197.84,-105.12 207.47,-100.71 197.19,-98.15 197.84,-105.12"/>
</a>
</g>
</g>
<!-- Node7 -->
<g id="Node000007" class="node">
<title>Node7</title>
<g id="a_Node000007"><a xlink:href="../../d0/d9d/classTerraria_1_1ObjectData_1_1TileObjectData_ac9bed820fdfc1fc0d82244c396064a1f.html#ac9bed820fdfc1fc0d82244c396064a1f" target="_top" xlink:title=" ">
<polygon fill="white" stroke="#666666" points="352,-67.5 176,-67.5 176,-37.5 352,-37.5 352,-67.5"/>
<text text-anchor="start" x="184" y="-55.5" font-family="Helvetica,sans-Serif" font-size="10.00">Terraria.ObjectData.Tile</text>
<text text-anchor="middle" x="264" y="-44.5" font-family="Helvetica,sans-Serif" font-size="10.00">ObjectData.PlatformFrameWidth</text>
</a>
</g>
</g>
<!-- Node1&#45;&gt;Node7 -->
<g id="edge8_Node000001_Node000007" class="edge">
<title>Node1&#45;&gt;Node7</title>
<g id="a_edge8_Node000001_Node000007"><a xlink:title=" ">
<path fill="none" stroke="#63b8ff" d="M113.24,-98.47C132.34,-91.82 155.23,-84.04 176,-77.5 183.48,-75.14 191.36,-72.76 199.18,-70.44"/>
<polygon fill="#63b8ff" stroke="#63b8ff" points="200.43,-73.72 209.04,-67.55 198.46,-67 200.43,-73.72"/>
</a>
</g>
</g>
<!-- Node8 -->
<g id="Node000008" class="node">
<title>Node8</title>
<g id="a_Node000008"><a xlink:href="../../d3/ddc/classTerraria_1_1Tile_a4ffd6119d5a1ce00c49c2370f9d10d47.html#a4ffd6119d5a1ce00c49c2370f9d10d47" target="_top" xlink:title=" ">
<polygon fill="white" stroke="#666666" points="324,-19 204,-19 204,0 324,0 324,-19"/>
<text text-anchor="middle" x="264" y="-7" font-family="Helvetica,sans-Serif" font-size="10.00">Terraria.Tile.topSlope</text>
</a>
</g>
</g>
<!-- Node1&#45;&gt;Node8 -->
<g id="edge9_Node000001_Node000008" class="edge">
<title>Node1&#45;&gt;Node8</title>
<g id="a_edge9_Node000001_Node000008"><a xlink:title=" ">
<path fill="none" stroke="#63b8ff" d="M85.09,-98.36C103.93,-79.09 139.21,-46.17 176,-28.5 181.67,-25.78 187.74,-23.44 193.93,-21.43"/>
<polygon fill="#63b8ff" stroke="#63b8ff" points="195.12,-24.73 203.72,-18.55 193.14,-18.02 195.12,-24.73"/>
</a>
</g>
</g>
<!-- Node2&#45;&gt;Node3 -->
<g id="edge2_Node000002_Node000003" class="edge">
<title>Node2&#45;&gt;Node3</title>
<g id="a_edge2_Node000002_Node000003"><a xlink:title=" ">
<path fill="none" stroke="#63b8ff" d="M327.04,-175.96C343.3,-177.65 360.94,-179.49 377.58,-181.22"/>
<polygon fill="#63b8ff" stroke="#63b8ff" points="377.48,-184.73 387.79,-182.28 378.21,-177.77 377.48,-184.73"/>
</a>
</g>
</g>
<!-- Node4 -->
<g id="Node000004" class="node">
<title>Node4</title>
<g id="a_Node000004"><a xlink:href="../../d3/ddc/classTerraria_1_1Tile_ab9bfb24365d03f2b4fe0842f6a406765.html#ab9bfb24365d03f2b4fe0842f6a406765" target="_top" xlink:title=" ">
<polygon fill="white" stroke="#666666" points="500.5,-142 396.5,-142 396.5,-123 500.5,-123 500.5,-142"/>
<text text-anchor="middle" x="448.5" y="-130" font-family="Helvetica,sans-Serif" font-size="10.00">Terraria.Tile.slope</text>
</a>
</g>
</g>
<!-- Node2&#45;&gt;Node4 -->
<g id="edge3_Node000002_Node000004" class="edge">
<title>Node2&#45;&gt;Node4</title>
<g id="a_edge3_Node000002_Node000004"><a xlink:title=" ">
<path fill="none" stroke="#63b8ff" d="M312,-159.97C335.96,-155.11 365.29,-149.17 390.53,-144.05"/>
<polygon fill="#63b8ff" stroke="#63b8ff" points="391.24,-147.48 400.34,-142.06 389.85,-140.62 391.24,-147.48"/>
</a>
</g>
</g>
<!-- Node5&#45;&gt;Node4 -->
<g id="edge5_Node000005_Node000004" class="edge">
<title>Node5&#45;&gt;Node4</title>
<g id="a_edge5_Node000005_Node000004"><a xlink:title=" ">
<path fill="none" stroke="#63b8ff" d="M334.26,-132.5C351.37,-132.5 369.59,-132.5 386.3,-132.5"/>
<polygon fill="#63b8ff" stroke="#63b8ff" points="386.48,-136 396.48,-132.5 386.48,-129 386.48,-136"/>
</a>
</g>
</g>
<!-- Node8&#45;&gt;Node4 -->
<g id="edge10_Node000008_Node000004" class="edge">
<title>Node8&#45;&gt;Node4</title>
<g id="a_edge10_Node000008_Node000004"><a xlink:title=" ">
<path fill="none" stroke="#63b8ff" d="M324.39,-17.34C334,-20.03 343.55,-23.65 352,-28.5 389.34,-49.95 420.41,-90.94 436.22,-114.55"/>
<polygon fill="#63b8ff" stroke="#63b8ff" points="433.3,-116.48 441.7,-122.94 439.17,-112.65 433.3,-116.48"/>
</a>
</g>
</g>
</g>
</svg>
