<?xml version="1.0" encoding="UTF-8" standalone="no"?>
<!DOCTYPE svg PUBLIC "-//W3C//DTD SVG 1.1//EN"
 "http://www.w3.org/Graphics/SVG/1.1/DTD/svg11.dtd">
<!-- Generated by graphviz version 2.43.0 (0)
 -->
<!-- Title: Terraria.GameContent.Personalities.NPCPreferenceTrait.ModifyShopPrice Pages: 1 -->
<svg width="1203pt" height="182pt"
 viewBox="0.00 0.00 1203.00 182.00" xmlns="http://www.w3.org/2000/svg" xmlns:xlink="http://www.w3.org/1999/xlink">
<g id="graph0" class="graph" transform="scale(1 1) rotate(0) translate(4 178)">
<title>Terraria.GameContent.Personalities.NPCPreferenceTrait.ModifyShopPrice</title>
<!-- Node1 -->
<g id="Node000001" class="node">
<title>Node1</title>
<g id="a_Node000001"><a xlink:title=" ">
<polygon fill="#999999" stroke="#666666" points="194,-102 0,-102 0,-72 194,-72 194,-102"/>
<text text-anchor="start" x="8" y="-90" font-family="Helvetica,sans-Serif" font-size="10.00">Terraria.GameContent.Personalities.</text>
<text text-anchor="middle" x="97" y="-79" font-family="Helvetica,sans-Serif" font-size="10.00">NPCPreferenceTrait.ModifyShopPrice</text>
</a>
</g>
</g>
<!-- Node2 -->
<g id="Node000002" class="node">
<title>Node2</title>
<g id="a_Node000002"><a xlink:href="../../d9/d8a/classTerraria_1_1GameContent_1_1ShopHelper_aade09d85d8d0768f6afd91e5fbaf727c.html#aade09d85d8d0768f6afd91e5fbaf727c" target="_top" xlink:title=" ">
<polygon fill="white" stroke="#666666" points="381,-78 230,-78 230,-48 381,-48 381,-78"/>
<text text-anchor="start" x="238" y="-66" font-family="Helvetica,sans-Serif" font-size="10.00">Terraria.GameContent.Shop</text>
<text text-anchor="middle" x="305.5" y="-55" font-family="Helvetica,sans-Serif" font-size="10.00">Helper.DislikeNPC</text>
</a>
</g>
</g>
<!-- Node1&#45;&gt;Node2 -->
<g id="edge1_Node000001_Node000002" class="edge">
<title>Node1&#45;&gt;Node2</title>
<g id="a_edge1_Node000001_Node000002"><a xlink:title=" ">
<path fill="none" stroke="#63b8ff" d="M194.3,-75.81C202.82,-74.82 211.4,-73.82 219.82,-72.84"/>
<polygon fill="#63b8ff" stroke="#63b8ff" points="220.46,-76.29 229.98,-71.66 219.65,-69.34 220.46,-76.29"/>
</a>
</g>
</g>
<!-- Node11 -->
<g id="Node000011" class="node">
<title>Node11</title>
<g id="a_Node000011"><a xlink:href="../../d9/d8a/classTerraria_1_1GameContent_1_1ShopHelper_a1a894bd6935d3904898a97d8c7e3d0c3.html#a1a894bd6935d3904898a97d8c7e3d0c3" target="_top" xlink:title=" ">
<polygon fill="white" stroke="#666666" points="381,-30 230,-30 230,0 381,0 381,-30"/>
<text text-anchor="start" x="238" y="-18" font-family="Helvetica,sans-Serif" font-size="10.00">Terraria.GameContent.Shop</text>
<text text-anchor="middle" x="305.5" y="-7" font-family="Helvetica,sans-Serif" font-size="10.00">Helper.HateNPC</text>
</a>
</g>
</g>
<!-- Node1&#45;&gt;Node11 -->
<g id="edge10_Node000001_Node000011" class="edge">
<title>Node1&#45;&gt;Node11</title>
<g id="a_edge10_Node000001_Node000011"><a xlink:title=" ">
<path fill="none" stroke="#63b8ff" d="M138.3,-71.9C164.37,-62.25 199.09,-49.59 230,-39 235.52,-37.11 241.28,-35.18 247.05,-33.27"/>
<polygon fill="#63b8ff" stroke="#63b8ff" points="248.31,-36.54 256.72,-30.1 246.13,-29.89 248.31,-36.54"/>
</a>
</g>
</g>
<!-- Node12 -->
<g id="Node000012" class="node">
<title>Node12</title>
<g id="a_Node000012"><a xlink:href="../../d9/d8a/classTerraria_1_1GameContent_1_1ShopHelper_a0d13018842c070e4f8be9307352ace65.html#a0d13018842c070e4f8be9307352ace65" target="_top" xlink:title=" ">
<polygon fill="white" stroke="#666666" points="381,-174 230,-174 230,-144 381,-144 381,-174"/>
<text text-anchor="start" x="238" y="-162" font-family="Helvetica,sans-Serif" font-size="10.00">Terraria.GameContent.Shop</text>
<text text-anchor="middle" x="305.5" y="-151" font-family="Helvetica,sans-Serif" font-size="10.00">Helper.LikeNPC</text>
</a>
</g>
</g>
<!-- Node1&#45;&gt;Node12 -->
<g id="edge13_Node000001_Node000012" class="edge">
<title>Node1&#45;&gt;Node12</title>
<g id="a_edge13_Node000001_Node000012"><a xlink:title=" ">
<path fill="none" stroke="#63b8ff" d="M138.3,-102.1C164.37,-111.75 199.09,-124.41 230,-135 235.52,-136.89 241.28,-138.82 247.05,-140.73"/>
<polygon fill="#63b8ff" stroke="#63b8ff" points="246.13,-144.11 256.72,-143.9 248.31,-137.46 246.13,-144.11"/>
</a>
</g>
</g>
<!-- Node13 -->
<g id="Node000013" class="node">
<title>Node13</title>
<g id="a_Node000013"><a xlink:href="../../d9/d8a/classTerraria_1_1GameContent_1_1ShopHelper_a387988fbf277ada2cf016a1ace068d63.html#a387988fbf277ada2cf016a1ace068d63" target="_top" xlink:title=" ">
<polygon fill="white" stroke="#666666" points="381,-126 230,-126 230,-96 381,-96 381,-126"/>
<text text-anchor="start" x="238" y="-114" font-family="Helvetica,sans-Serif" font-size="10.00">Terraria.GameContent.Shop</text>
<text text-anchor="middle" x="305.5" y="-103" font-family="Helvetica,sans-Serif" font-size="10.00">Helper.LoveNPC</text>
</a>
</g>
</g>
<!-- Node1&#45;&gt;Node13 -->
<g id="edge16_Node000001_Node000013" class="edge">
<title>Node1&#45;&gt;Node13</title>
<g id="a_edge16_Node000001_Node000013"><a xlink:title=" ">
<path fill="none" stroke="#63b8ff" d="M194.3,-98.19C202.82,-99.18 211.4,-100.18 219.82,-101.16"/>
<polygon fill="#63b8ff" stroke="#63b8ff" points="219.65,-104.66 229.98,-102.34 220.46,-97.71 219.65,-104.66"/>
</a>
</g>
</g>
<!-- Node3 -->
<g id="Node000003" class="node">
<title>Node3</title>
<g id="a_Node000003"><a xlink:href="../../d9/d8a/classTerraria_1_1GameContent_1_1ShopHelper_a861f26b70e1e7393a061d307a48332ac.html#a861f26b70e1e7393a061d307a48332ac" target="_top" xlink:title=" ">
<polygon fill="white" stroke="#666666" points="590,-126 417,-126 417,-96 590,-96 590,-126"/>
<text text-anchor="start" x="425" y="-114" font-family="Helvetica,sans-Serif" font-size="10.00">Terraria.GameContent.Shop</text>
<text text-anchor="middle" x="503.5" y="-103" font-family="Helvetica,sans-Serif" font-size="10.00">Helper.AddHappinessReportText</text>
</a>
</g>
</g>
<!-- Node2&#45;&gt;Node3 -->
<g id="edge2_Node000002_Node000003" class="edge">
<title>Node2&#45;&gt;Node3</title>
<g id="a_edge2_Node000002_Node000003"><a xlink:title=" ">
<path fill="none" stroke="#63b8ff" d="M367.98,-78.06C388.14,-82.99 410.7,-88.52 431.51,-93.61"/>
<polygon fill="#63b8ff" stroke="#63b8ff" points="430.69,-97.02 441.24,-96 432.36,-90.22 430.69,-97.02"/>
</a>
</g>
</g>
<!-- Node8 -->
<g id="Node000008" class="node">
<title>Node8</title>
<g id="a_Node000008"><a xlink:href="../../df/d0d/classTerraria_1_1NPC_a0df02890ce17bb57cdcb806d9aa6ffb0.html#a0df02890ce17bb57cdcb806d9aa6ffb0" target="_top" xlink:title=" ">
<polygon fill="white" stroke="#666666" points="586,-72.5 421,-72.5 421,-53.5 586,-53.5 586,-72.5"/>
<text text-anchor="middle" x="503.5" y="-60.5" font-family="Helvetica,sans-Serif" font-size="10.00">Terraria.NPC.GetFullnameByID</text>
</a>
</g>
</g>
<!-- Node2&#45;&gt;Node8 -->
<g id="edge7_Node000002_Node000008" class="edge">
<title>Node2&#45;&gt;Node8</title>
<g id="a_edge7_Node000002_Node000008"><a xlink:title=" ">
<path fill="none" stroke="#63b8ff" d="M381.16,-63C390.79,-63 400.75,-63 410.62,-63"/>
<polygon fill="#63b8ff" stroke="#63b8ff" points="410.86,-66.5 420.86,-63 410.86,-59.5 410.86,-66.5"/>
</a>
</g>
</g>
<!-- Node4 -->
<g id="Node000004" class="node">
<title>Node4</title>
<g id="a_Node000004"><a xlink:href="../../d4/d8f/classTerraria_1_1Localization_1_1Language_aee1558e43a43c3c4a8bcbfd1d84ffe43.html#aee1558e43a43c3c4a8bcbfd1d84ffe43" target="_top" xlink:title=" ">
<polygon fill="white" stroke="#666666" points="794,-126 626,-126 626,-96 794,-96 794,-126"/>
<text text-anchor="start" x="634" y="-114" font-family="Helvetica,sans-Serif" font-size="10.00">Terraria.Localization.Language.</text>
<text text-anchor="middle" x="710" y="-103" font-family="Helvetica,sans-Serif" font-size="10.00">GetTextValueWith</text>
</a>
</g>
</g>
<!-- Node3&#45;&gt;Node4 -->
<g id="edge3_Node000003_Node000004" class="edge">
<title>Node3&#45;&gt;Node4</title>
<g id="a_edge3_Node000003_Node000004"><a xlink:title=" ">
<path fill="none" stroke="#63b8ff" d="M590.04,-111C598.54,-111 607.19,-111 615.76,-111"/>
<polygon fill="#63b8ff" stroke="#63b8ff" points="615.77,-114.5 625.77,-111 615.77,-107.5 615.77,-114.5"/>
</a>
</g>
</g>
<!-- Node5 -->
<g id="Node000005" class="node">
<title>Node5</title>
<g id="a_Node000005"><a xlink:href="../../d5/d73/classTerraria_1_1Localization_1_1LocalizedText_a3a3b4c3c6cbb09daed1b0513c8b53807.html#a3a3b4c3c6cbb09daed1b0513c8b53807" target="_top" xlink:title=" ">
<polygon fill="white" stroke="#666666" points="994.5,-123 830.5,-123 830.5,-93 994.5,-93 994.5,-123"/>
<text text-anchor="start" x="838.5" y="-111" font-family="Helvetica,sans-Serif" font-size="10.00">Terraria.Localization.Localized</text>
<text text-anchor="middle" x="912.5" y="-100" font-family="Helvetica,sans-Serif" font-size="10.00">Text.FormatWith</text>
</a>
</g>
</g>
<!-- Node4&#45;&gt;Node5 -->
<g id="edge4_Node000004_Node000005" class="edge">
<title>Node4&#45;&gt;Node5</title>
<g id="a_edge4_Node000004_Node000005"><a xlink:title=" ">
<path fill="none" stroke="#63b8ff" d="M794.29,-109.75C802.87,-109.63 811.63,-109.49 820.29,-109.36"/>
<polygon fill="#63b8ff" stroke="#63b8ff" points="820.46,-112.86 830.4,-109.21 820.35,-105.86 820.46,-112.86"/>
</a>
</g>
</g>
<!-- Node7 -->
<g id="Node000007" class="node">
<title>Node7</title>
<g id="a_Node000007"><a xlink:href="../../d8/d74/classTerraria_1_1Localization_1_1LanguageManager_ad292c2b15ad9179331427a23cc8c4e8c.html#ad292c2b15ad9179331427a23cc8c4e8c" target="_top" xlink:title=" ">
<polygon fill="white" stroke="#666666" points="995,-171 830,-171 830,-141 995,-141 995,-171"/>
<text text-anchor="start" x="838" y="-159" font-family="Helvetica,sans-Serif" font-size="10.00">Terraria.Localization.Language</text>
<text text-anchor="middle" x="912.5" y="-148" font-family="Helvetica,sans-Serif" font-size="10.00">Manager.GetText</text>
</a>
</g>
</g>
<!-- Node4&#45;&gt;Node7 -->
<g id="edge6_Node000004_Node000007" class="edge">
<title>Node4&#45;&gt;Node7</title>
<g id="a_edge6_Node000004_Node000007"><a xlink:title=" ">
<path fill="none" stroke="#63b8ff" d="M778.04,-126.05C796.18,-130.12 815.96,-134.56 834.6,-138.74"/>
<polygon fill="#63b8ff" stroke="#63b8ff" points="834,-142.19 844.52,-140.97 835.53,-135.36 834,-142.19"/>
</a>
</g>
</g>
<!-- Node6 -->
<g id="Node000006" class="node">
<title>Node6</title>
<g id="a_Node000006"><a xlink:href="../../d5/d73/classTerraria_1_1Localization_1_1LocalizedText_a9598543af1ef9d9b4b30547c5bdfa250.html#a9598543af1ef9d9b4b30547c5bdfa250" target="_top" xlink:title=" ">
<polygon fill="white" stroke="#666666" points="1195,-123 1031,-123 1031,-93 1195,-93 1195,-123"/>
<text text-anchor="start" x="1039" y="-111" font-family="Helvetica,sans-Serif" font-size="10.00">Terraria.Localization.Localized</text>
<text text-anchor="middle" x="1113" y="-100" font-family="Helvetica,sans-Serif" font-size="10.00">Text.ToString</text>
</a>
</g>
</g>
<!-- Node5&#45;&gt;Node6 -->
<g id="edge5_Node000005_Node000006" class="edge">
<title>Node5&#45;&gt;Node6</title>
<g id="a_edge5_Node000005_Node000006"><a xlink:title=" ">
<path fill="none" stroke="#63b8ff" d="M994.52,-108C1003.15,-108 1011.97,-108 1020.71,-108"/>
<polygon fill="#63b8ff" stroke="#63b8ff" points="1020.91,-111.5 1030.91,-108 1020.91,-104.5 1020.91,-111.5"/>
</a>
</g>
</g>
<!-- Node9 -->
<g id="Node000009" class="node">
<title>Node9</title>
<g id="a_Node000009"><a xlink:href="../../df/dd3/classTerraria_1_1Lang_a158fe108a16a90aef9afb1b2906ba1a5.html#a158fe108a16a90aef9afb1b2906ba1a5" target="_top" xlink:title=" ">
<polygon fill="white" stroke="#666666" points="784.5,-78 635.5,-78 635.5,-48 784.5,-48 784.5,-78"/>
<text text-anchor="start" x="643.5" y="-66" font-family="Helvetica,sans-Serif" font-size="10.00">Terraria.Lang.GetNPCName</text>
<text text-anchor="middle" x="710" y="-55" font-family="Helvetica,sans-Serif" font-size="10.00">Value</text>
</a>
</g>
</g>
<!-- Node8&#45;&gt;Node9 -->
<g id="edge8_Node000008_Node000009" class="edge">
<title>Node8&#45;&gt;Node9</title>
<g id="a_edge8_Node000008_Node000009"><a xlink:title=" ">
<path fill="none" stroke="#63b8ff" d="M586.21,-63C599.02,-63 612.29,-63 625.15,-63"/>
<polygon fill="#63b8ff" stroke="#63b8ff" points="625.37,-66.5 635.37,-63 625.37,-59.5 625.37,-66.5"/>
</a>
</g>
</g>
<!-- Node10 -->
<g id="Node000010" class="node">
<title>Node10</title>
<g id="a_Node000010"><a xlink:href="../../df/dd3/classTerraria_1_1Lang_af99a2e7e70f95e152e48e5a07d026dd4.html#af99a2e7e70f95e152e48e5a07d026dd4" target="_top" xlink:title=" ">
<polygon fill="white" stroke="#666666" points="987,-72.5 838,-72.5 838,-53.5 987,-53.5 987,-72.5"/>
<text text-anchor="middle" x="912.5" y="-60.5" font-family="Helvetica,sans-Serif" font-size="10.00">Terraria.Lang.GetNPCName</text>
</a>
</g>
</g>
<!-- Node9&#45;&gt;Node10 -->
<g id="edge9_Node000009_Node000010" class="edge">
<title>Node9&#45;&gt;Node10</title>
<g id="a_edge9_Node000009_Node000010"><a xlink:title=" ">
<path fill="none" stroke="#63b8ff" d="M784.52,-63C798.55,-63 813.33,-63 827.66,-63"/>
<polygon fill="#63b8ff" stroke="#63b8ff" points="827.99,-66.5 837.99,-63 827.99,-59.5 827.99,-66.5"/>
</a>
</g>
</g>
<!-- Node11&#45;&gt;Node3 -->
<g id="edge11_Node000011_Node000003" class="edge">
<title>Node11&#45;&gt;Node3</title>
<g id="a_edge11_Node000011_Node000003"><a xlink:title=" ">
<path fill="none" stroke="#63b8ff" d="M364.53,-30.13C370.3,-32.68 375.91,-35.61 381,-39 401.47,-52.62 396.71,-67.12 417,-81 423.07,-85.15 429.78,-88.79 436.68,-91.96"/>
<polygon fill="#63b8ff" stroke="#63b8ff" points="435.61,-95.3 446.18,-96 438.35,-88.86 435.61,-95.3"/>
</a>
</g>
</g>
<!-- Node11&#45;&gt;Node8 -->
<g id="edge12_Node000011_Node000008" class="edge">
<title>Node11&#45;&gt;Node8</title>
<g id="a_edge12_Node000011_Node000008"><a xlink:title=" ">
<path fill="none" stroke="#63b8ff" d="M367.98,-30.06C395.53,-36.8 427.58,-44.65 453.48,-51"/>
<polygon fill="#63b8ff" stroke="#63b8ff" points="452.9,-54.46 463.45,-53.44 454.56,-47.66 452.9,-54.46"/>
</a>
</g>
</g>
<!-- Node12&#45;&gt;Node3 -->
<g id="edge14_Node000012_Node000003" class="edge">
<title>Node12&#45;&gt;Node3</title>
<g id="a_edge14_Node000012_Node000003"><a xlink:title=" ">
<path fill="none" stroke="#63b8ff" d="M367.98,-143.94C388.14,-139.01 410.7,-133.48 431.51,-128.39"/>
<polygon fill="#63b8ff" stroke="#63b8ff" points="432.36,-131.78 441.24,-126 430.69,-124.98 432.36,-131.78"/>
</a>
</g>
</g>
<!-- Node12&#45;&gt;Node8 -->
<g id="edge15_Node000012_Node000008" class="edge">
<title>Node12&#45;&gt;Node8</title>
<g id="a_edge15_Node000012_Node000008"><a xlink:title=" ">
<path fill="none" stroke="#63b8ff" d="M365.52,-143.85C370.98,-141.32 376.24,-138.39 381,-135 402.71,-119.52 395,-102.07 417,-87 423.53,-82.53 430.88,-78.89 438.45,-75.92"/>
<polygon fill="#63b8ff" stroke="#63b8ff" points="439.86,-79.13 448.13,-72.51 437.53,-72.53 439.86,-79.13"/>
</a>
</g>
</g>
<!-- Node13&#45;&gt;Node3 -->
<g id="edge17_Node000013_Node000003" class="edge">
<title>Node13&#45;&gt;Node3</title>
<g id="a_edge17_Node000013_Node000003"><a xlink:title=" ">
<path fill="none" stroke="#63b8ff" d="M381.16,-111C389.56,-111 398.2,-111 406.81,-111"/>
<polygon fill="#63b8ff" stroke="#63b8ff" points="406.9,-114.5 416.9,-111 406.9,-107.5 406.9,-114.5"/>
</a>
</g>
</g>
<!-- Node13&#45;&gt;Node8 -->
<g id="edge18_Node000013_Node000008" class="edge">
<title>Node13&#45;&gt;Node8</title>
<g id="a_edge18_Node000013_Node000008"><a xlink:title=" ">
<path fill="none" stroke="#63b8ff" d="M367.98,-95.94C395.53,-89.2 427.58,-81.35 453.48,-75"/>
<polygon fill="#63b8ff" stroke="#63b8ff" points="454.56,-78.34 463.45,-72.56 452.9,-71.54 454.56,-78.34"/>
</a>
</g>
</g>
</g>
</svg>
