<?xml version="1.0" encoding="UTF-8" standalone="no"?>
<!DOCTYPE svg PUBLIC "-//W3C//DTD SVG 1.1//EN"
 "http://www.w3.org/Graphics/SVG/1.1/DTD/svg11.dtd">
<!-- Generated by graphviz version 2.43.0 (0)
 -->
<!-- Title: Terraria.GameContent.Bestiary.SortingSteps.ByAttack Pages: 1 -->
<svg width="360pt" height="678pt"
 viewBox="0.00 0.00 359.50 678.00" xmlns="http://www.w3.org/2000/svg" xmlns:xlink="http://www.w3.org/1999/xlink">
<g id="graph0" class="graph" transform="scale(1 1) rotate(0) translate(4 674)">
<title>Terraria.GameContent.Bestiary.SortingSteps.ByAttack</title>
<!-- Node1 -->
<g id="Node000001" class="node">
<title>Node1</title>
<g id="a_Node000001"><a xlink:title=" ">
<polygon fill="#999999" stroke="transparent" points="293,-108 64,-108 64,0 293,0 293,-108"/>
<text text-anchor="start" x="102.5" y="-96" font-family="Helvetica,sans-Serif" font-size="10.00">Terraria.GameContent.Bestiary.</text>
<text text-anchor="start" x="124.5" y="-85" font-family="Helvetica,sans-Serif" font-size="10.00">SortingSteps.ByAttack</text>
<text text-anchor="start" x="177" y="-70" font-family="Helvetica,sans-Serif" font-size="10.00"> </text>
<text text-anchor="start" x="68.5" y="-55" font-family="Helvetica,sans-Serif" font-size="10.00">+</text>
<text text-anchor="start" x="81.5" y="-55" font-family="Helvetica,sans-Serif" font-size="10.00">override int Compare</text>
<text text-anchor="start" x="81.5" y="-44" font-family="Helvetica,sans-Serif" font-size="10.00">(NPCStatsReportInfoElement</text>
<text text-anchor="start" x="81.5" y="-33" font-family="Helvetica,sans-Serif" font-size="10.00"> cardX, NPCStatsReportInfoElement cardY)</text>
<text text-anchor="start" x="68.5" y="-18" font-family="Helvetica,sans-Serif" font-size="10.00">+</text>
<text text-anchor="start" x="81.5" y="-18" font-family="Helvetica,sans-Serif" font-size="10.00">override string GetDisplay</text>
<text text-anchor="start" x="81.5" y="-7" font-family="Helvetica,sans-Serif" font-size="10.00">NameKey()</text>
<polygon fill="#666666" stroke="#666666" points="64.5,-80 64.5,-80 293.5,-80 293.5,-80 64.5,-80"/>
<polygon fill="#666666" stroke="#666666" points="64.5,-65 64.5,-65 293.5,-65 293.5,-65 64.5,-65"/>
<polygon fill="none" stroke="#666666" points="64,0 64,-108 293,-108 293,0 64,0"/>
</a>
</g>
</g>
<!-- Node2 -->
<g id="Node000002" class="node">
<title>Node2</title>
<g id="a_Node000002"><a xlink:href="../../d9/daf/classTerraria_1_1GameContent_1_1Bestiary_1_1SortingSteps_1_1ByStat.html" target="_top" xlink:title=" ">
<polygon fill="white" stroke="transparent" points="276,-294 81,-294 81,-145 276,-145 276,-294"/>
<text text-anchor="start" x="162.5" y="-281.5" font-family="Helvetica,sans-Serif" font-size="10.00">ByStat</text>
<text text-anchor="start" x="85.5" y="-266.5" font-family="Helvetica,sans-Serif" font-size="10.00">+</text>
<text text-anchor="start" x="98.5" y="-266.5" font-family="Helvetica,sans-Serif" font-size="10.00">bool HiddenFromSortOptions</text>
<text text-anchor="start" x="85.5" y="-251.5" font-family="Helvetica,sans-Serif" font-size="10.00">+</text>
<text text-anchor="start" x="98.5" y="-251.5" font-family="Helvetica,sans-Serif" font-size="10.00">int Compare(BestiaryEntry</text>
<text text-anchor="start" x="98.5" y="-240.5" font-family="Helvetica,sans-Serif" font-size="10.00"> x, BestiaryEntry y)</text>
<text text-anchor="start" x="85.5" y="-225.5" font-family="Helvetica,sans-Serif" font-size="10.00">+</text>
<text text-anchor="start" x="98.5" y="-225.5" font-family="Helvetica,sans-Serif" font-size="10.00">int Compare(NPCStatsReport</text>
<text text-anchor="start" x="98.5" y="-214.5" font-family="Helvetica,sans-Serif" font-size="10.00">InfoElement cardX, NPCStatsReport</text>
<text text-anchor="start" x="98.5" y="-203.5" font-family="Helvetica,sans-Serif" font-size="10.00">InfoElement cardY)</text>
<text text-anchor="start" x="85.5" y="-188.5" font-family="Helvetica,sans-Serif" font-size="10.00">+</text>
<text text-anchor="start" x="98.5" y="-188.5" font-family="Helvetica,sans-Serif" font-size="10.00">string GetDisplayNameKey()</text>
<text text-anchor="start" x="88" y="-173.5" font-family="Helvetica,sans-Serif" font-size="10.00">&#45;</text>
<text text-anchor="start" x="98.5" y="-173.5" font-family="Helvetica,sans-Serif" font-size="10.00">bool IsAStatsCardINeed</text>
<text text-anchor="start" x="98.5" y="-162.5" font-family="Helvetica,sans-Serif" font-size="10.00">(IBestiaryInfoElement</text>
<text text-anchor="start" x="98.5" y="-151.5" font-family="Helvetica,sans-Serif" font-size="10.00"> element)</text>
<polygon fill="#666666" stroke="#666666" points="81.5,-276.5 81.5,-276.5 276.5,-276.5 276.5,-276.5 81.5,-276.5"/>
<polygon fill="#666666" stroke="#666666" points="81.5,-261.5 81.5,-261.5 96.5,-261.5 96.5,-261.5 81.5,-261.5"/>
<polygon fill="#666666" stroke="#666666" points="96.5,-261.5 96.5,-261.5 276.5,-261.5 276.5,-261.5 96.5,-261.5"/>
<polygon fill="none" stroke="#666666" points="81,-145 81,-294 276,-294 276,-145 81,-145"/>
</a>
</g>
</g>
<!-- Node2&#45;&gt;Node1 -->
<g id="edge1_Node000001_Node000002" class="edge">
<title>Node2&#45;&gt;Node1</title>
<g id="a_edge1_Node000001_Node000002"><a xlink:title=" ">
<path fill="none" stroke="#63b8ff" d="M178.5,-134.7C178.5,-125.67 178.5,-116.67 178.5,-108.15"/>
<polygon fill="none" stroke="#63b8ff" points="175,-134.88 178.5,-144.88 182,-134.88 175,-134.88"/>
</a>
</g>
</g>
<!-- Node3 -->
<g id="Node000003" class="node">
<title>Node3</title>
<g id="a_Node000003"><a xlink:href="../../d5/df2/interfaceTerraria_1_1GameContent_1_1Bestiary_1_1IBestiarySortStep.html" target="_top" xlink:title=" ">
<polygon fill="white" stroke="transparent" points="259.5,-380 97.5,-380 97.5,-331 259.5,-331 259.5,-380"/>
<text text-anchor="start" x="136" y="-367.5" font-family="Helvetica,sans-Serif" font-size="10.00">IBestiarySortStep</text>
<text text-anchor="start" x="101.5" y="-352.5" font-family="Helvetica,sans-Serif" font-size="10.00">+</text>
<text text-anchor="start" x="114.5" y="-352.5" font-family="Helvetica,sans-Serif" font-size="10.00">bool HiddenFromSortOptions</text>
<text text-anchor="start" x="176.5" y="-337.5" font-family="Helvetica,sans-Serif" font-size="10.00"> </text>
<polygon fill="#666666" stroke="#666666" points="97.5,-362.5 97.5,-362.5 259.5,-362.5 259.5,-362.5 97.5,-362.5"/>
<polygon fill="#666666" stroke="#666666" points="97.5,-347.5 97.5,-347.5 112.5,-347.5 112.5,-347.5 97.5,-347.5"/>
<polygon fill="#666666" stroke="#666666" points="112.5,-347.5 112.5,-347.5 259.5,-347.5 259.5,-347.5 112.5,-347.5"/>
<polygon fill="none" stroke="#666666" points="97.5,-331 97.5,-380 259.5,-380 259.5,-331 97.5,-331"/>
</a>
</g>
</g>
<!-- Node3&#45;&gt;Node2 -->
<g id="edge2_Node000002_Node000003" class="edge">
<title>Node3&#45;&gt;Node2</title>
<g id="a_edge2_Node000002_Node000003"><a xlink:title=" ">
<path fill="none" stroke="#63b8ff" d="M178.5,-320.68C178.5,-312.51 178.5,-303.46 178.5,-294.24"/>
<polygon fill="none" stroke="#63b8ff" points="175,-320.85 178.5,-330.85 182,-320.85 175,-320.85"/>
</a>
</g>
</g>
<!-- Node4 -->
<g id="Node000004" class="node">
<title>Node4</title>
<g id="a_Node000004"><a xlink:href="../../d0/db8/interfaceTerraria_1_1DataStructures_1_1IEntrySortStep.html" target="_top" xlink:title=" ">
<polygon fill="white" stroke="transparent" points="161,-477 0,-477 0,-417 161,-417 161,-477"/>
<text text-anchor="start" x="20" y="-465" font-family="Helvetica,sans-Serif" font-size="10.00">IEntrySortStep&lt; Bestiary</text>
<text text-anchor="start" x="62.5" y="-454" font-family="Helvetica,sans-Serif" font-size="10.00">Entry &gt;</text>
<text text-anchor="start" x="79" y="-439" font-family="Helvetica,sans-Serif" font-size="10.00"> </text>
<text text-anchor="start" x="4.5" y="-424" font-family="Helvetica,sans-Serif" font-size="10.00">+</text>
<text text-anchor="start" x="17.5" y="-424" font-family="Helvetica,sans-Serif" font-size="10.00">string GetDisplayNameKey()</text>
<polygon fill="#666666" stroke="#666666" points="0.5,-449 0.5,-449 161.5,-449 161.5,-449 0.5,-449"/>
<polygon fill="#666666" stroke="#666666" points="0.5,-434 0.5,-434 161.5,-434 161.5,-434 0.5,-434"/>
<polygon fill="none" stroke="#666666" points="0,-417 0,-477 161,-477 161,-417 0,-417"/>
</a>
</g>
</g>
<!-- Node4&#45;&gt;Node2 -->
<g id="edge7_Node000002_Node000004" class="edge">
<title>Node4&#45;&gt;Node2</title>
<g id="a_edge7_Node000002_Node000004"><a xlink:title=" ">
<path fill="none" stroke="#63b8ff" d="M77.44,-406.55C77.07,-383.73 79.06,-354.89 88.5,-331 93.55,-318.23 100.64,-305.8 108.65,-294.17"/>
<polygon fill="none" stroke="#63b8ff" points="73.94,-406.69 77.76,-416.57 80.94,-406.47 73.94,-406.69"/>
</a>
</g>
</g>
<!-- Node4&#45;&gt;Node3 -->
<g id="edge3_Node000003_Node000004" class="edge">
<title>Node4&#45;&gt;Node3</title>
<g id="a_edge3_Node000003_Node000004"><a xlink:title=" ">
<path fill="none" stroke="#63b8ff" d="M119.84,-410.07C130.91,-399.96 142.66,-389.23 152.72,-380.04"/>
<polygon fill="none" stroke="#63b8ff" points="117.34,-407.61 112.32,-416.94 122.06,-412.78 117.34,-407.61"/>
</a>
</g>
</g>
<!-- Node5 -->
<g id="Node000005" class="node">
<title>Node5</title>
<g id="a_Node000005"><a xlink:href="../../d0/db8/interfaceTerraria_1_1DataStructures_1_1IEntrySortStep.html" target="_top" xlink:title=" ">
<polygon fill="white" stroke="transparent" points="161,-584 0,-584 0,-524 161,-524 161,-584"/>
<text text-anchor="start" x="23" y="-572" font-family="Helvetica,sans-Serif" font-size="10.00">Terraria.DataStructures.</text>
<text text-anchor="start" x="31.5" y="-561" font-family="Helvetica,sans-Serif" font-size="10.00">IEntrySortStep&lt; T &gt;</text>
<text text-anchor="start" x="79" y="-546" font-family="Helvetica,sans-Serif" font-size="10.00"> </text>
<text text-anchor="start" x="4.5" y="-531" font-family="Helvetica,sans-Serif" font-size="10.00">+</text>
<text text-anchor="start" x="17.5" y="-531" font-family="Helvetica,sans-Serif" font-size="10.00">string GetDisplayNameKey()</text>
<polygon fill="#666666" stroke="#666666" points="0.5,-556 0.5,-556 161.5,-556 161.5,-556 0.5,-556"/>
<polygon fill="#666666" stroke="#666666" points="0.5,-541 0.5,-541 161.5,-541 161.5,-541 0.5,-541"/>
<polygon fill="none" stroke="#666666" points="0,-524 0,-584 161,-584 161,-524 0,-524"/>
</a>
</g>
</g>
<!-- Node5&#45;&gt;Node4 -->
<g id="edge4_Node000004_Node000005" class="edge">
<title>Node5&#45;&gt;Node4</title>
<g id="a_edge4_Node000004_Node000005"><a xlink:title=" ">
<path fill="none" stroke="orange" d="M80.5,-513.46C80.5,-501.39 80.5,-488.34 80.5,-477.09"/>
<polygon fill="orange" stroke="orange" points="77,-513.75 80.5,-523.75 84,-513.75 77,-513.75"/>
</a>
</g>
<text text-anchor="middle" x="126.5" y="-498" font-family="Helvetica,sans-Serif" font-size="10.00" fill="grey"> &lt; BestiaryEntry &gt;</text>
</g>
<!-- Node6 -->
<g id="Node000006" class="node">
<title>Node6</title>
<g id="a_Node000006"><a xlink:href="../../d7/de5/classIComparer.html" target="_top" xlink:title=" ">
<polygon fill="white" stroke="transparent" points="125.5,-670 35.5,-670 35.5,-621 125.5,-621 125.5,-670"/>
<text text-anchor="start" x="40.5" y="-657.5" font-family="Helvetica,sans-Serif" font-size="10.00">IComparer&lt; T &gt;</text>
<text text-anchor="start" x="78.5" y="-642.5" font-family="Helvetica,sans-Serif" font-size="10.00"> </text>
<text text-anchor="start" x="78.5" y="-627.5" font-family="Helvetica,sans-Serif" font-size="10.00"> </text>
<polygon fill="#666666" stroke="#666666" points="35.5,-652.5 35.5,-652.5 125.5,-652.5 125.5,-652.5 35.5,-652.5"/>
<polygon fill="#666666" stroke="#666666" points="35.5,-637.5 35.5,-637.5 125.5,-637.5 125.5,-637.5 35.5,-637.5"/>
<polygon fill="none" stroke="#666666" points="35.5,-621 35.5,-670 125.5,-670 125.5,-621 35.5,-621"/>
</a>
</g>
</g>
<!-- Node6&#45;&gt;Node5 -->
<g id="edge5_Node000005_Node000006" class="edge">
<title>Node6&#45;&gt;Node5</title>
<g id="a_edge5_Node000005_Node000006"><a xlink:title=" ">
<path fill="none" stroke="#63b8ff" d="M80.5,-610.7C80.5,-601.95 80.5,-592.6 80.5,-584.12"/>
<polygon fill="none" stroke="#63b8ff" points="77,-610.98 80.5,-620.98 84,-610.98 77,-610.98"/>
</a>
</g>
</g>
<!-- Node7 -->
<g id="Node000007" class="node">
<title>Node7</title>
<g id="a_Node000007"><a xlink:href="../../d7/de5/classIComparer.html" target="_top" xlink:title=" ">
<polygon fill="white" stroke="transparent" points="351.5,-471.5 201.5,-471.5 201.5,-422.5 351.5,-422.5 351.5,-471.5"/>
<text text-anchor="start" x="206.5" y="-459" font-family="Helvetica,sans-Serif" font-size="10.00">IComparer&lt; BestiaryEntry &gt;</text>
<text text-anchor="start" x="274.5" y="-444" font-family="Helvetica,sans-Serif" font-size="10.00"> </text>
<text text-anchor="start" x="274.5" y="-429" font-family="Helvetica,sans-Serif" font-size="10.00"> </text>
<polygon fill="#666666" stroke="#666666" points="201.5,-454 201.5,-454 351.5,-454 351.5,-454 201.5,-454"/>
<polygon fill="#666666" stroke="#666666" points="201.5,-439 201.5,-439 351.5,-439 351.5,-439 201.5,-439"/>
<polygon fill="none" stroke="#666666" points="201.5,-422.5 201.5,-471.5 351.5,-471.5 351.5,-422.5 201.5,-422.5"/>
</a>
</g>
</g>
<!-- Node7&#45;&gt;Node2 -->
<g id="edge8_Node000002_Node000007" class="edge">
<title>Node7&#45;&gt;Node2</title>
<g id="a_edge8_Node000002_Node000007"><a xlink:title=" ">
<path fill="none" stroke="#63b8ff" d="M279.43,-411.98C280.2,-388.44 278.71,-356.82 268.5,-331 263.45,-318.23 256.36,-305.8 248.35,-294.17"/>
<polygon fill="none" stroke="#63b8ff" points="275.92,-412.02 278.94,-422.18 282.91,-412.36 275.92,-412.02"/>
</a>
</g>
</g>
<!-- Node7&#45;&gt;Node3 -->
<g id="edge6_Node000003_Node000007" class="edge">
<title>Node7&#45;&gt;Node3</title>
<g id="a_edge6_Node000003_Node000007"><a xlink:title=" ">
<path fill="none" stroke="#63b8ff" d="M243.11,-415.51C230.47,-403.96 216.27,-391 204.42,-380.17"/>
<polygon fill="none" stroke="#63b8ff" points="241.01,-418.33 250.75,-422.48 245.73,-413.16 241.01,-418.33"/>
</a>
</g>
</g>
</g>
</svg>
