<?xml version="1.0" encoding="UTF-8" standalone="no"?>
<!DOCTYPE svg PUBLIC "-//W3C//DTD SVG 1.1//EN"
 "http://www.w3.org/Graphics/SVG/1.1/DTD/svg11.dtd">
<!-- Generated by graphviz version 2.43.0 (0)
 -->
<!-- Title: Terraria.GameContent.RGB.IceShader.ProcessHighDetail Pages: 1 -->
<svg width="397pt" height="134pt"
 viewBox="0.00 0.00 397.00 134.00" xmlns="http://www.w3.org/2000/svg" xmlns:xlink="http://www.w3.org/1999/xlink">
<g id="graph0" class="graph" transform="scale(1 1) rotate(0) translate(4 130)">
<title>Terraria.GameContent.RGB.IceShader.ProcessHighDetail</title>
<!-- Node1 -->
<g id="Node000001" class="node">
<title>Node1</title>
<g id="a_Node000001"><a xlink:title=" ">
<polygon fill="#999999" stroke="#666666" points="156,-78 0,-78 0,-48 156,-48 156,-78"/>
<text text-anchor="start" x="8" y="-66" font-family="Helvetica,sans-Serif" font-size="10.00">Terraria.GameContent.RGB.</text>
<text text-anchor="middle" x="78" y="-55" font-family="Helvetica,sans-Serif" font-size="10.00">IceShader.ProcessHighDetail</text>
</a>
</g>
</g>
<!-- Node2 -->
<g id="Node000002" class="node">
<title>Node2</title>
<g id="a_Node000002"><a xlink:href="../../da/dd6/classReLogic_1_1Peripherals_1_1RGB_1_1Fragment_ad8ae13d3f8e4b6018fc3479968dc4105.html#ad8ae13d3f8e4b6018fc3479968dc4105" target="_top" xlink:title=" ">
<polygon fill="white" stroke="#666666" points="389,-126 192,-126 192,-96 389,-96 389,-126"/>
<text text-anchor="start" x="200" y="-114" font-family="Helvetica,sans-Serif" font-size="10.00">ReLogic.Peripherals.RGB.</text>
<text text-anchor="middle" x="290.5" y="-103" font-family="Helvetica,sans-Serif" font-size="10.00">Fragment.GetCanvasPositionOfIndex</text>
</a>
</g>
</g>
<!-- Node1&#45;&gt;Node2 -->
<g id="edge1_Node000001_Node000002" class="edge">
<title>Node1&#45;&gt;Node2</title>
<g id="a_edge1_Node000001_Node000002"><a xlink:title=" ">
<path fill="none" stroke="#63b8ff" d="M145.03,-78.06C166.87,-83.04 191.35,-88.62 213.86,-93.75"/>
<polygon fill="#63b8ff" stroke="#63b8ff" points="213.18,-97.19 223.71,-96 214.74,-90.36 213.18,-97.19"/>
</a>
</g>
</g>
<!-- Node3 -->
<g id="Node000003" class="node">
<title>Node3</title>
<g id="a_Node000003"><a xlink:href="../../de/dbd/classTerraria_1_1GameContent_1_1RGB_1_1NoiseHelper_a7e74438cf5ce41d3fb7e3ee8b20ffbca.html#a7e74438cf5ce41d3fb7e3ee8b20ffbca" target="_top" xlink:title=" ">
<polygon fill="white" stroke="#666666" points="374,-78 207,-78 207,-48 374,-48 374,-78"/>
<text text-anchor="start" x="215" y="-66" font-family="Helvetica,sans-Serif" font-size="10.00">Terraria.GameContent.RGB.</text>
<text text-anchor="middle" x="290.5" y="-55" font-family="Helvetica,sans-Serif" font-size="10.00">NoiseHelper.GetDynamicNoise</text>
</a>
</g>
</g>
<!-- Node1&#45;&gt;Node3 -->
<g id="edge2_Node000001_Node000003" class="edge">
<title>Node1&#45;&gt;Node3</title>
<g id="a_edge2_Node000001_Node000003"><a xlink:title=" ">
<path fill="none" stroke="#63b8ff" d="M156.19,-63C169.28,-63 182.99,-63 196.44,-63"/>
<polygon fill="#63b8ff" stroke="#63b8ff" points="196.65,-66.5 206.65,-63 196.65,-59.5 196.65,-66.5"/>
</a>
</g>
</g>
<!-- Node4 -->
<g id="Node000004" class="node">
<title>Node4</title>
<g id="a_Node000004"><a xlink:href="../../da/dd6/classReLogic_1_1Peripherals_1_1RGB_1_1Fragment_ac2018cbbd5437a0bcf5baf076040c0e7.html#ac2018cbbd5437a0bcf5baf076040c0e7" target="_top" xlink:title=" ">
<polygon fill="white" stroke="#666666" points="360.5,-30 220.5,-30 220.5,0 360.5,0 360.5,-30"/>
<text text-anchor="start" x="228.5" y="-18" font-family="Helvetica,sans-Serif" font-size="10.00">ReLogic.Peripherals.RGB.</text>
<text text-anchor="middle" x="290.5" y="-7" font-family="Helvetica,sans-Serif" font-size="10.00">Fragment.SetColor</text>
</a>
</g>
</g>
<!-- Node1&#45;&gt;Node4 -->
<g id="edge3_Node000001_Node000004" class="edge">
<title>Node1&#45;&gt;Node4</title>
<g id="a_edge3_Node000001_Node000004"><a xlink:title=" ">
<path fill="none" stroke="#63b8ff" d="M145.03,-47.94C166.87,-42.96 191.35,-37.38 213.86,-32.25"/>
<polygon fill="#63b8ff" stroke="#63b8ff" points="214.74,-35.64 223.71,-30 213.18,-28.81 214.74,-35.64"/>
</a>
</g>
</g>
</g>
</svg>
