<?xml version="1.0" encoding="UTF-8" standalone="no"?>
<!DOCTYPE svg PUBLIC "-//W3C//DTD SVG 1.1//EN"
 "http://www.w3.org/Graphics/SVG/1.1/DTD/svg11.dtd">
<!-- Generated by graphviz version 2.43.0 (0)
 -->
<!-- Title: CloudSocialModule.GetFiles Pages: 1 -->
<svg width="1625pt" height="782pt"
 viewBox="0.00 0.00 1625.00 782.00" xmlns="http://www.w3.org/2000/svg" xmlns:xlink="http://www.w3.org/1999/xlink">
<g id="graph0" class="graph" transform="scale(1 1) rotate(0) translate(4 778)">
<title>CloudSocialModule.GetFiles</title>
<polygon fill="white" stroke="transparent" points="-4,4 -4,-778 1621,-778 1621,4 -4,4"/>
<!-- Node1 -->
<g id="node1" class="node">
<title>Node1</title>
<g id="a_node1"><a xlink:title=" ">
<polygon fill="#bfbfbf" stroke="black" points="1465,-204 1465,-223 1617,-223 1617,-204 1465,-204"/>
<text text-anchor="middle" x="1541" y="-211" font-family="Helvetica,sans-Serif" font-size="10.00">CloudSocialModule.GetFiles</text>
</a>
</g>
</g>
<!-- Node2 -->
<g id="node2" class="node">
<title>Node2</title>
<g id="a_node2"><a xlink:href="../../db/d4a/classMain_a5f03a0fe00e655740b7c3ed6761b9b8a.html#a5f03a0fe00e655740b7c3ed6761b9b8a" target="_top" xlink:title=" ">
<polygon fill="white" stroke="black" points="1300.5,-454 1300.5,-473 1403.5,-473 1403.5,-454 1300.5,-454"/>
<text text-anchor="middle" x="1352" y="-461" font-family="Helvetica,sans-Serif" font-size="10.00">Main.LoadPlayers</text>
</a>
</g>
</g>
<!-- Node1&#45;&gt;Node2 -->
<g id="edge1" class="edge">
<title>Node1&#45;&gt;Node2</title>
<path fill="none" stroke="midnightblue" d="M1526.59,-231.42C1489.84,-280.56 1388.35,-416.24 1360.28,-453.77"/>
<polygon fill="midnightblue" stroke="midnightblue" points="1529.48,-233.4 1532.67,-223.3 1523.88,-229.21 1529.48,-233.4"/>
</g>
<!-- Node31 -->
<g id="node31" class="node">
<title>Node31</title>
<g id="a_node31"><a xlink:href="../../db/d4a/classMain_a0e426409d49a47cdd1ed98b3b1c2cc03.html#a0e426409d49a47cdd1ed98b3b1c2cc03" target="_top" xlink:title=" ">
<polygon fill="white" stroke="black" points="1302,-204 1302,-223 1402,-223 1402,-204 1302,-204"/>
<text text-anchor="middle" x="1352" y="-211" font-family="Helvetica,sans-Serif" font-size="10.00">Main.LoadWorlds</text>
</a>
</g>
</g>
<!-- Node1&#45;&gt;Node31 -->
<g id="edge38" class="edge">
<title>Node1&#45;&gt;Node31</title>
<path fill="none" stroke="midnightblue" d="M1454.52,-213.5C1436.55,-213.5 1418.17,-213.5 1402.08,-213.5"/>
<polygon fill="midnightblue" stroke="midnightblue" points="1454.75,-217 1464.75,-213.5 1454.75,-210 1454.75,-217"/>
</g>
<!-- Node48 -->
<g id="node48" class="node">
<title>Node48</title>
<g id="a_node48"><a xlink:href="../../db/d1c/classPlayerFileData_acd1cb7f6da4a8b7a507907e192cf7d6f.html#acd1cb7f6da4a8b7a507907e192cf7d6f" target="_top" xlink:title=" ">
<polygon fill="white" stroke="black" points="1275,-100 1275,-119 1429,-119 1429,-100 1275,-100"/>
<text text-anchor="middle" x="1352" y="-107" font-family="Helvetica,sans-Serif" font-size="10.00">PlayerFileData.MoveToLocal</text>
</a>
</g>
</g>
<!-- Node1&#45;&gt;Node48 -->
<g id="edge59" class="edge">
<title>Node1&#45;&gt;Node48</title>
<path fill="none" stroke="midnightblue" d="M1513.6,-198.82C1474.69,-177.18 1403.02,-137.32 1370.22,-119.07"/>
<polygon fill="midnightblue" stroke="midnightblue" points="1512.3,-202.1 1522.74,-203.9 1515.7,-195.98 1512.3,-202.1"/>
</g>
<!-- Node3 -->
<g id="node3" class="node">
<title>Node3</title>
<g id="a_node3"><a xlink:href="../../db/d4a/classMain_a243116cdbdc2306752d457876ce94abc.html#a243116cdbdc2306752d457876ce94abc" target="_top" xlink:title=" ">
<polygon fill="white" stroke="black" points="1091,-378 1091,-397 1205,-397 1205,-378 1091,-378"/>
<text text-anchor="middle" x="1148" y="-385" font-family="Helvetica,sans-Serif" font-size="10.00">Main.ClientInitialize</text>
</a>
</g>
</g>
<!-- Node2&#45;&gt;Node3 -->
<g id="edge2" class="edge">
<title>Node2&#45;&gt;Node3</title>
<path fill="none" stroke="midnightblue" d="M1326.54,-448.67C1304.39,-435.83 1270.5,-417.62 1239,-406.5 1228.31,-402.73 1216.62,-399.58 1205.32,-397.01"/>
<polygon fill="midnightblue" stroke="midnightblue" points="1324.88,-451.76 1335.27,-453.81 1328.43,-445.72 1324.88,-451.76"/>
</g>
<!-- Node9 -->
<g id="node9" class="node">
<title>Node9</title>
<g id="a_node9"><a xlink:href="../../db/d4a/classMain_aa0f0da16c3bdd6d5ebe12381b64a60f6.html#aa0f0da16c3bdd6d5ebe12381b64a60f6" target="_top" xlink:title=" ">
<polygon fill="white" stroke="black" points="882,-454 882,-473 978,-473 978,-454 882,-454"/>
<text text-anchor="middle" x="930" y="-461" font-family="Helvetica,sans-Serif" font-size="10.00">Main.DrawMenu</text>
</a>
</g>
</g>
<!-- Node2&#45;&gt;Node9 -->
<g id="edge8" class="edge">
<title>Node2&#45;&gt;Node9</title>
<path fill="none" stroke="midnightblue" d="M1290.13,-463.5C1205.7,-463.5 1054.81,-463.5 978.29,-463.5"/>
<polygon fill="midnightblue" stroke="midnightblue" points="1290.34,-467 1300.34,-463.5 1290.34,-460 1290.34,-467"/>
</g>
<!-- Node12 -->
<g id="node12" class="node">
<title>Node12</title>
<g id="a_node12"><a xlink:href="../../db/d4a/classMain_ae495029c3629cdd369ccc59651a82a52.html#ae495029c3629cdd369ccc59651a82a52" target="_top" xlink:title=" ">
<polygon fill="white" stroke="black" points="1097.5,-530 1097.5,-549 1198.5,-549 1198.5,-530 1097.5,-530"/>
<text text-anchor="middle" x="1148" y="-537" font-family="Helvetica,sans-Serif" font-size="10.00">Main.ErasePlayer</text>
</a>
</g>
</g>
<!-- Node2&#45;&gt;Node12 -->
<g id="edge12" class="edge">
<title>Node2&#45;&gt;Node12</title>
<path fill="none" stroke="midnightblue" d="M1326.54,-478.33C1304.39,-491.17 1270.5,-509.38 1239,-520.5 1226.2,-525.02 1211.98,-528.63 1198.69,-531.44"/>
<polygon fill="midnightblue" stroke="midnightblue" points="1328.43,-481.28 1335.27,-473.19 1324.88,-475.24 1328.43,-481.28"/>
</g>
<!-- Node13 -->
<g id="node13" class="node">
<title>Node13</title>
<g id="a_node13"><a xlink:href="../../dd/d99/classUICharacterCreation_acd205a22cb1f4280a1283e616386715d.html#acd205a22cb1f4280a1283e616386715d" target="_top" xlink:title=" ">
<polygon fill="white" stroke="black" points="1074.5,-568.5 1074.5,-598.5 1221.5,-598.5 1221.5,-568.5 1074.5,-568.5"/>
<text text-anchor="start" x="1082.5" y="-586.5" font-family="Helvetica,sans-Serif" font-size="10.00">UICharacterCreation.Finish</text>
<text text-anchor="middle" x="1148" y="-575.5" font-family="Helvetica,sans-Serif" font-size="10.00">CreatingCharacter</text>
</a>
</g>
</g>
<!-- Node2&#45;&gt;Node13 -->
<g id="edge14" class="edge">
<title>Node2&#45;&gt;Node13</title>
<path fill="none" stroke="midnightblue" d="M1335.57,-480.5C1315.38,-501.76 1277.96,-537.86 1239,-558.5 1231.84,-562.3 1224.04,-565.56 1216.12,-568.36"/>
<polygon fill="midnightblue" stroke="midnightblue" points="1338.18,-482.85 1342.44,-473.15 1333.06,-478.07 1338.18,-482.85"/>
</g>
<!-- Node19 -->
<g id="node19" class="node">
<title>Node19</title>
<g id="a_node19"><a xlink:href="../../db/d4a/classMain_a25342c33fe017340cbe3a4d633951101.html#a25342c33fe017340cbe3a4d633951101" target="_top" xlink:title=" ">
<polygon fill="white" stroke="black" points="1059,-340 1059,-359 1237,-359 1237,-340 1059,-340"/>
<text text-anchor="middle" x="1148" y="-347" font-family="Helvetica,sans-Serif" font-size="10.00">Main.Initialize_AlmostEverything</text>
</a>
</g>
</g>
<!-- Node2&#45;&gt;Node19 -->
<g id="edge21" class="edge">
<title>Node2&#45;&gt;Node19</title>
<path fill="none" stroke="midnightblue" d="M1336.08,-446.44C1316.17,-424.81 1278.79,-388 1239,-368.5 1231.11,-364.63 1222.46,-361.55 1213.74,-359.1"/>
<polygon fill="midnightblue" stroke="midnightblue" points="1333.53,-448.83 1342.82,-453.92 1338.73,-444.14 1333.53,-448.83"/>
</g>
<!-- Node21 -->
<g id="node21" class="node">
<title>Node21</title>
<g id="a_node21"><a xlink:href="../../de/dcf/classUICharacterSelect_a980352d513ce3f1a73ae9955d3aa0452.html#a980352d513ce3f1a73ae9955d3aa0452" target="_top" xlink:title=" ">
<polygon fill="white" stroke="black" points="1067.5,-416 1067.5,-435 1228.5,-435 1228.5,-416 1067.5,-416"/>
<text text-anchor="middle" x="1148" y="-423" font-family="Helvetica,sans-Serif" font-size="10.00">UICharacterSelect.OnActivate</text>
</a>
</g>
</g>
<!-- Node2&#45;&gt;Node21 -->
<g id="edge25" class="edge">
<title>Node2&#45;&gt;Node21</title>
<path fill="none" stroke="midnightblue" d="M1290.3,-452.08C1261.4,-446.64 1227.23,-440.22 1199.73,-435.04"/>
<polygon fill="midnightblue" stroke="midnightblue" points="1289.81,-455.55 1300.29,-453.96 1291.11,-448.67 1289.81,-455.55"/>
</g>
<!-- Node22 -->
<g id="node22" class="node">
<title>Node22</title>
<g id="a_node22"><a xlink:href="../../db/d4a/classMain_a1885c11a746454b463aacbce277d8fda.html#a1885c11a746454b463aacbce277d8fda" target="_top" xlink:title=" ">
<polygon fill="white" stroke="black" points="1078,-492 1078,-511 1218,-511 1218,-492 1078,-492"/>
<text text-anchor="middle" x="1148" y="-499" font-family="Helvetica,sans-Serif" font-size="10.00">Main.OnCharacterNamed</text>
</a>
</g>
</g>
<!-- Node2&#45;&gt;Node22 -->
<g id="edge26" class="edge">
<title>Node2&#45;&gt;Node22</title>
<path fill="none" stroke="midnightblue" d="M1290.3,-474.92C1261.4,-480.36 1227.23,-486.78 1199.73,-491.96"/>
<polygon fill="midnightblue" stroke="midnightblue" points="1291.11,-478.33 1300.29,-473.04 1289.81,-471.45 1291.11,-478.33"/>
</g>
<!-- Node23 -->
<g id="node23" class="node">
<title>Node23</title>
<g id="a_node23"><a xlink:href="../../db/d4a/classMain_ac9e78e4942299b10b438e0632a1f12be.html#ac9e78e4942299b10b438e0632a1f12be" target="_top" xlink:title=" ">
<polygon fill="white" stroke="black" points="1083,-656 1083,-675 1213,-675 1213,-656 1083,-656"/>
<text text-anchor="middle" x="1148" y="-663" font-family="Helvetica,sans-Serif" font-size="10.00">Main.OpenPlayerSelect</text>
</a>
</g>
</g>
<!-- Node2&#45;&gt;Node23 -->
<g id="edge28" class="edge">
<title>Node2&#45;&gt;Node23</title>
<path fill="none" stroke="midnightblue" d="M1339.66,-481.84C1321.12,-510.87 1282.03,-568.12 1239,-607.5 1216.92,-627.7 1187.02,-645.44 1167.86,-655.81"/>
<polygon fill="midnightblue" stroke="midnightblue" points="1342.77,-483.48 1345.14,-473.15 1336.85,-479.74 1342.77,-483.48"/>
</g>
<!-- Node4 -->
<g id="node4" class="node">
<title>Node4</title>
<g id="a_node4"><a xlink:href="../../db/d4a/classMain_ad5aa3256b312cc9cfd98baeb2233727c.html#ad5aa3256b312cc9cfd98baeb2233727c" target="_top" xlink:title=" ">
<polygon fill="white" stroke="black" points="887,-340 887,-359 973,-359 973,-340 887,-340"/>
<text text-anchor="middle" x="930" y="-347" font-family="Helvetica,sans-Serif" font-size="10.00">Main.Initialize</text>
</a>
</g>
</g>
<!-- Node3&#45;&gt;Node4 -->
<g id="edge3" class="edge">
<title>Node3&#45;&gt;Node4</title>
<path fill="none" stroke="midnightblue" d="M1082.55,-376.16C1047.22,-369.95 1004.42,-362.42 973.33,-356.95"/>
<polygon fill="midnightblue" stroke="midnightblue" points="1082.32,-379.67 1092.77,-377.96 1083.53,-372.78 1082.32,-379.67"/>
</g>
<!-- Node5 -->
<g id="node5" class="node">
<title>Node5</title>
<g id="a_node5"><a xlink:href="../../db/d4a/classMain_aa0692b82ef0f39d28df7aae89daa2480.html#aa0692b82ef0f39d28df7aae89daa2480" target="_top" xlink:title=" ">
<polygon fill="white" stroke="black" points="673,-302 673,-321 758,-321 758,-302 673,-302"/>
<text text-anchor="middle" x="715.5" y="-309" font-family="Helvetica,sans-Serif" font-size="10.00">Main.DedServ</text>
</a>
</g>
</g>
<!-- Node4&#45;&gt;Node5 -->
<g id="edge4" class="edge">
<title>Node4&#45;&gt;Node5</title>
<path fill="none" stroke="midnightblue" d="M876.8,-340.17C840.32,-333.64 792.25,-325.05 758.29,-318.97"/>
<polygon fill="midnightblue" stroke="midnightblue" points="876.3,-343.63 886.76,-341.95 877.54,-336.74 876.3,-343.63"/>
</g>
<!-- Node6 -->
<g id="node6" class="node">
<title>Node6</title>
<g id="a_node6"><a xlink:href="../../dc/db5/classProgram_a7046fff16d913c8ea7291c3efa4cb4ed.html#a7046fff16d913c8ea7291c3efa4cb4ed" target="_top" xlink:title=" ">
<polygon fill="white" stroke="black" points="452,-302 452,-321 561,-321 561,-302 452,-302"/>
<text text-anchor="middle" x="506.5" y="-309" font-family="Helvetica,sans-Serif" font-size="10.00">Program.RunGame</text>
</a>
</g>
</g>
<!-- Node5&#45;&gt;Node6 -->
<g id="edge5" class="edge">
<title>Node5&#45;&gt;Node6</title>
<path fill="none" stroke="midnightblue" d="M662.46,-311.5C631.52,-311.5 592.36,-311.5 561.14,-311.5"/>
<polygon fill="midnightblue" stroke="midnightblue" points="662.61,-315 672.61,-311.5 662.61,-308 662.61,-315"/>
</g>
<!-- Node7 -->
<g id="node7" class="node">
<title>Node7</title>
<g id="a_node7"><a xlink:href="../../dc/db5/classProgram_ac64eaca42975d2a403f25794697886fc.html#ac64eaca42975d2a403f25794697886fc" target="_top" xlink:title=" ">
<polygon fill="white" stroke="black" points="236,-302 236,-321 361,-321 361,-302 236,-302"/>
<text text-anchor="middle" x="298.5" y="-309" font-family="Helvetica,sans-Serif" font-size="10.00">Program.LaunchGame</text>
</a>
</g>
</g>
<!-- Node6&#45;&gt;Node7 -->
<g id="edge6" class="edge">
<title>Node6&#45;&gt;Node7</title>
<path fill="none" stroke="midnightblue" d="M441.91,-311.5C416.23,-311.5 386.69,-311.5 361.21,-311.5"/>
<polygon fill="midnightblue" stroke="midnightblue" points="441.91,-315 451.91,-311.5 441.91,-308 441.91,-315"/>
</g>
<!-- Node8 -->
<g id="node8" class="node">
<title>Node8</title>
<g id="a_node8"><a xlink:href="../../df/d9e/classWindowsLaunch_a48fb8633919b7d48cc10a62bd116902a.html#a48fb8633919b7d48cc10a62bd116902a" target="_top" xlink:title=" ">
<polygon fill="white" stroke="black" points="27,-302 27,-321 149,-321 149,-302 27,-302"/>
<text text-anchor="middle" x="88" y="-309" font-family="Helvetica,sans-Serif" font-size="10.00">WindowsLaunch.Main</text>
</a>
</g>
</g>
<!-- Node7&#45;&gt;Node8 -->
<g id="edge7" class="edge">
<title>Node7&#45;&gt;Node8</title>
<path fill="none" stroke="midnightblue" d="M225.65,-311.5C200.71,-311.5 173.01,-311.5 149.12,-311.5"/>
<polygon fill="midnightblue" stroke="midnightblue" points="225.79,-315 235.79,-311.5 225.79,-308 225.79,-315"/>
</g>
<!-- Node10 -->
<g id="node10" class="node">
<title>Node10</title>
<g id="a_node10"><a xlink:href="../../db/d4a/classMain_a4ca48570ee8c9e54ed5371ecb4ab1877.html#a4ca48570ee8c9e54ed5371ecb4ab1877" target="_top" xlink:title=" ">
<polygon fill="white" stroke="black" points="674,-435 674,-454 757,-454 757,-435 674,-435"/>
<text text-anchor="middle" x="715.5" y="-442" font-family="Helvetica,sans-Serif" font-size="10.00">Main.DoDraw</text>
</a>
</g>
</g>
<!-- Node9&#45;&gt;Node10 -->
<g id="edge9" class="edge">
<title>Node9&#45;&gt;Node10</title>
<path fill="none" stroke="midnightblue" d="M871.43,-458.35C835.26,-455.12 789.48,-451.02 757.09,-448.13"/>
<polygon fill="midnightblue" stroke="midnightblue" points="871.57,-461.88 881.84,-459.28 872.19,-454.91 871.57,-461.88"/>
</g>
<!-- Node11 -->
<g id="node11" class="node">
<title>Node11</title>
<g id="a_node11"><a xlink:href="../../db/d4a/classMain_a9df405f7c9ce2e93e9af9bbf70231672.html#a9df405f7c9ce2e93e9af9bbf70231672" target="_top" xlink:title=" ">
<polygon fill="white" stroke="black" points="472,-435 472,-454 541,-454 541,-435 472,-435"/>
<text text-anchor="middle" x="506.5" y="-442" font-family="Helvetica,sans-Serif" font-size="10.00">Main.Draw</text>
</a>
</g>
</g>
<!-- Node10&#45;&gt;Node11 -->
<g id="edge10" class="edge">
<title>Node10&#45;&gt;Node11</title>
<path fill="none" stroke="midnightblue" d="M663.22,-438.58C625.11,-437.25 574.2,-437.52 541.13,-439.36"/>
<polygon fill="midnightblue" stroke="midnightblue" points="663.47,-442.09 673.6,-439 663.75,-435.1 663.47,-442.09"/>
</g>
<!-- Node11&#45;&gt;Node10 -->
<g id="edge11" class="edge">
<title>Node11&#45;&gt;Node10</title>
<path fill="none" stroke="midnightblue" d="M551.37,-450.13C587.49,-451.66 638.32,-451.62 673.6,-450"/>
<polygon fill="midnightblue" stroke="midnightblue" points="551.29,-446.63 541.13,-449.64 550.95,-453.62 551.29,-446.63"/>
</g>
<!-- Node12&#45;&gt;Node9 -->
<g id="edge13" class="edge">
<title>Node12&#45;&gt;Node9</title>
<path fill="none" stroke="midnightblue" d="M1087.65,-528.88C1077.33,-526.49 1066.78,-523.7 1057,-520.5 1017.07,-507.43 972.85,-485.59 948.87,-473.08"/>
<polygon fill="midnightblue" stroke="midnightblue" points="1086.92,-532.31 1097.44,-531.05 1088.44,-525.47 1086.92,-532.31"/>
</g>
<!-- Node14 -->
<g id="node14" class="node">
<title>Node14</title>
<g id="a_node14"><a xlink:href="../../dd/d99/classUICharacterCreation_a14a56ece12e483be576e65b907e05a83.html#a14a56ece12e483be576e65b907e05a83" target="_top" xlink:title=" ">
<polygon fill="white" stroke="black" points="644,-543.5 644,-573.5 787,-573.5 787,-543.5 644,-543.5"/>
<text text-anchor="start" x="652" y="-561.5" font-family="Helvetica,sans-Serif" font-size="10.00">UICharacterCreation.Click</text>
<text text-anchor="middle" x="715.5" y="-550.5" font-family="Helvetica,sans-Serif" font-size="10.00">_NamingAndCreating</text>
</a>
</g>
</g>
<!-- Node13&#45;&gt;Node14 -->
<g id="edge15" class="edge">
<title>Node13&#45;&gt;Node14</title>
<path fill="none" stroke="midnightblue" d="M1073.9,-566.48C1056.65,-563.17 1038.25,-560.2 1021,-558.5 941.16,-550.66 848.98,-552.11 787.14,-554.6"/>
<polygon fill="midnightblue" stroke="midnightblue" points="1073.42,-569.95 1083.91,-568.47 1074.78,-563.09 1073.42,-569.95"/>
</g>
<!-- Node18 -->
<g id="node18" class="node">
<title>Node18</title>
<g id="a_node18"><a xlink:href="../../dd/d99/classUICharacterCreation_a9ed5a2d3589b07ff634c0b3c8b076f22.html#a9ed5a2d3589b07ff634c0b3c8b076f22" target="_top" xlink:title=" ">
<polygon fill="white" stroke="black" points="843.5,-568.5 843.5,-598.5 1016.5,-598.5 1016.5,-568.5 843.5,-568.5"/>
<text text-anchor="start" x="851.5" y="-586.5" font-family="Helvetica,sans-Serif" font-size="10.00">UICharacterCreation.OnFinished</text>
<text text-anchor="middle" x="930" y="-575.5" font-family="Helvetica,sans-Serif" font-size="10.00">NamingAndCreating</text>
</a>
</g>
</g>
<!-- Node13&#45;&gt;Node18 -->
<g id="edge19" class="edge">
<title>Node13&#45;&gt;Node18</title>
<path fill="none" stroke="midnightblue" d="M1064.36,-583.5C1048.79,-583.5 1032.47,-583.5 1016.8,-583.5"/>
<polygon fill="midnightblue" stroke="midnightblue" points="1064.47,-587 1074.47,-583.5 1064.47,-580 1064.47,-587"/>
</g>
<!-- Node15 -->
<g id="node15" class="node">
<title>Node15</title>
<g id="a_node15"><a xlink:href="../../dd/d99/classUICharacterCreation_aae9daa22ef593bcf63193a041f01ad49.html#aae9daa22ef593bcf63193a041f01ad49" target="_top" xlink:title=" ">
<polygon fill="white" stroke="black" points="434,-543.5 434,-573.5 579,-573.5 579,-543.5 434,-543.5"/>
<text text-anchor="start" x="442" y="-561.5" font-family="Helvetica,sans-Serif" font-size="10.00">UICharacterCreation.Make</text>
<text text-anchor="middle" x="506.5" y="-550.5" font-family="Helvetica,sans-Serif" font-size="10.00">BackAndCreatebuttons</text>
</a>
</g>
</g>
<!-- Node14&#45;&gt;Node15 -->
<g id="edge16" class="edge">
<title>Node14&#45;&gt;Node15</title>
<path fill="none" stroke="midnightblue" d="M633.69,-558.5C615.73,-558.5 596.81,-558.5 579.25,-558.5"/>
<polygon fill="midnightblue" stroke="midnightblue" points="633.84,-562 643.84,-558.5 633.84,-555 633.84,-562"/>
</g>
<!-- Node16 -->
<g id="node16" class="node">
<title>Node16</title>
<g id="a_node16"><a xlink:href="../../dd/d99/classUICharacterCreation_a767938d6a9d527fe51e657131fe7840b.html#a767938d6a9d527fe51e657131fe7840b" target="_top" xlink:title=" ">
<polygon fill="white" stroke="black" points="215,-549 215,-568 382,-568 382,-549 215,-549"/>
<text text-anchor="middle" x="298.5" y="-556" font-family="Helvetica,sans-Serif" font-size="10.00">UICharacterCreation.BuildPage</text>
</a>
</g>
</g>
<!-- Node15&#45;&gt;Node16 -->
<g id="edge17" class="edge">
<title>Node15&#45;&gt;Node16</title>
<path fill="none" stroke="midnightblue" d="M423.49,-558.5C409.94,-558.5 395.87,-558.5 382.3,-558.5"/>
<polygon fill="midnightblue" stroke="midnightblue" points="423.74,-562 433.74,-558.5 423.74,-555 423.74,-562"/>
</g>
<!-- Node17 -->
<g id="node17" class="node">
<title>Node17</title>
<g id="a_node17"><a xlink:href="../../dd/d99/classUICharacterCreation_aa75b719ecb854a93b45d8229c55a19a4.html#aa75b719ecb854a93b45d8229c55a19a4" target="_top" xlink:title=" ">
<polygon fill="white" stroke="black" points="0,-543.5 0,-573.5 176,-573.5 176,-543.5 0,-543.5"/>
<text text-anchor="start" x="8" y="-561.5" font-family="Helvetica,sans-Serif" font-size="10.00">UICharacterCreation.UICharacter</text>
<text text-anchor="middle" x="88" y="-550.5" font-family="Helvetica,sans-Serif" font-size="10.00">Creation</text>
</a>
</g>
</g>
<!-- Node16&#45;&gt;Node17 -->
<g id="edge18" class="edge">
<title>Node16&#45;&gt;Node17</title>
<path fill="none" stroke="midnightblue" d="M204.57,-558.5C195.08,-558.5 185.47,-558.5 176.05,-558.5"/>
<polygon fill="midnightblue" stroke="midnightblue" points="204.8,-562 214.8,-558.5 204.8,-555 204.8,-562"/>
</g>
<!-- Node18&#45;&gt;Node14 -->
<g id="edge20" class="edge">
<title>Node18&#45;&gt;Node14</title>
<path fill="none" stroke="midnightblue" d="M833.34,-572.25C817.82,-570.42 801.99,-568.56 787.2,-566.82"/>
<polygon fill="midnightblue" stroke="midnightblue" points="833.15,-575.75 843.49,-573.44 833.96,-568.8 833.15,-575.75"/>
</g>
<!-- Node19&#45;&gt;Node4 -->
<g id="edge24" class="edge">
<title>Node19&#45;&gt;Node4</title>
<path fill="none" stroke="midnightblue" d="M1048.7,-349.5C1022.12,-349.5 994.74,-349.5 973.09,-349.5"/>
<polygon fill="midnightblue" stroke="midnightblue" points="1048.83,-353 1058.83,-349.5 1048.83,-346 1048.83,-353"/>
</g>
<!-- Node20 -->
<g id="node20" class="node">
<title>Node20</title>
<g id="a_node20"><a xlink:href="../../db/d4a/classMain_a5db4144feae3a661cf25ae1acf553895.html#a5db4144feae3a661cf25ae1acf553895" target="_top" xlink:title=" ">
<polygon fill="white" stroke="black" points="879.5,-397 879.5,-416 980.5,-416 980.5,-397 879.5,-397"/>
<text text-anchor="middle" x="930" y="-404" font-family="Helvetica,sans-Serif" font-size="10.00">Main.DrawSplash</text>
</a>
</g>
</g>
<!-- Node19&#45;&gt;Node20 -->
<g id="edge22" class="edge">
<title>Node19&#45;&gt;Node20</title>
<path fill="none" stroke="midnightblue" d="M1088.34,-361.13C1077.86,-363.42 1067.08,-365.92 1057,-368.5 1023.47,-377.08 985.49,-388.81 960.08,-396.96"/>
<polygon fill="midnightblue" stroke="midnightblue" points="1089.21,-364.53 1098.25,-359 1087.74,-357.68 1089.21,-364.53"/>
</g>
<!-- Node20&#45;&gt;Node10 -->
<g id="edge23" class="edge">
<title>Node20&#45;&gt;Node10</title>
<path fill="none" stroke="midnightblue" d="M869.59,-417.12C833.76,-423.53 789.05,-431.53 757.21,-437.22"/>
<polygon fill="midnightblue" stroke="midnightblue" points="870.22,-420.57 879.45,-415.36 868.99,-413.68 870.22,-420.57"/>
</g>
<!-- Node22&#45;&gt;Node9 -->
<g id="edge27" class="edge">
<title>Node22&#45;&gt;Node9</title>
<path fill="none" stroke="midnightblue" d="M1082.61,-490.17C1049.1,-484.28 1008.87,-477.2 978.27,-471.82"/>
<polygon fill="midnightblue" stroke="midnightblue" points="1082.32,-493.67 1092.77,-491.96 1083.53,-486.78 1082.32,-493.67"/>
</g>
<!-- Node24 -->
<g id="node24" class="node">
<title>Node24</title>
<g id="a_node24"><a xlink:href="../../d9/d43/classNetClientSocialModule_ab90f8b6b25a6751303b442b9378a9389.html#ab90f8b6b25a6751303b442b9378a9389" target="_top" xlink:title=" ">
<polygon fill="white" stroke="black" points="635,-675.5 635,-705.5 796,-705.5 796,-675.5 635,-675.5"/>
<text text-anchor="start" x="643" y="-693.5" font-family="Helvetica,sans-Serif" font-size="10.00">NetClientSocialModule.Check</text>
<text text-anchor="middle" x="715.5" y="-682.5" font-family="Helvetica,sans-Serif" font-size="10.00">Parameters</text>
</a>
</g>
</g>
<!-- Node23&#45;&gt;Node24 -->
<g id="edge29" class="edge">
<title>Node23&#45;&gt;Node24</title>
<path fill="none" stroke="midnightblue" d="M1072.42,-669.83C995.21,-674.31 875.04,-681.29 796.05,-685.88"/>
<polygon fill="midnightblue" stroke="midnightblue" points="1072.77,-673.32 1082.55,-669.24 1072.36,-666.33 1072.77,-673.32"/>
</g>
<!-- Node25 -->
<g id="node25" class="node">
<title>Node25</title>
<g id="a_node25"><a xlink:href="../../d9/d43/classNetClientSocialModule_afe08bce0a7e9dca4d68d47dcaa1af23f.html#afe08bce0a7e9dca4d68d47dcaa1af23f" target="_top" xlink:title=" ">
<polygon fill="white" stroke="black" points="845,-694.5 845,-724.5 1015,-724.5 1015,-694.5 845,-694.5"/>
<text text-anchor="start" x="853" y="-712.5" font-family="Helvetica,sans-Serif" font-size="10.00">NetClientSocialModule.Connect</text>
<text text-anchor="middle" x="930" y="-701.5" font-family="Helvetica,sans-Serif" font-size="10.00">ToLobby</text>
</a>
</g>
</g>
<!-- Node23&#45;&gt;Node25 -->
<g id="edge30" class="edge">
<title>Node23&#45;&gt;Node25</title>
<path fill="none" stroke="midnightblue" d="M1090.05,-677.1C1064,-682.41 1032.8,-688.76 1004.96,-694.43"/>
<polygon fill="midnightblue" stroke="midnightblue" points="1091.03,-680.47 1100.13,-675.05 1089.63,-673.61 1091.03,-680.47"/>
</g>
<!-- Node26 -->
<g id="node26" class="node">
<title>Node26</title>
<g id="a_node26"><a xlink:href="../../d9/d43/classNetClientSocialModule_aac286e7443b8568464959e72cb4d36f1.html#aac286e7443b8568464959e72cb4d36f1" target="_top" xlink:title=" ">
<polygon fill="white" stroke="black" points="434.5,-630.5 434.5,-660.5 578.5,-660.5 578.5,-630.5 434.5,-630.5"/>
<text text-anchor="start" x="442.5" y="-648.5" font-family="Helvetica,sans-Serif" font-size="10.00">NetClientSocialModule.On</text>
<text text-anchor="middle" x="506.5" y="-637.5" font-family="Helvetica,sans-Serif" font-size="10.00">LobbyJoinRequest</text>
</a>
</g>
</g>
<!-- Node23&#45;&gt;Node26 -->
<g id="edge32" class="edge">
<title>Node23&#45;&gt;Node26</title>
<path fill="none" stroke="midnightblue" d="M1072.59,-663.17C948.54,-659.29 701.07,-651.55 578.99,-647.74"/>
<polygon fill="midnightblue" stroke="midnightblue" points="1072.65,-666.68 1082.75,-663.49 1072.87,-659.68 1072.65,-666.68"/>
</g>
<!-- Node28 -->
<g id="node28" class="node">
<title>Node28</title>
<g id="a_node28"><a xlink:href="../../d9/d43/classNetClientSocialModule_ac91d1b31ed47e46d24a609bf3d10959d.html#ac91d1b31ed47e46d24a609bf3d10959d" target="_top" xlink:title=" ">
<polygon fill="white" stroke="black" points="858,-743.5 858,-773.5 1002,-773.5 1002,-743.5 858,-743.5"/>
<text text-anchor="start" x="866" y="-761.5" font-family="Helvetica,sans-Serif" font-size="10.00">NetClientSocialModule.On</text>
<text text-anchor="middle" x="930" y="-750.5" font-family="Helvetica,sans-Serif" font-size="10.00">RailRespondInvation</text>
</a>
</g>
</g>
<!-- Node23&#45;&gt;Node28 -->
<g id="edge34" class="edge">
<title>Node23&#45;&gt;Node28</title>
<path fill="none" stroke="midnightblue" d="M1123.4,-680.68C1098.69,-696.02 1058.37,-719.54 1021,-734.5 1012.74,-737.81 1003.88,-740.8 995.05,-743.46"/>
<polygon fill="midnightblue" stroke="midnightblue" points="1125.46,-683.52 1132.07,-675.23 1121.74,-677.59 1125.46,-683.52"/>
</g>
<!-- Node25&#45;&gt;Node24 -->
<g id="edge31" class="edge">
<title>Node25&#45;&gt;Node24</title>
<path fill="none" stroke="midnightblue" d="M834.51,-701.05C821.72,-699.91 808.69,-698.74 796.19,-697.63"/>
<polygon fill="midnightblue" stroke="midnightblue" points="834.44,-704.56 844.71,-701.96 835.06,-697.59 834.44,-704.56"/>
</g>
<!-- Node27 -->
<g id="node27" class="node">
<title>Node27</title>
<g id="a_node27"><a xlink:href="../../d9/d43/classNetClientSocialModule_a5c4e43d04a37c86f7bde34658eaac359.html#a5c4e43d04a37c86f7bde34658eaac359" target="_top" xlink:title=" ">
<polygon fill="white" stroke="black" points="212,-678 212,-697 385,-697 385,-678 212,-678"/>
<text text-anchor="middle" x="298.5" y="-685" font-family="Helvetica,sans-Serif" font-size="10.00">NetClientSocialModule.Initialize</text>
</a>
</g>
</g>
<!-- Node26&#45;&gt;Node27 -->
<g id="edge33" class="edge">
<title>Node26&#45;&gt;Node27</title>
<path fill="none" stroke="midnightblue" d="M424.27,-662.06C397.75,-667.47 369.21,-673.29 346.13,-677.99"/>
<polygon fill="midnightblue" stroke="midnightblue" points="425.22,-665.44 434.32,-660.01 423.82,-658.58 425.22,-665.44"/>
</g>
<!-- Node29 -->
<g id="node29" class="node">
<title>Node29</title>
<g id="a_node29"><a xlink:href="../../d9/d43/classNetClientSocialModule_a2b933917359e30c0d4fe753b76333746.html#a2b933917359e30c0d4fe753b76333746" target="_top" xlink:title=" ">
<polygon fill="white" stroke="black" points="643.5,-733.5 643.5,-763.5 787.5,-763.5 787.5,-733.5 643.5,-733.5"/>
<text text-anchor="start" x="651.5" y="-751.5" font-family="Helvetica,sans-Serif" font-size="10.00">NetClientSocialModule.On</text>
<text text-anchor="middle" x="715.5" y="-740.5" font-family="Helvetica,sans-Serif" font-size="10.00">RailEvent</text>
</a>
</g>
</g>
<!-- Node28&#45;&gt;Node29 -->
<g id="edge35" class="edge">
<title>Node28&#45;&gt;Node29</title>
<path fill="none" stroke="midnightblue" d="M847.76,-754.68C828.03,-753.75 807.08,-752.76 787.85,-751.86"/>
<polygon fill="midnightblue" stroke="midnightblue" points="847.79,-758.18 857.95,-755.16 848.12,-751.19 847.79,-758.18"/>
</g>
<!-- Node30 -->
<g id="node30" class="node">
<title>Node30</title>
<g id="a_node30"><a xlink:href="../../d9/d43/classNetClientSocialModule_a96f5b3d2cb68ed4104f47cdaa4581261.html#a96f5b3d2cb68ed4104f47cdaa4581261" target="_top" xlink:title=" ">
<polygon fill="white" stroke="black" points="421,-715.5 421,-745.5 592,-745.5 592,-715.5 421,-715.5"/>
<text text-anchor="start" x="429" y="-733.5" font-family="Helvetica,sans-Serif" font-size="10.00">NetClientSocialModule.Register</text>
<text text-anchor="middle" x="506.5" y="-722.5" font-family="Helvetica,sans-Serif" font-size="10.00">RailEvent</text>
</a>
</g>
</g>
<!-- Node29&#45;&gt;Node30 -->
<g id="edge36" class="edge">
<title>Node29&#45;&gt;Node30</title>
<path fill="none" stroke="midnightblue" d="M633.08,-741.42C619.61,-740.25 605.62,-739.03 592.07,-737.85"/>
<polygon fill="midnightblue" stroke="midnightblue" points="633,-744.93 643.26,-742.31 633.6,-737.95 633,-744.93"/>
</g>
<!-- Node30&#45;&gt;Node27 -->
<g id="edge37" class="edge">
<title>Node30&#45;&gt;Node27</title>
<path fill="none" stroke="midnightblue" d="M423.35,-713.35C396.7,-707.79 368.11,-701.82 345.12,-697.02"/>
<polygon fill="midnightblue" stroke="midnightblue" points="422.95,-716.84 433.45,-715.46 424.38,-709.99 422.95,-716.84"/>
</g>
<!-- Node31&#45;&gt;Node5 -->
<g id="edge39" class="edge">
<title>Node31&#45;&gt;Node5</title>
<path fill="none" stroke="midnightblue" d="M1320.36,-227.01C1298.19,-236.21 1267.28,-247.89 1239,-254.5 1063.3,-295.6 847.27,-307.22 758.05,-310.37"/>
<polygon fill="midnightblue" stroke="midnightblue" points="1321.74,-230.23 1329.59,-223.11 1319.01,-223.78 1321.74,-230.23"/>
</g>
<!-- Node31&#45;&gt;Node19 -->
<g id="edge43" class="edge">
<title>Node31&#45;&gt;Node19</title>
<path fill="none" stroke="midnightblue" d="M1338.91,-231.85C1320.59,-258.1 1283.21,-305.91 1239,-330.5 1232.02,-334.38 1224.34,-337.47 1216.49,-339.93"/>
<polygon fill="midnightblue" stroke="midnightblue" points="1342.04,-233.47 1344.78,-223.24 1336.26,-229.53 1342.04,-233.47"/>
</g>
<!-- Node32 -->
<g id="node32" class="node">
<title>Node32</title>
<g id="a_node32"><a xlink:href="../../db/d4a/classMain_a70009db20a80d93b0b5fd6e48fc5c8bd.html#a70009db20a80d93b0b5fd6e48fc5c8bd" target="_top" xlink:title=" ">
<polygon fill="white" stroke="black" points="1099,-302 1099,-321 1197,-321 1197,-302 1099,-302"/>
<text text-anchor="middle" x="1148" y="-309" font-family="Helvetica,sans-Serif" font-size="10.00">Main.EraseWorld</text>
</a>
</g>
</g>
<!-- Node31&#45;&gt;Node32 -->
<g id="edge40" class="edge">
<title>Node31&#45;&gt;Node32</title>
<path fill="none" stroke="midnightblue" d="M1331.3,-229.39C1309.79,-246.04 1273.75,-271.89 1239,-287.5 1225.58,-293.53 1210.32,-298.31 1196.24,-301.96"/>
<polygon fill="midnightblue" stroke="midnightblue" points="1333.63,-232.02 1339.33,-223.09 1329.3,-226.52 1333.63,-232.02"/>
</g>
<!-- Node33 -->
<g id="node33" class="node">
<title>Node33</title>
<g id="a_node33"><a xlink:href="../../df/d1d/classUIWorkshopWorldImport_acbd44fe0f4ccdde2cae876c72b40dee5.html#acbd44fe0f4ccdde2cae876c72b40dee5" target="_top" xlink:title=" ">
<polygon fill="white" stroke="black" points="1072,-176.5 1072,-206.5 1224,-206.5 1224,-176.5 1072,-176.5"/>
<text text-anchor="start" x="1080" y="-194.5" font-family="Helvetica,sans-Serif" font-size="10.00">UIWorkshopWorldImport.On</text>
<text text-anchor="middle" x="1148" y="-183.5" font-family="Helvetica,sans-Serif" font-size="10.00">Activate</text>
</a>
</g>
</g>
<!-- Node31&#45;&gt;Node33 -->
<g id="edge44" class="edge">
<title>Node31&#45;&gt;Node33</title>
<path fill="none" stroke="midnightblue" d="M1291.71,-207.04C1270.54,-204.74 1246.4,-202.11 1224.08,-199.68"/>
<polygon fill="midnightblue" stroke="midnightblue" points="1291.52,-210.54 1301.84,-208.15 1292.28,-203.58 1291.52,-210.54"/>
</g>
<!-- Node34 -->
<g id="node34" class="node">
<title>Node34</title>
<g id="a_node34"><a xlink:href="../../db/df5/classUIWorldSelect_a8a720b9af588ebeb42ce6911615519e7.html#a8a720b9af588ebeb42ce6911615519e7" target="_top" xlink:title=" ">
<polygon fill="white" stroke="black" points="1077,-138 1077,-157 1219,-157 1219,-138 1077,-138"/>
<text text-anchor="middle" x="1148" y="-145" font-family="Helvetica,sans-Serif" font-size="10.00">UIWorldSelect.OnActivate</text>
</a>
</g>
</g>
<!-- Node31&#45;&gt;Node34 -->
<g id="edge45" class="edge">
<title>Node31&#45;&gt;Node34</title>
<path fill="none" stroke="midnightblue" d="M1321.96,-199.52C1299.68,-189.24 1267.93,-175.53 1239,-166.5 1227.26,-162.83 1214.44,-159.66 1202.26,-157"/>
<polygon fill="midnightblue" stroke="midnightblue" points="1320.65,-202.77 1331.19,-203.84 1323.62,-196.43 1320.65,-202.77"/>
</g>
<!-- Node35 -->
<g id="node35" class="node">
<title>Node35</title>
<g id="a_node35"><a xlink:href="../../de/de5/classUIWorkshopSelectWorldToPublish_ac5be9788621515f8b16a231fdb3f0da8.html#ac5be9788621515f8b16a231fdb3f0da8" target="_top" xlink:title=" ">
<polygon fill="white" stroke="black" points="1057,-88.5 1057,-118.5 1239,-118.5 1239,-88.5 1057,-88.5"/>
<text text-anchor="start" x="1065" y="-106.5" font-family="Helvetica,sans-Serif" font-size="10.00">UIWorkshopSelectWorldToPublish.</text>
<text text-anchor="middle" x="1148" y="-95.5" font-family="Helvetica,sans-Serif" font-size="10.00">PopulateEntries</text>
</a>
</g>
</g>
<!-- Node31&#45;&gt;Node35 -->
<g id="edge46" class="edge">
<title>Node31&#45;&gt;Node35</title>
<path fill="none" stroke="midnightblue" d="M1333.65,-196.94C1312.77,-177.85 1275.88,-146.78 1239,-128.5 1231.3,-124.68 1222.93,-121.38 1214.5,-118.53"/>
<polygon fill="midnightblue" stroke="midnightblue" points="1331.38,-199.6 1341.08,-203.85 1336.14,-194.48 1331.38,-199.6"/>
</g>
<!-- Node37 -->
<g id="node37" class="node">
<title>Node37</title>
<g id="a_node37"><a xlink:href="../../db/de4/classWorldGen_a10b8d7ad8251db857a735cf016e5e44f.html#a10b8d7ad8251db857a735cf016e5e44f" target="_top" xlink:title=" ">
<polygon fill="white" stroke="black" points="1059,-226 1059,-245 1237,-245 1237,-226 1059,-226"/>
<text text-anchor="middle" x="1148" y="-233" font-family="Helvetica,sans-Serif" font-size="10.00">WorldGen.RenameWorldCallBack</text>
</a>
</g>
</g>
<!-- Node31&#45;&gt;Node37 -->
<g id="edge48" class="edge">
<title>Node31&#45;&gt;Node37</title>
<path fill="none" stroke="midnightblue" d="M1291.86,-219.94C1274.47,-221.84 1255.07,-223.95 1236.31,-225.99"/>
<polygon fill="midnightblue" stroke="midnightblue" points="1292.28,-223.42 1301.84,-218.85 1291.52,-216.46 1292.28,-223.42"/>
</g>
<!-- Node45 -->
<g id="node45" class="node">
<title>Node45</title>
<g id="a_node45"><a xlink:href="../../db/d4a/classMain_a0612c217f46f58621a6b704c9e2c823c.html#a0612c217f46f58621a6b704c9e2c823c" target="_top" xlink:title=" ">
<polygon fill="white" stroke="black" points="1096,-50 1096,-69 1200,-69 1200,-50 1096,-50"/>
<text text-anchor="middle" x="1148" y="-57" font-family="Helvetica,sans-Serif" font-size="10.00">Main.SelectPlayer</text>
</a>
</g>
</g>
<!-- Node31&#45;&gt;Node45 -->
<g id="edge56" class="edge">
<title>Node31&#45;&gt;Node45</title>
<path fill="none" stroke="midnightblue" d="M1334.76,-196.43C1318.99,-179.59 1294.6,-152.9 1275,-128.5 1257.85,-107.15 1261.94,-93.45 1239,-78.5 1227.49,-71 1213.56,-66.4 1200.13,-63.59"/>
<polygon fill="midnightblue" stroke="midnightblue" points="1332.35,-198.97 1341.76,-203.85 1337.45,-194.17 1332.35,-198.97"/>
</g>
<!-- Node32&#45;&gt;Node5 -->
<g id="edge41" class="edge">
<title>Node32&#45;&gt;Node5</title>
<path fill="none" stroke="midnightblue" d="M1088.77,-311.5C1000.63,-311.5 835.44,-311.5 758.25,-311.5"/>
<polygon fill="midnightblue" stroke="midnightblue" points="1088.87,-315 1098.87,-311.5 1088.87,-308 1088.87,-315"/>
</g>
<!-- Node32&#45;&gt;Node9 -->
<g id="edge42" class="edge">
<title>Node32&#45;&gt;Node9</title>
<path fill="none" stroke="midnightblue" d="M1088.58,-315.06C1077.12,-318.05 1065.91,-322.87 1057,-330.5 1022.71,-359.87 1052.33,-392.98 1021,-425.5 1007.82,-439.18 988.95,-448.16 971.88,-453.94"/>
<polygon fill="midnightblue" stroke="midnightblue" points="1089.62,-318.42 1098.65,-312.88 1088.14,-311.58 1089.62,-318.42"/>
</g>
<!-- Node36 -->
<g id="node36" class="node">
<title>Node36</title>
<g id="a_node36"><a xlink:href="../../de/de5/classUIWorkshopSelectWorldToPublish_aeeb429b43b5100a15a8f9e8afec2e489.html#aeeb429b43b5100a15a8f9e8afec2e489" target="_top" xlink:title=" ">
<polygon fill="white" stroke="black" points="839,-88.5 839,-118.5 1021,-118.5 1021,-88.5 839,-88.5"/>
<text text-anchor="start" x="847" y="-106.5" font-family="Helvetica,sans-Serif" font-size="10.00">UIWorkshopSelectWorldToPublish.</text>
<text text-anchor="middle" x="930" y="-95.5" font-family="Helvetica,sans-Serif" font-size="10.00">OnActivate</text>
</a>
</g>
</g>
<!-- Node35&#45;&gt;Node36 -->
<g id="edge47" class="edge">
<title>Node35&#45;&gt;Node36</title>
<path fill="none" stroke="midnightblue" d="M1046.94,-103.5C1038.37,-103.5 1029.73,-103.5 1021.24,-103.5"/>
<polygon fill="midnightblue" stroke="midnightblue" points="1046.96,-107 1056.96,-103.5 1046.96,-100 1046.96,-107"/>
</g>
<!-- Node38 -->
<g id="node38" class="node">
<title>Node38</title>
<g id="a_node38"><a xlink:href="../../db/de4/classWorldGen_a82953049cfde1916de1bfc634c60e5ab.html#a82953049cfde1916de1bfc634c60e5ab" target="_top" xlink:title=" ">
<polygon fill="white" stroke="black" points="862.5,-226 862.5,-245 997.5,-245 997.5,-226 862.5,-226"/>
<text text-anchor="middle" x="930" y="-233" font-family="Helvetica,sans-Serif" font-size="10.00">WorldGen.RenameWorld</text>
</a>
</g>
</g>
<!-- Node37&#45;&gt;Node38 -->
<g id="edge49" class="edge">
<title>Node37&#45;&gt;Node38</title>
<path fill="none" stroke="midnightblue" d="M1048.72,-235.5C1031.45,-235.5 1013.86,-235.5 997.71,-235.5"/>
<polygon fill="midnightblue" stroke="midnightblue" points="1048.83,-239 1058.83,-235.5 1048.83,-232 1048.83,-239"/>
</g>
<!-- Node39 -->
<g id="node39" class="node">
<title>Node39</title>
<g id="a_node39"><a xlink:href="../../d5/d32/classWorldFileData_a987ad141f449cca0332d60232a2143c7.html#a987ad141f449cca0332d60232a2143c7" target="_top" xlink:title=" ">
<polygon fill="white" stroke="black" points="641,-196 641,-215 790,-215 790,-196 641,-196"/>
<text text-anchor="middle" x="715.5" y="-203" font-family="Helvetica,sans-Serif" font-size="10.00">WorldFileData.CopyToLocal</text>
</a>
</g>
</g>
<!-- Node38&#45;&gt;Node39 -->
<g id="edge50" class="edge">
<title>Node38&#45;&gt;Node39</title>
<path fill="none" stroke="midnightblue" d="M852.24,-224.66C829.92,-221.51 805.72,-218.1 784.01,-215.03"/>
<polygon fill="midnightblue" stroke="midnightblue" points="851.96,-228.16 862.35,-226.09 852.93,-221.23 851.96,-228.16"/>
</g>
<!-- Node41 -->
<g id="node41" class="node">
<title>Node41</title>
<g id="a_node41"><a xlink:href="../../d5/d32/classWorldFileData_ac2e22ed04c1f3be75c71b3e473fb007c.html#ac2e22ed04c1f3be75c71b3e473fb007c" target="_top" xlink:title=" ">
<polygon fill="white" stroke="black" points="651.5,-239 651.5,-258 779.5,-258 779.5,-239 651.5,-239"/>
<text text-anchor="middle" x="715.5" y="-246" font-family="Helvetica,sans-Serif" font-size="10.00">WorldFileData.Rename</text>
</a>
</g>
</g>
<!-- Node38&#45;&gt;Node41 -->
<g id="edge52" class="edge">
<title>Node38&#45;&gt;Node41</title>
<path fill="none" stroke="midnightblue" d="M852.28,-240.19C828.44,-241.65 802.45,-243.24 779.65,-244.64"/>
<polygon fill="midnightblue" stroke="midnightblue" points="852.58,-243.68 862.35,-239.58 852.15,-236.69 852.58,-243.68"/>
</g>
<!-- Node40 -->
<g id="node40" class="node">
<title>Node40</title>
<g id="a_node40"><a xlink:href="../../d5/ddb/classWorkshopSocialModule_a1dfc6446f37794a29fa313f53c6a3326.html#a1dfc6446f37794a29fa313f53c6a3326" target="_top" xlink:title=" ">
<polygon fill="white" stroke="black" points="421.5,-187.5 421.5,-217.5 591.5,-217.5 591.5,-187.5 421.5,-187.5"/>
<text text-anchor="start" x="429.5" y="-205.5" font-family="Helvetica,sans-Serif" font-size="10.00">WorkshopSocialModule.Import</text>
<text text-anchor="middle" x="506.5" y="-194.5" font-family="Helvetica,sans-Serif" font-size="10.00">DownloadedWorldToLocalSaves</text>
</a>
</g>
</g>
<!-- Node39&#45;&gt;Node40 -->
<g id="edge51" class="edge">
<title>Node39&#45;&gt;Node40</title>
<path fill="none" stroke="midnightblue" d="M630.74,-204.29C617.89,-204.1 604.62,-203.91 591.77,-203.72"/>
<polygon fill="midnightblue" stroke="midnightblue" points="630.89,-207.79 640.94,-204.43 630.99,-200.79 630.89,-207.79"/>
</g>
<!-- Node42 -->
<g id="node42" class="node">
<title>Node42</title>
<g id="a_node42"><a xlink:href="../../d0/d2c/classUIWorldListItem_abe559faec6934309e645634630a8bc7b.html#abe559faec6934309e645634630a8bc7b" target="_top" xlink:title=" ">
<polygon fill="white" stroke="black" points="430.5,-236.5 430.5,-266.5 582.5,-266.5 582.5,-236.5 430.5,-236.5"/>
<text text-anchor="start" x="438.5" y="-254.5" font-family="Helvetica,sans-Serif" font-size="10.00">UIWorldListItem.OnFinished</text>
<text text-anchor="middle" x="506.5" y="-243.5" font-family="Helvetica,sans-Serif" font-size="10.00">SettingName</text>
</a>
</g>
</g>
<!-- Node41&#45;&gt;Node42 -->
<g id="edge53" class="edge">
<title>Node41&#45;&gt;Node42</title>
<path fill="none" stroke="midnightblue" d="M641.2,-249.56C622.23,-249.84 601.78,-250.13 582.72,-250.41"/>
<polygon fill="midnightblue" stroke="midnightblue" points="641.32,-253.06 651.27,-249.42 641.22,-246.06 641.32,-253.06"/>
</g>
<!-- Node43 -->
<g id="node43" class="node">
<title>Node43</title>
<g id="a_node43"><a xlink:href="../../d0/d2c/classUIWorldListItem_a05313911286372323de697b5d9c0b2c2.html#a05313911286372323de697b5d9c0b2c2" target="_top" xlink:title=" ">
<polygon fill="white" stroke="black" points="213.5,-236.5 213.5,-266.5 383.5,-266.5 383.5,-236.5 213.5,-236.5"/>
<text text-anchor="start" x="221.5" y="-254.5" font-family="Helvetica,sans-Serif" font-size="10.00">UIWorldListItem.RenameButton</text>
<text text-anchor="middle" x="298.5" y="-243.5" font-family="Helvetica,sans-Serif" font-size="10.00">Click</text>
</a>
</g>
</g>
<!-- Node42&#45;&gt;Node43 -->
<g id="edge54" class="edge">
<title>Node42&#45;&gt;Node43</title>
<path fill="none" stroke="midnightblue" d="M420.19,-251.5C408.09,-251.5 395.66,-251.5 383.59,-251.5"/>
<polygon fill="midnightblue" stroke="midnightblue" points="420.25,-255 430.25,-251.5 420.25,-248 420.25,-255"/>
</g>
<!-- Node44 -->
<g id="node44" class="node">
<title>Node44</title>
<g id="a_node44"><a xlink:href="../../d0/d2c/classUIWorldListItem_ab63a51262c1cd2e4471e7d48cf9782ff.html#ab63a51262c1cd2e4471e7d48cf9782ff" target="_top" xlink:title=" ">
<polygon fill="white" stroke="black" points="0,-242 0,-261 176,-261 176,-242 0,-242"/>
<text text-anchor="middle" x="88" y="-249" font-family="Helvetica,sans-Serif" font-size="10.00">UIWorldListItem.UIWorldListItem</text>
</a>
</g>
</g>
<!-- Node43&#45;&gt;Node44 -->
<g id="edge55" class="edge">
<title>Node43&#45;&gt;Node44</title>
<path fill="none" stroke="midnightblue" d="M203.21,-251.5C194.23,-251.5 185.15,-251.5 176.24,-251.5"/>
<polygon fill="midnightblue" stroke="midnightblue" points="203.3,-255 213.3,-251.5 203.3,-248 203.3,-255"/>
</g>
<!-- Node46 -->
<g id="node46" class="node">
<title>Node46</title>
<g id="a_node46"><a xlink:href="../../df/d11/classUICharacterListItem_a1bd934ea900f28edada0464a2bd99b20.html#a1bd934ea900f28edada0464a2bd99b20" target="_top" xlink:title=" ">
<polygon fill="white" stroke="black" points="846.5,-50 846.5,-69 1013.5,-69 1013.5,-50 846.5,-50"/>
<text text-anchor="middle" x="930" y="-57" font-family="Helvetica,sans-Serif" font-size="10.00">UICharacterListItem.PlayGame</text>
</a>
</g>
</g>
<!-- Node45&#45;&gt;Node46 -->
<g id="edge57" class="edge">
<title>Node45&#45;&gt;Node46</title>
<path fill="none" stroke="midnightblue" d="M1085.8,-59.5C1063.46,-59.5 1037.81,-59.5 1013.9,-59.5"/>
<polygon fill="midnightblue" stroke="midnightblue" points="1085.81,-63 1095.81,-59.5 1085.81,-56 1085.81,-63"/>
</g>
<!-- Node47 -->
<g id="node47" class="node">
<title>Node47</title>
<g id="a_node47"><a xlink:href="../../df/d11/classUICharacterListItem_ab8d9e1c2f37722ceead06fd55c39993e.html#ab8d9e1c2f37722ceead06fd55c39993e" target="_top" xlink:title=" ">
<polygon fill="white" stroke="black" points="628,-22.5 628,-52.5 803,-52.5 803,-22.5 628,-22.5"/>
<text text-anchor="start" x="636" y="-40.5" font-family="Helvetica,sans-Serif" font-size="10.00">UICharacterListItem.UICharacter</text>
<text text-anchor="middle" x="715.5" y="-29.5" font-family="Helvetica,sans-Serif" font-size="10.00">ListItem</text>
</a>
</g>
</g>
<!-- Node46&#45;&gt;Node47 -->
<g id="edge58" class="edge">
<title>Node46&#45;&gt;Node47</title>
<path fill="none" stroke="midnightblue" d="M836.24,-49.9C825.28,-48.76 814.12,-47.61 803.25,-46.48"/>
<polygon fill="midnightblue" stroke="midnightblue" points="835.93,-53.38 846.23,-50.93 836.65,-46.42 835.93,-53.38"/>
</g>
<!-- Node49 -->
<g id="node49" class="node">
<title>Node49</title>
<g id="a_node49"><a xlink:href="../../df/d11/classUICharacterListItem_a0957a18b2550d05ca084b2dcf11d965b.html#a0957a18b2550d05ca084b2dcf11d965b" target="_top" xlink:title=" ">
<polygon fill="white" stroke="black" points="857.5,-0.5 857.5,-30.5 1002.5,-30.5 1002.5,-0.5 857.5,-0.5"/>
<text text-anchor="start" x="865.5" y="-18.5" font-family="Helvetica,sans-Serif" font-size="10.00">UICharacterListItem.Cloud</text>
<text text-anchor="middle" x="930" y="-7.5" font-family="Helvetica,sans-Serif" font-size="10.00">ButtonClick</text>
</a>
</g>
</g>
<!-- Node48&#45;&gt;Node49 -->
<g id="edge60" class="edge">
<title>Node48&#45;&gt;Node49</title>
<path fill="none" stroke="midnightblue" d="M1331.59,-93.53C1310.32,-77.04 1274.48,-52.12 1239,-40.5 1161,-14.95 1066.22,-11.01 1002.58,-11.97"/>
<polygon fill="midnightblue" stroke="midnightblue" points="1329.5,-96.34 1339.51,-99.81 1333.85,-90.86 1329.5,-96.34"/>
</g>
<!-- Node49&#45;&gt;Node47 -->
<g id="edge61" class="edge">
<title>Node49&#45;&gt;Node47</title>
<path fill="none" stroke="midnightblue" d="M847.04,-23.98C832.71,-25.47 817.76,-27.02 803.31,-28.51"/>
<polygon fill="midnightblue" stroke="midnightblue" points="847.77,-27.43 857.35,-22.92 847.05,-20.47 847.77,-27.43"/>
</g>
</g>
</svg>
