<?xml version="1.0" encoding="UTF-8" standalone="no"?>
<!DOCTYPE svg PUBLIC "-//W3C//DTD SVG 1.1//EN"
 "http://www.w3.org/Graphics/SVG/1.1/DTD/svg11.dtd">
<!-- Generated by graphviz version 2.43.0 (0)
 -->
<!-- Title: UIWorldSelect.UpdateWorldsList Pages: 1 -->
<svg width="533pt" height="78pt"
 viewBox="0.00 0.00 533.00 77.50" xmlns="http://www.w3.org/2000/svg" xmlns:xlink="http://www.w3.org/1999/xlink">
<g id="graph0" class="graph" transform="scale(1 1) rotate(0) translate(4 73.5)">
<title>UIWorldSelect.UpdateWorldsList</title>
<polygon fill="white" stroke="transparent" points="-4,4 -4,-73.5 529,-73.5 529,4 -4,4"/>
<!-- Node1 -->
<g id="node1" class="node">
<title>Node1</title>
<g id="a_node1"><a xlink:title=" ">
<polygon fill="#bfbfbf" stroke="black" points="352,-28 352,-47 525,-47 525,-28 352,-28"/>
<text text-anchor="middle" x="438.5" y="-35" font-family="Helvetica,sans-Serif" font-size="10.00">UIWorldSelect.UpdateWorldsList</text>
</a>
</g>
</g>
<!-- Node2 -->
<g id="node2" class="node">
<title>Node2</title>
<g id="a_node2"><a xlink:href="../../db/df5/classUIWorldSelect_a8a720b9af588ebeb42ce6911615519e7.html#a8a720b9af588ebeb42ce6911615519e7" target="_top" xlink:title=" ">
<polygon fill="white" stroke="black" points="161.5,-50 161.5,-69 303.5,-69 303.5,-50 161.5,-50"/>
<text text-anchor="middle" x="232.5" y="-57" font-family="Helvetica,sans-Serif" font-size="10.00">UIWorldSelect.OnActivate</text>
</a>
</g>
</g>
<!-- Node1&#45;&gt;Node2 -->
<g id="edge1" class="edge">
<title>Node1&#45;&gt;Node2</title>
<path fill="none" stroke="midnightblue" d="M341.67,-47.83C328.9,-49.21 315.99,-50.6 303.76,-51.92"/>
<polygon fill="midnightblue" stroke="midnightblue" points="342.31,-51.29 351.87,-46.73 341.55,-44.33 342.31,-51.29"/>
</g>
<!-- Node3 -->
<g id="node3" class="node">
<title>Node3</title>
<g id="a_node3"><a xlink:href="../../db/df5/classUIWorldSelect_a55fa0b9b6d268eae219ba511a571780f.html#a55fa0b9b6d268eae219ba511a571780f" target="_top" xlink:title=" ">
<polygon fill="white" stroke="black" points="149,-0.5 149,-30.5 316,-30.5 316,-0.5 149,-0.5"/>
<text text-anchor="start" x="157" y="-18.5" font-family="Helvetica,sans-Serif" font-size="10.00">UIWorldSelect.UpdateFavorites</text>
<text text-anchor="middle" x="232.5" y="-7.5" font-family="Helvetica,sans-Serif" font-size="10.00">Cache</text>
</a>
</g>
</g>
<!-- Node1&#45;&gt;Node3 -->
<g id="edge2" class="edge">
<title>Node1&#45;&gt;Node3</title>
<path fill="none" stroke="midnightblue" d="M341.88,-27.19C333.33,-26.27 324.72,-25.34 316.3,-24.43"/>
<polygon fill="midnightblue" stroke="midnightblue" points="341.55,-30.67 351.87,-28.27 342.31,-23.71 341.55,-30.67"/>
</g>
<!-- Node4 -->
<g id="node4" class="node">
<title>Node4</title>
<g id="a_node4"><a xlink:href="../../db/df5/classUIWorldSelect_a06b6d50fc33721e1703a9a2e6c5eaf34.html#a06b6d50fc33721e1703a9a2e6c5eaf34" target="_top" xlink:title=" ">
<polygon fill="white" stroke="black" points="0,-6 0,-25 113,-25 113,-6 0,-6"/>
<text text-anchor="middle" x="56.5" y="-13" font-family="Helvetica,sans-Serif" font-size="10.00">UIWorldSelect.Draw</text>
</a>
</g>
</g>
<!-- Node3&#45;&gt;Node4 -->
<g id="edge3" class="edge">
<title>Node3&#45;&gt;Node4</title>
<path fill="none" stroke="midnightblue" d="M138.62,-15.5C129.93,-15.5 121.32,-15.5 113.13,-15.5"/>
<polygon fill="midnightblue" stroke="midnightblue" points="138.83,-19 148.83,-15.5 138.83,-12 138.83,-19"/>
</g>
</g>
</svg>
