<?xml version="1.0" encoding="UTF-8" standalone="no"?>
<!DOCTYPE svg PUBLIC "-//W3C//DTD SVG 1.1//EN"
 "http://www.w3.org/Graphics/SVG/1.1/DTD/svg11.dtd">
<!-- Generated by graphviz version 2.43.0 (0)
 -->
<!-- Title: CameraModifierStack.ClearFinishedModifiers Pages: 1 -->
<svg width="778pt" height="39pt"
 viewBox="0.00 0.00 778.00 39.00" xmlns="http://www.w3.org/2000/svg" xmlns:xlink="http://www.w3.org/1999/xlink">
<g id="graph0" class="graph" transform="scale(1 1) rotate(0) translate(4 35)">
<title>CameraModifierStack.ClearFinishedModifiers</title>
<polygon fill="white" stroke="transparent" points="-4,4 -4,-35 774,-35 774,4 -4,4"/>
<!-- Node1 -->
<g id="node1" class="node">
<title>Node1</title>
<g id="a_node1"><a xlink:title=" ">
<polygon fill="#bfbfbf" stroke="black" points="620,-0.5 620,-30.5 770,-30.5 770,-0.5 620,-0.5"/>
<text text-anchor="start" x="628" y="-18.5" font-family="Helvetica,sans-Serif" font-size="10.00">CameraModifierStack.Clear</text>
<text text-anchor="middle" x="695" y="-7.5" font-family="Helvetica,sans-Serif" font-size="10.00">FinishedModifiers</text>
</a>
</g>
</g>
<!-- Node2 -->
<g id="node2" class="node">
<title>Node2</title>
<g id="a_node2"><a xlink:href="../../da/d49/classCameraModifierStack_af17b2fc31d897a134ef7e3683e5cb5be.html#af17b2fc31d897a134ef7e3683e5cb5be" target="_top" xlink:title=" ">
<polygon fill="white" stroke="black" points="421,-6 421,-25 584,-25 584,-6 421,-6"/>
<text text-anchor="middle" x="502.5" y="-13" font-family="Helvetica,sans-Serif" font-size="10.00">CameraModifierStack.ApplyTo</text>
</a>
</g>
</g>
<!-- Node1&#45;&gt;Node2 -->
<g id="edge1" class="edge">
<title>Node1&#45;&gt;Node2</title>
<path fill="none" stroke="midnightblue" d="M609.56,-15.5C601.1,-15.5 592.53,-15.5 584.12,-15.5"/>
<polygon fill="midnightblue" stroke="midnightblue" points="609.8,-19 619.8,-15.5 609.8,-12 609.8,-19"/>
</g>
<!-- Node3 -->
<g id="node3" class="node">
<title>Node3</title>
<g id="a_node3"><a xlink:href="../../db/d4a/classMain_a74bdf2129fdc61e4616605cf38accbbd.html#a74bdf2129fdc61e4616605cf38accbbd" target="_top" xlink:title=" ">
<polygon fill="white" stroke="black" points="224,-0.5 224,-30.5 385,-30.5 385,-0.5 224,-0.5"/>
<text text-anchor="start" x="232" y="-18.5" font-family="Helvetica,sans-Serif" font-size="10.00">Main.DoDraw_UpdateCamera</text>
<text text-anchor="middle" x="304.5" y="-7.5" font-family="Helvetica,sans-Serif" font-size="10.00">Position</text>
</a>
</g>
</g>
<!-- Node2&#45;&gt;Node3 -->
<g id="edge2" class="edge">
<title>Node2&#45;&gt;Node3</title>
<path fill="none" stroke="midnightblue" d="M410.89,-15.5C402.29,-15.5 393.61,-15.5 385.12,-15.5"/>
<polygon fill="midnightblue" stroke="midnightblue" points="410.93,-19 420.93,-15.5 410.93,-12 410.93,-19"/>
</g>
<!-- Node4 -->
<g id="node4" class="node">
<title>Node4</title>
<g id="a_node4"><a xlink:href="../../db/d4a/classMain_a4ca48570ee8c9e54ed5371ecb4ab1877.html#a4ca48570ee8c9e54ed5371ecb4ab1877" target="_top" xlink:title=" ">
<polygon fill="white" stroke="black" points="105,-6 105,-25 188,-25 188,-6 105,-6"/>
<text text-anchor="middle" x="146.5" y="-13" font-family="Helvetica,sans-Serif" font-size="10.00">Main.DoDraw</text>
</a>
</g>
</g>
<!-- Node3&#45;&gt;Node4 -->
<g id="edge3" class="edge">
<title>Node3&#45;&gt;Node4</title>
<path fill="none" stroke="midnightblue" d="M213.63,-15.5C204.78,-15.5 196.15,-15.5 188.19,-15.5"/>
<polygon fill="midnightblue" stroke="midnightblue" points="213.67,-19 223.67,-15.5 213.67,-12 213.67,-19"/>
</g>
<!-- Node5 -->
<g id="node5" class="node">
<title>Node5</title>
<g id="a_node5"><a xlink:href="../../db/d4a/classMain_a9df405f7c9ce2e93e9af9bbf70231672.html#a9df405f7c9ce2e93e9af9bbf70231672" target="_top" xlink:title=" ">
<polygon fill="white" stroke="black" points="0,-6 0,-25 69,-25 69,-6 0,-6"/>
<text text-anchor="middle" x="34.5" y="-13" font-family="Helvetica,sans-Serif" font-size="10.00">Main.Draw</text>
</a>
</g>
</g>
<!-- Node4&#45;&gt;Node5 -->
<g id="edge4" class="edge">
<title>Node4&#45;&gt;Node5</title>
<path fill="none" stroke="midnightblue" d="M94.77,-8.77C86.08,-8.69 77.24,-8.85 69.14,-9.22"/>
<polygon fill="midnightblue" stroke="midnightblue" points="94.79,-12.27 104.85,-8.96 94.92,-5.27 94.79,-12.27"/>
</g>
<!-- Node5&#45;&gt;Node4 -->
<g id="edge5" class="edge">
<title>Node5&#45;&gt;Node4</title>
<path fill="none" stroke="midnightblue" d="M79.21,-22.12C87.67,-22.32 96.5,-22.29 104.85,-22.04"/>
<polygon fill="midnightblue" stroke="midnightblue" points="79.25,-18.62 69.14,-21.78 79.01,-25.62 79.25,-18.62"/>
</g>
</g>
</svg>
