<?xml version="1.0" encoding="UTF-8" standalone="no"?>
<!DOCTYPE svg PUBLIC "-//W3C//DTD SVG 1.1//EN"
 "http://www.w3.org/Graphics/SVG/1.1/DTD/svg11.dtd">
<!-- Generated by graphviz version 2.43.0 (0)
 -->
<!-- Title: WrappedTextBuilder.Append Pages: 1 -->
<svg width="748pt" height="88pt"
 viewBox="0.00 0.00 748.00 88.00" xmlns="http://www.w3.org/2000/svg" xmlns:xlink="http://www.w3.org/1999/xlink">
<g id="graph0" class="graph" transform="scale(1 1) rotate(0) translate(4 84)">
<title>WrappedTextBuilder.Append</title>
<polygon fill="white" stroke="transparent" points="-4,4 -4,-84 744,-84 744,4 -4,4"/>
<!-- Node1 -->
<g id="node1" class="node">
<title>Node1</title>
<g id="a_node1"><a xlink:title=" ">
<polygon fill="#bfbfbf" stroke="black" points="0,-36 0,-55 154,-55 154,-36 0,-36"/>
<text text-anchor="middle" x="77" y="-43" font-family="Helvetica,sans-Serif" font-size="10.00">WrappedTextBuilder.Append</text>
</a>
</g>
</g>
<!-- Node2 -->
<g id="node2" class="node">
<title>Node2</title>
<g id="a_node2"><a xlink:href="../../d9/d47/classWrappedTextBuilder_a292a747ee145dad8e9682fa72fa612db.html#a292a747ee145dad8e9682fa72fa612db" target="_top" xlink:title=" ">
<polygon fill="white" stroke="black" points="190,-17 190,-36 344,-36 344,-17 190,-17"/>
<text text-anchor="middle" x="267" y="-24" font-family="Helvetica,sans-Serif" font-size="10.00">WrappedTextBuilder.Append</text>
</a>
</g>
</g>
<!-- Node1&#45;&gt;Node2 -->
<g id="edge1" class="edge">
<title>Node1&#45;&gt;Node2</title>
<path fill="none" stroke="midnightblue" d="M154.2,-37.8C162.61,-36.95 171.22,-36.08 179.74,-35.22"/>
<polygon fill="midnightblue" stroke="midnightblue" points="180.1,-38.7 189.7,-34.21 179.39,-31.73 180.1,-38.7"/>
</g>
<!-- Node3 -->
<g id="node3" class="node">
<title>Node3</title>
<g id="a_node3"><a xlink:href="../../d9/d47/classWrappedTextBuilder_a41e9aad11bff4e03d361b1b9b86e45f1.html#a41e9aad11bff4e03d361b1b9b86e45f1" target="_top" xlink:title=" ">
<polygon fill="white" stroke="black" points="392,-49.5 392,-79.5 548,-79.5 548,-49.5 392,-49.5"/>
<text text-anchor="start" x="400" y="-67.5" font-family="Helvetica,sans-Serif" font-size="10.00">WrappedTextBuilder.Commit</text>
<text text-anchor="middle" x="470" y="-56.5" font-family="Helvetica,sans-Serif" font-size="10.00">WorkingLine</text>
</a>
</g>
</g>
<!-- Node1&#45;&gt;Node3 -->
<g id="edge5" class="edge">
<title>Node1&#45;&gt;Node3</title>
<path fill="none" stroke="midnightblue" d="M154.32,-49.21C219.53,-52.38 313.36,-56.94 381.58,-60.25"/>
<polygon fill="midnightblue" stroke="midnightblue" points="381.72,-63.76 391.87,-60.75 382.06,-56.77 381.72,-63.76"/>
</g>
<!-- Node2&#45;&gt;Node3 -->
<g id="edge2" class="edge">
<title>Node2&#45;&gt;Node3</title>
<path fill="none" stroke="midnightblue" d="M318.46,-36.04C337.72,-39.68 360.28,-43.95 381.98,-48.05"/>
<polygon fill="midnightblue" stroke="midnightblue" points="381.4,-51.5 391.87,-49.92 382.7,-44.62 381.4,-51.5"/>
</g>
<!-- Node4 -->
<g id="node4" class="node">
<title>Node4</title>
<g id="a_node4"><a xlink:href="../../dc/d08/structWrappedTextBuilder_1_1NonBreakingText_aa58eba022c79e03b22631dffe5366d4d.html#aa58eba022c79e03b22631dffe5366d4d" target="_top" xlink:title=" ">
<polygon fill="white" stroke="black" points="380,-0.5 380,-30.5 560,-30.5 560,-0.5 380,-0.5"/>
<text text-anchor="start" x="388" y="-18.5" font-family="Helvetica,sans-Serif" font-size="10.00">WrappedTextBuilder.NonBreaking</text>
<text text-anchor="middle" x="470" y="-7.5" font-family="Helvetica,sans-Serif" font-size="10.00">Text.GetAsWrappedText</text>
</a>
</g>
</g>
<!-- Node2&#45;&gt;Node4 -->
<g id="edge3" class="edge">
<title>Node2&#45;&gt;Node4</title>
<path fill="none" stroke="midnightblue" d="M344.28,-22.33C352.66,-21.87 361.28,-21.4 369.88,-20.92"/>
<polygon fill="midnightblue" stroke="midnightblue" points="370.17,-24.41 379.97,-20.37 369.79,-17.42 370.17,-24.41"/>
</g>
<!-- Node5 -->
<g id="node5" class="node">
<title>Node5</title>
<g id="a_node5"><a xlink:href="../../df/d88/interfaceIFontMetrics_a19e4db79206cc58a53a5eb1bce59c337.html#a19e4db79206cc58a53a5eb1bce59c337" target="_top" xlink:title=" ">
<polygon fill="white" stroke="black" points="596,-0.5 596,-30.5 740,-30.5 740,-0.5 596,-0.5"/>
<text text-anchor="start" x="604" y="-18.5" font-family="Helvetica,sans-Serif" font-size="10.00">IFontMetrics.GetCharacter</text>
<text text-anchor="middle" x="668" y="-7.5" font-family="Helvetica,sans-Serif" font-size="10.00">Metrics</text>
</a>
</g>
</g>
<!-- Node4&#45;&gt;Node5 -->
<g id="edge4" class="edge">
<title>Node4&#45;&gt;Node5</title>
<path fill="none" stroke="midnightblue" d="M560.11,-15.5C568.59,-15.5 577.17,-15.5 585.57,-15.5"/>
<polygon fill="midnightblue" stroke="midnightblue" points="585.73,-19 595.73,-15.5 585.73,-12 585.73,-19"/>
</g>
</g>
</svg>
