<?xml version="1.0" encoding="UTF-8" standalone="no"?>
<!DOCTYPE svg PUBLIC "-//W3C//DTD SVG 1.1//EN"
 "http://www.w3.org/Graphics/SVG/1.1/DTD/svg11.dtd">
<!-- Generated by graphviz version 2.43.0 (0)
 -->
<!-- Title: MessageDispatcherServer Pages: 1 -->
<!--zoomable 843 -->
<svg id="main" version="1.1" xmlns="http://www.w3.org/2000/svg" xmlns:xlink="http://www.w3.org/1999/xlink" xml:space="preserve" onload="init(evt)">
<style type="text/css"><![CDATA[
.edge:hover path { stroke: red; }
.edge:hover polygon { stroke: red; fill: red; }
]]></style>
<script type="text/javascript"><![CDATA[
var edges = document.getElementsByTagName('g');
if (edges && edges.length) {
  for (var i=0;i<edges.length;i++) {
    if (edges[i].id.substr(0,4)=='edge') {
      edges[i].setAttribute('class','edge');
    }
  }
}
]]></script>
        <defs>
                <circle id="rim" cx="0" cy="0" r="7"/>
                <circle id="rim2" cx="0" cy="0" r="3.5"/>
                <g id="zoomPlus">
                        <use xlink:href="#rim" fill="#404040">
                                <set attributeName="fill" to="#808080" begin="zoomplus.mouseover" end="zoomplus.mouseout"/>
                        </use>
                        <path d="M-4,0h8M0,-4v8" fill="none" stroke="white" stroke-width="1.5" pointer-events="none"/>
                </g>
                <g id="zoomMin">
                        <use xlink:href="#rim" fill="#404040">
                                <set attributeName="fill" to="#808080" begin="zoomminus.mouseover" end="zoomminus.mouseout"/>
                        </use>
                        <path d="M-4,0h8" fill="none" stroke="white" stroke-width="1.5" pointer-events="none"/>
                </g>
                <g id="dirArrow">
                        <path fill="none" stroke="white" stroke-width="1.5" d="M0,-3.0v7 M-2.5,-0.5L0,-3.0L2.5,-0.5"/>
                </g>
               <g id="resetDef">
                       <use xlink:href="#rim2" fill="#404040">
                               <set attributeName="fill" to="#808080" begin="reset.mouseover" end="reset.mouseout"/>
                       </use>
               </g>
        </defs>

<script type="text/javascript">
var viewWidth = 747;
var viewHeight = 843;
var sectionId = 'dynsection-0';
</script>
<script xlink:href="../../svgpan.js"/>
<svg id="graph" class="graph">
<g id="viewport">
<title>MessageDispatcherServer</title>
<polygon fill="white" stroke="transparent" points="-4,4 -4,-839 742.5,-839 742.5,4 -4,4"/>
<!-- Node1 -->
<g id="node1" class="node">
<title>Node1</title>
<g id="a_node1"><a xlink:title=" ">
<polygon fill="#bfbfbf" stroke="black" points="204,-0.5 204,-123.5 414,-123.5 414,-0.5 204,-0.5"/>
<text text-anchor="middle" x="309" y="-111.5" font-family="Helvetica,sans-Serif" font-size="10.00">MessageDispatcherServer</text>
<polyline fill="none" stroke="black" points="204,-104.5 414,-104.5 "/>
<text text-anchor="middle" x="309" y="-92.5" font-family="Helvetica,sans-Serif" font-size="10.00"> </text>
<polyline fill="none" stroke="black" points="204,-85.5 414,-85.5 "/>
<text text-anchor="start" x="212" y="-73.5" font-family="Helvetica,sans-Serif" font-size="10.00">+ void Init(string serverName)</text>
<text text-anchor="start" x="212" y="-62.5" font-family="Helvetica,sans-Serif" font-size="10.00">+ void OnClientAccess()</text>
<text text-anchor="start" x="212" y="-51.5" font-family="Helvetica,sans-Serif" font-size="10.00">+ void Start()</text>
<text text-anchor="start" x="212" y="-40.5" font-family="Helvetica,sans-Serif" font-size="10.00">+ void Tick()</text>
<text text-anchor="start" x="212" y="-29.5" font-family="Helvetica,sans-Serif" font-size="10.00">+ bool SendMessage(IPCMessage msg)</text>
<text text-anchor="start" x="212" y="-18.5" font-family="Helvetica,sans-Serif" font-size="10.00">&#45; void OnDataArrive(byte</text>
<text text-anchor="start" x="212" y="-7.5" font-family="Helvetica,sans-Serif" font-size="10.00">[] data)</text>
</a>
</g>
</g>
<!-- Node2 -->
<g id="node2" class="node">
<title>Node2</title>
<g id="a_node2"><a xlink:href="../../dc/daa/classIPCServer.html" target="_top" xlink:title=" ">
<polygon fill="white" stroke="black" points="221.5,-171.5 221.5,-404.5 396.5,-404.5 396.5,-171.5 221.5,-171.5"/>
<text text-anchor="middle" x="309" y="-392.5" font-family="Helvetica,sans-Serif" font-size="10.00">IPCServer</text>
<polyline fill="none" stroke="black" points="221.5,-385.5 396.5,-385.5 "/>
<text text-anchor="start" x="229.5" y="-373.5" font-family="Helvetica,sans-Serif" font-size="10.00">+ override Action&lt; byte</text>
<text text-anchor="start" x="229.5" y="-362.5" font-family="Helvetica,sans-Serif" font-size="10.00">[]&gt; OnDataArrive</text>
<polyline fill="none" stroke="black" points="221.5,-355.5 396.5,-355.5 "/>
<text text-anchor="start" x="229.5" y="-343.5" font-family="Helvetica,sans-Serif" font-size="10.00">+ void Init(string serverName)</text>
<text text-anchor="start" x="229.5" y="-332.5" font-family="Helvetica,sans-Serif" font-size="10.00">+ override void ReadCallback</text>
<text text-anchor="start" x="229.5" y="-321.5" font-family="Helvetica,sans-Serif" font-size="10.00">(IAsyncResult result)</text>
<text text-anchor="start" x="229.5" y="-310.5" font-family="Helvetica,sans-Serif" font-size="10.00">+ void StartListen()</text>
<text text-anchor="start" x="229.5" y="-299.5" font-family="Helvetica,sans-Serif" font-size="10.00">+ void ContinueReadOrWait()</text>
<text text-anchor="start" x="229.5" y="-288.5" font-family="Helvetica,sans-Serif" font-size="10.00">+ void Tick()</text>
<text text-anchor="start" x="229.5" y="-277.5" font-family="Helvetica,sans-Serif" font-size="10.00">&#45; NamedPipeServerStream</text>
<text text-anchor="start" x="229.5" y="-266.5" font-family="Helvetica,sans-Serif" font-size="10.00"> GetPipeStream()</text>
<text text-anchor="start" x="229.5" y="-255.5" font-family="Helvetica,sans-Serif" font-size="10.00">&#45; void LazyCreatePipe()</text>
<text text-anchor="start" x="229.5" y="-244.5" font-family="Helvetica,sans-Serif" font-size="10.00">&#45; void RestartListen()</text>
<text text-anchor="start" x="229.5" y="-233.5" font-family="Helvetica,sans-Serif" font-size="10.00">&#45; void ConnectionCallback</text>
<text text-anchor="start" x="229.5" y="-222.5" font-family="Helvetica,sans-Serif" font-size="10.00">(IAsyncResult result)</text>
<text text-anchor="start" x="229.5" y="-211.5" font-family="Helvetica,sans-Serif" font-size="10.00">&#45; void ProcessClientAccess</text>
<text text-anchor="start" x="229.5" y="-200.5" font-family="Helvetica,sans-Serif" font-size="10.00">Event()</text>
<text text-anchor="start" x="229.5" y="-189.5" font-family="Helvetica,sans-Serif" font-size="10.00">&#45; void CheckFlagAndFireEvent()</text>
<text text-anchor="start" x="229.5" y="-178.5" font-family="Helvetica,sans-Serif" font-size="10.00">&#45; void ProcessPipeBrokenEvent()</text>
</a>
</g>
</g>
<!-- Node2&#45;&gt;Node1 -->
<g id="edge1" class="edge">
<title>Node2&#45;&gt;Node1</title>
<path fill="none" stroke="#404040" d="M309,-171.39C309,-159.29 309,-147.25 309,-135.83"/>
<polygon fill="none" stroke="#404040" points="309,-135.71 305,-129.71 309,-123.71 313,-129.71 309,-135.71"/>
<text text-anchor="middle" x="336.5" y="-145" font-family="Helvetica,sans-Serif" font-size="10.00"> &#45;_ipcSever</text>
</g>
<!-- Node3 -->
<g id="node3" class="node">
<title>Node3</title>
<g id="a_node3"><a xlink:href="../../de/d2d/classIPCBase.html" target="_top" xlink:title=" ">
<polygon fill="white" stroke="black" points="224,-452.5 224,-718.5 394,-718.5 394,-452.5 224,-452.5"/>
<text text-anchor="middle" x="309" y="-706.5" font-family="Helvetica,sans-Serif" font-size="10.00">IPCBase</text>
<polyline fill="none" stroke="black" points="224,-699.5 394,-699.5 "/>
<text text-anchor="start" x="232" y="-687.5" font-family="Helvetica,sans-Serif" font-size="10.00">+ int BufferSize</text>
<text text-anchor="start" x="232" y="-676.5" font-family="Helvetica,sans-Serif" font-size="10.00">+ virtual Action&lt; byte</text>
<text text-anchor="start" x="232" y="-665.5" font-family="Helvetica,sans-Serif" font-size="10.00">[]&gt; OnDataArrive</text>
<polyline fill="none" stroke="black" points="224,-658.5 394,-658.5 "/>
<text text-anchor="start" x="232" y="-646.5" font-family="Helvetica,sans-Serif" font-size="10.00">+ IPCBase()</text>
<text text-anchor="start" x="232" y="-635.5" font-family="Helvetica,sans-Serif" font-size="10.00">+ virtual void Reset()</text>
<text text-anchor="start" x="232" y="-624.5" font-family="Helvetica,sans-Serif" font-size="10.00">+ virtual void ProcessData</text>
<text text-anchor="start" x="232" y="-613.5" font-family="Helvetica,sans-Serif" font-size="10.00">ArriveEvent()</text>
<text text-anchor="start" x="232" y="-602.5" font-family="Helvetica,sans-Serif" font-size="10.00">+ virtual void ReadCallback</text>
<text text-anchor="start" x="232" y="-591.5" font-family="Helvetica,sans-Serif" font-size="10.00">(IAsyncResult result)</text>
<text text-anchor="start" x="232" y="-580.5" font-family="Helvetica,sans-Serif" font-size="10.00">+ virtual bool Send(string</text>
<text text-anchor="start" x="232" y="-569.5" font-family="Helvetica,sans-Serif" font-size="10.00"> value)</text>
<text text-anchor="start" x="232" y="-558.5" font-family="Helvetica,sans-Serif" font-size="10.00">+ virtual bool Send(byte</text>
<text text-anchor="start" x="232" y="-547.5" font-family="Helvetica,sans-Serif" font-size="10.00">[] data)</text>
<text text-anchor="start" x="232" y="-536.5" font-family="Helvetica,sans-Serif" font-size="10.00"># void AddPackToList</text>
<text text-anchor="start" x="232" y="-525.5" font-family="Helvetica,sans-Serif" font-size="10.00">(List&lt; byte &gt; pack)</text>
<text text-anchor="start" x="232" y="-514.5" font-family="Helvetica,sans-Serif" font-size="10.00"># List&lt; List&lt; byte &gt;</text>
<text text-anchor="start" x="232" y="-503.5" font-family="Helvetica,sans-Serif" font-size="10.00"> &gt; GetPackList()</text>
<text text-anchor="start" x="232" y="-492.5" font-family="Helvetica,sans-Serif" font-size="10.00"># bool HaveDataToRead()</text>
<text text-anchor="start" x="232" y="-481.5" font-family="Helvetica,sans-Serif" font-size="10.00"># virtual bool BeginReadData()</text>
<text text-anchor="start" x="232" y="-470.5" font-family="Helvetica,sans-Serif" font-size="10.00"># virtual void SendCallback</text>
<text text-anchor="start" x="232" y="-459.5" font-family="Helvetica,sans-Serif" font-size="10.00">(IAsyncResult result)</text>
</a>
</g>
</g>
<!-- Node3&#45;&gt;Node2 -->
<g id="edge2" class="edge">
<title>Node3&#45;&gt;Node2</title>
<path fill="none" stroke="midnightblue" d="M309,-442.27C309,-429.72 309,-417.13 309,-404.84"/>
<polygon fill="none" stroke="midnightblue" points="305.5,-442.31 309,-452.31 312.5,-442.31 305.5,-442.31"/>
</g>
<!-- Node4 -->
<g id="node4" class="node">
<title>Node4</title>
<g id="a_node4"><a xlink:title=" ">
<polygon fill="white" stroke="#bfbfbf" points="665.5,-777.5 665.5,-834.5 738.5,-834.5 738.5,-777.5 665.5,-777.5"/>
<text text-anchor="middle" x="702" y="-822.5" font-family="Helvetica,sans-Serif" font-size="10.00">PipeStream</text>
<polyline fill="none" stroke="#bfbfbf" points="665.5,-815.5 738.5,-815.5 "/>
<text text-anchor="middle" x="702" y="-803.5" font-family="Helvetica,sans-Serif" font-size="10.00"> </text>
<polyline fill="none" stroke="#bfbfbf" points="665.5,-796.5 738.5,-796.5 "/>
<text text-anchor="middle" x="702" y="-784.5" font-family="Helvetica,sans-Serif" font-size="10.00"> </text>
</a>
</g>
</g>
<!-- Node4&#45;&gt;Node3 -->
<g id="edge3" class="edge">
<title>Node4&#45;&gt;Node3</title>
<path fill="none" stroke="#404040" d="M680.41,-777.35C667.26,-762.67 649.13,-745.86 629,-737 585.86,-718.01 463.97,-740.58 405.23,-718.57"/>
<polygon fill="none" stroke="#404040" points="404.91,-718.42 397.78,-719.52 394.03,-713.36 401.16,-712.26 404.91,-718.42"/>
<text text-anchor="middle" x="696.5" y="-745.5" font-family="Helvetica,sans-Serif" font-size="10.00"> #_pipeStream</text>
</g>
<!-- Node5 -->
<g id="node5" class="node">
<title>Node5</title>
<g id="a_node5"><a xlink:title=" ">
<polygon fill="white" stroke="#bfbfbf" points="0,-777.5 0,-834.5 38,-834.5 38,-777.5 0,-777.5"/>
<text text-anchor="middle" x="19" y="-822.5" font-family="Helvetica,sans-Serif" font-size="10.00">bool</text>
<polyline fill="none" stroke="#bfbfbf" points="0,-815.5 38,-815.5 "/>
<text text-anchor="middle" x="19" y="-803.5" font-family="Helvetica,sans-Serif" font-size="10.00"> </text>
<polyline fill="none" stroke="#bfbfbf" points="0,-796.5 38,-796.5 "/>
<text text-anchor="middle" x="19" y="-784.5" font-family="Helvetica,sans-Serif" font-size="10.00"> </text>
</a>
</g>
</g>
<!-- Node5&#45;&gt;Node2 -->
<g id="edge11" class="edge">
<title>Node5&#45;&gt;Node2</title>
<path fill="none" stroke="#404040" d="M18.66,-777.38C19.16,-714.53 27.6,-558.09 95,-452 123.63,-406.93 169.37,-369.61 211.22,-342.1"/>
<polygon fill="none" stroke="#404040" points="211.39,-341.99 214.28,-335.38 221.49,-335.5 218.6,-342.11 211.39,-341.99"/>
<text text-anchor="middle" x="155" y="-583" font-family="Helvetica,sans-Serif" font-size="10.00"> &#45;_haveClientAccessFlag</text>
</g>
<!-- Node5&#45;&gt;Node3 -->
<g id="edge4" class="edge">
<title>Node5&#45;&gt;Node3</title>
<path fill="none" stroke="#404040" d="M28.89,-777.26C35.2,-763.29 44.72,-747.19 58,-737 82.8,-717.97 97.75,-732.39 126,-719 156.3,-704.63 186.78,-685.08 213.93,-665.41"/>
<polygon fill="none" stroke="#404040" points="214.11,-665.28 216.57,-658.5 223.78,-658.17 221.31,-664.95 214.11,-665.28"/>
<text text-anchor="middle" x="114.5" y="-751" font-family="Helvetica,sans-Serif" font-size="10.00"> #_pipeBrokenFlag</text>
<text text-anchor="middle" x="114.5" y="-740" font-family="Helvetica,sans-Serif" font-size="10.00">&#45;_haveDataToReadFlag</text>
</g>
<!-- Node6 -->
<g id="node6" class="node">
<title>Node6</title>
<g id="a_node6"><a xlink:title=" ">
<polygon fill="white" stroke="#bfbfbf" points="98,-777.5 98,-834.5 176,-834.5 176,-777.5 98,-777.5"/>
<text text-anchor="middle" x="137" y="-822.5" font-family="Helvetica,sans-Serif" font-size="10.00">List&lt; byte &gt;</text>
<polyline fill="none" stroke="#bfbfbf" points="98,-815.5 176,-815.5 "/>
<text text-anchor="middle" x="137" y="-803.5" font-family="Helvetica,sans-Serif" font-size="10.00"> </text>
<polyline fill="none" stroke="#bfbfbf" points="98,-796.5 176,-796.5 "/>
<text text-anchor="middle" x="137" y="-784.5" font-family="Helvetica,sans-Serif" font-size="10.00"> </text>
</a>
</g>
</g>
<!-- Node6&#45;&gt;Node3 -->
<g id="edge5" class="edge">
<title>Node6&#45;&gt;Node3</title>
<path fill="none" stroke="#404040" d="M158.78,-777.33C173.74,-758.32 194.73,-731.67 216.27,-704.29"/>
<polygon fill="none" stroke="#404040" points="216.49,-704.02 217.06,-696.83 223.91,-694.59 223.34,-701.78 216.49,-704.02"/>
<text text-anchor="middle" x="217" y="-745.5" font-family="Helvetica,sans-Serif" font-size="10.00"> &#45;_totalData</text>
</g>
<!-- Node7 -->
<g id="node7" class="node">
<title>Node7</title>
<g id="a_node7"><a xlink:title=" ">
<polygon fill="white" stroke="#bfbfbf" points="194,-777.5 194,-834.5 290,-834.5 290,-777.5 194,-777.5"/>
<text text-anchor="middle" x="242" y="-822.5" font-family="Helvetica,sans-Serif" font-size="10.00">Action&lt; byte[]&gt;</text>
<polyline fill="none" stroke="#bfbfbf" points="194,-815.5 290,-815.5 "/>
<text text-anchor="middle" x="242" y="-803.5" font-family="Helvetica,sans-Serif" font-size="10.00"> </text>
<polyline fill="none" stroke="#bfbfbf" points="194,-796.5 290,-796.5 "/>
<text text-anchor="middle" x="242" y="-784.5" font-family="Helvetica,sans-Serif" font-size="10.00"> </text>
</a>
</g>
</g>
<!-- Node7&#45;&gt;Node3 -->
<g id="edge6" class="edge">
<title>Node7&#45;&gt;Node3</title>
<path fill="none" stroke="#404040" d="M250.49,-777.33C254.43,-764.45 259.46,-748.07 264.9,-730.33"/>
<polygon fill="none" stroke="#404040" points="264.91,-730.29 262.84,-723.38 268.43,-718.82 270.49,-725.73 264.91,-730.29"/>
<text text-anchor="middle" x="303" y="-745.5" font-family="Helvetica,sans-Serif" font-size="10.00"> #_onDataArrive</text>
</g>
<!-- Node8 -->
<g id="node8" class="node">
<title>Node8</title>
<g id="a_node8"><a xlink:title=" ">
<polygon fill="white" stroke="#bfbfbf" points="308,-777.5 308,-834.5 426,-834.5 426,-777.5 308,-777.5"/>
<text text-anchor="middle" x="367" y="-822.5" font-family="Helvetica,sans-Serif" font-size="10.00">List&lt; List&lt; byte &gt; &gt;</text>
<polyline fill="none" stroke="#bfbfbf" points="308,-815.5 426,-815.5 "/>
<text text-anchor="middle" x="367" y="-803.5" font-family="Helvetica,sans-Serif" font-size="10.00"> </text>
<polyline fill="none" stroke="#bfbfbf" points="308,-796.5 426,-796.5 "/>
<text text-anchor="middle" x="367" y="-784.5" font-family="Helvetica,sans-Serif" font-size="10.00"> </text>
</a>
</g>
</g>
<!-- Node8&#45;&gt;Node3 -->
<g id="edge7" class="edge">
<title>Node8&#45;&gt;Node3</title>
<path fill="none" stroke="#404040" d="M359.65,-777.33C356.25,-764.52 351.93,-748.23 347.25,-730.59"/>
<polygon fill="none" stroke="#404040" points="347.2,-730.42 341.8,-725.64 344.12,-718.82 349.53,-723.59 347.2,-730.42"/>
<text text-anchor="middle" x="385.5" y="-751" font-family="Helvetica,sans-Serif" font-size="10.00"> &#45;_consumer</text>
<text text-anchor="middle" x="385.5" y="-740" font-family="Helvetica,sans-Serif" font-size="10.00">&#45;_producer</text>
</g>
<!-- Node9 -->
<g id="node9" class="node">
<title>Node9</title>
<g id="a_node9"><a xlink:title=" ">
<polygon fill="white" stroke="#bfbfbf" points="444,-777.5 444,-834.5 582,-834.5 582,-777.5 444,-777.5"/>
<text text-anchor="middle" x="513" y="-822.5" font-family="Helvetica,sans-Serif" font-size="10.00">CancellationTokenSource</text>
<polyline fill="none" stroke="#bfbfbf" points="444,-815.5 582,-815.5 "/>
<text text-anchor="middle" x="513" y="-803.5" font-family="Helvetica,sans-Serif" font-size="10.00"> </text>
<polyline fill="none" stroke="#bfbfbf" points="444,-796.5 582,-796.5 "/>
<text text-anchor="middle" x="513" y="-784.5" font-family="Helvetica,sans-Serif" font-size="10.00"> </text>
</a>
</g>
</g>
<!-- Node9&#45;&gt;Node3 -->
<g id="edge8" class="edge">
<title>Node9&#45;&gt;Node3</title>
<path fill="none" stroke="#404040" d="M471.98,-777.33C450.21,-761.6 423.75,-740.74 403,-719 402.72,-718.7 402.43,-718.41 402.15,-718.11"/>
<polygon fill="none" stroke="#404040" points="402.12,-718.08 395.12,-716.35 394.02,-709.23 401.02,-710.95 402.12,-718.08"/>
<text text-anchor="middle" x="490.5" y="-745.5" font-family="Helvetica,sans-Serif" font-size="10.00"> #_cancelTokenSrc</text>
</g>
<!-- Node10 -->
<g id="node10" class="node">
<title>Node10</title>
<g id="a_node10"><a xlink:title=" ">
<polygon fill="white" stroke="#bfbfbf" points="600.5,-777.5 600.5,-834.5 647.5,-834.5 647.5,-777.5 600.5,-777.5"/>
<text text-anchor="middle" x="624" y="-822.5" font-family="Helvetica,sans-Serif" font-size="10.00">object</text>
<polyline fill="none" stroke="#bfbfbf" points="600.5,-815.5 647.5,-815.5 "/>
<text text-anchor="middle" x="624" y="-803.5" font-family="Helvetica,sans-Serif" font-size="10.00"> </text>
<polyline fill="none" stroke="#bfbfbf" points="600.5,-796.5 647.5,-796.5 "/>
<text text-anchor="middle" x="624" y="-784.5" font-family="Helvetica,sans-Serif" font-size="10.00"> </text>
</a>
</g>
</g>
<!-- Node10&#45;&gt;Node3 -->
<g id="edge9" class="edge">
<title>Node10&#45;&gt;Node3</title>
<path fill="none" stroke="#404040" d="M600.39,-779.69C584.78,-764.65 563.01,-746.67 540,-737 486.81,-714.65 459.07,-746.38 404.96,-719.17"/>
<polygon fill="none" stroke="#404040" points="404.63,-718.99 397.45,-719.56 394.15,-713.15 401.34,-712.57 404.63,-718.99"/>
<text text-anchor="middle" x="600" y="-745.5" font-family="Helvetica,sans-Serif" font-size="10.00"> &#45;_listLock</text>
</g>
<!-- Node11 -->
<g id="node11" class="node">
<title>Node11</title>
<g id="a_node11"><a xlink:title=" ">
<polygon fill="white" stroke="#bfbfbf" points="412,-557 412,-614 456,-614 456,-557 412,-557"/>
<text text-anchor="middle" x="434" y="-602" font-family="Helvetica,sans-Serif" font-size="10.00">string</text>
<polyline fill="none" stroke="#bfbfbf" points="412,-595 456,-595 "/>
<text text-anchor="middle" x="434" y="-583" font-family="Helvetica,sans-Serif" font-size="10.00"> </text>
<polyline fill="none" stroke="#bfbfbf" points="412,-576 456,-576 "/>
<text text-anchor="middle" x="434" y="-564" font-family="Helvetica,sans-Serif" font-size="10.00"> </text>
</a>
</g>
</g>
<!-- Node11&#45;&gt;Node2 -->
<g id="edge10" class="edge">
<title>Node11&#45;&gt;Node2</title>
<path fill="none" stroke="#404040" d="M429.97,-556.89C425.42,-529.59 416.81,-486.93 403,-452 398.26,-440.02 392.76,-427.87 386.83,-415.87"/>
<polygon fill="none" stroke="#404040" points="386.7,-415.62 380.42,-412.07 381.28,-404.91 387.56,-408.46 386.7,-415.62"/>
<text text-anchor="middle" x="431.5" y="-426" font-family="Helvetica,sans-Serif" font-size="10.00"> &#45;_serverName</text>
</g>
</g>
</svg>
        <g id="navigator" transform="translate(0 0)" fill="#404254">
                <rect fill="#f2f5e9" fill-opacity="0.5" stroke="#606060" stroke-width=".5" x="0" y="0" width="60" height="60"/>
                <use id="zoomplus" xlink:href="#zoomPlus" x="17" y="9" onmousedown="handleZoom(evt,'in')"/>
                <use id="zoomminus" xlink:href="#zoomMin" x="42" y="9" onmousedown="handleZoom(evt,'out')"/>
                <use id="reset" xlink:href="#resetDef" x="30" y="36" onmousedown="handleReset()"/>
                <g id="arrowUp" xlink:href="#dirArrow" transform="translate(30 24)" onmousedown="handlePan(0,-1)">
                  <use xlink:href="#rim" fill="#404040">
                        <set attributeName="fill" to="#808080" begin="arrowUp.mouseover" end="arrowUp.mouseout"/>
                  </use>
                  <path fill="none" stroke="white" stroke-width="1.5" d="M0,-3.0v7 M-2.5,-0.5L0,-3.0L2.5,-0.5"/>
                </g>
                <g id="arrowRight" xlink:href="#dirArrow" transform="rotate(90) translate(36 -43)" onmousedown="handlePan(1,0)">
                  <use xlink:href="#rim" fill="#404040">
                        <set attributeName="fill" to="#808080" begin="arrowRight.mouseover" end="arrowRight.mouseout"/>
                  </use>
                  <path fill="none" stroke="white" stroke-width="1.5" d="M0,-3.0v7 M-2.5,-0.5L0,-3.0L2.5,-0.5"/>
                </g>
                <g id="arrowDown" xlink:href="#dirArrow" transform="rotate(180) translate(-30 -48)" onmousedown="handlePan(0,1)">
                  <use xlink:href="#rim" fill="#404040">
                        <set attributeName="fill" to="#808080" begin="arrowDown.mouseover" end="arrowDown.mouseout"/>
                  </use>
                  <path fill="none" stroke="white" stroke-width="1.5" d="M0,-3.0v7 M-2.5,-0.5L0,-3.0L2.5,-0.5"/>
                </g>
                <g id="arrowLeft" xlink:href="#dirArrow" transform="rotate(270) translate(-36 17)" onmousedown="handlePan(-1,0)">
                  <use xlink:href="#rim" fill="#404040">
                        <set attributeName="fill" to="#808080" begin="arrowLeft.mouseover" end="arrowLeft.mouseout"/>
                  </use>
                  <path fill="none" stroke="white" stroke-width="1.5" d="M0,-3.0v7 M-2.5,-0.5L0,-3.0L2.5,-0.5"/>
                </g>
        </g>
        <svg viewBox="0 0 15 15" width="100%" height="30px" preserveAspectRatio="xMaxYMin meet">
         <g id="arrow_out" transform="scale(0.3 0.3)">
          <a xlink:href="classMessageDispatcherServer__coll__graph_org.svg" target="_base">
           <rect id="button" ry="5" rx="5" y="6" x="6" height="38" width="38"
                fill="#f2f5e9" fill-opacity="0.5" stroke="#606060" stroke-width="1.0"/>
           <path id="arrow"
             d="M 11.500037,31.436501 C 11.940474,20.09759 22.043105,11.32322 32.158766,21.979434 L 37.068811,17.246167 C 37.068811,17.246167 37.088388,32 37.088388,32 L 22.160133,31.978069 C 22.160133,31.978069 26.997745,27.140456 26.997745,27.140456 C 18.528582,18.264221 13.291696,25.230495 11.500037,31.436501 z"
             style="fill:#404040;"/>
          </a>
         </g>
        </svg>
</svg>
