<?xml version="1.0" encoding="UTF-8" standalone="no"?>
<!DOCTYPE svg PUBLIC "-//W3C//DTD SVG 1.1//EN"
 "http://www.w3.org/Graphics/SVG/1.1/DTD/svg11.dtd">
<!-- Generated by graphviz version 2.43.0 (0)
 -->
<!-- Title: StardewValleyAnimation.ComposeAnimation Pages: 1 -->
<!--zoomable 235 -->
<svg id="main" version="1.1" xmlns="http://www.w3.org/2000/svg" xmlns:xlink="http://www.w3.org/1999/xlink" xml:space="preserve" onload="init(evt)">
<style type="text/css"><![CDATA[
.edge:hover path { stroke: red; }
.edge:hover polygon { stroke: red; fill: red; }
]]></style>
<script type="text/javascript"><![CDATA[
var edges = document.getElementsByTagName('g');
if (edges && edges.length) {
  for (var i=0;i<edges.length;i++) {
    if (edges[i].id.substr(0,4)=='edge') {
      edges[i].setAttribute('class','edge');
    }
  }
}
]]></script>
        <defs>
                <circle id="rim" cx="0" cy="0" r="7"/>
                <circle id="rim2" cx="0" cy="0" r="3.5"/>
                <g id="zoomPlus">
                        <use xlink:href="#rim" fill="#404040">
                                <set attributeName="fill" to="#808080" begin="zoomplus.mouseover" end="zoomplus.mouseout"/>
                        </use>
                        <path d="M-4,0h8M0,-4v8" fill="none" stroke="white" stroke-width="1.5" pointer-events="none"/>
                </g>
                <g id="zoomMin">
                        <use xlink:href="#rim" fill="#404040">
                                <set attributeName="fill" to="#808080" begin="zoomminus.mouseover" end="zoomminus.mouseout"/>
                        </use>
                        <path d="M-4,0h8" fill="none" stroke="white" stroke-width="1.5" pointer-events="none"/>
                </g>
                <g id="dirArrow">
                        <path fill="none" stroke="white" stroke-width="1.5" d="M0,-3.0v7 M-2.5,-0.5L0,-3.0L2.5,-0.5"/>
                </g>
               <g id="resetDef">
                       <use xlink:href="#rim2" fill="#404040">
                               <set attributeName="fill" to="#808080" begin="reset.mouseover" end="reset.mouseout"/>
                       </use>
               </g>
        </defs>

<script type="text/javascript">
var viewWidth = 608;
var viewHeight = 235;
var sectionId = 'dynsection-0';
</script>
<script xlink:href="../../svgpan.js"/>
<svg id="graph" class="graph">
<g id="viewport">
<title>StardewValleyAnimation.ComposeAnimation</title>
<polygon fill="white" stroke="transparent" points="-4,4 -4,-231 604,-231 604,4 -4,4"/>
<!-- Node1 -->
<g id="node1" class="node">
<title>Node1</title>
<g id="a_node1"><a xlink:title=" ">
<polygon fill="#bfbfbf" stroke="black" points="0,-98.5 0,-128.5 185,-128.5 185,-98.5 0,-98.5"/>
<text text-anchor="start" x="8" y="-116.5" font-family="Helvetica,sans-Serif" font-size="10.00">StardewValleyAnimation.Compose</text>
<text text-anchor="middle" x="92.5" y="-105.5" font-family="Helvetica,sans-Serif" font-size="10.00">Animation</text>
</a>
</g>
</g>
<!-- Node2 -->
<g id="node2" class="node">
<title>Node2</title>
<g id="a_node2"><a xlink:href="../../d8/dbc/classStardewValleyAnimation_ac70a9b8f02d17af50d6965fefb904c4d.html#ac70a9b8f02d17af50d6965fefb904c4d" target="_top" xlink:title=" ">
<polygon fill="white" stroke="black" points="233,-196.5 233,-226.5 390,-226.5 390,-196.5 233,-196.5"/>
<text text-anchor="start" x="241" y="-214.5" font-family="Helvetica,sans-Serif" font-size="10.00">StardewValleyAnimation.Get</text>
<text text-anchor="middle" x="311.5" y="-203.5" font-family="Helvetica,sans-Serif" font-size="10.00">MatrixForAnimation</text>
</a>
</g>
</g>
<!-- Node1&#45;&gt;Node2 -->
<g id="edge1" class="edge">
<title>Node1&#45;&gt;Node2</title>
<path fill="none" stroke="midnightblue" d="M115.6,-128.76C140.31,-145.24 182.01,-171.29 221,-187.5 226.01,-189.58 231.26,-191.54 236.59,-193.35"/>
<polygon fill="midnightblue" stroke="midnightblue" points="235.66,-196.73 246.25,-196.48 237.82,-190.07 235.66,-196.73"/>
</g>
<!-- Node3 -->
<g id="node3" class="node">
<title>Node3</title>
<g id="a_node3"><a xlink:href="../../d5/d32/classSegments_1_1AnimationSegmentWithActions_ad66d74d23d26efb2f48e397bc5ade895.html#ad66d74d23d26efb2f48e397bc5ade895" target="_top" xlink:title=" ">
<polygon fill="white" stroke="black" points="230.5,-147.5 230.5,-177.5 392.5,-177.5 392.5,-147.5 230.5,-147.5"/>
<text text-anchor="start" x="238.5" y="-165.5" font-family="Helvetica,sans-Serif" font-size="10.00">Segments.AnimationSegment</text>
<text text-anchor="middle" x="311.5" y="-154.5" font-family="Helvetica,sans-Serif" font-size="10.00">WithActions.Then</text>
</a>
</g>
</g>
<!-- Node1&#45;&gt;Node3 -->
<g id="edge2" class="edge">
<title>Node1&#45;&gt;Node3</title>
<path fill="none" stroke="midnightblue" d="M160.08,-128.53C183.51,-133.83 210.03,-139.81 234.2,-145.27"/>
<polygon fill="midnightblue" stroke="midnightblue" points="233.52,-148.71 244.04,-147.49 235.06,-141.88 233.52,-148.71"/>
</g>
<!-- Node6 -->
<g id="node6" class="node">
<title>Node6</title>
<g id="a_node6"><a xlink:href="../../d8/dc6/classSegments_1_1SpriteSegment_a842517b470d19639766f9a7b10498214.html#a842517b470d19639766f9a7b10498214" target="_top" xlink:title=" ">
<polygon fill="white" stroke="black" points="230.5,-98.5 230.5,-128.5 392.5,-128.5 392.5,-98.5 230.5,-98.5"/>
<text text-anchor="start" x="238.5" y="-116.5" font-family="Helvetica,sans-Serif" font-size="10.00">Segments.SpriteSegment.Use</text>
<text text-anchor="middle" x="311.5" y="-105.5" font-family="Helvetica,sans-Serif" font-size="10.00">ShaderEffect</text>
</a>
</g>
</g>
<!-- Node1&#45;&gt;Node6 -->
<g id="edge5" class="edge">
<title>Node1&#45;&gt;Node6</title>
<path fill="none" stroke="midnightblue" d="M185.21,-113.5C196.84,-113.5 208.74,-113.5 220.34,-113.5"/>
<polygon fill="midnightblue" stroke="midnightblue" points="220.45,-117 230.45,-113.5 220.45,-110 220.45,-117"/>
</g>
<!-- Node7 -->
<g id="node7" class="node">
<title>Node7</title>
<g id="a_node7"><a xlink:href="../../de/dea/classSegments_1_1SpriteSegment_1_1MaskedFadeEffect_aea5dbd1d3fbe3e80b55b0001bf929a51.html#aea5dbd1d3fbe3e80b55b0001bf929a51" target="_top" xlink:title=" ">
<polygon fill="white" stroke="black" points="221,-49.5 221,-79.5 402,-79.5 402,-49.5 221,-49.5"/>
<text text-anchor="start" x="229" y="-67.5" font-family="Helvetica,sans-Serif" font-size="10.00">Segments.SpriteSegment.Masked</text>
<text text-anchor="middle" x="311.5" y="-56.5" font-family="Helvetica,sans-Serif" font-size="10.00">FadeEffect.WithPanX</text>
</a>
</g>
</g>
<!-- Node1&#45;&gt;Node7 -->
<g id="edge6" class="edge">
<title>Node1&#45;&gt;Node7</title>
<path fill="none" stroke="midnightblue" d="M160.08,-98.47C183.51,-93.17 210.03,-87.19 234.2,-81.73"/>
<polygon fill="midnightblue" stroke="midnightblue" points="235.06,-85.12 244.04,-79.51 233.52,-78.29 235.06,-85.12"/>
</g>
<!-- Node8 -->
<g id="node8" class="node">
<title>Node8</title>
<g id="a_node8"><a xlink:href="../../de/dea/classSegments_1_1SpriteSegment_1_1MaskedFadeEffect_a20a60140973d538d75315a6d299a4216.html#a20a60140973d538d75315a6d299a4216" target="_top" xlink:title=" ">
<polygon fill="white" stroke="black" points="221,-0.5 221,-30.5 402,-30.5 402,-0.5 221,-0.5"/>
<text text-anchor="start" x="229" y="-18.5" font-family="Helvetica,sans-Serif" font-size="10.00">Segments.SpriteSegment.Masked</text>
<text text-anchor="middle" x="311.5" y="-7.5" font-family="Helvetica,sans-Serif" font-size="10.00">FadeEffect.WithPanY</text>
</a>
</g>
</g>
<!-- Node1&#45;&gt;Node8 -->
<g id="edge7" class="edge">
<title>Node1&#45;&gt;Node8</title>
<path fill="none" stroke="midnightblue" d="M116.11,-98.25C140.94,-82.06 182.41,-56.64 221,-40.5 226.76,-38.09 232.83,-35.84 238.98,-33.75"/>
<polygon fill="midnightblue" stroke="midnightblue" points="240.24,-37.02 248.67,-30.6 238.08,-30.36 240.24,-37.02"/>
</g>
<!-- Node4 -->
<g id="node4" class="node">
<title>Node4</title>
<g id="a_node4"><a xlink:href="../../d5/d32/classSegments_1_1AnimationSegmentWithActions_a2f8c2013d50764203db4835fb38d15ca.html#a2f8c2013d50764203db4835fb38d15ca" target="_top" xlink:title=" ">
<polygon fill="white" stroke="black" points="438,-171.5 438,-201.5 600,-201.5 600,-171.5 438,-171.5"/>
<text text-anchor="start" x="446" y="-189.5" font-family="Helvetica,sans-Serif" font-size="10.00">Segments.AnimationSegment</text>
<text text-anchor="middle" x="519" y="-178.5" font-family="Helvetica,sans-Serif" font-size="10.00">WithActions.Bind</text>
</a>
</g>
</g>
<!-- Node3&#45;&gt;Node4 -->
<g id="edge3" class="edge">
<title>Node3&#45;&gt;Node4</title>
<path fill="none" stroke="midnightblue" d="M392.54,-171.85C404.05,-173.19 415.95,-174.58 427.64,-175.95"/>
<polygon fill="midnightblue" stroke="midnightblue" points="427.5,-179.45 437.84,-177.14 428.31,-172.5 427.5,-179.45"/>
</g>
<!-- Node5 -->
<g id="node5" class="node">
<title>Node5</title>
<g id="a_node5"><a xlink:href="../../d8/d8d/interfaceIAnimationSegmentAction_ad9b30e93073f76c5bc2438964bf1ab29.html#ad9b30e93073f76c5bc2438964bf1ab29" target="_top" xlink:title=" ">
<polygon fill="white" stroke="black" points="445.5,-122.5 445.5,-152.5 592.5,-152.5 592.5,-122.5 445.5,-122.5"/>
<text text-anchor="start" x="453.5" y="-140.5" font-family="Helvetica,sans-Serif" font-size="10.00">IAnimationSegmentAction.</text>
<text text-anchor="middle" x="519" y="-129.5" font-family="Helvetica,sans-Serif" font-size="10.00">SetDelay</text>
</a>
</g>
</g>
<!-- Node3&#45;&gt;Node5 -->
<g id="edge4" class="edge">
<title>Node3&#45;&gt;Node5</title>
<path fill="none" stroke="midnightblue" d="M392.54,-152.76C406.51,-151.06 421.06,-149.29 435.1,-147.58"/>
<polygon fill="midnightblue" stroke="midnightblue" points="435.71,-151.04 445.22,-146.35 434.87,-144.09 435.71,-151.04"/>
</g>
</g>
</svg>
        <g id="navigator" transform="translate(0 0)" fill="#404254">
                <rect fill="#f2f5e9" fill-opacity="0.5" stroke="#606060" stroke-width=".5" x="0" y="0" width="60" height="60"/>
                <use id="zoomplus" xlink:href="#zoomPlus" x="17" y="9" onmousedown="handleZoom(evt,'in')"/>
                <use id="zoomminus" xlink:href="#zoomMin" x="42" y="9" onmousedown="handleZoom(evt,'out')"/>
                <use id="reset" xlink:href="#resetDef" x="30" y="36" onmousedown="handleReset()"/>
                <g id="arrowUp" xlink:href="#dirArrow" transform="translate(30 24)" onmousedown="handlePan(0,-1)">
                  <use xlink:href="#rim" fill="#404040">
                        <set attributeName="fill" to="#808080" begin="arrowUp.mouseover" end="arrowUp.mouseout"/>
                  </use>
                  <path fill="none" stroke="white" stroke-width="1.5" d="M0,-3.0v7 M-2.5,-0.5L0,-3.0L2.5,-0.5"/>
                </g>
                <g id="arrowRight" xlink:href="#dirArrow" transform="rotate(90) translate(36 -43)" onmousedown="handlePan(1,0)">
                  <use xlink:href="#rim" fill="#404040">
                        <set attributeName="fill" to="#808080" begin="arrowRight.mouseover" end="arrowRight.mouseout"/>
                  </use>
                  <path fill="none" stroke="white" stroke-width="1.5" d="M0,-3.0v7 M-2.5,-0.5L0,-3.0L2.5,-0.5"/>
                </g>
                <g id="arrowDown" xlink:href="#dirArrow" transform="rotate(180) translate(-30 -48)" onmousedown="handlePan(0,1)">
                  <use xlink:href="#rim" fill="#404040">
                        <set attributeName="fill" to="#808080" begin="arrowDown.mouseover" end="arrowDown.mouseout"/>
                  </use>
                  <path fill="none" stroke="white" stroke-width="1.5" d="M0,-3.0v7 M-2.5,-0.5L0,-3.0L2.5,-0.5"/>
                </g>
                <g id="arrowLeft" xlink:href="#dirArrow" transform="rotate(270) translate(-36 17)" onmousedown="handlePan(-1,0)">
                  <use xlink:href="#rim" fill="#404040">
                        <set attributeName="fill" to="#808080" begin="arrowLeft.mouseover" end="arrowLeft.mouseout"/>
                  </use>
                  <path fill="none" stroke="white" stroke-width="1.5" d="M0,-3.0v7 M-2.5,-0.5L0,-3.0L2.5,-0.5"/>
                </g>
        </g>
        <svg viewBox="0 0 15 15" width="100%" height="30px" preserveAspectRatio="xMaxYMin meet">
         <g id="arrow_out" transform="scale(0.3 0.3)">
          <a xlink:href="classStardewValleyAnimation_a519e4c5ab4dfba09b4fecabd8261abdd_a519e4c5ab4dfba09b4fecabd8261abdd_cgraph_org.svg" target="_base">
           <rect id="button" ry="5" rx="5" y="6" x="6" height="38" width="38"
                fill="#f2f5e9" fill-opacity="0.5" stroke="#606060" stroke-width="1.0"/>
           <path id="arrow"
             d="M 11.500037,31.436501 C 11.940474,20.09759 22.043105,11.32322 32.158766,21.979434 L 37.068811,17.246167 C 37.068811,17.246167 37.088388,32 37.088388,32 L 22.160133,31.978069 C 22.160133,31.978069 26.997745,27.140456 26.997745,27.140456 C 18.528582,18.264221 13.291696,25.230495 11.500037,31.436501 z"
             style="fill:#404040;"/>
          </a>
         </g>
        </svg>
</svg>
