<?xml version="1.0" encoding="UTF-8" standalone="no"?>
<!DOCTYPE svg PUBLIC "-//W3C//DTD SVG 1.1//EN"
 "http://www.w3.org/Graphics/SVG/1.1/DTD/svg11.dtd">
<!-- Generated by graphviz version 2.43.0 (0)
 -->
<!-- Title: Terraria.DelegateMethods.Minecart.JumpingSoundFart Pages: 1 -->
<!--zoomable 260 -->

<svg id="main" version="1.1" xmlns="http://www.w3.org/2000/svg" xmlns:xlink="http://www.w3.org/1999/xlink" xml:space="preserve" onload="init(evt)">
<style type="text/css"><![CDATA[
.node, .edge {opacity: 0.7;}
.node.selected, .edge.selected {opacity: 1;}
.edge:hover path { stroke: red; }
.edge:hover polygon { stroke: red; fill: red; }
]]></style>

<defs>
  <circle id="rim" cx="0" cy="0" r="7"/>
  <circle id="rim2" cx="0" cy="0" r="3.5"/>
  <g id="zoomPlus">
    <use xlink:href="#rim" fill="#404040"><set attributeName="fill" to="#808080" begin="zoomplus.mouseover" end="zoomplus.mouseout"/></use>
    <path d="M-4,0h8M0,-4v8" fill="none" stroke="white" stroke-width="1.5" pointer-events="none"/>
  </g>
  <g id="zoomMin">
    <use xlink:href="#rim" fill="#404040"><set attributeName="fill" to="#808080" begin="zoomminus.mouseover" end="zoomminus.mouseout"/></use>
    <path d="M-4,0h8" fill="none" stroke="white" stroke-width="1.5" pointer-events="none"/>
  </g>
  <g id="arrowUp" transform="translate(30 24)">
    <use xlink:href="#rim"/>
    <path pointer-events="none" fill="none" stroke="white" stroke-width="1.5" d="M0,-3.0v7 M-2.5,-0.5L0,-3.0L2.5,-0.5"/>
  </g>
  <g id="arrowRight" transform="rotate(90) translate(36 -43)">
    <use xlink:href="#rim"/>
    <path pointer-events="none" fill="none" stroke="white" stroke-width="1.5" d="M0,-3.0v7 M-2.5,-0.5L0,-3.0L2.5,-0.5"/>
  </g>
  <g id="arrowDown" transform="rotate(180) translate(-30 -48)">
    <use xlink:href="#rim"/>
    <path pointer-events="none" fill="none" stroke="white" stroke-width="1.5" d="M0,-3.0v7 M-2.5,-0.5L0,-3.0L2.5,-0.5"/>
  </g>
  <g id="arrowLeft" transform="rotate(270) translate(-36 17)">
    <use xlink:href="#rim"/>
    <path pointer-events="none" fill="none" stroke="white" stroke-width="1.5" d="M0,-3.0v7 M-2.5,-0.5L0,-3.0L2.5,-0.5"/>
  </g>
  <g id="resetDef">
    <use xlink:href="#rim2" fill="#404040"><set attributeName="fill" to="#808080" begin="reset.mouseover" end="reset.mouseout"/></use>
  </g>
</defs>
<script type="application/ecmascript">
var viewWidth = 1100;
var viewHeight = 260;
var sectionId = 'dynsection-0';
</script>
<script type="application/ecmascript" xlink:href="../../svg.min.js"/>
<svg id="graph" class="graph">
<g id="viewport">
<title>Terraria.DelegateMethods.Minecart.JumpingSoundFart</title>
<!-- Node1 -->
<g id="Node000001" class="node">
<title>Node1</title>
<g id="a_Node000001"><a xlink:title=" ">
<polygon fill="#999999" stroke="#666666" points="150,-141 0,-141 0,-111 150,-111 150,-141"/>
<text text-anchor="start" x="8" y="-129" font-family="Helvetica,sans-Serif" font-size="10.00">Terraria.DelegateMethods.</text>
<text text-anchor="middle" x="75" y="-118" font-family="Helvetica,sans-Serif" font-size="10.00">Minecart.JumpingSoundFart</text>
</a>
</g>
</g>
<!-- Node2 -->
<g id="Node000002" class="node">
<title>Node2</title>
<g id="a_Node000002"><a xlink:href="../../d3/d78/classTerraria_1_1Audio_1_1SoundEngine_a65b4b1502c673e839c9bd620e23b2c94.html#a65b4b1502c673e839c9bd620e23b2c94" target="_top" xlink:title=" ">
<polygon fill="white" stroke="#666666" points="339,-165 186,-165 186,-135 339,-135 339,-165"/>
<text text-anchor="start" x="194" y="-153" font-family="Helvetica,sans-Serif" font-size="10.00">Terraria.Audio.SoundEngine.</text>
<text text-anchor="middle" x="262.5" y="-142" font-family="Helvetica,sans-Serif" font-size="10.00">PlaySound</text>
</a>
</g>
</g>
<!-- Node1&#45;&gt;Node2 -->
<g id="edge1_Node000001_Node000002" class="edge">
<title>Node1&#45;&gt;Node2</title>
<g id="a_edge1_Node000001_Node000002"><a xlink:title=" ">
<path fill="none" stroke="#63b8ff" d="M150.11,-135.59C158.6,-136.69 167.3,-137.81 175.92,-138.93"/>
<polygon fill="#63b8ff" stroke="#63b8ff" points="175.62,-142.42 185.99,-140.23 176.52,-135.48 175.62,-142.42"/>
</a>
</g>
</g>
<!-- Node3 -->
<g id="Node000003" class="node">
<title>Node3</title>
<g id="a_Node000003"><a xlink:href="../../df/d0a/classTerraria_1_1DelegateMethods_1_1Minecart_ad6c2198e0cec439ba93472548ec4497b.html#ad6c2198e0cec439ba93472548ec4497b" target="_top" xlink:title=" ">
<polygon fill="white" stroke="#666666" points="335.5,-117 189.5,-117 189.5,-87 335.5,-87 335.5,-117"/>
<text text-anchor="start" x="197.5" y="-105" font-family="Helvetica,sans-Serif" font-size="10.00">Terraria.DelegateMethods.</text>
<text text-anchor="middle" x="262.5" y="-94" font-family="Helvetica,sans-Serif" font-size="10.00">Minecart.SpawnFartCloud</text>
</a>
</g>
</g>
<!-- Node1&#45;&gt;Node3 -->
<g id="edge3_Node000001_Node000003" class="edge">
<title>Node1&#45;&gt;Node3</title>
<g id="a_edge3_Node000001_Node000003"><a xlink:title=" ">
<path fill="none" stroke="#63b8ff" d="M150.11,-116.41C159.7,-115.17 169.57,-113.89 179.27,-112.64"/>
<polygon fill="#63b8ff" stroke="#63b8ff" points="179.85,-116.09 189.32,-111.34 178.95,-109.15 179.85,-116.09"/>
</a>
</g>
</g>
<!-- Node2&#45;&gt;Node2 -->
<g id="edge2_Node000002_Node000002" class="edge">
<title>Node2&#45;&gt;Node2</title>
<g id="a_edge2_Node000002_Node000002"><a xlink:title=" ">
<path fill="none" stroke="#63b8ff" d="M229.8,-165.28C222.54,-174.41 233.44,-183 262.5,-183 279.76,-183 290.61,-179.97 295.06,-175.6"/>
<polygon fill="#63b8ff" stroke="#63b8ff" points="298.56,-175.32 295.2,-165.28 291.56,-175.23 298.56,-175.32"/>
</a>
</g>
</g>
<!-- Node4 -->
<g id="Node000004" class="node">
<title>Node4</title>
<g id="a_Node000004"><a xlink:href="../../dc/de5/classTerraria_1_1Dust_ac85a67b8ea46324cf328fbf3b3e227a2.html#ac85a67b8ea46324cf328fbf3b3e227a2" target="_top" xlink:title=" ">
<polygon fill="white" stroke="#666666" points="536,-141.5 375,-141.5 375,-122.5 536,-122.5 536,-141.5"/>
<text text-anchor="middle" x="455.5" y="-129.5" font-family="Helvetica,sans-Serif" font-size="10.00">Terraria.Dust.NewDustPerfect</text>
</a>
</g>
</g>
<!-- Node3&#45;&gt;Node4 -->
<g id="edge4_Node000003_Node000004" class="edge">
<title>Node3&#45;&gt;Node4</title>
<g id="a_edge4_Node000003_Node000004"><a xlink:title=" ">
<path fill="none" stroke="#63b8ff" d="M335.71,-113.34C351.39,-115.81 367.97,-118.41 383.61,-120.86"/>
<polygon fill="#63b8ff" stroke="#63b8ff" points="383.3,-124.36 393.72,-122.45 384.39,-117.44 383.3,-124.36"/>
</a>
</g>
</g>
<!-- Node13 -->
<g id="Node000013" class="node">
<title>Node13</title>
<g id="a_Node000013"><a xlink:href="../../d1/ddf/classTerraria_1_1Gore_a99c43465db05b0c96da5f5d941e780d1.html#a99c43465db05b0c96da5f5d941e780d1" target="_top" xlink:title=" ">
<polygon fill="white" stroke="#666666" points="519.5,-93.5 391.5,-93.5 391.5,-74.5 519.5,-74.5 519.5,-93.5"/>
<text text-anchor="middle" x="455.5" y="-81.5" font-family="Helvetica,sans-Serif" font-size="10.00">Terraria.Gore.NewGore</text>
</a>
</g>
</g>
<!-- Node3&#45;&gt;Node13 -->
<g id="edge13_Node000003_Node000013" class="edge">
<title>Node3&#45;&gt;Node13</title>
<g id="a_edge13_Node000003_Node000013"><a xlink:title=" ">
<path fill="none" stroke="#63b8ff" d="M335.71,-95.19C350.56,-93.8 366.21,-92.32 381.1,-90.92"/>
<polygon fill="#63b8ff" stroke="#63b8ff" points="381.64,-94.38 391.27,-89.96 380.98,-87.41 381.64,-94.38"/>
</a>
</g>
</g>
<!-- Node5 -->
<g id="Node000005" class="node">
<title>Node5</title>
<g id="a_Node000005"><a xlink:href="../../dc/de5/classTerraria_1_1Dust_a977a36a9376966862406a3094e3b70ab.html#a977a36a9376966862406a3094e3b70ab" target="_top" xlink:title=" ">
<polygon fill="white" stroke="#666666" points="711,-153.5 585,-153.5 585,-134.5 711,-134.5 711,-153.5"/>
<text text-anchor="middle" x="648" y="-141.5" font-family="Helvetica,sans-Serif" font-size="10.00">Terraria.Dust.NewDust</text>
</a>
</g>
</g>
<!-- Node4&#45;&gt;Node5 -->
<g id="edge5_Node000004_Node000005" class="edge">
<title>Node4&#45;&gt;Node5</title>
<g id="a_edge5_Node000004_Node000005"><a xlink:title=" ">
<path fill="none" stroke="#63b8ff" d="M536.19,-137.02C548.85,-137.82 561.89,-138.64 574.38,-139.43"/>
<polygon fill="#63b8ff" stroke="#63b8ff" points="574.53,-142.94 584.73,-140.08 574.97,-135.96 574.53,-142.94"/>
</a>
</g>
</g>
<!-- Node6 -->
<g id="Node000006" class="node">
<title>Node6</title>
<g id="a_Node000006"><a xlink:href="../../d9/db1/classTerraria_1_1Utilities_1_1UnifiedRandom_ac4ecc6320b69ab939b9c45eaf7d89000.html#ac4ecc6320b69ab939b9c45eaf7d89000" target="_top" xlink:title=" ">
<polygon fill="white" stroke="#666666" points="907,-121 775,-121 775,-91 907,-91 907,-121"/>
<text text-anchor="start" x="783" y="-109" font-family="Helvetica,sans-Serif" font-size="10.00">Terraria.Utilities.Unified</text>
<text text-anchor="middle" x="841" y="-98" font-family="Helvetica,sans-Serif" font-size="10.00">Random.Next</text>
</a>
</g>
</g>
<!-- Node5&#45;&gt;Node6 -->
<g id="edge6_Node000005_Node000006" class="edge">
<title>Node5&#45;&gt;Node6</title>
<g id="a_edge6_Node000005_Node000006"><a xlink:title=" ">
<path fill="none" stroke="#63b8ff" d="M697.2,-134.41C717.7,-130.33 742.1,-125.48 764.87,-120.95"/>
<polygon fill="#63b8ff" stroke="#63b8ff" points="765.74,-124.34 774.86,-118.96 764.37,-117.48 765.74,-124.34"/>
</a>
</g>
</g>
<!-- Node8 -->
<g id="Node000008" class="node">
<title>Node8</title>
<g id="a_Node000008"><a xlink:href="../../de/d1d/classTerraria_1_1Collision_a1c65206ace403aa59afc32d20e5d282e.html#a1c65206ace403aa59afc32d20e5d282e" target="_top" xlink:title=" ">
<polygon fill="white" stroke="#666666" points="922,-177.5 760,-177.5 760,-158.5 922,-158.5 922,-177.5"/>
<text text-anchor="middle" x="841" y="-165.5" font-family="Helvetica,sans-Serif" font-size="10.00">Terraria.Collision.WetCollision</text>
</a>
</g>
</g>
<!-- Node5&#45;&gt;Node8 -->
<g id="edge8_Node000005_Node000008" class="edge">
<title>Node5&#45;&gt;Node8</title>
<g id="a_edge8_Node000005_Node000008"><a xlink:title=" ">
<path fill="none" stroke="#63b8ff" d="M711.01,-151.79C724.82,-153.53 739.69,-155.4 754.26,-157.23"/>
<polygon fill="#63b8ff" stroke="#63b8ff" points="753.93,-160.71 764.28,-158.49 754.8,-153.77 753.93,-160.71"/>
</a>
</g>
</g>
<!-- Node7 -->
<g id="Node000007" class="node">
<title>Node7</title>
<g id="a_Node000007"><a xlink:href="../../d9/db1/classTerraria_1_1Utilities_1_1UnifiedRandom_a173f09196ff526b107c0223c2d58c59a.html#a173f09196ff526b107c0223c2d58c59a" target="_top" xlink:title=" ">
<polygon fill="white" stroke="#666666" points="1092,-103 958,-103 958,-73 1092,-73 1092,-103"/>
<text text-anchor="start" x="966" y="-91" font-family="Helvetica,sans-Serif" font-size="10.00">Terraria.Utilities.Unified</text>
<text text-anchor="middle" x="1025" y="-80" font-family="Helvetica,sans-Serif" font-size="10.00">Random.InternalSample</text>
</a>
</g>
</g>
<!-- Node6&#45;&gt;Node7 -->
<g id="edge7_Node000006_Node000007" class="edge">
<title>Node6&#45;&gt;Node7</title>
<g id="a_edge7_Node000006_Node000007"><a xlink:title=" ">
<path fill="none" stroke="#63b8ff" d="M907.19,-99.55C920.28,-98.26 934.14,-96.89 947.57,-95.56"/>
<polygon fill="#63b8ff" stroke="#63b8ff" points="948.12,-99.02 957.73,-94.55 947.44,-92.06 948.12,-99.02"/>
</a>
</g>
</g>
<!-- Node9 -->
<g id="Node000009" class="node">
<title>Node9</title>
<g id="a_Node000009"><a xlink:href="../../d3/ddc/classTerraria_1_1Tile_a9a3f37926e6d7f23ba057d6c0aeab1a5.html#a9a3f37926e6d7f23ba057d6c0aeab1a5" target="_top" xlink:title=" ">
<polygon fill="white" stroke="#666666" points="1078.5,-214.5 971.5,-214.5 971.5,-195.5 1078.5,-195.5 1078.5,-214.5"/>
<text text-anchor="middle" x="1025" y="-202.5" font-family="Helvetica,sans-Serif" font-size="10.00">Terraria.Tile.active</text>
</a>
</g>
</g>
<!-- Node8&#45;&gt;Node9 -->
<g id="edge9_Node000008_Node000009" class="edge">
<title>Node8&#45;&gt;Node9</title>
<g id="a_edge9_Node000008_Node000009"><a xlink:title=" ">
<path fill="none" stroke="#63b8ff" d="M888.87,-177.53C912.66,-182.36 941.76,-188.28 966.85,-193.38"/>
<polygon fill="#63b8ff" stroke="#63b8ff" points="966.48,-196.88 976.97,-195.44 967.87,-190.02 966.48,-196.88"/>
</a>
</g>
</g>
<!-- Node10 -->
<g id="Node000010" class="node">
<title>Node10</title>
<g id="a_Node000010"><a xlink:href="../../d3/ddc/classTerraria_1_1Tile_abce32b6727439dc5fd177ed547a260a6.html#abce32b6727439dc5fd177ed547a260a6" target="_top" xlink:title=" ">
<polygon fill="white" stroke="#666666" points="1078.5,-177.5 971.5,-177.5 971.5,-158.5 1078.5,-158.5 1078.5,-177.5"/>
<text text-anchor="middle" x="1025" y="-165.5" font-family="Helvetica,sans-Serif" font-size="10.00">Terraria.Tile.honey</text>
</a>
</g>
</g>
<!-- Node8&#45;&gt;Node10 -->
<g id="edge10_Node000008_Node000010" class="edge">
<title>Node8&#45;&gt;Node10</title>
<g id="a_edge10_Node000008_Node000010"><a xlink:title=" ">
<path fill="none" stroke="#63b8ff" d="M922.09,-168C935.13,-168 948.47,-168 961.03,-168"/>
<polygon fill="#63b8ff" stroke="#63b8ff" points="961.36,-171.5 971.36,-168 961.36,-164.5 961.36,-171.5"/>
</a>
</g>
</g>
<!-- Node11 -->
<g id="Node000011" class="node">
<title>Node11</title>
<g id="a_Node000011"><a xlink:href="../../d3/ddc/classTerraria_1_1Tile_ac658b0c4cc04dc4d86deb55b99decfc5.html#ac658b0c4cc04dc4d86deb55b99decfc5" target="_top" xlink:title=" ">
<polygon fill="white" stroke="#666666" points="1085.5,-140.5 964.5,-140.5 964.5,-121.5 1085.5,-121.5 1085.5,-140.5"/>
<text text-anchor="middle" x="1025" y="-128.5" font-family="Helvetica,sans-Serif" font-size="10.00">Terraria.Tile.shimmer</text>
</a>
</g>
</g>
<!-- Node8&#45;&gt;Node11 -->
<g id="edge11_Node000008_Node000011" class="edge">
<title>Node8&#45;&gt;Node11</title>
<g id="a_edge11_Node000008_Node000011"><a xlink:title=" ">
<path fill="none" stroke="#63b8ff" d="M888.87,-158.47C912.66,-153.64 941.76,-147.72 966.85,-142.62"/>
<polygon fill="#63b8ff" stroke="#63b8ff" points="967.87,-145.98 976.97,-140.56 966.48,-139.12 967.87,-145.98"/>
</a>
</g>
</g>
<!-- Node12 -->
<g id="Node000012" class="node">
<title>Node12</title>
<g id="a_Node000012"><a xlink:href="../../d3/ddc/classTerraria_1_1Tile_ab9bfb24365d03f2b4fe0842f6a406765.html#ab9bfb24365d03f2b4fe0842f6a406765" target="_top" xlink:title=" ">
<polygon fill="white" stroke="#666666" points="1077,-251.5 973,-251.5 973,-232.5 1077,-232.5 1077,-251.5"/>
<text text-anchor="middle" x="1025" y="-239.5" font-family="Helvetica,sans-Serif" font-size="10.00">Terraria.Tile.slope</text>
</a>
</g>
</g>
<!-- Node8&#45;&gt;Node12 -->
<g id="edge12_Node000008_Node000012" class="edge">
<title>Node8&#45;&gt;Node12</title>
<g id="a_edge12_Node000008_Node000012"><a xlink:title=" ">
<path fill="none" stroke="#63b8ff" d="M859.25,-177.57C881.53,-189.64 921.77,-210.44 958,-224 963.21,-225.95 968.73,-227.79 974.27,-229.49"/>
<polygon fill="#63b8ff" stroke="#63b8ff" points="973.61,-232.95 984.19,-232.41 975.58,-226.23 973.61,-232.95"/>
</a>
</g>
</g>
<!-- Node13&#45;&gt;Node6 -->
<g id="edge17_Node000013_Node000006" class="edge">
<title>Node13&#45;&gt;Node6</title>
<g id="a_edge17_Node000013_Node000006"><a xlink:title=" ">
<path fill="none" stroke="#63b8ff" d="M519.83,-87.63C587.05,-91.49 693.23,-97.58 764.69,-101.68"/>
<polygon fill="#63b8ff" stroke="#63b8ff" points="764.79,-105.19 774.97,-102.27 765.19,-98.2 764.79,-105.19"/>
</a>
</g>
</g>
<!-- Node14 -->
<g id="Node000014" class="node">
<title>Node14</title>
<g id="a_Node000014"><a xlink:href="../../dc/d32/classTerraria_1_1GameContent_1_1ChildSafety_a6530b049a8d392e9a6c2667665f36f5c.html#a6530b049a8d392e9a6c2667665f36f5c" target="_top" xlink:title=" ">
<polygon fill="white" stroke="#666666" points="724,-30 572,-30 572,0 724,0 724,-30"/>
<text text-anchor="start" x="580" y="-18" font-family="Helvetica,sans-Serif" font-size="10.00">Terraria.GameContent.Child</text>
<text text-anchor="middle" x="648" y="-7" font-family="Helvetica,sans-Serif" font-size="10.00">Safety.DangerousGore</text>
</a>
</g>
</g>
<!-- Node13&#45;&gt;Node14 -->
<g id="edge14_Node000013_Node000014" class="edge">
<title>Node13&#45;&gt;Node14</title>
<g id="a_edge14_Node000013_Node000014"><a xlink:title=" ">
<path fill="none" stroke="#63b8ff" d="M479.79,-74.44C503,-65.02 539.75,-50.43 572,-39 577.45,-37.07 583.14,-35.12 588.85,-33.21"/>
<polygon fill="#63b8ff" stroke="#63b8ff" points="590.04,-36.51 598.44,-30.06 587.85,-29.86 590.04,-36.51"/>
</a>
</g>
</g>
<!-- Node15 -->
<g id="Node000015" class="node">
<title>Node15</title>
<g id="a_Node000015"><a xlink:href="../../d1/ddf/classTerraria_1_1Gore_ab75a2b8fae7afb5042b6f0a853b104b5.html#ab75a2b8fae7afb5042b6f0a853b104b5" target="_top" xlink:title=" ">
<polygon fill="white" stroke="#666666" points="716,-78 580,-78 580,-48 716,-48 716,-78"/>
<text text-anchor="start" x="588" y="-66" font-family="Helvetica,sans-Serif" font-size="10.00">Terraria.Gore.Deactivate</text>
<text text-anchor="middle" x="648" y="-55" font-family="Helvetica,sans-Serif" font-size="10.00">IfOutsideOfWorld</text>
</a>
</g>
</g>
<!-- Node13&#45;&gt;Node15 -->
<g id="edge15_Node000013_Node000015" class="edge">
<title>Node13&#45;&gt;Node15</title>
<g id="a_edge15_Node000013_Node000015"><a xlink:title=" ">
<path fill="none" stroke="#63b8ff" d="M519.67,-77.04C535.63,-75.28 552.96,-73.37 569.54,-71.54"/>
<polygon fill="#63b8ff" stroke="#63b8ff" points="570.19,-74.99 579.75,-70.41 569.43,-68.03 570.19,-74.99"/>
</a>
</g>
</g>
<!-- Node16 -->
<g id="Node000016" class="node">
<title>Node16</title>
<g id="a_Node000016"><a xlink:href="../../de/da1/classTerraria_1_1WorldGen_adf59bfc3a2909993f72f0c69a5eaf553.html#adf59bfc3a2909993f72f0c69a5eaf553" target="_top" xlink:title=" ">
<polygon fill="white" stroke="#666666" points="912.5,-72.5 769.5,-72.5 769.5,-53.5 912.5,-53.5 912.5,-72.5"/>
<text text-anchor="middle" x="841" y="-60.5" font-family="Helvetica,sans-Serif" font-size="10.00">Terraria.WorldGen.InWorld</text>
</a>
</g>
</g>
<!-- Node15&#45;&gt;Node16 -->
<g id="edge16_Node000015_Node000016" class="edge">
<title>Node15&#45;&gt;Node16</title>
<g id="a_edge16_Node000015_Node000016"><a xlink:title=" ">
<path fill="none" stroke="#63b8ff" d="M716.07,-63C729.91,-63 744.63,-63 758.9,-63"/>
<polygon fill="#63b8ff" stroke="#63b8ff" points="759.2,-66.5 769.2,-63 759.2,-59.5 759.2,-66.5"/>
</a>
</g>
</g>
</g>
</svg>

<g id="navigator" transform="translate(0 0)" fill="#404254">
  <rect fill="#f2f5e9" fill-opacity="0.5" stroke="#606060" stroke-width=".5" x="0" y="0" width="60" height="60"/>
  <use id="zoomplus" xlink:href="#zoomPlus" x="17" y="9" onmousedown="handleZoom(evt,'in')"/>
  <use id="zoomminus" xlink:href="#zoomMin" x="42" y="9" onmousedown="handleZoom(evt,'out')"/>
  <use id="reset" xlink:href="#resetDef" x="30" y="36" onmousedown="handleReset()"/>
   <use id="arrowup" xlink:href="#arrowUp" x="0" y="0" onmousedown="handlePan(0,-1)"/>
  <use id="arrowright" xlink:href="#arrowRight" x="0" y="0" onmousedown="handlePan(1,0)"/>
  <use id="arrowdown" xlink:href="#arrowDown" x="0" y="0" onmousedown="handlePan(0,1)"/>
  <use id="arrowleft" xlink:href="#arrowLeft" x="0" y="0" onmousedown="handlePan(-1,0)"/>
</g>
<svg viewBox="0 0 15 15" width="100%" height="30px" preserveAspectRatio="xMaxYMin meet">
 <g id="arrow_out" transform="scale(0.3 0.3)">
  <a xlink:href="classTerraria_1_1DelegateMethods_1_1Minecart_a29d3691200d9e6c758757a3acdc5b943_a29d3691200d9e6c758757a3acdc5b943_cgraph_org.svg" target="_base">
   <rect id="button" ry="5" rx="5" y="6" x="6" height="38" width="38"
        fill="#f2f5e9" fill-opacity="0.5" stroke="#606060" stroke-width="1.0"/>
   <path id="arrow"
     d="M 11.500037,31.436501 C 11.940474,20.09759 22.043105,11.32322 32.158766,21.979434 L 37.068811,17.246167 C 37.068811,17.246167 37.088388,32 37.088388,32 L 22.160133,31.978069 C 22.160133,31.978069 26.997745,27.140456 26.997745,27.140456 C 18.528582,18.264221 13.291696,25.230495 11.500037,31.436501 z"
     style="fill:#404040;"/>
  </a>
 </g>
</svg>

<style type='text/css'>
<![CDATA[
[data-mouse-over-selected='false'] { opacity: 0.7; }
[data-mouse-over-selected='true']  { opacity: 1.0; }
]]>
</style>
<script type="application/ecmascript"><![CDATA[
document.addEventListener('DOMContentLoaded', (event) => {
  highlightEdges();
  highlightAdjacentNodes();
});
]]></script>
</svg>
