<?xml version="1.0" encoding="UTF-8" standalone="no"?>
<!DOCTYPE svg PUBLIC "-//W3C//DTD SVG 1.1//EN"
 "http://www.w3.org/Graphics/SVG/1.1/DTD/svg11.dtd">
<!-- Generated by graphviz version 2.43.0 (0)
 -->
<!-- Title: CreativePowers.StartNoonImmediately.UsePower Pages: 1 -->
<svg width="1102pt" height="1121pt"
 viewBox="0.00 0.00 1102.00 1121.00" xmlns="http://www.w3.org/2000/svg" xmlns:xlink="http://www.w3.org/1999/xlink">
<g id="graph0" class="graph" transform="scale(1 1) rotate(0) translate(4 1117)">
<title>CreativePowers.StartNoonImmediately.UsePower</title>
<polygon fill="white" stroke="transparent" points="-4,4 -4,-1117 1098,-1117 1098,4 -4,4"/>
<!-- Node1 -->
<g id="node1" class="node">
<title>Node1</title>
<g id="a_node1"><a xlink:title=" ">
<polygon fill="#bfbfbf" stroke="black" points="0,-714 0,-744 145,-744 145,-714 0,-714"/>
<text text-anchor="start" x="8" y="-732" font-family="Helvetica,sans-Serif" font-size="10.00">CreativePowers.StartNoon</text>
<text text-anchor="middle" x="72.5" y="-721" font-family="Helvetica,sans-Serif" font-size="10.00">Immediately.UsePower</text>
</a>
</g>
</g>
<!-- Node2 -->
<g id="node2" class="node">
<title>Node2</title>
<g id="a_node2"><a xlink:href="../../db/d4a/classMain_a69bc77f716770e4310f454b4189e7642.html#a69bc77f716770e4310f454b4189e7642" target="_top" xlink:title=" ">
<polygon fill="white" stroke="black" points="181,-719.5 181,-738.5 281,-738.5 281,-719.5 181,-719.5"/>
<text text-anchor="middle" x="231" y="-726.5" font-family="Helvetica,sans-Serif" font-size="10.00">Main.SkipToTime</text>
</a>
</g>
</g>
<!-- Node1&#45;&gt;Node2 -->
<g id="edge1" class="edge">
<title>Node1&#45;&gt;Node2</title>
<path fill="none" stroke="midnightblue" d="M145.34,-729C153.91,-729 162.58,-729 170.94,-729"/>
<polygon fill="midnightblue" stroke="midnightblue" points="170.96,-732.5 180.96,-729 170.96,-725.5 170.96,-732.5"/>
</g>
<!-- Node3 -->
<g id="node3" class="node">
<title>Node3</title>
<g id="a_node3"><a xlink:href="../../db/d4a/classMain_a07f5576cb136387500d445ac7a03939d.html#a07f5576cb136387500d445ac7a03939d" target="_top" xlink:title=" ">
<polygon fill="white" stroke="black" points="317,-1017 317,-1047 475,-1047 475,-1017 317,-1017"/>
<text text-anchor="start" x="325" y="-1035" font-family="Helvetica,sans-Serif" font-size="10.00">Main.ShouldNormalEventsBe</text>
<text text-anchor="middle" x="396" y="-1024" font-family="Helvetica,sans-Serif" font-size="10.00">AbleToStart</text>
</a>
</g>
</g>
<!-- Node2&#45;&gt;Node3 -->
<g id="edge2" class="edge">
<title>Node2&#45;&gt;Node3</title>
<path fill="none" stroke="midnightblue" d="M235.31,-738.86C245.42,-768.44 277.63,-858.59 317,-927 334.22,-956.93 358.5,-988.34 375.38,-1008.93"/>
<polygon fill="midnightblue" stroke="midnightblue" points="372.82,-1011.32 381.9,-1016.78 378.21,-1006.85 372.82,-1011.32"/>
</g>
<!-- Node5 -->
<g id="node5" class="node">
<title>Node5</title>
<g id="a_node5"><a xlink:href="../../dc/d81/classNetMessage_a344370527d31705d2a91c8ee93465768.html#a344370527d31705d2a91c8ee93465768" target="_top" xlink:title=" ">
<polygon fill="white" stroke="black" points="325,-898.5 325,-917.5 467,-917.5 467,-898.5 325,-898.5"/>
<text text-anchor="middle" x="396" y="-905.5" font-family="Helvetica,sans-Serif" font-size="10.00">NetMessage.TrySendData</text>
</a>
</g>
</g>
<!-- Node2&#45;&gt;Node5 -->
<g id="edge4" class="edge">
<title>Node2&#45;&gt;Node5</title>
<path fill="none" stroke="midnightblue" d="M240.76,-738.62C267.08,-767.52 345.65,-853.8 379.36,-890.82"/>
<polygon fill="midnightblue" stroke="midnightblue" points="376.87,-893.29 386.19,-898.33 382.05,-888.58 376.87,-893.29"/>
</g>
<!-- Node66 -->
<g id="node26" class="node">
<title>Node66</title>
<g id="a_node26"><a xlink:href="../../db/d4a/classMain_a6ea1546b36d55d2684d10267b1e66955.html#a6ea1546b36d55d2684d10267b1e66955" target="_top" xlink:title=" ">
<polygon fill="white" stroke="black" points="320,-700.5 320,-719.5 472,-719.5 472,-700.5 320,-700.5"/>
<text text-anchor="middle" x="396" y="-707.5" font-family="Helvetica,sans-Serif" font-size="10.00">Main.UpdateTime_StartDay</text>
</a>
</g>
</g>
<!-- Node2&#45;&gt;Node66 -->
<g id="edge25" class="edge">
<title>Node2&#45;&gt;Node66</title>
<path fill="none" stroke="midnightblue" d="M281.35,-723.25C290.39,-722.19 300.06,-721.07 309.8,-719.93"/>
<polygon fill="midnightblue" stroke="midnightblue" points="310.42,-723.38 319.95,-718.75 309.61,-716.43 310.42,-723.38"/>
</g>
<!-- Node122 -->
<g id="node44" class="node">
<title>Node122</title>
<g id="a_node44"><a xlink:href="../../db/d4a/classMain_aee4bbc18f814966f98b3d5ce495cc616.html#aee4bbc18f814966f98b3d5ce495cc616" target="_top" xlink:title=" ">
<polygon fill="white" stroke="black" points="317,-278.5 317,-297.5 475,-297.5 475,-278.5 317,-278.5"/>
<text text-anchor="middle" x="396" y="-285.5" font-family="Helvetica,sans-Serif" font-size="10.00">Main.UpdateTime_StartNight</text>
</a>
</g>
</g>
<!-- Node2&#45;&gt;Node122 -->
<g id="edge47" class="edge">
<title>Node2&#45;&gt;Node122</title>
<path fill="none" stroke="midnightblue" d="M235.56,-719.38C256.06,-663.91 359.23,-384.77 387.71,-307.72"/>
<polygon fill="midnightblue" stroke="midnightblue" points="391.17,-308.47 391.35,-297.87 384.6,-306.04 391.17,-308.47"/>
</g>
<!-- Node4 -->
<g id="node4" class="node">
<title>Node4</title>
<g id="a_node4"><a xlink:href="../../de/d71/classNPC_ac2825cb01f6e95f6e025f09993ef6914.html#ac2825cb01f6e95f6e025f09993ef6914" target="_top" xlink:title=" ">
<polygon fill="white" stroke="black" points="562.5,-1084.5 562.5,-1103.5 646.5,-1103.5 646.5,-1084.5 562.5,-1084.5"/>
<text text-anchor="middle" x="604.5" y="-1091.5" font-family="Helvetica,sans-Serif" font-size="10.00">NPC.AnyNPCs</text>
</a>
</g>
</g>
<!-- Node3&#45;&gt;Node4 -->
<g id="edge3" class="edge">
<title>Node3&#45;&gt;Node4</title>
<path fill="none" stroke="midnightblue" d="M439.82,-1047.04C461.11,-1054.32 487.3,-1062.98 511,-1070 524.95,-1074.13 540.2,-1078.25 554.22,-1081.88"/>
<polygon fill="midnightblue" stroke="midnightblue" points="553.62,-1085.34 564.18,-1084.43 555.36,-1078.55 553.62,-1085.34"/>
</g>
<!-- Node6 -->
<g id="node6" class="node">
<title>Node6</title>
<g id="a_node6"><a xlink:href="../../dc/d81/classNetMessage_aae9f950a067b8cd26edda26e73a41b2d.html#aae9f950a067b8cd26edda26e73a41b2d" target="_top" xlink:title=" ">
<polygon fill="white" stroke="red" points="745,-727.5 745,-746.5 873,-746.5 873,-727.5 745,-727.5"/>
<text text-anchor="middle" x="809" y="-734.5" font-family="Helvetica,sans-Serif" font-size="10.00">NetMessage.SendData</text>
</a>
</g>
</g>
<!-- Node5&#45;&gt;Node6 -->
<g id="edge5" class="edge">
<title>Node5&#45;&gt;Node6</title>
<path fill="none" stroke="midnightblue" d="M403.95,-917.75C424.01,-945.56 482.39,-1024.1 511,-1037 586.77,-1071.16 629.86,-1084.59 698,-1037 793.11,-970.57 806.23,-812.48 807.85,-756.81"/>
<polygon fill="midnightblue" stroke="midnightblue" points="811.36,-756.62 808.05,-746.56 804.36,-756.49 811.36,-756.62"/>
</g>
<!-- Node7 -->
<g id="node7" class="node">
<title>Node7</title>
<g id="a_node7"><a xlink:href="../../d6/dba/classTile_a64e4b5e9c17707d5bf63cf590bb48c9b.html#a64e4b5e9c17707d5bf63cf590bb48c9b" target="_top" xlink:title=" ">
<polygon fill="white" stroke="black" points="973,-1093.5 973,-1112.5 1041,-1112.5 1041,-1093.5 973,-1093.5"/>
<text text-anchor="middle" x="1007" y="-1100.5" font-family="Helvetica,sans-Serif" font-size="10.00">Tile.active</text>
</a>
</g>
</g>
<!-- Node6&#45;&gt;Node7 -->
<g id="edge6" class="edge">
<title>Node6&#45;&gt;Node7</title>
<path fill="none" stroke="midnightblue" d="M809.83,-746.51C809.59,-791.85 814.82,-987.84 920,-1084 931.55,-1094.56 947.62,-1099.72 962.74,-1102.1"/>
<polygon fill="midnightblue" stroke="midnightblue" points="962.65,-1105.61 972.99,-1103.33 963.48,-1098.66 962.65,-1105.61"/>
</g>
<!-- Node8 -->
<g id="node8" class="node">
<title>Node8</title>
<g id="a_node8"><a xlink:href="../../d6/dba/classTile_aaf7a749e2f172ceb884144afc820ba05.html#aaf7a749e2f172ceb884144afc820ba05" target="_top" xlink:title=" ">
<polygon fill="white" stroke="black" points="968,-1055.5 968,-1074.5 1046,-1074.5 1046,-1055.5 968,-1055.5"/>
<text text-anchor="middle" x="1007" y="-1062.5" font-family="Helvetica,sans-Serif" font-size="10.00">Tile.actuator</text>
</a>
</g>
</g>
<!-- Node6&#45;&gt;Node8 -->
<g id="edge7" class="edge">
<title>Node6&#45;&gt;Node8</title>
<path fill="none" stroke="midnightblue" d="M810.25,-746.6C811.93,-789.09 824.58,-961.78 920,-1046 930.32,-1055.11 944.02,-1060.16 957.45,-1062.88"/>
<polygon fill="midnightblue" stroke="midnightblue" points="957.17,-1066.39 967.6,-1064.54 958.3,-1059.48 957.17,-1066.39"/>
</g>
<!-- Node9 -->
<g id="node9" class="node">
<title>Node9</title>
<g id="a_node9"><a xlink:href="../../dd/dc4/interfaceISocket_a511af46ee3de67c1203113b24bb71d07.html#a511af46ee3de67c1203113b24bb71d07" target="_top" xlink:title=" ">
<polygon fill="white" stroke="black" points="953,-1017.5 953,-1036.5 1061,-1036.5 1061,-1017.5 953,-1017.5"/>
<text text-anchor="middle" x="1007" y="-1024.5" font-family="Helvetica,sans-Serif" font-size="10.00">ISocket.AsyncSend</text>
</a>
</g>
</g>
<!-- Node6&#45;&gt;Node9 -->
<g id="edge8" class="edge">
<title>Node6&#45;&gt;Node9</title>
<path fill="none" stroke="midnightblue" d="M810.8,-746.75C814.58,-786.24 834.27,-935.59 920,-1008 926.71,-1013.66 934.73,-1017.74 943.14,-1020.66"/>
<polygon fill="midnightblue" stroke="midnightblue" points="942.17,-1024.02 952.75,-1023.49 944.14,-1017.31 942.17,-1024.02"/>
</g>
<!-- Node10 -->
<g id="node10" class="node">
<title>Node10</title>
<g id="a_node10"><a xlink:href="../../d3/d0e/classRemoteServer_a42c60d555de36d82c304afacb843109c.html#a42c60d555de36d82c304afacb843109c" target="_top" xlink:title=" ">
<polygon fill="white" stroke="black" points="935.5,-968 935.5,-998 1078.5,-998 1078.5,-968 935.5,-968"/>
<text text-anchor="start" x="943.5" y="-986" font-family="Helvetica,sans-Serif" font-size="10.00">RemoteServer.ClientWrite</text>
<text text-anchor="middle" x="1007" y="-975" font-family="Helvetica,sans-Serif" font-size="10.00">CallBack</text>
</a>
</g>
</g>
<!-- Node6&#45;&gt;Node10 -->
<g id="edge9" class="edge">
<title>Node6&#45;&gt;Node10</title>
<path fill="none" stroke="midnightblue" d="M811.91,-746.67C819.22,-781.04 848.62,-898.38 920,-958 922.04,-959.7 924.18,-961.29 926.42,-962.76"/>
<polygon fill="midnightblue" stroke="midnightblue" points="925,-965.99 935.41,-967.94 928.49,-959.92 925,-965.99"/>
</g>
<!-- Node11 -->
<g id="node11" class="node">
<title>Node11</title>
<g id="a_node11"><a xlink:href="../../d6/dba/classTile_aab901c8f842b5afa78ab3605f6c5d542.html#aab901c8f842b5afa78ab3605f6c5d542" target="_top" xlink:title=" ">
<polygon fill="white" stroke="black" points="976,-929.5 976,-948.5 1038,-948.5 1038,-929.5 976,-929.5"/>
<text text-anchor="middle" x="1007" y="-936.5" font-family="Helvetica,sans-Serif" font-size="10.00">Tile.color</text>
</a>
</g>
</g>
<!-- Node6&#45;&gt;Node11 -->
<g id="edge10" class="edge">
<title>Node6&#45;&gt;Node11</title>
<path fill="none" stroke="midnightblue" d="M812.84,-746.85C822.32,-777.83 855.9,-873.9 920,-920 933.11,-929.43 950.04,-934.31 965.41,-936.8"/>
<polygon fill="midnightblue" stroke="midnightblue" points="965.36,-940.32 975.74,-938.16 966.28,-933.38 965.36,-940.32"/>
</g>
<!-- Node12 -->
<g id="node12" class="node">
<title>Node12</title>
<g id="a_node12"><a xlink:href="../../dc/d81/classNetMessage_aeb123127a7678b0a62966969dd5435e3.html#aeb123127a7678b0a62966969dd5435e3" target="_top" xlink:title=" ">
<polygon fill="white" stroke="red" points="920,-891.5 920,-910.5 1094,-910.5 1094,-891.5 920,-891.5"/>
<text text-anchor="middle" x="1007" y="-898.5" font-family="Helvetica,sans-Serif" font-size="10.00">NetMessage.CompressTileBlock</text>
</a>
</g>
</g>
<!-- Node6&#45;&gt;Node12 -->
<g id="edge11" class="edge">
<title>Node6&#45;&gt;Node12</title>
<path fill="none" stroke="midnightblue" d="M814.31,-746.64C826.63,-772.99 864.65,-846.55 920,-882 923.31,-884.12 926.82,-886.01 930.46,-887.68"/>
<polygon fill="midnightblue" stroke="midnightblue" points="929.15,-890.93 939.73,-891.44 931.78,-884.44 929.15,-890.93"/>
</g>
<!-- Node43 -->
<g id="node13" class="node">
<title>Node43</title>
<g id="a_node13"><a xlink:href="../../d1/d6d/interfaceINetDiagnosticsUI_a076e65303a310f5c718916c3d433c966.html#a076e65303a310f5c718916c3d433c966" target="_top" xlink:title=" ">
<polygon fill="white" stroke="black" points="928,-842 928,-872 1086,-872 1086,-842 928,-842"/>
<text text-anchor="start" x="936" y="-860" font-family="Helvetica,sans-Serif" font-size="10.00">INetDiagnosticsUI.CountSent</text>
<text text-anchor="middle" x="1007" y="-849" font-family="Helvetica,sans-Serif" font-size="10.00">Message</text>
</a>
</g>
</g>
<!-- Node6&#45;&gt;Node43 -->
<g id="edge12" class="edge">
<title>Node6&#45;&gt;Node43</title>
<path fill="none" stroke="midnightblue" d="M818.4,-746.61C835.57,-765.69 876.76,-808.51 920,-832 924.14,-834.25 928.5,-836.31 932.97,-838.21"/>
<polygon fill="midnightblue" stroke="midnightblue" points="931.7,-841.47 942.28,-841.86 934.25,-834.95 931.7,-841.47"/>
</g>
<!-- Node22 -->
<g id="node14" class="node">
<title>Node22</title>
<g id="a_node14"><a xlink:href="../../d6/dba/classTile_ac1019500ca7fcafcb5b51f226fec3686.html#ac1019500ca7fcafcb5b51f226fec3686" target="_top" xlink:title=" ">
<polygon fill="white" stroke="black" points="952.5,-803.5 952.5,-822.5 1061.5,-822.5 1061.5,-803.5 952.5,-803.5"/>
<text text-anchor="middle" x="1007" y="-810.5" font-family="Helvetica,sans-Serif" font-size="10.00">Tile.fullbrightBlock</text>
</a>
</g>
</g>
<!-- Node6&#45;&gt;Node22 -->
<g id="edge13" class="edge">
<title>Node6&#45;&gt;Node22</title>
<path fill="none" stroke="midnightblue" d="M825.44,-746.66C846.2,-759.25 884.61,-781.17 920,-794 927.28,-796.64 935.04,-798.98 942.81,-801.03"/>
<polygon fill="midnightblue" stroke="midnightblue" points="942.07,-804.45 952.62,-803.48 943.77,-797.66 942.07,-804.45"/>
</g>
<!-- Node23 -->
<g id="node15" class="node">
<title>Node23</title>
<g id="a_node15"><a xlink:href="../../d6/dba/classTile_a6771973d2404aad67503906dc8131567.html#a6771973d2404aad67503906dc8131567" target="_top" xlink:title=" ">
<polygon fill="white" stroke="black" points="955.5,-765.5 955.5,-784.5 1058.5,-784.5 1058.5,-765.5 955.5,-765.5"/>
<text text-anchor="middle" x="1007" y="-772.5" font-family="Helvetica,sans-Serif" font-size="10.00">Tile.fullbrightWall</text>
</a>
</g>
</g>
<!-- Node6&#45;&gt;Node23 -->
<g id="edge14" class="edge">
<title>Node6&#45;&gt;Node23</title>
<path fill="none" stroke="midnightblue" d="M859.21,-746.54C885.77,-751.69 918.75,-758.08 946.72,-763.51"/>
<polygon fill="midnightblue" stroke="midnightblue" points="946.29,-766.99 956.77,-765.46 947.62,-760.12 946.29,-766.99"/>
</g>
<!-- Node44 -->
<g id="node16" class="node">
<title>Node44</title>
<g id="a_node16"><a xlink:href="../../d5/ded/classNetSocialModule_af0090e196791182cf907e4bd9a55412f.html#af0090e196791182cf907e4bd9a55412f" target="_top" xlink:title=" ">
<polygon fill="white" stroke="black" points="928,-727.5 928,-746.5 1086,-746.5 1086,-727.5 928,-727.5"/>
<text text-anchor="middle" x="1007" y="-734.5" font-family="Helvetica,sans-Serif" font-size="10.00">NetSocialModule.GetLobbyId</text>
</a>
</g>
</g>
<!-- Node6&#45;&gt;Node44 -->
<g id="edge15" class="edge">
<title>Node6&#45;&gt;Node44</title>
<path fill="none" stroke="midnightblue" d="M873.09,-737C887.28,-737 902.59,-737 917.59,-737"/>
<polygon fill="midnightblue" stroke="midnightblue" points="917.91,-740.5 927.91,-737 917.91,-733.5 917.91,-740.5"/>
</g>
<!-- Node45 -->
<g id="node17" class="node">
<title>Node45</title>
<g id="a_node17"><a xlink:href="../../de/d71/classNPC_a4c39a8890e0e18375e6ab1ef2365b0d1.html#a4c39a8890e0e18375e6ab1ef2365b0d1" target="_top" xlink:title=" ">
<polygon fill="white" stroke="black" points="968.5,-689.5 968.5,-708.5 1045.5,-708.5 1045.5,-689.5 968.5,-689.5"/>
<text text-anchor="middle" x="1007" y="-696.5" font-family="Helvetica,sans-Serif" font-size="10.00">NPC.getRect</text>
</a>
</g>
</g>
<!-- Node6&#45;&gt;Node45 -->
<g id="edge16" class="edge">
<title>Node6&#45;&gt;Node45</title>
<path fill="none" stroke="midnightblue" d="M859.21,-727.46C889.57,-721.57 928.31,-714.06 958.38,-708.23"/>
<polygon fill="midnightblue" stroke="midnightblue" points="959.06,-711.67 968.21,-706.33 957.73,-704.79 959.06,-711.67"/>
</g>
<!-- Node46 -->
<g id="node18" class="node">
<title>Node46</title>
<g id="a_node18"><a xlink:href="../../d2/d4b/classPlayer_af6df066c2c1b4e670be718cb58b66968.html#af6df066c2c1b4e670be718cb58b66968" target="_top" xlink:title=" ">
<polygon fill="white" stroke="black" points="963.5,-651.5 963.5,-670.5 1050.5,-670.5 1050.5,-651.5 963.5,-651.5"/>
<text text-anchor="middle" x="1007" y="-658.5" font-family="Helvetica,sans-Serif" font-size="10.00">Player.getRect</text>
</a>
</g>
</g>
<!-- Node6&#45;&gt;Node46 -->
<g id="edge17" class="edge">
<title>Node6&#45;&gt;Node46</title>
<path fill="none" stroke="midnightblue" d="M825.44,-727.34C846.2,-714.75 884.61,-692.83 920,-680 930.57,-676.17 942.15,-672.97 953.31,-670.36"/>
<polygon fill="midnightblue" stroke="midnightblue" points="954.38,-673.71 963.38,-668.13 952.86,-666.87 954.38,-673.71"/>
</g>
<!-- Node47 -->
<g id="node19" class="node">
<title>Node47</title>
<g id="a_node19"><a xlink:href="../../d9/d4b/classProjectile_a0133e73e3ee32fc8aae1c7fdb6bb4cde.html#a0133e73e3ee32fc8aae1c7fdb6bb4cde" target="_top" xlink:title=" ">
<polygon fill="white" stroke="black" points="955.5,-613.5 955.5,-632.5 1058.5,-632.5 1058.5,-613.5 955.5,-613.5"/>
<text text-anchor="middle" x="1007" y="-620.5" font-family="Helvetica,sans-Serif" font-size="10.00">Projectile.getRect</text>
</a>
</g>
</g>
<!-- Node6&#45;&gt;Node47 -->
<g id="edge18" class="edge">
<title>Node6&#45;&gt;Node47</title>
<path fill="none" stroke="midnightblue" d="M818.01,-727.44C834.8,-708.08 875.79,-664.17 920,-642 927.94,-638.02 936.71,-634.86 945.53,-632.36"/>
<polygon fill="midnightblue" stroke="midnightblue" points="946.63,-635.69 955.45,-629.82 944.89,-628.91 946.63,-635.69"/>
</g>
<!-- Node48 -->
<g id="node20" class="node">
<title>Node48</title>
<g id="a_node20"><a xlink:href="../../dd/dc4/interfaceISocket_acd5af726d37763775e8b7e204378c039.html#acd5af726d37763775e8b7e204378c039" target="_top" xlink:title=" ">
<polygon fill="white" stroke="black" points="932.5,-575.5 932.5,-594.5 1081.5,-594.5 1081.5,-575.5 932.5,-575.5"/>
<text text-anchor="middle" x="1007" y="-582.5" font-family="Helvetica,sans-Serif" font-size="10.00">ISocket.GetRemoteAddress</text>
</a>
</g>
</g>
<!-- Node6&#45;&gt;Node48 -->
<g id="edge19" class="edge">
<title>Node6&#45;&gt;Node48</title>
<path fill="none" stroke="midnightblue" d="M814.92,-727.45C828.2,-702.69 867.33,-636.19 920,-604 923.6,-601.8 927.41,-599.86 931.37,-598.14"/>
<polygon fill="midnightblue" stroke="midnightblue" points="932.71,-601.37 940.79,-594.51 930.2,-594.84 932.71,-601.37"/>
</g>
<!-- Node49 -->
<g id="node21" class="node">
<title>Node49</title>
<g id="a_node21"><a xlink:href="../../d9/d43/classNetplay_ab61acde52f6e2c8d92b5816ba67ccadf.html#ab61acde52f6e2c8d92b5816ba67ccadf" target="_top" xlink:title=" ">
<polygon fill="white" stroke="black" points="949,-537.5 949,-556.5 1065,-556.5 1065,-537.5 949,-537.5"/>
<text text-anchor="middle" x="1007" y="-544.5" font-family="Helvetica,sans-Serif" font-size="10.00">Netplay.GetSectionX</text>
</a>
</g>
</g>
<!-- Node6&#45;&gt;Node49 -->
<g id="edge20" class="edge">
<title>Node6&#45;&gt;Node49</title>
<path fill="none" stroke="midnightblue" d="M813.19,-727.37C823.45,-697.97 858.59,-608.77 920,-566 925.73,-562.01 932.16,-558.84 938.85,-556.32"/>
<polygon fill="midnightblue" stroke="midnightblue" points="940.36,-559.5 948.78,-553.08 938.19,-552.85 940.36,-559.5"/>
</g>
<!-- Node50 -->
<g id="node22" class="node">
<title>Node50</title>
<g id="a_node22"><a xlink:href="../../d9/d43/classNetplay_a5d153f58e51f26baa5e12b5e6d86c56b.html#a5d153f58e51f26baa5e12b5e6d86c56b" target="_top" xlink:title=" ">
<polygon fill="white" stroke="black" points="949,-499.5 949,-518.5 1065,-518.5 1065,-499.5 949,-499.5"/>
<text text-anchor="middle" x="1007" y="-506.5" font-family="Helvetica,sans-Serif" font-size="10.00">Netplay.GetSectionY</text>
</a>
</g>
</g>
<!-- Node6&#45;&gt;Node50 -->
<g id="edge21" class="edge">
<title>Node6&#45;&gt;Node50</title>
<path fill="none" stroke="midnightblue" d="M812.06,-727.22C819.69,-693.58 849.59,-581.73 920,-528 925.77,-523.6 932.35,-520.18 939.25,-517.52"/>
<polygon fill="midnightblue" stroke="midnightblue" points="940.41,-520.82 948.8,-514.36 938.21,-514.18 940.41,-520.82"/>
</g>
<!-- Node51 -->
<g id="node23" class="node">
<title>Node51</title>
<g id="a_node23"><a xlink:href="../../d0/d41/classLanguage_a9f392308c3f9927bacc3d83792b46408.html#a9f392308c3f9927bacc3d83792b46408" target="_top" xlink:title=" ">
<polygon fill="white" stroke="red" points="941.5,-461.5 941.5,-480.5 1072.5,-480.5 1072.5,-461.5 941.5,-461.5"/>
<text text-anchor="middle" x="1007" y="-468.5" font-family="Helvetica,sans-Serif" font-size="10.00">Language.GetTextValue</text>
</a>
</g>
</g>
<!-- Node6&#45;&gt;Node51 -->
<g id="edge22" class="edge">
<title>Node6&#45;&gt;Node51</title>
<path fill="none" stroke="midnightblue" d="M811.2,-727.34C816.37,-690.17 840.18,-555.16 920,-490 923.73,-486.96 927.84,-484.38 932.18,-482.19"/>
<polygon fill="midnightblue" stroke="midnightblue" points="933.58,-485.4 941.37,-478.23 930.81,-478.97 933.58,-485.4"/>
</g>
<!-- Node24 -->
<g id="node24" class="node">
<title>Node24</title>
<g id="a_node24"><a xlink:href="../../d6/dba/classTile_a975f34b33a09445dfd475309fdcfd6a0.html#a975f34b33a09445dfd475309fdcfd6a0" target="_top" xlink:title=" ">
<polygon fill="white" stroke="black" points="966.5,-423.5 966.5,-442.5 1047.5,-442.5 1047.5,-423.5 966.5,-423.5"/>
<text text-anchor="middle" x="1007" y="-430.5" font-family="Helvetica,sans-Serif" font-size="10.00">Tile.halfBrick</text>
</a>
</g>
</g>
<!-- Node6&#45;&gt;Node24 -->
<g id="edge23" class="edge">
<title>Node6&#45;&gt;Node24</title>
<path fill="none" stroke="midnightblue" d="M810.58,-727.31C813.56,-686.71 830.7,-528.74 920,-452 930.16,-443.26 943.45,-438.28 956.53,-435.51"/>
<polygon fill="midnightblue" stroke="midnightblue" points="957.18,-438.95 966.44,-433.79 955.99,-432.05 957.18,-438.95"/>
</g>
<!-- Node26 -->
<g id="node25" class="node">
<title>Node26</title>
<g id="a_node25"><a xlink:href="../../d6/dba/classTile_abb2a30463eddd9cbdc91f329d2aa4bf8.html#abb2a30463eddd9cbdc91f329d2aa4bf8" target="_top" xlink:title=" ">
<polygon fill="white" stroke="black" points="968.5,-385.5 968.5,-404.5 1045.5,-404.5 1045.5,-385.5 968.5,-385.5"/>
<text text-anchor="middle" x="1007" y="-392.5" font-family="Helvetica,sans-Serif" font-size="10.00">Tile.inActive</text>
</a>
</g>
</g>
<!-- Node6&#45;&gt;Node26 -->
<g id="edge24" class="edge">
<title>Node6&#45;&gt;Node26</title>
<path fill="none" stroke="midnightblue" d="M810.09,-727.27C811.06,-683.42 821.12,-502.49 920,-414 930.54,-404.56 944.7,-399.47 958.48,-396.81"/>
<polygon fill="midnightblue" stroke="midnightblue" points="959.05,-400.26 968.4,-395.27 957.98,-393.34 959.05,-400.26"/>
</g>
<!-- Node66&#45;&gt;Node6 -->
<g id="edge40" class="edge">
<title>Node66&#45;&gt;Node6</title>
<path fill="none" stroke="midnightblue" d="M401.23,-719.68C421.19,-765.38 505.33,-957.35 511,-961 580.87,-1006.01 627.46,-1004.95 698,-961 772.24,-914.75 797.8,-802.13 805.28,-756.59"/>
<polygon fill="midnightblue" stroke="midnightblue" points="808.77,-756.95 806.82,-746.54 801.85,-755.9 808.77,-756.95"/>
</g>
<!-- Node67 -->
<g id="node27" class="node">
<title>Node67</title>
<g id="a_node27"><a xlink:href="../../db/d4a/classMain_a4d4941cfa6d2a4d956642ffacb02ba4c.html#a4d4941cfa6d2a4d956642ffacb02ba4c" target="_top" xlink:title=" ">
<polygon fill="white" stroke="red" points="539.5,-605.5 539.5,-624.5 669.5,-624.5 669.5,-605.5 539.5,-605.5"/>
<text text-anchor="middle" x="604.5" y="-612.5" font-family="Helvetica,sans-Serif" font-size="10.00">Main.AnglerQuestSwap</text>
</a>
</g>
</g>
<!-- Node66&#45;&gt;Node67 -->
<g id="edge26" class="edge">
<title>Node66&#45;&gt;Node67</title>
<path fill="none" stroke="midnightblue" d="M408.12,-700.41C427.59,-684.14 469.73,-651.22 511,-634 517.2,-631.41 523.79,-629.17 530.48,-627.22"/>
<polygon fill="midnightblue" stroke="midnightblue" points="531.57,-630.55 540.32,-624.57 529.75,-623.79 531.57,-630.55"/>
</g>
<!-- Node68 -->
<g id="node28" class="node">
<title>Node68</title>
<g id="a_node28"><a xlink:href="../../d6/d9a/classUnifiedRandom_a424f3e9455eb9b0a67085171d7d93d18.html#a424f3e9455eb9b0a67085171d7d93d18" target="_top" xlink:title=" ">
<polygon fill="white" stroke="red" points="750,-357.5 750,-376.5 868,-376.5 868,-357.5 750,-357.5"/>
<text text-anchor="middle" x="809" y="-364.5" font-family="Helvetica,sans-Serif" font-size="10.00">UnifiedRandom.Next</text>
</a>
</g>
</g>
<!-- Node66&#45;&gt;Node68 -->
<g id="edge36" class="edge">
<title>Node66&#45;&gt;Node68</title>
<path fill="none" stroke="midnightblue" d="M403.43,-700.49C419.01,-678.27 461.19,-622.76 511,-596 585.71,-555.87 629.19,-607.58 698,-558 758.73,-514.24 790.88,-425.84 802.66,-386.57"/>
<polygon fill="midnightblue" stroke="midnightblue" points="806.05,-387.45 805.45,-376.87 799.32,-385.51 806.05,-387.45"/>
</g>
<!-- Node73 -->
<g id="node29" class="node">
<title>Node73</title>
<g id="a_node29"><a xlink:href="../../d0/d78/classChatHelper_a7bf3083fca81823cad87fbce6f3686d5.html#a7bf3083fca81823cad87fbce6f3686d5" target="_top" xlink:title=" ">
<polygon fill="white" stroke="red" points="532,-431 532,-461 677,-461 677,-431 532,-431"/>
<text text-anchor="start" x="540" y="-449" font-family="Helvetica,sans-Serif" font-size="10.00">ChatHelper.BroadcastChat</text>
<text text-anchor="middle" x="604.5" y="-438" font-family="Helvetica,sans-Serif" font-size="10.00">Message</text>
</a>
</g>
</g>
<!-- Node66&#45;&gt;Node73 -->
<g id="edge28" class="edge">
<title>Node66&#45;&gt;Node73</title>
<path fill="none" stroke="midnightblue" d="M398.7,-700.01C405.48,-663.36 434.02,-535.17 511,-471 514.55,-468.04 518.41,-465.44 522.48,-463.13"/>
<polygon fill="midnightblue" stroke="midnightblue" points="524.28,-466.15 531.68,-458.57 521.17,-459.88 524.28,-466.15"/>
</g>
<!-- Node97 -->
<g id="node30" class="node">
<title>Node97</title>
<g id="a_node30"><a xlink:href="../../db/d4a/classMain_a04f6e03aab713e4084058e04edf13d84.html#a04f6e03aab713e4084058e04edf13d84" target="_top" xlink:title=" ">
<polygon fill="white" stroke="red" points="516.5,-807 516.5,-837 692.5,-837 692.5,-807 516.5,-807"/>
<text text-anchor="start" x="524.5" y="-825" font-family="Helvetica,sans-Serif" font-size="10.00">Main.CheckForMoonEventsScore</text>
<text text-anchor="middle" x="604.5" y="-814" font-family="Helvetica,sans-Serif" font-size="10.00">Display</text>
</a>
</g>
</g>
<!-- Node66&#45;&gt;Node97 -->
<g id="edge29" class="edge">
<title>Node66&#45;&gt;Node97</title>
<path fill="none" stroke="midnightblue" d="M406.44,-719.51C424.88,-737.53 467.67,-776.77 511,-798 515.05,-799.98 519.28,-801.82 523.61,-803.51"/>
<polygon fill="midnightblue" stroke="midnightblue" points="522.62,-806.87 533.21,-806.99 525,-800.29 522.62,-806.87"/>
</g>
<!-- Node101 -->
<g id="node31" class="node">
<title>Node101</title>
<g id="a_node31"><a xlink:href="../../db/d4a/classMain_acfc3141af6ff2a3e716df594e0e32446.html#acfc3141af6ff2a3e716df594e0e32446" target="_top" xlink:title=" ">
<polygon fill="white" stroke="red" points="511,-758 511,-788 698,-788 698,-758 511,-758"/>
<text text-anchor="start" x="519" y="-776" font-family="Helvetica,sans-Serif" font-size="10.00">Main.CheckForMoonEventsStarting</text>
<text text-anchor="middle" x="604.5" y="-765" font-family="Helvetica,sans-Serif" font-size="10.00">TemporarySeasons</text>
</a>
</g>
</g>
<!-- Node66&#45;&gt;Node101 -->
<g id="edge30" class="edge">
<title>Node66&#45;&gt;Node101</title>
<path fill="none" stroke="midnightblue" d="M424.04,-719.5C447.05,-727.47 481.04,-738.97 511,-748 519.01,-750.42 527.45,-752.85 535.83,-755.2"/>
<polygon fill="midnightblue" stroke="midnightblue" points="535.05,-758.61 545.62,-757.91 536.92,-751.87 535.05,-758.61"/>
</g>
<!-- Node102 -->
<g id="node32" class="node">
<title>Node102</title>
<g id="a_node32"><a xlink:href="../../db/d4a/classMain_ad1ac58351198a190b5acc65a77799df8.html#ad1ac58351198a190b5acc65a77799df8" target="_top" xlink:title=" ">
<polygon fill="white" stroke="black" points="542.5,-719.5 542.5,-738.5 666.5,-738.5 666.5,-719.5 542.5,-719.5"/>
<text text-anchor="middle" x="604.5" y="-726.5" font-family="Helvetica,sans-Serif" font-size="10.00">Main.checkHalloween</text>
</a>
</g>
</g>
<!-- Node66&#45;&gt;Node102 -->
<g id="edge31" class="edge">
<title>Node66&#45;&gt;Node102</title>
<path fill="none" stroke="midnightblue" d="M472.14,-716.91C491.78,-718.72 512.89,-720.66 532.31,-722.45"/>
<polygon fill="midnightblue" stroke="midnightblue" points="532.02,-725.94 542.3,-723.37 532.67,-718.97 532.02,-725.94"/>
</g>
<!-- Node103 -->
<g id="node33" class="node">
<title>Node103</title>
<g id="a_node33"><a xlink:href="../../d8/d50/classBirthdayParty_a82dbbaf923b230f35b8c0d2522ebf3c8.html#a82dbbaf923b230f35b8c0d2522ebf3c8" target="_top" xlink:title=" ">
<polygon fill="white" stroke="red" points="527.5,-681.5 527.5,-700.5 681.5,-700.5 681.5,-681.5 527.5,-681.5"/>
<text text-anchor="middle" x="604.5" y="-688.5" font-family="Helvetica,sans-Serif" font-size="10.00">BirthdayParty.CheckMorning</text>
</a>
</g>
</g>
<!-- Node66&#45;&gt;Node103 -->
<g id="edge32" class="edge">
<title>Node66&#45;&gt;Node103</title>
<path fill="none" stroke="midnightblue" d="M472.14,-703.09C486.75,-701.74 502.18,-700.32 517.13,-698.95"/>
<polygon fill="midnightblue" stroke="midnightblue" points="517.74,-702.41 527.38,-698 517.1,-695.43 517.74,-702.41"/>
</g>
<!-- Node112 -->
<g id="node34" class="node">
<title>Node112</title>
<g id="a_node34"><a xlink:href="../../d6/dad/classLanternNight_ae0009f1b3d3d6d9dd6d6da2f652a7142.html#ae0009f1b3d3d6d9dd6d6da2f652a7142" target="_top" xlink:title=" ">
<polygon fill="white" stroke="black" points="528.5,-1008.5 528.5,-1027.5 680.5,-1027.5 680.5,-1008.5 528.5,-1008.5"/>
<text text-anchor="middle" x="604.5" y="-1015.5" font-family="Helvetica,sans-Serif" font-size="10.00">LanternNight.CheckMorning</text>
</a>
</g>
</g>
<!-- Node66&#45;&gt;Node112 -->
<g id="edge33" class="edge">
<title>Node66&#45;&gt;Node112</title>
<path fill="none" stroke="midnightblue" d="M401.5,-719.59C413.93,-746.19 449.46,-823.28 475,-889 492.87,-934.98 474.81,-960.47 511,-994 515.18,-997.88 519.91,-1001.14 524.96,-1003.9"/>
<polygon fill="midnightblue" stroke="midnightblue" points="523.82,-1007.22 534.35,-1008.32 526.8,-1000.89 523.82,-1007.22"/>
</g>
<!-- Node113 -->
<g id="node35" class="node">
<title>Node113</title>
<g id="a_node35"><a xlink:href="../../db/d4a/classMain_a4046ceb5d7f048a136f46d7a1fca17c4.html#a4046ceb5d7f048a136f46d7a1fca17c4" target="_top" xlink:title=" ">
<polygon fill="white" stroke="black" points="555,-932.5 555,-951.5 654,-951.5 654,-932.5 555,-932.5"/>
<text text-anchor="middle" x="604.5" y="-939.5" font-family="Helvetica,sans-Serif" font-size="10.00">Main.checkXMas</text>
</a>
</g>
</g>
<!-- Node66&#45;&gt;Node113 -->
<g id="edge34" class="edge">
<title>Node66&#45;&gt;Node113</title>
<path fill="none" stroke="midnightblue" d="M399.05,-719.53C406.86,-753.37 438.05,-868.57 511,-923 520.75,-930.28 532.62,-934.93 544.57,-937.87"/>
<polygon fill="midnightblue" stroke="midnightblue" points="544.07,-941.34 554.57,-939.96 545.5,-934.49 544.07,-941.34"/>
</g>
<!-- Node114 -->
<g id="node36" class="node">
<title>Node114</title>
<g id="a_node36"><a xlink:href="../../db/d4a/classMain_a4b57a708788344d768b0cfc846b5dd6c.html#a4b57a708788344d768b0cfc846b5dd6c" target="_top" xlink:title=" ">
<polygon fill="white" stroke="red" points="561.5,-392.5 561.5,-411.5 647.5,-411.5 647.5,-392.5 561.5,-392.5"/>
<text text-anchor="middle" x="604.5" y="-399.5" font-family="Helvetica,sans-Serif" font-size="10.00">Main.NewText</text>
</a>
</g>
</g>
<!-- Node66&#45;&gt;Node114 -->
<g id="edge35" class="edge">
<title>Node66&#45;&gt;Node114</title>
<path fill="none" stroke="midnightblue" d="M397.66,-700.47C401,-659.81 419.75,-499.39 511,-422 522.3,-412.42 537.12,-407.1 551.57,-404.24"/>
<polygon fill="midnightblue" stroke="midnightblue" points="552.17,-407.69 561.48,-402.63 551.04,-400.78 552.17,-407.69"/>
</g>
<!-- Node107 -->
<g id="node37" class="node">
<title>Node107</title>
<g id="a_node37"><a xlink:href="../../d8/d8c/classAchievementsHelper_aac71600d06e9467ca6c12c212e9ac229.html#aac71600d06e9467ca6c12c212e9ac229" target="_top" xlink:title=" ">
<polygon fill="white" stroke="black" points="529.5,-480 529.5,-510 679.5,-510 679.5,-480 529.5,-480"/>
<text text-anchor="start" x="537.5" y="-498" font-family="Helvetica,sans-Serif" font-size="10.00">AchievementsHelper.Notify</text>
<text text-anchor="middle" x="604.5" y="-487" font-family="Helvetica,sans-Serif" font-size="10.00">ProgressionEvent</text>
</a>
</g>
</g>
<!-- Node66&#45;&gt;Node107 -->
<g id="edge37" class="edge">
<title>Node66&#45;&gt;Node107</title>
<path fill="none" stroke="midnightblue" d="M399.9,-700.34C409.79,-669.06 445.32,-569.63 511,-520 513.96,-517.76 517.11,-515.72 520.39,-513.87"/>
<polygon fill="midnightblue" stroke="midnightblue" points="521.97,-516.99 529.34,-509.37 518.83,-510.73 521.97,-516.99"/>
</g>
<!-- Node116 -->
<g id="node38" class="node">
<title>Node116</title>
<g id="a_node38"><a xlink:href="../../db/de4/classWorldGen_ac4d119a98716762e586e5b6a47786939.html#ac4d119a98716762e586e5b6a47786939" target="_top" xlink:title=" ">
<polygon fill="white" stroke="black" points="530,-894.5 530,-913.5 679,-913.5 679,-894.5 530,-894.5"/>
<text text-anchor="middle" x="604.5" y="-901.5" font-family="Helvetica,sans-Serif" font-size="10.00">WorldGen.ResetTreeShakes</text>
</a>
</g>
</g>
<!-- Node66&#45;&gt;Node116 -->
<g id="edge39" class="edge">
<title>Node66&#45;&gt;Node116</title>
<path fill="none" stroke="midnightblue" d="M400.32,-719.9C410.98,-750.11 447.47,-841.72 511,-885 513.93,-887 517.03,-888.8 520.25,-890.41"/>
<polygon fill="midnightblue" stroke="midnightblue" points="519.02,-893.69 529.58,-894.49 521.82,-887.28 519.02,-893.69"/>
</g>
<!-- Node117 -->
<g id="node39" class="node">
<title>Node117</title>
<g id="a_node39"><a xlink:href="../../db/d4a/classMain_a7cb36cb98ed2674cb936e382822d0284.html#a7cb36cb98ed2674cb936e382822d0284" target="_top" xlink:title=" ">
<polygon fill="white" stroke="black" points="550.5,-643.5 550.5,-662.5 658.5,-662.5 658.5,-643.5 550.5,-643.5"/>
<text text-anchor="middle" x="604.5" y="-650.5" font-family="Helvetica,sans-Serif" font-size="10.00">Main.StartInvasion</text>
</a>
</g>
</g>
<!-- Node66&#45;&gt;Node117 -->
<g id="edge41" class="edge">
<title>Node66&#45;&gt;Node117</title>
<path fill="none" stroke="midnightblue" d="M422.99,-700.35C445.93,-692.07 480.37,-680.22 511,-672 520.74,-669.39 531.14,-666.93 541.31,-664.71"/>
<polygon fill="midnightblue" stroke="midnightblue" points="542.33,-668.07 551.39,-662.57 540.88,-661.23 542.33,-668.07"/>
</g>
<!-- Node118 -->
<g id="node40" class="node">
<title>Node118</title>
<g id="a_node40"><a xlink:href="../../db/d4a/classMain_aa3c6a485d073831a8665f3b025a9e2e2.html#aa3c6a485d073831a8665f3b025a9e2e2" target="_top" xlink:title=" ">
<polygon fill="white" stroke="black" points="545,-856.5 545,-875.5 664,-875.5 664,-856.5 545,-856.5"/>
<text text-anchor="middle" x="604.5" y="-863.5" font-family="Helvetica,sans-Serif" font-size="10.00">Main.stopMoonEvent</text>
</a>
</g>
</g>
<!-- Node66&#45;&gt;Node118 -->
<g id="edge43" class="edge">
<title>Node66&#45;&gt;Node118</title>
<path fill="none" stroke="midnightblue" d="M401.89,-719.52C415.43,-744.83 456.05,-814.09 511,-847 518.28,-851.36 526.39,-854.73 534.71,-857.34"/>
<polygon fill="midnightblue" stroke="midnightblue" points="533.96,-860.76 544.53,-860.06 535.83,-854.02 533.96,-860.76"/>
</g>
<!-- Node119 -->
<g id="node41" class="node">
<title>Node119</title>
<g id="a_node41"><a xlink:href="../../d1/d68/classLocalizedText_a08cc2c3a27a44eda49ff8813c08c2dbf.html#a08cc2c3a27a44eda49ff8813c08c2dbf" target="_top" xlink:title=" ">
<polygon fill="white" stroke="red" points="525.5,-529.5 525.5,-548.5 683.5,-548.5 683.5,-529.5 525.5,-529.5"/>
<text text-anchor="middle" x="604.5" y="-536.5" font-family="Helvetica,sans-Serif" font-size="10.00">LocalizedText.ToNetworkText</text>
</a>
</g>
</g>
<!-- Node66&#45;&gt;Node119 -->
<g id="edge44" class="edge">
<title>Node66&#45;&gt;Node119</title>
<path fill="none" stroke="midnightblue" d="M401.6,-700.33C414.71,-673.9 454.9,-599.95 511,-563 517.8,-558.52 525.38,-554.88 533.21,-551.92"/>
<polygon fill="midnightblue" stroke="midnightblue" points="534.51,-555.17 542.84,-548.63 532.25,-548.55 534.51,-555.17"/>
</g>
<!-- Node120 -->
<g id="node42" class="node">
<title>Node120</title>
<g id="a_node42"><a xlink:href="../../db/d4a/classMain_ab6c978775375438d83e8d12d2f378570.html#ab6c978775375438d83e8d12d2f378570" target="_top" xlink:title=" ">
<polygon fill="white" stroke="black" points="541.5,-316.5 541.5,-335.5 667.5,-335.5 667.5,-316.5 541.5,-316.5"/>
<text text-anchor="middle" x="604.5" y="-323.5" font-family="Helvetica,sans-Serif" font-size="10.00">Main.UpdateTimeRate</text>
</a>
</g>
</g>
<!-- Node66&#45;&gt;Node120 -->
<g id="edge45" class="edge">
<title>Node66&#45;&gt;Node120</title>
<path fill="none" stroke="midnightblue" d="M398.01,-700.31C402.84,-658.07 427.01,-487.5 511,-383 526.44,-363.79 550.2,-349.35 569.78,-339.8"/>
<polygon fill="midnightblue" stroke="midnightblue" points="571.41,-342.91 579,-335.51 568.46,-336.56 571.41,-342.91"/>
</g>
<!-- Node67&#45;&gt;Node68 -->
<g id="edge27" class="edge">
<title>Node67&#45;&gt;Node68</title>
<path fill="none" stroke="midnightblue" d="M669.66,-606.07C679.88,-602.57 689.77,-597.71 698,-591 765.03,-536.34 794.41,-430.72 804.1,-386.85"/>
<polygon fill="midnightblue" stroke="midnightblue" points="807.56,-387.38 806.19,-376.88 800.71,-385.94 807.56,-387.38"/>
</g>
<!-- Node107&#45;&gt;Node6 -->
<g id="edge38" class="edge">
<title>Node107&#45;&gt;Node6</title>
<path fill="none" stroke="midnightblue" d="M679.52,-508.75C686.16,-511.78 692.45,-515.49 698,-520 763.27,-573.09 793.57,-674.95 803.8,-717.53"/>
<polygon fill="midnightblue" stroke="midnightblue" points="800.43,-718.49 806.07,-727.45 807.25,-716.92 800.43,-718.49"/>
</g>
<!-- Node117&#45;&gt;Node68 -->
<g id="edge42" class="edge">
<title>Node117&#45;&gt;Node68</title>
<path fill="none" stroke="midnightblue" d="M658.85,-650.98C672.81,-648.2 687.01,-643.09 698,-634 777.19,-568.47 800.09,-436.64 806.07,-386.75"/>
<polygon fill="midnightblue" stroke="midnightblue" points="809.57,-386.97 807.18,-376.65 802.61,-386.21 809.57,-386.97"/>
</g>
<!-- Node121 -->
<g id="node43" class="node">
<title>Node121</title>
<g id="a_node43"><a xlink:href="../../db/d4a/classMain_a83b1942737a04766e1a8b44eaba3157e.html#a83b1942737a04766e1a8b44eaba3157e" target="_top" xlink:title=" ">
<polygon fill="white" stroke="black" points="734,-237.5 734,-256.5 884,-256.5 884,-237.5 734,-237.5"/>
<text text-anchor="middle" x="809" y="-244.5" font-family="Helvetica,sans-Serif" font-size="10.00">Main.IsFastForwardingTime</text>
</a>
</g>
</g>
<!-- Node120&#45;&gt;Node121 -->
<g id="edge46" class="edge">
<title>Node120&#45;&gt;Node121</title>
<path fill="none" stroke="midnightblue" d="M665.44,-316.4C676.43,-313.88 687.69,-310.78 698,-307 729.82,-295.35 763.63,-275.67 785.24,-262.04"/>
<polygon fill="midnightblue" stroke="midnightblue" points="787.18,-264.95 793.71,-256.61 783.41,-259.06 787.18,-264.95"/>
</g>
<!-- Node122&#45;&gt;Node6 -->
<g id="edge58" class="edge">
<title>Node122&#45;&gt;Node6</title>
<path fill="none" stroke="midnightblue" d="M412.65,-297.5C434.11,-310.12 474.18,-332.3 511,-345 591.18,-372.65 635.09,-326.13 698,-383 799.14,-474.43 808.22,-656.96 808.34,-717.2"/>
<polygon fill="midnightblue" stroke="midnightblue" points="804.84,-717.24 808.27,-727.27 811.84,-717.29 804.84,-717.24"/>
</g>
<!-- Node122&#45;&gt;Node68 -->
<g id="edge53" class="edge">
<title>Node122&#45;&gt;Node68</title>
<path fill="none" stroke="midnightblue" d="M404.52,-278.25C421.07,-257.7 463.04,-210.37 511,-193 589.15,-164.71 627.42,-149.11 698,-193 728.72,-212.1 715.24,-235.07 734,-266 752.57,-296.62 777.89,-329.67 793.58,-349.33"/>
<polygon fill="midnightblue" stroke="midnightblue" points="791.05,-351.77 800.05,-357.36 796.51,-347.38 791.05,-351.77"/>
</g>
<!-- Node122&#45;&gt;Node73 -->
<g id="edge48" class="edge">
<title>Node122&#45;&gt;Node73</title>
<path fill="none" stroke="midnightblue" d="M402.49,-297.77C416.89,-322.45 458.28,-387.72 511,-421 514.64,-423.3 518.49,-425.39 522.47,-427.28"/>
<polygon fill="midnightblue" stroke="midnightblue" points="521.38,-430.63 531.95,-431.38 524.16,-424.2 521.38,-430.63"/>
</g>
<!-- Node122&#45;&gt;Node114 -->
<g id="edge52" class="edge">
<title>Node122&#45;&gt;Node114</title>
<path fill="none" stroke="midnightblue" d="M406.4,-297.74C424.75,-316.19 467.42,-356.35 511,-378 523.55,-384.24 537.9,-388.97 551.48,-392.52"/>
<polygon fill="midnightblue" stroke="midnightblue" points="550.66,-395.92 561.2,-394.89 552.32,-389.12 550.66,-395.92"/>
</g>
<!-- Node122&#45;&gt;Node107 -->
<g id="edge56" class="edge">
<title>Node122&#45;&gt;Node107</title>
<path fill="none" stroke="midnightblue" d="M400.13,-297.76C410.5,-328.45 446.75,-423.79 511,-471 513.9,-473.13 516.96,-475.07 520.15,-476.83"/>
<polygon fill="midnightblue" stroke="midnightblue" points="518.9,-480.12 529.42,-481.38 521.98,-473.83 518.9,-480.12"/>
</g>
<!-- Node122&#45;&gt;Node119 -->
<g id="edge62" class="edge">
<title>Node122&#45;&gt;Node119</title>
<path fill="none" stroke="midnightblue" d="M398.67,-297.86C405.36,-333.99 433.61,-460.15 511,-520 513.31,-521.79 515.75,-523.42 518.28,-524.9"/>
<polygon fill="midnightblue" stroke="midnightblue" points="516.73,-528.04 527.23,-529.42 519.88,-521.79 516.73,-528.04"/>
</g>
<!-- Node122&#45;&gt;Node120 -->
<g id="edge63" class="edge">
<title>Node122&#45;&gt;Node120</title>
<path fill="none" stroke="midnightblue" d="M448.84,-297.54C476.95,-302.71 511.88,-309.14 541.43,-314.58"/>
<polygon fill="midnightblue" stroke="midnightblue" points="541.17,-318.09 551.64,-316.46 542.44,-311.2 541.17,-318.09"/>
</g>
<!-- Node122&#45;&gt;Node121 -->
<g id="edge51" class="edge">
<title>Node122&#45;&gt;Node121</title>
<path fill="none" stroke="midnightblue" d="M399.42,-278.43C408.05,-246.59 440.64,-144.06 511,-105 583.66,-64.66 623.38,-68.41 698,-105 750.81,-130.89 785.51,-195.7 800.12,-228.03"/>
<polygon fill="midnightblue" stroke="midnightblue" points="796.95,-229.53 804.16,-237.3 803.37,-226.73 796.95,-229.53"/>
</g>
<!-- Node123 -->
<g id="node45" class="node">
<title>Node123</title>
<g id="a_node45"><a xlink:href="../../d8/d50/classBirthdayParty_a1261e5b9a9cec44b4b5e8770b0709cf0.html#a1261e5b9a9cec44b4b5e8770b0709cf0" target="_top" xlink:title=" ">
<polygon fill="white" stroke="red" points="534.5,-38.5 534.5,-57.5 674.5,-57.5 674.5,-38.5 534.5,-38.5"/>
<text text-anchor="middle" x="604.5" y="-45.5" font-family="Helvetica,sans-Serif" font-size="10.00">BirthdayParty.CheckNight</text>
</a>
</g>
</g>
<!-- Node122&#45;&gt;Node123 -->
<g id="edge49" class="edge">
<title>Node122&#45;&gt;Node123</title>
<path fill="none" stroke="midnightblue" d="M399.11,-278.46C407.11,-244.6 438.85,-129.1 511,-72 516.33,-67.78 522.33,-64.3 528.64,-61.42"/>
<polygon fill="midnightblue" stroke="midnightblue" points="530.09,-64.61 538.07,-57.63 527.48,-58.11 530.09,-64.61"/>
</g>
<!-- Node124 -->
<g id="node46" class="node">
<title>Node124</title>
<g id="a_node46"><a xlink:href="../../d6/dad/classLanternNight_a62d182b9b127822310a805f9f8976816.html#a62d182b9b127822310a805f9f8976816" target="_top" xlink:title=" ">
<polygon fill="white" stroke="red" points="535,-0.5 535,-19.5 674,-19.5 674,-0.5 535,-0.5"/>
<text text-anchor="middle" x="604.5" y="-7.5" font-family="Helvetica,sans-Serif" font-size="10.00">LanternNight.CheckNight</text>
</a>
</g>
</g>
<!-- Node122&#45;&gt;Node124 -->
<g id="edge50" class="edge">
<title>Node122&#45;&gt;Node124</title>
<path fill="none" stroke="midnightblue" d="M398.11,-278.37C403.05,-240.03 426.72,-97.06 511,-29 515.38,-25.46 520.26,-22.53 525.41,-20.1"/>
<polygon fill="midnightblue" stroke="midnightblue" points="526.98,-23.25 534.95,-16.27 524.36,-16.75 526.98,-23.25"/>
</g>
<!-- Node128 -->
<g id="node47" class="node">
<title>Node128</title>
<g id="a_node47"><a xlink:href="../../d0/d97/classStar_ad03c97236724bf4307f3a36e334c9847.html#ad03c97236724bf4307f3a36e334c9847" target="_top" xlink:title=" ">
<polygon fill="white" stroke="black" points="558.5,-278.5 558.5,-297.5 650.5,-297.5 650.5,-278.5 558.5,-278.5"/>
<text text-anchor="middle" x="604.5" y="-285.5" font-family="Helvetica,sans-Serif" font-size="10.00">Star.NightSetup</text>
</a>
</g>
</g>
<!-- Node122&#45;&gt;Node128 -->
<g id="edge54" class="edge">
<title>Node122&#45;&gt;Node128</title>
<path fill="none" stroke="midnightblue" d="M475.07,-288C499.43,-288 525.79,-288 548.25,-288"/>
<polygon fill="midnightblue" stroke="midnightblue" points="548.27,-291.5 558.27,-288 548.27,-284.5 548.27,-291.5"/>
</g>
<!-- Node129 -->
<g id="node48" class="node">
<title>Node129</title>
<g id="a_node48"><a xlink:href="../../de/d71/classNPC_a5650364499809cbcbb663ae00cc5fffb.html#a5650364499809cbcbb663ae00cc5fffb" target="_top" xlink:title=" ">
<polygon fill="white" stroke="black" points="532.5,-240.5 532.5,-259.5 676.5,-259.5 676.5,-240.5 532.5,-240.5"/>
<text text-anchor="middle" x="604.5" y="-247.5" font-family="Helvetica,sans-Serif" font-size="10.00">NPC.ResetBadgerHatTime</text>
</a>
</g>
</g>
<!-- Node122&#45;&gt;Node129 -->
<g id="edge57" class="edge">
<title>Node122&#45;&gt;Node129</title>
<path fill="none" stroke="midnightblue" d="M448.84,-278.46C476.95,-273.29 511.88,-266.86 541.43,-261.42"/>
<polygon fill="midnightblue" stroke="midnightblue" points="542.44,-264.8 551.64,-259.54 541.17,-257.91 542.44,-264.8"/>
</g>
<!-- Node130 -->
<g id="node49" class="node">
<title>Node130</title>
<g id="a_node49"><a xlink:href="../../de/d71/classNPC_a1ee93e213cfda7c3d5667d86e1b88e8b.html#a1ee93e213cfda7c3d5667d86e1b88e8b" target="_top" xlink:title=" ">
<polygon fill="white" stroke="black" points="542.5,-202.5 542.5,-221.5 666.5,-221.5 666.5,-202.5 542.5,-202.5"/>
<text text-anchor="middle" x="604.5" y="-209.5" font-family="Helvetica,sans-Serif" font-size="10.00">NPC.setFireFlyChance</text>
</a>
</g>
</g>
<!-- Node122&#45;&gt;Node130 -->
<g id="edge59" class="edge">
<title>Node122&#45;&gt;Node130</title>
<path fill="none" stroke="midnightblue" d="M413.03,-278.29C434.57,-265.65 474.41,-243.66 511,-231 518.71,-228.33 526.92,-225.98 535.14,-223.93"/>
<polygon fill="midnightblue" stroke="midnightblue" points="536.21,-227.27 545.14,-221.57 534.6,-220.46 536.21,-227.27"/>
</g>
<!-- Node131 -->
<g id="node50" class="node">
<title>Node131</title>
<g id="a_node50"><a xlink:href="../../d6/d74/classMysticLogFairiesEvent_a582e5e0115c465d82b0dca552eed7484.html#a582e5e0115c465d82b0dca552eed7484" target="_top" xlink:title=" ">
<polygon fill="white" stroke="red" points="528.5,-115 528.5,-145 680.5,-145 680.5,-115 528.5,-115"/>
<text text-anchor="start" x="536.5" y="-133" font-family="Helvetica,sans-Serif" font-size="10.00">MysticLogFairiesEvent.Start</text>
<text text-anchor="middle" x="604.5" y="-122" font-family="Helvetica,sans-Serif" font-size="10.00">Night</text>
</a>
</g>
</g>
<!-- Node122&#45;&gt;Node131 -->
<g id="edge61" class="edge">
<title>Node122&#45;&gt;Node131</title>
<path fill="none" stroke="midnightblue" d="M402.91,-278.41C417.96,-254.76 460.17,-193.19 511,-160 517.46,-155.78 524.56,-152.11 531.87,-148.93"/>
<polygon fill="midnightblue" stroke="midnightblue" points="533.25,-152.15 541.21,-145.16 530.62,-145.66 533.25,-152.15"/>
</g>
<!-- Node128&#45;&gt;Node68 -->
<g id="edge55" class="edge">
<title>Node128&#45;&gt;Node68</title>
<path fill="none" stroke="midnightblue" d="M650.94,-294.56C666.17,-297.48 683.07,-301.53 698,-307 729.82,-318.65 763.63,-338.33 785.24,-351.96"/>
<polygon fill="midnightblue" stroke="midnightblue" points="783.41,-354.94 793.71,-357.39 787.18,-349.05 783.41,-354.94"/>
</g>
<!-- Node130&#45;&gt;Node68 -->
<g id="edge60" class="edge">
<title>Node130&#45;&gt;Node68</title>
<path fill="none" stroke="midnightblue" d="M666.96,-218.44C677.81,-221.27 688.62,-225.29 698,-231 723.02,-246.22 772.77,-315.7 795.79,-349.04"/>
<polygon fill="midnightblue" stroke="midnightblue" points="792.99,-351.15 801.54,-357.41 798.77,-347.19 792.99,-351.15"/>
</g>
</g>
</svg>
