<?xml version="1.0" encoding="UTF-8" standalone="no"?>
<!DOCTYPE svg PUBLIC "-//W3C//DTD SVG 1.1//EN"
 "http://www.w3.org/Graphics/SVG/1.1/DTD/svg11.dtd">
<!-- Generated by graphviz version 2.43.0 (0)
 -->
<!-- Title: TELogicSensor.SanityCheck Pages: 1 -->
<svg width="507pt" height="28pt"
 viewBox="0.00 0.00 507.00 28.00" xmlns="http://www.w3.org/2000/svg" xmlns:xlink="http://www.w3.org/1999/xlink">
<g id="graph0" class="graph" transform="scale(1 1) rotate(0) translate(4 24)">
<title>TELogicSensor.SanityCheck</title>
<polygon fill="white" stroke="transparent" points="-4,4 -4,-24 503,-24 503,4 -4,4"/>
<!-- Node1 -->
<g id="node1" class="node">
<title>Node1</title>
<g id="a_node1"><a xlink:title=" ">
<polygon fill="#bfbfbf" stroke="black" points="349,-0.5 349,-19.5 499,-19.5 499,-0.5 349,-0.5"/>
<text text-anchor="middle" x="424" y="-7.5" font-family="Helvetica,sans-Serif" font-size="10.00">TELogicSensor.SanityCheck</text>
</a>
</g>
</g>
<!-- Node2 -->
<g id="node2" class="node">
<title>Node2</title>
<g id="a_node2"><a xlink:href="../../d3/d27/classTELogicSensor_a8d6852ae18624d3a62a96ec30f5a18a7.html#a8d6852ae18624d3a62a96ec30f5a18a7" target="_top" xlink:title=" ">
<polygon fill="white" stroke="black" points="161,-0.5 161,-19.5 313,-19.5 313,-0.5 161,-0.5"/>
<text text-anchor="middle" x="237" y="-7.5" font-family="Helvetica,sans-Serif" font-size="10.00">TELogicSensor.ChangeState</text>
</a>
</g>
</g>
<!-- Node1&#45;&gt;Node2 -->
<g id="edge1" class="edge">
<title>Node1&#45;&gt;Node2</title>
<path fill="none" stroke="midnightblue" d="M338.82,-10C330.24,-10 321.57,-10 313.1,-10"/>
<polygon fill="midnightblue" stroke="midnightblue" points="338.82,-13.5 348.82,-10 338.82,-6.5 338.82,-13.5"/>
</g>
<!-- Node3 -->
<g id="node3" class="node">
<title>Node3</title>
<g id="a_node3"><a xlink:href="../../d3/d27/classTELogicSensor_a56343145e8660a2a8692f17833f40ea8.html#a56343145e8660a2a8692f17833f40ea8" target="_top" xlink:title=" ">
<polygon fill="white" stroke="black" points="0,-0.5 0,-19.5 125,-19.5 125,-0.5 0,-0.5"/>
<text text-anchor="middle" x="62.5" y="-7.5" font-family="Helvetica,sans-Serif" font-size="10.00">TELogicSensor.Update</text>
</a>
</g>
</g>
<!-- Node2&#45;&gt;Node3 -->
<g id="edge2" class="edge">
<title>Node2&#45;&gt;Node3</title>
<path fill="none" stroke="midnightblue" d="M150.76,-10C142.15,-10 133.52,-10 125.23,-10"/>
<polygon fill="midnightblue" stroke="midnightblue" points="150.84,-13.5 160.84,-10 150.84,-6.5 150.84,-13.5"/>
</g>
</g>
</svg>
