<?xml version="1.0" encoding="UTF-8" standalone="no"?>
<!DOCTYPE svg PUBLIC "-//W3C//DTD SVG 1.1//EN"
 "http://www.w3.org/Graphics/SVG/1.1/DTD/svg11.dtd">
<!-- Generated by graphviz version 2.43.0 (0)
 -->
<!-- Title: Terraria.GameContent.UI.Elements.UIBestiaryInfoItemLine Pages: 1 -->
<!--zoomable 1532 -->

<svg id="main" version="1.1" xmlns="http://www.w3.org/2000/svg" xmlns:xlink="http://www.w3.org/1999/xlink" xml:space="preserve" onload="init(evt)">
<style type="text/css"><![CDATA[
.node, .edge {opacity: 0.7;}
.node.selected, .edge.selected {opacity: 1;}
.edge:hover path { stroke: red; }
.edge:hover polygon { stroke: red; fill: red; }
]]></style>

<defs>
  <circle id="rim" cx="0" cy="0" r="7"/>
  <circle id="rim2" cx="0" cy="0" r="3.5"/>
  <g id="zoomPlus">
    <use xlink:href="#rim" fill="#404040"><set attributeName="fill" to="#808080" begin="zoomplus.mouseover" end="zoomplus.mouseout"/></use>
    <path d="M-4,0h8M0,-4v8" fill="none" stroke="white" stroke-width="1.5" pointer-events="none"/>
  </g>
  <g id="zoomMin">
    <use xlink:href="#rim" fill="#404040"><set attributeName="fill" to="#808080" begin="zoomminus.mouseover" end="zoomminus.mouseout"/></use>
    <path d="M-4,0h8" fill="none" stroke="white" stroke-width="1.5" pointer-events="none"/>
  </g>
  <g id="arrowUp" transform="translate(30 24)">
    <use xlink:href="#rim"/>
    <path pointer-events="none" fill="none" stroke="white" stroke-width="1.5" d="M0,-3.0v7 M-2.5,-0.5L0,-3.0L2.5,-0.5"/>
  </g>
  <g id="arrowRight" transform="rotate(90) translate(36 -43)">
    <use xlink:href="#rim"/>
    <path pointer-events="none" fill="none" stroke="white" stroke-width="1.5" d="M0,-3.0v7 M-2.5,-0.5L0,-3.0L2.5,-0.5"/>
  </g>
  <g id="arrowDown" transform="rotate(180) translate(-30 -48)">
    <use xlink:href="#rim"/>
    <path pointer-events="none" fill="none" stroke="white" stroke-width="1.5" d="M0,-3.0v7 M-2.5,-0.5L0,-3.0L2.5,-0.5"/>
  </g>
  <g id="arrowLeft" transform="rotate(270) translate(-36 17)">
    <use xlink:href="#rim"/>
    <path pointer-events="none" fill="none" stroke="white" stroke-width="1.5" d="M0,-3.0v7 M-2.5,-0.5L0,-3.0L2.5,-0.5"/>
  </g>
  <g id="resetDef">
    <use xlink:href="#rim2" fill="#404040"><set attributeName="fill" to="#808080" begin="reset.mouseover" end="reset.mouseout"/></use>
  </g>
</defs>
<script type="application/ecmascript">
var viewWidth = 378;
var viewHeight = 1532;
var sectionId = 'dynsection-0';
</script>
<script type="application/ecmascript" xlink:href="../../svg.min.js"/>
<svg id="graph" class="graph">
<g id="viewport">
<title>Terraria.GameContent.UI.Elements.UIBestiaryInfoItemLine</title>
<!-- Node1 -->
<g id="Node000001" class="node">
<title>Node1</title>
<g id="a_Node000001"><a xlink:title=" ">
<polygon fill="#999999" stroke="transparent" points="305.5,-316 93.5,-316 93.5,0 305.5,0 305.5,-316"/>
<text text-anchor="start" x="118.5" y="-304" font-family="Helvetica,sans-Serif" font-size="10.00">Terraria.GameContent.UI.</text>
<text text-anchor="start" x="118.5" y="-293" font-family="Helvetica,sans-Serif" font-size="10.00">Elements.UIBestiaryInfoItemLine</text>
<text text-anchor="start" x="97.5" y="-278" font-family="Helvetica,sans-Serif" font-size="10.00">+</text>
<text text-anchor="start" x="110.5" y="-278" font-family="Helvetica,sans-Serif" font-size="10.00">int OrderInUIList</text>
<text text-anchor="start" x="100" y="-263" font-family="Helvetica,sans-Serif" font-size="10.00">&#45;</text>
<text text-anchor="start" x="110.5" y="-263" font-family="Helvetica,sans-Serif" font-size="10.00">Item _infoDisplayItem</text>
<text text-anchor="start" x="100" y="-248" font-family="Helvetica,sans-Serif" font-size="10.00">&#45;</text>
<text text-anchor="start" x="110.5" y="-248" font-family="Helvetica,sans-Serif" font-size="10.00">bool _hideMouseOver</text>
<text text-anchor="start" x="97.5" y="-233" font-family="Helvetica,sans-Serif" font-size="10.00">+</text>
<text text-anchor="start" x="110.5" y="-233" font-family="Helvetica,sans-Serif" font-size="10.00">UIBestiaryInfoItemLine</text>
<text text-anchor="start" x="110.5" y="-222" font-family="Helvetica,sans-Serif" font-size="10.00">(DropRateInfo info, Bestiary</text>
<text text-anchor="start" x="110.5" y="-211" font-family="Helvetica,sans-Serif" font-size="10.00">UICollectionInfo uiinfo, float</text>
<text text-anchor="start" x="110.5" y="-200" font-family="Helvetica,sans-Serif" font-size="10.00"> textScale=1f)</text>
<text text-anchor="start" x="97.5" y="-185" font-family="Helvetica,sans-Serif" font-size="10.00">+</text>
<text text-anchor="start" x="110.5" y="-185" font-family="Helvetica,sans-Serif" font-size="10.00">override int CompareTo</text>
<text text-anchor="start" x="110.5" y="-174" font-family="Helvetica,sans-Serif" font-size="10.00">(object obj)</text>
<text text-anchor="start" x="97.5" y="-159" font-family="Helvetica,sans-Serif" font-size="10.00">#</text>
<text text-anchor="start" x="110.5" y="-159" font-family="Helvetica,sans-Serif" font-size="10.00">void GetDropInfo(DropRate</text>
<text text-anchor="start" x="110.5" y="-148" font-family="Helvetica,sans-Serif" font-size="10.00">Info dropRateInfo, BestiaryUICollection</text>
<text text-anchor="start" x="110.5" y="-137" font-family="Helvetica,sans-Serif" font-size="10.00">Info uiinfo, out string stackRange,</text>
<text text-anchor="start" x="110.5" y="-126" font-family="Helvetica,sans-Serif" font-size="10.00"> out string droprate)</text>
<text text-anchor="start" x="97.5" y="-111" font-family="Helvetica,sans-Serif" font-size="10.00">#</text>
<text text-anchor="start" x="110.5" y="-111" font-family="Helvetica,sans-Serif" font-size="10.00">override void DrawSelf</text>
<text text-anchor="start" x="110.5" y="-100" font-family="Helvetica,sans-Serif" font-size="10.00">(SpriteBatch spriteBatch)</text>
<text text-anchor="start" x="100" y="-85" font-family="Helvetica,sans-Serif" font-size="10.00">&#45;</text>
<text text-anchor="start" x="110.5" y="-85" font-family="Helvetica,sans-Serif" font-size="10.00">void DrawMouseOver()</text>
<text text-anchor="start" x="100" y="-70" font-family="Helvetica,sans-Serif" font-size="10.00">&#45;</text>
<text text-anchor="start" x="110.5" y="-70" font-family="Helvetica,sans-Serif" font-size="10.00">void SetBestiaryNotesOnItem</text>
<text text-anchor="start" x="110.5" y="-59" font-family="Helvetica,sans-Serif" font-size="10.00">Cache(DropRateInfo info)</text>
<text text-anchor="start" x="100" y="-44" font-family="Helvetica,sans-Serif" font-size="10.00">&#45;</text>
<text text-anchor="start" x="110.5" y="-44" font-family="Helvetica,sans-Serif" font-size="10.00">void MouseOver(UIMouseEvent</text>
<text text-anchor="start" x="110.5" y="-33" font-family="Helvetica,sans-Serif" font-size="10.00"> evt, UIElement listeningElement)</text>
<text text-anchor="start" x="100" y="-18" font-family="Helvetica,sans-Serif" font-size="10.00">&#45;</text>
<text text-anchor="start" x="110.5" y="-18" font-family="Helvetica,sans-Serif" font-size="10.00">void MouseOut(UIMouseEvent</text>
<text text-anchor="start" x="110.5" y="-7" font-family="Helvetica,sans-Serif" font-size="10.00"> evt, UIElement listeningElement)</text>
<polygon fill="#666666" stroke="#666666" points="93.5,-288 93.5,-288 305.5,-288 305.5,-288 93.5,-288"/>
<polygon fill="#666666" stroke="#666666" points="93.5,-243 93.5,-243 108.5,-243 108.5,-243 93.5,-243"/>
<polygon fill="#666666" stroke="#666666" points="108.5,-243 108.5,-243 305.5,-243 305.5,-243 108.5,-243"/>
<polygon fill="none" stroke="#666666" points="93.5,0 93.5,-316 305.5,-316 305.5,0 93.5,0"/>
</a>
</g>
</g>
<!-- Node2 -->
<g id="Node000002" class="node">
<title>Node2</title>
<g id="a_Node000002"><a xlink:href="../../d2/d10/classTerraria_1_1GameContent_1_1UI_1_1Elements_1_1UIPanel.html" target="_top" xlink:title=" ">
<polygon fill="white" stroke="transparent" points="203,-620 6,-620 6,-352 203,-352 203,-620"/>
<text text-anchor="start" x="86.5" y="-608" font-family="Helvetica,sans-Serif" font-size="10.00">UIPanel</text>
<text text-anchor="start" x="10.5" y="-593" font-family="Helvetica,sans-Serif" font-size="10.00">+</text>
<text text-anchor="start" x="23.5" y="-593" font-family="Helvetica,sans-Serif" font-size="10.00">Color BorderColor</text>
<text text-anchor="start" x="10.5" y="-578" font-family="Helvetica,sans-Serif" font-size="10.00">+</text>
<text text-anchor="start" x="23.5" y="-578" font-family="Helvetica,sans-Serif" font-size="10.00">Color BackgroundColor</text>
<text text-anchor="start" x="13" y="-563" font-family="Helvetica,sans-Serif" font-size="10.00">&#45;</text>
<text text-anchor="start" x="23.5" y="-563" font-family="Helvetica,sans-Serif" font-size="10.00">int _cornerSize</text>
<text text-anchor="start" x="13" y="-548" font-family="Helvetica,sans-Serif" font-size="10.00">&#45;</text>
<text text-anchor="start" x="23.5" y="-548" font-family="Helvetica,sans-Serif" font-size="10.00">int _barSize</text>
<text text-anchor="start" x="13" y="-533" font-family="Helvetica,sans-Serif" font-size="10.00">&#45;</text>
<text text-anchor="start" x="23.5" y="-533" font-family="Helvetica,sans-Serif" font-size="10.00">Asset&lt; Texture2D &gt;</text>
<text text-anchor="start" x="23.5" y="-522" font-family="Helvetica,sans-Serif" font-size="10.00"> _borderTexture</text>
<text text-anchor="start" x="13" y="-507" font-family="Helvetica,sans-Serif" font-size="10.00">&#45;</text>
<text text-anchor="start" x="23.5" y="-507" font-family="Helvetica,sans-Serif" font-size="10.00">Asset&lt; Texture2D &gt;</text>
<text text-anchor="start" x="23.5" y="-496" font-family="Helvetica,sans-Serif" font-size="10.00"> _backgroundTexture</text>
<text text-anchor="start" x="10.5" y="-481" font-family="Helvetica,sans-Serif" font-size="10.00">+</text>
<text text-anchor="start" x="23.5" y="-481" font-family="Helvetica,sans-Serif" font-size="10.00">UIPanel()</text>
<text text-anchor="start" x="10.5" y="-466" font-family="Helvetica,sans-Serif" font-size="10.00">+</text>
<text text-anchor="start" x="23.5" y="-466" font-family="Helvetica,sans-Serif" font-size="10.00">UIPanel(Asset&lt; Texture2</text>
<text text-anchor="start" x="23.5" y="-455" font-family="Helvetica,sans-Serif" font-size="10.00">D &gt; customBackground,</text>
<text text-anchor="start" x="23.5" y="-444" font-family="Helvetica,sans-Serif" font-size="10.00"> Asset&lt; Texture2D &gt; customborder,</text>
<text text-anchor="start" x="23.5" y="-433" font-family="Helvetica,sans-Serif" font-size="10.00"> int customCornerSize=12, int</text>
<text text-anchor="start" x="23.5" y="-422" font-family="Helvetica,sans-Serif" font-size="10.00"> customBarSize=4)</text>
<text text-anchor="start" x="10.5" y="-407" font-family="Helvetica,sans-Serif" font-size="10.00">#</text>
<text text-anchor="start" x="23.5" y="-407" font-family="Helvetica,sans-Serif" font-size="10.00">override void DrawSelf</text>
<text text-anchor="start" x="23.5" y="-396" font-family="Helvetica,sans-Serif" font-size="10.00">(SpriteBatch spriteBatch)</text>
<text text-anchor="start" x="13" y="-381" font-family="Helvetica,sans-Serif" font-size="10.00">&#45;</text>
<text text-anchor="start" x="23.5" y="-381" font-family="Helvetica,sans-Serif" font-size="10.00">void DrawPanel(SpriteBatch</text>
<text text-anchor="start" x="23.5" y="-370" font-family="Helvetica,sans-Serif" font-size="10.00"> spriteBatch, Texture2D</text>
<text text-anchor="start" x="23.5" y="-359" font-family="Helvetica,sans-Serif" font-size="10.00"> texture, Color color)</text>
<polygon fill="#666666" stroke="#666666" points="6.5,-603 6.5,-603 203.5,-603 203.5,-603 6.5,-603"/>
<polygon fill="#666666" stroke="#666666" points="6.5,-491 6.5,-491 21.5,-491 21.5,-491 6.5,-491"/>
<polygon fill="#666666" stroke="#666666" points="21.5,-491 21.5,-491 203.5,-491 203.5,-491 21.5,-491"/>
<polygon fill="none" stroke="#666666" points="6,-352 6,-620 203,-620 203,-352 6,-352"/>
</a>
</g>
</g>
<!-- Node2&#45;&gt;Node1 -->
<g id="edge1_Node000001_Node000002" class="edge">
<title>Node2&#45;&gt;Node1</title>
<g id="a_edge1_Node000001_Node000002"><a xlink:title=" ">
<path fill="none" stroke="#63b8ff" d="M146.11,-342.21C148.63,-333.57 151.17,-324.85 153.7,-316.15"/>
<polygon fill="none" stroke="#63b8ff" points="142.71,-341.35 143.28,-351.93 149.44,-343.31 142.71,-341.35"/>
</a>
</g>
</g>
<!-- Node3 -->
<g id="Node000003" class="node">
<title>Node3</title>
<g id="a_Node000003"><a xlink:href="../../d7/d72/classTerraria_1_1UI_1_1UIElement.html" target="_top" xlink:title=" ">
<polygon fill="white" stroke="transparent" points="209,-1439 0,-1439 0,-656 209,-656 209,-1439"/>
<text text-anchor="start" x="79" y="-1426.5" font-family="Helvetica,sans-Serif" font-size="10.00">UIElement</text>
<text text-anchor="start" x="4.5" y="-1411.5" font-family="Helvetica,sans-Serif" font-size="10.00">+</text>
<text text-anchor="start" x="17.5" y="-1411.5" font-family="Helvetica,sans-Serif" font-size="10.00">StyleDimension Top</text>
<text text-anchor="start" x="4.5" y="-1396.5" font-family="Helvetica,sans-Serif" font-size="10.00">+</text>
<text text-anchor="start" x="17.5" y="-1396.5" font-family="Helvetica,sans-Serif" font-size="10.00">StyleDimension Left</text>
<text text-anchor="start" x="4.5" y="-1381.5" font-family="Helvetica,sans-Serif" font-size="10.00">+</text>
<text text-anchor="start" x="17.5" y="-1381.5" font-family="Helvetica,sans-Serif" font-size="10.00">StyleDimension Width</text>
<text text-anchor="start" x="4.5" y="-1366.5" font-family="Helvetica,sans-Serif" font-size="10.00">+</text>
<text text-anchor="start" x="17.5" y="-1366.5" font-family="Helvetica,sans-Serif" font-size="10.00">StyleDimension Height</text>
<text text-anchor="start" x="4.5" y="-1351.5" font-family="Helvetica,sans-Serif" font-size="10.00">+</text>
<text text-anchor="start" x="17.5" y="-1351.5" font-family="Helvetica,sans-Serif" font-size="10.00">StyleDimension MaxWidth</text>
<text text-anchor="start" x="4.5" y="-1336.5" font-family="Helvetica,sans-Serif" font-size="10.00">+</text>
<text text-anchor="start" x="17.5" y="-1336.5" font-family="Helvetica,sans-Serif" font-size="10.00">StyleDimension MaxHeight</text>
<text text-anchor="start" x="4.5" y="-1321.5" font-family="Helvetica,sans-Serif" font-size="10.00">+</text>
<text text-anchor="start" x="17.5" y="-1321.5" font-family="Helvetica,sans-Serif" font-size="10.00">StyleDimension MinWidth</text>
<text text-anchor="start" x="4.5" y="-1306.5" font-family="Helvetica,sans-Serif" font-size="10.00">+</text>
<text text-anchor="start" x="17.5" y="-1306.5" font-family="Helvetica,sans-Serif" font-size="10.00">StyleDimension MinHeight</text>
<text text-anchor="start" x="4.5" y="-1291.5" font-family="Helvetica,sans-Serif" font-size="10.00">+</text>
<text text-anchor="start" x="17.5" y="-1291.5" font-family="Helvetica,sans-Serif" font-size="10.00">bool IgnoresMouseInteraction</text>
<text text-anchor="start" x="4.5" y="-1276.5" font-family="Helvetica,sans-Serif" font-size="10.00">+</text>
<text text-anchor="start" x="17.5" y="-1276.5" font-family="Helvetica,sans-Serif" font-size="10.00">bool OverflowHidden</text>
<text text-anchor="start" x="17.5" y="-1261.5" font-family="Helvetica,sans-Serif" font-size="10.00">and 12 more...</text>
<text text-anchor="start" x="4.5" y="-1246.5" font-family="Helvetica,sans-Serif" font-size="10.00">+</text>
<text text-anchor="start" x="17.5" y="-1246.5" font-family="Helvetica,sans-Serif" font-size="10.00">UIElement Parent</text>
<text text-anchor="start" x="4.5" y="-1231.5" font-family="Helvetica,sans-Serif" font-size="10.00">+</text>
<text text-anchor="start" x="17.5" y="-1231.5" font-family="Helvetica,sans-Serif" font-size="10.00">int UniqueId</text>
<text text-anchor="start" x="4.5" y="-1216.5" font-family="Helvetica,sans-Serif" font-size="10.00">+</text>
<text text-anchor="start" x="17.5" y="-1216.5" font-family="Helvetica,sans-Serif" font-size="10.00">IEnumerable&lt; UIElement</text>
<text text-anchor="start" x="17.5" y="-1205.5" font-family="Helvetica,sans-Serif" font-size="10.00"> &gt; Children</text>
<text text-anchor="start" x="4.5" y="-1190.5" font-family="Helvetica,sans-Serif" font-size="10.00">+</text>
<text text-anchor="start" x="17.5" y="-1190.5" font-family="Helvetica,sans-Serif" font-size="10.00">bool IsMouseHovering</text>
<text text-anchor="start" x="4.5" y="-1175.5" font-family="Helvetica,sans-Serif" font-size="10.00">#</text>
<text text-anchor="start" x="17.5" y="-1175.5" font-family="Helvetica,sans-Serif" font-size="10.00">readonly List&lt; UIElement</text>
<text text-anchor="start" x="17.5" y="-1164.5" font-family="Helvetica,sans-Serif" font-size="10.00"> &gt; Elements</text>
<text text-anchor="start" x="7" y="-1149.5" font-family="Helvetica,sans-Serif" font-size="10.00">&#45;</text>
<text text-anchor="start" x="17.5" y="-1149.5" font-family="Helvetica,sans-Serif" font-size="10.00">bool _isInitialized</text>
<text text-anchor="start" x="7" y="-1134.5" font-family="Helvetica,sans-Serif" font-size="10.00">&#45;</text>
<text text-anchor="start" x="17.5" y="-1134.5" font-family="Helvetica,sans-Serif" font-size="10.00">CalculatedStyle _innerDimensions</text>
<text text-anchor="start" x="7" y="-1119.5" font-family="Helvetica,sans-Serif" font-size="10.00">&#45;</text>
<text text-anchor="start" x="17.5" y="-1119.5" font-family="Helvetica,sans-Serif" font-size="10.00">CalculatedStyle _dimensions</text>
<text text-anchor="start" x="7" y="-1104.5" font-family="Helvetica,sans-Serif" font-size="10.00">&#45;</text>
<text text-anchor="start" x="17.5" y="-1104.5" font-family="Helvetica,sans-Serif" font-size="10.00">CalculatedStyle _outerDimensions</text>
<text text-anchor="start" x="7" y="-1089.5" font-family="Helvetica,sans-Serif" font-size="10.00">&#45;</text>
<text text-anchor="start" x="17.5" y="-1089.5" font-family="Helvetica,sans-Serif" font-size="10.00">SnapPoint _snapPoint</text>
<text text-anchor="start" x="7" y="-1074.5" font-family="Helvetica,sans-Serif" font-size="10.00">&#45;</text>
<text text-anchor="start" x="17.5" y="-1074.5" font-family="Helvetica,sans-Serif" font-size="10.00">static readonly Rasterizer</text>
<text text-anchor="start" x="17.5" y="-1063.5" font-family="Helvetica,sans-Serif" font-size="10.00">State OverflowHiddenRasterizerState</text>
<text text-anchor="start" x="7" y="-1048.5" font-family="Helvetica,sans-Serif" font-size="10.00">&#45;</text>
<text text-anchor="start" x="17.5" y="-1048.5" font-family="Helvetica,sans-Serif" font-size="10.00">static int _idCounter</text>
<text text-anchor="start" x="4.5" y="-1033.5" font-family="Helvetica,sans-Serif" font-size="10.00">+</text>
<text text-anchor="start" x="17.5" y="-1033.5" font-family="Helvetica,sans-Serif" font-size="10.00">delegate void MouseEvent</text>
<text text-anchor="start" x="17.5" y="-1022.5" font-family="Helvetica,sans-Serif" font-size="10.00">(UIMouseEvent evt, UIElement</text>
<text text-anchor="start" x="17.5" y="-1011.5" font-family="Helvetica,sans-Serif" font-size="10.00"> listeningElement)</text>
<text text-anchor="start" x="4.5" y="-996.5" font-family="Helvetica,sans-Serif" font-size="10.00">+</text>
<text text-anchor="start" x="17.5" y="-996.5" font-family="Helvetica,sans-Serif" font-size="10.00">delegate void ScrollWheel</text>
<text text-anchor="start" x="17.5" y="-985.5" font-family="Helvetica,sans-Serif" font-size="10.00">Event(UIScrollWheelEvent</text>
<text text-anchor="start" x="17.5" y="-974.5" font-family="Helvetica,sans-Serif" font-size="10.00"> evt, UIElement listeningElement)</text>
<text text-anchor="start" x="4.5" y="-959.5" font-family="Helvetica,sans-Serif" font-size="10.00">+</text>
<text text-anchor="start" x="17.5" y="-959.5" font-family="Helvetica,sans-Serif" font-size="10.00">delegate void ElementEvent</text>
<text text-anchor="start" x="17.5" y="-948.5" font-family="Helvetica,sans-Serif" font-size="10.00">(UIElement affectedElement)</text>
<text text-anchor="start" x="4.5" y="-933.5" font-family="Helvetica,sans-Serif" font-size="10.00">+</text>
<text text-anchor="start" x="17.5" y="-933.5" font-family="Helvetica,sans-Serif" font-size="10.00">delegate void UIElementAction</text>
<text text-anchor="start" x="17.5" y="-922.5" font-family="Helvetica,sans-Serif" font-size="10.00">(UIElement element)</text>
<text text-anchor="start" x="4.5" y="-907.5" font-family="Helvetica,sans-Serif" font-size="10.00">+</text>
<text text-anchor="start" x="17.5" y="-907.5" font-family="Helvetica,sans-Serif" font-size="10.00">UIElement()</text>
<text text-anchor="start" x="4.5" y="-892.5" font-family="Helvetica,sans-Serif" font-size="10.00">+</text>
<text text-anchor="start" x="17.5" y="-892.5" font-family="Helvetica,sans-Serif" font-size="10.00">void SetSnapPoint(string</text>
<text text-anchor="start" x="17.5" y="-881.5" font-family="Helvetica,sans-Serif" font-size="10.00"> name, int id, Vector2</text>
<text text-anchor="start" x="17.5" y="-870.5" font-family="Helvetica,sans-Serif" font-size="10.00">? anchor=null, Vector2?</text>
<text text-anchor="start" x="17.5" y="-859.5" font-family="Helvetica,sans-Serif" font-size="10.00"> offset=null)</text>
<text text-anchor="start" x="4.5" y="-844.5" font-family="Helvetica,sans-Serif" font-size="10.00">+</text>
<text text-anchor="start" x="17.5" y="-844.5" font-family="Helvetica,sans-Serif" font-size="10.00">bool GetSnapPoint(out</text>
<text text-anchor="start" x="17.5" y="-833.5" font-family="Helvetica,sans-Serif" font-size="10.00"> SnapPoint point)</text>
<text text-anchor="start" x="4.5" y="-818.5" font-family="Helvetica,sans-Serif" font-size="10.00">+</text>
<text text-anchor="start" x="17.5" y="-818.5" font-family="Helvetica,sans-Serif" font-size="10.00">virtual void ExecuteRecursively</text>
<text text-anchor="start" x="17.5" y="-807.5" font-family="Helvetica,sans-Serif" font-size="10.00">(UIElementAction action)</text>
<text text-anchor="start" x="4.5" y="-792.5" font-family="Helvetica,sans-Serif" font-size="10.00">+</text>
<text text-anchor="start" x="17.5" y="-792.5" font-family="Helvetica,sans-Serif" font-size="10.00">void Append(UIElement</text>
<text text-anchor="start" x="17.5" y="-781.5" font-family="Helvetica,sans-Serif" font-size="10.00"> element)</text>
<text text-anchor="start" x="4.5" y="-766.5" font-family="Helvetica,sans-Serif" font-size="10.00">+</text>
<text text-anchor="start" x="17.5" y="-766.5" font-family="Helvetica,sans-Serif" font-size="10.00">void Remove()</text>
<text text-anchor="start" x="17.5" y="-751.5" font-family="Helvetica,sans-Serif" font-size="10.00">and 35 more...</text>
<text text-anchor="start" x="4.5" y="-736.5" font-family="Helvetica,sans-Serif" font-size="10.00">#</text>
<text text-anchor="start" x="17.5" y="-736.5" font-family="Helvetica,sans-Serif" font-size="10.00">virtual void DrawSelf</text>
<text text-anchor="start" x="17.5" y="-725.5" font-family="Helvetica,sans-Serif" font-size="10.00">(SpriteBatch spriteBatch)</text>
<text text-anchor="start" x="4.5" y="-710.5" font-family="Helvetica,sans-Serif" font-size="10.00">#</text>
<text text-anchor="start" x="17.5" y="-710.5" font-family="Helvetica,sans-Serif" font-size="10.00">virtual void DrawChildren</text>
<text text-anchor="start" x="17.5" y="-699.5" font-family="Helvetica,sans-Serif" font-size="10.00">(SpriteBatch spriteBatch)</text>
<text text-anchor="start" x="7" y="-684.5" font-family="Helvetica,sans-Serif" font-size="10.00">&#45;</text>
<text text-anchor="start" x="17.5" y="-684.5" font-family="Helvetica,sans-Serif" font-size="10.00">CalculatedStyle GetDimensions</text>
<text text-anchor="start" x="17.5" y="-673.5" font-family="Helvetica,sans-Serif" font-size="10.00">BasedOnParentDimensions(Calculated</text>
<text text-anchor="start" x="17.5" y="-662.5" font-family="Helvetica,sans-Serif" font-size="10.00">Style parentDimensions)</text>
<polygon fill="#666666" stroke="#666666" points="0.5,-1421.5 0.5,-1421.5 209.5,-1421.5 209.5,-1421.5 0.5,-1421.5"/>
<polygon fill="#666666" stroke="#666666" points="0.5,-1043.5 0.5,-1043.5 15.5,-1043.5 15.5,-1043.5 0.5,-1043.5"/>
<polygon fill="#666666" stroke="#666666" points="15.5,-1043.5 15.5,-1043.5 209.5,-1043.5 209.5,-1043.5 15.5,-1043.5"/>
<polygon fill="none" stroke="#666666" points="0,-656 0,-1439 209,-1439 209,-656 0,-656"/>
</a>
</g>
</g>
<!-- Node3&#45;&gt;Node2 -->
<g id="edge2_Node000002_Node000003" class="edge">
<title>Node3&#45;&gt;Node2</title>
<g id="a_edge2_Node000002_Node000003"><a xlink:title=" ">
<path fill="none" stroke="#63b8ff" d="M104.5,-645.44C104.5,-636.84 104.5,-628.43 104.5,-620.25"/>
<polygon fill="none" stroke="#63b8ff" points="101,-645.63 104.5,-655.63 108,-645.63 101,-645.63"/>
</a>
</g>
</g>
<!-- Node4 -->
<g id="Node000004" class="node">
<title>Node4</title>
<g id="a_Node000004"><a xlink:href="../../d9/d6f/classIComparable.html" target="_top" xlink:title=" ">
<polygon fill="white" stroke="transparent" points="141,-1524 68,-1524 68,-1475 141,-1475 141,-1524"/>
<text text-anchor="start" x="73.5" y="-1511.5" font-family="Helvetica,sans-Serif" font-size="10.00">IComparable</text>
<text text-anchor="start" x="103" y="-1496.5" font-family="Helvetica,sans-Serif" font-size="10.00"> </text>
<text text-anchor="start" x="103" y="-1481.5" font-family="Helvetica,sans-Serif" font-size="10.00"> </text>
<polygon fill="#666666" stroke="#666666" points="68.5,-1506.5 68.5,-1506.5 141.5,-1506.5 141.5,-1506.5 68.5,-1506.5"/>
<polygon fill="#666666" stroke="#666666" points="68.5,-1491.5 68.5,-1491.5 141.5,-1491.5 141.5,-1491.5 68.5,-1491.5"/>
<polygon fill="none" stroke="#666666" points="68,-1475 68,-1524 141,-1524 141,-1475 68,-1475"/>
</a>
</g>
</g>
<!-- Node4&#45;&gt;Node3 -->
<g id="edge3_Node000003_Node000004" class="edge">
<title>Node4&#45;&gt;Node3</title>
<g id="a_edge3_Node000003_Node000004"><a xlink:title=" ">
<path fill="none" stroke="#63b8ff" d="M104.5,-1464.69C104.5,-1457.16 104.5,-1448.55 104.5,-1439.07"/>
<polygon fill="none" stroke="#63b8ff" points="101,-1464.94 104.5,-1474.94 108,-1464.94 101,-1464.94"/>
</a>
</g>
</g>
<!-- Node5 -->
<g id="Node000005" class="node">
<title>Node5</title>
<g id="a_Node000005"><a xlink:href="../../d0/d5f/interfaceTerraria_1_1GameContent_1_1UI_1_1Elements_1_1IManuallyOrderedUIElement.html" target="_top" xlink:title=" ">
<polygon fill="white" stroke="transparent" points="370,-510.5 221,-510.5 221,-461.5 370,-461.5 370,-510.5"/>
<text text-anchor="start" x="226.5" y="-498" font-family="Helvetica,sans-Serif" font-size="10.00">IManuallyOrderedUIElement</text>
<text text-anchor="start" x="237.5" y="-483" font-family="Helvetica,sans-Serif" font-size="10.00">+</text>
<text text-anchor="start" x="262.5" y="-483" font-family="Helvetica,sans-Serif" font-size="10.00">int OrderInUIList</text>
<text text-anchor="start" x="294" y="-468" font-family="Helvetica,sans-Serif" font-size="10.00"> </text>
<polygon fill="#666666" stroke="#666666" points="221.5,-493 221.5,-493 370.5,-493 370.5,-493 221.5,-493"/>
<polygon fill="#666666" stroke="#666666" points="221.5,-478 221.5,-478 260.5,-478 260.5,-478 221.5,-478"/>
<polygon fill="#666666" stroke="#666666" points="260.5,-478 260.5,-478 370.5,-478 370.5,-478 260.5,-478"/>
<polygon fill="none" stroke="#666666" points="221,-461.5 221,-510.5 370,-510.5 370,-461.5 221,-461.5"/>
</a>
</g>
</g>
<!-- Node5&#45;&gt;Node1 -->
<g id="edge4_Node000001_Node000005" class="edge">
<title>Node5&#45;&gt;Node1</title>
<g id="a_edge4_Node000001_Node000005"><a xlink:title=" ">
<path fill="none" stroke="#63b8ff" d="M285.62,-451.45C276.05,-418.96 260.83,-367.28 245.83,-316.34"/>
<polygon fill="none" stroke="#63b8ff" points="282.34,-452.69 288.52,-461.29 289.05,-450.71 282.34,-452.69"/>
</a>
</g>
</g>
</g>
</svg>

<g id="navigator" transform="translate(0 0)" fill="#404254">
  <rect fill="#f2f5e9" fill-opacity="0.5" stroke="#606060" stroke-width=".5" x="0" y="0" width="60" height="60"/>
  <use id="zoomplus" xlink:href="#zoomPlus" x="17" y="9" onmousedown="handleZoom(evt,'in')"/>
  <use id="zoomminus" xlink:href="#zoomMin" x="42" y="9" onmousedown="handleZoom(evt,'out')"/>
  <use id="reset" xlink:href="#resetDef" x="30" y="36" onmousedown="handleReset()"/>
   <use id="arrowup" xlink:href="#arrowUp" x="0" y="0" onmousedown="handlePan(0,-1)"/>
  <use id="arrowright" xlink:href="#arrowRight" x="0" y="0" onmousedown="handlePan(1,0)"/>
  <use id="arrowdown" xlink:href="#arrowDown" x="0" y="0" onmousedown="handlePan(0,1)"/>
  <use id="arrowleft" xlink:href="#arrowLeft" x="0" y="0" onmousedown="handlePan(-1,0)"/>
</g>
<svg viewBox="0 0 15 15" width="100%" height="30px" preserveAspectRatio="xMaxYMin meet">
 <g id="arrow_out" transform="scale(0.3 0.3)">
  <a xlink:href="classTerraria_1_1GameContent_1_1UI_1_1Elements_1_1UIBestiaryInfoItemLine__inherit__graph_org.svg" target="_base">
   <rect id="button" ry="5" rx="5" y="6" x="6" height="38" width="38"
        fill="#f2f5e9" fill-opacity="0.5" stroke="#606060" stroke-width="1.0"/>
   <path id="arrow"
     d="M 11.500037,31.436501 C 11.940474,20.09759 22.043105,11.32322 32.158766,21.979434 L 37.068811,17.246167 C 37.068811,17.246167 37.088388,32 37.088388,32 L 22.160133,31.978069 C 22.160133,31.978069 26.997745,27.140456 26.997745,27.140456 C 18.528582,18.264221 13.291696,25.230495 11.500037,31.436501 z"
     style="fill:#404040;"/>
  </a>
 </g>
</svg>

<style type='text/css'>
<![CDATA[
[data-mouse-over-selected='false'] { opacity: 0.7; }
[data-mouse-over-selected='true']  { opacity: 1.0; }
]]>
</style>
<script type="application/ecmascript"><![CDATA[
document.addEventListener('DOMContentLoaded', (event) => {
  highlightEdges();
  highlightAdjacentNodes();
});
]]></script>
</svg>
