<?xml version="1.0" encoding="UTF-8" standalone="no"?>
<!DOCTYPE svg PUBLIC "-//W3C//DTD SVG 1.1//EN"
 "http://www.w3.org/Graphics/SVG/1.1/DTD/svg11.dtd">
<!-- Generated by graphviz version 2.43.0 (0)
 -->
<!-- Title: LanguageManager.ProcessCopyCommandsInTexts Pages: 1 -->
<svg width="388pt" height="66pt"
 viewBox="0.00 0.00 388.00 66.00" xmlns="http://www.w3.org/2000/svg" xmlns:xlink="http://www.w3.org/1999/xlink">
<g id="graph0" class="graph" transform="scale(1 1) rotate(0) translate(4 62)">
<title>LanguageManager.ProcessCopyCommandsInTexts</title>
<polygon fill="white" stroke="transparent" points="-4,4 -4,-62 384,-62 384,4 -4,4"/>
<!-- Node1 -->
<g id="node1" class="node">
<title>Node1</title>
<g id="a_node1"><a xlink:title=" ">
<polygon fill="#bfbfbf" stroke="black" points="0,-14 0,-44 171,-44 171,-14 0,-14"/>
<text text-anchor="start" x="8" y="-32" font-family="Helvetica,sans-Serif" font-size="10.00">LanguageManager.ProcessCopy</text>
<text text-anchor="middle" x="85.5" y="-21" font-family="Helvetica,sans-Serif" font-size="10.00">CommandsInTexts</text>
</a>
</g>
</g>
<!-- Node2 -->
<g id="node2" class="node">
<title>Node2</title>
<g id="a_node2"><a xlink:href="../../d2/d9f/classLanguageManager_a2672f0189a3c4aa8b0344a0bcc60c582.html#a2672f0189a3c4aa8b0344a0bcc60c582" target="_top" xlink:title=" ">
<polygon fill="white" stroke="black" points="207,-38.5 207,-57.5 380,-57.5 380,-38.5 207,-38.5"/>
<text text-anchor="middle" x="293.5" y="-45.5" font-family="Helvetica,sans-Serif" font-size="10.00">LanguageManager.GetTextValue</text>
</a>
</g>
</g>
<!-- Node1&#45;&gt;Node2 -->
<g id="edge1" class="edge">
<title>Node1&#45;&gt;Node2</title>
<path fill="none" stroke="midnightblue" d="M171.18,-36.81C179.63,-37.59 188.26,-38.39 196.82,-39.17"/>
<polygon fill="midnightblue" stroke="midnightblue" points="196.54,-42.66 206.82,-40.1 197.18,-35.69 196.54,-42.66"/>
</g>
<!-- Node3 -->
<g id="node3" class="node">
<title>Node3</title>
<g id="a_node3"><a xlink:href="../../d1/d68/classLocalizedText_ade449ba5fa250ab53c78e25217d2a643.html#ade449ba5fa250ab53c78e25217d2a643" target="_top" xlink:title=" ">
<polygon fill="white" stroke="black" points="229.5,-0.5 229.5,-19.5 357.5,-19.5 357.5,-0.5 229.5,-0.5"/>
<text text-anchor="middle" x="293.5" y="-7.5" font-family="Helvetica,sans-Serif" font-size="10.00">LocalizedText.SetValue</text>
</a>
</g>
</g>
<!-- Node1&#45;&gt;Node3 -->
<g id="edge2" class="edge">
<title>Node1&#45;&gt;Node3</title>
<path fill="none" stroke="midnightblue" d="M171.18,-21.19C187.11,-19.72 203.65,-18.2 219.19,-16.76"/>
<polygon fill="midnightblue" stroke="midnightblue" points="219.61,-20.24 229.25,-15.83 218.97,-13.27 219.61,-20.24"/>
</g>
</g>
</svg>
