<?xml version="1.0" encoding="UTF-8" standalone="no"?>
<!DOCTYPE svg PUBLIC "-//W3C//DTD SVG 1.1//EN"
 "http://www.w3.org/Graphics/SVG/1.1/DTD/svg11.dtd">
<!-- Generated by graphviz version 2.43.0 (0)
 -->
<!-- Title: Terraria.GameContent.Skies.MartianSky.Ufo Pages: 1 -->
<!--zoomable 650 -->

<svg id="main" version="1.1" xmlns="http://www.w3.org/2000/svg" xmlns:xlink="http://www.w3.org/1999/xlink" xml:space="preserve" onload="init(evt)">
<style type="text/css"><![CDATA[
.node, .edge {opacity: 0.7;}
.node.selected, .edge.selected {opacity: 1;}
.edge:hover path { stroke: red; }
.edge:hover polygon { stroke: red; fill: red; }
]]></style>

<defs>
  <circle id="rim" cx="0" cy="0" r="7"/>
  <circle id="rim2" cx="0" cy="0" r="3.5"/>
  <g id="zoomPlus">
    <use xlink:href="#rim" fill="#404040"><set attributeName="fill" to="#808080" begin="zoomplus.mouseover" end="zoomplus.mouseout"/></use>
    <path d="M-4,0h8M0,-4v8" fill="none" stroke="white" stroke-width="1.5" pointer-events="none"/>
  </g>
  <g id="zoomMin">
    <use xlink:href="#rim" fill="#404040"><set attributeName="fill" to="#808080" begin="zoomminus.mouseover" end="zoomminus.mouseout"/></use>
    <path d="M-4,0h8" fill="none" stroke="white" stroke-width="1.5" pointer-events="none"/>
  </g>
  <g id="arrowUp" transform="translate(30 24)">
    <use xlink:href="#rim"/>
    <path pointer-events="none" fill="none" stroke="white" stroke-width="1.5" d="M0,-3.0v7 M-2.5,-0.5L0,-3.0L2.5,-0.5"/>
  </g>
  <g id="arrowRight" transform="rotate(90) translate(36 -43)">
    <use xlink:href="#rim"/>
    <path pointer-events="none" fill="none" stroke="white" stroke-width="1.5" d="M0,-3.0v7 M-2.5,-0.5L0,-3.0L2.5,-0.5"/>
  </g>
  <g id="arrowDown" transform="rotate(180) translate(-30 -48)">
    <use xlink:href="#rim"/>
    <path pointer-events="none" fill="none" stroke="white" stroke-width="1.5" d="M0,-3.0v7 M-2.5,-0.5L0,-3.0L2.5,-0.5"/>
  </g>
  <g id="arrowLeft" transform="rotate(270) translate(-36 17)">
    <use xlink:href="#rim"/>
    <path pointer-events="none" fill="none" stroke="white" stroke-width="1.5" d="M0,-3.0v7 M-2.5,-0.5L0,-3.0L2.5,-0.5"/>
  </g>
  <g id="resetDef">
    <use xlink:href="#rim2" fill="#404040"><set attributeName="fill" to="#808080" begin="reset.mouseover" end="reset.mouseout"/></use>
  </g>
</defs>
<script type="application/ecmascript">
var viewWidth = 748;
var viewHeight = 650;
var sectionId = 'dynsection-0';
</script>
<script type="application/ecmascript" xlink:href="../../svg.min.js"/>
<svg id="graph" class="graph">
<g id="viewport">
<title>Terraria.GameContent.Skies.MartianSky.Ufo</title>
<!-- Node1 -->
<g id="Node000001" class="node">
<title>Node1</title>
<g id="a_Node000001"><a xlink:title=" ">
<polygon fill="#999999" stroke="transparent" points="545.63,-146 365.63,-146 365.63,0 545.63,0 545.63,-146"/>
<text text-anchor="start" x="385.63" y="-134" font-family="Helvetica,sans-Serif" font-size="10.00">Terraria.GameContent.Skies.</text>
<text text-anchor="start" x="418.63" y="-123" font-family="Helvetica,sans-Serif" font-size="10.00">MartianSky.Ufo</text>
<text text-anchor="start" x="369.63" y="-108" font-family="Helvetica,sans-Serif" font-size="10.00">+</text>
<text text-anchor="start" x="382.63" y="-108" font-family="Helvetica,sans-Serif" font-size="10.00">int Frame</text>
<text text-anchor="start" x="369.63" y="-93" font-family="Helvetica,sans-Serif" font-size="10.00">+</text>
<text text-anchor="start" x="382.63" y="-93" font-family="Helvetica,sans-Serif" font-size="10.00">Texture2D Texture</text>
<text text-anchor="start" x="369.63" y="-78" font-family="Helvetica,sans-Serif" font-size="10.00">+</text>
<text text-anchor="start" x="382.63" y="-78" font-family="Helvetica,sans-Serif" font-size="10.00">IUfoController Controller</text>
<text text-anchor="start" x="369.63" y="-63" font-family="Helvetica,sans-Serif" font-size="10.00">+</text>
<text text-anchor="start" x="382.63" y="-63" font-family="Helvetica,sans-Serif" font-size="10.00">Ufo(Texture2D texture,</text>
<text text-anchor="start" x="382.63" y="-52" font-family="Helvetica,sans-Serif" font-size="10.00"> float depth=1f)</text>
<text text-anchor="start" x="369.63" y="-37" font-family="Helvetica,sans-Serif" font-size="10.00">+</text>
<text text-anchor="start" x="382.63" y="-37" font-family="Helvetica,sans-Serif" font-size="10.00">Rectangle GetSourceRectangle()</text>
<text text-anchor="start" x="369.63" y="-22" font-family="Helvetica,sans-Serif" font-size="10.00">+</text>
<text text-anchor="start" x="382.63" y="-22" font-family="Helvetica,sans-Serif" font-size="10.00">bool Update()</text>
<text text-anchor="start" x="369.63" y="-7" font-family="Helvetica,sans-Serif" font-size="10.00">+</text>
<text text-anchor="start" x="382.63" y="-7" font-family="Helvetica,sans-Serif" font-size="10.00">void AssignNewBehavior()</text>
<polygon fill="#666666" stroke="#666666" points="365.63,-118 365.63,-118 545.63,-118 545.63,-118 365.63,-118"/>
<polygon fill="#666666" stroke="#666666" points="365.63,-73 365.63,-73 380.63,-73 380.63,-73 365.63,-73"/>
<polygon fill="#666666" stroke="#666666" points="380.63,-73 380.63,-73 545.63,-73 545.63,-73 380.63,-73"/>
<polygon fill="none" stroke="#666666" points="365.63,0 365.63,-146 545.63,-146 545.63,0 365.63,0"/>
</a>
</g>
</g>
<!-- Node2 -->
<g id="Node000002" class="node">
<title>Node2</title>
<g id="a_Node000002"><a xlink:href="../../d1/da0/classint.html" target="_top" xlink:title=" ">
<polygon fill="white" stroke="transparent" points="61.13,-642 38.13,-642 38.13,-593 61.13,-593 61.13,-642"/>
<text text-anchor="start" x="43.63" y="-629.5" font-family="Helvetica,sans-Serif" font-size="10.00">int</text>
<text text-anchor="start" x="48.13" y="-614.5" font-family="Helvetica,sans-Serif" font-size="10.00"> </text>
<text text-anchor="start" x="48.13" y="-599.5" font-family="Helvetica,sans-Serif" font-size="10.00"> </text>
<polygon fill="#666666" stroke="#666666" points="38.63,-624.5 38.63,-624.5 61.63,-624.5 61.63,-624.5 38.63,-624.5"/>
<polygon fill="#666666" stroke="#666666" points="38.63,-609.5 38.63,-609.5 61.63,-609.5 61.63,-609.5 38.63,-609.5"/>
<polygon fill="none" stroke="#666666" points="38.13,-593 38.13,-642 61.13,-642 61.13,-593 38.13,-593"/>
</a>
</g>
</g>
<!-- Node2&#45;&gt;Node1 -->
<g id="edge1_Node000001_Node000002" class="edge">
<title>Node2&#45;&gt;Node1</title>
<g id="a_edge1_Node000001_Node000002"><a xlink:title=" ">
<path fill="none" stroke="#63b8ff" d="M40.48,-592.66C17,-527.17 -38.05,-341.68 42.63,-226 112.29,-126.14 255.25,-91.71 353.27,-79.94"/>
<polygon fill="none" stroke="#63b8ff" points="353.37,-79.93 358.88,-75.28 365.29,-78.58 359.78,-83.23 353.37,-79.93"/>
</a>
</g>
<text text-anchor="middle" x="80.13" y="-378" font-family="Helvetica,sans-Serif" font-size="10.00" fill="grey"> +FrameHeight</text>
<text text-anchor="middle" x="80.13" y="-367" font-family="Helvetica,sans-Serif" font-size="10.00" fill="grey">+FrameWidth</text>
<text text-anchor="middle" x="80.13" y="-356" font-family="Helvetica,sans-Serif" font-size="10.00" fill="grey">&#45;FRAME_RATE</text>
<text text-anchor="middle" x="80.13" y="-345" font-family="Helvetica,sans-Serif" font-size="10.00" fill="grey">&#45;MAX_FRAMES</text>
<text text-anchor="middle" x="80.13" y="-334" font-family="Helvetica,sans-Serif" font-size="10.00" fill="grey">&#45;_frame</text>
</g>
<!-- Node3 -->
<g id="Node000003" class="node">
<title>Node3</title>
<g id="a_Node000003"><a xlink:href="../../d9/db1/classTerraria_1_1Utilities_1_1UnifiedRandom.html" target="_top" xlink:title=" ">
<polygon fill="white" stroke="transparent" points="284.13,-491 127.13,-491 127.13,-226 284.13,-226 284.13,-491"/>
<text text-anchor="start" x="148.13" y="-478.5" font-family="Helvetica,sans-Serif" font-size="10.00">Terraria.Utilities.Unified</text>
<text text-anchor="start" x="185.63" y="-467.5" font-family="Helvetica,sans-Serif" font-size="10.00">Random</text>
<text text-anchor="start" x="204.13" y="-452.5" font-family="Helvetica,sans-Serif" font-size="10.00"> </text>
<text text-anchor="start" x="131.63" y="-437.5" font-family="Helvetica,sans-Serif" font-size="10.00">+</text>
<text text-anchor="start" x="144.63" y="-437.5" font-family="Helvetica,sans-Serif" font-size="10.00">UnifiedRandom()</text>
<text text-anchor="start" x="131.63" y="-422.5" font-family="Helvetica,sans-Serif" font-size="10.00">+</text>
<text text-anchor="start" x="144.63" y="-422.5" font-family="Helvetica,sans-Serif" font-size="10.00">UnifiedRandom(int</text>
<text text-anchor="start" x="144.63" y="-411.5" font-family="Helvetica,sans-Serif" font-size="10.00"> Seed)</text>
<text text-anchor="start" x="131.63" y="-396.5" font-family="Helvetica,sans-Serif" font-size="10.00">+</text>
<text text-anchor="start" x="144.63" y="-396.5" font-family="Helvetica,sans-Serif" font-size="10.00">void SetSeed(int Seed)</text>
<text text-anchor="start" x="131.63" y="-381.5" font-family="Helvetica,sans-Serif" font-size="10.00">+</text>
<text text-anchor="start" x="144.63" y="-381.5" font-family="Helvetica,sans-Serif" font-size="10.00">virtual int Next()</text>
<text text-anchor="start" x="131.63" y="-366.5" font-family="Helvetica,sans-Serif" font-size="10.00">+</text>
<text text-anchor="start" x="144.63" y="-366.5" font-family="Helvetica,sans-Serif" font-size="10.00">virtual int Next(int</text>
<text text-anchor="start" x="144.63" y="-355.5" font-family="Helvetica,sans-Serif" font-size="10.00"> minValue, int maxValue)</text>
<text text-anchor="start" x="131.63" y="-340.5" font-family="Helvetica,sans-Serif" font-size="10.00">+</text>
<text text-anchor="start" x="144.63" y="-340.5" font-family="Helvetica,sans-Serif" font-size="10.00">virtual int Next(int</text>
<text text-anchor="start" x="144.63" y="-329.5" font-family="Helvetica,sans-Serif" font-size="10.00"> maxValue)</text>
<text text-anchor="start" x="131.63" y="-314.5" font-family="Helvetica,sans-Serif" font-size="10.00">+</text>
<text text-anchor="start" x="144.63" y="-314.5" font-family="Helvetica,sans-Serif" font-size="10.00">virtual double NextDouble()</text>
<text text-anchor="start" x="131.63" y="-299.5" font-family="Helvetica,sans-Serif" font-size="10.00">+</text>
<text text-anchor="start" x="144.63" y="-299.5" font-family="Helvetica,sans-Serif" font-size="10.00">virtual void NextBytes</text>
<text text-anchor="start" x="144.63" y="-288.5" font-family="Helvetica,sans-Serif" font-size="10.00">(byte[] buffer)</text>
<text text-anchor="start" x="131.63" y="-273.5" font-family="Helvetica,sans-Serif" font-size="10.00">#</text>
<text text-anchor="start" x="144.63" y="-273.5" font-family="Helvetica,sans-Serif" font-size="10.00">virtual double Sample()</text>
<text text-anchor="start" x="134.13" y="-258.5" font-family="Helvetica,sans-Serif" font-size="10.00">&#45;</text>
<text text-anchor="start" x="144.63" y="-258.5" font-family="Helvetica,sans-Serif" font-size="10.00">int InternalSample()</text>
<text text-anchor="start" x="134.13" y="-243.5" font-family="Helvetica,sans-Serif" font-size="10.00">&#45;</text>
<text text-anchor="start" x="144.63" y="-243.5" font-family="Helvetica,sans-Serif" font-size="10.00">double GetSampleForLarge</text>
<text text-anchor="start" x="144.63" y="-232.5" font-family="Helvetica,sans-Serif" font-size="10.00">Range()</text>
<polygon fill="#666666" stroke="#666666" points="127.63,-462.5 127.63,-462.5 284.63,-462.5 284.63,-462.5 127.63,-462.5"/>
<polygon fill="#666666" stroke="#666666" points="127.63,-447.5 127.63,-447.5 284.63,-447.5 284.63,-447.5 127.63,-447.5"/>
<polygon fill="none" stroke="#666666" points="127.13,-226 127.13,-491 284.13,-491 284.13,-226 127.13,-226"/>
</a>
</g>
</g>
<!-- Node2&#45;&gt;Node3 -->
<g id="edge3_Node000003_Node000002" class="edge">
<title>Node2&#45;&gt;Node3</title>
<g id="a_edge3_Node000003_Node000002"><a xlink:title=" ">
<path fill="none" stroke="#63b8ff" d="M61.36,-597.18C74.56,-575.43 97.27,-538.03 120.81,-499.25"/>
<polygon fill="none" stroke="#63b8ff" points="120.9,-499.08 120.6,-491.88 127.13,-488.83 127.44,-496.03 120.9,-499.08"/>
</a>
</g>
<text text-anchor="middle" x="142.13" y="-567" font-family="Helvetica,sans-Serif" font-size="10.00" fill="grey"> &#45;MBIG</text>
<text text-anchor="middle" x="142.13" y="-556" font-family="Helvetica,sans-Serif" font-size="10.00" fill="grey">&#45;MSEED</text>
<text text-anchor="middle" x="142.13" y="-545" font-family="Helvetica,sans-Serif" font-size="10.00" fill="grey">&#45;MZ</text>
<text text-anchor="middle" x="142.13" y="-534" font-family="Helvetica,sans-Serif" font-size="10.00" fill="grey">&#45;SeedArray</text>
<text text-anchor="middle" x="142.13" y="-523" font-family="Helvetica,sans-Serif" font-size="10.00" fill="grey">&#45;inext</text>
<text text-anchor="middle" x="142.13" y="-512" font-family="Helvetica,sans-Serif" font-size="10.00" fill="grey">&#45;inextp</text>
</g>
<!-- Node3&#45;&gt;Node1 -->
<g id="edge2_Node000001_Node000003" class="edge">
<title>Node3&#45;&gt;Node1</title>
<g id="a_edge2_Node000001_Node000003"><a xlink:title=" ">
<path fill="none" stroke="#63b8ff" d="M261.04,-225.77C273.75,-203.71 288.62,-182.13 305.63,-164 319.88,-148.82 337.25,-135.32 355.05,-123.68"/>
<polygon fill="none" stroke="#63b8ff" points="355.42,-123.45 358.35,-116.87 365.56,-117.05 362.62,-123.63 355.42,-123.45"/>
</a>
</g>
<text text-anchor="middle" x="331.63" y="-183.5" font-family="Helvetica,sans-Serif" font-size="10.00" fill="grey"> +Random</text>
</g>
<!-- Node4 -->
<g id="Node000004" class="node">
<title>Node4</title>
<g id="a_Node000004"><a xlink:title=" ">
<polygon fill="white" stroke="transparent" points="362.63,-383 302.63,-383 302.63,-334 362.63,-334 362.63,-383"/>
<text text-anchor="start" x="307.63" y="-370.5" font-family="Helvetica,sans-Serif" font-size="10.00">Texture2D</text>
<text text-anchor="start" x="330.63" y="-355.5" font-family="Helvetica,sans-Serif" font-size="10.00"> </text>
<text text-anchor="start" x="330.63" y="-340.5" font-family="Helvetica,sans-Serif" font-size="10.00"> </text>
<polygon fill="#666666" stroke="#666666" points="302.63,-365.5 302.63,-365.5 362.63,-365.5 362.63,-365.5 302.63,-365.5"/>
<polygon fill="#666666" stroke="#666666" points="302.63,-350.5 302.63,-350.5 362.63,-350.5 362.63,-350.5 302.63,-350.5"/>
<polygon fill="none" stroke="#666666" points="302.63,-334 302.63,-383 362.63,-383 362.63,-334 302.63,-334"/>
</a>
</g>
</g>
<!-- Node4&#45;&gt;Node1 -->
<g id="edge4_Node000001_Node000004" class="edge">
<title>Node4&#45;&gt;Node1</title>
<g id="a_edge4_Node000001_Node000004"><a xlink:title=" ">
<path fill="none" stroke="#63b8ff" d="M334.63,-333.94C338.61,-296.23 349.75,-220.78 378.63,-164 379.93,-161.45 381.32,-158.91 382.77,-156.39"/>
<polygon fill="none" stroke="#63b8ff" points="382.81,-156.32 382.58,-149.12 389.15,-146.13 389.38,-153.34 382.81,-156.32"/>
</a>
</g>
<text text-anchor="middle" x="415.13" y="-189" font-family="Helvetica,sans-Serif" font-size="10.00" fill="grey"> +GlowTexture</text>
<text text-anchor="middle" x="415.13" y="-178" font-family="Helvetica,sans-Serif" font-size="10.00" fill="grey">&#45;_texture</text>
</g>
<!-- Node5 -->
<g id="Node000005" class="node">
<title>Node5</title>
<g id="a_Node000005"><a xlink:href="../../d8/d22/classTerraria_1_1GameContent_1_1Skies_1_1MartianSky_1_1IUfoController.html" target="_top" xlink:title=" ">
<polygon fill="white" stroke="transparent" points="530.63,-401.5 380.63,-401.5 380.63,-315.5 530.63,-315.5 530.63,-401.5"/>
<text text-anchor="start" x="385.63" y="-389.5" font-family="Helvetica,sans-Serif" font-size="10.00">Terraria.GameContent.Skies.</text>
<text text-anchor="start" x="393.13" y="-378.5" font-family="Helvetica,sans-Serif" font-size="10.00">MartianSky.IUfoController</text>
<text text-anchor="start" x="453.63" y="-363.5" font-family="Helvetica,sans-Serif" font-size="10.00"> </text>
<text text-anchor="start" x="386.63" y="-348.5" font-family="Helvetica,sans-Serif" font-size="10.00">+</text>
<text text-anchor="start" x="401.63" y="-348.5" font-family="Helvetica,sans-Serif" font-size="10.00">void InitializeUfo</text>
<text text-anchor="start" x="401.63" y="-337.5" font-family="Helvetica,sans-Serif" font-size="10.00">(ref Ufo ufo)</text>
<text text-anchor="start" x="386.63" y="-322.5" font-family="Helvetica,sans-Serif" font-size="10.00">+</text>
<text text-anchor="start" x="401.63" y="-322.5" font-family="Helvetica,sans-Serif" font-size="10.00">bool Update(ref Ufo ufo)</text>
<polygon fill="#666666" stroke="#666666" points="380.63,-373.5 380.63,-373.5 530.63,-373.5 530.63,-373.5 380.63,-373.5"/>
<polygon fill="#666666" stroke="#666666" points="380.63,-358.5 380.63,-358.5 530.63,-358.5 530.63,-358.5 380.63,-358.5"/>
<polygon fill="none" stroke="#666666" points="380.63,-315.5 380.63,-401.5 530.63,-401.5 530.63,-315.5 380.63,-315.5"/>
</a>
</g>
</g>
<!-- Node5&#45;&gt;Node1 -->
<g id="edge5_Node000001_Node000005" class="edge">
<title>Node5&#45;&gt;Node1</title>
<g id="a_edge5_Node000001_Node000005"><a xlink:title=" ">
<path fill="none" stroke="#63b8ff" d="M455.63,-315.36C455.63,-274.09 455.63,-210.05 455.63,-158.3"/>
<polygon fill="none" stroke="#63b8ff" points="455.63,-158.11 451.63,-152.11 455.63,-146.11 459.63,-152.11 455.63,-158.11"/>
</a>
</g>
<text text-anchor="middle" x="485.13" y="-183.5" font-family="Helvetica,sans-Serif" font-size="10.00" fill="grey"> &#45;_controller</text>
</g>
<!-- Node6 -->
<g id="Node000006" class="node">
<title>Node6</title>
<g id="a_Node000006"><a xlink:title=" ">
<polygon fill="white" stroke="transparent" points="595.13,-383 548.13,-383 548.13,-334 595.13,-334 595.13,-383"/>
<text text-anchor="start" x="553.63" y="-370.5" font-family="Helvetica,sans-Serif" font-size="10.00">Vector2</text>
<text text-anchor="start" x="570.13" y="-355.5" font-family="Helvetica,sans-Serif" font-size="10.00"> </text>
<text text-anchor="start" x="570.13" y="-340.5" font-family="Helvetica,sans-Serif" font-size="10.00"> </text>
<polygon fill="#666666" stroke="#666666" points="548.63,-365.5 548.63,-365.5 595.63,-365.5 595.63,-365.5 548.63,-365.5"/>
<polygon fill="#666666" stroke="#666666" points="548.63,-350.5 548.63,-350.5 595.63,-350.5 595.63,-350.5 548.63,-350.5"/>
<polygon fill="none" stroke="#666666" points="548.13,-334 548.13,-383 595.13,-383 595.13,-334 548.13,-334"/>
</a>
</g>
</g>
<!-- Node6&#45;&gt;Node1 -->
<g id="edge6_Node000001_Node000006" class="edge">
<title>Node6&#45;&gt;Node1</title>
<g id="a_edge6_Node000001_Node000006"><a xlink:title=" ">
<path fill="none" stroke="#63b8ff" d="M568.28,-333.76C562.3,-296.13 547.58,-221.18 518.63,-164 517.41,-161.58 516.13,-159.15 514.79,-156.72"/>
<polygon fill="none" stroke="#63b8ff" points="514.67,-156.5 508.21,-153.29 508.68,-146.1 515.14,-149.3 514.67,-156.5"/>
</a>
</g>
<text text-anchor="middle" x="561.13" y="-183.5" font-family="Helvetica,sans-Serif" font-size="10.00" fill="grey"> +Position</text>
</g>
<!-- Node7 -->
<g id="Node000007" class="node">
<title>Node7</title>
<g id="a_Node000007"><a xlink:title=" ">
<polygon fill="white" stroke="transparent" points="645.63,-383 613.63,-383 613.63,-334 645.63,-334 645.63,-383"/>
<text text-anchor="start" x="618.63" y="-370.5" font-family="Helvetica,sans-Serif" font-size="10.00">float</text>
<text text-anchor="start" x="627.63" y="-355.5" font-family="Helvetica,sans-Serif" font-size="10.00"> </text>
<text text-anchor="start" x="627.63" y="-340.5" font-family="Helvetica,sans-Serif" font-size="10.00"> </text>
<polygon fill="#666666" stroke="#666666" points="613.63,-365.5 613.63,-365.5 645.63,-365.5 645.63,-365.5 613.63,-365.5"/>
<polygon fill="#666666" stroke="#666666" points="613.63,-350.5 613.63,-350.5 645.63,-350.5 645.63,-350.5 613.63,-350.5"/>
<polygon fill="none" stroke="#666666" points="613.63,-334 613.63,-383 645.63,-383 645.63,-334 613.63,-334"/>
</a>
</g>
</g>
<!-- Node7&#45;&gt;Node1 -->
<g id="edge7_Node000001_Node000007" class="edge">
<title>Node7&#45;&gt;Node1</title>
<g id="a_edge7_Node000001_Node000007"><a xlink:title=" ">
<path fill="none" stroke="#63b8ff" d="M630.58,-333.79C630.97,-294.87 626.75,-216.52 590.63,-164 581.19,-150.27 568.91,-138.08 555.6,-127.46"/>
<polygon fill="none" stroke="#63b8ff" points="555.32,-127.24 548.12,-126.81 545.75,-119.99 552.95,-120.43 555.32,-127.24"/>
</a>
</g>
<text text-anchor="middle" x="636.63" y="-200" font-family="Helvetica,sans-Serif" font-size="10.00" fill="grey"> +Depth</text>
<text text-anchor="middle" x="636.63" y="-189" font-family="Helvetica,sans-Serif" font-size="10.00" fill="grey">+Opacity</text>
<text text-anchor="middle" x="636.63" y="-178" font-family="Helvetica,sans-Serif" font-size="10.00" fill="grey">+Rotation</text>
<text text-anchor="middle" x="636.63" y="-167" font-family="Helvetica,sans-Serif" font-size="10.00" fill="grey">+Scale</text>
</g>
<!-- Node8 -->
<g id="Node000008" class="node">
<title>Node8</title>
<g id="a_Node000008"><a xlink:href="../../d9/db9/classbool.html" target="_top" xlink:title=" ">
<polygon fill="white" stroke="transparent" points="718.63,-383 686.63,-383 686.63,-334 718.63,-334 718.63,-383"/>
<text text-anchor="start" x="691.63" y="-370.5" font-family="Helvetica,sans-Serif" font-size="10.00">bool</text>
<text text-anchor="start" x="700.63" y="-355.5" font-family="Helvetica,sans-Serif" font-size="10.00"> </text>
<text text-anchor="start" x="700.63" y="-340.5" font-family="Helvetica,sans-Serif" font-size="10.00"> </text>
<polygon fill="#666666" stroke="#666666" points="686.63,-365.5 686.63,-365.5 718.63,-365.5 718.63,-365.5 686.63,-365.5"/>
<polygon fill="#666666" stroke="#666666" points="686.63,-350.5 686.63,-350.5 718.63,-350.5 718.63,-350.5 686.63,-350.5"/>
<polygon fill="none" stroke="#666666" points="686.63,-334 686.63,-383 718.63,-383 718.63,-334 686.63,-334"/>
</a>
</g>
</g>
<!-- Node8&#45;&gt;Node1 -->
<g id="edge8_Node000001_Node000008" class="edge">
<title>Node8&#45;&gt;Node1</title>
<g id="a_edge8_Node000001_Node000008"><a xlink:title=" ">
<path fill="none" stroke="#63b8ff" d="M704.76,-333.77C706.99,-294.11 705.72,-213.84 665.63,-164 638.59,-130.38 596.62,-109.09 557.29,-95.71"/>
<polygon fill="none" stroke="#63b8ff" points="557.16,-95.67 550.22,-97.63 545.74,-91.97 552.68,-90.01 557.16,-95.67"/>
</a>
</g>
<text text-anchor="middle" x="714.13" y="-183.5" font-family="Helvetica,sans-Serif" font-size="10.00" fill="grey"> +IsActive</text>
</g>
</g>
</svg>

<g id="navigator" transform="translate(0 0)" fill="#404254">
  <rect fill="#f2f5e9" fill-opacity="0.5" stroke="#606060" stroke-width=".5" x="0" y="0" width="60" height="60"/>
  <use id="zoomplus" xlink:href="#zoomPlus" x="17" y="9" onmousedown="handleZoom(evt,'in')"/>
  <use id="zoomminus" xlink:href="#zoomMin" x="42" y="9" onmousedown="handleZoom(evt,'out')"/>
  <use id="reset" xlink:href="#resetDef" x="30" y="36" onmousedown="handleReset()"/>
   <use id="arrowup" xlink:href="#arrowUp" x="0" y="0" onmousedown="handlePan(0,-1)"/>
  <use id="arrowright" xlink:href="#arrowRight" x="0" y="0" onmousedown="handlePan(1,0)"/>
  <use id="arrowdown" xlink:href="#arrowDown" x="0" y="0" onmousedown="handlePan(0,1)"/>
  <use id="arrowleft" xlink:href="#arrowLeft" x="0" y="0" onmousedown="handlePan(-1,0)"/>
</g>
<svg viewBox="0 0 15 15" width="100%" height="30px" preserveAspectRatio="xMaxYMin meet">
 <g id="arrow_out" transform="scale(0.3 0.3)">
  <a xlink:href="structTerraria_1_1GameContent_1_1Skies_1_1MartianSky_1_1Ufo__coll__graph_org.svg" target="_base">
   <rect id="button" ry="5" rx="5" y="6" x="6" height="38" width="38"
        fill="#f2f5e9" fill-opacity="0.5" stroke="#606060" stroke-width="1.0"/>
   <path id="arrow"
     d="M 11.500037,31.436501 C 11.940474,20.09759 22.043105,11.32322 32.158766,21.979434 L 37.068811,17.246167 C 37.068811,17.246167 37.088388,32 37.088388,32 L 22.160133,31.978069 C 22.160133,31.978069 26.997745,27.140456 26.997745,27.140456 C 18.528582,18.264221 13.291696,25.230495 11.500037,31.436501 z"
     style="fill:#404040;"/>
  </a>
 </g>
</svg>

<style type='text/css'>
<![CDATA[
[data-mouse-over-selected='false'] { opacity: 0.7; }
[data-mouse-over-selected='true']  { opacity: 1.0; }
]]>
</style>
<script type="application/ecmascript"><![CDATA[
document.addEventListener('DOMContentLoaded', (event) => {
  highlightEdges();
  highlightAdjacentNodes();
});
]]></script>
</svg>
