<?xml version="1.0" encoding="UTF-8" standalone="no"?>
<!DOCTYPE svg PUBLIC "-//W3C//DTD SVG 1.1//EN"
 "http://www.w3.org/Graphics/SVG/1.1/DTD/svg11.dtd">
<!-- Generated by graphviz version 2.43.0 (0)
 -->
<!-- Title: Terraria.GameContent.UI.GameTipsDisplay Pages: 1 -->
<!--zoomable 628 -->

<svg id="main" version="1.1" xmlns="http://www.w3.org/2000/svg" xmlns:xlink="http://www.w3.org/1999/xlink" xml:space="preserve" onload="init(evt)">
<style type="text/css"><![CDATA[
.node, .edge {opacity: 0.7;}
.node.selected, .edge.selected {opacity: 1;}
.edge:hover path { stroke: red; }
.edge:hover polygon { stroke: red; fill: red; }
]]></style>

<defs>
  <circle id="rim" cx="0" cy="0" r="7"/>
  <circle id="rim2" cx="0" cy="0" r="3.5"/>
  <g id="zoomPlus">
    <use xlink:href="#rim" fill="#404040"><set attributeName="fill" to="#808080" begin="zoomplus.mouseover" end="zoomplus.mouseout"/></use>
    <path d="M-4,0h8M0,-4v8" fill="none" stroke="white" stroke-width="1.5" pointer-events="none"/>
  </g>
  <g id="zoomMin">
    <use xlink:href="#rim" fill="#404040"><set attributeName="fill" to="#808080" begin="zoomminus.mouseover" end="zoomminus.mouseout"/></use>
    <path d="M-4,0h8" fill="none" stroke="white" stroke-width="1.5" pointer-events="none"/>
  </g>
  <g id="arrowUp" transform="translate(30 24)">
    <use xlink:href="#rim"/>
    <path pointer-events="none" fill="none" stroke="white" stroke-width="1.5" d="M0,-3.0v7 M-2.5,-0.5L0,-3.0L2.5,-0.5"/>
  </g>
  <g id="arrowRight" transform="rotate(90) translate(36 -43)">
    <use xlink:href="#rim"/>
    <path pointer-events="none" fill="none" stroke="white" stroke-width="1.5" d="M0,-3.0v7 M-2.5,-0.5L0,-3.0L2.5,-0.5"/>
  </g>
  <g id="arrowDown" transform="rotate(180) translate(-30 -48)">
    <use xlink:href="#rim"/>
    <path pointer-events="none" fill="none" stroke="white" stroke-width="1.5" d="M0,-3.0v7 M-2.5,-0.5L0,-3.0L2.5,-0.5"/>
  </g>
  <g id="arrowLeft" transform="rotate(270) translate(-36 17)">
    <use xlink:href="#rim"/>
    <path pointer-events="none" fill="none" stroke="white" stroke-width="1.5" d="M0,-3.0v7 M-2.5,-0.5L0,-3.0L2.5,-0.5"/>
  </g>
  <g id="resetDef">
    <use xlink:href="#rim2" fill="#404040"><set attributeName="fill" to="#808080" begin="reset.mouseover" end="reset.mouseout"/></use>
  </g>
</defs>
<script type="application/ecmascript">
var viewWidth = 456;
var viewHeight = 628;
var sectionId = 'dynsection-0';
</script>
<script type="application/ecmascript" xlink:href="../../svg.min.js"/>
<svg id="graph" class="graph">
<g id="viewport">
<title>Terraria.GameContent.UI.GameTipsDisplay</title>
<!-- Node1 -->
<g id="Node000001" class="node">
<title>Node1</title>
<g id="a_Node000001"><a xlink:title=" ">
<polygon fill="#999999" stroke="transparent" points="296.5,-131 158.5,-131 158.5,0 296.5,0 296.5,-131"/>
<text text-anchor="start" x="165.5" y="-118.5" font-family="Helvetica,sans-Serif" font-size="10.00">Terraria.GameContent.UI.</text>
<text text-anchor="start" x="184" y="-107.5" font-family="Helvetica,sans-Serif" font-size="10.00">GameTipsDisplay</text>
<text text-anchor="start" x="225.5" y="-92.5" font-family="Helvetica,sans-Serif" font-size="10.00"> </text>
<text text-anchor="start" x="162.5" y="-77.5" font-family="Helvetica,sans-Serif" font-size="10.00">+</text>
<text text-anchor="start" x="175.5" y="-77.5" font-family="Helvetica,sans-Serif" font-size="10.00">GameTipsDisplay()</text>
<text text-anchor="start" x="162.5" y="-62.5" font-family="Helvetica,sans-Serif" font-size="10.00">+</text>
<text text-anchor="start" x="175.5" y="-62.5" font-family="Helvetica,sans-Serif" font-size="10.00">void Update()</text>
<text text-anchor="start" x="162.5" y="-47.5" font-family="Helvetica,sans-Serif" font-size="10.00">+</text>
<text text-anchor="start" x="175.5" y="-47.5" font-family="Helvetica,sans-Serif" font-size="10.00">void ClearTips()</text>
<text text-anchor="start" x="162.5" y="-32.5" font-family="Helvetica,sans-Serif" font-size="10.00">+</text>
<text text-anchor="start" x="175.5" y="-32.5" font-family="Helvetica,sans-Serif" font-size="10.00">void Draw()</text>
<text text-anchor="start" x="165" y="-17.5" font-family="Helvetica,sans-Serif" font-size="10.00">&#45;</text>
<text text-anchor="start" x="175.5" y="-17.5" font-family="Helvetica,sans-Serif" font-size="10.00">void AddNewTip(double</text>
<text text-anchor="start" x="175.5" y="-6.5" font-family="Helvetica,sans-Serif" font-size="10.00"> currentTime)</text>
<polygon fill="#666666" stroke="#666666" points="158.5,-102.5 158.5,-102.5 296.5,-102.5 296.5,-102.5 158.5,-102.5"/>
<polygon fill="#666666" stroke="#666666" points="158.5,-87.5 158.5,-87.5 296.5,-87.5 296.5,-87.5 158.5,-87.5"/>
<polygon fill="none" stroke="#666666" points="158.5,0 158.5,-131 296.5,-131 296.5,0 158.5,0"/>
</a>
</g>
</g>
<!-- Node2 -->
<g id="Node000002" class="node">
<title>Node2</title>
<g id="a_Node000002"><a xlink:href="../../d5/d73/classTerraria_1_1Localization_1_1LocalizedText.html" target="_top" xlink:title=" ">
<polygon fill="white" stroke="transparent" points="186.5,-524 8.5,-524 8.5,-211 186.5,-211 186.5,-524"/>
<text text-anchor="start" x="13.5" y="-511.5" font-family="Helvetica,sans-Serif" font-size="10.00">Terraria.Localization.LocalizedText</text>
<text text-anchor="start" x="14" y="-496.5" font-family="Helvetica,sans-Serif" font-size="10.00">+</text>
<text text-anchor="start" x="28.5" y="-496.5" font-family="Helvetica,sans-Serif" font-size="10.00">string Value</text>
<text text-anchor="start" x="14" y="-481.5" font-family="Helvetica,sans-Serif" font-size="10.00">+</text>
<text text-anchor="start" x="28.5" y="-481.5" font-family="Helvetica,sans-Serif" font-size="10.00">string FormatWith(object obj)</text>
<text text-anchor="start" x="14" y="-466.5" font-family="Helvetica,sans-Serif" font-size="10.00">+</text>
<text text-anchor="start" x="28.5" y="-466.5" font-family="Helvetica,sans-Serif" font-size="10.00">bool CanFormatWith</text>
<text text-anchor="start" x="28.5" y="-455.5" font-family="Helvetica,sans-Serif" font-size="10.00">(object obj)</text>
<text text-anchor="start" x="14" y="-440.5" font-family="Helvetica,sans-Serif" font-size="10.00">+</text>
<text text-anchor="start" x="28.5" y="-440.5" font-family="Helvetica,sans-Serif" font-size="10.00">NetworkText ToNetworkText()</text>
<text text-anchor="start" x="14" y="-425.5" font-family="Helvetica,sans-Serif" font-size="10.00">+</text>
<text text-anchor="start" x="28.5" y="-425.5" font-family="Helvetica,sans-Serif" font-size="10.00">NetworkText ToNetworkText</text>
<text text-anchor="start" x="28.5" y="-414.5" font-family="Helvetica,sans-Serif" font-size="10.00">(params object[] substitutions)</text>
<text text-anchor="start" x="14" y="-399.5" font-family="Helvetica,sans-Serif" font-size="10.00">+</text>
<text text-anchor="start" x="28.5" y="-399.5" font-family="Helvetica,sans-Serif" font-size="10.00">string Format(object</text>
<text text-anchor="start" x="28.5" y="-388.5" font-family="Helvetica,sans-Serif" font-size="10.00"> arg0)</text>
<text text-anchor="start" x="14" y="-373.5" font-family="Helvetica,sans-Serif" font-size="10.00">+</text>
<text text-anchor="start" x="28.5" y="-373.5" font-family="Helvetica,sans-Serif" font-size="10.00">string Format(object</text>
<text text-anchor="start" x="28.5" y="-362.5" font-family="Helvetica,sans-Serif" font-size="10.00"> arg0, object arg1)</text>
<text text-anchor="start" x="14" y="-347.5" font-family="Helvetica,sans-Serif" font-size="10.00">+</text>
<text text-anchor="start" x="28.5" y="-347.5" font-family="Helvetica,sans-Serif" font-size="10.00">string Format(object</text>
<text text-anchor="start" x="28.5" y="-336.5" font-family="Helvetica,sans-Serif" font-size="10.00"> arg0, object arg1, object arg2)</text>
<text text-anchor="start" x="14" y="-321.5" font-family="Helvetica,sans-Serif" font-size="10.00">+</text>
<text text-anchor="start" x="28.5" y="-321.5" font-family="Helvetica,sans-Serif" font-size="10.00">string Format(params</text>
<text text-anchor="start" x="28.5" y="-310.5" font-family="Helvetica,sans-Serif" font-size="10.00"> object[] args)</text>
<text text-anchor="start" x="14" y="-295.5" font-family="Helvetica,sans-Serif" font-size="10.00">+</text>
<text text-anchor="start" x="28.5" y="-295.5" font-family="Helvetica,sans-Serif" font-size="10.00">override string ToString()</text>
<text text-anchor="start" x="14" y="-280.5" font-family="Helvetica,sans-Serif" font-size="10.00">+</text>
<text text-anchor="start" x="28.5" y="-280.5" font-family="Helvetica,sans-Serif" font-size="10.00">static operator string</text>
<text text-anchor="start" x="28.5" y="-269.5" font-family="Helvetica,sans-Serif" font-size="10.00">(LocalizedText text)</text>
<text text-anchor="start" x="14" y="-254.5" font-family="Helvetica,sans-Serif" font-size="10.00">~</text>
<text text-anchor="start" x="28.5" y="-254.5" font-family="Helvetica,sans-Serif" font-size="10.00">LocalizedText(string</text>
<text text-anchor="start" x="28.5" y="-243.5" font-family="Helvetica,sans-Serif" font-size="10.00"> key, string text)</text>
<text text-anchor="start" x="14" y="-228.5" font-family="Helvetica,sans-Serif" font-size="10.00">~</text>
<text text-anchor="start" x="28.5" y="-228.5" font-family="Helvetica,sans-Serif" font-size="10.00">void SetValue(string</text>
<text text-anchor="start" x="28.5" y="-217.5" font-family="Helvetica,sans-Serif" font-size="10.00"> text)</text>
<polygon fill="#666666" stroke="#666666" points="8.5,-506.5 8.5,-506.5 186.5,-506.5 186.5,-506.5 8.5,-506.5"/>
<polygon fill="#666666" stroke="#666666" points="8.5,-491.5 8.5,-491.5 26.5,-491.5 26.5,-491.5 8.5,-491.5"/>
<polygon fill="#666666" stroke="#666666" points="26.5,-491.5 26.5,-491.5 186.5,-491.5 186.5,-491.5 26.5,-491.5"/>
<polygon fill="none" stroke="#666666" points="8.5,-211 8.5,-524 186.5,-524 186.5,-211 8.5,-211"/>
</a>
</g>
</g>
<!-- Node2&#45;&gt;Node1 -->
<g id="edge1_Node000001_Node000002" class="edge">
<title>Node2&#45;&gt;Node1</title>
<g id="a_edge1_Node000001_Node000002"><a xlink:title=" ">
<path fill="none" stroke="#63b8ff" d="M159.58,-210.86C168.38,-189.96 177.5,-168.89 186.5,-149 187.53,-146.72 188.59,-144.42 189.66,-142.09"/>
<polygon fill="none" stroke="#63b8ff" points="189.71,-141.99 188.65,-134.86 194.82,-131.14 195.88,-138.27 189.71,-141.99"/>
</a>
</g>
<text text-anchor="middle" x="224" y="-185" font-family="Helvetica,sans-Serif" font-size="10.00" fill="grey"> &#45;_lastTip</text>
<text text-anchor="middle" x="224" y="-174" font-family="Helvetica,sans-Serif" font-size="10.00" fill="grey">&#45;_tipsDefault</text>
<text text-anchor="middle" x="224" y="-163" font-family="Helvetica,sans-Serif" font-size="10.00" fill="grey">&#45;_tipsGamepad</text>
<text text-anchor="middle" x="224" y="-152" font-family="Helvetica,sans-Serif" font-size="10.00" fill="grey">&#45;_tipsKeyboard</text>
</g>
<!-- Node2&#45;&gt;Node2 -->
<g id="edge2_Node000002_Node000002" class="edge">
<title>Node2&#45;&gt;Node2</title>
<g id="a_edge2_Node000002_Node000002"><a xlink:title=" ">
<path fill="none" stroke="#63b8ff" d="M186.87,-396.5C197.53,-391.23 204.5,-381.56 204.5,-367.5 204.5,-358.49 201.64,-351.29 196.78,-345.88"/>
<polygon fill="none" stroke="#63b8ff" points="196.49,-345.67 189.29,-345.29 186.87,-338.5 194.07,-338.87 196.49,-345.67"/>
</a>
</g>
<text text-anchor="middle" x="226" y="-365" font-family="Helvetica,sans-Serif" font-size="10.00" fill="grey"> +Empty</text>
</g>
<!-- Node3 -->
<g id="Node000003" class="node">
<title>Node3</title>
<g id="a_Node000003"><a xlink:title=" ">
<polygon fill="white" stroke="transparent" points="71,-620 0,-620 0,-571 71,-571 71,-620"/>
<text text-anchor="start" x="5.5" y="-607.5" font-family="Helvetica,sans-Serif" font-size="10.00">static Regex</text>
<text text-anchor="start" x="34" y="-592.5" font-family="Helvetica,sans-Serif" font-size="10.00"> </text>
<text text-anchor="start" x="34" y="-577.5" font-family="Helvetica,sans-Serif" font-size="10.00"> </text>
<polygon fill="#666666" stroke="#666666" points="0.5,-602.5 0.5,-602.5 71.5,-602.5 71.5,-602.5 0.5,-602.5"/>
<polygon fill="#666666" stroke="#666666" points="0.5,-587.5 0.5,-587.5 71.5,-587.5 71.5,-587.5 0.5,-587.5"/>
<polygon fill="none" stroke="#666666" points="0,-571 0,-620 71,-620 71,-571 0,-571"/>
</a>
</g>
</g>
<!-- Node3&#45;&gt;Node2 -->
<g id="edge3_Node000002_Node000003" class="edge">
<title>Node3&#45;&gt;Node2</title>
<g id="a_edge3_Node000002_Node000003"><a xlink:title=" ">
<path fill="none" stroke="#63b8ff" d="M34.36,-570.82C34.34,-561.74 34.82,-551.33 36.5,-542 36.84,-540.09 37.21,-538.18 37.59,-536.26"/>
<polygon fill="none" stroke="#63b8ff" points="37.61,-536.14 34.95,-529.44 40.12,-524.4 42.78,-531.11 37.61,-536.14"/>
</a>
</g>
<text text-anchor="middle" x="87" y="-545" font-family="Helvetica,sans-Serif" font-size="10.00" fill="grey"> &#45;_substitutionRegex</text>
</g>
<!-- Node4 -->
<g id="Node000004" class="node">
<title>Node4</title>
<g id="a_Node000004"><a xlink:href="../../d5/d92/classstring.html" target="_top" xlink:title=" ">
<polygon fill="white" stroke="transparent" points="178.5,-620 140.5,-620 140.5,-571 178.5,-571 178.5,-620"/>
<text text-anchor="start" x="145.5" y="-607.5" font-family="Helvetica,sans-Serif" font-size="10.00">string</text>
<text text-anchor="start" x="157.5" y="-592.5" font-family="Helvetica,sans-Serif" font-size="10.00"> </text>
<text text-anchor="start" x="157.5" y="-577.5" font-family="Helvetica,sans-Serif" font-size="10.00"> </text>
<polygon fill="#666666" stroke="#666666" points="140.5,-602.5 140.5,-602.5 178.5,-602.5 178.5,-602.5 140.5,-602.5"/>
<polygon fill="#666666" stroke="#666666" points="140.5,-587.5 140.5,-587.5 178.5,-587.5 178.5,-587.5 140.5,-587.5"/>
<polygon fill="none" stroke="#666666" points="140.5,-571 140.5,-620 178.5,-620 178.5,-571 140.5,-571"/>
</a>
</g>
</g>
<!-- Node4&#45;&gt;Node2 -->
<g id="edge4_Node000002_Node000004" class="edge">
<title>Node4&#45;&gt;Node2</title>
<g id="a_edge4_Node000002_Node000004"><a xlink:title=" ">
<path fill="none" stroke="#63b8ff" d="M152.98,-570.74C150.36,-561.19 147.1,-549.3 143.48,-536.1"/>
<polygon fill="none" stroke="#63b8ff" points="143.39,-535.76 137.94,-531.03 140.21,-524.19 145.66,-528.91 143.39,-535.76"/>
</a>
</g>
<text text-anchor="middle" x="163.5" y="-545" font-family="Helvetica,sans-Serif" font-size="10.00" fill="grey"> +Key</text>
</g>
<!-- Node5 -->
<g id="Node000005" class="node">
<title>Node5</title>
<g id="a_Node000005"><a xlink:title=" ">
<polygon fill="white" stroke="transparent" points="447.5,-403 265.5,-403 265.5,-332 447.5,-332 447.5,-403"/>
<text text-anchor="start" x="270.5" y="-390.5" font-family="Helvetica,sans-Serif" font-size="10.00">readonly List&lt; Terraria.</text>
<text text-anchor="start" x="270.5" y="-379.5" font-family="Helvetica,sans-Serif" font-size="10.00">GameContent.UI.GameTipsDisplay.</text>
<text text-anchor="start" x="328.5" y="-368.5" font-family="Helvetica,sans-Serif" font-size="10.00">GameTip &gt;</text>
<text text-anchor="start" x="354.5" y="-353.5" font-family="Helvetica,sans-Serif" font-size="10.00"> </text>
<text text-anchor="start" x="354.5" y="-338.5" font-family="Helvetica,sans-Serif" font-size="10.00"> </text>
<polygon fill="#666666" stroke="#666666" points="265.5,-363.5 265.5,-363.5 447.5,-363.5 447.5,-363.5 265.5,-363.5"/>
<polygon fill="#666666" stroke="#666666" points="265.5,-348.5 265.5,-348.5 447.5,-348.5 447.5,-348.5 265.5,-348.5"/>
<polygon fill="none" stroke="#666666" points="265.5,-332 265.5,-403 447.5,-403 447.5,-332 265.5,-332"/>
</a>
</g>
</g>
<!-- Node5&#45;&gt;Node1 -->
<g id="edge5_Node000001_Node000005" class="edge">
<title>Node5&#45;&gt;Node1</title>
<g id="a_edge5_Node000001_Node000005"><a xlink:title=" ">
<path fill="none" stroke="#63b8ff" d="M341.58,-331.79C321.75,-285.69 286.2,-203 260.03,-142.16"/>
<polygon fill="none" stroke="#63b8ff" points="260,-142.09 253.96,-138.16 255.26,-131.07 261.31,-135 260,-142.09"/>
</a>
</g>
<text text-anchor="middle" x="313" y="-168.5" font-family="Helvetica,sans-Serif" font-size="10.00" fill="grey"> &#45;_currentTips</text>
</g>
</g>
</svg>

<g id="navigator" transform="translate(0 0)" fill="#404254">
  <rect fill="#f2f5e9" fill-opacity="0.5" stroke="#606060" stroke-width=".5" x="0" y="0" width="60" height="60"/>
  <use id="zoomplus" xlink:href="#zoomPlus" x="17" y="9" onmousedown="handleZoom(evt,'in')"/>
  <use id="zoomminus" xlink:href="#zoomMin" x="42" y="9" onmousedown="handleZoom(evt,'out')"/>
  <use id="reset" xlink:href="#resetDef" x="30" y="36" onmousedown="handleReset()"/>
   <use id="arrowup" xlink:href="#arrowUp" x="0" y="0" onmousedown="handlePan(0,-1)"/>
  <use id="arrowright" xlink:href="#arrowRight" x="0" y="0" onmousedown="handlePan(1,0)"/>
  <use id="arrowdown" xlink:href="#arrowDown" x="0" y="0" onmousedown="handlePan(0,1)"/>
  <use id="arrowleft" xlink:href="#arrowLeft" x="0" y="0" onmousedown="handlePan(-1,0)"/>
</g>
<svg viewBox="0 0 15 15" width="100%" height="30px" preserveAspectRatio="xMaxYMin meet">
 <g id="arrow_out" transform="scale(0.3 0.3)">
  <a xlink:href="classTerraria_1_1GameContent_1_1UI_1_1GameTipsDisplay__coll__graph_org.svg" target="_base">
   <rect id="button" ry="5" rx="5" y="6" x="6" height="38" width="38"
        fill="#f2f5e9" fill-opacity="0.5" stroke="#606060" stroke-width="1.0"/>
   <path id="arrow"
     d="M 11.500037,31.436501 C 11.940474,20.09759 22.043105,11.32322 32.158766,21.979434 L 37.068811,17.246167 C 37.068811,17.246167 37.088388,32 37.088388,32 L 22.160133,31.978069 C 22.160133,31.978069 26.997745,27.140456 26.997745,27.140456 C 18.528582,18.264221 13.291696,25.230495 11.500037,31.436501 z"
     style="fill:#404040;"/>
  </a>
 </g>
</svg>

<style type='text/css'>
<![CDATA[
[data-mouse-over-selected='false'] { opacity: 0.7; }
[data-mouse-over-selected='true']  { opacity: 1.0; }
]]>
</style>
<script type="application/ecmascript"><![CDATA[
document.addEventListener('DOMContentLoaded', (event) => {
  highlightEdges();
  highlightAdjacentNodes();
});
]]></script>
</svg>
