<?xml version="1.0" encoding="UTF-8" standalone="no"?>
<!DOCTYPE svg PUBLIC "-//W3C//DTD SVG 1.1//EN"
 "http://www.w3.org/Graphics/SVG/1.1/DTD/svg11.dtd">
<!-- Generated by graphviz version 2.43.0 (0)
 -->
<!-- Title: MusicCueHolder.SetVolume Pages: 1 -->
<svg width="532pt" height="110pt"
 viewBox="0.00 0.00 532.00 109.50" xmlns="http://www.w3.org/2000/svg" xmlns:xlink="http://www.w3.org/1999/xlink">
<g id="graph0" class="graph" transform="scale(1 1) rotate(0) translate(4 105.5)">
<title>MusicCueHolder.SetVolume</title>
<polygon fill="white" stroke="transparent" points="-4,4 -4,-105.5 528,-105.5 528,4 -4,4"/>
<!-- Node1 -->
<g id="node1" class="node">
<title>Node1</title>
<g id="a_node1"><a xlink:title=" ">
<polygon fill="#bfbfbf" stroke="black" points="373,-44 373,-63 524,-63 524,-44 373,-44"/>
<text text-anchor="middle" x="448.5" y="-51" font-family="Helvetica,sans-Serif" font-size="10.00">MusicCueHolder.SetVolume</text>
</a>
</g>
</g>
<!-- Node2 -->
<g id="node2" class="node">
<title>Node2</title>
<g id="a_node2"><a xlink:href="../../db/dd0/classMusicCueHolder_afbcba783378073cd5769cfc77829558a.html#afbcba783378073cd5769cfc77829558a" target="_top" xlink:title=" ">
<polygon fill="white" stroke="black" points="203,-82 203,-101 322,-101 322,-82 203,-82"/>
<text text-anchor="middle" x="262.5" y="-89" font-family="Helvetica,sans-Serif" font-size="10.00">MusicCueHolder.Play</text>
</a>
</g>
</g>
<!-- Node1&#45;&gt;Node2 -->
<g id="edge1" class="edge">
<title>Node1&#45;&gt;Node2</title>
<path fill="none" stroke="midnightblue" d="M390.94,-65.18C364.85,-70.57 334.26,-76.89 309.6,-81.98"/>
<polygon fill="midnightblue" stroke="midnightblue" points="391.98,-68.54 401.07,-63.09 390.57,-61.68 391.98,-68.54"/>
</g>
<!-- Node3 -->
<g id="node3" class="node">
<title>Node3</title>
<g id="a_node3"><a xlink:href="../../db/dd0/classMusicCueHolder_a87bdcb9b3c20cf58cba76cb414a94c2e.html#a87bdcb9b3c20cf58cba76cb414a94c2e" target="_top" xlink:title=" ">
<polygon fill="white" stroke="black" points="202.5,-44 202.5,-63 322.5,-63 322.5,-44 202.5,-44"/>
<text text-anchor="middle" x="262.5" y="-51" font-family="Helvetica,sans-Serif" font-size="10.00">MusicCueHolder.Stop</text>
</a>
</g>
</g>
<!-- Node1&#45;&gt;Node3 -->
<g id="edge2" class="edge">
<title>Node1&#45;&gt;Node3</title>
<path fill="none" stroke="midnightblue" d="M362.65,-53.5C349.13,-53.5 335.4,-53.5 322.65,-53.5"/>
<polygon fill="midnightblue" stroke="midnightblue" points="362.93,-57 372.93,-53.5 362.93,-50 362.93,-57"/>
</g>
<!-- Node4 -->
<g id="node4" class="node">
<title>Node4</title>
<g id="a_node4"><a xlink:href="../../db/dd0/classMusicCueHolder_ae6c48310e2570f2fdf77caa2bc0ca5bf.html#ae6c48310e2570f2fdf77caa2bc0ca5bf" target="_top" xlink:title=" ">
<polygon fill="white" stroke="black" points="188,-6 188,-25 337,-25 337,-6 188,-6"/>
<text text-anchor="middle" x="262.5" y="-13" font-family="Helvetica,sans-Serif" font-size="10.00">MusicCueHolder.TryPlaying</text>
</a>
</g>
</g>
<!-- Node1&#45;&gt;Node4 -->
<g id="edge3" class="edge">
<title>Node1&#45;&gt;Node4</title>
<path fill="none" stroke="midnightblue" d="M390.94,-41.82C364.85,-36.43 334.26,-30.11 309.6,-25.02"/>
<polygon fill="midnightblue" stroke="midnightblue" points="390.57,-45.32 401.07,-43.91 391.98,-38.46 390.57,-45.32"/>
</g>
<!-- Node5 -->
<g id="node5" class="node">
<title>Node5</title>
<g id="a_node5"><a xlink:href="../../db/dd0/classMusicCueHolder_aff773e653b98c39b197323287ff0a3e7.html#aff773e653b98c39b197323287ff0a3e7" target="_top" xlink:title=" ">
<polygon fill="white" stroke="black" points="0,-0.5 0,-30.5 152,-30.5 152,-0.5 0,-0.5"/>
<text text-anchor="start" x="8" y="-18.5" font-family="Helvetica,sans-Serif" font-size="10.00">MusicCueHolder.RestartAnd</text>
<text text-anchor="middle" x="76" y="-7.5" font-family="Helvetica,sans-Serif" font-size="10.00">TryPlaying</text>
</a>
</g>
</g>
<!-- Node4&#45;&gt;Node5 -->
<g id="edge4" class="edge">
<title>Node4&#45;&gt;Node5</title>
<path fill="none" stroke="midnightblue" d="M177.52,-15.5C169.04,-15.5 160.48,-15.5 152.11,-15.5"/>
<polygon fill="midnightblue" stroke="midnightblue" points="177.79,-19 187.79,-15.5 177.79,-12 177.79,-19"/>
</g>
</g>
</svg>
