<?xml version="1.0" encoding="UTF-8" standalone="no"?>
<!DOCTYPE svg PUBLIC "-//W3C//DTD SVG 1.1//EN"
 "http://www.w3.org/Graphics/SVG/1.1/DTD/svg11.dtd">
<!-- Generated by graphviz version 2.43.0 (0)
 -->
<!-- Title: Terraria.Recipe.AddBalloonFurniture Pages: 1 -->
<!--zoomable 188 -->

<svg id="main" version="1.1" xmlns="http://www.w3.org/2000/svg" xmlns:xlink="http://www.w3.org/1999/xlink" xml:space="preserve" onload="init(evt)">
<style type="text/css"><![CDATA[
.node, .edge {opacity: 0.7;}
.node.selected, .edge.selected {opacity: 1;}
.edge:hover path { stroke: red; }
.edge:hover polygon { stroke: red; fill: red; }
]]></style>

<defs>
  <circle id="rim" cx="0" cy="0" r="7"/>
  <circle id="rim2" cx="0" cy="0" r="3.5"/>
  <g id="zoomPlus">
    <use xlink:href="#rim" fill="#404040"><set attributeName="fill" to="#808080" begin="zoomplus.mouseover" end="zoomplus.mouseout"/></use>
    <path d="M-4,0h8M0,-4v8" fill="none" stroke="white" stroke-width="1.5" pointer-events="none"/>
  </g>
  <g id="zoomMin">
    <use xlink:href="#rim" fill="#404040"><set attributeName="fill" to="#808080" begin="zoomminus.mouseover" end="zoomminus.mouseout"/></use>
    <path d="M-4,0h8" fill="none" stroke="white" stroke-width="1.5" pointer-events="none"/>
  </g>
  <g id="arrowUp" transform="translate(30 24)">
    <use xlink:href="#rim"/>
    <path pointer-events="none" fill="none" stroke="white" stroke-width="1.5" d="M0,-3.0v7 M-2.5,-0.5L0,-3.0L2.5,-0.5"/>
  </g>
  <g id="arrowRight" transform="rotate(90) translate(36 -43)">
    <use xlink:href="#rim"/>
    <path pointer-events="none" fill="none" stroke="white" stroke-width="1.5" d="M0,-3.0v7 M-2.5,-0.5L0,-3.0L2.5,-0.5"/>
  </g>
  <g id="arrowDown" transform="rotate(180) translate(-30 -48)">
    <use xlink:href="#rim"/>
    <path pointer-events="none" fill="none" stroke="white" stroke-width="1.5" d="M0,-3.0v7 M-2.5,-0.5L0,-3.0L2.5,-0.5"/>
  </g>
  <g id="arrowLeft" transform="rotate(270) translate(-36 17)">
    <use xlink:href="#rim"/>
    <path pointer-events="none" fill="none" stroke="white" stroke-width="1.5" d="M0,-3.0v7 M-2.5,-0.5L0,-3.0L2.5,-0.5"/>
  </g>
  <g id="resetDef">
    <use xlink:href="#rim2" fill="#404040"><set attributeName="fill" to="#808080" begin="reset.mouseover" end="reset.mouseout"/></use>
  </g>
</defs>
<script type="application/ecmascript">
var viewWidth = 530;
var viewHeight = 188;
var sectionId = 'dynsection-0';
</script>
<script type="application/ecmascript" xlink:href="../../svg.min.js"/>
<svg id="graph" class="graph">
<g id="viewport">
<title>Terraria.Recipe.AddBalloonFurniture</title>
<!-- Node1 -->
<g id="Node000001" class="node">
<title>Node1</title>
<g id="a_Node000001"><a xlink:title=" ">
<polygon fill="#999999" stroke="#666666" points="148,-105.5 0,-105.5 0,-75.5 148,-75.5 148,-105.5"/>
<text text-anchor="start" x="8" y="-93.5" font-family="Helvetica,sans-Serif" font-size="10.00">Terraria.Recipe.AddBalloon</text>
<text text-anchor="middle" x="74" y="-82.5" font-family="Helvetica,sans-Serif" font-size="10.00">Furniture</text>
</a>
</g>
</g>
<!-- Node2 -->
<g id="Node000002" class="node">
<title>Node2</title>
<g id="a_Node000002"><a xlink:href="../../d5/dda/classTerraria_1_1Recipe_a59d42809e0fc6aed7f80856c1ae9cd1e.html#a59d42809e0fc6aed7f80856c1ae9cd1e" target="_top" xlink:title=" ">
<polygon fill="white" stroke="#666666" points="337.5,-180 193.5,-180 193.5,-161 337.5,-161 337.5,-180"/>
<text text-anchor="middle" x="265.5" y="-168" font-family="Helvetica,sans-Serif" font-size="10.00">Terraria.Recipe.AddRecipe</text>
</a>
</g>
</g>
<!-- Node1&#45;&gt;Node2 -->
<g id="edge1_Node000001_Node000002" class="edge">
<title>Node1&#45;&gt;Node2</title>
<g id="a_edge1_Node000001_Node000002"><a xlink:title=" ">
<path fill="none" stroke="#63b8ff" d="M96.99,-105.62C118.34,-119.66 152.12,-140.19 184,-152.5 189.56,-154.65 195.45,-156.57 201.4,-158.29"/>
<polygon fill="#63b8ff" stroke="#63b8ff" points="200.87,-161.78 211.43,-160.99 202.69,-155.02 200.87,-161.78"/>
</a>
</g>
</g>
<!-- Node4 -->
<g id="Node000004" class="node">
<title>Node4</title>
<g id="a_Node000004"><a xlink:href="../../d5/dda/classTerraria_1_1Recipe_af353dab67f38468d35ef9f53d247f793.html#af353dab67f38468d35ef9f53d247f793" target="_top" xlink:title=" ">
<polygon fill="white" stroke="#666666" points="345,-143 186,-143 186,-124 345,-124 345,-143"/>
<text text-anchor="middle" x="265.5" y="-131" font-family="Helvetica,sans-Serif" font-size="10.00">Terraria.Recipe.RequireGroup</text>
</a>
</g>
</g>
<!-- Node1&#45;&gt;Node4 -->
<g id="edge3_Node000001_Node000004" class="edge">
<title>Node1&#45;&gt;Node4</title>
<g id="a_edge3_Node000001_Node000004"><a xlink:title=" ">
<path fill="none" stroke="#63b8ff" d="M141.28,-105.54C164.69,-110.85 190.67,-116.75 212.71,-121.75"/>
<polygon fill="#63b8ff" stroke="#63b8ff" points="212.01,-125.18 222.54,-123.98 213.56,-118.35 212.01,-125.18"/>
</a>
</g>
</g>
<!-- Node5 -->
<g id="Node000005" class="node">
<title>Node5</title>
<g id="a_Node000005"><a xlink:href="../../d5/dda/classTerraria_1_1Recipe_a55823674d08f44594a6332048850ee6d.html#a55823674d08f44594a6332048850ee6d" target="_top" xlink:title=" ">
<polygon fill="white" stroke="#666666" points="338.5,-105.5 192.5,-105.5 192.5,-75.5 338.5,-75.5 338.5,-105.5"/>
<text text-anchor="start" x="200.5" y="-93.5" font-family="Helvetica,sans-Serif" font-size="10.00">Terraria.Recipe.SetCrafting</text>
<text text-anchor="middle" x="265.5" y="-82.5" font-family="Helvetica,sans-Serif" font-size="10.00">Station</text>
</a>
</g>
</g>
<!-- Node1&#45;&gt;Node5 -->
<g id="edge4_Node000001_Node000005" class="edge">
<title>Node1&#45;&gt;Node5</title>
<g id="a_edge4_Node000001_Node000005"><a xlink:title=" ">
<path fill="none" stroke="#63b8ff" d="M148.27,-90.5C159.35,-90.5 170.85,-90.5 182.11,-90.5"/>
<polygon fill="#63b8ff" stroke="#63b8ff" points="182.37,-94 192.37,-90.5 182.37,-87 182.37,-94"/>
</a>
</g>
</g>
<!-- Node6 -->
<g id="Node000006" class="node">
<title>Node6</title>
<g id="a_Node000006"><a xlink:href="../../db/d79/classTerraria_1_1Item_adb2554f9d394eca69180ff503efd10d9.html#adb2554f9d394eca69180ff503efd10d9" target="_top" xlink:title=" ">
<polygon fill="white" stroke="#666666" points="522,-38 383,-38 383,-19 522,-19 522,-38"/>
<text text-anchor="middle" x="452.5" y="-26" font-family="Helvetica,sans-Serif" font-size="10.00">Terraria.Item.SetDefaults</text>
</a>
</g>
</g>
<!-- Node1&#45;&gt;Node6 -->
<g id="edge5_Node000001_Node000006" class="edge">
<title>Node1&#45;&gt;Node6</title>
<g id="a_edge5_Node000001_Node000006"><a xlink:title=" ">
<path fill="none" stroke="#63b8ff" d="M139.39,-75.48C154.01,-72.3 169.51,-69.12 184,-66.5 247.2,-55.07 319.32,-45 372.74,-38.1"/>
<polygon fill="#63b8ff" stroke="#63b8ff" points="373.35,-41.55 382.83,-36.8 372.46,-34.6 373.35,-41.55"/>
</a>
</g>
</g>
<!-- Node7 -->
<g id="Node000007" class="node">
<title>Node7</title>
<g id="a_Node000007"><a xlink:href="../../d5/dda/classTerraria_1_1Recipe_a33dca649370eca08cbf35e0c38b50bba.html#a33dca649370eca08cbf35e0c38b50bba" target="_top" xlink:title=" ">
<polygon fill="white" stroke="#666666" points="347,-19 184,-19 184,0 347,0 347,-19"/>
<text text-anchor="middle" x="265.5" y="-7" font-family="Helvetica,sans-Serif" font-size="10.00">Terraria.Recipe.SetIngredients</text>
</a>
</g>
</g>
<!-- Node1&#45;&gt;Node7 -->
<g id="edge7_Node000001_Node000007" class="edge">
<title>Node1&#45;&gt;Node7</title>
<g id="a_edge7_Node000001_Node000007"><a xlink:title=" ">
<path fill="none" stroke="#63b8ff" d="M100.32,-75.47C122,-63.05 154.32,-45.55 184,-33.5 194.55,-29.21 206.16,-25.31 217.19,-21.95"/>
<polygon fill="#63b8ff" stroke="#63b8ff" points="218.51,-25.21 227.12,-19.03 216.54,-18.5 218.51,-25.21"/>
</a>
</g>
</g>
<!-- Node3 -->
<g id="Node000003" class="node">
<title>Node3</title>
<g id="a_Node000003"><a xlink:href="../../d5/dda/classTerraria_1_1Recipe_ade1fefc36e934771721c59cf6e2555ae.html#ade1fefc36e934771721c59cf6e2555ae" target="_top" xlink:title=" ">
<polygon fill="white" stroke="#666666" points="515,-180 390,-180 390,-161 515,-161 515,-180"/>
<text text-anchor="middle" x="452.5" y="-168" font-family="Helvetica,sans-Serif" font-size="10.00">Terraria.Recipe.Recipe</text>
</a>
</g>
</g>
<!-- Node2&#45;&gt;Node3 -->
<g id="edge2_Node000002_Node000003" class="edge">
<title>Node2&#45;&gt;Node3</title>
<g id="a_edge2_Node000002_Node000003"><a xlink:title=" ">
<path fill="none" stroke="#63b8ff" d="M337.76,-170.5C351.47,-170.5 365.83,-170.5 379.56,-170.5"/>
<polygon fill="#63b8ff" stroke="#63b8ff" points="379.92,-174 389.92,-170.5 379.92,-167 379.92,-174"/>
</a>
</g>
</g>
<!-- Node6&#45;&gt;Node6 -->
<g id="edge6_Node000006_Node000006" class="edge">
<title>Node6&#45;&gt;Node6</title>
<g id="a_edge6_Node000006_Node000006"><a xlink:title=" ">
<path fill="none" stroke="#63b8ff" d="M423.83,-38.08C409.89,-46.73 419.44,-56 452.5,-56 475.23,-56 486.85,-51.62 487.36,-46.07"/>
<polygon fill="#63b8ff" stroke="#63b8ff" points="490.06,-43.84 481.17,-38.08 484.53,-48.13 490.06,-43.84"/>
</a>
</g>
</g>
<!-- Node7&#45;&gt;Node6 -->
<g id="edge8_Node000007_Node000006" class="edge">
<title>Node7&#45;&gt;Node6</title>
<g id="a_edge8_Node000007_Node000006"><a xlink:title=" ">
<path fill="none" stroke="#63b8ff" d="M347.11,-17.78C355.55,-18.65 364.13,-19.53 372.56,-20.39"/>
<polygon fill="#63b8ff" stroke="#63b8ff" points="372.43,-23.9 382.74,-21.44 373.15,-16.93 372.43,-23.9"/>
</a>
</g>
</g>
</g>
</svg>

<g id="navigator" transform="translate(0 0)" fill="#404254">
  <rect fill="#f2f5e9" fill-opacity="0.5" stroke="#606060" stroke-width=".5" x="0" y="0" width="60" height="60"/>
  <use id="zoomplus" xlink:href="#zoomPlus" x="17" y="9" onmousedown="handleZoom(evt,'in')"/>
  <use id="zoomminus" xlink:href="#zoomMin" x="42" y="9" onmousedown="handleZoom(evt,'out')"/>
  <use id="reset" xlink:href="#resetDef" x="30" y="36" onmousedown="handleReset()"/>
   <use id="arrowup" xlink:href="#arrowUp" x="0" y="0" onmousedown="handlePan(0,-1)"/>
  <use id="arrowright" xlink:href="#arrowRight" x="0" y="0" onmousedown="handlePan(1,0)"/>
  <use id="arrowdown" xlink:href="#arrowDown" x="0" y="0" onmousedown="handlePan(0,1)"/>
  <use id="arrowleft" xlink:href="#arrowLeft" x="0" y="0" onmousedown="handlePan(-1,0)"/>
</g>
<svg viewBox="0 0 15 15" width="100%" height="30px" preserveAspectRatio="xMaxYMin meet">
 <g id="arrow_out" transform="scale(0.3 0.3)">
  <a xlink:href="classTerraria_1_1Recipe_a17d551713d20ec7cbc61eaaf314d69a6_a17d551713d20ec7cbc61eaaf314d69a6_cgraph_org.svg" target="_base">
   <rect id="button" ry="5" rx="5" y="6" x="6" height="38" width="38"
        fill="#f2f5e9" fill-opacity="0.5" stroke="#606060" stroke-width="1.0"/>
   <path id="arrow"
     d="M 11.500037,31.436501 C 11.940474,20.09759 22.043105,11.32322 32.158766,21.979434 L 37.068811,17.246167 C 37.068811,17.246167 37.088388,32 37.088388,32 L 22.160133,31.978069 C 22.160133,31.978069 26.997745,27.140456 26.997745,27.140456 C 18.528582,18.264221 13.291696,25.230495 11.500037,31.436501 z"
     style="fill:#404040;"/>
  </a>
 </g>
</svg>

<style type='text/css'>
<![CDATA[
[data-mouse-over-selected='false'] { opacity: 0.7; }
[data-mouse-over-selected='true']  { opacity: 1.0; }
]]>
</style>
<script type="application/ecmascript"><![CDATA[
document.addEventListener('DOMContentLoaded', (event) => {
  highlightEdges();
  highlightAdjacentNodes();
});
]]></script>
</svg>
