<?xml version="1.0" encoding="UTF-8" standalone="no"?>
<!DOCTYPE svg PUBLIC "-//W3C//DTD SVG 1.1//EN"
 "http://www.w3.org/Graphics/SVG/1.1/DTD/svg11.dtd">
<!-- Generated by graphviz version 2.43.0 (0)
 -->
<!-- Title: Terraria.GameContent.UI.States.UIWorkshopWorldImport.UpdateWorldsList Pages: 1 -->
<!--zoomable 316 -->

<svg id="main" version="1.1" xmlns="http://www.w3.org/2000/svg" xmlns:xlink="http://www.w3.org/1999/xlink" xml:space="preserve" onload="init(evt)">
<style type="text/css"><![CDATA[
.node, .edge {opacity: 0.7;}
.node.selected, .edge.selected {opacity: 1;}
.edge:hover path { stroke: red; }
.edge:hover polygon { stroke: red; fill: red; }
]]></style>

<defs>
  <circle id="rim" cx="0" cy="0" r="7"/>
  <circle id="rim2" cx="0" cy="0" r="3.5"/>
  <g id="zoomPlus">
    <use xlink:href="#rim" fill="#404040"><set attributeName="fill" to="#808080" begin="zoomplus.mouseover" end="zoomplus.mouseout"/></use>
    <path d="M-4,0h8M0,-4v8" fill="none" stroke="white" stroke-width="1.5" pointer-events="none"/>
  </g>
  <g id="zoomMin">
    <use xlink:href="#rim" fill="#404040"><set attributeName="fill" to="#808080" begin="zoomminus.mouseover" end="zoomminus.mouseout"/></use>
    <path d="M-4,0h8" fill="none" stroke="white" stroke-width="1.5" pointer-events="none"/>
  </g>
  <g id="arrowUp" transform="translate(30 24)">
    <use xlink:href="#rim"/>
    <path pointer-events="none" fill="none" stroke="white" stroke-width="1.5" d="M0,-3.0v7 M-2.5,-0.5L0,-3.0L2.5,-0.5"/>
  </g>
  <g id="arrowRight" transform="rotate(90) translate(36 -43)">
    <use xlink:href="#rim"/>
    <path pointer-events="none" fill="none" stroke="white" stroke-width="1.5" d="M0,-3.0v7 M-2.5,-0.5L0,-3.0L2.5,-0.5"/>
  </g>
  <g id="arrowDown" transform="rotate(180) translate(-30 -48)">
    <use xlink:href="#rim"/>
    <path pointer-events="none" fill="none" stroke="white" stroke-width="1.5" d="M0,-3.0v7 M-2.5,-0.5L0,-3.0L2.5,-0.5"/>
  </g>
  <g id="arrowLeft" transform="rotate(270) translate(-36 17)">
    <use xlink:href="#rim"/>
    <path pointer-events="none" fill="none" stroke="white" stroke-width="1.5" d="M0,-3.0v7 M-2.5,-0.5L0,-3.0L2.5,-0.5"/>
  </g>
  <g id="resetDef">
    <use xlink:href="#rim2" fill="#404040"><set attributeName="fill" to="#808080" begin="reset.mouseover" end="reset.mouseout"/></use>
  </g>
</defs>
<script type="application/ecmascript">
var viewWidth = 1201;
var viewHeight = 316;
var sectionId = 'dynsection-0';
</script>
<script type="application/ecmascript" xlink:href="../../svg.min.js"/>
<svg id="graph" class="graph">
<g id="viewport">
<title>Terraria.GameContent.UI.States.UIWorkshopWorldImport.UpdateWorldsList</title>
<!-- Node1 -->
<g id="Node000001" class="node">
<title>Node1</title>
<g id="a_Node000001"><a xlink:title=" ">
<polygon fill="#999999" stroke="#666666" points="172,-152.5 0,-152.5 0,-111.5 172,-111.5 172,-152.5"/>
<text text-anchor="start" x="8" y="-140.5" font-family="Helvetica,sans-Serif" font-size="10.00">Terraria.GameContent.UI.</text>
<text text-anchor="start" x="8" y="-129.5" font-family="Helvetica,sans-Serif" font-size="10.00">States.UIWorkshopWorldImport.</text>
<text text-anchor="middle" x="86" y="-118.5" font-family="Helvetica,sans-Serif" font-size="10.00">UpdateWorldsList</text>
</a>
</g>
</g>
<!-- Node2 -->
<g id="Node000002" class="node">
<title>Node2</title>
<g id="a_Node000002"><a xlink:href="../../d5/dda/classTerraria_1_1GameContent_1_1UI_1_1Elements_1_1UIList_a6dbd0d453e8cd36d39c9e27def007389.html#a6dbd0d453e8cd36d39c9e27def007389" target="_top" xlink:title=" ">
<polygon fill="white" stroke="#666666" points="348,-179 208,-179 208,-149 348,-149 348,-179"/>
<text text-anchor="start" x="216" y="-167" font-family="Helvetica,sans-Serif" font-size="10.00">Terraria.GameContent.UI.</text>
<text text-anchor="middle" x="278" y="-156" font-family="Helvetica,sans-Serif" font-size="10.00">Elements.UIList.Add</text>
</a>
</g>
</g>
<!-- Node1&#45;&gt;Node2 -->
<g id="edge1_Node000001_Node000002" class="edge">
<title>Node1&#45;&gt;Node2</title>
<g id="a_edge1_Node000001_Node000002"><a xlink:title=" ">
<path fill="none" stroke="#63b8ff" d="M172.27,-146.36C180.85,-147.81 189.54,-149.27 198.05,-150.7"/>
<polygon fill="#63b8ff" stroke="#63b8ff" points="197.5,-154.16 207.94,-152.37 198.66,-147.26 197.5,-154.16"/>
</a>
</g>
</g>
<!-- Node17 -->
<g id="Node000017" class="node">
<title>Node17</title>
<g id="a_Node000017"><a xlink:href="../../d5/dda/classTerraria_1_1GameContent_1_1UI_1_1Elements_1_1UIList_a376935bd3ae1fe4fddc4feb793ef9221.html#a376935bd3ae1fe4fddc4feb793ef9221" target="_top" xlink:title=" ">
<polygon fill="white" stroke="#666666" points="348,-123 208,-123 208,-93 348,-93 348,-123"/>
<text text-anchor="start" x="216" y="-111" font-family="Helvetica,sans-Serif" font-size="10.00">Terraria.GameContent.UI.</text>
<text text-anchor="middle" x="278" y="-100" font-family="Helvetica,sans-Serif" font-size="10.00">Elements.UIList.Clear</text>
</a>
</g>
</g>
<!-- Node1&#45;&gt;Node17 -->
<g id="edge19_Node000001_Node000017" class="edge">
<title>Node1&#45;&gt;Node17</title>
<g id="a_edge19_Node000001_Node000017"><a xlink:title=" ">
<path fill="none" stroke="#63b8ff" d="M172.27,-121.23C180.76,-120.16 189.35,-119.07 197.77,-118.01"/>
<polygon fill="#63b8ff" stroke="#63b8ff" points="198.46,-121.45 207.94,-116.72 197.58,-114.5 198.46,-121.45"/>
</a>
</g>
</g>
<!-- Node3 -->
<g id="Node000003" class="node">
<title>Node3</title>
<g id="a_Node000003"><a xlink:href="../../d7/d72/classTerraria_1_1UI_1_1UIElement_a4f78a3ab59b3dffcdc5b68328a46f103.html#a4f78a3ab59b3dffcdc5b68328a46f103" target="_top" xlink:title=" ">
<polygon fill="white" stroke="#666666" points="546.5,-144.5 385.5,-144.5 385.5,-125.5 546.5,-125.5 546.5,-144.5"/>
<text text-anchor="middle" x="466" y="-132.5" font-family="Helvetica,sans-Serif" font-size="10.00">Terraria.UI.UIElement.Append</text>
</a>
</g>
</g>
<!-- Node2&#45;&gt;Node3 -->
<g id="edge2_Node000002_Node000003" class="edge">
<title>Node2&#45;&gt;Node3</title>
<g id="a_edge2_Node000002_Node000003"><a xlink:title=" ">
<path fill="none" stroke="#63b8ff" d="M348.26,-153.2C363.11,-150.89 378.83,-148.43 393.76,-146.11"/>
<polygon fill="#63b8ff" stroke="#63b8ff" points="394.61,-149.52 403.95,-144.52 393.53,-142.6 394.61,-149.52"/>
</a>
</g>
</g>
<!-- Node4 -->
<g id="Node000004" class="node">
<title>Node4</title>
<g id="a_Node000004"><a xlink:href="../../d7/d72/classTerraria_1_1UI_1_1UIElement_aa33dca6c66f9820ef270bc2e23ef1496.html#aa33dca6c66f9820ef270bc2e23ef1496" target="_top" xlink:title=" ">
<polygon fill="white" stroke="#666666" points="765,-168.5 584,-168.5 584,-149.5 765,-149.5 765,-168.5"/>
<text text-anchor="middle" x="674.5" y="-156.5" font-family="Helvetica,sans-Serif" font-size="10.00">Terraria.UI.UIElement.Recalculate</text>
</a>
</g>
</g>
<!-- Node2&#45;&gt;Node4 -->
<g id="edge12_Node000002_Node000004" class="edge">
<title>Node2&#45;&gt;Node4</title>
<g id="a_edge12_Node000002_Node000004"><a xlink:title=" ">
<path fill="none" stroke="#63b8ff" d="M348.17,-163.12C410.62,-162.33 503.24,-161.16 573.71,-160.26"/>
<polygon fill="#63b8ff" stroke="#63b8ff" points="573.98,-163.76 583.94,-160.14 573.89,-156.76 573.98,-163.76"/>
</a>
</g>
</g>
<!-- Node12 -->
<g id="Node000012" class="node">
<title>Node12</title>
<g id="a_Node000012"><a xlink:href="../../d5/dda/classTerraria_1_1GameContent_1_1UI_1_1Elements_1_1UIList_a18ed60e2018174ed4dbc48331b1b2e33.html#a18ed60e2018174ed4dbc48331b1b2e33" target="_top" xlink:title=" ">
<polygon fill="white" stroke="#666666" points="545,-233 387,-233 387,-203 545,-203 545,-233"/>
<text text-anchor="start" x="395" y="-221" font-family="Helvetica,sans-Serif" font-size="10.00">Terraria.GameContent.UI.</text>
<text text-anchor="middle" x="466" y="-210" font-family="Helvetica,sans-Serif" font-size="10.00">Elements.UIList.UpdateOrder</text>
</a>
</g>
</g>
<!-- Node2&#45;&gt;Node12 -->
<g id="edge13_Node000002_Node000012" class="edge">
<title>Node2&#45;&gt;Node12</title>
<g id="a_edge13_Node000002_Node000012"><a xlink:title=" ">
<path fill="none" stroke="#63b8ff" d="M330.81,-179.04C353.29,-185.57 379.79,-193.26 403.28,-200.08"/>
<polygon fill="#63b8ff" stroke="#63b8ff" points="402.56,-203.52 413.14,-202.95 404.52,-196.8 402.56,-203.52"/>
</a>
</g>
</g>
<!-- Node3&#45;&gt;Node4 -->
<g id="edge3_Node000003_Node000004" class="edge">
<title>Node3&#45;&gt;Node4</title>
<g id="a_edge3_Node000003_Node000004"><a xlink:title=" ">
<path fill="none" stroke="#63b8ff" d="M546.54,-144.24C557.97,-145.57 569.8,-146.95 581.44,-148.3"/>
<polygon fill="#63b8ff" stroke="#63b8ff" points="581.27,-151.8 591.61,-149.48 582.08,-144.85 581.27,-151.8"/>
</a>
</g>
</g>
<!-- Node10 -->
<g id="Node000010" class="node">
<title>Node10</title>
<g id="a_Node000010"><a xlink:href="../../d7/d72/classTerraria_1_1UI_1_1UIElement_a336d1ad28adbb657010e263b19095502.html#a336d1ad28adbb657010e263b19095502" target="_top" xlink:title=" ">
<polygon fill="white" stroke="#666666" points="756.5,-78.5 592.5,-78.5 592.5,-59.5 756.5,-59.5 756.5,-78.5"/>
<text text-anchor="middle" x="674.5" y="-66.5" font-family="Helvetica,sans-Serif" font-size="10.00">Terraria.UI.UIElement.Remove</text>
</a>
</g>
</g>
<!-- Node3&#45;&gt;Node10 -->
<g id="edge10_Node000003_Node000010" class="edge">
<title>Node3&#45;&gt;Node10</title>
<g id="a_edge10_Node000003_Node000010"><a xlink:title=" ">
<path fill="none" stroke="#63b8ff" d="M512.26,-125.46C523.98,-122.7 536.53,-119.48 548,-116 580.24,-106.23 616.15,-92.48 641.27,-82.37"/>
<polygon fill="#63b8ff" stroke="#63b8ff" points="642.72,-85.56 650.67,-78.56 640.09,-79.07 642.72,-85.56"/>
</a>
</g>
</g>
<!-- Node5 -->
<g id="Node000005" class="node">
<title>Node5</title>
<g id="a_Node000005"><a xlink:href="../../dc/dc4/classTerraria_1_1UI_1_1UserInterface_af1df38079c1c3550e041458b43a9aceb.html#af1df38079c1c3550e041458b43a9aceb" target="_top" xlink:title=" ">
<polygon fill="white" stroke="#666666" points="973.5,-126 834.5,-126 834.5,-96 973.5,-96 973.5,-126"/>
<text text-anchor="start" x="842.5" y="-114" font-family="Helvetica,sans-Serif" font-size="10.00">Terraria.UI.UserInterface.</text>
<text text-anchor="middle" x="904" y="-103" font-family="Helvetica,sans-Serif" font-size="10.00">GetDimensions</text>
</a>
</g>
</g>
<!-- Node4&#45;&gt;Node5 -->
<g id="edge4_Node000004_Node000005" class="edge">
<title>Node4&#45;&gt;Node5</title>
<g id="a_edge4_Node000004_Node000005"><a xlink:title=" ">
<path fill="none" stroke="#63b8ff" d="M720.72,-149.46C750.2,-143.24 789.48,-134.95 824.03,-127.66"/>
<polygon fill="#63b8ff" stroke="#63b8ff" points="825.04,-131.03 834.1,-125.54 823.6,-124.18 825.04,-131.03"/>
</a>
</g>
</g>
<!-- Node6 -->
<g id="Node000006" class="node">
<title>Node6</title>
<g id="a_Node000006"><a xlink:href="../../d7/d72/classTerraria_1_1UI_1_1UIElement_a8cb8692a001e504adb564ae67833de3d.html#a8cb8692a001e504adb564ae67833de3d" target="_top" xlink:title=" ">
<polygon fill="white" stroke="#666666" points="1007,-78 801,-78 801,-48 1007,-48 1007,-78"/>
<text text-anchor="start" x="809" y="-66" font-family="Helvetica,sans-Serif" font-size="10.00">Terraria.UI.UIElement.Get</text>
<text text-anchor="middle" x="904" y="-55" font-family="Helvetica,sans-Serif" font-size="10.00">DimensionsBasedOnParentDimensions</text>
</a>
</g>
</g>
<!-- Node4&#45;&gt;Node6 -->
<g id="edge5_Node000004_Node000006" class="edge">
<title>Node4&#45;&gt;Node6</title>
<g id="a_edge5_Node000004_Node000006"><a xlink:title=" ">
<path fill="none" stroke="#63b8ff" d="M689.13,-149.39C711.48,-134.07 757.78,-104.06 801,-87 806.47,-84.84 812.19,-82.84 818.01,-81"/>
<polygon fill="#63b8ff" stroke="#63b8ff" points="819.29,-84.27 827.86,-78.05 817.28,-77.56 819.29,-84.27"/>
</a>
</g>
</g>
<!-- Node8 -->
<g id="Node000008" class="node">
<title>Node8</title>
<g id="a_Node000008"><a xlink:href="../../d7/d72/classTerraria_1_1UI_1_1UIElement_a5ad03f5ce0e776511a3b7e4a29e16caf.html#a5ad03f5ce0e776511a3b7e4a29e16caf" target="_top" xlink:title=" ">
<polygon fill="white" stroke="#666666" points="974.5,-222 833.5,-222 833.5,-192 974.5,-192 974.5,-222"/>
<text text-anchor="start" x="841.5" y="-210" font-family="Helvetica,sans-Serif" font-size="10.00">Terraria.UI.UIElement.Get</text>
<text text-anchor="middle" x="904" y="-199" font-family="Helvetica,sans-Serif" font-size="10.00">InnerDimensions</text>
</a>
</g>
</g>
<!-- Node4&#45;&gt;Node8 -->
<g id="edge7_Node000004_Node000008" class="edge">
<title>Node4&#45;&gt;Node8</title>
<g id="a_edge7_Node000004_Node000008"><a xlink:title=" ">
<path fill="none" stroke="#63b8ff" d="M720.72,-168.54C749.97,-174.71 788.85,-182.92 823.2,-190.16"/>
<polygon fill="#63b8ff" stroke="#63b8ff" points="822.71,-193.64 833.22,-192.28 824.16,-186.79 822.71,-193.64"/>
</a>
</g>
</g>
<!-- Node9 -->
<g id="Node000009" class="node">
<title>Node9</title>
<g id="a_Node000009"><a xlink:href="../../d7/d72/classTerraria_1_1UI_1_1UIElement_a8bf52a8c33b045d1df8dbcc96bcbc818.html#a8bf52a8c33b045d1df8dbcc96bcbc818" target="_top" xlink:title=" ">
<polygon fill="white" stroke="#666666" points="994.5,-174 813.5,-174 813.5,-144 994.5,-144 994.5,-174"/>
<text text-anchor="start" x="821.5" y="-162" font-family="Helvetica,sans-Serif" font-size="10.00">Terraria.UI.UIElement.Recalculate</text>
<text text-anchor="middle" x="904" y="-151" font-family="Helvetica,sans-Serif" font-size="10.00">Children</text>
</a>
</g>
</g>
<!-- Node4&#45;&gt;Node9 -->
<g id="edge8_Node000004_Node000009" class="edge">
<title>Node4&#45;&gt;Node9</title>
<g id="a_edge8_Node000004_Node000009"><a xlink:title=" ">
<path fill="none" stroke="#63b8ff" d="M765.09,-152.39C777.65,-152.24 790.62,-152.21 803.35,-152.3"/>
<polygon fill="#63b8ff" stroke="#63b8ff" points="803.46,-155.8 813.49,-152.39 803.53,-148.8 803.46,-155.8"/>
</a>
</g>
</g>
<!-- Node7 -->
<g id="Node000007" class="node">
<title>Node7</title>
<g id="a_Node000007"><a xlink:href="../../d8/d74/structTerraria_1_1UI_1_1StyleDimension_acffa4ba4c6fbf99b983c8c59f17cc855.html#acffa4ba4c6fbf99b983c8c59f17cc855" target="_top" xlink:title=" ">
<polygon fill="white" stroke="#666666" points="1193,-78 1043,-78 1043,-48 1193,-48 1193,-78"/>
<text text-anchor="start" x="1051" y="-66" font-family="Helvetica,sans-Serif" font-size="10.00">Terraria.UI.StyleDimension.</text>
<text text-anchor="middle" x="1118" y="-55" font-family="Helvetica,sans-Serif" font-size="10.00">GetValue</text>
</a>
</g>
</g>
<!-- Node6&#45;&gt;Node7 -->
<g id="edge6_Node000006_Node000007" class="edge">
<title>Node6&#45;&gt;Node7</title>
<g id="a_edge6_Node000006_Node000007"><a xlink:title=" ">
<path fill="none" stroke="#63b8ff" d="M1007.27,-63C1015.78,-63 1024.32,-63 1032.67,-63"/>
<polygon fill="#63b8ff" stroke="#63b8ff" points="1032.75,-66.5 1042.75,-63 1032.75,-59.5 1032.75,-66.5"/>
</a>
</g>
</g>
<!-- Node9&#45;&gt;Node4 -->
<g id="edge9_Node000009_Node000004" class="edge">
<title>Node9&#45;&gt;Node4</title>
<g id="a_edge9_Node000009_Node000004"><a xlink:title=" ">
<path fill="none" stroke="#63b8ff" d="M813.49,-165.61C800.94,-165.76 787.97,-165.79 775.24,-165.7"/>
<polygon fill="#63b8ff" stroke="#63b8ff" points="775.12,-162.2 765.09,-165.61 775.06,-169.2 775.12,-162.2"/>
</a>
</g>
</g>
<!-- Node11 -->
<g id="Node000011" class="node">
<title>Node11</title>
<g id="a_Node000011"><a xlink:href="../../d7/d72/classTerraria_1_1UI_1_1UIElement_ac407afd27d2b68e6c175951c22e263b5.html#ac407afd27d2b68e6c175951c22e263b5" target="_top" xlink:title=" ">
<polygon fill="white" stroke="#666666" points="986,-30 822,-30 822,0 986,0 986,-30"/>
<text text-anchor="start" x="830" y="-18" font-family="Helvetica,sans-Serif" font-size="10.00">Terraria.UI.UIElement.Remove</text>
<text text-anchor="middle" x="904" y="-7" font-family="Helvetica,sans-Serif" font-size="10.00">Child</text>
</a>
</g>
</g>
<!-- Node10&#45;&gt;Node11 -->
<g id="edge11_Node000010_Node000011" class="edge">
<title>Node10&#45;&gt;Node11</title>
<g id="a_edge11_Node000010_Node000011"><a xlink:title=" ">
<path fill="none" stroke="#63b8ff" d="M715.34,-59.44C740.01,-53.53 772.34,-45.8 801,-39 810.13,-36.83 819.72,-34.57 829.22,-32.33"/>
<polygon fill="#63b8ff" stroke="#63b8ff" points="830.13,-35.71 839.06,-30.01 828.52,-28.9 830.13,-35.71"/>
</a>
</g>
</g>
<!-- Node13 -->
<g id="Node000013" class="node">
<title>Node13</title>
<g id="a_Node000013"><a xlink:href="../../d5/dda/classTerraria_1_1GameContent_1_1UI_1_1Elements_1_1UIList_ab7c6d0b1a81e3f3f1f22c6685146a9dc.html#ab7c6d0b1a81e3f3f1f22c6685146a9dc" target="_top" xlink:title=" ">
<polygon fill="white" stroke="#666666" points="750.5,-302 598.5,-302 598.5,-272 750.5,-272 750.5,-302"/>
<text text-anchor="start" x="606.5" y="-290" font-family="Helvetica,sans-Serif" font-size="10.00">Terraria.GameContent.UI.</text>
<text text-anchor="middle" x="674.5" y="-279" font-family="Helvetica,sans-Serif" font-size="10.00">Elements.UIList.SortMethod</text>
</a>
</g>
</g>
<!-- Node12&#45;&gt;Node13 -->
<g id="edge14_Node000012_Node000013" class="edge">
<title>Node12&#45;&gt;Node13</title>
<g id="a_edge14_Node000012_Node000013"><a xlink:title=" ">
<path fill="none" stroke="#63b8ff" d="M512.06,-233.06C543.49,-243.56 585.61,-257.63 618.94,-268.77"/>
<polygon fill="#63b8ff" stroke="#63b8ff" points="617.94,-272.13 628.53,-271.98 620.16,-265.49 617.94,-272.13"/>
</a>
</g>
</g>
<!-- Node15 -->
<g id="Node000015" class="node">
<title>Node15</title>
<g id="a_Node000015"><a xlink:href="../../d5/dda/classTerraria_1_1GameContent_1_1UI_1_1Elements_1_1UIList_a60a4c2955855c090a210914877fd7705.html#a60a4c2955855c090a210914877fd7705" target="_top" xlink:title=" ">
<polygon fill="white" stroke="#666666" points="761.5,-233 587.5,-233 587.5,-203 761.5,-203 761.5,-233"/>
<text text-anchor="start" x="595.5" y="-221" font-family="Helvetica,sans-Serif" font-size="10.00">Terraria.GameContent.UI.</text>
<text text-anchor="middle" x="674.5" y="-210" font-family="Helvetica,sans-Serif" font-size="10.00">Elements.UIList.UpdateScrollbar</text>
</a>
</g>
</g>
<!-- Node12&#45;&gt;Node15 -->
<g id="edge16_Node000012_Node000015" class="edge">
<title>Node12&#45;&gt;Node15</title>
<g id="a_edge16_Node000012_Node000015"><a xlink:title=" ">
<path fill="none" stroke="#63b8ff" d="M545.07,-218C555.54,-218 566.38,-218 577.12,-218"/>
<polygon fill="#63b8ff" stroke="#63b8ff" points="577.38,-221.5 587.38,-218 577.38,-214.5 577.38,-221.5"/>
</a>
</g>
</g>
<!-- Node14 -->
<g id="Node000014" class="node">
<title>Node14</title>
<g id="a_Node000014"><a xlink:href="../../d7/d72/classTerraria_1_1UI_1_1UIElement_a2994ca41b4979ba577e1ee3d645568f9.html#a2994ca41b4979ba577e1ee3d645568f9" target="_top" xlink:title=" ">
<polygon fill="white" stroke="#666666" points="993.5,-307.5 814.5,-307.5 814.5,-288.5 993.5,-288.5 993.5,-307.5"/>
<text text-anchor="middle" x="904" y="-295.5" font-family="Helvetica,sans-Serif" font-size="10.00">Terraria.UI.UIElement.CompareTo</text>
</a>
</g>
</g>
<!-- Node13&#45;&gt;Node14 -->
<g id="edge15_Node000013_Node000014" class="edge">
<title>Node13&#45;&gt;Node14</title>
<g id="a_edge15_Node000013_Node000014"><a xlink:title=" ">
<path fill="none" stroke="#63b8ff" d="M750.62,-290.63C767.61,-291.45 785.9,-292.34 803.71,-293.2"/>
<polygon fill="#63b8ff" stroke="#63b8ff" points="803.97,-296.72 814.12,-293.7 804.31,-289.72 803.97,-296.72"/>
</a>
</g>
</g>
<!-- Node15&#45;&gt;Node8 -->
<g id="edge17_Node000015_Node000008" class="edge">
<title>Node15&#45;&gt;Node8</title>
<g id="a_edge17_Node000015_Node000008"><a xlink:title=" ">
<path fill="none" stroke="#63b8ff" d="M761.51,-213.84C781.65,-212.87 803.03,-211.83 822.91,-210.87"/>
<polygon fill="#63b8ff" stroke="#63b8ff" points="823.33,-214.36 833.15,-210.38 822.99,-207.36 823.33,-214.36"/>
</a>
</g>
</g>
<!-- Node16 -->
<g id="Node000016" class="node">
<title>Node16</title>
<g id="a_Node000016"><a xlink:href="../../d6/dea/classTerraria_1_1GameContent_1_1UI_1_1Elements_1_1UIScrollbar_ab94392501a400e8db7dbba6c8294ebff.html#ab94392501a400e8db7dbba6c8294ebff" target="_top" xlink:title=" ">
<polygon fill="white" stroke="#666666" points="984.5,-270 823.5,-270 823.5,-240 984.5,-240 984.5,-270"/>
<text text-anchor="start" x="831.5" y="-258" font-family="Helvetica,sans-Serif" font-size="10.00">Terraria.GameContent.UI.</text>
<text text-anchor="middle" x="904" y="-247" font-family="Helvetica,sans-Serif" font-size="10.00">Elements.UIScrollbar.SetView</text>
</a>
</g>
</g>
<!-- Node15&#45;&gt;Node16 -->
<g id="edge18_Node000015_Node000016" class="edge">
<title>Node15&#45;&gt;Node16</title>
<g id="a_edge18_Node000015_Node000016"><a xlink:title=" ">
<path fill="none" stroke="#63b8ff" d="M761.51,-231.99C778.44,-234.74 796.25,-237.64 813.3,-240.41"/>
<polygon fill="#63b8ff" stroke="#63b8ff" points="812.81,-243.88 823.24,-242.03 813.94,-236.97 812.81,-243.88"/>
</a>
</g>
</g>
<!-- Node18 -->
<g id="Node000018" class="node">
<title>Node18</title>
<g id="a_Node000018"><a xlink:href="../../d7/d72/classTerraria_1_1UI_1_1UIElement_a8358ff058ca4696cbdf817c755f2e568.html#a8358ff058ca4696cbdf817c755f2e568" target="_top" xlink:title=" ">
<polygon fill="white" stroke="#666666" points="548,-107 384,-107 384,-77 548,-77 548,-107"/>
<text text-anchor="start" x="392" y="-95" font-family="Helvetica,sans-Serif" font-size="10.00">Terraria.UI.UIElement.Remove</text>
<text text-anchor="middle" x="466" y="-84" font-family="Helvetica,sans-Serif" font-size="10.00">AllChildren</text>
</a>
</g>
</g>
<!-- Node17&#45;&gt;Node18 -->
<g id="edge20_Node000017_Node000018" class="edge">
<title>Node17&#45;&gt;Node18</title>
<g id="a_edge20_Node000017_Node000018"><a xlink:title=" ">
<path fill="none" stroke="#63b8ff" d="M348.26,-102.04C356.57,-101.33 365.16,-100.59 373.73,-99.85"/>
<polygon fill="#63b8ff" stroke="#63b8ff" points="374.09,-103.33 383.76,-98.99 373.49,-96.36 374.09,-103.33"/>
</a>
</g>
</g>
</g>
</svg>

<g id="navigator" transform="translate(0 0)" fill="#404254">
  <rect fill="#f2f5e9" fill-opacity="0.5" stroke="#606060" stroke-width=".5" x="0" y="0" width="60" height="60"/>
  <use id="zoomplus" xlink:href="#zoomPlus" x="17" y="9" onmousedown="handleZoom(evt,'in')"/>
  <use id="zoomminus" xlink:href="#zoomMin" x="42" y="9" onmousedown="handleZoom(evt,'out')"/>
  <use id="reset" xlink:href="#resetDef" x="30" y="36" onmousedown="handleReset()"/>
   <use id="arrowup" xlink:href="#arrowUp" x="0" y="0" onmousedown="handlePan(0,-1)"/>
  <use id="arrowright" xlink:href="#arrowRight" x="0" y="0" onmousedown="handlePan(1,0)"/>
  <use id="arrowdown" xlink:href="#arrowDown" x="0" y="0" onmousedown="handlePan(0,1)"/>
  <use id="arrowleft" xlink:href="#arrowLeft" x="0" y="0" onmousedown="handlePan(-1,0)"/>
</g>
<svg viewBox="0 0 15 15" width="100%" height="30px" preserveAspectRatio="xMaxYMin meet">
 <g id="arrow_out" transform="scale(0.3 0.3)">
  <a xlink:href="classTerraria_1_1GameContent_1_1UI_1_1States_1_1UIWorkshopWorldImport_a59c584d673d9b080206ad3da2c403970_a59c584d673d9b080206ad3da2c403970_cgraph_org.svg" target="_base">
   <rect id="button" ry="5" rx="5" y="6" x="6" height="38" width="38"
        fill="#f2f5e9" fill-opacity="0.5" stroke="#606060" stroke-width="1.0"/>
   <path id="arrow"
     d="M 11.500037,31.436501 C 11.940474,20.09759 22.043105,11.32322 32.158766,21.979434 L 37.068811,17.246167 C 37.068811,17.246167 37.088388,32 37.088388,32 L 22.160133,31.978069 C 22.160133,31.978069 26.997745,27.140456 26.997745,27.140456 C 18.528582,18.264221 13.291696,25.230495 11.500037,31.436501 z"
     style="fill:#404040;"/>
  </a>
 </g>
</svg>

<style type='text/css'>
<![CDATA[
[data-mouse-over-selected='false'] { opacity: 0.7; }
[data-mouse-over-selected='true']  { opacity: 1.0; }
]]>
</style>
<script type="application/ecmascript"><![CDATA[
document.addEventListener('DOMContentLoaded', (event) => {
  highlightEdges();
  highlightAdjacentNodes();
});
]]></script>
</svg>
