<?xml version="1.0" encoding="UTF-8" standalone="no"?>
<!DOCTYPE svg PUBLIC "-//W3C//DTD SVG 1.1//EN"
 "http://www.w3.org/Graphics/SVG/1.1/DTD/svg11.dtd">
<!-- Generated by graphviz version 2.43.0 (0)
 -->
<!-- Title: SpawnConditionDecorativeOverlayInfoElement Pages: 1 -->
<!--zoomable 325 -->
<svg id="main" version="1.1" xmlns="http://www.w3.org/2000/svg" xmlns:xlink="http://www.w3.org/1999/xlink" xml:space="preserve" onload="init(evt)">
<style type="text/css"><![CDATA[
.edge:hover path { stroke: red; }
.edge:hover polygon { stroke: red; fill: red; }
]]></style>
<script type="text/javascript"><![CDATA[
var edges = document.getElementsByTagName('g');
if (edges && edges.length) {
  for (var i=0;i<edges.length;i++) {
    if (edges[i].id.substr(0,4)=='edge') {
      edges[i].setAttribute('class','edge');
    }
  }
}
]]></script>
        <defs>
                <circle id="rim" cx="0" cy="0" r="7"/>
                <circle id="rim2" cx="0" cy="0" r="3.5"/>
                <g id="zoomPlus">
                        <use xlink:href="#rim" fill="#404040">
                                <set attributeName="fill" to="#808080" begin="zoomplus.mouseover" end="zoomplus.mouseout"/>
                        </use>
                        <path d="M-4,0h8M0,-4v8" fill="none" stroke="white" stroke-width="1.5" pointer-events="none"/>
                </g>
                <g id="zoomMin">
                        <use xlink:href="#rim" fill="#404040">
                                <set attributeName="fill" to="#808080" begin="zoomminus.mouseover" end="zoomminus.mouseout"/>
                        </use>
                        <path d="M-4,0h8" fill="none" stroke="white" stroke-width="1.5" pointer-events="none"/>
                </g>
                <g id="dirArrow">
                        <path fill="none" stroke="white" stroke-width="1.5" d="M0,-3.0v7 M-2.5,-0.5L0,-3.0L2.5,-0.5"/>
                </g>
               <g id="resetDef">
                       <use xlink:href="#rim2" fill="#404040">
                               <set attributeName="fill" to="#808080" begin="reset.mouseover" end="reset.mouseout"/>
                       </use>
               </g>
        </defs>

<script type="text/javascript">
var viewWidth = 562;
var viewHeight = 325;
var sectionId = 'dynsection-1';
</script>
<script xlink:href="../../svgpan.js"/>
<svg id="graph" class="graph">
<g id="viewport">
<title>SpawnConditionDecorativeOverlayInfoElement</title>
<polygon fill="white" stroke="transparent" points="-4,4 -4,-321 558,-321 558,4 -4,4"/>
<!-- Node1 -->
<g id="node1" class="node">
<title>Node1</title>
<g id="a_node1"><a xlink:title=" ">
<polygon fill="#bfbfbf" stroke="black" points="236.5,-0.5 236.5,-167.5 411.5,-167.5 411.5,-0.5 236.5,-0.5"/>
<text text-anchor="start" x="244.5" y="-155.5" font-family="Helvetica,sans-Serif" font-size="10.00">SpawnConditionDecorative</text>
<text text-anchor="middle" x="324" y="-144.5" font-family="Helvetica,sans-Serif" font-size="10.00">OverlayInfoElement</text>
<polyline fill="none" stroke="black" points="236.5,-137.5 411.5,-137.5 "/>
<text text-anchor="start" x="244.5" y="-125.5" font-family="Helvetica,sans-Serif" font-size="10.00">+ float DisplayPriority</text>
<polyline fill="none" stroke="black" points="236.5,-118.5 411.5,-118.5 "/>
<text text-anchor="start" x="244.5" y="-106.5" font-family="Helvetica,sans-Serif" font-size="10.00">+ SpawnConditionDecorative</text>
<text text-anchor="start" x="244.5" y="-95.5" font-family="Helvetica,sans-Serif" font-size="10.00">OverlayInfoElement(string</text>
<text text-anchor="start" x="244.5" y="-84.5" font-family="Helvetica,sans-Serif" font-size="10.00"> overlayImagePath=null, Color</text>
<text text-anchor="start" x="244.5" y="-73.5" font-family="Helvetica,sans-Serif" font-size="10.00">? overlayColor=null)</text>
<text text-anchor="start" x="244.5" y="-62.5" font-family="Helvetica,sans-Serif" font-size="10.00">+ Asset&lt; Texture2D &gt;</text>
<text text-anchor="start" x="244.5" y="-51.5" font-family="Helvetica,sans-Serif" font-size="10.00"> GetBackgroundOverlayImage()</text>
<text text-anchor="start" x="244.5" y="-40.5" font-family="Helvetica,sans-Serif" font-size="10.00">+ Color? GetBackgroundOverlay</text>
<text text-anchor="start" x="244.5" y="-29.5" font-family="Helvetica,sans-Serif" font-size="10.00">Color()</text>
<text text-anchor="start" x="244.5" y="-18.5" font-family="Helvetica,sans-Serif" font-size="10.00">+ UIElement ProvideUIElement</text>
<text text-anchor="start" x="244.5" y="-7.5" font-family="Helvetica,sans-Serif" font-size="10.00">(BestiaryUICollectionInfo info)</text>
</a>
</g>
</g>
<!-- Node2 -->
<g id="node2" class="node">
<title>Node2</title>
<g id="a_node2"><a xlink:href="../../d0/d86/interfaceIBestiaryInfoElement.html" target="_top" xlink:title=" ">
<polygon fill="white" stroke="black" points="0,-232 0,-300 170,-300 170,-232 0,-232"/>
<text text-anchor="middle" x="85" y="-288" font-family="Helvetica,sans-Serif" font-size="10.00">IBestiaryInfoElement</text>
<polyline fill="none" stroke="black" points="0,-281 170,-281 "/>
<text text-anchor="middle" x="85" y="-269" font-family="Helvetica,sans-Serif" font-size="10.00"> </text>
<polyline fill="none" stroke="black" points="0,-262 170,-262 "/>
<text text-anchor="start" x="8" y="-250" font-family="Helvetica,sans-Serif" font-size="10.00">+ UIElement ProvideUIElement</text>
<text text-anchor="start" x="8" y="-239" font-family="Helvetica,sans-Serif" font-size="10.00">(BestiaryUICollectionInfo info)</text>
</a>
</g>
</g>
<!-- Node2&#45;&gt;Node1 -->
<g id="edge1" class="edge">
<title>Node2&#45;&gt;Node1</title>
<path fill="none" stroke="midnightblue" d="M137.19,-225.7C166.2,-203.84 203.07,-176.08 236.38,-150.99"/>
<polygon fill="none" stroke="midnightblue" points="134.72,-223.17 128.84,-231.99 138.93,-228.76 134.72,-223.17"/>
</g>
<!-- Node3 -->
<g id="node3" class="node">
<title>Node3</title>
<g id="a_node3"><a xlink:href="../../d5/d1d/interfaceIBestiaryBackgroundOverlayAndColorProvider.html" target="_top" xlink:title=" ">
<polygon fill="white" stroke="black" points="188.5,-215.5 188.5,-316.5 363.5,-316.5 363.5,-215.5 188.5,-215.5"/>
<text text-anchor="start" x="196.5" y="-304.5" font-family="Helvetica,sans-Serif" font-size="10.00">IBestiaryBackgroundOverlay</text>
<text text-anchor="middle" x="276" y="-293.5" font-family="Helvetica,sans-Serif" font-size="10.00">AndColorProvider</text>
<polyline fill="none" stroke="black" points="188.5,-286.5 363.5,-286.5 "/>
<text text-anchor="start" x="196.5" y="-274.5" font-family="Helvetica,sans-Serif" font-size="10.00">+ float DisplayPriority</text>
<polyline fill="none" stroke="black" points="188.5,-267.5 363.5,-267.5 "/>
<text text-anchor="start" x="196.5" y="-255.5" font-family="Helvetica,sans-Serif" font-size="10.00">+ Asset&lt; Texture2D &gt;</text>
<text text-anchor="start" x="196.5" y="-244.5" font-family="Helvetica,sans-Serif" font-size="10.00"> GetBackgroundOverlayImage()</text>
<text text-anchor="start" x="196.5" y="-233.5" font-family="Helvetica,sans-Serif" font-size="10.00">+ Color? GetBackgroundOverlay</text>
<text text-anchor="start" x="196.5" y="-222.5" font-family="Helvetica,sans-Serif" font-size="10.00">Color()</text>
</a>
</g>
</g>
<!-- Node3&#45;&gt;Node1 -->
<g id="edge2" class="edge">
<title>Node3&#45;&gt;Node1</title>
<path fill="none" stroke="midnightblue" d="M291.89,-205.4C295.12,-193.31 298.56,-180.39 301.95,-167.67"/>
<polygon fill="none" stroke="midnightblue" points="288.44,-204.77 289.24,-215.34 295.2,-206.58 288.44,-204.77"/>
</g>
<!-- Node4 -->
<g id="node4" class="node">
<title>Node4</title>
<g id="a_node4"><a xlink:title=" ">
<polygon fill="white" stroke="#bfbfbf" points="382,-237.5 382,-294.5 426,-294.5 426,-237.5 382,-237.5"/>
<text text-anchor="middle" x="404" y="-282.5" font-family="Helvetica,sans-Serif" font-size="10.00">string</text>
<polyline fill="none" stroke="#bfbfbf" points="382,-275.5 426,-275.5 "/>
<text text-anchor="middle" x="404" y="-263.5" font-family="Helvetica,sans-Serif" font-size="10.00"> </text>
<polyline fill="none" stroke="#bfbfbf" points="382,-256.5 426,-256.5 "/>
<text text-anchor="middle" x="404" y="-244.5" font-family="Helvetica,sans-Serif" font-size="10.00"> </text>
</a>
</g>
</g>
<!-- Node4&#45;&gt;Node1 -->
<g id="edge3" class="edge">
<title>Node4&#45;&gt;Node1</title>
<path fill="none" stroke="#404040" d="M391.23,-237.25C385.6,-224.94 378.93,-210.27 373,-197 370.35,-191.07 367.63,-184.95 364.9,-178.78"/>
<polygon fill="none" stroke="#404040" points="364.83,-178.61 358.75,-174.74 359.98,-167.64 366.07,-171.51 364.83,-178.61"/>
<text text-anchor="middle" x="423.5" y="-189" font-family="Helvetica,sans-Serif" font-size="10.00"> &#45;_overlayImagePath</text>
</g>
<!-- Node5 -->
<g id="node5" class="node">
<title>Node5</title>
<g id="a_node5"><a xlink:title=" ">
<polygon fill="white" stroke="#bfbfbf" points="475,-237.5 475,-294.5 517,-294.5 517,-237.5 475,-237.5"/>
<text text-anchor="middle" x="496" y="-282.5" font-family="Helvetica,sans-Serif" font-size="10.00">Color</text>
<polyline fill="none" stroke="#bfbfbf" points="475,-275.5 517,-275.5 "/>
<text text-anchor="middle" x="496" y="-263.5" font-family="Helvetica,sans-Serif" font-size="10.00"> </text>
<polyline fill="none" stroke="#bfbfbf" points="475,-256.5 517,-256.5 "/>
<text text-anchor="middle" x="496" y="-244.5" font-family="Helvetica,sans-Serif" font-size="10.00"> </text>
</a>
</g>
</g>
<!-- Node5&#45;&gt;Node1 -->
<g id="edge4" class="edge">
<title>Node5&#45;&gt;Node1</title>
<path fill="none" stroke="#404040" d="M493.13,-237.33C490.33,-221.15 484.83,-201.01 474,-186 460.1,-166.72 441.3,-150.01 421.71,-136.04"/>
<polygon fill="none" stroke="#404040" points="421.63,-135.99 414.42,-135.89 411.74,-129.19 418.95,-129.29 421.63,-135.99"/>
<text text-anchor="middle" x="516.5" y="-189" font-family="Helvetica,sans-Serif" font-size="10.00"> &#45;_overlayColor</text>
</g>
</g>
</svg>
        <g id="navigator" transform="translate(0 0)" fill="#404254">
                <rect fill="#f2f5e9" fill-opacity="0.5" stroke="#606060" stroke-width=".5" x="0" y="0" width="60" height="60"/>
                <use id="zoomplus" xlink:href="#zoomPlus" x="17" y="9" onmousedown="handleZoom(evt,'in')"/>
                <use id="zoomminus" xlink:href="#zoomMin" x="42" y="9" onmousedown="handleZoom(evt,'out')"/>
                <use id="reset" xlink:href="#resetDef" x="30" y="36" onmousedown="handleReset()"/>
                <g id="arrowUp" xlink:href="#dirArrow" transform="translate(30 24)" onmousedown="handlePan(0,-1)">
                  <use xlink:href="#rim" fill="#404040">
                        <set attributeName="fill" to="#808080" begin="arrowUp.mouseover" end="arrowUp.mouseout"/>
                  </use>
                  <path fill="none" stroke="white" stroke-width="1.5" d="M0,-3.0v7 M-2.5,-0.5L0,-3.0L2.5,-0.5"/>
                </g>
                <g id="arrowRight" xlink:href="#dirArrow" transform="rotate(90) translate(36 -43)" onmousedown="handlePan(1,0)">
                  <use xlink:href="#rim" fill="#404040">
                        <set attributeName="fill" to="#808080" begin="arrowRight.mouseover" end="arrowRight.mouseout"/>
                  </use>
                  <path fill="none" stroke="white" stroke-width="1.5" d="M0,-3.0v7 M-2.5,-0.5L0,-3.0L2.5,-0.5"/>
                </g>
                <g id="arrowDown" xlink:href="#dirArrow" transform="rotate(180) translate(-30 -48)" onmousedown="handlePan(0,1)">
                  <use xlink:href="#rim" fill="#404040">
                        <set attributeName="fill" to="#808080" begin="arrowDown.mouseover" end="arrowDown.mouseout"/>
                  </use>
                  <path fill="none" stroke="white" stroke-width="1.5" d="M0,-3.0v7 M-2.5,-0.5L0,-3.0L2.5,-0.5"/>
                </g>
                <g id="arrowLeft" xlink:href="#dirArrow" transform="rotate(270) translate(-36 17)" onmousedown="handlePan(-1,0)">
                  <use xlink:href="#rim" fill="#404040">
                        <set attributeName="fill" to="#808080" begin="arrowLeft.mouseover" end="arrowLeft.mouseout"/>
                  </use>
                  <path fill="none" stroke="white" stroke-width="1.5" d="M0,-3.0v7 M-2.5,-0.5L0,-3.0L2.5,-0.5"/>
                </g>
        </g>
        <svg viewBox="0 0 15 15" width="100%" height="30px" preserveAspectRatio="xMaxYMin meet">
         <g id="arrow_out" transform="scale(0.3 0.3)">
          <a xlink:href="classSpawnConditionDecorativeOverlayInfoElement__coll__graph_org.svg" target="_base">
           <rect id="button" ry="5" rx="5" y="6" x="6" height="38" width="38"
                fill="#f2f5e9" fill-opacity="0.5" stroke="#606060" stroke-width="1.0"/>
           <path id="arrow"
             d="M 11.500037,31.436501 C 11.940474,20.09759 22.043105,11.32322 32.158766,21.979434 L 37.068811,17.246167 C 37.068811,17.246167 37.088388,32 37.088388,32 L 22.160133,31.978069 C 22.160133,31.978069 26.997745,27.140456 26.997745,27.140456 C 18.528582,18.264221 13.291696,25.230495 11.500037,31.436501 z"
             style="fill:#404040;"/>
          </a>
         </g>
        </svg>
</svg>
