<?xml version="1.0" encoding="UTF-8" standalone="no"?>
<!DOCTYPE svg PUBLIC "-//W3C//DTD SVG 1.1//EN"
 "http://www.w3.org/Graphics/SVG/1.1/DTD/svg11.dtd">
<!-- Generated by graphviz version 2.43.0 (0)
 -->
<!-- Title: Terraria.GameContent.Tile_Entities.TEDisplayDoll.FitsDisplayDoll Pages: 1 -->
<svg width="435pt" height="167pt"
 viewBox="0.00 0.00 435.00 167.00" xmlns="http://www.w3.org/2000/svg" xmlns:xlink="http://www.w3.org/1999/xlink">
<g id="graph0" class="graph" transform="scale(1 1) rotate(0) translate(4 163)">
<title>Terraria.GameContent.Tile_Entities.TEDisplayDoll.FitsDisplayDoll</title>
<!-- Node1 -->
<g id="Node000001" class="node">
<title>Node1</title>
<g id="a_Node000001"><a xlink:title=" ">
<polygon fill="#999999" stroke="#666666" points="427,-94.5 221,-94.5 221,-64.5 427,-64.5 427,-94.5"/>
<text text-anchor="start" x="229" y="-82.5" font-family="Helvetica,sans-Serif" font-size="10.00">Terraria.GameContent.Tile</text>
<text text-anchor="middle" x="324" y="-71.5" font-family="Helvetica,sans-Serif" font-size="10.00">_Entities.TEDisplayDoll.FitsDisplayDoll</text>
</a>
</g>
</g>
<!-- Node2 -->
<g id="Node000002" class="node">
<title>Node2</title>
<g id="a_Node000002"><a xlink:href="../../d9/d66/classTerraria_1_1GameContent_1_1Tile__Entities_1_1TEDisplayDoll_a42939ab74aff38169d95fe925c583aba.html#a42939ab74aff38169d95fe925c583aba" target="_top" xlink:title=" ">
<polygon fill="white" stroke="#666666" points="180,-159 5,-159 5,-118 180,-118 180,-159"/>
<text text-anchor="start" x="13" y="-147" font-family="Helvetica,sans-Serif" font-size="10.00">Terraria.GameContent.Tile</text>
<text text-anchor="start" x="13" y="-136" font-family="Helvetica,sans-Serif" font-size="10.00">_Entities.TEDisplayDoll.Override</text>
<text text-anchor="middle" x="92.5" y="-125" font-family="Helvetica,sans-Serif" font-size="10.00">ItemSlotHover</text>
</a>
</g>
</g>
<!-- Node1&#45;&gt;Node2 -->
<g id="edge1_Node000001_Node000002" class="edge">
<title>Node1&#45;&gt;Node2</title>
<g id="a_edge1_Node000001_Node000002"><a xlink:title=" ">
<path fill="none" stroke="#63b8ff" d="M254.56,-97.09C229.09,-103.64 199.96,-111.13 173.55,-117.92"/>
<polygon fill="#63b8ff" stroke="#63b8ff" points="255.68,-100.42 264.49,-94.54 253.94,-93.64 255.68,-100.42"/>
</a>
</g>
</g>
<!-- Node3 -->
<g id="Node000003" class="node">
<title>Node3</title>
<g id="a_Node000003"><a xlink:href="../../d9/d66/classTerraria_1_1GameContent_1_1Tile__Entities_1_1TEDisplayDoll_a076e2f6d376457028bd1ccb595441798.html#a076e2f6d376457028bd1ccb595441798" target="_top" xlink:title=" ">
<polygon fill="white" stroke="#666666" points="180,-100 5,-100 5,-59 180,-59 180,-100"/>
<text text-anchor="start" x="13" y="-88" font-family="Helvetica,sans-Serif" font-size="10.00">Terraria.GameContent.Tile</text>
<text text-anchor="start" x="13" y="-77" font-family="Helvetica,sans-Serif" font-size="10.00">_Entities.TEDisplayDoll.Override</text>
<text text-anchor="middle" x="92.5" y="-66" font-family="Helvetica,sans-Serif" font-size="10.00">ItemSlotLeftClick</text>
</a>
</g>
</g>
<!-- Node1&#45;&gt;Node3 -->
<g id="edge2_Node000001_Node000003" class="edge">
<title>Node1&#45;&gt;Node3</title>
<g id="a_edge2_Node000001_Node000003"><a xlink:title=" ">
<path fill="none" stroke="#63b8ff" d="M210.51,-79.5C200.32,-79.5 190.12,-79.5 180.21,-79.5"/>
<polygon fill="#63b8ff" stroke="#63b8ff" points="210.67,-83 220.67,-79.5 210.67,-76 210.67,-83"/>
</a>
</g>
</g>
<!-- Node4 -->
<g id="Node000004" class="node">
<title>Node4</title>
<g id="a_Node000004"><a xlink:href="../../d9/d66/classTerraria_1_1GameContent_1_1Tile__Entities_1_1TEDisplayDoll_a6457b78a65833ba5f9ca9c45dbc21dca.html#a6457b78a65833ba5f9ca9c45dbc21dca" target="_top" xlink:title=" ">
<polygon fill="white" stroke="#666666" points="185,-41 0,-41 0,0 185,0 185,-41"/>
<text text-anchor="start" x="8" y="-29" font-family="Helvetica,sans-Serif" font-size="10.00">Terraria.GameContent.Tile</text>
<text text-anchor="start" x="8" y="-18" font-family="Helvetica,sans-Serif" font-size="10.00">_Entities.TEDisplayDoll.TryGet</text>
<text text-anchor="middle" x="92.5" y="-7" font-family="Helvetica,sans-Serif" font-size="10.00">ItemGamepadOverrideInstructions</text>
</a>
</g>
</g>
<!-- Node1&#45;&gt;Node4 -->
<g id="edge3_Node000001_Node000004" class="edge">
<title>Node1&#45;&gt;Node4</title>
<g id="a_edge3_Node000001_Node000004"><a xlink:title=" ">
<path fill="none" stroke="#63b8ff" d="M254.56,-61.91C229.09,-55.36 199.96,-47.87 173.55,-41.08"/>
<polygon fill="#63b8ff" stroke="#63b8ff" points="253.94,-65.36 264.49,-64.46 255.68,-58.58 253.94,-65.36"/>
</a>
</g>
</g>
</g>
</svg>
