<?xml version="1.0" encoding="UTF-8" standalone="no"?>
<!DOCTYPE svg PUBLIC "-//W3C//DTD SVG 1.1//EN"
 "http://www.w3.org/Graphics/SVG/1.1/DTD/svg11.dtd">
<!-- Generated by graphviz version 2.43.0 (0)
 -->
<!-- Title: FontAssets Pages: 1 -->
<svg width="417pt" height="993pt"
 viewBox="0.00 0.00 417.00 993.00" xmlns="http://www.w3.org/2000/svg" xmlns:xlink="http://www.w3.org/1999/xlink">
<g id="graph0" class="graph" transform="scale(1 1) rotate(0) translate(4 989)">
<title>FontAssets</title>
<polygon fill="white" stroke="transparent" points="-4,4 -4,-989 413,-989 413,4 -4,4"/>
<!-- Node1 -->
<g id="node1" class="node">
<title>Node1</title>
<g id="a_node1"><a xlink:title=" ">
<polygon fill="#bfbfbf" stroke="black" points="207,-0.5 207,-57.5 277,-57.5 277,-0.5 207,-0.5"/>
<text text-anchor="middle" x="242" y="-45.5" font-family="Helvetica,sans-Serif" font-size="10.00">FontAssets</text>
<polyline fill="none" stroke="black" points="207,-38.5 277,-38.5 "/>
<text text-anchor="middle" x="242" y="-26.5" font-family="Helvetica,sans-Serif" font-size="10.00"> </text>
<polyline fill="none" stroke="black" points="207,-19.5 277,-19.5 "/>
<text text-anchor="middle" x="242" y="-7.5" font-family="Helvetica,sans-Serif" font-size="10.00"> </text>
</a>
</g>
</g>
<!-- Node2 -->
<g id="node2" class="node">
<title>Node2</title>
<g id="a_node2"><a xlink:href="../../de/d97/classAsset.html" target="_top" xlink:title=" ">
<polygon fill="white" stroke="black" points="160,-138.5 160,-426.5 324,-426.5 324,-138.5 160,-138.5"/>
<text text-anchor="middle" x="242" y="-414.5" font-family="Helvetica,sans-Serif" font-size="10.00">Asset&lt; DynamicSpriteFont &gt;</text>
<polyline fill="none" stroke="black" points="160,-407.5 324,-407.5 "/>
<text text-anchor="start" x="168" y="-395.5" font-family="Helvetica,sans-Serif" font-size="10.00">+ static readonly Asset</text>
<text text-anchor="start" x="168" y="-384.5" font-family="Helvetica,sans-Serif" font-size="10.00">&lt; T &gt; Empty</text>
<text text-anchor="start" x="168" y="-373.5" font-family="Helvetica,sans-Serif" font-size="10.00">+ static T DefaultValue</text>
<text text-anchor="start" x="168" y="-362.5" font-family="Helvetica,sans-Serif" font-size="10.00">+ string Name</text>
<text text-anchor="start" x="168" y="-351.5" font-family="Helvetica,sans-Serif" font-size="10.00">+ bool IsLoaded</text>
<text text-anchor="start" x="168" y="-340.5" font-family="Helvetica,sans-Serif" font-size="10.00">+ AssetState State</text>
<text text-anchor="start" x="168" y="-329.5" font-family="Helvetica,sans-Serif" font-size="10.00">+ bool IsDisposed</text>
<text text-anchor="start" x="168" y="-318.5" font-family="Helvetica,sans-Serif" font-size="10.00">+ IContentSource Source</text>
<text text-anchor="start" x="168" y="-307.5" font-family="Helvetica,sans-Serif" font-size="10.00">+ T Value</text>
<text text-anchor="start" x="168" y="-296.5" font-family="Helvetica,sans-Serif" font-size="10.00">+ Action Continuation</text>
<text text-anchor="start" x="168" y="-285.5" font-family="Helvetica,sans-Serif" font-size="10.00">+ Action IAsset. Continuation</text>
<text text-anchor="start" x="168" y="-274.5" font-family="Helvetica,sans-Serif" font-size="10.00">+ Action Wait</text>
<text text-anchor="start" x="168" y="-263.5" font-family="Helvetica,sans-Serif" font-size="10.00">&#45; T ownValue</text>
<polyline fill="none" stroke="black" points="160,-256.5 324,-256.5 "/>
<text text-anchor="start" x="168" y="-244.5" font-family="Helvetica,sans-Serif" font-size="10.00">+ void Dispose()</text>
<text text-anchor="start" x="168" y="-233.5" font-family="Helvetica,sans-Serif" font-size="10.00">+ static operator T(Asset</text>
<text text-anchor="start" x="168" y="-222.5" font-family="Helvetica,sans-Serif" font-size="10.00">&lt; T &gt; asset)</text>
<text text-anchor="start" x="168" y="-211.5" font-family="Helvetica,sans-Serif" font-size="10.00">~ Asset(string name)</text>
<text text-anchor="start" x="168" y="-200.5" font-family="Helvetica,sans-Serif" font-size="10.00">~ void Unload()</text>
<text text-anchor="start" x="168" y="-189.5" font-family="Helvetica,sans-Serif" font-size="10.00">~ void SubmitLoadedContent</text>
<text text-anchor="start" x="168" y="-178.5" font-family="Helvetica,sans-Serif" font-size="10.00">(T value, IContentSource</text>
<text text-anchor="start" x="168" y="-167.5" font-family="Helvetica,sans-Serif" font-size="10.00"> source)</text>
<text text-anchor="start" x="168" y="-156.5" font-family="Helvetica,sans-Serif" font-size="10.00">~ void SetToLoadingState()</text>
<text text-anchor="start" x="168" y="-145.5" font-family="Helvetica,sans-Serif" font-size="10.00">&#45; void Dispose(bool disposing)</text>
</a>
</g>
</g>
<!-- Node2&#45;&gt;Node1 -->
<g id="edge1" class="edge">
<title>Node2&#45;&gt;Node1</title>
<path fill="none" stroke="#404040" d="M242,-138.48C242,-113.2 242,-88.87 242,-69.68"/>
<polygon fill="none" stroke="#404040" points="242,-69.56 238,-63.56 242,-57.56 246,-63.56 242,-69.56"/>
<text text-anchor="middle" x="277" y="-112" font-family="Helvetica,sans-Serif" font-size="10.00"> +CombatText</text>
<text text-anchor="middle" x="277" y="-101" font-family="Helvetica,sans-Serif" font-size="10.00">+DeathText</text>
<text text-anchor="middle" x="277" y="-90" font-family="Helvetica,sans-Serif" font-size="10.00">+ItemStack</text>
<text text-anchor="middle" x="277" y="-79" font-family="Helvetica,sans-Serif" font-size="10.00">+MouseText</text>
</g>
<!-- Node3 -->
<g id="node3" class="node">
<title>Node3</title>
<g id="a_node3"><a xlink:href="../../de/d97/classAsset.html" target="_top" xlink:title=" ">
<polygon fill="white" stroke="black" points="160,-474.5 160,-729.5 324,-729.5 324,-474.5 160,-474.5"/>
<text text-anchor="middle" x="242" y="-717.5" font-family="Helvetica,sans-Serif" font-size="10.00">Asset&lt; T &gt;</text>
<polyline fill="none" stroke="black" points="160,-710.5 324,-710.5 "/>
<text text-anchor="start" x="168" y="-698.5" font-family="Helvetica,sans-Serif" font-size="10.00">+ static T DefaultValue</text>
<text text-anchor="start" x="168" y="-687.5" font-family="Helvetica,sans-Serif" font-size="10.00">+ string Name</text>
<text text-anchor="start" x="168" y="-676.5" font-family="Helvetica,sans-Serif" font-size="10.00">+ bool IsLoaded</text>
<text text-anchor="start" x="168" y="-665.5" font-family="Helvetica,sans-Serif" font-size="10.00">+ AssetState State</text>
<text text-anchor="start" x="168" y="-654.5" font-family="Helvetica,sans-Serif" font-size="10.00">+ bool IsDisposed</text>
<text text-anchor="start" x="168" y="-643.5" font-family="Helvetica,sans-Serif" font-size="10.00">+ IContentSource Source</text>
<text text-anchor="start" x="168" y="-632.5" font-family="Helvetica,sans-Serif" font-size="10.00">+ T Value</text>
<text text-anchor="start" x="168" y="-621.5" font-family="Helvetica,sans-Serif" font-size="10.00">+ Action Continuation</text>
<text text-anchor="start" x="168" y="-610.5" font-family="Helvetica,sans-Serif" font-size="10.00">+ Action IAsset. Continuation</text>
<text text-anchor="start" x="168" y="-599.5" font-family="Helvetica,sans-Serif" font-size="10.00">+ Action Wait</text>
<polyline fill="none" stroke="black" points="160,-592.5 324,-592.5 "/>
<text text-anchor="start" x="168" y="-580.5" font-family="Helvetica,sans-Serif" font-size="10.00">+ void Dispose()</text>
<text text-anchor="start" x="168" y="-569.5" font-family="Helvetica,sans-Serif" font-size="10.00">+ static operator T(Asset</text>
<text text-anchor="start" x="168" y="-558.5" font-family="Helvetica,sans-Serif" font-size="10.00">&lt; T &gt; asset)</text>
<text text-anchor="start" x="168" y="-547.5" font-family="Helvetica,sans-Serif" font-size="10.00">~ Asset(string name)</text>
<text text-anchor="start" x="168" y="-536.5" font-family="Helvetica,sans-Serif" font-size="10.00">~ void Unload()</text>
<text text-anchor="start" x="168" y="-525.5" font-family="Helvetica,sans-Serif" font-size="10.00">~ void SubmitLoadedContent</text>
<text text-anchor="start" x="168" y="-514.5" font-family="Helvetica,sans-Serif" font-size="10.00">(T value, IContentSource</text>
<text text-anchor="start" x="168" y="-503.5" font-family="Helvetica,sans-Serif" font-size="10.00"> source)</text>
<text text-anchor="start" x="168" y="-492.5" font-family="Helvetica,sans-Serif" font-size="10.00">~ void SetToLoadingState()</text>
<text text-anchor="start" x="168" y="-481.5" font-family="Helvetica,sans-Serif" font-size="10.00">&#45; void Dispose(bool disposing)</text>
</a>
</g>
</g>
<!-- Node3&#45;&gt;Node2 -->
<g id="edge2" class="edge">
<title>Node3&#45;&gt;Node2</title>
<path fill="none" stroke="orange" d="M242,-463.83C242,-451.5 242,-438.99 242,-426.6"/>
<polygon fill="orange" stroke="orange" points="238.5,-464.15 242,-474.15 245.5,-464.15 238.5,-464.15"/>
<text text-anchor="middle" x="301.5" y="-448" font-family="Helvetica,sans-Serif" font-size="10.00"> &lt; DynamicSpriteFont &gt;</text>
</g>
<!-- Node4 -->
<g id="node4" class="node">
<title>Node4</title>
<g id="a_node4"><a xlink:href="../../dc/d37/interfaceIAsset.html" target="_top" xlink:title=" ">
<polygon fill="white" stroke="black" points="53,-777.5 53,-889.5 191,-889.5 191,-777.5 53,-777.5"/>
<text text-anchor="middle" x="122" y="-877.5" font-family="Helvetica,sans-Serif" font-size="10.00">IAsset</text>
<polyline fill="none" stroke="black" points="53,-870.5 191,-870.5 "/>
<text text-anchor="start" x="61" y="-858.5" font-family="Helvetica,sans-Serif" font-size="10.00">+ AssetState State</text>
<text text-anchor="start" x="61" y="-847.5" font-family="Helvetica,sans-Serif" font-size="10.00">+ IContentSource Source</text>
<text text-anchor="start" x="61" y="-836.5" font-family="Helvetica,sans-Serif" font-size="10.00">+ string Name</text>
<text text-anchor="start" x="61" y="-825.5" font-family="Helvetica,sans-Serif" font-size="10.00">+ bool IsLoaded</text>
<text text-anchor="start" x="61" y="-814.5" font-family="Helvetica,sans-Serif" font-size="10.00">+ bool IsDisposed</text>
<text text-anchor="start" x="61" y="-803.5" font-family="Helvetica,sans-Serif" font-size="10.00">+ Action Continuation</text>
<polyline fill="none" stroke="black" points="53,-796.5 191,-796.5 "/>
<text text-anchor="middle" x="122" y="-784.5" font-family="Helvetica,sans-Serif" font-size="10.00"> </text>
</a>
</g>
</g>
<!-- Node4&#45;&gt;Node3 -->
<g id="edge3" class="edge">
<title>Node4&#45;&gt;Node3</title>
<path fill="none" stroke="midnightblue" d="M155.65,-768.14C162.01,-755.99 168.85,-742.89 175.81,-729.58"/>
<polygon fill="none" stroke="midnightblue" points="152.43,-766.75 150.9,-777.24 158.63,-770 152.43,-766.75"/>
</g>
<!-- Node5 -->
<g id="node5" class="node">
<title>Node5</title>
<g id="a_node5"><a xlink:href="../../d0/d07/classIDisposable.html" target="_top" xlink:title=" ">
<polygon fill="white" stroke="black" points="0,-927.5 0,-984.5 74,-984.5 74,-927.5 0,-927.5"/>
<text text-anchor="middle" x="37" y="-972.5" font-family="Helvetica,sans-Serif" font-size="10.00">IDisposable</text>
<polyline fill="none" stroke="black" points="0,-965.5 74,-965.5 "/>
<text text-anchor="middle" x="37" y="-953.5" font-family="Helvetica,sans-Serif" font-size="10.00"> </text>
<polyline fill="none" stroke="black" points="0,-946.5 74,-946.5 "/>
<text text-anchor="middle" x="37" y="-934.5" font-family="Helvetica,sans-Serif" font-size="10.00"> </text>
</a>
</g>
</g>
<!-- Node5&#45;&gt;Node3 -->
<g id="edge5" class="edge">
<title>Node5&#45;&gt;Node3</title>
<path fill="none" stroke="midnightblue" d="M30.23,-917.5C25.3,-880.01 22.72,-821.66 44,-777 68.8,-724.94 117.15,-681.98 159.86,-651.77"/>
<polygon fill="none" stroke="midnightblue" points="26.78,-918.09 31.67,-927.49 33.71,-917.1 26.78,-918.09"/>
</g>
<!-- Node5&#45;&gt;Node4 -->
<g id="edge4" class="edge">
<title>Node5&#45;&gt;Node4</title>
<path fill="none" stroke="midnightblue" d="M62.31,-919.11C68.87,-909.82 76.08,-899.6 83.15,-889.57"/>
<polygon fill="none" stroke="midnightblue" points="59.4,-917.17 56.5,-927.35 65.12,-921.2 59.4,-917.17"/>
</g>
<!-- Node6 -->
<g id="node6" class="node">
<title>Node6</title>
<g id="a_node6"><a xlink:title=" ">
<polygon fill="white" stroke="#bfbfbf" points="209,-805 209,-862 357,-862 357,-805 209,-805"/>
<text text-anchor="middle" x="283" y="-850" font-family="Helvetica,sans-Serif" font-size="10.00">static readonly Asset&lt; T &gt;</text>
<polyline fill="none" stroke="#bfbfbf" points="209,-843 357,-843 "/>
<text text-anchor="middle" x="283" y="-831" font-family="Helvetica,sans-Serif" font-size="10.00"> </text>
<polyline fill="none" stroke="#bfbfbf" points="209,-824 357,-824 "/>
<text text-anchor="middle" x="283" y="-812" font-family="Helvetica,sans-Serif" font-size="10.00"> </text>
</a>
</g>
</g>
<!-- Node6&#45;&gt;Node3 -->
<g id="edge6" class="edge">
<title>Node6&#45;&gt;Node3</title>
<path fill="none" stroke="#404040" d="M278.05,-804.82C275.08,-788.17 271.05,-765.59 266.75,-741.55"/>
<polygon fill="none" stroke="#404040" points="266.74,-741.46 261.74,-736.26 264.63,-729.65 269.62,-734.85 266.74,-741.46"/>
<text text-anchor="middle" x="290.5" y="-751" font-family="Helvetica,sans-Serif" font-size="10.00"> +Empty</text>
</g>
<!-- Node7 -->
<g id="node7" class="node">
<title>Node7</title>
<g id="a_node7"><a xlink:title=" ">
<polygon fill="white" stroke="#bfbfbf" points="375.5,-805 375.5,-862 404.5,-862 404.5,-805 375.5,-805"/>
<text text-anchor="middle" x="390" y="-850" font-family="Helvetica,sans-Serif" font-size="10.00">T</text>
<polyline fill="none" stroke="#bfbfbf" points="375.5,-843 404.5,-843 "/>
<text text-anchor="middle" x="390" y="-831" font-family="Helvetica,sans-Serif" font-size="10.00"> </text>
<polyline fill="none" stroke="#bfbfbf" points="375.5,-824 404.5,-824 "/>
<text text-anchor="middle" x="390" y="-812" font-family="Helvetica,sans-Serif" font-size="10.00"> </text>
</a>
</g>
</g>
<!-- Node7&#45;&gt;Node3 -->
<g id="edge7" class="edge">
<title>Node7&#45;&gt;Node3</title>
<path fill="none" stroke="#404040" d="M379.4,-804.85C375.56,-795.78 370.95,-785.78 366,-777 355.47,-758.33 343.37,-739.22 330.95,-720.82"/>
<polygon fill="none" stroke="#404040" points="330.79,-720.59 324.1,-717.89 324.02,-710.68 330.71,-713.38 330.79,-720.59"/>
<text text-anchor="middle" x="381.5" y="-751" font-family="Helvetica,sans-Serif" font-size="10.00"> &#45;ownValue</text>
</g>
</g>
</svg>
