<?xml version="1.0" encoding="UTF-8" standalone="no"?>
<!DOCTYPE svg PUBLIC "-//W3C//DTD SVG 1.1//EN"
 "http://www.w3.org/Graphics/SVG/1.1/DTD/svg11.dtd">
<!-- Generated by graphviz version 2.43.0 (0)
 -->
<!-- Title: CreativePowerManager Pages: 1 -->
<svg width="551pt" height="545pt"
 viewBox="0.00 0.00 550.50 545.00" xmlns="http://www.w3.org/2000/svg" xmlns:xlink="http://www.w3.org/1999/xlink">
<g id="graph0" class="graph" transform="scale(1 1) rotate(0) translate(4 541)">
<title>CreativePowerManager</title>
<polygon fill="white" stroke="transparent" points="-4,4 -4,-541 546.5,-541 546.5,4 -4,4"/>
<!-- Node1 -->
<g id="node1" class="node">
<title>Node1</title>
<g id="a_node1"><a xlink:title=" ">
<polygon fill="#bfbfbf" stroke="black" points="203,-0.5 203,-420.5 391,-420.5 391,-0.5 203,-0.5"/>
<text text-anchor="middle" x="297" y="-408.5" font-family="Helvetica,sans-Serif" font-size="10.00">CreativePowerManager</text>
<polyline fill="none" stroke="black" points="203,-401.5 391,-401.5 "/>
<text text-anchor="middle" x="297" y="-389.5" font-family="Helvetica,sans-Serif" font-size="10.00"> </text>
<polyline fill="none" stroke="black" points="203,-382.5 391,-382.5 "/>
<text text-anchor="start" x="211" y="-370.5" font-family="Helvetica,sans-Serif" font-size="10.00">+ void Register&lt; T &gt;</text>
<text text-anchor="start" x="211" y="-359.5" font-family="Helvetica,sans-Serif" font-size="10.00">(string nameInServerConfig)</text>
<text text-anchor="start" x="211" y="-348.5" font-family="Helvetica,sans-Serif" font-size="10.00">+ T GetPower&lt; T &gt;()</text>
<text text-anchor="start" x="211" y="-337.5" font-family="Helvetica,sans-Serif" font-size="10.00">+ ushort GetPowerId&lt;</text>
<text text-anchor="start" x="211" y="-326.5" font-family="Helvetica,sans-Serif" font-size="10.00"> T &gt;()</text>
<text text-anchor="start" x="211" y="-315.5" font-family="Helvetica,sans-Serif" font-size="10.00">+ bool TryGetPower(ushort</text>
<text text-anchor="start" x="211" y="-304.5" font-family="Helvetica,sans-Serif" font-size="10.00"> id, out ICreativePower</text>
<text text-anchor="start" x="211" y="-293.5" font-family="Helvetica,sans-Serif" font-size="10.00"> power)</text>
<text text-anchor="start" x="211" y="-282.5" font-family="Helvetica,sans-Serif" font-size="10.00">+ void Reset()</text>
<text text-anchor="start" x="211" y="-271.5" font-family="Helvetica,sans-Serif" font-size="10.00">+ void SaveToWorld(BinaryWriter</text>
<text text-anchor="start" x="211" y="-260.5" font-family="Helvetica,sans-Serif" font-size="10.00"> writer)</text>
<text text-anchor="start" x="211" y="-249.5" font-family="Helvetica,sans-Serif" font-size="10.00">+ void LoadFromWorld</text>
<text text-anchor="start" x="211" y="-238.5" font-family="Helvetica,sans-Serif" font-size="10.00">(BinaryReader reader,</text>
<text text-anchor="start" x="211" y="-227.5" font-family="Helvetica,sans-Serif" font-size="10.00"> int versionGameWasLastSavedOn)</text>
<text text-anchor="start" x="211" y="-216.5" font-family="Helvetica,sans-Serif" font-size="10.00">+ void ValidateWorld</text>
<text text-anchor="start" x="211" y="-205.5" font-family="Helvetica,sans-Serif" font-size="10.00">(BinaryReader reader,</text>
<text text-anchor="start" x="211" y="-194.5" font-family="Helvetica,sans-Serif" font-size="10.00"> int versionGameWasLastSavedOn)</text>
<text text-anchor="start" x="211" y="-183.5" font-family="Helvetica,sans-Serif" font-size="10.00">+ void SyncThingsToJoining</text>
<text text-anchor="start" x="211" y="-172.5" font-family="Helvetica,sans-Serif" font-size="10.00">Player(int playerIndex)</text>
<text text-anchor="start" x="211" y="-161.5" font-family="Helvetica,sans-Serif" font-size="10.00">+ void SaveToPlayer(Player</text>
<text text-anchor="start" x="211" y="-150.5" font-family="Helvetica,sans-Serif" font-size="10.00"> player, BinaryWriter writer)</text>
<text text-anchor="start" x="211" y="-139.5" font-family="Helvetica,sans-Serif" font-size="10.00">+ void LoadToPlayer(Player</text>
<text text-anchor="start" x="211" y="-128.5" font-family="Helvetica,sans-Serif" font-size="10.00"> player, BinaryReader reader,</text>
<text text-anchor="start" x="211" y="-117.5" font-family="Helvetica,sans-Serif" font-size="10.00"> int versionGameWasLastSavedOn)</text>
<text text-anchor="start" x="211" y="-106.5" font-family="Helvetica,sans-Serif" font-size="10.00">+ void ApplyLoadedDataToPlayer</text>
<text text-anchor="start" x="211" y="-95.5" font-family="Helvetica,sans-Serif" font-size="10.00">(Player player)</text>
<text text-anchor="start" x="211" y="-84.5" font-family="Helvetica,sans-Serif" font-size="10.00">+ void ResetPowersForPlayer</text>
<text text-anchor="start" x="211" y="-73.5" font-family="Helvetica,sans-Serif" font-size="10.00">(Player player)</text>
<text text-anchor="start" x="211" y="-62.5" font-family="Helvetica,sans-Serif" font-size="10.00">+ void ResetDataForNewPlayer</text>
<text text-anchor="start" x="211" y="-51.5" font-family="Helvetica,sans-Serif" font-size="10.00">(Player player)</text>
<text text-anchor="start" x="211" y="-40.5" font-family="Helvetica,sans-Serif" font-size="10.00">+ static void TryListingPermissions</text>
<text text-anchor="start" x="211" y="-29.5" font-family="Helvetica,sans-Serif" font-size="10.00">From(string line)</text>
<text text-anchor="start" x="211" y="-18.5" font-family="Helvetica,sans-Serif" font-size="10.00">+ static void Initialize()</text>
<text text-anchor="start" x="211" y="-7.5" font-family="Helvetica,sans-Serif" font-size="10.00">&#45; CreativePowerManager()</text>
</a>
</g>
</g>
<!-- Node1&#45;&gt;Node1 -->
<g id="edge5" class="edge">
<title>Node1&#45;&gt;Node1</title>
<path fill="none" stroke="#404040" d="M391.37,-247.68C402.07,-240.72 409,-228.32 409,-210.5 409,-198.52 405.87,-189 400.57,-181.93"/>
<polygon fill="none" stroke="#404040" points="400.14,-181.52 393.02,-180.34 391.37,-173.32 398.49,-174.5 400.14,-181.52"/>
<text text-anchor="middle" x="435.5" y="-208" font-family="Helvetica,sans-Serif" font-size="10.00"> +Instance</text>
</g>
<!-- Node2 -->
<g id="node2" class="node">
<title>Node2</title>
<g id="a_node2"><a xlink:title=" ">
<polygon fill="white" stroke="#bfbfbf" points="0,-474 0,-531 44,-531 44,-474 0,-474"/>
<text text-anchor="middle" x="22" y="-519" font-family="Helvetica,sans-Serif" font-size="10.00">string</text>
<polyline fill="none" stroke="#bfbfbf" points="0,-512 44,-512 "/>
<text text-anchor="middle" x="22" y="-500" font-family="Helvetica,sans-Serif" font-size="10.00"> </text>
<polyline fill="none" stroke="#bfbfbf" points="0,-493 44,-493 "/>
<text text-anchor="middle" x="22" y="-481" font-family="Helvetica,sans-Serif" font-size="10.00"> </text>
</a>
</g>
</g>
<!-- Node2&#45;&gt;Node1 -->
<g id="edge1" class="edge">
<title>Node2&#45;&gt;Node1</title>
<path fill="none" stroke="#404040" d="M35.13,-473.93C41.09,-462.62 48.67,-449.7 57,-439 96.91,-387.71 148.46,-337.3 193.54,-297.01"/>
<polygon fill="none" stroke="#404040" points="193.78,-296.8 195.62,-289.82 202.76,-288.83 200.93,-295.81 193.78,-296.8"/>
<text text-anchor="middle" x="135.5" y="-442" font-family="Helvetica,sans-Serif" font-size="10.00"> &#45;_powerPermissionsLineHeader</text>
</g>
<!-- Node3 -->
<g id="node3" class="node">
<title>Node3</title>
<g id="a_node3"><a xlink:title=" ">
<polygon fill="white" stroke="#bfbfbf" points="144,-468.5 144,-536.5 256,-536.5 256,-468.5 144,-468.5"/>
<text text-anchor="start" x="152" y="-524.5" font-family="Helvetica,sans-Serif" font-size="10.00">Dictionary&lt; ushort,</text>
<text text-anchor="middle" x="200" y="-513.5" font-family="Helvetica,sans-Serif" font-size="10.00"> ICreativePower &gt;</text>
<polyline fill="none" stroke="#bfbfbf" points="144,-506.5 256,-506.5 "/>
<text text-anchor="middle" x="200" y="-494.5" font-family="Helvetica,sans-Serif" font-size="10.00"> </text>
<polyline fill="none" stroke="#bfbfbf" points="144,-487.5 256,-487.5 "/>
<text text-anchor="middle" x="200" y="-475.5" font-family="Helvetica,sans-Serif" font-size="10.00"> </text>
</a>
</g>
</g>
<!-- Node3&#45;&gt;Node1 -->
<g id="edge2" class="edge">
<title>Node3&#45;&gt;Node1</title>
<path fill="none" stroke="#404040" d="M211.13,-468.23C214.59,-457.89 218.69,-445.62 223.2,-432.14"/>
<polygon fill="none" stroke="#404040" points="223.27,-431.92 221.38,-424.97 227.08,-420.54 228.97,-427.5 223.27,-431.92"/>
<text text-anchor="middle" x="253" y="-442" font-family="Helvetica,sans-Serif" font-size="10.00"> &#45;_powersById</text>
</g>
<!-- Node4 -->
<g id="node4" class="node">
<title>Node4</title>
<g id="a_node4"><a xlink:title=" ">
<polygon fill="white" stroke="#bfbfbf" points="274.5,-474 274.5,-531 321.5,-531 321.5,-474 274.5,-474"/>
<text text-anchor="middle" x="298" y="-519" font-family="Helvetica,sans-Serif" font-size="10.00">ushort</text>
<polyline fill="none" stroke="#bfbfbf" points="274.5,-512 321.5,-512 "/>
<text text-anchor="middle" x="298" y="-500" font-family="Helvetica,sans-Serif" font-size="10.00"> </text>
<polyline fill="none" stroke="#bfbfbf" points="274.5,-493 321.5,-493 "/>
<text text-anchor="middle" x="298" y="-481" font-family="Helvetica,sans-Serif" font-size="10.00"> </text>
</a>
</g>
</g>
<!-- Node4&#45;&gt;Node1 -->
<g id="edge3" class="edge">
<title>Node4&#45;&gt;Node1</title>
<path fill="none" stroke="#404040" d="M297.91,-473.96C297.87,-462.75 297.82,-448.71 297.76,-433"/>
<polygon fill="none" stroke="#404040" points="297.76,-432.68 293.74,-426.69 297.72,-420.68 301.74,-426.66 297.76,-432.68"/>
<text text-anchor="middle" x="335" y="-442" font-family="Helvetica,sans-Serif" font-size="10.00"> &#45;_powersCount</text>
</g>
<!-- Node5 -->
<g id="node5" class="node">
<title>Node5</title>
<g id="a_node5"><a xlink:title=" ">
<polygon fill="white" stroke="#bfbfbf" points="377,-474 377,-531 415,-531 415,-474 377,-474"/>
<text text-anchor="middle" x="396" y="-519" font-family="Helvetica,sans-Serif" font-size="10.00">bool</text>
<polyline fill="none" stroke="#bfbfbf" points="377,-512 415,-512 "/>
<text text-anchor="middle" x="396" y="-500" font-family="Helvetica,sans-Serif" font-size="10.00"> </text>
<polyline fill="none" stroke="#bfbfbf" points="377,-493 415,-493 "/>
<text text-anchor="middle" x="396" y="-481" font-family="Helvetica,sans-Serif" font-size="10.00"> </text>
</a>
</g>
</g>
<!-- Node5&#45;&gt;Node1 -->
<g id="edge4" class="edge">
<title>Node5&#45;&gt;Node1</title>
<path fill="none" stroke="#404040" d="M386.6,-473.96C382.7,-462.53 377.79,-448.16 372.3,-432.08"/>
<polygon fill="none" stroke="#404040" points="372.29,-432.04 366.56,-427.65 368.41,-420.68 374.13,-425.06 372.29,-432.04"/>
<text text-anchor="middle" x="407.5" y="-442" font-family="Helvetica,sans-Serif" font-size="10.00"> &#45;_initialized</text>
</g>
<!-- Node6 -->
<g id="node6" class="node">
<title>Node6</title>
<g id="a_node6"><a xlink:title=" ">
<polygon fill="white" stroke="#bfbfbf" points="433.5,-468.5 433.5,-536.5 542.5,-536.5 542.5,-468.5 433.5,-468.5"/>
<text text-anchor="start" x="441.5" y="-524.5" font-family="Helvetica,sans-Serif" font-size="10.00">Dictionary&lt; string,</text>
<text text-anchor="middle" x="488" y="-513.5" font-family="Helvetica,sans-Serif" font-size="10.00"> ICreativePower &gt;</text>
<polyline fill="none" stroke="#bfbfbf" points="433.5,-506.5 542.5,-506.5 "/>
<text text-anchor="middle" x="488" y="-494.5" font-family="Helvetica,sans-Serif" font-size="10.00"> </text>
<polyline fill="none" stroke="#bfbfbf" points="433.5,-487.5 542.5,-487.5 "/>
<text text-anchor="middle" x="488" y="-475.5" font-family="Helvetica,sans-Serif" font-size="10.00"> </text>
</a>
</g>
</g>
<!-- Node6&#45;&gt;Node1 -->
<g id="edge6" class="edge">
<title>Node6&#45;&gt;Node1</title>
<path fill="none" stroke="#404040" d="M466.09,-468.23C448.95,-442.22 423.8,-404.02 398.1,-365"/>
<polygon fill="none" stroke="#404040" points="397.8,-364.55 391.16,-361.74 391.2,-354.53 397.84,-357.34 397.8,-364.55"/>
<text text-anchor="middle" x="496" y="-442" font-family="Helvetica,sans-Serif" font-size="10.00"> &#45;_powersByName</text>
</g>
</g>
</svg>
