<?xml version="1.0" encoding="UTF-8" standalone="no"?>
<!DOCTYPE svg PUBLIC "-//W3C//DTD SVG 1.1//EN"
 "http://www.w3.org/Graphics/SVG/1.1/DTD/svg11.dtd">
<!-- Generated by graphviz version 2.43.0 (0)
 -->
<!-- Title: Terraria.DataStructures.LineSegment Pages: 1 -->
<svg width="134pt" height="186pt"
 viewBox="0.00 0.00 134.00 186.00" xmlns="http://www.w3.org/2000/svg" xmlns:xlink="http://www.w3.org/1999/xlink">
<g id="graph0" class="graph" transform="scale(1 1) rotate(0) translate(4 182)">
<title>Terraria.DataStructures.LineSegment</title>
<!-- Node1 -->
<g id="Node000001" class="node">
<title>Node1</title>
<g id="a_Node000001"><a xlink:title=" ">
<polygon fill="#999999" stroke="transparent" points="126,-71 0,-71 0,0 126,0 126,-71"/>
<text text-anchor="start" x="5" y="-58.5" font-family="Helvetica,sans-Serif" font-size="10.00">Terraria.DataStructures.</text>
<text text-anchor="start" x="31" y="-47.5" font-family="Helvetica,sans-Serif" font-size="10.00">LineSegment</text>
<text text-anchor="start" x="61" y="-32.5" font-family="Helvetica,sans-Serif" font-size="10.00"> </text>
<text text-anchor="start" x="4" y="-17.5" font-family="Helvetica,sans-Serif" font-size="10.00">+</text>
<text text-anchor="start" x="17" y="-17.5" font-family="Helvetica,sans-Serif" font-size="10.00">LineSegment(Vector2</text>
<text text-anchor="start" x="17" y="-6.5" font-family="Helvetica,sans-Serif" font-size="10.00"> start, Vector2 end)</text>
<polygon fill="#666666" stroke="#666666" points="0,-42.5 0,-42.5 126,-42.5 126,-42.5 0,-42.5"/>
<polygon fill="#666666" stroke="#666666" points="0,-27.5 0,-27.5 126,-27.5 126,-27.5 0,-27.5"/>
<polygon fill="none" stroke="#666666" points="0,0 0,-71 126,-71 126,0 0,0"/>
</a>
</g>
</g>
<!-- Node2 -->
<g id="Node000002" class="node">
<title>Node2</title>
<g id="a_Node000002"><a xlink:title=" ">
<polygon fill="white" stroke="transparent" points="86.5,-178 39.5,-178 39.5,-129 86.5,-129 86.5,-178"/>
<text text-anchor="start" x="45" y="-165.5" font-family="Helvetica,sans-Serif" font-size="10.00">Vector2</text>
<text text-anchor="start" x="61.5" y="-150.5" font-family="Helvetica,sans-Serif" font-size="10.00"> </text>
<text text-anchor="start" x="61.5" y="-135.5" font-family="Helvetica,sans-Serif" font-size="10.00"> </text>
<polygon fill="#666666" stroke="#666666" points="40,-160.5 40,-160.5 87,-160.5 87,-160.5 40,-160.5"/>
<polygon fill="#666666" stroke="#666666" points="40,-145.5 40,-145.5 87,-145.5 87,-145.5 40,-145.5"/>
<polygon fill="none" stroke="#666666" points="39.5,-129 39.5,-178 86.5,-178 86.5,-129 39.5,-129"/>
</a>
</g>
</g>
<!-- Node2&#45;&gt;Node1 -->
<g id="edge1_Node000001_Node000002" class="edge">
<title>Node2&#45;&gt;Node1</title>
<g id="a_edge1_Node000001_Node000002"><a xlink:title=" ">
<path fill="none" stroke="#63b8ff" d="M63,-128.75C63,-115.67 63,-98.98 63,-83.39"/>
<polygon fill="none" stroke="#63b8ff" points="63,-83.23 59,-77.23 63,-71.23 67,-77.23 63,-83.23"/>
</a>
</g>
<text text-anchor="middle" x="79" y="-103" font-family="Helvetica,sans-Serif" font-size="10.00" fill="grey"> +End</text>
<text text-anchor="middle" x="79" y="-92" font-family="Helvetica,sans-Serif" font-size="10.00" fill="grey">+Start</text>
</g>
</g>
</svg>
