<?xml version="1.0" encoding="UTF-8" standalone="no"?>
<!DOCTYPE svg PUBLIC "-//W3C//DTD SVG 1.1//EN"
 "http://www.w3.org/Graphics/SVG/1.1/DTD/svg11.dtd">
<!-- Generated by graphviz version 2.43.0 (0)
 -->
<!-- Title: Terraria.ID.ArmorIDs.Balloon Pages: 1 -->
<svg width="235pt" height="427pt"
 viewBox="0.00 0.00 234.50 427.00" xmlns="http://www.w3.org/2000/svg" xmlns:xlink="http://www.w3.org/1999/xlink">

<svg id="main" version="1.1" xmlns="http://www.w3.org/2000/svg" xmlns:xlink="http://www.w3.org/1999/xlink" xml:space="preserve" onload="init(evt)">
<style type="text/css"><![CDATA[
.node, .edge {opacity: 0.7;}
.node.selected, .edge.selected {opacity: 1;}
.edge:hover path { stroke: red; }
.edge:hover polygon { stroke: red; fill: red; }
]]></style>
<script type="application/ecmascript" xlink:href="../../svg.min.js"/>
<svg id="graph" class="graph">
<g id="graph0" class="graph" transform="scale(1 1) rotate(0) translate(4 423)">
<title>Terraria.ID.ArmorIDs.Balloon</title>
<!-- Node1 -->
<g id="Node000001" class="node">
<title>Node1</title>
<g id="a_Node000001"><a xlink:title=" ">
<polygon fill="#999999" stroke="transparent" points="194.5,-213 28.5,-213 28.5,0 194.5,0 194.5,-213"/>
<text text-anchor="start" x="42" y="-200.5" font-family="Helvetica,sans-Serif" font-size="10.00">Terraria.ID.ArmorIDs.Balloon</text>
<text text-anchor="start" x="32.5" y="-185.5" font-family="Helvetica,sans-Serif" font-size="10.00">+</text>
<text text-anchor="start" x="45.5" y="-185.5" font-family="Helvetica,sans-Serif" font-size="10.00">const sbyte Sandstormina</text>
<text text-anchor="start" x="45.5" y="-174.5" font-family="Helvetica,sans-Serif" font-size="10.00">Balloon</text>
<text text-anchor="start" x="32.5" y="-159.5" font-family="Helvetica,sans-Serif" font-size="10.00">+</text>
<text text-anchor="start" x="45.5" y="-159.5" font-family="Helvetica,sans-Serif" font-size="10.00">const sbyte HoneyBalloon</text>
<text text-anchor="start" x="32.5" y="-144.5" font-family="Helvetica,sans-Serif" font-size="10.00">+</text>
<text text-anchor="start" x="45.5" y="-144.5" font-family="Helvetica,sans-Serif" font-size="10.00">const sbyte ShinyRedBalloon</text>
<text text-anchor="start" x="32.5" y="-129.5" font-family="Helvetica,sans-Serif" font-size="10.00">+</text>
<text text-anchor="start" x="45.5" y="-129.5" font-family="Helvetica,sans-Serif" font-size="10.00">const sbyte WhiteHorseshoe</text>
<text text-anchor="start" x="45.5" y="-118.5" font-family="Helvetica,sans-Serif" font-size="10.00">Balloon</text>
<text text-anchor="start" x="32.5" y="-103.5" font-family="Helvetica,sans-Serif" font-size="10.00">+</text>
<text text-anchor="start" x="45.5" y="-103.5" font-family="Helvetica,sans-Serif" font-size="10.00">const sbyte YellowHorseshoe</text>
<text text-anchor="start" x="45.5" y="-92.5" font-family="Helvetica,sans-Serif" font-size="10.00">Balloon</text>
<text text-anchor="start" x="32.5" y="-77.5" font-family="Helvetica,sans-Serif" font-size="10.00">+</text>
<text text-anchor="start" x="45.5" y="-77.5" font-family="Helvetica,sans-Serif" font-size="10.00">const sbyte SharkronBalloon</text>
<text text-anchor="start" x="32.5" y="-62.5" font-family="Helvetica,sans-Serif" font-size="10.00">+</text>
<text text-anchor="start" x="45.5" y="-62.5" font-family="Helvetica,sans-Serif" font-size="10.00">const sbyte PinkHorseshoe</text>
<text text-anchor="start" x="45.5" y="-51.5" font-family="Helvetica,sans-Serif" font-size="10.00">Balloon</text>
<text text-anchor="start" x="32.5" y="-36.5" font-family="Helvetica,sans-Serif" font-size="10.00">+</text>
<text text-anchor="start" x="45.5" y="-36.5" font-family="Helvetica,sans-Serif" font-size="10.00">const sbyte RoyalScepter</text>
<text text-anchor="start" x="32.5" y="-21.5" font-family="Helvetica,sans-Serif" font-size="10.00">+</text>
<text text-anchor="start" x="45.5" y="-21.5" font-family="Helvetica,sans-Serif" font-size="10.00">const sbyte HorseshoeBundle</text>
<text text-anchor="start" x="109.5" y="-6.5" font-family="Helvetica,sans-Serif" font-size="10.00"> </text>
<polygon fill="#666666" stroke="#666666" points="28.5,-195.5 28.5,-195.5 194.5,-195.5 194.5,-195.5 28.5,-195.5"/>
<polygon fill="#666666" stroke="#666666" points="28.5,-16.5 28.5,-16.5 43.5,-16.5 43.5,-16.5 28.5,-16.5"/>
<polygon fill="#666666" stroke="#666666" points="43.5,-16.5 43.5,-16.5 194.5,-16.5 194.5,-16.5 43.5,-16.5"/>
<polygon fill="none" stroke="#666666" points="28.5,0 28.5,-213 194.5,-213 194.5,0 28.5,0"/>
</a>
</g>
</g>
<!-- Node2 -->
<g id="Node000002" class="node">
<title>Node2</title>
<g id="a_Node000002"><a xlink:title=" ">
<polygon fill="white" stroke="transparent" points="67,-419 0,-419 0,-370 67,-370 67,-419"/>
<text text-anchor="start" x="5.5" y="-406.5" font-family="Helvetica,sans-Serif" font-size="10.00">const sbyte</text>
<text text-anchor="start" x="32" y="-391.5" font-family="Helvetica,sans-Serif" font-size="10.00"> </text>
<text text-anchor="start" x="32" y="-376.5" font-family="Helvetica,sans-Serif" font-size="10.00"> </text>
<polygon fill="#666666" stroke="#666666" points="0.5,-401.5 0.5,-401.5 67.5,-401.5 67.5,-401.5 0.5,-401.5"/>
<polygon fill="#666666" stroke="#666666" points="0.5,-386.5 0.5,-386.5 67.5,-386.5 67.5,-386.5 0.5,-386.5"/>
<polygon fill="none" stroke="#666666" points="0,-370 0,-419 67,-419 67,-370 0,-370"/>
</a>
</g>
</g>
<!-- Node2&#45;&gt;Node1 -->
<g id="edge1_Node000001_Node000002" class="edge">
<title>Node2&#45;&gt;Node1</title>
<g id="a_edge1_Node000001_Node000002"><a xlink:title=" ">
<path fill="none" stroke="#63b8ff" d="M29.69,-369.78C25.4,-337.62 20.69,-278.69 34.5,-231 35.12,-228.86 35.79,-226.73 36.5,-224.59"/>
<polygon fill="none" stroke="#63b8ff" points="36.54,-224.49 34.87,-217.47 40.7,-213.24 42.37,-220.25 36.54,-224.49"/>
</a>
</g>
<text text-anchor="middle" x="101" y="-344" font-family="Helvetica,sans-Serif" font-size="10.00" fill="grey"> +AmberHorseshoeBalloon</text>
<text text-anchor="middle" x="101" y="-333" font-family="Helvetica,sans-Serif" font-size="10.00" fill="grey">+BalloonAnimal</text>
<text text-anchor="middle" x="101" y="-322" font-family="Helvetica,sans-Serif" font-size="10.00" fill="grey">+BalloonPufferfish</text>
<text text-anchor="middle" x="101" y="-311" font-family="Helvetica,sans-Serif" font-size="10.00" fill="grey">+BlizzardinaBalloon</text>
<text text-anchor="middle" x="101" y="-300" font-family="Helvetica,sans-Serif" font-size="10.00" fill="grey">+BlueHorseshoeBalloon</text>
<text text-anchor="middle" x="101" y="-289" font-family="Helvetica,sans-Serif" font-size="10.00" fill="grey">+BundledPartyBalloons</text>
<text text-anchor="middle" x="101" y="-278" font-family="Helvetica,sans-Serif" font-size="10.00" fill="grey">+BundleofBalloons</text>
<text text-anchor="middle" x="101" y="-267" font-family="Helvetica,sans-Serif" font-size="10.00" fill="grey">+CloudinaBalloon</text>
<text text-anchor="middle" x="101" y="-256" font-family="Helvetica,sans-Serif" font-size="10.00" fill="grey">+FartinaBalloon</text>
<text text-anchor="middle" x="101" y="-245" font-family="Helvetica,sans-Serif" font-size="10.00" fill="grey">+GreenHorseshoeBalloon</text>
<text text-anchor="middle" x="101" y="-234" font-family="Helvetica,sans-Serif" font-size="10.00" fill="grey">...</text>
</g>
<!-- Node3 -->
<g id="Node000003" class="node">
<title>Node3</title>
<g id="a_Node000003"><a xlink:href="../../d1/da0/classint.html" target="_top" xlink:title=" ">
<polygon fill="white" stroke="transparent" points="201,-419 178,-419 178,-370 201,-370 201,-419"/>
<text text-anchor="start" x="183.5" y="-406.5" font-family="Helvetica,sans-Serif" font-size="10.00">int</text>
<text text-anchor="start" x="188" y="-391.5" font-family="Helvetica,sans-Serif" font-size="10.00"> </text>
<text text-anchor="start" x="188" y="-376.5" font-family="Helvetica,sans-Serif" font-size="10.00"> </text>
<polygon fill="#666666" stroke="#666666" points="178.5,-401.5 178.5,-401.5 201.5,-401.5 201.5,-401.5 178.5,-401.5"/>
<polygon fill="#666666" stroke="#666666" points="178.5,-386.5 178.5,-386.5 201.5,-386.5 201.5,-386.5 178.5,-386.5"/>
<polygon fill="none" stroke="#666666" points="178,-370 178,-419 201,-419 201,-370 178,-370"/>
</a>
</g>
</g>
<!-- Node3&#45;&gt;Node1 -->
<g id="edge2_Node000001_Node000003" class="edge">
<title>Node3&#45;&gt;Node1</title>
<g id="a_edge2_Node000001_Node000003"><a xlink:title=" ">
<path fill="none" stroke="#63b8ff" d="M188.46,-369.92C186.56,-337.9 181.35,-279.15 167.5,-231 166.89,-228.89 166.25,-226.76 165.59,-224.63"/>
<polygon fill="none" stroke="#63b8ff" points="165.57,-224.58 159.88,-220.15 161.79,-213.19 167.47,-217.62 165.57,-224.58"/>
</a>
</g>
<text text-anchor="middle" x="206.5" y="-289" font-family="Helvetica,sans-Serif" font-size="10.00" fill="grey"> +Count</text>
</g>
</g>
</svg>
</svg>

<style type='text/css'>
<![CDATA[
[data-mouse-over-selected='false'] { opacity: 0.7; }
[data-mouse-over-selected='true']  { opacity: 1.0; }
]]>
</style>
<script type="application/ecmascript"><![CDATA[
document.addEventListener('DOMContentLoaded', (event) => {
  highlightEdges();
  highlightAdjacentNodes();
});
]]></script>
</svg>
