<?xml version="1.0" encoding="UTF-8" standalone="no"?>
<!DOCTYPE svg PUBLIC "-//W3C//DTD SVG 1.1//EN"
 "http://www.w3.org/Graphics/SVG/1.1/DTD/svg11.dtd">
<!-- Generated by graphviz version 2.43.0 (0)
 -->
<!-- Title: Terraria.GameContent.ChromaHotkeyPainter.PaintKey.SetSolid Pages: 1 -->
<svg width="600pt" height="374pt"
 viewBox="0.00 0.00 600.00 374.00" xmlns="http://www.w3.org/2000/svg" xmlns:xlink="http://www.w3.org/1999/xlink">
<g id="graph0" class="graph" transform="scale(1 1) rotate(0) translate(4 370)">
<title>Terraria.GameContent.ChromaHotkeyPainter.PaintKey.SetSolid</title>
<!-- Node1 -->
<g id="Node000001" class="node">
<title>Node1</title>
<g id="a_Node000001"><a xlink:title=" ">
<polygon fill="#999999" stroke="#666666" points="592,-198 422,-198 422,-168 592,-168 592,-198"/>
<text text-anchor="start" x="430" y="-186" font-family="Helvetica,sans-Serif" font-size="10.00">Terraria.GameContent.Chroma</text>
<text text-anchor="middle" x="507" y="-175" font-family="Helvetica,sans-Serif" font-size="10.00">HotkeyPainter.PaintKey.SetSolid</text>
</a>
</g>
</g>
<!-- Node2 -->
<g id="Node000002" class="node">
<title>Node2</title>
<g id="a_Node000002"><a xlink:href="../../d3/d7f/classTerraria_1_1GameContent_1_1ChromaHotkeyPainter_a94e8d397916e5e7d59ce25ae9b6aee68.html#a94e8d397916e5e7d59ce25ae9b6aee68" target="_top" xlink:title=" ">
<polygon fill="white" stroke="#666666" points="376,-366 211,-366 211,-336 376,-336 376,-366"/>
<text text-anchor="start" x="219" y="-354" font-family="Helvetica,sans-Serif" font-size="10.00">Terraria.GameContent.Chroma</text>
<text text-anchor="middle" x="293.5" y="-343" font-family="Helvetica,sans-Serif" font-size="10.00">HotkeyPainter.Step_Grapple</text>
</a>
</g>
</g>
<!-- Node1&#45;&gt;Node2 -->
<g id="edge1_Node000001_Node000002" class="edge">
<title>Node1&#45;&gt;Node2</title>
<g id="a_edge1_Node000001_Node000002"><a xlink:title=" ">
<path fill="none" stroke="#63b8ff" d="M492.52,-207.08C473.18,-239.37 434.49,-296.17 386,-327 380.59,-330.44 374.71,-333.38 368.63,-335.91"/>
<polygon fill="#63b8ff" stroke="#63b8ff" points="495.63,-208.69 497.67,-198.29 489.59,-205.15 495.63,-208.69"/>
</a>
</g>
</g>
<!-- Node3 -->
<g id="Node000003" class="node">
<title>Node3</title>
<g id="a_Node000003"><a xlink:href="../../d3/d7f/classTerraria_1_1GameContent_1_1ChromaHotkeyPainter_a77f65824f07e9e980e2f44b8ede0b9e2.html#a77f65824f07e9e980e2f44b8ede0b9e2" target="_top" xlink:title=" ">
<polygon fill="white" stroke="#666666" points="376,-318 211,-318 211,-288 376,-288 376,-318"/>
<text text-anchor="start" x="219" y="-306" font-family="Helvetica,sans-Serif" font-size="10.00">Terraria.GameContent.Chroma</text>
<text text-anchor="middle" x="293.5" y="-295" font-family="Helvetica,sans-Serif" font-size="10.00">HotkeyPainter.Step_Jump</text>
</a>
</g>
</g>
<!-- Node1&#45;&gt;Node3 -->
<g id="edge2_Node000001_Node000003" class="edge">
<title>Node1&#45;&gt;Node3</title>
<g id="a_edge2_Node000001_Node000003"><a xlink:title=" ">
<path fill="none" stroke="#63b8ff" d="M484.17,-205.24C461.54,-227.08 424.17,-259.82 386,-279 379.25,-282.39 371.97,-285.34 364.57,-287.89"/>
<polygon fill="#63b8ff" stroke="#63b8ff" points="486.86,-207.51 491.54,-198.01 481.95,-202.52 486.86,-207.51"/>
</a>
</g>
</g>
<!-- Node4 -->
<g id="Node000004" class="node">
<title>Node4</title>
<g id="a_Node000004"><a xlink:href="../../d3/d7f/classTerraria_1_1GameContent_1_1ChromaHotkeyPainter_afd53bdffbd407f17eadfb9731bf47afb.html#afd53bdffbd407f17eadfb9731bf47afb" target="_top" xlink:title=" ">
<polygon fill="white" stroke="#666666" points="386,-270 201,-270 201,-240 386,-240 386,-270"/>
<text text-anchor="start" x="209" y="-258" font-family="Helvetica,sans-Serif" font-size="10.00">Terraria.GameContent.Chroma</text>
<text text-anchor="middle" x="293.5" y="-247" font-family="Helvetica,sans-Serif" font-size="10.00">HotkeyPainter.Step_KeybindsMenu</text>
</a>
</g>
</g>
<!-- Node1&#45;&gt;Node4 -->
<g id="edge3_Node000001_Node000004" class="edge">
<title>Node1&#45;&gt;Node4</title>
<g id="a_edge3_Node000001_Node000004"><a xlink:title=" ">
<path fill="none" stroke="#63b8ff" d="M462.45,-201.93C439.89,-211.36 411.73,-222.52 386,-231 376.49,-234.14 366.31,-237.14 356.33,-239.9"/>
<polygon fill="#63b8ff" stroke="#63b8ff" points="463.9,-205.12 471.76,-198.01 461.19,-198.67 463.9,-205.12"/>
</a>
</g>
</g>
<!-- Node6 -->
<g id="Node000006" class="node">
<title>Node6</title>
<g id="a_Node000006"><a xlink:href="../../d3/d7f/classTerraria_1_1GameContent_1_1ChromaHotkeyPainter_a10f7d22aab4653b10ffc757d1eae293c.html#a10f7d22aab4653b10ffc757d1eae293c" target="_top" xlink:title=" ">
<polygon fill="white" stroke="#666666" points="376,-222 211,-222 211,-192 376,-192 376,-222"/>
<text text-anchor="start" x="219" y="-210" font-family="Helvetica,sans-Serif" font-size="10.00">Terraria.GameContent.Chroma</text>
<text text-anchor="middle" x="293.5" y="-199" font-family="Helvetica,sans-Serif" font-size="10.00">HotkeyPainter.Step_Mount</text>
</a>
</g>
</g>
<!-- Node1&#45;&gt;Node6 -->
<g id="edge5_Node000001_Node000006" class="edge">
<title>Node1&#45;&gt;Node6</title>
<g id="a_edge5_Node000001_Node000006"><a xlink:title=" ">
<path fill="none" stroke="#63b8ff" d="M411.55,-193.72C399.8,-195.05 387.87,-196.4 376.34,-197.71"/>
<polygon fill="#63b8ff" stroke="#63b8ff" points="412.26,-197.16 421.8,-192.55 411.47,-190.2 412.26,-197.16"/>
</a>
</g>
</g>
<!-- Node7 -->
<g id="Node000007" class="node">
<title>Node7</title>
<g id="a_Node000007"><a xlink:href="../../d3/d7f/classTerraria_1_1GameContent_1_1ChromaHotkeyPainter_af6193d02d270bf74aad4cbb5c92ad9fb.html#af6193d02d270bf74aad4cbb5c92ad9fb" target="_top" xlink:title=" ">
<polygon fill="white" stroke="#666666" points="376,-174 211,-174 211,-144 376,-144 376,-174"/>
<text text-anchor="start" x="219" y="-162" font-family="Helvetica,sans-Serif" font-size="10.00">Terraria.GameContent.Chroma</text>
<text text-anchor="middle" x="293.5" y="-151" font-family="Helvetica,sans-Serif" font-size="10.00">HotkeyPainter.Step_QuickHeal</text>
</a>
</g>
</g>
<!-- Node1&#45;&gt;Node7 -->
<g id="edge6_Node000001_Node000007" class="edge">
<title>Node1&#45;&gt;Node7</title>
<g id="a_edge6_Node000001_Node000007"><a xlink:title=" ">
<path fill="none" stroke="#63b8ff" d="M411.55,-172.28C399.8,-170.95 387.87,-169.6 376.34,-168.29"/>
<polygon fill="#63b8ff" stroke="#63b8ff" points="411.47,-175.8 421.8,-173.45 412.26,-168.84 411.47,-175.8"/>
</a>
</g>
</g>
<!-- Node8 -->
<g id="Node000008" class="node">
<title>Node8</title>
<g id="a_Node000008"><a xlink:href="../../d3/d7f/classTerraria_1_1GameContent_1_1ChromaHotkeyPainter_a6f2bf412b3ea08014045c86b81b7ec78.html#a6f2bf412b3ea08014045c86b81b7ec78" target="_top" xlink:title=" ">
<polygon fill="white" stroke="#666666" points="378,-126 209,-126 209,-96 378,-96 378,-126"/>
<text text-anchor="start" x="217" y="-114" font-family="Helvetica,sans-Serif" font-size="10.00">Terraria.GameContent.Chroma</text>
<text text-anchor="middle" x="293.5" y="-103" font-family="Helvetica,sans-Serif" font-size="10.00">HotkeyPainter.Step_QuickMana</text>
</a>
</g>
</g>
<!-- Node1&#45;&gt;Node8 -->
<g id="edge8_Node000001_Node000008" class="edge">
<title>Node1&#45;&gt;Node8</title>
<g id="a_edge8_Node000001_Node000008"><a xlink:title=" ">
<path fill="none" stroke="#63b8ff" d="M462.45,-164.07C439.89,-154.64 411.73,-143.48 386,-135 376.49,-131.86 366.31,-128.86 356.33,-126.1"/>
<polygon fill="#63b8ff" stroke="#63b8ff" points="461.19,-167.33 471.76,-167.99 463.9,-160.88 461.19,-167.33"/>
</a>
</g>
</g>
<!-- Node9 -->
<g id="Node000009" class="node">
<title>Node9</title>
<g id="a_Node000009"><a xlink:href="../../d3/d7f/classTerraria_1_1GameContent_1_1ChromaHotkeyPainter_a1535835f2d909e2c34be92dedc7bc6a9.html#a1535835f2d909e2c34be92dedc7bc6a9" target="_top" xlink:title=" ">
<polygon fill="white" stroke="#666666" points="377,-78 210,-78 210,-48 377,-48 377,-78"/>
<text text-anchor="start" x="218" y="-66" font-family="Helvetica,sans-Serif" font-size="10.00">Terraria.GameContent.Chroma</text>
<text text-anchor="middle" x="293.5" y="-55" font-family="Helvetica,sans-Serif" font-size="10.00">HotkeyPainter.Step_SmartKeys</text>
</a>
</g>
</g>
<!-- Node1&#45;&gt;Node9 -->
<g id="edge9_Node000001_Node000009" class="edge">
<title>Node1&#45;&gt;Node9</title>
<g id="a_edge9_Node000001_Node000009"><a xlink:title=" ">
<path fill="none" stroke="#63b8ff" d="M484.17,-160.76C461.54,-138.92 424.17,-106.18 386,-87 379.25,-83.61 371.97,-80.66 364.57,-78.11"/>
<polygon fill="#63b8ff" stroke="#63b8ff" points="481.95,-163.48 491.54,-167.99 486.86,-158.49 481.95,-163.48"/>
</a>
</g>
</g>
<!-- Node10 -->
<g id="Node000010" class="node">
<title>Node10</title>
<g id="a_Node000010"><a xlink:href="../../d3/d7f/classTerraria_1_1GameContent_1_1ChromaHotkeyPainter_a99f8bdfee46c905c12f99925ee57209d.html#a99f8bdfee46c905c12f99925ee57209d" target="_top" xlink:title=" ">
<polygon fill="white" stroke="#666666" points="376,-30 211,-30 211,0 376,0 376,-30"/>
<text text-anchor="start" x="219" y="-18" font-family="Helvetica,sans-Serif" font-size="10.00">Terraria.GameContent.Chroma</text>
<text text-anchor="middle" x="293.5" y="-7" font-family="Helvetica,sans-Serif" font-size="10.00">HotkeyPainter.Step_Throw</text>
</a>
</g>
</g>
<!-- Node1&#45;&gt;Node10 -->
<g id="edge10_Node000001_Node000010" class="edge">
<title>Node1&#45;&gt;Node10</title>
<g id="a_edge10_Node000001_Node000010"><a xlink:title=" ">
<path fill="none" stroke="#63b8ff" d="M492.52,-158.92C473.18,-126.63 434.49,-69.83 386,-39 380.59,-35.56 374.71,-32.62 368.63,-30.09"/>
<polygon fill="#63b8ff" stroke="#63b8ff" points="489.59,-160.85 497.67,-167.71 495.63,-157.31 489.59,-160.85"/>
</a>
</g>
</g>
<!-- Node5 -->
<g id="Node000005" class="node">
<title>Node5</title>
<g id="a_Node000005"><a xlink:href="../../d3/d7f/classTerraria_1_1GameContent_1_1ChromaHotkeyPainter_a3733cd329046b9c075e79f2c6cb07b2e.html#a3733cd329046b9c075e79f2c6cb07b2e" target="_top" xlink:title=" ">
<polygon fill="white" stroke="#666666" points="165,-222 0,-222 0,-192 165,-192 165,-222"/>
<text text-anchor="start" x="8" y="-210" font-family="Helvetica,sans-Serif" font-size="10.00">Terraria.GameContent.Chroma</text>
<text text-anchor="middle" x="82.5" y="-199" font-family="Helvetica,sans-Serif" font-size="10.00">HotkeyPainter.Update</text>
</a>
</g>
</g>
<!-- Node4&#45;&gt;Node5 -->
<g id="edge4_Node000004_Node000005" class="edge">
<title>Node4&#45;&gt;Node5</title>
<g id="a_edge4_Node000004_Node000005"><a xlink:title=" ">
<path fill="none" stroke="#63b8ff" d="M217.16,-237.7C194.79,-232.56 170.49,-226.98 148.82,-222"/>
<polygon fill="#63b8ff" stroke="#63b8ff" points="216.41,-241.12 226.94,-239.94 217.98,-234.29 216.41,-241.12"/>
</a>
</g>
</g>
<!-- Node7&#45;&gt;Node5 -->
<g id="edge7_Node000007_Node000005" class="edge">
<title>Node7&#45;&gt;Node5</title>
<g id="a_edge7_Node000007_Node000005"><a xlink:title=" ">
<path fill="none" stroke="#63b8ff" d="M217.16,-176.3C194.79,-181.44 170.49,-187.02 148.82,-192"/>
<polygon fill="#63b8ff" stroke="#63b8ff" points="217.98,-179.71 226.94,-174.06 216.41,-172.88 217.98,-179.71"/>
</a>
</g>
</g>
</g>
</svg>
