<?xml version="1.0" encoding="UTF-8" standalone="no"?>
<!DOCTYPE svg PUBLIC "-//W3C//DTD SVG 1.1//EN"
 "http://www.w3.org/Graphics/SVG/1.1/DTD/svg11.dtd">
<!-- Generated by graphviz version 2.43.0 (0)
 -->
<!-- Title: ClassicPlayerResourcesDisplaySet Pages: 1 -->
<svg width="501pt" height="376pt"
 viewBox="0.00 0.00 500.50 376.00" xmlns="http://www.w3.org/2000/svg" xmlns:xlink="http://www.w3.org/1999/xlink">
<g id="graph0" class="graph" transform="scale(1 1) rotate(0) translate(4 372)">
<title>ClassicPlayerResourcesDisplaySet</title>
<polygon fill="white" stroke="transparent" points="-4,4 -4,-372 496.5,-372 496.5,4 -4,4"/>
<!-- Node1 -->
<g id="node1" class="node">
<title>Node1</title>
<g id="a_node1"><a xlink:title=" ">
<polygon fill="#bfbfbf" stroke="black" points="90,-0.5 90,-134.5 275,-134.5 275,-0.5 90,-0.5"/>
<text text-anchor="middle" x="182.5" y="-122.5" font-family="Helvetica,sans-Serif" font-size="10.00">ClassicPlayerResourcesDisplaySet</text>
<polyline fill="none" stroke="black" points="90,-115.5 275,-115.5 "/>
<text text-anchor="start" x="98" y="-103.5" font-family="Helvetica,sans-Serif" font-size="10.00">+ string NameKey</text>
<text text-anchor="start" x="98" y="-92.5" font-family="Helvetica,sans-Serif" font-size="10.00">+ string ConfigKey</text>
<polyline fill="none" stroke="black" points="90,-85.5 275,-85.5 "/>
<text text-anchor="start" x="98" y="-73.5" font-family="Helvetica,sans-Serif" font-size="10.00">+ ClassicPlayerResourcesDisplay</text>
<text text-anchor="start" x="98" y="-62.5" font-family="Helvetica,sans-Serif" font-size="10.00">Set(string nameKey, string</text>
<text text-anchor="start" x="98" y="-51.5" font-family="Helvetica,sans-Serif" font-size="10.00"> configKey)</text>
<text text-anchor="start" x="98" y="-40.5" font-family="Helvetica,sans-Serif" font-size="10.00">+ void Draw()</text>
<text text-anchor="start" x="98" y="-29.5" font-family="Helvetica,sans-Serif" font-size="10.00">+ void TryToHover()</text>
<text text-anchor="start" x="98" y="-18.5" font-family="Helvetica,sans-Serif" font-size="10.00">&#45; void DrawLife()</text>
<text text-anchor="start" x="98" y="-7.5" font-family="Helvetica,sans-Serif" font-size="10.00">&#45; void DrawMana()</text>
</a>
</g>
</g>
<!-- Node2 -->
<g id="node2" class="node">
<title>Node2</title>
<g id="a_node2"><a xlink:href="../../df/d0e/interfaceIPlayerResourcesDisplaySet.html" target="_top" xlink:title=" ">
<polygon fill="white" stroke="black" points="70,-193.5 70,-261.5 223,-261.5 223,-193.5 70,-193.5"/>
<text text-anchor="middle" x="146.5" y="-249.5" font-family="Helvetica,sans-Serif" font-size="10.00">IPlayerResourcesDisplaySet</text>
<polyline fill="none" stroke="black" points="70,-242.5 223,-242.5 "/>
<text text-anchor="middle" x="146.5" y="-230.5" font-family="Helvetica,sans-Serif" font-size="10.00"> </text>
<polyline fill="none" stroke="black" points="70,-223.5 223,-223.5 "/>
<text text-anchor="start" x="78" y="-211.5" font-family="Helvetica,sans-Serif" font-size="10.00">+ void Draw()</text>
<text text-anchor="start" x="78" y="-200.5" font-family="Helvetica,sans-Serif" font-size="10.00">+ void TryToHover()</text>
</a>
</g>
</g>
<!-- Node2&#45;&gt;Node1 -->
<g id="edge1" class="edge">
<title>Node2&#45;&gt;Node1</title>
<path fill="none" stroke="midnightblue" d="M156.32,-183.39C159.74,-168.4 163.65,-151.22 167.39,-134.79"/>
<polygon fill="none" stroke="midnightblue" points="152.86,-182.85 154.05,-193.38 159.68,-184.41 152.86,-182.85"/>
</g>
<!-- Node3 -->
<g id="node3" class="node">
<title>Node3</title>
<g id="a_node3"><a xlink:href="../../d3/dd7/interfaceIConfigKeyHolder.html" target="_top" xlink:title=" ">
<polygon fill="white" stroke="black" points="0,-299.5 0,-367.5 107,-367.5 107,-299.5 0,-299.5"/>
<text text-anchor="middle" x="53.5" y="-355.5" font-family="Helvetica,sans-Serif" font-size="10.00">IConfigKeyHolder</text>
<polyline fill="none" stroke="black" points="0,-348.5 107,-348.5 "/>
<text text-anchor="start" x="8" y="-336.5" font-family="Helvetica,sans-Serif" font-size="10.00">+ string NameKey</text>
<text text-anchor="start" x="8" y="-325.5" font-family="Helvetica,sans-Serif" font-size="10.00">+ string ConfigKey</text>
<polyline fill="none" stroke="black" points="0,-318.5 107,-318.5 "/>
<text text-anchor="middle" x="53.5" y="-306.5" font-family="Helvetica,sans-Serif" font-size="10.00"> </text>
</a>
</g>
</g>
<!-- Node3&#45;&gt;Node1 -->
<g id="edge3" class="edge">
<title>Node3&#45;&gt;Node1</title>
<path fill="none" stroke="midnightblue" d="M47.96,-289.36C46.12,-260.84 47.25,-223.27 60.5,-193 69.85,-171.65 84.61,-151.89 100.68,-134.68"/>
<polygon fill="none" stroke="midnightblue" points="44.48,-289.74 48.76,-299.43 51.46,-289.18 44.48,-289.74"/>
</g>
<!-- Node3&#45;&gt;Node2 -->
<g id="edge2" class="edge">
<title>Node3&#45;&gt;Node2</title>
<path fill="none" stroke="midnightblue" d="M89.87,-291.82C98.79,-281.86 108.22,-271.31 116.78,-261.73"/>
<polygon fill="none" stroke="midnightblue" points="87.24,-289.52 83.18,-299.31 92.46,-294.19 87.24,-289.52"/>
</g>
<!-- Node4 -->
<g id="node4" class="node">
<title>Node4</title>
<g id="a_node4"><a xlink:title=" ">
<polygon fill="white" stroke="#bfbfbf" points="241.5,-199 241.5,-256 279.5,-256 279.5,-199 241.5,-199"/>
<text text-anchor="middle" x="260.5" y="-244" font-family="Helvetica,sans-Serif" font-size="10.00">float</text>
<polyline fill="none" stroke="#bfbfbf" points="241.5,-237 279.5,-237 "/>
<text text-anchor="middle" x="260.5" y="-225" font-family="Helvetica,sans-Serif" font-size="10.00"> </text>
<polyline fill="none" stroke="#bfbfbf" points="241.5,-218 279.5,-218 "/>
<text text-anchor="middle" x="260.5" y="-206" font-family="Helvetica,sans-Serif" font-size="10.00"> </text>
</a>
</g>
</g>
<!-- Node4&#45;&gt;Node1 -->
<g id="edge4" class="edge">
<title>Node4&#45;&gt;Node1</title>
<path fill="none" stroke="#404040" d="M246.91,-198.98C239.55,-184.05 230.03,-164.79 220.59,-145.66"/>
<polygon fill="none" stroke="#404040" points="220.53,-145.53 214.28,-141.92 215.22,-134.77 221.46,-138.38 220.53,-145.53"/>
<text text-anchor="middle" x="293" y="-161.5" font-family="Helvetica,sans-Serif" font-size="10.00"> &#45;UIDisplay_LifePerHeart</text>
</g>
<!-- Node5 -->
<g id="node5" class="node">
<title>Node5</title>
<g id="a_node5"><a xlink:title=" ">
<polygon fill="white" stroke="#bfbfbf" points="369,-199 369,-256 398,-256 398,-199 369,-199"/>
<text text-anchor="middle" x="383.5" y="-244" font-family="Helvetica,sans-Serif" font-size="10.00">int</text>
<polyline fill="none" stroke="#bfbfbf" points="369,-237 398,-237 "/>
<text text-anchor="middle" x="383.5" y="-225" font-family="Helvetica,sans-Serif" font-size="10.00"> </text>
<polyline fill="none" stroke="#bfbfbf" points="369,-218 398,-218 "/>
<text text-anchor="middle" x="383.5" y="-206" font-family="Helvetica,sans-Serif" font-size="10.00"> </text>
</a>
</g>
</g>
<!-- Node5&#45;&gt;Node1 -->
<g id="edge5" class="edge">
<title>Node5&#45;&gt;Node1</title>
<path fill="none" stroke="#404040" d="M379,-198.72C375.36,-183.71 368.88,-165.7 357.5,-153 338.3,-131.56 312.46,-115.03 286.54,-102.51"/>
<polygon fill="none" stroke="#404040" points="286.34,-102.42 279.21,-103.53 275.44,-97.39 282.57,-96.27 286.34,-102.42"/>
<text text-anchor="middle" x="431.5" y="-167" font-family="Helvetica,sans-Serif" font-size="10.00"> &#45;UIDisplay_ManaPerStar</text>
<text text-anchor="middle" x="431.5" y="-156" font-family="Helvetica,sans-Serif" font-size="10.00">&#45;UI_ScreenAnchorX</text>
</g>
</g>
</svg>
