<?xml version="1.0" encoding="UTF-8" standalone="no"?>
<!DOCTYPE svg PUBLIC "-//W3C//DTD SVG 1.1//EN"
 "http://www.w3.org/Graphics/SVG/1.1/DTD/svg11.dtd">
<!-- Generated by graphviz version 2.43.0 (0)
 -->
<!-- Title: Terraria.ID.NPCHeadID Pages: 1 -->
<svg width="200pt" height="413pt"
 viewBox="0.00 0.00 200.00 413.00" xmlns="http://www.w3.org/2000/svg" xmlns:xlink="http://www.w3.org/1999/xlink">

<svg id="main" version="1.1" xmlns="http://www.w3.org/2000/svg" xmlns:xlink="http://www.w3.org/1999/xlink" xml:space="preserve" onload="init(evt)">
<style type="text/css"><![CDATA[
.node, .edge {opacity: 0.7;}
.node.selected, .edge.selected {opacity: 1;}
.edge:hover path { stroke: red; }
.edge:hover polygon { stroke: red; fill: red; }
]]></style>
<script type="application/ecmascript" xlink:href="../../svg.min.js"/>
<svg id="graph" class="graph">
<g id="graph0" class="graph" transform="scale(1 1) rotate(0) translate(4 409)">
<title>Terraria.ID.NPCHeadID</title>
<!-- Node1 -->
<g id="Node000001" class="node">
<title>Node1</title>
<g id="a_Node000001"><a xlink:title=" ">
<polygon fill="#999999" stroke="transparent" points="138,-199 0,-199 0,0 138,0 138,-199"/>
<text text-anchor="start" x="14" y="-186.5" font-family="Helvetica,sans-Serif" font-size="10.00">Terraria.ID.NPCHeadID</text>
<text text-anchor="start" x="4" y="-171.5" font-family="Helvetica,sans-Serif" font-size="10.00">+</text>
<text text-anchor="start" x="17" y="-171.5" font-family="Helvetica,sans-Serif" font-size="10.00">const int HousingQuery</text>
<text text-anchor="start" x="4" y="-156.5" font-family="Helvetica,sans-Serif" font-size="10.00">+</text>
<text text-anchor="start" x="17" y="-156.5" font-family="Helvetica,sans-Serif" font-size="10.00">const int Guide</text>
<text text-anchor="start" x="4" y="-141.5" font-family="Helvetica,sans-Serif" font-size="10.00">+</text>
<text text-anchor="start" x="17" y="-141.5" font-family="Helvetica,sans-Serif" font-size="10.00">const int Merchant</text>
<text text-anchor="start" x="4" y="-126.5" font-family="Helvetica,sans-Serif" font-size="10.00">+</text>
<text text-anchor="start" x="17" y="-126.5" font-family="Helvetica,sans-Serif" font-size="10.00">const int Nurse</text>
<text text-anchor="start" x="4" y="-111.5" font-family="Helvetica,sans-Serif" font-size="10.00">+</text>
<text text-anchor="start" x="17" y="-111.5" font-family="Helvetica,sans-Serif" font-size="10.00">const int Demolitionist</text>
<text text-anchor="start" x="4" y="-96.5" font-family="Helvetica,sans-Serif" font-size="10.00">+</text>
<text text-anchor="start" x="17" y="-96.5" font-family="Helvetica,sans-Serif" font-size="10.00">const int Dryad</text>
<text text-anchor="start" x="4" y="-81.5" font-family="Helvetica,sans-Serif" font-size="10.00">+</text>
<text text-anchor="start" x="17" y="-81.5" font-family="Helvetica,sans-Serif" font-size="10.00">const int Clothier</text>
<text text-anchor="start" x="4" y="-66.5" font-family="Helvetica,sans-Serif" font-size="10.00">+</text>
<text text-anchor="start" x="17" y="-66.5" font-family="Helvetica,sans-Serif" font-size="10.00">const int Mechanic</text>
<text text-anchor="start" x="4" y="-51.5" font-family="Helvetica,sans-Serif" font-size="10.00">+</text>
<text text-anchor="start" x="17" y="-51.5" font-family="Helvetica,sans-Serif" font-size="10.00">const int GoblinTinkerer</text>
<text text-anchor="start" x="4" y="-36.5" font-family="Helvetica,sans-Serif" font-size="10.00">+</text>
<text text-anchor="start" x="17" y="-36.5" font-family="Helvetica,sans-Serif" font-size="10.00">const int Wizard</text>
<text text-anchor="start" x="17" y="-21.5" font-family="Helvetica,sans-Serif" font-size="10.00">and 62 more...</text>
<text text-anchor="start" x="67" y="-6.5" font-family="Helvetica,sans-Serif" font-size="10.00"> </text>
<polygon fill="#666666" stroke="#666666" points="0,-181.5 0,-181.5 138,-181.5 138,-181.5 0,-181.5"/>
<polygon fill="#666666" stroke="#666666" points="0,-16.5 0,-16.5 15,-16.5 15,-16.5 0,-16.5"/>
<polygon fill="#666666" stroke="#666666" points="15,-16.5 15,-16.5 138,-16.5 138,-16.5 15,-16.5"/>
<polygon fill="none" stroke="#666666" points="0,0 0,-199 138,-199 138,0 0,0"/>
</a>
</g>
</g>
<!-- Node2 -->
<g id="Node000002" class="node">
<title>Node2</title>
<g id="a_Node000002"><a xlink:href="../../d1/da0/classint.html" target="_top" xlink:title=" ">
<polygon fill="white" stroke="transparent" points="80.5,-405 57.5,-405 57.5,-356 80.5,-356 80.5,-405"/>
<text text-anchor="start" x="63" y="-392.5" font-family="Helvetica,sans-Serif" font-size="10.00">int</text>
<text text-anchor="start" x="67.5" y="-377.5" font-family="Helvetica,sans-Serif" font-size="10.00"> </text>
<text text-anchor="start" x="67.5" y="-362.5" font-family="Helvetica,sans-Serif" font-size="10.00"> </text>
<polygon fill="#666666" stroke="#666666" points="58,-387.5 58,-387.5 81,-387.5 81,-387.5 58,-387.5"/>
<polygon fill="#666666" stroke="#666666" points="58,-372.5 58,-372.5 81,-372.5 81,-372.5 58,-372.5"/>
<polygon fill="none" stroke="#666666" points="57.5,-356 57.5,-405 80.5,-405 80.5,-356 57.5,-356"/>
</a>
</g>
</g>
<!-- Node2&#45;&gt;Node1 -->
<g id="edge1_Node000001_Node000002" class="edge">
<title>Node2&#45;&gt;Node1</title>
<g id="a_edge1_Node000001_Node000002"><a xlink:title=" ">
<path fill="none" stroke="#63b8ff" d="M69,-355.71C69,-323.74 69,-264.77 69,-211.56"/>
<polygon fill="none" stroke="#63b8ff" points="69,-211.25 65,-205.25 69,-199.25 73,-205.25 69,-211.25"/>
</a>
</g>
<text text-anchor="middle" x="130.5" y="-330" font-family="Helvetica,sans-Serif" font-size="10.00" fill="grey"> +Angler</text>
<text text-anchor="middle" x="130.5" y="-319" font-family="Helvetica,sans-Serif" font-size="10.00" fill="grey">+AnglerShimmered</text>
<text text-anchor="middle" x="130.5" y="-308" font-family="Helvetica,sans-Serif" font-size="10.00" fill="grey">+ArmsDealer</text>
<text text-anchor="middle" x="130.5" y="-297" font-family="Helvetica,sans-Serif" font-size="10.00" fill="grey">+ArmsDealerShimmered</text>
<text text-anchor="middle" x="130.5" y="-286" font-family="Helvetica,sans-Serif" font-size="10.00" fill="grey">+BestiaryGirl</text>
<text text-anchor="middle" x="130.5" y="-275" font-family="Helvetica,sans-Serif" font-size="10.00" fill="grey">+BestiaryGirlShimmered</text>
<text text-anchor="middle" x="130.5" y="-264" font-family="Helvetica,sans-Serif" font-size="10.00" fill="grey">+BunnyAngora</text>
<text text-anchor="middle" x="130.5" y="-253" font-family="Helvetica,sans-Serif" font-size="10.00" fill="grey">+BunnyDutch</text>
<text text-anchor="middle" x="130.5" y="-242" font-family="Helvetica,sans-Serif" font-size="10.00" fill="grey">+BunnyFlemish</text>
<text text-anchor="middle" x="130.5" y="-231" font-family="Helvetica,sans-Serif" font-size="10.00" fill="grey">+BunnyLop</text>
<text text-anchor="middle" x="130.5" y="-220" font-family="Helvetica,sans-Serif" font-size="10.00" fill="grey">...</text>
</g>
</g>
</svg>
</svg>

<style type='text/css'>
<![CDATA[
[data-mouse-over-selected='false'] { opacity: 0.7; }
[data-mouse-over-selected='true']  { opacity: 1.0; }
]]>
</style>
<script type="application/ecmascript"><![CDATA[
document.addEventListener('DOMContentLoaded', (event) => {
  highlightEdges();
  highlightAdjacentNodes();
});
]]></script>
</svg>
