<?xml version="1.0" encoding="UTF-8" standalone="no"?>
<!DOCTYPE svg PUBLIC "-//W3C//DTD SVG 1.1//EN"
 "http://www.w3.org/Graphics/SVG/1.1/DTD/svg11.dtd">
<!-- Generated by graphviz version 2.43.0 (0)
 -->
<!-- Title: AmbientSky.SeagullsGroupSkyEntity.Draw Pages: 1 -->
<!--zoomable 88 -->
<svg id="main" version="1.1" xmlns="http://www.w3.org/2000/svg" xmlns:xlink="http://www.w3.org/1999/xlink" xml:space="preserve" onload="init(evt)">
<style type="text/css"><![CDATA[
.edge:hover path { stroke: red; }
.edge:hover polygon { stroke: red; fill: red; }
]]></style>
<script type="text/javascript"><![CDATA[
var edges = document.getElementsByTagName('g');
if (edges && edges.length) {
  for (var i=0;i<edges.length;i++) {
    if (edges[i].id.substr(0,4)=='edge') {
      edges[i].setAttribute('class','edge');
    }
  }
}
]]></script>
        <defs>
                <circle id="rim" cx="0" cy="0" r="7"/>
                <circle id="rim2" cx="0" cy="0" r="3.5"/>
                <g id="zoomPlus">
                        <use xlink:href="#rim" fill="#404040">
                                <set attributeName="fill" to="#808080" begin="zoomplus.mouseover" end="zoomplus.mouseout"/>
                        </use>
                        <path d="M-4,0h8M0,-4v8" fill="none" stroke="white" stroke-width="1.5" pointer-events="none"/>
                </g>
                <g id="zoomMin">
                        <use xlink:href="#rim" fill="#404040">
                                <set attributeName="fill" to="#808080" begin="zoomminus.mouseover" end="zoomminus.mouseout"/>
                        </use>
                        <path d="M-4,0h8" fill="none" stroke="white" stroke-width="1.5" pointer-events="none"/>
                </g>
                <g id="dirArrow">
                        <path fill="none" stroke="white" stroke-width="1.5" d="M0,-3.0v7 M-2.5,-0.5L0,-3.0L2.5,-0.5"/>
                </g>
               <g id="resetDef">
                       <use xlink:href="#rim2" fill="#404040">
                               <set attributeName="fill" to="#808080" begin="reset.mouseover" end="reset.mouseout"/>
                       </use>
               </g>
        </defs>

<script type="text/javascript">
var viewWidth = 739;
var viewHeight = 88;
var sectionId = 'dynsection-0';
</script>
<script xlink:href="../../svgpan.js"/>
<svg id="graph" class="graph">
<g id="viewport">
<title>AmbientSky.SeagullsGroupSkyEntity.Draw</title>
<polygon fill="white" stroke="transparent" points="-4,4 -4,-84 735,-84 735,4 -4,4"/>
<!-- Node1 -->
<g id="node1" class="node">
<title>Node1</title>
<g id="a_node1"><a xlink:title=" ">
<polygon fill="#bfbfbf" stroke="black" points="0,-24.5 0,-54.5 147,-54.5 147,-24.5 0,-24.5"/>
<text text-anchor="start" x="8" y="-42.5" font-family="Helvetica,sans-Serif" font-size="10.00">AmbientSky.SeagullsGroup</text>
<text text-anchor="middle" x="73.5" y="-31.5" font-family="Helvetica,sans-Serif" font-size="10.00">SkyEntity.Draw</text>
</a>
</g>
</g>
<!-- Node2 -->
<g id="node2" class="node">
<title>Node2</title>
<g id="a_node2"><a xlink:href="../../d3/d6c/classAmbientSky_1_1SkyEntity_a758ada0b50915ccd21b4f17edb4d9253.html#a758ada0b50915ccd21b4f17edb4d9253" target="_top" xlink:title=" ">
<polygon fill="white" stroke="black" points="183,-30 183,-49 377,-49 377,-30 183,-30"/>
<text text-anchor="middle" x="280" y="-37" font-family="Helvetica,sans-Serif" font-size="10.00">AmbientSky.SkyEntity.CommonDraw</text>
</a>
</g>
</g>
<!-- Node1&#45;&gt;Node2 -->
<g id="edge1" class="edge">
<title>Node1&#45;&gt;Node2</title>
<path fill="none" stroke="midnightblue" d="M147.17,-39.5C155.51,-39.5 164.13,-39.5 172.79,-39.5"/>
<polygon fill="midnightblue" stroke="midnightblue" points="172.96,-43 182.96,-39.5 172.96,-36 172.96,-43"/>
</g>
<!-- Node3 -->
<g id="node3" class="node">
<title>Node3</title>
<g id="a_node3"><a xlink:href="../../d3/d6c/classAmbientSky_1_1SkyEntity_a43ba6ba265fbfebc4fee1daa153d68e7.html#a43ba6ba265fbfebc4fee1daa153d68e7" target="_top" xlink:title=" ">
<polygon fill="white" stroke="black" points="413,-49.5 413,-79.5 554,-79.5 554,-49.5 413,-49.5"/>
<text text-anchor="start" x="421" y="-67.5" font-family="Helvetica,sans-Serif" font-size="10.00">AmbientSky.SkyEntity.Get</text>
<text text-anchor="middle" x="483.5" y="-56.5" font-family="Helvetica,sans-Serif" font-size="10.00">Color</text>
</a>
</g>
</g>
<!-- Node2&#45;&gt;Node3 -->
<g id="edge2" class="edge">
<title>Node2&#45;&gt;Node3</title>
<path fill="none" stroke="midnightblue" d="M357.75,-49.02C372.48,-50.85 387.94,-52.77 402.76,-54.61"/>
<polygon fill="midnightblue" stroke="midnightblue" points="402.55,-58.11 412.9,-55.87 403.41,-51.16 402.55,-58.11"/>
</g>
<!-- Node4 -->
<g id="node4" class="node">
<title>Node4</title>
<g id="a_node4"><a xlink:href="../../d3/d6c/classAmbientSky_1_1SkyEntity_ae3a1e0c16cdd03f750cd0b767cad91c5.html#ae3a1e0c16cdd03f750cd0b767cad91c5" target="_top" xlink:title=" ">
<polygon fill="white" stroke="black" points="413,-0.5 413,-30.5 554,-30.5 554,-0.5 413,-0.5"/>
<text text-anchor="start" x="421" y="-18.5" font-family="Helvetica,sans-Serif" font-size="10.00">AmbientSky.SkyEntity.Get</text>
<text text-anchor="middle" x="483.5" y="-7.5" font-family="Helvetica,sans-Serif" font-size="10.00">DrawPositionByDepth</text>
</a>
</g>
</g>
<!-- Node2&#45;&gt;Node4 -->
<g id="edge3" class="edge">
<title>Node2&#45;&gt;Node4</title>
<path fill="none" stroke="midnightblue" d="M360.93,-29.98C374.59,-28.35 388.78,-26.66 402.44,-25.04"/>
<polygon fill="midnightblue" stroke="midnightblue" points="403.25,-28.46 412.77,-23.81 402.43,-21.51 403.25,-28.46"/>
</g>
<!-- Node5 -->
<g id="node5" class="node">
<title>Node5</title>
<g id="a_node5"><a xlink:href="../../d3/d6c/classAmbientSky_1_1SkyEntity_ad6751f43ef78e0345613d69c6287d0b4.html#ad6751f43ef78e0345613d69c6287d0b4" target="_top" xlink:title=" ">
<polygon fill="white" stroke="black" points="590,-0.5 590,-30.5 731,-30.5 731,-0.5 590,-0.5"/>
<text text-anchor="start" x="598" y="-18.5" font-family="Helvetica,sans-Serif" font-size="10.00">AmbientSky.SkyEntity.Get</text>
<text text-anchor="middle" x="660.5" y="-7.5" font-family="Helvetica,sans-Serif" font-size="10.00">DrawPosition</text>
</a>
</g>
</g>
<!-- Node4&#45;&gt;Node5 -->
<g id="edge4" class="edge">
<title>Node4&#45;&gt;Node5</title>
<path fill="none" stroke="midnightblue" d="M554.17,-15.5C562.5,-15.5 571.06,-15.5 579.53,-15.5"/>
<polygon fill="midnightblue" stroke="midnightblue" points="579.79,-19 589.79,-15.5 579.79,-12 579.79,-19"/>
</g>
</g>
</svg>
        <g id="navigator" transform="translate(0 0)" fill="#404254">
                <rect fill="#f2f5e9" fill-opacity="0.5" stroke="#606060" stroke-width=".5" x="0" y="0" width="60" height="60"/>
                <use id="zoomplus" xlink:href="#zoomPlus" x="17" y="9" onmousedown="handleZoom(evt,'in')"/>
                <use id="zoomminus" xlink:href="#zoomMin" x="42" y="9" onmousedown="handleZoom(evt,'out')"/>
                <use id="reset" xlink:href="#resetDef" x="30" y="36" onmousedown="handleReset()"/>
                <g id="arrowUp" xlink:href="#dirArrow" transform="translate(30 24)" onmousedown="handlePan(0,-1)">
                  <use xlink:href="#rim" fill="#404040">
                        <set attributeName="fill" to="#808080" begin="arrowUp.mouseover" end="arrowUp.mouseout"/>
                  </use>
                  <path fill="none" stroke="white" stroke-width="1.5" d="M0,-3.0v7 M-2.5,-0.5L0,-3.0L2.5,-0.5"/>
                </g>
                <g id="arrowRight" xlink:href="#dirArrow" transform="rotate(90) translate(36 -43)" onmousedown="handlePan(1,0)">
                  <use xlink:href="#rim" fill="#404040">
                        <set attributeName="fill" to="#808080" begin="arrowRight.mouseover" end="arrowRight.mouseout"/>
                  </use>
                  <path fill="none" stroke="white" stroke-width="1.5" d="M0,-3.0v7 M-2.5,-0.5L0,-3.0L2.5,-0.5"/>
                </g>
                <g id="arrowDown" xlink:href="#dirArrow" transform="rotate(180) translate(-30 -48)" onmousedown="handlePan(0,1)">
                  <use xlink:href="#rim" fill="#404040">
                        <set attributeName="fill" to="#808080" begin="arrowDown.mouseover" end="arrowDown.mouseout"/>
                  </use>
                  <path fill="none" stroke="white" stroke-width="1.5" d="M0,-3.0v7 M-2.5,-0.5L0,-3.0L2.5,-0.5"/>
                </g>
                <g id="arrowLeft" xlink:href="#dirArrow" transform="rotate(270) translate(-36 17)" onmousedown="handlePan(-1,0)">
                  <use xlink:href="#rim" fill="#404040">
                        <set attributeName="fill" to="#808080" begin="arrowLeft.mouseover" end="arrowLeft.mouseout"/>
                  </use>
                  <path fill="none" stroke="white" stroke-width="1.5" d="M0,-3.0v7 M-2.5,-0.5L0,-3.0L2.5,-0.5"/>
                </g>
        </g>
        <svg viewBox="0 0 15 15" width="100%" height="30px" preserveAspectRatio="xMaxYMin meet">
         <g id="arrow_out" transform="scale(0.3 0.3)">
          <a xlink:href="classAmbientSky_1_1SeagullsGroupSkyEntity_a9a6fcccca5afd3d8436a814235e1861b_a9a6fcccca5afd3d8436a814235e1861b_cgraph_org.svg" target="_base">
           <rect id="button" ry="5" rx="5" y="6" x="6" height="38" width="38"
                fill="#f2f5e9" fill-opacity="0.5" stroke="#606060" stroke-width="1.0"/>
           <path id="arrow"
             d="M 11.500037,31.436501 C 11.940474,20.09759 22.043105,11.32322 32.158766,21.979434 L 37.068811,17.246167 C 37.068811,17.246167 37.088388,32 37.088388,32 L 22.160133,31.978069 C 22.160133,31.978069 26.997745,27.140456 26.997745,27.140456 C 18.528582,18.264221 13.291696,25.230495 11.500037,31.436501 z"
             style="fill:#404040;"/>
          </a>
         </g>
        </svg>
</svg>
