<?xml version="1.0" encoding="UTF-8" standalone="no"?>
<!DOCTYPE svg PUBLIC "-//W3C//DTD SVG 1.1//EN"
 "http://www.w3.org/Graphics/SVG/1.1/DTD/svg11.dtd">
<!-- Generated by graphviz version 2.43.0 (0)
 -->
<!-- Title: Terraria.GameContent.NetModules.NetCreativeUnlocksPlayerReportModule Pages: 1 -->
<svg width="198pt" height="260pt"
 viewBox="0.00 0.00 198.00 260.00" xmlns="http://www.w3.org/2000/svg" xmlns:xlink="http://www.w3.org/1999/xlink">
<g id="graph0" class="graph" transform="scale(1 1) rotate(0) translate(4 256)">
<title>Terraria.GameContent.NetModules.NetCreativeUnlocksPlayerReportModule</title>
<!-- Node1 -->
<g id="Node000001" class="node">
<title>Node1</title>
<g id="a_Node000001"><a xlink:title=" ">
<polygon fill="#999999" stroke="transparent" points="190,-130 0,-130 0,0 190,0 190,-130"/>
<text text-anchor="start" x="8.5" y="-118" font-family="Helvetica,sans-Serif" font-size="10.00">Terraria.GameContent.Net</text>
<text text-anchor="start" x="8.5" y="-107" font-family="Helvetica,sans-Serif" font-size="10.00">Modules.NetCreativeUnlocksPlayer</text>
<text text-anchor="start" x="60.5" y="-96" font-family="Helvetica,sans-Serif" font-size="10.00">ReportModule</text>
<text text-anchor="start" x="6.5" y="-81" font-family="Helvetica,sans-Serif" font-size="10.00">&#45;</text>
<text text-anchor="start" x="17" y="-81" font-family="Helvetica,sans-Serif" font-size="10.00">const byte _requestItemSacrificeId</text>
<text text-anchor="start" x="4" y="-66" font-family="Helvetica,sans-Serif" font-size="10.00">+</text>
<text text-anchor="start" x="17" y="-66" font-family="Helvetica,sans-Serif" font-size="10.00">override bool Deserialize</text>
<text text-anchor="start" x="17" y="-55" font-family="Helvetica,sans-Serif" font-size="10.00">(BinaryReader reader, int</text>
<text text-anchor="start" x="17" y="-44" font-family="Helvetica,sans-Serif" font-size="10.00"> userId)</text>
<text text-anchor="start" x="4" y="-29" font-family="Helvetica,sans-Serif" font-size="10.00">+</text>
<text text-anchor="start" x="17" y="-29" font-family="Helvetica,sans-Serif" font-size="10.00">static NetPacket Serialize</text>
<text text-anchor="start" x="17" y="-18" font-family="Helvetica,sans-Serif" font-size="10.00">SacrificeRequest(int itemId,</text>
<text text-anchor="start" x="17" y="-7" font-family="Helvetica,sans-Serif" font-size="10.00"> int amount)</text>
<polygon fill="#666666" stroke="#666666" points="0,-91 0,-91 190,-91 190,-91 0,-91"/>
<polygon fill="#666666" stroke="#666666" points="0,-76 0,-76 15,-76 15,-76 0,-76"/>
<polygon fill="#666666" stroke="#666666" points="15,-76 15,-76 190,-76 190,-76 15,-76"/>
<polygon fill="none" stroke="#666666" points="0,0 0,-130 190,-130 190,0 0,0"/>
</a>
</g>
</g>
<!-- Node2 -->
<g id="Node000002" class="node">
<title>Node2</title>
<g id="a_Node000002"><a xlink:href="../../d6/da4/classTerraria_1_1Net_1_1NetModule.html" target="_top" xlink:title=" ">
<polygon fill="white" stroke="transparent" points="180,-252 10,-252 10,-166 180,-166 180,-252"/>
<text text-anchor="start" x="68" y="-240" font-family="Helvetica,sans-Serif" font-size="10.00">NetModule</text>
<text text-anchor="start" x="93" y="-225" font-family="Helvetica,sans-Serif" font-size="10.00"> </text>
<text text-anchor="start" x="14" y="-210" font-family="Helvetica,sans-Serif" font-size="10.00">+</text>
<text text-anchor="start" x="27" y="-210" font-family="Helvetica,sans-Serif" font-size="10.00">bool Deserialize(BinaryReader</text>
<text text-anchor="start" x="27" y="-199" font-family="Helvetica,sans-Serif" font-size="10.00"> reader, int userId)</text>
<text text-anchor="start" x="14" y="-184" font-family="Helvetica,sans-Serif" font-size="10.00">#</text>
<text text-anchor="start" x="27" y="-184" font-family="Helvetica,sans-Serif" font-size="10.00">static NetPacket CreatePacket</text>
<text text-anchor="start" x="27" y="-173" font-family="Helvetica,sans-Serif" font-size="10.00">&lt; T &gt;(int maxSize)</text>
<polygon fill="#666666" stroke="#666666" points="10,-235 10,-235 180,-235 180,-235 10,-235"/>
<polygon fill="#666666" stroke="#666666" points="10,-220 10,-220 180,-220 180,-220 10,-220"/>
<polygon fill="none" stroke="#666666" points="10,-166 10,-252 180,-252 180,-166 10,-166"/>
</a>
</g>
</g>
<!-- Node2&#45;&gt;Node1 -->
<g id="edge1_Node000001_Node000002" class="edge">
<title>Node2&#45;&gt;Node1</title>
<g id="a_edge1_Node000001_Node000002"><a xlink:title=" ">
<path fill="none" stroke="#63b8ff" d="M95,-155.54C95,-147.27 95,-138.64 95,-130.15"/>
<polygon fill="none" stroke="#63b8ff" points="91.5,-155.78 95,-165.78 98.5,-155.78 91.5,-155.78"/>
</a>
</g>
</g>
</g>
</svg>
