<?xml version="1.0" encoding="UTF-8" standalone="no"?>
<!DOCTYPE svg PUBLIC "-//W3C//DTD SVG 1.1//EN"
 "http://www.w3.org/Graphics/SVG/1.1/DTD/svg11.dtd">
<!-- Generated by graphviz version 2.43.0 (0)
 -->
<!-- Title: PlayerInput.ListenFor Pages: 1 -->
<!--zoomable 137 -->
<svg id="main" version="1.1" xmlns="http://www.w3.org/2000/svg" xmlns:xlink="http://www.w3.org/1999/xlink" xml:space="preserve" onload="init(evt)">
<style type="text/css"><![CDATA[
.edge:hover path { stroke: red; }
.edge:hover polygon { stroke: red; fill: red; }
]]></style>
<script type="text/javascript"><![CDATA[
var edges = document.getElementsByTagName('g');
if (edges && edges.length) {
  for (var i=0;i<edges.length;i++) {
    if (edges[i].id.substr(0,4)=='edge') {
      edges[i].setAttribute('class','edge');
    }
  }
}
]]></script>
        <defs>
                <circle id="rim" cx="0" cy="0" r="7"/>
                <circle id="rim2" cx="0" cy="0" r="3.5"/>
                <g id="zoomPlus">
                        <use xlink:href="#rim" fill="#404040">
                                <set attributeName="fill" to="#808080" begin="zoomplus.mouseover" end="zoomplus.mouseout"/>
                        </use>
                        <path d="M-4,0h8M0,-4v8" fill="none" stroke="white" stroke-width="1.5" pointer-events="none"/>
                </g>
                <g id="zoomMin">
                        <use xlink:href="#rim" fill="#404040">
                                <set attributeName="fill" to="#808080" begin="zoomminus.mouseover" end="zoomminus.mouseout"/>
                        </use>
                        <path d="M-4,0h8" fill="none" stroke="white" stroke-width="1.5" pointer-events="none"/>
                </g>
                <g id="dirArrow">
                        <path fill="none" stroke="white" stroke-width="1.5" d="M0,-3.0v7 M-2.5,-0.5L0,-3.0L2.5,-0.5"/>
                </g>
               <g id="resetDef">
                       <use xlink:href="#rim2" fill="#404040">
                               <set attributeName="fill" to="#808080" begin="reset.mouseover" end="reset.mouseout"/>
                       </use>
               </g>
        </defs>

<script type="text/javascript">
var viewWidth = 1740;
var viewHeight = 137;
var sectionId = 'dynsection-0';
</script>
<script xlink:href="../../svgpan.js"/>
<svg id="graph" class="graph">
<g id="viewport">
<title>PlayerInput.ListenFor</title>
<polygon fill="white" stroke="transparent" points="-4,4 -4,-133 1736,-133 1736,4 -4,4"/>
<!-- Node1 -->
<g id="node1" class="node">
<title>Node1</title>
<g id="a_node1"><a xlink:title=" ">
<polygon fill="#bfbfbf" stroke="black" points="1613,-55 1613,-74 1732,-74 1732,-55 1613,-55"/>
<text text-anchor="middle" x="1672.5" y="-62" font-family="Helvetica,sans-Serif" font-size="10.00">PlayerInput.ListenFor</text>
</a>
</g>
</g>
<!-- Node2 -->
<g id="node2" class="node">
<title>Node2</title>
<g id="a_node2"><a xlink:href="../../d9/df4/classPlayerInput_ab25192ac6f5bf47de387e78b5926451f.html#ab25192ac6f5bf47de387e78b5926451f" target="_top" xlink:title=" ">
<polygon fill="white" stroke="black" points="1419.5,-98.5 1419.5,-128.5 1573.5,-128.5 1573.5,-98.5 1419.5,-98.5"/>
<text text-anchor="start" x="1427.5" y="-116.5" font-family="Helvetica,sans-Serif" font-size="10.00">PlayerInput.CheckRebinding</text>
<text text-anchor="middle" x="1496.5" y="-105.5" font-family="Helvetica,sans-Serif" font-size="10.00">ProcessGamepad</text>
</a>
</g>
</g>
<!-- Node1&#45;&gt;Node2 -->
<g id="edge1" class="edge">
<title>Node1&#45;&gt;Node2</title>
<path fill="none" stroke="midnightblue" d="M1627.9,-76.78C1604.55,-83.35 1575.59,-91.51 1550.9,-98.46"/>
<polygon fill="midnightblue" stroke="midnightblue" points="1628.86,-80.14 1637.54,-74.06 1626.96,-73.41 1628.86,-80.14"/>
</g>
<!-- Node12 -->
<g id="node12" class="node">
<title>Node12</title>
<g id="a_node12"><a xlink:href="../../d9/df4/classPlayerInput_af6939ac19c0096449ceac6a30c823948.html#af6939ac19c0096449ceac6a30c823948" target="_top" xlink:title=" ">
<polygon fill="white" stroke="black" points="1419.5,-49.5 1419.5,-79.5 1573.5,-79.5 1573.5,-49.5 1419.5,-49.5"/>
<text text-anchor="start" x="1427.5" y="-67.5" font-family="Helvetica,sans-Serif" font-size="10.00">PlayerInput.CheckRebinding</text>
<text text-anchor="middle" x="1496.5" y="-56.5" font-family="Helvetica,sans-Serif" font-size="10.00">ProcessKeyboard</text>
</a>
</g>
</g>
<!-- Node1&#45;&gt;Node12 -->
<g id="edge11" class="edge">
<title>Node1&#45;&gt;Node12</title>
<path fill="none" stroke="midnightblue" d="M1602.45,-64.5C1592.98,-64.5 1583.21,-64.5 1573.62,-64.5"/>
<polygon fill="midnightblue" stroke="midnightblue" points="1602.59,-68 1612.59,-64.5 1602.59,-61 1602.59,-68"/>
</g>
<!-- Node14 -->
<g id="node14" class="node">
<title>Node14</title>
<g id="a_node14"><a xlink:href="../../db/ded/classUIKeybindingListItem_a1cd46987b741fe3fa612a172f0227d57.html#a1cd46987b741fe3fa612a172f0227d57" target="_top" xlink:title=" ">
<polygon fill="white" stroke="black" points="1416,-0.5 1416,-30.5 1577,-30.5 1577,-0.5 1416,-0.5"/>
<text text-anchor="start" x="1424" y="-18.5" font-family="Helvetica,sans-Serif" font-size="10.00">UIKeybindingListItem.OnClick</text>
<text text-anchor="middle" x="1496.5" y="-7.5" font-family="Helvetica,sans-Serif" font-size="10.00">Method</text>
</a>
</g>
</g>
<!-- Node1&#45;&gt;Node14 -->
<g id="edge14" class="edge">
<title>Node1&#45;&gt;Node14</title>
<path fill="none" stroke="midnightblue" d="M1627.9,-52.22C1604.55,-45.65 1575.59,-37.49 1550.9,-30.54"/>
<polygon fill="midnightblue" stroke="midnightblue" points="1626.96,-55.59 1637.54,-54.94 1628.86,-48.86 1626.96,-55.59"/>
</g>
<!-- Node3 -->
<g id="node3" class="node">
<title>Node3</title>
<g id="a_node3"><a xlink:href="../../d9/df4/classPlayerInput_af78f60ceb1093d95c72f4938a061509e.html#af78f60ceb1093d95c72f4938a061509e" target="_top" xlink:title=" ">
<polygon fill="white" stroke="black" points="1213,-101 1213,-120 1359,-120 1359,-101 1213,-101"/>
<text text-anchor="middle" x="1286" y="-108" font-family="Helvetica,sans-Serif" font-size="10.00">PlayerInput.GamePadInput</text>
</a>
</g>
</g>
<!-- Node2&#45;&gt;Node3 -->
<g id="edge2" class="edge">
<title>Node2&#45;&gt;Node3</title>
<path fill="none" stroke="midnightblue" d="M1409.09,-112.26C1392.48,-112.02 1375.24,-111.77 1359.13,-111.54"/>
<polygon fill="midnightblue" stroke="midnightblue" points="1409.29,-115.76 1419.34,-112.4 1409.39,-108.76 1409.29,-115.76"/>
</g>
<!-- Node4 -->
<g id="node4" class="node">
<title>Node4</title>
<g id="a_node4"><a xlink:href="../../d9/df4/classPlayerInput_a2e906c7cbe11da7ee0363655cc285a01.html#a2e906c7cbe11da7ee0363655cc285a01" target="_top" xlink:title=" ">
<polygon fill="white" stroke="black" points="1021,-79 1021,-98 1156,-98 1156,-79 1021,-79"/>
<text text-anchor="middle" x="1088.5" y="-86" font-family="Helvetica,sans-Serif" font-size="10.00">PlayerInput.UpdateInput</text>
</a>
</g>
</g>
<!-- Node3&#45;&gt;Node4 -->
<g id="edge3" class="edge">
<title>Node3&#45;&gt;Node4</title>
<path fill="none" stroke="midnightblue" d="M1202.68,-101.24C1187.2,-99.49 1171.2,-97.69 1156.27,-96.01"/>
<polygon fill="midnightblue" stroke="midnightblue" points="1202.43,-104.73 1212.76,-102.37 1203.21,-97.77 1202.43,-104.73"/>
</g>
<!-- Node5 -->
<g id="node5" class="node">
<title>Node5</title>
<g id="a_node5"><a xlink:href="../../db/d4a/classMain_afaa6da52fcff1e595d6c29b115a2536d.html#afaa6da52fcff1e595d6c29b115a2536d" target="_top" xlink:title=" ">
<polygon fill="white" stroke="black" points="828,-79 828,-98 985,-98 985,-79 828,-79"/>
<text text-anchor="middle" x="906.5" y="-86" font-family="Helvetica,sans-Serif" font-size="10.00">Main.DoUpdate_HandleInput</text>
</a>
</g>
</g>
<!-- Node4&#45;&gt;Node5 -->
<g id="edge4" class="edge">
<title>Node4&#45;&gt;Node5</title>
<path fill="none" stroke="midnightblue" d="M1010.79,-88.5C1002.35,-88.5 993.75,-88.5 985.3,-88.5"/>
<polygon fill="midnightblue" stroke="midnightblue" points="1010.99,-92 1020.99,-88.5 1010.99,-85 1010.99,-92"/>
</g>
<!-- Node6 -->
<g id="node6" class="node">
<title>Node6</title>
<g id="a_node6"><a xlink:href="../../db/d4a/classMain_a04b0697fe556a643c9811ab59495dacd.html#a04b0697fe556a643c9811ab59495dacd" target="_top" xlink:title=" ">
<polygon fill="white" stroke="black" points="700,-79 700,-98 792,-98 792,-79 700,-79"/>
<text text-anchor="middle" x="746" y="-86" font-family="Helvetica,sans-Serif" font-size="10.00">Main.DoUpdate</text>
</a>
</g>
</g>
<!-- Node5&#45;&gt;Node6 -->
<g id="edge5" class="edge">
<title>Node5&#45;&gt;Node6</title>
<path fill="none" stroke="midnightblue" d="M817.64,-88.5C808.81,-88.5 800.13,-88.5 792.03,-88.5"/>
<polygon fill="midnightblue" stroke="midnightblue" points="817.64,-92 827.64,-88.5 817.64,-85 817.64,-92"/>
</g>
<!-- Node7 -->
<g id="node7" class="node">
<title>Node7</title>
<g id="a_node7"><a xlink:href="../../db/d4a/classMain_ae1995a6cd30001bd0b4eb2ade469d462.html#ae1995a6cd30001bd0b4eb2ade469d462" target="_top" xlink:title=" ">
<polygon fill="white" stroke="black" points="585,-79 585,-98 664,-98 664,-79 585,-79"/>
<text text-anchor="middle" x="624.5" y="-86" font-family="Helvetica,sans-Serif" font-size="10.00">Main.Update</text>
</a>
</g>
</g>
<!-- Node6&#45;&gt;Node7 -->
<g id="edge6" class="edge">
<title>Node6&#45;&gt;Node7</title>
<path fill="none" stroke="midnightblue" d="M689.75,-88.5C681.08,-88.5 672.29,-88.5 664.1,-88.5"/>
<polygon fill="midnightblue" stroke="midnightblue" points="689.82,-92 699.82,-88.5 689.82,-85 689.82,-92"/>
</g>
<!-- Node8 -->
<g id="node8" class="node">
<title>Node8</title>
<g id="a_node8"><a xlink:href="../../db/d4a/classMain_aa0692b82ef0f39d28df7aae89daa2480.html#aa0692b82ef0f39d28df7aae89daa2480" target="_top" xlink:title=" ">
<polygon fill="white" stroke="black" points="464,-79 464,-98 549,-98 549,-79 464,-79"/>
<text text-anchor="middle" x="506.5" y="-86" font-family="Helvetica,sans-Serif" font-size="10.00">Main.DedServ</text>
</a>
</g>
</g>
<!-- Node7&#45;&gt;Node8 -->
<g id="edge7" class="edge">
<title>Node7&#45;&gt;Node8</title>
<path fill="none" stroke="midnightblue" d="M574.69,-88.5C566.2,-88.5 557.43,-88.5 549.15,-88.5"/>
<polygon fill="midnightblue" stroke="midnightblue" points="574.87,-92 584.87,-88.5 574.87,-85 574.87,-92"/>
</g>
<!-- Node9 -->
<g id="node9" class="node">
<title>Node9</title>
<g id="a_node9"><a xlink:href="../../dc/db5/classProgram_a7046fff16d913c8ea7291c3efa4cb4ed.html#a7046fff16d913c8ea7291c3efa4cb4ed" target="_top" xlink:title=" ">
<polygon fill="white" stroke="black" points="319,-79 319,-98 428,-98 428,-79 319,-79"/>
<text text-anchor="middle" x="373.5" y="-86" font-family="Helvetica,sans-Serif" font-size="10.00">Program.RunGame</text>
</a>
</g>
</g>
<!-- Node8&#45;&gt;Node9 -->
<g id="edge8" class="edge">
<title>Node8&#45;&gt;Node9</title>
<path fill="none" stroke="midnightblue" d="M453.44,-88.5C445.2,-88.5 436.65,-88.5 428.37,-88.5"/>
<polygon fill="midnightblue" stroke="midnightblue" points="453.69,-92 463.69,-88.5 453.69,-85 453.69,-92"/>
</g>
<!-- Node10 -->
<g id="node10" class="node">
<title>Node10</title>
<g id="a_node10"><a xlink:href="../../dc/db5/classProgram_ac64eaca42975d2a403f25794697886fc.html#ac64eaca42975d2a403f25794697886fc" target="_top" xlink:title=" ">
<polygon fill="white" stroke="black" points="158,-79 158,-98 283,-98 283,-79 158,-79"/>
<text text-anchor="middle" x="220.5" y="-86" font-family="Helvetica,sans-Serif" font-size="10.00">Program.LaunchGame</text>
</a>
</g>
</g>
<!-- Node9&#45;&gt;Node10 -->
<g id="edge9" class="edge">
<title>Node9&#45;&gt;Node10</title>
<path fill="none" stroke="midnightblue" d="M308.68,-88.5C300.25,-88.5 291.62,-88.5 283.23,-88.5"/>
<polygon fill="midnightblue" stroke="midnightblue" points="308.84,-92 318.84,-88.5 308.84,-85 308.84,-92"/>
</g>
<!-- Node11 -->
<g id="node11" class="node">
<title>Node11</title>
<g id="a_node11"><a xlink:href="../../df/d9e/classWindowsLaunch_a48fb8633919b7d48cc10a62bd116902a.html#a48fb8633919b7d48cc10a62bd116902a" target="_top" xlink:title=" ">
<polygon fill="white" stroke="black" points="0,-79 0,-98 122,-98 122,-79 0,-79"/>
<text text-anchor="middle" x="61" y="-86" font-family="Helvetica,sans-Serif" font-size="10.00">WindowsLaunch.Main</text>
</a>
</g>
</g>
<!-- Node10&#45;&gt;Node11 -->
<g id="edge10" class="edge">
<title>Node10&#45;&gt;Node11</title>
<path fill="none" stroke="midnightblue" d="M147.43,-88.5C138.95,-88.5 130.36,-88.5 122.07,-88.5"/>
<polygon fill="midnightblue" stroke="midnightblue" points="147.7,-92 157.7,-88.5 147.7,-85 147.7,-92"/>
</g>
<!-- Node13 -->
<g id="node13" class="node">
<title>Node13</title>
<g id="a_node13"><a xlink:href="../../d9/df4/classPlayerInput_afcfa6acd30bd76755419093d523bec01.html#afcfa6acd30bd76755419093d523bec01" target="_top" xlink:title=" ">
<polygon fill="white" stroke="black" points="1213,-58 1213,-77 1359,-77 1359,-58 1213,-58"/>
<text text-anchor="middle" x="1286" y="-65" font-family="Helvetica,sans-Serif" font-size="10.00">PlayerInput.KeyboardInput</text>
</a>
</g>
</g>
<!-- Node12&#45;&gt;Node13 -->
<g id="edge12" class="edge">
<title>Node12&#45;&gt;Node13</title>
<path fill="none" stroke="midnightblue" d="M1409.09,-65.74C1392.48,-65.98 1375.24,-66.23 1359.13,-66.46"/>
<polygon fill="midnightblue" stroke="midnightblue" points="1409.39,-69.24 1419.34,-65.6 1409.29,-62.24 1409.39,-69.24"/>
</g>
<!-- Node13&#45;&gt;Node4 -->
<g id="edge13" class="edge">
<title>Node13&#45;&gt;Node4</title>
<path fill="none" stroke="midnightblue" d="M1202.68,-76.34C1187.2,-78.01 1171.2,-79.72 1156.27,-81.33"/>
<polygon fill="midnightblue" stroke="midnightblue" points="1203.19,-79.81 1212.76,-75.26 1202.44,-72.85 1203.19,-79.81"/>
</g>
<!-- Node15 -->
<g id="node15" class="node">
<title>Node15</title>
<g id="a_node15"><a xlink:href="../../db/ded/classUIKeybindingListItem_af9bb86929abe57319165affb3121d216.html#af9bb86929abe57319165affb3121d216" target="_top" xlink:title=" ">
<polygon fill="white" stroke="black" points="1192,-0.5 1192,-30.5 1380,-30.5 1380,-0.5 1192,-0.5"/>
<text text-anchor="start" x="1200" y="-18.5" font-family="Helvetica,sans-Serif" font-size="10.00">UIKeybindingListItem.UIKeybinding</text>
<text text-anchor="middle" x="1286" y="-7.5" font-family="Helvetica,sans-Serif" font-size="10.00">ListItem</text>
</a>
</g>
</g>
<!-- Node14&#45;&gt;Node15 -->
<g id="edge15" class="edge">
<title>Node14&#45;&gt;Node15</title>
<path fill="none" stroke="midnightblue" d="M1405.62,-15.5C1397.23,-15.5 1388.7,-15.5 1380.28,-15.5"/>
<polygon fill="midnightblue" stroke="midnightblue" points="1405.78,-19 1415.78,-15.5 1405.78,-12 1405.78,-19"/>
</g>
</g>
</svg>
        <g id="navigator" transform="translate(0 0)" fill="#404254">
                <rect fill="#f2f5e9" fill-opacity="0.5" stroke="#606060" stroke-width=".5" x="0" y="0" width="60" height="60"/>
                <use id="zoomplus" xlink:href="#zoomPlus" x="17" y="9" onmousedown="handleZoom(evt,'in')"/>
                <use id="zoomminus" xlink:href="#zoomMin" x="42" y="9" onmousedown="handleZoom(evt,'out')"/>
                <use id="reset" xlink:href="#resetDef" x="30" y="36" onmousedown="handleReset()"/>
                <g id="arrowUp" xlink:href="#dirArrow" transform="translate(30 24)" onmousedown="handlePan(0,-1)">
                  <use xlink:href="#rim" fill="#404040">
                        <set attributeName="fill" to="#808080" begin="arrowUp.mouseover" end="arrowUp.mouseout"/>
                  </use>
                  <path fill="none" stroke="white" stroke-width="1.5" d="M0,-3.0v7 M-2.5,-0.5L0,-3.0L2.5,-0.5"/>
                </g>
                <g id="arrowRight" xlink:href="#dirArrow" transform="rotate(90) translate(36 -43)" onmousedown="handlePan(1,0)">
                  <use xlink:href="#rim" fill="#404040">
                        <set attributeName="fill" to="#808080" begin="arrowRight.mouseover" end="arrowRight.mouseout"/>
                  </use>
                  <path fill="none" stroke="white" stroke-width="1.5" d="M0,-3.0v7 M-2.5,-0.5L0,-3.0L2.5,-0.5"/>
                </g>
                <g id="arrowDown" xlink:href="#dirArrow" transform="rotate(180) translate(-30 -48)" onmousedown="handlePan(0,1)">
                  <use xlink:href="#rim" fill="#404040">
                        <set attributeName="fill" to="#808080" begin="arrowDown.mouseover" end="arrowDown.mouseout"/>
                  </use>
                  <path fill="none" stroke="white" stroke-width="1.5" d="M0,-3.0v7 M-2.5,-0.5L0,-3.0L2.5,-0.5"/>
                </g>
                <g id="arrowLeft" xlink:href="#dirArrow" transform="rotate(270) translate(-36 17)" onmousedown="handlePan(-1,0)">
                  <use xlink:href="#rim" fill="#404040">
                        <set attributeName="fill" to="#808080" begin="arrowLeft.mouseover" end="arrowLeft.mouseout"/>
                  </use>
                  <path fill="none" stroke="white" stroke-width="1.5" d="M0,-3.0v7 M-2.5,-0.5L0,-3.0L2.5,-0.5"/>
                </g>
        </g>
        <svg viewBox="0 0 15 15" width="100%" height="30px" preserveAspectRatio="xMaxYMin meet">
         <g id="arrow_out" transform="scale(0.3 0.3)">
          <a xlink:href="classPlayerInput_a5b0a4a83901d44c4b55348ce7c65b3b5_a5b0a4a83901d44c4b55348ce7c65b3b5_icgraph_org.svg" target="_base">
           <rect id="button" ry="5" rx="5" y="6" x="6" height="38" width="38"
                fill="#f2f5e9" fill-opacity="0.5" stroke="#606060" stroke-width="1.0"/>
           <path id="arrow"
             d="M 11.500037,31.436501 C 11.940474,20.09759 22.043105,11.32322 32.158766,21.979434 L 37.068811,17.246167 C 37.068811,17.246167 37.088388,32 37.088388,32 L 22.160133,31.978069 C 22.160133,31.978069 26.997745,27.140456 26.997745,27.140456 C 18.528582,18.264221 13.291696,25.230495 11.500037,31.436501 z"
             style="fill:#404040;"/>
          </a>
         </g>
        </svg>
</svg>
