<?xml version="1.0" encoding="UTF-8" standalone="no"?>
<!DOCTYPE svg PUBLIC "-//W3C//DTD SVG 1.1//EN"
 "http://www.w3.org/Graphics/SVG/1.1/DTD/svg11.dtd">
<!-- Generated by graphviz version 2.43.0 (0)
 -->
<!-- Title: ModShapes.InnerOutline Pages: 1 -->
<!--zoomable 860 -->
<svg id="main" version="1.1" xmlns="http://www.w3.org/2000/svg" xmlns:xlink="http://www.w3.org/1999/xlink" xml:space="preserve" onload="init(evt)">
<style type="text/css"><![CDATA[
.edge:hover path { stroke: red; }
.edge:hover polygon { stroke: red; fill: red; }
]]></style>
<script type="text/javascript"><![CDATA[
var edges = document.getElementsByTagName('g');
if (edges && edges.length) {
  for (var i=0;i<edges.length;i++) {
    if (edges[i].id.substr(0,4)=='edge') {
      edges[i].setAttribute('class','edge');
    }
  }
}
]]></script>
        <defs>
                <circle id="rim" cx="0" cy="0" r="7"/>
                <circle id="rim2" cx="0" cy="0" r="3.5"/>
                <g id="zoomPlus">
                        <use xlink:href="#rim" fill="#404040">
                                <set attributeName="fill" to="#808080" begin="zoomplus.mouseover" end="zoomplus.mouseout"/>
                        </use>
                        <path d="M-4,0h8M0,-4v8" fill="none" stroke="white" stroke-width="1.5" pointer-events="none"/>
                </g>
                <g id="zoomMin">
                        <use xlink:href="#rim" fill="#404040">
                                <set attributeName="fill" to="#808080" begin="zoomminus.mouseover" end="zoomminus.mouseout"/>
                        </use>
                        <path d="M-4,0h8" fill="none" stroke="white" stroke-width="1.5" pointer-events="none"/>
                </g>
                <g id="dirArrow">
                        <path fill="none" stroke="white" stroke-width="1.5" d="M0,-3.0v7 M-2.5,-0.5L0,-3.0L2.5,-0.5"/>
                </g>
               <g id="resetDef">
                       <use xlink:href="#rim2" fill="#404040">
                               <set attributeName="fill" to="#808080" begin="reset.mouseover" end="reset.mouseout"/>
                       </use>
               </g>
        </defs>

<script type="text/javascript">
var viewWidth = 429;
var viewHeight = 860;
var sectionId = 'dynsection-1';
</script>
<script xlink:href="../../svgpan.js"/>
<svg id="graph" class="graph">
<g id="viewport">
<title>ModShapes.InnerOutline</title>
<polygon fill="white" stroke="transparent" points="-4,4 -4,-856 424.5,-856 424.5,4 -4,4"/>
<!-- Node1 -->
<g id="node1" class="node">
<title>Node1</title>
<g id="a_node1"><a xlink:title=" ">
<polygon fill="#bfbfbf" stroke="black" points="57.5,-0.5 57.5,-101.5 226.5,-101.5 226.5,-0.5 57.5,-0.5"/>
<text text-anchor="middle" x="142" y="-89.5" font-family="Helvetica,sans-Serif" font-size="10.00">ModShapes.InnerOutline</text>
<polyline fill="none" stroke="black" points="57.5,-82.5 226.5,-82.5 "/>
<text text-anchor="middle" x="142" y="-70.5" font-family="Helvetica,sans-Serif" font-size="10.00"> </text>
<polyline fill="none" stroke="black" points="57.5,-63.5 226.5,-63.5 "/>
<text text-anchor="start" x="65.5" y="-51.5" font-family="Helvetica,sans-Serif" font-size="10.00">+ InnerOutline(ShapeData</text>
<text text-anchor="start" x="65.5" y="-40.5" font-family="Helvetica,sans-Serif" font-size="10.00"> data, bool useDiagonals=true)</text>
<text text-anchor="start" x="65.5" y="-29.5" font-family="Helvetica,sans-Serif" font-size="10.00">+ override bool Perform</text>
<text text-anchor="start" x="65.5" y="-18.5" font-family="Helvetica,sans-Serif" font-size="10.00">(Point origin, GenAction</text>
<text text-anchor="start" x="65.5" y="-7.5" font-family="Helvetica,sans-Serif" font-size="10.00"> action)</text>
</a>
</g>
</g>
<!-- Node2 -->
<g id="node2" class="node">
<title>Node2</title>
<g id="a_node2"><a xlink:href="../../d5/daa/classGenModShape.html" target="_top" xlink:title=" ">
<polygon fill="white" stroke="black" points="64.5,-149.5 64.5,-217.5 219.5,-217.5 219.5,-149.5 64.5,-149.5"/>
<text text-anchor="middle" x="142" y="-205.5" font-family="Helvetica,sans-Serif" font-size="10.00">GenModShape</text>
<polyline fill="none" stroke="black" points="64.5,-198.5 219.5,-198.5 "/>
<text text-anchor="middle" x="142" y="-186.5" font-family="Helvetica,sans-Serif" font-size="10.00"> </text>
<polyline fill="none" stroke="black" points="64.5,-179.5 219.5,-179.5 "/>
<text text-anchor="start" x="72.5" y="-167.5" font-family="Helvetica,sans-Serif" font-size="10.00">+ GenModShape(ShapeData</text>
<text text-anchor="start" x="72.5" y="-156.5" font-family="Helvetica,sans-Serif" font-size="10.00"> data)</text>
</a>
</g>
</g>
<!-- Node2&#45;&gt;Node1 -->
<g id="edge1" class="edge">
<title>Node2&#45;&gt;Node1</title>
<path fill="none" stroke="midnightblue" d="M142,-139.1C142,-127.21 142,-114.21 142,-101.98"/>
<polygon fill="none" stroke="midnightblue" points="138.5,-139.23 142,-149.23 145.5,-139.23 138.5,-139.23"/>
</g>
<!-- Node3 -->
<g id="node3" class="node">
<title>Node3</title>
<g id="a_node3"><a xlink:href="../../df/da2/classGenShape.html" target="_top" xlink:title=" ">
<polygon fill="white" stroke="black" points="57,-265.5 57,-432.5 227,-432.5 227,-265.5 57,-265.5"/>
<text text-anchor="middle" x="142" y="-420.5" font-family="Helvetica,sans-Serif" font-size="10.00">GenShape</text>
<polyline fill="none" stroke="black" points="57,-413.5 227,-413.5 "/>
<text text-anchor="middle" x="142" y="-401.5" font-family="Helvetica,sans-Serif" font-size="10.00"> </text>
<polyline fill="none" stroke="black" points="57,-394.5 227,-394.5 "/>
<text text-anchor="start" x="65" y="-382.5" font-family="Helvetica,sans-Serif" font-size="10.00">+ abstract bool Perform</text>
<text text-anchor="start" x="65" y="-371.5" font-family="Helvetica,sans-Serif" font-size="10.00">(Point origin, GenAction</text>
<text text-anchor="start" x="65" y="-360.5" font-family="Helvetica,sans-Serif" font-size="10.00"> action)</text>
<text text-anchor="start" x="65" y="-349.5" font-family="Helvetica,sans-Serif" font-size="10.00">+ GenShape Output(ShapeData</text>
<text text-anchor="start" x="65" y="-338.5" font-family="Helvetica,sans-Serif" font-size="10.00"> outputData)</text>
<text text-anchor="start" x="65" y="-327.5" font-family="Helvetica,sans-Serif" font-size="10.00">+ GenShape QuitOnFail</text>
<text text-anchor="start" x="65" y="-316.5" font-family="Helvetica,sans-Serif" font-size="10.00">(bool value=true)</text>
<text text-anchor="start" x="65" y="-305.5" font-family="Helvetica,sans-Serif" font-size="10.00"># bool UnitApply(GenAction</text>
<text text-anchor="start" x="65" y="-294.5" font-family="Helvetica,sans-Serif" font-size="10.00"> action, Point origin,</text>
<text text-anchor="start" x="65" y="-283.5" font-family="Helvetica,sans-Serif" font-size="10.00"> int x, int y, params object</text>
<text text-anchor="start" x="65" y="-272.5" font-family="Helvetica,sans-Serif" font-size="10.00">[] args)</text>
</a>
</g>
</g>
<!-- Node3&#45;&gt;Node2 -->
<g id="edge2" class="edge">
<title>Node3&#45;&gt;Node2</title>
<path fill="none" stroke="midnightblue" d="M142,-254.99C142,-241.6 142,-228.62 142,-217.52"/>
<polygon fill="none" stroke="midnightblue" points="138.5,-255.29 142,-265.29 145.5,-255.29 138.5,-255.29"/>
</g>
<!-- Node4 -->
<g id="node4" class="node">
<title>Node4</title>
<g id="a_node4"><a xlink:href="../../dc/d5c/classGenBase.html" target="_top" xlink:title=" ">
<polygon fill="white" stroke="black" points="56.5,-552 56.5,-675 227.5,-675 227.5,-552 56.5,-552"/>
<text text-anchor="middle" x="142" y="-663" font-family="Helvetica,sans-Serif" font-size="10.00">GenBase</text>
<polyline fill="none" stroke="black" points="56.5,-656 227.5,-656 "/>
<text text-anchor="start" x="64.5" y="-644" font-family="Helvetica,sans-Serif" font-size="10.00">+ static UnifiedRandom</text>
<text text-anchor="start" x="64.5" y="-633" font-family="Helvetica,sans-Serif" font-size="10.00"> _random</text>
<text text-anchor="start" x="64.5" y="-622" font-family="Helvetica,sans-Serif" font-size="10.00">+ static Tile[,] _tiles</text>
<text text-anchor="start" x="64.5" y="-611" font-family="Helvetica,sans-Serif" font-size="10.00">+ static int _worldWidth</text>
<text text-anchor="start" x="64.5" y="-600" font-family="Helvetica,sans-Serif" font-size="10.00">+ static int _worldHeight</text>
<polyline fill="none" stroke="black" points="56.5,-593 227.5,-593 "/>
<text text-anchor="start" x="64.5" y="-581" font-family="Helvetica,sans-Serif" font-size="10.00">+ delegate bool CustomPerUnit</text>
<text text-anchor="start" x="64.5" y="-570" font-family="Helvetica,sans-Serif" font-size="10.00">Action(int x, int y, params</text>
<text text-anchor="start" x="64.5" y="-559" font-family="Helvetica,sans-Serif" font-size="10.00"> object[] args)</text>
</a>
</g>
</g>
<!-- Node4&#45;&gt;Node3 -->
<g id="edge3" class="edge">
<title>Node4&#45;&gt;Node3</title>
<path fill="none" stroke="midnightblue" d="M142,-541.74C142,-508.09 142,-467.67 142,-432.62"/>
<polygon fill="none" stroke="midnightblue" points="138.5,-541.95 142,-551.95 145.5,-541.95 138.5,-541.95"/>
</g>
<!-- Node5 -->
<g id="node5" class="node">
<title>Node5</title>
<g id="a_node5"><a xlink:title=" ">
<polygon fill="white" stroke="#bfbfbf" points="0,-585 0,-642 38,-642 38,-585 0,-585"/>
<text text-anchor="middle" x="19" y="-630" font-family="Helvetica,sans-Serif" font-size="10.00">bool</text>
<polyline fill="none" stroke="#bfbfbf" points="0,-623 38,-623 "/>
<text text-anchor="middle" x="19" y="-611" font-family="Helvetica,sans-Serif" font-size="10.00"> </text>
<polyline fill="none" stroke="#bfbfbf" points="0,-604 38,-604 "/>
<text text-anchor="middle" x="19" y="-592" font-family="Helvetica,sans-Serif" font-size="10.00"> </text>
</a>
</g>
</g>
<!-- Node5&#45;&gt;Node1 -->
<g id="edge9" class="edge">
<title>Node5&#45;&gt;Node1</title>
<path fill="none" stroke="#404040" d="M15.23,-584.94C6.3,-510.85 -10.72,-302.6 55,-149 60.74,-135.6 69.1,-122.79 78.4,-111.14"/>
<polygon fill="none" stroke="#404040" points="78.67,-110.81 79.48,-103.64 86.4,-101.63 85.6,-108.79 78.67,-110.81"/>
<text text-anchor="middle" x="66.5" y="-239" font-family="Helvetica,sans-Serif" font-size="10.00"> &#45;_useDiagonals</text>
</g>
<!-- Node5&#45;&gt;Node3 -->
<g id="edge4" class="edge">
<title>Node5&#45;&gt;Node3</title>
<path fill="none" stroke="#404040" d="M21.42,-584.81C24.61,-557.25 31.72,-514.25 47,-480 52.55,-467.56 59.43,-455.15 66.93,-443.2"/>
<polygon fill="none" stroke="#404040" points="67.13,-442.9 67.04,-435.69 73.66,-432.83 73.75,-440.04 67.13,-442.9"/>
<text text-anchor="middle" x="95" y="-454" font-family="Helvetica,sans-Serif" font-size="10.00"> #_quitOnFail</text>
</g>
<!-- Node6 -->
<g id="node6" class="node">
<title>Node6</title>
<g id="a_node6"><a xlink:href="../../d7/db0/classShapeData.html" target="_top" xlink:title=" ">
<polygon fill="white" stroke="black" points="245.5,-480.5 245.5,-746.5 420.5,-746.5 420.5,-480.5 245.5,-480.5"/>
<text text-anchor="middle" x="333" y="-734.5" font-family="Helvetica,sans-Serif" font-size="10.00">ShapeData</text>
<polyline fill="none" stroke="black" points="245.5,-727.5 420.5,-727.5 "/>
<text text-anchor="start" x="253.5" y="-715.5" font-family="Helvetica,sans-Serif" font-size="10.00">+ int Count</text>
<polyline fill="none" stroke="black" points="245.5,-708.5 420.5,-708.5 "/>
<text text-anchor="start" x="253.5" y="-696.5" font-family="Helvetica,sans-Serif" font-size="10.00">+ ShapeData()</text>
<text text-anchor="start" x="253.5" y="-685.5" font-family="Helvetica,sans-Serif" font-size="10.00">+ ShapeData(ShapeData</text>
<text text-anchor="start" x="253.5" y="-674.5" font-family="Helvetica,sans-Serif" font-size="10.00"> original)</text>
<text text-anchor="start" x="253.5" y="-663.5" font-family="Helvetica,sans-Serif" font-size="10.00">+ void Add(int x, int y)</text>
<text text-anchor="start" x="253.5" y="-652.5" font-family="Helvetica,sans-Serif" font-size="10.00">+ void Remove(int x,</text>
<text text-anchor="start" x="253.5" y="-641.5" font-family="Helvetica,sans-Serif" font-size="10.00"> int y)</text>
<text text-anchor="start" x="253.5" y="-630.5" font-family="Helvetica,sans-Serif" font-size="10.00">+ HashSet&lt; Point16 &gt;</text>
<text text-anchor="start" x="253.5" y="-619.5" font-family="Helvetica,sans-Serif" font-size="10.00"> GetData()</text>
<text text-anchor="start" x="253.5" y="-608.5" font-family="Helvetica,sans-Serif" font-size="10.00">+ void Clear()</text>
<text text-anchor="start" x="253.5" y="-597.5" font-family="Helvetica,sans-Serif" font-size="10.00">+ bool Contains(int x,</text>
<text text-anchor="start" x="253.5" y="-586.5" font-family="Helvetica,sans-Serif" font-size="10.00"> int y)</text>
<text text-anchor="start" x="253.5" y="-575.5" font-family="Helvetica,sans-Serif" font-size="10.00">+ void Add(ShapeData</text>
<text text-anchor="start" x="253.5" y="-564.5" font-family="Helvetica,sans-Serif" font-size="10.00"> shapeData, Point localOrigin,</text>
<text text-anchor="start" x="253.5" y="-553.5" font-family="Helvetica,sans-Serif" font-size="10.00"> Point remoteOrigin)</text>
<text text-anchor="start" x="253.5" y="-542.5" font-family="Helvetica,sans-Serif" font-size="10.00">+ void Subtract(ShapeData</text>
<text text-anchor="start" x="253.5" y="-531.5" font-family="Helvetica,sans-Serif" font-size="10.00"> shapeData, Point localOrigin,</text>
<text text-anchor="start" x="253.5" y="-520.5" font-family="Helvetica,sans-Serif" font-size="10.00"> Point remoteOrigin)</text>
<text text-anchor="start" x="253.5" y="-509.5" font-family="Helvetica,sans-Serif" font-size="10.00">+ static Rectangle GetBounds</text>
<text text-anchor="start" x="253.5" y="-498.5" font-family="Helvetica,sans-Serif" font-size="10.00">(Point origin, params ShapeData</text>
<text text-anchor="start" x="253.5" y="-487.5" font-family="Helvetica,sans-Serif" font-size="10.00">[] shapes)</text>
</a>
</g>
</g>
<!-- Node6&#45;&gt;Node2 -->
<g id="edge7" class="edge">
<title>Node6&#45;&gt;Node2</title>
<path fill="none" stroke="#404040" d="M315.02,-480.35C301.22,-412.06 277.24,-329.71 236,-265 226.71,-250.42 213.97,-237.05 200.87,-225.57"/>
<polygon fill="none" stroke="#404040" points="200.51,-225.27 193.34,-224.48 191.31,-217.56 198.48,-218.35 200.51,-225.27"/>
<text text-anchor="middle" x="322.5" y="-346.5" font-family="Helvetica,sans-Serif" font-size="10.00"> #_data</text>
</g>
<!-- Node6&#45;&gt;Node3 -->
<g id="edge5" class="edge">
<title>Node6&#45;&gt;Node3</title>
<path fill="none" stroke="#404040" d="M245.24,-489.4C242.5,-486.2 239.75,-483.06 237,-480 229,-471.11 224.83,-471.04 217,-462 211.7,-455.88 206.46,-449.37 201.36,-442.68"/>
<polygon fill="none" stroke="#404040" points="201.17,-442.42 194.38,-439.99 194.01,-432.79 200.8,-435.22 201.17,-442.42"/>
<text text-anchor="middle" x="250.5" y="-454" font-family="Helvetica,sans-Serif" font-size="10.00"> &#45;_outputData</text>
</g>
<!-- Node7 -->
<g id="node7" class="node">
<title>Node7</title>
<g id="a_node7"><a xlink:title=" ">
<polygon fill="white" stroke="#bfbfbf" points="275,-794.5 275,-851.5 391,-851.5 391,-794.5 275,-794.5"/>
<text text-anchor="middle" x="333" y="-839.5" font-family="Helvetica,sans-Serif" font-size="10.00">HashSet&lt; Point16 &gt;</text>
<polyline fill="none" stroke="#bfbfbf" points="275,-832.5 391,-832.5 "/>
<text text-anchor="middle" x="333" y="-820.5" font-family="Helvetica,sans-Serif" font-size="10.00"> </text>
<polyline fill="none" stroke="#bfbfbf" points="275,-813.5 391,-813.5 "/>
<text text-anchor="middle" x="333" y="-801.5" font-family="Helvetica,sans-Serif" font-size="10.00"> </text>
</a>
</g>
</g>
<!-- Node7&#45;&gt;Node6 -->
<g id="edge6" class="edge">
<title>Node7&#45;&gt;Node6</title>
<path fill="none" stroke="#404040" d="M333,-794.45C333,-784.4 333,-772.23 333,-759.02"/>
<polygon fill="none" stroke="#404040" points="333,-758.61 329,-752.61 333,-746.61 337,-752.61 333,-758.61"/>
<text text-anchor="middle" x="354.5" y="-768" font-family="Helvetica,sans-Serif" font-size="10.00"> &#45;_points</text>
</g>
<!-- Node8 -->
<g id="node8" class="node">
<title>Node8</title>
<g id="a_node8"><a xlink:title=" ">
<polygon fill="white" stroke="#bfbfbf" points="237.5,-155 237.5,-212 266.5,-212 266.5,-155 237.5,-155"/>
<text text-anchor="middle" x="252" y="-200" font-family="Helvetica,sans-Serif" font-size="10.00">int</text>
<polyline fill="none" stroke="#bfbfbf" points="237.5,-193 266.5,-193 "/>
<text text-anchor="middle" x="252" y="-181" font-family="Helvetica,sans-Serif" font-size="10.00"> </text>
<polyline fill="none" stroke="#bfbfbf" points="237.5,-174 266.5,-174 "/>
<text text-anchor="middle" x="252" y="-162" font-family="Helvetica,sans-Serif" font-size="10.00"> </text>
</a>
</g>
</g>
<!-- Node8&#45;&gt;Node1 -->
<g id="edge8" class="edge">
<title>Node8&#45;&gt;Node1</title>
<path fill="none" stroke="#404040" d="M237.3,-160.22C234.62,-156.42 231.79,-152.55 229,-149 219.08,-136.39 207.98,-123.32 197.12,-111.02"/>
<polygon fill="none" stroke="#404040" points="196.86,-110.73 189.89,-108.92 188.88,-101.78 195.86,-103.59 196.86,-110.73"/>
<text text-anchor="middle" x="255.5" y="-123" font-family="Helvetica,sans-Serif" font-size="10.00"> &#45;POINT_OFFSETS</text>
</g>
</g>
</svg>
        <g id="navigator" transform="translate(0 0)" fill="#404254">
                <rect fill="#f2f5e9" fill-opacity="0.5" stroke="#606060" stroke-width=".5" x="0" y="0" width="60" height="60"/>
                <use id="zoomplus" xlink:href="#zoomPlus" x="17" y="9" onmousedown="handleZoom(evt,'in')"/>
                <use id="zoomminus" xlink:href="#zoomMin" x="42" y="9" onmousedown="handleZoom(evt,'out')"/>
                <use id="reset" xlink:href="#resetDef" x="30" y="36" onmousedown="handleReset()"/>
                <g id="arrowUp" xlink:href="#dirArrow" transform="translate(30 24)" onmousedown="handlePan(0,-1)">
                  <use xlink:href="#rim" fill="#404040">
                        <set attributeName="fill" to="#808080" begin="arrowUp.mouseover" end="arrowUp.mouseout"/>
                  </use>
                  <path fill="none" stroke="white" stroke-width="1.5" d="M0,-3.0v7 M-2.5,-0.5L0,-3.0L2.5,-0.5"/>
                </g>
                <g id="arrowRight" xlink:href="#dirArrow" transform="rotate(90) translate(36 -43)" onmousedown="handlePan(1,0)">
                  <use xlink:href="#rim" fill="#404040">
                        <set attributeName="fill" to="#808080" begin="arrowRight.mouseover" end="arrowRight.mouseout"/>
                  </use>
                  <path fill="none" stroke="white" stroke-width="1.5" d="M0,-3.0v7 M-2.5,-0.5L0,-3.0L2.5,-0.5"/>
                </g>
                <g id="arrowDown" xlink:href="#dirArrow" transform="rotate(180) translate(-30 -48)" onmousedown="handlePan(0,1)">
                  <use xlink:href="#rim" fill="#404040">
                        <set attributeName="fill" to="#808080" begin="arrowDown.mouseover" end="arrowDown.mouseout"/>
                  </use>
                  <path fill="none" stroke="white" stroke-width="1.5" d="M0,-3.0v7 M-2.5,-0.5L0,-3.0L2.5,-0.5"/>
                </g>
                <g id="arrowLeft" xlink:href="#dirArrow" transform="rotate(270) translate(-36 17)" onmousedown="handlePan(-1,0)">
                  <use xlink:href="#rim" fill="#404040">
                        <set attributeName="fill" to="#808080" begin="arrowLeft.mouseover" end="arrowLeft.mouseout"/>
                  </use>
                  <path fill="none" stroke="white" stroke-width="1.5" d="M0,-3.0v7 M-2.5,-0.5L0,-3.0L2.5,-0.5"/>
                </g>
        </g>
        <svg viewBox="0 0 15 15" width="100%" height="30px" preserveAspectRatio="xMaxYMin meet">
         <g id="arrow_out" transform="scale(0.3 0.3)">
          <a xlink:href="classModShapes_1_1InnerOutline__coll__graph_org.svg" target="_base">
           <rect id="button" ry="5" rx="5" y="6" x="6" height="38" width="38"
                fill="#f2f5e9" fill-opacity="0.5" stroke="#606060" stroke-width="1.0"/>
           <path id="arrow"
             d="M 11.500037,31.436501 C 11.940474,20.09759 22.043105,11.32322 32.158766,21.979434 L 37.068811,17.246167 C 37.068811,17.246167 37.088388,32 37.088388,32 L 22.160133,31.978069 C 22.160133,31.978069 26.997745,27.140456 26.997745,27.140456 C 18.528582,18.264221 13.291696,25.230495 11.500037,31.436501 z"
             style="fill:#404040;"/>
          </a>
         </g>
        </svg>
</svg>
