<?xml version="1.0" encoding="UTF-8" standalone="no"?>
<!DOCTYPE svg PUBLIC "-//W3C//DTD SVG 1.1//EN"
 "http://www.w3.org/Graphics/SVG/1.1/DTD/svg11.dtd">
<!-- Generated by graphviz version 2.43.0 (0)
 -->
<!-- Title: Terraria.GameContent.UI.IssueReportsIndicator.Draw Pages: 1 -->
<svg width="578pt" height="193pt"
 viewBox="0.00 0.00 578.00 192.50" xmlns="http://www.w3.org/2000/svg" xmlns:xlink="http://www.w3.org/1999/xlink">
<g id="graph0" class="graph" transform="scale(1 1) rotate(0) translate(4 188.5)">
<title>Terraria.GameContent.UI.IssueReportsIndicator.Draw</title>
<!-- Node1 -->
<g id="Node000001" class="node">
<title>Node1</title>
<g id="a_Node000001"><a xlink:title=" ">
<polygon fill="#999999" stroke="#666666" points="150,-123 0,-123 0,-93 150,-93 150,-123"/>
<text text-anchor="start" x="8" y="-111" font-family="Helvetica,sans-Serif" font-size="10.00">Terraria.GameContent.UI.</text>
<text text-anchor="middle" x="75" y="-100" font-family="Helvetica,sans-Serif" font-size="10.00">IssueReportsIndicator.Draw</text>
</a>
</g>
</g>
<!-- Node2 -->
<g id="Node000002" class="node">
<title>Node2</title>
<g id="a_Node000002"><a xlink:href="../../d1/d9c/classTerraria_1_1Utils_af1719e7aa7cb20441b26320d7eef901c.html#af1719e7aa7cb20441b26320d7eef901c" target="_top" xlink:title=" ">
<polygon fill="white" stroke="#666666" points="361,-184.5 186,-184.5 186,-165.5 361,-165.5 361,-184.5"/>
<text text-anchor="middle" x="273.5" y="-172.5" font-family="Helvetica,sans-Serif" font-size="10.00">Terraria.Utils.CenteredRectangle</text>
</a>
</g>
</g>
<!-- Node1&#45;&gt;Node2 -->
<g id="edge1_Node000001_Node000002" class="edge">
<title>Node1&#45;&gt;Node2</title>
<g id="a_edge1_Node000001_Node000002"><a xlink:title=" ">
<path fill="none" stroke="#63b8ff" d="M106.2,-123.09C127.96,-133.48 158.25,-146.99 186,-156 194.09,-158.63 202.73,-161.01 211.3,-163.12"/>
<polygon fill="#63b8ff" stroke="#63b8ff" points="210.75,-166.59 221.29,-165.48 212.36,-159.78 210.75,-166.59"/>
</a>
</g>
</g>
<!-- Node3 -->
<g id="Node000003" class="node">
<title>Node3</title>
<g id="a_Node000003"><a xlink:href="../../d4/d8f/classTerraria_1_1Localization_1_1Language_ae4636a4800b9ecbaa498954520462f78.html#ae4636a4800b9ecbaa498954520462f78" target="_top" xlink:title=" ">
<polygon fill="white" stroke="#666666" points="357.5,-147 189.5,-147 189.5,-117 357.5,-117 357.5,-147"/>
<text text-anchor="start" x="197.5" y="-135" font-family="Helvetica,sans-Serif" font-size="10.00">Terraria.Localization.Language.</text>
<text text-anchor="middle" x="273.5" y="-124" font-family="Helvetica,sans-Serif" font-size="10.00">GetTextValue</text>
</a>
</g>
</g>
<!-- Node1&#45;&gt;Node3 -->
<g id="edge2_Node000001_Node000003" class="edge">
<title>Node1&#45;&gt;Node3</title>
<g id="a_edge2_Node000001_Node000003"><a xlink:title=" ">
<path fill="none" stroke="#63b8ff" d="M150.01,-117.04C159.54,-118.2 169.39,-119.41 179.18,-120.6"/>
<polygon fill="#63b8ff" stroke="#63b8ff" points="178.98,-124.1 189.33,-121.84 179.83,-117.16 178.98,-124.1"/>
</a>
</g>
</g>
<!-- Node5 -->
<g id="Node000005" class="node">
<title>Node5</title>
<g id="a_Node000005"><a xlink:href="../../d8/d4b/classTerraria_1_1GameContent_1_1UI_1_1IssueReportsIndicator_ab9a7f7337ef8d5a01b3443940b963e74.html#ab9a7f7337ef8d5a01b3443940b963e74" target="_top" xlink:title=" ">
<polygon fill="white" stroke="#666666" points="347,-99 200,-99 200,-69 347,-69 347,-99"/>
<text text-anchor="start" x="208" y="-87" font-family="Helvetica,sans-Serif" font-size="10.00">Terraria.GameContent.UI.</text>
<text text-anchor="middle" x="273.5" y="-76" font-family="Helvetica,sans-Serif" font-size="10.00">IssueReportsIndicator.Hide</text>
</a>
</g>
</g>
<!-- Node1&#45;&gt;Node5 -->
<g id="edge4_Node000001_Node000005" class="edge">
<title>Node1&#45;&gt;Node5</title>
<g id="a_edge4_Node000001_Node000005"><a xlink:title=" ">
<path fill="none" stroke="#63b8ff" d="M150.01,-98.96C163.01,-97.37 176.62,-95.71 189.84,-94.1"/>
<polygon fill="#63b8ff" stroke="#63b8ff" points="190.36,-97.56 199.86,-92.87 189.51,-90.61 190.36,-97.56"/>
</a>
</g>
</g>
<!-- Node6 -->
<g id="Node000006" class="node">
<title>Node6</title>
<g id="a_Node000006"><a xlink:href="../../d8/d4b/classTerraria_1_1GameContent_1_1UI_1_1IssueReportsIndicator_a909dc8c4ea809db7c36f569ffedeacc3.html#a909dc8c4ea809db7c36f569ffedeacc3" target="_top" xlink:title=" ">
<polygon fill="white" stroke="#666666" points="354,-51 193,-51 193,-21 354,-21 354,-51"/>
<text text-anchor="start" x="201" y="-39" font-family="Helvetica,sans-Serif" font-size="10.00">Terraria.GameContent.UI.</text>
<text text-anchor="middle" x="273.5" y="-28" font-family="Helvetica,sans-Serif" font-size="10.00">IssueReportsIndicator.OpenUI</text>
</a>
</g>
</g>
<!-- Node1&#45;&gt;Node6 -->
<g id="edge5_Node000001_Node000006" class="edge">
<title>Node1&#45;&gt;Node6</title>
<g id="a_edge5_Node000001_Node000006"><a xlink:title=" ">
<path fill="none" stroke="#63b8ff" d="M107.3,-92.94C129.05,-82.81 158.9,-69.62 186,-60 191.88,-57.91 198.04,-55.89 204.24,-53.97"/>
<polygon fill="#63b8ff" stroke="#63b8ff" points="205.42,-57.27 213.99,-51.03 203.4,-50.56 205.42,-57.27"/>
</a>
</g>
</g>
<!-- Node4 -->
<g id="Node000004" class="node">
<title>Node4</title>
<g id="a_Node000004"><a xlink:href="../../d8/d74/classTerraria_1_1Localization_1_1LanguageManager_a9f1901e50105d9873d2fdf8816e122de.html#a9f1901e50105d9873d2fdf8816e122de" target="_top" xlink:title=" ">
<polygon fill="white" stroke="#666666" points="566,-147 401,-147 401,-117 566,-117 566,-147"/>
<text text-anchor="start" x="409" y="-135" font-family="Helvetica,sans-Serif" font-size="10.00">Terraria.Localization.Language</text>
<text text-anchor="middle" x="483.5" y="-124" font-family="Helvetica,sans-Serif" font-size="10.00">Manager.GetTextValue</text>
</a>
</g>
</g>
<!-- Node3&#45;&gt;Node4 -->
<g id="edge3_Node000003_Node000004" class="edge">
<title>Node3&#45;&gt;Node4</title>
<g id="a_edge3_Node000003_Node000004"><a xlink:title=" ">
<path fill="none" stroke="#63b8ff" d="M357.6,-132C368.52,-132 379.76,-132 390.8,-132"/>
<polygon fill="#63b8ff" stroke="#63b8ff" points="390.88,-135.5 400.88,-132 390.88,-128.5 390.88,-135.5"/>
</a>
</g>
</g>
<!-- Node7 -->
<g id="Node000007" class="node">
<title>Node7</title>
<g id="a_Node000007"><a xlink:href="../../da/dd5/classTerraria_1_1Main_a87f80ff14349916648b07951e6fa036d.html#a87f80ff14349916648b07951e6fa036d" target="_top" xlink:title=" ">
<polygon fill="white" stroke="#666666" points="570,-67.5 397,-67.5 397,-48.5 570,-48.5 570,-67.5"/>
<text text-anchor="middle" x="483.5" y="-55.5" font-family="Helvetica,sans-Serif" font-size="10.00">Terraria.Main.OpenReportsMenu</text>
</a>
</g>
</g>
<!-- Node6&#45;&gt;Node7 -->
<g id="edge6_Node000006_Node000007" class="edge">
<title>Node6&#45;&gt;Node7</title>
<g id="a_edge6_Node000006_Node000007"><a xlink:title=" ">
<path fill="none" stroke="#63b8ff" d="M354.03,-44.41C364.74,-45.54 375.82,-46.72 386.77,-47.88"/>
<polygon fill="#63b8ff" stroke="#63b8ff" points="386.48,-51.36 396.79,-48.93 387.21,-44.4 386.48,-51.36"/>
</a>
</g>
</g>
<!-- Node8 -->
<g id="Node000008" class="node">
<title>Node8</title>
<g id="a_Node000008"><a xlink:href="../../d8/d4b/classTerraria_1_1GameContent_1_1UI_1_1IssueReportsIndicator_aa64a73fa3ca73c8fb5340d4b8dd298d1.html#aa64a73fa3ca73c8fb5340d4b8dd298d1" target="_top" xlink:title=" ">
<polygon fill="white" stroke="#666666" points="559.5,-30 407.5,-30 407.5,0 559.5,0 559.5,-30"/>
<text text-anchor="start" x="415.5" y="-18" font-family="Helvetica,sans-Serif" font-size="10.00">Terraria.GameContent.UI.</text>
<text text-anchor="middle" x="483.5" y="-7" font-family="Helvetica,sans-Serif" font-size="10.00">IssueReportsIndicator.Setup</text>
</a>
</g>
</g>
<!-- Node6&#45;&gt;Node8 -->
<g id="edge7_Node000006_Node000008" class="edge">
<title>Node6&#45;&gt;Node8</title>
<g id="a_edge7_Node000006_Node000008"><a xlink:title=" ">
<path fill="none" stroke="#63b8ff" d="M354.03,-27.97C368.15,-26.55 382.9,-25.06 397.18,-23.61"/>
<polygon fill="#63b8ff" stroke="#63b8ff" points="397.87,-27.06 407.47,-22.58 397.17,-20.1 397.87,-27.06"/>
</a>
</g>
</g>
</g>
</svg>
