<?xml version="1.0" encoding="UTF-8" standalone="no"?>
<!DOCTYPE svg PUBLIC "-//W3C//DTD SVG 1.1//EN"
 "http://www.w3.org/Graphics/SVG/1.1/DTD/svg11.dtd">
<!-- Generated by graphviz version 2.43.0 (0)
 -->
<!-- Title: Terraria.Achievements.AchievementManager.Save Pages: 1 -->
<svg width="1174pt" height="204pt"
 viewBox="0.00 0.00 1174.00 204.00" xmlns="http://www.w3.org/2000/svg" xmlns:xlink="http://www.w3.org/1999/xlink">
<g id="graph0" class="graph" transform="scale(1 1) rotate(0) translate(4 200)">
<title>Terraria.Achievements.AchievementManager.Save</title>
<!-- Node1 -->
<g id="Node000001" class="node">
<title>Node1</title>
<g id="a_Node000001"><a xlink:title=" ">
<polygon fill="#999999" stroke="#666666" points="194,-125 0,-125 0,-95 194,-95 194,-125"/>
<text text-anchor="start" x="8" y="-113" font-family="Helvetica,sans-Serif" font-size="10.00">Terraria.Achievements.Achievement</text>
<text text-anchor="middle" x="97" y="-102" font-family="Helvetica,sans-Serif" font-size="10.00">Manager.Save</text>
</a>
</g>
</g>
<!-- Node2 -->
<g id="Node000002" class="node">
<title>Node2</title>
<g id="a_Node000002"><a xlink:href="../../dd/df7/classTerraria_1_1UI_1_1FancyErrorPrinter_abf601102a116710016c5731fc7abbd7a.html#abf601102a116710016c5731fc7abbd7a" target="_top" xlink:title=" ">
<polygon fill="white" stroke="#666666" points="968,-172 813,-172 813,-142 968,-142 968,-172"/>
<text text-anchor="start" x="821" y="-160" font-family="Helvetica,sans-Serif" font-size="10.00">Terraria.UI.FancyErrorPrinter.</text>
<text text-anchor="middle" x="890.5" y="-149" font-family="Helvetica,sans-Serif" font-size="10.00">ShowFileSavingFailError</text>
</a>
</g>
</g>
<!-- Node1&#45;&gt;Node2 -->
<g id="edge1_Node000001_Node000002" class="edge">
<title>Node1&#45;&gt;Node2</title>
<g id="a_edge1_Node000001_Node000002"><a xlink:title=" ">
<path fill="none" stroke="#63b8ff" d="M194.26,-115.72C349.72,-124.95 653.64,-142.99 802.77,-151.85"/>
<polygon fill="#63b8ff" stroke="#63b8ff" points="802.61,-155.35 812.8,-152.45 803.03,-148.36 802.61,-155.35"/>
</a>
</g>
</g>
<!-- Node6 -->
<g id="Node000006" class="node">
<title>Node6</title>
<g id="a_Node000006"><a xlink:href="../../d7/de3/classTerraria_1_1Utilities_1_1FileUtilities_af31c17837a4a65f857fa548ce10b76ea.html#af31c17837a4a65f857fa548ce10b76ea" target="_top" xlink:title=" ">
<polygon fill="white" stroke="#666666" points="386,-104 230,-104 230,-74 386,-74 386,-104"/>
<text text-anchor="start" x="238" y="-92" font-family="Helvetica,sans-Serif" font-size="10.00">Terraria.Utilities.FileUtilities.</text>
<text text-anchor="middle" x="308" y="-81" font-family="Helvetica,sans-Serif" font-size="10.00">WriteAllBytes</text>
</a>
</g>
</g>
<!-- Node1&#45;&gt;Node6 -->
<g id="edge5_Node000001_Node000006" class="edge">
<title>Node1&#45;&gt;Node6</title>
<g id="a_edge5_Node000001_Node000006"><a xlink:title=" ">
<path fill="none" stroke="#63b8ff" d="M194.24,-100.33C202.7,-99.48 211.22,-98.62 219.6,-97.78"/>
<polygon fill="#63b8ff" stroke="#63b8ff" points="220.13,-101.25 229.73,-96.76 219.43,-94.28 220.13,-101.25"/>
</a>
</g>
</g>
<!-- Node3 -->
<g id="Node000003" class="node">
<title>Node3</title>
<g id="a_Node000003"><a xlink:href="../../dd/df7/classTerraria_1_1UI_1_1FancyErrorPrinter_a6c9b4482b0b7da9f344d2576854450f9.html#a6c9b4482b0b7da9f344d2576854450f9" target="_top" xlink:title=" ">
<polygon fill="white" stroke="#666666" points="1166,-196 1011,-196 1011,-166 1166,-166 1166,-196"/>
<text text-anchor="start" x="1019" y="-184" font-family="Helvetica,sans-Serif" font-size="10.00">Terraria.UI.FancyErrorPrinter.</text>
<text text-anchor="middle" x="1088.5" y="-173" font-family="Helvetica,sans-Serif" font-size="10.00">AppendSuggestions</text>
</a>
</g>
</g>
<!-- Node2&#45;&gt;Node3 -->
<g id="edge2_Node000002_Node000003" class="edge">
<title>Node2&#45;&gt;Node3</title>
<g id="a_edge2_Node000002_Node000003"><a xlink:title=" ">
<path fill="none" stroke="#63b8ff" d="M968.12,-166.38C978.89,-167.7 990.02,-169.06 1000.96,-170.4"/>
<polygon fill="#63b8ff" stroke="#63b8ff" points="1000.58,-173.88 1010.93,-171.62 1001.43,-166.93 1000.58,-173.88"/>
</a>
</g>
</g>
<!-- Node4 -->
<g id="Node000004" class="node">
<title>Node4</title>
<g id="a_Node000004"><a xlink:href="../../dd/df7/classTerraria_1_1UI_1_1FancyErrorPrinter_a72a828c72dcd7b6c59a0cfc10196389e.html#a72a828c72dcd7b6c59a0cfc10196389e" target="_top" xlink:title=" ">
<polygon fill="white" stroke="#666666" points="1166,-148 1011,-148 1011,-118 1166,-118 1166,-148"/>
<text text-anchor="start" x="1019" y="-136" font-family="Helvetica,sans-Serif" font-size="10.00">Terraria.UI.FancyErrorPrinter.</text>
<text text-anchor="middle" x="1088.5" y="-125" font-family="Helvetica,sans-Serif" font-size="10.00">IncludeOriginalMessage</text>
</a>
</g>
</g>
<!-- Node2&#45;&gt;Node4 -->
<g id="edge3_Node000002_Node000004" class="edge">
<title>Node2&#45;&gt;Node4</title>
<g id="a_edge3_Node000002_Node000004"><a xlink:title=" ">
<path fill="none" stroke="#63b8ff" d="M968.12,-147.62C978.89,-146.3 990.02,-144.94 1000.96,-143.6"/>
<polygon fill="#63b8ff" stroke="#63b8ff" points="1001.43,-147.07 1010.93,-142.38 1000.58,-140.12 1001.43,-147.07"/>
</a>
</g>
</g>
<!-- Node5 -->
<g id="Node000005" class="node">
<title>Node5</title>
<g id="a_Node000005"><a xlink:href="../../dd/df7/classTerraria_1_1UI_1_1FancyErrorPrinter_abbf6492d203fc5f7831f48d73ae26abe.html#abbf6492d203fc5f7831f48d73ae26abe" target="_top" xlink:title=" ">
<polygon fill="white" stroke="#666666" points="1166,-100 1011,-100 1011,-70 1166,-70 1166,-100"/>
<text text-anchor="start" x="1019" y="-88" font-family="Helvetica,sans-Serif" font-size="10.00">Terraria.UI.FancyErrorPrinter.</text>
<text text-anchor="middle" x="1088.5" y="-77" font-family="Helvetica,sans-Serif" font-size="10.00">ShowTheBox</text>
</a>
</g>
</g>
<!-- Node2&#45;&gt;Node5 -->
<g id="edge4_Node000002_Node000005" class="edge">
<title>Node2&#45;&gt;Node5</title>
<g id="a_edge4_Node000002_Node000005"><a xlink:title=" ">
<path fill="none" stroke="#63b8ff" d="M952.51,-141.85C960.21,-139.25 967.88,-136.3 975,-133 992.45,-124.91 993.65,-117.29 1011,-109 1014.99,-107.09 1019.17,-105.29 1023.44,-103.59"/>
<polygon fill="#63b8ff" stroke="#63b8ff" points="1024.72,-106.84 1032.85,-100.05 1022.26,-100.29 1024.72,-106.84"/>
</a>
</g>
</g>
<!-- Node7 -->
<g id="Node000007" class="node">
<title>Node7</title>
<g id="a_Node000007"><a xlink:href="../../d7/de3/classTerraria_1_1Utilities_1_1FileUtilities_a551aa60b3efaaab52b47279807f96ac0.html#a551aa60b3efaaab52b47279807f96ac0" target="_top" xlink:title=" ">
<polygon fill="white" stroke="#666666" points="578,-90 422,-90 422,-60 578,-60 578,-90"/>
<text text-anchor="start" x="430" y="-78" font-family="Helvetica,sans-Serif" font-size="10.00">Terraria.Utilities.FileUtilities.</text>
<text text-anchor="middle" x="500" y="-67" font-family="Helvetica,sans-Serif" font-size="10.00">Write</text>
</a>
</g>
</g>
<!-- Node6&#45;&gt;Node7 -->
<g id="edge6_Node000006_Node000007" class="edge">
<title>Node6&#45;&gt;Node7</title>
<g id="a_edge6_Node000006_Node000007"><a xlink:title=" ">
<path fill="none" stroke="#63b8ff" d="M386.01,-83.33C394.51,-82.7 403.21,-82.06 411.83,-81.42"/>
<polygon fill="#63b8ff" stroke="#63b8ff" points="412.17,-84.91 421.88,-80.68 411.65,-77.93 412.17,-84.91"/>
</a>
</g>
</g>
<!-- Node8 -->
<g id="Node000008" class="node">
<title>Node8</title>
<g id="a_Node000008"><a xlink:href="../../d7/de3/classTerraria_1_1Utilities_1_1FileUtilities_aa13f61e1f53c6376d993847528d4b07f.html#aa13f61e1f53c6376d993847528d4b07f" target="_top" xlink:title=" ">
<polygon fill="white" stroke="#666666" points="770,-78 614,-78 614,-48 770,-48 770,-78"/>
<text text-anchor="start" x="622" y="-66" font-family="Helvetica,sans-Serif" font-size="10.00">Terraria.Utilities.FileUtilities.</text>
<text text-anchor="middle" x="692" y="-55" font-family="Helvetica,sans-Serif" font-size="10.00">GetParentFolderPath</text>
</a>
</g>
</g>
<!-- Node7&#45;&gt;Node8 -->
<g id="edge7_Node000007_Node000008" class="edge">
<title>Node7&#45;&gt;Node8</title>
<g id="a_edge7_Node000007_Node000008"><a xlink:title=" ">
<path fill="none" stroke="#63b8ff" d="M578.01,-70.14C586.51,-69.6 595.21,-69.05 603.83,-68.51"/>
<polygon fill="#63b8ff" stroke="#63b8ff" points="604.12,-71.99 613.88,-67.87 603.68,-65.01 604.12,-71.99"/>
</a>
</g>
</g>
<!-- Node9 -->
<g id="Node000009" class="node">
<title>Node9</title>
<g id="a_Node000009"><a xlink:href="../../d7/de3/classTerraria_1_1Utilities_1_1FileUtilities_a4bad98794f0a9f69ecee01bd53403345.html#a4bad98794f0a9f69ecee01bd53403345" target="_top" xlink:title=" ">
<polygon fill="white" stroke="#666666" points="770,-30 614,-30 614,0 770,0 770,-30"/>
<text text-anchor="start" x="622" y="-18" font-family="Helvetica,sans-Serif" font-size="10.00">Terraria.Utilities.FileUtilities.</text>
<text text-anchor="middle" x="692" y="-7" font-family="Helvetica,sans-Serif" font-size="10.00">RemoveReadOnlyAttribute</text>
</a>
</g>
</g>
<!-- Node7&#45;&gt;Node9 -->
<g id="edge8_Node000007_Node000009" class="edge">
<title>Node7&#45;&gt;Node9</title>
<g id="a_edge8_Node000007_Node000009"><a xlink:title=" ">
<path fill="none" stroke="#63b8ff" d="M547.99,-59.96C568.28,-53.48 592.3,-45.84 614,-39 620.05,-37.09 626.36,-35.11 632.67,-33.14"/>
<polygon fill="#63b8ff" stroke="#63b8ff" points="634.02,-36.38 642.52,-30.06 631.93,-29.7 634.02,-36.38"/>
</a>
</g>
</g>
<!-- Node10 -->
<g id="Node000010" class="node">
<title>Node10</title>
<g id="a_Node000010"><a xlink:href="../../d1/d9c/classTerraria_1_1Utils_a20ff544f864fec62df413e995a9ca414.html#a20ff544f864fec62df413e995a9ca414" target="_top" xlink:title=" ">
<polygon fill="white" stroke="#666666" points="760.5,-126 623.5,-126 623.5,-96 760.5,-96 760.5,-126"/>
<text text-anchor="start" x="631.5" y="-114" font-family="Helvetica,sans-Serif" font-size="10.00">Terraria.Utils.TryCreating</text>
<text text-anchor="middle" x="692" y="-103" font-family="Helvetica,sans-Serif" font-size="10.00">Directory</text>
</a>
</g>
</g>
<!-- Node7&#45;&gt;Node10 -->
<g id="edge9_Node000007_Node000010" class="edge">
<title>Node7&#45;&gt;Node10</title>
<g id="a_edge9_Node000007_Node000010"><a xlink:title=" ">
<path fill="none" stroke="#63b8ff" d="M578.01,-89.59C589.62,-91.79 601.61,-94.06 613.24,-96.27"/>
<polygon fill="#63b8ff" stroke="#63b8ff" points="612.88,-99.76 623.35,-98.18 614.18,-92.88 612.88,-99.76"/>
</a>
</g>
</g>
<!-- Node11 -->
<g id="Node000011" class="node">
<title>Node11</title>
<g id="a_Node000011"><a xlink:href="../../dd/df7/classTerraria_1_1UI_1_1FancyErrorPrinter_ae0115236331d295adbc1e781728728f7.html#ae0115236331d295adbc1e781728728f7" target="_top" xlink:title=" ">
<polygon fill="white" stroke="#666666" points="975,-124 806,-124 806,-94 975,-94 975,-124"/>
<text text-anchor="start" x="814" y="-112" font-family="Helvetica,sans-Serif" font-size="10.00">Terraria.UI.FancyErrorPrinter.</text>
<text text-anchor="middle" x="890.5" y="-101" font-family="Helvetica,sans-Serif" font-size="10.00">ShowDirectoryCreationFailError</text>
</a>
</g>
</g>
<!-- Node10&#45;&gt;Node11 -->
<g id="edge10_Node000010_Node000011" class="edge">
<title>Node10&#45;&gt;Node11</title>
<g id="a_edge10_Node000010_Node000011"><a xlink:title=" ">
<path fill="none" stroke="#63b8ff" d="M760.62,-110.31C771.87,-110.2 783.72,-110.08 795.48,-109.96"/>
<polygon fill="#63b8ff" stroke="#63b8ff" points="795.81,-113.45 805.78,-109.85 795.74,-106.45 795.81,-113.45"/>
</a>
</g>
</g>
<!-- Node11&#45;&gt;Node3 -->
<g id="edge11_Node000011_Node000003" class="edge">
<title>Node11&#45;&gt;Node3</title>
<g id="a_edge11_Node000011_Node000003"><a xlink:title=" ">
<path fill="none" stroke="#63b8ff" d="M952.51,-124.15C960.21,-126.75 967.88,-129.7 975,-133 992.45,-141.09 993.65,-148.71 1011,-157 1014.99,-158.91 1019.17,-160.71 1023.44,-162.41"/>
<polygon fill="#63b8ff" stroke="#63b8ff" points="1022.26,-165.71 1032.85,-165.95 1024.72,-159.16 1022.26,-165.71"/>
</a>
</g>
</g>
<!-- Node11&#45;&gt;Node4 -->
<g id="edge12_Node000011_Node000004" class="edge">
<title>Node11&#45;&gt;Node4</title>
<g id="a_edge12_Node000011_Node000004"><a xlink:title=" ">
<path fill="none" stroke="#63b8ff" d="M975.19,-119.25C983.72,-120.29 992.39,-121.35 1000.94,-122.4"/>
<polygon fill="#63b8ff" stroke="#63b8ff" points="1000.57,-125.88 1010.92,-123.62 1001.42,-118.93 1000.57,-125.88"/>
</a>
</g>
</g>
<!-- Node11&#45;&gt;Node5 -->
<g id="edge13_Node000011_Node000005" class="edge">
<title>Node11&#45;&gt;Node5</title>
<g id="a_edge13_Node000011_Node000005"><a xlink:title=" ">
<path fill="none" stroke="#63b8ff" d="M975.19,-98.75C983.72,-97.71 992.39,-96.65 1000.94,-95.6"/>
<polygon fill="#63b8ff" stroke="#63b8ff" points="1001.42,-99.07 1010.92,-94.38 1000.57,-92.12 1001.42,-99.07"/>
</a>
</g>
</g>
</g>
</svg>
