<?xml version="1.0" encoding="UTF-8" standalone="no"?>
<!DOCTYPE svg PUBLIC "-//W3C//DTD SVG 1.1//EN"
 "http://www.w3.org/Graphics/SVG/1.1/DTD/svg11.dtd">
<!-- Generated by graphviz version 2.43.0 (0)
 -->
<!-- Title: Terraria.UI.GameInterfaceLayer Pages: 1 -->
<svg width="228pt" height="301pt"
 viewBox="0.00 0.00 228.00 301.00" xmlns="http://www.w3.org/2000/svg" xmlns:xlink="http://www.w3.org/1999/xlink">

<svg id="main" version="1.1" xmlns="http://www.w3.org/2000/svg" xmlns:xlink="http://www.w3.org/1999/xlink" xml:space="preserve" onload="init(evt)">
<style type="text/css"><![CDATA[
.node, .edge {opacity: 0.7;}
.node.selected, .edge.selected {opacity: 1;}
.edge:hover path { stroke: red; }
.edge:hover polygon { stroke: red; fill: red; }
]]></style>
<script type="application/ecmascript" xlink:href="../../svg.min.js"/>
<svg id="graph" class="graph">
<g id="graph0" class="graph" transform="scale(1 1) rotate(0) translate(4 297)">
<title>Terraria.UI.GameInterfaceLayer</title>
<!-- Node1 -->
<g id="Node000001" class="node">
<title>Node1</title>
<g id="a_Node000001"><a xlink:title=" ">
<polygon fill="#999999" stroke="transparent" points="190,-293 30,-293 30,-155 190,-155 190,-293"/>
<text text-anchor="start" x="46.5" y="-281" font-family="Helvetica,sans-Serif" font-size="10.00">Terraria.UI.GameInterface</text>
<text text-anchor="start" x="96" y="-270" font-family="Helvetica,sans-Serif" font-size="10.00">Layer</text>
<text text-anchor="start" x="34" y="-255" font-family="Helvetica,sans-Serif" font-size="10.00">+</text>
<text text-anchor="start" x="47" y="-255" font-family="Helvetica,sans-Serif" font-size="10.00">readonly string Name</text>
<text text-anchor="start" x="34" y="-240" font-family="Helvetica,sans-Serif" font-size="10.00">+</text>
<text text-anchor="start" x="47" y="-240" font-family="Helvetica,sans-Serif" font-size="10.00">InterfaceScaleType</text>
<text text-anchor="start" x="47" y="-229" font-family="Helvetica,sans-Serif" font-size="10.00"> ScaleType</text>
<text text-anchor="start" x="34" y="-214" font-family="Helvetica,sans-Serif" font-size="10.00">+</text>
<text text-anchor="start" x="47" y="-214" font-family="Helvetica,sans-Serif" font-size="10.00">GameInterfaceLayer</text>
<text text-anchor="start" x="47" y="-203" font-family="Helvetica,sans-Serif" font-size="10.00">(string name, InterfaceScale</text>
<text text-anchor="start" x="47" y="-192" font-family="Helvetica,sans-Serif" font-size="10.00">Type scaleType)</text>
<text text-anchor="start" x="34" y="-177" font-family="Helvetica,sans-Serif" font-size="10.00">+</text>
<text text-anchor="start" x="47" y="-177" font-family="Helvetica,sans-Serif" font-size="10.00">bool Draw()</text>
<text text-anchor="start" x="34" y="-162" font-family="Helvetica,sans-Serif" font-size="10.00">#</text>
<text text-anchor="start" x="47" y="-162" font-family="Helvetica,sans-Serif" font-size="10.00">virtual bool DrawSelf()</text>
<polygon fill="#666666" stroke="#666666" points="30,-265 30,-265 190,-265 190,-265 30,-265"/>
<polygon fill="#666666" stroke="#666666" points="30,-224 30,-224 45,-224 45,-224 30,-224"/>
<polygon fill="#666666" stroke="#666666" points="45,-224 45,-224 190,-224 190,-224 45,-224"/>
<polygon fill="none" stroke="#666666" points="30,-155 30,-293 190,-293 190,-155 30,-155"/>
</a>
</g>
</g>
<!-- Node2 -->
<g id="Node000002" class="node">
<title>Node2</title>
<g id="a_Node000002"><a xlink:href="../../d5/d76/classTerraria_1_1UI_1_1LegacyGameInterfaceLayer.html" target="_top" xlink:title=" ">
<polygon fill="white" stroke="transparent" points="220,-119 0,-119 0,0 220,0 220,-119"/>
<text text-anchor="start" x="29.5" y="-106.5" font-family="Helvetica,sans-Serif" font-size="10.00">Terraria.UI.LegacyGameInterface</text>
<text text-anchor="start" x="96" y="-95.5" font-family="Helvetica,sans-Serif" font-size="10.00">Layer</text>
<text text-anchor="start" x="6.5" y="-80.5" font-family="Helvetica,sans-Serif" font-size="10.00">&#45;</text>
<text text-anchor="start" x="17" y="-80.5" font-family="Helvetica,sans-Serif" font-size="10.00">GameInterfaceDrawMethod</text>
<text text-anchor="start" x="17" y="-69.5" font-family="Helvetica,sans-Serif" font-size="10.00"> _drawMethod</text>
<text text-anchor="start" x="4" y="-54.5" font-family="Helvetica,sans-Serif" font-size="10.00">+</text>
<text text-anchor="start" x="17" y="-54.5" font-family="Helvetica,sans-Serif" font-size="10.00">LegacyGameInterfaceLayer</text>
<text text-anchor="start" x="17" y="-43.5" font-family="Helvetica,sans-Serif" font-size="10.00">(string name, GameInterfaceDraw</text>
<text text-anchor="start" x="17" y="-32.5" font-family="Helvetica,sans-Serif" font-size="10.00">Method drawMethod, InterfaceScaleType</text>
<text text-anchor="start" x="17" y="-21.5" font-family="Helvetica,sans-Serif" font-size="10.00"> scaleType=InterfaceScaleType.Game)</text>
<text text-anchor="start" x="4" y="-6.5" font-family="Helvetica,sans-Serif" font-size="10.00">#</text>
<text text-anchor="start" x="17" y="-6.5" font-family="Helvetica,sans-Serif" font-size="10.00">override bool DrawSelf()</text>
<polygon fill="#666666" stroke="#666666" points="0,-90.5 0,-90.5 220,-90.5 220,-90.5 0,-90.5"/>
<polygon fill="#666666" stroke="#666666" points="0,-64.5 0,-64.5 15,-64.5 15,-64.5 0,-64.5"/>
<polygon fill="#666666" stroke="#666666" points="15,-64.5 15,-64.5 220,-64.5 220,-64.5 15,-64.5"/>
<polygon fill="none" stroke="#666666" points="0,0 0,-119 220,-119 220,0 0,0"/>
</a>
</g>
</g>
<!-- Node1&#45;&gt;Node2 -->
<g id="edge1_Node000001_Node000002" class="edge">
<title>Node1&#45;&gt;Node2</title>
<g id="a_edge1_Node000001_Node000002"><a xlink:title=" ">
<path fill="none" stroke="#63b8ff" d="M110,-144.54C110,-135.97 110,-127.36 110,-119.09"/>
<polygon fill="none" stroke="#63b8ff" points="106.5,-144.56 110,-154.56 113.5,-144.56 106.5,-144.56"/>
</a>
</g>
</g>
</g>
</svg>
</svg>

<style type='text/css'>
<![CDATA[
[data-mouse-over-selected='false'] { opacity: 0.7; }
[data-mouse-over-selected='true']  { opacity: 1.0; }
]]>
</style>
<script type="application/ecmascript"><![CDATA[
document.addEventListener('DOMContentLoaded', (event) => {
  highlightEdges();
  highlightAdjacentNodes();
});
]]></script>
</svg>
