<?xml version="1.0" encoding="UTF-8" standalone="no"?>
<!DOCTYPE svg PUBLIC "-//W3C//DTD SVG 1.1//EN"
 "http://www.w3.org/Graphics/SVG/1.1/DTD/svg11.dtd">
<!-- Generated by graphviz version 2.43.0 (0)
 -->
<!-- Title: Terraria.GameContent.UI.Elements.EmotesGroupListItem.EmotesGroupListItem Pages: 1 -->
<svg width="1029pt" height="390pt"
 viewBox="0.00 0.00 1029.00 390.00" xmlns="http://www.w3.org/2000/svg" xmlns:xlink="http://www.w3.org/1999/xlink">
<g id="graph0" class="graph" transform="scale(1 1) rotate(0) translate(4 386)">
<title>Terraria.GameContent.UI.Elements.EmotesGroupListItem.EmotesGroupListItem</title>
<!-- Node1 -->
<g id="Node000001" class="node">
<title>Node1</title>
<g id="a_Node000001"><a xlink:title=" ">
<polygon fill="#999999" stroke="#666666" points="174,-121.5 0,-121.5 0,-80.5 174,-80.5 174,-121.5"/>
<text text-anchor="start" x="8" y="-109.5" font-family="Helvetica,sans-Serif" font-size="10.00">Terraria.GameContent.UI.</text>
<text text-anchor="start" x="8" y="-98.5" font-family="Helvetica,sans-Serif" font-size="10.00">Elements.EmotesGroupListItem.</text>
<text text-anchor="middle" x="87" y="-87.5" font-family="Helvetica,sans-Serif" font-size="10.00">EmotesGroupListItem</text>
</a>
</g>
</g>
<!-- Node2 -->
<g id="Node000002" class="node">
<title>Node2</title>
<g id="a_Node000002"><a xlink:href="../../d7/d72/classTerraria_1_1UI_1_1UIElement_a4f78a3ab59b3dffcdc5b68328a46f103.html#a4f78a3ab59b3dffcdc5b68328a46f103" target="_top" xlink:title=" ">
<polygon fill="white" stroke="#666666" points="373.5,-201.5 212.5,-201.5 212.5,-182.5 373.5,-182.5 373.5,-201.5"/>
<text text-anchor="middle" x="293" y="-189.5" font-family="Helvetica,sans-Serif" font-size="10.00">Terraria.UI.UIElement.Append</text>
</a>
</g>
</g>
<!-- Node1&#45;&gt;Node2 -->
<g id="edge1_Node000001_Node000002" class="edge">
<title>Node1&#45;&gt;Node2</title>
<g id="a_edge1_Node000001_Node000002"><a xlink:title=" ">
<path fill="none" stroke="#63b8ff" d="M117.26,-121.74C141.19,-137.83 176.43,-159.58 210,-173 216.29,-175.52 222.99,-177.74 229.75,-179.7"/>
<polygon fill="#63b8ff" stroke="#63b8ff" points="229.08,-183.15 239.65,-182.39 230.91,-176.39 229.08,-183.15"/>
</a>
</g>
</g>
<!-- Node11 -->
<g id="Node000011" class="node">
<title>Node11</title>
<g id="a_Node000011"><a xlink:href="../../d8/d74/structTerraria_1_1UI_1_1StyleDimension_a401bd71d865c34b2d50a55dcc1a67384.html#a401bd71d865c34b2d50a55dcc1a67384" target="_top" xlink:title=" ">
<polygon fill="white" stroke="#666666" points="368,-164 218,-164 218,-134 368,-134 368,-164"/>
<text text-anchor="start" x="226" y="-152" font-family="Helvetica,sans-Serif" font-size="10.00">Terraria.UI.StyleDimension.</text>
<text text-anchor="middle" x="293" y="-141" font-family="Helvetica,sans-Serif" font-size="10.00">FromPixels</text>
</a>
</g>
</g>
<!-- Node1&#45;&gt;Node11 -->
<g id="edge11_Node000001_Node000011" class="edge">
<title>Node1&#45;&gt;Node11</title>
<g id="a_edge11_Node000001_Node000011"><a xlink:title=" ">
<path fill="none" stroke="#63b8ff" d="M174.22,-121.29C188.89,-124.74 204,-128.29 218.3,-131.66"/>
<polygon fill="#63b8ff" stroke="#63b8ff" points="217.53,-135.07 228.06,-133.96 219.13,-128.26 217.53,-135.07"/>
</a>
</g>
</g>
<!-- Node13 -->
<g id="Node000013" class="node">
<title>Node13</title>
<g id="a_Node000013"><a xlink:href="../../d8/d74/structTerraria_1_1UI_1_1StyleDimension_ad650694a90519412f5f2ba2dd5569b44.html#ad650694a90519412f5f2ba2dd5569b44" target="_top" xlink:title=" ">
<polygon fill="white" stroke="#666666" points="368,-116 218,-116 218,-86 368,-86 368,-116"/>
<text text-anchor="start" x="226" y="-104" font-family="Helvetica,sans-Serif" font-size="10.00">Terraria.UI.StyleDimension.</text>
<text text-anchor="middle" x="293" y="-93" font-family="Helvetica,sans-Serif" font-size="10.00">FromPixelsAndPercent</text>
</a>
</g>
</g>
<!-- Node1&#45;&gt;Node13 -->
<g id="edge13_Node000001_Node000013" class="edge">
<title>Node1&#45;&gt;Node13</title>
<g id="a_edge13_Node000001_Node000013"><a xlink:title=" ">
<path fill="none" stroke="#63b8ff" d="M174.22,-101C185.29,-101 196.62,-101 207.66,-101"/>
<polygon fill="#63b8ff" stroke="#63b8ff" points="207.71,-104.5 217.71,-101 207.71,-97.5 207.71,-104.5"/>
</a>
</g>
</g>
<!-- Node14 -->
<g id="Node000014" class="node">
<title>Node14</title>
<g id="a_Node000014"><a xlink:href="../../d8/d74/structTerraria_1_1UI_1_1StyleDimension_a93e6acf229427c6435d7ee83958efba0.html#a93e6acf229427c6435d7ee83958efba0" target="_top" xlink:title=" ">
<polygon fill="white" stroke="#666666" points="376,-67.5 210,-67.5 210,-48.5 376,-48.5 376,-67.5"/>
<text text-anchor="middle" x="293" y="-55.5" font-family="Helvetica,sans-Serif" font-size="10.00">Terraria.UI.StyleDimension.Set</text>
</a>
</g>
</g>
<!-- Node1&#45;&gt;Node14 -->
<g id="edge15_Node000001_Node000014" class="edge">
<title>Node1&#45;&gt;Node14</title>
<g id="a_edge15_Node000001_Node000014"><a xlink:title=" ">
<path fill="none" stroke="#63b8ff" d="M174.22,-82.83C195.42,-78.36 217.56,-73.69 236.85,-69.63"/>
<polygon fill="#63b8ff" stroke="#63b8ff" points="237.59,-73.05 246.65,-67.56 236.14,-66.2 237.59,-73.05"/>
</a>
</g>
</g>
<!-- Node15 -->
<g id="Node000015" class="node">
<title>Node15</title>
<g id="a_Node000015"><a xlink:href="../../d7/d72/classTerraria_1_1UI_1_1UIElement_af0511f4ddf033fdbf547690740e19d34.html#af0511f4ddf033fdbf547690740e19d34" target="_top" xlink:title=" ">
<polygon fill="white" stroke="#666666" points="363,-30 223,-30 223,0 363,0 363,-30"/>
<text text-anchor="start" x="231" y="-18" font-family="Helvetica,sans-Serif" font-size="10.00">Terraria.UI.UIElement.Set</text>
<text text-anchor="middle" x="293" y="-7" font-family="Helvetica,sans-Serif" font-size="10.00">Padding</text>
</a>
</g>
</g>
<!-- Node1&#45;&gt;Node15 -->
<g id="edge16_Node000001_Node000015" class="edge">
<title>Node1&#45;&gt;Node15</title>
<g id="a_edge16_Node000001_Node000015"><a xlink:title=" ">
<path fill="none" stroke="#63b8ff" d="M124.02,-80.46C147.89,-67.42 180.18,-50.82 210,-39 215.08,-36.98 220.41,-35.05 225.79,-33.22"/>
<polygon fill="#63b8ff" stroke="#63b8ff" points="227.1,-36.47 235.51,-30.03 224.92,-29.82 227.1,-36.47"/>
</a>
</g>
</g>
<!-- Node3 -->
<g id="Node000003" class="node">
<title>Node3</title>
<g id="a_Node000003"><a xlink:href="../../d7/d72/classTerraria_1_1UI_1_1UIElement_aa33dca6c66f9820ef270bc2e23ef1496.html#aa33dca6c66f9820ef270bc2e23ef1496" target="_top" xlink:title=" ">
<polygon fill="white" stroke="#666666" points="593,-256.5 412,-256.5 412,-237.5 593,-237.5 593,-256.5"/>
<text text-anchor="middle" x="502.5" y="-244.5" font-family="Helvetica,sans-Serif" font-size="10.00">Terraria.UI.UIElement.Recalculate</text>
</a>
</g>
</g>
<!-- Node2&#45;&gt;Node3 -->
<g id="edge2_Node000002_Node000003" class="edge">
<title>Node2&#45;&gt;Node3</title>
<g id="a_edge2_Node000002_Node000003"><a xlink:title=" ">
<path fill="none" stroke="#63b8ff" d="M330.14,-201.58C365,-210.82 417.88,-224.84 455.68,-234.85"/>
<polygon fill="#63b8ff" stroke="#63b8ff" points="454.86,-238.26 465.42,-237.44 456.65,-231.49 454.86,-238.26"/>
</a>
</g>
</g>
<!-- Node9 -->
<g id="Node000009" class="node">
<title>Node9</title>
<g id="a_Node000009"><a xlink:href="../../d7/d72/classTerraria_1_1UI_1_1UIElement_a336d1ad28adbb657010e263b19095502.html#a336d1ad28adbb657010e263b19095502" target="_top" xlink:title=" ">
<polygon fill="white" stroke="#666666" points="584.5,-189.5 420.5,-189.5 420.5,-170.5 584.5,-170.5 584.5,-189.5"/>
<text text-anchor="middle" x="502.5" y="-177.5" font-family="Helvetica,sans-Serif" font-size="10.00">Terraria.UI.UIElement.Remove</text>
</a>
</g>
</g>
<!-- Node2&#45;&gt;Node9 -->
<g id="edge9_Node000002_Node000009" class="edge">
<title>Node2&#45;&gt;Node9</title>
<g id="a_edge9_Node000002_Node000009"><a xlink:title=" ">
<path fill="none" stroke="#63b8ff" d="M373.63,-187.39C385.6,-186.7 398.01,-185.98 410.2,-185.28"/>
<polygon fill="#63b8ff" stroke="#63b8ff" points="410.58,-188.76 420.36,-184.69 410.18,-181.78 410.58,-188.76"/>
</a>
</g>
</g>
<!-- Node4 -->
<g id="Node000004" class="node">
<title>Node4</title>
<g id="a_Node000004"><a xlink:href="../../dc/dc4/classTerraria_1_1UI_1_1UserInterface_af1df38079c1c3550e041458b43a9aceb.html#af1df38079c1c3550e041458b43a9aceb" target="_top" xlink:title=" ">
<polygon fill="white" stroke="#666666" points="801.5,-382 662.5,-382 662.5,-352 801.5,-352 801.5,-382"/>
<text text-anchor="start" x="670.5" y="-370" font-family="Helvetica,sans-Serif" font-size="10.00">Terraria.UI.UserInterface.</text>
<text text-anchor="middle" x="732" y="-359" font-family="Helvetica,sans-Serif" font-size="10.00">GetDimensions</text>
</a>
</g>
</g>
<!-- Node3&#45;&gt;Node4 -->
<g id="edge3_Node000003_Node000004" class="edge">
<title>Node3&#45;&gt;Node4</title>
<g id="a_edge3_Node000003_Node000004"><a xlink:title=" ">
<path fill="none" stroke="#63b8ff" d="M512.94,-256.56C532.65,-275.95 580.4,-320 629,-343 636.5,-346.55 644.58,-349.6 652.77,-352.21"/>
<polygon fill="#63b8ff" stroke="#63b8ff" points="651.84,-355.59 662.43,-355.08 653.84,-348.88 651.84,-355.59"/>
</a>
</g>
</g>
<!-- Node5 -->
<g id="Node000005" class="node">
<title>Node5</title>
<g id="a_Node000005"><a xlink:href="../../d7/d72/classTerraria_1_1UI_1_1UIElement_a8cb8692a001e504adb564ae67833de3d.html#a8cb8692a001e504adb564ae67833de3d" target="_top" xlink:title=" ">
<polygon fill="white" stroke="#666666" points="835,-334 629,-334 629,-304 835,-304 835,-334"/>
<text text-anchor="start" x="637" y="-322" font-family="Helvetica,sans-Serif" font-size="10.00">Terraria.UI.UIElement.Get</text>
<text text-anchor="middle" x="732" y="-311" font-family="Helvetica,sans-Serif" font-size="10.00">DimensionsBasedOnParentDimensions</text>
</a>
</g>
</g>
<!-- Node3&#45;&gt;Node5 -->
<g id="edge4_Node000003_Node000005" class="edge">
<title>Node3&#45;&gt;Node5</title>
<g id="a_edge4_Node000003_Node000005"><a xlink:title=" ">
<path fill="none" stroke="#63b8ff" d="M525.85,-256.6C550.71,-267.02 592.21,-283.69 629,-295 636.34,-297.25 644.02,-299.42 651.75,-301.46"/>
<polygon fill="#63b8ff" stroke="#63b8ff" points="650.97,-304.87 661.53,-303.98 652.72,-298.09 650.97,-304.87"/>
</a>
</g>
</g>
<!-- Node7 -->
<g id="Node000007" class="node">
<title>Node7</title>
<g id="a_Node000007"><a xlink:href="../../d7/d72/classTerraria_1_1UI_1_1UIElement_a5ad03f5ce0e776511a3b7e4a29e16caf.html#a5ad03f5ce0e776511a3b7e4a29e16caf" target="_top" xlink:title=" ">
<polygon fill="white" stroke="#666666" points="802.5,-286 661.5,-286 661.5,-256 802.5,-256 802.5,-286"/>
<text text-anchor="start" x="669.5" y="-274" font-family="Helvetica,sans-Serif" font-size="10.00">Terraria.UI.UIElement.Get</text>
<text text-anchor="middle" x="732" y="-263" font-family="Helvetica,sans-Serif" font-size="10.00">InnerDimensions</text>
</a>
</g>
</g>
<!-- Node3&#45;&gt;Node7 -->
<g id="edge6_Node000003_Node000007" class="edge">
<title>Node3&#45;&gt;Node7</title>
<g id="a_edge6_Node000003_Node000007"><a xlink:title=" ">
<path fill="none" stroke="#63b8ff" d="M593.09,-256.45C612.27,-258.47 632.41,-260.6 651.2,-262.58"/>
<polygon fill="#63b8ff" stroke="#63b8ff" points="650.87,-266.07 661.18,-263.63 651.6,-259.1 650.87,-266.07"/>
</a>
</g>
</g>
<!-- Node8 -->
<g id="Node000008" class="node">
<title>Node8</title>
<g id="a_Node000008"><a xlink:href="../../d7/d72/classTerraria_1_1UI_1_1UIElement_a8bf52a8c33b045d1df8dbcc96bcbc818.html#a8bf52a8c33b045d1df8dbcc96bcbc818" target="_top" xlink:title=" ">
<polygon fill="white" stroke="#666666" points="822.5,-238 641.5,-238 641.5,-208 822.5,-208 822.5,-238"/>
<text text-anchor="start" x="649.5" y="-226" font-family="Helvetica,sans-Serif" font-size="10.00">Terraria.UI.UIElement.Recalculate</text>
<text text-anchor="middle" x="732" y="-215" font-family="Helvetica,sans-Serif" font-size="10.00">Children</text>
</a>
</g>
</g>
<!-- Node3&#45;&gt;Node8 -->
<g id="edge7_Node000003_Node000008" class="edge">
<title>Node3&#45;&gt;Node8</title>
<g id="a_edge7_Node000003_Node000008"><a xlink:title=" ">
<path fill="none" stroke="#63b8ff" d="M543.65,-237.47C568.05,-233.75 600.37,-229.87 631.29,-226.81"/>
<polygon fill="#63b8ff" stroke="#63b8ff" points="631.65,-230.3 641.26,-225.85 630.97,-223.33 631.65,-230.3"/>
</a>
</g>
</g>
<!-- Node6 -->
<g id="Node000006" class="node">
<title>Node6</title>
<g id="a_Node000006"><a xlink:href="../../d8/d74/structTerraria_1_1UI_1_1StyleDimension_acffa4ba4c6fbf99b983c8c59f17cc855.html#acffa4ba4c6fbf99b983c8c59f17cc855" target="_top" xlink:title=" ">
<polygon fill="white" stroke="#666666" points="1021,-334 871,-334 871,-304 1021,-304 1021,-334"/>
<text text-anchor="start" x="879" y="-322" font-family="Helvetica,sans-Serif" font-size="10.00">Terraria.UI.StyleDimension.</text>
<text text-anchor="middle" x="946" y="-311" font-family="Helvetica,sans-Serif" font-size="10.00">GetValue</text>
</a>
</g>
</g>
<!-- Node5&#45;&gt;Node6 -->
<g id="edge5_Node000005_Node000006" class="edge">
<title>Node5&#45;&gt;Node6</title>
<g id="a_edge5_Node000005_Node000006"><a xlink:title=" ">
<path fill="none" stroke="#63b8ff" d="M835.27,-319C843.78,-319 852.32,-319 860.67,-319"/>
<polygon fill="#63b8ff" stroke="#63b8ff" points="860.75,-322.5 870.75,-319 860.75,-315.5 860.75,-322.5"/>
</a>
</g>
</g>
<!-- Node8&#45;&gt;Node3 -->
<g id="edge8_Node000008_Node000003" class="edge">
<title>Node8&#45;&gt;Node3</title>
<g id="a_edge8_Node000008_Node000003"><a xlink:title=" ">
<path fill="none" stroke="#63b8ff" d="M650,-238.04C634.87,-239.88 618.9,-241.63 603.29,-243.18"/>
<polygon fill="#63b8ff" stroke="#63b8ff" points="602.71,-239.72 593.09,-244.16 603.38,-246.69 602.71,-239.72"/>
</a>
</g>
</g>
<!-- Node10 -->
<g id="Node000010" class="node">
<title>Node10</title>
<g id="a_Node000010"><a xlink:href="../../d7/d72/classTerraria_1_1UI_1_1UIElement_ac407afd27d2b68e6c175951c22e263b5.html#ac407afd27d2b68e6c175951c22e263b5" target="_top" xlink:title=" ">
<polygon fill="white" stroke="#666666" points="814,-190 650,-190 650,-160 814,-160 814,-190"/>
<text text-anchor="start" x="658" y="-178" font-family="Helvetica,sans-Serif" font-size="10.00">Terraria.UI.UIElement.Remove</text>
<text text-anchor="middle" x="732" y="-167" font-family="Helvetica,sans-Serif" font-size="10.00">Child</text>
</a>
</g>
</g>
<!-- Node9&#45;&gt;Node10 -->
<g id="edge10_Node000009_Node000010" class="edge">
<title>Node9&#45;&gt;Node10</title>
<g id="a_edge10_Node000009_Node000010"><a xlink:title=" ">
<path fill="none" stroke="#63b8ff" d="M584.67,-178.22C602.54,-177.82 621.59,-177.4 639.83,-177"/>
<polygon fill="#63b8ff" stroke="#63b8ff" points="639.94,-180.5 649.86,-176.78 639.79,-173.5 639.94,-180.5"/>
</a>
</g>
</g>
<!-- Node12 -->
<g id="Node000012" class="node">
<title>Node12</title>
<g id="a_Node000012"><a xlink:href="../../d8/d74/structTerraria_1_1UI_1_1StyleDimension_aa443ecdcb3b3f8237c37aac947d9ef9d.html#aa443ecdcb3b3f8237c37aac947d9ef9d" target="_top" xlink:title=" ">
<polygon fill="white" stroke="#666666" points="577.5,-140 427.5,-140 427.5,-110 577.5,-110 577.5,-140"/>
<text text-anchor="start" x="435.5" y="-128" font-family="Helvetica,sans-Serif" font-size="10.00">Terraria.UI.StyleDimension.</text>
<text text-anchor="middle" x="502.5" y="-117" font-family="Helvetica,sans-Serif" font-size="10.00">StyleDimension</text>
</a>
</g>
</g>
<!-- Node11&#45;&gt;Node12 -->
<g id="edge12_Node000011_Node000012" class="edge">
<title>Node11&#45;&gt;Node12</title>
<g id="a_edge12_Node000011_Node000012"><a xlink:title=" ">
<path fill="none" stroke="#63b8ff" d="M368.03,-140.44C384.03,-138.59 401.06,-136.62 417.42,-134.73"/>
<polygon fill="#63b8ff" stroke="#63b8ff" points="417.96,-138.19 427.5,-133.56 417.16,-131.23 417.96,-138.19"/>
</a>
</g>
</g>
<!-- Node13&#45;&gt;Node12 -->
<g id="edge14_Node000013_Node000012" class="edge">
<title>Node13&#45;&gt;Node12</title>
<g id="a_edge14_Node000013_Node000012"><a xlink:title=" ">
<path fill="none" stroke="#63b8ff" d="M368.03,-109.56C384.03,-111.41 401.06,-113.38 417.42,-115.27"/>
<polygon fill="#63b8ff" stroke="#63b8ff" points="417.16,-118.77 427.5,-116.44 417.96,-111.81 417.16,-118.77"/>
</a>
</g>
</g>
</g>
</svg>
