<?xml version="1.0" encoding="UTF-8" standalone="no"?>
<!DOCTYPE svg PUBLIC "-//W3C//DTD SVG 1.1//EN"
 "http://www.w3.org/Graphics/SVG/1.1/DTD/svg11.dtd">
<!-- Generated by graphviz version 2.43.0 (0)
 -->
<!-- Title: PortalHelper.GetPortalOutingPoint Pages: 1 -->
<svg width="532pt" height="66pt"
 viewBox="0.00 0.00 532.00 66.00" xmlns="http://www.w3.org/2000/svg" xmlns:xlink="http://www.w3.org/1999/xlink">
<g id="graph0" class="graph" transform="scale(1 1) rotate(0) translate(4 62)">
<title>PortalHelper.GetPortalOutingPoint</title>
<polygon fill="white" stroke="transparent" points="-4,4 -4,-62 528,-62 528,4 -4,4"/>
<!-- Node1 -->
<g id="node1" class="node">
<title>Node1</title>
<g id="a_node1"><a xlink:title=" ">
<polygon fill="#bfbfbf" stroke="black" points="366,-14 366,-44 524,-44 524,-14 366,-14"/>
<text text-anchor="start" x="374" y="-32" font-family="Helvetica,sans-Serif" font-size="10.00">PortalHelper.GetPortalOuting</text>
<text text-anchor="middle" x="445" y="-21" font-family="Helvetica,sans-Serif" font-size="10.00">Point</text>
</a>
</g>
</g>
<!-- Node2 -->
<g id="node2" class="node">
<title>Node2</title>
<g id="a_node2"><a xlink:href="../../d5/d4f/classPortalHelper_ad86a40f02fb88245b63b966687fc051f.html#ad86a40f02fb88245b63b966687fc051f" target="_top" xlink:title=" ">
<polygon fill="white" stroke="black" points="168,-14 168,-44 330,-44 330,-14 168,-14"/>
<text text-anchor="start" x="176" y="-32" font-family="Helvetica,sans-Serif" font-size="10.00">PortalHelper.TryGoingThrough</text>
<text text-anchor="middle" x="249" y="-21" font-family="Helvetica,sans-Serif" font-size="10.00">Portals</text>
</a>
</g>
</g>
<!-- Node1&#45;&gt;Node2 -->
<g id="edge1" class="edge">
<title>Node1&#45;&gt;Node2</title>
<path fill="none" stroke="midnightblue" d="M355.91,-29C347.31,-29 338.63,-29 330.12,-29"/>
<polygon fill="midnightblue" stroke="midnightblue" points="355.93,-32.5 365.93,-29 355.93,-25.5 355.93,-32.5"/>
</g>
<!-- Node3 -->
<g id="node3" class="node">
<title>Node3</title>
<g id="a_node3"><a xlink:href="../../de/d71/classNPC_a0b146376e3fa7cc97214d292a0c60d41.html#a0b146376e3fa7cc97214d292a0c60d41" target="_top" xlink:title=" ">
<polygon fill="white" stroke="black" points="5,-38.5 5,-57.5 127,-57.5 127,-38.5 5,-38.5"/>
<text text-anchor="middle" x="66" y="-45.5" font-family="Helvetica,sans-Serif" font-size="10.00">NPC.TryPortalJumping</text>
</a>
</g>
</g>
<!-- Node2&#45;&gt;Node3 -->
<g id="edge2" class="edge">
<title>Node2&#45;&gt;Node3</title>
<path fill="none" stroke="midnightblue" d="M157.82,-38.47C147.37,-39.56 136.91,-40.66 127.01,-41.7"/>
<polygon fill="midnightblue" stroke="midnightblue" points="158.24,-41.94 167.82,-37.42 157.51,-34.98 158.24,-41.94"/>
</g>
<!-- Node4 -->
<g id="node4" class="node">
<title>Node4</title>
<g id="a_node4"><a xlink:href="../../d2/d4b/classPlayer_a96cd9380c2b88db4966a030099b30121.html#a96cd9380c2b88db4966a030099b30121" target="_top" xlink:title=" ">
<polygon fill="white" stroke="black" points="0,-0.5 0,-19.5 132,-19.5 132,-0.5 0,-0.5"/>
<text text-anchor="middle" x="66" y="-7.5" font-family="Helvetica,sans-Serif" font-size="10.00">Player.TryPortalJumping</text>
</a>
</g>
</g>
<!-- Node2&#45;&gt;Node4 -->
<g id="edge3" class="edge">
<title>Node2&#45;&gt;Node4</title>
<path fill="none" stroke="midnightblue" d="M157.73,-19.52C149.12,-18.62 140.5,-17.72 132.19,-16.84"/>
<polygon fill="midnightblue" stroke="midnightblue" points="157.51,-23.02 167.82,-20.58 158.24,-16.06 157.51,-23.02"/>
</g>
</g>
</svg>
