<?xml version="1.0" encoding="UTF-8" standalone="no"?>
<!DOCTYPE svg PUBLIC "-//W3C//DTD SVG 1.1//EN"
 "http://www.w3.org/Graphics/SVG/1.1/DTD/svg11.dtd">
<!-- Generated by graphviz version 2.43.0 (0)
 -->
<!-- Title: CreditsRollSky Pages: 1 -->
<svg width="877pt" height="1261pt"
 viewBox="0.00 0.00 877.37 1261.00" xmlns="http://www.w3.org/2000/svg" xmlns:xlink="http://www.w3.org/1999/xlink">
<g id="graph0" class="graph" transform="scale(1 1) rotate(0) translate(4 1257)">
<title>CreditsRollSky</title>
<polygon fill="white" stroke="transparent" points="-4,4 -4,-1257 873.37,-1257 873.37,4 -4,4"/>
<!-- Node1 -->
<g id="node1" class="node">
<title>Node1</title>
<g id="a_node1"><a xlink:title=" ">
<polygon fill="#bfbfbf" stroke="black" points="280.37,-0.5 280.37,-222.5 460.37,-222.5 460.37,-0.5 280.37,-0.5"/>
<text text-anchor="middle" x="370.37" y="-210.5" font-family="Helvetica,sans-Serif" font-size="10.00">CreditsRollSky</text>
<polyline fill="none" stroke="black" points="280.37,-203.5 460.37,-203.5 "/>
<text text-anchor="start" x="288.37" y="-191.5" font-family="Helvetica,sans-Serif" font-size="10.00">+ int AmountOfTimeNeededFor</text>
<text text-anchor="start" x="288.37" y="-180.5" font-family="Helvetica,sans-Serif" font-size="10.00">FullPlay</text>
<polyline fill="none" stroke="black" points="280.37,-173.5 460.37,-173.5 "/>
<text text-anchor="start" x="288.37" y="-161.5" font-family="Helvetica,sans-Serif" font-size="10.00">+ CreditsRollSky()</text>
<text text-anchor="start" x="288.37" y="-150.5" font-family="Helvetica,sans-Serif" font-size="10.00">+ override void Update</text>
<text text-anchor="start" x="288.37" y="-139.5" font-family="Helvetica,sans-Serif" font-size="10.00">(GameTime gameTime)</text>
<text text-anchor="start" x="288.37" y="-128.5" font-family="Helvetica,sans-Serif" font-size="10.00">+ override void Draw</text>
<text text-anchor="start" x="288.37" y="-117.5" font-family="Helvetica,sans-Serif" font-size="10.00">(SpriteBatch spriteBatch,</text>
<text text-anchor="start" x="288.37" y="-106.5" font-family="Helvetica,sans-Serif" font-size="10.00"> float minDepth, float</text>
<text text-anchor="start" x="288.37" y="-95.5" font-family="Helvetica,sans-Serif" font-size="10.00"> maxDepth)</text>
<text text-anchor="start" x="288.37" y="-84.5" font-family="Helvetica,sans-Serif" font-size="10.00">+ override bool IsActive()</text>
<text text-anchor="start" x="288.37" y="-73.5" font-family="Helvetica,sans-Serif" font-size="10.00">+ override void Reset()</text>
<text text-anchor="start" x="288.37" y="-62.5" font-family="Helvetica,sans-Serif" font-size="10.00">+ override void Activate</text>
<text text-anchor="start" x="288.37" y="-51.5" font-family="Helvetica,sans-Serif" font-size="10.00">(Vector2 position, params</text>
<text text-anchor="start" x="288.37" y="-40.5" font-family="Helvetica,sans-Serif" font-size="10.00"> object[] args)</text>
<text text-anchor="start" x="288.37" y="-29.5" font-family="Helvetica,sans-Serif" font-size="10.00">+ override void Deactivate</text>
<text text-anchor="start" x="288.37" y="-18.5" font-family="Helvetica,sans-Serif" font-size="10.00">(params object[] args)</text>
<text text-anchor="start" x="288.37" y="-7.5" font-family="Helvetica,sans-Serif" font-size="10.00">&#45; void EnsureSegmentsAreMade()</text>
</a>
</g>
</g>
<!-- Node2 -->
<g id="node2" class="node">
<title>Node2</title>
<g id="a_node2"><a xlink:href="../../d2/d4e/classCustomSky.html" target="_top" xlink:title=" ">
<polygon fill="white" stroke="black" points="110.87,-496 110.87,-674 277.87,-674 277.87,-496 110.87,-496"/>
<text text-anchor="middle" x="194.37" y="-662" font-family="Helvetica,sans-Serif" font-size="10.00">CustomSky</text>
<polyline fill="none" stroke="black" points="110.87,-655 277.87,-655 "/>
<text text-anchor="middle" x="194.37" y="-643" font-family="Helvetica,sans-Serif" font-size="10.00"> </text>
<polyline fill="none" stroke="black" points="110.87,-636 277.87,-636 "/>
<text text-anchor="start" x="118.87" y="-624" font-family="Helvetica,sans-Serif" font-size="10.00">+ abstract void Update</text>
<text text-anchor="start" x="118.87" y="-613" font-family="Helvetica,sans-Serif" font-size="10.00">(GameTime gameTime)</text>
<text text-anchor="start" x="118.87" y="-602" font-family="Helvetica,sans-Serif" font-size="10.00">+ abstract void Draw</text>
<text text-anchor="start" x="118.87" y="-591" font-family="Helvetica,sans-Serif" font-size="10.00">(SpriteBatch spriteBatch,</text>
<text text-anchor="start" x="118.87" y="-580" font-family="Helvetica,sans-Serif" font-size="10.00"> float minDepth, float</text>
<text text-anchor="start" x="118.87" y="-569" font-family="Helvetica,sans-Serif" font-size="10.00"> maxDepth)</text>
<text text-anchor="start" x="118.87" y="-558" font-family="Helvetica,sans-Serif" font-size="10.00">+ abstract bool IsActive()</text>
<text text-anchor="start" x="118.87" y="-547" font-family="Helvetica,sans-Serif" font-size="10.00">+ abstract void Reset()</text>
<text text-anchor="start" x="118.87" y="-536" font-family="Helvetica,sans-Serif" font-size="10.00">+ virtual Color OnTileColor</text>
<text text-anchor="start" x="118.87" y="-525" font-family="Helvetica,sans-Serif" font-size="10.00">(Color inColor)</text>
<text text-anchor="start" x="118.87" y="-514" font-family="Helvetica,sans-Serif" font-size="10.00">+ virtual float GetCloudAlpha()</text>
<text text-anchor="start" x="118.87" y="-503" font-family="Helvetica,sans-Serif" font-size="10.00">+ override bool IsVisible()</text>
</a>
</g>
</g>
<!-- Node2&#45;&gt;Node1 -->
<g id="edge1" class="edge">
<title>Node2&#45;&gt;Node1</title>
<path fill="none" stroke="midnightblue" d="M223.19,-486.22C244.5,-416.93 275.43,-322.23 308.37,-241 310.79,-235.03 313.35,-228.95 316.01,-222.84"/>
<polygon fill="none" stroke="midnightblue" points="219.83,-485.24 220.24,-495.82 226.52,-487.29 219.83,-485.24"/>
</g>
<!-- Node3 -->
<g id="node3" class="node">
<title>Node3</title>
<g id="a_node3"><a xlink:href="../../d6/dda/classGameEffect.html" target="_top" xlink:title=" ">
<polygon fill="white" stroke="black" points="103.37,-1002.5 103.37,-1147.5 251.37,-1147.5 251.37,-1002.5 103.37,-1002.5"/>
<text text-anchor="middle" x="177.37" y="-1135.5" font-family="Helvetica,sans-Serif" font-size="10.00">GameEffect</text>
<polyline fill="none" stroke="black" points="103.37,-1128.5 251.37,-1128.5 "/>
<text text-anchor="start" x="111.37" y="-1116.5" font-family="Helvetica,sans-Serif" font-size="10.00">+ bool IsLoaded</text>
<text text-anchor="start" x="111.37" y="-1105.5" font-family="Helvetica,sans-Serif" font-size="10.00">+ EffectPriority Priority</text>
<polyline fill="none" stroke="black" points="103.37,-1098.5 251.37,-1098.5 "/>
<text text-anchor="start" x="111.37" y="-1086.5" font-family="Helvetica,sans-Serif" font-size="10.00">+ void Load()</text>
<text text-anchor="start" x="111.37" y="-1075.5" font-family="Helvetica,sans-Serif" font-size="10.00">+ virtual void OnLoad()</text>
<text text-anchor="start" x="111.37" y="-1064.5" font-family="Helvetica,sans-Serif" font-size="10.00">+ abstract bool IsVisible()</text>
<text text-anchor="start" x="111.37" y="-1053.5" font-family="Helvetica,sans-Serif" font-size="10.00">+ abstract void Activate</text>
<text text-anchor="start" x="111.37" y="-1042.5" font-family="Helvetica,sans-Serif" font-size="10.00">(Vector2 position, params</text>
<text text-anchor="start" x="111.37" y="-1031.5" font-family="Helvetica,sans-Serif" font-size="10.00"> object[] args)</text>
<text text-anchor="start" x="111.37" y="-1020.5" font-family="Helvetica,sans-Serif" font-size="10.00">+ abstract void Deactivate</text>
<text text-anchor="start" x="111.37" y="-1009.5" font-family="Helvetica,sans-Serif" font-size="10.00">(params object[] args)</text>
</a>
</g>
</g>
<!-- Node3&#45;&gt;Node2 -->
<g id="edge2" class="edge">
<title>Node3&#45;&gt;Node2</title>
<path fill="none" stroke="midnightblue" d="M180.22,-992.04C183.29,-903.97 188.15,-764.49 191.3,-674.11"/>
<polygon fill="none" stroke="midnightblue" points="176.72,-992.14 179.87,-1002.26 183.71,-992.38 176.72,-992.14"/>
</g>
<!-- Node4 -->
<g id="node4" class="node">
<title>Node4</title>
<g id="a_node4"><a xlink:title=" ">
<polygon fill="white" stroke="#bfbfbf" points="61.37,-1195.5 61.37,-1252.5 99.37,-1252.5 99.37,-1195.5 61.37,-1195.5"/>
<text text-anchor="middle" x="80.37" y="-1240.5" font-family="Helvetica,sans-Serif" font-size="10.00">float</text>
<polyline fill="none" stroke="#bfbfbf" points="61.37,-1233.5 99.37,-1233.5 "/>
<text text-anchor="middle" x="80.37" y="-1221.5" font-family="Helvetica,sans-Serif" font-size="10.00"> </text>
<polyline fill="none" stroke="#bfbfbf" points="61.37,-1214.5 99.37,-1214.5 "/>
<text text-anchor="middle" x="80.37" y="-1202.5" font-family="Helvetica,sans-Serif" font-size="10.00"> </text>
</a>
</g>
</g>
<!-- Node4&#45;&gt;Node1 -->
<g id="edge10" class="edge">
<title>Node4&#45;&gt;Node1</title>
<path fill="none" stroke="#404040" d="M72,-1195.43C37.2,-1075.16 -85.7,-588.12 101.37,-270 137.83,-207.99 208.96,-167.91 268.92,-143.71"/>
<polygon fill="none" stroke="#404040" points="269.19,-143.6 273.31,-137.69 280.36,-139.22 276.23,-145.14 269.19,-143.6"/>
<text text-anchor="middle" x="47.87" y="-948.5" font-family="Helvetica,sans-Serif" font-size="10.00"> &#45;_opacity</text>
</g>
<!-- Node4&#45;&gt;Node3 -->
<g id="edge3" class="edge">
<title>Node4&#45;&gt;Node3</title>
<path fill="none" stroke="#404040" d="M98.61,-1195.35C105.78,-1184.48 114.42,-1171.38 123.32,-1157.91"/>
<polygon fill="none" stroke="#404040" points="123.54,-1157.57 123.51,-1150.36 130.15,-1147.56 130.18,-1154.77 123.54,-1157.57"/>
<text text-anchor="middle" x="141.87" y="-1169" font-family="Helvetica,sans-Serif" font-size="10.00"> +Opacity</text>
</g>
<!-- Node5 -->
<g id="node5" class="node">
<title>Node5</title>
<g id="a_node5"><a xlink:title=" ">
<polygon fill="white" stroke="#bfbfbf" points="131.37,-1195.5 131.37,-1252.5 211.37,-1252.5 211.37,-1195.5 131.37,-1195.5"/>
<text text-anchor="middle" x="171.37" y="-1240.5" font-family="Helvetica,sans-Serif" font-size="10.00">EffectPriority</text>
<polyline fill="none" stroke="#bfbfbf" points="131.37,-1233.5 211.37,-1233.5 "/>
<text text-anchor="middle" x="171.37" y="-1221.5" font-family="Helvetica,sans-Serif" font-size="10.00"> </text>
<polyline fill="none" stroke="#bfbfbf" points="131.37,-1214.5 211.37,-1214.5 "/>
<text text-anchor="middle" x="171.37" y="-1202.5" font-family="Helvetica,sans-Serif" font-size="10.00"> </text>
</a>
</g>
</g>
<!-- Node5&#45;&gt;Node3 -->
<g id="edge4" class="edge">
<title>Node5&#45;&gt;Node3</title>
<path fill="none" stroke="#404040" d="M171.64,-1195.45C171.79,-1186.1 172.02,-1175.59 172.37,-1166 172.44,-1163.96 172.52,-1161.89 172.61,-1159.8"/>
<polygon fill="none" stroke="#404040" points="172.61,-1159.7 168.88,-1153.53 173.14,-1147.71 176.87,-1153.88 172.61,-1159.7"/>
<text text-anchor="middle" x="198.37" y="-1169" font-family="Helvetica,sans-Serif" font-size="10.00"> #_priority</text>
</g>
<!-- Node6 -->
<g id="node6" class="node">
<title>Node6</title>
<g id="a_node6"><a xlink:title=" ">
<polygon fill="white" stroke="#bfbfbf" points="266.37,-1195.5 266.37,-1252.5 304.37,-1252.5 304.37,-1195.5 266.37,-1195.5"/>
<text text-anchor="middle" x="285.37" y="-1240.5" font-family="Helvetica,sans-Serif" font-size="10.00">bool</text>
<polyline fill="none" stroke="#bfbfbf" points="266.37,-1233.5 304.37,-1233.5 "/>
<text text-anchor="middle" x="285.37" y="-1221.5" font-family="Helvetica,sans-Serif" font-size="10.00"> </text>
<polyline fill="none" stroke="#bfbfbf" points="266.37,-1214.5 304.37,-1214.5 "/>
<text text-anchor="middle" x="285.37" y="-1202.5" font-family="Helvetica,sans-Serif" font-size="10.00"> </text>
</a>
</g>
</g>
<!-- Node6&#45;&gt;Node1 -->
<g id="edge13" class="edge">
<title>Node6&#45;&gt;Node1</title>
<path fill="none" stroke="#404040" d="M301.36,-1195.5C304.16,-1189.57 306.71,-1183.21 308.37,-1177 332.11,-1088.09 356.37,-495.07 366.02,-234.7"/>
<polygon fill="none" stroke="#404040" points="366.03,-234.55 362.25,-228.4 366.47,-222.56 370.25,-228.7 366.03,-234.55"/>
<text text-anchor="middle" x="376.37" y="-954" font-family="Helvetica,sans-Serif" font-size="10.00"> &#45;_isActive</text>
<text text-anchor="middle" x="376.37" y="-943" font-family="Helvetica,sans-Serif" font-size="10.00">&#45;_wantsToBeSeen</text>
</g>
<!-- Node6&#45;&gt;Node3 -->
<g id="edge5" class="edge">
<title>Node6&#45;&gt;Node3</title>
<path fill="none" stroke="#404040" d="M266.04,-1200.38C259.93,-1193.03 253.25,-1184.76 247.37,-1177 242.61,-1170.72 237.76,-1164.14 232.96,-1157.49"/>
<polygon fill="none" stroke="#404040" points="232.94,-1157.48 226.2,-1154.93 225.96,-1147.72 232.7,-1150.27 232.94,-1157.48"/>
<text text-anchor="middle" x="277.87" y="-1169" font-family="Helvetica,sans-Serif" font-size="10.00"> #_isLoaded</text>
</g>
<!-- Node7 -->
<g id="node7" class="node">
<title>Node7</title>
<g id="a_node7"><a xlink:href="../../dc/d5e/classCreditsRollComposer.html" target="_top" xlink:title=" ">
<polygon fill="white" stroke="black" points="555.37,-270.5 555.37,-899.5 749.37,-899.5 749.37,-270.5 555.37,-270.5"/>
<text text-anchor="middle" x="652.37" y="-887.5" font-family="Helvetica,sans-Serif" font-size="10.00">CreditsRollComposer</text>
<polyline fill="none" stroke="black" points="555.37,-880.5 749.37,-880.5 "/>
<text text-anchor="middle" x="652.37" y="-868.5" font-family="Helvetica,sans-Serif" font-size="10.00"> </text>
<polyline fill="none" stroke="black" points="555.37,-861.5 749.37,-861.5 "/>
<text text-anchor="start" x="563.37" y="-849.5" font-family="Helvetica,sans-Serif" font-size="10.00">+ void FillSegments_Test</text>
<text text-anchor="start" x="563.37" y="-838.5" font-family="Helvetica,sans-Serif" font-size="10.00">(List&lt; IAnimationSegment</text>
<text text-anchor="start" x="563.37" y="-827.5" font-family="Helvetica,sans-Serif" font-size="10.00"> &gt; segmentsList, out int</text>
<text text-anchor="start" x="563.37" y="-816.5" font-family="Helvetica,sans-Serif" font-size="10.00"> endTime)</text>
<text text-anchor="start" x="563.37" y="-805.5" font-family="Helvetica,sans-Serif" font-size="10.00">+ void FillSegments(List</text>
<text text-anchor="start" x="563.37" y="-794.5" font-family="Helvetica,sans-Serif" font-size="10.00">&lt; IAnimationSegment &gt;</text>
<text text-anchor="start" x="563.37" y="-783.5" font-family="Helvetica,sans-Serif" font-size="10.00"> segmentsList, out int</text>
<text text-anchor="start" x="563.37" y="-772.5" font-family="Helvetica,sans-Serif" font-size="10.00"> endTime, bool inGame)</text>
<text text-anchor="start" x="563.37" y="-761.5" font-family="Helvetica,sans-Serif" font-size="10.00">&#45; delegate void AddNPCMethod</text>
<text text-anchor="start" x="563.37" y="-750.5" font-family="Helvetica,sans-Serif" font-size="10.00">(int npcType, Vector2 sceneAnchoe</text>
<text text-anchor="start" x="563.37" y="-739.5" font-family="Helvetica,sans-Serif" font-size="10.00">Position, int lookDirection,</text>
<text text-anchor="start" x="563.37" y="-728.5" font-family="Helvetica,sans-Serif" font-size="10.00"> int fromTime, int duration, int</text>
<text text-anchor="start" x="563.37" y="-717.5" font-family="Helvetica,sans-Serif" font-size="10.00"> timeToJumpAt)</text>
<text text-anchor="start" x="563.37" y="-706.5" font-family="Helvetica,sans-Serif" font-size="10.00">&#45; SegmentInforReport</text>
<text text-anchor="start" x="563.37" y="-695.5" font-family="Helvetica,sans-Serif" font-size="10.00"> PlaySegment_PrincessAndEveryone</text>
<text text-anchor="start" x="563.37" y="-684.5" font-family="Helvetica,sans-Serif" font-size="10.00">ThanksPlayer(int startTime,</text>
<text text-anchor="start" x="563.37" y="-673.5" font-family="Helvetica,sans-Serif" font-size="10.00"> Vector2 sceneAnchorPosition)</text>
<text text-anchor="start" x="563.37" y="-662.5" font-family="Helvetica,sans-Serif" font-size="10.00">&#45; void AddWavingNPC(int</text>
<text text-anchor="start" x="563.37" y="-651.5" font-family="Helvetica,sans-Serif" font-size="10.00"> npcType, Vector2 sceneAnchoe</text>
<text text-anchor="start" x="563.37" y="-640.5" font-family="Helvetica,sans-Serif" font-size="10.00">Position, int lookDirection,</text>
<text text-anchor="start" x="563.37" y="-629.5" font-family="Helvetica,sans-Serif" font-size="10.00"> int fromTime, int duration,</text>
<text text-anchor="start" x="563.37" y="-618.5" font-family="Helvetica,sans-Serif" font-size="10.00"> int timeToJumpAt)</text>
<text text-anchor="start" x="563.37" y="-607.5" font-family="Helvetica,sans-Serif" font-size="10.00">&#45; void AddEmote(Vector2</text>
<text text-anchor="start" x="563.37" y="-596.5" font-family="Helvetica,sans-Serif" font-size="10.00"> sceneAnchoePosition,</text>
<text text-anchor="start" x="563.37" y="-585.5" font-family="Helvetica,sans-Serif" font-size="10.00"> int fromTime, int duration,</text>
<text text-anchor="start" x="563.37" y="-574.5" font-family="Helvetica,sans-Serif" font-size="10.00"> int blinkTime, int emoteId,</text>
<text text-anchor="start" x="563.37" y="-563.5" font-family="Helvetica,sans-Serif" font-size="10.00"> int direction)</text>
<text text-anchor="start" x="563.37" y="-552.5" font-family="Helvetica,sans-Serif" font-size="10.00">&#45; SegmentInforReport</text>
<text text-anchor="start" x="563.37" y="-541.5" font-family="Helvetica,sans-Serif" font-size="10.00"> PlaySegment_TextRoll</text>
<text text-anchor="start" x="563.37" y="-530.5" font-family="Helvetica,sans-Serif" font-size="10.00">(int startTime, string</text>
<text text-anchor="start" x="563.37" y="-519.5" font-family="Helvetica,sans-Serif" font-size="10.00"> sourceCategory, Vector2</text>
<text text-anchor="start" x="563.37" y="-508.5" font-family="Helvetica,sans-Serif" font-size="10.00"> anchorOffset=default(Vector2))</text>
<text text-anchor="start" x="563.37" y="-497.5" font-family="Helvetica,sans-Serif" font-size="10.00">&#45; SegmentInforReport</text>
<text text-anchor="start" x="563.37" y="-486.5" font-family="Helvetica,sans-Serif" font-size="10.00"> PlaySegment_GuideEmotingAt</text>
<text text-anchor="start" x="563.37" y="-475.5" font-family="Helvetica,sans-Serif" font-size="10.00">RainbowPanel(int startTime)</text>
<text text-anchor="start" x="563.37" y="-464.5" font-family="Helvetica,sans-Serif" font-size="10.00">&#45; SegmentInforReport</text>
<text text-anchor="start" x="563.37" y="-453.5" font-family="Helvetica,sans-Serif" font-size="10.00"> PlaySegment_Grox_DryadSaying</text>
<text text-anchor="start" x="563.37" y="-442.5" font-family="Helvetica,sans-Serif" font-size="10.00">ByeToTavernKeep(int startTime,</text>
<text text-anchor="start" x="563.37" y="-431.5" font-family="Helvetica,sans-Serif" font-size="10.00"> Vector2 sceneAnchorPosition)</text>
<text text-anchor="start" x="563.37" y="-420.5" font-family="Helvetica,sans-Serif" font-size="10.00">&#45; SegmentInforReport</text>
<text text-anchor="start" x="563.37" y="-409.5" font-family="Helvetica,sans-Serif" font-size="10.00"> PlaySegment_Grox_Steampunker</text>
<text text-anchor="start" x="563.37" y="-398.5" font-family="Helvetica,sans-Serif" font-size="10.00">RepairingCyborg(int startTime,</text>
<text text-anchor="start" x="563.37" y="-387.5" font-family="Helvetica,sans-Serif" font-size="10.00"> Vector2 sceneAnchorPosition)</text>
<text text-anchor="start" x="563.37" y="-376.5" font-family="Helvetica,sans-Serif" font-size="10.00">&#45; SegmentInforReport</text>
<text text-anchor="start" x="563.37" y="-365.5" font-family="Helvetica,sans-Serif" font-size="10.00"> PlaySegment_Grox_SantaAnd</text>
<text text-anchor="start" x="563.37" y="-354.5" font-family="Helvetica,sans-Serif" font-size="10.00">TaxCollectorThrowingPresents</text>
<text text-anchor="start" x="563.37" y="-343.5" font-family="Helvetica,sans-Serif" font-size="10.00">(int startTime, Vector2 sceneAnchor</text>
<text text-anchor="start" x="563.37" y="-332.5" font-family="Helvetica,sans-Serif" font-size="10.00">Position)</text>
<text text-anchor="start" x="563.37" y="-321.5" font-family="Helvetica,sans-Serif" font-size="10.00">&#45; SegmentInforReport</text>
<text text-anchor="start" x="563.37" y="-310.5" font-family="Helvetica,sans-Serif" font-size="10.00"> PlaySegment_Grox_WitchDoctor</text>
<text text-anchor="start" x="563.37" y="-299.5" font-family="Helvetica,sans-Serif" font-size="10.00">GoingToHisPeople(int startTime,</text>
<text text-anchor="start" x="563.37" y="-288.5" font-family="Helvetica,sans-Serif" font-size="10.00"> Vector2 sceneAnchorPosition)</text>
<text text-anchor="start" x="563.37" y="-277.5" font-family="Helvetica,sans-Serif" font-size="10.00">and 12 more...</text>
</a>
</g>
</g>
<!-- Node7&#45;&gt;Node1 -->
<g id="edge6" class="edge">
<title>Node7&#45;&gt;Node1</title>
<path fill="none" stroke="#404040" d="M555.16,-292.36C550.74,-284.71 546.14,-277.24 541.37,-270 521.88,-240.46 495.69,-212.69 469.67,-188.93"/>
<polygon fill="none" stroke="#404040" points="469.42,-188.71 462.28,-187.68 460.48,-180.7 467.62,-181.72 469.42,-188.71"/>
<text text-anchor="middle" x="557.87" y="-244" font-family="Helvetica,sans-Serif" font-size="10.00"> &#45;_composer</text>
</g>
<!-- Node8 -->
<g id="node8" class="node">
<title>Node8</title>
<g id="a_node8"><a xlink:title=" ">
<polygon fill="white" stroke="#bfbfbf" points="358.87,-1046.5 358.87,-1103.5 511.87,-1103.5 511.87,-1046.5 358.87,-1046.5"/>
<text text-anchor="middle" x="435.37" y="-1091.5" font-family="Helvetica,sans-Serif" font-size="10.00">List&lt; IAnimationSegment &gt;</text>
<polyline fill="none" stroke="#bfbfbf" points="358.87,-1084.5 511.87,-1084.5 "/>
<text text-anchor="middle" x="435.37" y="-1072.5" font-family="Helvetica,sans-Serif" font-size="10.00"> </text>
<polyline fill="none" stroke="#bfbfbf" points="358.87,-1065.5 511.87,-1065.5 "/>
<text text-anchor="middle" x="435.37" y="-1053.5" font-family="Helvetica,sans-Serif" font-size="10.00"> </text>
</a>
</g>
</g>
<!-- Node8&#45;&gt;Node1 -->
<g id="edge11" class="edge">
<title>Node8&#45;&gt;Node1</title>
<path fill="none" stroke="#404040" d="M433.49,-1046.26C425.48,-927.82 393.88,-460.27 378.65,-235.05"/>
<polygon fill="none" stroke="#404040" points="378.64,-234.84 374.24,-229.12 377.83,-222.87 382.22,-228.58 378.64,-234.84"/>
<text text-anchor="middle" x="482.37" y="-588" font-family="Helvetica,sans-Serif" font-size="10.00"> &#45;_segmentsInGame</text>
<text text-anchor="middle" x="482.37" y="-577" font-family="Helvetica,sans-Serif" font-size="10.00">&#45;_segmentsInMainMenu</text>
</g>
<!-- Node8&#45;&gt;Node7 -->
<g id="edge7" class="edge">
<title>Node8&#45;&gt;Node7</title>
<path fill="none" stroke="#404040" d="M438.16,-1046.24C443.05,-1011.74 456.28,-953.12 491.37,-918 508.06,-901.29 524.71,-916.75 541.37,-900 543.31,-898.04 545.22,-896.05 547.1,-894.02"/>
<polygon fill="none" stroke="#404040" points="547.19,-893.92 548.16,-886.77 555.13,-884.92 554.16,-892.07 547.19,-893.92"/>
<text text-anchor="middle" x="521.87" y="-948.5" font-family="Helvetica,sans-Serif" font-size="10.00"> &#45;_segments</text>
</g>
<!-- Node9 -->
<g id="node9" class="node">
<title>Node9</title>
<g id="a_node9"><a xlink:title=" ">
<polygon fill="white" stroke="#bfbfbf" points="533.87,-1046.5 533.87,-1103.5 586.87,-1103.5 586.87,-1046.5 533.87,-1046.5"/>
<text text-anchor="middle" x="560.37" y="-1091.5" font-family="Helvetica,sans-Serif" font-size="10.00">Vector2</text>
<polyline fill="none" stroke="#bfbfbf" points="533.87,-1084.5 586.87,-1084.5 "/>
<text text-anchor="middle" x="560.37" y="-1072.5" font-family="Helvetica,sans-Serif" font-size="10.00"> </text>
<polyline fill="none" stroke="#bfbfbf" points="533.87,-1065.5 586.87,-1065.5 "/>
<text text-anchor="middle" x="560.37" y="-1053.5" font-family="Helvetica,sans-Serif" font-size="10.00"> </text>
</a>
</g>
</g>
<!-- Node9&#45;&gt;Node7 -->
<g id="edge8" class="edge">
<title>Node9&#45;&gt;Node7</title>
<path fill="none" stroke="#404040" d="M558.37,-1046.23C556.63,-1014.91 555.23,-962.54 561.37,-918 561.65,-915.91 561.95,-913.82 562.26,-911.73"/>
<polygon fill="none" stroke="#404040" points="562.29,-911.53 559.24,-904.99 564.1,-899.67 567.15,-906.21 562.29,-911.53"/>
<text text-anchor="middle" x="627.37" y="-976" font-family="Helvetica,sans-Serif" font-size="10.00"> &#45;_backgroundOffset</text>
<text text-anchor="start" x="561.37" y="-965" font-family="Helvetica,sans-Serif" font-size="10.00">&#45;_emoteBubbleOffsetWhen</text>
<text text-anchor="middle" x="627.37" y="-954" font-family="Helvetica,sans-Serif" font-size="10.00">OnLeft</text>
<text text-anchor="start" x="561.37" y="-943" font-family="Helvetica,sans-Serif" font-size="10.00">&#45;_emoteBubbleOffsetWhen</text>
<text text-anchor="middle" x="627.37" y="-932" font-family="Helvetica,sans-Serif" font-size="10.00">OnRight</text>
<text text-anchor="middle" x="627.37" y="-921" font-family="Helvetica,sans-Serif" font-size="10.00">&#45;_originAtBottom</text>
</g>
<!-- Node10 -->
<g id="node10" class="node">
<title>Node10</title>
<g id="a_node10"><a xlink:title=" ">
<polygon fill="white" stroke="#bfbfbf" points="735.87,-1046.5 735.87,-1103.5 764.87,-1103.5 764.87,-1046.5 735.87,-1046.5"/>
<text text-anchor="middle" x="750.37" y="-1091.5" font-family="Helvetica,sans-Serif" font-size="10.00">int</text>
<polyline fill="none" stroke="#bfbfbf" points="735.87,-1084.5 764.87,-1084.5 "/>
<text text-anchor="middle" x="750.37" y="-1072.5" font-family="Helvetica,sans-Serif" font-size="10.00"> </text>
<polyline fill="none" stroke="#bfbfbf" points="735.87,-1065.5 764.87,-1065.5 "/>
<text text-anchor="middle" x="750.37" y="-1053.5" font-family="Helvetica,sans-Serif" font-size="10.00"> </text>
</a>
</g>
</g>
<!-- Node10&#45;&gt;Node1 -->
<g id="edge12" class="edge">
<title>Node10&#45;&gt;Node1</title>
<path fill="none" stroke="#404040" d="M758.56,-1046.32C763.35,-1028.66 768.93,-1005.2 771.37,-984 774.72,-954.86 771.66,-947.33 771.37,-918 769.92,-773.98 840,-388.66 758.37,-270 694.18,-176.71 564.47,-138.64 472.73,-123.12"/>
<polygon fill="none" stroke="#404040" points="472.46,-123.08 465.9,-126.07 460.61,-121.17 467.17,-118.18 472.46,-123.08"/>
<text text-anchor="middle" x="833.37" y="-588" font-family="Helvetica,sans-Serif" font-size="10.00"> &#45;_currentTime</text>
<text text-anchor="middle" x="833.37" y="-577" font-family="Helvetica,sans-Serif" font-size="10.00">&#45;_endTime</text>
</g>
<!-- Node10&#45;&gt;Node7 -->
<g id="edge9" class="edge">
<title>Node10&#45;&gt;Node7</title>
<path fill="none" stroke="#404040" d="M738.16,-1046.1C730.9,-1028.57 722.04,-1005.3 716.37,-984 710.11,-960.5 704.37,-936.05 699.12,-911.34"/>
<polygon fill="none" stroke="#404040" points="699.12,-911.32 693.98,-906.27 696.67,-899.58 701.81,-904.63 699.12,-911.32"/>
<text text-anchor="middle" x="743.87" y="-948.5" font-family="Helvetica,sans-Serif" font-size="10.00"> &#45;_endTime</text>
</g>
</g>
</svg>
