<?xml version="1.0" encoding="UTF-8" standalone="no"?>
<!DOCTYPE svg PUBLIC "-//W3C//DTD SVG 1.1//EN"
 "http://www.w3.org/Graphics/SVG/1.1/DTD/svg11.dtd">
<!-- Generated by graphviz version 2.43.0 (0)
 -->
<!-- Title: Terraria.Player.RabbitOrderFrameHelper.ChangeToAIState Pages: 1 -->
<svg width="710pt" height="86pt"
 viewBox="0.00 0.00 710.00 86.00" xmlns="http://www.w3.org/2000/svg" xmlns:xlink="http://www.w3.org/1999/xlink">
<g id="graph0" class="graph" transform="scale(1 1) rotate(0) translate(4 82)">
<title>Terraria.Player.RabbitOrderFrameHelper.ChangeToAIState</title>
<!-- Node1 -->
<g id="Node000001" class="node">
<title>Node1</title>
<g id="a_Node000001"><a xlink:title=" ">
<polygon fill="#999999" stroke="#666666" points="164,-51 0,-51 0,-21 164,-21 164,-51"/>
<text text-anchor="start" x="8" y="-39" font-family="Helvetica,sans-Serif" font-size="10.00">Terraria.Player.RabbitOrder</text>
<text text-anchor="middle" x="82" y="-28" font-family="Helvetica,sans-Serif" font-size="10.00">FrameHelper.ChangeToAIState</text>
</a>
</g>
</g>
<!-- Node2 -->
<g id="Node000002" class="node">
<title>Node2</title>
<g id="a_Node000002"><a xlink:href="../../d0/d9f/structTerraria_1_1Player_1_1RabbitOrderFrameHelper_a9f6b2bfda5a6fbd03d35099f012dd64b.html#a9f6b2bfda5a6fbd03d35099f012dd64b" target="_top" xlink:title=" ">
<polygon fill="white" stroke="#666666" points="348,-73 200,-73 200,-43 348,-43 348,-73"/>
<text text-anchor="start" x="208" y="-61" font-family="Helvetica,sans-Serif" font-size="10.00">Terraria.Player.RabbitOrder</text>
<text text-anchor="middle" x="274" y="-50" font-family="Helvetica,sans-Serif" font-size="10.00">FrameHelper.Update</text>
</a>
</g>
</g>
<!-- Node1&#45;&gt;Node2 -->
<g id="edge1_Node000001_Node000002" class="edge">
<title>Node1&#45;&gt;Node2</title>
<g id="a_edge1_Node000001_Node000002"><a xlink:title=" ">
<path fill="none" stroke="#63b8ff" d="M164.13,-45.39C172.68,-46.38 181.39,-47.39 189.97,-48.39"/>
<polygon fill="#63b8ff" stroke="#63b8ff" points="189.62,-51.87 199.96,-49.54 190.42,-44.92 189.62,-51.87"/>
</a>
</g>
</g>
<!-- Node3 -->
<g id="Node000003" class="node">
<title>Node3</title>
<g id="a_Node000003"><a xlink:href="../../d9/db1/classTerraria_1_1Utilities_1_1UnifiedRandom_ac4ecc6320b69ab939b9c45eaf7d89000.html#ac4ecc6320b69ab939b9c45eaf7d89000" target="_top" xlink:title=" ">
<polygon fill="white" stroke="#666666" points="524,-78 392,-78 392,-48 524,-48 524,-78"/>
<text text-anchor="start" x="400" y="-66" font-family="Helvetica,sans-Serif" font-size="10.00">Terraria.Utilities.Unified</text>
<text text-anchor="middle" x="458" y="-55" font-family="Helvetica,sans-Serif" font-size="10.00">Random.Next</text>
</a>
</g>
</g>
<!-- Node2&#45;&gt;Node3 -->
<g id="edge2_Node000002_Node000003" class="edge">
<title>Node2&#45;&gt;Node3</title>
<g id="a_edge2_Node000002_Node000003"><a xlink:title=" ">
<path fill="none" stroke="#63b8ff" d="M348.24,-60.01C359.28,-60.32 370.69,-60.63 381.77,-60.93"/>
<polygon fill="#63b8ff" stroke="#63b8ff" points="381.74,-64.43 391.83,-61.21 381.93,-57.44 381.74,-64.43"/>
</a>
</g>
</g>
<!-- Node5 -->
<g id="Node000005" class="node">
<title>Node5</title>
<g id="a_Node000005"><a xlink:href="../../d0/d9f/structTerraria_1_1Player_1_1RabbitOrderFrameHelper_aa46d7f58cecddfe166c9e75926a9e46b.html#aa46d7f58cecddfe166c9e75926a9e46b" target="_top" xlink:title=" ">
<polygon fill="white" stroke="#666666" points="532,-30 384,-30 384,0 532,0 532,-30"/>
<text text-anchor="start" x="392" y="-18" font-family="Helvetica,sans-Serif" font-size="10.00">Terraria.Player.RabbitOrder</text>
<text text-anchor="middle" x="458" y="-7" font-family="Helvetica,sans-Serif" font-size="10.00">FrameHelper.UpdateFrame</text>
</a>
</g>
</g>
<!-- Node2&#45;&gt;Node5 -->
<g id="edge4_Node000002_Node000005" class="edge">
<title>Node2&#45;&gt;Node5</title>
<g id="a_edge4_Node000002_Node000005"><a xlink:title=" ">
<path fill="none" stroke="#63b8ff" d="M338.65,-42.96C353.06,-39.56 368.48,-35.91 383.27,-32.42"/>
<polygon fill="#63b8ff" stroke="#63b8ff" points="384.45,-35.74 393.38,-30.03 382.84,-28.92 384.45,-35.74"/>
</a>
</g>
</g>
<!-- Node4 -->
<g id="Node000004" class="node">
<title>Node4</title>
<g id="a_Node000004"><a xlink:href="../../d9/db1/classTerraria_1_1Utilities_1_1UnifiedRandom_a173f09196ff526b107c0223c2d58c59a.html#a173f09196ff526b107c0223c2d58c59a" target="_top" xlink:title=" ">
<polygon fill="white" stroke="#666666" points="702,-78 568,-78 568,-48 702,-48 702,-78"/>
<text text-anchor="start" x="576" y="-66" font-family="Helvetica,sans-Serif" font-size="10.00">Terraria.Utilities.Unified</text>
<text text-anchor="middle" x="635" y="-55" font-family="Helvetica,sans-Serif" font-size="10.00">Random.InternalSample</text>
</a>
</g>
</g>
<!-- Node3&#45;&gt;Node4 -->
<g id="edge3_Node000003_Node000004" class="edge">
<title>Node3&#45;&gt;Node4</title>
<g id="a_edge3_Node000003_Node000004"><a xlink:title=" ">
<path fill="none" stroke="#63b8ff" d="M524.16,-63C535.1,-63 546.54,-63 557.72,-63"/>
<polygon fill="#63b8ff" stroke="#63b8ff" points="557.91,-66.5 567.91,-63 557.91,-59.5 557.91,-66.5"/>
</a>
</g>
</g>
<!-- Node5&#45;&gt;Node1 -->
<g id="edge5_Node000005_Node000001" class="edge">
<title>Node5&#45;&gt;Node1</title>
<g id="a_edge5_Node000005_Node000001"><a xlink:title=" ">
<path fill="none" stroke="#63b8ff" d="M383.92,-19.1C323.96,-22.47 238.76,-27.25 174.31,-30.87"/>
<polygon fill="#63b8ff" stroke="#63b8ff" points="173.94,-27.39 164.15,-31.44 174.33,-34.38 173.94,-27.39"/>
</a>
</g>
</g>
</g>
</svg>
