<?xml version="1.0" encoding="UTF-8" standalone="no"?>
<!DOCTYPE svg PUBLIC "-//W3C//DTD SVG 1.1//EN"
 "http://www.w3.org/Graphics/SVG/1.1/DTD/svg11.dtd">
<!-- Generated by graphviz version 2.43.0 (0)
 -->
<!-- Title: Terraria.GameContent.Achievements.ItemPickupCondition.Create Pages: 1 -->
<svg width="1180pt" height="38pt"
 viewBox="0.00 0.00 1180.00 38.00" xmlns="http://www.w3.org/2000/svg" xmlns:xlink="http://www.w3.org/1999/xlink">
<g id="graph0" class="graph" transform="scale(1 1) rotate(0) translate(4 34)">
<title>Terraria.GameContent.Achievements.ItemPickupCondition.Create</title>
<!-- Node1 -->
<g id="Node000001" class="node">
<title>Node1</title>
<g id="a_Node000001"><a xlink:title=" ">
<polygon fill="#999999" stroke="#666666" points="200,-30 0,-30 0,0 200,0 200,-30"/>
<text text-anchor="start" x="8" y="-18" font-family="Helvetica,sans-Serif" font-size="10.00">Terraria.GameContent.Achievements.</text>
<text text-anchor="middle" x="100" y="-7" font-family="Helvetica,sans-Serif" font-size="10.00">ItemPickupCondition.Create</text>
</a>
</g>
</g>
<!-- Node2 -->
<g id="Node000002" class="node">
<title>Node2</title>
<g id="a_Node000002"><a xlink:href="../../d3/dd5/classTerraria_1_1GameContent_1_1Achievements_1_1ItemPickupCondition_a78affdf82d8fab7c0b623dced500ab35.html#a78affdf82d8fab7c0b623dced500ab35" target="_top" xlink:title=" ">
<polygon fill="white" stroke="#666666" points="457,-30 236,-30 236,0 457,0 457,-30"/>
<text text-anchor="start" x="244" y="-18" font-family="Helvetica,sans-Serif" font-size="10.00">Terraria.GameContent.Achievements.</text>
<text text-anchor="middle" x="346.5" y="-7" font-family="Helvetica,sans-Serif" font-size="10.00">ItemPickupCondition.ItemPickupCondition</text>
</a>
</g>
</g>
<!-- Node1&#45;&gt;Node2 -->
<g id="edge1_Node000001_Node000002" class="edge">
<title>Node1&#45;&gt;Node2</title>
<g id="a_edge1_Node000001_Node000002"><a xlink:title=" ">
<path fill="none" stroke="#63b8ff" d="M200.1,-15C208.56,-15 217.18,-15 225.79,-15"/>
<polygon fill="#63b8ff" stroke="#63b8ff" points="225.87,-18.5 235.87,-15 225.87,-11.5 225.87,-18.5"/>
</a>
</g>
</g>
<!-- Node3 -->
<g id="Node000003" class="node">
<title>Node3</title>
<g id="a_Node000003"><a xlink:href="../../d3/dd5/classTerraria_1_1GameContent_1_1Achievements_1_1ItemPickupCondition_afbec1a5eeeaf4d05b42118bafff002f8.html#afbec1a5eeeaf4d05b42118bafff002f8" target="_top" xlink:title=" ">
<polygon fill="white" stroke="#666666" points="693,-30 493,-30 493,0 693,0 693,-30"/>
<text text-anchor="start" x="501" y="-18" font-family="Helvetica,sans-Serif" font-size="10.00">Terraria.GameContent.Achievements.</text>
<text text-anchor="middle" x="593" y="-7" font-family="Helvetica,sans-Serif" font-size="10.00">ItemPickupCondition.ListenForPickup</text>
</a>
</g>
</g>
<!-- Node2&#45;&gt;Node3 -->
<g id="edge2_Node000002_Node000003" class="edge">
<title>Node2&#45;&gt;Node3</title>
<g id="a_edge2_Node000002_Node000003"><a xlink:title=" ">
<path fill="none" stroke="#63b8ff" d="M457.23,-15C465.63,-15 474.1,-15 482.49,-15"/>
<polygon fill="#63b8ff" stroke="#63b8ff" points="482.68,-18.5 492.68,-15 482.68,-11.5 482.68,-18.5"/>
</a>
</g>
</g>
<!-- Node4 -->
<g id="Node000004" class="node">
<title>Node4</title>
<g id="a_Node000004"><a xlink:href="../../d3/dd5/classTerraria_1_1GameContent_1_1Achievements_1_1ItemPickupCondition_a1d0025b33b5d21413615e17f5afd676c.html#a1d0025b33b5d21413615e17f5afd676c" target="_top" xlink:title=" ">
<polygon fill="white" stroke="#666666" points="942,-30 729,-30 729,0 942,0 942,-30"/>
<text text-anchor="start" x="737" y="-18" font-family="Helvetica,sans-Serif" font-size="10.00">Terraria.GameContent.Achievements.</text>
<text text-anchor="middle" x="835.5" y="-7" font-family="Helvetica,sans-Serif" font-size="10.00">ItemPickupCondition.ItemPickupListener</text>
</a>
</g>
</g>
<!-- Node3&#45;&gt;Node4 -->
<g id="edge3_Node000003_Node000004" class="edge">
<title>Node3&#45;&gt;Node4</title>
<g id="a_edge3_Node000003_Node000004"><a xlink:title=" ">
<path fill="none" stroke="#63b8ff" d="M693.21,-15C701.67,-15 710.28,-15 718.85,-15"/>
<polygon fill="#63b8ff" stroke="#63b8ff" points="718.9,-18.5 728.9,-15 718.9,-11.5 718.9,-18.5"/>
</a>
</g>
</g>
<!-- Node5 -->
<g id="Node000005" class="node">
<title>Node5</title>
<g id="a_Node000005"><a xlink:href="../../d5/dfd/classTerraria_1_1Achievements_1_1AchievementCondition_a3f198905c61195fd91c52526581f30fc.html#a3f198905c61195fd91c52526581f30fc" target="_top" xlink:title=" ">
<polygon fill="white" stroke="#666666" points="1172,-30 978,-30 978,0 1172,0 1172,-30"/>
<text text-anchor="start" x="986" y="-18" font-family="Helvetica,sans-Serif" font-size="10.00">Terraria.Achievements.Achievement</text>
<text text-anchor="middle" x="1075" y="-7" font-family="Helvetica,sans-Serif" font-size="10.00">Condition.Complete</text>
</a>
</g>
</g>
<!-- Node4&#45;&gt;Node5 -->
<g id="edge4_Node000004_Node000005" class="edge">
<title>Node4&#45;&gt;Node5</title>
<g id="a_edge4_Node000004_Node000005"><a xlink:title=" ">
<path fill="none" stroke="#63b8ff" d="M942.05,-15C950.51,-15 959.06,-15 967.52,-15"/>
<polygon fill="#63b8ff" stroke="#63b8ff" points="967.78,-18.5 977.78,-15 967.78,-11.5 967.78,-18.5"/>
</a>
</g>
</g>
</g>
</svg>
