<?xml version="1.0" encoding="UTF-8" standalone="no"?>
<!DOCTYPE svg PUBLIC "-//W3C//DTD SVG 1.1//EN"
 "http://www.w3.org/Graphics/SVG/1.1/DTD/svg11.dtd">
<!-- Generated by graphviz version 2.43.0 (0)
 -->
<!-- Title: Terraria.GameContent.UI.Chat.LegacyChatMonitor.DrawChat Pages: 1 -->
<!--zoomable 232 -->

<svg id="main" version="1.1" xmlns="http://www.w3.org/2000/svg" xmlns:xlink="http://www.w3.org/1999/xlink" xml:space="preserve" onload="init(evt)">
<style type="text/css"><![CDATA[
.node, .edge {opacity: 0.7;}
.node.selected, .edge.selected {opacity: 1;}
.edge:hover path { stroke: red; }
.edge:hover polygon { stroke: red; fill: red; }
]]></style>

<defs>
  <circle id="rim" cx="0" cy="0" r="7"/>
  <circle id="rim2" cx="0" cy="0" r="3.5"/>
  <g id="zoomPlus">
    <use xlink:href="#rim" fill="#404040"><set attributeName="fill" to="#808080" begin="zoomplus.mouseover" end="zoomplus.mouseout"/></use>
    <path d="M-4,0h8M0,-4v8" fill="none" stroke="white" stroke-width="1.5" pointer-events="none"/>
  </g>
  <g id="zoomMin">
    <use xlink:href="#rim" fill="#404040"><set attributeName="fill" to="#808080" begin="zoomminus.mouseover" end="zoomminus.mouseout"/></use>
    <path d="M-4,0h8" fill="none" stroke="white" stroke-width="1.5" pointer-events="none"/>
  </g>
  <g id="arrowUp" transform="translate(30 24)">
    <use xlink:href="#rim"/>
    <path pointer-events="none" fill="none" stroke="white" stroke-width="1.5" d="M0,-3.0v7 M-2.5,-0.5L0,-3.0L2.5,-0.5"/>
  </g>
  <g id="arrowRight" transform="rotate(90) translate(36 -43)">
    <use xlink:href="#rim"/>
    <path pointer-events="none" fill="none" stroke="white" stroke-width="1.5" d="M0,-3.0v7 M-2.5,-0.5L0,-3.0L2.5,-0.5"/>
  </g>
  <g id="arrowDown" transform="rotate(180) translate(-30 -48)">
    <use xlink:href="#rim"/>
    <path pointer-events="none" fill="none" stroke="white" stroke-width="1.5" d="M0,-3.0v7 M-2.5,-0.5L0,-3.0L2.5,-0.5"/>
  </g>
  <g id="arrowLeft" transform="rotate(270) translate(-36 17)">
    <use xlink:href="#rim"/>
    <path pointer-events="none" fill="none" stroke="white" stroke-width="1.5" d="M0,-3.0v7 M-2.5,-0.5L0,-3.0L2.5,-0.5"/>
  </g>
  <g id="resetDef">
    <use xlink:href="#rim2" fill="#404040"><set attributeName="fill" to="#808080" begin="reset.mouseover" end="reset.mouseout"/></use>
  </g>
</defs>
<script type="application/ecmascript">
var viewWidth = 1615;
var viewHeight = 232;
var sectionId = 'dynsection-0';
</script>
<script type="application/ecmascript" xlink:href="../../svg.min.js"/>
<svg id="graph" class="graph">
<g id="viewport">
<title>Terraria.GameContent.UI.Chat.LegacyChatMonitor.DrawChat</title>
<!-- Node1 -->
<g id="Node000001" class="node">
<title>Node1</title>
<g id="a_Node000001"><a xlink:title=" ">
<polygon fill="#999999" stroke="#666666" points="187,-79 0,-79 0,-49 187,-49 187,-79"/>
<text text-anchor="start" x="8" y="-67" font-family="Helvetica,sans-Serif" font-size="10.00">Terraria.GameContent.UI.</text>
<text text-anchor="middle" x="93.5" y="-56" font-family="Helvetica,sans-Serif" font-size="10.00">Chat.LegacyChatMonitor.DrawChat</text>
</a>
</g>
</g>
<!-- Node2 -->
<g id="Node000002" class="node">
<title>Node2</title>
<g id="a_Node000002"><a xlink:href="../../d7/df6/classTerraria_1_1UI_1_1Chat_1_1ChatManager_a7261cbc482b776957bb8f3615380fbf2.html#a7261cbc482b776957bb8f3615380fbf2" target="_top" xlink:title=" ">
<polygon fill="white" stroke="#666666" points="411,-127 223,-127 223,-97 411,-97 411,-127"/>
<text text-anchor="start" x="231" y="-115" font-family="Helvetica,sans-Serif" font-size="10.00">Terraria.UI.Chat.ChatManager.</text>
<text text-anchor="middle" x="317" y="-104" font-family="Helvetica,sans-Serif" font-size="10.00">DrawColorCodedStringWithShadow</text>
</a>
</g>
</g>
<!-- Node1&#45;&gt;Node2 -->
<g id="edge1_Node000001_Node000002" class="edge">
<title>Node1&#45;&gt;Node2</title>
<g id="a_edge1_Node000001_Node000002"><a xlink:title=" ">
<path fill="none" stroke="#63b8ff" d="M163.98,-79.06C187.07,-84.06 212.95,-89.67 236.72,-94.82"/>
<polygon fill="#63b8ff" stroke="#63b8ff" points="236.26,-98.3 246.77,-97 237.74,-91.46 236.26,-98.3"/>
</a>
</g>
</g>
<!-- Node13 -->
<g id="Node000013" class="node">
<title>Node13</title>
<g id="a_Node000013"><a xlink:href="../../d1/d46/classTerraria_1_1UI_1_1Chat_1_1TextSnippet_ac91ed6c84eca5618d641d89c9bb137e8.html#ac91ed6c84eca5618d641d89c9bb137e8" target="_top" xlink:title=" ">
<polygon fill="white" stroke="#666666" points="394.5,-79 239.5,-79 239.5,-49 394.5,-49 394.5,-79"/>
<text text-anchor="start" x="247.5" y="-67" font-family="Helvetica,sans-Serif" font-size="10.00">Terraria.UI.Chat.TextSnippet.</text>
<text text-anchor="middle" x="317" y="-56" font-family="Helvetica,sans-Serif" font-size="10.00">OnClick</text>
</a>
</g>
</g>
<!-- Node1&#45;&gt;Node13 -->
<g id="edge15_Node000001_Node000013" class="edge">
<title>Node1&#45;&gt;Node13</title>
<g id="a_edge15_Node000001_Node000013"><a xlink:title=" ">
<path fill="none" stroke="#63b8ff" d="M187.15,-64C201.18,-64 215.6,-64 229.48,-64"/>
<polygon fill="#63b8ff" stroke="#63b8ff" points="229.49,-67.5 239.49,-64 229.49,-60.5 229.49,-67.5"/>
</a>
</g>
</g>
<!-- Node14 -->
<g id="Node000014" class="node">
<title>Node14</title>
<g id="a_Node000014"><a xlink:href="../../d1/d46/classTerraria_1_1UI_1_1Chat_1_1TextSnippet_a40f1317cf3f045dcb3a8bb37fa14c21f.html#a40f1317cf3f045dcb3a8bb37fa14c21f" target="_top" xlink:title=" ">
<polygon fill="white" stroke="#666666" points="394.5,-31 239.5,-31 239.5,-1 394.5,-1 394.5,-31"/>
<text text-anchor="start" x="247.5" y="-19" font-family="Helvetica,sans-Serif" font-size="10.00">Terraria.UI.Chat.TextSnippet.</text>
<text text-anchor="middle" x="317" y="-8" font-family="Helvetica,sans-Serif" font-size="10.00">OnHover</text>
</a>
</g>
</g>
<!-- Node1&#45;&gt;Node14 -->
<g id="edge16_Node000001_Node000014" class="edge">
<title>Node1&#45;&gt;Node14</title>
<g id="a_edge16_Node000001_Node000014"><a xlink:title=" ">
<path fill="none" stroke="#63b8ff" d="M163.98,-48.94C187.07,-43.94 212.95,-38.33 236.72,-33.18"/>
<polygon fill="#63b8ff" stroke="#63b8ff" points="237.74,-36.54 246.77,-31 236.26,-29.7 237.74,-36.54"/>
</a>
</g>
</g>
<!-- Node3 -->
<g id="Node000003" class="node">
<title>Node3</title>
<g id="a_Node000003"><a xlink:href="../../d7/df6/classTerraria_1_1UI_1_1Chat_1_1ChatManager_a6c98dcde7ddfbad7c688abece0168bd5.html#a6c98dcde7ddfbad7c688abece0168bd5" target="_top" xlink:title=" ">
<polygon fill="white" stroke="#666666" points="811,-126 648,-126 648,-96 811,-96 811,-126"/>
<text text-anchor="start" x="656" y="-114" font-family="Helvetica,sans-Serif" font-size="10.00">Terraria.UI.Chat.ChatManager.</text>
<text text-anchor="middle" x="729.5" y="-103" font-family="Helvetica,sans-Serif" font-size="10.00">DrawColorCodedString</text>
</a>
</g>
</g>
<!-- Node2&#45;&gt;Node3 -->
<g id="edge2_Node000002_Node000003" class="edge">
<title>Node2&#45;&gt;Node3</title>
<g id="a_edge2_Node000002_Node000003"><a xlink:title=" ">
<path fill="none" stroke="#63b8ff" d="M411.01,-113.61C423.12,-113.77 435.35,-113.91 447,-114 520.33,-114.57 538.67,-114.94 612,-114 620.36,-113.89 629.06,-113.74 637.77,-113.56"/>
<polygon fill="#63b8ff" stroke="#63b8ff" points="638.05,-117.06 647.97,-113.34 637.9,-110.06 638.05,-117.06"/>
</a>
</g>
</g>
<!-- Node12 -->
<g id="Node000012" class="node">
<title>Node12</title>
<g id="a_Node000012"><a xlink:href="../../d7/df6/classTerraria_1_1UI_1_1Chat_1_1ChatManager_a1670663fb8873fdd4856644c9e72ed05.html#a1670663fb8873fdd4856644c9e72ed05" target="_top" xlink:title=" ">
<polygon fill="white" stroke="#666666" points="612,-105 447,-105 447,-75 612,-75 612,-105"/>
<text text-anchor="start" x="455" y="-93" font-family="Helvetica,sans-Serif" font-size="10.00">Terraria.UI.Chat.ChatManager.</text>
<text text-anchor="middle" x="529.5" y="-82" font-family="Helvetica,sans-Serif" font-size="10.00">DrawColorCodedStringShadow</text>
</a>
</g>
</g>
<!-- Node2&#45;&gt;Node12 -->
<g id="edge13_Node000002_Node000012" class="edge">
<title>Node2&#45;&gt;Node12</title>
<g id="a_edge13_Node000002_Node000012"><a xlink:title=" ">
<path fill="none" stroke="#63b8ff" d="M411.25,-102.25C419.69,-101.37 428.24,-100.48 436.67,-99.6"/>
<polygon fill="#63b8ff" stroke="#63b8ff" points="437.3,-103.05 446.88,-98.53 436.57,-96.09 437.3,-103.05"/>
</a>
</g>
</g>
<!-- Node4 -->
<g id="Node000004" class="node">
<title>Node4</title>
<g id="a_Node000004"><a xlink:href="../../d7/d82/classReLogic_1_1Graphics_1_1DynamicSpriteFontExtensionMethods_aee186b17df53a5edef1af24369a5ea89.html#aee186b17df53a5edef1af24369a5ea89" target="_top" xlink:title=" ">
<polygon fill="white" stroke="#666666" points="1032,-223.5 847,-223.5 847,-182.5 1032,-182.5 1032,-223.5"/>
<text text-anchor="start" x="855" y="-211.5" font-family="Helvetica,sans-Serif" font-size="10.00">ReLogic.Graphics.Dynamic</text>
<text text-anchor="start" x="855" y="-200.5" font-family="Helvetica,sans-Serif" font-size="10.00">SpriteFontExtensionMethods.Draw</text>
<text text-anchor="middle" x="939.5" y="-189.5" font-family="Helvetica,sans-Serif" font-size="10.00">String</text>
</a>
</g>
</g>
<!-- Node3&#45;&gt;Node4 -->
<g id="edge3_Node000003_Node000004" class="edge">
<title>Node3&#45;&gt;Node4</title>
<g id="a_edge3_Node000003_Node000004"><a xlink:title=" ">
<path fill="none" stroke="#63b8ff" d="M759.37,-126.02C782.74,-137.97 816.65,-154.8 847,-168 855.25,-171.59 863.99,-175.18 872.67,-178.64"/>
<polygon fill="#63b8ff" stroke="#63b8ff" points="871.46,-181.92 882.05,-182.32 874.02,-175.4 871.46,-181.92"/>
</a>
</g>
</g>
<!-- Node7 -->
<g id="Node000007" class="node">
<title>Node7</title>
<g id="a_Node000007"><a xlink:href="../../d1/df5/classReLogic_1_1Graphics_1_1DynamicSpriteFont_a49e4a12c0f6e26ca73b5c3d95d0197b2.html#a49e4a12c0f6e26ca73b5c3d95d0197b2" target="_top" xlink:title=" ">
<polygon fill="white" stroke="#666666" points="1414,-172 1267,-172 1267,-142 1414,-142 1414,-172"/>
<text text-anchor="start" x="1275" y="-160" font-family="Helvetica,sans-Serif" font-size="10.00">ReLogic.Graphics.Dynamic</text>
<text text-anchor="middle" x="1340.5" y="-149" font-family="Helvetica,sans-Serif" font-size="10.00">SpriteFont.MeasureString</text>
</a>
</g>
</g>
<!-- Node3&#45;&gt;Node7 -->
<g id="edge10_Node000003_Node000007" class="edge">
<title>Node3&#45;&gt;Node7</title>
<g id="a_edge10_Node000003_Node000007"><a xlink:title=" ">
<path fill="none" stroke="#63b8ff" d="M794.29,-126.04C811.33,-129.54 829.79,-132.86 847,-135 990.14,-152.83 1158.27,-156.72 1256.44,-157.29"/>
<polygon fill="#63b8ff" stroke="#63b8ff" points="1256.58,-160.79 1266.6,-157.34 1256.61,-153.79 1256.58,-160.79"/>
</a>
</g>
</g>
<!-- Node8 -->
<g id="Node000008" class="node">
<title>Node8</title>
<g id="a_Node000008"><a xlink:href="../../d1/d46/classTerraria_1_1UI_1_1Chat_1_1TextSnippet_a2a238e592a6a6c3ca3f65b94d92cbd51.html#a2a238e592a6a6c3ca3f65b94d92cbd51" target="_top" xlink:title=" ">
<polygon fill="white" stroke="#666666" points="1017,-126 862,-126 862,-96 1017,-96 1017,-126"/>
<text text-anchor="start" x="870" y="-114" font-family="Helvetica,sans-Serif" font-size="10.00">Terraria.UI.Chat.TextSnippet.</text>
<text text-anchor="middle" x="939.5" y="-103" font-family="Helvetica,sans-Serif" font-size="10.00">GetVisibleColor</text>
</a>
</g>
</g>
<!-- Node3&#45;&gt;Node8 -->
<g id="edge8_Node000003_Node000008" class="edge">
<title>Node3&#45;&gt;Node8</title>
<g id="a_edge8_Node000003_Node000008"><a xlink:title=" ">
<path fill="none" stroke="#63b8ff" d="M811.22,-111C824.5,-111 838.32,-111 851.75,-111"/>
<polygon fill="#63b8ff" stroke="#63b8ff" points="851.92,-114.5 861.92,-111 851.92,-107.5 851.92,-114.5"/>
</a>
</g>
</g>
<!-- Node10 -->
<g id="Node000010" class="node">
<title>Node10</title>
<g id="a_Node000010"><a xlink:href="../../d1/d46/classTerraria_1_1UI_1_1Chat_1_1TextSnippet_ab96d64e62f69c874525d5ee84303e7b7.html#ab96d64e62f69c874525d5ee84303e7b7" target="_top" xlink:title=" ">
<polygon fill="white" stroke="#666666" points="1017,-78 862,-78 862,-48 1017,-48 1017,-78"/>
<text text-anchor="start" x="870" y="-66" font-family="Helvetica,sans-Serif" font-size="10.00">Terraria.UI.Chat.TextSnippet.</text>
<text text-anchor="middle" x="939.5" y="-55" font-family="Helvetica,sans-Serif" font-size="10.00">UniqueDraw</text>
</a>
</g>
</g>
<!-- Node3&#45;&gt;Node10 -->
<g id="edge11_Node000003_Node000010" class="edge">
<title>Node3&#45;&gt;Node10</title>
<g id="a_edge11_Node000003_Node000010"><a xlink:title=" ">
<path fill="none" stroke="#63b8ff" d="M795.74,-95.94C817.23,-90.99 841.3,-85.43 863.46,-80.32"/>
<polygon fill="#63b8ff" stroke="#63b8ff" points="864.53,-83.66 873.49,-78 862.96,-76.84 864.53,-83.66"/>
</a>
</g>
</g>
<!-- Node11 -->
<g id="Node000011" class="node">
<title>Node11</title>
<g id="a_Node000011"><a xlink:href="../../d1/d46/classTerraria_1_1UI_1_1Chat_1_1TextSnippet_a4baf57ddf262c9535fdb7919c48b8c6b.html#a4baf57ddf262c9535fdb7919c48b8c6b" target="_top" xlink:title=" ">
<polygon fill="white" stroke="#666666" points="1017,-30 862,-30 862,0 1017,0 1017,-30"/>
<text text-anchor="start" x="870" y="-18" font-family="Helvetica,sans-Serif" font-size="10.00">Terraria.UI.Chat.TextSnippet.</text>
<text text-anchor="middle" x="939.5" y="-7" font-family="Helvetica,sans-Serif" font-size="10.00">Update</text>
</a>
</g>
</g>
<!-- Node3&#45;&gt;Node11 -->
<g id="edge12_Node000003_Node000011" class="edge">
<title>Node3&#45;&gt;Node11</title>
<g id="a_edge12_Node000003_Node000011"><a xlink:title=" ">
<path fill="none" stroke="#63b8ff" d="M750.94,-95.74C773.43,-79.59 811.16,-54.37 847,-39 851.78,-36.95 856.78,-35.04 861.88,-33.26"/>
<polygon fill="#63b8ff" stroke="#63b8ff" points="863.34,-36.47 871.74,-30.02 861.15,-29.82 863.34,-36.47"/>
</a>
</g>
</g>
<!-- Node5 -->
<g id="Node000005" class="node">
<title>Node5</title>
<g id="a_Node000005"><a xlink:href="../../d1/df5/classReLogic_1_1Graphics_1_1DynamicSpriteFont_ad2d5e1527f560e24c2b95640f0263e42.html#ad2d5e1527f560e24c2b95640f0263e42" target="_top" xlink:title=" ">
<polygon fill="white" stroke="#666666" points="1223,-215 1076,-215 1076,-185 1223,-185 1223,-215"/>
<text text-anchor="start" x="1084" y="-203" font-family="Helvetica,sans-Serif" font-size="10.00">ReLogic.Graphics.Dynamic</text>
<text text-anchor="middle" x="1149.5" y="-192" font-family="Helvetica,sans-Serif" font-size="10.00">SpriteFont.InternalDraw</text>
</a>
</g>
</g>
<!-- Node4&#45;&gt;Node5 -->
<g id="edge4_Node000004_Node000005" class="edge">
<title>Node4&#45;&gt;Node5</title>
<g id="a_edge4_Node000004_Node000005"><a xlink:title=" ">
<path fill="none" stroke="#63b8ff" d="M1032.03,-201.68C1043.3,-201.52 1054.76,-201.35 1065.89,-201.19"/>
<polygon fill="#63b8ff" stroke="#63b8ff" points="1066.04,-204.69 1075.99,-201.05 1065.94,-197.69 1066.04,-204.69"/>
</a>
</g>
</g>
<!-- Node6 -->
<g id="Node000006" class="node">
<title>Node6</title>
<g id="a_Node000006"><a xlink:href="../../d1/df5/classReLogic_1_1Graphics_1_1DynamicSpriteFont_a9bd1064ef52867d336c09d84817f9e34.html#a9bd1064ef52867d336c09d84817f9e34" target="_top" xlink:title=" ">
<polygon fill="white" stroke="#666666" points="1607,-193 1450,-193 1450,-163 1607,-163 1607,-193"/>
<text text-anchor="start" x="1458" y="-181" font-family="Helvetica,sans-Serif" font-size="10.00">ReLogic.Graphics.Dynamic</text>
<text text-anchor="middle" x="1528.5" y="-170" font-family="Helvetica,sans-Serif" font-size="10.00">SpriteFont.GetCharacterData</text>
</a>
</g>
</g>
<!-- Node5&#45;&gt;Node6 -->
<g id="edge5_Node000005_Node000006" class="edge">
<title>Node5&#45;&gt;Node6</title>
<g id="a_edge5_Node000005_Node000006"><a xlink:title=" ">
<path fill="none" stroke="#63b8ff" d="M1223.19,-195.76C1284.93,-192.16 1373.74,-186.97 1439.5,-183.14"/>
<polygon fill="#63b8ff" stroke="#63b8ff" points="1440.06,-186.61 1449.84,-182.53 1439.66,-179.62 1440.06,-186.61"/>
</a>
</g>
</g>
<!-- Node5&#45;&gt;Node7 -->
<g id="edge6_Node000005_Node000007" class="edge">
<title>Node5&#45;&gt;Node7</title>
<g id="a_edge6_Node000005_Node000007"><a xlink:title=" ">
<path fill="none" stroke="#63b8ff" d="M1216.6,-184.96C1231.71,-181.52 1247.88,-177.84 1263.37,-174.32"/>
<polygon fill="#63b8ff" stroke="#63b8ff" points="1264.46,-177.66 1273.43,-172.03 1262.91,-170.84 1264.46,-177.66"/>
</a>
</g>
</g>
<!-- Node7&#45;&gt;Node6 -->
<g id="edge7_Node000007_Node000006" class="edge">
<title>Node7&#45;&gt;Node6</title>
<g id="a_edge7_Node000007_Node000006"><a xlink:title=" ">
<path fill="none" stroke="#63b8ff" d="M1414.21,-165.21C1422.63,-166.16 1431.29,-167.14 1439.88,-168.11"/>
<polygon fill="#63b8ff" stroke="#63b8ff" points="1439.6,-171.6 1449.92,-169.24 1440.38,-164.64 1439.6,-171.6"/>
</a>
</g>
</g>
<!-- Node9 -->
<g id="Node000009" class="node">
<title>Node9</title>
<g id="a_Node000009"><a xlink:href="../../d7/df6/classTerraria_1_1UI_1_1Chat_1_1ChatManager_a6451fa8ddc87d8c5900b1ab75512c013.html#a6451fa8ddc87d8c5900b1ab75512c013" target="_top" xlink:title=" ">
<polygon fill="white" stroke="#666666" points="1231,-126 1068,-126 1068,-96 1231,-96 1231,-126"/>
<text text-anchor="start" x="1076" y="-114" font-family="Helvetica,sans-Serif" font-size="10.00">Terraria.UI.Chat.ChatManager.</text>
<text text-anchor="middle" x="1149.5" y="-103" font-family="Helvetica,sans-Serif" font-size="10.00">WaveColor</text>
</a>
</g>
</g>
<!-- Node8&#45;&gt;Node9 -->
<g id="edge9_Node000008_Node000009" class="edge">
<title>Node8&#45;&gt;Node9</title>
<g id="a_edge9_Node000008_Node000009"><a xlink:title=" ">
<path fill="none" stroke="#63b8ff" d="M1017.07,-111C1030.27,-111 1044.1,-111 1057.63,-111"/>
<polygon fill="#63b8ff" stroke="#63b8ff" points="1057.91,-114.5 1067.91,-111 1057.91,-107.5 1057.91,-114.5"/>
</a>
</g>
</g>
<!-- Node12&#45;&gt;Node3 -->
<g id="edge14_Node000012_Node000003" class="edge">
<title>Node12&#45;&gt;Node3</title>
<g id="a_edge14_Node000012_Node000003"><a xlink:title=" ">
<path fill="none" stroke="#63b8ff" d="M612.18,-98.66C620.68,-99.56 629.35,-100.48 637.94,-101.4"/>
<polygon fill="#63b8ff" stroke="#63b8ff" points="637.65,-104.88 647.97,-102.46 638.39,-97.92 637.65,-104.88"/>
</a>
</g>
</g>
</g>
</svg>

<g id="navigator" transform="translate(0 0)" fill="#404254">
  <rect fill="#f2f5e9" fill-opacity="0.5" stroke="#606060" stroke-width=".5" x="0" y="0" width="60" height="60"/>
  <use id="zoomplus" xlink:href="#zoomPlus" x="17" y="9" onmousedown="handleZoom(evt,'in')"/>
  <use id="zoomminus" xlink:href="#zoomMin" x="42" y="9" onmousedown="handleZoom(evt,'out')"/>
  <use id="reset" xlink:href="#resetDef" x="30" y="36" onmousedown="handleReset()"/>
   <use id="arrowup" xlink:href="#arrowUp" x="0" y="0" onmousedown="handlePan(0,-1)"/>
  <use id="arrowright" xlink:href="#arrowRight" x="0" y="0" onmousedown="handlePan(1,0)"/>
  <use id="arrowdown" xlink:href="#arrowDown" x="0" y="0" onmousedown="handlePan(0,1)"/>
  <use id="arrowleft" xlink:href="#arrowLeft" x="0" y="0" onmousedown="handlePan(-1,0)"/>
</g>
<svg viewBox="0 0 15 15" width="100%" height="30px" preserveAspectRatio="xMaxYMin meet">
 <g id="arrow_out" transform="scale(0.3 0.3)">
  <a xlink:href="classTerraria_1_1GameContent_1_1UI_1_1Chat_1_1LegacyChatMonitor_abe9e97e6e1d6c646c65243294e5e76df_abe9e97e6e1d6c646c65243294e5e76df_cgraph_org.svg" target="_base">
   <rect id="button" ry="5" rx="5" y="6" x="6" height="38" width="38"
        fill="#f2f5e9" fill-opacity="0.5" stroke="#606060" stroke-width="1.0"/>
   <path id="arrow"
     d="M 11.500037,31.436501 C 11.940474,20.09759 22.043105,11.32322 32.158766,21.979434 L 37.068811,17.246167 C 37.068811,17.246167 37.088388,32 37.088388,32 L 22.160133,31.978069 C 22.160133,31.978069 26.997745,27.140456 26.997745,27.140456 C 18.528582,18.264221 13.291696,25.230495 11.500037,31.436501 z"
     style="fill:#404040;"/>
  </a>
 </g>
</svg>

<style type='text/css'>
<![CDATA[
[data-mouse-over-selected='false'] { opacity: 0.7; }
[data-mouse-over-selected='true']  { opacity: 1.0; }
]]>
</style>
<script type="application/ecmascript"><![CDATA[
document.addEventListener('DOMContentLoaded', (event) => {
  highlightEdges();
  highlightAdjacentNodes();
});
]]></script>
</svg>
