<?xml version="1.0" encoding="UTF-8" standalone="no"?>
<!DOCTYPE svg PUBLIC "-//W3C//DTD SVG 1.1//EN"
 "http://www.w3.org/Graphics/SVG/1.1/DTD/svg11.dtd">
<!-- Generated by graphviz version 2.43.0 (0)
 -->
<!-- Title: Terraria.GameContent.ObjectInteractions.NPCSmartInteractCandidateProvider Pages: 1 -->
<svg width="468pt" height="389pt"
 viewBox="0.00 0.00 468.00 389.00" xmlns="http://www.w3.org/2000/svg" xmlns:xlink="http://www.w3.org/1999/xlink">
<g id="graph0" class="graph" transform="scale(1 1) rotate(0) translate(4 385)">
<title>Terraria.GameContent.ObjectInteractions.NPCSmartInteractCandidateProvider</title>
<!-- Node1 -->
<g id="Node000001" class="node">
<title>Node1</title>
<g id="a_Node000001"><a xlink:title=" ">
<polygon fill="#999999" stroke="transparent" points="272,-130 64,-130 64,0 272,0 272,-130"/>
<text text-anchor="start" x="69" y="-118" font-family="Helvetica,sans-Serif" font-size="10.00">Terraria.GameContent.Object</text>
<text text-anchor="start" x="69" y="-107" font-family="Helvetica,sans-Serif" font-size="10.00">Interactions.NPCSmartInteractCandidate</text>
<text text-anchor="start" x="147.5" y="-96" font-family="Helvetica,sans-Serif" font-size="10.00">Provider</text>
<text text-anchor="start" x="166" y="-81" font-family="Helvetica,sans-Serif" font-size="10.00"> </text>
<text text-anchor="start" x="68" y="-66" font-family="Helvetica,sans-Serif" font-size="10.00">+</text>
<text text-anchor="start" x="81" y="-66" font-family="Helvetica,sans-Serif" font-size="10.00">void ClearSelfAndPrepare</text>
<text text-anchor="start" x="81" y="-55" font-family="Helvetica,sans-Serif" font-size="10.00">ForCheck()</text>
<text text-anchor="start" x="68" y="-40" font-family="Helvetica,sans-Serif" font-size="10.00">+</text>
<text text-anchor="start" x="81" y="-40" font-family="Helvetica,sans-Serif" font-size="10.00">bool ProvideCandidate</text>
<text text-anchor="start" x="81" y="-29" font-family="Helvetica,sans-Serif" font-size="10.00">(SmartInteractScanSettings</text>
<text text-anchor="start" x="81" y="-18" font-family="Helvetica,sans-Serif" font-size="10.00"> settings, out ISmartInteractCandidate</text>
<text text-anchor="start" x="81" y="-7" font-family="Helvetica,sans-Serif" font-size="10.00"> candidate)</text>
<polygon fill="#666666" stroke="#666666" points="64,-91 64,-91 272,-91 272,-91 64,-91"/>
<polygon fill="#666666" stroke="#666666" points="64,-76 64,-76 272,-76 272,-76 64,-76"/>
<polygon fill="none" stroke="#666666" points="64,0 64,-130 272,-130 272,0 64,0"/>
</a>
</g>
</g>
<!-- Node2 -->
<g id="Node000002" class="node">
<title>Node2</title>
<g id="a_Node000002"><a xlink:href="../../da/ddc/interfaceTerraria_1_1GameContent_1_1ObjectInteractions_1_1ISmartInteractCandidateProvider.html" target="_top" xlink:title=" ">
<polygon fill="white" stroke="transparent" points="208,-285 0,-285 0,-177 208,-177 208,-285"/>
<text text-anchor="start" x="24" y="-273" font-family="Helvetica,sans-Serif" font-size="10.00">ISmartInteractCandidateProvider</text>
<text text-anchor="start" x="102" y="-258" font-family="Helvetica,sans-Serif" font-size="10.00"> </text>
<text text-anchor="start" x="4" y="-243" font-family="Helvetica,sans-Serif" font-size="10.00">+</text>
<text text-anchor="start" x="17" y="-243" font-family="Helvetica,sans-Serif" font-size="10.00">void ClearSelfAndPrepare</text>
<text text-anchor="start" x="17" y="-232" font-family="Helvetica,sans-Serif" font-size="10.00">ForCheck()</text>
<text text-anchor="start" x="4" y="-217" font-family="Helvetica,sans-Serif" font-size="10.00">+</text>
<text text-anchor="start" x="17" y="-217" font-family="Helvetica,sans-Serif" font-size="10.00">bool ProvideCandidate</text>
<text text-anchor="start" x="17" y="-206" font-family="Helvetica,sans-Serif" font-size="10.00">(SmartInteractScanSettings</text>
<text text-anchor="start" x="17" y="-195" font-family="Helvetica,sans-Serif" font-size="10.00"> settings, out ISmartInteractCandidate</text>
<text text-anchor="start" x="17" y="-184" font-family="Helvetica,sans-Serif" font-size="10.00"> candidate)</text>
<polygon fill="#666666" stroke="#666666" points="0,-268 0,-268 208,-268 208,-268 0,-268"/>
<polygon fill="#666666" stroke="#666666" points="0,-253 0,-253 208,-253 208,-253 0,-253"/>
<polygon fill="none" stroke="#666666" points="0,-177 0,-285 208,-285 208,-177 0,-177"/>
</a>
</g>
</g>
<!-- Node2&#45;&gt;Node1 -->
<g id="edge1_Node000001_Node000002" class="edge">
<title>Node2&#45;&gt;Node1</title>
<g id="a_edge1_Node000001_Node000002"><a xlink:title=" ">
<path fill="none" stroke="#63b8ff" d="M128.52,-167.17C133.25,-155.04 138.22,-142.31 142.97,-130.14"/>
<polygon fill="none" stroke="#63b8ff" points="125.15,-166.17 124.78,-176.75 131.67,-168.71 125.15,-166.17"/>
</a>
</g>
</g>
<!-- Node3 -->
<g id="Node000003" class="node">
<title>Node3</title>
<g id="a_Node000003"><a xlink:href="../../d4/d34/classTerraria_1_1GameContent_1_1ObjectInteractions_1_1NPCSmartInteractCandidateProvider_1_1ReusableCandidate.html" target="_top" xlink:title=" ">
<polygon fill="white" stroke="transparent" points="434,-279.5 226,-279.5 226,-182.5 434,-182.5 434,-279.5"/>
<text text-anchor="start" x="231" y="-267" font-family="Helvetica,sans-Serif" font-size="10.00">Terraria.GameContent.Object</text>
<text text-anchor="start" x="231" y="-256" font-family="Helvetica,sans-Serif" font-size="10.00">Interactions.NPCSmartInteractCandidate</text>
<text text-anchor="start" x="261" y="-245" font-family="Helvetica,sans-Serif" font-size="10.00">Provider.ReusableCandidate</text>
<text text-anchor="start" x="239.5" y="-230" font-family="Helvetica,sans-Serif" font-size="10.00">+</text>
<text text-anchor="start" x="262" y="-230" font-family="Helvetica,sans-Serif" font-size="10.00">float DistanceFromCursor</text>
<text text-anchor="start" x="239.5" y="-215" font-family="Helvetica,sans-Serif" font-size="10.00">+</text>
<text text-anchor="start" x="262" y="-215" font-family="Helvetica,sans-Serif" font-size="10.00">void WinCandidacy()</text>
<text text-anchor="start" x="239.5" y="-200" font-family="Helvetica,sans-Serif" font-size="10.00">+</text>
<text text-anchor="start" x="262" y="-200" font-family="Helvetica,sans-Serif" font-size="10.00">void Reuse(int npcIndex,</text>
<text text-anchor="start" x="262" y="-189" font-family="Helvetica,sans-Serif" font-size="10.00"> float npcDistanceFromCursor)</text>
<polygon fill="#666666" stroke="#666666" points="226,-240 226,-240 434,-240 434,-240 226,-240"/>
<polygon fill="#666666" stroke="#666666" points="226,-225 226,-225 260,-225 260,-225 226,-225"/>
<polygon fill="#666666" stroke="#666666" points="260,-225 260,-225 434,-225 434,-225 260,-225"/>
<polygon fill="none" stroke="#666666" points="226,-182.5 226,-279.5 434,-279.5 434,-182.5 226,-182.5"/>
</a>
</g>
</g>
<!-- Node3&#45;&gt;Node1 -->
<g id="edge2_Node000001_Node000003" class="edge">
<title>Node3&#45;&gt;Node1</title>
<g id="a_edge2_Node000001_Node000003"><a xlink:title=" ">
<path fill="none" stroke="#63b8ff" d="M282.71,-182.12C269.28,-168.53 254.35,-153.41 239.81,-138.7"/>
<polygon fill="none" stroke="#63b8ff" points="239.75,-138.64 232.69,-137.18 231.32,-130.1 238.38,-131.56 239.75,-138.64"/>
</a>
</g>
<text text-anchor="middle" x="288.5" y="-151" font-family="Helvetica,sans-Serif" font-size="10.00" fill="grey"> &#45;_candidate</text>
</g>
<!-- Node4 -->
<g id="Node000004" class="node">
<title>Node4</title>
<g id="a_Node000004"><a xlink:href="../../d5/d29/interfaceTerraria_1_1GameContent_1_1ObjectInteractions_1_1ISmartInteractCandidate.html" target="_top" xlink:title=" ">
<polygon fill="white" stroke="transparent" points="351.5,-381 206.5,-381 206.5,-332 351.5,-332 351.5,-381"/>
<text text-anchor="start" x="219.5" y="-368.5" font-family="Helvetica,sans-Serif" font-size="10.00">ISmartInteractCandidate</text>
<text text-anchor="start" x="211" y="-353.5" font-family="Helvetica,sans-Serif" font-size="10.00">+</text>
<text text-anchor="start" x="224" y="-353.5" font-family="Helvetica,sans-Serif" font-size="10.00">float DistanceFromCursor</text>
<text text-anchor="start" x="211" y="-338.5" font-family="Helvetica,sans-Serif" font-size="10.00">+</text>
<text text-anchor="start" x="224" y="-338.5" font-family="Helvetica,sans-Serif" font-size="10.00">void WinCandidacy()</text>
<polygon fill="#666666" stroke="#666666" points="207,-363.5 207,-363.5 352,-363.5 352,-363.5 207,-363.5"/>
<polygon fill="#666666" stroke="#666666" points="207,-348.5 207,-348.5 222,-348.5 222,-348.5 207,-348.5"/>
<polygon fill="#666666" stroke="#666666" points="222,-348.5 222,-348.5 352,-348.5 352,-348.5 222,-348.5"/>
<polygon fill="none" stroke="#666666" points="206.5,-332 206.5,-381 351.5,-381 351.5,-332 206.5,-332"/>
</a>
</g>
</g>
<!-- Node4&#45;&gt;Node3 -->
<g id="edge3_Node000003_Node000004" class="edge">
<title>Node4&#45;&gt;Node3</title>
<g id="a_edge3_Node000003_Node000004"><a xlink:title=" ">
<path fill="none" stroke="#63b8ff" d="M292.65,-322.44C298.07,-309.33 304.4,-294 310.29,-279.72"/>
<polygon fill="none" stroke="#63b8ff" points="289.29,-321.4 288.71,-331.98 295.76,-324.07 289.29,-321.4"/>
</a>
</g>
</g>
<!-- Node5 -->
<g id="Node000005" class="node">
<title>Node5</title>
<g id="a_Node000005"><a xlink:href="../../d1/da0/classint.html" target="_top" xlink:title=" ">
<polygon fill="white" stroke="transparent" points="392.5,-381 369.5,-381 369.5,-332 392.5,-332 392.5,-381"/>
<text text-anchor="start" x="375" y="-368.5" font-family="Helvetica,sans-Serif" font-size="10.00">int</text>
<text text-anchor="start" x="379.5" y="-353.5" font-family="Helvetica,sans-Serif" font-size="10.00"> </text>
<text text-anchor="start" x="379.5" y="-338.5" font-family="Helvetica,sans-Serif" font-size="10.00"> </text>
<polygon fill="#666666" stroke="#666666" points="370,-363.5 370,-363.5 393,-363.5 393,-363.5 370,-363.5"/>
<polygon fill="#666666" stroke="#666666" points="370,-348.5 370,-348.5 393,-348.5 393,-348.5 370,-348.5"/>
<polygon fill="none" stroke="#666666" points="369.5,-332 369.5,-381 392.5,-381 392.5,-332 369.5,-332"/>
</a>
</g>
</g>
<!-- Node5&#45;&gt;Node3 -->
<g id="edge4_Node000003_Node000005" class="edge">
<title>Node5&#45;&gt;Node3</title>
<g id="a_edge4_Node000003_Node000005"><a xlink:title=" ">
<path fill="none" stroke="#63b8ff" d="M371.29,-331.98C366.48,-320.33 360.43,-305.68 354.46,-291.22"/>
<polygon fill="none" stroke="#63b8ff" points="354.29,-290.82 348.3,-286.8 349.71,-279.72 355.7,-283.74 354.29,-290.82"/>
</a>
</g>
<text text-anchor="middle" x="411.5" y="-306" font-family="Helvetica,sans-Serif" font-size="10.00" fill="grey"> &#45;_npcIndexToTarget</text>
</g>
</g>
</svg>
