<?xml version="1.0" encoding="UTF-8" standalone="no"?>
<!DOCTYPE svg PUBLIC "-//W3C//DTD SVG 1.1//EN"
 "http://www.w3.org/Graphics/SVG/1.1/DTD/svg11.dtd">
<!-- Generated by graphviz version 2.43.0 (0)
 -->
<!-- Title: UIParticleLayer Pages: 1 -->
<!--zoomable 1074 -->
<svg id="main" version="1.1" xmlns="http://www.w3.org/2000/svg" xmlns:xlink="http://www.w3.org/1999/xlink" xml:space="preserve" onload="init(evt)">
<style type="text/css"><![CDATA[
.edge:hover path { stroke: red; }
.edge:hover polygon { stroke: red; fill: red; }
]]></style>
<script type="text/javascript"><![CDATA[
var edges = document.getElementsByTagName('g');
if (edges && edges.length) {
  for (var i=0;i<edges.length;i++) {
    if (edges[i].id.substr(0,4)=='edge') {
      edges[i].setAttribute('class','edge');
    }
  }
}
]]></script>
        <defs>
                <circle id="rim" cx="0" cy="0" r="7"/>
                <circle id="rim2" cx="0" cy="0" r="3.5"/>
                <g id="zoomPlus">
                        <use xlink:href="#rim" fill="#404040">
                                <set attributeName="fill" to="#808080" begin="zoomplus.mouseover" end="zoomplus.mouseout"/>
                        </use>
                        <path d="M-4,0h8M0,-4v8" fill="none" stroke="white" stroke-width="1.5" pointer-events="none"/>
                </g>
                <g id="zoomMin">
                        <use xlink:href="#rim" fill="#404040">
                                <set attributeName="fill" to="#808080" begin="zoomminus.mouseover" end="zoomminus.mouseout"/>
                        </use>
                        <path d="M-4,0h8" fill="none" stroke="white" stroke-width="1.5" pointer-events="none"/>
                </g>
                <g id="dirArrow">
                        <path fill="none" stroke="white" stroke-width="1.5" d="M0,-3.0v7 M-2.5,-0.5L0,-3.0L2.5,-0.5"/>
                </g>
               <g id="resetDef">
                       <use xlink:href="#rim2" fill="#404040">
                               <set attributeName="fill" to="#808080" begin="reset.mouseover" end="reset.mouseout"/>
                       </use>
               </g>
        </defs>

<script type="text/javascript">
var viewWidth = 1740;
var viewHeight = 1074;
var sectionId = 'dynsection-1';
</script>
<script xlink:href="../../svgpan.js"/>
<svg id="graph" class="graph">
<g id="viewport">
<title>UIParticleLayer</title>
<polygon fill="white" stroke="transparent" points="-4,4 -4,-1070 1736,-1070 1736,4 -4,4"/>
<!-- Node1 -->
<g id="node1" class="node">
<title>Node1</title>
<g id="a_node1"><a xlink:title=" ">
<polygon fill="#bfbfbf" stroke="black" points="1337.5,-0.5 1337.5,-145.5 1497.5,-145.5 1497.5,-0.5 1337.5,-0.5"/>
<text text-anchor="middle" x="1417.5" y="-133.5" font-family="Helvetica,sans-Serif" font-size="10.00">UIParticleLayer</text>
<polyline fill="none" stroke="black" points="1337.5,-126.5 1497.5,-126.5 "/>
<text text-anchor="middle" x="1417.5" y="-114.5" font-family="Helvetica,sans-Serif" font-size="10.00"> </text>
<polyline fill="none" stroke="black" points="1337.5,-107.5 1497.5,-107.5 "/>
<text text-anchor="start" x="1345.5" y="-95.5" font-family="Helvetica,sans-Serif" font-size="10.00">+ UIParticleLayer()</text>
<text text-anchor="start" x="1345.5" y="-84.5" font-family="Helvetica,sans-Serif" font-size="10.00">+ override void Recalculate()</text>
<text text-anchor="start" x="1345.5" y="-73.5" font-family="Helvetica,sans-Serif" font-size="10.00">+ void AddParticle(IParticle</text>
<text text-anchor="start" x="1345.5" y="-62.5" font-family="Helvetica,sans-Serif" font-size="10.00"> particle)</text>
<text text-anchor="start" x="1345.5" y="-51.5" font-family="Helvetica,sans-Serif" font-size="10.00">+ void ClearParticles()</text>
<text text-anchor="start" x="1345.5" y="-40.5" font-family="Helvetica,sans-Serif" font-size="10.00"># override void DrawSelf</text>
<text text-anchor="start" x="1345.5" y="-29.5" font-family="Helvetica,sans-Serif" font-size="10.00">(SpriteBatch spriteBatch)</text>
<text text-anchor="start" x="1345.5" y="-18.5" font-family="Helvetica,sans-Serif" font-size="10.00">&#45; void ParticleSystemUpdate</text>
<text text-anchor="start" x="1345.5" y="-7.5" font-family="Helvetica,sans-Serif" font-size="10.00">(UIElement affectedElement)</text>
</a>
</g>
</g>
<!-- Node2 -->
<g id="node2" class="node">
<title>Node2</title>
<g id="a_node2"><a xlink:href="../../de/db3/classUIElement.html" target="_top" xlink:title=" ">
<polygon fill="white" stroke="black" points="697.5,-193.5 697.5,-613.5 901.5,-613.5 901.5,-193.5 697.5,-193.5"/>
<text text-anchor="middle" x="799.5" y="-601.5" font-family="Helvetica,sans-Serif" font-size="10.00">UIElement</text>
<polyline fill="none" stroke="black" points="697.5,-594.5 901.5,-594.5 "/>
<text text-anchor="start" x="705.5" y="-582.5" font-family="Helvetica,sans-Serif" font-size="10.00">+ UIElement Parent</text>
<text text-anchor="start" x="705.5" y="-571.5" font-family="Helvetica,sans-Serif" font-size="10.00">+ int UniqueId</text>
<text text-anchor="start" x="705.5" y="-560.5" font-family="Helvetica,sans-Serif" font-size="10.00">+ IEnumerable&lt; UIElement</text>
<text text-anchor="start" x="705.5" y="-549.5" font-family="Helvetica,sans-Serif" font-size="10.00"> &gt; Children</text>
<text text-anchor="start" x="705.5" y="-538.5" font-family="Helvetica,sans-Serif" font-size="10.00">+ bool IsMouseHovering</text>
<polyline fill="none" stroke="black" points="697.5,-531.5 901.5,-531.5 "/>
<text text-anchor="start" x="705.5" y="-519.5" font-family="Helvetica,sans-Serif" font-size="10.00">+ delegate void MouseEvent</text>
<text text-anchor="start" x="705.5" y="-508.5" font-family="Helvetica,sans-Serif" font-size="10.00">(UIMouseEvent evt, UIElement</text>
<text text-anchor="start" x="705.5" y="-497.5" font-family="Helvetica,sans-Serif" font-size="10.00"> listeningElement)</text>
<text text-anchor="start" x="705.5" y="-486.5" font-family="Helvetica,sans-Serif" font-size="10.00">+ delegate void ScrollWheel</text>
<text text-anchor="start" x="705.5" y="-475.5" font-family="Helvetica,sans-Serif" font-size="10.00">Event(UIScrollWheelEvent</text>
<text text-anchor="start" x="705.5" y="-464.5" font-family="Helvetica,sans-Serif" font-size="10.00"> evt, UIElement listeningElement)</text>
<text text-anchor="start" x="705.5" y="-453.5" font-family="Helvetica,sans-Serif" font-size="10.00">+ delegate void ElementEvent</text>
<text text-anchor="start" x="705.5" y="-442.5" font-family="Helvetica,sans-Serif" font-size="10.00">(UIElement affectedElement)</text>
<text text-anchor="start" x="705.5" y="-431.5" font-family="Helvetica,sans-Serif" font-size="10.00">+ delegate void UIElementAction</text>
<text text-anchor="start" x="705.5" y="-420.5" font-family="Helvetica,sans-Serif" font-size="10.00">(UIElement element)</text>
<text text-anchor="start" x="705.5" y="-409.5" font-family="Helvetica,sans-Serif" font-size="10.00">+ UIElement()</text>
<text text-anchor="start" x="705.5" y="-398.5" font-family="Helvetica,sans-Serif" font-size="10.00">+ void SetSnapPoint(string</text>
<text text-anchor="start" x="705.5" y="-387.5" font-family="Helvetica,sans-Serif" font-size="10.00"> name, int id, Vector2</text>
<text text-anchor="start" x="705.5" y="-376.5" font-family="Helvetica,sans-Serif" font-size="10.00">? anchor=null, Vector2?</text>
<text text-anchor="start" x="705.5" y="-365.5" font-family="Helvetica,sans-Serif" font-size="10.00"> offset=null)</text>
<text text-anchor="start" x="705.5" y="-354.5" font-family="Helvetica,sans-Serif" font-size="10.00">+ bool GetSnapPoint(out</text>
<text text-anchor="start" x="705.5" y="-343.5" font-family="Helvetica,sans-Serif" font-size="10.00"> SnapPoint point)</text>
<text text-anchor="start" x="705.5" y="-332.5" font-family="Helvetica,sans-Serif" font-size="10.00">+ virtual void ExecuteRecursively</text>
<text text-anchor="start" x="705.5" y="-321.5" font-family="Helvetica,sans-Serif" font-size="10.00">(UIElementAction action)</text>
<text text-anchor="start" x="705.5" y="-310.5" font-family="Helvetica,sans-Serif" font-size="10.00">+ void Append(UIElement</text>
<text text-anchor="start" x="705.5" y="-299.5" font-family="Helvetica,sans-Serif" font-size="10.00"> element)</text>
<text text-anchor="start" x="705.5" y="-288.5" font-family="Helvetica,sans-Serif" font-size="10.00">+ void Remove()</text>
<text text-anchor="start" x="705.5" y="-277.5" font-family="Helvetica,sans-Serif" font-size="10.00">and 35 more...</text>
<text text-anchor="start" x="705.5" y="-266.5" font-family="Helvetica,sans-Serif" font-size="10.00"># virtual void DrawSelf</text>
<text text-anchor="start" x="705.5" y="-255.5" font-family="Helvetica,sans-Serif" font-size="10.00">(SpriteBatch spriteBatch)</text>
<text text-anchor="start" x="705.5" y="-244.5" font-family="Helvetica,sans-Serif" font-size="10.00"># virtual void DrawChildren</text>
<text text-anchor="start" x="705.5" y="-233.5" font-family="Helvetica,sans-Serif" font-size="10.00">(SpriteBatch spriteBatch)</text>
<text text-anchor="start" x="705.5" y="-222.5" font-family="Helvetica,sans-Serif" font-size="10.00">&#45; CalculatedStyle GetDimensions</text>
<text text-anchor="start" x="705.5" y="-211.5" font-family="Helvetica,sans-Serif" font-size="10.00">BasedOnParentDimensions(Calculated</text>
<text text-anchor="start" x="705.5" y="-200.5" font-family="Helvetica,sans-Serif" font-size="10.00">Style parentDimensions)</text>
</a>
</g>
</g>
<!-- Node2&#45;&gt;Node1 -->
<g id="edge1" class="edge">
<title>Node2&#45;&gt;Node1</title>
<path fill="none" stroke="midnightblue" d="M910.64,-343.42C1033.59,-278.07 1228.65,-174.38 1337.45,-116.55"/>
<polygon fill="none" stroke="midnightblue" points="908.74,-340.47 901.55,-348.25 912.02,-346.65 908.74,-340.47"/>
</g>
<!-- Node3 -->
<g id="node3" class="node">
<title>Node3</title>
<g id="a_node3"><a xlink:href="../../d9/d6f/classIComparable.html" target="_top" xlink:title=" ">
<polygon fill="white" stroke="black" points="119,-804.5 119,-861.5 198,-861.5 198,-804.5 119,-804.5"/>
<text text-anchor="middle" x="158.5" y="-849.5" font-family="Helvetica,sans-Serif" font-size="10.00">IComparable</text>
<polyline fill="none" stroke="black" points="119,-842.5 198,-842.5 "/>
<text text-anchor="middle" x="158.5" y="-830.5" font-family="Helvetica,sans-Serif" font-size="10.00"> </text>
<polyline fill="none" stroke="black" points="119,-823.5 198,-823.5 "/>
<text text-anchor="middle" x="158.5" y="-811.5" font-family="Helvetica,sans-Serif" font-size="10.00"> </text>
</a>
</g>
</g>
<!-- Node3&#45;&gt;Node2 -->
<g id="edge2" class="edge">
<title>Node3&#45;&gt;Node2</title>
<path fill="none" stroke="midnightblue" d="M169.79,-794.78C184.94,-750.52 215.86,-677 265.5,-632 390.65,-518.55 580.85,-456.13 697.26,-426.55"/>
<polygon fill="none" stroke="midnightblue" points="166.46,-793.7 166.62,-804.29 173.1,-795.91 166.46,-793.7"/>
</g>
<!-- Node4 -->
<g id="node4" class="node">
<title>Node4</title>
<g id="a_node4"><a xlink:href="../../d3/d8e/classSnapPoint.html" target="_top" xlink:title=" ">
<polygon fill="white" stroke="black" points="888.5,-760.5 888.5,-905.5 1064.5,-905.5 1064.5,-760.5 888.5,-760.5"/>
<text text-anchor="middle" x="976.5" y="-893.5" font-family="Helvetica,sans-Serif" font-size="10.00">SnapPoint</text>
<polyline fill="none" stroke="black" points="888.5,-886.5 1064.5,-886.5 "/>
<text text-anchor="start" x="896.5" y="-874.5" font-family="Helvetica,sans-Serif" font-size="10.00">+ int Id</text>
<text text-anchor="start" x="896.5" y="-863.5" font-family="Helvetica,sans-Serif" font-size="10.00">+ Vector2 Position</text>
<polyline fill="none" stroke="black" points="888.5,-856.5 1064.5,-856.5 "/>
<text text-anchor="start" x="896.5" y="-844.5" font-family="Helvetica,sans-Serif" font-size="10.00">+ SnapPoint(string name,</text>
<text text-anchor="start" x="896.5" y="-833.5" font-family="Helvetica,sans-Serif" font-size="10.00"> int id, Vector2 anchor,</text>
<text text-anchor="start" x="896.5" y="-822.5" font-family="Helvetica,sans-Serif" font-size="10.00"> Vector2 offset)</text>
<text text-anchor="start" x="896.5" y="-811.5" font-family="Helvetica,sans-Serif" font-size="10.00">+ void Calculate(UIElement</text>
<text text-anchor="start" x="896.5" y="-800.5" font-family="Helvetica,sans-Serif" font-size="10.00"> element)</text>
<text text-anchor="start" x="896.5" y="-789.5" font-family="Helvetica,sans-Serif" font-size="10.00">+ void ThisIsAHackThatChanges</text>
<text text-anchor="start" x="896.5" y="-778.5" font-family="Helvetica,sans-Serif" font-size="10.00">TheSnapPointsInfo(Vector2</text>
<text text-anchor="start" x="896.5" y="-767.5" font-family="Helvetica,sans-Serif" font-size="10.00"> anchor, Vector2 offset, int id)</text>
</a>
</g>
</g>
<!-- Node4&#45;&gt;Node2 -->
<g id="edge3" class="edge">
<title>Node4&#45;&gt;Node2</title>
<path fill="none" stroke="#404040" d="M969.26,-760.4C963.76,-721.48 954.33,-673.05 938.5,-632 929.91,-609.73 919.14,-587.21 907.42,-565.43"/>
<polygon fill="none" stroke="#404040" points="907.37,-565.32 900.98,-561.99 901.6,-554.8 907.99,-558.14 907.37,-565.32"/>
<text text-anchor="middle" x="992" y="-673.5" font-family="Helvetica,sans-Serif" font-size="10.00"> &#45;_snapPoint</text>
</g>
<!-- Node5 -->
<g id="node5" class="node">
<title>Node5</title>
<g id="a_node5"><a xlink:title=" ">
<polygon fill="white" stroke="#bfbfbf" points="954.5,-1008.5 954.5,-1065.5 998.5,-1065.5 998.5,-1008.5 954.5,-1008.5"/>
<text text-anchor="middle" x="976.5" y="-1053.5" font-family="Helvetica,sans-Serif" font-size="10.00">string</text>
<polyline fill="none" stroke="#bfbfbf" points="954.5,-1046.5 998.5,-1046.5 "/>
<text text-anchor="middle" x="976.5" y="-1034.5" font-family="Helvetica,sans-Serif" font-size="10.00"> </text>
<polyline fill="none" stroke="#bfbfbf" points="954.5,-1027.5 998.5,-1027.5 "/>
<text text-anchor="middle" x="976.5" y="-1015.5" font-family="Helvetica,sans-Serif" font-size="10.00"> </text>
</a>
</g>
</g>
<!-- Node5&#45;&gt;Node4 -->
<g id="edge4" class="edge">
<title>Node5&#45;&gt;Node4</title>
<path fill="none" stroke="#404040" d="M976.5,-1008.34C976.5,-984.96 976.5,-950.21 976.5,-917.87"/>
<polygon fill="none" stroke="#404040" points="976.5,-917.62 972.5,-911.62 976.5,-905.62 980.5,-911.62 976.5,-917.62"/>
<text text-anchor="middle" x="997" y="-965.5" font-family="Helvetica,sans-Serif" font-size="10.00"> +Name</text>
</g>
<!-- Node6 -->
<g id="node6" class="node">
<title>Node6</title>
<g id="a_node6"><a xlink:title=" ">
<polygon fill="white" stroke="#bfbfbf" points="1391,-1008.5 1391,-1065.5 1444,-1065.5 1444,-1008.5 1391,-1008.5"/>
<text text-anchor="middle" x="1417.5" y="-1053.5" font-family="Helvetica,sans-Serif" font-size="10.00">Vector2</text>
<polyline fill="none" stroke="#bfbfbf" points="1391,-1046.5 1444,-1046.5 "/>
<text text-anchor="middle" x="1417.5" y="-1034.5" font-family="Helvetica,sans-Serif" font-size="10.00"> </text>
<polyline fill="none" stroke="#bfbfbf" points="1391,-1027.5 1444,-1027.5 "/>
<text text-anchor="middle" x="1417.5" y="-1015.5" font-family="Helvetica,sans-Serif" font-size="10.00"> </text>
</a>
</g>
</g>
<!-- Node6&#45;&gt;Node1 -->
<g id="edge21" class="edge">
<title>Node6&#45;&gt;Node1</title>
<path fill="none" stroke="#404040" d="M1417.15,-1008.1C1416.47,-953.03 1415.01,-826.43 1414.5,-720 1413.54,-518.32 1415.41,-281.23 1416.61,-157.98"/>
<polygon fill="none" stroke="#404040" points="1416.61,-157.7 1412.67,-151.66 1416.73,-145.7 1420.67,-151.73 1416.61,-157.7"/>
<text text-anchor="middle" x="1499" y="-679" font-family="Helvetica,sans-Serif" font-size="10.00"> +AnchorPositionOffsetByPercents</text>
<text text-anchor="middle" x="1499" y="-668" font-family="Helvetica,sans-Serif" font-size="10.00">+AnchorPositionOffsetByPixels</text>
</g>
<!-- Node6&#45;&gt;Node4 -->
<g id="edge5" class="edge">
<title>Node6&#45;&gt;Node4</title>
<path fill="none" stroke="#404040" d="M1390.76,-1031.95C1330.52,-1021.93 1181.07,-992.04 1073.5,-928 1066.16,-923.63 1058.94,-918.6 1051.96,-913.18"/>
<polygon fill="none" stroke="#404040" points="1051.92,-913.15 1044.74,-912.48 1042.6,-905.59 1049.78,-906.26 1051.92,-913.15"/>
<text text-anchor="middle" x="1231.5" y="-971" font-family="Helvetica,sans-Serif" font-size="10.00"> &#45;_anchor</text>
<text text-anchor="middle" x="1231.5" y="-960" font-family="Helvetica,sans-Serif" font-size="10.00">&#45;_offset</text>
</g>
<!-- Node17 -->
<g id="node17" class="node">
<title>Node17</title>
<g id="a_node17"><a xlink:href="../../d9/d91/structParticleRendererSettings.html" target="_top" xlink:title=" ">
<polygon fill="white" stroke="black" points="1464,-804.5 1464,-861.5 1601,-861.5 1601,-804.5 1464,-804.5"/>
<text text-anchor="middle" x="1532.5" y="-849.5" font-family="Helvetica,sans-Serif" font-size="10.00">ParticleRendererSettings</text>
<polyline fill="none" stroke="black" points="1464,-842.5 1601,-842.5 "/>
<text text-anchor="middle" x="1532.5" y="-830.5" font-family="Helvetica,sans-Serif" font-size="10.00"> </text>
<polyline fill="none" stroke="black" points="1464,-823.5 1601,-823.5 "/>
<text text-anchor="middle" x="1532.5" y="-811.5" font-family="Helvetica,sans-Serif" font-size="10.00"> </text>
</a>
</g>
</g>
<!-- Node6&#45;&gt;Node17 -->
<g id="edge20" class="edge">
<title>Node6&#45;&gt;Node17</title>
<path fill="none" stroke="#404040" d="M1433.25,-1008.34C1453.32,-973.08 1488.13,-911.95 1510.73,-872.24"/>
<polygon fill="none" stroke="#404040" points="1510.82,-872.08 1510.31,-864.89 1516.76,-861.65 1517.26,-868.85 1510.82,-872.08"/>
<text text-anchor="middle" x="1510" y="-965.5" font-family="Helvetica,sans-Serif" font-size="10.00"> +AnchorPosition</text>
</g>
<!-- Node7 -->
<g id="node7" class="node">
<title>Node7</title>
<g id="a_node7"><a xlink:href="../../d8/daa/structCalculatedStyle.html" target="_top" xlink:title=" ">
<polygon fill="white" stroke="black" points="216.5,-777 216.5,-889 362.5,-889 362.5,-777 216.5,-777"/>
<text text-anchor="middle" x="289.5" y="-877" font-family="Helvetica,sans-Serif" font-size="10.00">CalculatedStyle</text>
<polyline fill="none" stroke="black" points="216.5,-870 362.5,-870 "/>
<text text-anchor="middle" x="289.5" y="-858" font-family="Helvetica,sans-Serif" font-size="10.00"> </text>
<polyline fill="none" stroke="black" points="216.5,-851 362.5,-851 "/>
<text text-anchor="start" x="224.5" y="-839" font-family="Helvetica,sans-Serif" font-size="10.00">+ CalculatedStyle(float</text>
<text text-anchor="start" x="224.5" y="-828" font-family="Helvetica,sans-Serif" font-size="10.00"> x, float y, float width,</text>
<text text-anchor="start" x="224.5" y="-817" font-family="Helvetica,sans-Serif" font-size="10.00"> float height)</text>
<text text-anchor="start" x="224.5" y="-806" font-family="Helvetica,sans-Serif" font-size="10.00">+ Rectangle ToRectangle()</text>
<text text-anchor="start" x="224.5" y="-795" font-family="Helvetica,sans-Serif" font-size="10.00">+ Vector2 Position()</text>
<text text-anchor="start" x="224.5" y="-784" font-family="Helvetica,sans-Serif" font-size="10.00">+ Vector2 Center()</text>
</a>
</g>
</g>
<!-- Node7&#45;&gt;Node2 -->
<g id="edge6" class="edge">
<title>Node7&#45;&gt;Node2</title>
<path fill="none" stroke="#404040" d="M274.99,-776.89C267,-733.9 263.63,-674.55 291.5,-632 378.8,-498.71 564.38,-442.74 685.43,-419.79"/>
<polygon fill="none" stroke="#404040" points="685.5,-419.78 690.67,-414.76 697.3,-417.6 692.12,-422.62 685.5,-419.78"/>
<text text-anchor="middle" x="338" y="-684.5" font-family="Helvetica,sans-Serif" font-size="10.00"> &#45;_dimensions</text>
<text text-anchor="middle" x="338" y="-673.5" font-family="Helvetica,sans-Serif" font-size="10.00">&#45;_innerDimensions</text>
<text text-anchor="middle" x="338" y="-662.5" font-family="Helvetica,sans-Serif" font-size="10.00">&#45;_outerDimensions</text>
</g>
<!-- Node8 -->
<g id="node8" class="node">
<title>Node8</title>
<g id="a_node8"><a xlink:title=" ">
<polygon fill="white" stroke="#bfbfbf" points="379.5,-1008.5 379.5,-1065.5 417.5,-1065.5 417.5,-1008.5 379.5,-1008.5"/>
<text text-anchor="middle" x="398.5" y="-1053.5" font-family="Helvetica,sans-Serif" font-size="10.00">float</text>
<polyline fill="none" stroke="#bfbfbf" points="379.5,-1046.5 417.5,-1046.5 "/>
<text text-anchor="middle" x="398.5" y="-1034.5" font-family="Helvetica,sans-Serif" font-size="10.00"> </text>
<polyline fill="none" stroke="#bfbfbf" points="379.5,-1027.5 417.5,-1027.5 "/>
<text text-anchor="middle" x="398.5" y="-1015.5" font-family="Helvetica,sans-Serif" font-size="10.00"> </text>
</a>
</g>
</g>
<!-- Node8&#45;&gt;Node2 -->
<g id="edge9" class="edge">
<title>Node8&#45;&gt;Node2</title>
<path fill="none" stroke="#404040" d="M396.51,-1008.11C392.34,-943.42 384.85,-785.12 407.5,-738 466.26,-615.74 593.18,-521.21 686.76,-464.51"/>
<polygon fill="none" stroke="#404040" points="686.84,-464.46 689.93,-457.94 697.13,-458.29 694.04,-464.81 686.84,-464.46"/>
<text text-anchor="middle" x="449" y="-885.5" font-family="Helvetica,sans-Serif" font-size="10.00"> +HAlign</text>
<text text-anchor="middle" x="449" y="-874.5" font-family="Helvetica,sans-Serif" font-size="10.00">+MarginBottom</text>
<text text-anchor="middle" x="449" y="-863.5" font-family="Helvetica,sans-Serif" font-size="10.00">+MarginLeft</text>
<text text-anchor="middle" x="449" y="-852.5" font-family="Helvetica,sans-Serif" font-size="10.00">+MarginRight</text>
<text text-anchor="middle" x="449" y="-841.5" font-family="Helvetica,sans-Serif" font-size="10.00">+MarginTop</text>
<text text-anchor="middle" x="449" y="-830.5" font-family="Helvetica,sans-Serif" font-size="10.00">+PaddingBottom</text>
<text text-anchor="middle" x="449" y="-819.5" font-family="Helvetica,sans-Serif" font-size="10.00">+PaddingLeft</text>
<text text-anchor="middle" x="449" y="-808.5" font-family="Helvetica,sans-Serif" font-size="10.00">+PaddingRight</text>
<text text-anchor="middle" x="449" y="-797.5" font-family="Helvetica,sans-Serif" font-size="10.00">+PaddingTop</text>
<text text-anchor="middle" x="449" y="-786.5" font-family="Helvetica,sans-Serif" font-size="10.00">+VAlign</text>
<text text-anchor="middle" x="449" y="-775.5" font-family="Helvetica,sans-Serif" font-size="10.00">...</text>
</g>
<!-- Node8&#45;&gt;Node7 -->
<g id="edge7" class="edge">
<title>Node8&#45;&gt;Node7</title>
<path fill="none" stroke="#404040" d="M379.35,-1024.97C366.7,-1016.79 350.63,-1004.56 340.5,-990 322.11,-963.59 310.02,-930.12 302.25,-900.96"/>
<polygon fill="none" stroke="#404040" points="302.22,-900.82 296.87,-895.98 299.28,-889.18 304.63,-894.02 302.22,-900.82"/>
<text text-anchor="middle" x="362.5" y="-982" font-family="Helvetica,sans-Serif" font-size="10.00"> +Height</text>
<text text-anchor="middle" x="362.5" y="-971" font-family="Helvetica,sans-Serif" font-size="10.00">+Width</text>
<text text-anchor="middle" x="362.5" y="-960" font-family="Helvetica,sans-Serif" font-size="10.00">+X</text>
<text text-anchor="middle" x="362.5" y="-949" font-family="Helvetica,sans-Serif" font-size="10.00">+Y</text>
</g>
<!-- Node10 -->
<g id="node10" class="node">
<title>Node10</title>
<g id="a_node10"><a xlink:href="../../d1/de0/structStyleDimension.html" target="_top" xlink:title=" ">
<polygon fill="white" stroke="black" points="499.5,-738.5 499.5,-927.5 649.5,-927.5 649.5,-738.5 499.5,-738.5"/>
<text text-anchor="middle" x="574.5" y="-915.5" font-family="Helvetica,sans-Serif" font-size="10.00">StyleDimension</text>
<polyline fill="none" stroke="black" points="499.5,-908.5 649.5,-908.5 "/>
<text text-anchor="middle" x="574.5" y="-896.5" font-family="Helvetica,sans-Serif" font-size="10.00"> </text>
<polyline fill="none" stroke="black" points="499.5,-889.5 649.5,-889.5 "/>
<text text-anchor="start" x="507.5" y="-877.5" font-family="Helvetica,sans-Serif" font-size="10.00">+ StyleDimension(float</text>
<text text-anchor="start" x="507.5" y="-866.5" font-family="Helvetica,sans-Serif" font-size="10.00"> pixels, float precent)</text>
<text text-anchor="start" x="507.5" y="-855.5" font-family="Helvetica,sans-Serif" font-size="10.00">+ void Set(float pixels,</text>
<text text-anchor="start" x="507.5" y="-844.5" font-family="Helvetica,sans-Serif" font-size="10.00"> float precent)</text>
<text text-anchor="start" x="507.5" y="-833.5" font-family="Helvetica,sans-Serif" font-size="10.00">+ float GetValue(float</text>
<text text-anchor="start" x="507.5" y="-822.5" font-family="Helvetica,sans-Serif" font-size="10.00"> containerSize)</text>
<text text-anchor="start" x="507.5" y="-811.5" font-family="Helvetica,sans-Serif" font-size="10.00">+ static StyleDimension</text>
<text text-anchor="start" x="507.5" y="-800.5" font-family="Helvetica,sans-Serif" font-size="10.00"> FromPixels(float pixels)</text>
<text text-anchor="start" x="507.5" y="-789.5" font-family="Helvetica,sans-Serif" font-size="10.00">+ static StyleDimension</text>
<text text-anchor="start" x="507.5" y="-778.5" font-family="Helvetica,sans-Serif" font-size="10.00"> FromPercent(float percent)</text>
<text text-anchor="start" x="507.5" y="-767.5" font-family="Helvetica,sans-Serif" font-size="10.00">+ static StyleDimension</text>
<text text-anchor="start" x="507.5" y="-756.5" font-family="Helvetica,sans-Serif" font-size="10.00"> FromPixelsAndPercent</text>
<text text-anchor="start" x="507.5" y="-745.5" font-family="Helvetica,sans-Serif" font-size="10.00">(float pixels, float percent)</text>
</a>
</g>
</g>
<!-- Node8&#45;&gt;Node10 -->
<g id="edge11" class="edge">
<title>Node8&#45;&gt;Node10</title>
<path fill="none" stroke="#404040" d="M417.67,-1014C435.59,-993.43 463.64,-961.24 491.08,-929.74"/>
<polygon fill="none" stroke="#404040" points="491.3,-929.49 492.23,-922.34 499.19,-920.44 498.26,-927.59 491.3,-929.49"/>
<text text-anchor="middle" x="499.5" y="-971" font-family="Helvetica,sans-Serif" font-size="10.00"> +Pixels</text>
<text text-anchor="middle" x="499.5" y="-960" font-family="Helvetica,sans-Serif" font-size="10.00">+Precent</text>
</g>
<!-- Node9 -->
<g id="node9" class="node">
<title>Node9</title>
<g id="a_node9"><a xlink:title=" ">
<polygon fill="white" stroke="#bfbfbf" points="728.5,-799 728.5,-867 870.5,-867 870.5,-799 728.5,-799"/>
<text text-anchor="start" x="736.5" y="-855" font-family="Helvetica,sans-Serif" font-size="10.00">static readonly Rasterizer</text>
<text text-anchor="middle" x="799.5" y="-844" font-family="Helvetica,sans-Serif" font-size="10.00">State</text>
<polyline fill="none" stroke="#bfbfbf" points="728.5,-837 870.5,-837 "/>
<text text-anchor="middle" x="799.5" y="-825" font-family="Helvetica,sans-Serif" font-size="10.00"> </text>
<polyline fill="none" stroke="#bfbfbf" points="728.5,-818 870.5,-818 "/>
<text text-anchor="middle" x="799.5" y="-806" font-family="Helvetica,sans-Serif" font-size="10.00"> </text>
</a>
</g>
</g>
<!-- Node9&#45;&gt;Node2 -->
<g id="edge8" class="edge">
<title>Node9&#45;&gt;Node2</title>
<path fill="none" stroke="#404040" d="M799.5,-798.81C799.5,-760.36 799.5,-693.58 799.5,-625.78"/>
<polygon fill="none" stroke="#404040" points="799.5,-625.56 795.5,-619.56 799.5,-613.56 803.5,-619.56 799.5,-625.56"/>
<text text-anchor="start" x="799.5" y="-679" font-family="Helvetica,sans-Serif" font-size="10.00"> &#45;OverflowHiddenRasterizer</text>
<text text-anchor="middle" x="867" y="-668" font-family="Helvetica,sans-Serif" font-size="10.00">State</text>
</g>
<!-- Node10&#45;&gt;Node2 -->
<g id="edge10" class="edge">
<title>Node10&#45;&gt;Node2</title>
<path fill="none" stroke="#404040" d="M623.74,-738.45C643.79,-700.34 667.82,-654.69 691.58,-609.55"/>
<polygon fill="none" stroke="#404040" points="691.7,-609.33 690.95,-602.15 697.29,-598.71 698.03,-605.88 691.7,-609.33"/>
<text text-anchor="middle" x="705.5" y="-712" font-family="Helvetica,sans-Serif" font-size="10.00"> +Height</text>
<text text-anchor="middle" x="705.5" y="-701" font-family="Helvetica,sans-Serif" font-size="10.00">+Left</text>
<text text-anchor="middle" x="705.5" y="-690" font-family="Helvetica,sans-Serif" font-size="10.00">+MaxHeight</text>
<text text-anchor="middle" x="705.5" y="-679" font-family="Helvetica,sans-Serif" font-size="10.00">+MaxWidth</text>
<text text-anchor="middle" x="705.5" y="-668" font-family="Helvetica,sans-Serif" font-size="10.00">+MinHeight</text>
<text text-anchor="middle" x="705.5" y="-657" font-family="Helvetica,sans-Serif" font-size="10.00">+MinWidth</text>
<text text-anchor="middle" x="705.5" y="-646" font-family="Helvetica,sans-Serif" font-size="10.00">+Top</text>
<text text-anchor="middle" x="705.5" y="-635" font-family="Helvetica,sans-Serif" font-size="10.00">+Width</text>
</g>
<!-- Node10&#45;&gt;Node10 -->
<g id="edge12" class="edge">
<title>Node10&#45;&gt;Node10</title>
<path fill="none" stroke="#404040" d="M649.67,-855.55C660.34,-851.9 667.5,-844.38 667.5,-833 667.5,-826.06 664.84,-820.56 660.35,-816.5"/>
<polygon fill="none" stroke="#404040" points="660.11,-816.36 652.92,-816.89 649.67,-810.45 656.86,-809.93 660.11,-816.36"/>
<text text-anchor="middle" x="689" y="-836" font-family="Helvetica,sans-Serif" font-size="10.00"> +Empty</text>
<text text-anchor="middle" x="689" y="-825" font-family="Helvetica,sans-Serif" font-size="10.00">+Fill</text>
</g>
<!-- Node11 -->
<g id="node11" class="node">
<title>Node11</title>
<g id="a_node11"><a xlink:title=" ">
<polygon fill="white" stroke="#bfbfbf" points="1082,-804.5 1082,-861.5 1111,-861.5 1111,-804.5 1082,-804.5"/>
<text text-anchor="middle" x="1096.5" y="-849.5" font-family="Helvetica,sans-Serif" font-size="10.00">int</text>
<polyline fill="none" stroke="#bfbfbf" points="1082,-842.5 1111,-842.5 "/>
<text text-anchor="middle" x="1096.5" y="-830.5" font-family="Helvetica,sans-Serif" font-size="10.00"> </text>
<polyline fill="none" stroke="#bfbfbf" points="1082,-823.5 1111,-823.5 "/>
<text text-anchor="middle" x="1096.5" y="-811.5" font-family="Helvetica,sans-Serif" font-size="10.00"> </text>
</a>
</g>
</g>
<!-- Node11&#45;&gt;Node2 -->
<g id="edge13" class="edge">
<title>Node11&#45;&gt;Node2</title>
<path fill="none" stroke="#404040" d="M1091.62,-804.37C1083.44,-763.73 1064.04,-686.77 1026.5,-632 993.88,-584.41 950.57,-538.14 910.54,-499.9"/>
<polygon fill="none" stroke="#404040" points="910.5,-499.86 903.39,-498.64 901.78,-491.61 908.89,-492.83 910.5,-499.86"/>
<text text-anchor="middle" x="1096.5" y="-673.5" font-family="Helvetica,sans-Serif" font-size="10.00"> &#45;_idCounter</text>
</g>
<!-- Node12 -->
<g id="node12" class="node">
<title>Node12</title>
<g id="a_node12"><a xlink:title=" ">
<polygon fill="white" stroke="#bfbfbf" points="1129,-804.5 1129,-861.5 1236,-861.5 1236,-804.5 1129,-804.5"/>
<text text-anchor="middle" x="1182.5" y="-849.5" font-family="Helvetica,sans-Serif" font-size="10.00">List&lt; UIElement &gt;</text>
<polyline fill="none" stroke="#bfbfbf" points="1129,-842.5 1236,-842.5 "/>
<text text-anchor="middle" x="1182.5" y="-830.5" font-family="Helvetica,sans-Serif" font-size="10.00"> </text>
<polyline fill="none" stroke="#bfbfbf" points="1129,-823.5 1236,-823.5 "/>
<text text-anchor="middle" x="1182.5" y="-811.5" font-family="Helvetica,sans-Serif" font-size="10.00"> </text>
</a>
</g>
</g>
<!-- Node12&#45;&gt;Node2 -->
<g id="edge14" class="edge">
<title>Node12&#45;&gt;Node2</title>
<path fill="none" stroke="#404040" d="M1181.32,-804.25C1178.34,-763.13 1167.78,-685.17 1130.5,-632 1075.86,-554.07 985.39,-494.57 912.83,-456"/>
<polygon fill="none" stroke="#404040" points="912.43,-455.79 905.26,-456.55 901.8,-450.22 908.97,-449.46 912.43,-455.79"/>
<text text-anchor="middle" x="1196.5" y="-673.5" font-family="Helvetica,sans-Serif" font-size="10.00"> #Elements</text>
</g>
<!-- Node13 -->
<g id="node13" class="node">
<title>Node13</title>
<g id="a_node13"><a xlink:title=" ">
<polygon fill="white" stroke="#bfbfbf" points="1254.5,-804.5 1254.5,-861.5 1292.5,-861.5 1292.5,-804.5 1254.5,-804.5"/>
<text text-anchor="middle" x="1273.5" y="-849.5" font-family="Helvetica,sans-Serif" font-size="10.00">bool</text>
<polyline fill="none" stroke="#bfbfbf" points="1254.5,-842.5 1292.5,-842.5 "/>
<text text-anchor="middle" x="1273.5" y="-830.5" font-family="Helvetica,sans-Serif" font-size="10.00"> </text>
<polyline fill="none" stroke="#bfbfbf" points="1254.5,-823.5 1292.5,-823.5 "/>
<text text-anchor="middle" x="1273.5" y="-811.5" font-family="Helvetica,sans-Serif" font-size="10.00"> </text>
</a>
</g>
</g>
<!-- Node13&#45;&gt;Node2 -->
<g id="edge15" class="edge">
<title>Node13&#45;&gt;Node2</title>
<path fill="none" stroke="#404040" d="M1270.31,-804.33C1264.28,-756.03 1249.95,-658.88 1229.5,-632 1150.92,-528.71 1011.74,-467.45 913.03,-434.98"/>
<polygon fill="none" stroke="#404040" points="912.92,-434.95 905.98,-436.91 901.5,-431.26 908.44,-429.3 912.92,-434.95"/>
<text text-anchor="middle" x="1323" y="-690" font-family="Helvetica,sans-Serif" font-size="10.00"> +IgnoresMouseInteraction</text>
<text text-anchor="middle" x="1323" y="-679" font-family="Helvetica,sans-Serif" font-size="10.00">+OverflowHidden</text>
<text text-anchor="middle" x="1323" y="-668" font-family="Helvetica,sans-Serif" font-size="10.00">+UseImmediateMode</text>
<text text-anchor="middle" x="1323" y="-657" font-family="Helvetica,sans-Serif" font-size="10.00">&#45;_isInitialized</text>
</g>
<!-- Node14 -->
<g id="node14" class="node">
<title>Node14</title>
<g id="a_node14"><a xlink:title=" ">
<polygon fill="white" stroke="#bfbfbf" points="0,-804.5 0,-861.5 83,-861.5 83,-804.5 0,-804.5"/>
<text text-anchor="middle" x="41.5" y="-849.5" font-family="Helvetica,sans-Serif" font-size="10.00">SamplerState</text>
<polyline fill="none" stroke="#bfbfbf" points="0,-842.5 83,-842.5 "/>
<text text-anchor="middle" x="41.5" y="-830.5" font-family="Helvetica,sans-Serif" font-size="10.00"> </text>
<polyline fill="none" stroke="#bfbfbf" points="0,-823.5 83,-823.5 "/>
<text text-anchor="middle" x="41.5" y="-811.5" font-family="Helvetica,sans-Serif" font-size="10.00"> </text>
</a>
</g>
</g>
<!-- Node14&#45;&gt;Node2 -->
<g id="edge16" class="edge">
<title>Node14&#45;&gt;Node2</title>
<path fill="none" stroke="#404040" d="M38.69,-804.27C35.99,-761.75 37.4,-680.31 80.5,-632 236.27,-457.4 524.97,-415.71 685.08,-406.44"/>
<polygon fill="none" stroke="#404040" points="685.34,-406.43 691.12,-402.11 697.32,-405.79 691.55,-410.1 685.34,-406.43"/>
<text text-anchor="middle" x="140.5" y="-673.5" font-family="Helvetica,sans-Serif" font-size="10.00"> +OverrideSamplerState</text>
</g>
<!-- Node15 -->
<g id="node15" class="node">
<title>Node15</title>
<g id="a_node15"><a xlink:href="../../df/dba/classParticleRenderer.html" target="_top" xlink:title=" ">
<polygon fill="white" stroke="black" points="1541,-342 1541,-465 1678,-465 1678,-342 1541,-342"/>
<text text-anchor="middle" x="1609.5" y="-453" font-family="Helvetica,sans-Serif" font-size="10.00">ParticleRenderer</text>
<polyline fill="none" stroke="black" points="1541,-446 1678,-446 "/>
<text text-anchor="middle" x="1609.5" y="-434" font-family="Helvetica,sans-Serif" font-size="10.00"> </text>
<polyline fill="none" stroke="black" points="1541,-427 1678,-427 "/>
<text text-anchor="start" x="1549" y="-415" font-family="Helvetica,sans-Serif" font-size="10.00">+ ParticleRenderer()</text>
<text text-anchor="start" x="1549" y="-404" font-family="Helvetica,sans-Serif" font-size="10.00">+ void Add(IParticle</text>
<text text-anchor="start" x="1549" y="-393" font-family="Helvetica,sans-Serif" font-size="10.00"> particle)</text>
<text text-anchor="start" x="1549" y="-382" font-family="Helvetica,sans-Serif" font-size="10.00">+ void Clear()</text>
<text text-anchor="start" x="1549" y="-371" font-family="Helvetica,sans-Serif" font-size="10.00">+ void Update()</text>
<text text-anchor="start" x="1549" y="-360" font-family="Helvetica,sans-Serif" font-size="10.00">+ void Draw(SpriteBatch</text>
<text text-anchor="start" x="1549" y="-349" font-family="Helvetica,sans-Serif" font-size="10.00"> spriteBatch)</text>
</a>
</g>
</g>
<!-- Node15&#45;&gt;Node1 -->
<g id="edge17" class="edge">
<title>Node15&#45;&gt;Node1</title>
<path fill="none" stroke="#404040" d="M1574.06,-341.87C1543.56,-289.68 1499.28,-213.92 1465.58,-156.27"/>
<polygon fill="none" stroke="#404040" points="1465.48,-156.09 1459,-152.92 1459.42,-145.73 1465.9,-148.89 1465.48,-156.09"/>
<text text-anchor="middle" x="1516" y="-167" font-family="Helvetica,sans-Serif" font-size="10.00"> +ParticleSystem</text>
</g>
<!-- Node16 -->
<g id="node16" class="node">
<title>Node16</title>
<g id="a_node16"><a xlink:title=" ">
<polygon fill="white" stroke="#bfbfbf" points="1637,-804.5 1637,-861.5 1732,-861.5 1732,-804.5 1637,-804.5"/>
<text text-anchor="middle" x="1684.5" y="-849.5" font-family="Helvetica,sans-Serif" font-size="10.00">List&lt; IParticle &gt;</text>
<polyline fill="none" stroke="#bfbfbf" points="1637,-842.5 1732,-842.5 "/>
<text text-anchor="middle" x="1684.5" y="-830.5" font-family="Helvetica,sans-Serif" font-size="10.00"> </text>
<polyline fill="none" stroke="#bfbfbf" points="1637,-823.5 1732,-823.5 "/>
<text text-anchor="middle" x="1684.5" y="-811.5" font-family="Helvetica,sans-Serif" font-size="10.00"> </text>
</a>
</g>
</g>
<!-- Node16&#45;&gt;Node15 -->
<g id="edge18" class="edge">
<title>Node16&#45;&gt;Node15</title>
<path fill="none" stroke="#404040" d="M1682.51,-804.36C1679.48,-765.63 1672.94,-693.12 1662.5,-632 1653.58,-579.82 1639.98,-521.7 1628.79,-477.27"/>
<polygon fill="none" stroke="#404040" points="1628.73,-477.04 1623.38,-472.21 1625.78,-465.41 1631.13,-470.24 1628.73,-477.04"/>
<text text-anchor="middle" x="1701" y="-673.5" font-family="Helvetica,sans-Serif" font-size="10.00"> +Particles</text>
</g>
<!-- Node17&#45;&gt;Node15 -->
<g id="edge19" class="edge">
<title>Node17&#45;&gt;Node15</title>
<path fill="none" stroke="#404040" d="M1549.95,-804.2C1562.77,-782.23 1579.33,-750.33 1587.5,-720 1609.33,-638.94 1612.93,-542.16 1612.29,-477.36"/>
<polygon fill="none" stroke="#404040" points="1612.29,-477.24 1608.2,-471.3 1612.12,-465.24 1616.2,-471.18 1612.29,-477.24"/>
<text text-anchor="middle" x="1629.5" y="-673.5" font-family="Helvetica,sans-Serif" font-size="10.00"> +Settings</text>
</g>
</g>
</svg>
        <g id="navigator" transform="translate(0 0)" fill="#404254">
                <rect fill="#f2f5e9" fill-opacity="0.5" stroke="#606060" stroke-width=".5" x="0" y="0" width="60" height="60"/>
                <use id="zoomplus" xlink:href="#zoomPlus" x="17" y="9" onmousedown="handleZoom(evt,'in')"/>
                <use id="zoomminus" xlink:href="#zoomMin" x="42" y="9" onmousedown="handleZoom(evt,'out')"/>
                <use id="reset" xlink:href="#resetDef" x="30" y="36" onmousedown="handleReset()"/>
                <g id="arrowUp" xlink:href="#dirArrow" transform="translate(30 24)" onmousedown="handlePan(0,-1)">
                  <use xlink:href="#rim" fill="#404040">
                        <set attributeName="fill" to="#808080" begin="arrowUp.mouseover" end="arrowUp.mouseout"/>
                  </use>
                  <path fill="none" stroke="white" stroke-width="1.5" d="M0,-3.0v7 M-2.5,-0.5L0,-3.0L2.5,-0.5"/>
                </g>
                <g id="arrowRight" xlink:href="#dirArrow" transform="rotate(90) translate(36 -43)" onmousedown="handlePan(1,0)">
                  <use xlink:href="#rim" fill="#404040">
                        <set attributeName="fill" to="#808080" begin="arrowRight.mouseover" end="arrowRight.mouseout"/>
                  </use>
                  <path fill="none" stroke="white" stroke-width="1.5" d="M0,-3.0v7 M-2.5,-0.5L0,-3.0L2.5,-0.5"/>
                </g>
                <g id="arrowDown" xlink:href="#dirArrow" transform="rotate(180) translate(-30 -48)" onmousedown="handlePan(0,1)">
                  <use xlink:href="#rim" fill="#404040">
                        <set attributeName="fill" to="#808080" begin="arrowDown.mouseover" end="arrowDown.mouseout"/>
                  </use>
                  <path fill="none" stroke="white" stroke-width="1.5" d="M0,-3.0v7 M-2.5,-0.5L0,-3.0L2.5,-0.5"/>
                </g>
                <g id="arrowLeft" xlink:href="#dirArrow" transform="rotate(270) translate(-36 17)" onmousedown="handlePan(-1,0)">
                  <use xlink:href="#rim" fill="#404040">
                        <set attributeName="fill" to="#808080" begin="arrowLeft.mouseover" end="arrowLeft.mouseout"/>
                  </use>
                  <path fill="none" stroke="white" stroke-width="1.5" d="M0,-3.0v7 M-2.5,-0.5L0,-3.0L2.5,-0.5"/>
                </g>
        </g>
        <svg viewBox="0 0 15 15" width="100%" height="30px" preserveAspectRatio="xMaxYMin meet">
         <g id="arrow_out" transform="scale(0.3 0.3)">
          <a xlink:href="classUIParticleLayer__coll__graph_org.svg" target="_base">
           <rect id="button" ry="5" rx="5" y="6" x="6" height="38" width="38"
                fill="#f2f5e9" fill-opacity="0.5" stroke="#606060" stroke-width="1.0"/>
           <path id="arrow"
             d="M 11.500037,31.436501 C 11.940474,20.09759 22.043105,11.32322 32.158766,21.979434 L 37.068811,17.246167 C 37.068811,17.246167 37.088388,32 37.088388,32 L 22.160133,31.978069 C 22.160133,31.978069 26.997745,27.140456 26.997745,27.140456 C 18.528582,18.264221 13.291696,25.230495 11.500037,31.436501 z"
             style="fill:#404040;"/>
          </a>
         </g>
        </svg>
</svg>
