<?xml version="1.0" encoding="UTF-8" standalone="no"?>
<!DOCTYPE svg PUBLIC "-//W3C//DTD SVG 1.1//EN"
 "http://www.w3.org/Graphics/SVG/1.1/DTD/svg11.dtd">
<!-- Generated by graphviz version 2.43.0 (0)
 -->
<!-- Title: Main.IsTileBiomeSightable Pages: 1 -->
<svg width="1891pt" height="344pt"
 viewBox="0.00 0.00 1891.00 343.94" xmlns="http://www.w3.org/2000/svg" xmlns:xlink="http://www.w3.org/1999/xlink">
<g id="graph0" class="graph" transform="scale(1 1) rotate(0) translate(4 339.94)">
<title>Main.IsTileBiomeSightable</title>
<polygon fill="white" stroke="transparent" points="-4,4 -4,-339.94 1887,-339.94 1887,4 -4,4"/>
<!-- Node1 -->
<g id="node1" class="node">
<title>Node1</title>
<g id="a_node1"><a xlink:title=" ">
<polygon fill="#bfbfbf" stroke="black" points="1736,-194.5 1736,-213.5 1883,-213.5 1883,-194.5 1736,-194.5"/>
<text text-anchor="middle" x="1809.5" y="-201.5" font-family="Helvetica,sans-Serif" font-size="10.00">Main.IsTileBiomeSightable</text>
</a>
</g>
</g>
<!-- Node2 -->
<g id="node2" class="node">
<title>Node2</title>
<g id="a_node2"><a xlink:href="../../d1/db9/classTileDrawing_a92ce07a58e0f7ba653d28299717f86b5.html#a92ce07a58e0f7ba653d28299717f86b5" target="_top" xlink:title=" ">
<polygon fill="white" stroke="black" points="1539,-189 1539,-219 1700,-219 1700,-189 1539,-189"/>
<text text-anchor="start" x="1547" y="-207" font-family="Helvetica,sans-Serif" font-size="10.00">TileDrawing.DrawAnimated</text>
<text text-anchor="middle" x="1619.5" y="-196" font-family="Helvetica,sans-Serif" font-size="10.00">Tile_AdjustForVisionChangers</text>
</a>
</g>
</g>
<!-- Node1&#45;&gt;Node2 -->
<g id="edge1" class="edge">
<title>Node1&#45;&gt;Node2</title>
<path fill="none" stroke="midnightblue" d="M1725.59,-204C1717.15,-204 1708.58,-204 1700.17,-204"/>
<polygon fill="midnightblue" stroke="midnightblue" points="1725.81,-207.5 1735.81,-204 1725.81,-200.5 1725.81,-207.5"/>
</g>
<!-- Node21 -->
<g id="node21" class="node">
<title>Node21</title>
<g id="a_node21"><a xlink:href="../../d1/db9/classTileDrawing_ac0aac20cd18078fa043ea8439782c4e7.html#ac0aac20cd18078fa043ea8439782c4e7" target="_top" xlink:title=" ">
<polygon fill="white" stroke="black" points="1543.5,-128.5 1543.5,-147.5 1695.5,-147.5 1695.5,-128.5 1543.5,-128.5"/>
<text text-anchor="middle" x="1619.5" y="-135.5" font-family="Helvetica,sans-Serif" font-size="10.00">TileDrawing.DrawSingleTile</text>
</a>
</g>
</g>
<!-- Node1&#45;&gt;Node21 -->
<g id="edge28" class="edge">
<title>Node1&#45;&gt;Node21</title>
<path fill="none" stroke="midnightblue" d="M1771.39,-190.97C1734.92,-178.17 1680.11,-158.93 1647.56,-147.5"/>
<polygon fill="midnightblue" stroke="midnightblue" points="1770.57,-194.39 1781.16,-194.4 1772.89,-187.79 1770.57,-194.39"/>
</g>
<!-- Node26 -->
<g id="node26" class="node">
<title>Node26</title>
<g id="a_node26"><a xlink:href="../../d1/db9/classTileDrawing_a0a3eb8dfb005c7e78f22e1d614d3006e.html#a0a3eb8dfb005c7e78f22e1d614d3006e" target="_top" xlink:title=" ">
<polygon fill="white" stroke="black" points="1545.5,-284.5 1545.5,-303.5 1693.5,-303.5 1693.5,-284.5 1545.5,-284.5"/>
<text text-anchor="middle" x="1619.5" y="-291.5" font-family="Helvetica,sans-Serif" font-size="10.00">TileDrawing.DrawVineStrip</text>
</a>
</g>
</g>
<!-- Node1&#45;&gt;Node26 -->
<g id="edge40" class="edge">
<title>Node1&#45;&gt;Node26</title>
<path fill="none" stroke="midnightblue" d="M1779.22,-218.02C1740.62,-236.5 1673.74,-268.52 1640.47,-284.44"/>
<polygon fill="midnightblue" stroke="midnightblue" points="1780.87,-221.11 1788.38,-213.63 1777.85,-214.79 1780.87,-221.11"/>
</g>
<!-- Node3 -->
<g id="node3" class="node">
<title>Node3</title>
<g id="a_node3"><a xlink:href="../../d1/db9/classTileDrawing_af3a3ca0d51682564fc7773aec5cf3532.html#af3a3ca0d51682564fc7773aec5cf3532" target="_top" xlink:title=" ">
<polygon fill="white" stroke="black" points="1145,-166 1145,-196 1321,-196 1321,-166 1145,-166"/>
<text text-anchor="start" x="1153" y="-184" font-family="Helvetica,sans-Serif" font-size="10.00">TileDrawing.DrawAnyDirectional</text>
<text text-anchor="middle" x="1233" y="-173" font-family="Helvetica,sans-Serif" font-size="10.00">Grass</text>
</a>
</g>
</g>
<!-- Node2&#45;&gt;Node3 -->
<g id="edge2" class="edge">
<title>Node2&#45;&gt;Node3</title>
<path fill="none" stroke="midnightblue" d="M1528.59,-198.62C1466.08,-194.88 1383.19,-189.92 1321.27,-186.22"/>
<polygon fill="midnightblue" stroke="midnightblue" points="1528.64,-202.13 1538.83,-199.23 1529.06,-195.14 1528.64,-202.13"/>
</g>
<!-- Node16 -->
<g id="node16" class="node">
<title>Node16</title>
<g id="a_node16"><a xlink:href="../../d1/db9/classTileDrawing_a5c41fca3327511ff676e456107c82b2a.html#a5c41fca3327511ff676e456107c82b2a" target="_top" xlink:title=" ">
<polygon fill="white" stroke="black" points="1364.5,-130.5 1364.5,-149.5 1495.5,-149.5 1495.5,-130.5 1364.5,-130.5"/>
<text text-anchor="middle" x="1430" y="-137.5" font-family="Helvetica,sans-Serif" font-size="10.00">TileDrawing.DrawGrass</text>
</a>
</g>
</g>
<!-- Node2&#45;&gt;Node16 -->
<g id="edge20" class="edge">
<title>Node2&#45;&gt;Node16</title>
<path fill="none" stroke="midnightblue" d="M1565.05,-185.76C1530.48,-173.96 1486.89,-159.08 1458.98,-149.55"/>
<polygon fill="midnightblue" stroke="midnightblue" points="1563.95,-189.08 1574.54,-188.99 1566.21,-182.45 1563.95,-189.08"/>
</g>
<!-- Node17 -->
<g id="node17" class="node">
<title>Node17</title>
<g id="a_node17"><a xlink:href="../../d1/db9/classTileDrawing_a3de726f34cc33193ef349fc407c8ba80.html#a3de726f34cc33193ef349fc407c8ba80" target="_top" xlink:title=" ">
<polygon fill="white" stroke="black" points="1357,-262 1357,-292 1503,-292 1503,-262 1357,-262"/>
<text text-anchor="start" x="1365" y="-280" font-family="Helvetica,sans-Serif" font-size="10.00">TileDrawing.DrawMultiTile</text>
<text text-anchor="middle" x="1430" y="-269" font-family="Helvetica,sans-Serif" font-size="10.00">GrassInWind</text>
</a>
</g>
</g>
<!-- Node2&#45;&gt;Node17 -->
<g id="edge22" class="edge">
<title>Node2&#45;&gt;Node17</title>
<path fill="none" stroke="midnightblue" d="M1573.08,-222.97C1551.87,-231.71 1526.22,-242.09 1503,-251 1493.57,-254.62 1483.39,-258.38 1473.75,-261.88"/>
<polygon fill="midnightblue" stroke="midnightblue" points="1574.58,-226.14 1582.49,-219.08 1571.91,-219.67 1574.58,-226.14"/>
</g>
<!-- Node19 -->
<g id="node19" class="node">
<title>Node19</title>
<g id="a_node19"><a xlink:href="../../d1/db9/classTileDrawing_a2a1ae67a1abd9edf4dabaaf13f028a40.html#a2a1ae67a1abd9edf4dabaaf13f028a40" target="_top" xlink:title=" ">
<polygon fill="white" stroke="black" points="1357,-212 1357,-242 1503,-242 1503,-212 1357,-212"/>
<text text-anchor="start" x="1365" y="-230" font-family="Helvetica,sans-Serif" font-size="10.00">TileDrawing.DrawMultiTile</text>
<text text-anchor="middle" x="1430" y="-219" font-family="Helvetica,sans-Serif" font-size="10.00">VinesInWind</text>
</a>
</g>
</g>
<!-- Node2&#45;&gt;Node19 -->
<g id="edge25" class="edge">
<title>Node2&#45;&gt;Node19</title>
<path fill="none" stroke="midnightblue" d="M1528.9,-214.99C1520.29,-216.05 1511.62,-217.11 1503.2,-218.14"/>
<polygon fill="midnightblue" stroke="midnightblue" points="1529.48,-218.45 1538.98,-213.75 1528.63,-211.5 1529.48,-218.45"/>
</g>
<!-- Node4 -->
<g id="node4" class="node">
<title>Node4</title>
<g id="a_node4"><a xlink:href="../../d1/db9/classTileDrawing_a571485737560e3fb67c3ebe2d79e4290.html#a571485737560e3fb67c3ebe2d79e4290" target="_top" xlink:title=" ">
<polygon fill="white" stroke="black" points="961,-149.5 961,-168.5 1109,-168.5 1109,-149.5 961,-149.5"/>
<text text-anchor="middle" x="1035" y="-156.5" font-family="Helvetica,sans-Serif" font-size="10.00">TileDrawing.PostDrawTiles</text>
</a>
</g>
</g>
<!-- Node3&#45;&gt;Node4 -->
<g id="edge3" class="edge">
<title>Node3&#45;&gt;Node4</title>
<path fill="none" stroke="midnightblue" d="M1134.76,-170.09C1126.12,-169.12 1117.46,-168.14 1109.07,-167.2"/>
<polygon fill="midnightblue" stroke="midnightblue" points="1134.56,-173.58 1144.89,-171.22 1135.34,-166.63 1134.56,-173.58"/>
</g>
<!-- Node5 -->
<g id="node5" class="node">
<title>Node5</title>
<g id="a_node5"><a xlink:href="../../db/d4a/classMain_aef2eb69e78dc34f3f9f3b01cf5032b2e.html#aef2eb69e78dc34f3f9f3b01cf5032b2e" target="_top" xlink:title=" ">
<polygon fill="white" stroke="black" points="801,-104.5 801,-123.5 925,-123.5 925,-104.5 801,-104.5"/>
<text text-anchor="middle" x="863" y="-111.5" font-family="Helvetica,sans-Serif" font-size="10.00">Main.DrawTileEntities</text>
</a>
</g>
</g>
<!-- Node4&#45;&gt;Node5 -->
<g id="edge4" class="edge">
<title>Node4&#45;&gt;Node5</title>
<path fill="none" stroke="midnightblue" d="M988.1,-146.85C960.43,-139.52 925.68,-130.33 900,-123.53"/>
<polygon fill="midnightblue" stroke="midnightblue" points="987.38,-150.28 997.95,-149.46 989.18,-143.51 987.38,-150.28"/>
</g>
<!-- Node6 -->
<g id="node6" class="node">
<title>Node6</title>
<g id="a_node6"><a xlink:href="../../db/d4a/classMain_a49fbca8cbcc633f5953266eb58916377.html#a49fbca8cbcc633f5953266eb58916377" target="_top" xlink:title=" ">
<polygon fill="white" stroke="black" points="605,-114.5 605,-133.5 765,-133.5 765,-114.5 605,-114.5"/>
<text text-anchor="middle" x="685" y="-121.5" font-family="Helvetica,sans-Serif" font-size="10.00">Main.DoDraw_Tiles_NonSolid</text>
</a>
</g>
</g>
<!-- Node5&#45;&gt;Node6 -->
<g id="edge5" class="edge">
<title>Node5&#45;&gt;Node6</title>
<path fill="none" stroke="midnightblue" d="M790.8,-118.05C782.39,-118.52 773.76,-119.01 765.24,-119.5"/>
<polygon fill="midnightblue" stroke="midnightblue" points="791.15,-121.53 800.94,-117.47 790.76,-114.54 791.15,-121.53"/>
</g>
<!-- Node10 -->
<g id="node10" class="node">
<title>Node10</title>
<g id="a_node10"><a xlink:href="../../db/d4a/classMain_a227a81a823ee604ece9750df1492bb4a.html#a227a81a823ee604ece9750df1492bb4a" target="_top" xlink:title=" ">
<polygon fill="white" stroke="black" points="615,-152.5 615,-171.5 755,-171.5 755,-152.5 615,-152.5"/>
<text text-anchor="middle" x="685" y="-159.5" font-family="Helvetica,sans-Serif" font-size="10.00">Main.DoDraw_Tiles_Solid</text>
</a>
</g>
</g>
<!-- Node5&#45;&gt;Node10 -->
<g id="edge10" class="edge">
<title>Node5&#45;&gt;Node10</title>
<path fill="none" stroke="midnightblue" d="M821.72,-126.58C804.33,-131.87 783.73,-137.95 765,-143 752.88,-146.27 739.64,-149.56 727.52,-152.46"/>
<polygon fill="midnightblue" stroke="midnightblue" points="823,-129.85 831.54,-123.57 820.95,-123.15 823,-129.85"/>
</g>
<!-- Node11 -->
<g id="node11" class="node">
<title>Node11</title>
<g id="a_node11"><a xlink:href="../../db/d4a/classMain_a4974e62de1747c04f85a9412644e10a4.html#a4974e62de1747c04f85a9412644e10a4" target="_top" xlink:title=" ">
<polygon fill="white" stroke="black" points="631.5,-76.5 631.5,-95.5 738.5,-95.5 738.5,-76.5 631.5,-76.5"/>
<text text-anchor="middle" x="685" y="-83.5" font-family="Helvetica,sans-Serif" font-size="10.00">Main.DrawCapture</text>
</a>
</g>
</g>
<!-- Node5&#45;&gt;Node11 -->
<g id="edge12" class="edge">
<title>Node5&#45;&gt;Node11</title>
<path fill="none" stroke="midnightblue" d="M791.67,-102.81C774.01,-100 755.37,-97.04 738.74,-94.39"/>
<polygon fill="midnightblue" stroke="midnightblue" points="791.5,-106.33 801.92,-104.44 792.6,-99.41 791.5,-106.33"/>
</g>
<!-- Node14 -->
<g id="node14" class="node">
<title>Node14</title>
<g id="a_node14"><a xlink:href="../../db/d4a/classMain_a4214c8144461dc8addb68789bd972e27.html#a4214c8144461dc8addb68789bd972e27" target="_top" xlink:title=" ">
<polygon fill="white" stroke="black" points="634.5,-38.5 634.5,-57.5 735.5,-57.5 735.5,-38.5 634.5,-38.5"/>
<text text-anchor="middle" x="685" y="-45.5" font-family="Helvetica,sans-Serif" font-size="10.00">Main.RenderTiles</text>
</a>
</g>
</g>
<!-- Node5&#45;&gt;Node14 -->
<g id="edge16" class="edge">
<title>Node5&#45;&gt;Node14</title>
<path fill="none" stroke="midnightblue" d="M831.12,-100.23C821.43,-95.8 810.72,-90.79 801,-86 784.77,-78 781.93,-73.39 765,-67 755.23,-63.31 744.51,-60.17 734.2,-57.57"/>
<polygon fill="midnightblue" stroke="midnightblue" points="829.86,-103.5 840.41,-104.44 832.75,-97.12 829.86,-103.5"/>
</g>
<!-- Node15 -->
<g id="node15" class="node">
<title>Node15</title>
<g id="a_node15"><a xlink:href="../../db/d4a/classMain_a563e1396e992e40426e5bf9eae412c88.html#a563e1396e992e40426e5bf9eae412c88" target="_top" xlink:title=" ">
<polygon fill="white" stroke="black" points="631.5,-0.5 631.5,-19.5 738.5,-19.5 738.5,-0.5 631.5,-0.5"/>
<text text-anchor="middle" x="685" y="-7.5" font-family="Helvetica,sans-Serif" font-size="10.00">Main.RenderTiles2</text>
</a>
</g>
</g>
<!-- Node5&#45;&gt;Node15 -->
<g id="edge18" class="edge">
<title>Node5&#45;&gt;Node15</title>
<path fill="none" stroke="midnightblue" d="M823.19,-100.28C815.33,-96.42 807.49,-91.68 801,-86 778.45,-66.27 789.36,-46.45 765,-29 757.2,-23.41 747.97,-19.45 738.62,-16.65"/>
<polygon fill="midnightblue" stroke="midnightblue" points="821.8,-103.49 832.36,-104.42 824.68,-97.11 821.8,-103.49"/>
</g>
<!-- Node7 -->
<g id="node7" class="node">
<title>Node7</title>
<g id="a_node7"><a xlink:href="../../db/d4a/classMain_a7e2d2a0a6034fbb1714af4128681068d.html#a7e2d2a0a6034fbb1714af4128681068d" target="_top" xlink:title=" ">
<polygon fill="white" stroke="black" points="406,-114.5 406,-133.5 569,-133.5 569,-114.5 406,-114.5"/>
<text text-anchor="middle" x="487.5" y="-121.5" font-family="Helvetica,sans-Serif" font-size="10.00">Main.DoDraw_WallsTilesNPCs</text>
</a>
</g>
</g>
<!-- Node6&#45;&gt;Node7 -->
<g id="edge6" class="edge">
<title>Node6&#45;&gt;Node7</title>
<path fill="none" stroke="midnightblue" d="M594.5,-124C586.04,-124 577.49,-124 569.12,-124"/>
<polygon fill="midnightblue" stroke="midnightblue" points="594.76,-127.5 604.76,-124 594.76,-120.5 594.76,-127.5"/>
</g>
<!-- Node8 -->
<g id="node8" class="node">
<title>Node8</title>
<g id="a_node8"><a xlink:href="../../db/d4a/classMain_a4ca48570ee8c9e54ed5371ecb4ab1877.html#a4ca48570ee8c9e54ed5371ecb4ab1877" target="_top" xlink:title=" ">
<polygon fill="white" stroke="black" points="105,-57.5 105,-76.5 188,-76.5 188,-57.5 105,-57.5"/>
<text text-anchor="middle" x="146.5" y="-64.5" font-family="Helvetica,sans-Serif" font-size="10.00">Main.DoDraw</text>
</a>
</g>
</g>
<!-- Node7&#45;&gt;Node8 -->
<g id="edge7" class="edge">
<title>Node7&#45;&gt;Node8</title>
<path fill="none" stroke="midnightblue" d="M395.82,-126.03C344.57,-125.05 279.79,-120.24 224,-105 201.25,-98.79 177.25,-85.63 162.33,-76.56"/>
<polygon fill="midnightblue" stroke="midnightblue" points="395.84,-129.53 405.89,-126.17 395.94,-122.53 395.84,-129.53"/>
</g>
<!-- Node9 -->
<g id="node9" class="node">
<title>Node9</title>
<g id="a_node9"><a xlink:href="../../db/d4a/classMain_a9df405f7c9ce2e93e9af9bbf70231672.html#a9df405f7c9ce2e93e9af9bbf70231672" target="_top" xlink:title=" ">
<polygon fill="white" stroke="black" points="0,-57.5 0,-76.5 69,-76.5 69,-57.5 0,-57.5"/>
<text text-anchor="middle" x="34.5" y="-64.5" font-family="Helvetica,sans-Serif" font-size="10.00">Main.Draw</text>
</a>
</g>
</g>
<!-- Node8&#45;&gt;Node9 -->
<g id="edge8" class="edge">
<title>Node8&#45;&gt;Node9</title>
<path fill="none" stroke="midnightblue" d="M94.77,-60.27C86.08,-60.19 77.24,-60.35 69.14,-60.72"/>
<polygon fill="midnightblue" stroke="midnightblue" points="94.79,-63.77 104.85,-60.46 94.92,-56.77 94.79,-63.77"/>
</g>
<!-- Node9&#45;&gt;Node8 -->
<g id="edge9" class="edge">
<title>Node9&#45;&gt;Node8</title>
<path fill="none" stroke="midnightblue" d="M79.21,-73.62C87.67,-73.82 96.5,-73.79 104.85,-73.54"/>
<polygon fill="midnightblue" stroke="midnightblue" points="79.25,-70.12 69.14,-73.28 79.01,-77.12 79.25,-70.12"/>
</g>
<!-- Node10&#45;&gt;Node7 -->
<g id="edge11" class="edge">
<title>Node10&#45;&gt;Node7</title>
<path fill="none" stroke="midnightblue" d="M624.89,-150.51C597,-145.09 564.1,-138.69 537.6,-133.54"/>
<polygon fill="midnightblue" stroke="midnightblue" points="624.44,-153.99 634.92,-152.46 625.77,-147.12 624.44,-153.99"/>
</g>
<!-- Node12 -->
<g id="node12" class="node">
<title>Node12</title>
<g id="a_node12"><a xlink:href="../../d5/d00/classCaptureCamera_a8fa0ba1b174c03b961a56ccc4bcdd664.html#a8fa0ba1b174c03b961a56ccc4bcdd664" target="_top" xlink:title=" ">
<polygon fill="white" stroke="black" points="416.5,-76.5 416.5,-95.5 558.5,-95.5 558.5,-76.5 416.5,-76.5"/>
<text text-anchor="middle" x="487.5" y="-83.5" font-family="Helvetica,sans-Serif" font-size="10.00">CaptureCamera.DrawTick</text>
</a>
</g>
</g>
<!-- Node11&#45;&gt;Node12 -->
<g id="edge13" class="edge">
<title>Node11&#45;&gt;Node12</title>
<path fill="none" stroke="midnightblue" d="M621.13,-86C601.16,-86 578.96,-86 558.52,-86"/>
<polygon fill="midnightblue" stroke="midnightblue" points="621.35,-89.5 631.35,-86 621.35,-82.5 621.35,-89.5"/>
</g>
<!-- Node13 -->
<g id="node13" class="node">
<title>Node13</title>
<g id="a_node13"><a xlink:href="../../db/d87/classCaptureManager_ac215a4135ee09bd51a7e41253733fd22.html#ac215a4135ee09bd51a7e41253733fd22" target="_top" xlink:title=" ">
<polygon fill="white" stroke="black" points="224,-76.5 224,-95.5 370,-95.5 370,-76.5 224,-76.5"/>
<text text-anchor="middle" x="297" y="-83.5" font-family="Helvetica,sans-Serif" font-size="10.00">CaptureManager.DrawTick</text>
</a>
</g>
</g>
<!-- Node12&#45;&gt;Node13 -->
<g id="edge14" class="edge">
<title>Node12&#45;&gt;Node13</title>
<path fill="none" stroke="midnightblue" d="M406.31,-86C394.3,-86 381.97,-86 370.14,-86"/>
<polygon fill="midnightblue" stroke="midnightblue" points="406.31,-89.5 416.31,-86 406.31,-82.5 406.31,-89.5"/>
</g>
<!-- Node13&#45;&gt;Node8 -->
<g id="edge15" class="edge">
<title>Node13&#45;&gt;Node8</title>
<path fill="none" stroke="midnightblue" d="M213.87,-75.49C205,-74.36 196.28,-73.24 188.23,-72.21"/>
<polygon fill="midnightblue" stroke="midnightblue" points="213.56,-78.98 223.93,-76.78 214.45,-72.04 213.56,-78.98"/>
</g>
<!-- Node14&#45;&gt;Node8 -->
<g id="edge17" class="edge">
<title>Node14&#45;&gt;Node8</title>
<path fill="none" stroke="midnightblue" d="M624.23,-50.12C514.19,-54.01 282.23,-62.23 188.29,-65.56"/>
<polygon fill="midnightblue" stroke="midnightblue" points="624.62,-53.61 634.49,-49.75 624.37,-46.61 624.62,-53.61"/>
</g>
<!-- Node15&#45;&gt;Node8 -->
<g id="edge19" class="edge">
<title>Node15&#45;&gt;Node8</title>
<path fill="none" stroke="midnightblue" d="M621.34,-15.4C532.72,-23.24 365.78,-38.73 224,-56 212.41,-57.41 199.87,-59.13 188.35,-60.79"/>
<polygon fill="midnightblue" stroke="midnightblue" points="621.83,-18.87 631.49,-14.51 621.22,-11.9 621.83,-18.87"/>
</g>
<!-- Node16&#45;&gt;Node4 -->
<g id="edge21" class="edge">
<title>Node16&#45;&gt;Node4</title>
<path fill="none" stroke="midnightblue" d="M1353.97,-143.63C1283.52,-147.03 1178.8,-152.1 1109.01,-155.47"/>
<polygon fill="midnightblue" stroke="midnightblue" points="1354.28,-147.12 1364.1,-143.14 1353.95,-140.12 1354.28,-147.12"/>
</g>
<!-- Node18 -->
<g id="node18" class="node">
<title>Node18</title>
<g id="a_node18"><a xlink:href="../../d1/db9/classTileDrawing_a52f613d8bd8df0e0ace90306f4f29396.html#a52f613d8bd8df0e0ace90306f4f29396" target="_top" xlink:title=" ">
<polygon fill="white" stroke="black" points="1160,-264 1160,-294 1306,-294 1306,-264 1160,-264"/>
<text text-anchor="start" x="1168" y="-282" font-family="Helvetica,sans-Serif" font-size="10.00">TileDrawing.DrawMultiTile</text>
<text text-anchor="middle" x="1233" y="-271" font-family="Helvetica,sans-Serif" font-size="10.00">Grass</text>
</a>
</g>
</g>
<!-- Node17&#45;&gt;Node18 -->
<g id="edge23" class="edge">
<title>Node17&#45;&gt;Node18</title>
<path fill="none" stroke="midnightblue" d="M1346.71,-277.84C1333.21,-277.98 1319.31,-278.12 1306.09,-278.26"/>
<polygon fill="midnightblue" stroke="midnightblue" points="1346.98,-281.34 1356.94,-277.74 1346.91,-274.34 1346.98,-281.34"/>
</g>
<!-- Node18&#45;&gt;Node4 -->
<g id="edge24" class="edge">
<title>Node18&#45;&gt;Node4</title>
<path fill="none" stroke="midnightblue" d="M1158.11,-260.27C1153.59,-258.36 1149.18,-256.27 1145,-254 1102,-230.6 1061.27,-187.73 1044.29,-168.63"/>
<polygon fill="midnightblue" stroke="midnightblue" points="1156.94,-263.57 1167.53,-263.95 1159.49,-257.05 1156.94,-263.57"/>
</g>
<!-- Node20 -->
<g id="node20" class="node">
<title>Node20</title>
<g id="a_node20"><a xlink:href="../../d1/db9/classTileDrawing_a4a41162ee0e6c3684dc3431329432911.html#a4a41162ee0e6c3684dc3431329432911" target="_top" xlink:title=" ">
<polygon fill="white" stroke="black" points="1160,-215 1160,-245 1306,-245 1306,-215 1160,-215"/>
<text text-anchor="start" x="1168" y="-233" font-family="Helvetica,sans-Serif" font-size="10.00">TileDrawing.DrawMultiTile</text>
<text text-anchor="middle" x="1233" y="-222" font-family="Helvetica,sans-Serif" font-size="10.00">Vines</text>
</a>
</g>
</g>
<!-- Node19&#45;&gt;Node20 -->
<g id="edge26" class="edge">
<title>Node19&#45;&gt;Node20</title>
<path fill="none" stroke="midnightblue" d="M1346.71,-228.27C1333.21,-228.47 1319.31,-228.69 1306.09,-228.89"/>
<polygon fill="midnightblue" stroke="midnightblue" points="1347,-231.76 1356.94,-228.11 1346.89,-224.76 1347,-231.76"/>
</g>
<!-- Node20&#45;&gt;Node4 -->
<g id="edge27" class="edge">
<title>Node20&#45;&gt;Node4</title>
<path fill="none" stroke="midnightblue" d="M1166.21,-212C1159.01,-209.76 1151.83,-207.41 1145,-205 1113.63,-193.92 1078.31,-178.44 1056.61,-168.57"/>
<polygon fill="midnightblue" stroke="midnightblue" points="1165.41,-215.42 1175.99,-214.98 1167.44,-208.72 1165.41,-215.42"/>
</g>
<!-- Node22 -->
<g id="node22" class="node">
<title>Node22</title>
<g id="a_node22"><a xlink:href="../../d1/db9/classTileDrawing_a01dc0d84a570e822e96f8b282535fcc0.html#a01dc0d84a570e822e96f8b282535fcc0" target="_top" xlink:title=" ">
<polygon fill="white" stroke="black" points="1378,-59.5 1378,-78.5 1482,-78.5 1482,-59.5 1378,-59.5"/>
<text text-anchor="middle" x="1430" y="-66.5" font-family="Helvetica,sans-Serif" font-size="10.00">TileDrawing.Draw</text>
</a>
</g>
</g>
<!-- Node21&#45;&gt;Node22 -->
<g id="edge29" class="edge">
<title>Node21&#45;&gt;Node22</title>
<path fill="none" stroke="midnightblue" d="M1582.6,-124.79C1545.81,-111.25 1489.49,-90.52 1456.85,-78.51"/>
<polygon fill="midnightblue" stroke="midnightblue" points="1581.84,-128.24 1592.43,-128.41 1584.25,-121.67 1581.84,-128.24"/>
</g>
<!-- Node23 -->
<g id="node23" class="node">
<title>Node23</title>
<g id="a_node23"><a xlink:href="../../d1/db9/classTileDrawing_ab91dd3fdb80fc2503ee715a05cc2cfbb.html#ab91dd3fdb80fc2503ee715a05cc2cfbb" target="_top" xlink:title=" ">
<polygon fill="white" stroke="black" points="1163,-29 1163,-59 1303,-59 1303,-29 1163,-29"/>
<text text-anchor="start" x="1171" y="-47" font-family="Helvetica,sans-Serif" font-size="10.00">TileDrawing.DrawEntities</text>
<text text-anchor="middle" x="1233" y="-36" font-family="Helvetica,sans-Serif" font-size="10.00">_DisplayDolls</text>
</a>
</g>
</g>
<!-- Node22&#45;&gt;Node23 -->
<g id="edge30" class="edge">
<title>Node22&#45;&gt;Node23</title>
<path fill="none" stroke="midnightblue" d="M1367.63,-61.13C1347.17,-58.51 1324.24,-55.57 1303.22,-52.87"/>
<polygon fill="midnightblue" stroke="midnightblue" points="1367.4,-64.63 1377.77,-62.43 1368.29,-57.69 1367.4,-64.63"/>
</g>
<!-- Node24 -->
<g id="node24" class="node">
<title>Node24</title>
<g id="a_node24"><a xlink:href="../../d1/db9/classTileDrawing_af8e9762ef6c994c6651404fea9e7a596.html#af8e9762ef6c994c6651404fea9e7a596" target="_top" xlink:title=" ">
<polygon fill="white" stroke="black" points="1163,-78 1163,-108 1303,-108 1303,-78 1163,-78"/>
<text text-anchor="start" x="1171" y="-96" font-family="Helvetica,sans-Serif" font-size="10.00">TileDrawing.DrawEntities</text>
<text text-anchor="middle" x="1233" y="-85" font-family="Helvetica,sans-Serif" font-size="10.00">_HatRacks</text>
</a>
</g>
</g>
<!-- Node22&#45;&gt;Node24 -->
<g id="edge32" class="edge">
<title>Node22&#45;&gt;Node24</title>
<path fill="none" stroke="midnightblue" d="M1367.63,-76.55C1347.17,-79.07 1324.24,-81.89 1303.22,-84.48"/>
<polygon fill="midnightblue" stroke="midnightblue" points="1368.27,-80 1377.77,-75.31 1367.41,-73.05 1368.27,-80"/>
</g>
<!-- Node25 -->
<g id="node25" class="node">
<title>Node25</title>
<g id="a_node25"><a xlink:href="../../db/d4a/classMain_a8e20f716cb5a5a33b489394f028c6cb9.html#a8e20f716cb5a5a33b489394f028c6cb9" target="_top" xlink:title=" ">
<polygon fill="white" stroke="black" points="817,-57.5 817,-76.5 909,-76.5 909,-57.5 817,-57.5"/>
<text text-anchor="middle" x="863" y="-64.5" font-family="Helvetica,sans-Serif" font-size="10.00">Main.DrawTiles</text>
</a>
</g>
</g>
<!-- Node22&#45;&gt;Node25 -->
<g id="edge34" class="edge">
<title>Node22&#45;&gt;Node25</title>
<path fill="none" stroke="midnightblue" d="M1405.38,-54.4C1384.18,-42.21 1351.76,-25.77 1321,-19 1162.26,15.96 966.71,-35.13 893.5,-57.45"/>
<polygon fill="midnightblue" stroke="midnightblue" points="1403.62,-57.42 1414.01,-59.49 1407.17,-51.39 1403.62,-57.42"/>
</g>
<!-- Node23&#45;&gt;Node4 -->
<g id="edge31" class="edge">
<title>Node23&#45;&gt;Node4</title>
<path fill="none" stroke="midnightblue" d="M1156.12,-62.79C1152.3,-64.4 1148.57,-66.13 1145,-68 1102.63,-90.19 1061.88,-131.01 1044.63,-149.48"/>
<polygon fill="midnightblue" stroke="midnightblue" points="1157.71,-65.92 1165.77,-59.04 1155.18,-59.4 1157.71,-65.92"/>
</g>
<!-- Node24&#45;&gt;Node4 -->
<g id="edge33" class="edge">
<title>Node24&#45;&gt;Node4</title>
<path fill="none" stroke="midnightblue" d="M1177.46,-111.37C1140.77,-123.72 1093.88,-139.51 1064.38,-149.44"/>
<polygon fill="midnightblue" stroke="midnightblue" points="1178.67,-114.65 1187.03,-108.14 1176.44,-108.02 1178.67,-114.65"/>
</g>
<!-- Node25&#45;&gt;Node6 -->
<g id="edge35" class="edge">
<title>Node25&#45;&gt;Node6</title>
<path fill="none" stroke="midnightblue" d="M830.69,-80.53C811.88,-88.34 787.33,-97.98 765,-105 753.97,-108.47 741.89,-111.67 730.58,-114.41"/>
<polygon fill="midnightblue" stroke="midnightblue" points="832.1,-83.73 839.97,-76.64 829.39,-77.28 832.1,-83.73"/>
</g>
<!-- Node25&#45;&gt;Node10 -->
<g id="edge36" class="edge">
<title>Node25&#45;&gt;Node10</title>
<path fill="none" stroke="midnightblue" d="M824.22,-80.79C816.11,-84.69 807.91,-89.43 801,-95 780.24,-111.74 787.28,-128.35 765,-143 759.11,-146.88 752.5,-149.96 745.69,-152.42"/>
<polygon fill="midnightblue" stroke="midnightblue" points="825.91,-83.86 833.62,-76.59 823.06,-77.47 825.91,-83.86"/>
</g>
<!-- Node25&#45;&gt;Node11 -->
<g id="edge37" class="edge">
<title>Node25&#45;&gt;Node11</title>
<path fill="none" stroke="midnightblue" d="M806.62,-72.98C784.9,-75.32 760.1,-78 738.66,-80.32"/>
<polygon fill="midnightblue" stroke="midnightblue" points="807.11,-76.45 816.68,-71.89 806.36,-69.49 807.11,-76.45"/>
</g>
<!-- Node25&#45;&gt;Node14 -->
<g id="edge38" class="edge">
<title>Node25&#45;&gt;Node14</title>
<path fill="none" stroke="midnightblue" d="M806.48,-61.01C783.73,-58.55 757.6,-55.73 735.5,-53.34"/>
<polygon fill="midnightblue" stroke="midnightblue" points="806.36,-64.51 816.68,-62.11 807.11,-57.55 806.36,-64.51"/>
</g>
<!-- Node25&#45;&gt;Node15 -->
<g id="edge39" class="edge">
<title>Node25&#45;&gt;Node15</title>
<path fill="none" stroke="midnightblue" d="M830.69,-53.47C811.88,-45.66 787.33,-36.02 765,-29 753.97,-25.53 741.89,-22.33 730.58,-19.59"/>
<polygon fill="midnightblue" stroke="midnightblue" points="829.39,-56.72 839.97,-57.36 832.1,-50.27 829.39,-56.72"/>
</g>
<!-- Node27 -->
<g id="node27" class="node">
<title>Node27</title>
<g id="a_node27"><a xlink:href="../../d1/db9/classTileDrawing_a4f635fd5d5b9d03a57c50f7773be1ecb.html#a4f635fd5d5b9d03a57c50f7773be1ecb" target="_top" xlink:title=" ">
<polygon fill="white" stroke="black" points="1364.5,-312.5 1364.5,-331.5 1495.5,-331.5 1495.5,-312.5 1364.5,-312.5"/>
<text text-anchor="middle" x="1430" y="-319.5" font-family="Helvetica,sans-Serif" font-size="10.00">TileDrawing.DrawVines</text>
</a>
</g>
</g>
<!-- Node26&#45;&gt;Node27 -->
<g id="edge41" class="edge">
<title>Node26&#45;&gt;Node27</title>
<path fill="none" stroke="midnightblue" d="M1544.65,-305.03C1528.2,-307.49 1510.89,-310.07 1494.88,-312.46"/>
<polygon fill="midnightblue" stroke="midnightblue" points="1545.39,-308.46 1554.76,-303.52 1544.35,-301.53 1545.39,-308.46"/>
</g>
<!-- Node27&#45;&gt;Node4 -->
<g id="edge42" class="edge">
<title>Node27&#45;&gt;Node4</title>
<path fill="none" stroke="midnightblue" d="M1361.11,-332.61C1300.69,-338.68 1211.8,-339.05 1145,-303 1087.33,-271.88 1051.17,-195.59 1039.84,-168.63"/>
<polygon fill="midnightblue" stroke="midnightblue" points="1361.74,-336.06 1371.3,-331.51 1360.98,-329.11 1361.74,-336.06"/>
</g>
</g>
</svg>
