<?xml version="1.0" encoding="UTF-8" standalone="no"?>
<!DOCTYPE svg PUBLIC "-//W3C//DTD SVG 1.1//EN"
 "http://www.w3.org/Graphics/SVG/1.1/DTD/svg11.dtd">
<!-- Generated by graphviz version 2.43.0 (0)
 -->
<!-- Title: Main.UpdateAudio_DecideOnNewMusic Pages: 1 -->
<svg width="565pt" height="142pt"
 viewBox="0.00 0.00 565.00 142.00" xmlns="http://www.w3.org/2000/svg" xmlns:xlink="http://www.w3.org/1999/xlink">
<g id="graph0" class="graph" transform="scale(1 1) rotate(0) translate(4 138)">
<title>Main.UpdateAudio_DecideOnNewMusic</title>
<polygon fill="white" stroke="transparent" points="-4,4 -4,-138 561,-138 561,4 -4,4"/>
<!-- Node1 -->
<g id="node1" class="node">
<title>Node1</title>
<g id="a_node1"><a xlink:title=" ">
<polygon fill="#bfbfbf" stroke="black" points="0,-52 0,-82 159,-82 159,-52 0,-52"/>
<text text-anchor="start" x="8" y="-70" font-family="Helvetica,sans-Serif" font-size="10.00">Main.UpdateAudio_DecideOn</text>
<text text-anchor="middle" x="79.5" y="-59" font-family="Helvetica,sans-Serif" font-size="10.00">NewMusic</text>
</a>
</g>
</g>
<!-- Node2 -->
<g id="node2" class="node">
<title>Node2</title>
<g id="a_node2"><a xlink:href="../../db/de4/classWorldGen_a5ee5c1aa704eb7690bc7fdd4a1147e66.html#a5ee5c1aa704eb7690bc7fdd4a1147e66" target="_top" xlink:title=" ">
<polygon fill="white" stroke="black" points="221.5,-114.5 221.5,-133.5 325.5,-133.5 325.5,-114.5 221.5,-114.5"/>
<text text-anchor="middle" x="273.5" y="-121.5" font-family="Helvetica,sans-Serif" font-size="10.00">WorldGen.InWorld</text>
</a>
</g>
</g>
<!-- Node1&#45;&gt;Node2 -->
<g id="edge1" class="edge">
<title>Node1&#45;&gt;Node2</title>
<path fill="none" stroke="midnightblue" d="M123.2,-82.07C144.62,-89.41 171.05,-98.1 195,-105 203.41,-107.42 212.4,-109.81 221.16,-112.03"/>
<polygon fill="midnightblue" stroke="midnightblue" points="220.36,-115.43 230.91,-114.45 222.05,-108.64 220.36,-115.43"/>
</g>
<!-- Node3 -->
<g id="node3" class="node">
<title>Node3</title>
<g id="a_node3"><a xlink:href="../../df/d4e/interfaceIAudioSystem_a95e200a9094895c4c860f045c498b3ff.html#a95e200a9094895c4c860f045c498b3ff" target="_top" xlink:title=" ">
<polygon fill="white" stroke="black" points="195,-76.5 195,-95.5 352,-95.5 352,-76.5 195,-76.5"/>
<text text-anchor="middle" x="273.5" y="-83.5" font-family="Helvetica,sans-Serif" font-size="10.00">IAudioSystem.IsTrackPlaying</text>
</a>
</g>
</g>
<!-- Node1&#45;&gt;Node3 -->
<g id="edge2" class="edge">
<title>Node1&#45;&gt;Node3</title>
<path fill="none" stroke="midnightblue" d="M159.15,-74.78C167.63,-75.62 176.31,-76.48 184.89,-77.33"/>
<polygon fill="midnightblue" stroke="midnightblue" points="184.61,-80.82 194.91,-78.32 185.3,-73.85 184.61,-80.82"/>
</g>
<!-- Node4 -->
<g id="node4" class="node">
<title>Node4</title>
<g id="a_node4"><a xlink:href="../../d6/d9a/classUnifiedRandom_a424f3e9455eb9b0a67085171d7d93d18.html#a424f3e9455eb9b0a67085171d7d93d18" target="_top" xlink:title=" ">
<polygon fill="white" stroke="black" points="214.5,-38.5 214.5,-57.5 332.5,-57.5 332.5,-38.5 214.5,-38.5"/>
<text text-anchor="middle" x="273.5" y="-45.5" font-family="Helvetica,sans-Serif" font-size="10.00">UnifiedRandom.Next</text>
</a>
</g>
</g>
<!-- Node1&#45;&gt;Node4 -->
<g id="edge3" class="edge">
<title>Node1&#45;&gt;Node4</title>
<path fill="none" stroke="midnightblue" d="M159.15,-59.22C174.13,-57.73 189.69,-56.2 204.3,-54.75"/>
<polygon fill="midnightblue" stroke="midnightblue" points="204.65,-58.23 214.26,-53.76 203.96,-51.27 204.65,-58.23"/>
</g>
<!-- Node6 -->
<g id="node6" class="node">
<title>Node6</title>
<g id="a_node6"><a xlink:href="../../db/de4/classWorldGen_a73008786d0fc129354e639646b0c0ace.html#a73008786d0fc129354e639646b0c0ace" target="_top" xlink:title=" ">
<polygon fill="white" stroke="black" points="208,-0.5 208,-19.5 339,-19.5 339,-0.5 208,-0.5"/>
<text text-anchor="middle" x="273.5" y="-7.5" font-family="Helvetica,sans-Serif" font-size="10.00">WorldGen.oceanDepths</text>
</a>
</g>
</g>
<!-- Node1&#45;&gt;Node6 -->
<g id="edge5" class="edge">
<title>Node1&#45;&gt;Node6</title>
<path fill="none" stroke="midnightblue" d="M123.2,-51.93C144.62,-44.59 171.05,-35.9 195,-29 203.41,-26.58 212.4,-24.19 221.16,-21.97"/>
<polygon fill="midnightblue" stroke="midnightblue" points="222.05,-25.36 230.91,-19.55 220.36,-18.57 222.05,-25.36"/>
</g>
<!-- Node5 -->
<g id="node5" class="node">
<title>Node5</title>
<g id="a_node5"><a xlink:href="../../d6/d9a/classUnifiedRandom_a005be01cf2fb47d9f5d02f0d44ed5921.html#a005be01cf2fb47d9f5d02f0d44ed5921" target="_top" xlink:title=" ">
<polygon fill="white" stroke="black" points="388,-38.5 388,-57.5 557,-57.5 557,-38.5 388,-38.5"/>
<text text-anchor="middle" x="472.5" y="-45.5" font-family="Helvetica,sans-Serif" font-size="10.00">UnifiedRandom.InternalSample</text>
</a>
</g>
</g>
<!-- Node4&#45;&gt;Node5 -->
<g id="edge4" class="edge">
<title>Node4&#45;&gt;Node5</title>
<path fill="none" stroke="midnightblue" d="M332.54,-48C346.79,-48 362.4,-48 377.85,-48"/>
<polygon fill="midnightblue" stroke="midnightblue" points="377.96,-51.5 387.96,-48 377.96,-44.5 377.96,-51.5"/>
</g>
</g>
</svg>
