<?xml version="1.0" encoding="UTF-8" standalone="no"?>
<!DOCTYPE svg PUBLIC "-//W3C//DTD SVG 1.1//EN"
 "http://www.w3.org/Graphics/SVG/1.1/DTD/svg11.dtd">
<!-- Generated by graphviz version 2.43.0 (0)
 -->
<!-- Title: Main.DrawInterface_18_DiagnoseVideo Pages: 1 -->
<!--zoomable 192 -->
<svg id="main" version="1.1" xmlns="http://www.w3.org/2000/svg" xmlns:xlink="http://www.w3.org/1999/xlink" xml:space="preserve" onload="init(evt)">
<style type="text/css"><![CDATA[
.edge:hover path { stroke: red; }
.edge:hover polygon { stroke: red; fill: red; }
]]></style>
<script type="text/javascript"><![CDATA[
var edges = document.getElementsByTagName('g');
if (edges && edges.length) {
  for (var i=0;i<edges.length;i++) {
    if (edges[i].id.substr(0,4)=='edge') {
      edges[i].setAttribute('class','edge');
    }
  }
}
]]></script>
        <defs>
                <circle id="rim" cx="0" cy="0" r="7"/>
                <circle id="rim2" cx="0" cy="0" r="3.5"/>
                <g id="zoomPlus">
                        <use xlink:href="#rim" fill="#404040">
                                <set attributeName="fill" to="#808080" begin="zoomplus.mouseover" end="zoomplus.mouseout"/>
                        </use>
                        <path d="M-4,0h8M0,-4v8" fill="none" stroke="white" stroke-width="1.5" pointer-events="none"/>
                </g>
                <g id="zoomMin">
                        <use xlink:href="#rim" fill="#404040">
                                <set attributeName="fill" to="#808080" begin="zoomminus.mouseover" end="zoomminus.mouseout"/>
                        </use>
                        <path d="M-4,0h8" fill="none" stroke="white" stroke-width="1.5" pointer-events="none"/>
                </g>
                <g id="dirArrow">
                        <path fill="none" stroke="white" stroke-width="1.5" d="M0,-3.0v7 M-2.5,-0.5L0,-3.0L2.5,-0.5"/>
                </g>
               <g id="resetDef">
                       <use xlink:href="#rim2" fill="#404040">
                               <set attributeName="fill" to="#808080" begin="reset.mouseover" end="reset.mouseout"/>
                       </use>
               </g>
        </defs>

<script type="text/javascript">
var viewWidth = 954;
var viewHeight = 192;
var sectionId = 'dynsection-0';
</script>
<script xlink:href="../../svgpan.js"/>
<svg id="graph" class="graph">
<g id="viewport">
<title>Main.DrawInterface_18_DiagnoseVideo</title>
<polygon fill="white" stroke="transparent" points="-4,4 -4,-187.5 950,-187.5 950,4 -4,4"/>
<!-- Node1 -->
<g id="node1" class="node">
<title>Node1</title>
<g id="a_node1"><a xlink:title=" ">
<polygon fill="#bfbfbf" stroke="black" points="0,-71 0,-101 113,-101 113,-71 0,-71"/>
<text text-anchor="start" x="8" y="-89" font-family="Helvetica,sans-Serif" font-size="10.00">Main.DrawInterface</text>
<text text-anchor="middle" x="56.5" y="-78" font-family="Helvetica,sans-Serif" font-size="10.00">_18_DiagnoseVideo</text>
</a>
</g>
</g>
<!-- Node2 -->
<g id="node2" class="node">
<title>Node2</title>
<g id="a_node2"><a xlink:href="../../d1/da8/classDynamicSpriteFontExtensionMethods_a486d15d13d93b4b4fa7810ecd507f0cf.html#a486d15d13d93b4b4fa7810ecd507f0cf" target="_top" xlink:title=" ">
<polygon fill="white" stroke="black" points="149,-153 149,-183 307,-183 307,-153 149,-153"/>
<text text-anchor="start" x="157" y="-171" font-family="Helvetica,sans-Serif" font-size="10.00">DynamicSpriteFontExtension</text>
<text text-anchor="middle" x="228" y="-160" font-family="Helvetica,sans-Serif" font-size="10.00">Methods.DrawString</text>
</a>
</g>
</g>
<!-- Node1&#45;&gt;Node2 -->
<g id="edge1" class="edge">
<title>Node1&#45;&gt;Node2</title>
<path fill="none" stroke="midnightblue" d="M78.47,-101.16C96.49,-113.66 123.53,-131.2 149,-143 153.92,-145.28 159.1,-147.43 164.36,-149.45"/>
<polygon fill="midnightblue" stroke="midnightblue" points="163.28,-152.78 173.88,-152.93 165.69,-146.2 163.28,-152.78"/>
</g>
<!-- Node6 -->
<g id="node6" class="node">
<title>Node6</title>
<g id="a_node6"><a xlink:href="../../de/d66/classTimeLogger_a26db37ce2f23e99fbf1e4e83f37dd147.html#a26db37ce2f23e99fbf1e4e83f37dd147" target="_top" xlink:title=" ">
<polygon fill="white" stroke="black" points="156,-114.5 156,-133.5 300,-133.5 300,-114.5 156,-114.5"/>
<text text-anchor="middle" x="228" y="-121.5" font-family="Helvetica,sans-Serif" font-size="10.00">TimeLogger.GetDrawTime</text>
</a>
</g>
</g>
<!-- Node1&#45;&gt;Node6 -->
<g id="edge6" class="edge">
<title>Node1&#45;&gt;Node6</title>
<path fill="none" stroke="midnightblue" d="M113,-98.44C132.82,-102.88 155.06,-107.87 174.61,-112.25"/>
<polygon fill="midnightblue" stroke="midnightblue" points="174.03,-115.71 184.55,-114.48 175.56,-108.88 174.03,-115.71"/>
</g>
<!-- Node7 -->
<g id="node7" class="node">
<title>Node7</title>
<g id="a_node7"><a xlink:href="../../de/d66/classTimeLogger_a7e28e763b39fddef1bb77aea7b69352c.html#a7e28e763b39fddef1bb77aea7b69352c" target="_top" xlink:title=" ">
<polygon fill="white" stroke="black" points="156.5,-76.5 156.5,-95.5 299.5,-95.5 299.5,-76.5 156.5,-76.5"/>
<text text-anchor="middle" x="228" y="-83.5" font-family="Helvetica,sans-Serif" font-size="10.00">TimeLogger.GetDrawTotal</text>
</a>
</g>
</g>
<!-- Node1&#45;&gt;Node7 -->
<g id="edge7" class="edge">
<title>Node1&#45;&gt;Node7</title>
<path fill="none" stroke="midnightblue" d="M113,-86C123.57,-86 134.83,-86 146.01,-86"/>
<polygon fill="midnightblue" stroke="midnightblue" points="146.23,-89.5 156.23,-86 146.23,-82.5 146.23,-89.5"/>
</g>
<!-- Node8 -->
<g id="node8" class="node">
<title>Node8</title>
<g id="a_node8"><a xlink:href="../../de/d66/classTimeLogger_af571d11f6f0f08205d4be9c7cdec16fd.html#af571d11f6f0f08205d4be9c7cdec16fd" target="_top" xlink:title=" ">
<polygon fill="white" stroke="black" points="149,-38.5 149,-57.5 307,-57.5 307,-38.5 149,-38.5"/>
<text text-anchor="middle" x="228" y="-45.5" font-family="Helvetica,sans-Serif" font-size="10.00">TimeLogger.GetLightingTime</text>
</a>
</g>
</g>
<!-- Node1&#45;&gt;Node8 -->
<g id="edge8" class="edge">
<title>Node1&#45;&gt;Node8</title>
<path fill="none" stroke="midnightblue" d="M113,-73.56C132.82,-69.12 155.06,-64.13 174.61,-59.75"/>
<polygon fill="midnightblue" stroke="midnightblue" points="175.56,-63.12 184.55,-57.52 174.03,-56.29 175.56,-63.12"/>
</g>
<!-- Node9 -->
<g id="node9" class="node">
<title>Node9</title>
<g id="a_node9"><a xlink:href="../../de/d66/classTimeLogger_a5145cadbea3cea7d981711b3b52ceded.html#a5145cadbea3cea7d981711b3b52ceded" target="_top" xlink:title=" ">
<polygon fill="white" stroke="black" points="150,-0.5 150,-19.5 306,-19.5 306,-0.5 150,-0.5"/>
<text text-anchor="middle" x="228" y="-7.5" font-family="Helvetica,sans-Serif" font-size="10.00">TimeLogger.GetLightingTotal</text>
</a>
</g>
</g>
<!-- Node1&#45;&gt;Node9 -->
<g id="edge9" class="edge">
<title>Node1&#45;&gt;Node9</title>
<path fill="none" stroke="midnightblue" d="M77.55,-70.88C95.44,-58.05 122.78,-40.03 149,-29 154.9,-26.52 161.2,-24.32 167.56,-22.37"/>
<polygon fill="midnightblue" stroke="midnightblue" points="168.89,-25.63 177.55,-19.53 166.97,-18.9 168.89,-25.63"/>
</g>
<!-- Node3 -->
<g id="node3" class="node">
<title>Node3</title>
<g id="a_node3"><a xlink:href="../../da/d82/classDynamicSpriteFont_a1aba350f55e012b88428a697b790f2ed.html#a1aba350f55e012b88428a697b790f2ed" target="_top" xlink:title=" ">
<polygon fill="white" stroke="black" points="343,-158.5 343,-177.5 519,-177.5 519,-158.5 343,-158.5"/>
<text text-anchor="middle" x="431" y="-165.5" font-family="Helvetica,sans-Serif" font-size="10.00">DynamicSpriteFont.InternalDraw</text>
</a>
</g>
</g>
<!-- Node2&#45;&gt;Node3 -->
<g id="edge2" class="edge">
<title>Node2&#45;&gt;Node3</title>
<path fill="none" stroke="midnightblue" d="M307.29,-168C315.69,-168 324.3,-168 332.88,-168"/>
<polygon fill="midnightblue" stroke="midnightblue" points="332.93,-171.5 342.93,-168 332.93,-164.5 332.93,-171.5"/>
</g>
<!-- Node4 -->
<g id="node4" class="node">
<title>Node4</title>
<g id="a_node4"><a xlink:href="../../da/d82/classDynamicSpriteFont_a7ea9789665f8d0638966e54a9b4536f6.html#a7ea9789665f8d0638966e54a9b4536f6" target="_top" xlink:title=" ">
<polygon fill="white" stroke="black" points="746,-158.5 746,-177.5 946,-177.5 946,-158.5 746,-158.5"/>
<text text-anchor="middle" x="846" y="-165.5" font-family="Helvetica,sans-Serif" font-size="10.00">DynamicSpriteFont.GetCharacterData</text>
</a>
</g>
</g>
<!-- Node3&#45;&gt;Node4 -->
<g id="edge3" class="edge">
<title>Node3&#45;&gt;Node4</title>
<path fill="none" stroke="midnightblue" d="M519.01,-170.39C531.1,-170.64 543.36,-170.86 555,-171 623.88,-171.84 641.12,-171.77 710,-171 718.34,-170.91 726.97,-170.78 735.65,-170.64"/>
<polygon fill="midnightblue" stroke="midnightblue" points="735.9,-174.13 745.84,-170.46 735.78,-167.13 735.9,-174.13"/>
</g>
<!-- Node5 -->
<g id="node5" class="node">
<title>Node5</title>
<g id="a_node5"><a xlink:href="../../da/d82/classDynamicSpriteFont_a60cbfbf43aa1bebceaf16a64457fc297.html#a60cbfbf43aa1bebceaf16a64457fc297" target="_top" xlink:title=" ">
<polygon fill="white" stroke="black" points="555,-131 555,-161 710,-161 710,-131 555,-131"/>
<text text-anchor="start" x="563" y="-149" font-family="Helvetica,sans-Serif" font-size="10.00">DynamicSpriteFont.Measure</text>
<text text-anchor="middle" x="632.5" y="-138" font-family="Helvetica,sans-Serif" font-size="10.00">String</text>
</a>
</g>
</g>
<!-- Node3&#45;&gt;Node5 -->
<g id="edge4" class="edge">
<title>Node3&#45;&gt;Node5</title>
<path fill="none" stroke="midnightblue" d="M518.34,-158.48C527.05,-157.52 535.89,-156.54 544.6,-155.58"/>
<polygon fill="midnightblue" stroke="midnightblue" points="545.19,-159.04 554.75,-154.46 544.42,-152.08 545.19,-159.04"/>
</g>
<!-- Node5&#45;&gt;Node4 -->
<g id="edge5" class="edge">
<title>Node5&#45;&gt;Node4</title>
<path fill="none" stroke="midnightblue" d="M710.16,-153.97C720.93,-155.09 732.13,-156.26 743.28,-157.42"/>
<polygon fill="midnightblue" stroke="midnightblue" points="743.18,-160.93 753.49,-158.48 743.9,-153.97 743.18,-160.93"/>
</g>
</g>
</svg>
        <g id="navigator" transform="translate(0 0)" fill="#404254">
                <rect fill="#f2f5e9" fill-opacity="0.5" stroke="#606060" stroke-width=".5" x="0" y="0" width="60" height="60"/>
                <use id="zoomplus" xlink:href="#zoomPlus" x="17" y="9" onmousedown="handleZoom(evt,'in')"/>
                <use id="zoomminus" xlink:href="#zoomMin" x="42" y="9" onmousedown="handleZoom(evt,'out')"/>
                <use id="reset" xlink:href="#resetDef" x="30" y="36" onmousedown="handleReset()"/>
                <g id="arrowUp" xlink:href="#dirArrow" transform="translate(30 24)" onmousedown="handlePan(0,-1)">
                  <use xlink:href="#rim" fill="#404040">
                        <set attributeName="fill" to="#808080" begin="arrowUp.mouseover" end="arrowUp.mouseout"/>
                  </use>
                  <path fill="none" stroke="white" stroke-width="1.5" d="M0,-3.0v7 M-2.5,-0.5L0,-3.0L2.5,-0.5"/>
                </g>
                <g id="arrowRight" xlink:href="#dirArrow" transform="rotate(90) translate(36 -43)" onmousedown="handlePan(1,0)">
                  <use xlink:href="#rim" fill="#404040">
                        <set attributeName="fill" to="#808080" begin="arrowRight.mouseover" end="arrowRight.mouseout"/>
                  </use>
                  <path fill="none" stroke="white" stroke-width="1.5" d="M0,-3.0v7 M-2.5,-0.5L0,-3.0L2.5,-0.5"/>
                </g>
                <g id="arrowDown" xlink:href="#dirArrow" transform="rotate(180) translate(-30 -48)" onmousedown="handlePan(0,1)">
                  <use xlink:href="#rim" fill="#404040">
                        <set attributeName="fill" to="#808080" begin="arrowDown.mouseover" end="arrowDown.mouseout"/>
                  </use>
                  <path fill="none" stroke="white" stroke-width="1.5" d="M0,-3.0v7 M-2.5,-0.5L0,-3.0L2.5,-0.5"/>
                </g>
                <g id="arrowLeft" xlink:href="#dirArrow" transform="rotate(270) translate(-36 17)" onmousedown="handlePan(-1,0)">
                  <use xlink:href="#rim" fill="#404040">
                        <set attributeName="fill" to="#808080" begin="arrowLeft.mouseover" end="arrowLeft.mouseout"/>
                  </use>
                  <path fill="none" stroke="white" stroke-width="1.5" d="M0,-3.0v7 M-2.5,-0.5L0,-3.0L2.5,-0.5"/>
                </g>
        </g>
        <svg viewBox="0 0 15 15" width="100%" height="30px" preserveAspectRatio="xMaxYMin meet">
         <g id="arrow_out" transform="scale(0.3 0.3)">
          <a xlink:href="classMain_a0c53c9d88ba00b8e543236d9908b7b31_a0c53c9d88ba00b8e543236d9908b7b31_cgraph_org.svg" target="_base">
           <rect id="button" ry="5" rx="5" y="6" x="6" height="38" width="38"
                fill="#f2f5e9" fill-opacity="0.5" stroke="#606060" stroke-width="1.0"/>
           <path id="arrow"
             d="M 11.500037,31.436501 C 11.940474,20.09759 22.043105,11.32322 32.158766,21.979434 L 37.068811,17.246167 C 37.068811,17.246167 37.088388,32 37.088388,32 L 22.160133,31.978069 C 22.160133,31.978069 26.997745,27.140456 26.997745,27.140456 C 18.528582,18.264221 13.291696,25.230495 11.500037,31.436501 z"
             style="fill:#404040;"/>
          </a>
         </g>
        </svg>
</svg>
