<?xml version="1.0" encoding="UTF-8" standalone="no"?>
<!DOCTYPE svg PUBLIC "-//W3C//DTD SVG 1.1//EN"
 "http://www.w3.org/Graphics/SVG/1.1/DTD/svg11.dtd">
<!-- Generated by graphviz version 2.43.0 (0)
 -->
<!-- Title: Main.SetRecommendedZoomContext Pages: 1 -->
<!--zoomable 235 -->
<svg id="main" version="1.1" xmlns="http://www.w3.org/2000/svg" xmlns:xlink="http://www.w3.org/1999/xlink" xml:space="preserve" onload="init(evt)">
<style type="text/css"><![CDATA[
.edge:hover path { stroke: red; }
.edge:hover polygon { stroke: red; fill: red; }
]]></style>
<script type="text/javascript"><![CDATA[
var edges = document.getElementsByTagName('g');
if (edges && edges.length) {
  for (var i=0;i<edges.length;i++) {
    if (edges[i].id.substr(0,4)=='edge') {
      edges[i].setAttribute('class','edge');
    }
  }
}
]]></script>
        <defs>
                <circle id="rim" cx="0" cy="0" r="7"/>
                <circle id="rim2" cx="0" cy="0" r="3.5"/>
                <g id="zoomPlus">
                        <use xlink:href="#rim" fill="#404040">
                                <set attributeName="fill" to="#808080" begin="zoomplus.mouseover" end="zoomplus.mouseout"/>
                        </use>
                        <path d="M-4,0h8M0,-4v8" fill="none" stroke="white" stroke-width="1.5" pointer-events="none"/>
                </g>
                <g id="zoomMin">
                        <use xlink:href="#rim" fill="#404040">
                                <set attributeName="fill" to="#808080" begin="zoomminus.mouseover" end="zoomminus.mouseout"/>
                        </use>
                        <path d="M-4,0h8" fill="none" stroke="white" stroke-width="1.5" pointer-events="none"/>
                </g>
                <g id="dirArrow">
                        <path fill="none" stroke="white" stroke-width="1.5" d="M0,-3.0v7 M-2.5,-0.5L0,-3.0L2.5,-0.5"/>
                </g>
               <g id="resetDef">
                       <use xlink:href="#rim2" fill="#404040">
                               <set attributeName="fill" to="#808080" begin="reset.mouseover" end="reset.mouseout"/>
                       </use>
               </g>
        </defs>

<script type="text/javascript">
var viewWidth = 564;
var viewHeight = 235;
var sectionId = 'dynsection-0';
</script>
<script xlink:href="../../svgpan.js"/>
<svg id="graph" class="graph">
<g id="viewport">
<title>Main.SetRecommendedZoomContext</title>
<polygon fill="white" stroke="transparent" points="-4,4 -4,-231 560,-231 560,4 -4,4"/>
<!-- Node1 -->
<g id="node1" class="node">
<title>Node1</title>
<g id="a_node1"><a xlink:title=" ">
<polygon fill="#bfbfbf" stroke="black" points="356,-104 356,-123 556,-123 556,-104 356,-104"/>
<text text-anchor="middle" x="456" y="-111" font-family="Helvetica,sans-Serif" font-size="10.00">Main.SetRecommendedZoomContext</text>
</a>
</g>
</g>
<!-- Node2 -->
<g id="node2" class="node">
<title>Node2</title>
<g id="a_node2"><a xlink:href="../../d9/df4/classPlayerInput_acdafe69ebee2a2bf25b10b696da19392.html#acdafe69ebee2a2bf25b10b696da19392" target="_top" xlink:title=" ">
<polygon fill="white" stroke="black" points="201,-98.5 201,-128.5 320,-128.5 320,-98.5 201,-98.5"/>
<text text-anchor="start" x="209" y="-116.5" font-family="Helvetica,sans-Serif" font-size="10.00">PlayerInput.SetZoom</text>
<text text-anchor="middle" x="260.5" y="-105.5" font-family="Helvetica,sans-Serif" font-size="10.00">_Context</text>
</a>
</g>
</g>
<!-- Node1&#45;&gt;Node2 -->
<g id="edge1" class="edge">
<title>Node1&#45;&gt;Node2</title>
<path fill="none" stroke="midnightblue" d="M345.94,-113.5C337.09,-113.5 328.37,-113.5 320.1,-113.5"/>
<polygon fill="midnightblue" stroke="midnightblue" points="345.98,-117 355.98,-113.5 345.98,-110 345.98,-117"/>
</g>
<!-- Node3 -->
<g id="node3" class="node">
<title>Node3</title>
<g id="a_node3"><a xlink:href="../../d3/d96/classCaptureInterface_1_1ModeEdgeSelection_aaa8d4769ed7fb52d9a9b19c31d242790.html#aaa8d4769ed7fb52d9a9b19c31d242790" target="_top" xlink:title=" ">
<polygon fill="white" stroke="black" points="6.5,-196.5 6.5,-226.5 158.5,-226.5 158.5,-196.5 6.5,-196.5"/>
<text text-anchor="start" x="14.5" y="-214.5" font-family="Helvetica,sans-Serif" font-size="10.00">CaptureInterface.ModeEdge</text>
<text text-anchor="middle" x="82.5" y="-203.5" font-family="Helvetica,sans-Serif" font-size="10.00">Selection.Draw</text>
</a>
</g>
</g>
<!-- Node2&#45;&gt;Node3 -->
<g id="edge2" class="edge">
<title>Node2&#45;&gt;Node3</title>
<path fill="none" stroke="midnightblue" d="M236.37,-135.73C218.23,-152.08 191.67,-173.77 165,-187.5 158.44,-190.88 151.34,-193.85 144.15,-196.45"/>
<polygon fill="midnightblue" stroke="midnightblue" points="239.09,-137.98 244.08,-128.64 234.35,-132.83 239.09,-137.98"/>
</g>
<!-- Node4 -->
<g id="node4" class="node">
<title>Node4</title>
<g id="a_node4"><a xlink:href="../../d0/daf/classCaptureInterface_1_1ModeDragBounds_a28c620a42a4e4e283a9a8649488b6e47.html#a28c620a42a4e4e283a9a8649488b6e47" target="_top" xlink:title=" ">
<polygon fill="white" stroke="black" points="6.5,-147.5 6.5,-177.5 158.5,-177.5 158.5,-147.5 6.5,-147.5"/>
<text text-anchor="start" x="14.5" y="-165.5" font-family="Helvetica,sans-Serif" font-size="10.00">CaptureInterface.ModeDrag</text>
<text text-anchor="middle" x="82.5" y="-154.5" font-family="Helvetica,sans-Serif" font-size="10.00">Bounds.Draw</text>
</a>
</g>
</g>
<!-- Node2&#45;&gt;Node4 -->
<g id="edge3" class="edge">
<title>Node2&#45;&gt;Node4</title>
<path fill="none" stroke="midnightblue" d="M195.49,-131.32C176.49,-136.61 155.87,-142.35 137.56,-147.45"/>
<polygon fill="midnightblue" stroke="midnightblue" points="196.56,-134.66 205.26,-128.6 194.69,-127.91 196.56,-134.66"/>
</g>
<!-- Node5 -->
<g id="node5" class="node">
<title>Node5</title>
<g id="a_node5"><a xlink:href="../../dc/dd0/classCaptureInterface_1_1ModeChangeSettings_a58cbc506bafb73e435d49f46ec174917.html#a58cbc506bafb73e435d49f46ec174917" target="_top" xlink:title=" ">
<polygon fill="white" stroke="black" points="0,-98.5 0,-128.5 165,-128.5 165,-98.5 0,-98.5"/>
<text text-anchor="start" x="8" y="-116.5" font-family="Helvetica,sans-Serif" font-size="10.00">CaptureInterface.ModeChange</text>
<text text-anchor="middle" x="82.5" y="-105.5" font-family="Helvetica,sans-Serif" font-size="10.00">Settings.Draw</text>
</a>
</g>
</g>
<!-- Node2&#45;&gt;Node5 -->
<g id="edge4" class="edge">
<title>Node2&#45;&gt;Node5</title>
<path fill="none" stroke="midnightblue" d="M190.75,-113.5C182.32,-113.5 173.64,-113.5 165.05,-113.5"/>
<polygon fill="midnightblue" stroke="midnightblue" points="190.89,-117 200.89,-113.5 190.89,-110 190.89,-117"/>
</g>
<!-- Node6 -->
<g id="node6" class="node">
<title>Node6</title>
<g id="a_node6"><a xlink:href="../../d3/d96/classCaptureInterface_1_1ModeEdgeSelection_a6d680f2cda6ea367ba611db9e8c9822c.html#a6d680f2cda6ea367ba611db9e8c9822c" target="_top" xlink:title=" ">
<polygon fill="white" stroke="black" points="6.5,-49.5 6.5,-79.5 158.5,-79.5 158.5,-49.5 6.5,-49.5"/>
<text text-anchor="start" x="14.5" y="-67.5" font-family="Helvetica,sans-Serif" font-size="10.00">CaptureInterface.ModeEdge</text>
<text text-anchor="middle" x="82.5" y="-56.5" font-family="Helvetica,sans-Serif" font-size="10.00">Selection.Update</text>
</a>
</g>
</g>
<!-- Node2&#45;&gt;Node6 -->
<g id="edge5" class="edge">
<title>Node2&#45;&gt;Node6</title>
<path fill="none" stroke="midnightblue" d="M195.49,-95.68C176.49,-90.39 155.87,-84.65 137.56,-79.55"/>
<polygon fill="midnightblue" stroke="midnightblue" points="194.69,-99.09 205.26,-98.4 196.56,-92.34 194.69,-99.09"/>
</g>
<!-- Node7 -->
<g id="node7" class="node">
<title>Node7</title>
<g id="a_node7"><a xlink:href="../../d0/daf/classCaptureInterface_1_1ModeDragBounds_a40f514eaa136212b8105d906057981cc.html#a40f514eaa136212b8105d906057981cc" target="_top" xlink:title=" ">
<polygon fill="white" stroke="black" points="6.5,-0.5 6.5,-30.5 158.5,-30.5 158.5,-0.5 6.5,-0.5"/>
<text text-anchor="start" x="14.5" y="-18.5" font-family="Helvetica,sans-Serif" font-size="10.00">CaptureInterface.ModeDrag</text>
<text text-anchor="middle" x="82.5" y="-7.5" font-family="Helvetica,sans-Serif" font-size="10.00">Bounds.Update</text>
</a>
</g>
</g>
<!-- Node2&#45;&gt;Node7 -->
<g id="edge6" class="edge">
<title>Node2&#45;&gt;Node7</title>
<path fill="none" stroke="midnightblue" d="M235.94,-91.38C217.76,-75.34 191.34,-54.14 165,-40.5 157.77,-36.76 149.89,-33.47 141.96,-30.61"/>
<polygon fill="midnightblue" stroke="midnightblue" points="233.91,-94.26 243.68,-98.35 238.59,-89.06 233.91,-94.26"/>
</g>
</g>
</svg>
        <g id="navigator" transform="translate(0 0)" fill="#404254">
                <rect fill="#f2f5e9" fill-opacity="0.5" stroke="#606060" stroke-width=".5" x="0" y="0" width="60" height="60"/>
                <use id="zoomplus" xlink:href="#zoomPlus" x="17" y="9" onmousedown="handleZoom(evt,'in')"/>
                <use id="zoomminus" xlink:href="#zoomMin" x="42" y="9" onmousedown="handleZoom(evt,'out')"/>
                <use id="reset" xlink:href="#resetDef" x="30" y="36" onmousedown="handleReset()"/>
                <g id="arrowUp" xlink:href="#dirArrow" transform="translate(30 24)" onmousedown="handlePan(0,-1)">
                  <use xlink:href="#rim" fill="#404040">
                        <set attributeName="fill" to="#808080" begin="arrowUp.mouseover" end="arrowUp.mouseout"/>
                  </use>
                  <path fill="none" stroke="white" stroke-width="1.5" d="M0,-3.0v7 M-2.5,-0.5L0,-3.0L2.5,-0.5"/>
                </g>
                <g id="arrowRight" xlink:href="#dirArrow" transform="rotate(90) translate(36 -43)" onmousedown="handlePan(1,0)">
                  <use xlink:href="#rim" fill="#404040">
                        <set attributeName="fill" to="#808080" begin="arrowRight.mouseover" end="arrowRight.mouseout"/>
                  </use>
                  <path fill="none" stroke="white" stroke-width="1.5" d="M0,-3.0v7 M-2.5,-0.5L0,-3.0L2.5,-0.5"/>
                </g>
                <g id="arrowDown" xlink:href="#dirArrow" transform="rotate(180) translate(-30 -48)" onmousedown="handlePan(0,1)">
                  <use xlink:href="#rim" fill="#404040">
                        <set attributeName="fill" to="#808080" begin="arrowDown.mouseover" end="arrowDown.mouseout"/>
                  </use>
                  <path fill="none" stroke="white" stroke-width="1.5" d="M0,-3.0v7 M-2.5,-0.5L0,-3.0L2.5,-0.5"/>
                </g>
                <g id="arrowLeft" xlink:href="#dirArrow" transform="rotate(270) translate(-36 17)" onmousedown="handlePan(-1,0)">
                  <use xlink:href="#rim" fill="#404040">
                        <set attributeName="fill" to="#808080" begin="arrowLeft.mouseover" end="arrowLeft.mouseout"/>
                  </use>
                  <path fill="none" stroke="white" stroke-width="1.5" d="M0,-3.0v7 M-2.5,-0.5L0,-3.0L2.5,-0.5"/>
                </g>
        </g>
        <svg viewBox="0 0 15 15" width="100%" height="30px" preserveAspectRatio="xMaxYMin meet">
         <g id="arrow_out" transform="scale(0.3 0.3)">
          <a xlink:href="classMain_a985910d76482eeeff62d4a7197afe21f_a985910d76482eeeff62d4a7197afe21f_icgraph_org.svg" target="_base">
           <rect id="button" ry="5" rx="5" y="6" x="6" height="38" width="38"
                fill="#f2f5e9" fill-opacity="0.5" stroke="#606060" stroke-width="1.0"/>
           <path id="arrow"
             d="M 11.500037,31.436501 C 11.940474,20.09759 22.043105,11.32322 32.158766,21.979434 L 37.068811,17.246167 C 37.068811,17.246167 37.088388,32 37.088388,32 L 22.160133,31.978069 C 22.160133,31.978069 26.997745,27.140456 26.997745,27.140456 C 18.528582,18.264221 13.291696,25.230495 11.500037,31.436501 z"
             style="fill:#404040;"/>
          </a>
         </g>
        </svg>
</svg>
