<?xml version="1.0" encoding="UTF-8" standalone="no"?>
<!DOCTYPE svg PUBLIC "-//W3C//DTD SVG 1.1//EN"
 "http://www.w3.org/Graphics/SVG/1.1/DTD/svg11.dtd">
<!-- Generated by graphviz version 2.43.0 (0)
 -->
<!-- Title: Main.DrawProj_TerraBlade2Shot Pages: 1 -->
<svg width="545pt" height="104pt"
 viewBox="0.00 0.00 545.00 104.00" xmlns="http://www.w3.org/2000/svg" xmlns:xlink="http://www.w3.org/1999/xlink">
<g id="graph0" class="graph" transform="scale(1 1) rotate(0) translate(4 100)">
<title>Main.DrawProj_TerraBlade2Shot</title>
<polygon fill="white" stroke="transparent" points="-4,4 -4,-100 541,-100 541,4 -4,4"/>
<!-- Node1 -->
<g id="node1" class="node">
<title>Node1</title>
<g id="a_node1"><a xlink:title=" ">
<polygon fill="#bfbfbf" stroke="black" points="0,-38.5 0,-57.5 173,-57.5 173,-38.5 0,-38.5"/>
<text text-anchor="middle" x="86.5" y="-45.5" font-family="Helvetica,sans-Serif" font-size="10.00">Main.DrawProj_TerraBlade2Shot</text>
</a>
</g>
</g>
<!-- Node2 -->
<g id="node2" class="node">
<title>Node2</title>
<g id="a_node2"><a xlink:href="../../db/d4a/classMain_aca054b72352124050177bd4bf7871731.html#aca054b72352124050177bd4bf7871731" target="_top" xlink:title=" ">
<polygon fill="white" stroke="black" points="209,-76.5 209,-95.5 364,-95.5 364,-76.5 209,-76.5"/>
<text text-anchor="middle" x="286.5" y="-83.5" font-family="Helvetica,sans-Serif" font-size="10.00">Main.DrawPrettyStarSparkle</text>
</a>
</g>
</g>
<!-- Node1&#45;&gt;Node2 -->
<g id="edge1" class="edge">
<title>Node1&#45;&gt;Node2</title>
<path fill="none" stroke="midnightblue" d="M137.21,-57.54C164.04,-62.69 197.36,-69.08 225.61,-74.51"/>
<polygon fill="midnightblue" stroke="midnightblue" points="225.29,-78.01 235.77,-76.46 226.61,-71.13 225.29,-78.01"/>
</g>
<!-- Node5 -->
<g id="node5" class="node">
<title>Node5</title>
<g id="a_node5"><a xlink:href="../../d0/d24/classLighting_a2d4dad695635fc155f6a05af9a63348d.html#a2d4dad695635fc155f6a05af9a63348d" target="_top" xlink:title=" ">
<polygon fill="white" stroke="black" points="236,-0.5 236,-19.5 337,-19.5 337,-0.5 236,-0.5"/>
<text text-anchor="middle" x="286.5" y="-7.5" font-family="Helvetica,sans-Serif" font-size="10.00">Lighting.GetColor</text>
</a>
</g>
</g>
<!-- Node1&#45;&gt;Node5 -->
<g id="edge4" class="edge">
<title>Node1&#45;&gt;Node5</title>
<path fill="none" stroke="midnightblue" d="M137.21,-38.46C164.04,-33.31 197.36,-26.92 225.61,-21.49"/>
<polygon fill="midnightblue" stroke="midnightblue" points="226.61,-24.87 235.77,-19.54 225.29,-17.99 226.61,-24.87"/>
</g>
<!-- Node7 -->
<g id="node7" class="node">
<title>Node7</title>
<g id="a_node7"><a xlink:href="../../dc/dc5/classUtils_a23f48b35de52dee38ed81c44222431e1.html#a23f48b35de52dee38ed81c44222431e1" target="_top" xlink:title=" ">
<polygon fill="white" stroke="black" points="248,-38.5 248,-57.5 325,-57.5 325,-38.5 248,-38.5"/>
<text text-anchor="middle" x="286.5" y="-45.5" font-family="Helvetica,sans-Serif" font-size="10.00">Utils.Remap</text>
</a>
</g>
</g>
<!-- Node1&#45;&gt;Node7 -->
<g id="edge6" class="edge">
<title>Node1&#45;&gt;Node7</title>
<path fill="none" stroke="midnightblue" d="M173.19,-48C195.34,-48 218.4,-48 237.81,-48"/>
<polygon fill="midnightblue" stroke="midnightblue" points="237.9,-51.5 247.9,-48 237.9,-44.5 237.9,-51.5"/>
</g>
<!-- Node3 -->
<g id="node3" class="node">
<title>Node3</title>
<g id="a_node3"><a xlink:href="../../db/d4a/classMain_aca0c1d9a3ab5b0d8f5c1254bb987c2c4.html#aca0c1d9a3ab5b0d8f5c1254bb987c2c4" target="_top" xlink:title=" ">
<polygon fill="white" stroke="black" points="405.5,-76.5 405.5,-95.5 531.5,-95.5 531.5,-76.5 405.5,-76.5"/>
<text text-anchor="middle" x="468.5" y="-83.5" font-family="Helvetica,sans-Serif" font-size="10.00">Main.EntitySpriteDraw</text>
</a>
</g>
</g>
<!-- Node2&#45;&gt;Node3 -->
<g id="edge2" class="edge">
<title>Node2&#45;&gt;Node3</title>
<path fill="none" stroke="midnightblue" d="M364.1,-86C374.43,-86 385.01,-86 395.26,-86"/>
<polygon fill="midnightblue" stroke="midnightblue" points="395.39,-89.5 405.39,-86 395.39,-82.5 395.39,-89.5"/>
</g>
<!-- Node4 -->
<g id="node4" class="node">
<title>Node4</title>
<g id="a_node4"><a xlink:href="../../dc/dc5/classUtils_a8752cc9bcae5a57679669ec6100ed630.html#a8752cc9bcae5a57679669ec6100ed630" target="_top" xlink:title=" ">
<polygon fill="white" stroke="black" points="415,-38.5 415,-57.5 522,-57.5 522,-38.5 415,-38.5"/>
<text text-anchor="middle" x="468.5" y="-45.5" font-family="Helvetica,sans-Serif" font-size="10.00">Utils.GetLerpValue</text>
</a>
</g>
</g>
<!-- Node2&#45;&gt;Node4 -->
<g id="edge3" class="edge">
<title>Node2&#45;&gt;Node4</title>
<path fill="none" stroke="midnightblue" d="M332.92,-76.41C357.1,-71.31 387.03,-64.99 412.51,-59.61"/>
<polygon fill="midnightblue" stroke="midnightblue" points="413.34,-63.01 422.41,-57.52 411.9,-56.16 413.34,-63.01"/>
</g>
<!-- Node6 -->
<g id="node6" class="node">
<title>Node6</title>
<g id="a_node6"><a xlink:href="../../db/d9d/interfaceILightingEngine_ac231bb2aace0c74f3286f65dbf23ac21.html#ac231bb2aace0c74f3286f65dbf23ac21" target="_top" xlink:title=" ">
<polygon fill="white" stroke="black" points="400,-0.5 400,-19.5 537,-19.5 537,-0.5 400,-0.5"/>
<text text-anchor="middle" x="468.5" y="-7.5" font-family="Helvetica,sans-Serif" font-size="10.00">ILightingEngine.GetColor</text>
</a>
</g>
</g>
<!-- Node5&#45;&gt;Node6 -->
<g id="edge5" class="edge">
<title>Node5&#45;&gt;Node6</title>
<path fill="none" stroke="midnightblue" d="M337.16,-10C353.34,-10 371.71,-10 389.46,-10"/>
<polygon fill="midnightblue" stroke="midnightblue" points="389.81,-13.5 399.81,-10 389.81,-6.5 389.81,-13.5"/>
</g>
<!-- Node7&#45;&gt;Node4 -->
<g id="edge7" class="edge">
<title>Node7&#45;&gt;Node4</title>
<path fill="none" stroke="midnightblue" d="M325.23,-48C348.17,-48 378.03,-48 404.47,-48"/>
<polygon fill="midnightblue" stroke="midnightblue" points="404.8,-51.5 414.8,-48 404.8,-44.5 404.8,-51.5"/>
</g>
</g>
</svg>
