<?xml version="1.0" encoding="UTF-8" standalone="no"?>
<!DOCTYPE svg PUBLIC "-//W3C//DTD SVG 1.1//EN"
 "http://www.w3.org/Graphics/SVG/1.1/DTD/svg11.dtd">
<!-- Generated by graphviz version 2.43.0 (0)
 -->
<!-- Title: CalculatedStyle Pages: 1 -->
<svg width="154pt" height="259pt"
 viewBox="0.00 0.00 154.00 259.00" xmlns="http://www.w3.org/2000/svg" xmlns:xlink="http://www.w3.org/1999/xlink">
<g id="graph0" class="graph" transform="scale(1 1) rotate(0) translate(4 255)">
<title>CalculatedStyle</title>
<polygon fill="white" stroke="transparent" points="-4,4 -4,-255 150,-255 150,4 -4,4"/>
<!-- Node1 -->
<g id="node1" class="node">
<title>Node1</title>
<g id="a_node1"><a xlink:title=" ">
<polygon fill="#bfbfbf" stroke="black" points="0,-0.5 0,-112.5 146,-112.5 146,-0.5 0,-0.5"/>
<text text-anchor="middle" x="73" y="-100.5" font-family="Helvetica,sans-Serif" font-size="10.00">CalculatedStyle</text>
<polyline fill="none" stroke="black" points="0,-93.5 146,-93.5 "/>
<text text-anchor="middle" x="73" y="-81.5" font-family="Helvetica,sans-Serif" font-size="10.00"> </text>
<polyline fill="none" stroke="black" points="0,-74.5 146,-74.5 "/>
<text text-anchor="start" x="8" y="-62.5" font-family="Helvetica,sans-Serif" font-size="10.00">+ CalculatedStyle(float</text>
<text text-anchor="start" x="8" y="-51.5" font-family="Helvetica,sans-Serif" font-size="10.00"> x, float y, float width,</text>
<text text-anchor="start" x="8" y="-40.5" font-family="Helvetica,sans-Serif" font-size="10.00"> float height)</text>
<text text-anchor="start" x="8" y="-29.5" font-family="Helvetica,sans-Serif" font-size="10.00">+ Rectangle ToRectangle()</text>
<text text-anchor="start" x="8" y="-18.5" font-family="Helvetica,sans-Serif" font-size="10.00">+ Vector2 Position()</text>
<text text-anchor="start" x="8" y="-7.5" font-family="Helvetica,sans-Serif" font-size="10.00">+ Vector2 Center()</text>
</a>
</g>
</g>
<!-- Node2 -->
<g id="node2" class="node">
<title>Node2</title>
<g id="a_node2"><a xlink:title=" ">
<polygon fill="white" stroke="#bfbfbf" points="54,-193.5 54,-250.5 92,-250.5 92,-193.5 54,-193.5"/>
<text text-anchor="middle" x="73" y="-238.5" font-family="Helvetica,sans-Serif" font-size="10.00">float</text>
<polyline fill="none" stroke="#bfbfbf" points="54,-231.5 92,-231.5 "/>
<text text-anchor="middle" x="73" y="-219.5" font-family="Helvetica,sans-Serif" font-size="10.00"> </text>
<polyline fill="none" stroke="#bfbfbf" points="54,-212.5 92,-212.5 "/>
<text text-anchor="middle" x="73" y="-200.5" font-family="Helvetica,sans-Serif" font-size="10.00"> </text>
</a>
</g>
</g>
<!-- Node2&#45;&gt;Node1 -->
<g id="edge1" class="edge">
<title>Node2&#45;&gt;Node1</title>
<path fill="none" stroke="#404040" d="M73,-193.26C73,-174.49 73,-148.83 73,-124.88"/>
<polygon fill="none" stroke="#404040" points="73,-124.55 69,-118.55 73,-112.55 77,-118.55 73,-124.55"/>
<text text-anchor="middle" x="95" y="-167" font-family="Helvetica,sans-Serif" font-size="10.00"> +Height</text>
<text text-anchor="middle" x="95" y="-156" font-family="Helvetica,sans-Serif" font-size="10.00">+Width</text>
<text text-anchor="middle" x="95" y="-145" font-family="Helvetica,sans-Serif" font-size="10.00">+X</text>
<text text-anchor="middle" x="95" y="-134" font-family="Helvetica,sans-Serif" font-size="10.00">+Y</text>
</g>
</g>
</svg>
