<?xml version="1.0" encoding="UTF-8" standalone="no"?>
<!DOCTYPE svg PUBLIC "-//W3C//DTD SVG 1.1//EN"
 "http://www.w3.org/Graphics/SVG/1.1/DTD/svg11.dtd">
<!-- Generated by graphviz version 2.43.0 (0)
 -->
<!-- Title: Terraria.GameContent.Biomes.CaveHouse.WoodHouseBuilder.AgeRoom Pages: 1 -->
<svg width="609pt" height="86pt"
 viewBox="0.00 0.00 609.00 86.00" xmlns="http://www.w3.org/2000/svg" xmlns:xlink="http://www.w3.org/1999/xlink">
<g id="graph0" class="graph" transform="scale(1 1) rotate(0) translate(4 82)">
<title>Terraria.GameContent.Biomes.CaveHouse.WoodHouseBuilder.AgeRoom</title>
<!-- Node1 -->
<g id="Node000001" class="node">
<title>Node1</title>
<g id="a_Node000001"><a xlink:title=" ">
<polygon fill="#999999" stroke="#666666" points="217,-54 0,-54 0,-24 217,-24 217,-54"/>
<text text-anchor="start" x="8" y="-42" font-family="Helvetica,sans-Serif" font-size="10.00">Terraria.GameContent.Biomes.</text>
<text text-anchor="middle" x="108.5" y="-31" font-family="Helvetica,sans-Serif" font-size="10.00">CaveHouse.WoodHouseBuilder.AgeRoom</text>
</a>
</g>
</g>
<!-- Node2 -->
<g id="Node000002" class="node">
<title>Node2</title>
<g id="a_Node000002"><a xlink:href="../../d9/d02/classTerraria_1_1WorldBuilding_1_1Actions_a6e2572a22feedf1430087e99ddf6e6d6.html#a6e2572a22feedf1430087e99ddf6e6d6" target="_top" xlink:title=" ">
<polygon fill="white" stroke="#666666" points="419,-78 253,-78 253,-48 419,-48 419,-78"/>
<text text-anchor="start" x="261" y="-66" font-family="Helvetica,sans-Serif" font-size="10.00">Terraria.WorldBuilding.Actions.</text>
<text text-anchor="middle" x="336" y="-55" font-family="Helvetica,sans-Serif" font-size="10.00">Chain</text>
</a>
</g>
</g>
<!-- Node1&#45;&gt;Node2 -->
<g id="edge1_Node000001_Node000002" class="edge">
<title>Node1&#45;&gt;Node2</title>
<g id="a_edge1_Node000001_Node000002"><a xlink:title=" ">
<path fill="none" stroke="#63b8ff" d="M217.3,-50.47C225.83,-51.38 234.4,-52.29 242.81,-53.19"/>
<polygon fill="#63b8ff" stroke="#63b8ff" points="242.67,-56.69 252.99,-54.27 243.41,-49.73 242.67,-56.69"/>
</a>
</g>
</g>
<!-- Node3 -->
<g id="Node000003" class="node">
<title>Node3</title>
<g id="a_Node000003"><a xlink:href="../../d6/d1f/classTerraria_1_1WorldBuilding_1_1WorldUtils_ae81cd0d3f9fab67f47de6a02f4834ad8.html#ae81cd0d3f9fab67f47de6a02f4834ad8" target="_top" xlink:title=" ">
<polygon fill="white" stroke="#666666" points="413.5,-30 258.5,-30 258.5,0 413.5,0 413.5,-30"/>
<text text-anchor="start" x="266.5" y="-18" font-family="Helvetica,sans-Serif" font-size="10.00">Terraria.WorldBuilding.World</text>
<text text-anchor="middle" x="336" y="-7" font-family="Helvetica,sans-Serif" font-size="10.00">Utils.Gen</text>
</a>
</g>
</g>
<!-- Node1&#45;&gt;Node3 -->
<g id="edge2_Node000001_Node000003" class="edge">
<title>Node1&#45;&gt;Node3</title>
<g id="a_edge2_Node000001_Node000003"><a xlink:title=" ">
<path fill="none" stroke="#63b8ff" d="M217.3,-27.53C227.66,-26.42 238.07,-25.32 248.2,-24.24"/>
<polygon fill="#63b8ff" stroke="#63b8ff" points="248.63,-27.71 258.21,-23.17 247.89,-20.75 248.63,-27.71"/>
</a>
</g>
</g>
<!-- Node4 -->
<g id="Node000004" class="node">
<title>Node4</title>
<g id="a_Node000004"><a xlink:href="../../da/d11/classTerraria_1_1WorldBuilding_1_1GenShape_a05d36703ba3f9541b418954528f7b726.html#a05d36703ba3f9541b418954528f7b726" target="_top" xlink:title=" ">
<polygon fill="white" stroke="#666666" points="601,-30 455,-30 455,0 601,0 601,-30"/>
<text text-anchor="start" x="463" y="-18" font-family="Helvetica,sans-Serif" font-size="10.00">Terraria.WorldBuilding.Gen</text>
<text text-anchor="middle" x="528" y="-7" font-family="Helvetica,sans-Serif" font-size="10.00">Shape.Perform</text>
</a>
</g>
</g>
<!-- Node3&#45;&gt;Node4 -->
<g id="edge3_Node000003_Node000004" class="edge">
<title>Node3&#45;&gt;Node4</title>
<g id="a_edge3_Node000003_Node000004"><a xlink:title=" ">
<path fill="none" stroke="#63b8ff" d="M413.73,-15C423.93,-15 434.42,-15 444.7,-15"/>
<polygon fill="#63b8ff" stroke="#63b8ff" points="444.9,-18.5 454.9,-15 444.9,-11.5 444.9,-18.5"/>
</a>
</g>
</g>
</g>
</svg>
