<?xml version="1.0" encoding="UTF-8" standalone="no"?>
<!DOCTYPE svg PUBLIC "-//W3C//DTD SVG 1.1//EN"
 "http://www.w3.org/Graphics/SVG/1.1/DTD/svg11.dtd">
<!-- Generated by graphviz version 2.43.0 (0)
 -->
<!-- Title: Terraria.GameContent.UI.ResourceSets.HorizontalBarsPlayerResourcesDisplaySet.TryToHover Pages: 1 -->
<svg width="648pt" height="108pt"
 viewBox="0.00 0.00 648.00 108.00" xmlns="http://www.w3.org/2000/svg" xmlns:xlink="http://www.w3.org/1999/xlink">
<g id="graph0" class="graph" transform="scale(1 1) rotate(0) translate(4 104)">
<title>Terraria.GameContent.UI.ResourceSets.HorizontalBarsPlayerResourcesDisplaySet.TryToHover</title>
<!-- Node1 -->
<g id="Node000001" class="node">
<title>Node1</title>
<g id="a_Node000001"><a xlink:title=" ">
<polygon fill="#999999" stroke="#666666" points="188,-70 0,-70 0,-29 188,-29 188,-70"/>
<text text-anchor="start" x="8" y="-58" font-family="Helvetica,sans-Serif" font-size="10.00">Terraria.GameContent.UI.</text>
<text text-anchor="start" x="8" y="-47" font-family="Helvetica,sans-Serif" font-size="10.00">ResourceSets.HorizontalBarsPlayer</text>
<text text-anchor="middle" x="94" y="-36" font-family="Helvetica,sans-Serif" font-size="10.00">ResourcesDisplaySet.TryToHover</text>
</a>
</g>
</g>
<!-- Node2 -->
<g id="Node000002" class="node">
<title>Node2</title>
<g id="a_Node000002"><a xlink:href="../../d7/d63/classTerraria_1_1GameContent_1_1UI_1_1ResourceSets_1_1CommonResourceBarMethods_a97752cb81336ea77609ed42496b6b6b6.html#a97752cb81336ea77609ed42496b6b6b6" target="_top" xlink:title=" ">
<polygon fill="white" stroke="#666666" points="415,-100 224,-100 224,-59 415,-59 415,-100"/>
<text text-anchor="start" x="232" y="-88" font-family="Helvetica,sans-Serif" font-size="10.00">Terraria.GameContent.UI.</text>
<text text-anchor="start" x="232" y="-77" font-family="Helvetica,sans-Serif" font-size="10.00">ResourceSets.CommonResourceBar</text>
<text text-anchor="middle" x="319.5" y="-66" font-family="Helvetica,sans-Serif" font-size="10.00">Methods.DrawLifeMouseOver</text>
</a>
</g>
</g>
<!-- Node1&#45;&gt;Node2 -->
<g id="edge1_Node000001_Node000002" class="edge">
<title>Node1&#45;&gt;Node2</title>
<g id="a_edge1_Node000001_Node000002"><a xlink:title=" ">
<path fill="none" stroke="#63b8ff" d="M188.17,-62.01C196.6,-63.14 205.18,-64.29 213.71,-65.43"/>
<polygon fill="#63b8ff" stroke="#63b8ff" points="213.31,-68.91 223.69,-66.77 214.24,-61.97 213.31,-68.91"/>
</a>
</g>
</g>
<!-- Node4 -->
<g id="Node000004" class="node">
<title>Node4</title>
<g id="a_Node000004"><a xlink:href="../../d7/d63/classTerraria_1_1GameContent_1_1UI_1_1ResourceSets_1_1CommonResourceBarMethods_a3d2fe805d403d29517545a1542270282.html#a3d2fe805d403d29517545a1542270282" target="_top" xlink:title=" ">
<polygon fill="white" stroke="#666666" points="415,-41 224,-41 224,0 415,0 415,-41"/>
<text text-anchor="start" x="232" y="-29" font-family="Helvetica,sans-Serif" font-size="10.00">Terraria.GameContent.UI.</text>
<text text-anchor="start" x="232" y="-18" font-family="Helvetica,sans-Serif" font-size="10.00">ResourceSets.CommonResourceBar</text>
<text text-anchor="middle" x="319.5" y="-7" font-family="Helvetica,sans-Serif" font-size="10.00">Methods.DrawManaMouseOver</text>
</a>
</g>
</g>
<!-- Node1&#45;&gt;Node4 -->
<g id="edge4_Node000001_Node000004" class="edge">
<title>Node1&#45;&gt;Node4</title>
<g id="a_edge4_Node000001_Node000004"><a xlink:title=" ">
<path fill="none" stroke="#63b8ff" d="M188.17,-37.41C196.6,-36.32 205.18,-35.2 213.71,-34.1"/>
<polygon fill="#63b8ff" stroke="#63b8ff" points="214.22,-37.56 223.69,-32.8 213.32,-30.62 214.22,-37.56"/>
</a>
</g>
</g>
<!-- Node3 -->
<g id="Node000003" class="node">
<title>Node3</title>
<g id="a_Node000003"><a xlink:href="../../da/dd5/classTerraria_1_1Main_a0c4ed03b5589da546aae58687505dceb.html#a0c4ed03b5589da546aae58687505dceb" target="_top" xlink:title=" ">
<polygon fill="white" stroke="#666666" points="640,-59 451,-59 451,-40 640,-40 640,-59"/>
<text text-anchor="middle" x="545.5" y="-47" font-family="Helvetica,sans-Serif" font-size="10.00">Terraria.Main.MouseTextHackZoom</text>
</a>
</g>
</g>
<!-- Node2&#45;&gt;Node3 -->
<g id="edge2_Node000002_Node000003" class="edge">
<title>Node2&#45;&gt;Node3</title>
<g id="a_edge2_Node000002_Node000003"><a xlink:title=" ">
<path fill="none" stroke="#63b8ff" d="M415.17,-66.82C431.14,-64.68 447.58,-62.48 463.17,-60.39"/>
<polygon fill="#63b8ff" stroke="#63b8ff" points="463.83,-63.84 473.28,-59.04 462.9,-56.9 463.83,-63.84"/>
</a>
</g>
</g>
<!-- Node3&#45;&gt;Node3 -->
<g id="edge3_Node000003_Node000003" class="edge">
<title>Node3&#45;&gt;Node3</title>
<g id="a_edge3_Node000003_Node000003"><a xlink:title=" ">
<path fill="none" stroke="#63b8ff" d="M510.67,-59.08C493.72,-67.73 505.33,-77 545.5,-77 575,-77 589.1,-72 587.79,-65.92"/>
<polygon fill="#63b8ff" stroke="#63b8ff" points="590.07,-63.26 580.33,-59.08 585.34,-68.42 590.07,-63.26"/>
</a>
</g>
</g>
<!-- Node4&#45;&gt;Node3 -->
<g id="edge5_Node000004_Node000003" class="edge">
<title>Node4&#45;&gt;Node3</title>
<g id="a_edge5_Node000004_Node000003"><a xlink:title=" ">
<path fill="none" stroke="#63b8ff" d="M415.17,-32.76C430.31,-34.72 445.87,-36.73 460.73,-38.65"/>
<polygon fill="#63b8ff" stroke="#63b8ff" points="460.52,-42.16 470.89,-39.97 461.42,-35.22 460.52,-42.16"/>
</a>
</g>
</g>
</g>
</svg>
