<?xml version="1.0" encoding="UTF-8" standalone="no"?>
<!DOCTYPE svg PUBLIC "-//W3C//DTD SVG 1.1//EN"
 "http://www.w3.org/Graphics/SVG/1.1/DTD/svg11.dtd">
<!-- Generated by graphviz version 2.43.0 (0)
 -->
<!-- Title: InGamePopups.AchievementUnlockedPopup Pages: 1 -->
<!--zoomable 1345 -->
<svg id="main" version="1.1" xmlns="http://www.w3.org/2000/svg" xmlns:xlink="http://www.w3.org/1999/xlink" xml:space="preserve" onload="init(evt)">
<style type="text/css"><![CDATA[
.edge:hover path { stroke: red; }
.edge:hover polygon { stroke: red; fill: red; }
]]></style>
<script type="text/javascript"><![CDATA[
var edges = document.getElementsByTagName('g');
if (edges && edges.length) {
  for (var i=0;i<edges.length;i++) {
    if (edges[i].id.substr(0,4)=='edge') {
      edges[i].setAttribute('class','edge');
    }
  }
}
]]></script>
        <defs>
                <circle id="rim" cx="0" cy="0" r="7"/>
                <circle id="rim2" cx="0" cy="0" r="3.5"/>
                <g id="zoomPlus">
                        <use xlink:href="#rim" fill="#404040">
                                <set attributeName="fill" to="#808080" begin="zoomplus.mouseover" end="zoomplus.mouseout"/>
                        </use>
                        <path d="M-4,0h8M0,-4v8" fill="none" stroke="white" stroke-width="1.5" pointer-events="none"/>
                </g>
                <g id="zoomMin">
                        <use xlink:href="#rim" fill="#404040">
                                <set attributeName="fill" to="#808080" begin="zoomminus.mouseover" end="zoomminus.mouseout"/>
                        </use>
                        <path d="M-4,0h8" fill="none" stroke="white" stroke-width="1.5" pointer-events="none"/>
                </g>
                <g id="dirArrow">
                        <path fill="none" stroke="white" stroke-width="1.5" d="M0,-3.0v7 M-2.5,-0.5L0,-3.0L2.5,-0.5"/>
                </g>
               <g id="resetDef">
                       <use xlink:href="#rim2" fill="#404040">
                               <set attributeName="fill" to="#808080" begin="reset.mouseover" end="reset.mouseout"/>
                       </use>
               </g>
        </defs>

<script type="text/javascript">
var viewWidth = 1380;
var viewHeight = 1345;
var sectionId = 'dynsection-1';
</script>
<script xlink:href="../../svgpan.js"/>
<svg id="graph" class="graph">
<g id="viewport">
<title>InGamePopups.AchievementUnlockedPopup</title>
<polygon fill="white" stroke="transparent" points="-4,4 -4,-1341 1376.15,-1341 1376.15,4 -4,4"/>
<!-- Node1 -->
<g id="node1" class="node">
<title>Node1</title>
<g id="a_node1"><a xlink:title=" ">
<polygon fill="#bfbfbf" stroke="black" points="815.15,-0.5 815.15,-222.5 1017.15,-222.5 1017.15,-0.5 815.15,-0.5"/>
<text text-anchor="start" x="823.15" y="-210.5" font-family="Helvetica,sans-Serif" font-size="10.00">InGamePopups.Achievement</text>
<text text-anchor="middle" x="916.15" y="-199.5" font-family="Helvetica,sans-Serif" font-size="10.00">UnlockedPopup</text>
<polyline fill="none" stroke="black" points="815.15,-192.5 1017.15,-192.5 "/>
<text text-anchor="start" x="823.15" y="-180.5" font-family="Helvetica,sans-Serif" font-size="10.00">+ bool ShouldBeRemoved</text>
<text text-anchor="start" x="823.15" y="-169.5" font-family="Helvetica,sans-Serif" font-size="10.00">+ object CreationObject</text>
<text text-anchor="start" x="823.15" y="-158.5" font-family="Helvetica,sans-Serif" font-size="10.00">+ float Scale</text>
<text text-anchor="start" x="823.15" y="-147.5" font-family="Helvetica,sans-Serif" font-size="10.00">+ float Opacity</text>
<polyline fill="none" stroke="black" points="815.15,-140.5 1017.15,-140.5 "/>
<text text-anchor="start" x="823.15" y="-128.5" font-family="Helvetica,sans-Serif" font-size="10.00">+ AchievementUnlockedPopup</text>
<text text-anchor="start" x="823.15" y="-117.5" font-family="Helvetica,sans-Serif" font-size="10.00">(Achievement achievement)</text>
<text text-anchor="start" x="823.15" y="-106.5" font-family="Helvetica,sans-Serif" font-size="10.00">+ void Update()</text>
<text text-anchor="start" x="823.15" y="-95.5" font-family="Helvetica,sans-Serif" font-size="10.00">+ void PushAnchor(ref</text>
<text text-anchor="start" x="823.15" y="-84.5" font-family="Helvetica,sans-Serif" font-size="10.00"> Vector2 anchorPosition)</text>
<text text-anchor="start" x="823.15" y="-73.5" font-family="Helvetica,sans-Serif" font-size="10.00">+ void DrawInGame(SpriteBatch</text>
<text text-anchor="start" x="823.15" y="-62.5" font-family="Helvetica,sans-Serif" font-size="10.00"> sb, Vector2 bottomAnchorPosition)</text>
<text text-anchor="start" x="823.15" y="-51.5" font-family="Helvetica,sans-Serif" font-size="10.00">+ void DrawInNotifications</text>
<text text-anchor="start" x="823.15" y="-40.5" font-family="Helvetica,sans-Serif" font-size="10.00">Area(SpriteBatch spriteBatch,</text>
<text text-anchor="start" x="823.15" y="-29.5" font-family="Helvetica,sans-Serif" font-size="10.00"> Rectangle area, ref int gamepadPoint</text>
<text text-anchor="start" x="823.15" y="-18.5" font-family="Helvetica,sans-Serif" font-size="10.00">LocalIndexTouse)</text>
<text text-anchor="start" x="823.15" y="-7.5" font-family="Helvetica,sans-Serif" font-size="10.00">&#45; void OnMouseOver()</text>
</a>
</g>
</g>
<!-- Node2 -->
<g id="node2" class="node">
<title>Node2</title>
<g id="a_node2"><a xlink:href="../../dd/d8f/interfaceIInGameNotification.html" target="_top" xlink:title=" ">
<polygon fill="white" stroke="black" points="269.15,-424.5 269.15,-591.5 471.15,-591.5 471.15,-424.5 269.15,-424.5"/>
<text text-anchor="middle" x="370.15" y="-579.5" font-family="Helvetica,sans-Serif" font-size="10.00">IInGameNotification</text>
<polyline fill="none" stroke="black" points="269.15,-572.5 471.15,-572.5 "/>
<text text-anchor="start" x="277.15" y="-560.5" font-family="Helvetica,sans-Serif" font-size="10.00">+ object CreationObject</text>
<text text-anchor="start" x="277.15" y="-549.5" font-family="Helvetica,sans-Serif" font-size="10.00">+ bool ShouldBeRemoved</text>
<polyline fill="none" stroke="black" points="269.15,-542.5 471.15,-542.5 "/>
<text text-anchor="start" x="277.15" y="-530.5" font-family="Helvetica,sans-Serif" font-size="10.00">+ void Update()</text>
<text text-anchor="start" x="277.15" y="-519.5" font-family="Helvetica,sans-Serif" font-size="10.00">+ void DrawInGame(SpriteBatch</text>
<text text-anchor="start" x="277.15" y="-508.5" font-family="Helvetica,sans-Serif" font-size="10.00"> spriteBatch, Vector2 bottomAnchor</text>
<text text-anchor="start" x="277.15" y="-497.5" font-family="Helvetica,sans-Serif" font-size="10.00">Position)</text>
<text text-anchor="start" x="277.15" y="-486.5" font-family="Helvetica,sans-Serif" font-size="10.00">+ void PushAnchor(ref</text>
<text text-anchor="start" x="277.15" y="-475.5" font-family="Helvetica,sans-Serif" font-size="10.00"> Vector2 positionAnchorBottom)</text>
<text text-anchor="start" x="277.15" y="-464.5" font-family="Helvetica,sans-Serif" font-size="10.00">+ void DrawInNotifications</text>
<text text-anchor="start" x="277.15" y="-453.5" font-family="Helvetica,sans-Serif" font-size="10.00">Area(SpriteBatch spriteBatch,</text>
<text text-anchor="start" x="277.15" y="-442.5" font-family="Helvetica,sans-Serif" font-size="10.00"> Rectangle area, ref int gamepadPoint</text>
<text text-anchor="start" x="277.15" y="-431.5" font-family="Helvetica,sans-Serif" font-size="10.00">LocalIndexTouse)</text>
</a>
</g>
</g>
<!-- Node2&#45;&gt;Node1 -->
<g id="edge1" class="edge">
<title>Node2&#45;&gt;Node1</title>
<path fill="none" stroke="midnightblue" d="M397.17,-414.7C414.52,-369.29 441.23,-316.77 480.15,-281 574.55,-194.23 718.51,-150.38 814.89,-129.53"/>
<polygon fill="none" stroke="midnightblue" points="393.81,-413.68 393.61,-424.27 400.37,-416.12 393.81,-413.68"/>
</g>
<!-- Node3 -->
<g id="node3" class="node">
<title>Node3</title>
<g id="a_node3"><a xlink:title=" ">
<polygon fill="white" stroke="#bfbfbf" points="584.15,-1157 584.15,-1214 628.15,-1214 628.15,-1157 584.15,-1157"/>
<text text-anchor="middle" x="606.15" y="-1202" font-family="Helvetica,sans-Serif" font-size="10.00">string</text>
<polyline fill="none" stroke="#bfbfbf" points="584.15,-1195 628.15,-1195 "/>
<text text-anchor="middle" x="606.15" y="-1183" font-family="Helvetica,sans-Serif" font-size="10.00"> </text>
<polyline fill="none" stroke="#bfbfbf" points="584.15,-1176 628.15,-1176 "/>
<text text-anchor="middle" x="606.15" y="-1164" font-family="Helvetica,sans-Serif" font-size="10.00"> </text>
</a>
</g>
</g>
<!-- Node3&#45;&gt;Node1 -->
<g id="edge2" class="edge">
<title>Node3&#45;&gt;Node1</title>
<path fill="none" stroke="#404040" d="M628.43,-1183.26C681.94,-1179.06 818.58,-1160.74 890.15,-1082 1010.61,-949.47 1011.02,-457.24 979.15,-281 976.38,-265.69 972.31,-249.97 967.54,-234.56"/>
<polygon fill="none" stroke="#404040" points="967.45,-234.27 961.8,-229.79 963.77,-222.85 969.41,-227.34 967.45,-234.27"/>
<text text-anchor="middle" x="1003.15" y="-767" font-family="Helvetica,sans-Serif" font-size="10.00"> &#45;_title</text>
</g>
<!-- Node4 -->
<g id="node4" class="node">
<title>Node4</title>
<g id="a_node4"><a xlink:href="../../d0/d28/classAchievement.html" target="_top" xlink:title=" ">
<polygon fill="white" stroke="black" points="489.65,-281.5 489.65,-734.5 698.65,-734.5 698.65,-281.5 489.65,-281.5"/>
<text text-anchor="middle" x="594.15" y="-722.5" font-family="Helvetica,sans-Serif" font-size="10.00">Achievement</text>
<polyline fill="none" stroke="black" points="489.65,-715.5 698.65,-715.5 "/>
<text text-anchor="start" x="497.65" y="-703.5" font-family="Helvetica,sans-Serif" font-size="10.00">+ AchievementCategory</text>
<text text-anchor="start" x="497.65" y="-692.5" font-family="Helvetica,sans-Serif" font-size="10.00"> Category</text>
<text text-anchor="start" x="497.65" y="-681.5" font-family="Helvetica,sans-Serif" font-size="10.00">+ bool HasTracker</text>
<text text-anchor="start" x="497.65" y="-670.5" font-family="Helvetica,sans-Serif" font-size="10.00">+ bool IsCompleted</text>
<polyline fill="none" stroke="black" points="489.65,-663.5 698.65,-663.5 "/>
<text text-anchor="start" x="497.65" y="-651.5" font-family="Helvetica,sans-Serif" font-size="10.00">+ delegate void Achievement</text>
<text text-anchor="start" x="497.65" y="-640.5" font-family="Helvetica,sans-Serif" font-size="10.00">Completed(Achievement achievement)</text>
<text text-anchor="start" x="497.65" y="-629.5" font-family="Helvetica,sans-Serif" font-size="10.00">+ IAchievementTracker</text>
<text text-anchor="start" x="497.65" y="-618.5" font-family="Helvetica,sans-Serif" font-size="10.00"> GetTracker()</text>
<text text-anchor="start" x="497.65" y="-607.5" font-family="Helvetica,sans-Serif" font-size="10.00">+ Achievement(string</text>
<text text-anchor="start" x="497.65" y="-596.5" font-family="Helvetica,sans-Serif" font-size="10.00"> name)</text>
<text text-anchor="start" x="497.65" y="-585.5" font-family="Helvetica,sans-Serif" font-size="10.00">+ void ClearProgress()</text>
<text text-anchor="start" x="497.65" y="-574.5" font-family="Helvetica,sans-Serif" font-size="10.00">+ void Load(Dictionary</text>
<text text-anchor="start" x="497.65" y="-563.5" font-family="Helvetica,sans-Serif" font-size="10.00">&lt; string, JObject &gt; conditions)</text>
<text text-anchor="start" x="497.65" y="-552.5" font-family="Helvetica,sans-Serif" font-size="10.00">+ void AddCondition(Achievement</text>
<text text-anchor="start" x="497.65" y="-541.5" font-family="Helvetica,sans-Serif" font-size="10.00">Condition condition)</text>
<text text-anchor="start" x="497.65" y="-530.5" font-family="Helvetica,sans-Serif" font-size="10.00">+ void UseTrackerFromCondition</text>
<text text-anchor="start" x="497.65" y="-519.5" font-family="Helvetica,sans-Serif" font-size="10.00">(string conditionName)</text>
<text text-anchor="start" x="497.65" y="-508.5" font-family="Helvetica,sans-Serif" font-size="10.00">+ void UseConditionsCompleted</text>
<text text-anchor="start" x="497.65" y="-497.5" font-family="Helvetica,sans-Serif" font-size="10.00">Tracker()</text>
<text text-anchor="start" x="497.65" y="-486.5" font-family="Helvetica,sans-Serif" font-size="10.00">+ void UseConditionsCompleted</text>
<text text-anchor="start" x="497.65" y="-475.5" font-family="Helvetica,sans-Serif" font-size="10.00">Tracker(params string[]</text>
<text text-anchor="start" x="497.65" y="-464.5" font-family="Helvetica,sans-Serif" font-size="10.00"> conditions)</text>
<text text-anchor="start" x="497.65" y="-453.5" font-family="Helvetica,sans-Serif" font-size="10.00">+ void ClearTracker()</text>
<text text-anchor="start" x="497.65" y="-442.5" font-family="Helvetica,sans-Serif" font-size="10.00">+ void AddConditions</text>
<text text-anchor="start" x="497.65" y="-431.5" font-family="Helvetica,sans-Serif" font-size="10.00">(params AchievementCondition</text>
<text text-anchor="start" x="497.65" y="-420.5" font-family="Helvetica,sans-Serif" font-size="10.00">[] conditions)</text>
<text text-anchor="start" x="497.65" y="-409.5" font-family="Helvetica,sans-Serif" font-size="10.00">+ AchievementCondition</text>
<text text-anchor="start" x="497.65" y="-398.5" font-family="Helvetica,sans-Serif" font-size="10.00"> GetCondition(string</text>
<text text-anchor="start" x="497.65" y="-387.5" font-family="Helvetica,sans-Serif" font-size="10.00"> conditionName)</text>
<text text-anchor="start" x="497.65" y="-376.5" font-family="Helvetica,sans-Serif" font-size="10.00">+ void SetCategory(Achievement</text>
<text text-anchor="start" x="497.65" y="-365.5" font-family="Helvetica,sans-Serif" font-size="10.00">Category category)</text>
<text text-anchor="start" x="497.65" y="-354.5" font-family="Helvetica,sans-Serif" font-size="10.00">&#45; void OnConditionComplete</text>
<text text-anchor="start" x="497.65" y="-343.5" font-family="Helvetica,sans-Serif" font-size="10.00">(AchievementCondition condition)</text>
<text text-anchor="start" x="497.65" y="-332.5" font-family="Helvetica,sans-Serif" font-size="10.00">&#45; void UseTracker(IAchievement</text>
<text text-anchor="start" x="497.65" y="-321.5" font-family="Helvetica,sans-Serif" font-size="10.00">Tracker tracker)</text>
<text text-anchor="start" x="497.65" y="-310.5" font-family="Helvetica,sans-Serif" font-size="10.00">&#45; IAchievementTracker</text>
<text text-anchor="start" x="497.65" y="-299.5" font-family="Helvetica,sans-Serif" font-size="10.00"> GetConditionTracker</text>
<text text-anchor="start" x="497.65" y="-288.5" font-family="Helvetica,sans-Serif" font-size="10.00">(string name)</text>
</a>
</g>
</g>
<!-- Node3&#45;&gt;Node4 -->
<g id="edge5" class="edge">
<title>Node3&#45;&gt;Node4</title>
<path fill="none" stroke="#404040" d="M584.1,-1163.75C569.63,-1151.44 549.65,-1136.77 529.15,-1129 431.2,-1091.88 130.43,-1159.67 60.15,-1082 -22.75,-990.38 -16.86,-900.62 60.15,-804 123.52,-724.5 182.75,-768.99 283.15,-753 323.51,-746.57 427.68,-757.91 478.8,-734.18"/>
<polygon fill="none" stroke="#404040" points="478.99,-734.08 482.25,-727.64 489.44,-728.17 486.18,-734.61 478.99,-734.08"/>
<text text-anchor="middle" x="80.65" y="-940.5" font-family="Helvetica,sans-Serif" font-size="10.00"> +Name</text>
</g>
<!-- Node8 -->
<g id="node8" class="node">
<title>Node8</title>
<g id="a_node8"><a xlink:href="../../d1/d68/classLocalizedText.html" target="_top" xlink:title=" ">
<polygon fill="white" stroke="black" points="458.15,-804.5 458.15,-1081.5 630.15,-1081.5 630.15,-804.5 458.15,-804.5"/>
<text text-anchor="middle" x="544.15" y="-1069.5" font-family="Helvetica,sans-Serif" font-size="10.00">LocalizedText</text>
<polyline fill="none" stroke="black" points="458.15,-1062.5 630.15,-1062.5 "/>
<text text-anchor="start" x="466.15" y="-1050.5" font-family="Helvetica,sans-Serif" font-size="10.00">+ string Value</text>
<polyline fill="none" stroke="black" points="458.15,-1043.5 630.15,-1043.5 "/>
<text text-anchor="start" x="466.15" y="-1031.5" font-family="Helvetica,sans-Serif" font-size="10.00">+ string FormatWith(object obj)</text>
<text text-anchor="start" x="466.15" y="-1020.5" font-family="Helvetica,sans-Serif" font-size="10.00">+ bool CanFormatWith</text>
<text text-anchor="start" x="466.15" y="-1009.5" font-family="Helvetica,sans-Serif" font-size="10.00">(object obj)</text>
<text text-anchor="start" x="466.15" y="-998.5" font-family="Helvetica,sans-Serif" font-size="10.00">+ NetworkText ToNetworkText()</text>
<text text-anchor="start" x="466.15" y="-987.5" font-family="Helvetica,sans-Serif" font-size="10.00">+ NetworkText ToNetworkText</text>
<text text-anchor="start" x="466.15" y="-976.5" font-family="Helvetica,sans-Serif" font-size="10.00">(params object[] substitutions)</text>
<text text-anchor="start" x="466.15" y="-965.5" font-family="Helvetica,sans-Serif" font-size="10.00">+ string Format(object</text>
<text text-anchor="start" x="466.15" y="-954.5" font-family="Helvetica,sans-Serif" font-size="10.00"> arg0)</text>
<text text-anchor="start" x="466.15" y="-943.5" font-family="Helvetica,sans-Serif" font-size="10.00">+ string Format(object</text>
<text text-anchor="start" x="466.15" y="-932.5" font-family="Helvetica,sans-Serif" font-size="10.00"> arg0, object arg1)</text>
<text text-anchor="start" x="466.15" y="-921.5" font-family="Helvetica,sans-Serif" font-size="10.00">+ string Format(object</text>
<text text-anchor="start" x="466.15" y="-910.5" font-family="Helvetica,sans-Serif" font-size="10.00"> arg0, object arg1, object arg2)</text>
<text text-anchor="start" x="466.15" y="-899.5" font-family="Helvetica,sans-Serif" font-size="10.00">+ string Format(params</text>
<text text-anchor="start" x="466.15" y="-888.5" font-family="Helvetica,sans-Serif" font-size="10.00"> object[] args)</text>
<text text-anchor="start" x="466.15" y="-877.5" font-family="Helvetica,sans-Serif" font-size="10.00">+ override string ToString()</text>
<text text-anchor="start" x="466.15" y="-866.5" font-family="Helvetica,sans-Serif" font-size="10.00">+ static operator string</text>
<text text-anchor="start" x="466.15" y="-855.5" font-family="Helvetica,sans-Serif" font-size="10.00">(LocalizedText text)</text>
<text text-anchor="start" x="466.15" y="-844.5" font-family="Helvetica,sans-Serif" font-size="10.00">~ LocalizedText(string</text>
<text text-anchor="start" x="466.15" y="-833.5" font-family="Helvetica,sans-Serif" font-size="10.00"> key, string text)</text>
<text text-anchor="start" x="466.15" y="-822.5" font-family="Helvetica,sans-Serif" font-size="10.00">~ void SetValue(string</text>
<text text-anchor="start" x="466.15" y="-811.5" font-family="Helvetica,sans-Serif" font-size="10.00"> text)</text>
</a>
</g>
</g>
<!-- Node3&#45;&gt;Node8 -->
<g id="edge9" class="edge">
<title>Node3&#45;&gt;Node8</title>
<path fill="none" stroke="#404040" d="M599.04,-1156.91C594.75,-1140.3 588.93,-1117.69 582.66,-1093.4"/>
<polygon fill="none" stroke="#404040" points="582.66,-1093.36 577.28,-1088.55 579.66,-1081.74 585.03,-1086.55 582.66,-1093.36"/>
<text text-anchor="middle" x="601.15" y="-1103" font-family="Helvetica,sans-Serif" font-size="10.00"> +Key</text>
</g>
<!-- Node4&#45;&gt;Node1 -->
<g id="edge3" class="edge">
<title>Node4&#45;&gt;Node1</title>
<path fill="none" stroke="#404040" d="M698.73,-284.5C709.17,-269.18 720.32,-254.5 732.15,-241 752.99,-217.23 779.11,-195.62 805.06,-177.19"/>
<polygon fill="none" stroke="#404040" points="805.13,-177.14 807.77,-170.43 814.98,-170.28 812.34,-176.99 805.13,-177.14"/>
<text text-anchor="middle" x="778.65" y="-249.5" font-family="Helvetica,sans-Serif" font-size="10.00"> &#45;_theAchievement</text>
</g>
<!-- Node5 -->
<g id="node5" class="node">
<title>Node5</title>
<g id="a_node5"><a xlink:href="../../d6/d1e/interfaceIAchievementTracker.html" target="_top" xlink:title=" ">
<polygon fill="white" stroke="black" points="270.15,-892.5 270.15,-993.5 440.15,-993.5 440.15,-892.5 270.15,-892.5"/>
<text text-anchor="middle" x="355.15" y="-981.5" font-family="Helvetica,sans-Serif" font-size="10.00">IAchievementTracker</text>
<polyline fill="none" stroke="black" points="270.15,-974.5 440.15,-974.5 "/>
<text text-anchor="middle" x="355.15" y="-962.5" font-family="Helvetica,sans-Serif" font-size="10.00"> </text>
<polyline fill="none" stroke="black" points="270.15,-955.5 440.15,-955.5 "/>
<text text-anchor="start" x="278.15" y="-943.5" font-family="Helvetica,sans-Serif" font-size="10.00">+ void ReportAs(string</text>
<text text-anchor="start" x="278.15" y="-932.5" font-family="Helvetica,sans-Serif" font-size="10.00"> name)</text>
<text text-anchor="start" x="278.15" y="-921.5" font-family="Helvetica,sans-Serif" font-size="10.00">+ TrackerType GetTrackerType()</text>
<text text-anchor="start" x="278.15" y="-910.5" font-family="Helvetica,sans-Serif" font-size="10.00">+ void Load()</text>
<text text-anchor="start" x="278.15" y="-899.5" font-family="Helvetica,sans-Serif" font-size="10.00">+ void Clear()</text>
</a>
</g>
</g>
<!-- Node5&#45;&gt;Node4 -->
<g id="edge4" class="edge">
<title>Node5&#45;&gt;Node4</title>
<path fill="none" stroke="#404040" d="M386.54,-892.43C412.5,-850.88 449.88,-789.74 480.15,-735 481.38,-732.78 482.6,-730.55 483.83,-728.31"/>
<polygon fill="none" stroke="#404040" points="483.86,-728.26 483.22,-721.08 489.6,-717.72 490.24,-724.91 483.86,-728.26"/>
<text text-anchor="middle" x="491.15" y="-767" font-family="Helvetica,sans-Serif" font-size="10.00"> &#45;_tracker</text>
</g>
<!-- Node6 -->
<g id="node6" class="node">
<title>Node6</title>
<g id="a_node6"><a xlink:title=" ">
<polygon fill="white" stroke="#bfbfbf" points="852.65,-914.5 852.65,-971.5 881.65,-971.5 881.65,-914.5 852.65,-914.5"/>
<text text-anchor="middle" x="867.15" y="-959.5" font-family="Helvetica,sans-Serif" font-size="10.00">int</text>
<polyline fill="none" stroke="#bfbfbf" points="852.65,-952.5 881.65,-952.5 "/>
<text text-anchor="middle" x="867.15" y="-940.5" font-family="Helvetica,sans-Serif" font-size="10.00"> </text>
<polyline fill="none" stroke="#bfbfbf" points="852.65,-933.5 881.65,-933.5 "/>
<text text-anchor="middle" x="867.15" y="-921.5" font-family="Helvetica,sans-Serif" font-size="10.00"> </text>
</a>
</g>
</g>
<!-- Node6&#45;&gt;Node1 -->
<g id="edge14" class="edge">
<title>Node6&#45;&gt;Node1</title>
<path fill="none" stroke="#404040" d="M862.66,-914.3C848.68,-822.91 809.39,-523 853.15,-281 855.92,-265.69 859.99,-249.97 864.76,-234.56"/>
<polygon fill="none" stroke="#404040" points="864.86,-234.27 862.89,-227.34 868.54,-222.85 870.5,-229.79 864.86,-234.27"/>
<text text-anchor="middle" x="916.15" y="-527.5" font-family="Helvetica,sans-Serif" font-size="10.00"> &#45;_iconIndex</text>
<text text-anchor="middle" x="916.15" y="-516.5" font-family="Helvetica,sans-Serif" font-size="10.00">&#45;_iconSize</text>
<text text-anchor="middle" x="916.15" y="-505.5" font-family="Helvetica,sans-Serif" font-size="10.00">&#45;_iconSizeWithSpace</text>
<text text-anchor="middle" x="916.15" y="-494.5" font-family="Helvetica,sans-Serif" font-size="10.00">&#45;_iconsPerRow</text>
<text text-anchor="middle" x="916.15" y="-483.5" font-family="Helvetica,sans-Serif" font-size="10.00">&#45;_ingameDisplayTimeLeft</text>
</g>
<!-- Node6&#45;&gt;Node4 -->
<g id="edge6" class="edge">
<title>Node6&#45;&gt;Node4</title>
<path fill="none" stroke="#404040" d="M870.95,-914.41C873.58,-883.06 872.37,-832.55 843.15,-804 804.57,-766.31 766.35,-818.29 723.15,-786 717.35,-781.67 708.17,-766.59 697.3,-745.56"/>
<polygon fill="none" stroke="#404040" points="697.26,-745.48 690.98,-741.93 691.84,-734.77 698.11,-738.32 697.26,-745.48"/>
<text text-anchor="middle" x="774.15" y="-778" font-family="Helvetica,sans-Serif" font-size="10.00"> +Id</text>
<text text-anchor="middle" x="774.15" y="-767" font-family="Helvetica,sans-Serif" font-size="10.00">&#45;_completedCount</text>
<text text-anchor="middle" x="774.15" y="-756" font-family="Helvetica,sans-Serif" font-size="10.00">&#45;_totalAchievements</text>
</g>
<!-- Node7 -->
<g id="node7" class="node">
<title>Node7</title>
<g id="a_node7"><a xlink:title=" ">
<polygon fill="white" stroke="#bfbfbf" points="709.65,-914.5 709.65,-971.5 834.65,-971.5 834.65,-914.5 709.65,-914.5"/>
<text text-anchor="middle" x="772.15" y="-959.5" font-family="Helvetica,sans-Serif" font-size="10.00">AchievementCategory</text>
<polyline fill="none" stroke="#bfbfbf" points="709.65,-952.5 834.65,-952.5 "/>
<text text-anchor="middle" x="772.15" y="-940.5" font-family="Helvetica,sans-Serif" font-size="10.00"> </text>
<polyline fill="none" stroke="#bfbfbf" points="709.65,-933.5 834.65,-933.5 "/>
<text text-anchor="middle" x="772.15" y="-921.5" font-family="Helvetica,sans-Serif" font-size="10.00"> </text>
</a>
</g>
</g>
<!-- Node7&#45;&gt;Node4 -->
<g id="edge7" class="edge">
<title>Node7&#45;&gt;Node4</title>
<path fill="none" stroke="#404040" d="M764.67,-914.42C754.85,-883.31 734.68,-833.27 700.15,-804 680.53,-787.37 662.08,-805.37 645.15,-786 634.57,-773.9 625.87,-760.34 618.74,-745.89"/>
<polygon fill="none" stroke="#404040" points="618.59,-745.58 612.45,-741.8 613.58,-734.68 619.72,-738.46 618.59,-745.58"/>
<text text-anchor="middle" x="672.65" y="-767" font-family="Helvetica,sans-Serif" font-size="10.00"> &#45;_category</text>
</g>
<!-- Node8&#45;&gt;Node4 -->
<g id="edge8" class="edge">
<title>Node8&#45;&gt;Node4</title>
<path fill="none" stroke="#404040" d="M541.79,-804.29C542.4,-786.99 543.46,-769.57 545.15,-753 545.36,-750.93 545.58,-748.85 545.81,-746.77"/>
<polygon fill="none" stroke="#404040" points="545.82,-746.68 542.55,-740.25 547.22,-734.76 550.49,-741.18 545.82,-746.68"/>
<text text-anchor="middle" x="583.65" y="-772.5" font-family="Helvetica,sans-Serif" font-size="10.00"> +Description</text>
<text text-anchor="middle" x="583.65" y="-761.5" font-family="Helvetica,sans-Serif" font-size="10.00">+FriendlyName</text>
</g>
<!-- Node8&#45;&gt;Node8 -->
<g id="edge10" class="edge">
<title>Node8&#45;&gt;Node8</title>
<path fill="none" stroke="#404040" d="M630.23,-969.45C641.04,-964.79 648.15,-955.97 648.15,-943 648.15,-934.69 645.23,-928.08 640.29,-923.18"/>
<polygon fill="none" stroke="#404040" points="640.25,-923.15 633.03,-923.19 630.23,-916.55 637.44,-916.51 640.25,-923.15"/>
<text text-anchor="middle" x="669.65" y="-940.5" font-family="Helvetica,sans-Serif" font-size="10.00"> +Empty</text>
</g>
<!-- Node9 -->
<g id="node9" class="node">
<title>Node9</title>
<g id="a_node9"><a xlink:title=" ">
<polygon fill="white" stroke="#bfbfbf" points="443.65,-1157 443.65,-1214 520.65,-1214 520.65,-1157 443.65,-1157"/>
<text text-anchor="middle" x="482.15" y="-1202" font-family="Helvetica,sans-Serif" font-size="10.00">static Regex</text>
<polyline fill="none" stroke="#bfbfbf" points="443.65,-1195 520.65,-1195 "/>
<text text-anchor="middle" x="482.15" y="-1183" font-family="Helvetica,sans-Serif" font-size="10.00"> </text>
<polyline fill="none" stroke="#bfbfbf" points="443.65,-1176 520.65,-1176 "/>
<text text-anchor="middle" x="482.15" y="-1164" font-family="Helvetica,sans-Serif" font-size="10.00"> </text>
</a>
</g>
</g>
<!-- Node9&#45;&gt;Node8 -->
<g id="edge11" class="edge">
<title>Node9&#45;&gt;Node8</title>
<path fill="none" stroke="#404040" d="M481.69,-1156.93C481.48,-1143.14 481.25,-1126.19 481.15,-1111 481.12,-1106.11 480.22,-1104.8 481.15,-1100 481.57,-1097.84 482.02,-1095.66 482.5,-1093.49"/>
<polygon fill="none" stroke="#404040" points="482.5,-1093.47 480.02,-1086.7 485.31,-1081.8 487.8,-1088.57 482.5,-1093.47"/>
<text text-anchor="middle" x="531.65" y="-1103" font-family="Helvetica,sans-Serif" font-size="10.00"> &#45;_substitutionRegex</text>
</g>
<!-- Node10 -->
<g id="node10" class="node">
<title>Node10</title>
<g id="a_node10"><a xlink:title=" ">
<polygon fill="white" stroke="#bfbfbf" points="110.15,-909 110.15,-977 252.15,-977 252.15,-909 110.15,-909"/>
<text text-anchor="start" x="118.15" y="-965" font-family="Helvetica,sans-Serif" font-size="10.00">Dictionary&lt; string,</text>
<text text-anchor="middle" x="181.15" y="-954" font-family="Helvetica,sans-Serif" font-size="10.00"> AchievementCondition &gt;</text>
<polyline fill="none" stroke="#bfbfbf" points="110.15,-947 252.15,-947 "/>
<text text-anchor="middle" x="181.15" y="-935" font-family="Helvetica,sans-Serif" font-size="10.00"> </text>
<polyline fill="none" stroke="#bfbfbf" points="110.15,-928 252.15,-928 "/>
<text text-anchor="middle" x="181.15" y="-916" font-family="Helvetica,sans-Serif" font-size="10.00"> </text>
</a>
</g>
</g>
<!-- Node10&#45;&gt;Node4 -->
<g id="edge12" class="edge">
<title>Node10&#45;&gt;Node4</title>
<path fill="none" stroke="#404040" d="M193.06,-908.84C205.67,-877.95 228.32,-832.51 261.15,-804 306.77,-764.39 329.22,-770.15 387.15,-753 424.21,-742.03 443.3,-757.43 479.29,-734.6"/>
<polygon fill="none" stroke="#404040" points="479.56,-734.42 482.17,-727.7 489.37,-727.52 486.76,-734.24 479.56,-734.42"/>
<text text-anchor="middle" x="418.65" y="-767" font-family="Helvetica,sans-Serif" font-size="10.00"> &#45;_conditions</text>
</g>
<!-- Node11 -->
<g id="node11" class="node">
<title>Node11</title>
<g id="a_node11"><a xlink:title=" ">
<polygon fill="white" stroke="#bfbfbf" points="1021.65,-479.5 1021.65,-536.5 1086.65,-536.5 1086.65,-479.5 1021.65,-479.5"/>
<text text-anchor="middle" x="1054.15" y="-524.5" font-family="Helvetica,sans-Serif" font-size="10.00">Rectangle</text>
<polyline fill="none" stroke="#bfbfbf" points="1021.65,-517.5 1086.65,-517.5 "/>
<text text-anchor="middle" x="1054.15" y="-505.5" font-family="Helvetica,sans-Serif" font-size="10.00"> </text>
<polyline fill="none" stroke="#bfbfbf" points="1021.65,-498.5 1086.65,-498.5 "/>
<text text-anchor="middle" x="1054.15" y="-486.5" font-family="Helvetica,sans-Serif" font-size="10.00"> </text>
</a>
</g>
</g>
<!-- Node11&#45;&gt;Node1 -->
<g id="edge13" class="edge">
<title>Node11&#45;&gt;Node1</title>
<path fill="none" stroke="#404040" d="M1053.24,-479.47C1050.74,-429.92 1041.48,-323.22 1007.15,-241 1006.1,-238.49 1005,-235.98 1003.84,-233.47"/>
<polygon fill="none" stroke="#404040" points="1003.76,-233.31 997.53,-229.68 998.48,-222.53 1004.71,-226.16 1003.76,-233.31"/>
<text text-anchor="middle" x="1078.65" y="-249.5" font-family="Helvetica,sans-Serif" font-size="10.00"> &#45;_achievementIconFrame</text>
</g>
<!-- Node12 -->
<g id="node12" class="node">
<title>Node12</title>
<g id="a_node12"><a xlink:href="../../de/d97/classAsset.html" target="_top" xlink:title=" ">
<polygon fill="white" stroke="black" points="1113.15,-364 1113.15,-652 1277.15,-652 1277.15,-364 1113.15,-364"/>
<text text-anchor="middle" x="1195.15" y="-640" font-family="Helvetica,sans-Serif" font-size="10.00">Asset&lt; Texture2D &gt;</text>
<polyline fill="none" stroke="black" points="1113.15,-633 1277.15,-633 "/>
<text text-anchor="start" x="1121.15" y="-621" font-family="Helvetica,sans-Serif" font-size="10.00">+ static readonly Asset</text>
<text text-anchor="start" x="1121.15" y="-610" font-family="Helvetica,sans-Serif" font-size="10.00">&lt; T &gt; Empty</text>
<text text-anchor="start" x="1121.15" y="-599" font-family="Helvetica,sans-Serif" font-size="10.00">+ static T DefaultValue</text>
<text text-anchor="start" x="1121.15" y="-588" font-family="Helvetica,sans-Serif" font-size="10.00">+ string Name</text>
<text text-anchor="start" x="1121.15" y="-577" font-family="Helvetica,sans-Serif" font-size="10.00">+ bool IsLoaded</text>
<text text-anchor="start" x="1121.15" y="-566" font-family="Helvetica,sans-Serif" font-size="10.00">+ AssetState State</text>
<text text-anchor="start" x="1121.15" y="-555" font-family="Helvetica,sans-Serif" font-size="10.00">+ bool IsDisposed</text>
<text text-anchor="start" x="1121.15" y="-544" font-family="Helvetica,sans-Serif" font-size="10.00">+ IContentSource Source</text>
<text text-anchor="start" x="1121.15" y="-533" font-family="Helvetica,sans-Serif" font-size="10.00">+ T Value</text>
<text text-anchor="start" x="1121.15" y="-522" font-family="Helvetica,sans-Serif" font-size="10.00">+ Action Continuation</text>
<text text-anchor="start" x="1121.15" y="-511" font-family="Helvetica,sans-Serif" font-size="10.00">+ Action IAsset. Continuation</text>
<text text-anchor="start" x="1121.15" y="-500" font-family="Helvetica,sans-Serif" font-size="10.00">+ Action Wait</text>
<text text-anchor="start" x="1121.15" y="-489" font-family="Helvetica,sans-Serif" font-size="10.00">&#45; T ownValue</text>
<polyline fill="none" stroke="black" points="1113.15,-482 1277.15,-482 "/>
<text text-anchor="start" x="1121.15" y="-470" font-family="Helvetica,sans-Serif" font-size="10.00">+ void Dispose()</text>
<text text-anchor="start" x="1121.15" y="-459" font-family="Helvetica,sans-Serif" font-size="10.00">+ static operator T(Asset</text>
<text text-anchor="start" x="1121.15" y="-448" font-family="Helvetica,sans-Serif" font-size="10.00">&lt; T &gt; asset)</text>
<text text-anchor="start" x="1121.15" y="-437" font-family="Helvetica,sans-Serif" font-size="10.00">~ Asset(string name)</text>
<text text-anchor="start" x="1121.15" y="-426" font-family="Helvetica,sans-Serif" font-size="10.00">~ void Unload()</text>
<text text-anchor="start" x="1121.15" y="-415" font-family="Helvetica,sans-Serif" font-size="10.00">~ void SubmitLoadedContent</text>
<text text-anchor="start" x="1121.15" y="-404" font-family="Helvetica,sans-Serif" font-size="10.00">(T value, IContentSource</text>
<text text-anchor="start" x="1121.15" y="-393" font-family="Helvetica,sans-Serif" font-size="10.00"> source)</text>
<text text-anchor="start" x="1121.15" y="-382" font-family="Helvetica,sans-Serif" font-size="10.00">~ void SetToLoadingState()</text>
<text text-anchor="start" x="1121.15" y="-371" font-family="Helvetica,sans-Serif" font-size="10.00">&#45; void Dispose(bool disposing)</text>
</a>
</g>
</g>
<!-- Node12&#45;&gt;Node1 -->
<g id="edge15" class="edge">
<title>Node12&#45;&gt;Node1</title>
<path fill="none" stroke="#404040" d="M1191.79,-363.98C1185.01,-321.31 1171.59,-276.5 1146.15,-241 1117.23,-200.64 1071.48,-171.4 1028.38,-151.11"/>
<polygon fill="none" stroke="#404040" points="1028.11,-150.99 1021,-152.14 1017.19,-146.02 1024.31,-144.87 1028.11,-150.99"/>
<text text-anchor="middle" x="1230.65" y="-255" font-family="Helvetica,sans-Serif" font-size="10.00"> &#45;_achievementBorderTexture</text>
<text text-anchor="middle" x="1230.65" y="-244" font-family="Helvetica,sans-Serif" font-size="10.00">&#45;_achievementTexture</text>
</g>
<!-- Node13 -->
<g id="node13" class="node">
<title>Node13</title>
<g id="a_node13"><a xlink:href="../../de/d97/classAsset.html" target="_top" xlink:title=" ">
<polygon fill="white" stroke="black" points="1113.15,-815.5 1113.15,-1070.5 1277.15,-1070.5 1277.15,-815.5 1113.15,-815.5"/>
<text text-anchor="middle" x="1195.15" y="-1058.5" font-family="Helvetica,sans-Serif" font-size="10.00">Asset&lt; T &gt;</text>
<polyline fill="none" stroke="black" points="1113.15,-1051.5 1277.15,-1051.5 "/>
<text text-anchor="start" x="1121.15" y="-1039.5" font-family="Helvetica,sans-Serif" font-size="10.00">+ static T DefaultValue</text>
<text text-anchor="start" x="1121.15" y="-1028.5" font-family="Helvetica,sans-Serif" font-size="10.00">+ string Name</text>
<text text-anchor="start" x="1121.15" y="-1017.5" font-family="Helvetica,sans-Serif" font-size="10.00">+ bool IsLoaded</text>
<text text-anchor="start" x="1121.15" y="-1006.5" font-family="Helvetica,sans-Serif" font-size="10.00">+ AssetState State</text>
<text text-anchor="start" x="1121.15" y="-995.5" font-family="Helvetica,sans-Serif" font-size="10.00">+ bool IsDisposed</text>
<text text-anchor="start" x="1121.15" y="-984.5" font-family="Helvetica,sans-Serif" font-size="10.00">+ IContentSource Source</text>
<text text-anchor="start" x="1121.15" y="-973.5" font-family="Helvetica,sans-Serif" font-size="10.00">+ T Value</text>
<text text-anchor="start" x="1121.15" y="-962.5" font-family="Helvetica,sans-Serif" font-size="10.00">+ Action Continuation</text>
<text text-anchor="start" x="1121.15" y="-951.5" font-family="Helvetica,sans-Serif" font-size="10.00">+ Action IAsset. Continuation</text>
<text text-anchor="start" x="1121.15" y="-940.5" font-family="Helvetica,sans-Serif" font-size="10.00">+ Action Wait</text>
<polyline fill="none" stroke="black" points="1113.15,-933.5 1277.15,-933.5 "/>
<text text-anchor="start" x="1121.15" y="-921.5" font-family="Helvetica,sans-Serif" font-size="10.00">+ void Dispose()</text>
<text text-anchor="start" x="1121.15" y="-910.5" font-family="Helvetica,sans-Serif" font-size="10.00">+ static operator T(Asset</text>
<text text-anchor="start" x="1121.15" y="-899.5" font-family="Helvetica,sans-Serif" font-size="10.00">&lt; T &gt; asset)</text>
<text text-anchor="start" x="1121.15" y="-888.5" font-family="Helvetica,sans-Serif" font-size="10.00">~ Asset(string name)</text>
<text text-anchor="start" x="1121.15" y="-877.5" font-family="Helvetica,sans-Serif" font-size="10.00">~ void Unload()</text>
<text text-anchor="start" x="1121.15" y="-866.5" font-family="Helvetica,sans-Serif" font-size="10.00">~ void SubmitLoadedContent</text>
<text text-anchor="start" x="1121.15" y="-855.5" font-family="Helvetica,sans-Serif" font-size="10.00">(T value, IContentSource</text>
<text text-anchor="start" x="1121.15" y="-844.5" font-family="Helvetica,sans-Serif" font-size="10.00"> source)</text>
<text text-anchor="start" x="1121.15" y="-833.5" font-family="Helvetica,sans-Serif" font-size="10.00">~ void SetToLoadingState()</text>
<text text-anchor="start" x="1121.15" y="-822.5" font-family="Helvetica,sans-Serif" font-size="10.00">&#45; void Dispose(bool disposing)</text>
</a>
</g>
</g>
<!-- Node13&#45;&gt;Node12 -->
<g id="edge16" class="edge">
<title>Node13&#45;&gt;Node12</title>
<path fill="none" stroke="orange" d="M1195.15,-805.01C1195.15,-756.29 1195.15,-701.34 1195.15,-652.13"/>
<polygon fill="orange" stroke="orange" points="1191.65,-805.3 1195.15,-815.3 1198.65,-805.3 1191.65,-805.3"/>
<text text-anchor="middle" x="1233.15" y="-767" font-family="Helvetica,sans-Serif" font-size="10.00"> &lt; Texture2D &gt;</text>
</g>
<!-- Node14 -->
<g id="node14" class="node">
<title>Node14</title>
<g id="a_node14"><a xlink:href="../../dc/d37/interfaceIAsset.html" target="_top" xlink:title=" ">
<polygon fill="white" stroke="black" points="978.15,-1129.5 978.15,-1241.5 1116.15,-1241.5 1116.15,-1129.5 978.15,-1129.5"/>
<text text-anchor="middle" x="1047.15" y="-1229.5" font-family="Helvetica,sans-Serif" font-size="10.00">IAsset</text>
<polyline fill="none" stroke="black" points="978.15,-1222.5 1116.15,-1222.5 "/>
<text text-anchor="start" x="986.15" y="-1210.5" font-family="Helvetica,sans-Serif" font-size="10.00">+ AssetState State</text>
<text text-anchor="start" x="986.15" y="-1199.5" font-family="Helvetica,sans-Serif" font-size="10.00">+ IContentSource Source</text>
<text text-anchor="start" x="986.15" y="-1188.5" font-family="Helvetica,sans-Serif" font-size="10.00">+ string Name</text>
<text text-anchor="start" x="986.15" y="-1177.5" font-family="Helvetica,sans-Serif" font-size="10.00">+ bool IsLoaded</text>
<text text-anchor="start" x="986.15" y="-1166.5" font-family="Helvetica,sans-Serif" font-size="10.00">+ bool IsDisposed</text>
<text text-anchor="start" x="986.15" y="-1155.5" font-family="Helvetica,sans-Serif" font-size="10.00">+ Action Continuation</text>
<polyline fill="none" stroke="black" points="978.15,-1148.5 1116.15,-1148.5 "/>
<text text-anchor="middle" x="1047.15" y="-1136.5" font-family="Helvetica,sans-Serif" font-size="10.00"> </text>
</a>
</g>
</g>
<!-- Node14&#45;&gt;Node13 -->
<g id="edge17" class="edge">
<title>Node14&#45;&gt;Node13</title>
<path fill="none" stroke="midnightblue" d="M1086.57,-1120.45C1096.04,-1105.05 1106.49,-1088.07 1117.06,-1070.9"/>
<polygon fill="none" stroke="midnightblue" points="1083.37,-1118.97 1081.1,-1129.32 1089.33,-1122.64 1083.37,-1118.97"/>
</g>
<!-- Node15 -->
<g id="node15" class="node">
<title>Node15</title>
<g id="a_node15"><a xlink:href="../../d0/d07/classIDisposable.html" target="_top" xlink:title=" ">
<polygon fill="white" stroke="black" points="1058.15,-1279.5 1058.15,-1336.5 1132.15,-1336.5 1132.15,-1279.5 1058.15,-1279.5"/>
<text text-anchor="middle" x="1095.15" y="-1324.5" font-family="Helvetica,sans-Serif" font-size="10.00">IDisposable</text>
<polyline fill="none" stroke="black" points="1058.15,-1317.5 1132.15,-1317.5 "/>
<text text-anchor="middle" x="1095.15" y="-1305.5" font-family="Helvetica,sans-Serif" font-size="10.00"> </text>
<polyline fill="none" stroke="black" points="1058.15,-1298.5 1132.15,-1298.5 "/>
<text text-anchor="middle" x="1095.15" y="-1286.5" font-family="Helvetica,sans-Serif" font-size="10.00"> </text>
</a>
</g>
</g>
<!-- Node15&#45;&gt;Node13 -->
<g id="edge19" class="edge">
<title>Node15&#45;&gt;Node13</title>
<path fill="none" stroke="midnightblue" d="M1113.69,-1270.21C1117.83,-1261.13 1121.94,-1251.33 1125.15,-1242 1144.14,-1186.85 1159.71,-1124.22 1171.31,-1070.65"/>
<polygon fill="none" stroke="midnightblue" points="1110.48,-1268.81 1109.41,-1279.35 1116.82,-1271.78 1110.48,-1268.81"/>
</g>
<!-- Node15&#45;&gt;Node14 -->
<g id="edge18" class="edge">
<title>Node15&#45;&gt;Node14</title>
<path fill="none" stroke="midnightblue" d="M1080.4,-1269.97C1076.82,-1260.99 1072.92,-1251.19 1069.09,-1241.57"/>
<polygon fill="none" stroke="midnightblue" points="1077.19,-1271.36 1084.14,-1279.35 1083.69,-1268.77 1077.19,-1271.36"/>
</g>
<!-- Node16 -->
<g id="node16" class="node">
<title>Node16</title>
<g id="a_node16"><a xlink:title=" ">
<polygon fill="white" stroke="#bfbfbf" points="1172.15,-1157 1172.15,-1214 1320.15,-1214 1320.15,-1157 1172.15,-1157"/>
<text text-anchor="middle" x="1246.15" y="-1202" font-family="Helvetica,sans-Serif" font-size="10.00">static readonly Asset&lt; T &gt;</text>
<polyline fill="none" stroke="#bfbfbf" points="1172.15,-1195 1320.15,-1195 "/>
<text text-anchor="middle" x="1246.15" y="-1183" font-family="Helvetica,sans-Serif" font-size="10.00"> </text>
<polyline fill="none" stroke="#bfbfbf" points="1172.15,-1176 1320.15,-1176 "/>
<text text-anchor="middle" x="1246.15" y="-1164" font-family="Helvetica,sans-Serif" font-size="10.00"> </text>
</a>
</g>
</g>
<!-- Node16&#45;&gt;Node13 -->
<g id="edge20" class="edge">
<title>Node16&#45;&gt;Node13</title>
<path fill="none" stroke="#404040" d="M1240.3,-1156.91C1236.25,-1137.83 1230.53,-1110.84 1224.51,-1082.47"/>
<polygon fill="none" stroke="#404040" points="1224.5,-1082.42 1219.35,-1077.38 1222.01,-1070.68 1227.17,-1075.72 1224.5,-1082.42"/>
<text text-anchor="middle" x="1251.65" y="-1103" font-family="Helvetica,sans-Serif" font-size="10.00"> +Empty</text>
</g>
<!-- Node17 -->
<g id="node17" class="node">
<title>Node17</title>
<g id="a_node17"><a xlink:title=" ">
<polygon fill="white" stroke="#bfbfbf" points="1338.65,-1157 1338.65,-1214 1367.65,-1214 1367.65,-1157 1338.65,-1157"/>
<text text-anchor="middle" x="1353.15" y="-1202" font-family="Helvetica,sans-Serif" font-size="10.00">T</text>
<polyline fill="none" stroke="#bfbfbf" points="1338.65,-1195 1367.65,-1195 "/>
<text text-anchor="middle" x="1353.15" y="-1183" font-family="Helvetica,sans-Serif" font-size="10.00"> </text>
<polyline fill="none" stroke="#bfbfbf" points="1338.65,-1176 1367.65,-1176 "/>
<text text-anchor="middle" x="1353.15" y="-1164" font-family="Helvetica,sans-Serif" font-size="10.00"> </text>
</a>
</g>
</g>
<!-- Node17&#45;&gt;Node13 -->
<g id="edge21" class="edge">
<title>Node17&#45;&gt;Node13</title>
<path fill="none" stroke="#404040" d="M1342.59,-1156.82C1338.76,-1147.75 1334.14,-1137.76 1329.15,-1129 1315.82,-1105.58 1300.13,-1081.56 1284.26,-1058.91"/>
<polygon fill="none" stroke="#404040" points="1284.15,-1058.75 1277.42,-1056.16 1277.22,-1048.95 1283.95,-1051.54 1284.15,-1058.75"/>
<text text-anchor="middle" x="1344.65" y="-1103" font-family="Helvetica,sans-Serif" font-size="10.00"> &#45;ownValue</text>
</g>
</g>
</svg>
        <g id="navigator" transform="translate(0 0)" fill="#404254">
                <rect fill="#f2f5e9" fill-opacity="0.5" stroke="#606060" stroke-width=".5" x="0" y="0" width="60" height="60"/>
                <use id="zoomplus" xlink:href="#zoomPlus" x="17" y="9" onmousedown="handleZoom(evt,'in')"/>
                <use id="zoomminus" xlink:href="#zoomMin" x="42" y="9" onmousedown="handleZoom(evt,'out')"/>
                <use id="reset" xlink:href="#resetDef" x="30" y="36" onmousedown="handleReset()"/>
                <g id="arrowUp" xlink:href="#dirArrow" transform="translate(30 24)" onmousedown="handlePan(0,-1)">
                  <use xlink:href="#rim" fill="#404040">
                        <set attributeName="fill" to="#808080" begin="arrowUp.mouseover" end="arrowUp.mouseout"/>
                  </use>
                  <path fill="none" stroke="white" stroke-width="1.5" d="M0,-3.0v7 M-2.5,-0.5L0,-3.0L2.5,-0.5"/>
                </g>
                <g id="arrowRight" xlink:href="#dirArrow" transform="rotate(90) translate(36 -43)" onmousedown="handlePan(1,0)">
                  <use xlink:href="#rim" fill="#404040">
                        <set attributeName="fill" to="#808080" begin="arrowRight.mouseover" end="arrowRight.mouseout"/>
                  </use>
                  <path fill="none" stroke="white" stroke-width="1.5" d="M0,-3.0v7 M-2.5,-0.5L0,-3.0L2.5,-0.5"/>
                </g>
                <g id="arrowDown" xlink:href="#dirArrow" transform="rotate(180) translate(-30 -48)" onmousedown="handlePan(0,1)">
                  <use xlink:href="#rim" fill="#404040">
                        <set attributeName="fill" to="#808080" begin="arrowDown.mouseover" end="arrowDown.mouseout"/>
                  </use>
                  <path fill="none" stroke="white" stroke-width="1.5" d="M0,-3.0v7 M-2.5,-0.5L0,-3.0L2.5,-0.5"/>
                </g>
                <g id="arrowLeft" xlink:href="#dirArrow" transform="rotate(270) translate(-36 17)" onmousedown="handlePan(-1,0)">
                  <use xlink:href="#rim" fill="#404040">
                        <set attributeName="fill" to="#808080" begin="arrowLeft.mouseover" end="arrowLeft.mouseout"/>
                  </use>
                  <path fill="none" stroke="white" stroke-width="1.5" d="M0,-3.0v7 M-2.5,-0.5L0,-3.0L2.5,-0.5"/>
                </g>
        </g>
        <svg viewBox="0 0 15 15" width="100%" height="30px" preserveAspectRatio="xMaxYMin meet">
         <g id="arrow_out" transform="scale(0.3 0.3)">
          <a xlink:href="classInGamePopups_1_1AchievementUnlockedPopup__coll__graph_org.svg" target="_base">
           <rect id="button" ry="5" rx="5" y="6" x="6" height="38" width="38"
                fill="#f2f5e9" fill-opacity="0.5" stroke="#606060" stroke-width="1.0"/>
           <path id="arrow"
             d="M 11.500037,31.436501 C 11.940474,20.09759 22.043105,11.32322 32.158766,21.979434 L 37.068811,17.246167 C 37.068811,17.246167 37.088388,32 37.088388,32 L 22.160133,31.978069 C 22.160133,31.978069 26.997745,27.140456 26.997745,27.140456 C 18.528582,18.264221 13.291696,25.230495 11.500037,31.436501 z"
             style="fill:#404040;"/>
          </a>
         </g>
        </svg>
</svg>
