<?xml version="1.0" encoding="UTF-8" standalone="no"?>
<!DOCTYPE svg PUBLIC "-//W3C//DTD SVG 1.1//EN"
 "http://www.w3.org/Graphics/SVG/1.1/DTD/svg11.dtd">
<!-- Generated by graphviz version 2.43.0 (0)
 -->
<!-- Title: IntRgbGameValueTracker Pages: 1 -->
<svg width="202pt" height="724pt"
 viewBox="0.00 0.00 202.00 724.00" xmlns="http://www.w3.org/2000/svg" xmlns:xlink="http://www.w3.org/1999/xlink">
<g id="graph0" class="graph" transform="scale(1 1) rotate(0) translate(4 720)">
<title>IntRgbGameValueTracker</title>
<polygon fill="white" stroke="transparent" points="-4,4 -4,-720 198,-720 198,4 -4,4"/>
<!-- Node1 -->
<g id="node1" class="node">
<title>Node1</title>
<g id="a_node1"><a xlink:title=" ">
<polygon fill="#bfbfbf" stroke="black" points="13.5,-0.5 13.5,-68.5 162.5,-68.5 162.5,-0.5 13.5,-0.5"/>
<text text-anchor="middle" x="88" y="-56.5" font-family="Helvetica,sans-Serif" font-size="10.00">IntRgbGameValueTracker</text>
<polyline fill="none" stroke="black" points="13.5,-49.5 162.5,-49.5 "/>
<text text-anchor="middle" x="88" y="-37.5" font-family="Helvetica,sans-Serif" font-size="10.00"> </text>
<polyline fill="none" stroke="black" points="13.5,-30.5 162.5,-30.5 "/>
<text text-anchor="start" x="21.5" y="-18.5" font-family="Helvetica,sans-Serif" font-size="10.00"># override void WriteValue</text>
<text text-anchor="start" x="21.5" y="-7.5" font-family="Helvetica,sans-Serif" font-size="10.00">ToData(JObject data)</text>
</a>
</g>
</g>
<!-- Node2 -->
<g id="node2" class="node">
<title>Node2</title>
<g id="a_node2"><a xlink:href="../../d7/d57/classARgbGameValueTracker.html" target="_top" xlink:title=" ">
<polygon fill="white" stroke="black" points="0,-106.5 0,-284.5 176,-284.5 176,-106.5 0,-106.5"/>
<text text-anchor="start" x="8" y="-272.5" font-family="Helvetica,sans-Serif" font-size="10.00">ARgbGameValueTracker</text>
<text text-anchor="middle" x="88" y="-261.5" font-family="Helvetica,sans-Serif" font-size="10.00">&lt; int &gt;</text>
<polyline fill="none" stroke="black" points="0,-254.5 176,-254.5 "/>
<text text-anchor="start" x="8" y="-242.5" font-family="Helvetica,sans-Serif" font-size="10.00">+ string EventName</text>
<text text-anchor="start" x="8" y="-231.5" font-family="Helvetica,sans-Serif" font-size="10.00">+ bool IsVisible</text>
<text text-anchor="start" x="8" y="-220.5" font-family="Helvetica,sans-Serif" font-size="10.00"># bool _needsToSendMessage</text>
<text text-anchor="start" x="8" y="-209.5" font-family="Helvetica,sans-Serif" font-size="10.00"># TValueType _currentValue</text>
<text text-anchor="start" x="8" y="-198.5" font-family="Helvetica,sans-Serif" font-size="10.00">&#45; int _timesDeniedRepeat</text>
<text text-anchor="start" x="8" y="-187.5" font-family="Helvetica,sans-Serif" font-size="10.00">&#45; const int TimesToDenyIdentical</text>
<text text-anchor="start" x="8" y="-176.5" font-family="Helvetica,sans-Serif" font-size="10.00">Values</text>
<polyline fill="none" stroke="black" points="0,-169.5 176,-169.5 "/>
<text text-anchor="start" x="8" y="-157.5" font-family="Helvetica,sans-Serif" font-size="10.00">+ JObject TryGettingRequest()</text>
<text text-anchor="start" x="8" y="-146.5" font-family="Helvetica,sans-Serif" font-size="10.00">+ void Update(TValueType</text>
<text text-anchor="start" x="8" y="-135.5" font-family="Helvetica,sans-Serif" font-size="10.00"> value, bool isVisible)</text>
<text text-anchor="start" x="8" y="-124.5" font-family="Helvetica,sans-Serif" font-size="10.00"># abstract void WriteValue</text>
<text text-anchor="start" x="8" y="-113.5" font-family="Helvetica,sans-Serif" font-size="10.00">ToData(JObject data)</text>
</a>
</g>
</g>
<!-- Node2&#45;&gt;Node1 -->
<g id="edge1" class="edge">
<title>Node2&#45;&gt;Node1</title>
<path fill="none" stroke="midnightblue" d="M88,-95.98C88,-86.31 88,-77.04 88,-68.79"/>
<polygon fill="none" stroke="midnightblue" points="84.5,-96.17 88,-106.17 91.5,-96.17 84.5,-96.17"/>
</g>
<!-- Node3 -->
<g id="node3" class="node">
<title>Node3</title>
<g id="a_node3"><a xlink:href="../../d7/d57/classARgbGameValueTracker.html" target="_top" xlink:title=" ">
<polygon fill="white" stroke="black" points="0,-332.5 0,-510.5 176,-510.5 176,-332.5 0,-332.5"/>
<text text-anchor="start" x="8" y="-498.5" font-family="Helvetica,sans-Serif" font-size="10.00">ARgbGameValueTracker</text>
<text text-anchor="middle" x="88" y="-487.5" font-family="Helvetica,sans-Serif" font-size="10.00">&lt; TValueType &gt;</text>
<polyline fill="none" stroke="black" points="0,-480.5 176,-480.5 "/>
<text text-anchor="start" x="8" y="-468.5" font-family="Helvetica,sans-Serif" font-size="10.00">+ string EventName</text>
<text text-anchor="start" x="8" y="-457.5" font-family="Helvetica,sans-Serif" font-size="10.00">+ bool IsVisible</text>
<text text-anchor="start" x="8" y="-446.5" font-family="Helvetica,sans-Serif" font-size="10.00"># bool _needsToSendMessage</text>
<text text-anchor="start" x="8" y="-435.5" font-family="Helvetica,sans-Serif" font-size="10.00"># TValueType _currentValue</text>
<text text-anchor="start" x="8" y="-424.5" font-family="Helvetica,sans-Serif" font-size="10.00">&#45; int _timesDeniedRepeat</text>
<text text-anchor="start" x="8" y="-413.5" font-family="Helvetica,sans-Serif" font-size="10.00">&#45; const int TimesToDenyIdentical</text>
<text text-anchor="start" x="8" y="-402.5" font-family="Helvetica,sans-Serif" font-size="10.00">Values</text>
<polyline fill="none" stroke="black" points="0,-395.5 176,-395.5 "/>
<text text-anchor="start" x="8" y="-383.5" font-family="Helvetica,sans-Serif" font-size="10.00">+ JObject TryGettingRequest()</text>
<text text-anchor="start" x="8" y="-372.5" font-family="Helvetica,sans-Serif" font-size="10.00">+ void Update(TValueType</text>
<text text-anchor="start" x="8" y="-361.5" font-family="Helvetica,sans-Serif" font-size="10.00"> value, bool isVisible)</text>
<text text-anchor="start" x="8" y="-350.5" font-family="Helvetica,sans-Serif" font-size="10.00"># abstract void WriteValue</text>
<text text-anchor="start" x="8" y="-339.5" font-family="Helvetica,sans-Serif" font-size="10.00">ToData(JObject data)</text>
</a>
</g>
</g>
<!-- Node3&#45;&gt;Node2 -->
<g id="edge2" class="edge">
<title>Node3&#45;&gt;Node2</title>
<path fill="none" stroke="orange" d="M88,-321.93C88,-309.51 88,-296.87 88,-284.63"/>
<polygon fill="orange" stroke="orange" points="84.5,-322.29 88,-332.29 91.5,-322.29 84.5,-322.29"/>
<text text-anchor="middle" x="107.5" y="-306" font-family="Helvetica,sans-Serif" font-size="10.00"> &lt; int &gt;</text>
</g>
<!-- Node4 -->
<g id="node4" class="node">
<title>Node4</title>
<g id="a_node4"><a xlink:href="../../d7/d57/classARgbGameValueTracker.html" target="_top" xlink:title=" ">
<polygon fill="white" stroke="black" points="0,-548.5 0,-715.5 176,-715.5 176,-548.5 0,-548.5"/>
<text text-anchor="middle" x="88" y="-703.5" font-family="Helvetica,sans-Serif" font-size="10.00">ARgbGameValueTracker</text>
<polyline fill="none" stroke="black" points="0,-696.5 176,-696.5 "/>
<text text-anchor="start" x="8" y="-684.5" font-family="Helvetica,sans-Serif" font-size="10.00">+ string EventName</text>
<text text-anchor="start" x="8" y="-673.5" font-family="Helvetica,sans-Serif" font-size="10.00">+ bool IsVisible</text>
<text text-anchor="start" x="8" y="-662.5" font-family="Helvetica,sans-Serif" font-size="10.00"># bool _needsToSendMessage</text>
<text text-anchor="start" x="8" y="-651.5" font-family="Helvetica,sans-Serif" font-size="10.00"># TValueType _currentValue</text>
<text text-anchor="start" x="8" y="-640.5" font-family="Helvetica,sans-Serif" font-size="10.00">&#45; int _timesDeniedRepeat</text>
<text text-anchor="start" x="8" y="-629.5" font-family="Helvetica,sans-Serif" font-size="10.00">&#45; const int TimesToDenyIdentical</text>
<text text-anchor="start" x="8" y="-618.5" font-family="Helvetica,sans-Serif" font-size="10.00">Values</text>
<polyline fill="none" stroke="black" points="0,-611.5 176,-611.5 "/>
<text text-anchor="start" x="8" y="-599.5" font-family="Helvetica,sans-Serif" font-size="10.00">+ JObject TryGettingRequest()</text>
<text text-anchor="start" x="8" y="-588.5" font-family="Helvetica,sans-Serif" font-size="10.00">+ void Update(TValueType</text>
<text text-anchor="start" x="8" y="-577.5" font-family="Helvetica,sans-Serif" font-size="10.00"> value, bool isVisible)</text>
<text text-anchor="start" x="8" y="-566.5" font-family="Helvetica,sans-Serif" font-size="10.00"># abstract void WriteValue</text>
<text text-anchor="start" x="8" y="-555.5" font-family="Helvetica,sans-Serif" font-size="10.00">ToData(JObject data)</text>
</a>
</g>
</g>
<!-- Node4&#45;&gt;Node3 -->
<g id="edge3" class="edge">
<title>Node4&#45;&gt;Node3</title>
<path fill="none" stroke="midnightblue" d="M88,-538.05C88,-528.92 88,-519.67 88,-510.59"/>
<polygon fill="none" stroke="midnightblue" points="84.5,-538.3 88,-548.3 91.5,-538.3 84.5,-538.3"/>
</g>
<!-- Node4&#45;&gt;Node4 -->
<g id="edge4" class="edge">
<title>Node4&#45;&gt;Node4</title>
<path fill="none" stroke="midnightblue" d="M185.44,-644.81C190.81,-641.69 194,-637.42 194,-632 194,-623.93 186.93,-618.42 176.13,-615.45"/>
<polygon fill="none" stroke="midnightblue" points="184.11,-641.57 176.13,-648.55 186.72,-648.06 184.11,-641.57"/>
</g>
</g>
</svg>
