<?xml version="1.0" encoding="UTF-8" standalone="no"?>
<!DOCTYPE svg PUBLIC "-//W3C//DTD SVG 1.1//EN"
 "http://www.w3.org/Graphics/SVG/1.1/DTD/svg11.dtd">
<!-- Generated by graphviz version 2.43.0 (0)
 -->
<!-- Title: Terraria.Graphics.Capture.CaptureInterface.ToggleCamera Pages: 1 -->
<svg width="747pt" height="59pt"
 viewBox="0.00 0.00 747.00 59.00" xmlns="http://www.w3.org/2000/svg" xmlns:xlink="http://www.w3.org/1999/xlink">
<g id="graph0" class="graph" transform="scale(1 1) rotate(0) translate(4 55)">
<title>Terraria.Graphics.Capture.CaptureInterface.ToggleCamera</title>
<!-- Node1 -->
<g id="Node000001" class="node">
<title>Node1</title>
<g id="a_Node000001"><a xlink:title=" ">
<polygon fill="#999999" stroke="#666666" points="739,-51 568,-51 568,-21 739,-21 739,-51"/>
<text text-anchor="start" x="576" y="-39" font-family="Helvetica,sans-Serif" font-size="10.00">Terraria.Graphics.Capture.</text>
<text text-anchor="middle" x="653.5" y="-28" font-family="Helvetica,sans-Serif" font-size="10.00">CaptureInterface.ToggleCamera</text>
</a>
</g>
</g>
<!-- Node2 -->
<g id="Node000002" class="node">
<title>Node2</title>
<g id="a_Node000002"><a xlink:href="../../d8/dab/classTerraria_1_1Graphics_1_1Capture_1_1CaptureInterface_a209d89007e93af35eda53825073f5ac8.html#a209d89007e93af35eda53825073f5ac8" target="_top" xlink:title=" ">
<polygon fill="white" stroke="#666666" points="322,-51 179,-51 179,-21 322,-21 322,-51"/>
<text text-anchor="start" x="187" y="-39" font-family="Helvetica,sans-Serif" font-size="10.00">Terraria.Graphics.Capture.</text>
<text text-anchor="middle" x="250.5" y="-28" font-family="Helvetica,sans-Serif" font-size="10.00">CaptureInterface.Update</text>
</a>
</g>
</g>
<!-- Node1&#45;&gt;Node2 -->
<g id="edge1_Node000001_Node000002" class="edge">
<title>Node1&#45;&gt;Node2</title>
<g id="a_edge1_Node000001_Node000002"><a xlink:title=" ">
<path fill="none" stroke="#63b8ff" d="M557.71,-38.58C549.02,-38.75 540.35,-38.9 532,-39 454.67,-39.96 435.33,-40.09 358,-39 346.44,-38.84 334.18,-38.58 322.24,-38.27"/>
<polygon fill="#63b8ff" stroke="#63b8ff" points="557.98,-42.08 567.91,-38.37 557.84,-35.08 557.98,-42.08"/>
</a>
</g>
</g>
<!-- Node4 -->
<g id="Node000004" class="node">
<title>Node4</title>
<g id="a_Node000004"><a xlink:href="../../d8/dab/classTerraria_1_1Graphics_1_1Capture_1_1CaptureInterface_a36c7e152c0cb7142dd5005d9f194a086.html#a36c7e152c0cb7142dd5005d9f194a086" target="_top" xlink:title=" ">
<polygon fill="white" stroke="#666666" points="532,-30 358,-30 358,0 532,0 532,-30"/>
<text text-anchor="start" x="366" y="-18" font-family="Helvetica,sans-Serif" font-size="10.00">Terraria.Graphics.Capture.</text>
<text text-anchor="middle" x="445" y="-7" font-family="Helvetica,sans-Serif" font-size="10.00">CaptureInterface.UpdateButtons</text>
</a>
</g>
</g>
<!-- Node1&#45;&gt;Node4 -->
<g id="edge3_Node000001_Node000004" class="edge">
<title>Node1&#45;&gt;Node4</title>
<g id="a_edge3_Node000001_Node000004"><a xlink:title=" ">
<path fill="none" stroke="#63b8ff" d="M557.89,-26.38C549.3,-25.51 540.63,-24.62 532.13,-23.76"/>
<polygon fill="#63b8ff" stroke="#63b8ff" points="557.61,-29.87 567.91,-27.4 558.32,-22.9 557.61,-29.87"/>
</a>
</g>
</g>
<!-- Node3 -->
<g id="Node000003" class="node">
<title>Node3</title>
<g id="a_Node000003"><a xlink:href="../../d4/d78/classTerraria_1_1Graphics_1_1Capture_1_1CaptureManager_ac4afee343be77909c7469ecef7092284.html#ac4afee343be77909c7469ecef7092284" target="_top" xlink:title=" ">
<polygon fill="white" stroke="#666666" points="143,-51 0,-51 0,-21 143,-21 143,-51"/>
<text text-anchor="start" x="8" y="-39" font-family="Helvetica,sans-Serif" font-size="10.00">Terraria.Graphics.Capture.</text>
<text text-anchor="middle" x="71.5" y="-28" font-family="Helvetica,sans-Serif" font-size="10.00">CaptureManager.Update</text>
</a>
</g>
</g>
<!-- Node2&#45;&gt;Node3 -->
<g id="edge2_Node000002_Node000003" class="edge">
<title>Node2&#45;&gt;Node3</title>
<g id="a_edge2_Node000002_Node000003"><a xlink:title=" ">
<path fill="none" stroke="#63b8ff" d="M168.51,-36C160.03,-36 151.46,-36 143.11,-36"/>
<polygon fill="#63b8ff" stroke="#63b8ff" points="168.78,-39.5 178.78,-36 168.78,-32.5 168.78,-39.5"/>
</a>
</g>
</g>
<!-- Node4&#45;&gt;Node2 -->
<g id="edge4_Node000004_Node000002" class="edge">
<title>Node4&#45;&gt;Node2</title>
<g id="a_edge4_Node000004_Node000002"><a xlink:title=" ">
<path fill="none" stroke="#63b8ff" d="M347.8,-25.49C339.2,-26.43 330.59,-27.37 322.26,-28.28"/>
<polygon fill="#63b8ff" stroke="#63b8ff" points="348.32,-28.96 357.88,-24.39 347.56,-22 348.32,-28.96"/>
</a>
</g>
</g>
</g>
</svg>
