<?xml version="1.0" encoding="UTF-8" standalone="no"?>
<!DOCTYPE svg PUBLIC "-//W3C//DTD SVG 1.1//EN"
 "http://www.w3.org/Graphics/SVG/1.1/DTD/svg11.dtd">
<!-- Generated by graphviz version 2.43.0 (0)
 -->
<!-- Title: GameSenseConnection.BeginConnection Pages: 1 -->
<svg width="597pt" height="39pt"
 viewBox="0.00 0.00 597.00 39.00" xmlns="http://www.w3.org/2000/svg" xmlns:xlink="http://www.w3.org/1999/xlink">
<g id="graph0" class="graph" transform="scale(1 1) rotate(0) translate(4 35)">
<title>GameSenseConnection.BeginConnection</title>
<polygon fill="white" stroke="transparent" points="-4,4 -4,-35 593,-35 593,4 -4,4"/>
<!-- Node1 -->
<g id="node1" class="node">
<title>Node1</title>
<g id="a_node1"><a xlink:title=" ">
<polygon fill="#bfbfbf" stroke="black" points="428,-0.5 428,-30.5 589,-30.5 589,-0.5 428,-0.5"/>
<text text-anchor="start" x="436" y="-18.5" font-family="Helvetica,sans-Serif" font-size="10.00">GameSenseConnection.Begin</text>
<text text-anchor="middle" x="508.5" y="-7.5" font-family="Helvetica,sans-Serif" font-size="10.00">Connection</text>
</a>
</g>
</g>
<!-- Node2 -->
<g id="node2" class="node">
<title>Node2</title>
<g id="a_node2"><a xlink:href="../../d6/d61/classSteelSeriesDeviceGroup_a91a2c66379a3ffb11e6c2f93a455e063.html#a91a2c66379a3ffb11e6c2f93a455e063" target="_top" xlink:title=" ">
<polygon fill="white" stroke="black" points="215,-0.5 215,-30.5 392,-30.5 392,-0.5 215,-0.5"/>
<text text-anchor="start" x="223" y="-18.5" font-family="Helvetica,sans-Serif" font-size="10.00">SteelSeriesDeviceGroup.Connect</text>
<text text-anchor="middle" x="303.5" y="-7.5" font-family="Helvetica,sans-Serif" font-size="10.00">ToGameSense</text>
</a>
</g>
</g>
<!-- Node1&#45;&gt;Node2 -->
<g id="edge1" class="edge">
<title>Node1&#45;&gt;Node2</title>
<path fill="none" stroke="midnightblue" d="M417.65,-15.5C409.23,-15.5 400.71,-15.5 392.31,-15.5"/>
<polygon fill="midnightblue" stroke="midnightblue" points="417.85,-19 427.85,-15.5 417.85,-12 417.85,-19"/>
</g>
<!-- Node3 -->
<g id="node3" class="node">
<title>Node3</title>
<g id="a_node3"><a xlink:href="../../d6/d61/classSteelSeriesDeviceGroup_a06d94d50afeb31572dce24dffc5f6686.html#a06d94d50afeb31572dce24dffc5f6686" target="_top" xlink:title=" ">
<polygon fill="white" stroke="black" points="0,-6 0,-25 179,-25 179,-6 0,-6"/>
<text text-anchor="middle" x="89.5" y="-13" font-family="Helvetica,sans-Serif" font-size="10.00">SteelSeriesDeviceGroup.Initialize</text>
</a>
</g>
</g>
<!-- Node2&#45;&gt;Node3 -->
<g id="edge2" class="edge">
<title>Node2&#45;&gt;Node3</title>
<path fill="none" stroke="midnightblue" d="M204.5,-15.5C196.07,-15.5 187.57,-15.5 179.22,-15.5"/>
<polygon fill="midnightblue" stroke="midnightblue" points="204.74,-19 214.74,-15.5 204.74,-12 204.74,-19"/>
</g>
</g>
</svg>
