<?xml version="1.0" encoding="UTF-8" standalone="no"?>
<!DOCTYPE svg PUBLIC "-//W3C//DTD SVG 1.1//EN"
 "http://www.w3.org/Graphics/SVG/1.1/DTD/svg11.dtd">
<!-- Generated by graphviz version 2.43.0 (0)
 -->
<!-- Title: MoonLordSky.GetIntensity Pages: 1 -->
<svg width="354pt" height="78pt"
 viewBox="0.00 0.00 354.00 77.50" xmlns="http://www.w3.org/2000/svg" xmlns:xlink="http://www.w3.org/1999/xlink">
<g id="graph0" class="graph" transform="scale(1 1) rotate(0) translate(4 73.5)">
<title>MoonLordSky.GetIntensity</title>
<polygon fill="white" stroke="transparent" points="-4,4 -4,-73.5 350,-73.5 350,4 -4,4"/>
<!-- Node1 -->
<g id="node1" class="node">
<title>Node1</title>
<g id="a_node1"><a xlink:title=" ">
<polygon fill="#bfbfbf" stroke="black" points="0,-28 0,-47 143,-47 143,-28 0,-28"/>
<text text-anchor="middle" x="71.5" y="-35" font-family="Helvetica,sans-Serif" font-size="10.00">MoonLordSky.GetIntensity</text>
</a>
</g>
</g>
<!-- Node2 -->
<g id="node2" class="node">
<title>Node2</title>
<g id="a_node2"><a xlink:href="../../dc/dc5/classUtils_a35265f118530f06a555d022d6c837225.html#a35265f118530f06a555d022d6c837225" target="_top" xlink:title=" ">
<polygon fill="white" stroke="black" points="212,-50 212,-69 313,-69 313,-50 212,-50"/>
<text text-anchor="middle" x="262.5" y="-57" font-family="Helvetica,sans-Serif" font-size="10.00">Utils.SmoothStep</text>
</a>
</g>
</g>
<!-- Node1&#45;&gt;Node2 -->
<g id="edge1" class="edge">
<title>Node1&#45;&gt;Node2</title>
<path fill="none" stroke="midnightblue" d="M143.15,-45.72C162.43,-47.97 183.14,-50.38 201.75,-52.54"/>
<polygon fill="midnightblue" stroke="midnightblue" points="201.52,-56.04 211.85,-53.72 202.32,-49.09 201.52,-56.04"/>
</g>
<!-- Node3 -->
<g id="node3" class="node">
<title>Node3</title>
<g id="a_node3"><a xlink:href="../../d2/d3b/classMoonLordSky_a8a45b5b359ca0c82a0dfd7da8e2672e9.html#a8a45b5b359ca0c82a0dfd7da8e2672e9" target="_top" xlink:title=" ">
<polygon fill="white" stroke="black" points="179,-0.5 179,-30.5 346,-30.5 346,-0.5 179,-0.5"/>
<text text-anchor="start" x="187" y="-18.5" font-family="Helvetica,sans-Serif" font-size="10.00">MoonLordSky.UpdateMoonLord</text>
<text text-anchor="middle" x="262.5" y="-7.5" font-family="Helvetica,sans-Serif" font-size="10.00">Index</text>
</a>
</g>
</g>
<!-- Node1&#45;&gt;Node3 -->
<g id="edge2" class="edge">
<title>Node1&#45;&gt;Node3</title>
<path fill="none" stroke="midnightblue" d="M143.15,-29.28C151.51,-28.3 160.14,-27.3 168.75,-26.3"/>
<polygon fill="midnightblue" stroke="midnightblue" points="169.31,-29.75 178.84,-25.12 168.5,-22.8 169.31,-29.75"/>
</g>
</g>
</svg>
