<?xml version="1.0" encoding="UTF-8" standalone="no"?>
<!DOCTYPE svg PUBLIC "-//W3C//DTD SVG 1.1//EN"
 "http://www.w3.org/Graphics/SVG/1.1/DTD/svg11.dtd">
<!-- Generated by graphviz version 2.43.0 (0)
 -->
<!-- Title: Terraria.DataStructures.SettingsForCharacterPreview Pages: 1 -->
<svg width="490pt" height="677pt"
 viewBox="0.00 0.00 490.00 677.00" xmlns="http://www.w3.org/2000/svg" xmlns:xlink="http://www.w3.org/1999/xlink">
<g id="graph0" class="graph" transform="scale(1 1) rotate(0) translate(4 673)">
<title>Terraria.DataStructures.SettingsForCharacterPreview</title>
<!-- Node1 -->
<g id="Node000001" class="node">
<title>Node1</title>
<g id="a_Node000001"><a xlink:title=" ">
<polygon fill="#999999" stroke="transparent" points="240,-411 33,-411 33,0 240,0 240,-411"/>
<text text-anchor="start" x="66" y="-398.5" font-family="Helvetica,sans-Serif" font-size="10.00">Terraria.DataStructures.</text>
<text text-anchor="start" x="66" y="-387.5" font-family="Helvetica,sans-Serif" font-size="10.00">SettingsForCharacterPreview</text>
<text text-anchor="start" x="135" y="-372.5" font-family="Helvetica,sans-Serif" font-size="10.00"> </text>
<text text-anchor="start" x="37.5" y="-357.5" font-family="Helvetica,sans-Serif" font-size="10.00">+</text>
<text text-anchor="start" x="50.5" y="-357.5" font-family="Helvetica,sans-Serif" font-size="10.00">delegate void CustomAnimation</text>
<text text-anchor="start" x="50.5" y="-346.5" font-family="Helvetica,sans-Serif" font-size="10.00">Code(Projectile proj, bool</text>
<text text-anchor="start" x="50.5" y="-335.5" font-family="Helvetica,sans-Serif" font-size="10.00"> walking)</text>
<text text-anchor="start" x="37.5" y="-320.5" font-family="Helvetica,sans-Serif" font-size="10.00">+</text>
<text text-anchor="start" x="50.5" y="-320.5" font-family="Helvetica,sans-Serif" font-size="10.00">void ApplyTo(Projectile</text>
<text text-anchor="start" x="50.5" y="-309.5" font-family="Helvetica,sans-Serif" font-size="10.00"> proj, bool walking)</text>
<text text-anchor="start" x="37.5" y="-294.5" font-family="Helvetica,sans-Serif" font-size="10.00">+</text>
<text text-anchor="start" x="50.5" y="-294.5" font-family="Helvetica,sans-Serif" font-size="10.00">SettingsForCharacterPreview</text>
<text text-anchor="start" x="50.5" y="-283.5" font-family="Helvetica,sans-Serif" font-size="10.00"> WhenSelected(int? startFrame</text>
<text text-anchor="start" x="50.5" y="-272.5" font-family="Helvetica,sans-Serif" font-size="10.00">=null, int? frameCount=null,</text>
<text text-anchor="start" x="50.5" y="-261.5" font-family="Helvetica,sans-Serif" font-size="10.00"> int? delayPerFrame=null, bool</text>
<text text-anchor="start" x="50.5" y="-250.5" font-family="Helvetica,sans-Serif" font-size="10.00">? bounceLoop=null)</text>
<text text-anchor="start" x="37.5" y="-235.5" font-family="Helvetica,sans-Serif" font-size="10.00">+</text>
<text text-anchor="start" x="50.5" y="-235.5" font-family="Helvetica,sans-Serif" font-size="10.00">SettingsForCharacterPreview</text>
<text text-anchor="start" x="50.5" y="-224.5" font-family="Helvetica,sans-Serif" font-size="10.00"> WhenNotSelected(int? startFrame</text>
<text text-anchor="start" x="50.5" y="-213.5" font-family="Helvetica,sans-Serif" font-size="10.00">=null, int? frameCount=null,</text>
<text text-anchor="start" x="50.5" y="-202.5" font-family="Helvetica,sans-Serif" font-size="10.00"> int? delayPerFrame=null, bool</text>
<text text-anchor="start" x="50.5" y="-191.5" font-family="Helvetica,sans-Serif" font-size="10.00">? bounceLoop=null)</text>
<text text-anchor="start" x="37.5" y="-176.5" font-family="Helvetica,sans-Serif" font-size="10.00">+</text>
<text text-anchor="start" x="50.5" y="-176.5" font-family="Helvetica,sans-Serif" font-size="10.00">SettingsForCharacterPreview</text>
<text text-anchor="start" x="50.5" y="-165.5" font-family="Helvetica,sans-Serif" font-size="10.00"> WithOffset(Vector2 offset)</text>
<text text-anchor="start" x="37.5" y="-150.5" font-family="Helvetica,sans-Serif" font-size="10.00">+</text>
<text text-anchor="start" x="50.5" y="-150.5" font-family="Helvetica,sans-Serif" font-size="10.00">SettingsForCharacterPreview</text>
<text text-anchor="start" x="50.5" y="-139.5" font-family="Helvetica,sans-Serif" font-size="10.00"> WithOffset(float x, float y)</text>
<text text-anchor="start" x="37.5" y="-124.5" font-family="Helvetica,sans-Serif" font-size="10.00">+</text>
<text text-anchor="start" x="50.5" y="-124.5" font-family="Helvetica,sans-Serif" font-size="10.00">SettingsForCharacterPreview</text>
<text text-anchor="start" x="50.5" y="-113.5" font-family="Helvetica,sans-Serif" font-size="10.00"> WithSpriteDirection(int</text>
<text text-anchor="start" x="50.5" y="-102.5" font-family="Helvetica,sans-Serif" font-size="10.00"> spriteDirection)</text>
<text text-anchor="start" x="37.5" y="-87.5" font-family="Helvetica,sans-Serif" font-size="10.00">+</text>
<text text-anchor="start" x="50.5" y="-87.5" font-family="Helvetica,sans-Serif" font-size="10.00">SettingsForCharacterPreview</text>
<text text-anchor="start" x="50.5" y="-76.5" font-family="Helvetica,sans-Serif" font-size="10.00"> WithCode(CustomAnimationCode</text>
<text text-anchor="start" x="50.5" y="-65.5" font-family="Helvetica,sans-Serif" font-size="10.00"> customAnimation)</text>
<text text-anchor="start" x="40" y="-50.5" font-family="Helvetica,sans-Serif" font-size="10.00">&#45;</text>
<text text-anchor="start" x="50.5" y="-50.5" font-family="Helvetica,sans-Serif" font-size="10.00">static void Modify</text>
<text text-anchor="start" x="50.5" y="-39.5" font-family="Helvetica,sans-Serif" font-size="10.00">(ref SelectionBasedSettings</text>
<text text-anchor="start" x="50.5" y="-28.5" font-family="Helvetica,sans-Serif" font-size="10.00"> target, int? startFrame,</text>
<text text-anchor="start" x="50.5" y="-17.5" font-family="Helvetica,sans-Serif" font-size="10.00"> int? frameCount, int? delayPerFrame,</text>
<text text-anchor="start" x="50.5" y="-6.5" font-family="Helvetica,sans-Serif" font-size="10.00"> bool? bounceLoop)</text>
<polygon fill="#666666" stroke="#666666" points="33.5,-382.5 33.5,-382.5 240.5,-382.5 240.5,-382.5 33.5,-382.5"/>
<polygon fill="#666666" stroke="#666666" points="33.5,-367.5 33.5,-367.5 240.5,-367.5 240.5,-367.5 33.5,-367.5"/>
<polygon fill="none" stroke="#666666" points="33,0 33,-411 240,-411 240,0 33,0"/>
</a>
</g>
</g>
<!-- Node2 -->
<g id="Node000002" class="node">
<title>Node2</title>
<g id="a_Node000002"><a xlink:title=" ">
<polygon fill="white" stroke="transparent" points="47,-534.5 0,-534.5 0,-485.5 47,-485.5 47,-534.5"/>
<text text-anchor="start" x="5.5" y="-522" font-family="Helvetica,sans-Serif" font-size="10.00">Vector2</text>
<text text-anchor="start" x="22" y="-507" font-family="Helvetica,sans-Serif" font-size="10.00"> </text>
<text text-anchor="start" x="22" y="-492" font-family="Helvetica,sans-Serif" font-size="10.00"> </text>
<polygon fill="#666666" stroke="#666666" points="0.5,-517 0.5,-517 47.5,-517 47.5,-517 0.5,-517"/>
<polygon fill="#666666" stroke="#666666" points="0.5,-502 0.5,-502 47.5,-502 47.5,-502 0.5,-502"/>
<polygon fill="none" stroke="#666666" points="0,-485.5 0,-534.5 47,-534.5 47,-485.5 0,-485.5"/>
</a>
</g>
</g>
<!-- Node2&#45;&gt;Node1 -->
<g id="edge1_Node000001_Node000002" class="edge">
<title>Node2&#45;&gt;Node1</title>
<g id="a_edge1_Node000001_Node000002"><a xlink:title=" ">
<path fill="none" stroke="#63b8ff" d="M22.59,-485.16C22.56,-469.05 23.65,-447.44 28.5,-429 29.03,-426.97 29.59,-424.93 30.16,-422.89"/>
<polygon fill="none" stroke="#63b8ff" points="30.22,-422.68 28.09,-415.79 33.63,-411.18 35.76,-418.07 30.22,-422.68"/>
</a>
</g>
<text text-anchor="middle" x="49" y="-437.5" font-family="Helvetica,sans-Serif" font-size="10.00" fill="grey"> +Offset</text>
</g>
<!-- Node3 -->
<g id="Node000003" class="node">
<title>Node3</title>
<g id="a_Node000003"><a xlink:href="../../de/d11/structTerraria_1_1DataStructures_1_1SettingsForCharacterPreview_1_1SelectionBasedSettings.html" target="_top" xlink:title=" ">
<polygon fill="white" stroke="transparent" points="340.5,-551 186.5,-551 186.5,-469 340.5,-469 340.5,-551"/>
<text text-anchor="start" x="191.5" y="-539" font-family="Helvetica,sans-Serif" font-size="10.00">Terraria.DataStructures.</text>
<text text-anchor="start" x="191.5" y="-528" font-family="Helvetica,sans-Serif" font-size="10.00">SettingsForCharacterPreview.</text>
<text text-anchor="start" x="206" y="-517" font-family="Helvetica,sans-Serif" font-size="10.00">SelectionBasedSettings</text>
<text text-anchor="start" x="261.5" y="-502" font-family="Helvetica,sans-Serif" font-size="10.00"> </text>
<text text-anchor="start" x="195.5" y="-487" font-family="Helvetica,sans-Serif" font-size="10.00">+</text>
<text text-anchor="start" x="213.5" y="-487" font-family="Helvetica,sans-Serif" font-size="10.00">void ApplyTo(Projectile</text>
<text text-anchor="start" x="213.5" y="-476" font-family="Helvetica,sans-Serif" font-size="10.00"> proj)</text>
<polygon fill="#666666" stroke="#666666" points="186.5,-512 186.5,-512 340.5,-512 340.5,-512 186.5,-512"/>
<polygon fill="#666666" stroke="#666666" points="186.5,-497 186.5,-497 340.5,-497 340.5,-497 186.5,-497"/>
<polygon fill="none" stroke="#666666" points="186.5,-469 186.5,-551 340.5,-551 340.5,-469 186.5,-469"/>
</a>
</g>
</g>
<!-- Node3&#45;&gt;Node1 -->
<g id="edge2_Node000001_Node000003" class="edge">
<title>Node3&#45;&gt;Node1</title>
<g id="a_edge2_Node000001_Node000003"><a xlink:title=" ">
<path fill="none" stroke="#63b8ff" d="M246.64,-468.83C241.07,-455.58 234.45,-439.8 227.24,-422.64"/>
<polygon fill="none" stroke="#63b8ff" points="227.08,-422.24 221.06,-418.26 222.43,-411.18 228.44,-415.16 227.08,-422.24"/>
</a>
</g>
<text text-anchor="middle" x="272" y="-443" font-family="Helvetica,sans-Serif" font-size="10.00" fill="grey"> +NotSelected</text>
<text text-anchor="middle" x="272" y="-432" font-family="Helvetica,sans-Serif" font-size="10.00" fill="grey">+Selected</text>
</g>
<!-- Node4 -->
<g id="Node000004" class="node">
<title>Node4</title>
<g id="a_Node000004"><a xlink:href="../../d1/da0/classint.html" target="_top" xlink:title=" ">
<polygon fill="white" stroke="transparent" points="113,-669 90,-669 90,-620 113,-620 113,-669"/>
<text text-anchor="start" x="95.5" y="-656.5" font-family="Helvetica,sans-Serif" font-size="10.00">int</text>
<text text-anchor="start" x="100" y="-641.5" font-family="Helvetica,sans-Serif" font-size="10.00"> </text>
<text text-anchor="start" x="100" y="-626.5" font-family="Helvetica,sans-Serif" font-size="10.00"> </text>
<polygon fill="#666666" stroke="#666666" points="90.5,-651.5 90.5,-651.5 113.5,-651.5 113.5,-651.5 90.5,-651.5"/>
<polygon fill="#666666" stroke="#666666" points="90.5,-636.5 90.5,-636.5 113.5,-636.5 113.5,-636.5 90.5,-636.5"/>
<polygon fill="none" stroke="#666666" points="90,-620 90,-669 113,-669 113,-620 90,-620"/>
</a>
</g>
</g>
<!-- Node4&#45;&gt;Node1 -->
<g id="edge5_Node000001_Node000004" class="edge">
<title>Node4&#45;&gt;Node1</title>
<g id="a_edge5_Node000001_Node000004"><a xlink:title=" ">
<path fill="none" stroke="#63b8ff" d="M98.58,-619.97C96.41,-601.31 93.64,-574.53 92.5,-551 90.73,-514.6 89.48,-505.32 92.5,-469 93.75,-453.95 95.4,-438.47 97.33,-422.91"/>
<polygon fill="none" stroke="#63b8ff" points="97.33,-422.91 94.12,-416.45 98.85,-411.01 102.06,-417.47 97.33,-422.91"/>
</a>
</g>
<text text-anchor="middle" x="135" y="-507.5" font-family="Helvetica,sans-Serif" font-size="10.00" fill="grey"> +SpriteDirection</text>
</g>
<!-- Node4&#45;&gt;Node3 -->
<g id="edge3_Node000003_Node000004" class="edge">
<title>Node4&#45;&gt;Node3</title>
<g id="a_edge3_Node000003_Node000004"><a xlink:title=" ">
<path fill="none" stroke="#63b8ff" d="M113.16,-629.34C126.54,-613.57 149.6,-587.84 172.5,-569 176.97,-565.32 181.68,-561.69 186.51,-558.15"/>
<polygon fill="none" stroke="#63b8ff" points="186.79,-557.95 189.36,-551.22 196.57,-551 194,-557.74 186.79,-557.95"/>
</a>
</g>
<text text-anchor="middle" x="216" y="-594" font-family="Helvetica,sans-Serif" font-size="10.00" fill="grey"> +DelayPerFrame</text>
<text text-anchor="middle" x="216" y="-583" font-family="Helvetica,sans-Serif" font-size="10.00" fill="grey">+FrameCount</text>
<text text-anchor="middle" x="216" y="-572" font-family="Helvetica,sans-Serif" font-size="10.00" fill="grey">+StartFrame</text>
</g>
<!-- Node5 -->
<g id="Node000005" class="node">
<title>Node5</title>
<g id="a_Node000005"><a xlink:href="../../d9/db9/classbool.html" target="_top" xlink:title=" ">
<polygon fill="white" stroke="transparent" points="279.5,-669 247.5,-669 247.5,-620 279.5,-620 279.5,-669"/>
<text text-anchor="start" x="252.5" y="-656.5" font-family="Helvetica,sans-Serif" font-size="10.00">bool</text>
<text text-anchor="start" x="261.5" y="-641.5" font-family="Helvetica,sans-Serif" font-size="10.00"> </text>
<text text-anchor="start" x="261.5" y="-626.5" font-family="Helvetica,sans-Serif" font-size="10.00"> </text>
<polygon fill="#666666" stroke="#666666" points="247.5,-651.5 247.5,-651.5 279.5,-651.5 279.5,-651.5 247.5,-651.5"/>
<polygon fill="#666666" stroke="#666666" points="247.5,-636.5 247.5,-636.5 279.5,-636.5 279.5,-636.5 247.5,-636.5"/>
<polygon fill="none" stroke="#666666" points="247.5,-620 247.5,-669 279.5,-669 279.5,-620 247.5,-620"/>
</a>
</g>
</g>
<!-- Node5&#45;&gt;Node3 -->
<g id="edge4_Node000003_Node000005" class="edge">
<title>Node5&#45;&gt;Node3</title>
<g id="a_edge4_Node000003_Node000005"><a xlink:title=" ">
<path fill="none" stroke="#63b8ff" d="M263.5,-619.81C263.5,-604.11 263.5,-582.86 263.5,-563.32"/>
<polygon fill="none" stroke="#63b8ff" points="263.5,-563.11 259.5,-557.11 263.5,-551.11 267.5,-557.11 263.5,-563.11"/>
</a>
</g>
<text text-anchor="middle" x="299" y="-583" font-family="Helvetica,sans-Serif" font-size="10.00" fill="grey"> +BounceLoop</text>
</g>
<!-- Node6 -->
<g id="Node000006" class="node">
<title>Node6</title>
<g id="a_Node000006"><a xlink:title=" ">
<polygon fill="white" stroke="transparent" points="482,-534.5 359,-534.5 359,-485.5 482,-485.5 482,-534.5"/>
<text text-anchor="start" x="364.5" y="-522" font-family="Helvetica,sans-Serif" font-size="10.00">CustomAnimationCode</text>
<text text-anchor="start" x="419" y="-507" font-family="Helvetica,sans-Serif" font-size="10.00"> </text>
<text text-anchor="start" x="419" y="-492" font-family="Helvetica,sans-Serif" font-size="10.00"> </text>
<polygon fill="#666666" stroke="#666666" points="359.5,-517 359.5,-517 482.5,-517 482.5,-517 359.5,-517"/>
<polygon fill="#666666" stroke="#666666" points="359.5,-502 359.5,-502 482.5,-502 482.5,-502 359.5,-502"/>
<polygon fill="none" stroke="#666666" points="359,-485.5 359,-534.5 482,-534.5 482,-485.5 359,-485.5"/>
</a>
</g>
</g>
<!-- Node6&#45;&gt;Node1 -->
<g id="edge6_Node000001_Node000006" class="edge">
<title>Node6&#45;&gt;Node1</title>
<g id="a_edge6_Node000001_Node000006"><a xlink:title=" ">
<path fill="none" stroke="#63b8ff" d="M398.21,-485.26C366,-450.95 304.2,-385.12 248.73,-326.05"/>
<polygon fill="none" stroke="#63b8ff" points="248.46,-325.76 241.44,-324.12 240.25,-317.01 247.27,-318.64 248.46,-325.76"/>
</a>
</g>
<text text-anchor="middle" x="408.5" y="-437.5" font-family="Helvetica,sans-Serif" font-size="10.00" fill="grey"> +CustomAnimation</text>
</g>
</g>
</svg>
