<?xml version="1.0" encoding="UTF-8" standalone="no"?>
<!DOCTYPE svg PUBLIC "-//W3C//DTD SVG 1.1//EN"
 "http://www.w3.org/Graphics/SVG/1.1/DTD/svg11.dtd">
<!-- Generated by graphviz version 2.43.0 (0)
 -->
<!-- Title: Terraria.GameInput.LockOnHelper.CanEnable Pages: 1 -->
<svg width="1058pt" height="167pt"
 viewBox="0.00 0.00 1058.00 167.00" xmlns="http://www.w3.org/2000/svg" xmlns:xlink="http://www.w3.org/1999/xlink">
<g id="graph0" class="graph" transform="scale(1 1) rotate(0) translate(4 163)">
<title>Terraria.GameInput.LockOnHelper.CanEnable</title>
<!-- Node1 -->
<g id="Node000001" class="node">
<title>Node1</title>
<g id="a_Node000001"><a xlink:title=" ">
<polygon fill="#999999" stroke="#666666" points="1050,-32 901,-32 901,-2 1050,-2 1050,-32"/>
<text text-anchor="start" x="909" y="-20" font-family="Helvetica,sans-Serif" font-size="10.00">Terraria.GameInput.LockOn</text>
<text text-anchor="middle" x="975.5" y="-9" font-family="Helvetica,sans-Serif" font-size="10.00">Helper.CanEnable</text>
</a>
</g>
</g>
<!-- Node2 -->
<g id="Node000002" class="node">
<title>Node2</title>
<g id="a_Node000002"><a xlink:href="../../d9/dc2/classTerraria_1_1GameInput_1_1LockOnHelper_a1b47a346c6a3a5c184d39aea71fb5a9c.html#a1b47a346c6a3a5c184d39aea71fb5a9c" target="_top" xlink:title=" ">
<polygon fill="white" stroke="#666666" points="865,-73 716,-73 716,-43 865,-43 865,-73"/>
<text text-anchor="start" x="724" y="-61" font-family="Helvetica,sans-Serif" font-size="10.00">Terraria.GameInput.LockOn</text>
<text text-anchor="middle" x="790.5" y="-50" font-family="Helvetica,sans-Serif" font-size="10.00">Helper.SetActive</text>
</a>
</g>
</g>
<!-- Node1&#45;&gt;Node2 -->
<g id="edge1_Node000001_Node000002" class="edge">
<title>Node1&#45;&gt;Node2</title>
<g id="a_edge1_Node000001_Node000002"><a xlink:title=" ">
<path fill="none" stroke="#63b8ff" d="M897.59,-34.23C884.63,-37.13 871.28,-40.13 858.6,-42.97"/>
<polygon fill="#63b8ff" stroke="#63b8ff" points="898.4,-37.64 907.4,-32.03 896.87,-30.81 898.4,-37.64"/>
</a>
</g>
</g>
<!-- Node6 -->
<g id="Node000006" class="node">
<title>Node6</title>
<g id="a_Node000006"><a xlink:href="../../d9/dc2/classTerraria_1_1GameInput_1_1LockOnHelper_ab9ededd65313964f5095e9fd851c429f.html#ab9ededd65313964f5095e9fd851c429f" target="_top" xlink:title=" ">
<polygon fill="white" stroke="#666666" points="310,-30 161,-30 161,0 310,0 310,-30"/>
<text text-anchor="start" x="169" y="-18" font-family="Helvetica,sans-Serif" font-size="10.00">Terraria.GameInput.LockOn</text>
<text text-anchor="middle" x="235.5" y="-7" font-family="Helvetica,sans-Serif" font-size="10.00">Helper.Update</text>
</a>
</g>
</g>
<!-- Node1&#45;&gt;Node6 -->
<g id="edge11_Node000001_Node000006" class="edge">
<title>Node1&#45;&gt;Node6</title>
<g id="a_edge11_Node000001_Node000006"><a xlink:title=" ">
<path fill="none" stroke="#63b8ff" d="M890.7,-14.26C770.21,-10.73 541.05,-5.55 346,-10 334.39,-10.26 322.1,-10.69 310.11,-11.18"/>
<polygon fill="#63b8ff" stroke="#63b8ff" points="890.85,-17.77 900.95,-14.56 891.06,-10.77 890.85,-17.77"/>
</a>
</g>
</g>
<!-- Node3 -->
<g id="Node000003" class="node">
<title>Node3</title>
<g id="a_Node000003"><a xlink:href="../../d9/dc2/classTerraria_1_1GameInput_1_1LockOnHelper_a47d471413fd70f3b2eb3a4a64890bcda.html#a47d471413fd70f3b2eb3a4a64890bcda" target="_top" xlink:title=" ">
<polygon fill="white" stroke="#666666" points="680,-159 531,-159 531,-129 680,-129 680,-159"/>
<text text-anchor="start" x="539" y="-147" font-family="Helvetica,sans-Serif" font-size="10.00">Terraria.GameInput.LockOn</text>
<text text-anchor="middle" x="605.5" y="-136" font-family="Helvetica,sans-Serif" font-size="10.00">Helper.CycleTargetFocus</text>
</a>
</g>
</g>
<!-- Node2&#45;&gt;Node3 -->
<g id="edge2_Node000002_Node000003" class="edge">
<title>Node2&#45;&gt;Node3</title>
<g id="a_edge2_Node000002_Node000003"><a xlink:title=" ">
<path fill="none" stroke="#63b8ff" d="M753.49,-77.95C732.36,-89.36 704.97,-103.61 680,-115 669.39,-119.84 657.72,-124.66 646.87,-128.94"/>
<polygon fill="#63b8ff" stroke="#63b8ff" points="755.32,-80.94 762.44,-73.09 751.98,-74.79 755.32,-80.94"/>
</a>
</g>
</g>
<!-- Node4 -->
<g id="Node000004" class="node">
<title>Node4</title>
<g id="a_Node000004"><a xlink:href="../../d9/dc2/classTerraria_1_1GameInput_1_1LockOnHelper_a3cb30ebd99ac1f861951b9420d890c7c.html#a3cb30ebd99ac1f861951b9420d890c7c" target="_top" xlink:title=" ">
<polygon fill="white" stroke="#666666" points="495,-97 346,-97 346,-67 495,-67 495,-97"/>
<text text-anchor="start" x="354" y="-85" font-family="Helvetica,sans-Serif" font-size="10.00">Terraria.GameInput.LockOn</text>
<text text-anchor="middle" x="420.5" y="-74" font-family="Helvetica,sans-Serif" font-size="10.00">Helper.HandlePressing</text>
</a>
</g>
</g>
<!-- Node2&#45;&gt;Node4 -->
<g id="edge9_Node000002_Node000004" class="edge">
<title>Node2&#45;&gt;Node4</title>
<g id="a_edge9_Node000002_Node000004"><a xlink:title=" ">
<path fill="none" stroke="#63b8ff" d="M722.01,-75.18C708.2,-78.02 693.7,-80.52 680,-82 617.98,-88.72 547.1,-88.14 495.27,-86.21"/>
<polygon fill="#63b8ff" stroke="#63b8ff" points="722.87,-78.57 731.92,-73.06 721.41,-71.73 722.87,-78.57"/>
</a>
</g>
</g>
<!-- Node2&#45;&gt;Node6 -->
<g id="edge10_Node000002_Node000006" class="edge">
<title>Node2&#45;&gt;Node6</title>
<g id="a_edge10_Node000002_Node000006"><a xlink:title=" ">
<path fill="none" stroke="#63b8ff" d="M719.92,-40.86C706.73,-38.15 693,-35.69 680,-34 550.65,-17.18 398.48,-14.3 310.21,-14.27"/>
<polygon fill="#63b8ff" stroke="#63b8ff" points="719.36,-44.32 729.87,-42.97 720.82,-37.47 719.36,-44.32"/>
</a>
</g>
</g>
<!-- Node8 -->
<g id="Node000008" class="node">
<title>Node8</title>
<g id="a_Node000008"><a xlink:href="../../d9/dc2/classTerraria_1_1GameInput_1_1LockOnHelper_ae9729ba91498fcb055d539269c78c974.html#ae9729ba91498fcb055d539269c78c974" target="_top" xlink:title=" ">
<polygon fill="white" stroke="#666666" points="680,-73 531,-73 531,-43 680,-43 680,-73"/>
<text text-anchor="start" x="539" y="-61" font-family="Helvetica,sans-Serif" font-size="10.00">Terraria.GameInput.LockOn</text>
<text text-anchor="middle" x="605.5" y="-50" font-family="Helvetica,sans-Serif" font-size="10.00">Helper.CycleTargetThreeDS</text>
</a>
</g>
</g>
<!-- Node2&#45;&gt;Node8 -->
<g id="edge7_Node000002_Node000008" class="edge">
<title>Node2&#45;&gt;Node8</title>
<g id="a_edge7_Node000002_Node000008"><a xlink:title=" ">
<path fill="none" stroke="#63b8ff" d="M705.61,-58C697.16,-58 688.62,-58 680.29,-58"/>
<polygon fill="#63b8ff" stroke="#63b8ff" points="705.86,-61.5 715.86,-58 705.86,-54.5 705.86,-61.5"/>
</a>
</g>
</g>
<!-- Node3&#45;&gt;Node4 -->
<g id="edge3_Node000003_Node000004" class="edge">
<title>Node3&#45;&gt;Node4</title>
<g id="a_edge3_Node000003_Node000004"><a xlink:title=" ">
<path fill="none" stroke="#63b8ff" d="M550.55,-125.72C523.64,-116.61 491.5,-105.72 466.03,-97.09"/>
<polygon fill="#63b8ff" stroke="#63b8ff" points="549.61,-129.1 560.2,-128.99 551.85,-122.47 549.61,-129.1"/>
</a>
</g>
</g>
<!-- Node5 -->
<g id="Node000005" class="node">
<title>Node5</title>
<g id="a_Node000005"><a xlink:href="../../d9/dc2/classTerraria_1_1GameInput_1_1LockOnHelper_a946ffa68a79f4f7ef6adf945052f5c63.html#a946ffa68a79f4f7ef6adf945052f5c63" target="_top" xlink:title=" ">
<polygon fill="white" stroke="#666666" points="310,-97 161,-97 161,-67 310,-67 310,-97"/>
<text text-anchor="start" x="169" y="-85" font-family="Helvetica,sans-Serif" font-size="10.00">Terraria.GameInput.LockOn</text>
<text text-anchor="middle" x="235.5" y="-74" font-family="Helvetica,sans-Serif" font-size="10.00">Helper.Toggle</text>
</a>
</g>
</g>
<!-- Node4&#45;&gt;Node5 -->
<g id="edge4_Node000004_Node000005" class="edge">
<title>Node4&#45;&gt;Node5</title>
<g id="a_edge4_Node000004_Node000005"><a xlink:title=" ">
<path fill="none" stroke="#63b8ff" d="M335.61,-82C327.16,-82 318.62,-82 310.29,-82"/>
<polygon fill="#63b8ff" stroke="#63b8ff" points="335.86,-85.5 345.86,-82 335.86,-78.5 335.86,-85.5"/>
</a>
</g>
</g>
<!-- Node4&#45;&gt;Node6 -->
<g id="edge5_Node000004_Node000006" class="edge">
<title>Node4&#45;&gt;Node6</title>
<g id="a_edge5_Node000004_Node000006"><a xlink:title=" ">
<path fill="none" stroke="#63b8ff" d="M368.98,-63.5C340.26,-52.99 304.77,-39.99 277.75,-30.1"/>
<polygon fill="#63b8ff" stroke="#63b8ff" points="367.84,-66.81 378.43,-66.96 370.24,-60.24 367.84,-66.81"/>
</a>
</g>
</g>
<!-- Node7 -->
<g id="Node000007" class="node">
<title>Node7</title>
<g id="a_Node000007"><a xlink:href="../../d4/d03/classTerraria_1_1Player_af44290f5d38b6d5076a5fa8d6ee3dd12.html#af44290f5d38b6d5076a5fa8d6ee3dd12" target="_top" xlink:title=" ">
<polygon fill="white" stroke="#666666" points="125,-24.5 0,-24.5 0,-5.5 125,-5.5 125,-24.5"/>
<text text-anchor="middle" x="62.5" y="-12.5" font-family="Helvetica,sans-Serif" font-size="10.00">Terraria.Player.Update</text>
</a>
</g>
</g>
<!-- Node6&#45;&gt;Node7 -->
<g id="edge6_Node000006_Node000007" class="edge">
<title>Node6&#45;&gt;Node7</title>
<g id="a_edge6_Node000006_Node000007"><a xlink:title=" ">
<path fill="none" stroke="#63b8ff" d="M150.85,-15C142.19,-15 133.5,-15 125.14,-15"/>
<polygon fill="#63b8ff" stroke="#63b8ff" points="150.99,-18.5 160.99,-15 150.99,-11.5 150.99,-18.5"/>
</a>
</g>
</g>
<!-- Node8&#45;&gt;Node4 -->
<g id="edge8_Node000008_Node000004" class="edge">
<title>Node8&#45;&gt;Node4</title>
<g id="a_edge8_Node000008_Node000004"><a xlink:title=" ">
<path fill="none" stroke="#63b8ff" d="M520.89,-68.97C512.35,-70.09 503.72,-71.22 495.29,-72.32"/>
<polygon fill="#63b8ff" stroke="#63b8ff" points="521.4,-72.43 530.86,-67.66 520.49,-65.49 521.4,-72.43"/>
</a>
</g>
</g>
</g>
</svg>
