<?xml version="1.0" encoding="UTF-8" standalone="no"?>
<!DOCTYPE svg PUBLIC "-//W3C//DTD SVG 1.1//EN"
 "http://www.w3.org/Graphics/SVG/1.1/DTD/svg11.dtd">
<!-- Generated by graphviz version 2.43.0 (0)
 -->
<!-- Title: Terraria.GameContent.Achievements.AchievementsHelper.CheckMechaMayhem Pages: 1 -->
<svg width="1379pt" height="108pt"
 viewBox="0.00 0.00 1379.00 108.00" xmlns="http://www.w3.org/2000/svg" xmlns:xlink="http://www.w3.org/1999/xlink">
<g id="graph0" class="graph" transform="scale(1 1) rotate(0) translate(4 104)">
<title>Terraria.GameContent.Achievements.AchievementsHelper.CheckMechaMayhem</title>
<!-- Node1 -->
<g id="Node000001" class="node">
<title>Node1</title>
<g id="a_Node000001"><a xlink:title=" ">
<polygon fill="#999999" stroke="#666666" points="1371,-78 1145,-78 1145,-48 1371,-48 1371,-78"/>
<text text-anchor="start" x="1153" y="-66" font-family="Helvetica,sans-Serif" font-size="10.00">Terraria.GameContent.Achievements.</text>
<text text-anchor="middle" x="1258" y="-55" font-family="Helvetica,sans-Serif" font-size="10.00">AchievementsHelper.CheckMechaMayhem</text>
</a>
</g>
</g>
<!-- Node2 -->
<g id="Node000002" class="node">
<title>Node2</title>
<g id="a_Node000002"><a xlink:href="../../df/d0d/classTerraria_1_1NPC_a5b288178b0379c30cda4c3ad765b75e4.html#a5b288178b0379c30cda4c3ad765b75e4" target="_top" xlink:title=" ">
<polygon fill="white" stroke="#666666" points="930,-100 791,-100 791,-70 930,-70 930,-100"/>
<text text-anchor="start" x="799" y="-88" font-family="Helvetica,sans-Serif" font-size="10.00">Terraria.NPC.CountKillFor</text>
<text text-anchor="middle" x="860.5" y="-77" font-family="Helvetica,sans-Serif" font-size="10.00">Achievements</text>
</a>
</g>
</g>
<!-- Node1&#45;&gt;Node2 -->
<g id="edge1_Node000001_Node000002" class="edge">
<title>Node1&#45;&gt;Node2</title>
<g id="a_edge1_Node000001_Node000002"><a xlink:title=" ">
<path fill="none" stroke="#63b8ff" d="M1134.73,-69.8C1067.39,-73.55 986.32,-78.06 930.05,-81.19"/>
<polygon fill="#63b8ff" stroke="#63b8ff" points="1135.2,-73.28 1144.99,-69.23 1134.81,-66.29 1135.2,-73.28"/>
</a>
</g>
</g>
<!-- Node9 -->
<g id="Node000009" class="node">
<title>Node9</title>
<g id="a_Node000009"><a xlink:href="../../df/d0d/classTerraria_1_1NPC_a2adf1003f4f193a96bcb1da4c861ab22.html#a2adf1003f4f193a96bcb1da4c861ab22" target="_top" xlink:title=" ">
<polygon fill="white" stroke="#666666" points="1109,-53.5 974,-53.5 974,-34.5 1109,-34.5 1109,-53.5"/>
<text text-anchor="middle" x="1041.5" y="-41.5" font-family="Helvetica,sans-Serif" font-size="10.00">Terraria.NPC.SpawnBoss</text>
</a>
</g>
</g>
<!-- Node1&#45;&gt;Node9 -->
<g id="edge11_Node000001_Node000009" class="edge">
<title>Node1&#45;&gt;Node9</title>
<g id="a_edge11_Node000001_Node000009"><a xlink:title=" ">
<path fill="none" stroke="#63b8ff" d="M1134.5,-52.15C1125.82,-51.38 1117.29,-50.62 1109.12,-49.9"/>
<polygon fill="#63b8ff" stroke="#63b8ff" points="1134.45,-55.66 1144.72,-53.05 1135.07,-48.69 1134.45,-55.66"/>
</a>
</g>
</g>
<!-- Node3 -->
<g id="Node000003" class="node">
<title>Node3</title>
<g id="a_Node000003"><a xlink:href="../../df/d0d/classTerraria_1_1NPC_a1285ee63df9110af96b22f28bf4027fa.html#a1285ee63df9110af96b22f28bf4027fa" target="_top" xlink:title=" ">
<polygon fill="white" stroke="#666666" points="747,-72.5 626,-72.5 626,-53.5 747,-53.5 747,-72.5"/>
<text text-anchor="middle" x="686.5" y="-60.5" font-family="Helvetica,sans-Serif" font-size="10.00">Terraria.NPC.NPCLoot</text>
</a>
</g>
</g>
<!-- Node2&#45;&gt;Node3 -->
<g id="edge2_Node000002_Node000003" class="edge">
<title>Node2&#45;&gt;Node3</title>
<g id="a_edge2_Node000002_Node000003"><a xlink:title=" ">
<path fill="none" stroke="#63b8ff" d="M780.32,-74.87C769.14,-73.44 757.8,-71.99 747.07,-70.62"/>
<polygon fill="#63b8ff" stroke="#63b8ff" points="780.17,-78.38 790.53,-76.18 781.06,-71.44 780.17,-78.38"/>
</a>
</g>
</g>
<!-- Node4 -->
<g id="Node000004" class="node">
<title>Node4</title>
<g id="a_Node000004"><a xlink:href="../../df/d0d/classTerraria_1_1NPC_ab1ad78f73082a8e83ba943acf42d7128.html#ab1ad78f73082a8e83ba943acf42d7128" target="_top" xlink:title=" ">
<polygon fill="white" stroke="#666666" points="408,-72.5 274,-72.5 274,-53.5 408,-53.5 408,-72.5"/>
<text text-anchor="middle" x="341" y="-60.5" font-family="Helvetica,sans-Serif" font-size="10.00">Terraria.NPC.checkDead</text>
</a>
</g>
</g>
<!-- Node3&#45;&gt;Node4 -->
<g id="edge3_Node000003_Node000004" class="edge">
<title>Node3&#45;&gt;Node4</title>
<g id="a_edge3_Node000003_Node000004"><a xlink:title=" ">
<path fill="none" stroke="#63b8ff" d="M615.42,-63C554.76,-63 467.67,-63 408.18,-63"/>
<polygon fill="#63b8ff" stroke="#63b8ff" points="615.67,-66.5 625.67,-63 615.67,-59.5 615.67,-66.5"/>
</a>
</g>
</g>
<!-- Node8 -->
<g id="Node000008" class="node">
<title>Node8</title>
<g id="a_Node000008"><a xlink:href="../../df/d0d/classTerraria_1_1NPC_ad534251c5a7ca0317dc7b947755af30f.html#ad534251c5a7ca0317dc7b947755af30f" target="_top" xlink:title=" ">
<polygon fill="white" stroke="#666666" points="590,-53.5 444,-53.5 444,-34.5 590,-34.5 590,-53.5"/>
<text text-anchor="middle" x="517" y="-41.5" font-family="Helvetica,sans-Serif" font-size="10.00">Terraria.NPC.DropEoWLoot</text>
</a>
</g>
</g>
<!-- Node3&#45;&gt;Node8 -->
<g id="edge9_Node000003_Node000008" class="edge">
<title>Node3&#45;&gt;Node8</title>
<g id="a_edge9_Node000003_Node000008"><a xlink:title=" ">
<path fill="none" stroke="#63b8ff" d="M615.8,-55.09C607.36,-54.14 598.72,-53.16 590.24,-52.19"/>
<polygon fill="#63b8ff" stroke="#63b8ff" points="615.64,-58.6 625.97,-56.25 616.43,-51.64 615.64,-58.6"/>
</a>
</g>
</g>
<!-- Node5 -->
<g id="Node000005" class="node">
<title>Node5</title>
<g id="a_Node000005"><a xlink:href="../../df/d0d/classTerraria_1_1NPC_af998ad2acbc8e9008e7d83aad42551f2.html#af998ad2acbc8e9008e7d83aad42551f2" target="_top" xlink:title=" ">
<polygon fill="white" stroke="#666666" points="89,-72.5 0,-72.5 0,-53.5 89,-53.5 89,-72.5"/>
<text text-anchor="middle" x="44.5" y="-60.5" font-family="Helvetica,sans-Serif" font-size="10.00">Terraria.NPC.AI</text>
</a>
</g>
</g>
<!-- Node4&#45;&gt;Node5 -->
<g id="edge4_Node000004_Node000005" class="edge">
<title>Node4&#45;&gt;Node5</title>
<g id="a_edge4_Node000004_Node000005"><a xlink:title=" ">
<path fill="none" stroke="#63b8ff" d="M297.97,-75.2C279.71,-79.89 257.97,-84.68 238,-87 188.11,-92.79 174.68,-94.34 125,-87 106.32,-84.24 85.94,-78.02 70.49,-72.6"/>
<polygon fill="#63b8ff" stroke="#63b8ff" points="298.95,-78.56 307.72,-72.61 297.16,-71.79 298.95,-78.56"/>
</a>
</g>
</g>
<!-- Node6 -->
<g id="Node000006" class="node">
<title>Node6</title>
<g id="a_Node000006"><a xlink:href="../../df/d0d/classTerraria_1_1NPC_ae5825585a8b5a0bea9de435fb0d2cae0.html#ae5825585a8b5a0bea9de435fb0d2cae0" target="_top" xlink:title=" ">
<polygon fill="white" stroke="#666666" points="238,-78 125,-78 125,-48 238,-48 238,-78"/>
<text text-anchor="start" x="133" y="-66" font-family="Helvetica,sans-Serif" font-size="10.00">Terraria.NPC.AI_006</text>
<text text-anchor="middle" x="181.5" y="-55" font-family="Helvetica,sans-Serif" font-size="10.00">_Worms</text>
</a>
</g>
</g>
<!-- Node4&#45;&gt;Node6 -->
<g id="edge5_Node000004_Node000006" class="edge">
<title>Node4&#45;&gt;Node6</title>
<g id="a_edge5_Node000004_Node000006"><a xlink:title=" ">
<path fill="none" stroke="#63b8ff" d="M263.39,-63C254.93,-63 246.44,-63 238.3,-63"/>
<polygon fill="#63b8ff" stroke="#63b8ff" points="263.66,-66.5 273.66,-63 263.66,-59.5 263.66,-66.5"/>
</a>
</g>
</g>
<!-- Node7 -->
<g id="Node000007" class="node">
<title>Node7</title>
<g id="a_Node000007"><a xlink:href="../../df/d0d/classTerraria_1_1NPC_aaacc9eb5b5723971f25f629b32686136.html#aaacc9eb5b5723971f25f629b32686136" target="_top" xlink:title=" ">
<polygon fill="white" stroke="#666666" points="238,-30 125,-30 125,0 238,0 238,-30"/>
<text text-anchor="start" x="133" y="-18" font-family="Helvetica,sans-Serif" font-size="10.00">Terraria.NPC.AI_037</text>
<text text-anchor="middle" x="181.5" y="-7" font-family="Helvetica,sans-Serif" font-size="10.00">_Destroyer</text>
</a>
</g>
</g>
<!-- Node4&#45;&gt;Node7 -->
<g id="edge7_Node000004_Node000007" class="edge">
<title>Node4&#45;&gt;Node7</title>
<g id="a_edge7_Node000004_Node000007"><a xlink:title=" ">
<path fill="none" stroke="#63b8ff" d="M298.84,-50.46C278.36,-44.21 253.44,-36.62 231.93,-30.06"/>
<polygon fill="#63b8ff" stroke="#63b8ff" points="297.92,-53.83 308.51,-53.4 299.96,-47.14 297.92,-53.83"/>
</a>
</g>
</g>
<!-- Node6&#45;&gt;Node5 -->
<g id="edge6_Node000006_Node000005" class="edge">
<title>Node6&#45;&gt;Node5</title>
<g id="a_edge6_Node000006_Node000005"><a xlink:title=" ">
<path fill="none" stroke="#63b8ff" d="M114.67,-63C106,-63 97.28,-63 89.1,-63"/>
<polygon fill="#63b8ff" stroke="#63b8ff" points="114.81,-66.5 124.81,-63 114.81,-59.5 114.81,-66.5"/>
</a>
</g>
</g>
<!-- Node7&#45;&gt;Node5 -->
<g id="edge8_Node000007_Node000005" class="edge">
<title>Node7&#45;&gt;Node5</title>
<g id="a_edge8_Node000007_Node000005"><a xlink:title=" ">
<path fill="none" stroke="#63b8ff" d="M128.62,-33.45C109.44,-40.27 88.47,-47.72 72.4,-53.44"/>
<polygon fill="#63b8ff" stroke="#63b8ff" points="129.91,-36.7 138.16,-30.06 127.56,-30.11 129.91,-36.7"/>
</a>
</g>
</g>
<!-- Node8&#45;&gt;Node4 -->
<g id="edge10_Node000008_Node000004" class="edge">
<title>Node8&#45;&gt;Node4</title>
<g id="a_edge10_Node000008_Node000004"><a xlink:title=" ">
<path fill="none" stroke="#63b8ff" d="M433.88,-52.97C425.25,-53.91 416.54,-54.86 408.12,-55.78"/>
<polygon fill="#63b8ff" stroke="#63b8ff" points="434.41,-56.43 443.97,-51.87 433.65,-49.47 434.41,-56.43"/>
</a>
</g>
</g>
<!-- Node10 -->
<g id="Node000010" class="node">
<title>Node10</title>
<g id="a_Node000010"><a xlink:href="../../df/d0d/classTerraria_1_1NPC_ac8b7ce9d949ddbd91800001984e16b11.html#ac8b7ce9d949ddbd91800001984e16b11" target="_top" xlink:title=" ">
<polygon fill="white" stroke="#666666" points="938,-51.5 783,-51.5 783,-32.5 938,-32.5 938,-51.5"/>
<text text-anchor="middle" x="860.5" y="-39.5" font-family="Helvetica,sans-Serif" font-size="10.00">Terraria.NPC.DoDeathEvents</text>
</a>
</g>
</g>
<!-- Node9&#45;&gt;Node10 -->
<g id="edge12_Node000009_Node000010" class="edge">
<title>Node9&#45;&gt;Node10</title>
<g id="a_edge12_Node000009_Node000010"><a xlink:title=" ">
<path fill="none" stroke="#63b8ff" d="M963.64,-43.14C955.2,-43.05 946.6,-42.95 938.16,-42.86"/>
<polygon fill="#63b8ff" stroke="#63b8ff" points="963.81,-46.64 973.85,-43.26 963.89,-39.64 963.81,-46.64"/>
</a>
</g>
</g>
<!-- Node10&#45;&gt;Node3 -->
<g id="edge13_Node000010_Node000003" class="edge">
<title>Node10&#45;&gt;Node3</title>
<g id="a_edge13_Node000010_Node000003"><a xlink:title=" ">
<path fill="none" stroke="#63b8ff" d="M772.64,-52.6C763.97,-53.66 755.31,-54.72 747.01,-55.73"/>
<polygon fill="#63b8ff" stroke="#63b8ff" points="773.3,-56.05 782.81,-51.36 772.46,-49.1 773.3,-56.05"/>
</a>
</g>
</g>
</g>
</svg>
