<?xml version="1.0" encoding="UTF-8" standalone="no"?>
<!DOCTYPE svg PUBLIC "-//W3C//DTD SVG 1.1//EN"
 "http://www.w3.org/Graphics/SVG/1.1/DTD/svg11.dtd">
<!-- Generated by graphviz version 2.43.0 (0)
 -->
<!-- Title: Terraria.GameContent.RGB.MartianMadnessShader.ProcessHighDetail Pages: 1 -->
<!--zoomable 134 -->

<svg id="main" version="1.1" xmlns="http://www.w3.org/2000/svg" xmlns:xlink="http://www.w3.org/1999/xlink" xml:space="preserve" onload="init(evt)">
<style type="text/css"><![CDATA[
.node, .edge {opacity: 0.7;}
.node.selected, .edge.selected {opacity: 1;}
.edge:hover path { stroke: red; }
.edge:hover polygon { stroke: red; fill: red; }
]]></style>

<defs>
  <circle id="rim" cx="0" cy="0" r="7"/>
  <circle id="rim2" cx="0" cy="0" r="3.5"/>
  <g id="zoomPlus">
    <use xlink:href="#rim" fill="#404040"><set attributeName="fill" to="#808080" begin="zoomplus.mouseover" end="zoomplus.mouseout"/></use>
    <path d="M-4,0h8M0,-4v8" fill="none" stroke="white" stroke-width="1.5" pointer-events="none"/>
  </g>
  <g id="zoomMin">
    <use xlink:href="#rim" fill="#404040"><set attributeName="fill" to="#808080" begin="zoomminus.mouseover" end="zoomminus.mouseout"/></use>
    <path d="M-4,0h8" fill="none" stroke="white" stroke-width="1.5" pointer-events="none"/>
  </g>
  <g id="arrowUp" transform="translate(30 24)">
    <use xlink:href="#rim"/>
    <path pointer-events="none" fill="none" stroke="white" stroke-width="1.5" d="M0,-3.0v7 M-2.5,-0.5L0,-3.0L2.5,-0.5"/>
  </g>
  <g id="arrowRight" transform="rotate(90) translate(36 -43)">
    <use xlink:href="#rim"/>
    <path pointer-events="none" fill="none" stroke="white" stroke-width="1.5" d="M0,-3.0v7 M-2.5,-0.5L0,-3.0L2.5,-0.5"/>
  </g>
  <g id="arrowDown" transform="rotate(180) translate(-30 -48)">
    <use xlink:href="#rim"/>
    <path pointer-events="none" fill="none" stroke="white" stroke-width="1.5" d="M0,-3.0v7 M-2.5,-0.5L0,-3.0L2.5,-0.5"/>
  </g>
  <g id="arrowLeft" transform="rotate(270) translate(-36 17)">
    <use xlink:href="#rim"/>
    <path pointer-events="none" fill="none" stroke="white" stroke-width="1.5" d="M0,-3.0v7 M-2.5,-0.5L0,-3.0L2.5,-0.5"/>
  </g>
  <g id="resetDef">
    <use xlink:href="#rim2" fill="#404040"><set attributeName="fill" to="#808080" begin="reset.mouseover" end="reset.mouseout"/></use>
  </g>
</defs>
<script type="application/ecmascript">
var viewWidth = 662;
var viewHeight = 134;
var sectionId = 'dynsection-0';
</script>
<script type="application/ecmascript" xlink:href="../../svg.min.js"/>
<svg id="graph" class="graph">
<g id="viewport">
<title>Terraria.GameContent.RGB.MartianMadnessShader.ProcessHighDetail</title>
<!-- Node1 -->
<g id="Node000001" class="node">
<title>Node1</title>
<g id="a_Node000001"><a xlink:title=" ">
<polygon fill="#999999" stroke="#666666" points="194,-83.5 0,-83.5 0,-42.5 194,-42.5 194,-83.5"/>
<text text-anchor="start" x="8" y="-71.5" font-family="Helvetica,sans-Serif" font-size="10.00">Terraria.GameContent.RGB.</text>
<text text-anchor="start" x="8" y="-60.5" font-family="Helvetica,sans-Serif" font-size="10.00">MartianMadnessShader.ProcessHigh</text>
<text text-anchor="middle" x="97" y="-49.5" font-family="Helvetica,sans-Serif" font-size="10.00">Detail</text>
</a>
</g>
</g>
<!-- Node2 -->
<g id="Node000002" class="node">
<title>Node2</title>
<g id="a_Node000002"><a xlink:href="../../da/dd6/classReLogic_1_1Peripherals_1_1RGB_1_1Fragment_ad8ae13d3f8e4b6018fc3479968dc4105.html#ad8ae13d3f8e4b6018fc3479968dc4105" target="_top" xlink:title=" ">
<polygon fill="white" stroke="#666666" points="654,-126 457,-126 457,-96 654,-96 654,-126"/>
<text text-anchor="start" x="465" y="-114" font-family="Helvetica,sans-Serif" font-size="10.00">ReLogic.Peripherals.RGB.</text>
<text text-anchor="middle" x="555.5" y="-103" font-family="Helvetica,sans-Serif" font-size="10.00">Fragment.GetCanvasPositionOfIndex</text>
</a>
</g>
</g>
<!-- Node1&#45;&gt;Node2 -->
<g id="edge1_Node000001_Node000002" class="edge">
<title>Node1&#45;&gt;Node2</title>
<g id="a_edge1_Node000001_Node000002"><a xlink:title=" ">
<path fill="none" stroke="#63b8ff" d="M178.58,-83.57C195.47,-87.25 213.24,-90.65 230,-93 301.87,-103.09 383.43,-107.58 446.81,-109.56"/>
<polygon fill="#63b8ff" stroke="#63b8ff" points="446.72,-113.06 456.82,-109.85 446.93,-106.06 446.72,-113.06"/>
</a>
</g>
</g>
<!-- Node3 -->
<g id="Node000003" class="node">
<title>Node3</title>
<g id="a_Node000003"><a xlink:href="../../da/d80/classTerraria_1_1GameContent_1_1RGB_1_1MartianMadnessShader_a0e6522e2cb0d1d54cf5a9c34c16152a4.html#a0e6522e2cb0d1d54cf5a9c34c16152a4" target="_top" xlink:title=" ">
<polygon fill="white" stroke="#666666" points="421,-83.5 230,-83.5 230,-42.5 421,-42.5 421,-83.5"/>
<text text-anchor="start" x="238" y="-71.5" font-family="Helvetica,sans-Serif" font-size="10.00">Terraria.GameContent.RGB.</text>
<text text-anchor="start" x="238" y="-60.5" font-family="Helvetica,sans-Serif" font-size="10.00">MartianMadnessShader.ProcessLow</text>
<text text-anchor="middle" x="325.5" y="-49.5" font-family="Helvetica,sans-Serif" font-size="10.00">Detail</text>
</a>
</g>
</g>
<!-- Node1&#45;&gt;Node3 -->
<g id="edge2_Node000001_Node000003" class="edge">
<title>Node1&#45;&gt;Node3</title>
<g id="a_edge2_Node000001_Node000003"><a xlink:title=" ">
<path fill="none" stroke="#63b8ff" d="M194.06,-63C202.55,-63 211.17,-63 219.73,-63"/>
<polygon fill="#63b8ff" stroke="#63b8ff" points="219.74,-66.5 229.74,-63 219.74,-59.5 219.74,-66.5"/>
</a>
</g>
</g>
<!-- Node5 -->
<g id="Node000005" class="node">
<title>Node5</title>
<g id="a_Node000005"><a xlink:href="../../da/dd6/classReLogic_1_1Peripherals_1_1RGB_1_1Fragment_ac2018cbbd5437a0bcf5baf076040c0e7.html#ac2018cbbd5437a0bcf5baf076040c0e7" target="_top" xlink:title=" ">
<polygon fill="white" stroke="#666666" points="625.5,-30 485.5,-30 485.5,0 625.5,0 625.5,-30"/>
<text text-anchor="start" x="493.5" y="-18" font-family="Helvetica,sans-Serif" font-size="10.00">ReLogic.Peripherals.RGB.</text>
<text text-anchor="middle" x="555.5" y="-7" font-family="Helvetica,sans-Serif" font-size="10.00">Fragment.SetColor</text>
</a>
</g>
</g>
<!-- Node1&#45;&gt;Node5 -->
<g id="edge6_Node000001_Node000005" class="edge">
<title>Node1&#45;&gt;Node5</title>
<g id="a_edge6_Node000001_Node000005"><a xlink:title=" ">
<path fill="none" stroke="#63b8ff" d="M178.58,-42.43C195.47,-38.75 213.24,-35.35 230,-33 313.14,-21.33 409.25,-17.15 475.17,-15.69"/>
<polygon fill="#63b8ff" stroke="#63b8ff" points="475.56,-19.18 485.49,-15.48 475.42,-12.18 475.56,-19.18"/>
</a>
</g>
</g>
<!-- Node3&#45;&gt;Node2 -->
<g id="edge3_Node000003_Node000002" class="edge">
<title>Node3&#45;&gt;Node2</title>
<g id="a_edge3_Node000003_Node000002"><a xlink:title=" ">
<path fill="none" stroke="#63b8ff" d="M421.21,-82.94C438.5,-86.58 456.39,-90.35 473.24,-93.89"/>
<polygon fill="#63b8ff" stroke="#63b8ff" points="472.52,-97.32 483.03,-95.95 473.97,-90.47 472.52,-97.32"/>
</a>
</g>
</g>
<!-- Node4 -->
<g id="Node000004" class="node">
<title>Node4</title>
<g id="a_Node000004"><a xlink:href="../../da/dd6/classReLogic_1_1Peripherals_1_1RGB_1_1Fragment_a6ae874bb564915466eecf15cc9bd69d4.html#a6ae874bb564915466eecf15cc9bd69d4" target="_top" xlink:title=" ">
<polygon fill="white" stroke="#666666" points="646,-78 465,-78 465,-48 646,-48 646,-78"/>
<text text-anchor="start" x="473" y="-66" font-family="Helvetica,sans-Serif" font-size="10.00">ReLogic.Peripherals.RGB.</text>
<text text-anchor="middle" x="555.5" y="-55" font-family="Helvetica,sans-Serif" font-size="10.00">Fragment.GetGridPositionOfIndex</text>
</a>
</g>
</g>
<!-- Node3&#45;&gt;Node4 -->
<g id="edge4_Node000003_Node000004" class="edge">
<title>Node3&#45;&gt;Node4</title>
<g id="a_edge4_Node000003_Node000004"><a xlink:title=" ">
<path fill="none" stroke="#63b8ff" d="M421.21,-63C432.27,-63 443.57,-63 454.69,-63"/>
<polygon fill="#63b8ff" stroke="#63b8ff" points="454.84,-66.5 464.84,-63 454.84,-59.5 454.84,-66.5"/>
</a>
</g>
</g>
<!-- Node3&#45;&gt;Node5 -->
<g id="edge5_Node000003_Node000005" class="edge">
<title>Node3&#45;&gt;Node5</title>
<g id="a_edge5_Node000003_Node000005"><a xlink:title=" ">
<path fill="none" stroke="#63b8ff" d="M421.21,-43.06C439.21,-39.27 457.87,-35.34 475.33,-31.67"/>
<polygon fill="#63b8ff" stroke="#63b8ff" points="476.39,-35.02 485.45,-29.54 474.95,-28.17 476.39,-35.02"/>
</a>
</g>
</g>
</g>
</svg>

<g id="navigator" transform="translate(0 0)" fill="#404254">
  <rect fill="#f2f5e9" fill-opacity="0.5" stroke="#606060" stroke-width=".5" x="0" y="0" width="60" height="60"/>
  <use id="zoomplus" xlink:href="#zoomPlus" x="17" y="9" onmousedown="handleZoom(evt,'in')"/>
  <use id="zoomminus" xlink:href="#zoomMin" x="42" y="9" onmousedown="handleZoom(evt,'out')"/>
  <use id="reset" xlink:href="#resetDef" x="30" y="36" onmousedown="handleReset()"/>
   <use id="arrowup" xlink:href="#arrowUp" x="0" y="0" onmousedown="handlePan(0,-1)"/>
  <use id="arrowright" xlink:href="#arrowRight" x="0" y="0" onmousedown="handlePan(1,0)"/>
  <use id="arrowdown" xlink:href="#arrowDown" x="0" y="0" onmousedown="handlePan(0,1)"/>
  <use id="arrowleft" xlink:href="#arrowLeft" x="0" y="0" onmousedown="handlePan(-1,0)"/>
</g>
<svg viewBox="0 0 15 15" width="100%" height="30px" preserveAspectRatio="xMaxYMin meet">
 <g id="arrow_out" transform="scale(0.3 0.3)">
  <a xlink:href="classTerraria_1_1GameContent_1_1RGB_1_1MartianMadnessShader_aedf12015b4eb2f8dc6e967110b766fc1_aedf12015b4eb2f8dc6e967110b766fc1_cgraph_org.svg" target="_base">
   <rect id="button" ry="5" rx="5" y="6" x="6" height="38" width="38"
        fill="#f2f5e9" fill-opacity="0.5" stroke="#606060" stroke-width="1.0"/>
   <path id="arrow"
     d="M 11.500037,31.436501 C 11.940474,20.09759 22.043105,11.32322 32.158766,21.979434 L 37.068811,17.246167 C 37.068811,17.246167 37.088388,32 37.088388,32 L 22.160133,31.978069 C 22.160133,31.978069 26.997745,27.140456 26.997745,27.140456 C 18.528582,18.264221 13.291696,25.230495 11.500037,31.436501 z"
     style="fill:#404040;"/>
  </a>
 </g>
</svg>

<style type='text/css'>
<![CDATA[
[data-mouse-over-selected='false'] { opacity: 0.7; }
[data-mouse-over-selected='true']  { opacity: 1.0; }
]]>
</style>
<script type="application/ecmascript"><![CDATA[
document.addEventListener('DOMContentLoaded', (event) => {
  highlightEdges();
  highlightAdjacentNodes();
});
]]></script>
</svg>
