<?xml version="1.0" encoding="UTF-8" standalone="no"?>
<!DOCTYPE svg PUBLIC "-//W3C//DTD SVG 1.1//EN"
 "http://www.w3.org/Graphics/SVG/1.1/DTD/svg11.dtd">
<!-- Generated by graphviz version 2.43.0 (0)
 -->
<!-- Title: LiquidID Pages: 1 -->
<svg width="89pt" height="215pt"
 viewBox="0.00 0.00 89.00 215.00" xmlns="http://www.w3.org/2000/svg" xmlns:xlink="http://www.w3.org/1999/xlink">
<g id="graph0" class="graph" transform="scale(1 1) rotate(0) translate(4 211)">
<title>LiquidID</title>
<polygon fill="white" stroke="transparent" points="-4,4 -4,-211 85,-211 85,4 -4,4"/>
<!-- Node1 -->
<g id="node1" class="node">
<title>Node1</title>
<g id="a_node1"><a xlink:title=" ">
<polygon fill="#bfbfbf" stroke="black" points="0,-0.5 0,-57.5 56,-57.5 56,-0.5 0,-0.5"/>
<text text-anchor="middle" x="28" y="-45.5" font-family="Helvetica,sans-Serif" font-size="10.00">LiquidID</text>
<polyline fill="none" stroke="black" points="0,-38.5 56,-38.5 "/>
<text text-anchor="middle" x="28" y="-26.5" font-family="Helvetica,sans-Serif" font-size="10.00"> </text>
<polyline fill="none" stroke="black" points="0,-19.5 56,-19.5 "/>
<text text-anchor="middle" x="28" y="-7.5" font-family="Helvetica,sans-Serif" font-size="10.00"> </text>
</a>
</g>
</g>
<!-- Node2 -->
<g id="node2" class="node">
<title>Node2</title>
<g id="a_node2"><a xlink:title=" ">
<polygon fill="white" stroke="#bfbfbf" points="7.5,-149.5 7.5,-206.5 48.5,-206.5 48.5,-149.5 7.5,-149.5"/>
<text text-anchor="middle" x="28" y="-194.5" font-family="Helvetica,sans-Serif" font-size="10.00">short</text>
<polyline fill="none" stroke="#bfbfbf" points="7.5,-187.5 48.5,-187.5 "/>
<text text-anchor="middle" x="28" y="-175.5" font-family="Helvetica,sans-Serif" font-size="10.00"> </text>
<polyline fill="none" stroke="#bfbfbf" points="7.5,-168.5 48.5,-168.5 "/>
<text text-anchor="middle" x="28" y="-156.5" font-family="Helvetica,sans-Serif" font-size="10.00"> </text>
</a>
</g>
</g>
<!-- Node2&#45;&gt;Node1 -->
<g id="edge1" class="edge">
<title>Node2&#45;&gt;Node1</title>
<path fill="none" stroke="#404040" d="M28,-149.35C28,-126.87 28,-94.85 28,-69.64"/>
<polygon fill="none" stroke="#404040" points="28,-69.53 24,-63.53 28,-57.53 32,-63.53 28,-69.53"/>
<text text-anchor="middle" x="54.5" y="-123" font-family="Helvetica,sans-Serif" font-size="10.00"> +Count</text>
<text text-anchor="middle" x="54.5" y="-112" font-family="Helvetica,sans-Serif" font-size="10.00">+Honey</text>
<text text-anchor="middle" x="54.5" y="-101" font-family="Helvetica,sans-Serif" font-size="10.00">+Lava</text>
<text text-anchor="middle" x="54.5" y="-90" font-family="Helvetica,sans-Serif" font-size="10.00">+Shimmer</text>
<text text-anchor="middle" x="54.5" y="-79" font-family="Helvetica,sans-Serif" font-size="10.00">+Water</text>
</g>
</g>
</svg>
