<?xml version="1.0" encoding="UTF-8" standalone="no"?>
<!DOCTYPE svg PUBLIC "-//W3C//DTD SVG 1.1//EN"
 "http://www.w3.org/Graphics/SVG/1.1/DTD/svg11.dtd">
<!-- Generated by graphviz version 2.43.0 (0)
 -->
<!-- Title: DrowningShader.ProcessHighDetail Pages: 1 -->
<svg width="361pt" height="78pt"
 viewBox="0.00 0.00 361.00 77.50" xmlns="http://www.w3.org/2000/svg" xmlns:xlink="http://www.w3.org/1999/xlink">
<g id="graph0" class="graph" transform="scale(1 1) rotate(0) translate(4 73.5)">
<title>DrowningShader.ProcessHighDetail</title>
<polygon fill="white" stroke="transparent" points="-4,4 -4,-73.5 357,-73.5 357,4 -4,4"/>
<!-- Node1 -->
<g id="node1" class="node">
<title>Node1</title>
<g id="a_node1"><a xlink:title=" ">
<polygon fill="#bfbfbf" stroke="black" points="0,-17 0,-47 159,-47 159,-17 0,-17"/>
<text text-anchor="start" x="8" y="-35" font-family="Helvetica,sans-Serif" font-size="10.00">DrowningShader.ProcessHigh</text>
<text text-anchor="middle" x="79.5" y="-24" font-family="Helvetica,sans-Serif" font-size="10.00">Detail</text>
</a>
</g>
</g>
<!-- Node2 -->
<g id="node2" class="node">
<title>Node2</title>
<g id="a_node2"><a xlink:href="../../d2/d27/classFragment_a2b0b13420b51b8d3f5765d0750c43a80.html#a2b0b13420b51b8d3f5765d0750c43a80" target="_top" xlink:title=" ">
<polygon fill="white" stroke="black" points="195,-39 195,-69 353,-69 353,-39 195,-39"/>
<text text-anchor="start" x="203" y="-57" font-family="Helvetica,sans-Serif" font-size="10.00">Fragment.GetCanvasPosition</text>
<text text-anchor="middle" x="274" y="-46" font-family="Helvetica,sans-Serif" font-size="10.00">OfIndex</text>
</a>
</g>
</g>
<!-- Node1&#45;&gt;Node2 -->
<g id="edge1" class="edge">
<title>Node1&#45;&gt;Node2</title>
<path fill="none" stroke="midnightblue" d="M159.07,-40.98C167.59,-41.95 176.3,-42.95 184.92,-43.93"/>
<polygon fill="midnightblue" stroke="midnightblue" points="184.66,-47.43 194.99,-45.08 185.45,-40.47 184.66,-47.43"/>
</g>
<!-- Node3 -->
<g id="node3" class="node">
<title>Node3</title>
<g id="a_node3"><a xlink:href="../../d2/d27/classFragment_af2709c2dd6e4b8f65ba6403ec27286ad.html#af2709c2dd6e4b8f65ba6403ec27286ad" target="_top" xlink:title=" ">
<polygon fill="white" stroke="black" points="220.5,-0.5 220.5,-19.5 327.5,-19.5 327.5,-0.5 220.5,-0.5"/>
<text text-anchor="middle" x="274" y="-7.5" font-family="Helvetica,sans-Serif" font-size="10.00">Fragment.SetColor</text>
</a>
</g>
</g>
<!-- Node1&#45;&gt;Node3 -->
<g id="edge2" class="edge">
<title>Node1&#45;&gt;Node3</title>
<path fill="none" stroke="midnightblue" d="M159.07,-23.02C176.12,-21.07 193.93,-19.04 210.27,-17.17"/>
<polygon fill="midnightblue" stroke="midnightblue" points="210.7,-20.64 220.24,-16.03 209.9,-13.69 210.7,-20.64"/>
</g>
</g>
</svg>
