<?xml version="1.0" encoding="UTF-8" standalone="no"?>
<!DOCTYPE svg PUBLIC "-//W3C//DTD SVG 1.1//EN"
 "http://www.w3.org/Graphics/SVG/1.1/DTD/svg11.dtd">
<!-- Generated by graphviz version 2.43.0 (0)
 -->
<!-- Title: Terraria.Graphics.Capture.CaptureInterface.ModeEdgeSelection Pages: 1 -->
<svg width="199pt" height="440pt"
 viewBox="0.00 0.00 199.00 440.00" xmlns="http://www.w3.org/2000/svg" xmlns:xlink="http://www.w3.org/1999/xlink">
<g id="graph0" class="graph" transform="scale(1 1) rotate(0) translate(4 436)">
<title>Terraria.Graphics.Capture.CaptureInterface.ModeEdgeSelection</title>
<!-- Node1 -->
<g id="Node000001" class="node">
<title>Node1</title>
<g id="a_Node000001"><a xlink:title=" ">
<polygon fill="#999999" stroke="transparent" points="191,-194 0,-194 0,0 191,0 191,-194"/>
<text text-anchor="start" x="5.5" y="-182" font-family="Helvetica,sans-Serif" font-size="10.00">Terraria.Graphics.Capture.</text>
<text text-anchor="start" x="5.5" y="-171" font-family="Helvetica,sans-Serif" font-size="10.00">CaptureInterface.ModeEdgeSelection</text>
<text text-anchor="start" x="94" y="-156" font-family="Helvetica,sans-Serif" font-size="10.00"> </text>
<text text-anchor="start" x="5.5" y="-141" font-family="Helvetica,sans-Serif" font-size="10.00">+</text>
<text text-anchor="start" x="19.5" y="-141" font-family="Helvetica,sans-Serif" font-size="10.00">override void Update()</text>
<text text-anchor="start" x="5.5" y="-126" font-family="Helvetica,sans-Serif" font-size="10.00">+</text>
<text text-anchor="start" x="19.5" y="-126" font-family="Helvetica,sans-Serif" font-size="10.00">override void Draw</text>
<text text-anchor="start" x="19.5" y="-115" font-family="Helvetica,sans-Serif" font-size="10.00">(SpriteBatch sb)</text>
<text text-anchor="start" x="5.5" y="-100" font-family="Helvetica,sans-Serif" font-size="10.00">+</text>
<text text-anchor="start" x="19.5" y="-100" font-family="Helvetica,sans-Serif" font-size="10.00">override void ToggleActive</text>
<text text-anchor="start" x="19.5" y="-89" font-family="Helvetica,sans-Serif" font-size="10.00">(bool tickedOn)</text>
<text text-anchor="start" x="5.5" y="-74" font-family="Helvetica,sans-Serif" font-size="10.00">+</text>
<text text-anchor="start" x="19.5" y="-74" font-family="Helvetica,sans-Serif" font-size="10.00">override bool UsingMap()</text>
<text text-anchor="start" x="8" y="-59" font-family="Helvetica,sans-Serif" font-size="10.00">&#45;</text>
<text text-anchor="start" x="19.5" y="-59" font-family="Helvetica,sans-Serif" font-size="10.00">void EdgePlacement</text>
<text text-anchor="start" x="19.5" y="-48" font-family="Helvetica,sans-Serif" font-size="10.00">(Vector2 mouse)</text>
<text text-anchor="start" x="8" y="-33" font-family="Helvetica,sans-Serif" font-size="10.00">&#45;</text>
<text text-anchor="start" x="19.5" y="-33" font-family="Helvetica,sans-Serif" font-size="10.00">void DrawMarkedArea</text>
<text text-anchor="start" x="19.5" y="-22" font-family="Helvetica,sans-Serif" font-size="10.00">(SpriteBatch sb)</text>
<text text-anchor="start" x="8" y="-7" font-family="Helvetica,sans-Serif" font-size="10.00">&#45;</text>
<text text-anchor="start" x="19.5" y="-7" font-family="Helvetica,sans-Serif" font-size="10.00">void DrawCursors(SpriteBatch sb)</text>
<polygon fill="#666666" stroke="#666666" points="0.5,-166 0.5,-166 191.5,-166 191.5,-166 0.5,-166"/>
<polygon fill="#666666" stroke="#666666" points="0.5,-151 0.5,-151 191.5,-151 191.5,-151 0.5,-151"/>
<polygon fill="none" stroke="#666666" points="0,0 0,-194 191,-194 191,0 0,0"/>
</a>
</g>
</g>
<!-- Node2 -->
<g id="Node000002" class="node">
<title>Node2</title>
<g id="a_Node000002"><a xlink:href="../../d6/d83/classTerraria_1_1Graphics_1_1Capture_1_1CaptureInterface_1_1CaptureInterfaceMode.html" target="_top" xlink:title=" ">
<polygon fill="white" stroke="transparent" points="170,-336 21,-336 21,-231 170,-231 170,-336"/>
<text text-anchor="start" x="41.5" y="-323.5" font-family="Helvetica,sans-Serif" font-size="10.00">CaptureInterfaceMode</text>
<text text-anchor="start" x="94" y="-308.5" font-family="Helvetica,sans-Serif" font-size="10.00"> </text>
<text text-anchor="start" x="25.5" y="-293.5" font-family="Helvetica,sans-Serif" font-size="10.00">+</text>
<text text-anchor="start" x="38.5" y="-293.5" font-family="Helvetica,sans-Serif" font-size="10.00">void Update()</text>
<text text-anchor="start" x="25.5" y="-278.5" font-family="Helvetica,sans-Serif" font-size="10.00">+</text>
<text text-anchor="start" x="38.5" y="-278.5" font-family="Helvetica,sans-Serif" font-size="10.00">void Draw(SpriteBatch sb)</text>
<text text-anchor="start" x="25.5" y="-263.5" font-family="Helvetica,sans-Serif" font-size="10.00">+</text>
<text text-anchor="start" x="38.5" y="-263.5" font-family="Helvetica,sans-Serif" font-size="10.00">void ToggleActive(bool</text>
<text text-anchor="start" x="38.5" y="-252.5" font-family="Helvetica,sans-Serif" font-size="10.00"> tickedOn)</text>
<text text-anchor="start" x="25.5" y="-237.5" font-family="Helvetica,sans-Serif" font-size="10.00">+</text>
<text text-anchor="start" x="38.5" y="-237.5" font-family="Helvetica,sans-Serif" font-size="10.00">bool UsingMap()</text>
<polygon fill="#666666" stroke="#666666" points="21.5,-318.5 21.5,-318.5 170.5,-318.5 170.5,-318.5 21.5,-318.5"/>
<polygon fill="#666666" stroke="#666666" points="21.5,-303.5 21.5,-303.5 170.5,-303.5 170.5,-303.5 21.5,-303.5"/>
<polygon fill="none" stroke="#666666" points="21,-231 21,-336 170,-336 170,-231 21,-231"/>
</a>
</g>
</g>
<!-- Node2&#45;&gt;Node1 -->
<g id="edge1_Node000001_Node000002" class="edge">
<title>Node2&#45;&gt;Node1</title>
<g id="a_edge1_Node000001_Node000002"><a xlink:title=" ">
<path fill="none" stroke="#63b8ff" d="M95.5,-220.49C95.5,-212.02 95.5,-203.16 95.5,-194.25"/>
<polygon fill="none" stroke="#63b8ff" points="92,-220.62 95.5,-230.62 99,-220.62 92,-220.62"/>
</a>
</g>
</g>
<!-- Node3 -->
<g id="Node000003" class="node">
<title>Node3</title>
<g id="a_Node000003"><a xlink:href="../../d9/db9/classbool.html" target="_top" xlink:title=" ">
<polygon fill="white" stroke="transparent" points="111.5,-432 79.5,-432 79.5,-383 111.5,-383 111.5,-432"/>
<text text-anchor="start" x="84.5" y="-419.5" font-family="Helvetica,sans-Serif" font-size="10.00">bool</text>
<text text-anchor="start" x="93.5" y="-404.5" font-family="Helvetica,sans-Serif" font-size="10.00"> </text>
<text text-anchor="start" x="93.5" y="-389.5" font-family="Helvetica,sans-Serif" font-size="10.00"> </text>
<polygon fill="#666666" stroke="#666666" points="79.5,-414.5 79.5,-414.5 111.5,-414.5 111.5,-414.5 79.5,-414.5"/>
<polygon fill="#666666" stroke="#666666" points="79.5,-399.5 79.5,-399.5 111.5,-399.5 111.5,-399.5 79.5,-399.5"/>
<polygon fill="none" stroke="#666666" points="79.5,-383 79.5,-432 111.5,-432 111.5,-383 79.5,-383"/>
</a>
</g>
</g>
<!-- Node3&#45;&gt;Node2 -->
<g id="edge2_Node000002_Node000003" class="edge">
<title>Node3&#45;&gt;Node2</title>
<g id="a_edge2_Node000002_Node000003"><a xlink:title=" ">
<path fill="none" stroke="#63b8ff" d="M95.5,-382.98C95.5,-373.01 95.5,-360.85 95.5,-348.54"/>
<polygon fill="none" stroke="#63b8ff" points="95.5,-348.24 91.5,-342.24 95.5,-336.24 99.5,-342.24 95.5,-348.24"/>
</a>
</g>
<text text-anchor="middle" x="122.5" y="-357" font-family="Helvetica,sans-Serif" font-size="10.00" fill="grey"> +Selected</text>
</g>
</g>
</svg>
