<?xml version="1.0" encoding="UTF-8" standalone="no"?>
<!DOCTYPE svg PUBLIC "-//W3C//DTD SVG 1.1//EN"
 "http://www.w3.org/Graphics/SVG/1.1/DTD/svg11.dtd">
<!-- Generated by graphviz version 2.43.0 (0)
 -->
<!-- Title: PopupText.FindNextItemTextSlot Pages: 1 -->
<svg width="2214pt" height="691pt"
 viewBox="0.00 0.00 2214.00 690.50" xmlns="http://www.w3.org/2000/svg" xmlns:xlink="http://www.w3.org/1999/xlink">
<g id="graph0" class="graph" transform="scale(1 1) rotate(0) translate(4 686.5)">
<title>PopupText.FindNextItemTextSlot</title>
<polygon fill="white" stroke="transparent" points="-4,4 -4,-686.5 2210,-686.5 2210,4 -4,4"/>
<!-- Node1 -->
<g id="node1" class="node">
<title>Node1</title>
<g id="a_node1"><a xlink:title=" ">
<polygon fill="#bfbfbf" stroke="black" points="2031,-225 2031,-244 2206,-244 2206,-225 2031,-225"/>
<text text-anchor="middle" x="2118.5" y="-232" font-family="Helvetica,sans-Serif" font-size="10.00">PopupText.FindNextItemTextSlot</text>
</a>
</g>
</g>
<!-- Node2 -->
<g id="node2" class="node">
<title>Node2</title>
<g id="a_node2"><a xlink:href="../../d3/d52/classPopupText_a7035a385cd01045b33efebb06ece248c.html#a7035a385cd01045b33efebb06ece248c" target="_top" xlink:title=" ">
<polygon fill="white" stroke="black" points="1883,-225 1883,-244 1995,-244 1995,-225 1883,-225"/>
<text text-anchor="middle" x="1939" y="-232" font-family="Helvetica,sans-Serif" font-size="10.00">PopupText.NewText</text>
</a>
</g>
</g>
<!-- Node1&#45;&gt;Node2 -->
<g id="edge1" class="edge">
<title>Node1&#45;&gt;Node2</title>
<path fill="none" stroke="midnightblue" d="M2020.59,-234.5C2011.89,-234.5 2003.3,-234.5 1995.15,-234.5"/>
<polygon fill="midnightblue" stroke="midnightblue" points="2020.83,-238 2030.83,-234.5 2020.83,-231 2020.83,-238"/>
</g>
<!-- Node3 -->
<g id="node3" class="node">
<title>Node3</title>
<g id="a_node3"><a xlink:href="../../d9/d4b/classProjectile_a9952d639d42bcc8422d8d0307412a361.html#a9952d639d42bcc8422d8d0307412a361" target="_top" xlink:title=" ">
<polygon fill="white" stroke="black" points="1680,-434.5 1680,-464.5 1823,-464.5 1823,-434.5 1680,-434.5"/>
<text text-anchor="start" x="1688" y="-452.5" font-family="Helvetica,sans-Serif" font-size="10.00">Projectile.AI_061_Fishing</text>
<text text-anchor="middle" x="1751.5" y="-441.5" font-family="Helvetica,sans-Serif" font-size="10.00">Bobber_GiveItemToPlayer</text>
</a>
</g>
</g>
<!-- Node2&#45;&gt;Node3 -->
<g id="edge2" class="edge">
<title>Node2&#45;&gt;Node3</title>
<path fill="none" stroke="midnightblue" d="M1934.29,-254.11C1925.93,-292.79 1901.88,-379.08 1847,-424.5 1840.07,-430.23 1831.96,-434.67 1823.45,-438.09"/>
<polygon fill="midnightblue" stroke="midnightblue" points="1937.76,-254.63 1936.32,-244.13 1930.9,-253.23 1937.76,-254.63"/>
</g>
<!-- Node4 -->
<g id="node4" class="node">
<title>Node4</title>
<g id="a_node4"><a xlink:href="../../db/d4a/classMain_a8952597ad8cb0b69c8934606a283e162.html#a8952597ad8cb0b69c8934606a283e162" target="_top" xlink:title=" ">
<polygon fill="white" stroke="black" points="1707,-303 1707,-322 1796,-322 1796,-303 1707,-303"/>
<text text-anchor="middle" x="1751.5" y="-310" font-family="Helvetica,sans-Serif" font-size="10.00">Main.CraftItem</text>
</a>
</g>
</g>
<!-- Node2&#45;&gt;Node4 -->
<g id="edge3" class="edge">
<title>Node2&#45;&gt;Node4</title>
<path fill="none" stroke="midnightblue" d="M1915.17,-249.7C1897.24,-261.09 1871.33,-276.39 1847,-286.5 1830.82,-293.23 1812.36,-298.75 1796.07,-302.95"/>
<polygon fill="midnightblue" stroke="midnightblue" points="1917.26,-252.51 1923.76,-244.14 1913.46,-246.63 1917.26,-252.51"/>
</g>
<!-- Node6 -->
<g id="node6" class="node">
<title>Node6</title>
<g id="a_node6"><a xlink:href="../../db/d4a/classMain_ac23e03f1a3a425224bfed8bc8eae8397.html#ac23e03f1a3a425224bfed8bc8eae8397" target="_top" xlink:title=" ">
<polygon fill="white" stroke="black" points="1268.5,-262 1268.5,-281 1384.5,-281 1384.5,-262 1268.5,-262"/>
<text text-anchor="middle" x="1326.5" y="-269" font-family="Helvetica,sans-Serif" font-size="10.00">Main.DrawInventory</text>
</a>
</g>
</g>
<!-- Node2&#45;&gt;Node6 -->
<g id="edge12" class="edge">
<title>Node2&#45;&gt;Node6</title>
<path fill="none" stroke="midnightblue" d="M1889.95,-246.14C1876.16,-249.04 1861.05,-251.8 1847,-253.5 1679.91,-273.69 1480.56,-274.01 1384.63,-272.7"/>
<polygon fill="midnightblue" stroke="midnightblue" points="1890.69,-249.56 1899.72,-244.01 1889.2,-242.72 1890.69,-249.56"/>
</g>
<!-- Node12 -->
<g id="node12" class="node">
<title>Node12</title>
<g id="a_node12"><a xlink:href="../../d2/d4b/classPlayer_a8c6fd30d30b3b62f856185a27d914bdc.html#a8c6fd30d30b3b62f856185a27d914bdc" target="_top" xlink:title=" ">
<polygon fill="white" stroke="black" points="1703.5,-225 1703.5,-244 1799.5,-244 1799.5,-225 1703.5,-225"/>
<text text-anchor="middle" x="1751.5" y="-232" font-family="Helvetica,sans-Serif" font-size="10.00">Player.FillAmmo</text>
</a>
</g>
</g>
<!-- Node2&#45;&gt;Node12 -->
<g id="edge13" class="edge">
<title>Node2&#45;&gt;Node12</title>
<path fill="none" stroke="midnightblue" d="M1872.7,-234.5C1848.6,-234.5 1821.78,-234.5 1799.6,-234.5"/>
<polygon fill="midnightblue" stroke="midnightblue" points="1872.85,-238 1882.85,-234.5 1872.85,-231 1872.85,-238"/>
</g>
<!-- Node13 -->
<g id="node13" class="node">
<title>Node13</title>
<g id="a_node13"><a xlink:href="../../d9/d4b/classProjectile_a58c6bcc46a0ccf15ead92bda6eb702df.html#a58c6bcc46a0ccf15ead92bda6eb702df" target="_top" xlink:title=" ">
<polygon fill="white" stroke="black" points="1686.5,-187 1686.5,-206 1816.5,-206 1816.5,-187 1686.5,-187"/>
<text text-anchor="middle" x="1751.5" y="-194" font-family="Helvetica,sans-Serif" font-size="10.00">Projectile.FishingCheck</text>
</a>
</g>
</g>
<!-- Node2&#45;&gt;Node13 -->
<g id="edge14" class="edge">
<title>Node2&#45;&gt;Node13</title>
<path fill="none" stroke="midnightblue" d="M1882.53,-222.85C1870.8,-220.41 1858.49,-217.86 1847,-215.5 1831.92,-212.41 1815.47,-209.09 1800.59,-206.1"/>
<polygon fill="midnightblue" stroke="midnightblue" points="1882.15,-226.35 1892.65,-224.96 1883.58,-219.49 1882.15,-226.35"/>
</g>
<!-- Node14 -->
<g id="node14" class="node">
<title>Node14</title>
<g id="a_node14"><a xlink:href="../../d2/d4b/classPlayer_a1855631dfdf86b4b708442a2b874aaba.html#a1855631dfdf86b4b708442a2b874aaba" target="_top" xlink:title=" ">
<polygon fill="white" stroke="black" points="1256.5,-300.5 1256.5,-330.5 1396.5,-330.5 1396.5,-300.5 1256.5,-300.5"/>
<text text-anchor="start" x="1264.5" y="-318.5" font-family="Helvetica,sans-Serif" font-size="10.00">Player.GetItem_FillEmpty</text>
<text text-anchor="middle" x="1326.5" y="-307.5" font-family="Helvetica,sans-Serif" font-size="10.00">InventorySlot</text>
</a>
</g>
</g>
<!-- Node2&#45;&gt;Node14 -->
<g id="edge15" class="edge">
<title>Node2&#45;&gt;Node14</title>
<path fill="none" stroke="midnightblue" d="M1927.24,-252.86C1912.48,-276.04 1883.59,-314.89 1847,-331.5 1687.61,-403.88 1471.46,-357.37 1376.11,-330.6"/>
<polygon fill="midnightblue" stroke="midnightblue" points="1930.26,-254.62 1932.51,-244.27 1924.3,-250.96 1930.26,-254.62"/>
</g>
<!-- Node15 -->
<g id="node15" class="node">
<title>Node15</title>
<g id="a_node15"><a xlink:href="../../d2/d4b/classPlayer_ad632d74a346191fda2759caca6f4e36f.html#ad632d74a346191fda2759caca6f4e36f" target="_top" xlink:title=" ">
<polygon fill="white" stroke="black" points="1681.5,-137.5 1681.5,-167.5 1821.5,-167.5 1821.5,-137.5 1681.5,-137.5"/>
<text text-anchor="start" x="1689.5" y="-155.5" font-family="Helvetica,sans-Serif" font-size="10.00">Player.GetItem_FillEmpty</text>
<text text-anchor="middle" x="1751.5" y="-144.5" font-family="Helvetica,sans-Serif" font-size="10.00">InventorySlot_VoidBag</text>
</a>
</g>
</g>
<!-- Node2&#45;&gt;Node15 -->
<g id="edge16" class="edge">
<title>Node2&#45;&gt;Node15</title>
<path fill="none" stroke="midnightblue" d="M1916.96,-218.75C1899.14,-206.05 1872.49,-188.55 1847,-177.5 1838.28,-173.72 1828.85,-170.4 1819.45,-167.51"/>
<polygon fill="midnightblue" stroke="midnightblue" points="1915.27,-221.85 1925.42,-224.89 1919.39,-216.18 1915.27,-221.85"/>
</g>
<!-- Node16 -->
<g id="node16" class="node">
<title>Node16</title>
<g id="a_node16"><a xlink:href="../../d2/d4b/classPlayer_a560577476e327f215418314840741465.html#a560577476e327f215418314840741465" target="_top" xlink:title=" ">
<polygon fill="white" stroke="black" points="1656,-99 1656,-118 1847,-118 1847,-99 1656,-99"/>
<text text-anchor="middle" x="1751.5" y="-106" font-family="Helvetica,sans-Serif" font-size="10.00">Player.GetItem_FillIntoOccupiedSlot</text>
</a>
</g>
</g>
<!-- Node2&#45;&gt;Node16 -->
<g id="edge17" class="edge">
<title>Node2&#45;&gt;Node16</title>
<path fill="none" stroke="midnightblue" d="M1927.67,-215.97C1913.05,-191.58 1883.94,-149.25 1847,-127.5 1840.51,-123.68 1833.38,-120.61 1826.04,-118.16"/>
<polygon fill="midnightblue" stroke="midnightblue" points="1924.83,-218.04 1932.87,-224.93 1930.88,-214.53 1924.83,-218.04"/>
</g>
<!-- Node17 -->
<g id="node17" class="node">
<title>Node17</title>
<g id="a_node17"><a xlink:href="../../d2/d4b/classPlayer_ab98d70363d9a068bf4ed42a2b82ce811.html#ab98d70363d9a068bf4ed42a2b82ce811" target="_top" xlink:title=" ">
<polygon fill="white" stroke="black" points="1665,-49.5 1665,-79.5 1838,-79.5 1838,-49.5 1665,-49.5"/>
<text text-anchor="start" x="1673" y="-67.5" font-family="Helvetica,sans-Serif" font-size="10.00">Player.GetItem_FillIntoOccupied</text>
<text text-anchor="middle" x="1751.5" y="-56.5" font-family="Helvetica,sans-Serif" font-size="10.00">Slot_VoidBag</text>
</a>
</g>
</g>
<!-- Node2&#45;&gt;Node17 -->
<g id="edge18" class="edge">
<title>Node2&#45;&gt;Node17</title>
<path fill="none" stroke="midnightblue" d="M1931.31,-215.29C1919.4,-184.01 1891.54,-122.28 1847,-89.5 1841.81,-85.68 1836.07,-82.44 1830.07,-79.69"/>
<polygon fill="midnightblue" stroke="midnightblue" points="1928.13,-216.79 1934.85,-224.98 1934.71,-214.39 1928.13,-216.79"/>
</g>
<!-- Node18 -->
<g id="node18" class="node">
<title>Node18</title>
<g id="a_node18"><a xlink:href="../../d2/d4b/classPlayer_adbc5f7d8d94fac475aa8e1f4a901d860.html#adbc5f7d8d94fac475aa8e1f4a901d860" target="_top" xlink:title=" ">
<polygon fill="white" stroke="black" points="1680,-0.5 1680,-30.5 1823,-30.5 1823,-0.5 1680,-0.5"/>
<text text-anchor="start" x="1688" y="-18.5" font-family="Helvetica,sans-Serif" font-size="10.00">Player.PutItemInInventory</text>
<text text-anchor="middle" x="1751.5" y="-7.5" font-family="Helvetica,sans-Serif" font-size="10.00">FromItemUsage</text>
</a>
</g>
</g>
<!-- Node2&#45;&gt;Node18 -->
<g id="edge19" class="edge">
<title>Node2&#45;&gt;Node18</title>
<path fill="none" stroke="midnightblue" d="M1934.54,-214.59C1926.59,-174.95 1903.17,-86 1847,-39.5 1839.96,-33.67 1831.68,-29.23 1823.01,-25.86"/>
<polygon fill="midnightblue" stroke="midnightblue" points="1931.14,-215.41 1936.43,-224.59 1938.02,-214.12 1931.14,-215.41"/>
</g>
<!-- Node19 -->
<g id="node19" class="node">
<title>Node19</title>
<g id="a_node19"><a xlink:href="../../d3/dfc/classLucyAxeMessage_a327d2c4b5776960b8df317464d7f1e93.html#a327d2c4b5776960b8df317464d7f1e93" target="_top" xlink:title=" ">
<polygon fill="white" stroke="black" points="1658.5,-396 1658.5,-415 1844.5,-415 1844.5,-396 1658.5,-396"/>
<text text-anchor="middle" x="1751.5" y="-403" font-family="Helvetica,sans-Serif" font-size="10.00">LucyAxeMessage.SpawnPopupText</text>
</a>
</g>
</g>
<!-- Node2&#45;&gt;Node19 -->
<g id="edge20" class="edge">
<title>Node2&#45;&gt;Node19</title>
<path fill="none" stroke="midnightblue" d="M1930.47,-253.46C1917.7,-283.25 1889.03,-340.96 1847,-373.5 1833.58,-383.89 1816.58,-391.02 1800.72,-395.85"/>
<polygon fill="midnightblue" stroke="midnightblue" points="1933.72,-254.75 1934.32,-244.17 1927.26,-252.07 1933.72,-254.75"/>
</g>
<!-- Node5 -->
<g id="node5" class="node">
<title>Node5</title>
<g id="a_node5"><a xlink:href="../../db/d4a/classMain_ad0b8c83b8870535ad2c9d9c07e79cb9f.html#ad0b8c83b8870535ad2c9d9c07e79cb9f" target="_top" xlink:title=" ">
<polygon fill="white" stroke="black" points="1452.5,-300.5 1452.5,-330.5 1609.5,-330.5 1609.5,-300.5 1452.5,-300.5"/>
<text text-anchor="start" x="1460.5" y="-318.5" font-family="Helvetica,sans-Serif" font-size="10.00">Main.HoverOverCraftingItem</text>
<text text-anchor="middle" x="1531" y="-307.5" font-family="Helvetica,sans-Serif" font-size="10.00">Button</text>
</a>
</g>
</g>
<!-- Node4&#45;&gt;Node5 -->
<g id="edge4" class="edge">
<title>Node4&#45;&gt;Node5</title>
<path fill="none" stroke="midnightblue" d="M1696.7,-313.24C1670.48,-313.6 1638.47,-314.04 1609.67,-314.43"/>
<polygon fill="midnightblue" stroke="midnightblue" points="1696.86,-316.74 1706.81,-313.1 1696.76,-309.74 1696.86,-316.74"/>
</g>
<!-- Node5&#45;&gt;Node6 -->
<g id="edge5" class="edge">
<title>Node5&#45;&gt;Node6</title>
<path fill="none" stroke="midnightblue" d="M1451.01,-298.34C1423.9,-292.45 1394.56,-286.07 1371.28,-281.01"/>
<polygon fill="midnightblue" stroke="midnightblue" points="1450.36,-301.78 1460.88,-300.48 1451.85,-294.94 1450.36,-301.78"/>
</g>
<!-- Node7 -->
<g id="node7" class="node">
<title>Node7</title>
<g id="a_node7"><a xlink:href="../../db/d4a/classMain_ab9585a9a2fbc71c67b8ae3a91c5ef880.html#ab9585a9a2fbc71c67b8ae3a91c5ef880" target="_top" xlink:title=" ">
<polygon fill="white" stroke="black" points="1075,-257.5 1075,-287.5 1188,-287.5 1188,-257.5 1075,-257.5"/>
<text text-anchor="start" x="1083" y="-275.5" font-family="Helvetica,sans-Serif" font-size="10.00">Main.DrawInterface</text>
<text text-anchor="middle" x="1131.5" y="-264.5" font-family="Helvetica,sans-Serif" font-size="10.00">_27_Inventory</text>
</a>
</g>
</g>
<!-- Node6&#45;&gt;Node7 -->
<g id="edge6" class="edge">
<title>Node6&#45;&gt;Node7</title>
<path fill="none" stroke="midnightblue" d="M1258.07,-271.85C1235.22,-271.97 1209.97,-272.1 1188.15,-272.21"/>
<polygon fill="midnightblue" stroke="midnightblue" points="1258.4,-275.35 1268.38,-271.8 1258.36,-268.35 1258.4,-275.35"/>
</g>
<!-- Node8 -->
<g id="node8" class="node">
<title>Node8</title>
<g id="a_node8"><a xlink:href="../../db/d4a/classMain_aaf00fdabdb1a5736ff0443825f2d4324.html#aaf00fdabdb1a5736ff0443825f2d4324" target="_top" xlink:title=" ">
<polygon fill="white" stroke="black" points="840.5,-264 840.5,-283 1013.5,-283 1013.5,-264 840.5,-264"/>
<text text-anchor="middle" x="927" y="-271" font-family="Helvetica,sans-Serif" font-size="10.00">Main.SetupDrawInterfaceLayers</text>
</a>
</g>
</g>
<!-- Node7&#45;&gt;Node8 -->
<g id="edge7" class="edge">
<title>Node7&#45;&gt;Node8</title>
<path fill="none" stroke="midnightblue" d="M1064.5,-272.83C1048.34,-272.91 1030.82,-272.99 1013.88,-273.08"/>
<polygon fill="midnightblue" stroke="midnightblue" points="1064.92,-276.32 1074.9,-272.77 1064.88,-269.32 1064.92,-276.32"/>
</g>
<!-- Node9 -->
<g id="node9" class="node">
<title>Node9</title>
<g id="a_node9"><a xlink:href="../../db/d4a/classMain_a394be66e030c385131f8239af0bd3af0.html#a394be66e030c385131f8239af0bd3af0" target="_top" xlink:title=" ">
<polygon fill="white" stroke="black" points="666.5,-278 666.5,-297 779.5,-297 779.5,-278 666.5,-278"/>
<text text-anchor="middle" x="723" y="-285" font-family="Helvetica,sans-Serif" font-size="10.00">Main.DrawInterface</text>
</a>
</g>
</g>
<!-- Node8&#45;&gt;Node9 -->
<g id="edge8" class="edge">
<title>Node8&#45;&gt;Node9</title>
<path fill="none" stroke="midnightblue" d="M830.17,-280.14C812.84,-281.34 795.31,-282.56 779.63,-283.64"/>
<polygon fill="midnightblue" stroke="midnightblue" points="830.6,-283.62 840.33,-279.44 830.12,-276.64 830.6,-283.62"/>
</g>
<!-- Node10 -->
<g id="node10" class="node">
<title>Node10</title>
<g id="a_node10"><a xlink:href="../../db/d4a/classMain_a4ca48570ee8c9e54ed5371ecb4ab1877.html#a4ca48570ee8c9e54ed5371ecb4ab1877" target="_top" xlink:title=" ">
<polygon fill="white" stroke="black" points="498,-300 498,-319 581,-319 581,-300 498,-300"/>
<text text-anchor="middle" x="539.5" y="-307" font-family="Helvetica,sans-Serif" font-size="10.00">Main.DoDraw</text>
</a>
</g>
</g>
<!-- Node9&#45;&gt;Node10 -->
<g id="edge9" class="edge">
<title>Node9&#45;&gt;Node10</title>
<path fill="none" stroke="midnightblue" d="M655.91,-295.51C630.93,-298.54 603.26,-301.89 581.27,-304.56"/>
<polygon fill="midnightblue" stroke="midnightblue" points="656.56,-298.96 666.06,-294.28 655.71,-292.01 656.56,-298.96"/>
</g>
<!-- Node11 -->
<g id="node11" class="node">
<title>Node11</title>
<g id="a_node11"><a xlink:href="../../db/d4a/classMain_a9df405f7c9ce2e93e9af9bbf70231672.html#a9df405f7c9ce2e93e9af9bbf70231672" target="_top" xlink:title=" ">
<polygon fill="white" stroke="black" points="316,-300 316,-319 385,-319 385,-300 316,-300"/>
<text text-anchor="middle" x="350.5" y="-307" font-family="Helvetica,sans-Serif" font-size="10.00">Main.Draw</text>
</a>
</g>
</g>
<!-- Node10&#45;&gt;Node11 -->
<g id="edge10" class="edge">
<title>Node10&#45;&gt;Node11</title>
<path fill="none" stroke="midnightblue" d="M487.68,-303.42C455.08,-302.32 413.67,-302.57 385.12,-304.17"/>
<polygon fill="midnightblue" stroke="midnightblue" points="487.79,-306.93 497.92,-303.82 488.07,-299.93 487.79,-306.93"/>
</g>
<!-- Node11&#45;&gt;Node10 -->
<g id="edge11" class="edge">
<title>Node11&#45;&gt;Node10</title>
<path fill="none" stroke="midnightblue" d="M395.22,-315.32C426.26,-316.61 467.62,-316.56 497.92,-315.18"/>
<polygon fill="midnightblue" stroke="midnightblue" points="395.28,-311.81 385.12,-314.83 394.94,-318.81 395.28,-311.81"/>
</g>
<!-- Node20 -->
<g id="node20" class="node">
<title>Node20</title>
<g id="a_node20"><a xlink:href="../../d3/dfc/classLucyAxeMessage_adc6e24a2093e415f1eea1658f99e88c4.html#adc6e24a2093e415f1eea1658f99e88c4" target="_top" xlink:title=" ">
<polygon fill="white" stroke="black" points="1463,-404 1463,-423 1599,-423 1599,-404 1463,-404"/>
<text text-anchor="middle" x="1531" y="-411" font-family="Helvetica,sans-Serif" font-size="10.00">LucyAxeMessage.Create</text>
</a>
</g>
</g>
<!-- Node19&#45;&gt;Node20 -->
<g id="edge21" class="edge">
<title>Node19&#45;&gt;Node20</title>
<path fill="none" stroke="midnightblue" d="M1648.13,-409.25C1631.46,-409.86 1614.57,-410.48 1599.03,-411.05"/>
<polygon fill="midnightblue" stroke="midnightblue" points="1648.6,-412.73 1658.47,-408.87 1648.35,-405.74 1648.6,-412.73"/>
</g>
<!-- Node38 -->
<g id="node36" class="node">
<title>Node38</title>
<g id="a_node36"><a xlink:href="../../d3/dfc/classLucyAxeMessage_a2b33107a580711074fc5b4d98a9bba84.html#a2b33107a580711074fc5b4d98a9bba84" target="_top" xlink:title=" ">
<polygon fill="white" stroke="black" points="1442,-508 1442,-527 1620,-527 1620,-508 1442,-508"/>
<text text-anchor="middle" x="1531" y="-515" font-family="Helvetica,sans-Serif" font-size="10.00">LucyAxeMessage.CreateFromNet</text>
</a>
</g>
</g>
<!-- Node19&#45;&gt;Node38 -->
<g id="edge41" class="edge">
<title>Node19&#45;&gt;Node38</title>
<path fill="none" stroke="midnightblue" d="M1676.91,-417.8C1669.71,-419.97 1662.62,-422.52 1656,-425.5 1608.35,-446.98 1561.34,-489.12 1541.65,-507.98"/>
<polygon fill="midnightblue" stroke="midnightblue" points="1678.08,-421.11 1686.78,-415.06 1676.2,-414.36 1678.08,-421.11"/>
</g>
<!-- Node20&#45;&gt;Node14 -->
<g id="edge23" class="edge">
<title>Node20&#45;&gt;Node14</title>
<path fill="none" stroke="midnightblue" d="M1493.69,-400.18C1477.24,-393.35 1457.95,-384.22 1442,-373.5 1423.73,-361.22 1425.02,-350.56 1406,-339.5 1400.21,-336.13 1393.9,-333.19 1387.46,-330.64"/>
<polygon fill="midnightblue" stroke="midnightblue" points="1492.42,-403.44 1503,-403.92 1495.03,-396.94 1492.42,-403.44"/>
</g>
<!-- Node21 -->
<g id="node21" class="node">
<title>Node21</title>
<g id="a_node21"><a xlink:href="../../d2/d4b/classPlayer_a3edb8184c074f06402af4cb767dbc039.html#a3edb8184c074f06402af4cb767dbc039" target="_top" xlink:title=" ">
<polygon fill="white" stroke="black" points="1258,-448 1258,-467 1395,-467 1395,-448 1258,-448"/>
<text text-anchor="middle" x="1326.5" y="-455" font-family="Helvetica,sans-Serif" font-size="10.00">Player.DropSelectedItem</text>
</a>
</g>
</g>
<!-- Node20&#45;&gt;Node21 -->
<g id="edge22" class="edge">
<title>Node20&#45;&gt;Node21</title>
<path fill="none" stroke="midnightblue" d="M1476.19,-425.19C1443.43,-432.31 1402.12,-441.29 1371.35,-447.97"/>
<polygon fill="midnightblue" stroke="midnightblue" points="1477.03,-428.59 1486.06,-423.05 1475.55,-421.75 1477.03,-428.59"/>
</g>
<!-- Node22 -->
<g id="node22" class="node">
<title>Node22</title>
<g id="a_node22"><a xlink:href="../../d2/d4b/classPlayer_af1dc02e34fa17a6793d837c54c2ac4f4.html#af1dc02e34fa17a6793d837c54c2ac4f4" target="_top" xlink:title=" ">
<polygon fill="white" stroke="black" points="1052,-491.5 1052,-521.5 1211,-521.5 1211,-491.5 1052,-491.5"/>
<text text-anchor="start" x="1060" y="-509.5" font-family="Helvetica,sans-Serif" font-size="10.00">Player.ItemCheck_UseMining</text>
<text text-anchor="middle" x="1131.5" y="-498.5" font-family="Helvetica,sans-Serif" font-size="10.00">Tools_ActuallyUseMiningTool</text>
</a>
</g>
</g>
<!-- Node20&#45;&gt;Node22 -->
<g id="edge24" class="edge">
<title>Node20&#45;&gt;Node22</title>
<path fill="none" stroke="midnightblue" d="M1506.69,-428.59C1482.54,-443.43 1443.18,-465.42 1406,-476.5 1342.14,-495.53 1266.66,-502.73 1211.2,-505.34"/>
<polygon fill="midnightblue" stroke="midnightblue" points="1508.84,-431.37 1515.46,-423.1 1505.13,-425.44 1508.84,-431.37"/>
</g>
<!-- Node23 -->
<g id="node23" class="node">
<title>Node23</title>
<g id="a_node23"><a xlink:href="../../d3/dfc/classLucyAxeMessage_a987d2d3b0c7e5ea1088ac19c63fc9684.html#a987d2d3b0c7e5ea1088ac19c63fc9684" target="_top" xlink:title=" ">
<polygon fill="white" stroke="black" points="1254,-349.5 1254,-379.5 1399,-379.5 1399,-349.5 1254,-349.5"/>
<text text-anchor="start" x="1262" y="-367.5" font-family="Helvetica,sans-Serif" font-size="10.00">LucyAxeMessage.ItemSlot</text>
<text text-anchor="middle" x="1326.5" y="-356.5" font-family="Helvetica,sans-Serif" font-size="10.00">_OnItemTransferred</text>
</a>
</g>
</g>
<!-- Node20&#45;&gt;Node23 -->
<g id="edge25" class="edge">
<title>Node20&#45;&gt;Node23</title>
<path fill="none" stroke="midnightblue" d="M1480.71,-401.57C1453.29,-394.94 1418.89,-386.61 1389.64,-379.54"/>
<polygon fill="midnightblue" stroke="midnightblue" points="1479.93,-404.99 1490.48,-403.94 1481.58,-398.18 1479.93,-404.99"/>
</g>
<!-- Node32 -->
<g id="node30" class="node">
<title>Node32</title>
<g id="a_node30"><a xlink:href="../../d3/dfc/classLucyAxeMessage_a3f27c254ba7e135ea5cca8538e3c40bf.html#a3f27c254ba7e135ea5cca8538e3c40bf" target="_top" xlink:title=" ">
<polygon fill="white" stroke="black" points="1247,-524.5 1247,-554.5 1406,-554.5 1406,-524.5 1247,-524.5"/>
<text text-anchor="start" x="1255" y="-542.5" font-family="Helvetica,sans-Serif" font-size="10.00">LucyAxeMessage.TryCreating</text>
<text text-anchor="middle" x="1326.5" y="-531.5" font-family="Helvetica,sans-Serif" font-size="10.00">MessageWithCooldown</text>
</a>
</g>
</g>
<!-- Node20&#45;&gt;Node32 -->
<g id="edge33" class="edge">
<title>Node20&#45;&gt;Node32</title>
<path fill="none" stroke="midnightblue" d="M1512.21,-430.03C1489.15,-450.79 1447.01,-486.46 1406,-509.5 1395.95,-515.15 1384.63,-520.16 1373.78,-524.4"/>
<polygon fill="midnightblue" stroke="midnightblue" points="1514.77,-432.43 1519.81,-423.11 1510.06,-427.26 1514.77,-432.43"/>
</g>
<!-- Node33 -->
<g id="node31" class="node">
<title>Node33</title>
<g id="a_node31"><a xlink:href="../../d3/dfc/classLucyAxeMessage_a34f41cf79aa2c462d2b282bd792cf800.html#a34f41cf79aa2c462d2b282bd792cf800" target="_top" xlink:title=" ">
<polygon fill="white" stroke="black" points="1249.5,-398.5 1249.5,-428.5 1403.5,-428.5 1403.5,-398.5 1249.5,-398.5"/>
<text text-anchor="start" x="1257.5" y="-416.5" font-family="Helvetica,sans-Serif" font-size="10.00">LucyAxeMessage.TryPlaying</text>
<text text-anchor="middle" x="1326.5" y="-405.5" font-family="Helvetica,sans-Serif" font-size="10.00">IdleMessage</text>
</a>
</g>
</g>
<!-- Node20&#45;&gt;Node33 -->
<g id="edge35" class="edge">
<title>Node20&#45;&gt;Node33</title>
<path fill="none" stroke="midnightblue" d="M1452.45,-413.5C1436.42,-413.5 1419.55,-413.5 1403.56,-413.5"/>
<polygon fill="midnightblue" stroke="midnightblue" points="1452.85,-417 1462.85,-413.5 1452.85,-410 1452.85,-417"/>
</g>
<!-- Node24 -->
<g id="node24" class="node">
<title>Node24</title>
<g id="a_node24"><a xlink:href="../../d3/dfc/classLucyAxeMessage_a54aa60e848e93b17c08e7009407fc290.html#a54aa60e848e93b17c08e7009407fc290" target="_top" xlink:title=" ">
<polygon fill="white" stroke="black" points="1058.5,-355 1058.5,-374 1204.5,-374 1204.5,-355 1058.5,-355"/>
<text text-anchor="middle" x="1131.5" y="-362" font-family="Helvetica,sans-Serif" font-size="10.00">LucyAxeMessage.Initialize</text>
</a>
</g>
</g>
<!-- Node23&#45;&gt;Node24 -->
<g id="edge26" class="edge">
<title>Node23&#45;&gt;Node24</title>
<path fill="none" stroke="midnightblue" d="M1243.61,-364.5C1230.65,-364.5 1217.33,-364.5 1204.62,-364.5"/>
<polygon fill="midnightblue" stroke="midnightblue" points="1243.91,-368 1253.91,-364.5 1243.91,-361 1243.91,-368"/>
</g>
<!-- Node25 -->
<g id="node25" class="node">
<title>Node25</title>
<g id="a_node25"><a xlink:href="../../db/d4a/classMain_a25342c33fe017340cbe3a4d633951101.html#a25342c33fe017340cbe3a4d633951101" target="_top" xlink:title=" ">
<polygon fill="white" stroke="black" points="838,-355 838,-374 1016,-374 1016,-355 838,-355"/>
<text text-anchor="middle" x="927" y="-362" font-family="Helvetica,sans-Serif" font-size="10.00">Main.Initialize_AlmostEverything</text>
</a>
</g>
</g>
<!-- Node24&#45;&gt;Node25 -->
<g id="edge27" class="edge">
<title>Node24&#45;&gt;Node25</title>
<path fill="none" stroke="midnightblue" d="M1048.23,-364.5C1037.67,-364.5 1026.82,-364.5 1016.17,-364.5"/>
<polygon fill="midnightblue" stroke="midnightblue" points="1048.25,-368 1058.25,-364.5 1048.25,-361 1048.25,-368"/>
</g>
<!-- Node26 -->
<g id="node26" class="node">
<title>Node26</title>
<g id="a_node26"><a xlink:href="../../db/d4a/classMain_a5db4144feae3a661cf25ae1acf553895.html#a5db4144feae3a661cf25ae1acf553895" target="_top" xlink:title=" ">
<polygon fill="white" stroke="black" points="672.5,-319 672.5,-338 773.5,-338 773.5,-319 672.5,-319"/>
<text text-anchor="middle" x="723" y="-326" font-family="Helvetica,sans-Serif" font-size="10.00">Main.DrawSplash</text>
</a>
</g>
</g>
<!-- Node25&#45;&gt;Node26 -->
<g id="edge28" class="edge">
<title>Node25&#45;&gt;Node26</title>
<path fill="none" stroke="midnightblue" d="M862.74,-353.23C834.07,-348.12 800.66,-342.16 773.81,-337.38"/>
<polygon fill="midnightblue" stroke="midnightblue" points="862.2,-356.69 872.66,-354.99 863.43,-349.79 862.2,-356.69"/>
</g>
<!-- Node27 -->
<g id="node27" class="node">
<title>Node27</title>
<g id="a_node27"><a xlink:href="../../db/d4a/classMain_ad5aa3256b312cc9cfd98baeb2233727c.html#ad5aa3256b312cc9cfd98baeb2233727c" target="_top" xlink:title=" ">
<polygon fill="white" stroke="black" points="496.5,-358 496.5,-377 582.5,-377 582.5,-358 496.5,-358"/>
<text text-anchor="middle" x="539.5" y="-365" font-family="Helvetica,sans-Serif" font-size="10.00">Main.Initialize</text>
</a>
</g>
</g>
<!-- Node25&#45;&gt;Node27 -->
<g id="edge30" class="edge">
<title>Node25&#45;&gt;Node27</title>
<path fill="none" stroke="midnightblue" d="M827.56,-365.27C748.37,-365.88 641,-366.72 582.59,-367.17"/>
<polygon fill="midnightblue" stroke="midnightblue" points="827.59,-368.77 837.56,-365.19 827.53,-361.77 827.59,-368.77"/>
</g>
<!-- Node26&#45;&gt;Node10 -->
<g id="edge29" class="edge">
<title>Node26&#45;&gt;Node10</title>
<path fill="none" stroke="midnightblue" d="M662.42,-322.26C635.8,-319.48 605.09,-316.26 581.16,-313.76"/>
<polygon fill="midnightblue" stroke="midnightblue" points="662.09,-325.75 672.4,-323.31 662.82,-318.79 662.09,-325.75"/>
</g>
<!-- Node28 -->
<g id="node28" class="node">
<title>Node28</title>
<g id="a_node28"><a xlink:href="../../db/d4a/classMain_aa0692b82ef0f39d28df7aae89daa2480.html#aa0692b82ef0f39d28df7aae89daa2480" target="_top" xlink:title=" ">
<polygon fill="white" stroke="black" points="145,-378 145,-397 230,-397 230,-378 145,-378"/>
<text text-anchor="middle" x="187.5" y="-385" font-family="Helvetica,sans-Serif" font-size="10.00">Main.DedServ</text>
</a>
</g>
</g>
<!-- Node27&#45;&gt;Node28 -->
<g id="edge31" class="edge">
<title>Node27&#45;&gt;Node28</title>
<path fill="none" stroke="midnightblue" d="M485.94,-370.5C416.04,-374.5 293.89,-381.48 230.05,-385.13"/>
<polygon fill="midnightblue" stroke="midnightblue" points="486.5,-373.98 496.28,-369.91 486.1,-366.99 486.5,-373.98"/>
</g>
<!-- Node29 -->
<g id="node29" class="node">
<title>Node29</title>
<g id="a_node29"><a xlink:href="../../dc/db5/classProgram_a7046fff16d913c8ea7291c3efa4cb4ed.html#a7046fff16d913c8ea7291c3efa4cb4ed" target="_top" xlink:title=" ">
<polygon fill="white" stroke="red" points="0,-378 0,-397 109,-397 109,-378 0,-378"/>
<text text-anchor="middle" x="54.5" y="-385" font-family="Helvetica,sans-Serif" font-size="10.00">Program.RunGame</text>
</a>
</g>
</g>
<!-- Node28&#45;&gt;Node29 -->
<g id="edge32" class="edge">
<title>Node28&#45;&gt;Node29</title>
<path fill="none" stroke="midnightblue" d="M134.44,-387.5C126.2,-387.5 117.65,-387.5 109.37,-387.5"/>
<polygon fill="midnightblue" stroke="midnightblue" points="134.69,-391 144.69,-387.5 134.69,-384 134.69,-391"/>
</g>
<!-- Node32&#45;&gt;Node22 -->
<g id="edge34" class="edge">
<title>Node32&#45;&gt;Node22</title>
<path fill="none" stroke="midnightblue" d="M1236.98,-524.36C1228.39,-522.9 1219.72,-521.41 1211.24,-519.96"/>
<polygon fill="midnightblue" stroke="midnightblue" points="1236.55,-527.84 1247,-526.08 1237.73,-520.94 1236.55,-527.84"/>
</g>
<!-- Node34 -->
<g id="node32" class="node">
<title>Node34</title>
<g id="a_node32"><a xlink:href="../../d2/d4b/classPlayer_aa2c6519d3a48c038839ea039bb371460.html#aa2c6519d3a48c038839ea039bb371460" target="_top" xlink:title=" ">
<polygon fill="white" stroke="black" points="1089,-404 1089,-423 1174,-423 1174,-404 1089,-404"/>
<text text-anchor="middle" x="1131.5" y="-411" font-family="Helvetica,sans-Serif" font-size="10.00">Player.Update</text>
</a>
</g>
</g>
<!-- Node33&#45;&gt;Node34 -->
<g id="edge36" class="edge">
<title>Node33&#45;&gt;Node34</title>
<path fill="none" stroke="midnightblue" d="M1239.2,-413.5C1216.62,-413.5 1193.29,-413.5 1174.22,-413.5"/>
<polygon fill="midnightblue" stroke="midnightblue" points="1239.5,-417 1249.5,-413.5 1239.5,-410 1239.5,-417"/>
</g>
<!-- Node35 -->
<g id="node33" class="node">
<title>Node35</title>
<g id="a_node33"><a xlink:href="../../db/d4a/classMain_a9c63b91be69d3b0b29cab6aaf41b520f.html#a9c63b91be69d3b0b29cab6aaf41b520f" target="_top" xlink:title=" ">
<polygon fill="white" stroke="black" points="862.5,-404 862.5,-423 991.5,-423 991.5,-404 862.5,-404"/>
<text text-anchor="middle" x="927" y="-411" font-family="Helvetica,sans-Serif" font-size="10.00">Main.DoUpdateInWorld</text>
</a>
</g>
</g>
<!-- Node34&#45;&gt;Node35 -->
<g id="edge37" class="edge">
<title>Node34&#45;&gt;Node35</title>
<path fill="none" stroke="midnightblue" d="M1078.37,-413.5C1051.98,-413.5 1019.72,-413.5 991.85,-413.5"/>
<polygon fill="midnightblue" stroke="midnightblue" points="1078.54,-417 1088.54,-413.5 1078.54,-410 1078.54,-417"/>
</g>
<!-- Node36 -->
<g id="node34" class="node">
<title>Node36</title>
<g id="a_node34"><a xlink:href="../../db/d4a/classMain_a04b0697fe556a643c9811ab59495dacd.html#a04b0697fe556a643c9811ab59495dacd" target="_top" xlink:title=" ">
<polygon fill="white" stroke="black" points="493.5,-404 493.5,-423 585.5,-423 585.5,-404 493.5,-404"/>
<text text-anchor="middle" x="539.5" y="-411" font-family="Helvetica,sans-Serif" font-size="10.00">Main.DoUpdate</text>
</a>
</g>
</g>
<!-- Node35&#45;&gt;Node36 -->
<g id="edge38" class="edge">
<title>Node35&#45;&gt;Node36</title>
<path fill="none" stroke="midnightblue" d="M852,-413.5C773.2,-413.5 651.02,-413.5 585.55,-413.5"/>
<polygon fill="midnightblue" stroke="midnightblue" points="852.34,-417 862.34,-413.5 852.34,-410 852.34,-417"/>
</g>
<!-- Node37 -->
<g id="node35" class="node">
<title>Node37</title>
<g id="a_node35"><a xlink:href="../../db/d4a/classMain_ae1995a6cd30001bd0b4eb2ade469d462.html#ae1995a6cd30001bd0b4eb2ade469d462" target="_top" xlink:title=" ">
<polygon fill="white" stroke="black" points="311,-399 311,-418 390,-418 390,-399 311,-399"/>
<text text-anchor="middle" x="350.5" y="-406" font-family="Helvetica,sans-Serif" font-size="10.00">Main.Update</text>
</a>
</g>
</g>
<!-- Node36&#45;&gt;Node37 -->
<g id="edge39" class="edge">
<title>Node36&#45;&gt;Node37</title>
<path fill="none" stroke="midnightblue" d="M482.93,-412.01C453.01,-411.21 416.85,-410.25 390.03,-409.53"/>
<polygon fill="midnightblue" stroke="midnightblue" points="483.14,-415.52 493.23,-412.29 483.33,-408.52 483.14,-415.52"/>
</g>
<!-- Node37&#45;&gt;Node28 -->
<g id="edge40" class="edge">
<title>Node37&#45;&gt;Node28</title>
<path fill="none" stroke="midnightblue" d="M300.88,-402.16C278.31,-399.21 251.76,-395.75 230.13,-392.93"/>
<polygon fill="midnightblue" stroke="midnightblue" points="300.57,-405.65 310.94,-403.47 301.47,-398.71 300.57,-405.65"/>
</g>
<!-- Node39 -->
<g id="node37" class="node">
<title>Node39</title>
<g id="a_node37"><a xlink:href="../../df/d9d/classMessageBuffer_a579cda2888a9a367b8635b9080c94a39.html#a579cda2888a9a367b8635b9080c94a39" target="_top" xlink:title=" ">
<polygon fill="white" stroke="black" points="1260.5,-574 1260.5,-593 1392.5,-593 1392.5,-574 1260.5,-574"/>
<text text-anchor="middle" x="1326.5" y="-581" font-family="Helvetica,sans-Serif" font-size="10.00">MessageBuffer.GetData</text>
</a>
</g>
</g>
<!-- Node38&#45;&gt;Node39 -->
<g id="edge42" class="edge">
<title>Node38&#45;&gt;Node39</title>
<path fill="none" stroke="midnightblue" d="M1498.15,-530.83C1473.33,-540.91 1437.84,-554.65 1406,-564.5 1394.88,-567.94 1382.72,-571.14 1371.36,-573.91"/>
<polygon fill="midnightblue" stroke="midnightblue" points="1499.51,-534.05 1507.44,-527.03 1496.86,-527.58 1499.51,-534.05"/>
</g>
<!-- Node40 -->
<g id="node38" class="node">
<title>Node40</title>
<g id="a_node38"><a xlink:href="../../dc/d81/classNetMessage_a8f9598403300241239adf3387329877b.html#a8f9598403300241239adf3387329877b" target="_top" xlink:title=" ">
<polygon fill="white" stroke="black" points="1062.5,-563 1062.5,-582 1200.5,-582 1200.5,-563 1062.5,-563"/>
<text text-anchor="middle" x="1131.5" y="-570" font-family="Helvetica,sans-Serif" font-size="10.00">NetMessage.CheckBytes</text>
</a>
</g>
</g>
<!-- Node39&#45;&gt;Node40 -->
<g id="edge43" class="edge">
<title>Node39&#45;&gt;Node40</title>
<path fill="none" stroke="midnightblue" d="M1250.35,-579.22C1233.95,-578.28 1216.69,-577.3 1200.59,-576.38"/>
<polygon fill="midnightblue" stroke="midnightblue" points="1250.25,-582.72 1260.43,-579.79 1250.64,-575.73 1250.25,-582.72"/>
</g>
<!-- Node41 -->
<g id="node39" class="node">
<title>Node41</title>
<g id="a_node39"><a xlink:href="../../d9/d43/classNetplay_aa51004bde61130683ddf3943f46708f3.html#aa51004bde61130683ddf3943f46708f3" target="_top" xlink:title=" ">
<polygon fill="white" stroke="black" points="860.5,-585 860.5,-604 993.5,-604 993.5,-585 860.5,-585"/>
<text text-anchor="middle" x="927" y="-592" font-family="Helvetica,sans-Serif" font-size="10.00">Netplay.InnerClientLoop</text>
</a>
</g>
</g>
<!-- Node40&#45;&gt;Node41 -->
<g id="edge44" class="edge">
<title>Node40&#45;&gt;Node41</title>
<path fill="none" stroke="midnightblue" d="M1052.22,-581C1032.84,-583.11 1012.28,-585.34 993.58,-587.38"/>
<polygon fill="midnightblue" stroke="midnightblue" points="1052.66,-584.48 1062.23,-579.92 1051.91,-577.52 1052.66,-584.48"/>
</g>
<!-- Node62 -->
<g id="node48" class="node">
<title>Node62</title>
<g id="a_node48"><a xlink:href="../../d9/d43/classNetplay_a1d565aba028375ad0cfbe2fbbf3ba074.html#a1d565aba028375ad0cfbe2fbbf3ba074" target="_top" xlink:title=" ">
<polygon fill="white" stroke="black" points="850.5,-486.5 850.5,-516.5 1003.5,-516.5 1003.5,-486.5 850.5,-486.5"/>
<text text-anchor="start" x="858.5" y="-504.5" font-family="Helvetica,sans-Serif" font-size="10.00">Netplay.UpdateClientInMain</text>
<text text-anchor="middle" x="927" y="-493.5" font-family="Helvetica,sans-Serif" font-size="10.00">Thread</text>
</a>
</g>
</g>
<!-- Node40&#45;&gt;Node62 -->
<g id="edge53" class="edge">
<title>Node40&#45;&gt;Node62</title>
<path fill="none" stroke="midnightblue" d="M1099.61,-559.06C1076.75,-549.37 1044.73,-536.32 1016,-526.5 1005.93,-523.06 995.1,-519.7 984.61,-516.63"/>
<polygon fill="midnightblue" stroke="midnightblue" points="1098.24,-562.28 1108.81,-562.99 1100.98,-555.84 1098.24,-562.28"/>
</g>
<!-- Node64 -->
<g id="node50" class="node">
<title>Node64</title>
<g id="a_node50"><a xlink:href="../../d9/d43/classNetplay_ac1ed25c26842f4ebc49600aabb748d79.html#ac1ed25c26842f4ebc49600aabb748d79" target="_top" xlink:title=" ">
<polygon fill="white" stroke="black" points="849,-535.5 849,-565.5 1005,-565.5 1005,-535.5 849,-535.5"/>
<text text-anchor="start" x="857" y="-553.5" font-family="Helvetica,sans-Serif" font-size="10.00">Netplay.UpdateServerInMain</text>
<text text-anchor="middle" x="927" y="-542.5" font-family="Helvetica,sans-Serif" font-size="10.00">Thread</text>
</a>
</g>
</g>
<!-- Node40&#45;&gt;Node64 -->
<g id="edge56" class="edge">
<title>Node40&#45;&gt;Node64</title>
<path fill="none" stroke="midnightblue" d="M1052.18,-563.99C1036.71,-562.31 1020.48,-560.55 1005.04,-558.87"/>
<polygon fill="midnightblue" stroke="midnightblue" points="1051.91,-567.48 1062.23,-565.08 1052.66,-560.52 1051.91,-567.48"/>
</g>
<!-- Node42 -->
<g id="node40" class="node">
<title>Node42</title>
<g id="a_node40"><a xlink:href="../../d9/d43/classNetplay_a3e9cd925db762ba5216b26b7902fe747.html#a3e9cd925db762ba5216b26b7902fe747" target="_top" xlink:title=" ">
<polygon fill="white" stroke="black" points="654.5,-564 654.5,-583 791.5,-583 791.5,-564 654.5,-564"/>
<text text-anchor="middle" x="723" y="-571" font-family="Helvetica,sans-Serif" font-size="10.00">Netplay.SocialClientLoop</text>
</a>
</g>
</g>
<!-- Node41&#45;&gt;Node42 -->
<g id="edge45" class="edge">
<title>Node41&#45;&gt;Node42</title>
<path fill="none" stroke="midnightblue" d="M850.46,-586.65C831.17,-584.64 810.55,-582.5 791.68,-580.54"/>
<polygon fill="midnightblue" stroke="midnightblue" points="850.11,-590.13 860.42,-587.68 850.83,-583.17 850.11,-590.13"/>
</g>
<!-- Node52 -->
<g id="node43" class="node">
<title>Node52</title>
<g id="a_node43"><a xlink:href="../../d9/d43/classNetplay_aae9569d1172d19c4f1a6fc81f2b4d469.html#aae9569d1172d19c4f1a6fc81f2b4d469" target="_top" xlink:title=" ">
<polygon fill="white" stroke="black" points="661,-605 661,-624 785,-624 785,-605 661,-605"/>
<text text-anchor="middle" x="723" y="-612" font-family="Helvetica,sans-Serif" font-size="10.00">Netplay.TcpClientLoop</text>
</a>
</g>
</g>
<!-- Node41&#45;&gt;Node52 -->
<g id="edge48" class="edge">
<title>Node41&#45;&gt;Node52</title>
<path fill="none" stroke="midnightblue" d="M850.34,-601.99C828.83,-604.12 805.68,-606.41 785.14,-608.45"/>
<polygon fill="midnightblue" stroke="midnightblue" points="850.81,-605.46 860.42,-600.99 850.12,-598.5 850.81,-605.46"/>
</g>
<!-- Node43 -->
<g id="node41" class="node">
<title>Node43</title>
<g id="a_node41"><a xlink:href="../../d9/d43/classNetplay_aa38bbb2de38149c83989ecbeaa17eb9f.html#aa38bbb2de38149c83989ecbeaa17eb9f" target="_top" xlink:title=" ">
<polygon fill="white" stroke="black" points="471,-544 471,-563 608,-563 608,-544 471,-544"/>
<text text-anchor="middle" x="539.5" y="-551" font-family="Helvetica,sans-Serif" font-size="10.00">Netplay.StartSocialClient</text>
</a>
</g>
</g>
<!-- Node42&#45;&gt;Node43 -->
<g id="edge46" class="edge">
<title>Node42&#45;&gt;Node43</title>
<path fill="none" stroke="midnightblue" d="M644.38,-564.95C632.33,-563.62 619.95,-562.26 608.14,-560.95"/>
<polygon fill="midnightblue" stroke="midnightblue" points="644.09,-568.44 654.42,-566.05 644.86,-561.48 644.09,-568.44"/>
</g>
<!-- Node44 -->
<g id="node42" class="node">
<title>Node44</title>
<g id="a_node42"><a xlink:href="../../d9/d43/classNetplay_a1754af82e28f7da0551c22def5bb724d.html#a1754af82e28f7da0551c22def5bb724d" target="_top" xlink:title=" ">
<polygon fill="white" stroke="red" points="270,-537.5 270,-567.5 431,-567.5 431,-537.5 270,-537.5"/>
<text text-anchor="start" x="278" y="-555.5" font-family="Helvetica,sans-Serif" font-size="10.00">Netplay.OnConnectedToSocial</text>
<text text-anchor="middle" x="350.5" y="-544.5" font-family="Helvetica,sans-Serif" font-size="10.00">Server</text>
</a>
</g>
</g>
<!-- Node43&#45;&gt;Node44 -->
<g id="edge47" class="edge">
<title>Node43&#45;&gt;Node44</title>
<path fill="none" stroke="midnightblue" d="M460.83,-553.08C450.98,-553.03 440.89,-552.98 431.01,-552.93"/>
<polygon fill="midnightblue" stroke="midnightblue" points="460.97,-556.59 470.99,-553.14 461.01,-549.59 460.97,-556.59"/>
</g>
<!-- Node53 -->
<g id="node44" class="node">
<title>Node53</title>
<g id="a_node44"><a xlink:href="../../d9/d43/classNetplay_a3f443befeca543d0dcc4a1874bcdfbff.html#a3f443befeca543d0dcc4a1874bcdfbff" target="_top" xlink:title=" ">
<polygon fill="white" stroke="black" points="477.5,-606 477.5,-625 601.5,-625 601.5,-606 477.5,-606"/>
<text text-anchor="middle" x="539.5" y="-613" font-family="Helvetica,sans-Serif" font-size="10.00">Netplay.StartTcpClient</text>
</a>
</g>
</g>
<!-- Node52&#45;&gt;Node53 -->
<g id="edge49" class="edge">
<title>Node52&#45;&gt;Node53</title>
<path fill="none" stroke="midnightblue" d="M650.38,-614.89C634.29,-614.98 617.36,-615.08 601.74,-615.16"/>
<polygon fill="midnightblue" stroke="midnightblue" points="650.82,-618.39 660.81,-614.84 650.79,-611.39 650.82,-618.39"/>
</g>
<!-- Node54 -->
<g id="node45" class="node">
<title>Node54</title>
<g id="a_node45"><a xlink:href="../../db/d4a/classMain_af3afb54b5ca7b6966866351b80524994.html#af3afb54b5ca7b6966866351b80524994" target="_top" xlink:title=" ">
<polygon fill="white" stroke="red" points="266,-587 266,-606 435,-606 435,-587 266,-587"/>
<text text-anchor="middle" x="350.5" y="-594" font-family="Helvetica,sans-Serif" font-size="10.00">Main.OnSubmitServerPassword</text>
</a>
</g>
</g>
<!-- Node53&#45;&gt;Node54 -->
<g id="edge50" class="edge">
<title>Node53&#45;&gt;Node54</title>
<path fill="none" stroke="midnightblue" d="M467.03,-608.24C456.65,-607.18 445.88,-606.09 435.28,-605.01"/>
<polygon fill="midnightblue" stroke="midnightblue" points="466.97,-611.75 477.27,-609.28 467.67,-604.79 466.97,-611.75"/>
</g>
<!-- Node57 -->
<g id="node46" class="node">
<title>Node57</title>
<g id="a_node46"><a xlink:href="../../db/d4a/classMain_a0612c217f46f58621a6b704c9e2c823c.html#a0612c217f46f58621a6b704c9e2c823c" target="_top" xlink:title=" ">
<polygon fill="white" stroke="red" points="298.5,-663 298.5,-682 402.5,-682 402.5,-663 298.5,-663"/>
<text text-anchor="middle" x="350.5" y="-670" font-family="Helvetica,sans-Serif" font-size="10.00">Main.SelectPlayer</text>
</a>
</g>
</g>
<!-- Node53&#45;&gt;Node57 -->
<g id="edge51" class="edge">
<title>Node53&#45;&gt;Node57</title>
<path fill="none" stroke="midnightblue" d="M505.59,-628.81C485.43,-636.65 458.98,-646.4 435,-653.5 423.17,-657 410.23,-660.23 398.15,-663"/>
<polygon fill="midnightblue" stroke="midnightblue" points="506.92,-632.05 514.95,-625.13 504.36,-625.53 506.92,-632.05"/>
</g>
<!-- Node60 -->
<g id="node47" class="node">
<title>Node60</title>
<g id="a_node47"><a xlink:href="../../db/d4a/classMain_ab208579586ed425ef1f10cf76653ffe9.html#ab208579586ed425ef1f10cf76653ffe9" target="_top" xlink:title=" ">
<polygon fill="white" stroke="red" points="277.5,-625 277.5,-644 423.5,-644 423.5,-625 277.5,-625"/>
<text text-anchor="middle" x="350.5" y="-632" font-family="Helvetica,sans-Serif" font-size="10.00">Main.StartClientGameplay</text>
</a>
</g>
</g>
<!-- Node53&#45;&gt;Node60 -->
<g id="edge52" class="edge">
<title>Node53&#45;&gt;Node60</title>
<path fill="none" stroke="midnightblue" d="M467.05,-622.76C452.82,-624.21 437.86,-625.73 423.6,-627.17"/>
<polygon fill="midnightblue" stroke="midnightblue" points="467.67,-626.21 477.27,-621.72 466.97,-619.25 467.67,-626.21"/>
</g>
<!-- Node63 -->
<g id="node49" class="node">
<title>Node63</title>
<g id="a_node49"><a xlink:href="../../d9/d43/classNetplay_a4c50e501e00e21da10238312a0d9239f.html#a4c50e501e00e21da10238312a0d9239f" target="_top" xlink:title=" ">
<polygon fill="white" stroke="black" points="644,-492 644,-511 802,-511 802,-492 644,-492"/>
<text text-anchor="middle" x="723" y="-499" font-family="Helvetica,sans-Serif" font-size="10.00">Netplay.UpdateInMainThread</text>
</a>
</g>
</g>
<!-- Node62&#45;&gt;Node63 -->
<g id="edge54" class="edge">
<title>Node62&#45;&gt;Node63</title>
<path fill="none" stroke="midnightblue" d="M840.39,-501.5C827.69,-501.5 814.65,-501.5 802.11,-501.5"/>
<polygon fill="midnightblue" stroke="midnightblue" points="840.5,-505 850.5,-501.5 840.5,-498 840.5,-505"/>
</g>
<!-- Node63&#45;&gt;Node36 -->
<g id="edge55" class="edge">
<title>Node63&#45;&gt;Node36</title>
<path fill="none" stroke="midnightblue" d="M692.93,-487.4C655.73,-469.37 592.28,-438.6 560.24,-423.07"/>
<polygon fill="midnightblue" stroke="midnightblue" points="691.71,-490.7 702.23,-491.91 694.76,-484.4 691.71,-490.7"/>
</g>
<!-- Node64&#45;&gt;Node63 -->
<g id="edge57" class="edge">
<title>Node64&#45;&gt;Node63</title>
<path fill="none" stroke="midnightblue" d="M854.24,-533.09C823.62,-525.67 789.09,-517.29 763.28,-511.03"/>
<polygon fill="midnightblue" stroke="midnightblue" points="853.48,-536.51 864.02,-535.47 855.13,-529.71 853.48,-536.51"/>
</g>
</g>
</svg>
