<?xml version="1.0" encoding="UTF-8" standalone="no"?>
<!DOCTYPE svg PUBLIC "-//W3C//DTD SVG 1.1//EN"
 "http://www.w3.org/Graphics/SVG/1.1/DTD/svg11.dtd">
<!-- Generated by graphviz version 2.43.0 (0)
 -->
<!-- Title: Wiring.ToggleCampFire Pages: 1 -->
<svg width="1202pt" height="1658pt"
 viewBox="0.00 0.00 1202.00 1658.00" xmlns="http://www.w3.org/2000/svg" xmlns:xlink="http://www.w3.org/1999/xlink">
<g id="graph0" class="graph" transform="scale(1 1) rotate(0) translate(4 1654)">
<title>Wiring.ToggleCampFire</title>
<polygon fill="white" stroke="transparent" points="-4,4 -4,-1654 1198,-1654 1198,4 -4,4"/>
<!-- Node1 -->
<g id="node1" class="node">
<title>Node1</title>
<g id="a_node1"><a xlink:title=" ">
<polygon fill="#bfbfbf" stroke="black" points="0,-481.5 0,-500.5 129,-500.5 129,-481.5 0,-481.5"/>
<text text-anchor="middle" x="64.5" y="-488.5" font-family="Helvetica,sans-Serif" font-size="10.00">Wiring.ToggleCampFire</text>
</a>
</g>
</g>
<!-- Node2 -->
<g id="node2" class="node">
<title>Node2</title>
<g id="a_node2"><a xlink:href="../../dc/d81/classNetMessage_a13d811ff0be4a491b299312207e5a248.html#a13d811ff0be4a491b299312207e5a248" target="_top" xlink:title=" ">
<polygon fill="white" stroke="black" points="165,-481.5 165,-500.5 321,-500.5 321,-481.5 165,-481.5"/>
<text text-anchor="middle" x="243" y="-488.5" font-family="Helvetica,sans-Serif" font-size="10.00">NetMessage.SendTileSquare</text>
</a>
</g>
</g>
<!-- Node1&#45;&gt;Node2 -->
<g id="edge1" class="edge">
<title>Node1&#45;&gt;Node2</title>
<path fill="none" stroke="midnightblue" d="M129.22,-491C137.52,-491 146.14,-491 154.75,-491"/>
<polygon fill="midnightblue" stroke="midnightblue" points="154.83,-494.5 164.83,-491 154.83,-487.5 154.83,-494.5"/>
</g>
<!-- Node3 -->
<g id="node3" class="node">
<title>Node3</title>
<g id="a_node3"><a xlink:href="../../db/de4/classWorldGen_a4aa08f717585ad033d73cf07e411c60e.html#a4aa08f717585ad033d73cf07e411c60e" target="_top" xlink:title=" ">
<polygon fill="white" stroke="black" points="357,-462.5 357,-481.5 485,-481.5 485,-462.5 357,-462.5"/>
<text text-anchor="middle" x="421" y="-469.5" font-family="Helvetica,sans-Serif" font-size="10.00">WorldGen.RangeFrame</text>
</a>
</g>
</g>
<!-- Node2&#45;&gt;Node3 -->
<g id="edge2" class="edge">
<title>Node2&#45;&gt;Node3</title>
<path fill="none" stroke="midnightblue" d="M321.2,-482.67C329.67,-481.75 338.27,-480.82 346.69,-479.91"/>
<polygon fill="midnightblue" stroke="midnightblue" points="347.29,-483.37 356.85,-478.82 346.54,-476.41 347.29,-483.37"/>
</g>
<!-- Node34 -->
<g id="node14" class="node">
<title>Node34</title>
<g id="a_node14"><a xlink:href="../../dc/d81/classNetMessage_aae9f950a067b8cd26edda26e73a41b2d.html#aae9f950a067b8cd26edda26e73a41b2d" target="_top" xlink:title=" ">
<polygon fill="white" stroke="black" points="686,-810.5 686,-829.5 814,-829.5 814,-810.5 686,-810.5"/>
<text text-anchor="middle" x="750" y="-817.5" font-family="Helvetica,sans-Serif" font-size="10.00">NetMessage.SendData</text>
</a>
</g>
</g>
<!-- Node2&#45;&gt;Node34 -->
<g id="edge15" class="edge">
<title>Node2&#45;&gt;Node34</title>
<path fill="none" stroke="midnightblue" d="M258.84,-500.67C330.28,-547.21 638.86,-748.24 726,-805.02"/>
<polygon fill="midnightblue" stroke="midnightblue" points="724.11,-807.96 734.4,-810.49 727.93,-802.1 724.11,-807.96"/>
</g>
<!-- Node4 -->
<g id="node4" class="node">
<title>Node4</title>
<g id="a_node4"><a xlink:href="../../d4/d93/classFraming_ad1b9636bb50acf5deee32b3a8505f629.html#ad1b9636bb50acf5deee32b3a8505f629" target="_top" xlink:title=" ">
<polygon fill="white" stroke="red" points="521,-152.5 521,-171.5 632,-171.5 632,-152.5 521,-152.5"/>
<text text-anchor="middle" x="576.5" y="-159.5" font-family="Helvetica,sans-Serif" font-size="10.00">Framing.WallFrame</text>
</a>
</g>
</g>
<!-- Node3&#45;&gt;Node4 -->
<g id="edge3" class="edge">
<title>Node3&#45;&gt;Node4</title>
<path fill="none" stroke="midnightblue" d="M426.76,-462.38C448.34,-418.81 537.14,-239.47 566.23,-180.73"/>
<polygon fill="midnightblue" stroke="midnightblue" points="569.49,-182.02 570.79,-171.51 563.22,-178.91 569.49,-182.02"/>
</g>
<!-- Node5 -->
<g id="node5" class="node">
<title>Node5</title>
<g id="a_node5"><a xlink:href="../../d6/dba/classTile_a64e4b5e9c17707d5bf63cf590bb48c9b.html#a64e4b5e9c17707d5bf63cf590bb48c9b" target="_top" xlink:title=" ">
<polygon fill="white" stroke="black" points="921,-190.5 921,-209.5 989,-209.5 989,-190.5 921,-190.5"/>
<text text-anchor="middle" x="955" y="-197.5" font-family="Helvetica,sans-Serif" font-size="10.00">Tile.active</text>
</a>
</g>
</g>
<!-- Node4&#45;&gt;Node5 -->
<g id="edge4" class="edge">
<title>Node4&#45;&gt;Node5</title>
<path fill="none" stroke="midnightblue" d="M632.45,-171.13C644.16,-172.9 656.48,-174.63 668,-176 753.76,-186.22 854.5,-193.6 910.62,-197.3"/>
<polygon fill="midnightblue" stroke="midnightblue" points="910.69,-200.82 920.9,-197.97 911.14,-193.83 910.69,-200.82"/>
</g>
<!-- Node6 -->
<g id="node6" class="node">
<title>Node6</title>
<g id="a_node6"><a xlink:href="../../d6/dba/classTile_a259277529cfc1f6cfd4f75c543daea64.html#a259277529cfc1f6cfd4f75c543daea64" target="_top" xlink:title=" ">
<polygon fill="white" stroke="black" points="668,-114.5 668,-133.5 832,-133.5 832,-114.5 668,-114.5"/>
<text text-anchor="middle" x="750" y="-121.5" font-family="Helvetica,sans-Serif" font-size="10.00">Tile.ClearWallPaintAndCoating</text>
</a>
</g>
</g>
<!-- Node4&#45;&gt;Node6 -->
<g id="edge5" class="edge">
<title>Node4&#45;&gt;Node6</title>
<path fill="none" stroke="midnightblue" d="M620.78,-152.41C643.61,-147.35 671.82,-141.1 695.96,-135.75"/>
<polygon fill="midnightblue" stroke="midnightblue" points="697.03,-139.1 706.03,-133.52 695.51,-132.27 697.03,-139.1"/>
</g>
<!-- Node8 -->
<g id="node8" class="node">
<title>Node8</title>
<g id="a_node8"><a xlink:href="../../d6/dba/classTile_a5f91c633897ca90de65f8c0bac41b000.html#a5f91c633897ca90de65f8c0bac41b000" target="_top" xlink:title=" ">
<polygon fill="white" stroke="black" points="905,-114.5 905,-133.5 1005,-133.5 1005,-114.5 905,-114.5"/>
<text text-anchor="middle" x="955" y="-121.5" font-family="Helvetica,sans-Serif" font-size="10.00">Tile.invisibleWall</text>
</a>
</g>
</g>
<!-- Node4&#45;&gt;Node8 -->
<g id="edge9" class="edge">
<title>Node4&#45;&gt;Node8</title>
<path fill="none" stroke="midnightblue" d="M632.23,-159.18C683.85,-156.23 763.33,-150.9 832,-143 852.59,-140.63 875.02,-137.34 894.97,-134.17"/>
<polygon fill="midnightblue" stroke="midnightblue" points="895.54,-137.62 904.85,-132.57 894.42,-130.71 895.54,-137.62"/>
</g>
<!-- Node9 -->
<g id="node9" class="node">
<title>Node9</title>
<g id="a_node9"><a xlink:href="../../d6/dba/classTile_a34554428a8acc3d2525ecad6dadff885.html#a34554428a8acc3d2525ecad6dadff885" target="_top" xlink:title=" ">
<polygon fill="white" stroke="black" points="913.5,-76.5 913.5,-95.5 996.5,-95.5 996.5,-76.5 913.5,-76.5"/>
<text text-anchor="middle" x="955" y="-83.5" font-family="Helvetica,sans-Serif" font-size="10.00">Tile.wallColor</text>
</a>
</g>
</g>
<!-- Node4&#45;&gt;Node9 -->
<g id="edge13" class="edge">
<title>Node4&#45;&gt;Node9</title>
<path fill="none" stroke="midnightblue" d="M588.56,-152.42C604.74,-139.05 636.39,-115.27 668,-105 747.02,-79.32 844.63,-79.06 902.96,-81.98"/>
<polygon fill="midnightblue" stroke="midnightblue" points="902.86,-85.48 913.03,-82.53 903.24,-78.49 902.86,-85.48"/>
</g>
<!-- Node10 -->
<g id="node10" class="node">
<title>Node10</title>
<g id="a_node10"><a xlink:href="../../d6/d9a/classUnifiedRandom_a424f3e9455eb9b0a67085171d7d93d18.html#a424f3e9455eb9b0a67085171d7d93d18" target="_top" xlink:title=" ">
<polygon fill="white" stroke="red" points="691,-0.5 691,-19.5 809,-19.5 809,-0.5 691,-0.5"/>
<text text-anchor="middle" x="750" y="-7.5" font-family="Helvetica,sans-Serif" font-size="10.00">UnifiedRandom.Next</text>
</a>
</g>
</g>
<!-- Node4&#45;&gt;Node10 -->
<g id="edge10" class="edge">
<title>Node4&#45;&gt;Node10</title>
<path fill="none" stroke="midnightblue" d="M581.08,-152.49C590.87,-127.84 620.58,-61.57 668,-29 672.21,-26.11 676.8,-23.66 681.58,-21.57"/>
<polygon fill="midnightblue" stroke="midnightblue" points="682.88,-24.83 690.98,-18 680.39,-18.28 682.88,-24.83"/>
</g>
<!-- Node12 -->
<g id="node11" class="node">
<title>Node12</title>
<g id="a_node11"><a xlink:href="../../db/d4a/classMain_a39a3883e637e0591c01aa18c486a9d9f.html#a39a3883e637e0591c01aa18c486a9d9f" target="_top" xlink:title=" ">
<polygon fill="white" stroke="black" points="678,-267 678,-297 822,-297 822,-267 678,-267"/>
<text text-anchor="start" x="686" y="-285" font-family="Helvetica,sans-Serif" font-size="10.00">Main.ShouldShowInvisible</text>
<text text-anchor="middle" x="750" y="-274" font-family="Helvetica,sans-Serif" font-size="10.00">Walls</text>
</a>
</g>
</g>
<!-- Node4&#45;&gt;Node12 -->
<g id="edge11" class="edge">
<title>Node4&#45;&gt;Node12</title>
<path fill="none" stroke="midnightblue" d="M584.03,-171.63C597.49,-190.73 630.24,-233.61 668,-257 671.35,-259.08 674.89,-260.99 678.54,-262.76"/>
<polygon fill="midnightblue" stroke="midnightblue" points="677.23,-266.01 687.79,-266.84 680.06,-259.6 677.23,-266.01"/>
</g>
<!-- Node13 -->
<g id="node12" class="node">
<title>Node13</title>
<g id="a_node12"><a xlink:href="../../db/de4/classWorldGen_ab244d14a7056c022e2f97b3cbb76af9f.html#ab244d14a7056c022e2f97b3cbb76af9f" target="_top" xlink:title=" ">
<polygon fill="white" stroke="red" points="679.5,-228.5 679.5,-247.5 820.5,-247.5 820.5,-228.5 679.5,-228.5"/>
<text text-anchor="middle" x="750" y="-235.5" font-family="Helvetica,sans-Serif" font-size="10.00">WorldGen.UpdateMapTile</text>
</a>
</g>
</g>
<!-- Node4&#45;&gt;Node13 -->
<g id="edge12" class="edge">
<title>Node4&#45;&gt;Node13</title>
<path fill="none" stroke="midnightblue" d="M591.69,-171.55C609.07,-182.92 639.68,-201.87 668,-214 678.22,-218.38 689.49,-222.27 700.29,-225.57"/>
<polygon fill="midnightblue" stroke="midnightblue" points="699.45,-228.98 710.03,-228.44 701.43,-222.26 699.45,-228.98"/>
</g>
<!-- Node31 -->
<g id="node13" class="node">
<title>Node31</title>
<g id="a_node13"><a xlink:href="../../d6/dba/classTile_a7b136c4f2fcc69890365b9c825132694.html#a7b136c4f2fcc69890365b9c825132694" target="_top" xlink:title=" ">
<polygon fill="white" stroke="black" points="686,-38.5 686,-57.5 814,-57.5 814,-38.5 686,-38.5"/>
<text text-anchor="middle" x="750" y="-45.5" font-family="Helvetica,sans-Serif" font-size="10.00">Tile.wallFrameNumber</text>
</a>
</g>
</g>
<!-- Node4&#45;&gt;Node31 -->
<g id="edge14" class="edge">
<title>Node4&#45;&gt;Node31</title>
<path fill="none" stroke="midnightblue" d="M584.56,-152.29C598.46,-133.89 631.22,-93.82 668,-72 675.61,-67.49 684.13,-63.77 692.7,-60.72"/>
<polygon fill="midnightblue" stroke="midnightblue" points="693.95,-64 702.37,-57.56 691.77,-57.34 693.95,-64"/>
</g>
<!-- Node7 -->
<g id="node7" class="node">
<title>Node7</title>
<g id="a_node7"><a xlink:href="../../d6/dba/classTile_a6771973d2404aad67503906dc8131567.html#a6771973d2404aad67503906dc8131567" target="_top" xlink:title=" ">
<polygon fill="white" stroke="black" points="903.5,-152.5 903.5,-171.5 1006.5,-171.5 1006.5,-152.5 903.5,-152.5"/>
<text text-anchor="middle" x="955" y="-159.5" font-family="Helvetica,sans-Serif" font-size="10.00">Tile.fullbrightWall</text>
</a>
</g>
</g>
<!-- Node6&#45;&gt;Node7 -->
<g id="edge6" class="edge">
<title>Node6&#45;&gt;Node7</title>
<path fill="none" stroke="midnightblue" d="M801.96,-133.54C829.7,-138.73 864.19,-145.19 893.31,-150.64"/>
<polygon fill="midnightblue" stroke="midnightblue" points="892.89,-154.12 903.37,-152.52 894.18,-147.24 892.89,-154.12"/>
</g>
<!-- Node6&#45;&gt;Node8 -->
<g id="edge7" class="edge">
<title>Node6&#45;&gt;Node8</title>
<path fill="none" stroke="midnightblue" d="M832.11,-124C853.08,-124 875.26,-124 894.87,-124"/>
<polygon fill="midnightblue" stroke="midnightblue" points="894.87,-127.5 904.87,-124 894.87,-120.5 894.87,-127.5"/>
</g>
<!-- Node6&#45;&gt;Node9 -->
<g id="edge8" class="edge">
<title>Node6&#45;&gt;Node9</title>
<path fill="none" stroke="midnightblue" d="M801.96,-114.46C832.88,-108.67 872.2,-101.31 903.1,-95.53"/>
<polygon fill="midnightblue" stroke="midnightblue" points="904.05,-98.91 913.24,-93.63 902.76,-92.03 904.05,-98.91"/>
</g>
<!-- Node34&#45;&gt;Node5 -->
<g id="edge16" class="edge">
<title>Node34&#45;&gt;Node5</title>
<path fill="none" stroke="midnightblue" d="M752.23,-810.39C761.73,-736.78 824.21,-263.9 868,-219 879.12,-207.6 895.43,-202.33 910.87,-200.09"/>
<polygon fill="midnightblue" stroke="midnightblue" points="911.25,-203.57 920.82,-199.02 910.51,-196.61 911.25,-203.57"/>
</g>
<!-- Node34&#45;&gt;Node7 -->
<g id="edge24" class="edge">
<title>Node34&#45;&gt;Node7</title>
<path fill="none" stroke="midnightblue" d="M752.45,-810.36C764.28,-732.24 844.81,-205.05 868,-181 874.93,-173.82 883.91,-169.06 893.45,-165.96"/>
<polygon fill="midnightblue" stroke="midnightblue" points="894.36,-169.34 903.12,-163.39 892.56,-162.58 894.36,-169.34"/>
</g>
<!-- Node34&#45;&gt;Node8 -->
<g id="edge36" class="edge">
<title>Node34&#45;&gt;Node8</title>
<path fill="none" stroke="midnightblue" d="M752.51,-810.36C765.34,-728.74 855.76,-155.82 868,-143 875.28,-135.37 884.88,-130.48 895.02,-127.39"/>
<polygon fill="midnightblue" stroke="midnightblue" points="895.98,-130.76 904.85,-124.96 894.3,-123.97 895.98,-130.76"/>
</g>
<!-- Node34&#45;&gt;Node9 -->
<g id="edge49" class="edge">
<title>Node34&#45;&gt;Node9</title>
<path fill="none" stroke="midnightblue" d="M752.52,-810.26C765.77,-725.23 861.56,-111.8 868,-105 877.21,-95.26 890.2,-89.97 903.29,-87.21"/>
<polygon fill="midnightblue" stroke="midnightblue" points="903.97,-90.65 913.27,-85.57 902.83,-83.74 903.97,-90.65"/>
</g>
<!-- Node35 -->
<g id="node15" class="node">
<title>Node35</title>
<g id="a_node15"><a xlink:href="../../d6/dba/classTile_aaf7a749e2f172ceb884144afc820ba05.html#aaf7a749e2f172ceb884144afc820ba05" target="_top" xlink:title=" ">
<polygon fill="white" stroke="black" points="916,-1138.5 916,-1157.5 994,-1157.5 994,-1138.5 916,-1138.5"/>
<text text-anchor="middle" x="955" y="-1145.5" font-family="Helvetica,sans-Serif" font-size="10.00">Tile.actuator</text>
</a>
</g>
</g>
<!-- Node34&#45;&gt;Node35 -->
<g id="edge17" class="edge">
<title>Node34&#45;&gt;Node35</title>
<path fill="none" stroke="midnightblue" d="M751.49,-829.62C754.2,-872.18 771.04,-1045.13 868,-1129 878.41,-1138.01 892.14,-1143.03 905.56,-1145.75"/>
<polygon fill="midnightblue" stroke="midnightblue" points="905.27,-1149.25 915.71,-1147.42 906.41,-1142.35 905.27,-1149.25"/>
</g>
<!-- Node36 -->
<g id="node16" class="node">
<title>Node36</title>
<g id="a_node16"><a xlink:href="../../dd/dc4/interfaceISocket_a511af46ee3de67c1203113b24bb71d07.html#a511af46ee3de67c1203113b24bb71d07" target="_top" xlink:title=" ">
<polygon fill="white" stroke="black" points="901,-1100.5 901,-1119.5 1009,-1119.5 1009,-1100.5 901,-1100.5"/>
<text text-anchor="middle" x="955" y="-1107.5" font-family="Helvetica,sans-Serif" font-size="10.00">ISocket.AsyncSend</text>
</a>
</g>
</g>
<!-- Node34&#45;&gt;Node36 -->
<g id="edge18" class="edge">
<title>Node34&#45;&gt;Node36</title>
<path fill="none" stroke="midnightblue" d="M752.03,-829.5C756.82,-868.64 780.48,-1018.72 868,-1091 874.77,-1096.59 882.82,-1100.63 891.25,-1103.53"/>
<polygon fill="midnightblue" stroke="midnightblue" points="890.29,-1106.89 900.87,-1106.34 892.26,-1100.18 890.29,-1106.89"/>
</g>
<!-- Node37 -->
<g id="node17" class="node">
<title>Node37</title>
<g id="a_node17"><a xlink:href="../../d3/d0e/classRemoteServer_a42c60d555de36d82c304afacb843109c.html#a42c60d555de36d82c304afacb843109c" target="_top" xlink:title=" ">
<polygon fill="white" stroke="black" points="883.5,-1051 883.5,-1081 1026.5,-1081 1026.5,-1051 883.5,-1051"/>
<text text-anchor="start" x="891.5" y="-1069" font-family="Helvetica,sans-Serif" font-size="10.00">RemoteServer.ClientWrite</text>
<text text-anchor="middle" x="955" y="-1058" font-family="Helvetica,sans-Serif" font-size="10.00">CallBack</text>
</a>
</g>
</g>
<!-- Node34&#45;&gt;Node37 -->
<g id="edge19" class="edge">
<title>Node34&#45;&gt;Node37</title>
<path fill="none" stroke="midnightblue" d="M753.23,-829.68C761.68,-864.08 794.95,-981.51 868,-1041 870.06,-1042.68 872.22,-1044.24 874.47,-1045.7"/>
<polygon fill="midnightblue" stroke="midnightblue" points="873.09,-1048.94 883.52,-1050.82 876.54,-1042.84 873.09,-1048.94"/>
</g>
<!-- Node16 -->
<g id="node18" class="node">
<title>Node16</title>
<g id="a_node18"><a xlink:href="../../d6/dba/classTile_aab901c8f842b5afa78ab3605f6c5d542.html#aab901c8f842b5afa78ab3605f6c5d542" target="_top" xlink:title=" ">
<polygon fill="white" stroke="black" points="924,-1012.5 924,-1031.5 986,-1031.5 986,-1012.5 924,-1012.5"/>
<text text-anchor="middle" x="955" y="-1019.5" font-family="Helvetica,sans-Serif" font-size="10.00">Tile.color</text>
</a>
</g>
</g>
<!-- Node34&#45;&gt;Node16 -->
<g id="edge20" class="edge">
<title>Node34&#45;&gt;Node16</title>
<path fill="none" stroke="midnightblue" d="M754.22,-829.86C764.88,-860.86 802.15,-957.01 868,-1003 881.24,-1012.25 898.2,-1017.1 913.55,-1019.61"/>
<polygon fill="midnightblue" stroke="midnightblue" points="913.47,-1023.13 923.85,-1020.99 914.41,-1016.19 913.47,-1023.13"/>
</g>
<!-- Node38 -->
<g id="node19" class="node">
<title>Node38</title>
<g id="a_node19"><a xlink:href="../../dc/d81/classNetMessage_aeb123127a7678b0a62966969dd5435e3.html#aeb123127a7678b0a62966969dd5435e3" target="_top" xlink:title=" ">
<polygon fill="white" stroke="red" points="868,-974.5 868,-993.5 1042,-993.5 1042,-974.5 868,-974.5"/>
<text text-anchor="middle" x="955" y="-981.5" font-family="Helvetica,sans-Serif" font-size="10.00">NetMessage.CompressTileBlock</text>
</a>
</g>
</g>
<!-- Node34&#45;&gt;Node38 -->
<g id="edge21" class="edge">
<title>Node34&#45;&gt;Node38</title>
<path fill="none" stroke="midnightblue" d="M755.77,-829.64C769.31,-855.99 810.81,-929.57 868,-965 871.41,-967.11 875.03,-968.99 878.77,-970.67"/>
<polygon fill="midnightblue" stroke="midnightblue" points="877.71,-974.01 888.29,-974.41 880.27,-967.49 877.71,-974.01"/>
</g>
<!-- Node61 -->
<g id="node20" class="node">
<title>Node61</title>
<g id="a_node20"><a xlink:href="../../d1/d6d/interfaceINetDiagnosticsUI_a076e65303a310f5c718916c3d433c966.html#a076e65303a310f5c718916c3d433c966" target="_top" xlink:title=" ">
<polygon fill="white" stroke="black" points="876,-925 876,-955 1034,-955 1034,-925 876,-925"/>
<text text-anchor="start" x="884" y="-943" font-family="Helvetica,sans-Serif" font-size="10.00">INetDiagnosticsUI.CountSent</text>
<text text-anchor="middle" x="955" y="-932" font-family="Helvetica,sans-Serif" font-size="10.00">Message</text>
</a>
</g>
</g>
<!-- Node34&#45;&gt;Node61 -->
<g id="edge22" class="edge">
<title>Node34&#45;&gt;Node61</title>
<path fill="none" stroke="midnightblue" d="M760.06,-829.58C778.57,-848.6 822.8,-891.33 868,-915 872.45,-917.33 877.14,-919.47 881.95,-921.43"/>
<polygon fill="midnightblue" stroke="midnightblue" points="880.71,-924.7 891.3,-924.98 883.2,-918.16 880.71,-924.7"/>
</g>
<!-- Node19 -->
<g id="node21" class="node">
<title>Node19</title>
<g id="a_node21"><a xlink:href="../../d6/dba/classTile_ac1019500ca7fcafcb5b51f226fec3686.html#ac1019500ca7fcafcb5b51f226fec3686" target="_top" xlink:title=" ">
<polygon fill="white" stroke="black" points="900.5,-886.5 900.5,-905.5 1009.5,-905.5 1009.5,-886.5 900.5,-886.5"/>
<text text-anchor="middle" x="955" y="-893.5" font-family="Helvetica,sans-Serif" font-size="10.00">Tile.fullbrightBlock</text>
</a>
</g>
</g>
<!-- Node34&#45;&gt;Node19 -->
<g id="edge23" class="edge">
<title>Node34&#45;&gt;Node19</title>
<path fill="none" stroke="midnightblue" d="M767.51,-829.6C789.7,-842.13 830.66,-863.99 868,-877 875.6,-879.65 883.7,-882.01 891.79,-884.09"/>
<polygon fill="midnightblue" stroke="midnightblue" points="891.06,-887.52 901.6,-886.49 892.72,-880.72 891.06,-887.52"/>
</g>
<!-- Node62 -->
<g id="node22" class="node">
<title>Node62</title>
<g id="a_node22"><a xlink:href="../../d5/ded/classNetSocialModule_af0090e196791182cf907e4bd9a55412f.html#af0090e196791182cf907e4bd9a55412f" target="_top" xlink:title=" ">
<polygon fill="white" stroke="black" points="876,-848.5 876,-867.5 1034,-867.5 1034,-848.5 876,-848.5"/>
<text text-anchor="middle" x="955" y="-855.5" font-family="Helvetica,sans-Serif" font-size="10.00">NetSocialModule.GetLobbyId</text>
</a>
</g>
</g>
<!-- Node34&#45;&gt;Node62 -->
<g id="edge25" class="edge">
<title>Node34&#45;&gt;Node62</title>
<path fill="none" stroke="midnightblue" d="M801.96,-829.54C829.59,-834.71 863.93,-841.14 892.98,-846.58"/>
<polygon fill="midnightblue" stroke="midnightblue" points="892.54,-850.06 903.02,-848.46 893.83,-843.18 892.54,-850.06"/>
</g>
<!-- Node63 -->
<g id="node23" class="node">
<title>Node63</title>
<g id="a_node23"><a xlink:href="../../de/d71/classNPC_a4c39a8890e0e18375e6ab1ef2365b0d1.html#a4c39a8890e0e18375e6ab1ef2365b0d1" target="_top" xlink:title=" ">
<polygon fill="white" stroke="black" points="916.5,-810.5 916.5,-829.5 993.5,-829.5 993.5,-810.5 916.5,-810.5"/>
<text text-anchor="middle" x="955" y="-817.5" font-family="Helvetica,sans-Serif" font-size="10.00">NPC.getRect</text>
</a>
</g>
</g>
<!-- Node34&#45;&gt;Node63 -->
<g id="edge26" class="edge">
<title>Node34&#45;&gt;Node63</title>
<path fill="none" stroke="midnightblue" d="M814.12,-820C843.84,-820 878.71,-820 906.2,-820"/>
<polygon fill="midnightblue" stroke="midnightblue" points="906.35,-823.5 916.35,-820 906.35,-816.5 906.35,-823.5"/>
</g>
<!-- Node64 -->
<g id="node24" class="node">
<title>Node64</title>
<g id="a_node24"><a xlink:href="../../d2/d4b/classPlayer_af6df066c2c1b4e670be718cb58b66968.html#af6df066c2c1b4e670be718cb58b66968" target="_top" xlink:title=" ">
<polygon fill="white" stroke="black" points="911.5,-772.5 911.5,-791.5 998.5,-791.5 998.5,-772.5 911.5,-772.5"/>
<text text-anchor="middle" x="955" y="-779.5" font-family="Helvetica,sans-Serif" font-size="10.00">Player.getRect</text>
</a>
</g>
</g>
<!-- Node34&#45;&gt;Node64 -->
<g id="edge27" class="edge">
<title>Node34&#45;&gt;Node64</title>
<path fill="none" stroke="midnightblue" d="M801.96,-810.46C832.25,-804.79 870.59,-797.61 901.19,-791.89"/>
<polygon fill="midnightblue" stroke="midnightblue" points="902.07,-795.28 911.25,-790 900.78,-788.4 902.07,-795.28"/>
</g>
<!-- Node65 -->
<g id="node25" class="node">
<title>Node65</title>
<g id="a_node25"><a xlink:href="../../d9/d4b/classProjectile_a0133e73e3ee32fc8aae1c7fdb6bb4cde.html#a0133e73e3ee32fc8aae1c7fdb6bb4cde" target="_top" xlink:title=" ">
<polygon fill="white" stroke="black" points="903.5,-734.5 903.5,-753.5 1006.5,-753.5 1006.5,-734.5 903.5,-734.5"/>
<text text-anchor="middle" x="955" y="-741.5" font-family="Helvetica,sans-Serif" font-size="10.00">Projectile.getRect</text>
</a>
</g>
</g>
<!-- Node34&#45;&gt;Node65 -->
<g id="edge28" class="edge">
<title>Node34&#45;&gt;Node65</title>
<path fill="none" stroke="midnightblue" d="M767.51,-810.4C789.7,-797.87 830.66,-776.01 868,-763 876.18,-760.15 884.96,-757.63 893.66,-755.43"/>
<polygon fill="midnightblue" stroke="midnightblue" points="894.51,-758.83 903.42,-753.09 892.88,-752.02 894.51,-758.83"/>
</g>
<!-- Node66 -->
<g id="node26" class="node">
<title>Node66</title>
<g id="a_node26"><a xlink:href="../../dd/dc4/interfaceISocket_acd5af726d37763775e8b7e204378c039.html#acd5af726d37763775e8b7e204378c039" target="_top" xlink:title=" ">
<polygon fill="white" stroke="black" points="880.5,-696.5 880.5,-715.5 1029.5,-715.5 1029.5,-696.5 880.5,-696.5"/>
<text text-anchor="middle" x="955" y="-703.5" font-family="Helvetica,sans-Serif" font-size="10.00">ISocket.GetRemoteAddress</text>
</a>
</g>
</g>
<!-- Node34&#45;&gt;Node66 -->
<g id="edge29" class="edge">
<title>Node34&#45;&gt;Node66</title>
<path fill="none" stroke="midnightblue" d="M759.66,-810.46C777.77,-791.14 821.82,-747.29 868,-725 872.99,-722.59 878.29,-720.48 883.72,-718.64"/>
<polygon fill="midnightblue" stroke="midnightblue" points="885.05,-721.89 893.58,-715.6 882.99,-715.2 885.05,-721.89"/>
</g>
<!-- Node67 -->
<g id="node27" class="node">
<title>Node67</title>
<g id="a_node27"><a xlink:href="../../d9/d43/classNetplay_ab61acde52f6e2c8d92b5816ba67ccadf.html#ab61acde52f6e2c8d92b5816ba67ccadf" target="_top" xlink:title=" ">
<polygon fill="white" stroke="black" points="1078,-648.5 1078,-667.5 1194,-667.5 1194,-648.5 1078,-648.5"/>
<text text-anchor="middle" x="1136" y="-655.5" font-family="Helvetica,sans-Serif" font-size="10.00">Netplay.GetSectionX</text>
</a>
</g>
</g>
<!-- Node34&#45;&gt;Node67 -->
<g id="edge30" class="edge">
<title>Node34&#45;&gt;Node67</title>
<path fill="none" stroke="midnightblue" d="M756.01,-810.47C769.87,-785.18 811.5,-716.33 868,-687 930.14,-654.75 1011.24,-650.35 1067.68,-652.23"/>
<polygon fill="midnightblue" stroke="midnightblue" points="1067.79,-655.74 1077.92,-652.65 1068.07,-648.75 1067.79,-655.74"/>
</g>
<!-- Node68 -->
<g id="node28" class="node">
<title>Node68</title>
<g id="a_node28"><a xlink:href="../../d9/d43/classNetplay_a5d153f58e51f26baa5e12b5e6d86c56b.html#a5d153f58e51f26baa5e12b5e6d86c56b" target="_top" xlink:title=" ">
<polygon fill="white" stroke="black" points="1078,-591.5 1078,-610.5 1194,-610.5 1194,-591.5 1078,-591.5"/>
<text text-anchor="middle" x="1136" y="-598.5" font-family="Helvetica,sans-Serif" font-size="10.00">Netplay.GetSectionY</text>
</a>
</g>
</g>
<!-- Node34&#45;&gt;Node68 -->
<g id="edge31" class="edge">
<title>Node34&#45;&gt;Node68</title>
<path fill="none" stroke="midnightblue" d="M752.96,-810.2C760.48,-775.52 791.02,-658.08 868,-611 934.68,-570.21 1029.27,-578.79 1086.13,-589.41"/>
<polygon fill="midnightblue" stroke="midnightblue" points="1085.8,-592.92 1096.29,-591.41 1087.15,-586.05 1085.8,-592.92"/>
</g>
<!-- Node69 -->
<g id="node29" class="node">
<title>Node69</title>
<g id="a_node29"><a xlink:href="../../d0/d41/classLanguage_a9f392308c3f9927bacc3d83792b46408.html#a9f392308c3f9927bacc3d83792b46408" target="_top" xlink:title=" ">
<polygon fill="white" stroke="red" points="889.5,-544.5 889.5,-563.5 1020.5,-563.5 1020.5,-544.5 889.5,-544.5"/>
<text text-anchor="middle" x="955" y="-551.5" font-family="Helvetica,sans-Serif" font-size="10.00">Language.GetTextValue</text>
</a>
</g>
</g>
<!-- Node34&#45;&gt;Node69 -->
<g id="edge32" class="edge">
<title>Node34&#45;&gt;Node69</title>
<path fill="none" stroke="midnightblue" d="M752.71,-810.4C759.71,-774.05 789.59,-643.55 868,-578 872.99,-573.82 878.67,-570.37 884.66,-567.52"/>
<polygon fill="midnightblue" stroke="midnightblue" points="886.4,-570.59 894.28,-563.51 883.7,-564.13 886.4,-570.59"/>
</g>
<!-- Node48 -->
<g id="node30" class="node">
<title>Node48</title>
<g id="a_node30"><a xlink:href="../../d6/dba/classTile_a975f34b33a09445dfd475309fdcfd6a0.html#a975f34b33a09445dfd475309fdcfd6a0" target="_top" xlink:title=" ">
<polygon fill="white" stroke="black" points="914.5,-506.5 914.5,-525.5 995.5,-525.5 995.5,-506.5 914.5,-506.5"/>
<text text-anchor="middle" x="955" y="-513.5" font-family="Helvetica,sans-Serif" font-size="10.00">Tile.halfBrick</text>
</a>
</g>
</g>
<!-- Node34&#45;&gt;Node48 -->
<g id="edge33" class="edge">
<title>Node34&#45;&gt;Node48</title>
<path fill="none" stroke="midnightblue" d="M751.83,-810.3C755.88,-769.63 777.13,-611.43 868,-535 878.06,-526.53 891.07,-521.61 903.91,-518.81"/>
<polygon fill="midnightblue" stroke="midnightblue" points="904.88,-522.19 914.11,-516.99 903.65,-515.3 904.88,-522.19"/>
</g>
<!-- Node49 -->
<g id="node31" class="node">
<title>Node49</title>
<g id="a_node31"><a xlink:href="../../d6/dba/classTile_abb2a30463eddd9cbdc91f329d2aa4bf8.html#abb2a30463eddd9cbdc91f329d2aa4bf8" target="_top" xlink:title=" ">
<polygon fill="white" stroke="black" points="916.5,-468.5 916.5,-487.5 993.5,-487.5 993.5,-468.5 916.5,-468.5"/>
<text text-anchor="middle" x="955" y="-475.5" font-family="Helvetica,sans-Serif" font-size="10.00">Tile.inActive</text>
</a>
</g>
</g>
<!-- Node34&#45;&gt;Node49 -->
<g id="edge34" class="edge">
<title>Node34&#45;&gt;Node49</title>
<path fill="none" stroke="midnightblue" d="M751.32,-810.25C753.32,-766.33 767.59,-585.13 868,-497 878.63,-487.67 892.82,-482.6 906.6,-479.93"/>
<polygon fill="midnightblue" stroke="midnightblue" points="907.16,-483.39 916.5,-478.39 906.08,-476.47 907.16,-483.39"/>
</g>
<!-- Node23 -->
<g id="node32" class="node">
<title>Node23</title>
<g id="a_node32"><a xlink:href="../../d6/dba/classTile_ab79d72d2c148d8bbd6dbc20055eec3d6.html#ab79d72d2c148d8bbd6dbc20055eec3d6" target="_top" xlink:title=" ">
<polygon fill="white" stroke="black" points="902,-430.5 902,-449.5 1008,-449.5 1008,-430.5 902,-430.5"/>
<text text-anchor="middle" x="955" y="-437.5" font-family="Helvetica,sans-Serif" font-size="10.00">Tile.invisibleBlock</text>
</a>
</g>
</g>
<!-- Node34&#45;&gt;Node23 -->
<g id="edge35" class="edge">
<title>Node34&#45;&gt;Node23</title>
<path fill="none" stroke="midnightblue" d="M750.9,-810.41C750.98,-763.81 757.79,-559.11 868,-459 874.82,-452.81 883.18,-448.48 892,-445.48"/>
<polygon fill="midnightblue" stroke="midnightblue" points="893.02,-448.82 901.68,-442.72 891.1,-442.09 893.02,-448.82"/>
</g>
<!-- Node71 -->
<g id="node33" class="node">
<title>Node71</title>
<g id="a_node33"><a xlink:href="../../dd/dc4/interfaceISocket_a36309c9c292db8e6f6b103814e62861d.html#a36309c9c292db8e6f6b103814e62861d" target="_top" xlink:title=" ">
<polygon fill="white" stroke="black" points="1078.5,-373.5 1078.5,-392.5 1193.5,-392.5 1193.5,-373.5 1078.5,-373.5"/>
<text text-anchor="middle" x="1136" y="-380.5" font-family="Helvetica,sans-Serif" font-size="10.00">ISocket.IsConnected</text>
</a>
</g>
</g>
<!-- Node34&#45;&gt;Node71 -->
<g id="edge37" class="edge">
<title>Node34&#45;&gt;Node71</title>
<path fill="none" stroke="midnightblue" d="M752.43,-810.17C760.81,-754.1 805.23,-475.33 868,-421 897.08,-395.82 998.83,-387.31 1067.98,-384.44"/>
<polygon fill="midnightblue" stroke="midnightblue" points="1068.5,-387.93 1078.36,-384.05 1068.23,-380.93 1068.5,-387.93"/>
</g>
<!-- Node72 -->
<g id="node34" class="node">
<title>Node72</title>
<g id="a_node34"><a xlink:href="../../db/d53/classRemoteClient_a12dad1d00d836ac7ab31b780cbde6b70.html#a12dad1d00d836ac7ab31b780cbde6b70" target="_top" xlink:title=" ">
<polygon fill="white" stroke="black" points="882,-354.5 882,-373.5 1028,-373.5 1028,-354.5 882,-354.5"/>
<text text-anchor="middle" x="955" y="-361.5" font-family="Helvetica,sans-Serif" font-size="10.00">RemoteClient.IsConnected</text>
</a>
</g>
</g>
<!-- Node34&#45;&gt;Node72 -->
<g id="edge38" class="edge">
<title>Node34&#45;&gt;Node72</title>
<path fill="none" stroke="midnightblue" d="M752.32,-810.27C760.39,-752.19 804.78,-451.7 868,-388 871.89,-384.08 876.36,-380.79 881.18,-378.02"/>
<polygon fill="midnightblue" stroke="midnightblue" points="882.75,-381.15 890.17,-373.59 879.66,-374.87 882.75,-381.15"/>
</g>
<!-- Node25 -->
<g id="node35" class="node">
<title>Node25</title>
<g id="a_node35"><a xlink:href="../../d6/dba/classTile_ae3a537e6afc69261928beeb910d9e29d.html#ae3a537e6afc69261928beeb910d9e29d" target="_top" xlink:title=" ">
<polygon fill="white" stroke="red" points="911.5,-316.5 911.5,-335.5 998.5,-335.5 998.5,-316.5 911.5,-316.5"/>
<text text-anchor="middle" x="955" y="-323.5" font-family="Helvetica,sans-Serif" font-size="10.00">Tile.liquidType</text>
</a>
</g>
</g>
<!-- Node34&#45;&gt;Node25 -->
<g id="edge40" class="edge">
<title>Node34&#45;&gt;Node25</title>
<path fill="none" stroke="midnightblue" d="M751.99,-810.47C758.52,-749.46 797.35,-413.97 868,-345 876.89,-336.32 888.8,-331.24 900.92,-328.34"/>
<polygon fill="midnightblue" stroke="midnightblue" points="901.92,-331.71 911.08,-326.39 900.6,-324.84 901.92,-331.71"/>
</g>
<!-- Node73 -->
<g id="node36" class="node">
<title>Node73</title>
<g id="a_node36"><a xlink:href="../../df/d9d/classMessageBuffer_abed3beea6de2ff8064638640f3fcf6be.html#abed3beea6de2ff8064638640f3fcf6be" target="_top" xlink:title=" ">
<polygon fill="white" stroke="black" points="880.5,-278.5 880.5,-297.5 1029.5,-297.5 1029.5,-278.5 880.5,-278.5"/>
<text text-anchor="middle" x="955" y="-285.5" font-family="Helvetica,sans-Serif" font-size="10.00">MessageBuffer.ResetWriter</text>
</a>
</g>
</g>
<!-- Node34&#45;&gt;Node73 -->
<g id="edge41" class="edge">
<title>Node34&#45;&gt;Node73</title>
<path fill="none" stroke="midnightblue" d="M751.84,-810.14C757.51,-745.44 792.49,-382 868,-307 869.31,-305.7 870.68,-304.49 872.11,-303.35"/>
<polygon fill="midnightblue" stroke="midnightblue" points="874.43,-306.01 880.87,-297.6 870.59,-300.16 874.43,-306.01"/>
</g>
<!-- Node74 -->
<g id="node37" class="node">
<title>Node74</title>
<g id="a_node37"><a xlink:href="../../db/d53/classRemoteClient_a18c7e508f7994d26c51c785021eee7dc.html#a18c7e508f7994d26c51c785021eee7dc" target="_top" xlink:title=" ">
<polygon fill="white" stroke="black" points="878.5,-620.5 878.5,-639.5 1031.5,-639.5 1031.5,-620.5 878.5,-620.5"/>
<text text-anchor="middle" x="955" y="-627.5" font-family="Helvetica,sans-Serif" font-size="10.00">RemoteClient.SectionRange</text>
</a>
</g>
</g>
<!-- Node34&#45;&gt;Node74 -->
<g id="edge42" class="edge">
<title>Node34&#45;&gt;Node74</title>
<path fill="none" stroke="midnightblue" d="M754.94,-810.39C767.15,-781.85 807.21,-696.89 868,-654 874.32,-649.54 881.45,-645.9 888.83,-642.94"/>
<polygon fill="midnightblue" stroke="midnightblue" points="890.04,-646.23 898.26,-639.54 887.67,-639.64 890.04,-646.23"/>
</g>
<!-- Node75 -->
<g id="node38" class="node">
<title>Node75</title>
<g id="a_node38"><a xlink:href="../../db/d53/classRemoteClient_aa2252e1d8a932f84cc0e3afc4162f5ea.html#aa2252e1d8a932f84cc0e3afc4162f5ea" target="_top" xlink:title=" ">
<polygon fill="white" stroke="black" points="883,-229 883,-259 1027,-259 1027,-229 883,-229"/>
<text text-anchor="start" x="891" y="-247" font-family="Helvetica,sans-Serif" font-size="10.00">RemoteClient.ServerWrite</text>
<text text-anchor="middle" x="955" y="-236" font-family="Helvetica,sans-Serif" font-size="10.00">CallBack</text>
</a>
</g>
</g>
<!-- Node34&#45;&gt;Node75 -->
<g id="edge45" class="edge">
<title>Node34&#45;&gt;Node75</title>
<path fill="none" stroke="midnightblue" d="M751.72,-810.35C756.86,-743.77 790.13,-352.83 868,-269 869.85,-267.01 871.85,-265.17 873.97,-263.47"/>
<polygon fill="midnightblue" stroke="midnightblue" points="876.33,-266.11 882.68,-257.63 872.43,-260.29 876.33,-266.11"/>
</g>
<!-- Node76 -->
<g id="node39" class="node">
<title>Node76</title>
<g id="a_node39"><a xlink:href="../../d0/dae/classItem_aa1903fbd65a9a12fd6bd7e217ec00ae4.html#aa1903fbd65a9a12fd6bd7e217ec00ae4" target="_top" xlink:title=" ">
<polygon fill="white" stroke="black" points="905.5,-1630.5 905.5,-1649.5 1004.5,-1649.5 1004.5,-1630.5 905.5,-1630.5"/>
<text text-anchor="middle" x="955" y="-1637.5" font-family="Helvetica,sans-Serif" font-size="10.00">Item.SetDefaults</text>
</a>
</g>
</g>
<!-- Node34&#45;&gt;Node76 -->
<g id="edge46" class="edge">
<title>Node34&#45;&gt;Node76</title>
<path fill="none" stroke="midnightblue" d="M750.96,-829.51C750.86,-911.46 754.1,-1498.54 868,-1621 875.26,-1628.81 884.94,-1633.77 895.19,-1636.86"/>
<polygon fill="midnightblue" stroke="midnightblue" points="894.59,-1640.31 905.13,-1639.28 896.25,-1633.51 894.59,-1640.31"/>
</g>
<!-- Node54 -->
<g id="node40" class="node">
<title>Node54</title>
<g id="a_node40"><a xlink:href="../../d6/dba/classTile_a402ffa996ee74bf853b1538dfd39831c.html#a402ffa996ee74bf853b1538dfd39831c" target="_top" xlink:title=" ">
<polygon fill="white" stroke="black" points="923,-1592.5 923,-1611.5 987,-1611.5 987,-1592.5 923,-1592.5"/>
<text text-anchor="middle" x="955" y="-1599.5" font-family="Helvetica,sans-Serif" font-size="10.00">Tile.slope</text>
</a>
</g>
</g>
<!-- Node34&#45;&gt;Node54 -->
<g id="edge47" class="edge">
<title>Node34&#45;&gt;Node54</title>
<path fill="none" stroke="midnightblue" d="M751.04,-829.56C751.57,-909.51 759.2,-1466.86 868,-1583 879.32,-1595.08 896.45,-1600.34 912.45,-1602.39"/>
<polygon fill="midnightblue" stroke="midnightblue" points="912.45,-1605.91 922.73,-1603.31 913.08,-1598.93 912.45,-1605.91"/>
</g>
<!-- Node77 -->
<g id="node41" class="node">
<title>Node77</title>
<g id="a_node41"><a xlink:href="../../d2/d6c/classTreeTopsInfo_a7fc74f76714e48075b4b233e570294be.html#a7fc74f76714e48075b4b233e570294be" target="_top" xlink:title=" ">
<polygon fill="white" stroke="black" points="891,-1554.5 891,-1573.5 1019,-1573.5 1019,-1554.5 891,-1554.5"/>
<text text-anchor="middle" x="955" y="-1561.5" font-family="Helvetica,sans-Serif" font-size="10.00">TreeTopsInfo.SyncSend</text>
</a>
</g>
</g>
<!-- Node34&#45;&gt;Node77 -->
<g id="edge48" class="edge">
<title>Node34&#45;&gt;Node77</title>
<path fill="none" stroke="midnightblue" d="M751.12,-829.57C752.33,-907.32 764.28,-1435.14 868,-1545 871.87,-1549.1 876.41,-1552.41 881.35,-1555.08"/>
<polygon fill="midnightblue" stroke="midnightblue" points="880.04,-1558.33 890.6,-1559.22 882.9,-1551.94 880.04,-1558.33"/>
</g>
<!-- Node55 -->
<g id="node42" class="node">
<title>Node55</title>
<g id="a_node42"><a xlink:href="../../d6/dba/classTile_a60adbd2001dd6bff09114f7a65b56eb8.html#a60adbd2001dd6bff09114f7a65b56eb8" target="_top" xlink:title=" ">
<polygon fill="white" stroke="black" points="925.5,-1516.5 925.5,-1535.5 984.5,-1535.5 984.5,-1516.5 925.5,-1516.5"/>
<text text-anchor="middle" x="955" y="-1523.5" font-family="Helvetica,sans-Serif" font-size="10.00">Tile.wire</text>
</a>
</g>
</g>
<!-- Node34&#45;&gt;Node55 -->
<g id="edge50" class="edge">
<title>Node34&#45;&gt;Node55</title>
<path fill="none" stroke="midnightblue" d="M751.22,-829.55C753.11,-904.89 769.33,-1403.4 868,-1507 880.05,-1519.65 898.48,-1524.8 915.19,-1526.61"/>
<polygon fill="midnightblue" stroke="midnightblue" points="915.08,-1530.11 925.3,-1527.35 915.59,-1523.13 915.08,-1530.11"/>
</g>
<!-- Node56 -->
<g id="node43" class="node">
<title>Node56</title>
<g id="a_node43"><a xlink:href="../../d6/dba/classTile_aad0aa67791a865603ae50081ff2c69b1.html#aad0aa67791a865603ae50081ff2c69b1" target="_top" xlink:title=" ">
<polygon fill="white" stroke="black" points="922.5,-1478.5 922.5,-1497.5 987.5,-1497.5 987.5,-1478.5 922.5,-1478.5"/>
<text text-anchor="middle" x="955" y="-1485.5" font-family="Helvetica,sans-Serif" font-size="10.00">Tile.wire2</text>
</a>
</g>
</g>
<!-- Node34&#45;&gt;Node56 -->
<g id="edge51" class="edge">
<title>Node34&#45;&gt;Node56</title>
<path fill="none" stroke="midnightblue" d="M751.33,-829.95C754.02,-904.22 774.55,-1371.83 868,-1469 879.39,-1480.84 896.37,-1486.09 912.24,-1488.2"/>
<polygon fill="midnightblue" stroke="midnightblue" points="912.16,-1491.7 922.44,-1489.16 912.82,-1484.73 912.16,-1491.7"/>
</g>
<!-- Node57 -->
<g id="node44" class="node">
<title>Node57</title>
<g id="a_node44"><a xlink:href="../../d6/dba/classTile_a01ced283c7a936cf51337817031f4e2f.html#a01ced283c7a936cf51337817031f4e2f" target="_top" xlink:title=" ">
<polygon fill="white" stroke="black" points="922.5,-1440.5 922.5,-1459.5 987.5,-1459.5 987.5,-1440.5 922.5,-1440.5"/>
<text text-anchor="middle" x="955" y="-1447.5" font-family="Helvetica,sans-Serif" font-size="10.00">Tile.wire3</text>
</a>
</g>
</g>
<!-- Node34&#45;&gt;Node57 -->
<g id="edge52" class="edge">
<title>Node34&#45;&gt;Node57</title>
<path fill="none" stroke="midnightblue" d="M751.45,-829.82C754.9,-901.2 779.54,-1340.01 868,-1431 879.45,-1442.78 896.45,-1448.02 912.31,-1450.13"/>
<polygon fill="midnightblue" stroke="midnightblue" points="912.21,-1453.64 922.5,-1451.11 912.88,-1446.67 912.21,-1453.64"/>
</g>
<!-- Node51 -->
<g id="node45" class="node">
<title>Node51</title>
<g id="a_node45"><a xlink:href="../../d6/dba/classTile_a0508314e2ec39c199c92edf77e31c28b.html#a0508314e2ec39c199c92edf77e31c28b" target="_top" xlink:title=" ">
<polygon fill="white" stroke="black" points="922.5,-1402.5 922.5,-1421.5 987.5,-1421.5 987.5,-1402.5 922.5,-1402.5"/>
<text text-anchor="middle" x="955" y="-1409.5" font-family="Helvetica,sans-Serif" font-size="10.00">Tile.wire4</text>
</a>
</g>
</g>
<!-- Node34&#45;&gt;Node51 -->
<g id="edge53" class="edge">
<title>Node34&#45;&gt;Node51</title>
<path fill="none" stroke="midnightblue" d="M751.57,-829.65C755.8,-897.95 784.5,-1308.15 868,-1393 879.44,-1404.62 896.27,-1409.86 912.02,-1412.01"/>
<polygon fill="midnightblue" stroke="midnightblue" points="911.84,-1415.51 922.14,-1413.02 912.54,-1408.55 911.84,-1415.51"/>
</g>
<!-- Node78 -->
<g id="node46" class="node">
<title>Node78</title>
<g id="a_node46"><a xlink:href="../../d0/d59/structTrackedProjectileReference_a725d0c61f0b474d8a5e857d015ec1015.html#a725d0c61f0b474d8a5e857d015ec1015" target="_top" xlink:title=" ">
<polygon fill="white" stroke="black" points="879,-1353 879,-1383 1031,-1383 1031,-1353 879,-1353"/>
<text text-anchor="start" x="887" y="-1371" font-family="Helvetica,sans-Serif" font-size="10.00">TrackedProjectileReference.</text>
<text text-anchor="middle" x="955" y="-1360" font-family="Helvetica,sans-Serif" font-size="10.00">Write</text>
</a>
</g>
</g>
<!-- Node34&#45;&gt;Node78 -->
<g id="edge54" class="edge">
<title>Node34&#45;&gt;Node78</title>
<path fill="none" stroke="midnightblue" d="M751.83,-829.57C757.59,-893.97 793.64,-1263.81 868,-1343 869.24,-1344.32 870.55,-1345.58 871.92,-1346.77"/>
<polygon fill="midnightblue" stroke="midnightblue" points="870.17,-1349.83 880.31,-1352.9 874.3,-1344.18 870.17,-1349.83"/>
</g>
<!-- Node58 -->
<g id="node47" class="node">
<title>Node58</title>
<g id="a_node47"><a xlink:href="../../de/d47/classTileEntity_a0dee4b6d34517c88d8bfa1591b06a475.html#a0dee4b6d34517c88d8bfa1591b06a475" target="_top" xlink:title=" ">
<polygon fill="white" stroke="red" points="909.5,-1314.5 909.5,-1333.5 1000.5,-1333.5 1000.5,-1314.5 909.5,-1314.5"/>
<text text-anchor="middle" x="955" y="-1321.5" font-family="Helvetica,sans-Serif" font-size="10.00">TileEntity.Write</text>
</a>
</g>
</g>
<!-- Node34&#45;&gt;Node58 -->
<g id="edge55" class="edge">
<title>Node34&#45;&gt;Node58</title>
<path fill="none" stroke="midnightblue" d="M751.96,-829.73C758.3,-892.01 796.12,-1234.49 868,-1305 876.44,-1313.28 887.63,-1318.29 899.14,-1321.25"/>
<polygon fill="midnightblue" stroke="midnightblue" points="898.77,-1324.75 909.28,-1323.36 900.2,-1317.9 898.77,-1324.75"/>
</g>
<!-- Node79 -->
<g id="node48" class="node">
<title>Node79</title>
<g id="a_node48"><a xlink:href="../../dc/d81/classNetMessage_a99db4c34a0bc6ed088ab287798ef76c2.html#a99db4c34a0bc6ed088ab287798ef76c2" target="_top" xlink:title=" ">
<polygon fill="white" stroke="black" points="877,-1265 877,-1295 1033,-1295 1033,-1265 877,-1265"/>
<text text-anchor="start" x="885" y="-1283" font-family="Helvetica,sans-Serif" font-size="10.00">NetMessage.WriteAccessory</text>
<text text-anchor="middle" x="955" y="-1272" font-family="Helvetica,sans-Serif" font-size="10.00">Visibility</text>
</a>
</g>
</g>
<!-- Node34&#45;&gt;Node79 -->
<g id="edge56" class="edge">
<title>Node34&#45;&gt;Node79</title>
<path fill="none" stroke="midnightblue" d="M752.32,-829.79C760.39,-888.21 804.78,-1190.49 868,-1255 869.43,-1256.46 870.94,-1257.83 872.51,-1259.13"/>
<polygon fill="midnightblue" stroke="midnightblue" points="870.69,-1262.12 880.9,-1264.96 874.69,-1256.38 870.69,-1262.12"/>
</g>
<!-- Node80 -->
<g id="node49" class="node">
<title>Node80</title>
<g id="a_node49"><a xlink:href="../../d1/d46/classPlayerDeathReason_a9cb3e688fdc8ef090d13267b5371bece.html#a9cb3e688fdc8ef090d13267b5371bece" target="_top" xlink:title=" ">
<polygon fill="white" stroke="black" points="869.5,-1226.5 869.5,-1245.5 1040.5,-1245.5 1040.5,-1226.5 869.5,-1226.5"/>
<text text-anchor="middle" x="955" y="-1233.5" font-family="Helvetica,sans-Serif" font-size="10.00">PlayerDeathReason.WriteSelfTo</text>
</a>
</g>
</g>
<!-- Node34&#45;&gt;Node80 -->
<g id="edge57" class="edge">
<title>Node34&#45;&gt;Node80</title>
<path fill="none" stroke="midnightblue" d="M750.58,-829.52C748.99,-878.64 748.48,-1105.48 868,-1217 869.51,-1218.41 871.1,-1219.72 872.75,-1220.94"/>
<polygon fill="midnightblue" stroke="midnightblue" points="871.19,-1224.09 881.54,-1226.34 874.85,-1218.12 871.19,-1224.09"/>
</g>
<!-- Node81 -->
<g id="node50" class="node">
<title>Node81</title>
<g id="a_node50"><a xlink:href="../../d9/d8f/structNetMessage_1_1NetSoundInfo_a4b2e61e150b062868171dafa4b656da9.html#a4b2e61e150b062868171dafa4b656da9" target="_top" xlink:title=" ">
<polygon fill="white" stroke="black" points="880.5,-1177 880.5,-1207 1029.5,-1207 1029.5,-1177 880.5,-1177"/>
<text text-anchor="start" x="888.5" y="-1195" font-family="Helvetica,sans-Serif" font-size="10.00">NetMessage.NetSoundInfo.</text>
<text text-anchor="middle" x="955" y="-1184" font-family="Helvetica,sans-Serif" font-size="10.00">WriteSelfTo</text>
</a>
</g>
</g>
<!-- Node34&#45;&gt;Node81 -->
<g id="edge58" class="edge">
<title>Node34&#45;&gt;Node81</title>
<path fill="none" stroke="midnightblue" d="M751.19,-829.68C752.61,-874.98 764.74,-1068.01 868,-1167 869.64,-1168.57 871.38,-1170.05 873.19,-1171.43"/>
<polygon fill="midnightblue" stroke="midnightblue" points="871.29,-1174.38 881.58,-1176.93 875.13,-1168.52 871.29,-1174.38"/>
</g>
<!-- Node72&#45;&gt;Node71 -->
<g id="edge39" class="edge">
<title>Node72&#45;&gt;Node71</title>
<path fill="none" stroke="midnightblue" d="M1028.03,-371.65C1041.22,-373.05 1054.93,-374.5 1067.96,-375.88"/>
<polygon fill="midnightblue" stroke="midnightblue" points="1067.93,-379.4 1078.24,-376.98 1068.67,-372.44 1067.93,-379.4"/>
</g>
<!-- Node74&#45;&gt;Node67 -->
<g id="edge43" class="edge">
<title>Node74&#45;&gt;Node67</title>
<path fill="none" stroke="midnightblue" d="M1016.85,-639.52C1033.22,-642.08 1051.01,-644.86 1067.71,-647.47"/>
<polygon fill="midnightblue" stroke="midnightblue" points="1067.52,-650.99 1077.94,-649.07 1068.6,-644.07 1067.52,-650.99"/>
</g>
<!-- Node74&#45;&gt;Node68 -->
<g id="edge44" class="edge">
<title>Node74&#45;&gt;Node68</title>
<path fill="none" stroke="midnightblue" d="M1015.11,-620.42C1031.96,-617.69 1050.45,-614.7 1067.75,-611.9"/>
<polygon fill="midnightblue" stroke="midnightblue" points="1068.47,-615.32 1077.78,-610.27 1067.35,-608.41 1068.47,-615.32"/>
</g>
</g>
</svg>
