<?xml version="1.0" encoding="UTF-8" standalone="no"?>
<!DOCTYPE svg PUBLIC "-//W3C//DTD SVG 1.1//EN"
 "http://www.w3.org/Graphics/SVG/1.1/DTD/svg11.dtd">
<!-- Generated by graphviz version 2.43.0 (0)
 -->
<!-- Title: Wiring.Actuate Pages: 1 -->
<svg width="1133pt" height="1655pt"
 viewBox="0.00 0.00 1133.00 1654.95" xmlns="http://www.w3.org/2000/svg" xmlns:xlink="http://www.w3.org/1999/xlink">
<g id="graph0" class="graph" transform="scale(1 1) rotate(0) translate(4 1650.95)">
<title>Wiring.Actuate</title>
<polygon fill="white" stroke="transparent" points="-4,4 -4,-1650.95 1129,-1650.95 1129,4 -4,4"/>
<!-- Node1 -->
<g id="node1" class="node">
<title>Node1</title>
<g id="a_node1"><a xlink:title=" ">
<polygon fill="#bfbfbf" stroke="black" points="0,-717.5 0,-736.5 89,-736.5 89,-717.5 0,-717.5"/>
<text text-anchor="middle" x="44.5" y="-724.5" font-family="Helvetica,sans-Serif" font-size="10.00">Wiring.Actuate</text>
</a>
</g>
</g>
<!-- Node2 -->
<g id="node2" class="node">
<title>Node2</title>
<g id="a_node2"><a xlink:href="../../d6/dba/classTile_aaf7a749e2f172ceb884144afc820ba05.html#aaf7a749e2f172ceb884144afc820ba05" target="_top" xlink:title=" ">
<polygon fill="white" stroke="black" points="660,-1592.5 660,-1611.5 738,-1611.5 738,-1592.5 660,-1592.5"/>
<text text-anchor="middle" x="699" y="-1599.5" font-family="Helvetica,sans-Serif" font-size="10.00">Tile.actuator</text>
</a>
</g>
</g>
<!-- Node1&#45;&gt;Node2 -->
<g id="edge1" class="edge">
<title>Node1&#45;&gt;Node2</title>
<path fill="none" stroke="midnightblue" d="M48.97,-736.73C77,-813.77 273.83,-1328.92 612,-1577 623.09,-1585.14 636.78,-1590.63 649.96,-1594.35"/>
<polygon fill="midnightblue" stroke="midnightblue" points="649.32,-1597.8 659.88,-1596.85 651.04,-1591.01 649.32,-1597.8"/>
</g>
<!-- Node3 -->
<g id="node3" class="node">
<title>Node3</title>
<g id="a_node3"><a xlink:href="../../d8/d76/classWiring_a425469555b81e035e70148817de5b6cd.html#a425469555b81e035e70148817de5b6cd" target="_top" xlink:title=" ">
<polygon fill="white" stroke="black" points="125,-746.5 125,-765.5 220,-765.5 220,-746.5 125,-746.5"/>
<text text-anchor="middle" x="172.5" y="-753.5" font-family="Helvetica,sans-Serif" font-size="10.00">Wiring.DeActive</text>
</a>
</g>
</g>
<!-- Node1&#45;&gt;Node3 -->
<g id="edge2" class="edge">
<title>Node1&#45;&gt;Node3</title>
<path fill="none" stroke="midnightblue" d="M87.11,-736.58C97.64,-739 109.09,-741.64 120.05,-744.16"/>
<polygon fill="midnightblue" stroke="midnightblue" points="119.41,-747.6 129.94,-746.43 120.98,-740.78 119.41,-747.6"/>
</g>
<!-- Node6 -->
<g id="node6" class="node">
<title>Node6</title>
<g id="a_node6"><a xlink:href="../../d6/dba/classTile_abb2a30463eddd9cbdc91f329d2aa4bf8.html#abb2a30463eddd9cbdc91f329d2aa4bf8" target="_top" xlink:title=" ">
<polygon fill="white" stroke="black" points="660.5,-0.5 660.5,-19.5 737.5,-19.5 737.5,-0.5 660.5,-0.5"/>
<text text-anchor="middle" x="699" y="-7.5" font-family="Helvetica,sans-Serif" font-size="10.00">Tile.inActive</text>
</a>
</g>
</g>
<!-- Node1&#45;&gt;Node6 -->
<g id="edge61" class="edge">
<title>Node1&#45;&gt;Node6</title>
<path fill="none" stroke="midnightblue" d="M51.02,-717.32C83.75,-660.38 257.53,-364.5 448,-163 512.66,-94.6 527.3,-70.05 612,-29 623.83,-23.26 637.42,-19.24 650.25,-16.42"/>
<polygon fill="midnightblue" stroke="midnightblue" points="651.21,-19.8 660.33,-14.41 649.84,-12.93 651.21,-19.8"/>
</g>
<!-- Node85 -->
<g id="node50" class="node">
<title>Node85</title>
<g id="a_node50"><a xlink:href="../../d8/d76/classWiring_a1c2ef993567c8f38ad14413d866ea1d8.html#a1c2ef993567c8f38ad14413d866ea1d8" target="_top" xlink:title=" ">
<polygon fill="white" stroke="black" points="125,-698.5 125,-717.5 220,-717.5 220,-698.5 125,-698.5"/>
<text text-anchor="middle" x="172.5" y="-705.5" font-family="Helvetica,sans-Serif" font-size="10.00">Wiring.ReActive</text>
</a>
</g>
</g>
<!-- Node1&#45;&gt;Node85 -->
<g id="edge62" class="edge">
<title>Node1&#45;&gt;Node85</title>
<path fill="none" stroke="midnightblue" d="M89.22,-720.41C97.49,-719.16 106.26,-717.84 114.87,-716.54"/>
<polygon fill="midnightblue" stroke="midnightblue" points="115.49,-719.99 124.86,-715.03 114.45,-713.06 115.49,-719.99"/>
</g>
<!-- Node4 -->
<g id="node4" class="node">
<title>Node4</title>
<g id="a_node4"><a xlink:href="../../d6/dba/classTile_a64e4b5e9c17707d5bf63cf590bb48c9b.html#a64e4b5e9c17707d5bf63cf590bb48c9b" target="_top" xlink:title=" ">
<polygon fill="white" stroke="black" points="870,-1592.5 870,-1611.5 938,-1611.5 938,-1592.5 870,-1592.5"/>
<text text-anchor="middle" x="904" y="-1599.5" font-family="Helvetica,sans-Serif" font-size="10.00">Tile.active</text>
</a>
</g>
</g>
<!-- Node3&#45;&gt;Node4 -->
<g id="edge3" class="edge">
<title>Node3&#45;&gt;Node4</title>
<path fill="none" stroke="midnightblue" d="M174.7,-765.62C185.34,-846.25 271.27,-1411.72 612,-1621 693.8,-1671.24 814.07,-1636.63 870.95,-1615.31"/>
<polygon fill="midnightblue" stroke="midnightblue" points="872.41,-1618.49 880.48,-1611.63 869.89,-1611.96 872.41,-1618.49"/>
</g>
<!-- Node5 -->
<g id="node5" class="node">
<title>Node5</title>
<g id="a_node5"><a xlink:href="../../db/de4/classWorldGen_a69caad9116da11a8e0ba45de16683963.html#a69caad9116da11a8e0ba45de16683963" target="_top" xlink:title=" ">
<polygon fill="white" stroke="black" points="274.5,-803.5 274.5,-822.5 393.5,-822.5 393.5,-803.5 274.5,-803.5"/>
<text text-anchor="middle" x="334" y="-810.5" font-family="Helvetica,sans-Serif" font-size="10.00">WorldGen.CanKillTile</text>
</a>
</g>
</g>
<!-- Node3&#45;&gt;Node5 -->
<g id="edge4" class="edge">
<title>Node3&#45;&gt;Node5</title>
<path fill="none" stroke="midnightblue" d="M191.76,-765.63C208.21,-774.01 233.23,-786.03 256,-794 263.14,-796.5 270.76,-798.8 278.32,-800.87"/>
<polygon fill="midnightblue" stroke="midnightblue" points="277.63,-804.31 288.2,-803.47 279.41,-797.54 277.63,-804.31"/>
</g>
<!-- Node3&#45;&gt;Node6 -->
<g id="edge5" class="edge">
<title>Node3&#45;&gt;Node6</title>
<path fill="none" stroke="midnightblue" d="M220.19,-754.05C281.13,-750.59 383.4,-741.4 412,-718 573.21,-586.12 524.42,-480.79 576,-279 589.9,-224.62 573.82,-70.14 612,-29 621.79,-18.45 636.02,-13.09 650.08,-10.53"/>
<polygon fill="midnightblue" stroke="midnightblue" points="650.81,-13.96 660.24,-9.12 649.85,-7.03 650.81,-13.96"/>
</g>
<!-- Node7 -->
<g id="node7" class="node">
<title>Node7</title>
<g id="a_node7"><a xlink:href="../../dc/d81/classNetMessage_a13d811ff0be4a491b299312207e5a248.html#a13d811ff0be4a491b299312207e5a248" target="_top" xlink:title=" ">
<polygon fill="white" stroke="black" points="256,-765.5 256,-784.5 412,-784.5 412,-765.5 256,-765.5"/>
<text text-anchor="middle" x="334" y="-772.5" font-family="Helvetica,sans-Serif" font-size="10.00">NetMessage.SendTileSquare</text>
</a>
</g>
</g>
<!-- Node3&#45;&gt;Node7 -->
<g id="edge6" class="edge">
<title>Node3&#45;&gt;Node7</title>
<path fill="none" stroke="midnightblue" d="M220.06,-761.55C228.21,-762.52 236.93,-763.56 245.76,-764.61"/>
<polygon fill="midnightblue" stroke="midnightblue" points="245.43,-768.09 255.77,-765.8 246.25,-761.14 245.43,-768.09"/>
</g>
<!-- Node84 -->
<g id="node49" class="node">
<title>Node84</title>
<g id="a_node49"><a xlink:href="../../db/de4/classWorldGen_acec70933ff068d98720dfb051597281c.html#acec70933ff068d98720dfb051597281c" target="_top" xlink:title=" ">
<polygon fill="white" stroke="black" points="259.5,-689.5 259.5,-708.5 408.5,-708.5 408.5,-689.5 259.5,-689.5"/>
<text text-anchor="middle" x="334" y="-696.5" font-family="Helvetica,sans-Serif" font-size="10.00">WorldGen.SquareTileFrame</text>
</a>
</g>
</g>
<!-- Node3&#45;&gt;Node84 -->
<g id="edge60" class="edge">
<title>Node3&#45;&gt;Node84</title>
<path fill="none" stroke="midnightblue" d="M196.08,-746.41C212.56,-739.55 235.5,-730.28 256,-723 267.12,-719.05 279.27,-715.1 290.56,-711.57"/>
<polygon fill="midnightblue" stroke="midnightblue" points="291.69,-714.89 300.22,-708.6 289.63,-708.2 291.69,-714.89"/>
</g>
<!-- Node8 -->
<g id="node8" class="node">
<title>Node8</title>
<g id="a_node8"><a xlink:href="../../db/de4/classWorldGen_a4aa08f717585ad033d73cf07e411c60e.html#a4aa08f717585ad033d73cf07e411c60e" target="_top" xlink:title=" ">
<polygon fill="white" stroke="black" points="448,-1169.5 448,-1188.5 576,-1188.5 576,-1169.5 448,-1169.5"/>
<text text-anchor="middle" x="512" y="-1176.5" font-family="Helvetica,sans-Serif" font-size="10.00">WorldGen.RangeFrame</text>
</a>
</g>
</g>
<!-- Node7&#45;&gt;Node8 -->
<g id="edge7" class="edge">
<title>Node7&#45;&gt;Node8</title>
<path fill="none" stroke="midnightblue" d="M398.96,-784.67C403.74,-787.15 408.18,-790.22 412,-794 465.3,-846.79 499.47,-1087.56 508.56,-1158.98"/>
<polygon fill="midnightblue" stroke="midnightblue" points="505.13,-1159.78 509.85,-1169.27 512.08,-1158.91 505.13,-1159.78"/>
</g>
<!-- Node38 -->
<g id="node14" class="node">
<title>Node38</title>
<g id="a_node14"><a xlink:href="../../dc/d81/classNetMessage_aae9f950a067b8cd26edda26e73a41b2d.html#aae9f950a067b8cd26edda26e73a41b2d" target="_top" xlink:title=" ">
<polygon fill="white" stroke="black" points="448,-765.5 448,-784.5 576,-784.5 576,-765.5 448,-765.5"/>
<text text-anchor="middle" x="512" y="-772.5" font-family="Helvetica,sans-Serif" font-size="10.00">NetMessage.SendData</text>
</a>
</g>
</g>
<!-- Node7&#45;&gt;Node38 -->
<g id="edge16" class="edge">
<title>Node7&#45;&gt;Node38</title>
<path fill="none" stroke="midnightblue" d="M412.2,-775C420.67,-775 429.27,-775 437.69,-775"/>
<polygon fill="midnightblue" stroke="midnightblue" points="437.85,-778.5 447.85,-775 437.85,-771.5 437.85,-778.5"/>
</g>
<!-- Node9 -->
<g id="node9" class="node">
<title>Node9</title>
<g id="a_node9"><a xlink:href="../../d4/d93/classFraming_ad1b9636bb50acf5deee32b3a8505f629.html#ad1b9636bb50acf5deee32b3a8505f629" target="_top" xlink:title=" ">
<polygon fill="white" stroke="red" points="643.5,-1516.5 643.5,-1535.5 754.5,-1535.5 754.5,-1516.5 643.5,-1516.5"/>
<text text-anchor="middle" x="699" y="-1523.5" font-family="Helvetica,sans-Serif" font-size="10.00">Framing.WallFrame</text>
</a>
</g>
</g>
<!-- Node8&#45;&gt;Node9 -->
<g id="edge8" class="edge">
<title>Node8&#45;&gt;Node9</title>
<path fill="none" stroke="midnightblue" d="M512.84,-1188.58C512.69,-1231.77 517.94,-1410.28 612,-1502 618.14,-1507.99 625.65,-1512.51 633.64,-1515.92"/>
<polygon fill="midnightblue" stroke="midnightblue" points="632.6,-1519.27 643.2,-1519.43 635.02,-1512.69 632.6,-1519.27"/>
</g>
<!-- Node9&#45;&gt;Node4 -->
<g id="edge9" class="edge">
<title>Node9&#45;&gt;Node4</title>
<path fill="none" stroke="midnightblue" d="M746.76,-1535.51C759.85,-1539.11 773.82,-1543.86 786,-1550 804.1,-1559.12 803.97,-1568.74 822,-1578 833.74,-1584.03 847.22,-1588.78 859.79,-1592.42"/>
<polygon fill="midnightblue" stroke="midnightblue" points="859.04,-1595.84 869.61,-1595.09 860.88,-1589.09 859.04,-1595.84"/>
</g>
<!-- Node10 -->
<g id="node10" class="node">
<title>Node10</title>
<g id="a_node10"><a xlink:href="../../d6/dba/classTile_a259277529cfc1f6cfd4f75c543daea64.html#a259277529cfc1f6cfd4f75c543daea64" target="_top" xlink:title=" ">
<polygon fill="white" stroke="black" points="822,-1440.5 822,-1459.5 986,-1459.5 986,-1440.5 822,-1440.5"/>
<text text-anchor="middle" x="904" y="-1447.5" font-family="Helvetica,sans-Serif" font-size="10.00">Tile.ClearWallPaintAndCoating</text>
</a>
</g>
</g>
<!-- Node9&#45;&gt;Node10 -->
<g id="edge10" class="edge">
<title>Node9&#45;&gt;Node10</title>
<path fill="none" stroke="midnightblue" d="M725.71,-1516.37C761.78,-1502.87 827.53,-1478.25 868.03,-1463.09"/>
<polygon fill="midnightblue" stroke="midnightblue" points="869.36,-1466.33 877.5,-1459.55 866.91,-1459.78 869.36,-1466.33"/>
</g>
<!-- Node12 -->
<g id="node12" class="node">
<title>Node12</title>
<g id="a_node12"><a xlink:href="../../d6/dba/classTile_a5f91c633897ca90de65f8c0bac41b000.html#a5f91c633897ca90de65f8c0bac41b000" target="_top" xlink:title=" ">
<polygon fill="white" stroke="black" points="1023.5,-1440.5 1023.5,-1459.5 1123.5,-1459.5 1123.5,-1440.5 1023.5,-1440.5"/>
<text text-anchor="middle" x="1073.5" y="-1447.5" font-family="Helvetica,sans-Serif" font-size="10.00">Tile.invisibleWall</text>
</a>
</g>
</g>
<!-- Node9&#45;&gt;Node12 -->
<g id="edge14" class="edge">
<title>Node9&#45;&gt;Node12</title>
<path fill="none" stroke="midnightblue" d="M749.4,-1516.46C806.46,-1505.37 903.12,-1486.36 986,-1469 996.95,-1466.71 1008.65,-1464.18 1019.81,-1461.75"/>
<polygon fill="midnightblue" stroke="midnightblue" points="1020.84,-1465.1 1029.86,-1459.54 1019.34,-1458.26 1020.84,-1465.1"/>
</g>
<!-- Node13 -->
<g id="node13" class="node">
<title>Node13</title>
<g id="a_node13"><a xlink:href="../../d6/dba/classTile_a34554428a8acc3d2525ecad6dadff885.html#a34554428a8acc3d2525ecad6dadff885" target="_top" xlink:title=" ">
<polygon fill="white" stroke="black" points="1032,-1478.5 1032,-1497.5 1115,-1497.5 1115,-1478.5 1032,-1478.5"/>
<text text-anchor="middle" x="1073.5" y="-1485.5" font-family="Helvetica,sans-Serif" font-size="10.00">Tile.wallColor</text>
</a>
</g>
</g>
<!-- Node9&#45;&gt;Node13 -->
<g id="edge15" class="edge">
<title>Node9&#45;&gt;Node13</title>
<path fill="none" stroke="midnightblue" d="M739.25,-1535.59C795.18,-1547.56 900.49,-1563.72 986,-1540 1011.07,-1533.04 1036.16,-1516.66 1052.82,-1504.13"/>
<polygon fill="midnightblue" stroke="midnightblue" points="1055.4,-1506.55 1061.14,-1497.65 1051.1,-1501.03 1055.4,-1506.55"/>
</g>
<!-- Node11 -->
<g id="node11" class="node">
<title>Node11</title>
<g id="a_node11"><a xlink:href="../../d6/dba/classTile_a6771973d2404aad67503906dc8131567.html#a6771973d2404aad67503906dc8131567" target="_top" xlink:title=" ">
<polygon fill="white" stroke="black" points="1022,-1156.5 1022,-1175.5 1125,-1175.5 1125,-1156.5 1022,-1156.5"/>
<text text-anchor="middle" x="1073.5" y="-1163.5" font-family="Helvetica,sans-Serif" font-size="10.00">Tile.fullbrightWall</text>
</a>
</g>
</g>
<!-- Node10&#45;&gt;Node11 -->
<g id="edge11" class="edge">
<title>Node10&#45;&gt;Node11</title>
<path fill="none" stroke="midnightblue" d="M910.77,-1440.22C935.08,-1399 1029.45,-1238.99 1061.66,-1184.38"/>
<polygon fill="midnightblue" stroke="midnightblue" points="1064.69,-1186.13 1066.76,-1175.73 1058.66,-1182.57 1064.69,-1186.13"/>
</g>
<!-- Node10&#45;&gt;Node12 -->
<g id="edge12" class="edge">
<title>Node10&#45;&gt;Node12</title>
<path fill="none" stroke="midnightblue" d="M986.3,-1450C995.4,-1450 1004.55,-1450 1013.3,-1450"/>
<polygon fill="midnightblue" stroke="midnightblue" points="1013.37,-1453.5 1023.37,-1450 1013.37,-1446.5 1013.37,-1453.5"/>
</g>
<!-- Node10&#45;&gt;Node13 -->
<g id="edge13" class="edge">
<title>Node10&#45;&gt;Node13</title>
<path fill="none" stroke="midnightblue" d="M947.27,-1459.59C969.99,-1464.74 998.17,-1471.14 1022.04,-1476.55"/>
<polygon fill="midnightblue" stroke="midnightblue" points="1021.45,-1480.01 1031.98,-1478.81 1023,-1473.18 1021.45,-1480.01"/>
</g>
<!-- Node38&#45;&gt;Node2 -->
<g id="edge18" class="edge">
<title>Node38&#45;&gt;Node2</title>
<path fill="none" stroke="midnightblue" d="M514.88,-784.78C523.22,-828.41 557.27,-1009.79 576,-1160 587.54,-1252.52 552.49,-1506.23 612,-1578 621.32,-1589.23 635.41,-1595.45 649.51,-1598.82"/>
<polygon fill="midnightblue" stroke="midnightblue" points="649.23,-1602.33 659.71,-1600.8 650.56,-1595.46 649.23,-1602.33"/>
</g>
<!-- Node38&#45;&gt;Node4 -->
<g id="edge17" class="edge">
<title>Node38&#45;&gt;Node4</title>
<path fill="none" stroke="midnightblue" d="M514.86,-784.78C523.09,-828.43 556.72,-1009.86 576,-1160 586.94,-1245.23 554.36,-1481.27 612,-1545 620.31,-1554.19 780.83,-1581.82 859.83,-1594.94"/>
<polygon fill="midnightblue" stroke="midnightblue" points="859.52,-1598.43 869.95,-1596.61 860.66,-1591.53 859.52,-1598.43"/>
</g>
<!-- Node38&#45;&gt;Node6 -->
<g id="edge35" class="edge">
<title>Node38&#45;&gt;Node6</title>
<path fill="none" stroke="midnightblue" d="M557.78,-765.45C564.88,-762.01 571.39,-757.34 576,-751 623.21,-686.02 560.16,-90.35 612,-29 621.37,-17.91 635.62,-12.43 649.84,-9.93"/>
<polygon fill="midnightblue" stroke="midnightblue" points="650.66,-13.35 660.12,-8.6 649.76,-6.41 650.66,-13.35"/>
</g>
<!-- Node38&#45;&gt;Node11 -->
<g id="edge25" class="edge">
<title>Node38&#45;&gt;Node11</title>
<path fill="none" stroke="midnightblue" d="M517.29,-784.7C528.68,-809.12 562.22,-873.18 612,-901 758.05,-982.63 853.5,-841.83 986,-944 1051.69,-994.65 1067.54,-1102.18 1071.33,-1146.39"/>
<polygon fill="midnightblue" stroke="midnightblue" points="1067.84,-1146.7 1072.07,-1156.42 1074.82,-1146.19 1067.84,-1146.7"/>
</g>
<!-- Node38&#45;&gt;Node12 -->
<g id="edge37" class="edge">
<title>Node38&#45;&gt;Node12</title>
<path fill="none" stroke="midnightblue" d="M516.42,-784.59C526.51,-811.56 558.89,-888.61 612,-928 676.63,-975.93 722.07,-929.14 786,-978 952.26,-1105.06 1043.3,-1358.63 1066.51,-1430.57"/>
<polygon fill="midnightblue" stroke="midnightblue" points="1063.19,-1431.69 1069.54,-1440.17 1069.86,-1429.58 1063.19,-1431.69"/>
</g>
<!-- Node38&#45;&gt;Node13 -->
<g id="edge50" class="edge">
<title>Node38&#45;&gt;Node13</title>
<path fill="none" stroke="midnightblue" d="M514.72,-784.5C522.51,-827.67 554.97,-1009.75 576,-1160 585.58,-1228.46 561.32,-1421.98 612,-1469 670.11,-1522.92 914.16,-1504.75 1021.49,-1493.79"/>
<polygon fill="midnightblue" stroke="midnightblue" points="1022.16,-1497.24 1031.74,-1492.72 1021.43,-1490.28 1022.16,-1497.24"/>
</g>
<!-- Node39 -->
<g id="node15" class="node">
<title>Node39</title>
<g id="a_node15"><a xlink:href="../../dd/dc4/interfaceISocket_a511af46ee3de67c1203113b24bb71d07.html#a511af46ee3de67c1203113b24bb71d07" target="_top" xlink:title=" ">
<polygon fill="white" stroke="black" points="645,-872.5 645,-891.5 753,-891.5 753,-872.5 645,-872.5"/>
<text text-anchor="middle" x="699" y="-879.5" font-family="Helvetica,sans-Serif" font-size="10.00">ISocket.AsyncSend</text>
</a>
</g>
</g>
<!-- Node38&#45;&gt;Node39 -->
<g id="edge19" class="edge">
<title>Node38&#45;&gt;Node39</title>
<path fill="none" stroke="midnightblue" d="M520.85,-784.7C536.28,-803.05 572.47,-842.82 612,-863 619.16,-866.66 627.02,-869.61 634.97,-872"/>
<polygon fill="midnightblue" stroke="midnightblue" points="634.12,-875.4 644.68,-874.65 635.95,-868.64 634.12,-875.4"/>
</g>
<!-- Node40 -->
<g id="node16" class="node">
<title>Node40</title>
<g id="a_node16"><a xlink:href="../../d3/d0e/classRemoteServer_a42c60d555de36d82c304afacb843109c.html#a42c60d555de36d82c304afacb843109c" target="_top" xlink:title=" ">
<polygon fill="white" stroke="black" points="627.5,-823 627.5,-853 770.5,-853 770.5,-823 627.5,-823"/>
<text text-anchor="start" x="635.5" y="-841" font-family="Helvetica,sans-Serif" font-size="10.00">RemoteServer.ClientWrite</text>
<text text-anchor="middle" x="699" y="-830" font-family="Helvetica,sans-Serif" font-size="10.00">CallBack</text>
</a>
</g>
</g>
<!-- Node38&#45;&gt;Node40 -->
<g id="edge20" class="edge">
<title>Node38&#45;&gt;Node40</title>
<path fill="none" stroke="midnightblue" d="M536.4,-784.62C556.34,-792.66 585.83,-804.19 612,-813 619.07,-815.38 626.51,-817.75 633.93,-820.02"/>
<polygon fill="midnightblue" stroke="midnightblue" points="633.07,-823.41 643.65,-822.95 635.09,-816.71 633.07,-823.41"/>
</g>
<!-- Node20 -->
<g id="node17" class="node">
<title>Node20</title>
<g id="a_node17"><a xlink:href="../../d6/dba/classTile_aab901c8f842b5afa78ab3605f6c5d542.html#aab901c8f842b5afa78ab3605f6c5d542" target="_top" xlink:title=" ">
<polygon fill="white" stroke="black" points="668,-784.5 668,-803.5 730,-803.5 730,-784.5 668,-784.5"/>
<text text-anchor="middle" x="699" y="-791.5" font-family="Helvetica,sans-Serif" font-size="10.00">Tile.color</text>
</a>
</g>
</g>
<!-- Node38&#45;&gt;Node20 -->
<g id="edge21" class="edge">
<title>Node38&#45;&gt;Node20</title>
<path fill="none" stroke="midnightblue" d="M576.15,-781.49C603.14,-784.26 633.85,-787.41 657.68,-789.86"/>
<polygon fill="midnightblue" stroke="midnightblue" points="657.48,-793.36 667.78,-790.9 658.19,-786.39 657.48,-793.36"/>
</g>
<!-- Node41 -->
<g id="node18" class="node">
<title>Node41</title>
<g id="a_node18"><a xlink:href="../../dc/d81/classNetMessage_aeb123127a7678b0a62966969dd5435e3.html#aeb123127a7678b0a62966969dd5435e3" target="_top" xlink:title=" ">
<polygon fill="white" stroke="red" points="612,-746.5 612,-765.5 786,-765.5 786,-746.5 612,-746.5"/>
<text text-anchor="middle" x="699" y="-753.5" font-family="Helvetica,sans-Serif" font-size="10.00">NetMessage.CompressTileBlock</text>
</a>
</g>
</g>
<!-- Node38&#45;&gt;Node41 -->
<g id="edge22" class="edge">
<title>Node38&#45;&gt;Node41</title>
<path fill="none" stroke="midnightblue" d="M576.15,-768.51C584.42,-767.66 593.05,-766.78 601.72,-765.89"/>
<polygon fill="midnightblue" stroke="midnightblue" points="602.31,-769.35 611.9,-764.84 601.59,-762.38 602.31,-769.35"/>
</g>
<!-- Node63 -->
<g id="node19" class="node">
<title>Node63</title>
<g id="a_node19"><a xlink:href="../../d1/d6d/interfaceINetDiagnosticsUI_a076e65303a310f5c718916c3d433c966.html#a076e65303a310f5c718916c3d433c966" target="_top" xlink:title=" ">
<polygon fill="white" stroke="black" points="620,-697 620,-727 778,-727 778,-697 620,-697"/>
<text text-anchor="start" x="628" y="-715" font-family="Helvetica,sans-Serif" font-size="10.00">INetDiagnosticsUI.CountSent</text>
<text text-anchor="middle" x="699" y="-704" font-family="Helvetica,sans-Serif" font-size="10.00">Message</text>
</a>
</g>
</g>
<!-- Node38&#45;&gt;Node63 -->
<g id="edge23" class="edge">
<title>Node38&#45;&gt;Node63</title>
<path fill="none" stroke="midnightblue" d="M538.15,-765.46C549.69,-761.08 563.55,-755.79 576,-751 592.02,-744.83 595.74,-742.51 612,-737 619.06,-734.6 626.5,-732.23 633.92,-729.95"/>
<polygon fill="midnightblue" stroke="midnightblue" points="635.08,-733.26 643.64,-727.02 633.05,-726.56 635.08,-733.26"/>
</g>
<!-- Node23 -->
<g id="node20" class="node">
<title>Node23</title>
<g id="a_node20"><a xlink:href="../../d6/dba/classTile_ac1019500ca7fcafcb5b51f226fec3686.html#ac1019500ca7fcafcb5b51f226fec3686" target="_top" xlink:title=" ">
<polygon fill="white" stroke="black" points="644.5,-658.5 644.5,-677.5 753.5,-677.5 753.5,-658.5 644.5,-658.5"/>
<text text-anchor="middle" x="699" y="-665.5" font-family="Helvetica,sans-Serif" font-size="10.00">Tile.fullbrightBlock</text>
</a>
</g>
</g>
<!-- Node38&#45;&gt;Node23 -->
<g id="edge24" class="edge">
<title>Node38&#45;&gt;Node23</title>
<path fill="none" stroke="midnightblue" d="M550.64,-765.46C559.62,-761.94 568.71,-757.24 576,-751 600.5,-730.03 586.13,-707.26 612,-688 618.64,-683.05 626.31,-679.3 634.28,-676.47"/>
<polygon fill="midnightblue" stroke="midnightblue" points="635.57,-679.73 644.1,-673.44 633.51,-673.04 635.57,-679.73"/>
</g>
<!-- Node64 -->
<g id="node21" class="node">
<title>Node64</title>
<g id="a_node21"><a xlink:href="../../d5/ded/classNetSocialModule_af0090e196791182cf907e4bd9a55412f.html#af0090e196791182cf907e4bd9a55412f" target="_top" xlink:title=" ">
<polygon fill="white" stroke="black" points="620,-620.5 620,-639.5 778,-639.5 778,-620.5 620,-620.5"/>
<text text-anchor="middle" x="699" y="-627.5" font-family="Helvetica,sans-Serif" font-size="10.00">NetSocialModule.GetLobbyId</text>
</a>
</g>
</g>
<!-- Node38&#45;&gt;Node64 -->
<g id="edge26" class="edge">
<title>Node38&#45;&gt;Node64</title>
<path fill="none" stroke="midnightblue" d="M553.75,-765.4C561.92,-761.94 569.87,-757.28 576,-751 609.57,-716.59 576,-680.86 612,-649 613.72,-647.48 615.54,-646.07 617.43,-644.76"/>
<polygon fill="midnightblue" stroke="midnightblue" points="619.28,-647.74 626.17,-639.69 615.77,-641.68 619.28,-647.74"/>
</g>
<!-- Node65 -->
<g id="node22" class="node">
<title>Node65</title>
<g id="a_node22"><a xlink:href="../../de/d71/classNPC_a4c39a8890e0e18375e6ab1ef2365b0d1.html#a4c39a8890e0e18375e6ab1ef2365b0d1" target="_top" xlink:title=" ">
<polygon fill="white" stroke="black" points="660.5,-582.5 660.5,-601.5 737.5,-601.5 737.5,-582.5 660.5,-582.5"/>
<text text-anchor="middle" x="699" y="-589.5" font-family="Helvetica,sans-Serif" font-size="10.00">NPC.getRect</text>
</a>
</g>
</g>
<!-- Node38&#45;&gt;Node65 -->
<g id="edge27" class="edge">
<title>Node38&#45;&gt;Node65</title>
<path fill="none" stroke="midnightblue" d="M555.15,-765.37C562.94,-761.93 570.38,-757.28 576,-751 618.81,-703.09 565.8,-655.64 612,-611 622.26,-601.08 636.48,-595.87 650.39,-593.25"/>
<polygon fill="midnightblue" stroke="midnightblue" points="651.03,-596.7 660.41,-591.77 650.01,-589.77 651.03,-596.7"/>
</g>
<!-- Node66 -->
<g id="node23" class="node">
<title>Node66</title>
<g id="a_node23"><a xlink:href="../../d2/d4b/classPlayer_af6df066c2c1b4e670be718cb58b66968.html#af6df066c2c1b4e670be718cb58b66968" target="_top" xlink:title=" ">
<polygon fill="white" stroke="black" points="655.5,-544.5 655.5,-563.5 742.5,-563.5 742.5,-544.5 655.5,-544.5"/>
<text text-anchor="middle" x="699" y="-551.5" font-family="Helvetica,sans-Serif" font-size="10.00">Player.getRect</text>
</a>
</g>
</g>
<!-- Node38&#45;&gt;Node66 -->
<g id="edge28" class="edge">
<title>Node38&#45;&gt;Node66</title>
<path fill="none" stroke="midnightblue" d="M555.73,-765.45C563.39,-762.01 570.63,-757.34 576,-751 628.19,-689.43 555.44,-630.58 612,-573 620.88,-563.96 633.02,-558.78 645.38,-555.91"/>
<polygon fill="midnightblue" stroke="midnightblue" points="646.08,-559.34 655.28,-554.08 644.81,-552.46 646.08,-559.34"/>
</g>
<!-- Node67 -->
<g id="node24" class="node">
<title>Node67</title>
<g id="a_node24"><a xlink:href="../../d9/d4b/classProjectile_a0133e73e3ee32fc8aae1c7fdb6bb4cde.html#a0133e73e3ee32fc8aae1c7fdb6bb4cde" target="_top" xlink:title=" ">
<polygon fill="white" stroke="black" points="647.5,-506.5 647.5,-525.5 750.5,-525.5 750.5,-506.5 647.5,-506.5"/>
<text text-anchor="middle" x="699" y="-513.5" font-family="Helvetica,sans-Serif" font-size="10.00">Projectile.getRect</text>
</a>
</g>
</g>
<!-- Node38&#45;&gt;Node67 -->
<g id="edge29" class="edge">
<title>Node38&#45;&gt;Node67</title>
<path fill="none" stroke="midnightblue" d="M556.23,-765.44C563.75,-762.01 570.81,-757.34 576,-751 637.65,-675.69 545,-605.59 612,-535 618.95,-527.68 628.03,-522.87 637.68,-519.77"/>
<polygon fill="midnightblue" stroke="midnightblue" points="638.68,-523.12 647.47,-517.2 636.91,-516.35 638.68,-523.12"/>
</g>
<!-- Node68 -->
<g id="node25" class="node">
<title>Node68</title>
<g id="a_node25"><a xlink:href="../../dd/dc4/interfaceISocket_acd5af726d37763775e8b7e204378c039.html#acd5af726d37763775e8b7e204378c039" target="_top" xlink:title=" ">
<polygon fill="white" stroke="black" points="624.5,-468.5 624.5,-487.5 773.5,-487.5 773.5,-468.5 624.5,-468.5"/>
<text text-anchor="middle" x="699" y="-475.5" font-family="Helvetica,sans-Serif" font-size="10.00">ISocket.GetRemoteAddress</text>
</a>
</g>
</g>
<!-- Node38&#45;&gt;Node68 -->
<g id="edge30" class="edge">
<title>Node38&#45;&gt;Node68</title>
<path fill="none" stroke="midnightblue" d="M556.67,-765.39C564.06,-761.96 570.96,-757.31 576,-751 647.14,-661.9 534.53,-580.65 612,-497 613.21,-495.69 614.5,-494.46 615.84,-493.3"/>
<polygon fill="midnightblue" stroke="midnightblue" points="617.95,-496.09 624.12,-487.48 613.92,-490.37 617.95,-496.09"/>
</g>
<!-- Node69 -->
<g id="node26" class="node">
<title>Node69</title>
<g id="a_node26"><a xlink:href="../../d9/d43/classNetplay_ab61acde52f6e2c8d92b5816ba67ccadf.html#ab61acde52f6e2c8d92b5816ba67ccadf" target="_top" xlink:title=" ">
<polygon fill="white" stroke="black" points="846,-411.5 846,-430.5 962,-430.5 962,-411.5 846,-411.5"/>
<text text-anchor="middle" x="904" y="-418.5" font-family="Helvetica,sans-Serif" font-size="10.00">Netplay.GetSectionX</text>
</a>
</g>
</g>
<!-- Node38&#45;&gt;Node69 -->
<g id="edge31" class="edge">
<title>Node38&#45;&gt;Node69</title>
<path fill="none" stroke="midnightblue" d="M556.76,-765.47C564.15,-762.03 571.02,-757.36 576,-751 656.66,-648.08 519.87,-551.79 612,-459 642.3,-428.48 759.17,-421.69 835.27,-420.6"/>
<polygon fill="midnightblue" stroke="midnightblue" points="835.76,-424.1 845.72,-420.48 835.69,-417.1 835.76,-424.1"/>
</g>
<!-- Node70 -->
<g id="node27" class="node">
<title>Node70</title>
<g id="a_node27"><a xlink:href="../../d9/d43/classNetplay_a5d153f58e51f26baa5e12b5e6d86c56b.html#a5d153f58e51f26baa5e12b5e6d86c56b" target="_top" xlink:title=" ">
<polygon fill="white" stroke="black" points="846,-363.5 846,-382.5 962,-382.5 962,-363.5 846,-363.5"/>
<text text-anchor="middle" x="904" y="-370.5" font-family="Helvetica,sans-Serif" font-size="10.00">Netplay.GetSectionY</text>
</a>
</g>
</g>
<!-- Node38&#45;&gt;Node70 -->
<g id="edge32" class="edge">
<title>Node38&#45;&gt;Node70</title>
<path fill="none" stroke="midnightblue" d="M557.21,-765.41C564.46,-761.98 571.17,-757.33 576,-751 625.87,-685.7 552.09,-439.24 612,-383 643.11,-353.8 759.72,-358.76 835.55,-365.53"/>
<polygon fill="midnightblue" stroke="midnightblue" points="835.69,-369.05 845.97,-366.49 836.33,-362.08 835.69,-369.05"/>
</g>
<!-- Node71 -->
<g id="node28" class="node">
<title>Node71</title>
<g id="a_node28"><a xlink:href="../../d0/d41/classLanguage_a9f392308c3f9927bacc3d83792b46408.html#a9f392308c3f9927bacc3d83792b46408" target="_top" xlink:title=" ">
<polygon fill="white" stroke="red" points="633.5,-316.5 633.5,-335.5 764.5,-335.5 764.5,-316.5 633.5,-316.5"/>
<text text-anchor="middle" x="699" y="-323.5" font-family="Helvetica,sans-Serif" font-size="10.00">Language.GetTextValue</text>
</a>
</g>
</g>
<!-- Node38&#45;&gt;Node71 -->
<g id="edge33" class="edge">
<title>Node38&#45;&gt;Node71</title>
<path fill="none" stroke="midnightblue" d="M557.25,-765.45C564.5,-762.01 571.19,-757.34 576,-751 630.02,-679.68 554.77,-418.77 612,-350 615.44,-345.86 619.54,-342.4 624.04,-339.52"/>
<polygon fill="midnightblue" stroke="midnightblue" points="625.97,-342.45 633.14,-334.65 622.67,-336.28 625.97,-342.45"/>
</g>
<!-- Node51 -->
<g id="node29" class="node">
<title>Node51</title>
<g id="a_node29"><a xlink:href="../../d6/dba/classTile_a975f34b33a09445dfd475309fdcfd6a0.html#a975f34b33a09445dfd475309fdcfd6a0" target="_top" xlink:title=" ">
<polygon fill="white" stroke="black" points="658.5,-278.5 658.5,-297.5 739.5,-297.5 739.5,-278.5 658.5,-278.5"/>
<text text-anchor="middle" x="699" y="-285.5" font-family="Helvetica,sans-Serif" font-size="10.00">Tile.halfBrick</text>
</a>
</g>
</g>
<!-- Node38&#45;&gt;Node51 -->
<g id="edge34" class="edge">
<title>Node38&#45;&gt;Node51</title>
<path fill="none" stroke="midnightblue" d="M557.3,-765.48C564.54,-762.04 571.22,-757.37 576,-751 635.42,-671.83 546.94,-381.61 612,-307 621.05,-296.62 634.37,-291.19 647.84,-288.52"/>
<polygon fill="midnightblue" stroke="midnightblue" points="648.74,-291.92 658.11,-286.97 647.7,-285 648.74,-291.92"/>
</g>
<!-- Node27 -->
<g id="node30" class="node">
<title>Node27</title>
<g id="a_node30"><a xlink:href="../../d6/dba/classTile_ab79d72d2c148d8bbd6dbc20055eec3d6.html#ab79d72d2c148d8bbd6dbc20055eec3d6" target="_top" xlink:title=" ">
<polygon fill="white" stroke="black" points="646,-240.5 646,-259.5 752,-259.5 752,-240.5 646,-240.5"/>
<text text-anchor="middle" x="699" y="-247.5" font-family="Helvetica,sans-Serif" font-size="10.00">Tile.invisibleBlock</text>
</a>
</g>
</g>
<!-- Node38&#45;&gt;Node27 -->
<g id="edge36" class="edge">
<title>Node38&#45;&gt;Node27</title>
<path fill="none" stroke="midnightblue" d="M557.65,-765.35C564.76,-761.93 571.31,-757.29 576,-751 640.2,-664.89 541.67,-350.18 612,-269 618.39,-261.62 626.94,-256.74 636.18,-253.58"/>
<polygon fill="midnightblue" stroke="midnightblue" points="637.28,-256.9 645.99,-250.86 635.42,-250.16 637.28,-256.9"/>
</g>
<!-- Node73 -->
<g id="node31" class="node">
<title>Node73</title>
<g id="a_node31"><a xlink:href="../../dd/dc4/interfaceISocket_a36309c9c292db8e6f6b103814e62861d.html#a36309c9c292db8e6f6b103814e62861d" target="_top" xlink:title=" ">
<polygon fill="white" stroke="black" points="846.5,-183.5 846.5,-202.5 961.5,-202.5 961.5,-183.5 846.5,-183.5"/>
<text text-anchor="middle" x="904" y="-190.5" font-family="Helvetica,sans-Serif" font-size="10.00">ISocket.IsConnected</text>
</a>
</g>
</g>
<!-- Node38&#45;&gt;Node73 -->
<g id="edge38" class="edge">
<title>Node38&#45;&gt;Node73</title>
<path fill="none" stroke="midnightblue" d="M557.68,-765.37C564.79,-761.95 571.33,-757.3 576,-751 644.99,-657.95 532.62,-315.35 612,-231 641.66,-199.49 760.09,-193.06 836.42,-192.31"/>
<polygon fill="midnightblue" stroke="midnightblue" points="836.46,-195.81 846.44,-192.24 836.41,-188.81 836.46,-195.81"/>
</g>
<!-- Node74 -->
<g id="node32" class="node">
<title>Node74</title>
<g id="a_node32"><a xlink:href="../../db/d53/classRemoteClient_a12dad1d00d836ac7ab31b780cbde6b70.html#a12dad1d00d836ac7ab31b780cbde6b70" target="_top" xlink:title=" ">
<polygon fill="white" stroke="black" points="626,-164.5 626,-183.5 772,-183.5 772,-164.5 626,-164.5"/>
<text text-anchor="middle" x="699" y="-171.5" font-family="Helvetica,sans-Serif" font-size="10.00">RemoteClient.IsConnected</text>
</a>
</g>
</g>
<!-- Node38&#45;&gt;Node74 -->
<g id="edge39" class="edge">
<title>Node38&#45;&gt;Node74</title>
<path fill="none" stroke="midnightblue" d="M557.7,-765.39C564.81,-761.96 571.34,-757.31 576,-751 649.14,-651.92 534.39,-293.62 612,-198 614.94,-194.38 618.37,-191.28 622.14,-188.63"/>
<polygon fill="midnightblue" stroke="midnightblue" points="624.02,-191.58 630.88,-183.51 620.48,-185.55 624.02,-191.58"/>
</g>
<!-- Node29 -->
<g id="node33" class="node">
<title>Node29</title>
<g id="a_node33"><a xlink:href="../../d6/dba/classTile_ae3a537e6afc69261928beeb910d9e29d.html#ae3a537e6afc69261928beeb910d9e29d" target="_top" xlink:title=" ">
<polygon fill="white" stroke="red" points="655.5,-126.5 655.5,-145.5 742.5,-145.5 742.5,-126.5 655.5,-126.5"/>
<text text-anchor="middle" x="699" y="-133.5" font-family="Helvetica,sans-Serif" font-size="10.00">Tile.liquidType</text>
</a>
</g>
</g>
<!-- Node38&#45;&gt;Node29 -->
<g id="edge41" class="edge">
<title>Node38&#45;&gt;Node29</title>
<path fill="none" stroke="midnightblue" d="M557.72,-765.41C564.83,-761.98 571.36,-757.32 576,-751 654.55,-644.07 525.83,-255.9 612,-155 620.38,-145.18 632.59,-139.77 645.19,-136.94"/>
<polygon fill="midnightblue" stroke="midnightblue" points="646.06,-140.34 655.31,-135.17 644.86,-133.44 646.06,-140.34"/>
</g>
<!-- Node75 -->
<g id="node34" class="node">
<title>Node75</title>
<g id="a_node34"><a xlink:href="../../df/d9d/classMessageBuffer_abed3beea6de2ff8064638640f3fcf6be.html#abed3beea6de2ff8064638640f3fcf6be" target="_top" xlink:title=" ">
<polygon fill="white" stroke="black" points="624.5,-88.5 624.5,-107.5 773.5,-107.5 773.5,-88.5 624.5,-88.5"/>
<text text-anchor="middle" x="699" y="-95.5" font-family="Helvetica,sans-Serif" font-size="10.00">MessageBuffer.ResetWriter</text>
</a>
</g>
</g>
<!-- Node38&#45;&gt;Node75 -->
<g id="edge42" class="edge">
<title>Node38&#45;&gt;Node75</title>
<path fill="none" stroke="midnightblue" d="M557.74,-765.42C564.85,-761.99 571.37,-757.33 576,-751 659.34,-637.12 520.55,-224.47 612,-117 613.19,-115.6 614.46,-114.29 615.8,-113.06"/>
<polygon fill="midnightblue" stroke="midnightblue" points="618.16,-115.67 624.14,-106.92 614.01,-110.03 618.16,-115.67"/>
</g>
<!-- Node76 -->
<g id="node35" class="node">
<title>Node76</title>
<g id="a_node35"><a xlink:href="../../db/d53/classRemoteClient_a18c7e508f7994d26c51c785021eee7dc.html#a18c7e508f7994d26c51c785021eee7dc" target="_top" xlink:title=" ">
<polygon fill="white" stroke="black" points="622.5,-392.5 622.5,-411.5 775.5,-411.5 775.5,-392.5 622.5,-392.5"/>
<text text-anchor="middle" x="699" y="-399.5" font-family="Helvetica,sans-Serif" font-size="10.00">RemoteClient.SectionRange</text>
</a>
</g>
</g>
<!-- Node38&#45;&gt;Node76 -->
<g id="edge43" class="edge">
<title>Node38&#45;&gt;Node76</title>
<path fill="none" stroke="midnightblue" d="M557.15,-765.36C564.4,-761.94 571.13,-757.29 576,-751 664.94,-636.06 517.88,-536.73 612,-426 615.08,-422.38 618.65,-419.28 622.55,-416.64"/>
<polygon fill="midnightblue" stroke="midnightblue" points="624.59,-419.5 631.57,-411.53 621.14,-413.41 624.59,-419.5"/>
</g>
<!-- Node77 -->
<g id="node36" class="node">
<title>Node77</title>
<g id="a_node36"><a xlink:href="../../db/d53/classRemoteClient_aa2252e1d8a932f84cc0e3afc4162f5ea.html#aa2252e1d8a932f84cc0e3afc4162f5ea" target="_top" xlink:title=" ">
<polygon fill="white" stroke="black" points="627,-39 627,-69 771,-69 771,-39 627,-39"/>
<text text-anchor="start" x="635" y="-57" font-family="Helvetica,sans-Serif" font-size="10.00">RemoteClient.ServerWrite</text>
<text text-anchor="middle" x="699" y="-46" font-family="Helvetica,sans-Serif" font-size="10.00">CallBack</text>
</a>
</g>
</g>
<!-- Node38&#45;&gt;Node77 -->
<g id="edge46" class="edge">
<title>Node38&#45;&gt;Node77</title>
<path fill="none" stroke="midnightblue" d="M557.76,-765.43C564.86,-762 571.38,-757.34 576,-751 664.13,-630.18 519.05,-196.15 612,-79 613.9,-76.6 616.02,-74.42 618.31,-72.45"/>
<polygon fill="midnightblue" stroke="midnightblue" points="620.58,-75.13 626.69,-66.48 616.52,-69.43 620.58,-75.13"/>
</g>
<!-- Node78 -->
<g id="node37" class="node">
<title>Node78</title>
<g id="a_node37"><a xlink:href="../../d0/dae/classItem_aa1903fbd65a9a12fd6bd7e217ec00ae4.html#aa1903fbd65a9a12fd6bd7e217ec00ae4" target="_top" xlink:title=" ">
<polygon fill="white" stroke="black" points="649.5,-1440.5 649.5,-1459.5 748.5,-1459.5 748.5,-1440.5 649.5,-1440.5"/>
<text text-anchor="middle" x="699" y="-1447.5" font-family="Helvetica,sans-Serif" font-size="10.00">Item.SetDefaults</text>
</a>
</g>
</g>
<!-- Node38&#45;&gt;Node78 -->
<g id="edge47" class="edge">
<title>Node38&#45;&gt;Node78</title>
<path fill="none" stroke="midnightblue" d="M514.66,-784.51C522.21,-827.72 553.76,-1009.93 576,-1160 584.91,-1220.09 570.91,-1386.25 612,-1431 619.36,-1439.02 629.28,-1444.05 639.77,-1447.13"/>
<polygon fill="midnightblue" stroke="midnightblue" points="638.96,-1450.53 649.5,-1449.44 640.58,-1443.72 638.96,-1450.53"/>
</g>
<!-- Node56 -->
<g id="node38" class="node">
<title>Node56</title>
<g id="a_node38"><a xlink:href="../../d6/dba/classTile_a402ffa996ee74bf853b1538dfd39831c.html#a402ffa996ee74bf853b1538dfd39831c" target="_top" xlink:title=" ">
<polygon fill="white" stroke="black" points="667,-1402.5 667,-1421.5 731,-1421.5 731,-1402.5 667,-1402.5"/>
<text text-anchor="middle" x="699" y="-1409.5" font-family="Helvetica,sans-Serif" font-size="10.00">Tile.slope</text>
</a>
</g>
</g>
<!-- Node38&#45;&gt;Node56 -->
<g id="edge48" class="edge">
<title>Node38&#45;&gt;Node56</title>
<path fill="none" stroke="midnightblue" d="M514.59,-784.52C521.81,-827.78 552.17,-1010.17 576,-1160 584.23,-1211.74 576.16,-1354.78 612,-1393 623.33,-1405.08 640.46,-1410.34 656.46,-1412.39"/>
<polygon fill="midnightblue" stroke="midnightblue" points="656.46,-1415.9 666.73,-1413.31 657.09,-1408.93 656.46,-1415.9"/>
</g>
<!-- Node79 -->
<g id="node39" class="node">
<title>Node79</title>
<g id="a_node39"><a xlink:href="../../d2/d6c/classTreeTopsInfo_a7fc74f76714e48075b4b233e570294be.html#a7fc74f76714e48075b4b233e570294be" target="_top" xlink:title=" ">
<polygon fill="white" stroke="black" points="635,-1364.5 635,-1383.5 763,-1383.5 763,-1364.5 635,-1364.5"/>
<text text-anchor="middle" x="699" y="-1371.5" font-family="Helvetica,sans-Serif" font-size="10.00">TreeTopsInfo.SyncSend</text>
</a>
</g>
</g>
<!-- Node38&#45;&gt;Node79 -->
<g id="edge49" class="edge">
<title>Node38&#45;&gt;Node79</title>
<path fill="none" stroke="midnightblue" d="M514.62,-784.97C527.05,-861.23 606.8,-1349.55 612,-1355 615.89,-1359.08 620.44,-1362.38 625.39,-1365.04"/>
<polygon fill="midnightblue" stroke="midnightblue" points="624.09,-1368.3 634.65,-1369.17 626.94,-1361.9 624.09,-1368.3"/>
</g>
<!-- Node57 -->
<g id="node40" class="node">
<title>Node57</title>
<g id="a_node40"><a xlink:href="../../d6/dba/classTile_a60adbd2001dd6bff09114f7a65b56eb8.html#a60adbd2001dd6bff09114f7a65b56eb8" target="_top" xlink:title=" ">
<polygon fill="white" stroke="black" points="669.5,-1326.5 669.5,-1345.5 728.5,-1345.5 728.5,-1326.5 669.5,-1326.5"/>
<text text-anchor="middle" x="699" y="-1333.5" font-family="Helvetica,sans-Serif" font-size="10.00">Tile.wire</text>
</a>
</g>
</g>
<!-- Node38&#45;&gt;Node57 -->
<g id="edge51" class="edge">
<title>Node38&#45;&gt;Node57</title>
<path fill="none" stroke="midnightblue" d="M514.61,-784.68C526.66,-856.71 602.23,-1306.86 612,-1317 624.13,-1329.58 642.56,-1334.72 659.26,-1336.55"/>
<polygon fill="midnightblue" stroke="midnightblue" points="659.13,-1340.05 669.36,-1337.29 659.65,-1333.06 659.13,-1340.05"/>
</g>
<!-- Node58 -->
<g id="node41" class="node">
<title>Node58</title>
<g id="a_node41"><a xlink:href="../../d6/dba/classTile_aad0aa67791a865603ae50081ff2c69b1.html#aad0aa67791a865603ae50081ff2c69b1" target="_top" xlink:title=" ">
<polygon fill="white" stroke="black" points="666.5,-1288.5 666.5,-1307.5 731.5,-1307.5 731.5,-1288.5 666.5,-1288.5"/>
<text text-anchor="middle" x="699" y="-1295.5" font-family="Helvetica,sans-Serif" font-size="10.00">Tile.wire2</text>
</a>
</g>
</g>
<!-- Node38&#45;&gt;Node58 -->
<g id="edge52" class="edge">
<title>Node38&#45;&gt;Node58</title>
<path fill="none" stroke="midnightblue" d="M514.59,-784.67C525.86,-852.96 593.74,-1260.3 612,-1279 623.39,-1290.66 640.22,-1295.91 655.97,-1298.06"/>
<polygon fill="midnightblue" stroke="midnightblue" points="655.81,-1301.56 666.1,-1299.06 656.49,-1294.59 655.81,-1301.56"/>
</g>
<!-- Node59 -->
<g id="node42" class="node">
<title>Node59</title>
<g id="a_node42"><a xlink:href="../../d6/dba/classTile_a01ced283c7a936cf51337817031f4e2f.html#a01ced283c7a936cf51337817031f4e2f" target="_top" xlink:title=" ">
<polygon fill="white" stroke="black" points="666.5,-1250.5 666.5,-1269.5 731.5,-1269.5 731.5,-1250.5 666.5,-1250.5"/>
<text text-anchor="middle" x="699" y="-1257.5" font-family="Helvetica,sans-Serif" font-size="10.00">Tile.wire3</text>
</a>
</g>
</g>
<!-- Node38&#45;&gt;Node59 -->
<g id="edge53" class="edge">
<title>Node38&#45;&gt;Node59</title>
<path fill="none" stroke="midnightblue" d="M514.43,-784.78C523.89,-848.83 578.07,-1206.8 612,-1241 623.48,-1252.58 640.32,-1257.81 656.06,-1259.97"/>
<polygon fill="midnightblue" stroke="midnightblue" points="655.88,-1263.47 666.18,-1260.98 656.58,-1256.5 655.88,-1263.47"/>
</g>
<!-- Node53 -->
<g id="node43" class="node">
<title>Node53</title>
<g id="a_node43"><a xlink:href="../../d6/dba/classTile_a0508314e2ec39c199c92edf77e31c28b.html#a0508314e2ec39c199c92edf77e31c28b" target="_top" xlink:title=" ">
<polygon fill="white" stroke="black" points="666.5,-1212.5 666.5,-1231.5 731.5,-1231.5 731.5,-1212.5 666.5,-1212.5"/>
<text text-anchor="middle" x="699" y="-1219.5" font-family="Helvetica,sans-Serif" font-size="10.00">Tile.wire4</text>
</a>
</g>
</g>
<!-- Node38&#45;&gt;Node53 -->
<g id="edge54" class="edge">
<title>Node38&#45;&gt;Node53</title>
<path fill="none" stroke="midnightblue" d="M513.86,-784.67C519.17,-842.41 549.4,-1141.02 612,-1203 623.59,-1214.47 640.44,-1219.68 656.17,-1221.86"/>
<polygon fill="midnightblue" stroke="midnightblue" points="655.97,-1225.36 666.27,-1222.89 656.68,-1218.39 655.97,-1225.36"/>
</g>
<!-- Node80 -->
<g id="node44" class="node">
<title>Node80</title>
<g id="a_node44"><a xlink:href="../../d0/d59/structTrackedProjectileReference_a725d0c61f0b474d8a5e857d015ec1015.html#a725d0c61f0b474d8a5e857d015ec1015" target="_top" xlink:title=" ">
<polygon fill="white" stroke="black" points="623,-1163 623,-1193 775,-1193 775,-1163 623,-1163"/>
<text text-anchor="start" x="631" y="-1181" font-family="Helvetica,sans-Serif" font-size="10.00">TrackedProjectileReference.</text>
<text text-anchor="middle" x="699" y="-1170" font-family="Helvetica,sans-Serif" font-size="10.00">Write</text>
</a>
</g>
</g>
<!-- Node38&#45;&gt;Node80 -->
<g id="edge55" class="edge">
<title>Node38&#45;&gt;Node80</title>
<path fill="none" stroke="midnightblue" d="M514.22,-784.52C521.19,-837.66 557.7,-1097.22 612,-1153 613.42,-1154.46 614.93,-1155.84 616.5,-1157.14"/>
<polygon fill="midnightblue" stroke="midnightblue" points="614.67,-1160.13 624.87,-1162.99 618.68,-1154.39 614.67,-1160.13"/>
</g>
<!-- Node60 -->
<g id="node45" class="node">
<title>Node60</title>
<g id="a_node45"><a xlink:href="../../de/d47/classTileEntity_a0dee4b6d34517c88d8bfa1591b06a475.html#a0dee4b6d34517c88d8bfa1591b06a475" target="_top" xlink:title=" ">
<polygon fill="white" stroke="red" points="653.5,-1124.5 653.5,-1143.5 744.5,-1143.5 744.5,-1124.5 653.5,-1124.5"/>
<text text-anchor="middle" x="699" y="-1131.5" font-family="Helvetica,sans-Serif" font-size="10.00">TileEntity.Write</text>
</a>
</g>
</g>
<!-- Node38&#45;&gt;Node60 -->
<g id="edge56" class="edge">
<title>Node38&#45;&gt;Node60</title>
<path fill="none" stroke="midnightblue" d="M512.56,-784.59C511.07,-829.46 511.02,-1020.46 612,-1115 620.55,-1123 631.68,-1127.92 643.08,-1130.88"/>
<polygon fill="midnightblue" stroke="midnightblue" points="642.6,-1134.35 653.11,-1133 644.05,-1127.5 642.6,-1134.35"/>
</g>
<!-- Node81 -->
<g id="node46" class="node">
<title>Node81</title>
<g id="a_node46"><a xlink:href="../../dc/d81/classNetMessage_a99db4c34a0bc6ed088ab287798ef76c2.html#a99db4c34a0bc6ed088ab287798ef76c2" target="_top" xlink:title=" ">
<polygon fill="white" stroke="black" points="621,-1075 621,-1105 777,-1105 777,-1075 621,-1075"/>
<text text-anchor="start" x="629" y="-1093" font-family="Helvetica,sans-Serif" font-size="10.00">NetMessage.WriteAccessory</text>
<text text-anchor="middle" x="699" y="-1082" font-family="Helvetica,sans-Serif" font-size="10.00">Visibility</text>
</a>
</g>
</g>
<!-- Node38&#45;&gt;Node81 -->
<g id="edge57" class="edge">
<title>Node38&#45;&gt;Node81</title>
<path fill="none" stroke="midnightblue" d="M513.26,-784.67C514.86,-825.25 526.59,-983.43 612,-1065 613.64,-1066.57 615.38,-1068.04 617.2,-1069.42"/>
<polygon fill="midnightblue" stroke="midnightblue" points="615.31,-1072.37 625.59,-1074.91 619.13,-1066.51 615.31,-1072.37"/>
</g>
<!-- Node82 -->
<g id="node47" class="node">
<title>Node82</title>
<g id="a_node47"><a xlink:href="../../d1/d46/classPlayerDeathReason_a9cb3e688fdc8ef090d13267b5371bece.html#a9cb3e688fdc8ef090d13267b5371bece" target="_top" xlink:title=" ">
<polygon fill="white" stroke="black" points="613.5,-1036.5 613.5,-1055.5 784.5,-1055.5 784.5,-1036.5 613.5,-1036.5"/>
<text text-anchor="middle" x="699" y="-1043.5" font-family="Helvetica,sans-Serif" font-size="10.00">PlayerDeathReason.WriteSelfTo</text>
</a>
</g>
</g>
<!-- Node38&#45;&gt;Node82 -->
<g id="edge58" class="edge">
<title>Node38&#45;&gt;Node82</title>
<path fill="none" stroke="midnightblue" d="M513.66,-784.56C516.77,-822 533.37,-959.83 612,-1027 613.79,-1028.53 615.69,-1029.95 617.66,-1031.26"/>
<polygon fill="midnightblue" stroke="midnightblue" points="616.3,-1034.51 626.73,-1036.34 619.72,-1028.4 616.3,-1034.51"/>
</g>
<!-- Node83 -->
<g id="node48" class="node">
<title>Node83</title>
<g id="a_node48"><a xlink:href="../../d9/d8f/structNetMessage_1_1NetSoundInfo_a4b2e61e150b062868171dafa4b656da9.html#a4b2e61e150b062868171dafa4b656da9" target="_top" xlink:title=" ">
<polygon fill="white" stroke="black" points="624.5,-987 624.5,-1017 773.5,-1017 773.5,-987 624.5,-987"/>
<text text-anchor="start" x="632.5" y="-1005" font-family="Helvetica,sans-Serif" font-size="10.00">NetMessage.NetSoundInfo.</text>
<text text-anchor="middle" x="699" y="-994" font-family="Helvetica,sans-Serif" font-size="10.00">WriteSelfTo</text>
</a>
</g>
</g>
<!-- Node38&#45;&gt;Node83 -->
<g id="edge59" class="edge">
<title>Node38&#45;&gt;Node83</title>
<path fill="none" stroke="midnightblue" d="M515.15,-784.8C522.62,-816.61 550.44,-917.96 612,-972 616.49,-975.94 621.53,-979.38 626.86,-982.36"/>
<polygon fill="midnightblue" stroke="midnightblue" points="625.55,-985.62 636.05,-986.98 628.69,-979.36 625.55,-985.62"/>
</g>
<!-- Node74&#45;&gt;Node73 -->
<g id="edge40" class="edge">
<title>Node74&#45;&gt;Node73</title>
<path fill="none" stroke="midnightblue" d="M772.14,-180.75C793,-182.7 815.68,-184.83 836.2,-186.75"/>
<polygon fill="midnightblue" stroke="midnightblue" points="836.12,-190.26 846.4,-187.7 836.77,-183.29 836.12,-190.26"/>
</g>
<!-- Node76&#45;&gt;Node69 -->
<g id="edge44" class="edge">
<title>Node76&#45;&gt;Node69</title>
<path fill="none" stroke="midnightblue" d="M775.59,-409.07C795.27,-410.92 816.35,-412.89 835.58,-414.69"/>
<polygon fill="midnightblue" stroke="midnightblue" points="835.47,-418.19 845.75,-415.64 836.12,-411.23 835.47,-418.19"/>
</g>
<!-- Node76&#45;&gt;Node70 -->
<g id="edge45" class="edge">
<title>Node76&#45;&gt;Node70</title>
<path fill="none" stroke="midnightblue" d="M766.75,-392.46C788.9,-389.3 813.55,-385.78 835.74,-382.61"/>
<polygon fill="midnightblue" stroke="midnightblue" points="836.34,-386.06 845.74,-381.18 835.35,-379.13 836.34,-386.06"/>
</g>
<!-- Node85&#45;&gt;Node6 -->
<g id="edge63" class="edge">
<title>Node85&#45;&gt;Node6</title>
<path fill="none" stroke="midnightblue" d="M183.03,-698.2C232.25,-647.08 459.78,-404.04 576,-163 602.78,-107.45 567.42,-71.61 612,-29 622.32,-19.14 636.54,-13.94 650.46,-11.32"/>
<polygon fill="midnightblue" stroke="midnightblue" points="651.1,-14.76 660.47,-9.84 650.07,-7.84 651.1,-14.76"/>
</g>
<!-- Node85&#45;&gt;Node7 -->
<g id="edge64" class="edge">
<title>Node85&#45;&gt;Node7</title>
<path fill="none" stroke="midnightblue" d="M196.35,-717.6C223.71,-729.09 269.71,-748.42 300.7,-761.43"/>
<polygon fill="midnightblue" stroke="midnightblue" points="299.61,-764.77 310.19,-765.42 302.33,-758.32 299.61,-764.77"/>
</g>
<!-- Node85&#45;&gt;Node84 -->
<g id="edge65" class="edge">
<title>Node85&#45;&gt;Node84</title>
<path fill="none" stroke="midnightblue" d="M220.06,-705.37C229.3,-704.85 239.27,-704.29 249.32,-703.72"/>
<polygon fill="midnightblue" stroke="midnightblue" points="249.58,-707.21 259.37,-703.15 249.19,-700.22 249.58,-707.21"/>
</g>
</g>
</svg>
