<?xml version="1.0" encoding="UTF-8" standalone="no"?>
<!DOCTYPE svg PUBLIC "-//W3C//DTD SVG 1.1//EN"
 "http://www.w3.org/Graphics/SVG/1.1/DTD/svg11.dtd">
<!-- Generated by graphviz version 2.43.0 (0)
 -->
<!-- Title: Terraria.Main.CycleClothingStyle Pages: 1 -->
<svg width="346pt" height="86pt"
 viewBox="0.00 0.00 346.00 86.00" xmlns="http://www.w3.org/2000/svg" xmlns:xlink="http://www.w3.org/1999/xlink">
<g id="graph0" class="graph" transform="scale(1 1) rotate(0) translate(4 82)">
<title>Terraria.Main.CycleClothingStyle</title>
<!-- Node1 -->
<g id="Node000001" class="node">
<title>Node1</title>
<g id="a_Node000001"><a xlink:title=" ">
<polygon fill="#999999" stroke="#666666" points="151,-54 0,-54 0,-24 151,-24 151,-54"/>
<text text-anchor="start" x="8" y="-42" font-family="Helvetica,sans-Serif" font-size="10.00">Terraria.Main.CycleClothing</text>
<text text-anchor="middle" x="75.5" y="-31" font-family="Helvetica,sans-Serif" font-size="10.00">Style</text>
</a>
</g>
</g>
<!-- Node2 -->
<g id="Node000002" class="node">
<title>Node2</title>
<g id="a_Node000002"><a xlink:href="../../da/dd5/classTerraria_1_1Main_a69d536a6cbfbd108f16c716cd16dd743.html#a69d536a6cbfbd108f16c716cd16dd743" target="_top" xlink:title=" ">
<polygon fill="white" stroke="#666666" points="338,-78 187,-78 187,-48 338,-48 338,-78"/>
<text text-anchor="start" x="195" y="-66" font-family="Helvetica,sans-Serif" font-size="10.00">Terraria.Main.CycleClothing</text>
<text text-anchor="middle" x="262.5" y="-55" font-family="Helvetica,sans-Serif" font-size="10.00">Style_Inner</text>
</a>
</g>
</g>
<!-- Node1&#45;&gt;Node2 -->
<g id="edge1_Node000001_Node000002" class="edge">
<title>Node1&#45;&gt;Node2</title>
<g id="a_edge1_Node000001_Node000002"><a xlink:title=" ">
<path fill="none" stroke="#63b8ff" d="M151.21,-48.69C159.65,-49.79 168.28,-50.91 176.83,-52.02"/>
<polygon fill="#63b8ff" stroke="#63b8ff" points="176.44,-55.49 186.81,-53.31 177.34,-48.55 176.44,-55.49"/>
</a>
</g>
</g>
<!-- Node3 -->
<g id="Node000003" class="node">
<title>Node3</title>
<g id="a_Node000003"><a xlink:href="../../da/dd5/classTerraria_1_1Main_ad931bc24707f2a8453346298d75f6c3f.html#ad931bc24707f2a8453346298d75f6c3f" target="_top" xlink:title=" ">
<polygon fill="white" stroke="#666666" points="335.5,-30 189.5,-30 189.5,0 335.5,0 335.5,-30"/>
<text text-anchor="start" x="197.5" y="-18" font-family="Helvetica,sans-Serif" font-size="10.00">Terraria.Main.IsValidPlayer</text>
<text text-anchor="middle" x="262.5" y="-7" font-family="Helvetica,sans-Serif" font-size="10.00">Style</text>
</a>
</g>
</g>
<!-- Node1&#45;&gt;Node3 -->
<g id="edge2_Node000001_Node000003" class="edge">
<title>Node1&#45;&gt;Node3</title>
<g id="a_edge2_Node000001_Node000003"><a xlink:title=" ">
<path fill="none" stroke="#63b8ff" d="M151.21,-29.31C160.42,-28.11 169.87,-26.89 179.18,-25.68"/>
<polygon fill="#63b8ff" stroke="#63b8ff" points="179.74,-29.14 189.21,-24.38 178.84,-22.19 179.74,-29.14"/>
</a>
</g>
</g>
</g>
</svg>
