<?xml version="1.0" encoding="UTF-8" standalone="no"?>
<!DOCTYPE svg PUBLIC "-//W3C//DTD SVG 1.1//EN"
 "http://www.w3.org/Graphics/SVG/1.1/DTD/svg11.dtd">
<!-- Generated by graphviz version 2.43.0 (0)
 -->
<!-- Title: Terraria.Main.CheckInvasionProgressDisplay Pages: 1 -->
<svg width="1170pt" height="167pt"
 viewBox="0.00 0.00 1170.00 167.00" xmlns="http://www.w3.org/2000/svg" xmlns:xlink="http://www.w3.org/1999/xlink">
<g id="graph0" class="graph" transform="scale(1 1) rotate(0) translate(4 163)">
<title>Terraria.Main.CheckInvasionProgressDisplay</title>
<!-- Node1 -->
<g id="Node000001" class="node">
<title>Node1</title>
<g id="a_Node000001"><a xlink:title=" ">
<polygon fill="#999999" stroke="#666666" points="155,-67.5 0,-67.5 0,-37.5 155,-37.5 155,-67.5"/>
<text text-anchor="start" x="8" y="-55.5" font-family="Helvetica,sans-Serif" font-size="10.00">Terraria.Main.CheckInvasion</text>
<text text-anchor="middle" x="77.5" y="-44.5" font-family="Helvetica,sans-Serif" font-size="10.00">ProgressDisplay</text>
</a>
</g>
</g>
<!-- Node2 -->
<g id="Node000002" class="node">
<title>Node2</title>
<g id="a_Node000002"><a xlink:href="../../dd/db5/classTerraria_1_1GameContent_1_1Events_1_1DD2Event_acd901ac9231d2f6371dd7b67c2d59d44.html#acd901ac9231d2f6371dd7b67c2d59d44" target="_top" xlink:title=" ">
<polygon fill="white" stroke="#666666" points="361,-89.5 191,-89.5 191,-59.5 361,-59.5 361,-89.5"/>
<text text-anchor="start" x="199" y="-77.5" font-family="Helvetica,sans-Serif" font-size="10.00">Terraria.GameContent.Events.</text>
<text text-anchor="middle" x="276" y="-66.5" font-family="Helvetica,sans-Serif" font-size="10.00">DD2Event.ReportEventProgress</text>
</a>
</g>
</g>
<!-- Node1&#45;&gt;Node2 -->
<g id="edge1_Node000001_Node000002" class="edge">
<title>Node1&#45;&gt;Node2</title>
<g id="a_edge1_Node000001_Node000002"><a xlink:title=" ">
<path fill="none" stroke="#63b8ff" d="M155.03,-61.07C163.48,-62.01 172.14,-62.98 180.77,-63.95"/>
<polygon fill="#63b8ff" stroke="#63b8ff" points="180.54,-67.45 190.86,-65.08 181.31,-60.49 180.54,-67.45"/>
</a>
</g>
</g>
<!-- Node9 -->
<g id="Node000009" class="node">
<title>Node9</title>
<g id="a_Node000009"><a xlink:href="../../da/dd5/classTerraria_1_1Main_a4c50dbb53575079127209d29e245ac60.html#a4c50dbb53575079127209d29e245ac60" target="_top" xlink:title=" ">
<polygon fill="white" stroke="#666666" points="557,-46.5 400,-46.5 400,-16.5 557,-16.5 557,-46.5"/>
<text text-anchor="start" x="408" y="-34.5" font-family="Helvetica,sans-Serif" font-size="10.00">Terraria.Main.ReportInvasion</text>
<text text-anchor="middle" x="478.5" y="-23.5" font-family="Helvetica,sans-Serif" font-size="10.00">Progress</text>
</a>
</g>
</g>
<!-- Node1&#45;&gt;Node9 -->
<g id="edge12_Node000001_Node000009" class="edge">
<title>Node1&#45;&gt;Node9</title>
<g id="a_edge12_Node000001_Node000009"><a xlink:title=" ">
<path fill="none" stroke="#63b8ff" d="M155.43,-48.45C222.45,-44.92 319.6,-39.81 389.65,-36.12"/>
<polygon fill="#63b8ff" stroke="#63b8ff" points="389.98,-39.61 399.78,-35.59 389.61,-32.62 389.98,-39.61"/>
</a>
</g>
</g>
<!-- Node3 -->
<g id="Node000003" class="node">
<title>Node3</title>
<g id="a_Node000003"><a xlink:href="../../dd/db5/classTerraria_1_1GameContent_1_1Events_1_1DD2Event_a3c9a273a0649cb57dca5fe6d7543e8ed.html#a3c9a273a0649cb57dca5fe6d7543e8ed" target="_top" xlink:title=" ">
<polygon fill="white" stroke="#666666" points="560,-94.5 397,-94.5 397,-64.5 560,-64.5 560,-94.5"/>
<text text-anchor="start" x="405" y="-82.5" font-family="Helvetica,sans-Serif" font-size="10.00">Terraria.GameContent.Events.</text>
<text text-anchor="middle" x="478.5" y="-71.5" font-family="Helvetica,sans-Serif" font-size="10.00">DD2Event.GetInvasionStatus</text>
</a>
</g>
</g>
<!-- Node2&#45;&gt;Node3 -->
<g id="edge2_Node000002_Node000003" class="edge">
<title>Node2&#45;&gt;Node3</title>
<g id="a_edge2_Node000002_Node000003"><a xlink:title=" ">
<path fill="none" stroke="#63b8ff" d="M361.16,-76.6C369.54,-76.81 378.07,-77.02 386.52,-77.23"/>
<polygon fill="#63b8ff" stroke="#63b8ff" points="386.68,-80.74 396.76,-77.49 386.85,-73.74 386.68,-80.74"/>
</a>
</g>
</g>
<!-- Node2&#45;&gt;Node9 -->
<g id="edge11_Node000002_Node000009" class="edge">
<title>Node2&#45;&gt;Node9</title>
<g id="a_edge11_Node000002_Node000009"><a xlink:title=" ">
<path fill="none" stroke="#63b8ff" d="M347.13,-59.46C363.3,-55.99 380.64,-52.27 397.21,-48.72"/>
<polygon fill="#63b8ff" stroke="#63b8ff" points="398.37,-52.05 407.41,-46.53 396.9,-45.21 398.37,-52.05"/>
</a>
</g>
</g>
<!-- Node4 -->
<g id="Node000004" class="node">
<title>Node4</title>
<g id="a_Node000004"><a xlink:href="../../dd/db5/classTerraria_1_1GameContent_1_1Events_1_1DD2Event_a663b9d92450dcf6238a22e1f8197135f.html#a663b9d92450dcf6238a22e1f8197135f" target="_top" xlink:title=" ">
<polygon fill="white" stroke="#666666" points="786,-159 596,-159 596,-118 786,-118 786,-159"/>
<text text-anchor="start" x="604" y="-147" font-family="Helvetica,sans-Serif" font-size="10.00">Terraria.GameContent.Events.</text>
<text text-anchor="start" x="604" y="-136" font-family="Helvetica,sans-Serif" font-size="10.00">DD2Event.Difficulty_1_GetRequired</text>
<text text-anchor="middle" x="691" y="-125" font-family="Helvetica,sans-Serif" font-size="10.00">WaveKills</text>
</a>
</g>
</g>
<!-- Node3&#45;&gt;Node4 -->
<g id="edge3_Node000003_Node000004" class="edge">
<title>Node3&#45;&gt;Node4</title>
<g id="a_edge3_Node000003_Node000004"><a xlink:title=" ">
<path fill="none" stroke="#63b8ff" d="M533.16,-94.54C555.53,-100.81 582.03,-108.24 606.81,-115.18"/>
<polygon fill="#63b8ff" stroke="#63b8ff" points="606.01,-118.59 616.58,-117.92 607.9,-111.85 606.01,-118.59"/>
</a>
</g>
</g>
<!-- Node7 -->
<g id="Node000007" class="node">
<title>Node7</title>
<g id="a_Node000007"><a xlink:href="../../dd/db5/classTerraria_1_1GameContent_1_1Events_1_1DD2Event_abd1c9ddba782135414e13c0ed8fbe544.html#abd1c9ddba782135414e13c0ed8fbe544" target="_top" xlink:title=" ">
<polygon fill="white" stroke="#666666" points="786,-100 596,-100 596,-59 786,-59 786,-100"/>
<text text-anchor="start" x="604" y="-88" font-family="Helvetica,sans-Serif" font-size="10.00">Terraria.GameContent.Events.</text>
<text text-anchor="start" x="604" y="-77" font-family="Helvetica,sans-Serif" font-size="10.00">DD2Event.Difficulty_2_GetRequired</text>
<text text-anchor="middle" x="691" y="-66" font-family="Helvetica,sans-Serif" font-size="10.00">WaveKills</text>
</a>
</g>
</g>
<!-- Node3&#45;&gt;Node7 -->
<g id="edge6_Node000003_Node000007" class="edge">
<title>Node3&#45;&gt;Node7</title>
<g id="a_edge6_Node000003_Node000007"><a xlink:title=" ">
<path fill="none" stroke="#63b8ff" d="M560.28,-79.5C568.62,-79.5 577.17,-79.5 585.71,-79.5"/>
<polygon fill="#63b8ff" stroke="#63b8ff" points="585.72,-83 595.72,-79.5 585.72,-76 585.72,-83"/>
</a>
</g>
</g>
<!-- Node8 -->
<g id="Node000008" class="node">
<title>Node8</title>
<g id="a_Node000008"><a xlink:href="../../dd/db5/classTerraria_1_1GameContent_1_1Events_1_1DD2Event_afabc6ee99a6a4ebb78ccb8a481e68b40.html#afabc6ee99a6a4ebb78ccb8a481e68b40" target="_top" xlink:title=" ">
<polygon fill="white" stroke="#666666" points="786,-41 596,-41 596,0 786,0 786,-41"/>
<text text-anchor="start" x="604" y="-29" font-family="Helvetica,sans-Serif" font-size="10.00">Terraria.GameContent.Events.</text>
<text text-anchor="start" x="604" y="-18" font-family="Helvetica,sans-Serif" font-size="10.00">DD2Event.Difficulty_3_GetRequired</text>
<text text-anchor="middle" x="691" y="-7" font-family="Helvetica,sans-Serif" font-size="10.00">WaveKills</text>
</a>
</g>
</g>
<!-- Node3&#45;&gt;Node8 -->
<g id="edge8_Node000003_Node000008" class="edge">
<title>Node3&#45;&gt;Node8</title>
<g id="a_edge8_Node000003_Node000008"><a xlink:title=" ">
<path fill="none" stroke="#63b8ff" d="M533.16,-64.46C555.53,-58.19 582.03,-50.76 606.81,-43.82"/>
<polygon fill="#63b8ff" stroke="#63b8ff" points="607.9,-47.15 616.58,-41.08 606.01,-40.41 607.9,-47.15"/>
</a>
</g>
</g>
<!-- Node5 -->
<g id="Node000005" class="node">
<title>Node5</title>
<g id="a_Node000005"><a xlink:href="../../dd/db5/classTerraria_1_1GameContent_1_1Events_1_1DD2Event_a1143efae9f342cc34938e1b09bf7f5ae.html#a1143efae9f342cc34938e1b09bf7f5ae" target="_top" xlink:title=" ">
<polygon fill="white" stroke="#666666" points="985,-90.5 822,-90.5 822,-60.5 985,-60.5 985,-90.5"/>
<text text-anchor="start" x="830" y="-78.5" font-family="Helvetica,sans-Serif" font-size="10.00">Terraria.GameContent.Events.</text>
<text text-anchor="middle" x="903.5" y="-67.5" font-family="Helvetica,sans-Serif" font-size="10.00">DD2Event.StartVictoryScene</text>
</a>
</g>
</g>
<!-- Node4&#45;&gt;Node5 -->
<g id="edge4_Node000004_Node000005" class="edge">
<title>Node4&#45;&gt;Node5</title>
<g id="a_edge4_Node000004_Node000005"><a xlink:title=" ">
<path fill="none" stroke="#63b8ff" d="M760.63,-117.96C787.01,-110.07 816.88,-101.12 842.4,-93.49"/>
<polygon fill="#63b8ff" stroke="#63b8ff" points="843.73,-96.74 852.31,-90.52 841.72,-90.04 843.73,-96.74"/>
</a>
</g>
</g>
<!-- Node6 -->
<g id="Node000006" class="node">
<title>Node6</title>
<g id="a_Node000006"><a xlink:href="../../df/d0d/classTerraria_1_1NPC_a418985104bfcb1384e7aa7060415805f.html#a418985104bfcb1384e7aa7060415805f" target="_top" xlink:title=" ">
<polygon fill="white" stroke="#666666" points="1162,-59 1021,-59 1021,-40 1162,-40 1162,-59"/>
<text text-anchor="middle" x="1091.5" y="-47" font-family="Helvetica,sans-Serif" font-size="10.00">Terraria.NPC.FindFirstNPC</text>
</a>
</g>
</g>
<!-- Node5&#45;&gt;Node6 -->
<g id="edge5_Node000005_Node000006" class="edge">
<title>Node5&#45;&gt;Node6</title>
<g id="a_edge5_Node000005_Node000006"><a xlink:title=" ">
<path fill="none" stroke="#63b8ff" d="M985,-64.25C994.06,-62.98 1003.28,-61.69 1012.31,-60.43"/>
<polygon fill="#63b8ff" stroke="#63b8ff" points="1012.99,-63.87 1022.4,-59.02 1012.02,-56.94 1012.99,-63.87"/>
</a>
</g>
</g>
<!-- Node7&#45;&gt;Node5 -->
<g id="edge7_Node000007_Node000005" class="edge">
<title>Node7&#45;&gt;Node5</title>
<g id="a_edge7_Node000007_Node000005"><a xlink:title=" ">
<path fill="none" stroke="#63b8ff" d="M786.17,-77.71C794.65,-77.55 803.23,-77.39 811.68,-77.23"/>
<polygon fill="#63b8ff" stroke="#63b8ff" points="811.99,-80.72 821.92,-77.03 811.85,-73.72 811.99,-80.72"/>
</a>
</g>
</g>
<!-- Node8&#45;&gt;Node5 -->
<g id="edge10_Node000008_Node000005" class="edge">
<title>Node8&#45;&gt;Node5</title>
<g id="a_edge10_Node000008_Node000005"><a xlink:title=" ">
<path fill="none" stroke="#63b8ff" d="M770.68,-41.06C791.86,-46.59 814.57,-52.52 835.07,-57.88"/>
<polygon fill="#63b8ff" stroke="#63b8ff" points="834.38,-61.32 844.94,-60.46 836.15,-54.55 834.38,-61.32"/>
</a>
</g>
</g>
<!-- Node8&#45;&gt;Node6 -->
<g id="edge9_Node000008_Node000006" class="edge">
<title>Node8&#45;&gt;Node6</title>
<g id="a_edge9_Node000008_Node000006"><a xlink:title=" ">
<path fill="none" stroke="#63b8ff" d="M786.19,-27.35C854.56,-32.33 946.05,-38.99 1010.81,-43.7"/>
<polygon fill="#63b8ff" stroke="#63b8ff" points="1010.74,-47.2 1020.97,-44.44 1011.25,-40.22 1010.74,-47.2"/>
</a>
</g>
</g>
</g>
</svg>
