<?xml version="1.0" encoding="UTF-8" standalone="no"?>
<!DOCTYPE svg PUBLIC "-//W3C//DTD SVG 1.1//EN"
 "http://www.w3.org/Graphics/SVG/1.1/DTD/svg11.dtd">
<!-- Generated by graphviz version 2.43.0 (0)
 -->
<!-- Title: Terraria.Main.DoLightTiles Pages: 1 -->
<svg width="537pt" height="94pt"
 viewBox="0.00 0.00 537.00 93.50" xmlns="http://www.w3.org/2000/svg" xmlns:xlink="http://www.w3.org/1999/xlink">
<g id="graph0" class="graph" transform="scale(1 1) rotate(0) translate(4 89.5)">
<title>Terraria.Main.DoLightTiles</title>
<!-- Node1 -->
<g id="Node000001" class="node">
<title>Node1</title>
<g id="a_Node000001"><a xlink:title=" ">
<polygon fill="#999999" stroke="#666666" points="144,-66.5 0,-66.5 0,-47.5 144,-47.5 144,-66.5"/>
<text text-anchor="middle" x="72" y="-54.5" font-family="Helvetica,sans-Serif" font-size="10.00">Terraria.Main.DoLightTiles</text>
</a>
</g>
</g>
<!-- Node2 -->
<g id="Node000002" class="node">
<title>Node2</title>
<g id="a_Node000002"><a xlink:href="../../da/dd5/classTerraria_1_1Main_a583cd2120c4c26b0779dbb065991986c.html#a583cd2120c4c26b0779dbb065991986c" target="_top" xlink:title=" ">
<polygon fill="white" stroke="#666666" points="338,-85.5 180,-85.5 180,-66.5 338,-66.5 338,-85.5"/>
<text text-anchor="middle" x="259" y="-73.5" font-family="Helvetica,sans-Serif" font-size="10.00">Terraria.Main.GetAreaToLight</text>
</a>
</g>
</g>
<!-- Node1&#45;&gt;Node2 -->
<g id="edge1_Node000001_Node000002" class="edge">
<title>Node1&#45;&gt;Node2</title>
<g id="a_edge1_Node000001_Node000002"><a xlink:title=" ">
<path fill="none" stroke="#63b8ff" d="M144.26,-64.32C152.6,-65.18 161.19,-66.06 169.72,-66.93"/>
<polygon fill="#63b8ff" stroke="#63b8ff" points="169.4,-70.42 179.7,-67.96 170.11,-63.46 169.4,-70.42"/>
</a>
</g>
</g>
<!-- Node3 -->
<g id="Node000003" class="node">
<title>Node3</title>
<g id="a_Node000003"><a xlink:href="../../d0/d12/classTerraria_1_1Lighting_a8507a12769c6ee183b3e80fb3c7048e2.html#a8507a12769c6ee183b3e80fb3c7048e2" target="_top" xlink:title=" ">
<polygon fill="white" stroke="#666666" points="332,-48.5 186,-48.5 186,-29.5 332,-29.5 332,-48.5"/>
<text text-anchor="middle" x="259" y="-36.5" font-family="Helvetica,sans-Serif" font-size="10.00">Terraria.Lighting.LightTiles</text>
</a>
</g>
</g>
<!-- Node1&#45;&gt;Node3 -->
<g id="edge2_Node000001_Node000003" class="edge">
<title>Node1&#45;&gt;Node3</title>
<g id="a_edge2_Node000001_Node000003"><a xlink:title=" ">
<path fill="none" stroke="#63b8ff" d="M144.26,-50.07C154.6,-49.06 165.31,-48.02 175.84,-46.99"/>
<polygon fill="#63b8ff" stroke="#63b8ff" points="176.24,-50.47 185.86,-46.02 175.57,-43.5 176.24,-50.47"/>
</a>
</g>
</g>
<!-- Node4 -->
<g id="Node000004" class="node">
<title>Node4</title>
<g id="a_Node000004"><a xlink:href="../../d4/dae/interfaceTerraria_1_1Graphics_1_1Light_1_1ILightingEngine_ac112f3ea35ca44c12ccfbe771d198bf6.html#ac112f3ea35ca44c12ccfbe771d198bf6" target="_top" xlink:title=" ">
<polygon fill="white" stroke="#666666" points="529,-78 374,-78 374,-48 529,-48 529,-78"/>
<text text-anchor="start" x="382" y="-66" font-family="Helvetica,sans-Serif" font-size="10.00">Terraria.Graphics.Light.</text>
<text text-anchor="middle" x="451.5" y="-55" font-family="Helvetica,sans-Serif" font-size="10.00">ILightingEngine.ProcessArea</text>
</a>
</g>
</g>
<!-- Node3&#45;&gt;Node4 -->
<g id="edge3_Node000003_Node000004" class="edge">
<title>Node3&#45;&gt;Node4</title>
<g id="a_edge3_Node000003_Node000004"><a xlink:title=" ">
<path fill="none" stroke="#63b8ff" d="M332.02,-48.07C342.4,-49.38 353.17,-50.74 363.8,-52.08"/>
<polygon fill="#63b8ff" stroke="#63b8ff" points="363.57,-55.58 373.93,-53.35 364.45,-48.63 363.57,-55.58"/>
</a>
</g>
</g>
<!-- Node5 -->
<g id="Node000005" class="node">
<title>Node5</title>
<g id="a_Node000005"><a xlink:href="../../d0/d12/classTerraria_1_1Lighting_aa9ca66476779c000a7d404d5b677ae5f.html#aa9ca66476779c000a7d404d5b677ae5f" target="_top" xlink:title=" ">
<polygon fill="white" stroke="#666666" points="518.5,-30 384.5,-30 384.5,0 518.5,0 518.5,-30"/>
<text text-anchor="start" x="392.5" y="-18" font-family="Helvetica,sans-Serif" font-size="10.00">Terraria.Lighting.Update</text>
<text text-anchor="middle" x="451.5" y="-7" font-family="Helvetica,sans-Serif" font-size="10.00">GlobalBrightness</text>
</a>
</g>
</g>
<!-- Node3&#45;&gt;Node5 -->
<g id="edge4_Node000003_Node000005" class="edge">
<title>Node3&#45;&gt;Node5</title>
<g id="a_edge4_Node000003_Node000005"><a xlink:title=" ">
<path fill="none" stroke="#63b8ff" d="M332.02,-29.93C345.84,-28.19 360.35,-26.36 374.3,-24.6"/>
<polygon fill="#63b8ff" stroke="#63b8ff" points="374.85,-28.06 384.34,-23.34 373.98,-21.11 374.85,-28.06"/>
</a>
</g>
</g>
</g>
</svg>
