<?xml version="1.0" encoding="UTF-8" standalone="no"?>
<!DOCTYPE svg PUBLIC "-//W3C//DTD SVG 1.1//EN"
 "http://www.w3.org/Graphics/SVG/1.1/DTD/svg11.dtd">
<!-- Generated by graphviz version 2.43.0 (0)
 -->
<!-- Title: Terraria.Main.DrawSunAndMoon Pages: 1 -->
<svg width="966pt" height="86pt"
 viewBox="0.00 0.00 966.00 86.00" xmlns="http://www.w3.org/2000/svg" xmlns:xlink="http://www.w3.org/1999/xlink">
<g id="graph0" class="graph" transform="scale(1 1) rotate(0) translate(4 82)">
<title>Terraria.Main.DrawSunAndMoon</title>
<!-- Node1 -->
<g id="Node000001" class="node">
<title>Node1</title>
<g id="a_Node000001"><a xlink:title=" ">
<polygon fill="#999999" stroke="#666666" points="173,-47.5 0,-47.5 0,-28.5 173,-28.5 173,-47.5"/>
<text text-anchor="middle" x="86.5" y="-35.5" font-family="Helvetica,sans-Serif" font-size="10.00">Terraria.Main.DrawSunAndMoon</text>
</a>
</g>
</g>
<!-- Node2 -->
<g id="Node000002" class="node">
<title>Node2</title>
<g id="a_Node000002"><a xlink:href="../../d0/d87/classTerraria_1_1Star_a5c889b2abca22ec202e3b822b1e8ffb3.html#a5c889b2abca22ec202e3b822b1e8ffb3" target="_top" xlink:title=" ">
<polygon fill="white" stroke="#666666" points="344,-47.5 209,-47.5 209,-28.5 344,-28.5 344,-47.5"/>
<text text-anchor="middle" x="276.5" y="-35.5" font-family="Helvetica,sans-Serif" font-size="10.00">Terraria.Star.SpawnStars</text>
</a>
</g>
</g>
<!-- Node1&#45;&gt;Node2 -->
<g id="edge1_Node000001_Node000002" class="edge">
<title>Node1&#45;&gt;Node2</title>
<g id="a_edge1_Node000001_Node000002"><a xlink:title=" ">
<path fill="none" stroke="#63b8ff" d="M173.25,-38C181.72,-38 190.27,-38 198.65,-38"/>
<polygon fill="#63b8ff" stroke="#63b8ff" points="198.74,-41.5 208.74,-38 198.74,-34.5 198.74,-41.5"/>
</a>
</g>
</g>
<!-- Node3 -->
<g id="Node000003" class="node">
<title>Node3</title>
<g id="a_Node000003"><a xlink:href="../../d2/da6/structTerraria_1_1Utilities_1_1FastRandom_a3dcb52a43664bf2ac616ce9f951fe1e7.html#a3dcb52a43664bf2ac616ce9f951fe1e7" target="_top" xlink:title=" ">
<polygon fill="white" stroke="#666666" points="552.5,-76 391.5,-76 391.5,-46 552.5,-46 552.5,-76"/>
<text text-anchor="start" x="399.5" y="-64" font-family="Helvetica,sans-Serif" font-size="10.00">Terraria.Utilities.FastRandom.</text>
<text text-anchor="middle" x="472" y="-53" font-family="Helvetica,sans-Serif" font-size="10.00">CreateWithRandomSeed</text>
</a>
</g>
</g>
<!-- Node2&#45;&gt;Node3 -->
<g id="edge2_Node000002_Node000003" class="edge">
<title>Node2&#45;&gt;Node3</title>
<g id="a_edge2_Node000002_Node000003"><a xlink:title=" ">
<path fill="none" stroke="#63b8ff" d="M344.09,-45.92C356.08,-47.34 368.76,-48.85 381.28,-50.34"/>
<polygon fill="#63b8ff" stroke="#63b8ff" points="380.93,-53.82 391.27,-51.52 381.75,-46.87 380.93,-53.82"/>
</a>
</g>
</g>
<!-- Node5 -->
<g id="Node000005" class="node">
<title>Node5</title>
<g id="a_Node000005"><a xlink:href="../../d2/da6/structTerraria_1_1Utilities_1_1FastRandom_a3bad52189e5e2032203296384f34d710.html#a3bad52189e5e2032203296384f34d710" target="_top" xlink:title=" ">
<polygon fill="white" stroke="#666666" points="564,-26.5 380,-26.5 380,-7.5 564,-7.5 564,-26.5"/>
<text text-anchor="middle" x="472" y="-14.5" font-family="Helvetica,sans-Serif" font-size="10.00">Terraria.Utilities.FastRandom.Next</text>
</a>
</g>
</g>
<!-- Node2&#45;&gt;Node5 -->
<g id="edge4_Node000002_Node000005" class="edge">
<title>Node2&#45;&gt;Node5</title>
<g id="a_edge4_Node000002_Node000005"><a xlink:title=" ">
<path fill="none" stroke="#63b8ff" d="M344.09,-30.77C353.5,-29.75 363.34,-28.68 373.19,-27.62"/>
<polygon fill="#63b8ff" stroke="#63b8ff" points="373.88,-31.06 383.44,-26.5 373.12,-24.1 373.88,-31.06"/>
</a>
</g>
</g>
<!-- Node4 -->
<g id="Node000004" class="node">
<title>Node4</title>
<g id="a_Node000004"><a xlink:href="../../d2/da6/structTerraria_1_1Utilities_1_1FastRandom_aee2307eda4c2550e43b07cad6ef90054.html#aee2307eda4c2550e43b07cad6ef90054" target="_top" xlink:title=" ">
<polygon fill="white" stroke="#666666" points="761,-78 600,-78 600,-48 761,-48 761,-78"/>
<text text-anchor="start" x="608" y="-66" font-family="Helvetica,sans-Serif" font-size="10.00">Terraria.Utilities.FastRandom.</text>
<text text-anchor="middle" x="680.5" y="-55" font-family="Helvetica,sans-Serif" font-size="10.00">FastRandom</text>
</a>
</g>
</g>
<!-- Node3&#45;&gt;Node4 -->
<g id="edge3_Node000003_Node000004" class="edge">
<title>Node3&#45;&gt;Node4</title>
<g id="a_edge3_Node000003_Node000004"><a xlink:title=" ">
<path fill="none" stroke="#63b8ff" d="M552.54,-61.77C564.7,-61.89 577.33,-62.01 589.69,-62.13"/>
<polygon fill="#63b8ff" stroke="#63b8ff" points="589.96,-65.63 600,-62.23 590.03,-58.63 589.96,-65.63"/>
</a>
</g>
</g>
<!-- Node6 -->
<g id="Node000006" class="node">
<title>Node6</title>
<g id="a_Node000006"><a xlink:href="../../d2/da6/structTerraria_1_1Utilities_1_1FastRandom_ad2dc474b09a56b46426b5574897f9e1d.html#ad2dc474b09a56b46426b5574897f9e1d" target="_top" xlink:title=" ">
<polygon fill="white" stroke="#666666" points="761,-30 600,-30 600,0 761,0 761,-30"/>
<text text-anchor="start" x="608" y="-18" font-family="Helvetica,sans-Serif" font-size="10.00">Terraria.Utilities.FastRandom.</text>
<text text-anchor="middle" x="680.5" y="-7" font-family="Helvetica,sans-Serif" font-size="10.00">NextBits</text>
</a>
</g>
</g>
<!-- Node5&#45;&gt;Node6 -->
<g id="edge5_Node000005_Node000006" class="edge">
<title>Node5&#45;&gt;Node6</title>
<g id="a_edge5_Node000005_Node000006"><a xlink:title=" ">
<path fill="none" stroke="#63b8ff" d="M564.18,-16.12C572.62,-16.04 581.18,-15.95 589.62,-15.87"/>
<polygon fill="#63b8ff" stroke="#63b8ff" points="589.87,-19.37 599.84,-15.77 589.8,-12.37 589.87,-19.37"/>
</a>
</g>
</g>
<!-- Node7 -->
<g id="Node000007" class="node">
<title>Node7</title>
<g id="a_Node000007"><a xlink:href="../../d2/da6/structTerraria_1_1Utilities_1_1FastRandom_a9b186ec02eb7143f86ff9b84bb96be82.html#a9b186ec02eb7143f86ff9b84bb96be82" target="_top" xlink:title=" ">
<polygon fill="white" stroke="#666666" points="958,-30 797,-30 797,0 958,0 958,-30"/>
<text text-anchor="start" x="805" y="-18" font-family="Helvetica,sans-Serif" font-size="10.00">Terraria.Utilities.FastRandom.</text>
<text text-anchor="middle" x="877.5" y="-7" font-family="Helvetica,sans-Serif" font-size="10.00">NextSeed</text>
</a>
</g>
</g>
<!-- Node6&#45;&gt;Node7 -->
<g id="edge6_Node000006_Node000007" class="edge">
<title>Node6&#45;&gt;Node7</title>
<g id="a_edge6_Node000006_Node000007"><a xlink:title=" ">
<path fill="none" stroke="#63b8ff" d="M761.1,-15C769.57,-15 778.24,-15 786.82,-15"/>
<polygon fill="#63b8ff" stroke="#63b8ff" points="786.84,-18.5 796.84,-15 786.84,-11.5 786.84,-18.5"/>
</a>
</g>
</g>
<!-- Node7&#45;&gt;Node7 -->
<g id="edge7_Node000007_Node000007" class="edge">
<title>Node7&#45;&gt;Node7</title>
<g id="a_edge7_Node000007_Node000007"><a xlink:title=" ">
<path fill="none" stroke="#63b8ff" d="M843.05,-30.28C835.39,-39.41 846.88,-48 877.5,-48 895.68,-48 907.12,-44.97 911.81,-40.6"/>
<polygon fill="#63b8ff" stroke="#63b8ff" points="915.31,-40.32 911.95,-30.28 908.31,-40.22 915.31,-40.32"/>
</a>
</g>
</g>
</g>
</svg>
