<?xml version="1.0" encoding="UTF-8" standalone="no"?>
<!DOCTYPE svg PUBLIC "-//W3C//DTD SVG 1.1//EN"
 "http://www.w3.org/Graphics/SVG/1.1/DTD/svg11.dtd">
<!-- Generated by graphviz version 2.43.0 (0)
 -->
<!-- Title: Terraria.GameContent.Animations.Actions.Sprites.SimulateGravity Pages: 1 -->
<!--zoomable 681 -->

<svg id="main" version="1.1" xmlns="http://www.w3.org/2000/svg" xmlns:xlink="http://www.w3.org/1999/xlink" xml:space="preserve" onload="init(evt)">
<style type="text/css"><![CDATA[
.node, .edge {opacity: 0.7;}
.node.selected, .edge.selected {opacity: 1;}
.edge:hover path { stroke: red; }
.edge:hover polygon { stroke: red; fill: red; }
]]></style>

<defs>
  <circle id="rim" cx="0" cy="0" r="7"/>
  <circle id="rim2" cx="0" cy="0" r="3.5"/>
  <g id="zoomPlus">
    <use xlink:href="#rim" fill="#404040"><set attributeName="fill" to="#808080" begin="zoomplus.mouseover" end="zoomplus.mouseout"/></use>
    <path d="M-4,0h8M0,-4v8" fill="none" stroke="white" stroke-width="1.5" pointer-events="none"/>
  </g>
  <g id="zoomMin">
    <use xlink:href="#rim" fill="#404040"><set attributeName="fill" to="#808080" begin="zoomminus.mouseover" end="zoomminus.mouseout"/></use>
    <path d="M-4,0h8" fill="none" stroke="white" stroke-width="1.5" pointer-events="none"/>
  </g>
  <g id="arrowUp" transform="translate(30 24)">
    <use xlink:href="#rim"/>
    <path pointer-events="none" fill="none" stroke="white" stroke-width="1.5" d="M0,-3.0v7 M-2.5,-0.5L0,-3.0L2.5,-0.5"/>
  </g>
  <g id="arrowRight" transform="rotate(90) translate(36 -43)">
    <use xlink:href="#rim"/>
    <path pointer-events="none" fill="none" stroke="white" stroke-width="1.5" d="M0,-3.0v7 M-2.5,-0.5L0,-3.0L2.5,-0.5"/>
  </g>
  <g id="arrowDown" transform="rotate(180) translate(-30 -48)">
    <use xlink:href="#rim"/>
    <path pointer-events="none" fill="none" stroke="white" stroke-width="1.5" d="M0,-3.0v7 M-2.5,-0.5L0,-3.0L2.5,-0.5"/>
  </g>
  <g id="arrowLeft" transform="rotate(270) translate(-36 17)">
    <use xlink:href="#rim"/>
    <path pointer-events="none" fill="none" stroke="white" stroke-width="1.5" d="M0,-3.0v7 M-2.5,-0.5L0,-3.0L2.5,-0.5"/>
  </g>
  <g id="resetDef">
    <use xlink:href="#rim2" fill="#404040"><set attributeName="fill" to="#808080" begin="reset.mouseover" end="reset.mouseout"/></use>
  </g>
</defs>
<script type="application/ecmascript">
var viewWidth = 234;
var viewHeight = 681;
var sectionId = 'dynsection-0';
</script>
<script type="application/ecmascript" xlink:href="../../svg.min.js"/>
<svg id="graph" class="graph">
<g id="viewport">
<title>Terraria.GameContent.Animations.Actions.Sprites.SimulateGravity</title>
<!-- Node1 -->
<g id="Node000001" class="node">
<title>Node1</title>
<g id="a_Node000001"><a xlink:title=" ">
<polygon fill="#999999" stroke="transparent" points="182,-257 0,-257 0,0 182,0 182,-257"/>
<text text-anchor="start" x="6.5" y="-244.5" font-family="Helvetica,sans-Serif" font-size="10.00">Terraria.GameContent.Animations.</text>
<text text-anchor="start" x="13" y="-233.5" font-family="Helvetica,sans-Serif" font-size="10.00">Actions.Sprites.SimulateGravity</text>
<text text-anchor="start" x="4" y="-218.5" font-family="Helvetica,sans-Serif" font-size="10.00">+</text>
<text text-anchor="start" x="17" y="-218.5" font-family="Helvetica,sans-Serif" font-size="10.00">int ExpectedLengthOfAction</text>
<text text-anchor="start" x="17" y="-207.5" font-family="Helvetica,sans-Serif" font-size="10.00">InFrames</text>
<text text-anchor="start" x="6.5" y="-192.5" font-family="Helvetica,sans-Serif" font-size="10.00">&#45;</text>
<text text-anchor="start" x="17" y="-192.5" font-family="Helvetica,sans-Serif" font-size="10.00">int _duration</text>
<text text-anchor="start" x="6.5" y="-177.5" font-family="Helvetica,sans-Serif" font-size="10.00">&#45;</text>
<text text-anchor="start" x="17" y="-177.5" font-family="Helvetica,sans-Serif" font-size="10.00">float _delay</text>
<text text-anchor="start" x="6.5" y="-162.5" font-family="Helvetica,sans-Serif" font-size="10.00">&#45;</text>
<text text-anchor="start" x="17" y="-162.5" font-family="Helvetica,sans-Serif" font-size="10.00">Vector2 _initialVelocity</text>
<text text-anchor="start" x="6.5" y="-147.5" font-family="Helvetica,sans-Serif" font-size="10.00">&#45;</text>
<text text-anchor="start" x="17" y="-147.5" font-family="Helvetica,sans-Serif" font-size="10.00">Vector2 _gravityPerFrame</text>
<text text-anchor="start" x="6.5" y="-132.5" font-family="Helvetica,sans-Serif" font-size="10.00">&#45;</text>
<text text-anchor="start" x="17" y="-132.5" font-family="Helvetica,sans-Serif" font-size="10.00">float _rotationPerFrame</text>
<text text-anchor="start" x="4" y="-117.5" font-family="Helvetica,sans-Serif" font-size="10.00">+</text>
<text text-anchor="start" x="17" y="-117.5" font-family="Helvetica,sans-Serif" font-size="10.00">SimulateGravity(Vector2</text>
<text text-anchor="start" x="17" y="-106.5" font-family="Helvetica,sans-Serif" font-size="10.00"> initialVelocity, Vector2</text>
<text text-anchor="start" x="17" y="-95.5" font-family="Helvetica,sans-Serif" font-size="10.00"> gravityPerFrame, float rotation</text>
<text text-anchor="start" x="17" y="-84.5" font-family="Helvetica,sans-Serif" font-size="10.00">PerFrame, int duration)</text>
<text text-anchor="start" x="4" y="-69.5" font-family="Helvetica,sans-Serif" font-size="10.00">+</text>
<text text-anchor="start" x="17" y="-69.5" font-family="Helvetica,sans-Serif" font-size="10.00">void BindTo(Segments.Loose</text>
<text text-anchor="start" x="17" y="-58.5" font-family="Helvetica,sans-Serif" font-size="10.00">Sprite obj)</text>
<text text-anchor="start" x="4" y="-43.5" font-family="Helvetica,sans-Serif" font-size="10.00">+</text>
<text text-anchor="start" x="17" y="-43.5" font-family="Helvetica,sans-Serif" font-size="10.00">void SetDelay(float</text>
<text text-anchor="start" x="17" y="-32.5" font-family="Helvetica,sans-Serif" font-size="10.00"> delay)</text>
<text text-anchor="start" x="4" y="-17.5" font-family="Helvetica,sans-Serif" font-size="10.00">+</text>
<text text-anchor="start" x="17" y="-17.5" font-family="Helvetica,sans-Serif" font-size="10.00">void ApplyTo(Segments.Loose</text>
<text text-anchor="start" x="17" y="-6.5" font-family="Helvetica,sans-Serif" font-size="10.00">Sprite obj, float localTimeForObj)</text>
<polygon fill="#666666" stroke="#666666" points="0,-228.5 0,-228.5 182,-228.5 182,-228.5 0,-228.5"/>
<polygon fill="#666666" stroke="#666666" points="0,-127.5 0,-127.5 15,-127.5 15,-127.5 0,-127.5"/>
<polygon fill="#666666" stroke="#666666" points="15,-127.5 15,-127.5 182,-127.5 182,-127.5 15,-127.5"/>
<polygon fill="none" stroke="#666666" points="0,0 0,-257 182,-257 182,0 0,0"/>
</a>
</g>
</g>
<!-- Node2 -->
<g id="Node000002" class="node">
<title>Node2</title>
<g id="a_Node000002"><a xlink:href="../../d5/d50/interfaceTerraria_1_1GameContent_1_1Animations_1_1Actions_1_1Sprites_1_1ISpriteAction.html" target="_top" xlink:title=" ">
<polygon fill="white" stroke="transparent" points="180.5,-343 107.5,-343 107.5,-294 180.5,-294 180.5,-343"/>
<text text-anchor="start" x="113" y="-330.5" font-family="Helvetica,sans-Serif" font-size="10.00">ISpriteAction</text>
<text text-anchor="start" x="142.5" y="-315.5" font-family="Helvetica,sans-Serif" font-size="10.00"> </text>
<text text-anchor="start" x="142.5" y="-300.5" font-family="Helvetica,sans-Serif" font-size="10.00"> </text>
<polygon fill="#666666" stroke="#666666" points="108,-325.5 108,-325.5 181,-325.5 181,-325.5 108,-325.5"/>
<polygon fill="#666666" stroke="#666666" points="108,-310.5 108,-310.5 181,-310.5 181,-310.5 108,-310.5"/>
<polygon fill="none" stroke="#666666" points="107.5,-294 107.5,-343 180.5,-343 180.5,-294 107.5,-294"/>
</a>
</g>
</g>
<!-- Node2&#45;&gt;Node1 -->
<g id="edge1_Node000001_Node000002" class="edge">
<title>Node2&#45;&gt;Node1</title>
<g id="a_edge1_Node000001_Node000002"><a xlink:title=" ">
<path fill="none" stroke="#63b8ff" d="M134.51,-283.82C132.26,-275.84 129.72,-266.86 127.04,-257.35"/>
<polygon fill="none" stroke="#63b8ff" points="131.21,-285.01 137.29,-293.69 137.94,-283.12 131.21,-285.01"/>
</a>
</g>
</g>
<!-- Node3 -->
<g id="Node000003" class="node">
<title>Node3</title>
<g id="a_Node000003"><a xlink:href="../../d1/d86/interfaceTerraria_1_1GameContent_1_1Animations_1_1IAnimationSegmentAction.html" target="_top" xlink:title=" ">
<polygon fill="white" stroke="transparent" points="169.5,-503 12.5,-503 12.5,-380 169.5,-380 169.5,-503"/>
<text text-anchor="start" x="25.5" y="-490.5" font-family="Helvetica,sans-Serif" font-size="10.00">IAnimationSegmentAction</text>
<text text-anchor="start" x="25.5" y="-479.5" font-family="Helvetica,sans-Serif" font-size="10.00">&lt; Segments.LooseSprite &gt;</text>
<text text-anchor="start" x="17" y="-464.5" font-family="Helvetica,sans-Serif" font-size="10.00">+</text>
<text text-anchor="start" x="30" y="-464.5" font-family="Helvetica,sans-Serif" font-size="10.00">int ExpectedLengthOfAction</text>
<text text-anchor="start" x="30" y="-453.5" font-family="Helvetica,sans-Serif" font-size="10.00">InFrames</text>
<text text-anchor="start" x="17" y="-438.5" font-family="Helvetica,sans-Serif" font-size="10.00">+</text>
<text text-anchor="start" x="30" y="-438.5" font-family="Helvetica,sans-Serif" font-size="10.00">void BindTo(T obj)</text>
<text text-anchor="start" x="17" y="-423.5" font-family="Helvetica,sans-Serif" font-size="10.00">+</text>
<text text-anchor="start" x="30" y="-423.5" font-family="Helvetica,sans-Serif" font-size="10.00">void ApplyTo(T obj,</text>
<text text-anchor="start" x="30" y="-412.5" font-family="Helvetica,sans-Serif" font-size="10.00"> float localTimeForObj)</text>
<text text-anchor="start" x="17" y="-397.5" font-family="Helvetica,sans-Serif" font-size="10.00">+</text>
<text text-anchor="start" x="30" y="-397.5" font-family="Helvetica,sans-Serif" font-size="10.00">void SetDelay(float</text>
<text text-anchor="start" x="30" y="-386.5" font-family="Helvetica,sans-Serif" font-size="10.00"> delay)</text>
<polygon fill="#666666" stroke="#666666" points="13,-474.5 13,-474.5 170,-474.5 170,-474.5 13,-474.5"/>
<polygon fill="#666666" stroke="#666666" points="13,-448.5 13,-448.5 28,-448.5 28,-448.5 13,-448.5"/>
<polygon fill="#666666" stroke="#666666" points="28,-448.5 28,-448.5 170,-448.5 170,-448.5 28,-448.5"/>
<polygon fill="none" stroke="#666666" points="12.5,-380 12.5,-503 169.5,-503 169.5,-380 12.5,-380"/>
</a>
</g>
</g>
<!-- Node3&#45;&gt;Node1 -->
<g id="edge4_Node000001_Node000003" class="edge">
<title>Node3&#45;&gt;Node1</title>
<g id="a_edge4_Node000001_Node000003"><a xlink:title=" ">
<path fill="none" stroke="#63b8ff" d="M91,-369.72C91,-336.43 91,-295.69 91,-257.28"/>
<polygon fill="none" stroke="#63b8ff" points="87.5,-369.8 91,-379.8 94.5,-369.8 87.5,-369.8"/>
</a>
</g>
</g>
<!-- Node3&#45;&gt;Node2 -->
<g id="edge2_Node000002_Node000003" class="edge">
<title>Node3&#45;&gt;Node2</title>
<g id="a_edge2_Node000002_Node000003"><a xlink:title=" ">
<path fill="none" stroke="#63b8ff" d="M121.76,-370.28C126.01,-360.58 130.11,-351.22 133.6,-343.24"/>
<polygon fill="none" stroke="#63b8ff" points="118.46,-369.08 117.66,-379.65 124.87,-371.89 118.46,-369.08"/>
</a>
</g>
</g>
<!-- Node4 -->
<g id="Node000004" class="node">
<title>Node4</title>
<g id="a_Node000004"><a xlink:href="../../d1/d86/interfaceTerraria_1_1GameContent_1_1Animations_1_1IAnimationSegmentAction.html" target="_top" xlink:title=" ">
<polygon fill="white" stroke="transparent" points="180.5,-673 1.5,-673 1.5,-550 180.5,-550 180.5,-673"/>
<text text-anchor="start" x="7" y="-660.5" font-family="Helvetica,sans-Serif" font-size="10.00">Terraria.GameContent.Animations.</text>
<text text-anchor="start" x="13" y="-649.5" font-family="Helvetica,sans-Serif" font-size="10.00">IAnimationSegmentAction&lt; T &gt;</text>
<text text-anchor="start" x="11.5" y="-634.5" font-family="Helvetica,sans-Serif" font-size="10.00">+</text>
<text text-anchor="start" x="30" y="-634.5" font-family="Helvetica,sans-Serif" font-size="10.00">int ExpectedLengthOfAction</text>
<text text-anchor="start" x="30" y="-623.5" font-family="Helvetica,sans-Serif" font-size="10.00">InFrames</text>
<text text-anchor="start" x="11.5" y="-608.5" font-family="Helvetica,sans-Serif" font-size="10.00">+</text>
<text text-anchor="start" x="30" y="-608.5" font-family="Helvetica,sans-Serif" font-size="10.00">void BindTo(T obj)</text>
<text text-anchor="start" x="11.5" y="-593.5" font-family="Helvetica,sans-Serif" font-size="10.00">+</text>
<text text-anchor="start" x="30" y="-593.5" font-family="Helvetica,sans-Serif" font-size="10.00">void ApplyTo(T obj,</text>
<text text-anchor="start" x="30" y="-582.5" font-family="Helvetica,sans-Serif" font-size="10.00"> float localTimeForObj)</text>
<text text-anchor="start" x="11.5" y="-567.5" font-family="Helvetica,sans-Serif" font-size="10.00">+</text>
<text text-anchor="start" x="30" y="-567.5" font-family="Helvetica,sans-Serif" font-size="10.00">void SetDelay(float</text>
<text text-anchor="start" x="30" y="-556.5" font-family="Helvetica,sans-Serif" font-size="10.00"> delay)</text>
<polygon fill="#666666" stroke="#666666" points="2,-644.5 2,-644.5 181,-644.5 181,-644.5 2,-644.5"/>
<polygon fill="#666666" stroke="#666666" points="2,-618.5 2,-618.5 28,-618.5 28,-618.5 2,-618.5"/>
<polygon fill="#666666" stroke="#666666" points="28,-618.5 28,-618.5 181,-618.5 181,-618.5 28,-618.5"/>
<polygon fill="none" stroke="#666666" points="1.5,-550 1.5,-673 180.5,-673 180.5,-550 1.5,-550"/>
</a>
</g>
</g>
<!-- Node4&#45;&gt;Node3 -->
<g id="edge3_Node000003_Node000004" class="edge">
<title>Node4&#45;&gt;Node3</title>
<g id="a_edge3_Node000003_Node000004"><a xlink:title=" ">
<path fill="none" stroke="orange" d="M91,-539.72C91,-527.53 91,-514.95 91,-503.06"/>
<polygon fill="orange" stroke="orange" points="87.5,-539.85 91,-549.85 94.5,-539.85 87.5,-539.85"/>
</a>
</g>
<text text-anchor="middle" x="158.5" y="-524" font-family="Helvetica,sans-Serif" font-size="10.00" fill="grey"> &lt; Segments.LooseSprite &gt;</text>
</g>
</g>
</svg>

<g id="navigator" transform="translate(0 0)" fill="#404254">
  <rect fill="#f2f5e9" fill-opacity="0.5" stroke="#606060" stroke-width=".5" x="0" y="0" width="60" height="60"/>
  <use id="zoomplus" xlink:href="#zoomPlus" x="17" y="9" onmousedown="handleZoom(evt,'in')"/>
  <use id="zoomminus" xlink:href="#zoomMin" x="42" y="9" onmousedown="handleZoom(evt,'out')"/>
  <use id="reset" xlink:href="#resetDef" x="30" y="36" onmousedown="handleReset()"/>
   <use id="arrowup" xlink:href="#arrowUp" x="0" y="0" onmousedown="handlePan(0,-1)"/>
  <use id="arrowright" xlink:href="#arrowRight" x="0" y="0" onmousedown="handlePan(1,0)"/>
  <use id="arrowdown" xlink:href="#arrowDown" x="0" y="0" onmousedown="handlePan(0,1)"/>
  <use id="arrowleft" xlink:href="#arrowLeft" x="0" y="0" onmousedown="handlePan(-1,0)"/>
</g>
<svg viewBox="0 0 15 15" width="100%" height="30px" preserveAspectRatio="xMaxYMin meet">
 <g id="arrow_out" transform="scale(0.3 0.3)">
  <a xlink:href="classTerraria_1_1GameContent_1_1Animations_1_1Actions_1_1Sprites_1_1SimulateGravity__inherit__graph_org.svg" target="_base">
   <rect id="button" ry="5" rx="5" y="6" x="6" height="38" width="38"
        fill="#f2f5e9" fill-opacity="0.5" stroke="#606060" stroke-width="1.0"/>
   <path id="arrow"
     d="M 11.500037,31.436501 C 11.940474,20.09759 22.043105,11.32322 32.158766,21.979434 L 37.068811,17.246167 C 37.068811,17.246167 37.088388,32 37.088388,32 L 22.160133,31.978069 C 22.160133,31.978069 26.997745,27.140456 26.997745,27.140456 C 18.528582,18.264221 13.291696,25.230495 11.500037,31.436501 z"
     style="fill:#404040;"/>
  </a>
 </g>
</svg>

<style type='text/css'>
<![CDATA[
[data-mouse-over-selected='false'] { opacity: 0.7; }
[data-mouse-over-selected='true']  { opacity: 1.0; }
]]>
</style>
<script type="application/ecmascript"><![CDATA[
document.addEventListener('DOMContentLoaded', (event) => {
  highlightEdges();
  highlightAdjacentNodes();
});
]]></script>
</svg>
