<?xml version="1.0" encoding="UTF-8" standalone="no"?>
<!DOCTYPE svg PUBLIC "-//W3C//DTD SVG 1.1//EN"
 "http://www.w3.org/Graphics/SVG/1.1/DTD/svg11.dtd">
<!-- Generated by graphviz version 2.43.0 (0)
 -->
<!-- Title: Terraria.GameInput.PlayerInputProfile.UsingDpadMovekeys Pages: 1 -->
<!--zoomable 146 -->

<svg id="main" version="1.1" xmlns="http://www.w3.org/2000/svg" xmlns:xlink="http://www.w3.org/1999/xlink" xml:space="preserve" onload="init(evt)">
<style type="text/css"><![CDATA[
.node, .edge {opacity: 0.7;}
.node.selected, .edge.selected {opacity: 1;}
.edge:hover path { stroke: red; }
.edge:hover polygon { stroke: red; fill: red; }
]]></style>

<defs>
  <circle id="rim" cx="0" cy="0" r="7"/>
  <circle id="rim2" cx="0" cy="0" r="3.5"/>
  <g id="zoomPlus">
    <use xlink:href="#rim" fill="#404040"><set attributeName="fill" to="#808080" begin="zoomplus.mouseover" end="zoomplus.mouseout"/></use>
    <path d="M-4,0h8M0,-4v8" fill="none" stroke="white" stroke-width="1.5" pointer-events="none"/>
  </g>
  <g id="zoomMin">
    <use xlink:href="#rim" fill="#404040"><set attributeName="fill" to="#808080" begin="zoomminus.mouseover" end="zoomminus.mouseout"/></use>
    <path d="M-4,0h8" fill="none" stroke="white" stroke-width="1.5" pointer-events="none"/>
  </g>
  <g id="arrowUp" transform="translate(30 24)">
    <use xlink:href="#rim"/>
    <path pointer-events="none" fill="none" stroke="white" stroke-width="1.5" d="M0,-3.0v7 M-2.5,-0.5L0,-3.0L2.5,-0.5"/>
  </g>
  <g id="arrowRight" transform="rotate(90) translate(36 -43)">
    <use xlink:href="#rim"/>
    <path pointer-events="none" fill="none" stroke="white" stroke-width="1.5" d="M0,-3.0v7 M-2.5,-0.5L0,-3.0L2.5,-0.5"/>
  </g>
  <g id="arrowDown" transform="rotate(180) translate(-30 -48)">
    <use xlink:href="#rim"/>
    <path pointer-events="none" fill="none" stroke="white" stroke-width="1.5" d="M0,-3.0v7 M-2.5,-0.5L0,-3.0L2.5,-0.5"/>
  </g>
  <g id="arrowLeft" transform="rotate(270) translate(-36 17)">
    <use xlink:href="#rim"/>
    <path pointer-events="none" fill="none" stroke="white" stroke-width="1.5" d="M0,-3.0v7 M-2.5,-0.5L0,-3.0L2.5,-0.5"/>
  </g>
  <g id="resetDef">
    <use xlink:href="#rim2" fill="#404040"><set attributeName="fill" to="#808080" begin="reset.mouseover" end="reset.mouseout"/></use>
  </g>
</defs>
<script type="application/ecmascript">
var viewWidth = 1326;
var viewHeight = 146;
var sectionId = 'dynsection-0';
</script>
<script type="application/ecmascript" xlink:href="../../svg.min.js"/>
<svg id="graph" class="graph">
<g id="viewport">
<title>Terraria.GameInput.PlayerInputProfile.UsingDpadMovekeys</title>
<!-- Node1 -->
<g id="Node000001" class="node">
<title>Node1</title>
<g id="a_Node000001"><a xlink:title=" ">
<polygon fill="#999999" stroke="#666666" points="1318,-84 1140,-84 1140,-54 1318,-54 1318,-84"/>
<text text-anchor="start" x="1148" y="-72" font-family="Helvetica,sans-Serif" font-size="10.00">Terraria.GameInput.Player</text>
<text text-anchor="middle" x="1229" y="-61" font-family="Helvetica,sans-Serif" font-size="10.00">InputProfile.UsingDpadMovekeys</text>
</a>
</g>
</g>
<!-- Node2 -->
<g id="Node000002" class="node">
<title>Node2</title>
<g id="a_Node000002"><a xlink:href="../../d8/dd5/classTerraria_1_1GameInput_1_1TriggersSet_a720691d807c8c8e9ef9c597a204d2920.html#a720691d807c8c8e9ef9c597a204d2920" target="_top" xlink:title=" ">
<polygon fill="white" stroke="#666666" points="1104,-84 952,-84 952,-54 1104,-54 1104,-84"/>
<text text-anchor="start" x="960" y="-72" font-family="Helvetica,sans-Serif" font-size="10.00">Terraria.GameInput.Triggers</text>
<text text-anchor="middle" x="1028" y="-61" font-family="Helvetica,sans-Serif" font-size="10.00">Set.GetNavigatorDirections</text>
</a>
</g>
</g>
<!-- Node1&#45;&gt;Node2 -->
<g id="edge1_Node000001_Node000002" class="edge">
<title>Node1&#45;&gt;Node2</title>
<g id="a_edge1_Node000001_Node000002"><a xlink:title=" ">
<path fill="none" stroke="#63b8ff" d="M1129.72,-69C1121.08,-69 1112.42,-69 1104.02,-69"/>
<polygon fill="#63b8ff" stroke="#63b8ff" points="1129.85,-72.5 1139.85,-69 1129.85,-65.5 1129.85,-72.5"/>
</a>
</g>
</g>
<!-- Node3 -->
<g id="Node000003" class="node">
<title>Node3</title>
<g id="a_Node000003"><a xlink:href="../../d4/dc5/classTerraria_1_1UI_1_1Gamepad_1_1UILinkPointNavigator_a8923bb7461d72f36ba2c5f6607f5346a.html#a8923bb7461d72f36ba2c5f6607f5346a" target="_top" xlink:title=" ">
<polygon fill="white" stroke="#666666" points="916,-138 698,-138 698,-108 916,-108 916,-138"/>
<text text-anchor="start" x="706" y="-126" font-family="Helvetica,sans-Serif" font-size="10.00">Terraria.UI.Gamepad.UILink</text>
<text text-anchor="middle" x="807" y="-115" font-family="Helvetica,sans-Serif" font-size="10.00">PointNavigator.ForceMovementCooldown</text>
</a>
</g>
</g>
<!-- Node2&#45;&gt;Node3 -->
<g id="edge2_Node000002_Node000003" class="edge">
<title>Node2&#45;&gt;Node3</title>
<g id="a_edge2_Node000002_Node000003"><a xlink:title=" ">
<path fill="none" stroke="#63b8ff" d="M963.24,-86.76C947.81,-90.91 931.34,-95.22 916,-99 903.69,-102.03 890.55,-105.09 877.82,-107.97"/>
<polygon fill="#63b8ff" stroke="#63b8ff" points="964.47,-90.06 973.21,-84.06 962.64,-83.3 964.47,-90.06"/>
</a>
</g>
</g>
<!-- Node5 -->
<g id="Node000005" class="node">
<title>Node5</title>
<g id="a_Node000005"><a xlink:href="../../d2/de6/classTerraria_1_1GameContent_1_1SmartCursorHelper_afb17fbaa5066fe5fe2cb37abc76574f3.html#afb17fbaa5066fe5fe2cb37abc76574f3" target="_top" xlink:title=" ">
<polygon fill="white" stroke="#666666" points="885,-89.5 729,-89.5 729,-48.5 885,-48.5 885,-89.5"/>
<text text-anchor="start" x="737" y="-77.5" font-family="Helvetica,sans-Serif" font-size="10.00">Terraria.GameContent.Smart</text>
<text text-anchor="start" x="737" y="-66.5" font-family="Helvetica,sans-Serif" font-size="10.00">CursorHelper.Step_Pickaxe</text>
<text text-anchor="middle" x="807" y="-55.5" font-family="Helvetica,sans-Serif" font-size="10.00">_MineSolids</text>
</a>
</g>
</g>
<!-- Node2&#45;&gt;Node5 -->
<g id="edge4_Node000002_Node000005" class="edge">
<title>Node2&#45;&gt;Node5</title>
<g id="a_edge4_Node000002_Node000005"><a xlink:title=" ">
<path fill="none" stroke="#63b8ff" d="M941.71,-69C923.09,-69 903.48,-69 885.2,-69"/>
<polygon fill="#63b8ff" stroke="#63b8ff" points="941.94,-72.5 951.94,-69 941.94,-65.5 941.94,-72.5"/>
</a>
</g>
</g>
<!-- Node8 -->
<g id="Node000008" class="node">
<title>Node8</title>
<g id="a_Node000008"><a xlink:href="../../d4/dc5/classTerraria_1_1UI_1_1Gamepad_1_1UILinkPointNavigator_a13a68b4ce411d14fd9bb088d4ba62bfc.html#a13a68b4ce411d14fd9bb088d4ba62bfc" target="_top" xlink:title=" ">
<polygon fill="white" stroke="#666666" points="882.5,-30 731.5,-30 731.5,0 882.5,0 882.5,-30"/>
<text text-anchor="start" x="739.5" y="-18" font-family="Helvetica,sans-Serif" font-size="10.00">Terraria.UI.Gamepad.UILink</text>
<text text-anchor="middle" x="807" y="-7" font-family="Helvetica,sans-Serif" font-size="10.00">PointNavigator.Update</text>
</a>
</g>
</g>
<!-- Node2&#45;&gt;Node8 -->
<g id="edge7_Node000002_Node000008" class="edge">
<title>Node2&#45;&gt;Node8</title>
<g id="a_edge7_Node000002_Node000008"><a xlink:title=" ">
<path fill="none" stroke="#63b8ff" d="M963.24,-51.24C947.81,-47.09 931.34,-42.78 916,-39 903.69,-35.97 890.55,-32.91 877.82,-30.03"/>
<polygon fill="#63b8ff" stroke="#63b8ff" points="962.64,-54.7 973.21,-53.94 964.47,-47.94 962.64,-54.7"/>
</a>
</g>
</g>
<!-- Node4 -->
<g id="Node000004" class="node">
<title>Node4</title>
<g id="a_Node000004"><a xlink:href="../../d4/d03/classTerraria_1_1Player_ac6434bf43444378f491da6bd283b99f6.html#ac6434bf43444378f491da6bd283b99f6" target="_top" xlink:title=" ">
<polygon fill="white" stroke="#666666" points="644.5,-132.5 501.5,-132.5 501.5,-113.5 644.5,-113.5 644.5,-132.5"/>
<text text-anchor="middle" x="573" y="-120.5" font-family="Helvetica,sans-Serif" font-size="10.00">Terraria.Player.OpenChest</text>
</a>
</g>
</g>
<!-- Node3&#45;&gt;Node4 -->
<g id="edge3_Node000003_Node000004" class="edge">
<title>Node3&#45;&gt;Node4</title>
<g id="a_edge3_Node000003_Node000004"><a xlink:title=" ">
<path fill="none" stroke="#63b8ff" d="M687.63,-123C672.92,-123 658.26,-123 644.59,-123"/>
<polygon fill="#63b8ff" stroke="#63b8ff" points="687.81,-126.5 697.81,-123 687.81,-119.5 687.81,-126.5"/>
</a>
</g>
</g>
<!-- Node6 -->
<g id="Node000006" class="node">
<title>Node6</title>
<g id="a_Node000006"><a xlink:href="../../d2/de6/classTerraria_1_1GameContent_1_1SmartCursorHelper_abf97830c4eacd4da49a905008c7a5757.html#abf97830c4eacd4da49a905008c7a5757" target="_top" xlink:title=" ">
<polygon fill="white" stroke="#666666" points="662,-84 484,-84 484,-54 662,-54 662,-84"/>
<text text-anchor="start" x="492" y="-72" font-family="Helvetica,sans-Serif" font-size="10.00">Terraria.GameContent.Smart</text>
<text text-anchor="middle" x="573" y="-61" font-family="Helvetica,sans-Serif" font-size="10.00">CursorHelper.SmartCursorLookup</text>
</a>
</g>
</g>
<!-- Node5&#45;&gt;Node6 -->
<g id="edge5_Node000005_Node000006" class="edge">
<title>Node5&#45;&gt;Node6</title>
<g id="a_edge5_Node000005_Node000006"><a xlink:title=" ">
<path fill="none" stroke="#63b8ff" d="M718.61,-69C700.14,-69 680.64,-69 662.14,-69"/>
<polygon fill="#63b8ff" stroke="#63b8ff" points="718.75,-72.5 728.75,-69 718.75,-65.5 718.75,-72.5"/>
</a>
</g>
</g>
<!-- Node7 -->
<g id="Node000007" class="node">
<title>Node7</title>
<g id="a_Node000007"><a xlink:href="../../d4/d03/classTerraria_1_1Player_af44290f5d38b6d5076a5fa8d6ee3dd12.html#af44290f5d38b6d5076a5fa8d6ee3dd12" target="_top" xlink:title=" ">
<polygon fill="white" stroke="#666666" points="444.5,-78.5 319.5,-78.5 319.5,-59.5 444.5,-59.5 444.5,-78.5"/>
<text text-anchor="middle" x="382" y="-66.5" font-family="Helvetica,sans-Serif" font-size="10.00">Terraria.Player.Update</text>
</a>
</g>
</g>
<!-- Node6&#45;&gt;Node7 -->
<g id="edge6_Node000006_Node000007" class="edge">
<title>Node6&#45;&gt;Node7</title>
<g id="a_edge6_Node000006_Node000007"><a xlink:title=" ">
<path fill="none" stroke="#63b8ff" d="M473.58,-69C463.71,-69 453.9,-69 444.57,-69"/>
<polygon fill="#63b8ff" stroke="#63b8ff" points="473.86,-72.5 483.86,-69 473.86,-65.5 473.86,-72.5"/>
</a>
</g>
</g>
<!-- Node9 -->
<g id="Node000009" class="node">
<title>Node9</title>
<g id="a_Node000009"><a xlink:href="../../da/dd5/classTerraria_1_1Main_a271f8e065b74a1881ccb9736667bed66.html#a271f8e065b74a1881ccb9736667bed66" target="_top" xlink:title=" ">
<polygon fill="white" stroke="#666666" points="639,-30 507,-30 507,0 639,0 639,-30"/>
<text text-anchor="start" x="515" y="-18" font-family="Helvetica,sans-Serif" font-size="10.00">Terraria.Main.DoUpdate</text>
<text text-anchor="middle" x="573" y="-7" font-family="Helvetica,sans-Serif" font-size="10.00">_HandleInput</text>
</a>
</g>
</g>
<!-- Node8&#45;&gt;Node9 -->
<g id="edge8_Node000008_Node000009" class="edge">
<title>Node8&#45;&gt;Node9</title>
<g id="a_edge8_Node000008_Node000009"><a xlink:title=" ">
<path fill="none" stroke="#63b8ff" d="M721.09,-15C694.05,-15 664.58,-15 639.17,-15"/>
<polygon fill="#63b8ff" stroke="#63b8ff" points="721.32,-18.5 731.32,-15 721.32,-11.5 721.32,-18.5"/>
</a>
</g>
</g>
<!-- Node10 -->
<g id="Node000010" class="node">
<title>Node10</title>
<g id="a_Node000010"><a xlink:href="../../da/dd5/classTerraria_1_1Main_a96341b8439a15bcefc0f119767e24e35.html#a96341b8439a15bcefc0f119767e24e35" target="_top" xlink:title=" ">
<polygon fill="white" stroke="#666666" points="448,-24.5 316,-24.5 316,-5.5 448,-5.5 448,-24.5"/>
<text text-anchor="middle" x="382" y="-12.5" font-family="Helvetica,sans-Serif" font-size="10.00">Terraria.Main.DoUpdate</text>
</a>
</g>
</g>
<!-- Node9&#45;&gt;Node10 -->
<g id="edge9_Node000009_Node000010" class="edge">
<title>Node9&#45;&gt;Node10</title>
<g id="a_edge9_Node000009_Node000010"><a xlink:title=" ">
<path fill="none" stroke="#63b8ff" d="M496.56,-15C480.54,-15 463.76,-15 448.16,-15"/>
<polygon fill="#63b8ff" stroke="#63b8ff" points="496.96,-18.5 506.96,-15 496.96,-11.5 496.96,-18.5"/>
</a>
</g>
</g>
<!-- Node11 -->
<g id="Node000011" class="node">
<title>Node11</title>
<g id="a_Node000011"><a xlink:href="../../da/dd5/classTerraria_1_1Main_a49776516aea1626e33c722fc8896a7de.html#a49776516aea1626e33c722fc8896a7de" target="_top" xlink:title=" ">
<polygon fill="white" stroke="#666666" points="280,-24.5 161,-24.5 161,-5.5 280,-5.5 280,-24.5"/>
<text text-anchor="middle" x="220.5" y="-12.5" font-family="Helvetica,sans-Serif" font-size="10.00">Terraria.Main.Update</text>
</a>
</g>
</g>
<!-- Node10&#45;&gt;Node11 -->
<g id="edge10_Node000010_Node000011" class="edge">
<title>Node10&#45;&gt;Node11</title>
<g id="a_edge10_Node000010_Node000011"><a xlink:title=" ">
<path fill="none" stroke="#63b8ff" d="M305.64,-15C297.06,-15 288.4,-15 280.08,-15"/>
<polygon fill="#63b8ff" stroke="#63b8ff" points="305.67,-18.5 315.67,-15 305.66,-11.5 305.67,-18.5"/>
</a>
</g>
</g>
<!-- Node12 -->
<g id="Node000012" class="node">
<title>Node12</title>
<g id="a_Node000012"><a xlink:href="../../da/dd5/classTerraria_1_1Main_acc7c7058447ffaab5490befcb8ff2bf4.html#acc7c7058447ffaab5490befcb8ff2bf4" target="_top" xlink:title=" ">
<polygon fill="white" stroke="#666666" points="125,-24.5 0,-24.5 0,-5.5 125,-5.5 125,-24.5"/>
<text text-anchor="middle" x="62.5" y="-12.5" font-family="Helvetica,sans-Serif" font-size="10.00">Terraria.Main.DedServ</text>
</a>
</g>
</g>
<!-- Node11&#45;&gt;Node12 -->
<g id="edge11_Node000011_Node000012" class="edge">
<title>Node11&#45;&gt;Node12</title>
<g id="a_edge11_Node000011_Node000012"><a xlink:title=" ">
<path fill="none" stroke="#63b8ff" d="M150.72,-15C142.23,-15 133.6,-15 125.23,-15"/>
<polygon fill="#63b8ff" stroke="#63b8ff" points="150.97,-18.5 160.97,-15 150.97,-11.5 150.97,-18.5"/>
</a>
</g>
</g>
</g>
</svg>

<g id="navigator" transform="translate(0 0)" fill="#404254">
  <rect fill="#f2f5e9" fill-opacity="0.5" stroke="#606060" stroke-width=".5" x="0" y="0" width="60" height="60"/>
  <use id="zoomplus" xlink:href="#zoomPlus" x="17" y="9" onmousedown="handleZoom(evt,'in')"/>
  <use id="zoomminus" xlink:href="#zoomMin" x="42" y="9" onmousedown="handleZoom(evt,'out')"/>
  <use id="reset" xlink:href="#resetDef" x="30" y="36" onmousedown="handleReset()"/>
   <use id="arrowup" xlink:href="#arrowUp" x="0" y="0" onmousedown="handlePan(0,-1)"/>
  <use id="arrowright" xlink:href="#arrowRight" x="0" y="0" onmousedown="handlePan(1,0)"/>
  <use id="arrowdown" xlink:href="#arrowDown" x="0" y="0" onmousedown="handlePan(0,1)"/>
  <use id="arrowleft" xlink:href="#arrowLeft" x="0" y="0" onmousedown="handlePan(-1,0)"/>
</g>
<svg viewBox="0 0 15 15" width="100%" height="30px" preserveAspectRatio="xMaxYMin meet">
 <g id="arrow_out" transform="scale(0.3 0.3)">
  <a xlink:href="classTerraria_1_1GameInput_1_1PlayerInputProfile_ae7cf7df0f3642d7200a2b91ccc65c969_ae7cf7df0f3642d7200a2b91ccc65c969_icgraph_org.svg" target="_base">
   <rect id="button" ry="5" rx="5" y="6" x="6" height="38" width="38"
        fill="#f2f5e9" fill-opacity="0.5" stroke="#606060" stroke-width="1.0"/>
   <path id="arrow"
     d="M 11.500037,31.436501 C 11.940474,20.09759 22.043105,11.32322 32.158766,21.979434 L 37.068811,17.246167 C 37.068811,17.246167 37.088388,32 37.088388,32 L 22.160133,31.978069 C 22.160133,31.978069 26.997745,27.140456 26.997745,27.140456 C 18.528582,18.264221 13.291696,25.230495 11.500037,31.436501 z"
     style="fill:#404040;"/>
  </a>
 </g>
</svg>

<style type='text/css'>
<![CDATA[
[data-mouse-over-selected='false'] { opacity: 0.7; }
[data-mouse-over-selected='true']  { opacity: 1.0; }
]]>
</style>
<script type="application/ecmascript"><![CDATA[
document.addEventListener('DOMContentLoaded', (event) => {
  highlightEdges();
  highlightAdjacentNodes();
});
]]></script>
</svg>
