<?xml version="1.0" encoding="UTF-8" standalone="no"?>
<!DOCTYPE svg PUBLIC "-//W3C//DTD SVG 1.1//EN"
 "http://www.w3.org/Graphics/SVG/1.1/DTD/svg11.dtd">
<!-- Generated by graphviz version 2.43.0 (0)
 -->
<!-- Title: SortingSteps.ByBestiarySortingId Pages: 1 -->
<!--zoomable 489 -->
<svg id="main" version="1.1" xmlns="http://www.w3.org/2000/svg" xmlns:xlink="http://www.w3.org/1999/xlink" xml:space="preserve" onload="init(evt)">
<style type="text/css"><![CDATA[
.edge:hover path { stroke: red; }
.edge:hover polygon { stroke: red; fill: red; }
]]></style>
<script type="text/javascript"><![CDATA[
var edges = document.getElementsByTagName('g');
if (edges && edges.length) {
  for (var i=0;i<edges.length;i++) {
    if (edges[i].id.substr(0,4)=='edge') {
      edges[i].setAttribute('class','edge');
    }
  }
}
]]></script>
        <defs>
                <circle id="rim" cx="0" cy="0" r="7"/>
                <circle id="rim2" cx="0" cy="0" r="3.5"/>
                <g id="zoomPlus">
                        <use xlink:href="#rim" fill="#404040">
                                <set attributeName="fill" to="#808080" begin="zoomplus.mouseover" end="zoomplus.mouseout"/>
                        </use>
                        <path d="M-4,0h8M0,-4v8" fill="none" stroke="white" stroke-width="1.5" pointer-events="none"/>
                </g>
                <g id="zoomMin">
                        <use xlink:href="#rim" fill="#404040">
                                <set attributeName="fill" to="#808080" begin="zoomminus.mouseover" end="zoomminus.mouseout"/>
                        </use>
                        <path d="M-4,0h8" fill="none" stroke="white" stroke-width="1.5" pointer-events="none"/>
                </g>
                <g id="dirArrow">
                        <path fill="none" stroke="white" stroke-width="1.5" d="M0,-3.0v7 M-2.5,-0.5L0,-3.0L2.5,-0.5"/>
                </g>
               <g id="resetDef">
                       <use xlink:href="#rim2" fill="#404040">
                               <set attributeName="fill" to="#808080" begin="reset.mouseover" end="reset.mouseout"/>
                       </use>
               </g>
        </defs>

<script type="text/javascript">
var viewWidth = 372;
var viewHeight = 489;
var sectionId = 'dynsection-1';
</script>
<script xlink:href="../../svgpan.js"/>
<svg id="graph" class="graph">
<g id="viewport">
<title>SortingSteps.ByBestiarySortingId</title>
<polygon fill="white" stroke="transparent" points="-4,4 -4,-485 367.5,-485 367.5,4 -4,4"/>
<!-- Node1 -->
<g id="node1" class="node">
<title>Node1</title>
<g id="a_node1"><a xlink:title=" ">
<polygon fill="#bfbfbf" stroke="black" points="95.5,-0.5 95.5,-79.5 273.5,-79.5 273.5,-0.5 95.5,-0.5"/>
<text text-anchor="middle" x="184.5" y="-67.5" font-family="Helvetica,sans-Serif" font-size="10.00">SortingSteps.ByBestiarySortingId</text>
<polyline fill="none" stroke="black" points="95.5,-60.5 273.5,-60.5 "/>
<text text-anchor="start" x="103.5" y="-48.5" font-family="Helvetica,sans-Serif" font-size="10.00">+ bool HiddenFromSortOptions</text>
<polyline fill="none" stroke="black" points="95.5,-41.5 273.5,-41.5 "/>
<text text-anchor="start" x="103.5" y="-29.5" font-family="Helvetica,sans-Serif" font-size="10.00">+ int Compare(BestiaryEntry</text>
<text text-anchor="start" x="103.5" y="-18.5" font-family="Helvetica,sans-Serif" font-size="10.00"> x, BestiaryEntry y)</text>
<text text-anchor="start" x="103.5" y="-7.5" font-family="Helvetica,sans-Serif" font-size="10.00">+ string GetDisplayNameKey()</text>
</a>
</g>
</g>
<!-- Node2 -->
<g id="node2" class="node">
<title>Node2</title>
<g id="a_node2"><a xlink:href="../../da/dbe/interfaceIBestiarySortStep.html" target="_top" xlink:title=" ">
<polygon fill="white" stroke="black" points="100.5,-117.5 100.5,-174.5 268.5,-174.5 268.5,-117.5 100.5,-117.5"/>
<text text-anchor="middle" x="184.5" y="-162.5" font-family="Helvetica,sans-Serif" font-size="10.00">IBestiarySortStep</text>
<polyline fill="none" stroke="black" points="100.5,-155.5 268.5,-155.5 "/>
<text text-anchor="start" x="108.5" y="-143.5" font-family="Helvetica,sans-Serif" font-size="10.00">+ bool HiddenFromSortOptions</text>
<polyline fill="none" stroke="black" points="100.5,-136.5 268.5,-136.5 "/>
<text text-anchor="middle" x="184.5" y="-124.5" font-family="Helvetica,sans-Serif" font-size="10.00"> </text>
</a>
</g>
</g>
<!-- Node2&#45;&gt;Node1 -->
<g id="edge1" class="edge">
<title>Node2&#45;&gt;Node1</title>
<path fill="none" stroke="midnightblue" d="M184.5,-107.23C184.5,-98.27 184.5,-88.69 184.5,-79.69"/>
<polygon fill="none" stroke="midnightblue" points="181,-107.4 184.5,-117.4 188,-107.4 181,-107.4"/>
</g>
<!-- Node3 -->
<g id="node3" class="node">
<title>Node3</title>
<g id="a_node3"><a xlink:href="../../db/d6b/interfaceIEntrySortStep.html" target="_top" xlink:title=" ">
<polygon fill="white" stroke="black" points="0,-212.5 0,-280.5 167,-280.5 167,-212.5 0,-212.5"/>
<text text-anchor="start" x="8" y="-268.5" font-family="Helvetica,sans-Serif" font-size="10.00">IEntrySortStep&lt; Bestiary</text>
<text text-anchor="middle" x="83.5" y="-257.5" font-family="Helvetica,sans-Serif" font-size="10.00">Entry &gt;</text>
<polyline fill="none" stroke="black" points="0,-250.5 167,-250.5 "/>
<text text-anchor="middle" x="83.5" y="-238.5" font-family="Helvetica,sans-Serif" font-size="10.00"> </text>
<polyline fill="none" stroke="black" points="0,-231.5 167,-231.5 "/>
<text text-anchor="start" x="8" y="-219.5" font-family="Helvetica,sans-Serif" font-size="10.00">+ string GetDisplayNameKey()</text>
</a>
</g>
</g>
<!-- Node3&#45;&gt;Node1 -->
<g id="edge6" class="edge">
<title>Node3&#45;&gt;Node1</title>
<path fill="none" stroke="midnightblue" d="M77.82,-202.47C76.34,-176.36 78.08,-143.16 91.5,-117 98.83,-102.71 110.16,-90.15 122.43,-79.56"/>
<polygon fill="none" stroke="midnightblue" points="74.33,-202.74 78.56,-212.45 81.31,-202.22 74.33,-202.74"/>
</g>
<!-- Node3&#45;&gt;Node2 -->
<g id="edge2" class="edge">
<title>Node3&#45;&gt;Node2</title>
<path fill="none" stroke="midnightblue" d="M124.64,-205.37C135.26,-195.03 146.44,-184.12 156.23,-174.57"/>
<polygon fill="none" stroke="midnightblue" points="122.13,-202.94 117.41,-212.43 127.02,-207.95 122.13,-202.94"/>
</g>
<!-- Node4 -->
<g id="node4" class="node">
<title>Node4</title>
<g id="a_node4"><a xlink:href="../../db/d6b/interfaceIEntrySortStep.html" target="_top" xlink:title=" ">
<polygon fill="white" stroke="black" points="0,-328.5 0,-385.5 167,-385.5 167,-328.5 0,-328.5"/>
<text text-anchor="middle" x="83.5" y="-373.5" font-family="Helvetica,sans-Serif" font-size="10.00">IEntrySortStep&lt; T &gt;</text>
<polyline fill="none" stroke="black" points="0,-366.5 167,-366.5 "/>
<text text-anchor="middle" x="83.5" y="-354.5" font-family="Helvetica,sans-Serif" font-size="10.00"> </text>
<polyline fill="none" stroke="black" points="0,-347.5 167,-347.5 "/>
<text text-anchor="start" x="8" y="-335.5" font-family="Helvetica,sans-Serif" font-size="10.00">+ string GetDisplayNameKey()</text>
</a>
</g>
</g>
<!-- Node4&#45;&gt;Node3 -->
<g id="edge3" class="edge">
<title>Node4&#45;&gt;Node3</title>
<path fill="none" stroke="orange" d="M83.5,-317.99C83.5,-305.77 83.5,-292.35 83.5,-280.52"/>
<polygon fill="orange" stroke="orange" points="80,-318.34 83.5,-328.34 87,-318.34 80,-318.34"/>
<text text-anchor="middle" x="129.5" y="-302" font-family="Helvetica,sans-Serif" font-size="10.00"> &lt; BestiaryEntry &gt;</text>
</g>
<!-- Node5 -->
<g id="node5" class="node">
<title>Node5</title>
<g id="a_node5"><a xlink:href="../../d7/de5/classIComparer.html" target="_top" xlink:title=" ">
<polygon fill="white" stroke="black" points="35.5,-423.5 35.5,-480.5 131.5,-480.5 131.5,-423.5 35.5,-423.5"/>
<text text-anchor="middle" x="83.5" y="-468.5" font-family="Helvetica,sans-Serif" font-size="10.00">IComparer&lt; T &gt;</text>
<polyline fill="none" stroke="black" points="35.5,-461.5 131.5,-461.5 "/>
<text text-anchor="middle" x="83.5" y="-449.5" font-family="Helvetica,sans-Serif" font-size="10.00"> </text>
<polyline fill="none" stroke="black" points="35.5,-442.5 131.5,-442.5 "/>
<text text-anchor="middle" x="83.5" y="-430.5" font-family="Helvetica,sans-Serif" font-size="10.00"> </text>
</a>
</g>
</g>
<!-- Node5&#45;&gt;Node4 -->
<g id="edge4" class="edge">
<title>Node5&#45;&gt;Node4</title>
<path fill="none" stroke="midnightblue" d="M83.5,-413.24C83.5,-404.03 83.5,-394.35 83.5,-385.71"/>
<polygon fill="none" stroke="midnightblue" points="80,-413.35 83.5,-423.35 87,-413.35 80,-413.35"/>
</g>
<!-- Node6 -->
<g id="node6" class="node">
<title>Node6</title>
<g id="a_node6"><a xlink:href="../../d7/de5/classIComparer.html" target="_top" xlink:title=" ">
<polygon fill="white" stroke="black" points="207.5,-218 207.5,-275 363.5,-275 363.5,-218 207.5,-218"/>
<text text-anchor="middle" x="285.5" y="-263" font-family="Helvetica,sans-Serif" font-size="10.00">IComparer&lt; BestiaryEntry &gt;</text>
<polyline fill="none" stroke="black" points="207.5,-256 363.5,-256 "/>
<text text-anchor="middle" x="285.5" y="-244" font-family="Helvetica,sans-Serif" font-size="10.00"> </text>
<polyline fill="none" stroke="black" points="207.5,-237 363.5,-237 "/>
<text text-anchor="middle" x="285.5" y="-225" font-family="Helvetica,sans-Serif" font-size="10.00"> </text>
</a>
</g>
</g>
<!-- Node6&#45;&gt;Node1 -->
<g id="edge7" class="edge">
<title>Node6&#45;&gt;Node1</title>
<path fill="none" stroke="midnightblue" d="M290.84,-207.62C292.84,-180.85 291.82,-144.92 277.5,-117 270.17,-102.71 258.84,-90.15 246.57,-79.56"/>
<polygon fill="none" stroke="midnightblue" points="287.34,-207.48 289.91,-217.75 294.31,-208.12 287.34,-207.48"/>
</g>
<!-- Node6&#45;&gt;Node2 -->
<g id="edge5" class="edge">
<title>Node6&#45;&gt;Node2</title>
<path fill="none" stroke="midnightblue" d="M249.78,-210.67C237.74,-198.92 224.46,-185.97 213.04,-174.83"/>
<polygon fill="none" stroke="midnightblue" points="247.49,-213.32 257.1,-217.8 252.38,-208.31 247.49,-213.32"/>
</g>
</g>
</svg>
        <g id="navigator" transform="translate(0 0)" fill="#404254">
                <rect fill="#f2f5e9" fill-opacity="0.5" stroke="#606060" stroke-width=".5" x="0" y="0" width="60" height="60"/>
                <use id="zoomplus" xlink:href="#zoomPlus" x="17" y="9" onmousedown="handleZoom(evt,'in')"/>
                <use id="zoomminus" xlink:href="#zoomMin" x="42" y="9" onmousedown="handleZoom(evt,'out')"/>
                <use id="reset" xlink:href="#resetDef" x="30" y="36" onmousedown="handleReset()"/>
                <g id="arrowUp" xlink:href="#dirArrow" transform="translate(30 24)" onmousedown="handlePan(0,-1)">
                  <use xlink:href="#rim" fill="#404040">
                        <set attributeName="fill" to="#808080" begin="arrowUp.mouseover" end="arrowUp.mouseout"/>
                  </use>
                  <path fill="none" stroke="white" stroke-width="1.5" d="M0,-3.0v7 M-2.5,-0.5L0,-3.0L2.5,-0.5"/>
                </g>
                <g id="arrowRight" xlink:href="#dirArrow" transform="rotate(90) translate(36 -43)" onmousedown="handlePan(1,0)">
                  <use xlink:href="#rim" fill="#404040">
                        <set attributeName="fill" to="#808080" begin="arrowRight.mouseover" end="arrowRight.mouseout"/>
                  </use>
                  <path fill="none" stroke="white" stroke-width="1.5" d="M0,-3.0v7 M-2.5,-0.5L0,-3.0L2.5,-0.5"/>
                </g>
                <g id="arrowDown" xlink:href="#dirArrow" transform="rotate(180) translate(-30 -48)" onmousedown="handlePan(0,1)">
                  <use xlink:href="#rim" fill="#404040">
                        <set attributeName="fill" to="#808080" begin="arrowDown.mouseover" end="arrowDown.mouseout"/>
                  </use>
                  <path fill="none" stroke="white" stroke-width="1.5" d="M0,-3.0v7 M-2.5,-0.5L0,-3.0L2.5,-0.5"/>
                </g>
                <g id="arrowLeft" xlink:href="#dirArrow" transform="rotate(270) translate(-36 17)" onmousedown="handlePan(-1,0)">
                  <use xlink:href="#rim" fill="#404040">
                        <set attributeName="fill" to="#808080" begin="arrowLeft.mouseover" end="arrowLeft.mouseout"/>
                  </use>
                  <path fill="none" stroke="white" stroke-width="1.5" d="M0,-3.0v7 M-2.5,-0.5L0,-3.0L2.5,-0.5"/>
                </g>
        </g>
        <svg viewBox="0 0 15 15" width="100%" height="30px" preserveAspectRatio="xMaxYMin meet">
         <g id="arrow_out" transform="scale(0.3 0.3)">
          <a xlink:href="classSortingSteps_1_1ByBestiarySortingId__coll__graph_org.svg" target="_base">
           <rect id="button" ry="5" rx="5" y="6" x="6" height="38" width="38"
                fill="#f2f5e9" fill-opacity="0.5" stroke="#606060" stroke-width="1.0"/>
           <path id="arrow"
             d="M 11.500037,31.436501 C 11.940474,20.09759 22.043105,11.32322 32.158766,21.979434 L 37.068811,17.246167 C 37.068811,17.246167 37.088388,32 37.088388,32 L 22.160133,31.978069 C 22.160133,31.978069 26.997745,27.140456 26.997745,27.140456 C 18.528582,18.264221 13.291696,25.230495 11.500037,31.436501 z"
             style="fill:#404040;"/>
          </a>
         </g>
        </svg>
</svg>
