<?xml version="1.0" encoding="UTF-8" standalone="no"?>
<!DOCTYPE svg PUBLIC "-//W3C//DTD SVG 1.1//EN"
 "http://www.w3.org/Graphics/SVG/1.1/DTD/svg11.dtd">
<!-- Generated by graphviz version 2.43.0 (0)
 -->
<!-- Title: Terraria.DataStructures.SelectionHolder&lt; TCycleType &gt; Pages: 1 -->
<svg width="492pt" height="409pt"
 viewBox="0.00 0.00 491.50 409.00" xmlns="http://www.w3.org/2000/svg" xmlns:xlink="http://www.w3.org/1999/xlink">

<svg id="main" version="1.1" xmlns="http://www.w3.org/2000/svg" xmlns:xlink="http://www.w3.org/1999/xlink" xml:space="preserve" onload="init(evt)">
<style type="text/css"><![CDATA[
.node, .edge {opacity: 0.7;}
.node.selected, .edge.selected {opacity: 1;}
.edge:hover path { stroke: red; }
.edge:hover polygon { stroke: red; fill: red; }
]]></style>
<script type="application/ecmascript" xlink:href="../../svg.min.js"/>
<svg id="graph" class="graph">
<g id="graph0" class="graph" transform="scale(1 1) rotate(0) translate(4 405)">
<title>Terraria.DataStructures.SelectionHolder&lt; TCycleType &gt;</title>
<!-- Node1 -->
<g id="Node000001" class="node">
<title>Node1</title>
<g id="a_Node000001"><a xlink:title=" ">
<polygon fill="#999999" stroke="transparent" points="304.5,-294 112.5,-294 112.5,0 304.5,0 304.5,-294"/>
<text text-anchor="start" x="131" y="-282" font-family="Helvetica,sans-Serif" font-size="10.00">Terraria.DataStructures.</text>
<text text-anchor="start" x="131" y="-271" font-family="Helvetica,sans-Serif" font-size="10.00">SelectionHolder&lt; TCycleType &gt;</text>
<text text-anchor="start" x="116.5" y="-256" font-family="Helvetica,sans-Serif" font-size="10.00">+</text>
<text text-anchor="start" x="129.5" y="-256" font-family="Helvetica,sans-Serif" font-size="10.00">string ActiveSelectionKeyName</text>
<text text-anchor="start" x="116.5" y="-241" font-family="Helvetica,sans-Serif" font-size="10.00">+</text>
<text text-anchor="start" x="129.5" y="-241" font-family="Helvetica,sans-Serif" font-size="10.00">void BindTo(Preferences</text>
<text text-anchor="start" x="129.5" y="-230" font-family="Helvetica,sans-Serif" font-size="10.00"> preferences)</text>
<text text-anchor="start" x="116.5" y="-215" font-family="Helvetica,sans-Serif" font-size="10.00">+</text>
<text text-anchor="start" x="129.5" y="-215" font-family="Helvetica,sans-Serif" font-size="10.00">void LoadContent(AssetRequest</text>
<text text-anchor="start" x="129.5" y="-204" font-family="Helvetica,sans-Serif" font-size="10.00">Mode mode)</text>
<text text-anchor="start" x="116.5" y="-189" font-family="Helvetica,sans-Serif" font-size="10.00">+</text>
<text text-anchor="start" x="129.5" y="-189" font-family="Helvetica,sans-Serif" font-size="10.00">void CycleSelection()</text>
<text text-anchor="start" x="116.5" y="-174" font-family="Helvetica,sans-Serif" font-size="10.00">+</text>
<text text-anchor="start" x="129.5" y="-174" font-family="Helvetica,sans-Serif" font-size="10.00">void SetActiveMinimapFrom</text>
<text text-anchor="start" x="129.5" y="-163" font-family="Helvetica,sans-Serif" font-size="10.00">LoadedConfigKey()</text>
<text text-anchor="start" x="116.5" y="-148" font-family="Helvetica,sans-Serif" font-size="10.00">#</text>
<text text-anchor="start" x="129.5" y="-148" font-family="Helvetica,sans-Serif" font-size="10.00">void Configuration</text>
<text text-anchor="start" x="129.5" y="-137" font-family="Helvetica,sans-Serif" font-size="10.00">_Save(Preferences obj)</text>
<text text-anchor="start" x="116.5" y="-122" font-family="Helvetica,sans-Serif" font-size="10.00">#</text>
<text text-anchor="start" x="129.5" y="-122" font-family="Helvetica,sans-Serif" font-size="10.00">void Configuration</text>
<text text-anchor="start" x="129.5" y="-111" font-family="Helvetica,sans-Serif" font-size="10.00">_OnLoad(Preferences obj)</text>
<text text-anchor="start" x="116.5" y="-96" font-family="Helvetica,sans-Serif" font-size="10.00">#</text>
<text text-anchor="start" x="129.5" y="-96" font-family="Helvetica,sans-Serif" font-size="10.00">void Wrapped_Configuration</text>
<text text-anchor="start" x="129.5" y="-85" font-family="Helvetica,sans-Serif" font-size="10.00">_OnLoad(Preferences obj)</text>
<text text-anchor="start" x="116.5" y="-70" font-family="Helvetica,sans-Serif" font-size="10.00">#</text>
<text text-anchor="start" x="129.5" y="-70" font-family="Helvetica,sans-Serif" font-size="10.00">void PopulateOptionsAndLoad</text>
<text text-anchor="start" x="129.5" y="-59" font-family="Helvetica,sans-Serif" font-size="10.00">Content(AssetRequestMode mode)</text>
<text text-anchor="start" x="119" y="-44" font-family="Helvetica,sans-Serif" font-size="10.00">&#45;</text>
<text text-anchor="start" x="129.5" y="-44" font-family="Helvetica,sans-Serif" font-size="10.00">void SetActiveFrame</text>
<text text-anchor="start" x="129.5" y="-33" font-family="Helvetica,sans-Serif" font-size="10.00">(string frameName)</text>
<text text-anchor="start" x="119" y="-18" font-family="Helvetica,sans-Serif" font-size="10.00">&#45;</text>
<text text-anchor="start" x="129.5" y="-18" font-family="Helvetica,sans-Serif" font-size="10.00">void SetActiveFrame</text>
<text text-anchor="start" x="129.5" y="-7" font-family="Helvetica,sans-Serif" font-size="10.00">(TCycleType frame)</text>
<polygon fill="#666666" stroke="#666666" points="112.5,-266 112.5,-266 304.5,-266 304.5,-266 112.5,-266"/>
<polygon fill="#666666" stroke="#666666" points="112.5,-251 112.5,-251 127.5,-251 127.5,-251 112.5,-251"/>
<polygon fill="#666666" stroke="#666666" points="127.5,-251 127.5,-251 304.5,-251 304.5,-251 127.5,-251"/>
<polygon fill="none" stroke="#666666" points="112.5,0 112.5,-294 304.5,-294 304.5,0 112.5,0"/>
</a>
</g>
</g>
<!-- Node2 -->
<g id="Node000002" class="node">
<title>Node2</title>
<g id="a_Node000002"><a xlink:title=" ">
<polygon fill="white" stroke="transparent" points="103,-401 0,-401 0,-341 103,-341 103,-401"/>
<text text-anchor="start" x="5.5" y="-389" font-family="Helvetica,sans-Serif" font-size="10.00">Dictionary&lt; string,</text>
<text text-anchor="start" x="17" y="-378" font-family="Helvetica,sans-Serif" font-size="10.00"> TCycleType &gt;</text>
<text text-anchor="start" x="50" y="-363" font-family="Helvetica,sans-Serif" font-size="10.00"> </text>
<text text-anchor="start" x="50" y="-348" font-family="Helvetica,sans-Serif" font-size="10.00"> </text>
<polygon fill="#666666" stroke="#666666" points="0.5,-373 0.5,-373 103.5,-373 103.5,-373 0.5,-373"/>
<polygon fill="#666666" stroke="#666666" points="0.5,-358 0.5,-358 103.5,-358 103.5,-358 0.5,-358"/>
<polygon fill="none" stroke="#666666" points="0,-341 0,-401 103,-401 103,-341 0,-341"/>
</a>
</g>
</g>
<!-- Node2&#45;&gt;Node1 -->
<g id="edge1_Node000001_Node000002" class="edge">
<title>Node2&#45;&gt;Node1</title>
<g id="a_edge1_Node000001_Node000002"><a xlink:title=" ">
<path fill="none" stroke="#63b8ff" d="M72.03,-340.98C81.21,-327.99 92.79,-311.61 105.31,-293.92"/>
<polygon fill="none" stroke="#63b8ff" points="105.42,-293.76 105.61,-286.55 112.34,-283.97 112.15,-291.17 105.42,-293.76"/>
</a>
</g>
<text text-anchor="middle" x="114" y="-315" font-family="Helvetica,sans-Serif" font-size="10.00" fill="grey"> #Options</text>
</g>
<!-- Node3 -->
<g id="Node000003" class="node">
<title>Node3</title>
<g id="a_Node000003"><a xlink:title=" ">
<polygon fill="white" stroke="transparent" points="186,-395.5 121,-395.5 121,-346.5 186,-346.5 186,-395.5"/>
<text text-anchor="start" x="126.5" y="-383" font-family="Helvetica,sans-Serif" font-size="10.00">TCycleType</text>
<text text-anchor="start" x="152" y="-368" font-family="Helvetica,sans-Serif" font-size="10.00"> </text>
<text text-anchor="start" x="152" y="-353" font-family="Helvetica,sans-Serif" font-size="10.00"> </text>
<polygon fill="#666666" stroke="#666666" points="121.5,-378 121.5,-378 186.5,-378 186.5,-378 121.5,-378"/>
<polygon fill="#666666" stroke="#666666" points="121.5,-363 121.5,-363 186.5,-363 186.5,-363 121.5,-363"/>
<polygon fill="none" stroke="#666666" points="121,-346.5 121,-395.5 186,-395.5 186,-346.5 121,-346.5"/>
</a>
</g>
</g>
<!-- Node3&#45;&gt;Node1 -->
<g id="edge2_Node000001_Node000003" class="edge">
<title>Node3&#45;&gt;Node1</title>
<g id="a_edge2_Node000001_Node000003"><a xlink:title=" ">
<path fill="none" stroke="#63b8ff" d="M152.31,-346.43C152.18,-335.84 152.6,-323.22 154.5,-312 154.84,-309.97 155.21,-307.93 155.59,-305.88"/>
<polygon fill="none" stroke="#63b8ff" points="155.6,-305.84 152.87,-299.17 157.99,-294.08 160.71,-300.76 155.6,-305.84"/>
</a>
</g>
<text text-anchor="middle" x="198.5" y="-315" font-family="Helvetica,sans-Serif" font-size="10.00" fill="grey"> #ActiveSelection</text>
</g>
<!-- Node4 -->
<g id="Node000004" class="node">
<title>Node4</title>
<g id="a_Node000004"><a xlink:href="../../d5/d92/classstring.html" target="_top" xlink:title=" ">
<polygon fill="white" stroke="transparent" points="283.5,-395.5 245.5,-395.5 245.5,-346.5 283.5,-346.5 283.5,-395.5"/>
<text text-anchor="start" x="250.5" y="-383" font-family="Helvetica,sans-Serif" font-size="10.00">string</text>
<text text-anchor="start" x="262.5" y="-368" font-family="Helvetica,sans-Serif" font-size="10.00"> </text>
<text text-anchor="start" x="262.5" y="-353" font-family="Helvetica,sans-Serif" font-size="10.00"> </text>
<polygon fill="#666666" stroke="#666666" points="245.5,-378 245.5,-378 283.5,-378 283.5,-378 245.5,-378"/>
<polygon fill="#666666" stroke="#666666" points="245.5,-363 245.5,-363 283.5,-363 283.5,-363 245.5,-363"/>
<polygon fill="none" stroke="#666666" points="245.5,-346.5 245.5,-395.5 283.5,-395.5 283.5,-346.5 245.5,-346.5"/>
</a>
</g>
</g>
<!-- Node4&#45;&gt;Node1 -->
<g id="edge3_Node000001_Node000004" class="edge">
<title>Node4&#45;&gt;Node1</title>
<g id="a_edge3_Node000001_Node000004"><a xlink:title=" ">
<path fill="none" stroke="#63b8ff" d="M258.51,-346.24C255.76,-335.37 252.26,-321.48 248.38,-306.1"/>
<polygon fill="none" stroke="#63b8ff" points="248.29,-305.72 242.94,-300.88 245.35,-294.09 250.7,-298.92 248.29,-305.72"/>
</a>
</g>
<text text-anchor="middle" x="319.5" y="-315" font-family="Helvetica,sans-Serif" font-size="10.00" fill="grey"> #ActiveSelectionConfigKey</text>
</g>
<!-- Node5 -->
<g id="Node000005" class="node">
<title>Node5</title>
<g id="a_Node000005"><a xlink:href="../../d9/db9/classbool.html" target="_top" xlink:title=" ">
<polygon fill="white" stroke="transparent" points="439.5,-395.5 407.5,-395.5 407.5,-346.5 439.5,-346.5 439.5,-395.5"/>
<text text-anchor="start" x="412.5" y="-383" font-family="Helvetica,sans-Serif" font-size="10.00">bool</text>
<text text-anchor="start" x="421.5" y="-368" font-family="Helvetica,sans-Serif" font-size="10.00"> </text>
<text text-anchor="start" x="421.5" y="-353" font-family="Helvetica,sans-Serif" font-size="10.00"> </text>
<polygon fill="#666666" stroke="#666666" points="407.5,-378 407.5,-378 439.5,-378 439.5,-378 407.5,-378"/>
<polygon fill="#666666" stroke="#666666" points="407.5,-363 407.5,-363 439.5,-363 439.5,-363 407.5,-363"/>
<polygon fill="none" stroke="#666666" points="407.5,-346.5 407.5,-395.5 439.5,-395.5 439.5,-346.5 407.5,-346.5"/>
</a>
</g>
</g>
<!-- Node5&#45;&gt;Node1 -->
<g id="edge4_Node000001_Node000005" class="edge">
<title>Node5&#45;&gt;Node1</title>
<g id="a_edge4_Node000001_Node000005"><a xlink:title=" ">
<path fill="none" stroke="#63b8ff" d="M412.71,-346.3C407.16,-335.33 399.81,-322.44 391.5,-312 368.83,-283.51 340.93,-255.78 313.81,-231.48"/>
<polygon fill="none" stroke="#63b8ff" points="313.64,-231.33 306.5,-230.35 304.66,-223.38 311.8,-224.36 313.64,-231.33"/>
</a>
</g>
<text text-anchor="middle" x="441" y="-315" font-family="Helvetica,sans-Serif" font-size="10.00" fill="grey"> #LoadedContent</text>
</g>
</g>
</svg>
</svg>

<style type='text/css'>
<![CDATA[
[data-mouse-over-selected='false'] { opacity: 0.7; }
[data-mouse-over-selected='true']  { opacity: 1.0; }
]]>
</style>
<script type="application/ecmascript"><![CDATA[
document.addEventListener('DOMContentLoaded', (event) => {
  highlightEdges();
  highlightAdjacentNodes();
});
]]></script>
</svg>
