<?xml version="1.0" encoding="UTF-8" standalone="no"?>
<!DOCTYPE svg PUBLIC "-//W3C//DTD SVG 1.1//EN"
 "http://www.w3.org/Graphics/SVG/1.1/DTD/svg11.dtd">
<!-- Generated by graphviz version 2.43.0 (0)
 -->
<!-- Title: Terraria.GameContent.Biomes.CampsiteBiome.Place Pages: 1 -->
<svg width="942pt" height="627pt"
 viewBox="0.00 0.00 942.00 626.71" xmlns="http://www.w3.org/2000/svg" xmlns:xlink="http://www.w3.org/1999/xlink">
<g id="graph0" class="graph" transform="scale(1 1) rotate(0) translate(4 622.71)">
<title>Terraria.GameContent.Biomes.CampsiteBiome.Place</title>
<!-- Node1 -->
<g id="Node000001" class="node">
<title>Node1</title>
<g id="a_Node000001"><a xlink:title=" ">
<polygon fill="#999999" stroke="#666666" points="167,-198 0,-198 0,-168 167,-168 167,-198"/>
<text text-anchor="start" x="8" y="-186" font-family="Helvetica,sans-Serif" font-size="10.00">Terraria.GameContent.Biomes.</text>
<text text-anchor="middle" x="83.5" y="-175" font-family="Helvetica,sans-Serif" font-size="10.00">CampsiteBiome.Place</text>
</a>
</g>
</g>
<!-- Node2 -->
<g id="Node000002" class="node">
<title>Node2</title>
<g id="a_Node000002"><a xlink:href="../../d3/ddc/classTerraria_1_1Tile_a9a3f37926e6d7f23ba057d6c0aeab1a5.html#a9a3f37926e6d7f23ba057d6c0aeab1a5" target="_top" xlink:title=" ">
<polygon fill="white" stroke="#666666" points="920.5,-387.5 813.5,-387.5 813.5,-368.5 920.5,-368.5 920.5,-387.5"/>
<text text-anchor="middle" x="867" y="-375.5" font-family="Helvetica,sans-Serif" font-size="10.00">Terraria.Tile.active</text>
</a>
</g>
</g>
<!-- Node1&#45;&gt;Node2 -->
<g id="edge1_Node000001_Node000002" class="edge">
<title>Node1&#45;&gt;Node2</title>
<g id="a_edge1_Node000001_Node000002"><a xlink:title=" ">
<path fill="none" stroke="#63b8ff" d="M90.24,-198.38C115.6,-263.76 224.83,-519 413,-602 588.93,-679.6 795.64,-460.16 851.49,-395.4"/>
<polygon fill="#63b8ff" stroke="#63b8ff" points="854.26,-397.54 858.08,-387.66 848.93,-393 854.26,-397.54"/>
</a>
</g>
</g>
<!-- Node3 -->
<g id="Node000003" class="node">
<title>Node3</title>
<g id="a_Node000003"><a xlink:href="../../da/d8a/classTerraria_1_1WorldBuilding_1_1StructureMap_a091d8189ebc9e5fc19803700561de8c7.html#a091d8189ebc9e5fc19803700561de8c7" target="_top" xlink:title=" ">
<polygon fill="white" stroke="#666666" points="375.5,-288 204.5,-288 204.5,-258 375.5,-258 375.5,-288"/>
<text text-anchor="start" x="212.5" y="-276" font-family="Helvetica,sans-Serif" font-size="10.00">Terraria.WorldBuilding.Structure</text>
<text text-anchor="middle" x="290" y="-265" font-family="Helvetica,sans-Serif" font-size="10.00">Map.AddProtectedStructure</text>
</a>
</g>
</g>
<!-- Node1&#45;&gt;Node3 -->
<g id="edge2_Node000001_Node000003" class="edge">
<title>Node1&#45;&gt;Node3</title>
<g id="a_edge2_Node000001_Node000003"><a xlink:title=" ">
<path fill="none" stroke="#63b8ff" d="M107.73,-198.11C131.05,-212.75 168.37,-234.76 203,-249 208.02,-251.06 213.27,-253.01 218.6,-254.84"/>
<polygon fill="#63b8ff" stroke="#63b8ff" points="217.65,-258.21 228.25,-257.99 219.83,-251.56 217.65,-258.21"/>
</a>
</g>
</g>
<!-- Node4 -->
<g id="Node000004" class="node">
<title>Node4</title>
<g id="a_Node000004"><a xlink:href="../../da/d8a/classTerraria_1_1WorldBuilding_1_1StructureMap_a707bc823640c5a6be63d3caea75ac19d.html#a707bc823640c5a6be63d3caea75ac19d" target="_top" xlink:title=" ">
<polygon fill="white" stroke="#666666" points="375.5,-222 204.5,-222 204.5,-192 375.5,-192 375.5,-222"/>
<text text-anchor="start" x="212.5" y="-210" font-family="Helvetica,sans-Serif" font-size="10.00">Terraria.WorldBuilding.Structure</text>
<text text-anchor="middle" x="290" y="-199" font-family="Helvetica,sans-Serif" font-size="10.00">Map.CanPlace</text>
</a>
</g>
</g>
<!-- Node1&#45;&gt;Node4 -->
<g id="edge3_Node000001_Node000004" class="edge">
<title>Node1&#45;&gt;Node4</title>
<g id="a_edge3_Node000001_Node000004"><a xlink:title=" ">
<path fill="none" stroke="#63b8ff" d="M167.09,-192.69C176.03,-193.74 185.18,-194.82 194.25,-195.88"/>
<polygon fill="#63b8ff" stroke="#63b8ff" points="194.1,-199.39 204.44,-197.08 194.91,-192.43 194.1,-199.39"/>
</a>
</g>
</g>
<!-- Node5 -->
<g id="Node000005" class="node">
<title>Node5</title>
<g id="a_Node000005"><a xlink:href="../../d0/db6/classTerraria_1_1WorldBuilding_1_1Searches_a0a2b7ab503ac7ec649d55daaf8612a42.html#a0a2b7ab503ac7ec649d55daaf8612a42" target="_top" xlink:title=" ">
<polygon fill="white" stroke="#666666" points="377,-174 203,-174 203,-144 377,-144 377,-174"/>
<text text-anchor="start" x="211" y="-162" font-family="Helvetica,sans-Serif" font-size="10.00">Terraria.WorldBuilding.Searches.</text>
<text text-anchor="middle" x="290" y="-151" font-family="Helvetica,sans-Serif" font-size="10.00">Chain</text>
</a>
</g>
</g>
<!-- Node1&#45;&gt;Node5 -->
<g id="edge5_Node000001_Node000005" class="edge">
<title>Node1&#45;&gt;Node5</title>
<g id="a_edge5_Node000001_Node000005"><a xlink:title=" ">
<path fill="none" stroke="#63b8ff" d="M167.09,-173.31C175.53,-172.32 184.17,-171.3 192.74,-170.3"/>
<polygon fill="#63b8ff" stroke="#63b8ff" points="193.24,-173.76 202.77,-169.12 192.43,-166.81 193.24,-173.76"/>
</a>
</g>
</g>
<!-- Node7 -->
<g id="Node000007" class="node">
<title>Node7</title>
<g id="a_Node000007"><a xlink:href="../../d9/d02/classTerraria_1_1WorldBuilding_1_1Actions_a6e2572a22feedf1430087e99ddf6e6d6.html#a6e2572a22feedf1430087e99ddf6e6d6" target="_top" xlink:title=" ">
<polygon fill="white" stroke="#666666" points="373,-126 207,-126 207,-96 373,-96 373,-126"/>
<text text-anchor="start" x="215" y="-114" font-family="Helvetica,sans-Serif" font-size="10.00">Terraria.WorldBuilding.Actions.</text>
<text text-anchor="middle" x="290" y="-103" font-family="Helvetica,sans-Serif" font-size="10.00">Chain</text>
</a>
</g>
</g>
<!-- Node1&#45;&gt;Node7 -->
<g id="edge7_Node000001_Node000007" class="edge">
<title>Node1&#45;&gt;Node7</title>
<g id="a_edge7_Node000001_Node000007"><a xlink:title=" ">
<path fill="none" stroke="#63b8ff" d="M118.6,-168C142.07,-157.96 174.11,-144.85 203,-135 208.97,-132.97 215.21,-130.97 221.5,-129.06"/>
<polygon fill="#63b8ff" stroke="#63b8ff" points="222.78,-132.33 231.36,-126.12 220.78,-125.62 222.78,-132.33"/>
</a>
</g>
</g>
<!-- Node8 -->
<g id="Node000008" class="node">
<title>Node8</title>
<g id="a_Node000008"><a xlink:href="../../d6/d1f/classTerraria_1_1WorldBuilding_1_1WorldUtils_a2afa71136849722c517115ad53e5ea65.html#a2afa71136849722c517115ad53e5ea65" target="_top" xlink:title=" ">
<polygon fill="white" stroke="#666666" points="367.5,-78 212.5,-78 212.5,-48 367.5,-48 367.5,-78"/>
<text text-anchor="start" x="220.5" y="-66" font-family="Helvetica,sans-Serif" font-size="10.00">Terraria.WorldBuilding.World</text>
<text text-anchor="middle" x="290" y="-55" font-family="Helvetica,sans-Serif" font-size="10.00">Utils.Find</text>
</a>
</g>
</g>
<!-- Node1&#45;&gt;Node8 -->
<g id="edge8_Node000001_Node000008" class="edge">
<title>Node1&#45;&gt;Node8</title>
<g id="a_edge8_Node000001_Node000008"><a xlink:title=" ">
<path fill="none" stroke="#63b8ff" d="M99.14,-167.71C120.19,-146.59 161.12,-108.62 203,-87 206.72,-85.08 210.61,-83.3 214.6,-81.65"/>
<polygon fill="#63b8ff" stroke="#63b8ff" points="215.95,-84.88 224.03,-78.03 213.44,-78.34 215.95,-84.88"/>
</a>
</g>
</g>
<!-- Node10 -->
<g id="Node000010" class="node">
<title>Node10</title>
<g id="a_Node000010"><a xlink:href="../../d6/d1f/classTerraria_1_1WorldBuilding_1_1WorldUtils_ae81cd0d3f9fab67f47de6a02f4834ad8.html#ae81cd0d3f9fab67f47de6a02f4834ad8" target="_top" xlink:title=" ">
<polygon fill="white" stroke="#666666" points="367.5,-30 212.5,-30 212.5,0 367.5,0 367.5,-30"/>
<text text-anchor="start" x="220.5" y="-18" font-family="Helvetica,sans-Serif" font-size="10.00">Terraria.WorldBuilding.World</text>
<text text-anchor="middle" x="290" y="-7" font-family="Helvetica,sans-Serif" font-size="10.00">Utils.Gen</text>
</a>
</g>
</g>
<!-- Node1&#45;&gt;Node10 -->
<g id="edge10_Node000001_Node000010" class="edge">
<title>Node1&#45;&gt;Node10</title>
<g id="a_edge10_Node000001_Node000010"><a xlink:title=" ">
<path fill="none" stroke="#63b8ff" d="M92.72,-167.78C109.45,-138.3 150.36,-73.27 203,-39 205.58,-37.32 208.28,-35.76 211.06,-34.3"/>
<polygon fill="#63b8ff" stroke="#63b8ff" points="212.62,-37.43 220.18,-30.01 209.64,-31.1 212.62,-37.43"/>
</a>
</g>
</g>
<!-- Node12 -->
<g id="Node000012" class="node">
<title>Node12</title>
<g id="a_Node000012"><a xlink:href="../../de/da1/classTerraria_1_1WorldGen_a44be8e88cfbc0e27b42eea0f79c37c3c.html#a44be8e88cfbc0e27b42eea0f79c37c3c" target="_top" xlink:title=" ">
<polygon fill="white" stroke="#666666" points="365.5,-362.5 214.5,-362.5 214.5,-343.5 365.5,-343.5 365.5,-362.5"/>
<text text-anchor="middle" x="290" y="-350.5" font-family="Helvetica,sans-Serif" font-size="10.00">Terraria.WorldGen.PlaceTile</text>
</a>
</g>
</g>
<!-- Node1&#45;&gt;Node12 -->
<g id="edge12_Node000001_Node000012" class="edge">
<title>Node1&#45;&gt;Node12</title>
<g id="a_edge12_Node000001_Node000012"><a xlink:title=" ">
<path fill="none" stroke="#63b8ff" d="M98.64,-198.34C120.06,-221.17 162.55,-264.85 203,-297 222.36,-312.39 246.01,-327.55 263.6,-338.21"/>
<polygon fill="#63b8ff" stroke="#63b8ff" points="261.82,-341.22 272.2,-343.35 265.41,-335.22 261.82,-341.22"/>
</a>
</g>
</g>
<!-- Node4&#45;&gt;Node4 -->
<g id="edge4_Node000004_Node000004" class="edge">
<title>Node4&#45;&gt;Node4</title>
<g id="a_edge4_Node000004_Node000004"><a xlink:title=" ">
<path fill="none" stroke="#63b8ff" d="M255.2,-222.28C247.46,-231.41 259.06,-240 290,-240 308.37,-240 319.92,-236.97 324.66,-232.6"/>
<polygon fill="#63b8ff" stroke="#63b8ff" points="328.16,-232.32 324.8,-222.28 321.16,-232.22 328.16,-232.32"/>
</a>
</g>
</g>
<!-- Node6 -->
<g id="Node000006" class="node">
<title>Node6</title>
<g id="a_Node000006"><a xlink:href="../../df/d08/classTerraria_1_1WorldBuilding_1_1GenSearch_aeeab1e2a5b06d55ec8d0eb17ec410ab4.html#aeeab1e2a5b06d55ec8d0eb17ec410ab4" target="_top" xlink:title=" ">
<polygon fill="white" stroke="#666666" points="562.5,-126 416.5,-126 416.5,-96 562.5,-96 562.5,-126"/>
<text text-anchor="start" x="424.5" y="-114" font-family="Helvetica,sans-Serif" font-size="10.00">Terraria.WorldBuilding.Gen</text>
<text text-anchor="middle" x="489.5" y="-103" font-family="Helvetica,sans-Serif" font-size="10.00">Search.Conditions</text>
</a>
</g>
</g>
<!-- Node5&#45;&gt;Node6 -->
<g id="edge6_Node000005_Node000006" class="edge">
<title>Node5&#45;&gt;Node6</title>
<g id="a_edge6_Node000005_Node000006"><a xlink:title=" ">
<path fill="none" stroke="#63b8ff" d="M352.95,-143.94C373.26,-139.01 396,-133.48 416.96,-128.39"/>
<polygon fill="#63b8ff" stroke="#63b8ff" points="417.88,-131.77 426.77,-126 416.23,-124.96 417.88,-131.77"/>
</a>
</g>
</g>
<!-- Node9 -->
<g id="Node000009" class="node">
<title>Node9</title>
<g id="a_Node000009"><a xlink:href="../../df/d08/classTerraria_1_1WorldBuilding_1_1GenSearch_ad13332b60af850bc0eed014a08fd2b39.html#ad13332b60af850bc0eed014a08fd2b39" target="_top" xlink:title=" ">
<polygon fill="white" stroke="#666666" points="562.5,-78 416.5,-78 416.5,-48 562.5,-48 562.5,-78"/>
<text text-anchor="start" x="424.5" y="-66" font-family="Helvetica,sans-Serif" font-size="10.00">Terraria.WorldBuilding.Gen</text>
<text text-anchor="middle" x="489.5" y="-55" font-family="Helvetica,sans-Serif" font-size="10.00">Search.Find</text>
</a>
</g>
</g>
<!-- Node8&#45;&gt;Node9 -->
<g id="edge9_Node000008_Node000009" class="edge">
<title>Node8&#45;&gt;Node9</title>
<g id="a_edge9_Node000008_Node000009"><a xlink:title=" ">
<path fill="none" stroke="#63b8ff" d="M367.64,-63C380.3,-63 393.48,-63 406.27,-63"/>
<polygon fill="#63b8ff" stroke="#63b8ff" points="406.43,-66.5 416.43,-63 406.43,-59.5 406.43,-66.5"/>
</a>
</g>
</g>
<!-- Node11 -->
<g id="Node000011" class="node">
<title>Node11</title>
<g id="a_Node000011"><a xlink:href="../../da/d11/classTerraria_1_1WorldBuilding_1_1GenShape_a05d36703ba3f9541b418954528f7b726.html#a05d36703ba3f9541b418954528f7b726" target="_top" xlink:title=" ">
<polygon fill="white" stroke="#666666" points="562.5,-30 416.5,-30 416.5,0 562.5,0 562.5,-30"/>
<text text-anchor="start" x="424.5" y="-18" font-family="Helvetica,sans-Serif" font-size="10.00">Terraria.WorldBuilding.Gen</text>
<text text-anchor="middle" x="489.5" y="-7" font-family="Helvetica,sans-Serif" font-size="10.00">Shape.Perform</text>
</a>
</g>
</g>
<!-- Node10&#45;&gt;Node11 -->
<g id="edge11_Node000010_Node000011" class="edge">
<title>Node10&#45;&gt;Node11</title>
<g id="a_edge11_Node000010_Node000011"><a xlink:title=" ">
<path fill="none" stroke="#63b8ff" d="M367.64,-15C380.3,-15 393.48,-15 406.27,-15"/>
<polygon fill="#63b8ff" stroke="#63b8ff" points="406.43,-18.5 416.43,-15 406.43,-11.5 406.43,-18.5"/>
</a>
</g>
</g>
<!-- Node12&#45;&gt;Node2 -->
<g id="edge13_Node000012_Node000002" class="edge">
<title>Node12&#45;&gt;Node2</title>
<g id="a_edge13_Node000012_Node000002"><a xlink:title=" ">
<path fill="none" stroke="#63b8ff" d="M330.07,-362.52C353.91,-368.04 385.07,-374.71 413,-379 567.39,-402.72 608.46,-411.36 764,-397 780.48,-395.48 798.27,-392.6 814.3,-389.54"/>
<polygon fill="#63b8ff" stroke="#63b8ff" points="815.43,-392.88 824.56,-387.51 814.07,-386.02 815.43,-392.88"/>
</a>
</g>
</g>
<!-- Node13 -->
<g id="Node000013" class="node">
<title>Node13</title>
<g id="a_Node000013"><a xlink:href="../../d3/ddc/classTerraria_1_1Tile_a2b748f465ab88d4218d7b75a70468f56.html#a2b748f465ab88d4218d7b75a70468f56" target="_top" xlink:title=" ">
<polygon fill="white" stroke="#666666" points="753,-189.5 613,-189.5 613,-170.5 753,-170.5 753,-189.5"/>
<text text-anchor="middle" x="683" y="-177.5" font-family="Helvetica,sans-Serif" font-size="10.00">Terraria.Tile.bottomSlope</text>
</a>
</g>
</g>
<!-- Node12&#45;&gt;Node13 -->
<g id="edge14_Node000012_Node000013" class="edge">
<title>Node12&#45;&gt;Node13</title>
<g id="a_edge14_Node000012_Node000013"><a xlink:title=" ">
<path fill="none" stroke="#63b8ff" d="M312.6,-343.36C331.69,-333.9 359.2,-317.88 377,-297 402.56,-267.02 381.47,-239.62 413,-216 442.15,-194.17 534.16,-185.58 602.5,-182.2"/>
<polygon fill="#63b8ff" stroke="#63b8ff" points="603,-185.68 612.82,-181.72 602.67,-178.68 603,-185.68"/>
</a>
</g>
</g>
<!-- Node14 -->
<g id="Node000014" class="node">
<title>Node14</title>
<g id="a_Node000014"><a xlink:href="../../d3/ddc/classTerraria_1_1Tile_ab9bfb24365d03f2b4fe0842f6a406765.html#ab9bfb24365d03f2b4fe0842f6a406765" target="_top" xlink:title=" ">
<polygon fill="white" stroke="#666666" points="919,-227.5 815,-227.5 815,-208.5 919,-208.5 919,-227.5"/>
<text text-anchor="middle" x="867" y="-215.5" font-family="Helvetica,sans-Serif" font-size="10.00">Terraria.Tile.slope</text>
</a>
</g>
</g>
<!-- Node12&#45;&gt;Node14 -->
<g id="edge34_Node000012_Node000014" class="edge">
<title>Node12&#45;&gt;Node14</title>
<g id="a_edge34_Node000012_Node000014"><a xlink:title=" ">
<path fill="none" stroke="#63b8ff" d="M305.95,-343.34C323.13,-332.21 352.15,-313.37 377,-297 393.06,-286.42 395.2,-280.28 413,-273 544.91,-219.07 715.1,-213.77 804.65,-215.39"/>
<polygon fill="#63b8ff" stroke="#63b8ff" points="804.83,-218.9 814.9,-215.61 804.98,-211.9 804.83,-218.9"/>
</a>
</g>
</g>
<!-- Node15 -->
<g id="Node000015" class="node">
<title>Node15</title>
<g id="a_Node000015"><a xlink:href="../../d3/ddc/classTerraria_1_1Tile_a51bea62ea9c2d895b6242d337728b4b6.html#a51bea62ea9c2d895b6242d337728b4b6" target="_top" xlink:title=" ">
<polygon fill="white" stroke="#666666" points="564.5,-163.5 414.5,-163.5 414.5,-144.5 564.5,-144.5 564.5,-163.5"/>
<text text-anchor="middle" x="489.5" y="-151.5" font-family="Helvetica,sans-Serif" font-size="10.00">Terraria.Tile.checkingLiquid</text>
</a>
</g>
</g>
<!-- Node12&#45;&gt;Node15 -->
<g id="edge16_Node000012_Node000015" class="edge">
<title>Node12&#45;&gt;Node15</title>
<g id="a_edge16_Node000012_Node000015"><a xlink:title=" ">
<path fill="none" stroke="#63b8ff" d="M314.39,-343.33C333.83,-334.14 360.85,-318.52 377,-297 410.16,-252.8 374.2,-217.34 413,-178 416.92,-174.02 421.5,-170.7 426.43,-167.93"/>
<polygon fill="#63b8ff" stroke="#63b8ff" points="428.12,-171 435.61,-163.51 425.08,-164.69 428.12,-171"/>
</a>
</g>
</g>
<!-- Node16 -->
<g id="Node000016" class="node">
<title>Node16</title>
<g id="a_Node000016"><a xlink:href="../../d3/ddc/classTerraria_1_1Tile_a083f90a80ef987726fd28c52ffc4787e.html#a083f90a80ef987726fd28c52ffc4787e" target="_top" xlink:title=" ">
<polygon fill="white" stroke="#666666" points="540,-592.5 439,-592.5 439,-573.5 540,-573.5 540,-592.5"/>
<text text-anchor="middle" x="489.5" y="-580.5" font-family="Helvetica,sans-Serif" font-size="10.00">Terraria.Tile.color</text>
</a>
</g>
</g>
<!-- Node12&#45;&gt;Node16 -->
<g id="edge17_Node000012_Node000016" class="edge">
<title>Node12&#45;&gt;Node16</title>
<g id="a_edge17_Node000012_Node000016"><a xlink:title=" ">
<path fill="none" stroke="#63b8ff" d="M293.62,-362.89C303.18,-396.93 339.5,-510.13 413,-565 417.84,-568.62 423.3,-571.52 429.02,-573.84"/>
<polygon fill="#63b8ff" stroke="#63b8ff" points="428.22,-577.27 438.82,-577.24 430.52,-570.66 428.22,-577.27"/>
</a>
</g>
</g>
<!-- Node17 -->
<g id="Node000017" class="node">
<title>Node17</title>
<g id="a_Node000017"><a xlink:href="../../de/d1d/classTerraria_1_1Collision_a6489a1a9d15c3b1a4923f127560e5092.html#a6489a1a9d15c3b1a4923f127560e5092" target="_top" xlink:title=" ">
<polygon fill="white" stroke="#666666" points="758.5,-387.5 607.5,-387.5 607.5,-368.5 758.5,-368.5 758.5,-387.5"/>
<text text-anchor="middle" x="683" y="-375.5" font-family="Helvetica,sans-Serif" font-size="10.00">Terraria.Collision.EmptyTile</text>
</a>
</g>
</g>
<!-- Node12&#45;&gt;Node17 -->
<g id="edge18_Node000012_Node000017" class="edge">
<title>Node12&#45;&gt;Node17</title>
<g id="a_edge18_Node000012_Node000017"><a xlink:title=" ">
<path fill="none" stroke="#63b8ff" d="M365.93,-357.79C431.94,-362.01 528.06,-368.16 596.94,-372.56"/>
<polygon fill="#63b8ff" stroke="#63b8ff" points="597.12,-376.08 607.33,-373.23 597.57,-369.09 597.12,-376.08"/>
</a>
</g>
</g>
<!-- Node18 -->
<g id="Node000018" class="node">
<title>Node18</title>
<g id="a_Node000018"><a xlink:href="../../d3/ddc/classTerraria_1_1Tile_afac1102270d7f948e822bfbe76d4533d.html#afac1102270d7f948e822bfbe76d4533d" target="_top" xlink:title=" ">
<polygon fill="white" stroke="#666666" points="550,-555.5 429,-555.5 429,-536.5 550,-536.5 550,-555.5"/>
<text text-anchor="middle" x="489.5" y="-543.5" font-family="Helvetica,sans-Serif" font-size="10.00">Terraria.Tile.halfBrick</text>
</a>
</g>
</g>
<!-- Node12&#45;&gt;Node18 -->
<g id="edge20_Node000012_Node000018" class="edge">
<title>Node12&#45;&gt;Node18</title>
<g id="a_edge20_Node000012_Node000018"><a xlink:title=" ">
<path fill="none" stroke="#63b8ff" d="M294.82,-362.81C307.03,-392.79 348.11,-483.79 413,-528 415.27,-529.55 417.66,-530.96 420.13,-532.26"/>
<polygon fill="#63b8ff" stroke="#63b8ff" points="418.84,-535.51 429.39,-536.43 421.71,-529.13 418.84,-535.51"/>
</a>
</g>
</g>
<!-- Node19 -->
<g id="Node000019" class="node">
<title>Node19</title>
<g id="a_Node000019"><a xlink:href="../../d3/ddc/classTerraria_1_1Tile_a38bb9749f89eeb6c767e86efa96dbc91.html#a38bb9749f89eeb6c767e86efa96dbc91" target="_top" xlink:title=" ">
<polygon fill="white" stroke="#666666" points="546,-518.5 433,-518.5 433,-499.5 546,-499.5 546,-518.5"/>
<text text-anchor="middle" x="489.5" y="-506.5" font-family="Helvetica,sans-Serif" font-size="10.00">Terraria.Tile.nactive</text>
</a>
</g>
</g>
<!-- Node12&#45;&gt;Node19 -->
<g id="edge21_Node000012_Node000019" class="edge">
<title>Node12&#45;&gt;Node19</title>
<g id="a_edge21_Node000012_Node000019"><a xlink:title=" ">
<path fill="none" stroke="#63b8ff" d="M296.72,-362.75C312.09,-388.01 356.89,-455.99 413,-490 416.58,-492.17 420.39,-494.09 424.33,-495.79"/>
<polygon fill="#63b8ff" stroke="#63b8ff" points="423.12,-499.08 433.71,-499.38 425.63,-492.54 423.12,-499.08"/>
</a>
</g>
</g>
<!-- Node20 -->
<g id="Node000020" class="node">
<title>Node20</title>
<g id="a_Node000020"><a xlink:href="../../dc/de5/classTerraria_1_1Dust_a977a36a9376966862406a3094e3b70ab.html#a977a36a9376966862406a3094e3b70ab" target="_top" xlink:title=" ">
<polygon fill="white" stroke="#666666" points="552.5,-300.5 426.5,-300.5 426.5,-281.5 552.5,-281.5 552.5,-300.5"/>
<text text-anchor="middle" x="489.5" y="-288.5" font-family="Helvetica,sans-Serif" font-size="10.00">Terraria.Dust.NewDust</text>
</a>
</g>
</g>
<!-- Node12&#45;&gt;Node20 -->
<g id="edge22_Node000012_Node000020" class="edge">
<title>Node12&#45;&gt;Node20</title>
<g id="a_edge22_Node000012_Node000020"><a xlink:title=" ">
<path fill="none" stroke="#63b8ff" d="M321.43,-343.45C355.5,-332.75 410.85,-315.38 448.42,-303.58"/>
<polygon fill="#63b8ff" stroke="#63b8ff" points="449.55,-306.9 458.04,-300.56 447.45,-300.22 449.55,-306.9"/>
</a>
</g>
</g>
<!-- Node26 -->
<g id="Node000026" class="node">
<title>Node26</title>
<g id="a_Node000026"><a xlink:href="../../de/d1f/classTerraria_1_1Minecart_a6066176bc8dc2c84bc14e64dcedac0c6.html#a6066176bc8dc2c84bc14e64dcedac0c6" target="_top" xlink:title=" ">
<polygon fill="white" stroke="#666666" points="760,-350.5 606,-350.5 606,-331.5 760,-331.5 760,-350.5"/>
<text text-anchor="middle" x="683" y="-338.5" font-family="Helvetica,sans-Serif" font-size="10.00">Terraria.Minecart.PlaceTrack</text>
</a>
</g>
</g>
<!-- Node12&#45;&gt;Node26 -->
<g id="edge30_Node000012_Node000026" class="edge">
<title>Node12&#45;&gt;Node26</title>
<g id="a_edge30_Node000012_Node000026"><a xlink:title=" ">
<path fill="none" stroke="#63b8ff" d="M365.93,-350.7C431.52,-348.69 526.83,-345.76 595.62,-343.65"/>
<polygon fill="#63b8ff" stroke="#63b8ff" points="596.11,-347.14 605.99,-343.33 595.89,-340.14 596.11,-347.14"/>
</a>
</g>
</g>
<!-- Node27 -->
<g id="Node000027" class="node">
<title>Node27</title>
<g id="a_Node000027"><a xlink:href="../../d3/d78/classTerraria_1_1Audio_1_1SoundEngine_a65b4b1502c673e839c9bd620e23b2c94.html#a65b4b1502c673e839c9bd620e23b2c94" target="_top" xlink:title=" ">
<polygon fill="white" stroke="#666666" points="566,-463 413,-463 413,-433 566,-433 566,-463"/>
<text text-anchor="start" x="421" y="-451" font-family="Helvetica,sans-Serif" font-size="10.00">Terraria.Audio.SoundEngine.</text>
<text text-anchor="middle" x="489.5" y="-440" font-family="Helvetica,sans-Serif" font-size="10.00">PlaySound</text>
</a>
</g>
</g>
<!-- Node12&#45;&gt;Node27 -->
<g id="edge32_Node000012_Node000027" class="edge">
<title>Node12&#45;&gt;Node27</title>
<g id="a_edge32_Node000012_Node000027"><a xlink:title=" ">
<path fill="none" stroke="#63b8ff" d="M307.23,-362.66C330.29,-376.17 374.06,-401.08 413,-419 420.7,-422.54 428.97,-426.03 437.11,-429.29"/>
<polygon fill="#63b8ff" stroke="#63b8ff" points="435.97,-432.6 446.56,-433 438.53,-426.09 435.97,-432.6"/>
</a>
</g>
</g>
<!-- Node13&#45;&gt;Node14 -->
<g id="edge15_Node000013_Node000014" class="edge">
<title>Node13&#45;&gt;Node14</title>
<g id="a_edge15_Node000013_Node000014"><a xlink:title=" ">
<path fill="none" stroke="#63b8ff" d="M729.93,-189.59C754.38,-194.69 784.63,-201.01 810.4,-206.39"/>
<polygon fill="#63b8ff" stroke="#63b8ff" points="809.9,-209.86 820.4,-208.48 811.33,-203.01 809.9,-209.86"/>
</a>
</g>
</g>
<!-- Node17&#45;&gt;Node2 -->
<g id="edge19_Node000017_Node000002" class="edge">
<title>Node17&#45;&gt;Node2</title>
<g id="a_edge19_Node000017_Node000002"><a xlink:title=" ">
<path fill="none" stroke="#63b8ff" d="M758.55,-378C773.32,-378 788.69,-378 803.03,-378"/>
<polygon fill="#63b8ff" stroke="#63b8ff" points="803.27,-381.5 813.27,-378 803.27,-374.5 803.27,-381.5"/>
</a>
</g>
</g>
<!-- Node21 -->
<g id="Node000021" class="node">
<title>Node21</title>
<g id="a_Node000021"><a xlink:href="../../d9/db1/classTerraria_1_1Utilities_1_1UnifiedRandom_ac4ecc6320b69ab939b9c45eaf7d89000.html#ac4ecc6320b69ab939b9c45eaf7d89000" target="_top" xlink:title=" ">
<polygon fill="white" stroke="#666666" points="749,-276 617,-276 617,-246 749,-246 749,-276"/>
<text text-anchor="start" x="625" y="-264" font-family="Helvetica,sans-Serif" font-size="10.00">Terraria.Utilities.Unified</text>
<text text-anchor="middle" x="683" y="-253" font-family="Helvetica,sans-Serif" font-size="10.00">Random.Next</text>
</a>
</g>
</g>
<!-- Node20&#45;&gt;Node21 -->
<g id="edge23_Node000020_Node000021" class="edge">
<title>Node20&#45;&gt;Node21</title>
<g id="a_edge23_Node000020_Node000021"><a xlink:title=" ">
<path fill="none" stroke="#63b8ff" d="M551.35,-281.47C568.91,-278.72 588.28,-275.68 606.61,-272.81"/>
<polygon fill="#63b8ff" stroke="#63b8ff" points="607.33,-276.24 616.67,-271.23 606.25,-269.32 607.33,-276.24"/>
</a>
</g>
</g>
<!-- Node23 -->
<g id="Node000023" class="node">
<title>Node23</title>
<g id="a_Node000023"><a xlink:href="../../de/d1d/classTerraria_1_1Collision_a1c65206ace403aa59afc32d20e5d282e.html#a1c65206ace403aa59afc32d20e5d282e" target="_top" xlink:title=" ">
<polygon fill="white" stroke="#666666" points="764,-313.5 602,-313.5 602,-294.5 764,-294.5 764,-313.5"/>
<text text-anchor="middle" x="683" y="-301.5" font-family="Helvetica,sans-Serif" font-size="10.00">Terraria.Collision.WetCollision</text>
</a>
</g>
</g>
<!-- Node20&#45;&gt;Node23 -->
<g id="edge25_Node000020_Node000023" class="edge">
<title>Node20&#45;&gt;Node23</title>
<g id="a_edge25_Node000020_Node000023"><a xlink:title=" ">
<path fill="none" stroke="#63b8ff" d="M552.67,-295.22C565.21,-296.07 578.62,-296.98 591.88,-297.88"/>
<polygon fill="#63b8ff" stroke="#63b8ff" points="591.77,-301.38 601.98,-298.57 592.24,-294.4 591.77,-301.38"/>
</a>
</g>
</g>
<!-- Node22 -->
<g id="Node000022" class="node">
<title>Node22</title>
<g id="a_Node000022"><a xlink:href="../../d9/db1/classTerraria_1_1Utilities_1_1UnifiedRandom_a173f09196ff526b107c0223c2d58c59a.html#a173f09196ff526b107c0223c2d58c59a" target="_top" xlink:title=" ">
<polygon fill="white" stroke="#666666" points="934,-276 800,-276 800,-246 934,-246 934,-276"/>
<text text-anchor="start" x="808" y="-264" font-family="Helvetica,sans-Serif" font-size="10.00">Terraria.Utilities.Unified</text>
<text text-anchor="middle" x="867" y="-253" font-family="Helvetica,sans-Serif" font-size="10.00">Random.InternalSample</text>
</a>
</g>
</g>
<!-- Node21&#45;&gt;Node22 -->
<g id="edge24_Node000021_Node000022" class="edge">
<title>Node21&#45;&gt;Node22</title>
<g id="a_edge24_Node000021_Node000022"><a xlink:title=" ">
<path fill="none" stroke="#63b8ff" d="M749.19,-261C762.28,-261 776.14,-261 789.57,-261"/>
<polygon fill="#63b8ff" stroke="#63b8ff" points="789.73,-264.5 799.73,-261 789.73,-257.5 789.73,-264.5"/>
</a>
</g>
</g>
<!-- Node23&#45;&gt;Node2 -->
<g id="edge26_Node000023_Node000002" class="edge">
<title>Node23&#45;&gt;Node2</title>
<g id="a_edge26_Node000023_Node000002"><a xlink:title=" ">
<path fill="none" stroke="#63b8ff" d="M741.88,-313.58C749.58,-316.04 757.17,-319.13 764,-323 783.95,-334.32 780.23,-348.35 800,-360 802.86,-361.69 805.89,-363.22 809.01,-364.62"/>
<polygon fill="#63b8ff" stroke="#63b8ff" points="808,-367.98 818.58,-368.39 810.57,-361.47 808,-367.98"/>
</a>
</g>
</g>
<!-- Node23&#45;&gt;Node14 -->
<g id="edge29_Node000023_Node000014" class="edge">
<title>Node23&#45;&gt;Node14</title>
<g id="a_edge29_Node000023_Node000014"><a xlink:title=" ">
<path fill="none" stroke="#63b8ff" d="M744.44,-294.49C751.34,-292.02 758.03,-288.91 764,-285 786.3,-270.38 778.05,-252.14 800,-237 802.88,-235.01 805.98,-233.23 809.19,-231.63"/>
<polygon fill="#63b8ff" stroke="#63b8ff" points="810.71,-234.78 818.5,-227.6 807.93,-228.36 810.71,-234.78"/>
</a>
</g>
</g>
<!-- Node24 -->
<g id="Node000024" class="node">
<title>Node24</title>
<g id="a_Node000024"><a xlink:href="../../d3/ddc/classTerraria_1_1Tile_abce32b6727439dc5fd177ed547a260a6.html#abce32b6727439dc5fd177ed547a260a6" target="_top" xlink:title=" ">
<polygon fill="white" stroke="#666666" points="920.5,-313.5 813.5,-313.5 813.5,-294.5 920.5,-294.5 920.5,-313.5"/>
<text text-anchor="middle" x="867" y="-301.5" font-family="Helvetica,sans-Serif" font-size="10.00">Terraria.Tile.honey</text>
</a>
</g>
</g>
<!-- Node23&#45;&gt;Node24 -->
<g id="edge27_Node000023_Node000024" class="edge">
<title>Node23&#45;&gt;Node24</title>
<g id="a_edge27_Node000023_Node000024"><a xlink:title=" ">
<path fill="none" stroke="#63b8ff" d="M764.09,-304C777.13,-304 790.47,-304 803.03,-304"/>
<polygon fill="#63b8ff" stroke="#63b8ff" points="803.36,-307.5 813.36,-304 803.36,-300.5 803.36,-307.5"/>
</a>
</g>
</g>
<!-- Node25 -->
<g id="Node000025" class="node">
<title>Node25</title>
<g id="a_Node000025"><a xlink:href="../../d3/ddc/classTerraria_1_1Tile_ac658b0c4cc04dc4d86deb55b99decfc5.html#ac658b0c4cc04dc4d86deb55b99decfc5" target="_top" xlink:title=" ">
<polygon fill="white" stroke="#666666" points="927.5,-350.5 806.5,-350.5 806.5,-331.5 927.5,-331.5 927.5,-350.5"/>
<text text-anchor="middle" x="867" y="-338.5" font-family="Helvetica,sans-Serif" font-size="10.00">Terraria.Tile.shimmer</text>
</a>
</g>
</g>
<!-- Node23&#45;&gt;Node25 -->
<g id="edge28_Node000023_Node000025" class="edge">
<title>Node23&#45;&gt;Node25</title>
<g id="a_edge28_Node000023_Node000025"><a xlink:title=" ">
<path fill="none" stroke="#63b8ff" d="M730.87,-313.53C754.66,-318.36 783.76,-324.28 808.85,-329.38"/>
<polygon fill="#63b8ff" stroke="#63b8ff" points="808.48,-332.88 818.97,-331.44 809.87,-326.02 808.48,-332.88"/>
</a>
</g>
</g>
<!-- Node26&#45;&gt;Node2 -->
<g id="edge31_Node000026_Node000002" class="edge">
<title>Node26&#45;&gt;Node2</title>
<g id="a_edge31_Node000026_Node000002"><a xlink:title=" ">
<path fill="none" stroke="#63b8ff" d="M730.87,-350.53C754.66,-355.36 783.76,-361.28 808.85,-366.38"/>
<polygon fill="#63b8ff" stroke="#63b8ff" points="808.48,-369.88 818.97,-368.44 809.87,-363.02 808.48,-369.88"/>
</a>
</g>
</g>
<!-- Node27&#45;&gt;Node27 -->
<g id="edge33_Node000027_Node000027" class="edge">
<title>Node27&#45;&gt;Node27</title>
<g id="a_edge33_Node000027_Node000027"><a xlink:title=" ">
<path fill="none" stroke="#63b8ff" d="M455.75,-463.28C448.25,-472.41 459.5,-481 489.5,-481 507.31,-481 518.51,-477.97 523.11,-473.6"/>
<polygon fill="#63b8ff" stroke="#63b8ff" points="526.61,-473.32 523.25,-463.28 519.61,-473.23 526.61,-473.32"/>
</a>
</g>
</g>
</g>
</svg>
