<?xml version="1.0" encoding="UTF-8" standalone="no"?>
<!DOCTYPE svg PUBLIC "-//W3C//DTD SVG 1.1//EN"
 "http://www.w3.org/Graphics/SVG/1.1/DTD/svg11.dtd">
<!-- Generated by graphviz version 2.43.0 (0)
 -->
<!-- Title: IPCClient.ProcessPipeBrokenEvent Pages: 1 -->
<svg width="884pt" height="39pt"
 viewBox="0.00 0.00 884.00 39.00" xmlns="http://www.w3.org/2000/svg" xmlns:xlink="http://www.w3.org/1999/xlink">
<g id="graph0" class="graph" transform="scale(1 1) rotate(0) translate(4 35)">
<title>IPCClient.ProcessPipeBrokenEvent</title>
<polygon fill="white" stroke="transparent" points="-4,4 -4,-35 880,-35 880,4 -4,4"/>
<!-- Node1 -->
<g id="node1" class="node">
<title>Node1</title>
<g id="a_node1"><a xlink:title=" ">
<polygon fill="#bfbfbf" stroke="black" points="720,-0.5 720,-30.5 876,-30.5 876,-0.5 720,-0.5"/>
<text text-anchor="start" x="728" y="-18.5" font-family="Helvetica,sans-Serif" font-size="10.00">IPCClient.ProcessPipeBroken</text>
<text text-anchor="middle" x="798" y="-7.5" font-family="Helvetica,sans-Serif" font-size="10.00">Event</text>
</a>
</g>
</g>
<!-- Node2 -->
<g id="node2" class="node">
<title>Node2</title>
<g id="a_node2"><a xlink:href="../../d0/dbc/classIPCClient_a86a03270e92c7869f22a4891ec8ebe75.html#a86a03270e92c7869f22a4891ec8ebe75" target="_top" xlink:title=" ">
<polygon fill="white" stroke="black" points="532,-0.5 532,-30.5 684,-30.5 684,-0.5 532,-0.5"/>
<text text-anchor="start" x="540" y="-18.5" font-family="Helvetica,sans-Serif" font-size="10.00">IPCClient.CheckFlagAndFire</text>
<text text-anchor="middle" x="608" y="-7.5" font-family="Helvetica,sans-Serif" font-size="10.00">Event</text>
</a>
</g>
</g>
<!-- Node1&#45;&gt;Node2 -->
<g id="edge1" class="edge">
<title>Node1&#45;&gt;Node2</title>
<path fill="none" stroke="midnightblue" d="M709.91,-15.5C701.28,-15.5 692.56,-15.5 684.07,-15.5"/>
<polygon fill="midnightblue" stroke="midnightblue" points="709.99,-19 719.99,-15.5 709.99,-12 709.99,-19"/>
</g>
<!-- Node3 -->
<g id="node3" class="node">
<title>Node3</title>
<g id="a_node3"><a xlink:href="../../d0/dbc/classIPCClient_a8c22f7f8596cfb12920d1b721a9b8808.html#a8c22f7f8596cfb12920d1b721a9b8808" target="_top" xlink:title=" ">
<polygon fill="white" stroke="black" points="412,-6 412,-25 496,-25 496,-6 412,-6"/>
<text text-anchor="middle" x="454" y="-13" font-family="Helvetica,sans-Serif" font-size="10.00">IPCClient.Tick</text>
</a>
</g>
</g>
<!-- Node2&#45;&gt;Node3 -->
<g id="edge2" class="edge">
<title>Node2&#45;&gt;Node3</title>
<path fill="none" stroke="midnightblue" d="M521.85,-15.5C512.99,-15.5 504.31,-15.5 496.28,-15.5"/>
<polygon fill="midnightblue" stroke="midnightblue" points="521.89,-19 531.89,-15.5 521.89,-12 521.89,-19"/>
</g>
<!-- Node4 -->
<g id="node4" class="node">
<title>Node4</title>
<g id="a_node4"><a xlink:href="../../dc/d98/classMessageDispatcherClient_aa52332e95a91a0f16cf0b32d2e43ab4d.html#aa52332e95a91a0f16cf0b32d2e43ab4d" target="_top" xlink:title=" ">
<polygon fill="white" stroke="black" points="212,-6 212,-25 376,-25 376,-6 212,-6"/>
<text text-anchor="middle" x="294" y="-13" font-family="Helvetica,sans-Serif" font-size="10.00">MessageDispatcherClient.Tick</text>
</a>
</g>
</g>
<!-- Node3&#45;&gt;Node4 -->
<g id="edge3" class="edge">
<title>Node3&#45;&gt;Node4</title>
<path fill="none" stroke="midnightblue" d="M401.73,-15.5C393.49,-15.5 384.78,-15.5 376.04,-15.5"/>
<polygon fill="midnightblue" stroke="midnightblue" points="401.9,-19 411.9,-15.5 401.9,-12 401.9,-19"/>
</g>
<!-- Node5 -->
<g id="node5" class="node">
<title>Node5</title>
<g id="a_node5"><a xlink:href="../../d4/d0c/classNetServerSocialModule_ae586600f8898aae2fa1b19e76fc16e25.html#ae586600f8898aae2fa1b19e76fc16e25" target="_top" xlink:title=" ">
<polygon fill="white" stroke="black" points="0,-6 0,-25 176,-25 176,-6 0,-6"/>
<text text-anchor="middle" x="88" y="-13" font-family="Helvetica,sans-Serif" font-size="10.00">NetServerSocialModule.Initialize</text>
</a>
</g>
</g>
<!-- Node4&#45;&gt;Node5 -->
<g id="edge4" class="edge">
<title>Node4&#45;&gt;Node5</title>
<path fill="none" stroke="midnightblue" d="M201.59,-15.5C193.18,-15.5 184.67,-15.5 176.3,-15.5"/>
<polygon fill="midnightblue" stroke="midnightblue" points="201.79,-19 211.79,-15.5 201.79,-12 201.79,-19"/>
</g>
</g>
</svg>
