<?xml version="1.0" encoding="UTF-8" standalone="no"?>
<!DOCTYPE svg PUBLIC "-//W3C//DTD SVG 1.1//EN"
 "http://www.w3.org/Graphics/SVG/1.1/DTD/svg11.dtd">
<!-- Generated by graphviz version 2.43.0 (0)
 -->
<!-- Title: ItemDropRule.MasterModeCommonDrop Pages: 1 -->
<svg width="1726pt" height="1148pt"
 viewBox="0.00 0.00 1726.00 1147.57" xmlns="http://www.w3.org/2000/svg" xmlns:xlink="http://www.w3.org/1999/xlink">
<g id="graph0" class="graph" transform="scale(1 1) rotate(0) translate(4 1143.57)">
<title>ItemDropRule.MasterModeCommonDrop</title>
<polygon fill="white" stroke="transparent" points="-4,4 -4,-1143.57 1722,-1143.57 1722,4 -4,4"/>
<!-- Node1 -->
<g id="node1" class="node">
<title>Node1</title>
<g id="a_node1"><a xlink:title=" ">
<polygon fill="#bfbfbf" stroke="black" points="1503,-550.57 1503,-569.57 1718,-569.57 1718,-550.57 1503,-550.57"/>
<text text-anchor="middle" x="1610.5" y="-557.57" font-family="Helvetica,sans-Serif" font-size="10.00">ItemDropRule.MasterModeCommonDrop</text>
</a>
</g>
</g>
<!-- Node2 -->
<g id="node2" class="node">
<title>Node2</title>
<g id="a_node2"><a xlink:href="../../d8/d1d/classItemDropDatabase_ac3506ddaf2b279aa66051c3ce2013f2f.html#ac3506ddaf2b279aa66051c3ce2013f2f" target="_top" xlink:title=" ">
<polygon fill="white" stroke="black" points="1315,-1109.07 1315,-1139.07 1467,-1139.07 1467,-1109.07 1315,-1109.07"/>
<text text-anchor="start" x="1323" y="-1127.07" font-family="Helvetica,sans-Serif" font-size="10.00">ItemDropDatabase.Register</text>
<text text-anchor="middle" x="1391" y="-1116.07" font-family="Helvetica,sans-Serif" font-size="10.00">Boss_AncientCultist</text>
</a>
</g>
</g>
<!-- Node1&#45;&gt;Node2 -->
<g id="edge1" class="edge">
<title>Node1&#45;&gt;Node2</title>
<path fill="none" stroke="midnightblue" d="M1606.83,-579.94C1594.65,-667.91 1541.68,-1021.43 1467,-1100.07 1463.71,-1103.54 1459.91,-1106.51 1455.81,-1109.05"/>
<polygon fill="midnightblue" stroke="midnightblue" points="1610.31,-580.33 1608.2,-569.95 1603.38,-579.39 1610.31,-580.33"/>
</g>
<!-- Node14 -->
<g id="node14" class="node">
<title>Node14</title>
<g id="a_node14"><a xlink:href="../../d8/d1d/classItemDropDatabase_ae8a9763660aa10366758abbb20584d44.html#ae8a9763660aa10366758abbb20584d44" target="_top" xlink:title=" ">
<polygon fill="white" stroke="black" points="1315,-1060.07 1315,-1090.07 1467,-1090.07 1467,-1060.07 1315,-1060.07"/>
<text text-anchor="start" x="1323" y="-1078.07" font-family="Helvetica,sans-Serif" font-size="10.00">ItemDropDatabase.Register</text>
<text text-anchor="middle" x="1391" y="-1067.07" font-family="Helvetica,sans-Serif" font-size="10.00">Boss_Betsy</text>
</a>
</g>
</g>
<!-- Node1&#45;&gt;Node14 -->
<g id="edge14" class="edge">
<title>Node1&#45;&gt;Node14</title>
<path fill="none" stroke="midnightblue" d="M1609.93,-579.83C1610.42,-653.09 1602.15,-912.19 1467,-1051.07 1463.66,-1054.5 1459.84,-1057.44 1455.72,-1059.96"/>
<polygon fill="midnightblue" stroke="midnightblue" points="1613.43,-579.66 1609.79,-569.71 1606.43,-579.76 1613.43,-579.66"/>
</g>
<!-- Node15 -->
<g id="node15" class="node">
<title>Node15</title>
<g id="a_node15"><a xlink:href="../../d8/d1d/classItemDropDatabase_a3aeee37a56b30a7ec0fafda38e7c280b.html#a3aeee37a56b30a7ec0fafda38e7c280b" target="_top" xlink:title=" ">
<polygon fill="white" stroke="black" points="1315,-1011.07 1315,-1041.07 1467,-1041.07 1467,-1011.07 1315,-1011.07"/>
<text text-anchor="start" x="1323" y="-1029.07" font-family="Helvetica,sans-Serif" font-size="10.00">ItemDropDatabase.Register</text>
<text text-anchor="middle" x="1391" y="-1018.07" font-family="Helvetica,sans-Serif" font-size="10.00">Boss_BOC</text>
</a>
</g>
</g>
<!-- Node1&#45;&gt;Node15 -->
<g id="edge16" class="edge">
<title>Node1&#45;&gt;Node15</title>
<path fill="none" stroke="midnightblue" d="M1609.18,-580.06C1606.97,-648.96 1590.28,-879.06 1467,-1002.07 1463.52,-1005.55 1459.53,-1008.52 1455.25,-1011.06"/>
<polygon fill="midnightblue" stroke="midnightblue" points="1612.69,-579.86 1609.43,-569.77 1605.69,-579.68 1612.69,-579.86"/>
</g>
<!-- Node16 -->
<g id="node16" class="node">
<title>Node16</title>
<g id="a_node16"><a xlink:href="../../d8/d1d/classItemDropDatabase_a2fc1538656c55a79a4de7d4db77d8d0f.html#a2fc1538656c55a79a4de7d4db77d8d0f" target="_top" xlink:title=" ">
<polygon fill="white" stroke="black" points="1315,-962.07 1315,-992.07 1467,-992.07 1467,-962.07 1315,-962.07"/>
<text text-anchor="start" x="1323" y="-980.07" font-family="Helvetica,sans-Serif" font-size="10.00">ItemDropDatabase.Register</text>
<text text-anchor="middle" x="1391" y="-969.07" font-family="Helvetica,sans-Serif" font-size="10.00">Boss_Deerclops</text>
</a>
</g>
</g>
<!-- Node1&#45;&gt;Node16 -->
<g id="edge18" class="edge">
<title>Node1&#45;&gt;Node16</title>
<path fill="none" stroke="midnightblue" d="M1608.27,-579.91C1603.23,-643.67 1578.74,-845.52 1467,-953.07 1463.45,-956.49 1459.42,-959.41 1455.11,-961.92"/>
<polygon fill="midnightblue" stroke="midnightblue" points="1611.78,-579.88 1609,-569.66 1604.79,-579.39 1611.78,-579.88"/>
</g>
<!-- Node17 -->
<g id="node17" class="node">
<title>Node17</title>
<g id="a_node17"><a xlink:href="../../d8/d1d/classItemDropDatabase_a50edb150d3e1ee367731f77a36379a08.html#a50edb150d3e1ee367731f77a36379a08" target="_top" xlink:title=" ">
<polygon fill="white" stroke="black" points="1315,-913.07 1315,-943.07 1467,-943.07 1467,-913.07 1315,-913.07"/>
<text text-anchor="start" x="1323" y="-931.07" font-family="Helvetica,sans-Serif" font-size="10.00">ItemDropDatabase.Register</text>
<text text-anchor="middle" x="1391" y="-920.07" font-family="Helvetica,sans-Serif" font-size="10.00">Boss_DukeFishron</text>
</a>
</g>
</g>
<!-- Node1&#45;&gt;Node17 -->
<g id="edge20" class="edge">
<title>Node1&#45;&gt;Node17</title>
<path fill="none" stroke="midnightblue" d="M1607.14,-579.71C1599.07,-638.01 1567.34,-811.74 1467,-904.07 1463.28,-907.5 1459.06,-910.43 1454.58,-912.95"/>
<polygon fill="midnightblue" stroke="midnightblue" points="1610.62,-580.02 1608.45,-569.65 1603.68,-579.12 1610.62,-580.02"/>
</g>
<!-- Node18 -->
<g id="node18" class="node">
<title>Node18</title>
<g id="a_node18"><a xlink:href="../../d8/d1d/classItemDropDatabase_ae9669cf116c2087f1302242ee54a4bce.html#ae9669cf116c2087f1302242ee54a4bce" target="_top" xlink:title=" ">
<polygon fill="white" stroke="black" points="1315,-864.07 1315,-894.07 1467,-894.07 1467,-864.07 1315,-864.07"/>
<text text-anchor="start" x="1323" y="-882.07" font-family="Helvetica,sans-Serif" font-size="10.00">ItemDropDatabase.Register</text>
<text text-anchor="middle" x="1391" y="-871.07" font-family="Helvetica,sans-Serif" font-size="10.00">Boss_EOC</text>
</a>
</g>
</g>
<!-- Node1&#45;&gt;Node18 -->
<g id="edge22" class="edge">
<title>Node1&#45;&gt;Node18</title>
<path fill="none" stroke="midnightblue" d="M1605.65,-579.65C1594.3,-632.23 1556.01,-777.75 1467,-855.07 1463.08,-858.48 1458.67,-861.4 1454,-863.91"/>
<polygon fill="midnightblue" stroke="midnightblue" points="1609.13,-580.14 1607.73,-569.64 1602.27,-578.72 1609.13,-580.14"/>
</g>
<!-- Node19 -->
<g id="node19" class="node">
<title>Node19</title>
<g id="a_node19"><a xlink:href="../../d8/d1d/classItemDropDatabase_a4b9dfdc345e9092609a9a6bd12afe58a.html#a4b9dfdc345e9092609a9a6bd12afe58a" target="_top" xlink:title=" ">
<polygon fill="white" stroke="black" points="1315,-815.07 1315,-845.07 1467,-845.07 1467,-815.07 1315,-815.07"/>
<text text-anchor="start" x="1323" y="-833.07" font-family="Helvetica,sans-Serif" font-size="10.00">ItemDropDatabase.Register</text>
<text text-anchor="middle" x="1391" y="-822.07" font-family="Helvetica,sans-Serif" font-size="10.00">Boss_EOW</text>
</a>
</g>
</g>
<!-- Node1&#45;&gt;Node19 -->
<g id="edge24" class="edge">
<title>Node1&#45;&gt;Node19</title>
<path fill="none" stroke="midnightblue" d="M1603.69,-579.43C1588.81,-625.67 1544.95,-743.33 1467,-806.07 1462.74,-809.5 1457.98,-812.44 1452.98,-814.97"/>
<polygon fill="midnightblue" stroke="midnightblue" points="1607.07,-580.34 1606.71,-569.76 1600.39,-578.26 1607.07,-580.34"/>
</g>
<!-- Node20 -->
<g id="node20" class="node">
<title>Node20</title>
<g id="a_node20"><a xlink:href="../../d8/d1d/classItemDropDatabase_a1324500462fe218a6b987786aae0ea7e.html#a1324500462fe218a6b987786aae0ea7e" target="_top" xlink:title=" ">
<polygon fill="white" stroke="black" points="1315,-766.07 1315,-796.07 1467,-796.07 1467,-766.07 1315,-766.07"/>
<text text-anchor="start" x="1323" y="-784.07" font-family="Helvetica,sans-Serif" font-size="10.00">ItemDropDatabase.Register</text>
<text text-anchor="middle" x="1391" y="-773.07" font-family="Helvetica,sans-Serif" font-size="10.00">Boss_FrostMoon</text>
</a>
</g>
</g>
<!-- Node1&#45;&gt;Node20 -->
<g id="edge26" class="edge">
<title>Node1&#45;&gt;Node20</title>
<path fill="none" stroke="midnightblue" d="M1600.85,-579.2C1582.15,-618.43 1534.14,-708.41 1467,-757.07 1462.24,-760.52 1456.96,-763.49 1451.48,-766.04"/>
<polygon fill="midnightblue" stroke="midnightblue" points="1604.11,-580.5 1605.16,-569.96 1597.76,-577.55 1604.11,-580.5"/>
</g>
<!-- Node21 -->
<g id="node21" class="node">
<title>Node21</title>
<g id="a_node21"><a xlink:href="../../d8/d1d/classItemDropDatabase_aff9f4a8e5fb8927ff74ca00694fcbfa4.html#aff9f4a8e5fb8927ff74ca00694fcbfa4" target="_top" xlink:title=" ">
<polygon fill="white" stroke="black" points="1315,-717.07 1315,-747.07 1467,-747.07 1467,-717.07 1315,-717.07"/>
<text text-anchor="start" x="1323" y="-735.07" font-family="Helvetica,sans-Serif" font-size="10.00">ItemDropDatabase.Register</text>
<text text-anchor="middle" x="1391" y="-724.07" font-family="Helvetica,sans-Serif" font-size="10.00">Boss_Golem</text>
</a>
</g>
</g>
<!-- Node1&#45;&gt;Node21 -->
<g id="edge28" class="edge">
<title>Node1&#45;&gt;Node21</title>
<path fill="none" stroke="midnightblue" d="M1596.91,-578.1C1574.36,-609.09 1524.07,-672.53 1467,-708.07 1461.55,-711.47 1455.57,-714.43 1449.44,-716.99"/>
<polygon fill="midnightblue" stroke="midnightblue" points="1600.02,-579.76 1602.99,-569.59 1594.33,-575.69 1600.02,-579.76"/>
</g>
<!-- Node22 -->
<g id="node22" class="node">
<title>Node22</title>
<g id="a_node22"><a xlink:href="../../d8/d1d/classItemDropDatabase_aaea78b96f303e5d55dc62fd16b4f7f47.html#aaea78b96f303e5d55dc62fd16b4f7f47" target="_top" xlink:title=" ">
<polygon fill="white" stroke="black" points="1315,-668.07 1315,-698.07 1467,-698.07 1467,-668.07 1315,-668.07"/>
<text text-anchor="start" x="1323" y="-686.07" font-family="Helvetica,sans-Serif" font-size="10.00">ItemDropDatabase.Register</text>
<text text-anchor="middle" x="1391" y="-675.07" font-family="Helvetica,sans-Serif" font-size="10.00">Boss_HallowBoss</text>
</a>
</g>
</g>
<!-- Node1&#45;&gt;Node22 -->
<g id="edge30" class="edge">
<title>Node1&#45;&gt;Node22</title>
<path fill="none" stroke="midnightblue" d="M1590.02,-576.46C1563.62,-597.96 1514.33,-635.72 1467,-659.07 1460.38,-662.34 1453.22,-665.3 1446.03,-667.93"/>
<polygon fill="midnightblue" stroke="midnightblue" points="1592.57,-578.89 1598.06,-569.83 1588.11,-573.49 1592.57,-578.89"/>
</g>
<!-- Node23 -->
<g id="node23" class="node">
<title>Node23</title>
<g id="a_node23"><a xlink:href="../../d8/d1d/classItemDropDatabase_a0190ec75d29f553f29e838f4dd88ba9f.html#a0190ec75d29f553f29e838f4dd88ba9f" target="_top" xlink:title=" ">
<polygon fill="white" stroke="black" points="1315,-619.07 1315,-649.07 1467,-649.07 1467,-619.07 1315,-619.07"/>
<text text-anchor="start" x="1323" y="-637.07" font-family="Helvetica,sans-Serif" font-size="10.00">ItemDropDatabase.Register</text>
<text text-anchor="middle" x="1391" y="-626.07" font-family="Helvetica,sans-Serif" font-size="10.00">Boss_KingSlime</text>
</a>
</g>
</g>
<!-- Node1&#45;&gt;Node23 -->
<g id="edge32" class="edge">
<title>Node1&#45;&gt;Node23</title>
<path fill="none" stroke="midnightblue" d="M1573.43,-573.04C1544.68,-583.3 1503.36,-597.88 1467,-610.07 1458.19,-613.03 1448.76,-616.11 1439.68,-619.04"/>
<polygon fill="midnightblue" stroke="midnightblue" points="1574.81,-576.26 1583.05,-569.6 1572.46,-569.67 1574.81,-576.26"/>
</g>
<!-- Node24 -->
<g id="node24" class="node">
<title>Node24</title>
<g id="a_node24"><a xlink:href="../../d8/d1d/classItemDropDatabase_af0fa2474811a8ffdf01c3a3db526ee51.html#af0fa2474811a8ffdf01c3a3db526ee51" target="_top" xlink:title=" ">
<polygon fill="white" stroke="black" points="1315,-570.07 1315,-600.07 1467,-600.07 1467,-570.07 1315,-570.07"/>
<text text-anchor="start" x="1323" y="-588.07" font-family="Helvetica,sans-Serif" font-size="10.00">ItemDropDatabase.Register</text>
<text text-anchor="middle" x="1391" y="-577.07" font-family="Helvetica,sans-Serif" font-size="10.00">Boss_MoonLord</text>
</a>
</g>
</g>
<!-- Node1&#45;&gt;Node24 -->
<g id="edge34" class="edge">
<title>Node1&#45;&gt;Node24</title>
<path fill="none" stroke="midnightblue" d="M1516.47,-570.77C1499.99,-572.66 1483.03,-574.61 1467.12,-576.44"/>
<polygon fill="midnightblue" stroke="midnightblue" points="1517.12,-574.21 1526.65,-569.6 1516.32,-567.26 1517.12,-574.21"/>
</g>
<!-- Node25 -->
<g id="node25" class="node">
<title>Node25</title>
<g id="a_node25"><a xlink:href="../../d8/d1d/classItemDropDatabase_a7f5391c9d7d50c102336a066031d2688.html#a7f5391c9d7d50c102336a066031d2688" target="_top" xlink:title=" ">
<polygon fill="white" stroke="black" points="1315,-521.07 1315,-551.07 1467,-551.07 1467,-521.07 1315,-521.07"/>
<text text-anchor="start" x="1323" y="-539.07" font-family="Helvetica,sans-Serif" font-size="10.00">ItemDropDatabase.Register</text>
<text text-anchor="middle" x="1391" y="-528.07" font-family="Helvetica,sans-Serif" font-size="10.00">Boss_Plantera</text>
</a>
</g>
</g>
<!-- Node1&#45;&gt;Node25 -->
<g id="edge36" class="edge">
<title>Node1&#45;&gt;Node25</title>
<path fill="none" stroke="midnightblue" d="M1513.18,-549.44C1497.79,-547.75 1482.07,-546.01 1467.27,-544.38"/>
<polygon fill="midnightblue" stroke="midnightblue" points="1512.9,-552.93 1523.23,-550.55 1513.67,-545.98 1512.9,-552.93"/>
</g>
<!-- Node26 -->
<g id="node26" class="node">
<title>Node26</title>
<g id="a_node26"><a xlink:href="../../d8/d1d/classItemDropDatabase_adc7c88b541bf64583c05cc69e06eba44.html#adc7c88b541bf64583c05cc69e06eba44" target="_top" xlink:title=" ">
<polygon fill="white" stroke="black" points="1315,-472.07 1315,-502.07 1467,-502.07 1467,-472.07 1315,-472.07"/>
<text text-anchor="start" x="1323" y="-490.07" font-family="Helvetica,sans-Serif" font-size="10.00">ItemDropDatabase.Register</text>
<text text-anchor="middle" x="1391" y="-479.07" font-family="Helvetica,sans-Serif" font-size="10.00">Boss_PumpkinMoon</text>
</a>
</g>
</g>
<!-- Node1&#45;&gt;Node26 -->
<g id="edge38" class="edge">
<title>Node1&#45;&gt;Node26</title>
<path fill="none" stroke="midnightblue" d="M1571.48,-547.23C1542.78,-537.54 1502.43,-523.94 1467,-512.07 1457.37,-508.85 1447.04,-505.4 1437.22,-502.12"/>
<polygon fill="midnightblue" stroke="midnightblue" points="1570.53,-550.6 1581.12,-550.48 1572.76,-543.97 1570.53,-550.6"/>
</g>
<!-- Node27 -->
<g id="node27" class="node">
<title>Node27</title>
<g id="a_node27"><a xlink:href="../../d8/d1d/classItemDropDatabase_abd465a1b47a8085f278b2cdd6c0b1077.html#abd465a1b47a8085f278b2cdd6c0b1077" target="_top" xlink:title=" ">
<polygon fill="white" stroke="black" points="1315,-423.07 1315,-453.07 1467,-453.07 1467,-423.07 1315,-423.07"/>
<text text-anchor="start" x="1323" y="-441.07" font-family="Helvetica,sans-Serif" font-size="10.00">ItemDropDatabase.Register</text>
<text text-anchor="middle" x="1391" y="-430.07" font-family="Helvetica,sans-Serif" font-size="10.00">Boss_QueenBee</text>
</a>
</g>
</g>
<!-- Node1&#45;&gt;Node27 -->
<g id="edge40" class="edge">
<title>Node1&#45;&gt;Node27</title>
<path fill="none" stroke="midnightblue" d="M1589.51,-543.81C1562.9,-522.81 1513.75,-486.22 1467,-463.07 1459.62,-459.42 1451.58,-456.1 1443.59,-453.17"/>
<polygon fill="midnightblue" stroke="midnightblue" points="1587.63,-546.79 1597.63,-550.29 1592,-541.32 1587.63,-546.79"/>
</g>
<!-- Node28 -->
<g id="node28" class="node">
<title>Node28</title>
<g id="a_node28"><a xlink:href="../../d8/d1d/classItemDropDatabase_a40b1b68f388c97b6725705c2c2c3a198.html#a40b1b68f388c97b6725705c2c2c3a198" target="_top" xlink:title=" ">
<polygon fill="white" stroke="black" points="1315,-374.07 1315,-404.07 1467,-404.07 1467,-374.07 1315,-374.07"/>
<text text-anchor="start" x="1323" y="-392.07" font-family="Helvetica,sans-Serif" font-size="10.00">ItemDropDatabase.Register</text>
<text text-anchor="middle" x="1391" y="-381.07" font-family="Helvetica,sans-Serif" font-size="10.00">Boss_QueenSlime</text>
</a>
</g>
</g>
<!-- Node1&#45;&gt;Node28 -->
<g id="edge42" class="edge">
<title>Node1&#45;&gt;Node28</title>
<path fill="none" stroke="midnightblue" d="M1596.47,-541.93C1573.61,-511.32 1523.31,-449.35 1467,-414.07 1460.95,-410.28 1454.27,-407 1447.45,-404.18"/>
<polygon fill="midnightblue" stroke="midnightblue" points="1593.92,-544.36 1602.67,-550.35 1599.57,-540.22 1593.92,-544.36"/>
</g>
<!-- Node29 -->
<g id="node29" class="node">
<title>Node29</title>
<g id="a_node29"><a xlink:href="../../d8/d1d/classItemDropDatabase_a9549f31fae3fa0b28bb6a9865878d3fb.html#a9549f31fae3fa0b28bb6a9865878d3fb" target="_top" xlink:title=" ">
<polygon fill="white" stroke="black" points="1315,-325.07 1315,-355.07 1467,-355.07 1467,-325.07 1315,-325.07"/>
<text text-anchor="start" x="1323" y="-343.07" font-family="Helvetica,sans-Serif" font-size="10.00">ItemDropDatabase.Register</text>
<text text-anchor="middle" x="1391" y="-332.07" font-family="Helvetica,sans-Serif" font-size="10.00">Boss_Skeletron</text>
</a>
</g>
</g>
<!-- Node1&#45;&gt;Node29 -->
<g id="edge44" class="edge">
<title>Node1&#45;&gt;Node29</title>
<path fill="none" stroke="midnightblue" d="M1600.75,-541.21C1581.86,-502.5 1533.52,-413.65 1467,-365.07 1461.79,-361.27 1455.97,-358.02 1449.93,-355.25"/>
<polygon fill="midnightblue" stroke="midnightblue" points="1597.64,-542.81 1605.1,-550.32 1603.95,-539.79 1597.64,-542.81"/>
</g>
<!-- Node30 -->
<g id="node30" class="node">
<title>Node30</title>
<g id="a_node30"><a xlink:href="../../d8/d1d/classItemDropDatabase_a35c65729e59f899ac80069e4574b2066.html#a35c65729e59f899ac80069e4574b2066" target="_top" xlink:title=" ">
<polygon fill="white" stroke="black" points="1315,-276.07 1315,-306.07 1467,-306.07 1467,-276.07 1315,-276.07"/>
<text text-anchor="start" x="1323" y="-294.07" font-family="Helvetica,sans-Serif" font-size="10.00">ItemDropDatabase.Register</text>
<text text-anchor="middle" x="1391" y="-283.07" font-family="Helvetica,sans-Serif" font-size="10.00">Boss_SkeletronPrime</text>
</a>
</g>
</g>
<!-- Node1&#45;&gt;Node30 -->
<g id="edge46" class="edge">
<title>Node1&#45;&gt;Node30</title>
<path fill="none" stroke="midnightblue" d="M1603.59,-540.93C1588.5,-495.2 1544.21,-378.76 1467,-316.07 1462.21,-312.18 1456.78,-308.88 1451.09,-306.09"/>
<polygon fill="midnightblue" stroke="midnightblue" points="1600.27,-542.04 1606.66,-550.5 1606.94,-539.91 1600.27,-542.04"/>
</g>
<!-- Node31 -->
<g id="node31" class="node">
<title>Node31</title>
<g id="a_node31"><a xlink:href="../../d8/d1d/classItemDropDatabase_a7d8c1e1cc0ed9dc92bc21886695807a5.html#a7d8c1e1cc0ed9dc92bc21886695807a5" target="_top" xlink:title=" ">
<polygon fill="white" stroke="black" points="1315,-227.07 1315,-257.07 1467,-257.07 1467,-227.07 1315,-227.07"/>
<text text-anchor="start" x="1323" y="-245.07" font-family="Helvetica,sans-Serif" font-size="10.00">ItemDropDatabase.Register</text>
<text text-anchor="middle" x="1391" y="-234.07" font-family="Helvetica,sans-Serif" font-size="10.00">Boss_TheDestroyer</text>
</a>
</g>
</g>
<!-- Node1&#45;&gt;Node31 -->
<g id="edge48" class="edge">
<title>Node1&#45;&gt;Node31</title>
<path fill="none" stroke="midnightblue" d="M1605.48,-540.33C1593.8,-487.95 1554.96,-344.21 1467,-267.07 1462.56,-263.18 1457.5,-259.89 1452.15,-257.11"/>
<polygon fill="midnightblue" stroke="midnightblue" points="1602.11,-541.28 1607.62,-550.32 1608.95,-539.81 1602.11,-541.28"/>
</g>
<!-- Node32 -->
<g id="node32" class="node">
<title>Node32</title>
<g id="a_node32"><a xlink:href="../../d8/d1d/classItemDropDatabase_afb7c97431e03f49a19ae7744192334ec.html#afb7c97431e03f49a19ae7744192334ec" target="_top" xlink:title=" ">
<polygon fill="white" stroke="black" points="1315,-178.07 1315,-208.07 1467,-208.07 1467,-178.07 1315,-178.07"/>
<text text-anchor="start" x="1323" y="-196.07" font-family="Helvetica,sans-Serif" font-size="10.00">ItemDropDatabase.Register</text>
<text text-anchor="middle" x="1391" y="-185.07" font-family="Helvetica,sans-Serif" font-size="10.00">Boss_Twins</text>
</a>
</g>
</g>
<!-- Node1&#45;&gt;Node32 -->
<g id="edge50" class="edge">
<title>Node1&#45;&gt;Node32</title>
<path fill="none" stroke="midnightblue" d="M1606.99,-540.21C1598.59,-482.02 1566.16,-310.24 1467,-218.07 1462.88,-214.24 1458.15,-211 1453.12,-208.25"/>
<polygon fill="midnightblue" stroke="midnightblue" points="1603.54,-540.84 1608.36,-550.28 1610.48,-539.9 1603.54,-540.84"/>
</g>
<!-- Node33 -->
<g id="node33" class="node">
<title>Node33</title>
<g id="a_node33"><a xlink:href="../../d8/d1d/classItemDropDatabase_a44d488bda02482ece79b0872e0edfb85.html#a44d488bda02482ece79b0872e0edfb85" target="_top" xlink:title=" ">
<polygon fill="white" stroke="black" points="1315,-129.07 1315,-159.07 1467,-159.07 1467,-129.07 1315,-129.07"/>
<text text-anchor="start" x="1323" y="-147.07" font-family="Helvetica,sans-Serif" font-size="10.00">ItemDropDatabase.Register</text>
<text text-anchor="middle" x="1391" y="-136.07" font-family="Helvetica,sans-Serif" font-size="10.00">Boss_WOF</text>
</a>
</g>
</g>
<!-- Node1&#45;&gt;Node33 -->
<g id="edge52" class="edge">
<title>Node1&#45;&gt;Node33</title>
<path fill="none" stroke="midnightblue" d="M1608.18,-540.39C1602.87,-477.11 1577.68,-276.72 1467,-169.07 1463.06,-165.24 1458.53,-162 1453.67,-159.26"/>
<polygon fill="midnightblue" stroke="midnightblue" points="1604.7,-540.85 1608.95,-550.56 1611.68,-540.32 1604.7,-540.85"/>
</g>
<!-- Node34 -->
<g id="node34" class="node">
<title>Node34</title>
<g id="a_node34"><a xlink:href="../../d8/d1d/classItemDropDatabase_ae68cdc1c8e83107ee73c3151659971c7.html#ae68cdc1c8e83107ee73c3151659971c7" target="_top" xlink:title=" ">
<polygon fill="white" stroke="black" points="1127,-99.07 1127,-129.07 1279,-129.07 1279,-99.07 1127,-99.07"/>
<text text-anchor="start" x="1135" y="-117.07" font-family="Helvetica,sans-Serif" font-size="10.00">ItemDropDatabase.Register</text>
<text text-anchor="middle" x="1203" y="-106.07" font-family="Helvetica,sans-Serif" font-size="10.00">DD2EventDrops</text>
</a>
</g>
</g>
<!-- Node1&#45;&gt;Node34 -->
<g id="edge54" class="edge">
<title>Node1&#45;&gt;Node34</title>
<path fill="none" stroke="midnightblue" d="M1606.18,-540.19C1592.55,-461.3 1538.27,-171.99 1467,-119.07 1405.67,-73.54 1312.22,-85.37 1254.8,-99.04"/>
<polygon fill="midnightblue" stroke="midnightblue" points="1602.76,-540.98 1607.89,-550.25 1609.66,-539.81 1602.76,-540.98"/>
</g>
<!-- Node35 -->
<g id="node35" class="node">
<title>Node35</title>
<g id="a_node35"><a xlink:href="../../d8/d1d/classItemDropDatabase_afad10f24aa62a07ba6589501d6d18da1.html#afad10f24aa62a07ba6589501d6d18da1" target="_top" xlink:title=" ">
<polygon fill="white" stroke="black" points="1127,-50.07 1127,-80.07 1279,-80.07 1279,-50.07 1127,-50.07"/>
<text text-anchor="start" x="1135" y="-68.07" font-family="Helvetica,sans-Serif" font-size="10.00">ItemDropDatabase.Register</text>
<text text-anchor="middle" x="1203" y="-57.07" font-family="Helvetica,sans-Serif" font-size="10.00">MartianDrops</text>
</a>
</g>
</g>
<!-- Node1&#45;&gt;Node35 -->
<g id="edge56" class="edge">
<title>Node1&#45;&gt;Node35</title>
<path fill="none" stroke="midnightblue" d="M1606.6,-540.3C1594.09,-457.85 1541.95,-142.99 1467,-83.07 1412.66,-39.63 1330.13,-41.43 1272.05,-50.06"/>
<polygon fill="midnightblue" stroke="midnightblue" points="1603.16,-540.96 1608.1,-550.34 1610.09,-539.93 1603.16,-540.96"/>
</g>
<!-- Node36 -->
<g id="node36" class="node">
<title>Node36</title>
<g id="a_node36"><a xlink:href="../../d8/d1d/classItemDropDatabase_ae33d6e48fb3f027edb914ea15de960ae.html#ae33d6e48fb3f027edb914ea15de960ae" target="_top" xlink:title=" ">
<polygon fill="white" stroke="black" points="1127,-1.07 1127,-31.07 1279,-31.07 1279,-1.07 1127,-1.07"/>
<text text-anchor="start" x="1135" y="-19.07" font-family="Helvetica,sans-Serif" font-size="10.00">ItemDropDatabase.Register</text>
<text text-anchor="middle" x="1203" y="-8.07" font-family="Helvetica,sans-Serif" font-size="10.00">PirateDrops</text>
</a>
</g>
</g>
<!-- Node1&#45;&gt;Node36 -->
<g id="edge58" class="edge">
<title>Node1&#45;&gt;Node36</title>
<path fill="none" stroke="midnightblue" d="M1607.04,-540.36C1595.83,-453.85 1546.68,-109.24 1467,-42.07 1415.7,1.18 1337.18,3.5 1279.28,-2.46"/>
<polygon fill="midnightblue" stroke="midnightblue" points="1603.58,-540.92 1608.32,-550.4 1610.53,-540.04 1603.58,-540.92"/>
</g>
<!-- Node3 -->
<g id="node3" class="node">
<title>Node3</title>
<g id="a_node3"><a xlink:href="../../d8/d1d/classItemDropDatabase_af685970807adfe43582cad63d28ba474.html#af685970807adfe43582cad63d28ba474" target="_top" xlink:title=" ">
<polygon fill="white" stroke="black" points="1127,-594.07 1127,-624.07 1279,-624.07 1279,-594.07 1127,-594.07"/>
<text text-anchor="start" x="1135" y="-612.07" font-family="Helvetica,sans-Serif" font-size="10.00">ItemDropDatabase.Register</text>
<text text-anchor="middle" x="1203" y="-601.07" font-family="Helvetica,sans-Serif" font-size="10.00">Bosses</text>
</a>
</g>
</g>
<!-- Node2&#45;&gt;Node3 -->
<g id="edge2" class="edge">
<title>Node2&#45;&gt;Node3</title>
<path fill="none" stroke="midnightblue" d="M1317.76,-1102.85C1316.8,-1101.96 1315.88,-1101.04 1315,-1100.07 1248.14,-1027.1 1212.7,-698.89 1205.42,-624.22"/>
<polygon fill="midnightblue" stroke="midnightblue" points="1315.64,-1105.64 1325.7,-1108.96 1319.91,-1100.09 1315.64,-1105.64"/>
</g>
<!-- Node4 -->
<g id="node4" class="node">
<title>Node4</title>
<g id="a_node4"><a xlink:href="../../d8/d1d/classItemDropDatabase_ab700571acd2747c6d3225877dd3ca3c8.html#ab700571acd2747c6d3225877dd3ca3c8" target="_top" xlink:title=" ">
<polygon fill="white" stroke="black" points="936,-79.57 936,-98.57 1091,-98.57 1091,-79.57 936,-79.57"/>
<text text-anchor="middle" x="1013.5" y="-86.57" font-family="Helvetica,sans-Serif" font-size="10.00">ItemDropDatabase.Populate</text>
</a>
</g>
</g>
<!-- Node3&#45;&gt;Node4 -->
<g id="edge3" class="edge">
<title>Node3&#45;&gt;Node4</title>
<path fill="none" stroke="midnightblue" d="M1193.18,-584.6C1159.51,-491.22 1039.9,-159.51 1017.97,-98.69"/>
<polygon fill="midnightblue" stroke="midnightblue" points="1189.91,-585.85 1196.59,-594.07 1196.49,-583.48 1189.91,-585.85"/>
</g>
<!-- Node5 -->
<g id="node5" class="node">
<title>Node5</title>
<g id="a_node5"><a xlink:href="../../db/d4a/classMain_a25342c33fe017340cbe3a4d633951101.html#a25342c33fe017340cbe3a4d633951101" target="_top" xlink:title=" ">
<polygon fill="white" stroke="black" points="722,-79.57 722,-98.57 900,-98.57 900,-79.57 722,-79.57"/>
<text text-anchor="middle" x="811" y="-86.57" font-family="Helvetica,sans-Serif" font-size="10.00">Main.Initialize_AlmostEverything</text>
</a>
</g>
</g>
<!-- Node4&#45;&gt;Node5 -->
<g id="edge4" class="edge">
<title>Node4&#45;&gt;Node5</title>
<path fill="none" stroke="midnightblue" d="M925.58,-89.07C917.1,-89.07 908.5,-89.07 900.01,-89.07"/>
<polygon fill="midnightblue" stroke="midnightblue" points="925.84,-92.57 935.84,-89.07 925.84,-85.57 925.84,-92.57"/>
</g>
<!-- Node6 -->
<g id="node6" class="node">
<title>Node6</title>
<g id="a_node6"><a xlink:href="../../db/d4a/classMain_a5db4144feae3a661cf25ae1acf553895.html#a5db4144feae3a661cf25ae1acf553895" target="_top" xlink:title=" ">
<polygon fill="white" stroke="black" points="585,-98.57 585,-117.57 686,-117.57 686,-98.57 585,-98.57"/>
<text text-anchor="middle" x="635.5" y="-105.57" font-family="Helvetica,sans-Serif" font-size="10.00">Main.DrawSplash</text>
</a>
</g>
</g>
<!-- Node5&#45;&gt;Node6 -->
<g id="edge5" class="edge">
<title>Node5&#45;&gt;Node6</title>
<path fill="none" stroke="midnightblue" d="M712.91,-99.7C703.66,-100.72 694.56,-101.71 686.05,-102.65"/>
<polygon fill="midnightblue" stroke="midnightblue" points="713.44,-103.17 723,-98.6 712.67,-96.21 713.44,-103.17"/>
</g>
<!-- Node9 -->
<g id="node9" class="node">
<title>Node9</title>
<g id="a_node9"><a xlink:href="../../db/d4a/classMain_ad5aa3256b312cc9cfd98baeb2233727c.html#ad5aa3256b312cc9cfd98baeb2233727c" target="_top" xlink:title=" ">
<polygon fill="white" stroke="black" points="592.5,-60.57 592.5,-79.57 678.5,-79.57 678.5,-60.57 592.5,-60.57"/>
<text text-anchor="middle" x="635.5" y="-67.57" font-family="Helvetica,sans-Serif" font-size="10.00">Main.Initialize</text>
</a>
</g>
</g>
<!-- Node5&#45;&gt;Node9 -->
<g id="edge9" class="edge">
<title>Node5&#45;&gt;Node9</title>
<path fill="none" stroke="midnightblue" d="M712.92,-78.44C700.97,-77.13 689.29,-75.85 678.8,-74.7"/>
<polygon fill="midnightblue" stroke="midnightblue" points="712.67,-81.94 723,-79.54 713.44,-74.98 712.67,-81.94"/>
</g>
<!-- Node7 -->
<g id="node7" class="node">
<title>Node7</title>
<g id="a_node7"><a xlink:href="../../db/d4a/classMain_a4ca48570ee8c9e54ed5371ecb4ab1877.html#a4ca48570ee8c9e54ed5371ecb4ab1877" target="_top" xlink:title=" ">
<polygon fill="white" stroke="black" points="465,-98.57 465,-117.57 548,-117.57 548,-98.57 465,-98.57"/>
<text text-anchor="middle" x="506.5" y="-105.57" font-family="Helvetica,sans-Serif" font-size="10.00">Main.DoDraw</text>
</a>
</g>
</g>
<!-- Node6&#45;&gt;Node7 -->
<g id="edge6" class="edge">
<title>Node6&#45;&gt;Node7</title>
<path fill="none" stroke="midnightblue" d="M574.63,-108.07C565.67,-108.07 556.62,-108.07 548.18,-108.07"/>
<polygon fill="midnightblue" stroke="midnightblue" points="574.67,-111.57 584.67,-108.07 574.67,-104.57 574.67,-111.57"/>
</g>
<!-- Node8 -->
<g id="node8" class="node">
<title>Node8</title>
<g id="a_node8"><a xlink:href="../../db/d4a/classMain_a9df405f7c9ce2e93e9af9bbf70231672.html#a9df405f7c9ce2e93e9af9bbf70231672" target="_top" xlink:title=" ">
<polygon fill="white" stroke="black" points="339,-98.57 339,-117.57 408,-117.57 408,-98.57 339,-98.57"/>
<text text-anchor="middle" x="373.5" y="-105.57" font-family="Helvetica,sans-Serif" font-size="10.00">Main.Draw</text>
</a>
</g>
</g>
<!-- Node7&#45;&gt;Node8 -->
<g id="edge7" class="edge">
<title>Node7&#45;&gt;Node8</title>
<path fill="none" stroke="midnightblue" d="M454.72,-101.48C439.11,-101.14 422.33,-101.35 408.17,-102.09"/>
<polygon fill="midnightblue" stroke="midnightblue" points="454.67,-104.98 464.77,-101.77 454.88,-97.98 454.67,-104.98"/>
</g>
<!-- Node8&#45;&gt;Node7 -->
<g id="edge8" class="edge">
<title>Node8&#45;&gt;Node7</title>
<path fill="none" stroke="midnightblue" d="M418.25,-114.48C433.26,-114.97 450,-114.93 464.77,-114.37"/>
<polygon fill="midnightblue" stroke="midnightblue" points="418.31,-110.98 408.17,-114.06 418.01,-117.97 418.31,-110.98"/>
</g>
<!-- Node10 -->
<g id="node10" class="node">
<title>Node10</title>
<g id="a_node10"><a xlink:href="../../db/d4a/classMain_aa0692b82ef0f39d28df7aae89daa2480.html#aa0692b82ef0f39d28df7aae89daa2480" target="_top" xlink:title=" ">
<polygon fill="white" stroke="black" points="464,-60.57 464,-79.57 549,-79.57 549,-60.57 464,-60.57"/>
<text text-anchor="middle" x="506.5" y="-67.57" font-family="Helvetica,sans-Serif" font-size="10.00">Main.DedServ</text>
</a>
</g>
</g>
<!-- Node9&#45;&gt;Node10 -->
<g id="edge10" class="edge">
<title>Node9&#45;&gt;Node10</title>
<path fill="none" stroke="midnightblue" d="M581.92,-70.07C571,-70.07 559.64,-70.07 549.17,-70.07"/>
<polygon fill="midnightblue" stroke="midnightblue" points="582.21,-73.57 592.21,-70.07 582.21,-66.57 582.21,-73.57"/>
</g>
<!-- Node11 -->
<g id="node11" class="node">
<title>Node11</title>
<g id="a_node11"><a xlink:href="../../dc/db5/classProgram_a7046fff16d913c8ea7291c3efa4cb4ed.html#a7046fff16d913c8ea7291c3efa4cb4ed" target="_top" xlink:title=" ">
<polygon fill="white" stroke="black" points="319,-60.57 319,-79.57 428,-79.57 428,-60.57 319,-60.57"/>
<text text-anchor="middle" x="373.5" y="-67.57" font-family="Helvetica,sans-Serif" font-size="10.00">Program.RunGame</text>
</a>
</g>
</g>
<!-- Node10&#45;&gt;Node11 -->
<g id="edge11" class="edge">
<title>Node10&#45;&gt;Node11</title>
<path fill="none" stroke="midnightblue" d="M453.44,-70.07C445.2,-70.07 436.65,-70.07 428.37,-70.07"/>
<polygon fill="midnightblue" stroke="midnightblue" points="453.69,-73.57 463.69,-70.07 453.69,-66.57 453.69,-73.57"/>
</g>
<!-- Node12 -->
<g id="node12" class="node">
<title>Node12</title>
<g id="a_node12"><a xlink:href="../../dc/db5/classProgram_ac64eaca42975d2a403f25794697886fc.html#ac64eaca42975d2a403f25794697886fc" target="_top" xlink:title=" ">
<polygon fill="white" stroke="black" points="158,-60.57 158,-79.57 283,-79.57 283,-60.57 158,-60.57"/>
<text text-anchor="middle" x="220.5" y="-67.57" font-family="Helvetica,sans-Serif" font-size="10.00">Program.LaunchGame</text>
</a>
</g>
</g>
<!-- Node11&#45;&gt;Node12 -->
<g id="edge12" class="edge">
<title>Node11&#45;&gt;Node12</title>
<path fill="none" stroke="midnightblue" d="M308.68,-70.07C300.25,-70.07 291.62,-70.07 283.23,-70.07"/>
<polygon fill="midnightblue" stroke="midnightblue" points="308.84,-73.57 318.84,-70.07 308.84,-66.57 308.84,-73.57"/>
</g>
<!-- Node13 -->
<g id="node13" class="node">
<title>Node13</title>
<g id="a_node13"><a xlink:href="../../df/d9e/classWindowsLaunch_a48fb8633919b7d48cc10a62bd116902a.html#a48fb8633919b7d48cc10a62bd116902a" target="_top" xlink:title=" ">
<polygon fill="white" stroke="black" points="0,-60.57 0,-79.57 122,-79.57 122,-60.57 0,-60.57"/>
<text text-anchor="middle" x="61" y="-67.57" font-family="Helvetica,sans-Serif" font-size="10.00">WindowsLaunch.Main</text>
</a>
</g>
</g>
<!-- Node12&#45;&gt;Node13 -->
<g id="edge13" class="edge">
<title>Node12&#45;&gt;Node13</title>
<path fill="none" stroke="midnightblue" d="M147.43,-70.07C138.95,-70.07 130.36,-70.07 122.07,-70.07"/>
<polygon fill="midnightblue" stroke="midnightblue" points="147.7,-73.57 157.7,-70.07 147.7,-66.57 147.7,-73.57"/>
</g>
<!-- Node14&#45;&gt;Node3 -->
<g id="edge15" class="edge">
<title>Node14&#45;&gt;Node3</title>
<path fill="none" stroke="midnightblue" d="M1317.79,-1053.82C1316.83,-1052.94 1315.89,-1052.03 1315,-1051.07 1254.1,-986.16 1214.51,-693.92 1205.81,-624.09"/>
<polygon fill="midnightblue" stroke="midnightblue" points="1315.71,-1056.63 1325.79,-1059.88 1319.93,-1051.05 1315.71,-1056.63"/>
</g>
<!-- Node15&#45;&gt;Node3 -->
<g id="edge17" class="edge">
<title>Node15&#45;&gt;Node3</title>
<path fill="none" stroke="midnightblue" d="M1317.92,-1004.86C1316.91,-1003.97 1315.94,-1003.04 1315,-1002.07 1207.12,-890.41 1202.58,-682.19 1203.52,-624.33"/>
<polygon fill="midnightblue" stroke="midnightblue" points="1316.13,-1007.89 1326.26,-1010.99 1320.27,-1002.25 1316.13,-1007.89"/>
</g>
<!-- Node16&#45;&gt;Node3 -->
<g id="edge19" class="edge">
<title>Node16&#45;&gt;Node3</title>
<path fill="none" stroke="midnightblue" d="M1318.41,-956.19C1317.23,-955.2 1316.09,-954.16 1315,-953.07 1218.81,-857.12 1205.93,-677.43 1204.24,-624.26"/>
<polygon fill="midnightblue" stroke="midnightblue" points="1316.56,-959.17 1326.75,-962.06 1320.59,-953.44 1316.56,-959.17"/>
</g>
<!-- Node17&#45;&gt;Node3 -->
<g id="edge21" class="edge">
<title>Node17&#45;&gt;Node3</title>
<path fill="none" stroke="midnightblue" d="M1318.48,-907.11C1317.28,-906.15 1316.11,-905.13 1315,-904.07 1230.34,-823.56 1209.69,-672.16 1205.16,-624.11"/>
<polygon fill="midnightblue" stroke="midnightblue" points="1316.7,-910.14 1326.93,-912.88 1320.64,-904.35 1316.7,-910.14"/>
</g>
<!-- Node18&#45;&gt;Node3 -->
<g id="edge23" class="edge">
<title>Node18&#45;&gt;Node3</title>
<path fill="none" stroke="midnightblue" d="M1319.17,-858.46C1317.72,-857.39 1316.33,-856.26 1315,-855.07 1241.92,-789.89 1214.18,-667.17 1206.46,-624.31"/>
<polygon fill="midnightblue" stroke="midnightblue" points="1317.59,-861.61 1327.9,-864.02 1321.34,-855.7 1317.59,-861.61"/>
</g>
<!-- Node19&#45;&gt;Node3 -->
<g id="edge25" class="edge">
<title>Node19&#45;&gt;Node3</title>
<path fill="none" stroke="midnightblue" d="M1319.97,-809.75C1318.25,-808.59 1316.59,-807.37 1315,-806.07 1253.07,-755.61 1219.46,-660.89 1208.28,-624.16"/>
<polygon fill="midnightblue" stroke="midnightblue" points="1318.58,-812.99 1328.98,-815.02 1322.11,-806.95 1318.58,-812.99"/>
</g>
<!-- Node20&#45;&gt;Node3 -->
<g id="edge27" class="edge">
<title>Node20&#45;&gt;Node3</title>
<path fill="none" stroke="midnightblue" d="M1321.55,-761.28C1319.29,-759.97 1317.1,-758.56 1315,-757.07 1263.97,-720.76 1226.28,-653.89 1211.21,-624.09"/>
<polygon fill="midnightblue" stroke="midnightblue" points="1320.09,-764.47 1330.58,-765.96 1323.31,-758.25 1320.09,-764.47"/>
</g>
<!-- Node21&#45;&gt;Node3 -->
<g id="edge29" class="edge">
<title>Node21&#45;&gt;Node3</title>
<path fill="none" stroke="midnightblue" d="M1324.55,-713C1321.27,-711.46 1318.06,-709.82 1315,-708.07 1274.87,-685.15 1236.59,-645.88 1217.19,-624.33"/>
<polygon fill="midnightblue" stroke="midnightblue" points="1323.43,-716.32 1334,-717.05 1326.19,-709.89 1323.43,-716.32"/>
</g>
<!-- Node22&#45;&gt;Node3 -->
<g id="edge31" class="edge">
<title>Node22&#45;&gt;Node3</title>
<path fill="none" stroke="midnightblue" d="M1330.57,-664.74C1325.28,-662.9 1320.03,-661 1315,-659.07 1287.57,-648.55 1257.2,-634.71 1235.18,-624.26"/>
<polygon fill="midnightblue" stroke="midnightblue" points="1329.51,-668.08 1340.1,-667.98 1331.76,-661.45 1329.51,-668.08"/>
</g>
<!-- Node23&#45;&gt;Node3 -->
<g id="edge33" class="edge">
<title>Node23&#45;&gt;Node3</title>
<path fill="none" stroke="midnightblue" d="M1304.85,-622.63C1296.26,-621.47 1287.57,-620.31 1279.1,-619.17"/>
<polygon fill="midnightblue" stroke="midnightblue" points="1304.51,-626.11 1314.88,-623.98 1305.44,-619.17 1304.51,-626.11"/>
</g>
<!-- Node24&#45;&gt;Node3 -->
<g id="edge35" class="edge">
<title>Node24&#45;&gt;Node3</title>
<path fill="none" stroke="midnightblue" d="M1304.85,-596.06C1296.26,-597.17 1287.57,-598.29 1279.1,-599.38"/>
<polygon fill="midnightblue" stroke="midnightblue" points="1305.41,-599.52 1314.88,-594.76 1304.52,-592.57 1305.41,-599.52"/>
</g>
<!-- Node25&#45;&gt;Node3 -->
<g id="edge37" class="edge">
<title>Node25&#45;&gt;Node3</title>
<path fill="none" stroke="midnightblue" d="M1333.01,-554.49C1326.9,-556.64 1320.81,-558.85 1315,-561.07 1288.33,-571.26 1258.67,-584.17 1236.72,-594.04"/>
<polygon fill="midnightblue" stroke="midnightblue" points="1334.26,-557.77 1342.57,-551.19 1331.98,-551.15 1334.26,-557.77"/>
</g>
<!-- Node26&#45;&gt;Node3 -->
<g id="edge39" class="edge">
<title>Node26&#45;&gt;Node3</title>
<path fill="none" stroke="midnightblue" d="M1326.57,-506.17C1322.57,-508 1318.69,-509.96 1315,-512.07 1275.47,-534.71 1237.25,-572.76 1217.62,-593.85"/>
<polygon fill="midnightblue" stroke="midnightblue" points="1328.17,-509.29 1336.01,-502.17 1325.44,-502.85 1328.17,-509.29"/>
</g>
<!-- Node27&#45;&gt;Node3 -->
<g id="edge41" class="edge">
<title>Node27&#45;&gt;Node3</title>
<path fill="none" stroke="midnightblue" d="M1323.45,-457.73C1320.51,-459.38 1317.68,-461.16 1315,-463.07 1264.77,-499.03 1226.93,-564.33 1211.54,-593.86"/>
<polygon fill="midnightblue" stroke="midnightblue" points="1325.17,-460.79 1332.53,-453.17 1322.02,-454.53 1325.17,-460.79"/>
</g>
<!-- Node28&#45;&gt;Node3 -->
<g id="edge43" class="edge">
<title>Node28&#45;&gt;Node3</title>
<path fill="none" stroke="midnightblue" d="M1321.45,-409.37C1319.2,-410.83 1317.04,-412.4 1315,-414.07 1253.89,-464.26 1219.9,-557.47 1208.44,-593.91"/>
<polygon fill="midnightblue" stroke="midnightblue" points="1323.53,-412.21 1330.49,-404.23 1320.06,-406.13 1323.53,-412.21"/>
</g>
<!-- Node29&#45;&gt;Node3 -->
<g id="edge45" class="edge">
<title>Node29&#45;&gt;Node3</title>
<path fill="none" stroke="midnightblue" d="M1320.5,-360.66C1318.58,-362.04 1316.74,-363.51 1315,-365.07 1242.7,-430.14 1214.47,-551.59 1206.54,-594"/>
<polygon fill="midnightblue" stroke="midnightblue" points="1322.7,-363.42 1329.38,-355.19 1319.03,-357.46 1322.7,-363.42"/>
</g>
<!-- Node30&#45;&gt;Node3 -->
<g id="edge47" class="edge">
<title>Node30&#45;&gt;Node3</title>
<path fill="none" stroke="midnightblue" d="M1320.23,-311.62C1318.4,-313.01 1316.65,-314.49 1315,-316.07 1231.43,-396.33 1210.08,-545.87 1205.27,-593.84"/>
<polygon fill="midnightblue" stroke="midnightblue" points="1322.25,-314.48 1328.74,-306.11 1318.45,-308.6 1322.25,-314.48"/>
</g>
<!-- Node31&#45;&gt;Node3 -->
<g id="edge49" class="edge">
<title>Node31&#45;&gt;Node3</title>
<path fill="none" stroke="midnightblue" d="M1319.6,-262.94C1317.99,-264.23 1316.45,-265.61 1315,-267.07 1219.81,-363.01 1206.24,-541.28 1204.31,-594.01"/>
<polygon fill="midnightblue" stroke="midnightblue" points="1321.87,-265.62 1328.18,-257.11 1317.94,-259.83 1321.87,-265.62"/>
</g>
<!-- Node32&#45;&gt;Node3 -->
<g id="edge51" class="edge">
<title>Node32&#45;&gt;Node3</title>
<path fill="none" stroke="midnightblue" d="M1319.41,-213.97C1317.86,-215.25 1316.39,-216.62 1315,-218.07 1208.22,-329.78 1202.9,-536.51 1203.59,-593.93"/>
<polygon fill="midnightblue" stroke="midnightblue" points="1321.49,-216.78 1327.66,-208.17 1317.47,-211.05 1321.49,-216.78"/>
</g>
<!-- Node33&#45;&gt;Node3 -->
<g id="edge53" class="edge">
<title>Node33&#45;&gt;Node3</title>
<path fill="none" stroke="midnightblue" d="M1318.86,-165.33C1317.51,-166.51 1316.22,-167.76 1315,-169.07 1254.84,-233.89 1214.83,-523.4 1205.9,-593.67"/>
<polygon fill="midnightblue" stroke="midnightblue" points="1321.17,-167.98 1327.19,-159.27 1317.04,-162.33 1321.17,-167.98"/>
</g>
<!-- Node34&#45;&gt;Node4 -->
<g id="edge55" class="edge">
<title>Node34&#45;&gt;Node4</title>
<path fill="none" stroke="midnightblue" d="M1116.65,-102.69C1106.42,-101.33 1096.05,-99.95 1086.05,-98.61"/>
<polygon fill="midnightblue" stroke="midnightblue" points="1116.44,-106.2 1126.82,-104.05 1117.37,-99.26 1116.44,-106.2"/>
</g>
<!-- Node35&#45;&gt;Node4 -->
<g id="edge57" class="edge">
<title>Node35&#45;&gt;Node4</title>
<path fill="none" stroke="midnightblue" d="M1116.75,-75.98C1107.42,-77.18 1097.97,-78.39 1088.78,-79.56"/>
<polygon fill="midnightblue" stroke="midnightblue" points="1117.34,-79.44 1126.82,-74.7 1116.45,-72.49 1117.34,-79.44"/>
</g>
<!-- Node36&#45;&gt;Node4 -->
<g id="edge59" class="edge">
<title>Node36&#45;&gt;Node4</title>
<path fill="none" stroke="midnightblue" d="M1142.85,-34.38C1137.47,-36.23 1132.12,-38.14 1127,-40.07 1094.3,-52.39 1057.33,-69.03 1034.98,-79.41"/>
<polygon fill="midnightblue" stroke="midnightblue" points="1144.18,-37.63 1152.54,-31.12 1141.94,-30.99 1144.18,-37.63"/>
</g>
</g>
</svg>
