<?xml version="1.0" encoding="UTF-8" standalone="no"?>
<!DOCTYPE svg PUBLIC "-//W3C//DTD SVG 1.1//EN"
 "http://www.w3.org/Graphics/SVG/1.1/DTD/svg11.dtd">
<!-- Generated by graphviz version 2.43.0 (0)
 -->
<!-- Title: DD2Event.FailureMessage Pages: 1 -->
<!--zoomable 505 -->
<svg id="main" version="1.1" xmlns="http://www.w3.org/2000/svg" xmlns:xlink="http://www.w3.org/1999/xlink" xml:space="preserve" onload="init(evt)">
<style type="text/css"><![CDATA[
.edge:hover path { stroke: red; }
.edge:hover polygon { stroke: red; fill: red; }
]]></style>
<script type="text/javascript"><![CDATA[
var edges = document.getElementsByTagName('g');
if (edges && edges.length) {
  for (var i=0;i<edges.length;i++) {
    if (edges[i].id.substr(0,4)=='edge') {
      edges[i].setAttribute('class','edge');
    }
  }
}
]]></script>
        <defs>
                <circle id="rim" cx="0" cy="0" r="7"/>
                <circle id="rim2" cx="0" cy="0" r="3.5"/>
                <g id="zoomPlus">
                        <use xlink:href="#rim" fill="#404040">
                                <set attributeName="fill" to="#808080" begin="zoomplus.mouseover" end="zoomplus.mouseout"/>
                        </use>
                        <path d="M-4,0h8M0,-4v8" fill="none" stroke="white" stroke-width="1.5" pointer-events="none"/>
                </g>
                <g id="zoomMin">
                        <use xlink:href="#rim" fill="#404040">
                                <set attributeName="fill" to="#808080" begin="zoomminus.mouseover" end="zoomminus.mouseout"/>
                        </use>
                        <path d="M-4,0h8" fill="none" stroke="white" stroke-width="1.5" pointer-events="none"/>
                </g>
                <g id="dirArrow">
                        <path fill="none" stroke="white" stroke-width="1.5" d="M0,-3.0v7 M-2.5,-0.5L0,-3.0L2.5,-0.5"/>
                </g>
               <g id="resetDef">
                       <use xlink:href="#rim2" fill="#404040">
                               <set attributeName="fill" to="#808080" begin="reset.mouseover" end="reset.mouseout"/>
                       </use>
               </g>
        </defs>

<script type="text/javascript">
var viewWidth = 1581;
var viewHeight = 505;
var sectionId = 'dynsection-0';
</script>
<script xlink:href="../../svgpan.js"/>
<svg id="graph" class="graph">
<g id="viewport">
<title>DD2Event.FailureMessage</title>
<polygon fill="white" stroke="transparent" points="-4,4 -4,-501 1577,-501 1577,4 -4,4"/>
<!-- Node1 -->
<g id="node1" class="node">
<title>Node1</title>
<g id="a_node1"><a xlink:title=" ">
<polygon fill="#bfbfbf" stroke="black" points="0,-120.5 0,-139.5 144,-139.5 144,-120.5 0,-120.5"/>
<text text-anchor="middle" x="72" y="-127.5" font-family="Helvetica,sans-Serif" font-size="10.00">DD2Event.FailureMessage</text>
</a>
</g>
</g>
<!-- Node2 -->
<g id="node2" class="node">
<title>Node2</title>
<g id="a_node2"><a xlink:href="../../dc/d76/classNetworkText_ae3f73dfc810df7bc77c39621ed5b8644.html#ae3f73dfc810df7bc77c39621ed5b8644" target="_top" xlink:title=" ">
<polygon fill="white" stroke="black" points="200,-439.5 200,-458.5 324,-458.5 324,-439.5 200,-439.5"/>
<text text-anchor="middle" x="262" y="-446.5" font-family="Helvetica,sans-Serif" font-size="10.00">NetworkText.FromKey</text>
</a>
</g>
</g>
<!-- Node1&#45;&gt;Node2 -->
<g id="edge1" class="edge">
<title>Node1&#45;&gt;Node2</title>
<path fill="none" stroke="midnightblue" d="M78.63,-139.55C104.84,-184.03 215.22,-371.32 250.27,-430.79"/>
<polygon fill="midnightblue" stroke="midnightblue" points="247.3,-432.65 255.4,-439.49 253.33,-429.1 247.3,-432.65"/>
</g>
<!-- Node11 -->
<g id="node11" class="node">
<title>Node11</title>
<g id="a_node11"><a xlink:href="../../d0/d41/classLanguage_ae3cd200b00ed005379aa712464e298fc.html#ae3cd200b00ed005379aa712464e298fc" target="_top" xlink:title=" ">
<polygon fill="white" stroke="black" points="210,-54.5 210,-73.5 314,-73.5 314,-54.5 210,-54.5"/>
<text text-anchor="middle" x="262" y="-61.5" font-family="Helvetica,sans-Serif" font-size="10.00">Language.GetText</text>
</a>
</g>
</g>
<!-- Node1&#45;&gt;Node11 -->
<g id="edge13" class="edge">
<title>Node1&#45;&gt;Node11</title>
<path fill="none" stroke="midnightblue" d="M91.91,-120.42C112.97,-110.06 148.24,-93.6 180,-83 187.7,-80.43 195.91,-78.08 204.05,-75.96"/>
<polygon fill="midnightblue" stroke="midnightblue" points="205.05,-79.32 213.9,-73.51 203.35,-72.53 205.05,-79.32"/>
</g>
<!-- Node13 -->
<g id="node13" class="node">
<title>Node13</title>
<g id="a_node13"><a xlink:href="../../db/d4a/classMain_a4b57a708788344d768b0cfc846b5dd6c.html#a4b57a708788344d768b0cfc846b5dd6c" target="_top" xlink:title=" ">
<polygon fill="white" stroke="black" points="219,-142.5 219,-161.5 305,-161.5 305,-142.5 219,-142.5"/>
<text text-anchor="middle" x="262" y="-149.5" font-family="Helvetica,sans-Serif" font-size="10.00">Main.NewText</text>
</a>
</g>
</g>
<!-- Node1&#45;&gt;Node13 -->
<g id="edge15" class="edge">
<title>Node1&#45;&gt;Node13</title>
<path fill="none" stroke="midnightblue" d="M144.07,-138.32C165.5,-140.82 188.62,-143.53 208.6,-145.87"/>
<polygon fill="midnightblue" stroke="midnightblue" points="208.4,-149.37 218.74,-147.05 209.21,-142.42 208.4,-149.37"/>
</g>
<!-- Node16 -->
<g id="node16" class="node">
<title>Node16</title>
<g id="a_node16"><a xlink:href="../../d0/d78/classChatHelper_a46db2b94f0d1fc88fe05baf931ea17f5.html#a46db2b94f0d1fc88fe05baf931ea17f5" target="_top" xlink:title=" ">
<polygon fill="white" stroke="black" points="180,-93 180,-123 344,-123 344,-93 180,-93"/>
<text text-anchor="start" x="188" y="-111" font-family="Helvetica,sans-Serif" font-size="10.00">ChatHelper.SendChatMessage</text>
<text text-anchor="middle" x="262" y="-100" font-family="Helvetica,sans-Serif" font-size="10.00">ToClient</text>
</a>
</g>
</g>
<!-- Node1&#45;&gt;Node16 -->
<g id="edge18" class="edge">
<title>Node1&#45;&gt;Node16</title>
<path fill="none" stroke="midnightblue" d="M144.07,-121.68C152.45,-120.7 161.07,-119.69 169.67,-118.69"/>
<polygon fill="midnightblue" stroke="midnightblue" points="170.21,-122.15 179.74,-117.51 169.4,-115.2 170.21,-122.15"/>
</g>
<!-- Node3 -->
<g id="node3" class="node">
<title>Node3</title>
<g id="a_node3"><a xlink:href="../../dc/d76/classNetworkText_a2ca473ed99ccaf7cf198fd59504eec81.html#a2ca473ed99ccaf7cf198fd59504eec81" target="_top" xlink:title=" ">
<polygon fill="white" stroke="black" points="820.5,-477.5 820.5,-496.5 963.5,-496.5 963.5,-477.5 820.5,-477.5"/>
<text text-anchor="middle" x="892" y="-484.5" font-family="Helvetica,sans-Serif" font-size="10.00">NetworkText.NetworkText</text>
</a>
</g>
</g>
<!-- Node2&#45;&gt;Node3 -->
<g id="edge2" class="edge">
<title>Node2&#45;&gt;Node3</title>
<path fill="none" stroke="midnightblue" d="M300.69,-458.52C323.5,-463.92 353.25,-470.31 380,-474 530.86,-494.82 709.08,-493.57 810.2,-490.48"/>
<polygon fill="midnightblue" stroke="midnightblue" points="810.46,-493.98 820.34,-490.16 810.23,-486.98 810.46,-493.98"/>
</g>
<!-- Node4 -->
<g id="node4" class="node">
<title>Node4</title>
<g id="a_node4"><a xlink:href="../../dc/d76/classNetworkText_aee0d88ddf9ea9e58b74112bdf6824513.html#aee0d88ddf9ea9e58b74112bdf6824513" target="_top" xlink:title=" ">
<polygon fill="white" stroke="black" points="380,-434 380,-464 563,-464 563,-434 380,-434"/>
<text text-anchor="start" x="388" y="-452" font-family="Helvetica,sans-Serif" font-size="10.00">NetworkText.ConvertSubstitutions</text>
<text text-anchor="middle" x="471.5" y="-441" font-family="Helvetica,sans-Serif" font-size="10.00">ToNetworkText</text>
</a>
</g>
</g>
<!-- Node2&#45;&gt;Node4 -->
<g id="edge3" class="edge">
<title>Node2&#45;&gt;Node4</title>
<path fill="none" stroke="midnightblue" d="M324.13,-449C338.45,-449 354.08,-449 369.62,-449"/>
<polygon fill="midnightblue" stroke="midnightblue" points="369.81,-452.5 379.81,-449 369.81,-445.5 369.81,-452.5"/>
</g>
<!-- Node4&#45;&gt;Node3 -->
<g id="edge4" class="edge">
<title>Node4&#45;&gt;Node3</title>
<path fill="none" stroke="midnightblue" d="M563.25,-463.57C575.25,-465.22 587.41,-466.75 599,-468 670.12,-475.64 751.33,-480.62 810.03,-483.56"/>
<polygon fill="midnightblue" stroke="midnightblue" points="810.19,-487.07 820.35,-484.07 810.53,-480.08 810.19,-487.07"/>
</g>
<!-- Node5 -->
<g id="node5" class="node">
<title>Node5</title>
<g id="a_node5"><a xlink:href="../../dc/d76/classNetworkText_a7d4e628b9e5f77296c00a7a39127d1b4.html#a7d4e628b9e5f77296c00a7a39127d1b4" target="_top" xlink:title=" ">
<polygon fill="white" stroke="black" points="614,-439.5 614,-458.5 751,-458.5 751,-439.5 614,-439.5"/>
<text text-anchor="middle" x="682.5" y="-446.5" font-family="Helvetica,sans-Serif" font-size="10.00">NetworkText.FromLiteral</text>
</a>
</g>
</g>
<!-- Node4&#45;&gt;Node5 -->
<g id="edge5" class="edge">
<title>Node4&#45;&gt;Node5</title>
<path fill="none" stroke="midnightblue" d="M563.26,-449C576.65,-449 590.34,-449 603.44,-449"/>
<polygon fill="midnightblue" stroke="midnightblue" points="603.8,-452.5 613.8,-449 603.8,-445.5 603.8,-452.5"/>
</g>
<!-- Node6 -->
<g id="node6" class="node">
<title>Node6</title>
<g id="a_node6"><a xlink:href="../../dc/d76/classNetworkText_a53e74a84483bc4a1a4b1c6e1e1df4ca5.html#a53e74a84483bc4a1a4b1c6e1e1df4ca5" target="_top" xlink:title=" ">
<polygon fill="white" stroke="black" points="832,-420.5 832,-439.5 952,-439.5 952,-420.5 832,-420.5"/>
<text text-anchor="middle" x="892" y="-427.5" font-family="Helvetica,sans-Serif" font-size="10.00">NetworkText.ToString</text>
</a>
</g>
</g>
<!-- Node4&#45;&gt;Node6 -->
<g id="edge7" class="edge">
<title>Node4&#45;&gt;Node6</title>
<path fill="none" stroke="midnightblue" d="M561.12,-433.98C573.8,-432.33 586.71,-430.92 599,-430 674.95,-424.33 762.31,-425.31 821.55,-427.1"/>
<polygon fill="midnightblue" stroke="midnightblue" points="821.8,-430.61 831.9,-427.42 822.02,-423.61 821.8,-430.61"/>
</g>
<!-- Node5&#45;&gt;Node3 -->
<g id="edge6" class="edge">
<title>Node5&#45;&gt;Node3</title>
<path fill="none" stroke="midnightblue" d="M735.59,-458.54C763.96,-463.73 799.24,-470.2 829.02,-475.65"/>
<polygon fill="midnightblue" stroke="midnightblue" points="828.42,-479.1 838.89,-477.46 829.68,-472.21 828.42,-479.1"/>
</g>
<!-- Node7 -->
<g id="node7" class="node">
<title>Node7</title>
<g id="a_node7"><a xlink:href="../../d0/d41/classLanguage_a9f392308c3f9927bacc3d83792b46408.html#a9f392308c3f9927bacc3d83792b46408" target="_top" xlink:title=" ">
<polygon fill="white" stroke="black" points="1037.5,-382.5 1037.5,-401.5 1168.5,-401.5 1168.5,-382.5 1037.5,-382.5"/>
<text text-anchor="middle" x="1103" y="-389.5" font-family="Helvetica,sans-Serif" font-size="10.00">Language.GetTextValue</text>
</a>
</g>
</g>
<!-- Node6&#45;&gt;Node7 -->
<g id="edge8" class="edge">
<title>Node6&#45;&gt;Node7</title>
<path fill="none" stroke="midnightblue" d="M945.47,-420.46C974.04,-415.27 1009.58,-408.8 1039.57,-403.35"/>
<polygon fill="midnightblue" stroke="midnightblue" points="1040.3,-406.78 1049.51,-401.54 1039.04,-399.89 1040.3,-406.78"/>
</g>
<!-- Node9 -->
<g id="node9" class="node">
<title>Node9</title>
<g id="a_node9"><a xlink:href="../../dc/d76/classNetworkText_a40efacb2c644e4e6dd3554d34300b421.html#a40efacb2c644e4e6dd3554d34300b421" target="_top" xlink:title=" ">
<polygon fill="white" stroke="black" points="1018,-476.5 1018,-495.5 1188,-495.5 1188,-476.5 1018,-476.5"/>
<text text-anchor="middle" x="1103" y="-483.5" font-family="Helvetica,sans-Serif" font-size="10.00">NetworkText.SetToEmptyLiteral</text>
</a>
</g>
</g>
<!-- Node6&#45;&gt;Node9 -->
<g id="edge10" class="edge">
<title>Node6&#45;&gt;Node9</title>
<path fill="none" stroke="midnightblue" d="M923.16,-439.53C948.38,-447.35 985.37,-458.49 1018,-467 1027.55,-469.49 1037.76,-471.96 1047.65,-474.25"/>
<polygon fill="midnightblue" stroke="midnightblue" points="1046.87,-477.67 1057.4,-476.48 1048.43,-470.84 1046.87,-477.67"/>
</g>
<!-- Node10 -->
<g id="node10" class="node">
<title>Node10</title>
<g id="a_node10"><a xlink:href="../../dc/d76/classNetworkText_a0ded393d09004454ad08f94a06a3516b.html#a0ded393d09004454ad08f94a06a3516b" target="_top" xlink:title=" ">
<polygon fill="white" stroke="black" points="1018,-420.5 1018,-439.5 1188,-439.5 1188,-420.5 1018,-420.5"/>
<text text-anchor="middle" x="1103" y="-427.5" font-family="Helvetica,sans-Serif" font-size="10.00">NetworkText.ToDebugInfoString</text>
</a>
</g>
</g>
<!-- Node6&#45;&gt;Node10 -->
<g id="edge11" class="edge">
<title>Node6&#45;&gt;Node10</title>
<path fill="none" stroke="midnightblue" d="M952.05,-430C969.35,-430 988.7,-430 1007.61,-430"/>
<polygon fill="midnightblue" stroke="midnightblue" points="1007.75,-433.5 1017.75,-430 1007.75,-426.5 1007.75,-433.5"/>
</g>
<!-- Node8 -->
<g id="node8" class="node">
<title>Node8</title>
<g id="a_node8"><a xlink:href="../../d2/d9f/classLanguageManager_a2672f0189a3c4aa8b0344a0bcc60c582.html#a2672f0189a3c4aa8b0344a0bcc60c582" target="_top" xlink:title=" ">
<polygon fill="white" stroke="black" points="1224,-382.5 1224,-401.5 1397,-401.5 1397,-382.5 1224,-382.5"/>
<text text-anchor="middle" x="1310.5" y="-389.5" font-family="Helvetica,sans-Serif" font-size="10.00">LanguageManager.GetTextValue</text>
</a>
</g>
</g>
<!-- Node7&#45;&gt;Node8 -->
<g id="edge9" class="edge">
<title>Node7&#45;&gt;Node8</title>
<path fill="none" stroke="midnightblue" d="M1168.74,-392C1183.12,-392 1198.66,-392 1213.98,-392"/>
<polygon fill="midnightblue" stroke="midnightblue" points="1214,-395.5 1224,-392 1214,-388.5 1214,-395.5"/>
</g>
<!-- Node10&#45;&gt;Node10 -->
<g id="edge12" class="edge">
<title>Node10&#45;&gt;Node10</title>
<path fill="none" stroke="midnightblue" d="M1071.25,-439.76C1055.8,-448.57 1066.39,-458 1103,-458 1129.32,-458 1142.18,-453.13 1141.61,-447.11"/>
<polygon fill="midnightblue" stroke="midnightblue" points="1144.13,-444.69 1134.75,-439.76 1139.01,-449.46 1144.13,-444.69"/>
</g>
<!-- Node12 -->
<g id="node12" class="node">
<title>Node12</title>
<g id="a_node12"><a xlink:href="../../d2/d9f/classLanguageManager_abbe15fadc798f67686508fcc1d887add.html#abbe15fadc798f67686508fcc1d887add" target="_top" xlink:title=" ">
<polygon fill="white" stroke="black" points="398.5,-54.5 398.5,-73.5 544.5,-73.5 544.5,-54.5 398.5,-54.5"/>
<text text-anchor="middle" x="471.5" y="-61.5" font-family="Helvetica,sans-Serif" font-size="10.00">LanguageManager.GetText</text>
</a>
</g>
</g>
<!-- Node11&#45;&gt;Node12 -->
<g id="edge14" class="edge">
<title>Node11&#45;&gt;Node12</title>
<path fill="none" stroke="midnightblue" d="M314.03,-64C336.38,-64 363.19,-64 388.25,-64"/>
<polygon fill="midnightblue" stroke="midnightblue" points="388.49,-67.5 398.49,-64 388.49,-60.5 388.49,-67.5"/>
</g>
<!-- Node14 -->
<g id="node14" class="node">
<title>Node14</title>
<g id="a_node14"><a xlink:href="../../d4/d65/interfaceIChatMonitor_aa249bdc05636276fbee6a49113340fd6.html#aa249bdc05636276fbee6a49113340fd6" target="_top" xlink:title=" ">
<polygon fill="white" stroke="black" points="409.5,-142.5 409.5,-161.5 533.5,-161.5 533.5,-142.5 409.5,-142.5"/>
<text text-anchor="middle" x="471.5" y="-149.5" font-family="Helvetica,sans-Serif" font-size="10.00">IChatMonitor.NewText</text>
</a>
</g>
</g>
<!-- Node13&#45;&gt;Node14 -->
<g id="edge16" class="edge">
<title>Node13&#45;&gt;Node14</title>
<path fill="none" stroke="midnightblue" d="M305.24,-152C332.29,-152 368.08,-152 399.43,-152"/>
<polygon fill="midnightblue" stroke="midnightblue" points="399.43,-155.5 409.43,-152 399.43,-148.5 399.43,-155.5"/>
</g>
<!-- Node15 -->
<g id="node15" class="node">
<title>Node15</title>
<g id="a_node15"><a xlink:href="../../d7/d66/classSoundEngine_a6c31f285c7bb4711799ee29c96bb2806.html#a6c31f285c7bb4711799ee29c96bb2806" target="_top" xlink:title=" ">
<polygon fill="white" stroke="black" points="1036,-180.5 1036,-199.5 1170,-199.5 1170,-180.5 1036,-180.5"/>
<text text-anchor="middle" x="1103" y="-187.5" font-family="Helvetica,sans-Serif" font-size="10.00">SoundEngine.PlaySound</text>
</a>
</g>
</g>
<!-- Node13&#45;&gt;Node15 -->
<g id="edge17" class="edge">
<title>Node13&#45;&gt;Node15</title>
<path fill="none" stroke="midnightblue" d="M305.06,-160.24C327.26,-164.23 355,-168.65 380,-171 614.52,-193.03 893.64,-192.96 1025.61,-191.36"/>
<polygon fill="midnightblue" stroke="midnightblue" points="1025.67,-194.86 1035.62,-191.23 1025.58,-187.86 1025.67,-194.86"/>
</g>
<!-- Node17 -->
<g id="node17" class="node">
<title>Node17</title>
<g id="a_node17"><a xlink:href="../../d0/d78/classChatHelper_a4ef9a420f97ee5d6bd9abf3a41b9eb85.html#a4ef9a420f97ee5d6bd9abf3a41b9eb85" target="_top" xlink:title=" ">
<polygon fill="white" stroke="black" points="389.5,-93 389.5,-123 553.5,-123 553.5,-93 389.5,-93"/>
<text text-anchor="start" x="397.5" y="-111" font-family="Helvetica,sans-Serif" font-size="10.00">ChatHelper.SendChatMessage</text>
<text text-anchor="middle" x="471.5" y="-100" font-family="Helvetica,sans-Serif" font-size="10.00">ToClientAs</text>
</a>
</g>
</g>
<!-- Node16&#45;&gt;Node17 -->
<g id="edge19" class="edge">
<title>Node16&#45;&gt;Node17</title>
<path fill="none" stroke="midnightblue" d="M344.12,-108C355.63,-108 367.54,-108 379.23,-108"/>
<polygon fill="midnightblue" stroke="midnightblue" points="379.44,-111.5 389.44,-108 379.44,-104.5 379.44,-111.5"/>
</g>
<!-- Node18 -->
<g id="node18" class="node">
<title>Node18</title>
<g id="a_node18"><a xlink:href="../../d0/d78/classChatHelper_a0715e738c747371f207f4591c9920332.html#a0715e738c747371f207f4591c9920332" target="_top" xlink:title=" ">
<polygon fill="white" stroke="black" points="605.5,-306.5 605.5,-325.5 759.5,-325.5 759.5,-306.5 605.5,-306.5"/>
<text text-anchor="middle" x="682.5" y="-313.5" font-family="Helvetica,sans-Serif" font-size="10.00">ChatHelper.DisplayMessage</text>
</a>
</g>
</g>
<!-- Node17&#45;&gt;Node18 -->
<g id="edge20" class="edge">
<title>Node17&#45;&gt;Node18</title>
<path fill="none" stroke="midnightblue" d="M545.83,-123.12C551.92,-125.88 557.74,-129.14 563,-133 622.17,-176.4 659.68,-259.01 674.4,-296.56"/>
<polygon fill="midnightblue" stroke="midnightblue" points="671.27,-298.18 678.1,-306.28 677.82,-295.69 671.27,-298.18"/>
</g>
<!-- Node29 -->
<g id="node29" class="node">
<title>Node29</title>
<g id="a_node29"><a xlink:href="../../d9/d9a/classNetManager_ad02923bc4ffd08466998300e72a5df1d.html#ad02923bc4ffd08466998300e72a5df1d" target="_top" xlink:title=" ">
<polygon fill="white" stroke="black" points="611.5,-73.5 611.5,-92.5 753.5,-92.5 753.5,-73.5 611.5,-73.5"/>
<text text-anchor="middle" x="682.5" y="-80.5" font-family="Helvetica,sans-Serif" font-size="10.00">NetManager.SendToClient</text>
</a>
</g>
</g>
<!-- Node17&#45;&gt;Node29 -->
<g id="edge34" class="edge">
<title>Node17&#45;&gt;Node29</title>
<path fill="none" stroke="midnightblue" d="M553.6,-98.3C569.23,-96.43 585.59,-94.47 601.19,-92.61"/>
<polygon fill="midnightblue" stroke="midnightblue" points="601.8,-96.06 611.31,-91.4 600.97,-89.11 601.8,-96.06"/>
</g>
<!-- Node35 -->
<g id="node35" class="node">
<title>Node35</title>
<g id="a_node35"><a xlink:href="../../d2/d7a/classNetTextModule_a2098d740a6d0b1cd6a2b418ad0a96afc.html#a2098d740a6d0b1cd6a2b418ad0a96afc" target="_top" xlink:title=" ">
<polygon fill="white" stroke="black" points="599,-112 599,-142 766,-142 766,-112 599,-112"/>
<text text-anchor="start" x="607" y="-130" font-family="Helvetica,sans-Serif" font-size="10.00">NetTextModule.SerializeServer</text>
<text text-anchor="middle" x="682.5" y="-119" font-family="Helvetica,sans-Serif" font-size="10.00">Message</text>
</a>
</g>
</g>
<!-- Node17&#45;&gt;Node35 -->
<g id="edge40" class="edge">
<title>Node17&#45;&gt;Node35</title>
<path fill="none" stroke="midnightblue" d="M553.6,-115.37C565.05,-116.41 576.9,-117.49 588.54,-118.55"/>
<polygon fill="midnightblue" stroke="midnightblue" points="588.44,-122.05 598.72,-119.47 589.08,-115.08 588.44,-122.05"/>
</g>
<!-- Node18&#45;&gt;Node6 -->
<g id="edge33" class="edge">
<title>Node18&#45;&gt;Node6</title>
<path fill="none" stroke="midnightblue" d="M692.28,-325.56C710.65,-344.93 755.31,-388.84 802,-411 808.23,-413.96 814.93,-416.46 821.75,-418.57"/>
<polygon fill="midnightblue" stroke="midnightblue" points="821.22,-422.06 831.79,-421.4 823.12,-415.32 821.22,-422.06"/>
</g>
<!-- Node19 -->
<g id="node19" class="node">
<title>Node19</title>
<g id="a_node19"><a xlink:href="../../d0/d78/classChatHelper_abc2c2e07f72143c26a3d510e0381c100.html#abc2c2e07f72143c26a3d510e0381c100" target="_top" xlink:title=" ">
<polygon fill="white" stroke="black" points="818.5,-344.5 818.5,-363.5 965.5,-363.5 965.5,-344.5 818.5,-344.5"/>
<text text-anchor="middle" x="892" y="-351.5" font-family="Helvetica,sans-Serif" font-size="10.00">ChatHelper.CacheMessage</text>
</a>
</g>
</g>
<!-- Node18&#45;&gt;Node19 -->
<g id="edge21" class="edge">
<title>Node18&#45;&gt;Node19</title>
<path fill="none" stroke="midnightblue" d="M735.59,-325.54C763.96,-330.73 799.24,-337.2 829.02,-342.65"/>
<polygon fill="midnightblue" stroke="midnightblue" points="828.42,-346.1 838.89,-344.46 829.68,-339.21 828.42,-346.1"/>
</g>
<!-- Node20 -->
<g id="node20" class="node">
<title>Node20</title>
<g id="a_node20"><a xlink:href="../../d5/dd1/classNameTagHandler_a4a889de1385bf90ea2c072c84bbf2b02.html#a4a889de1385bf90ea2c072c84bbf2b02" target="_top" xlink:title=" ">
<polygon fill="white" stroke="black" points="810,-306.5 810,-325.5 974,-325.5 974,-306.5 810,-306.5"/>
<text text-anchor="middle" x="892" y="-313.5" font-family="Helvetica,sans-Serif" font-size="10.00">NameTagHandler.GenerateTag</text>
</a>
</g>
</g>
<!-- Node18&#45;&gt;Node20 -->
<g id="edge22" class="edge">
<title>Node18&#45;&gt;Node20</title>
<path fill="none" stroke="midnightblue" d="M759.59,-316C772.58,-316 786.2,-316 799.55,-316"/>
<polygon fill="midnightblue" stroke="midnightblue" points="799.69,-319.5 809.69,-316 799.69,-312.5 799.69,-319.5"/>
</g>
<!-- Node21 -->
<g id="node21" class="node">
<title>Node21</title>
<g id="a_node21"><a xlink:href="../../db/dd5/structPlayer_1_1OverheadMessage_a9e7aa50b707a665cc81a4b4b6c6a0a4a.html#a9e7aa50b707a665cc81a4b4b6c6a0a4a" target="_top" xlink:title=" ">
<polygon fill="white" stroke="black" points="809.5,-257 809.5,-287 974.5,-287 974.5,-257 809.5,-257"/>
<text text-anchor="start" x="817.5" y="-275" font-family="Helvetica,sans-Serif" font-size="10.00">Player.OverheadMessage.New</text>
<text text-anchor="middle" x="892" y="-264" font-family="Helvetica,sans-Serif" font-size="10.00">Message</text>
</a>
</g>
</g>
<!-- Node18&#45;&gt;Node21 -->
<g id="edge23" class="edge">
<title>Node18&#45;&gt;Node21</title>
<path fill="none" stroke="midnightblue" d="M728.52,-306.45C752.3,-301.41 782.22,-295.07 809.88,-289.2"/>
<polygon fill="midnightblue" stroke="midnightblue" points="810.9,-292.56 819.95,-287.07 809.44,-285.72 810.9,-292.56"/>
</g>
<!-- Node26 -->
<g id="node26" class="node">
<title>Node26</title>
<g id="a_node26"><a xlink:href="../../db/d4a/classMain_a9efc927cc5e93de9e052b5ede94f8e8b.html#a9efc927cc5e93de9e052b5ede94f8e8b" target="_top" xlink:title=" ">
<polygon fill="white" stroke="black" points="828,-218.5 828,-237.5 956,-237.5 956,-218.5 828,-218.5"/>
<text text-anchor="middle" x="892" y="-225.5" font-family="Helvetica,sans-Serif" font-size="10.00">Main.NewTextMultiline</text>
</a>
</g>
</g>
<!-- Node18&#45;&gt;Node26 -->
<g id="edge29" class="edge">
<title>Node18&#45;&gt;Node26</title>
<path fill="none" stroke="midnightblue" d="M697.04,-306.4C718.38,-291.72 761.55,-263.74 802,-248 809.85,-244.95 818.28,-242.3 826.71,-240.02"/>
<polygon fill="midnightblue" stroke="midnightblue" points="827.74,-243.37 836.57,-237.51 826.02,-236.58 827.74,-243.37"/>
</g>
<!-- Node28 -->
<g id="node28" class="node">
<title>Node28</title>
<g id="a_node28"><a xlink:href="../../d0/d78/classChatHelper_ade99b4c8d8229d1febb767e072125f39.html#ade99b4c8d8229d1febb767e072125f39" target="_top" xlink:title=" ">
<polygon fill="white" stroke="black" points="802,-382.5 802,-401.5 982,-401.5 982,-382.5 802,-382.5"/>
<text text-anchor="middle" x="892" y="-389.5" font-family="Helvetica,sans-Serif" font-size="10.00">ChatHelper.ShouldCacheMessage</text>
</a>
</g>
</g>
<!-- Node18&#45;&gt;Node28 -->
<g id="edge32" class="edge">
<title>Node18&#45;&gt;Node28</title>
<path fill="none" stroke="midnightblue" d="M700.23,-325.63C722.7,-338.19 764.2,-360.08 802,-373 809.84,-375.68 818.21,-378.06 826.56,-380.15"/>
<polygon fill="midnightblue" stroke="midnightblue" points="825.78,-383.56 836.31,-382.47 827.4,-376.75 825.78,-383.56"/>
</g>
<!-- Node22 -->
<g id="node22" class="node">
<title>Node22</title>
<g id="a_node22"><a xlink:href="../../d7/dc6/classChatManager_abcb679c07a4670d4ce25b65275fbcb94.html#abcb679c07a4670d4ce25b65275fbcb94" target="_top" xlink:title=" ">
<polygon fill="white" stroke="black" points="1028,-297.5 1028,-316.5 1178,-316.5 1178,-297.5 1028,-297.5"/>
<text text-anchor="middle" x="1103" y="-304.5" font-family="Helvetica,sans-Serif" font-size="10.00">ChatManager.GetStringSize</text>
</a>
</g>
</g>
<!-- Node21&#45;&gt;Node22 -->
<g id="edge24" class="edge">
<title>Node21&#45;&gt;Node22</title>
<path fill="none" stroke="midnightblue" d="M974.7,-285.68C994.79,-289.05 1016.05,-292.61 1035.33,-295.84"/>
<polygon fill="midnightblue" stroke="midnightblue" points="1034.77,-299.29 1045.21,-297.49 1035.93,-292.39 1034.77,-299.29"/>
</g>
<!-- Node23 -->
<g id="node23" class="node">
<title>Node23</title>
<g id="a_node23"><a xlink:href="../../d7/dc6/classChatManager_a7914bd4ec2979a1ec1eae4c7255e7faf.html#a7914bd4ec2979a1ec1eae4c7255e7faf" target="_top" xlink:title=" ">
<polygon fill="white" stroke="black" points="1233.5,-278.5 1233.5,-297.5 1387.5,-297.5 1387.5,-278.5 1233.5,-278.5"/>
<text text-anchor="middle" x="1310.5" y="-285.5" font-family="Helvetica,sans-Serif" font-size="10.00">ChatManager.ParseMessage</text>
</a>
</g>
</g>
<!-- Node21&#45;&gt;Node23 -->
<g id="edge28" class="edge">
<title>Node21&#45;&gt;Node23</title>
<path fill="none" stroke="midnightblue" d="M974.79,-275.14C1046.4,-277.89 1150.12,-281.88 1223.08,-284.68"/>
<polygon fill="midnightblue" stroke="midnightblue" points="1223.04,-288.18 1233.16,-285.07 1223.3,-281.19 1223.04,-288.18"/>
</g>
<!-- Node22&#45;&gt;Node23 -->
<g id="edge25" class="edge">
<title>Node22&#45;&gt;Node23</title>
<path fill="none" stroke="midnightblue" d="M1178.19,-300.14C1192.76,-298.79 1208.17,-297.37 1223.1,-295.99"/>
<polygon fill="midnightblue" stroke="midnightblue" points="1223.71,-299.45 1233.34,-295.04 1223.06,-292.48 1223.71,-299.45"/>
</g>
<!-- Node24 -->
<g id="node24" class="node">
<title>Node24</title>
<g id="a_node24"><a xlink:href="../../d7/dc6/classChatManager_a4ff17f19ee2ad551af3ee7117dd6a749.html#a4ff17f19ee2ad551af3ee7117dd6a749" target="_top" xlink:title=" ">
<polygon fill="white" stroke="black" points="1433,-297.5 1433,-316.5 1573,-316.5 1573,-297.5 1433,-297.5"/>
<text text-anchor="middle" x="1503" y="-304.5" font-family="Helvetica,sans-Serif" font-size="10.00">ChatManager.GetHandler</text>
</a>
</g>
</g>
<!-- Node23&#45;&gt;Node24 -->
<g id="edge26" class="edge">
<title>Node23&#45;&gt;Node24</title>
<path fill="none" stroke="midnightblue" d="M1387.61,-295.59C1399.15,-296.74 1411.09,-297.93 1422.7,-299.09"/>
<polygon fill="midnightblue" stroke="midnightblue" points="1422.5,-302.59 1432.8,-300.1 1423.19,-295.62 1422.5,-302.59"/>
</g>
<!-- Node25 -->
<g id="node25" class="node">
<title>Node25</title>
<g id="a_node25"><a xlink:href="../../d6/d0b/interfaceITagHandler_ae7081b735b2192ef8ef88676df4be15d.html#ae7081b735b2192ef8ef88676df4be15d" target="_top" xlink:title=" ">
<polygon fill="white" stroke="black" points="1451.5,-259.5 1451.5,-278.5 1554.5,-278.5 1554.5,-259.5 1451.5,-259.5"/>
<text text-anchor="middle" x="1503" y="-266.5" font-family="Helvetica,sans-Serif" font-size="10.00">ITagHandler.Parse</text>
</a>
</g>
</g>
<!-- Node23&#45;&gt;Node25 -->
<g id="edge27" class="edge">
<title>Node23&#45;&gt;Node25</title>
<path fill="none" stroke="midnightblue" d="M1387.61,-280.41C1405.38,-278.64 1424.07,-276.77 1441.08,-275.08"/>
<polygon fill="midnightblue" stroke="midnightblue" points="1441.82,-278.52 1451.42,-274.04 1441.13,-271.55 1441.82,-278.52"/>
</g>
<!-- Node26&#45;&gt;Node15 -->
<g id="edge31" class="edge">
<title>Node26&#45;&gt;Node15</title>
<path fill="none" stroke="midnightblue" d="M945.47,-218.46C974.04,-213.27 1009.58,-206.8 1039.57,-201.35"/>
<polygon fill="midnightblue" stroke="midnightblue" points="1040.3,-204.78 1049.51,-199.54 1039.04,-197.89 1040.3,-204.78"/>
</g>
<!-- Node27 -->
<g id="node27" class="node">
<title>Node27</title>
<g id="a_node27"><a xlink:href="../../d4/d65/interfaceIChatMonitor_aead617f6d787c79d30a40e11f51b5a72.html#aead617f6d787c79d30a40e11f51b5a72" target="_top" xlink:title=" ">
<polygon fill="white" stroke="black" points="1019.5,-218.5 1019.5,-237.5 1186.5,-237.5 1186.5,-218.5 1019.5,-218.5"/>
<text text-anchor="middle" x="1103" y="-225.5" font-family="Helvetica,sans-Serif" font-size="10.00">IChatMonitor.NewTextMultiline</text>
</a>
</g>
</g>
<!-- Node26&#45;&gt;Node27 -->
<g id="edge30" class="edge">
<title>Node26&#45;&gt;Node27</title>
<path fill="none" stroke="midnightblue" d="M956.27,-228C972.85,-228 991.06,-228 1008.84,-228"/>
<polygon fill="midnightblue" stroke="midnightblue" points="1009.24,-231.5 1019.24,-228 1009.24,-224.5 1009.24,-231.5"/>
</g>
<!-- Node30 -->
<g id="node30" class="node">
<title>Node30</title>
<g id="a_node30"><a xlink:href="../../d9/d9a/classNetManager_ac03094689ce044c2439412fde3ce02b0.html#ac03094689ce044c2439412fde3ce02b0" target="_top" xlink:title=" ">
<polygon fill="white" stroke="black" points="829,-73.5 829,-92.5 955,-92.5 955,-73.5 829,-73.5"/>
<text text-anchor="middle" x="892" y="-80.5" font-family="Helvetica,sans-Serif" font-size="10.00">NetManager.SendData</text>
</a>
</g>
</g>
<!-- Node29&#45;&gt;Node30 -->
<g id="edge35" class="edge">
<title>Node29&#45;&gt;Node30</title>
<path fill="none" stroke="midnightblue" d="M753.75,-83C774.67,-83 797.61,-83 818.66,-83"/>
<polygon fill="midnightblue" stroke="midnightblue" points="818.82,-86.5 828.82,-83 818.82,-79.5 818.82,-86.5"/>
</g>
<!-- Node31 -->
<g id="node31" class="node">
<title>Node31</title>
<g id="a_node31"><a xlink:href="../../dd/dc4/interfaceISocket_a511af46ee3de67c1203113b24bb71d07.html#a511af46ee3de67c1203113b24bb71d07" target="_top" xlink:title=" ">
<polygon fill="white" stroke="black" points="1049,-88.5 1049,-107.5 1157,-107.5 1157,-88.5 1049,-88.5"/>
<text text-anchor="middle" x="1103" y="-95.5" font-family="Helvetica,sans-Serif" font-size="10.00">ISocket.AsyncSend</text>
</a>
</g>
</g>
<!-- Node30&#45;&gt;Node31 -->
<g id="edge36" class="edge">
<title>Node30&#45;&gt;Node31</title>
<path fill="none" stroke="midnightblue" d="M955.14,-87.46C981.49,-89.35 1012.15,-91.55 1038.63,-93.45"/>
<polygon fill="midnightblue" stroke="midnightblue" points="1038.71,-96.97 1048.93,-94.19 1039.21,-89.98 1038.71,-96.97"/>
</g>
<!-- Node32 -->
<g id="node32" class="node">
<title>Node32</title>
<g id="a_node32"><a xlink:href="../../d1/d6d/interfaceINetDiagnosticsUI_afd60b5e9c7fb514d13484421502f1aa3.html#afd60b5e9c7fb514d13484421502f1aa3" target="_top" xlink:title=" ">
<polygon fill="white" stroke="black" points="1024,-39 1024,-69 1182,-69 1182,-39 1024,-39"/>
<text text-anchor="start" x="1032" y="-57" font-family="Helvetica,sans-Serif" font-size="10.00">INetDiagnosticsUI.CountSent</text>
<text text-anchor="middle" x="1103" y="-46" font-family="Helvetica,sans-Serif" font-size="10.00">ModuleMessage</text>
</a>
</g>
</g>
<!-- Node30&#45;&gt;Node32 -->
<g id="edge37" class="edge">
<title>Node30&#45;&gt;Node32</title>
<path fill="none" stroke="midnightblue" d="M955.14,-74.38C973.57,-71.82 994.11,-68.97 1013.85,-66.23"/>
<polygon fill="midnightblue" stroke="midnightblue" points="1014.35,-69.7 1023.77,-64.85 1013.39,-62.76 1014.35,-69.7"/>
</g>
<!-- Node33 -->
<g id="node33" class="node">
<title>Node33</title>
<g id="a_node33"><a xlink:href="../../d9/d9a/classNetManager_aed6f7132a380634360c13187009a420e.html#aed6f7132a380634360c13187009a420e" target="_top" xlink:title=" ">
<polygon fill="white" stroke="black" points="1030.5,-0.5 1030.5,-19.5 1175.5,-19.5 1175.5,-0.5 1030.5,-0.5"/>
<text text-anchor="middle" x="1103" y="-7.5" font-family="Helvetica,sans-Serif" font-size="10.00">NetManager.SendCallback</text>
</a>
</g>
</g>
<!-- Node30&#45;&gt;Node33 -->
<g id="edge38" class="edge">
<title>Node30&#45;&gt;Node33</title>
<path fill="none" stroke="midnightblue" d="M912.06,-73.44C936.2,-61.65 979.34,-41.6 1018,-29 1025.97,-26.4 1034.48,-24.03 1042.9,-21.91"/>
<polygon fill="midnightblue" stroke="midnightblue" points="1043.82,-25.29 1052.72,-19.54 1042.18,-18.49 1043.82,-25.29"/>
</g>
<!-- Node34 -->
<g id="node34" class="node">
<title>Node34</title>
<g id="a_node34"><a xlink:href="../../da/d23/structNetPacket_a2bb590c1ed30bf03d7ece82a7d3798c8.html#a2bb590c1ed30bf03d7ece82a7d3798c8" target="_top" xlink:title=" ">
<polygon fill="white" stroke="black" points="1042,-126.5 1042,-145.5 1164,-145.5 1164,-126.5 1042,-126.5"/>
<text text-anchor="middle" x="1103" y="-133.5" font-family="Helvetica,sans-Serif" font-size="10.00">NetPacket.ShrinkToFit</text>
</a>
</g>
</g>
<!-- Node30&#45;&gt;Node34 -->
<g id="edge39" class="edge">
<title>Node30&#45;&gt;Node34</title>
<path fill="none" stroke="midnightblue" d="M926.59,-92.56C951.69,-99.6 986.9,-109.26 1018,-117 1027.79,-119.44 1038.26,-121.91 1048.37,-124.23"/>
<polygon fill="midnightblue" stroke="midnightblue" points="1047.79,-127.69 1058.32,-126.49 1049.34,-120.86 1047.79,-127.69"/>
</g>
</g>
</svg>
        <g id="navigator" transform="translate(0 0)" fill="#404254">
                <rect fill="#f2f5e9" fill-opacity="0.5" stroke="#606060" stroke-width=".5" x="0" y="0" width="60" height="60"/>
                <use id="zoomplus" xlink:href="#zoomPlus" x="17" y="9" onmousedown="handleZoom(evt,'in')"/>
                <use id="zoomminus" xlink:href="#zoomMin" x="42" y="9" onmousedown="handleZoom(evt,'out')"/>
                <use id="reset" xlink:href="#resetDef" x="30" y="36" onmousedown="handleReset()"/>
                <g id="arrowUp" xlink:href="#dirArrow" transform="translate(30 24)" onmousedown="handlePan(0,-1)">
                  <use xlink:href="#rim" fill="#404040">
                        <set attributeName="fill" to="#808080" begin="arrowUp.mouseover" end="arrowUp.mouseout"/>
                  </use>
                  <path fill="none" stroke="white" stroke-width="1.5" d="M0,-3.0v7 M-2.5,-0.5L0,-3.0L2.5,-0.5"/>
                </g>
                <g id="arrowRight" xlink:href="#dirArrow" transform="rotate(90) translate(36 -43)" onmousedown="handlePan(1,0)">
                  <use xlink:href="#rim" fill="#404040">
                        <set attributeName="fill" to="#808080" begin="arrowRight.mouseover" end="arrowRight.mouseout"/>
                  </use>
                  <path fill="none" stroke="white" stroke-width="1.5" d="M0,-3.0v7 M-2.5,-0.5L0,-3.0L2.5,-0.5"/>
                </g>
                <g id="arrowDown" xlink:href="#dirArrow" transform="rotate(180) translate(-30 -48)" onmousedown="handlePan(0,1)">
                  <use xlink:href="#rim" fill="#404040">
                        <set attributeName="fill" to="#808080" begin="arrowDown.mouseover" end="arrowDown.mouseout"/>
                  </use>
                  <path fill="none" stroke="white" stroke-width="1.5" d="M0,-3.0v7 M-2.5,-0.5L0,-3.0L2.5,-0.5"/>
                </g>
                <g id="arrowLeft" xlink:href="#dirArrow" transform="rotate(270) translate(-36 17)" onmousedown="handlePan(-1,0)">
                  <use xlink:href="#rim" fill="#404040">
                        <set attributeName="fill" to="#808080" begin="arrowLeft.mouseover" end="arrowLeft.mouseout"/>
                  </use>
                  <path fill="none" stroke="white" stroke-width="1.5" d="M0,-3.0v7 M-2.5,-0.5L0,-3.0L2.5,-0.5"/>
                </g>
        </g>
        <svg viewBox="0 0 15 15" width="100%" height="30px" preserveAspectRatio="xMaxYMin meet">
         <g id="arrow_out" transform="scale(0.3 0.3)">
          <a xlink:href="classDD2Event_a8adb8c60f633249103f29ac80f1c87b3_a8adb8c60f633249103f29ac80f1c87b3_cgraph_org.svg" target="_base">
           <rect id="button" ry="5" rx="5" y="6" x="6" height="38" width="38"
                fill="#f2f5e9" fill-opacity="0.5" stroke="#606060" stroke-width="1.0"/>
           <path id="arrow"
             d="M 11.500037,31.436501 C 11.940474,20.09759 22.043105,11.32322 32.158766,21.979434 L 37.068811,17.246167 C 37.068811,17.246167 37.088388,32 37.088388,32 L 22.160133,31.978069 C 22.160133,31.978069 26.997745,27.140456 26.997745,27.140456 C 18.528582,18.264221 13.291696,25.230495 11.500037,31.436501 z"
             style="fill:#404040;"/>
          </a>
         </g>
        </svg>
</svg>
