<?xml version="1.0" encoding="UTF-8" standalone="no"?>
<!DOCTYPE svg PUBLIC "-//W3C//DTD SVG 1.1//EN"
 "http://www.w3.org/Graphics/SVG/1.1/DTD/svg11.dtd">
<!-- Generated by graphviz version 2.43.0 (0)
 -->
<!-- Title: DD2Event.GetSpawnSource_OldOnesArmy Pages: 1 -->
<svg width="658pt" height="137pt"
 viewBox="0.00 0.00 658.00 137.00" xmlns="http://www.w3.org/2000/svg" xmlns:xlink="http://www.w3.org/1999/xlink">
<g id="graph0" class="graph" transform="scale(1 1) rotate(0) translate(4 133)">
<title>DD2Event.GetSpawnSource_OldOnesArmy</title>
<polygon fill="white" stroke="transparent" points="-4,4 -4,-133 654,-133 654,4 -4,4"/>
<!-- Node1 -->
<g id="node1" class="node">
<title>Node1</title>
<g id="a_node1"><a xlink:title=" ">
<polygon fill="#bfbfbf" stroke="black" points="499,-49.5 499,-79.5 650,-79.5 650,-49.5 499,-49.5"/>
<text text-anchor="start" x="507" y="-67.5" font-family="Helvetica,sans-Serif" font-size="10.00">DD2Event.GetSpawnSource</text>
<text text-anchor="middle" x="574.5" y="-56.5" font-family="Helvetica,sans-Serif" font-size="10.00">_OldOnesArmy</text>
</a>
</g>
</g>
<!-- Node2 -->
<g id="node2" class="node">
<title>Node2</title>
<g id="a_node2"><a xlink:href="../../d9/dd4/classDD2Event_a1f0649896bc06ae76167eaa1e9a2727b.html#a1f0649896bc06ae76167eaa1e9a2727b" target="_top" xlink:title=" ">
<polygon fill="white" stroke="black" points="310,-98.5 310,-128.5 463,-128.5 463,-98.5 310,-98.5"/>
<text text-anchor="start" x="318" y="-116.5" font-family="Helvetica,sans-Serif" font-size="10.00">DD2Event.Difficulty</text>
<text text-anchor="middle" x="386.5" y="-105.5" font-family="Helvetica,sans-Serif" font-size="10.00">_1_SpawnMonsterFromGate</text>
</a>
</g>
</g>
<!-- Node1&#45;&gt;Node2 -->
<g id="edge1" class="edge">
<title>Node1&#45;&gt;Node2</title>
<path fill="none" stroke="midnightblue" d="M506.6,-82.12C486.26,-87.48 464.09,-93.32 444.46,-98.49"/>
<polygon fill="midnightblue" stroke="midnightblue" points="507.65,-85.47 516.43,-79.53 505.87,-78.7 507.65,-85.47"/>
</g>
<!-- Node5 -->
<g id="node5" class="node">
<title>Node5</title>
<g id="a_node5"><a xlink:href="../../d9/dd4/classDD2Event_acaeb95c48a488f899ef345627f356601.html#acaeb95c48a488f899ef345627f356601" target="_top" xlink:title=" ">
<polygon fill="white" stroke="black" points="310,-49.5 310,-79.5 463,-79.5 463,-49.5 310,-49.5"/>
<text text-anchor="start" x="318" y="-67.5" font-family="Helvetica,sans-Serif" font-size="10.00">DD2Event.Difficulty</text>
<text text-anchor="middle" x="386.5" y="-56.5" font-family="Helvetica,sans-Serif" font-size="10.00">_2_SpawnMonsterFromGate</text>
</a>
</g>
</g>
<!-- Node1&#45;&gt;Node5 -->
<g id="edge4" class="edge">
<title>Node1&#45;&gt;Node5</title>
<path fill="none" stroke="midnightblue" d="M488.86,-64.5C480.24,-64.5 471.52,-64.5 463.01,-64.5"/>
<polygon fill="midnightblue" stroke="midnightblue" points="488.92,-68 498.92,-64.5 488.92,-61 488.92,-68"/>
</g>
<!-- Node6 -->
<g id="node6" class="node">
<title>Node6</title>
<g id="a_node6"><a xlink:href="../../d9/dd4/classDD2Event_ac40d4b768f69f56b84b24bf5ff8f7e6f.html#ac40d4b768f69f56b84b24bf5ff8f7e6f" target="_top" xlink:title=" ">
<polygon fill="white" stroke="black" points="310,-0.5 310,-30.5 463,-30.5 463,-0.5 310,-0.5"/>
<text text-anchor="start" x="318" y="-18.5" font-family="Helvetica,sans-Serif" font-size="10.00">DD2Event.Difficulty</text>
<text text-anchor="middle" x="386.5" y="-7.5" font-family="Helvetica,sans-Serif" font-size="10.00">_3_SpawnMonsterFromGate</text>
</a>
</g>
</g>
<!-- Node1&#45;&gt;Node6 -->
<g id="edge6" class="edge">
<title>Node1&#45;&gt;Node6</title>
<path fill="none" stroke="midnightblue" d="M506.6,-46.88C486.26,-41.52 464.09,-35.68 444.46,-30.51"/>
<polygon fill="midnightblue" stroke="midnightblue" points="505.87,-50.3 516.43,-49.47 507.65,-43.53 505.87,-50.3"/>
</g>
<!-- Node3 -->
<g id="node3" class="node">
<title>Node3</title>
<g id="a_node3"><a xlink:href="../../d9/dd4/classDD2Event_ae51bee14ae5fed5076262c90463d3579.html#ae51bee14ae5fed5076262c90463d3579" target="_top" xlink:title=" ">
<polygon fill="white" stroke="black" points="86,-55 86,-74 274,-74 274,-55 86,-55"/>
<text text-anchor="middle" x="180" y="-62" font-family="Helvetica,sans-Serif" font-size="10.00">DD2Event.SpawnMonsterFromGate</text>
</a>
</g>
</g>
<!-- Node2&#45;&gt;Node3 -->
<g id="edge2" class="edge">
<title>Node2&#45;&gt;Node3</title>
<path fill="none" stroke="midnightblue" d="M312.85,-96.09C281.86,-88.67 246.9,-80.29 220.76,-74.03"/>
<polygon fill="midnightblue" stroke="midnightblue" points="312.21,-99.54 322.75,-98.47 313.84,-92.73 312.21,-99.54"/>
</g>
<!-- Node4 -->
<g id="node4" class="node">
<title>Node4</title>
<g id="a_node4"><a xlink:href="../../de/d71/classNPC_a17ed2c012faea9329e4ada130ed1ac5f.html#a17ed2c012faea9329e4ada130ed1ac5f" target="_top" xlink:title=" ">
<polygon fill="white" stroke="black" points="0,-55 0,-74 50,-74 50,-55 0,-55"/>
<text text-anchor="middle" x="25" y="-62" font-family="Helvetica,sans-Serif" font-size="10.00">NPC.AI</text>
</a>
</g>
</g>
<!-- Node3&#45;&gt;Node4 -->
<g id="edge3" class="edge">
<title>Node3&#45;&gt;Node4</title>
<path fill="none" stroke="midnightblue" d="M75.36,-64.5C66.12,-64.5 57.48,-64.5 50.1,-64.5"/>
<polygon fill="midnightblue" stroke="midnightblue" points="75.59,-68 85.59,-64.5 75.59,-61 75.59,-68"/>
</g>
<!-- Node5&#45;&gt;Node3 -->
<g id="edge5" class="edge">
<title>Node5&#45;&gt;Node3</title>
<path fill="none" stroke="midnightblue" d="M299.76,-64.5C291.35,-64.5 282.78,-64.5 274.29,-64.5"/>
<polygon fill="midnightblue" stroke="midnightblue" points="299.93,-68 309.93,-64.5 299.93,-61 299.93,-68"/>
</g>
<!-- Node6&#45;&gt;Node3 -->
<g id="edge7" class="edge">
<title>Node6&#45;&gt;Node3</title>
<path fill="none" stroke="midnightblue" d="M312.85,-32.91C281.86,-40.33 246.9,-48.71 220.76,-54.97"/>
<polygon fill="midnightblue" stroke="midnightblue" points="313.84,-36.27 322.75,-30.53 312.21,-29.46 313.84,-36.27"/>
</g>
</g>
</svg>
