<?xml version="1.0" encoding="UTF-8" standalone="no"?>
<!DOCTYPE svg PUBLIC "-//W3C//DTD SVG 1.1//EN"
 "http://www.w3.org/Graphics/SVG/1.1/DTD/svg11.dtd">
<!-- Generated by graphviz version 2.43.0 (0)
 -->
<!-- Title: Terraria.GameContent.Animations.Actions.Players.IPlayerAction Pages: 1 -->
<svg width="187pt" height="398pt"
 viewBox="0.00 0.00 187.00 398.00" xmlns="http://www.w3.org/2000/svg" xmlns:xlink="http://www.w3.org/1999/xlink">
<g id="graph0" class="graph" transform="scale(1 1) rotate(0) translate(4 394)">
<title>Terraria.GameContent.Animations.Actions.Players.IPlayerAction</title>
<!-- Node1 -->
<g id="Node000001" class="node">
<title>Node1</title>
<g id="a_Node000001"><a xlink:title=" ">
<polygon fill="#999999" stroke="transparent" points="179,-60 0,-60 0,0 179,0 179,-60"/>
<text text-anchor="start" x="5.5" y="-48" font-family="Helvetica,sans-Serif" font-size="10.00">Terraria.GameContent.Animations.</text>
<text text-anchor="start" x="18.5" y="-37" font-family="Helvetica,sans-Serif" font-size="10.00">Actions.Players.IPlayerAction</text>
<text text-anchor="start" x="88" y="-22" font-family="Helvetica,sans-Serif" font-size="10.00"> </text>
<text text-anchor="start" x="88" y="-7" font-family="Helvetica,sans-Serif" font-size="10.00"> </text>
<polygon fill="#666666" stroke="#666666" points="0.5,-32 0.5,-32 179.5,-32 179.5,-32 0.5,-32"/>
<polygon fill="#666666" stroke="#666666" points="0.5,-17 0.5,-17 179.5,-17 179.5,-17 0.5,-17"/>
<polygon fill="none" stroke="#666666" points="0,0 0,-60 179,-60 179,0 0,0"/>
</a>
</g>
</g>
<!-- Node2 -->
<g id="Node000002" class="node">
<title>Node2</title>
<g id="a_Node000002"><a xlink:href="../../d1/d86/interfaceTerraria_1_1GameContent_1_1Animations_1_1IAnimationSegmentAction.html" target="_top" xlink:title=" ">
<polygon fill="white" stroke="transparent" points="168,-220 11,-220 11,-97 168,-97 168,-220"/>
<text text-anchor="start" x="26" y="-207.5" font-family="Helvetica,sans-Serif" font-size="10.00">IAnimationSegmentAction</text>
<text text-anchor="start" x="63" y="-196.5" font-family="Helvetica,sans-Serif" font-size="10.00">&lt; Player &gt;</text>
<text text-anchor="start" x="15.5" y="-181.5" font-family="Helvetica,sans-Serif" font-size="10.00">+</text>
<text text-anchor="start" x="28.5" y="-181.5" font-family="Helvetica,sans-Serif" font-size="10.00">int ExpectedLengthOfAction</text>
<text text-anchor="start" x="28.5" y="-170.5" font-family="Helvetica,sans-Serif" font-size="10.00">InFrames</text>
<text text-anchor="start" x="15.5" y="-155.5" font-family="Helvetica,sans-Serif" font-size="10.00">+</text>
<text text-anchor="start" x="28.5" y="-155.5" font-family="Helvetica,sans-Serif" font-size="10.00">void BindTo(T obj)</text>
<text text-anchor="start" x="15.5" y="-140.5" font-family="Helvetica,sans-Serif" font-size="10.00">+</text>
<text text-anchor="start" x="28.5" y="-140.5" font-family="Helvetica,sans-Serif" font-size="10.00">void ApplyTo(T obj,</text>
<text text-anchor="start" x="28.5" y="-129.5" font-family="Helvetica,sans-Serif" font-size="10.00"> float localTimeForObj)</text>
<text text-anchor="start" x="15.5" y="-114.5" font-family="Helvetica,sans-Serif" font-size="10.00">+</text>
<text text-anchor="start" x="28.5" y="-114.5" font-family="Helvetica,sans-Serif" font-size="10.00">void SetDelay(float</text>
<text text-anchor="start" x="28.5" y="-103.5" font-family="Helvetica,sans-Serif" font-size="10.00"> delay)</text>
<polygon fill="#666666" stroke="#666666" points="11.5,-191.5 11.5,-191.5 168.5,-191.5 168.5,-191.5 11.5,-191.5"/>
<polygon fill="#666666" stroke="#666666" points="11.5,-165.5 11.5,-165.5 26.5,-165.5 26.5,-165.5 11.5,-165.5"/>
<polygon fill="#666666" stroke="#666666" points="26.5,-165.5 26.5,-165.5 168.5,-165.5 168.5,-165.5 26.5,-165.5"/>
<polygon fill="none" stroke="#666666" points="11,-97 11,-220 168,-220 168,-97 11,-97"/>
</a>
</g>
</g>
<!-- Node2&#45;&gt;Node1 -->
<g id="edge1_Node000001_Node000002" class="edge">
<title>Node2&#45;&gt;Node1</title>
<g id="a_edge1_Node000001_Node000002"><a xlink:title=" ">
<path fill="none" stroke="#63b8ff" d="M89.5,-86.65C89.5,-77.29 89.5,-68.17 89.5,-60.1"/>
<polygon fill="none" stroke="#63b8ff" points="86,-86.84 89.5,-96.84 93,-86.84 86,-86.84"/>
</a>
</g>
</g>
<!-- Node3 -->
<g id="Node000003" class="node">
<title>Node3</title>
<g id="a_Node000003"><a xlink:href="../../d1/d86/interfaceTerraria_1_1GameContent_1_1Animations_1_1IAnimationSegmentAction.html" target="_top" xlink:title=" ">
<polygon fill="white" stroke="transparent" points="179,-390 0,-390 0,-267 179,-267 179,-390"/>
<text text-anchor="start" x="5.5" y="-377.5" font-family="Helvetica,sans-Serif" font-size="10.00">Terraria.GameContent.Animations.</text>
<text text-anchor="start" x="11.5" y="-366.5" font-family="Helvetica,sans-Serif" font-size="10.00">IAnimationSegmentAction&lt; T &gt;</text>
<text text-anchor="start" x="10" y="-351.5" font-family="Helvetica,sans-Serif" font-size="10.00">+</text>
<text text-anchor="start" x="28.5" y="-351.5" font-family="Helvetica,sans-Serif" font-size="10.00">int ExpectedLengthOfAction</text>
<text text-anchor="start" x="28.5" y="-340.5" font-family="Helvetica,sans-Serif" font-size="10.00">InFrames</text>
<text text-anchor="start" x="10" y="-325.5" font-family="Helvetica,sans-Serif" font-size="10.00">+</text>
<text text-anchor="start" x="28.5" y="-325.5" font-family="Helvetica,sans-Serif" font-size="10.00">void BindTo(T obj)</text>
<text text-anchor="start" x="10" y="-310.5" font-family="Helvetica,sans-Serif" font-size="10.00">+</text>
<text text-anchor="start" x="28.5" y="-310.5" font-family="Helvetica,sans-Serif" font-size="10.00">void ApplyTo(T obj,</text>
<text text-anchor="start" x="28.5" y="-299.5" font-family="Helvetica,sans-Serif" font-size="10.00"> float localTimeForObj)</text>
<text text-anchor="start" x="10" y="-284.5" font-family="Helvetica,sans-Serif" font-size="10.00">+</text>
<text text-anchor="start" x="28.5" y="-284.5" font-family="Helvetica,sans-Serif" font-size="10.00">void SetDelay(float</text>
<text text-anchor="start" x="28.5" y="-273.5" font-family="Helvetica,sans-Serif" font-size="10.00"> delay)</text>
<polygon fill="#666666" stroke="#666666" points="0.5,-361.5 0.5,-361.5 179.5,-361.5 179.5,-361.5 0.5,-361.5"/>
<polygon fill="#666666" stroke="#666666" points="0.5,-335.5 0.5,-335.5 26.5,-335.5 26.5,-335.5 0.5,-335.5"/>
<polygon fill="#666666" stroke="#666666" points="26.5,-335.5 26.5,-335.5 179.5,-335.5 179.5,-335.5 26.5,-335.5"/>
<polygon fill="none" stroke="#666666" points="0,-267 0,-390 179,-390 179,-267 0,-267"/>
</a>
</g>
</g>
<!-- Node3&#45;&gt;Node2 -->
<g id="edge2_Node000002_Node000003" class="edge">
<title>Node3&#45;&gt;Node2</title>
<g id="a_edge2_Node000002_Node000003"><a xlink:title=" ">
<path fill="none" stroke="orange" d="M89.5,-256.72C89.5,-244.53 89.5,-231.95 89.5,-220.06"/>
<polygon fill="orange" stroke="orange" points="86,-256.85 89.5,-266.85 93,-256.85 86,-256.85"/>
</a>
</g>
<text text-anchor="middle" x="118" y="-241" font-family="Helvetica,sans-Serif" font-size="10.00" fill="grey"> &lt; Player &gt;</text>
</g>
</g>
</svg>
