<?xml version="1.0" encoding="UTF-8" standalone="no"?>
<!DOCTYPE svg PUBLIC "-//W3C//DTD SVG 1.1//EN"
 "http://www.w3.org/Graphics/SVG/1.1/DTD/svg11.dtd">
<!-- Generated by graphviz version 2.43.0 (0)
 -->
<!-- Title: Terraria.GameContent.Skies.CreditsRoll.CreditsRollComposer.PlaySegment_TextRoll Pages: 1 -->
<svg width="591pt" height="86pt"
 viewBox="0.00 0.00 591.00 86.00" xmlns="http://www.w3.org/2000/svg" xmlns:xlink="http://www.w3.org/1999/xlink">
<g id="graph0" class="graph" transform="scale(1 1) rotate(0) translate(4 82)">
<title>Terraria.GameContent.Skies.CreditsRoll.CreditsRollComposer.PlaySegment_TextRoll</title>
<!-- Node1 -->
<g id="Node000001" class="node">
<title>Node1</title>
<g id="a_Node000001"><a xlink:title=" ">
<polygon fill="#999999" stroke="#666666" points="178,-59.5 0,-59.5 0,-18.5 178,-18.5 178,-59.5"/>
<text text-anchor="start" x="8" y="-47.5" font-family="Helvetica,sans-Serif" font-size="10.00">Terraria.GameContent.Skies.</text>
<text text-anchor="start" x="8" y="-36.5" font-family="Helvetica,sans-Serif" font-size="10.00">CreditsRoll.CreditsRollComposer.</text>
<text text-anchor="middle" x="89" y="-25.5" font-family="Helvetica,sans-Serif" font-size="10.00">PlaySegment_TextRoll</text>
</a>
</g>
</g>
<!-- Node2 -->
<g id="Node000002" class="node">
<title>Node2</title>
<g id="a_Node000002"><a xlink:href="../../df/dd3/classTerraria_1_1Lang_adb3fcf36ca1334a7cc5d3e54e03588f7.html#adb3fcf36ca1334a7cc5d3e54e03588f7" target="_top" xlink:title=" ">
<polygon fill="white" stroke="#666666" points="371,-78 225,-78 225,-48 371,-48 371,-78"/>
<text text-anchor="start" x="233" y="-66" font-family="Helvetica,sans-Serif" font-size="10.00">Terraria.Lang.CreateDialog</text>
<text text-anchor="middle" x="298" y="-55" font-family="Helvetica,sans-Serif" font-size="10.00">Filter</text>
</a>
</g>
</g>
<!-- Node1&#45;&gt;Node2 -->
<g id="edge1_Node000001_Node000002" class="edge">
<title>Node1&#45;&gt;Node2</title>
<g id="a_edge1_Node000001_Node000002"><a xlink:title=" ">
<path fill="none" stroke="#63b8ff" d="M178.09,-49.21C190.29,-50.63 202.79,-52.08 214.89,-53.48"/>
<polygon fill="#63b8ff" stroke="#63b8ff" points="214.6,-56.97 224.93,-54.64 215.4,-50.02 214.6,-56.97"/>
</a>
</g>
</g>
<!-- Node4 -->
<g id="Node000004" class="node">
<title>Node4</title>
<g id="a_Node000004"><a xlink:href="../../d4/d8f/classTerraria_1_1Localization_1_1Language_a14c611ca3099d305ae1323304429a6c9.html#a14c611ca3099d305ae1323304429a6c9" target="_top" xlink:title=" ">
<polygon fill="white" stroke="#666666" points="382,-30 214,-30 214,0 382,0 382,-30"/>
<text text-anchor="start" x="222" y="-18" font-family="Helvetica,sans-Serif" font-size="10.00">Terraria.Localization.Language.</text>
<text text-anchor="middle" x="298" y="-7" font-family="Helvetica,sans-Serif" font-size="10.00">FindAll</text>
</a>
</g>
</g>
<!-- Node1&#45;&gt;Node4 -->
<g id="edge3_Node000001_Node000004" class="edge">
<title>Node1&#45;&gt;Node4</title>
<g id="a_edge3_Node000001_Node000004"><a xlink:title=" ">
<path fill="none" stroke="#63b8ff" d="M178.09,-28.79C186.63,-27.8 195.31,-26.79 203.9,-25.79"/>
<polygon fill="#63b8ff" stroke="#63b8ff" points="204.4,-29.26 213.93,-24.63 203.59,-22.31 204.4,-29.26"/>
</a>
</g>
</g>
<!-- Node3 -->
<g id="Node000003" class="node">
<title>Node3</title>
<g id="a_Node000003"><a xlink:href="../../d5/d73/classTerraria_1_1Localization_1_1LocalizedText_a8465a4e8662fbe15d206b2bbd0181e99.html#a8465a4e8662fbe15d206b2bbd0181e99" target="_top" xlink:title=" ">
<polygon fill="white" stroke="#666666" points="582.5,-78 418.5,-78 418.5,-48 582.5,-48 582.5,-78"/>
<text text-anchor="start" x="426.5" y="-66" font-family="Helvetica,sans-Serif" font-size="10.00">Terraria.Localization.Localized</text>
<text text-anchor="middle" x="500.5" y="-55" font-family="Helvetica,sans-Serif" font-size="10.00">Text.CanFormatWith</text>
</a>
</g>
</g>
<!-- Node2&#45;&gt;Node3 -->
<g id="edge2_Node000002_Node000003" class="edge">
<title>Node2&#45;&gt;Node3</title>
<g id="a_edge2_Node000002_Node000003"><a xlink:title=" ">
<path fill="none" stroke="#63b8ff" d="M371.1,-63C383.03,-63 395.54,-63 407.87,-63"/>
<polygon fill="#63b8ff" stroke="#63b8ff" points="408.17,-66.5 418.17,-63 408.17,-59.5 408.17,-66.5"/>
</a>
</g>
</g>
<!-- Node5 -->
<g id="Node000005" class="node">
<title>Node5</title>
<g id="a_Node000005"><a xlink:href="../../d8/d74/classTerraria_1_1Localization_1_1LanguageManager_ada0523b1c8ad939663e492172f0de54f.html#ada0523b1c8ad939663e492172f0de54f" target="_top" xlink:title=" ">
<polygon fill="white" stroke="#666666" points="583,-30 418,-30 418,0 583,0 583,-30"/>
<text text-anchor="start" x="426" y="-18" font-family="Helvetica,sans-Serif" font-size="10.00">Terraria.Localization.Language</text>
<text text-anchor="middle" x="500.5" y="-7" font-family="Helvetica,sans-Serif" font-size="10.00">Manager.FindAll</text>
</a>
</g>
</g>
<!-- Node4&#45;&gt;Node5 -->
<g id="edge4_Node000004_Node000005" class="edge">
<title>Node4&#45;&gt;Node5</title>
<g id="a_edge4_Node000004_Node000005"><a xlink:title=" ">
<path fill="none" stroke="#63b8ff" d="M382.29,-15C390.63,-15 399.12,-15 407.54,-15"/>
<polygon fill="#63b8ff" stroke="#63b8ff" points="407.76,-18.5 417.76,-15 407.76,-11.5 407.76,-18.5"/>
</a>
</g>
</g>
</g>
</svg>
