<?xml version="1.0" encoding="UTF-8" standalone="no"?>
<!DOCTYPE svg PUBLIC "-//W3C//DTD SVG 1.1//EN"
 "http://www.w3.org/Graphics/SVG/1.1/DTD/svg11.dtd">
<!-- Generated by graphviz version 2.43.0 (0)
 -->
<!-- Title: Lang.BuildMapAtlas Pages: 1 -->
<svg width="474pt" height="104pt"
 viewBox="0.00 0.00 474.00 104.00" xmlns="http://www.w3.org/2000/svg" xmlns:xlink="http://www.w3.org/1999/xlink">
<g id="graph0" class="graph" transform="scale(1 1) rotate(0) translate(4 100)">
<title>Lang.BuildMapAtlas</title>
<polygon fill="white" stroke="transparent" points="-4,4 -4,-100 470,-100 470,4 -4,4"/>
<!-- Node1 -->
<g id="node1" class="node">
<title>Node1</title>
<g id="a_node1"><a xlink:title=" ">
<polygon fill="#bfbfbf" stroke="black" points="0,-38.5 0,-57.5 113,-57.5 113,-38.5 0,-38.5"/>
<text text-anchor="middle" x="56.5" y="-45.5" font-family="Helvetica,sans-Serif" font-size="10.00">Lang.BuildMapAtlas</text>
</a>
</g>
</g>
<!-- Node2 -->
<g id="node2" class="node">
<title>Node2</title>
<g id="a_node2"><a xlink:href="../../d0/d41/classLanguage_ae3cd200b00ed005379aa712464e298fc.html#ae3cd200b00ed005379aa712464e298fc" target="_top" xlink:title=" ">
<polygon fill="white" stroke="black" points="164.5,-76.5 164.5,-95.5 268.5,-95.5 268.5,-76.5 164.5,-76.5"/>
<text text-anchor="middle" x="216.5" y="-83.5" font-family="Helvetica,sans-Serif" font-size="10.00">Language.GetText</text>
</a>
</g>
</g>
<!-- Node1&#45;&gt;Node2 -->
<g id="edge1" class="edge">
<title>Node1&#45;&gt;Node2</title>
<path fill="none" stroke="midnightblue" d="M97.37,-57.59C118.22,-62.6 143.93,-68.79 166.04,-74.11"/>
<polygon fill="midnightblue" stroke="midnightblue" points="165.38,-77.54 175.92,-76.48 167.01,-70.74 165.38,-77.54"/>
</g>
<!-- Node4 -->
<g id="node4" class="node">
<title>Node4</title>
<g id="a_node4"><a xlink:href="../../da/d1f/classMapHelper_ae676d9a426718c555a326c81049a2760.html#ae676d9a426718c555a326c81049a2760" target="_top" xlink:title=" ">
<polygon fill="white" stroke="black" points="149,-38.5 149,-57.5 284,-57.5 284,-38.5 149,-38.5"/>
<text text-anchor="middle" x="216.5" y="-45.5" font-family="Helvetica,sans-Serif" font-size="10.00">MapHelper.LookupCount</text>
</a>
</g>
</g>
<!-- Node1&#45;&gt;Node4 -->
<g id="edge3" class="edge">
<title>Node1&#45;&gt;Node4</title>
<path fill="none" stroke="midnightblue" d="M113.2,-48C121.51,-48 130.18,-48 138.83,-48"/>
<polygon fill="midnightblue" stroke="midnightblue" points="138.93,-51.5 148.93,-48 138.93,-44.5 138.93,-51.5"/>
</g>
<!-- Node5 -->
<g id="node5" class="node">
<title>Node5</title>
<g id="a_node5"><a xlink:href="../../da/d1f/classMapHelper_a9929bd484b43cec60de8b25df97c876e.html#a9929bd484b43cec60de8b25df97c876e" target="_top" xlink:title=" ">
<polygon fill="white" stroke="black" points="149,-0.5 149,-19.5 284,-19.5 284,-0.5 149,-0.5"/>
<text text-anchor="middle" x="216.5" y="-7.5" font-family="Helvetica,sans-Serif" font-size="10.00">MapHelper.TileToLookup</text>
</a>
</g>
</g>
<!-- Node1&#45;&gt;Node5 -->
<g id="edge4" class="edge">
<title>Node1&#45;&gt;Node5</title>
<path fill="none" stroke="midnightblue" d="M97.37,-38.41C118.22,-33.4 143.93,-27.21 166.04,-21.89"/>
<polygon fill="midnightblue" stroke="midnightblue" points="167.01,-25.26 175.92,-19.52 165.38,-18.46 167.01,-25.26"/>
</g>
<!-- Node3 -->
<g id="node3" class="node">
<title>Node3</title>
<g id="a_node3"><a xlink:href="../../d2/d9f/classLanguageManager_abbe15fadc798f67686508fcc1d887add.html#abbe15fadc798f67686508fcc1d887add" target="_top" xlink:title=" ">
<polygon fill="white" stroke="black" points="320,-76.5 320,-95.5 466,-95.5 466,-76.5 320,-76.5"/>
<text text-anchor="middle" x="393" y="-83.5" font-family="Helvetica,sans-Serif" font-size="10.00">LanguageManager.GetText</text>
</a>
</g>
</g>
<!-- Node2&#45;&gt;Node3 -->
<g id="edge2" class="edge">
<title>Node2&#45;&gt;Node3</title>
<path fill="none" stroke="midnightblue" d="M268.91,-86C281.77,-86 295.9,-86 309.84,-86"/>
<polygon fill="midnightblue" stroke="midnightblue" points="309.95,-89.5 319.95,-86 309.95,-82.5 309.95,-89.5"/>
</g>
</g>
</svg>
