<?xml version="1.0" encoding="UTF-8" standalone="no"?>
<!DOCTYPE svg PUBLIC "-//W3C//DTD SVG 1.1//EN"
 "http://www.w3.org/Graphics/SVG/1.1/DTD/svg11.dtd">
<!-- Generated by graphviz version 2.43.0 (0)
 -->
<!-- Title: Terraria.Utils.SmoothStep Pages: 1 -->
<svg width="577pt" height="158pt"
 viewBox="0.00 0.00 577.00 158.00" xmlns="http://www.w3.org/2000/svg" xmlns:xlink="http://www.w3.org/1999/xlink">
<g id="graph0" class="graph" transform="scale(1 1) rotate(0) translate(4 154)">
<title>Terraria.Utils.SmoothStep</title>
<!-- Node1 -->
<g id="Node000001" class="node">
<title>Node1</title>
<g id="a_Node000001"><a xlink:title=" ">
<polygon fill="#999999" stroke="#666666" points="569,-72.5 428,-72.5 428,-53.5 569,-53.5 569,-72.5"/>
<text text-anchor="middle" x="498.5" y="-60.5" font-family="Helvetica,sans-Serif" font-size="10.00">Terraria.Utils.SmoothStep</text>
</a>
</g>
</g>
<!-- Node2 -->
<g id="Node000002" class="node">
<title>Node2</title>
<g id="a_Node000002"><a xlink:href="../../d2/d02/classTerraria_1_1GameContent_1_1Skies_1_1MoonLordSky_a60fb6283677aaeeb8aa2f30ed2289112.html#a60fb6283677aaeeb8aa2f30ed2289112" target="_top" xlink:title=" ">
<polygon fill="white" stroke="#666666" points="370,-126 214,-126 214,-96 370,-96 370,-126"/>
<text text-anchor="start" x="222" y="-114" font-family="Helvetica,sans-Serif" font-size="10.00">Terraria.GameContent.Skies.</text>
<text text-anchor="middle" x="292" y="-103" font-family="Helvetica,sans-Serif" font-size="10.00">MoonLordSky.GetIntensity</text>
</a>
</g>
</g>
<!-- Node1&#45;&gt;Node2 -->
<g id="edge1_Node000001_Node000002" class="edge">
<title>Node1&#45;&gt;Node2</title>
<g id="a_edge1_Node000001_Node000002"><a xlink:title=" ">
<path fill="none" stroke="#63b8ff" d="M446.58,-74.95C419.52,-81.3 386,-89.17 357.17,-95.94"/>
<polygon fill="#63b8ff" stroke="#63b8ff" points="447.67,-78.29 456.61,-72.6 446.07,-71.48 447.67,-78.29"/>
</a>
</g>
</g>
<!-- Node5 -->
<g id="Node000005" class="node">
<title>Node5</title>
<g id="a_Node000005"><a xlink:href="../../d4/dc8/classTerraria_1_1GameContent_1_1Shaders_1_1BloodMoonScreenShaderData_acb3268f076e9bd8b2895e46715a005ff.html#acb3268f076e9bd8b2895e46715a005ff" target="_top" xlink:title=" ">
<polygon fill="white" stroke="#666666" points="392,-78 192,-78 192,-48 392,-48 392,-78"/>
<text text-anchor="start" x="200" y="-66" font-family="Helvetica,sans-Serif" font-size="10.00">Terraria.GameContent.Shaders.</text>
<text text-anchor="middle" x="292" y="-55" font-family="Helvetica,sans-Serif" font-size="10.00">BloodMoonScreenShaderData.Update</text>
</a>
</g>
</g>
<!-- Node1&#45;&gt;Node5 -->
<g id="edge4_Node000001_Node000005" class="edge">
<title>Node1&#45;&gt;Node5</title>
<g id="a_edge4_Node000001_Node000005"><a xlink:title=" ">
<path fill="none" stroke="#63b8ff" d="M417.8,-63C409.35,-63 400.69,-63 392.05,-63"/>
<polygon fill="#63b8ff" stroke="#63b8ff" points="417.98,-66.5 427.98,-63 417.98,-59.5 417.98,-66.5"/>
</a>
</g>
</g>
<!-- Node6 -->
<g id="Node000006" class="node">
<title>Node6</title>
<g id="a_Node000006"><a xlink:href="../../d4/d55/classTerraria_1_1GameContent_1_1Shaders_1_1SepiaScreenShaderData_ab3636e40cf343bb362ca3a878b00d7c6.html#ab3636e40cf343bb362ca3a878b00d7c6" target="_top" xlink:title=" ">
<polygon fill="white" stroke="#666666" points="378,-30 206,-30 206,0 378,0 378,-30"/>
<text text-anchor="start" x="214" y="-18" font-family="Helvetica,sans-Serif" font-size="10.00">Terraria.GameContent.Shaders.</text>
<text text-anchor="middle" x="292" y="-7" font-family="Helvetica,sans-Serif" font-size="10.00">SepiaScreenShaderData.Update</text>
</a>
</g>
</g>
<!-- Node1&#45;&gt;Node6 -->
<g id="edge5_Node000001_Node000006" class="edge">
<title>Node1&#45;&gt;Node6</title>
<g id="a_edge5_Node000001_Node000006"><a xlink:title=" ">
<path fill="none" stroke="#63b8ff" d="M446.58,-51.05C419.52,-44.7 386,-36.83 357.17,-30.06"/>
<polygon fill="#63b8ff" stroke="#63b8ff" points="446.07,-54.52 456.61,-53.4 447.67,-47.71 446.07,-54.52"/>
</a>
</g>
</g>
<!-- Node3 -->
<g id="Node000003" class="node">
<title>Node3</title>
<g id="a_Node000003"><a xlink:href="../../d2/d02/classTerraria_1_1GameContent_1_1Skies_1_1MoonLordSky_a766d308c023fa9b2b661df041f11bf6d.html#a766d308c023fa9b2b661df041f11bf6d" target="_top" xlink:title=" ">
<polygon fill="white" stroke="#666666" points="156,-150 0,-150 0,-120 156,-120 156,-150"/>
<text text-anchor="start" x="8" y="-138" font-family="Helvetica,sans-Serif" font-size="10.00">Terraria.GameContent.Skies.</text>
<text text-anchor="middle" x="78" y="-127" font-family="Helvetica,sans-Serif" font-size="10.00">MoonLordSky.Draw</text>
</a>
</g>
</g>
<!-- Node2&#45;&gt;Node3 -->
<g id="edge2_Node000002_Node000003" class="edge">
<title>Node2&#45;&gt;Node3</title>
<g id="a_edge2_Node000002_Node000003"><a xlink:title=" ">
<path fill="none" stroke="#63b8ff" d="M203.6,-120.89C187.84,-122.68 171.52,-124.53 156.08,-126.27"/>
<polygon fill="#63b8ff" stroke="#63b8ff" points="204.32,-124.34 213.86,-119.73 203.53,-117.38 204.32,-124.34"/>
</a>
</g>
</g>
<!-- Node4 -->
<g id="Node000004" class="node">
<title>Node4</title>
<g id="a_Node000004"><a xlink:href="../../d2/d02/classTerraria_1_1GameContent_1_1Skies_1_1MoonLordSky_ae5f7b0e31b3f85b91e48342d243c80d6.html#ae5f7b0e31b3f85b91e48342d243c80d6" target="_top" xlink:title=" ">
<polygon fill="white" stroke="#666666" points="156,-102 0,-102 0,-72 156,-72 156,-102"/>
<text text-anchor="start" x="8" y="-90" font-family="Helvetica,sans-Serif" font-size="10.00">Terraria.GameContent.Skies.</text>
<text text-anchor="middle" x="78" y="-79" font-family="Helvetica,sans-Serif" font-size="10.00">MoonLordSky.OnTileColor</text>
</a>
</g>
</g>
<!-- Node2&#45;&gt;Node4 -->
<g id="edge3_Node000002_Node000004" class="edge">
<title>Node2&#45;&gt;Node4</title>
<g id="a_edge3_Node000002_Node000004"><a xlink:title=" ">
<path fill="none" stroke="#63b8ff" d="M203.6,-101.11C187.84,-99.32 171.52,-97.47 156.08,-95.73"/>
<polygon fill="#63b8ff" stroke="#63b8ff" points="203.53,-104.62 213.86,-102.27 204.32,-97.66 203.53,-104.62"/>
</a>
</g>
</g>
</g>
</svg>
