<?xml version="1.0" encoding="UTF-8" standalone="no"?>
<!DOCTYPE svg PUBLIC "-//W3C//DTD SVG 1.1//EN"
 "http://www.w3.org/Graphics/SVG/1.1/DTD/svg11.dtd">
<!-- Generated by graphviz version 2.43.0 (0)
 -->
<!-- Title: Terraria.Graphics.Renderers.CreativeSacrificeParticle Pages: 1 -->
<svg width="234pt" height="465pt"
 viewBox="0.00 0.00 234.00 465.00" xmlns="http://www.w3.org/2000/svg" xmlns:xlink="http://www.w3.org/1999/xlink">
<g id="graph0" class="graph" transform="scale(1 1) rotate(0) translate(4 461)">
<title>Terraria.Graphics.Renderers.CreativeSacrificeParticle</title>
<!-- Node1 -->
<g id="Node000001" class="node">
<title>Node1</title>
<g id="a_Node000001"><a xlink:title=" ">
<polygon fill="#999999" stroke="transparent" points="226,-313 0,-313 0,0 226,0 226,-313"/>
<text text-anchor="start" x="43.5" y="-300.5" font-family="Helvetica,sans-Serif" font-size="10.00">Terraria.Graphics.Renderers.</text>
<text text-anchor="start" x="53.5" y="-289.5" font-family="Helvetica,sans-Serif" font-size="10.00">CreativeSacrificeParticle</text>
<text text-anchor="start" x="4" y="-274.5" font-family="Helvetica,sans-Serif" font-size="10.00">+</text>
<text text-anchor="start" x="17" y="-274.5" font-family="Helvetica,sans-Serif" font-size="10.00">Vector2 AccelerationPerFrame</text>
<text text-anchor="start" x="4" y="-259.5" font-family="Helvetica,sans-Serif" font-size="10.00">+</text>
<text text-anchor="start" x="17" y="-259.5" font-family="Helvetica,sans-Serif" font-size="10.00">Vector2 Velocity</text>
<text text-anchor="start" x="4" y="-244.5" font-family="Helvetica,sans-Serif" font-size="10.00">+</text>
<text text-anchor="start" x="17" y="-244.5" font-family="Helvetica,sans-Serif" font-size="10.00">Vector2 LocalPosition</text>
<text text-anchor="start" x="4" y="-229.5" font-family="Helvetica,sans-Serif" font-size="10.00">+</text>
<text text-anchor="start" x="17" y="-229.5" font-family="Helvetica,sans-Serif" font-size="10.00">float ScaleOffsetPerFrame</text>
<text text-anchor="start" x="4" y="-214.5" font-family="Helvetica,sans-Serif" font-size="10.00">+</text>
<text text-anchor="start" x="17" y="-214.5" font-family="Helvetica,sans-Serif" font-size="10.00">float StopWhenBelowXScale</text>
<text text-anchor="start" x="4" y="-199.5" font-family="Helvetica,sans-Serif" font-size="10.00">+</text>
<text text-anchor="start" x="17" y="-199.5" font-family="Helvetica,sans-Serif" font-size="10.00">bool ShouldBeRemovedFrom</text>
<text text-anchor="start" x="17" y="-188.5" font-family="Helvetica,sans-Serif" font-size="10.00">Renderer</text>
<text text-anchor="start" x="6.5" y="-173.5" font-family="Helvetica,sans-Serif" font-size="10.00">&#45;</text>
<text text-anchor="start" x="17" y="-173.5" font-family="Helvetica,sans-Serif" font-size="10.00">Asset&lt; Texture2D &gt;</text>
<text text-anchor="start" x="17" y="-162.5" font-family="Helvetica,sans-Serif" font-size="10.00"> _texture</text>
<text text-anchor="start" x="6.5" y="-147.5" font-family="Helvetica,sans-Serif" font-size="10.00">&#45;</text>
<text text-anchor="start" x="17" y="-147.5" font-family="Helvetica,sans-Serif" font-size="10.00">Rectangle _frame</text>
<text text-anchor="start" x="6.5" y="-132.5" font-family="Helvetica,sans-Serif" font-size="10.00">&#45;</text>
<text text-anchor="start" x="17" y="-132.5" font-family="Helvetica,sans-Serif" font-size="10.00">Vector2 _origin</text>
<text text-anchor="start" x="6.5" y="-117.5" font-family="Helvetica,sans-Serif" font-size="10.00">&#45;</text>
<text text-anchor="start" x="17" y="-117.5" font-family="Helvetica,sans-Serif" font-size="10.00">float _scale</text>
<text text-anchor="start" x="4" y="-102.5" font-family="Helvetica,sans-Serif" font-size="10.00">+</text>
<text text-anchor="start" x="17" y="-102.5" font-family="Helvetica,sans-Serif" font-size="10.00">CreativeSacrificeParticle</text>
<text text-anchor="start" x="17" y="-91.5" font-family="Helvetica,sans-Serif" font-size="10.00">(Asset&lt; Texture2D &gt; textureAsset,</text>
<text text-anchor="start" x="17" y="-80.5" font-family="Helvetica,sans-Serif" font-size="10.00"> Rectangle? frame, Vector2 initialVelocity,</text>
<text text-anchor="start" x="17" y="-69.5" font-family="Helvetica,sans-Serif" font-size="10.00"> Vector2 initialLocalPosition)</text>
<text text-anchor="start" x="4" y="-54.5" font-family="Helvetica,sans-Serif" font-size="10.00">+</text>
<text text-anchor="start" x="17" y="-54.5" font-family="Helvetica,sans-Serif" font-size="10.00">void Update(ref Particle</text>
<text text-anchor="start" x="17" y="-43.5" font-family="Helvetica,sans-Serif" font-size="10.00">RendererSettings settings)</text>
<text text-anchor="start" x="4" y="-28.5" font-family="Helvetica,sans-Serif" font-size="10.00">+</text>
<text text-anchor="start" x="17" y="-28.5" font-family="Helvetica,sans-Serif" font-size="10.00">void Draw(ref ParticleRenderer</text>
<text text-anchor="start" x="17" y="-17.5" font-family="Helvetica,sans-Serif" font-size="10.00">Settings settings, SpriteBatch</text>
<text text-anchor="start" x="17" y="-6.5" font-family="Helvetica,sans-Serif" font-size="10.00"> spritebatch)</text>
<polygon fill="#666666" stroke="#666666" points="0,-284.5 0,-284.5 226,-284.5 226,-284.5 0,-284.5"/>
<polygon fill="#666666" stroke="#666666" points="0,-112.5 0,-112.5 15,-112.5 15,-112.5 0,-112.5"/>
<polygon fill="#666666" stroke="#666666" points="15,-112.5 15,-112.5 226,-112.5 226,-112.5 15,-112.5"/>
<polygon fill="none" stroke="#666666" points="0,0 0,-313 226,-313 226,0 0,0"/>
</a>
</g>
</g>
<!-- Node2 -->
<g id="Node000002" class="node">
<title>Node2</title>
<g id="a_Node000002"><a xlink:href="../../db/d57/interfaceTerraria_1_1Graphics_1_1Renderers_1_1IParticle.html" target="_top" xlink:title=" ">
<polygon fill="white" stroke="transparent" points="199,-457 27,-457 27,-349 199,-349 199,-457"/>
<text text-anchor="start" x="93" y="-445" font-family="Helvetica,sans-Serif" font-size="10.00">IParticle</text>
<text text-anchor="start" x="31" y="-430" font-family="Helvetica,sans-Serif" font-size="10.00">+</text>
<text text-anchor="start" x="44" y="-430" font-family="Helvetica,sans-Serif" font-size="10.00">bool ShouldBeRemovedFrom</text>
<text text-anchor="start" x="44" y="-419" font-family="Helvetica,sans-Serif" font-size="10.00">Renderer</text>
<text text-anchor="start" x="31" y="-404" font-family="Helvetica,sans-Serif" font-size="10.00">+</text>
<text text-anchor="start" x="44" y="-404" font-family="Helvetica,sans-Serif" font-size="10.00">void Update(ref Particle</text>
<text text-anchor="start" x="44" y="-393" font-family="Helvetica,sans-Serif" font-size="10.00">RendererSettings settings)</text>
<text text-anchor="start" x="31" y="-378" font-family="Helvetica,sans-Serif" font-size="10.00">+</text>
<text text-anchor="start" x="44" y="-378" font-family="Helvetica,sans-Serif" font-size="10.00">void Draw(ref ParticleRenderer</text>
<text text-anchor="start" x="44" y="-367" font-family="Helvetica,sans-Serif" font-size="10.00">Settings settings, SpriteBatch</text>
<text text-anchor="start" x="44" y="-356" font-family="Helvetica,sans-Serif" font-size="10.00"> spritebatch)</text>
<polygon fill="#666666" stroke="#666666" points="27,-440 27,-440 199,-440 199,-440 27,-440"/>
<polygon fill="#666666" stroke="#666666" points="27,-414 27,-414 42,-414 42,-414 27,-414"/>
<polygon fill="#666666" stroke="#666666" points="42,-414 42,-414 199,-414 199,-414 42,-414"/>
<polygon fill="none" stroke="#666666" points="27,-349 27,-457 199,-457 199,-349 27,-349"/>
</a>
</g>
</g>
<!-- Node2&#45;&gt;Node1 -->
<g id="edge1_Node000001_Node000002" class="edge">
<title>Node2&#45;&gt;Node1</title>
<g id="a_edge1_Node000001_Node000002"><a xlink:title=" ">
<path fill="none" stroke="#63b8ff" d="M113,-338.91C113,-330.79 113,-322.2 113,-313.36"/>
<polygon fill="none" stroke="#63b8ff" points="109.5,-338.95 113,-348.95 116.5,-338.95 109.5,-338.95"/>
</a>
</g>
</g>
</g>
</svg>
