<?xml version="1.0" encoding="UTF-8" standalone="no"?>
<!DOCTYPE svg PUBLIC "-//W3C//DTD SVG 1.1//EN"
 "http://www.w3.org/Graphics/SVG/1.1/DTD/svg11.dtd">
<!-- Generated by graphviz version 2.43.0 (0)
 -->
<!-- Title: Graphical Class Hierarchy Pages: 1 -->
<svg width="520pt" height="101pt"
 viewBox="0.00 0.00 520.00 101.00" xmlns="http://www.w3.org/2000/svg" xmlns:xlink="http://www.w3.org/1999/xlink">
<g id="graph0" class="graph" transform="scale(1 1) rotate(0) translate(4 97)">
<title>Graphical Class Hierarchy</title>
<!-- Node0 -->
<g id="Node000000" class="node">
<title>Node0</title>
<g id="a_Node000000"><a xlink:href="dc/d06/interfaceReLogic_1_1OS_1_1IClipboard.html" target="_top" xlink:title=" ">
<polygon fill="white" stroke="#666666" points="124,-56 0,-56 0,-37 124,-37 124,-56"/>
<text text-anchor="middle" x="62" y="-44" font-family="Helvetica,sans-Serif" font-size="10.00">ReLogic.OS.IClipboard</text>
</a>
</g>
</g>
<!-- Node1 -->
<g id="Node000001" class="node">
<title>Node1</title>
<g id="a_Node000001"><a xlink:href="d9/d2a/classReLogic_1_1OS_1_1Base_1_1Clipboard.html" target="_top" xlink:title=" ">
<polygon fill="white" stroke="#666666" points="308,-56 160,-56 160,-37 308,-37 308,-56"/>
<text text-anchor="middle" x="234" y="-44" font-family="Helvetica,sans-Serif" font-size="10.00">ReLogic.OS.Base.Clipboard</text>
</a>
</g>
</g>
<!-- Node0&#45;&gt;Node1 -->
<g id="edge225_Node000000_Node000001" class="edge">
<title>Node0&#45;&gt;Node1</title>
<g id="a_edge225_Node000000_Node000001"><a xlink:title=" ">
<path fill="none" stroke="#63b8ff" d="M134.49,-46.5C142.87,-46.5 151.44,-46.5 159.84,-46.5"/>
<polygon fill="#63b8ff" stroke="#63b8ff" points="134.37,-43 124.37,-46.5 134.37,-50 134.37,-43"/>
</a>
</g>
</g>
<!-- Node2 -->
<g id="Node000002" class="node">
<title>Node2</title>
<g id="a_Node000002"><a xlink:href="d4/df2/classReLogic_1_1OS_1_1Linux_1_1Clipboard.html" target="_top" xlink:title=" ">
<polygon fill="white" stroke="#666666" points="503,-93 353,-93 353,-74 503,-74 503,-93"/>
<text text-anchor="middle" x="428" y="-81" font-family="Helvetica,sans-Serif" font-size="10.00">ReLogic.OS.Linux.Clipboard</text>
</a>
</g>
</g>
<!-- Node1&#45;&gt;Node2 -->
<g id="edge226_Node000001_Node000002" class="edge">
<title>Node1&#45;&gt;Node2</title>
<g id="a_edge226_Node000001_Node000002"><a xlink:title=" ">
<path fill="none" stroke="#63b8ff" d="M294.41,-57.95C321.02,-63.08 352.04,-69.06 377.39,-73.94"/>
<polygon fill="#63b8ff" stroke="#63b8ff" points="294.93,-54.48 284.44,-56.03 293.6,-61.36 294.93,-54.48"/>
</a>
</g>
</g>
<!-- Node3 -->
<g id="Node000003" class="node">
<title>Node3</title>
<g id="a_Node000003"><a xlink:href="d1/d1f/classReLogic_1_1OS_1_1OSX_1_1Clipboard.html" target="_top" xlink:title=" ">
<polygon fill="white" stroke="#666666" points="500,-56 356,-56 356,-37 500,-37 500,-56"/>
<text text-anchor="middle" x="428" y="-44" font-family="Helvetica,sans-Serif" font-size="10.00">ReLogic.OS.OSX.Clipboard</text>
</a>
</g>
</g>
<!-- Node1&#45;&gt;Node3 -->
<g id="edge227_Node000001_Node000003" class="edge">
<title>Node1&#45;&gt;Node3</title>
<g id="a_edge227_Node000001_Node000003"><a xlink:title=" ">
<path fill="none" stroke="#63b8ff" d="M318.16,-46.5C330.76,-46.5 343.66,-46.5 355.97,-46.5"/>
<polygon fill="#63b8ff" stroke="#63b8ff" points="318.13,-43 308.13,-46.5 318.13,-50 318.13,-43"/>
</a>
</g>
</g>
<!-- Node4 -->
<g id="Node000004" class="node">
<title>Node4</title>
<g id="a_Node000004"><a xlink:href="d3/d1c/classReLogic_1_1OS_1_1Windows_1_1Clipboard.html" target="_top" xlink:title=" ">
<polygon fill="white" stroke="#666666" points="512,-19 344,-19 344,0 512,0 512,-19"/>
<text text-anchor="middle" x="428" y="-7" font-family="Helvetica,sans-Serif" font-size="10.00">ReLogic.OS.Windows.Clipboard</text>
</a>
</g>
</g>
<!-- Node1&#45;&gt;Node4 -->
<g id="edge228_Node000001_Node000004" class="edge">
<title>Node1&#45;&gt;Node4</title>
<g id="a_edge228_Node000001_Node000004"><a xlink:title=" ">
<path fill="none" stroke="#63b8ff" d="M294.41,-35.05C321.02,-29.92 352.04,-23.94 377.39,-19.06"/>
<polygon fill="#63b8ff" stroke="#63b8ff" points="293.6,-31.64 284.44,-36.97 294.93,-38.52 293.6,-31.64"/>
</a>
</g>
</g>
</g>
</svg>
