<?xml version="1.0" encoding="UTF-8" standalone="no"?>
<!DOCTYPE svg PUBLIC "-//W3C//DTD SVG 1.1//EN"
 "http://www.w3.org/Graphics/SVG/1.1/DTD/svg11.dtd">
<!-- Generated by graphviz version 2.43.0 (0)
 -->
<!-- Title: Graphical Class Hierarchy Pages: 1 -->
<svg width="795pt" height="230pt"
 viewBox="0.00 0.00 795.00 230.00" xmlns="http://www.w3.org/2000/svg" xmlns:xlink="http://www.w3.org/1999/xlink">
<g id="graph0" class="graph" transform="scale(1 1) rotate(0) translate(4 226)">
<title>Graphical Class Hierarchy</title>
<!-- Node0 -->
<g id="Node000000" class="node">
<title>Node0</title>
<g id="a_Node000000"><a xlink:href="d0/dd4/interfaceTerraria_1_1GameContent_1_1INeedRenderTargetContent.html" target="_top" xlink:title=" ">
<polygon fill="white" stroke="#666666" points="155,-78 0,-78 0,-48 155,-48 155,-78"/>
<text text-anchor="start" x="8" y="-66" font-family="Helvetica,sans-Serif" font-size="10.00">Terraria.GameContent.INeed</text>
<text text-anchor="middle" x="77.5" y="-55" font-family="Helvetica,sans-Serif" font-size="10.00">RenderTargetContent</text>
</a>
</g>
</g>
<!-- Node1 -->
<g id="Node000001" class="node">
<title>Node1</title>
<g id="a_Node000001"><a xlink:href="dc/d06/classTerraria_1_1GameContent_1_1ARenderTargetContentByRequest.html" target="_top" xlink:title=" ">
<polygon fill="white" stroke="#666666" points="359,-126 191,-126 191,-96 359,-96 359,-126"/>
<text text-anchor="start" x="199" y="-114" font-family="Helvetica,sans-Serif" font-size="10.00">Terraria.GameContent.ARender</text>
<text text-anchor="middle" x="275" y="-103" font-family="Helvetica,sans-Serif" font-size="10.00">TargetContentByRequest</text>
</a>
</g>
</g>
<!-- Node0&#45;&gt;Node1 -->
<g id="edge623_Node000000_Node000001" class="edge">
<title>Node0&#45;&gt;Node1</title>
<g id="a_edge623_Node000000_Node000001"><a xlink:title=" ">
<path fill="none" stroke="#63b8ff" d="M149.54,-80.44C170.3,-85.54 192.81,-91.07 212.9,-96"/>
<polygon fill="#63b8ff" stroke="#63b8ff" points="150.37,-77.04 139.82,-78.06 148.7,-83.84 150.37,-77.04"/>
</a>
</g>
</g>
<!-- Node8 -->
<g id="Node000008" class="node">
<title>Node8</title>
<g id="a_Node000008"><a xlink:href="d9/dfd/classTerraria_1_1Graphics_1_1Renderers_1_1MapHeadRenderer.html" target="_top" xlink:title=" ">
<polygon fill="white" stroke="#666666" points="352.5,-78 197.5,-78 197.5,-48 352.5,-48 352.5,-78"/>
<text text-anchor="start" x="205.5" y="-66" font-family="Helvetica,sans-Serif" font-size="10.00">Terraria.Graphics.Renderers.</text>
<text text-anchor="middle" x="275" y="-55" font-family="Helvetica,sans-Serif" font-size="10.00">MapHeadRenderer</text>
</a>
</g>
</g>
<!-- Node0&#45;&gt;Node8 -->
<g id="edge630_Node000000_Node000008" class="edge">
<title>Node0&#45;&gt;Node8</title>
<g id="a_edge630_Node000000_Node000008"><a xlink:title=" ">
<path fill="none" stroke="#63b8ff" d="M165.32,-63C175.94,-63 186.74,-63 197.19,-63"/>
<polygon fill="#63b8ff" stroke="#63b8ff" points="165.21,-59.5 155.21,-63 165.21,-66.5 165.21,-59.5"/>
</a>
</g>
</g>
<!-- Node9 -->
<g id="Node000009" class="node">
<title>Node9</title>
<g id="a_Node000009"><a xlink:href="db/d9c/classTerraria_1_1Graphics_1_1Renderers_1_1NPCHeadRenderer.html" target="_top" xlink:title=" ">
<polygon fill="white" stroke="#666666" points="352.5,-30 197.5,-30 197.5,0 352.5,0 352.5,-30"/>
<text text-anchor="start" x="205.5" y="-18" font-family="Helvetica,sans-Serif" font-size="10.00">Terraria.Graphics.Renderers.</text>
<text text-anchor="middle" x="275" y="-7" font-family="Helvetica,sans-Serif" font-size="10.00">NPCHeadRenderer</text>
</a>
</g>
</g>
<!-- Node0&#45;&gt;Node9 -->
<g id="edge631_Node000000_Node000009" class="edge">
<title>Node0&#45;&gt;Node9</title>
<g id="a_edge631_Node000000_Node000009"><a xlink:title=" ">
<path fill="none" stroke="#63b8ff" d="M149.54,-45.56C170.3,-40.46 192.81,-34.93 212.9,-30"/>
<polygon fill="#63b8ff" stroke="#63b8ff" points="148.7,-42.16 139.82,-47.94 150.37,-48.96 148.7,-42.16"/>
</a>
</g>
</g>
<!-- Node2 -->
<g id="Node000002" class="node">
<title>Node2</title>
<g id="a_Node000002"><a xlink:href="df/d99/classTerraria_1_1GameContent_1_1AnOutlinedDrawRenderTargetContent.html" target="_top" xlink:title=" ">
<polygon fill="white" stroke="#666666" points="577,-198 396,-198 396,-168 577,-168 577,-198"/>
<text text-anchor="start" x="404" y="-186" font-family="Helvetica,sans-Serif" font-size="10.00">Terraria.GameContent.AnOutlined</text>
<text text-anchor="middle" x="486.5" y="-175" font-family="Helvetica,sans-Serif" font-size="10.00">DrawRenderTargetContent</text>
</a>
</g>
</g>
<!-- Node1&#45;&gt;Node2 -->
<g id="edge624_Node000001_Node000002" class="edge">
<title>Node1&#45;&gt;Node2</title>
<g id="a_edge624_Node000001_Node000002"><a xlink:title=" ">
<path fill="none" stroke="#63b8ff" d="M319.18,-129.92C341.56,-139.34 369.48,-150.5 395,-159 404.41,-162.13 414.47,-165.13 424.34,-167.89"/>
<polygon fill="#63b8ff" stroke="#63b8ff" points="320.52,-126.69 309.95,-126 317.79,-133.13 320.52,-126.69"/>
</a>
</g>
</g>
<!-- Node5 -->
<g id="Node000005" class="node">
<title>Node5</title>
<g id="a_Node000005"><a xlink:href="d6/d50/classTerraria_1_1GameContent_1_1PlayerQueenSlimeMountTextureContent.html" target="_top" xlink:title=" ">
<polygon fill="white" stroke="#666666" points="577,-150 396,-150 396,-120 577,-120 577,-150"/>
<text text-anchor="start" x="404" y="-138" font-family="Helvetica,sans-Serif" font-size="10.00">Terraria.GameContent.Player</text>
<text text-anchor="middle" x="486.5" y="-127" font-family="Helvetica,sans-Serif" font-size="10.00">QueenSlimeMountTextureContent</text>
</a>
</g>
</g>
<!-- Node1&#45;&gt;Node5 -->
<g id="edge627_Node000001_Node000005" class="edge">
<title>Node1&#45;&gt;Node5</title>
<g id="a_edge627_Node000001_Node000005"><a xlink:title=" ">
<path fill="none" stroke="#63b8ff" d="M369.11,-121.67C378.03,-122.69 387.07,-123.72 395.95,-124.74"/>
<polygon fill="#63b8ff" stroke="#63b8ff" points="369.43,-118.18 359.1,-120.52 368.64,-125.14 369.43,-118.18"/>
</a>
</g>
</g>
<!-- Node6 -->
<g id="Node000006" class="node">
<title>Node6</title>
<g id="a_Node000006"><a xlink:href="d1/d5d/classTerraria_1_1GameContent_1_1PlayerRainbowWingsTextureContent.html" target="_top" xlink:title=" ">
<polygon fill="white" stroke="#666666" points="568,-102 405,-102 405,-72 568,-72 568,-102"/>
<text text-anchor="start" x="413" y="-90" font-family="Helvetica,sans-Serif" font-size="10.00">Terraria.GameContent.Player</text>
<text text-anchor="middle" x="486.5" y="-79" font-family="Helvetica,sans-Serif" font-size="10.00">RainbowWingsTextureContent</text>
</a>
</g>
</g>
<!-- Node1&#45;&gt;Node6 -->
<g id="edge628_Node000001_Node000006" class="edge">
<title>Node1&#45;&gt;Node6</title>
<g id="a_edge628_Node000001_Node000006"><a xlink:title=" ">
<path fill="none" stroke="#63b8ff" d="M369.07,-100.34C381.02,-98.97 393.17,-97.58 404.89,-96.23"/>
<polygon fill="#63b8ff" stroke="#63b8ff" points="368.64,-96.86 359.1,-101.48 369.43,-103.82 368.64,-96.86"/>
</a>
</g>
</g>
<!-- Node7 -->
<g id="Node000007" class="node">
<title>Node7</title>
<g id="a_Node000007"><a xlink:href="df/d7e/classTerraria_1_1GameContent_1_1PlayerTitaniumStormBuffTextureContent.html" target="_top" xlink:title=" ">
<polygon fill="white" stroke="#666666" points="578,-54 395,-54 395,-24 578,-24 578,-54"/>
<text text-anchor="start" x="403" y="-42" font-family="Helvetica,sans-Serif" font-size="10.00">Terraria.GameContent.Player</text>
<text text-anchor="middle" x="486.5" y="-31" font-family="Helvetica,sans-Serif" font-size="10.00">TitaniumStormBuffTextureContent</text>
</a>
</g>
</g>
<!-- Node1&#45;&gt;Node7 -->
<g id="edge629_Node000001_Node000007" class="edge">
<title>Node1&#45;&gt;Node7</title>
<g id="a_edge629_Node000001_Node000007"><a xlink:title=" ">
<path fill="none" stroke="#63b8ff" d="M345.67,-92.59C350.24,-90.85 354.72,-88.99 359,-87 376.44,-78.9 377.47,-70.9 395,-63 402.41,-59.66 410.38,-56.71 418.4,-54.12"/>
<polygon fill="#63b8ff" stroke="#63b8ff" points="344.43,-89.31 336.2,-95.98 346.79,-95.9 344.43,-89.31"/>
</a>
</g>
</g>
<!-- Node3 -->
<g id="Node000003" class="node">
<title>Node3</title>
<g id="a_Node000003"><a xlink:href="db/de4/classTerraria_1_1GameContent_1_1NPCHeadDrawRenderTargetContent.html" target="_top" xlink:title=" ">
<polygon fill="white" stroke="#666666" points="787,-222 614,-222 614,-192 787,-192 787,-222"/>
<text text-anchor="start" x="622" y="-210" font-family="Helvetica,sans-Serif" font-size="10.00">Terraria.GameContent.NPCHead</text>
<text text-anchor="middle" x="700.5" y="-199" font-family="Helvetica,sans-Serif" font-size="10.00">DrawRenderTargetContent</text>
</a>
</g>
</g>
<!-- Node2&#45;&gt;Node3 -->
<g id="edge625_Node000002_Node000003" class="edge">
<title>Node2&#45;&gt;Node3</title>
<g id="a_edge625_Node000002_Node000003"><a xlink:title=" ">
<path fill="none" stroke="#63b8ff" d="M587.16,-194.28C596.11,-195.3 605.12,-196.32 613.94,-197.31"/>
<polygon fill="#63b8ff" stroke="#63b8ff" points="587.43,-190.79 577.1,-193.14 586.64,-197.75 587.43,-190.79"/>
</a>
</g>
</g>
<!-- Node4 -->
<g id="Node000004" class="node">
<title>Node4</title>
<g id="a_Node000004"><a xlink:href="d1/d86/classTerraria_1_1GameContent_1_1PlayerHeadDrawRenderTargetContent.html" target="_top" xlink:title=" ">
<polygon fill="white" stroke="#666666" points="785.5,-174 615.5,-174 615.5,-144 785.5,-144 785.5,-174"/>
<text text-anchor="start" x="623.5" y="-162" font-family="Helvetica,sans-Serif" font-size="10.00">Terraria.GameContent.Player</text>
<text text-anchor="middle" x="700.5" y="-151" font-family="Helvetica,sans-Serif" font-size="10.00">HeadDrawRenderTargetContent</text>
</a>
</g>
</g>
<!-- Node2&#45;&gt;Node4 -->
<g id="edge626_Node000002_Node000004" class="edge">
<title>Node2&#45;&gt;Node4</title>
<g id="a_edge626_Node000002_Node000004"><a xlink:title=" ">
<path fill="none" stroke="#63b8ff" d="M587.24,-171.71C596.62,-170.65 606.07,-169.58 615.28,-168.53"/>
<polygon fill="#63b8ff" stroke="#63b8ff" points="586.64,-168.25 577.1,-172.86 587.43,-175.21 586.64,-168.25"/>
</a>
</g>
</g>
</g>
</svg>
