<?xml version="1.0" encoding="UTF-8" standalone="no"?>
<!DOCTYPE svg PUBLIC "-//W3C//DTD SVG 1.1//EN"
 "http://www.w3.org/Graphics/SVG/1.1/DTD/svg11.dtd">
<!-- Generated by graphviz version 2.43.0 (0)
 -->
<!-- Title: Graphical Class Hierarchy Pages: 1 -->
<svg width="591pt" height="1226pt"
 viewBox="0.00 0.00 591.00 1226.00" xmlns="http://www.w3.org/2000/svg" xmlns:xlink="http://www.w3.org/1999/xlink">
<g id="graph0" class="graph" transform="scale(1 1) rotate(0) translate(4 1222)">
<title>Graphical Class Hierarchy</title>
<!-- Node0 -->
<g id="Node000000" class="node">
<title>Node0</title>
<g id="a_Node000000"><a xlink:href="d9/d62/interfaceTerraria_1_1DataStructures_1_1IEntitySource.html" target="_top" xlink:title=" ">
<polygon fill="white" stroke="#666666" points="132,-558 0,-558 0,-528 132,-528 132,-558"/>
<text text-anchor="start" x="8" y="-546" font-family="Helvetica,sans-Serif" font-size="10.00">Terraria.DataStructures.</text>
<text text-anchor="middle" x="66" y="-535" font-family="Helvetica,sans-Serif" font-size="10.00">IEntitySource</text>
</a>
</g>
</g>
<!-- Node1 -->
<g id="Node000001" class="node">
<title>Node1</title>
<g id="a_Node000001"><a xlink:href="d0/d0b/classTerraria_1_1DataStructures_1_1AEntitySource__OnHit.html" target="_top" xlink:title=" ">
<polygon fill="white" stroke="#666666" points="326,-1164 194,-1164 194,-1134 326,-1134 326,-1164"/>
<text text-anchor="start" x="202" y="-1152" font-family="Helvetica,sans-Serif" font-size="10.00">Terraria.DataStructures.</text>
<text text-anchor="middle" x="260" y="-1141" font-family="Helvetica,sans-Serif" font-size="10.00">AEntitySource_OnHit</text>
</a>
</g>
</g>
<!-- Node0&#45;&gt;Node1 -->
<g id="edge352_Node000000_Node000001" class="edge">
<title>Node0&#45;&gt;Node1</title>
<g id="a_edge352_Node000000_Node000001"><a xlink:title=" ">
<path fill="none" stroke="#63b8ff" d="M67.46,-568.5C69.8,-645.13 83.83,-878.45 168,-1047 185.81,-1082.67 219.44,-1115.45 240.45,-1133.77"/>
<polygon fill="#63b8ff" stroke="#63b8ff" points="70.96,-568.26 67.2,-558.36 63.96,-568.45 70.96,-568.26"/>
</a>
</g>
</g>
<!-- Node4 -->
<g id="Node000004" class="node">
<title>Node4</title>
<g id="a_Node000004"><a xlink:href="d0/d8e/classTerraria_1_1DataStructures_1_1AEntitySource__Tile.html" target="_top" xlink:title=" ">
<polygon fill="white" stroke="#666666" points="326,-1038 194,-1038 194,-1008 326,-1008 326,-1038"/>
<text text-anchor="start" x="202" y="-1026" font-family="Helvetica,sans-Serif" font-size="10.00">Terraria.DataStructures.</text>
<text text-anchor="middle" x="260" y="-1015" font-family="Helvetica,sans-Serif" font-size="10.00">AEntitySource_Tile</text>
</a>
</g>
</g>
<!-- Node0&#45;&gt;Node4 -->
<g id="edge355_Node000000_Node000004" class="edge">
<title>Node0&#45;&gt;Node4</title>
<g id="a_edge355_Node000000_Node000004"><a xlink:title=" ">
<path fill="none" stroke="#63b8ff" d="M69.18,-568.26C77.13,-654.55 107.32,-935.85 168,-999 175.13,-1006.42 184.26,-1011.64 193.98,-1015.3"/>
<polygon fill="#63b8ff" stroke="#63b8ff" points="72.64,-567.71 68.26,-558.07 65.67,-568.34 72.64,-567.71"/>
</a>
</g>
</g>
<!-- Node10 -->
<g id="Node000010" class="node">
<title>Node10</title>
<g id="a_Node000010"><a xlink:href="d0/dc0/classTerraria_1_1DataStructures_1_1EntitySource__BossSpawn.html" target="_top" xlink:title=" ">
<polygon fill="white" stroke="#666666" points="329.5,-990 190.5,-990 190.5,-960 329.5,-960 329.5,-990"/>
<text text-anchor="start" x="198.5" y="-978" font-family="Helvetica,sans-Serif" font-size="10.00">Terraria.DataStructures.</text>
<text text-anchor="middle" x="260" y="-967" font-family="Helvetica,sans-Serif" font-size="10.00">EntitySource_BossSpawn</text>
</a>
</g>
</g>
<!-- Node0&#45;&gt;Node10 -->
<g id="edge361_Node000000_Node000010" class="edge">
<title>Node0&#45;&gt;Node10</title>
<g id="a_edge361_Node000000_Node000010"><a xlink:title=" ">
<path fill="none" stroke="#63b8ff" d="M69.91,-568.46C79.61,-648.89 113.35,-895.51 168,-951 174.31,-957.4 182.1,-962.16 190.46,-965.69"/>
<polygon fill="#63b8ff" stroke="#63b8ff" points="73.36,-567.77 68.7,-558.25 66.4,-568.59 73.36,-567.77"/>
</a>
</g>
</g>
<!-- Node11 -->
<g id="Node000011" class="node">
<title>Node11</title>
<g id="a_Node000011"><a xlink:href="d1/dfe/classTerraria_1_1DataStructures_1_1EntitySource__Buff.html" target="_top" xlink:title=" ">
<polygon fill="white" stroke="#666666" points="326,-942 194,-942 194,-912 326,-912 326,-942"/>
<text text-anchor="start" x="202" y="-930" font-family="Helvetica,sans-Serif" font-size="10.00">Terraria.DataStructures.</text>
<text text-anchor="middle" x="260" y="-919" font-family="Helvetica,sans-Serif" font-size="10.00">EntitySource_Buff</text>
</a>
</g>
</g>
<!-- Node0&#45;&gt;Node11 -->
<g id="edge362_Node000000_Node000011" class="edge">
<title>Node0&#45;&gt;Node11</title>
<g id="a_edge362_Node000000_Node000011"><a xlink:title=" ">
<path fill="none" stroke="#63b8ff" d="M66.14,-568.47C65.41,-633.92 72.89,-809.37 168,-903 175.22,-910.11 184.28,-915.18 193.86,-918.79"/>
<polygon fill="#63b8ff" stroke="#63b8ff" points="69.65,-568.32 66.34,-558.26 62.65,-568.19 69.65,-568.32"/>
</a>
</g>
</g>
<!-- Node12 -->
<g id="Node000012" class="node">
<title>Node12</title>
<g id="a_Node000012"><a xlink:href="d2/d81/classTerraria_1_1DataStructures_1_1EntitySource__ByItemSourceId.html" target="_top" xlink:title=" ">
<polygon fill="white" stroke="#666666" points="340.5,-894 179.5,-894 179.5,-864 340.5,-864 340.5,-894"/>
<text text-anchor="start" x="187.5" y="-882" font-family="Helvetica,sans-Serif" font-size="10.00">Terraria.DataStructures.</text>
<text text-anchor="middle" x="260" y="-871" font-family="Helvetica,sans-Serif" font-size="10.00">EntitySource_ByItemSourceId</text>
</a>
</g>
</g>
<!-- Node0&#45;&gt;Node12 -->
<g id="edge363_Node000000_Node000012" class="edge">
<title>Node0&#45;&gt;Node12</title>
<g id="a_edge363_Node000000_Node000012"><a xlink:title=" ">
<path fill="none" stroke="#63b8ff" d="M67.45,-568.67C69.94,-628.11 84.67,-776.14 168,-855 171.56,-858.37 175.54,-861.28 179.78,-863.79"/>
<polygon fill="#63b8ff" stroke="#63b8ff" points="70.94,-568.2 67.11,-558.32 63.94,-568.43 70.94,-568.2"/>
</a>
</g>
</g>
<!-- Node13 -->
<g id="Node000013" class="node">
<title>Node13</title>
<g id="a_Node000013"><a xlink:href="da/daf/classTerraria_1_1DataStructures_1_1EntitySource__ByProjectileSourceId.html" target="_top" xlink:title=" ">
<polygon fill="white" stroke="#666666" points="352,-846 168,-846 168,-816 352,-816 352,-846"/>
<text text-anchor="start" x="176" y="-834" font-family="Helvetica,sans-Serif" font-size="10.00">Terraria.DataStructures.</text>
<text text-anchor="middle" x="260" y="-823" font-family="Helvetica,sans-Serif" font-size="10.00">EntitySource_ByProjectileSourceId</text>
</a>
</g>
</g>
<!-- Node0&#45;&gt;Node13 -->
<g id="edge364_Node000000_Node000013" class="edge">
<title>Node0&#45;&gt;Node13</title>
<g id="a_edge364_Node000000_Node000013"><a xlink:title=" ">
<path fill="none" stroke="#63b8ff" d="M69.16,-568.32C75.04,-620.91 96.07,-742.42 168,-807 171.77,-810.38 175.96,-813.3 180.41,-815.81"/>
<polygon fill="#63b8ff" stroke="#63b8ff" points="72.62,-567.78 68.12,-558.19 65.66,-568.5 72.62,-567.78"/>
</a>
</g>
</g>
<!-- Node14 -->
<g id="Node000014" class="node">
<title>Node14</title>
<g id="a_Node000014"><a xlink:href="db/d41/classTerraria_1_1DataStructures_1_1EntitySource__DebugCommand.html" target="_top" xlink:title=" ">
<polygon fill="white" stroke="#666666" points="342.5,-798 177.5,-798 177.5,-768 342.5,-768 342.5,-798"/>
<text text-anchor="start" x="185.5" y="-786" font-family="Helvetica,sans-Serif" font-size="10.00">Terraria.DataStructures.</text>
<text text-anchor="middle" x="260" y="-775" font-family="Helvetica,sans-Serif" font-size="10.00">EntitySource_DebugCommand</text>
</a>
</g>
</g>
<!-- Node0&#45;&gt;Node14 -->
<g id="edge365_Node000000_Node000014" class="edge">
<title>Node0&#45;&gt;Node14</title>
<g id="a_edge365_Node000000_Node000014"><a xlink:title=" ">
<path fill="none" stroke="#63b8ff" d="M71.53,-568.11C81.04,-613.32 107.4,-708.4 168,-759 172.14,-762.46 176.72,-765.42 181.57,-767.96"/>
<polygon fill="#63b8ff" stroke="#63b8ff" points="74.95,-567.37 69.56,-558.25 68.09,-568.74 74.95,-567.37"/>
</a>
</g>
</g>
<!-- Node15 -->
<g id="Node000015" class="node">
<title>Node15</title>
<g id="a_Node000015"><a xlink:href="da/df7/classTerraria_1_1DataStructures_1_1EntitySource__DropAsItem.html" target="_top" xlink:title=" ">
<polygon fill="white" stroke="#666666" points="330.5,-750 189.5,-750 189.5,-720 330.5,-720 330.5,-750"/>
<text text-anchor="start" x="197.5" y="-738" font-family="Helvetica,sans-Serif" font-size="10.00">Terraria.DataStructures.</text>
<text text-anchor="middle" x="260" y="-727" font-family="Helvetica,sans-Serif" font-size="10.00">EntitySource_DropAsItem</text>
</a>
</g>
</g>
<!-- Node0&#45;&gt;Node15 -->
<g id="edge366_Node000000_Node000015" class="edge">
<title>Node0&#45;&gt;Node15</title>
<g id="a_edge366_Node000000_Node000015"><a xlink:title=" ">
<path fill="none" stroke="#63b8ff" d="M75.04,-567.74C88.34,-604.67 118.48,-673.85 168,-711 174.4,-715.8 181.69,-719.65 189.29,-722.73"/>
<polygon fill="#63b8ff" stroke="#63b8ff" points="78.33,-566.53 71.73,-558.23 71.71,-568.83 78.33,-566.53"/>
</a>
</g>
</g>
<!-- Node16 -->
<g id="Node000016" class="node">
<title>Node16</title>
<g id="a_Node000016"><a xlink:href="dd/d30/classTerraria_1_1DataStructures_1_1EntitySource__Film.html" target="_top" xlink:title=" ">
<polygon fill="white" stroke="#666666" points="326,-702 194,-702 194,-672 326,-672 326,-702"/>
<text text-anchor="start" x="202" y="-690" font-family="Helvetica,sans-Serif" font-size="10.00">Terraria.DataStructures.</text>
<text text-anchor="middle" x="260" y="-679" font-family="Helvetica,sans-Serif" font-size="10.00">EntitySource_Film</text>
</a>
</g>
</g>
<!-- Node0&#45;&gt;Node16 -->
<g id="edge367_Node000000_Node000016" class="edge">
<title>Node0&#45;&gt;Node16</title>
<g id="a_edge367_Node000000_Node000016"><a xlink:title=" ">
<path fill="none" stroke="#63b8ff" d="M80.62,-566.67C97.59,-594.02 129.14,-638.39 168,-663 175.87,-667.98 184.74,-671.94 193.79,-675.07"/>
<polygon fill="#63b8ff" stroke="#63b8ff" points="83.61,-564.85 75.44,-558.11 77.62,-568.47 83.61,-564.85"/>
</a>
</g>
</g>
<!-- Node17 -->
<g id="Node000017" class="node">
<title>Node17</title>
<g id="a_Node000017"><a xlink:href="d9/deb/classTerraria_1_1DataStructures_1_1EntitySource__FishedOut.html" target="_top" xlink:title=" ">
<polygon fill="white" stroke="#666666" points="326,-654 194,-654 194,-624 326,-624 326,-654"/>
<text text-anchor="start" x="202" y="-642" font-family="Helvetica,sans-Serif" font-size="10.00">Terraria.DataStructures.</text>
<text text-anchor="middle" x="260" y="-631" font-family="Helvetica,sans-Serif" font-size="10.00">EntitySource_FishedOut</text>
</a>
</g>
</g>
<!-- Node0&#45;&gt;Node17 -->
<g id="edge368_Node000000_Node000017" class="edge">
<title>Node0&#45;&gt;Node17</title>
<g id="a_edge368_Node000000_Node000017"><a xlink:title=" ">
<path fill="none" stroke="#63b8ff" d="M91.81,-564.6C111.33,-580.59 139.85,-601.8 168,-615 176.14,-618.82 184.98,-622.1 193.84,-624.91"/>
<polygon fill="#63b8ff" stroke="#63b8ff" points="93.94,-561.82 84.02,-558.11 89.46,-567.2 93.94,-561.82"/>
</a>
</g>
</g>
<!-- Node18 -->
<g id="Node000018" class="node">
<title>Node18</title>
<g id="a_Node000018"><a xlink:href="de/d55/classTerraria_1_1DataStructures_1_1EntitySource__Gift.html" target="_top" xlink:title=" ">
<polygon fill="white" stroke="#666666" points="326,-606 194,-606 194,-576 326,-576 326,-606"/>
<text text-anchor="start" x="202" y="-594" font-family="Helvetica,sans-Serif" font-size="10.00">Terraria.DataStructures.</text>
<text text-anchor="middle" x="260" y="-583" font-family="Helvetica,sans-Serif" font-size="10.00">EntitySource_Gift</text>
</a>
</g>
</g>
<!-- Node0&#45;&gt;Node18 -->
<g id="edge369_Node000000_Node000018" class="edge">
<title>Node0&#45;&gt;Node18</title>
<g id="a_edge369_Node000000_Node000018"><a xlink:title=" ">
<path fill="none" stroke="#63b8ff" d="M137.04,-560.51C157.36,-565.59 179.35,-571.09 198.99,-576"/>
<polygon fill="#63b8ff" stroke="#63b8ff" points="137.77,-557.09 127.22,-558.06 136.08,-563.88 137.77,-557.09"/>
</a>
</g>
</g>
<!-- Node19 -->
<g id="Node000019" class="node">
<title>Node19</title>
<g id="a_Node000019"><a xlink:href="d0/d35/classTerraria_1_1DataStructures_1_1EntitySource__ItemOpen.html" target="_top" xlink:title=" ">
<polygon fill="white" stroke="#666666" points="326,-558 194,-558 194,-528 326,-528 326,-558"/>
<text text-anchor="start" x="202" y="-546" font-family="Helvetica,sans-Serif" font-size="10.00">Terraria.DataStructures.</text>
<text text-anchor="middle" x="260" y="-535" font-family="Helvetica,sans-Serif" font-size="10.00">EntitySource_ItemOpen</text>
</a>
</g>
</g>
<!-- Node0&#45;&gt;Node19 -->
<g id="edge370_Node000000_Node000019" class="edge">
<title>Node0&#45;&gt;Node19</title>
<g id="a_edge370_Node000000_Node000019"><a xlink:title=" ">
<path fill="none" stroke="#63b8ff" d="M142.42,-543C159.38,-543 177.24,-543 193.74,-543"/>
<polygon fill="#63b8ff" stroke="#63b8ff" points="142,-539.5 132,-543 142,-546.5 142,-539.5"/>
</a>
</g>
</g>
<!-- Node20 -->
<g id="Node000020" class="node">
<title>Node20</title>
<g id="a_Node000020"><a xlink:href="d0/d29/classTerraria_1_1DataStructures_1_1EntitySource__ItemUse.html" target="_top" xlink:title=" ">
<polygon fill="white" stroke="#666666" points="326,-510 194,-510 194,-480 326,-480 326,-510"/>
<text text-anchor="start" x="202" y="-498" font-family="Helvetica,sans-Serif" font-size="10.00">Terraria.DataStructures.</text>
<text text-anchor="middle" x="260" y="-487" font-family="Helvetica,sans-Serif" font-size="10.00">EntitySource_ItemUse</text>
</a>
</g>
</g>
<!-- Node0&#45;&gt;Node20 -->
<g id="edge371_Node000000_Node000020" class="edge">
<title>Node0&#45;&gt;Node20</title>
<g id="a_edge371_Node000000_Node000020"><a xlink:title=" ">
<path fill="none" stroke="#63b8ff" d="M137.04,-525.49C157.36,-520.41 179.35,-514.91 198.99,-510"/>
<polygon fill="#63b8ff" stroke="#63b8ff" points="136.08,-522.12 127.22,-527.94 137.77,-528.91 136.08,-522.12"/>
</a>
</g>
</g>
<!-- Node22 -->
<g id="Node000022" class="node">
<title>Node22</title>
<g id="a_Node000022"><a xlink:href="d2/dc7/classTerraria_1_1DataStructures_1_1EntitySource__Loot.html" target="_top" xlink:title=" ">
<polygon fill="white" stroke="#666666" points="326,-462 194,-462 194,-432 326,-432 326,-462"/>
<text text-anchor="start" x="202" y="-450" font-family="Helvetica,sans-Serif" font-size="10.00">Terraria.DataStructures.</text>
<text text-anchor="middle" x="260" y="-439" font-family="Helvetica,sans-Serif" font-size="10.00">EntitySource_Loot</text>
</a>
</g>
</g>
<!-- Node0&#45;&gt;Node22 -->
<g id="edge373_Node000000_Node000022" class="edge">
<title>Node0&#45;&gt;Node22</title>
<g id="a_edge373_Node000000_Node000022"><a xlink:title=" ">
<path fill="none" stroke="#63b8ff" d="M91.81,-521.4C111.33,-505.41 139.85,-484.2 168,-471 176.14,-467.18 184.98,-463.9 193.84,-461.09"/>
<polygon fill="#63b8ff" stroke="#63b8ff" points="89.46,-518.8 84.02,-527.89 93.94,-524.18 89.46,-518.8"/>
</a>
</g>
</g>
<!-- Node23 -->
<g id="Node000023" class="node">
<title>Node23</title>
<g id="a_Node000023"><a xlink:href="d7/dda/classTerraria_1_1DataStructures_1_1EntitySource__Mount.html" target="_top" xlink:title=" ">
<polygon fill="white" stroke="#666666" points="326,-414 194,-414 194,-384 326,-384 326,-414"/>
<text text-anchor="start" x="202" y="-402" font-family="Helvetica,sans-Serif" font-size="10.00">Terraria.DataStructures.</text>
<text text-anchor="middle" x="260" y="-391" font-family="Helvetica,sans-Serif" font-size="10.00">EntitySource_Mount</text>
</a>
</g>
</g>
<!-- Node0&#45;&gt;Node23 -->
<g id="edge374_Node000000_Node000023" class="edge">
<title>Node0&#45;&gt;Node23</title>
<g id="a_edge374_Node000000_Node000023"><a xlink:title=" ">
<path fill="none" stroke="#63b8ff" d="M80.62,-519.33C97.59,-491.98 129.14,-447.61 168,-423 175.87,-418.02 184.74,-414.06 193.79,-410.93"/>
<polygon fill="#63b8ff" stroke="#63b8ff" points="77.62,-517.53 75.44,-527.89 83.61,-521.15 77.62,-517.53"/>
</a>
</g>
</g>
<!-- Node24 -->
<g id="Node000024" class="node">
<title>Node24</title>
<g id="a_Node000024"><a xlink:href="d4/d25/classTerraria_1_1DataStructures_1_1EntitySource__OldOnesArmy.html" target="_top" xlink:title=" ">
<polygon fill="white" stroke="#666666" points="335.5,-366 184.5,-366 184.5,-336 335.5,-336 335.5,-366"/>
<text text-anchor="start" x="192.5" y="-354" font-family="Helvetica,sans-Serif" font-size="10.00">Terraria.DataStructures.</text>
<text text-anchor="middle" x="260" y="-343" font-family="Helvetica,sans-Serif" font-size="10.00">EntitySource_OldOnesArmy</text>
</a>
</g>
</g>
<!-- Node0&#45;&gt;Node24 -->
<g id="edge375_Node000000_Node000024" class="edge">
<title>Node0&#45;&gt;Node24</title>
<g id="a_edge375_Node000000_Node000024"><a xlink:title=" ">
<path fill="none" stroke="#63b8ff" d="M75.04,-518.26C88.34,-481.33 118.48,-412.15 168,-375 172.97,-371.27 178.46,-368.13 184.22,-365.46"/>
<polygon fill="#63b8ff" stroke="#63b8ff" points="71.71,-517.17 71.73,-527.77 78.33,-519.47 71.71,-517.17"/>
</a>
</g>
</g>
<!-- Node25 -->
<g id="Node000025" class="node">
<title>Node25</title>
<g id="a_Node000025"><a xlink:href="db/da3/classTerraria_1_1DataStructures_1_1EntitySource__Parent.html" target="_top" xlink:title=" ">
<polygon fill="white" stroke="#666666" points="326,-318 194,-318 194,-288 326,-288 326,-318"/>
<text text-anchor="start" x="202" y="-306" font-family="Helvetica,sans-Serif" font-size="10.00">Terraria.DataStructures.</text>
<text text-anchor="middle" x="260" y="-295" font-family="Helvetica,sans-Serif" font-size="10.00">EntitySource_Parent</text>
</a>
</g>
</g>
<!-- Node0&#45;&gt;Node25 -->
<g id="edge376_Node000000_Node000025" class="edge">
<title>Node0&#45;&gt;Node25</title>
<g id="a_edge376_Node000000_Node000025"><a xlink:title=" ">
<path fill="none" stroke="#63b8ff" d="M71.53,-517.89C81.04,-472.68 107.4,-377.6 168,-327 175.53,-320.72 184.52,-316.06 193.89,-312.61"/>
<polygon fill="#63b8ff" stroke="#63b8ff" points="68.09,-517.26 69.56,-527.75 74.95,-518.63 68.09,-517.26"/>
</a>
</g>
</g>
<!-- Node26 -->
<g id="Node000026" class="node">
<title>Node26</title>
<g id="a_Node000026"><a xlink:href="d2/d24/classTerraria_1_1DataStructures_1_1EntitySource__RevengeSystem.html" target="_top" xlink:title=" ">
<polygon fill="white" stroke="#666666" points="341.5,-270 178.5,-270 178.5,-240 341.5,-240 341.5,-270"/>
<text text-anchor="start" x="186.5" y="-258" font-family="Helvetica,sans-Serif" font-size="10.00">Terraria.DataStructures.</text>
<text text-anchor="middle" x="260" y="-247" font-family="Helvetica,sans-Serif" font-size="10.00">EntitySource_RevengeSystem</text>
</a>
</g>
</g>
<!-- Node0&#45;&gt;Node26 -->
<g id="edge377_Node000000_Node000026" class="edge">
<title>Node0&#45;&gt;Node26</title>
<g id="a_edge377_Node000000_Node000026"><a xlink:title=" ">
<path fill="none" stroke="#63b8ff" d="M69.16,-517.68C75.04,-465.09 96.07,-343.58 168,-279 171.77,-275.62 175.96,-272.7 180.41,-270.19"/>
<polygon fill="#63b8ff" stroke="#63b8ff" points="65.66,-517.5 68.12,-527.81 72.62,-518.22 65.66,-517.5"/>
</a>
</g>
</g>
<!-- Node27 -->
<g id="Node000027" class="node">
<title>Node27</title>
<g id="a_Node000027"><a xlink:href="dd/d24/classTerraria_1_1DataStructures_1_1EntitySource__SpawnNPC.html" target="_top" xlink:title=" ">
<polygon fill="white" stroke="#666666" points="328,-222 192,-222 192,-192 328,-192 328,-222"/>
<text text-anchor="start" x="200" y="-210" font-family="Helvetica,sans-Serif" font-size="10.00">Terraria.DataStructures.</text>
<text text-anchor="middle" x="260" y="-199" font-family="Helvetica,sans-Serif" font-size="10.00">EntitySource_SpawnNPC</text>
</a>
</g>
</g>
<!-- Node0&#45;&gt;Node27 -->
<g id="edge378_Node000000_Node000027" class="edge">
<title>Node0&#45;&gt;Node27</title>
<g id="a_edge378_Node000000_Node000027"><a xlink:title=" ">
<path fill="none" stroke="#63b8ff" d="M67.45,-517.33C69.94,-457.89 84.67,-309.86 168,-231 174.76,-224.6 183.03,-219.86 191.79,-216.36"/>
<polygon fill="#63b8ff" stroke="#63b8ff" points="63.94,-517.57 67.11,-527.68 70.94,-517.8 63.94,-517.57"/>
</a>
</g>
</g>
<!-- Node28 -->
<g id="Node000028" class="node">
<title>Node28</title>
<g id="a_Node000028"><a xlink:href="d5/db1/classTerraria_1_1DataStructures_1_1EntitySource__Sync.html" target="_top" xlink:title=" ">
<polygon fill="white" stroke="#666666" points="326,-174 194,-174 194,-144 326,-144 326,-174"/>
<text text-anchor="start" x="202" y="-162" font-family="Helvetica,sans-Serif" font-size="10.00">Terraria.DataStructures.</text>
<text text-anchor="middle" x="260" y="-151" font-family="Helvetica,sans-Serif" font-size="10.00">EntitySource_Sync</text>
</a>
</g>
</g>
<!-- Node0&#45;&gt;Node28 -->
<g id="edge379_Node000000_Node000028" class="edge">
<title>Node0&#45;&gt;Node28</title>
<g id="a_edge379_Node000000_Node000028"><a xlink:title=" ">
<path fill="none" stroke="#63b8ff" d="M66.14,-517.53C65.41,-452.08 72.89,-276.63 168,-183 175.22,-175.89 184.28,-170.82 193.86,-167.21"/>
<polygon fill="#63b8ff" stroke="#63b8ff" points="62.65,-517.81 66.34,-527.74 69.65,-517.68 62.65,-517.81"/>
</a>
</g>
</g>
<!-- Node29 -->
<g id="Node000029" class="node">
<title>Node29</title>
<g id="a_Node000029"><a xlink:href="d3/db0/classTerraria_1_1DataStructures_1_1EntitySource__TileEntity.html" target="_top" xlink:title=" ">
<polygon fill="white" stroke="#666666" points="326,-126 194,-126 194,-96 326,-96 326,-126"/>
<text text-anchor="start" x="202" y="-114" font-family="Helvetica,sans-Serif" font-size="10.00">Terraria.DataStructures.</text>
<text text-anchor="middle" x="260" y="-103" font-family="Helvetica,sans-Serif" font-size="10.00">EntitySource_TileEntity</text>
</a>
</g>
</g>
<!-- Node0&#45;&gt;Node29 -->
<g id="edge380_Node000000_Node000029" class="edge">
<title>Node0&#45;&gt;Node29</title>
<g id="a_edge380_Node000000_Node000029"><a xlink:title=" ">
<path fill="none" stroke="#63b8ff" d="M69.91,-517.54C79.61,-437.11 113.35,-190.49 168,-135 175.11,-127.78 184.11,-122.65 193.67,-119.02"/>
<polygon fill="#63b8ff" stroke="#63b8ff" points="66.4,-517.41 68.7,-527.75 73.36,-518.23 66.4,-517.41"/>
</a>
</g>
</g>
<!-- Node30 -->
<g id="Node000030" class="node">
<title>Node30</title>
<g id="a_Node000030"><a xlink:href="da/d80/classTerraria_1_1DataStructures_1_1EntitySource__WorldEvent.html" target="_top" xlink:title=" ">
<polygon fill="white" stroke="#666666" points="329.5,-78 190.5,-78 190.5,-48 329.5,-48 329.5,-78"/>
<text text-anchor="start" x="198.5" y="-66" font-family="Helvetica,sans-Serif" font-size="10.00">Terraria.DataStructures.</text>
<text text-anchor="middle" x="260" y="-55" font-family="Helvetica,sans-Serif" font-size="10.00">EntitySource_WorldEvent</text>
</a>
</g>
</g>
<!-- Node0&#45;&gt;Node30 -->
<g id="edge381_Node000000_Node000030" class="edge">
<title>Node0&#45;&gt;Node30</title>
<g id="a_edge381_Node000000_Node000030"><a xlink:title=" ">
<path fill="none" stroke="#63b8ff" d="M69.18,-517.74C77.13,-431.45 107.32,-150.15 168,-87 174.23,-80.52 181.98,-75.72 190.31,-72.17"/>
<polygon fill="#63b8ff" stroke="#63b8ff" points="65.67,-517.66 68.26,-527.93 72.64,-518.29 65.67,-517.66"/>
</a>
</g>
</g>
<!-- Node31 -->
<g id="Node000031" class="node">
<title>Node31</title>
<g id="a_Node000031"><a xlink:href="d2/db2/classTerraria_1_1DataStructures_1_1EntitySource__WorldGen.html" target="_top" xlink:title=" ">
<polygon fill="white" stroke="#666666" points="326,-30 194,-30 194,0 326,0 326,-30"/>
<text text-anchor="start" x="202" y="-18" font-family="Helvetica,sans-Serif" font-size="10.00">Terraria.DataStructures.</text>
<text text-anchor="middle" x="260" y="-7" font-family="Helvetica,sans-Serif" font-size="10.00">EntitySource_WorldGen</text>
</a>
</g>
</g>
<!-- Node0&#45;&gt;Node31 -->
<g id="edge382_Node000000_Node000031" class="edge">
<title>Node0&#45;&gt;Node31</title>
<g id="a_edge382_Node000000_Node000031"><a xlink:title=" ">
<path fill="none" stroke="#63b8ff" d="M68.6,-517.83C74.93,-425.89 101.28,-109.86 168,-39 175.06,-31.51 184.15,-26.25 193.85,-22.58"/>
<polygon fill="#63b8ff" stroke="#63b8ff" points="65.1,-517.69 67.92,-527.9 72.08,-518.16 65.1,-517.69"/>
</a>
</g>
</g>
<!-- Node2 -->
<g id="Node000002" class="node">
<title>Node2</title>
<g id="a_Node000002"><a xlink:href="df/dc2/classTerraria_1_1DataStructures_1_1EntitySource__OnHit__ByItemSourceID.html" target="_top" xlink:title=" ">
<polygon fill="white" stroke="#666666" points="583,-1218 388,-1218 388,-1188 583,-1188 583,-1218"/>
<text text-anchor="start" x="396" y="-1206" font-family="Helvetica,sans-Serif" font-size="10.00">Terraria.DataStructures.</text>
<text text-anchor="middle" x="485.5" y="-1195" font-family="Helvetica,sans-Serif" font-size="10.00">EntitySource_OnHit_ByItemSourceID</text>
</a>
</g>
</g>
<!-- Node1&#45;&gt;Node2 -->
<g id="edge353_Node000001_Node000002" class="edge">
<title>Node1&#45;&gt;Node2</title>
<g id="a_edge353_Node000001_Node000002"><a xlink:title=" ">
<path fill="none" stroke="#63b8ff" d="M333.22,-1166.45C361.9,-1173.38 394.57,-1181.27 422.19,-1187.95"/>
<polygon fill="#63b8ff" stroke="#63b8ff" points="333.8,-1162.99 323.26,-1164.04 332.16,-1169.79 333.8,-1162.99"/>
</a>
</g>
</g>
<!-- Node3 -->
<g id="Node000003" class="node">
<title>Node3</title>
<g id="a_Node000003"><a xlink:href="de/db8/classTerraria_1_1DataStructures_1_1EntitySource__OnHit__ByProjectileSourceID.html" target="_top" xlink:title=" ">
<polygon fill="white" stroke="#666666" points="573,-1169.5 398,-1169.5 398,-1128.5 573,-1128.5 573,-1169.5"/>
<text text-anchor="start" x="406" y="-1157.5" font-family="Helvetica,sans-Serif" font-size="10.00">Terraria.DataStructures.</text>
<text text-anchor="start" x="406" y="-1146.5" font-family="Helvetica,sans-Serif" font-size="10.00">EntitySource_OnHit_ByProjectile</text>
<text text-anchor="middle" x="485.5" y="-1135.5" font-family="Helvetica,sans-Serif" font-size="10.00">SourceID</text>
</a>
</g>
</g>
<!-- Node1&#45;&gt;Node3 -->
<g id="edge354_Node000001_Node000003" class="edge">
<title>Node1&#45;&gt;Node3</title>
<g id="a_edge354_Node000001_Node000003"><a xlink:title=" ">
<path fill="none" stroke="#63b8ff" d="M336.42,-1149C356.19,-1149 377.66,-1149 397.97,-1149"/>
<polygon fill="#63b8ff" stroke="#63b8ff" points="336.25,-1145.5 326.25,-1149 336.25,-1152.5 336.25,-1145.5"/>
</a>
</g>
</g>
<!-- Node5 -->
<g id="Node000005" class="node">
<title>Node5</title>
<g id="a_Node000005"><a xlink:href="df/d09/classTerraria_1_1DataStructures_1_1EntitySource__OverfullChest.html" target="_top" xlink:title=" ">
<polygon fill="white" stroke="#666666" points="560.5,-1110 410.5,-1110 410.5,-1080 560.5,-1080 560.5,-1110"/>
<text text-anchor="start" x="418.5" y="-1098" font-family="Helvetica,sans-Serif" font-size="10.00">Terraria.DataStructures.</text>
<text text-anchor="middle" x="485.5" y="-1087" font-family="Helvetica,sans-Serif" font-size="10.00">EntitySource_OverfullChest</text>
</a>
</g>
</g>
<!-- Node4&#45;&gt;Node5 -->
<g id="edge356_Node000004_Node000005" class="edge">
<title>Node4&#45;&gt;Node5</title>
<g id="a_edge356_Node000004_Node000005"><a xlink:title=" ">
<path fill="none" stroke="#63b8ff" d="M306.82,-1041.81C330.77,-1051.26 360.71,-1062.48 388,-1071 398.13,-1074.16 408.97,-1077.19 419.58,-1079.97"/>
<polygon fill="#63b8ff" stroke="#63b8ff" points="307.87,-1038.46 297.28,-1038.02 305.28,-1044.96 307.87,-1038.46"/>
</a>
</g>
</g>
<!-- Node6 -->
<g id="Node000006" class="node">
<title>Node6</title>
<g id="a_Node000006"><a xlink:href="db/dfe/classTerraria_1_1DataStructures_1_1EntitySource__ShakeTree.html" target="_top" xlink:title=" ">
<polygon fill="white" stroke="#666666" points="552,-1062 419,-1062 419,-1032 552,-1032 552,-1062"/>
<text text-anchor="start" x="427" y="-1050" font-family="Helvetica,sans-Serif" font-size="10.00">Terraria.DataStructures.</text>
<text text-anchor="middle" x="485.5" y="-1039" font-family="Helvetica,sans-Serif" font-size="10.00">EntitySource_ShakeTree</text>
</a>
</g>
</g>
<!-- Node4&#45;&gt;Node6 -->
<g id="edge357_Node000004_Node000006" class="edge">
<title>Node4&#45;&gt;Node6</title>
<g id="a_edge357_Node000004_Node000006"><a xlink:title=" ">
<path fill="none" stroke="#63b8ff" d="M336.32,-1031.09C363.06,-1033.96 392.92,-1037.17 418.79,-1039.94"/>
<polygon fill="#63b8ff" stroke="#63b8ff" points="336.56,-1027.59 326.25,-1030.01 335.82,-1034.55 336.56,-1027.59"/>
</a>
</g>
</g>
<!-- Node7 -->
<g id="Node000007" class="node">
<title>Node7</title>
<g id="a_Node000007"><a xlink:href="d4/d65/classTerraria_1_1DataStructures_1_1EntitySource__TileBreak.html" target="_top" xlink:title=" ">
<polygon fill="white" stroke="#666666" points="551.5,-1014 419.5,-1014 419.5,-984 551.5,-984 551.5,-1014"/>
<text text-anchor="start" x="427.5" y="-1002" font-family="Helvetica,sans-Serif" font-size="10.00">Terraria.DataStructures.</text>
<text text-anchor="middle" x="485.5" y="-991" font-family="Helvetica,sans-Serif" font-size="10.00">EntitySource_TileBreak</text>
</a>
</g>
</g>
<!-- Node4&#45;&gt;Node7 -->
<g id="edge358_Node000004_Node000007" class="edge">
<title>Node4&#45;&gt;Node7</title>
<g id="a_edge358_Node000004_Node000007"><a xlink:title=" ">
<path fill="none" stroke="#63b8ff" d="M336.37,-1014.91C363.23,-1012.02 393.23,-1008.8 419.17,-1006.02"/>
<polygon fill="#63b8ff" stroke="#63b8ff" points="335.82,-1011.45 326.25,-1015.99 336.56,-1018.41 335.82,-1011.45"/>
</a>
</g>
</g>
<!-- Node8 -->
<g id="Node000008" class="node">
<title>Node8</title>
<g id="a_Node000008"><a xlink:href="d5/df3/classTerraria_1_1DataStructures_1_1EntitySource__TileInteraction.html" target="_top" xlink:title=" ">
<polygon fill="white" stroke="#666666" points="562.5,-966 408.5,-966 408.5,-936 562.5,-936 562.5,-966"/>
<text text-anchor="start" x="416.5" y="-954" font-family="Helvetica,sans-Serif" font-size="10.00">Terraria.DataStructures.</text>
<text text-anchor="middle" x="485.5" y="-943" font-family="Helvetica,sans-Serif" font-size="10.00">EntitySource_TileInteraction</text>
</a>
</g>
</g>
<!-- Node4&#45;&gt;Node8 -->
<g id="edge359_Node000004_Node000008" class="edge">
<title>Node4&#45;&gt;Node8</title>
<g id="a_edge359_Node000004_Node000008"><a xlink:title=" ">
<path fill="none" stroke="#63b8ff" d="M335.59,-1005.51C341.22,-1003.53 346.75,-1001.36 352,-999 369.54,-991.11 370.41,-982.77 388,-975 395.66,-971.62 403.88,-968.66 412.17,-966.08"/>
<polygon fill="#63b8ff" stroke="#63b8ff" points="334.44,-1002.2 326.05,-1008.67 336.64,-1008.85 334.44,-1002.2"/>
</a>
</g>
</g>
<!-- Node9 -->
<g id="Node000009" class="node">
<title>Node9</title>
<g id="a_Node000009"><a xlink:href="d1/df1/classTerraria_1_1DataStructures_1_1EntitySource__Wiring.html" target="_top" xlink:title=" ">
<polygon fill="white" stroke="#666666" points="551.5,-918 419.5,-918 419.5,-888 551.5,-888 551.5,-918"/>
<text text-anchor="start" x="427.5" y="-906" font-family="Helvetica,sans-Serif" font-size="10.00">Terraria.DataStructures.</text>
<text text-anchor="middle" x="485.5" y="-895" font-family="Helvetica,sans-Serif" font-size="10.00">EntitySource_Wiring</text>
</a>
</g>
</g>
<!-- Node4&#45;&gt;Node9 -->
<g id="edge360_Node000004_Node000009" class="edge">
<title>Node4&#45;&gt;Node9</title>
<g id="a_edge360_Node000004_Node000009"><a xlink:title=" ">
<path fill="none" stroke="#63b8ff" d="M335.78,-1009.1C341.59,-1006.32 347.09,-1002.99 352,-999 379.76,-976.43 360.08,-949.37 388,-927 397.09,-919.71 408.1,-914.6 419.38,-911.02"/>
<polygon fill="#63b8ff" stroke="#63b8ff" points="334.29,-1005.93 326.44,-1013.04 337.01,-1012.38 334.29,-1005.93"/>
</a>
</g>
</g>
<!-- Node21 -->
<g id="Node000021" class="node">
<title>Node21</title>
<g id="a_Node000021"><a xlink:href="dd/dee/classTerraria_1_1DataStructures_1_1EntitySource__ItemUse__WithAmmo.html" target="_top" xlink:title=" ">
<polygon fill="white" stroke="#666666" points="578,-510 393,-510 393,-480 578,-480 578,-510"/>
<text text-anchor="start" x="401" y="-498" font-family="Helvetica,sans-Serif" font-size="10.00">Terraria.DataStructures.</text>
<text text-anchor="middle" x="485.5" y="-487" font-family="Helvetica,sans-Serif" font-size="10.00">EntitySource_ItemUse_WithAmmo</text>
</a>
</g>
</g>
<!-- Node20&#45;&gt;Node21 -->
<g id="edge372_Node000020_Node000021" class="edge">
<title>Node20&#45;&gt;Node21</title>
<g id="a_edge372_Node000020_Node000021"><a xlink:title=" ">
<path fill="none" stroke="#63b8ff" d="M336.4,-495C354.44,-495 373.9,-495 392.6,-495"/>
<polygon fill="#63b8ff" stroke="#63b8ff" points="336.25,-491.5 326.25,-495 336.25,-498.5 336.25,-491.5"/>
</a>
</g>
</g>
</g>
</svg>
