<?xml version="1.0" encoding="UTF-8" standalone="no"?>
<!DOCTYPE svg PUBLIC "-//W3C//DTD SVG 1.1//EN"
 "http://www.w3.org/Graphics/SVG/1.1/DTD/svg11.dtd">
<!-- Generated by graphviz version 2.43.0 (0)
 -->
<!-- Title: UIResourcePackSelectionMenu.UpdateTitles Pages: 1 -->
<svg width="981pt" height="170pt"
 viewBox="0.00 0.00 981.00 170.00" xmlns="http://www.w3.org/2000/svg" xmlns:xlink="http://www.w3.org/1999/xlink">
<g id="graph0" class="graph" transform="scale(1 1) rotate(0) translate(4 166)">
<title>UIResourcePackSelectionMenu.UpdateTitles</title>
<polygon fill="white" stroke="transparent" points="-4,4 -4,-166 977,-166 977,4 -4,4"/>
<!-- Node1 -->
<g id="node1" class="node">
<title>Node1</title>
<g id="a_node1"><a xlink:title=" ">
<polygon fill="#bfbfbf" stroke="black" points="0,-99 0,-129 170,-129 170,-99 0,-99"/>
<text text-anchor="start" x="8" y="-117" font-family="Helvetica,sans-Serif" font-size="10.00">UIResourcePackSelectionMenu.</text>
<text text-anchor="middle" x="85" y="-106" font-family="Helvetica,sans-Serif" font-size="10.00">UpdateTitles</text>
</a>
</g>
</g>
<!-- Node2 -->
<g id="node2" class="node">
<title>Node2</title>
<g id="a_node2"><a xlink:href="../../d1/d68/classLocalizedText_a293e37e2678717137ac1e28a79365a96.html#a293e37e2678717137ac1e28a79365a96" target="_top" xlink:title=" ">
<polygon fill="white" stroke="black" points="206,-142.5 206,-161.5 349,-161.5 349,-142.5 206,-142.5"/>
<text text-anchor="middle" x="277.5" y="-149.5" font-family="Helvetica,sans-Serif" font-size="10.00">LocalizedText.FormatWith</text>
</a>
</g>
</g>
<!-- Node1&#45;&gt;Node2 -->
<g id="edge1" class="edge">
<title>Node1&#45;&gt;Node2</title>
<path fill="none" stroke="midnightblue" d="M161.29,-129.02C180.51,-132.85 200.86,-136.91 219.02,-140.54"/>
<polygon fill="midnightblue" stroke="midnightblue" points="218.38,-143.98 228.87,-142.5 219.75,-137.11 218.38,-143.98"/>
</g>
<!-- Node3 -->
<g id="node3" class="node">
<title>Node3</title>
<g id="a_node3"><a xlink:href="../../d0/d41/classLanguage_ae3cd200b00ed005379aa712464e298fc.html#ae3cd200b00ed005379aa712464e298fc" target="_top" xlink:title=" ">
<polygon fill="white" stroke="black" points="225.5,-104.5 225.5,-123.5 329.5,-123.5 329.5,-104.5 225.5,-104.5"/>
<text text-anchor="middle" x="277.5" y="-111.5" font-family="Helvetica,sans-Serif" font-size="10.00">Language.GetText</text>
</a>
</g>
</g>
<!-- Node1&#45;&gt;Node3 -->
<g id="edge2" class="edge">
<title>Node1&#45;&gt;Node3</title>
<path fill="none" stroke="midnightblue" d="M170.11,-114C185.27,-114 200.81,-114 215.17,-114"/>
<polygon fill="midnightblue" stroke="midnightblue" points="215.39,-117.5 225.39,-114 215.39,-110.5 215.39,-117.5"/>
</g>
<!-- Node5 -->
<g id="node5" class="node">
<title>Node5</title>
<g id="a_node5"><a xlink:href="../../dc/d7f/classUIText_ad4bbb4edcd27858a4ae8e7817922a34b.html#ad4bbb4edcd27858a4ae8e7817922a34b" target="_top" xlink:title=" ">
<polygon fill="white" stroke="black" points="234.5,-66.5 234.5,-85.5 320.5,-85.5 320.5,-66.5 234.5,-66.5"/>
<text text-anchor="middle" x="277.5" y="-73.5" font-family="Helvetica,sans-Serif" font-size="10.00">UIText.SetText</text>
</a>
</g>
</g>
<!-- Node1&#45;&gt;Node5 -->
<g id="edge4" class="edge">
<title>Node1&#45;&gt;Node5</title>
<path fill="none" stroke="midnightblue" d="M161.29,-98.98C182.46,-94.76 205,-90.26 224.48,-86.38"/>
<polygon fill="midnightblue" stroke="midnightblue" points="225.24,-89.79 234.37,-84.4 223.87,-82.93 225.24,-89.79"/>
</g>
<!-- Node4 -->
<g id="node4" class="node">
<title>Node4</title>
<g id="a_node4"><a xlink:href="../../d2/d9f/classLanguageManager_abbe15fadc798f67686508fcc1d887add.html#abbe15fadc798f67686508fcc1d887add" target="_top" xlink:title=" ">
<polygon fill="white" stroke="black" points="385,-104.5 385,-123.5 531,-123.5 531,-104.5 385,-104.5"/>
<text text-anchor="middle" x="458" y="-111.5" font-family="Helvetica,sans-Serif" font-size="10.00">LanguageManager.GetText</text>
</a>
</g>
</g>
<!-- Node3&#45;&gt;Node4 -->
<g id="edge3" class="edge">
<title>Node3&#45;&gt;Node4</title>
<path fill="none" stroke="midnightblue" d="M329.65,-114C343.76,-114 359.44,-114 374.84,-114"/>
<polygon fill="midnightblue" stroke="midnightblue" points="374.89,-117.5 384.89,-114 374.89,-110.5 374.89,-117.5"/>
</g>
<!-- Node6 -->
<g id="node6" class="node">
<title>Node6</title>
<g id="a_node6"><a xlink:href="../../dc/d7f/classUIText_aa6bb6de3f61c0c740fb0d2038e75da63.html#aa6bb6de3f61c0c740fb0d2038e75da63" target="_top" xlink:title=" ">
<polygon fill="white" stroke="black" points="396,-66.5 396,-85.5 520,-85.5 520,-66.5 396,-66.5"/>
<text text-anchor="middle" x="458" y="-73.5" font-family="Helvetica,sans-Serif" font-size="10.00">UIText.InternalSetText</text>
</a>
</g>
</g>
<!-- Node5&#45;&gt;Node6 -->
<g id="edge5" class="edge">
<title>Node5&#45;&gt;Node6</title>
<path fill="none" stroke="midnightblue" d="M320.8,-76C340.12,-76 363.53,-76 385.46,-76"/>
<polygon fill="midnightblue" stroke="midnightblue" points="385.74,-79.5 395.74,-76 385.74,-72.5 385.74,-79.5"/>
</g>
<!-- Node7 -->
<g id="node7" class="node">
<title>Node7</title>
<g id="a_node7"><a xlink:href="../../da/d82/classDynamicSpriteFont_a10d6315c043e1837224642bbd2fcea89.html#a10d6315c043e1837224642bbd2fcea89" target="_top" xlink:title=" ">
<polygon fill="white" stroke="black" points="579.5,-127 579.5,-157 724.5,-157 724.5,-127 579.5,-127"/>
<text text-anchor="start" x="587.5" y="-145" font-family="Helvetica,sans-Serif" font-size="10.00">DynamicSpriteFont.Create</text>
<text text-anchor="middle" x="652" y="-134" font-family="Helvetica,sans-Serif" font-size="10.00">WrappedText</text>
</a>
</g>
</g>
<!-- Node6&#45;&gt;Node7 -->
<g id="edge6" class="edge">
<title>Node6&#45;&gt;Node7</title>
<path fill="none" stroke="midnightblue" d="M503.47,-85.57C512.74,-88.16 522.32,-91.3 531,-95 548.25,-102.36 549.87,-109.37 567,-117 572.25,-119.34 577.79,-121.53 583.4,-123.57"/>
<polygon fill="midnightblue" stroke="midnightblue" points="582.3,-126.9 592.9,-126.86 584.59,-120.28 582.3,-126.9"/>
</g>
<!-- Node8 -->
<g id="node8" class="node">
<title>Node8</title>
<g id="a_node8"><a xlink:href="../../de/db3/classUIElement_adc42b475f74d77f6fe008b8f1e77ad19.html#adc42b475f74d77f6fe008b8f1e77ad19" target="_top" xlink:title=" ">
<polygon fill="white" stroke="black" points="567,-88.5 567,-107.5 737,-107.5 737,-88.5 567,-88.5"/>
<text text-anchor="middle" x="652" y="-95.5" font-family="Helvetica,sans-Serif" font-size="10.00">UIElement.GetInnerDimensions</text>
</a>
</g>
</g>
<!-- Node6&#45;&gt;Node8 -->
<g id="edge7" class="edge">
<title>Node6&#45;&gt;Node8</title>
<path fill="none" stroke="midnightblue" d="M520.01,-82.99C532.06,-84.37 544.95,-85.85 557.78,-87.32"/>
<polygon fill="midnightblue" stroke="midnightblue" points="557.7,-90.83 568.04,-88.49 558.5,-83.88 557.7,-90.83"/>
</g>
<!-- Node9 -->
<g id="node9" class="node">
<title>Node9</title>
<g id="a_node9"><a xlink:href="../../da/d82/classDynamicSpriteFont_a60cbfbf43aa1bebceaf16a64457fc297.html#a60cbfbf43aa1bebceaf16a64457fc297" target="_top" xlink:title=" ">
<polygon fill="white" stroke="black" points="574.5,-39 574.5,-69 729.5,-69 729.5,-39 574.5,-39"/>
<text text-anchor="start" x="582.5" y="-57" font-family="Helvetica,sans-Serif" font-size="10.00">DynamicSpriteFont.Measure</text>
<text text-anchor="middle" x="652" y="-46" font-family="Helvetica,sans-Serif" font-size="10.00">String</text>
</a>
</g>
</g>
<!-- Node6&#45;&gt;Node9 -->
<g id="edge8" class="edge">
<title>Node6&#45;&gt;Node9</title>
<path fill="none" stroke="midnightblue" d="M520.01,-69.01C534.02,-67.4 549.18,-65.67 564.05,-63.96"/>
<polygon fill="midnightblue" stroke="midnightblue" points="564.74,-67.41 574.27,-62.79 563.94,-60.45 564.74,-67.41"/>
</g>
<!-- Node11 -->
<g id="node11" class="node">
<title>Node11</title>
<g id="a_node11"><a xlink:href="../../d1/de0/structStyleDimension_a0c959bcdc133227ba2a5226e8cd4d4c4.html#a0c959bcdc133227ba2a5226e8cd4d4c4" target="_top" xlink:title=" ">
<polygon fill="white" stroke="black" points="595.5,-0.5 595.5,-19.5 708.5,-19.5 708.5,-0.5 595.5,-0.5"/>
<text text-anchor="middle" x="652" y="-7.5" font-family="Helvetica,sans-Serif" font-size="10.00">StyleDimension.Set</text>
</a>
</g>
</g>
<!-- Node6&#45;&gt;Node11 -->
<g id="edge10" class="edge">
<title>Node6&#45;&gt;Node11</title>
<path fill="none" stroke="midnightblue" d="M478.52,-66.5C499.86,-56.39 535.25,-40.46 567,-30 575.98,-27.04 585.64,-24.33 595.09,-21.91"/>
<polygon fill="midnightblue" stroke="midnightblue" points="595.96,-25.31 604.83,-19.51 594.29,-18.51 595.96,-25.31"/>
</g>
<!-- Node10 -->
<g id="node10" class="node">
<title>Node10</title>
<g id="a_node10"><a xlink:href="../../da/d82/classDynamicSpriteFont_a7ea9789665f8d0638966e54a9b4536f6.html#a7ea9789665f8d0638966e54a9b4536f6" target="_top" xlink:title=" ">
<polygon fill="white" stroke="black" points="773,-44.5 773,-63.5 973,-63.5 973,-44.5 773,-44.5"/>
<text text-anchor="middle" x="873" y="-51.5" font-family="Helvetica,sans-Serif" font-size="10.00">DynamicSpriteFont.GetCharacterData</text>
</a>
</g>
</g>
<!-- Node9&#45;&gt;Node10 -->
<g id="edge9" class="edge">
<title>Node9&#45;&gt;Node10</title>
<path fill="none" stroke="midnightblue" d="M729.6,-54C740.27,-54 751.4,-54 762.53,-54"/>
<polygon fill="midnightblue" stroke="midnightblue" points="762.74,-57.5 772.74,-54 762.74,-50.5 762.74,-57.5"/>
</g>
</g>
</svg>
