<?xml version="1.0" encoding="UTF-8" standalone="no"?>
<!DOCTYPE svg PUBLIC "-//W3C//DTD SVG 1.1//EN"
 "http://www.w3.org/Graphics/SVG/1.1/DTD/svg11.dtd">
<!-- Generated by graphviz version 2.43.0 (0)
 -->
<!-- Title: UIVirtualKeyboard.InternalSubmit Pages: 1 -->
<!--zoomable 127 -->
<svg id="main" version="1.1" xmlns="http://www.w3.org/2000/svg" xmlns:xlink="http://www.w3.org/1999/xlink" xml:space="preserve" onload="init(evt)">
<style type="text/css"><![CDATA[
.edge:hover path { stroke: red; }
.edge:hover polygon { stroke: red; fill: red; }
]]></style>
<script type="text/javascript"><![CDATA[
var edges = document.getElementsByTagName('g');
if (edges && edges.length) {
  for (var i=0;i<edges.length;i++) {
    if (edges[i].id.substr(0,4)=='edge') {
      edges[i].setAttribute('class','edge');
    }
  }
}
]]></script>
        <defs>
                <circle id="rim" cx="0" cy="0" r="7"/>
                <circle id="rim2" cx="0" cy="0" r="3.5"/>
                <g id="zoomPlus">
                        <use xlink:href="#rim" fill="#404040">
                                <set attributeName="fill" to="#808080" begin="zoomplus.mouseover" end="zoomplus.mouseout"/>
                        </use>
                        <path d="M-4,0h8M0,-4v8" fill="none" stroke="white" stroke-width="1.5" pointer-events="none"/>
                </g>
                <g id="zoomMin">
                        <use xlink:href="#rim" fill="#404040">
                                <set attributeName="fill" to="#808080" begin="zoomminus.mouseover" end="zoomminus.mouseout"/>
                        </use>
                        <path d="M-4,0h8" fill="none" stroke="white" stroke-width="1.5" pointer-events="none"/>
                </g>
                <g id="dirArrow">
                        <path fill="none" stroke="white" stroke-width="1.5" d="M0,-3.0v7 M-2.5,-0.5L0,-3.0L2.5,-0.5"/>
                </g>
               <g id="resetDef">
                       <use xlink:href="#rim2" fill="#404040">
                               <set attributeName="fill" to="#808080" begin="reset.mouseover" end="reset.mouseout"/>
                       </use>
               </g>
        </defs>

<script type="text/javascript">
var viewWidth = 521;
var viewHeight = 127;
var sectionId = 'dynsection-1';
</script>
<script xlink:href="../../svgpan.js"/>
<svg id="graph" class="graph">
<g id="viewport">
<title>UIVirtualKeyboard.InternalSubmit</title>
<polygon fill="white" stroke="transparent" points="-4,4 -4,-123 517,-123 517,4 -4,4"/>
<!-- Node1 -->
<g id="node1" class="node">
<title>Node1</title>
<g id="a_node1"><a xlink:title=" ">
<polygon fill="#bfbfbf" stroke="black" points="367,-44.5 367,-74.5 513,-74.5 513,-44.5 367,-44.5"/>
<text text-anchor="start" x="375" y="-62.5" font-family="Helvetica,sans-Serif" font-size="10.00">UIVirtualKeyboard.Internal</text>
<text text-anchor="middle" x="440" y="-51.5" font-family="Helvetica,sans-Serif" font-size="10.00">Submit</text>
</a>
</g>
</g>
<!-- Node2 -->
<g id="node2" class="node">
<title>Node2</title>
<g id="a_node2"><a xlink:href="../../d0/db5/classUIVirtualKeyboard_ae479f14b2aad215570bf588085bd1b59.html#ae479f14b2aad215570bf588085bd1b59" target="_top" xlink:title=" ">
<polygon fill="white" stroke="black" points="188,-50 188,-69 331,-69 331,-50 188,-50"/>
<text text-anchor="middle" x="259.5" y="-57" font-family="Helvetica,sans-Serif" font-size="10.00">UIVirtualKeyboard.Submit</text>
</a>
</g>
</g>
<!-- Node1&#45;&gt;Node2 -->
<g id="edge1" class="edge">
<title>Node1&#45;&gt;Node2</title>
<path fill="none" stroke="midnightblue" d="M356.87,-59.5C348.27,-59.5 339.58,-59.5 331.12,-59.5"/>
<polygon fill="midnightblue" stroke="midnightblue" points="356.91,-63 366.91,-59.5 356.91,-56 356.91,-63"/>
</g>
<!-- Node3 -->
<g id="node3" class="node">
<title>Node3</title>
<g id="a_node3"><a xlink:href="../../d0/db5/classUIVirtualKeyboard_a106a483dbe864d7530f4da616d708de7.html#a106a483dbe864d7530f4da616d708de7" target="_top" xlink:title=" ">
<polygon fill="white" stroke="black" points="0.5,-88.5 0.5,-118.5 151.5,-118.5 151.5,-88.5 0.5,-88.5"/>
<text text-anchor="start" x="8.5" y="-106.5" font-family="Helvetica,sans-Serif" font-size="10.00">UIVirtualKeyboard.UIVirtual</text>
<text text-anchor="middle" x="76" y="-95.5" font-family="Helvetica,sans-Serif" font-size="10.00">Keyboard</text>
</a>
</g>
</g>
<!-- Node2&#45;&gt;Node3 -->
<g id="edge2" class="edge">
<title>Node2&#45;&gt;Node3</title>
<path fill="none" stroke="midnightblue" d="M209.19,-71.46C187.59,-76.69 162.02,-82.89 139.14,-88.43"/>
<polygon fill="midnightblue" stroke="midnightblue" points="210.22,-74.8 219.12,-69.05 208.57,-68 210.22,-74.8"/>
</g>
<!-- Node4 -->
<g id="node4" class="node">
<title>Node4</title>
<g id="a_node4"><a xlink:href="../../d0/db5/classUIVirtualKeyboard_ae4e598bf13cda77f44941735b0bdb354.html#ae4e598bf13cda77f44941735b0bdb354" target="_top" xlink:title=" ">
<polygon fill="white" stroke="black" points="0,-50 0,-69 152,-69 152,-50 0,-50"/>
<text text-anchor="middle" x="76" y="-57" font-family="Helvetica,sans-Serif" font-size="10.00">UIVirtualKeyboard.DrawSelf</text>
</a>
</g>
</g>
<!-- Node2&#45;&gt;Node4 -->
<g id="edge3" class="edge">
<title>Node2&#45;&gt;Node4</title>
<path fill="none" stroke="midnightblue" d="M177.61,-59.5C169.19,-59.5 160.66,-59.5 152.3,-59.5"/>
<polygon fill="midnightblue" stroke="midnightblue" points="177.81,-63 187.81,-59.5 177.81,-56 177.81,-63"/>
</g>
<!-- Node5 -->
<g id="node5" class="node">
<title>Node5</title>
<g id="a_node5"><a xlink:href="../../df/dc3/classUILinksInitializer_a24350b4b723d2fe86218ab701348eb92.html#a24350b4b723d2fe86218ab701348eb92" target="_top" xlink:title=" ">
<polygon fill="white" stroke="black" points="12,-0.5 12,-30.5 140,-30.5 140,-0.5 12,-0.5"/>
<text text-anchor="start" x="20" y="-18.5" font-family="Helvetica,sans-Serif" font-size="10.00">UILinksInitializer.Fancy</text>
<text text-anchor="middle" x="76" y="-7.5" font-family="Helvetica,sans-Serif" font-size="10.00">UISpecialInstructions</text>
</a>
</g>
</g>
<!-- Node2&#45;&gt;Node5 -->
<g id="edge4" class="edge">
<title>Node2&#45;&gt;Node5</title>
<path fill="none" stroke="midnightblue" d="M209.19,-47.54C187.59,-42.31 162.02,-36.11 139.14,-30.57"/>
<polygon fill="midnightblue" stroke="midnightblue" points="208.57,-51 219.12,-49.95 210.22,-44.2 208.57,-51"/>
</g>
</g>
</svg>
        <g id="navigator" transform="translate(0 0)" fill="#404254">
                <rect fill="#f2f5e9" fill-opacity="0.5" stroke="#606060" stroke-width=".5" x="0" y="0" width="60" height="60"/>
                <use id="zoomplus" xlink:href="#zoomPlus" x="17" y="9" onmousedown="handleZoom(evt,'in')"/>
                <use id="zoomminus" xlink:href="#zoomMin" x="42" y="9" onmousedown="handleZoom(evt,'out')"/>
                <use id="reset" xlink:href="#resetDef" x="30" y="36" onmousedown="handleReset()"/>
                <g id="arrowUp" xlink:href="#dirArrow" transform="translate(30 24)" onmousedown="handlePan(0,-1)">
                  <use xlink:href="#rim" fill="#404040">
                        <set attributeName="fill" to="#808080" begin="arrowUp.mouseover" end="arrowUp.mouseout"/>
                  </use>
                  <path fill="none" stroke="white" stroke-width="1.5" d="M0,-3.0v7 M-2.5,-0.5L0,-3.0L2.5,-0.5"/>
                </g>
                <g id="arrowRight" xlink:href="#dirArrow" transform="rotate(90) translate(36 -43)" onmousedown="handlePan(1,0)">
                  <use xlink:href="#rim" fill="#404040">
                        <set attributeName="fill" to="#808080" begin="arrowRight.mouseover" end="arrowRight.mouseout"/>
                  </use>
                  <path fill="none" stroke="white" stroke-width="1.5" d="M0,-3.0v7 M-2.5,-0.5L0,-3.0L2.5,-0.5"/>
                </g>
                <g id="arrowDown" xlink:href="#dirArrow" transform="rotate(180) translate(-30 -48)" onmousedown="handlePan(0,1)">
                  <use xlink:href="#rim" fill="#404040">
                        <set attributeName="fill" to="#808080" begin="arrowDown.mouseover" end="arrowDown.mouseout"/>
                  </use>
                  <path fill="none" stroke="white" stroke-width="1.5" d="M0,-3.0v7 M-2.5,-0.5L0,-3.0L2.5,-0.5"/>
                </g>
                <g id="arrowLeft" xlink:href="#dirArrow" transform="rotate(270) translate(-36 17)" onmousedown="handlePan(-1,0)">
                  <use xlink:href="#rim" fill="#404040">
                        <set attributeName="fill" to="#808080" begin="arrowLeft.mouseover" end="arrowLeft.mouseout"/>
                  </use>
                  <path fill="none" stroke="white" stroke-width="1.5" d="M0,-3.0v7 M-2.5,-0.5L0,-3.0L2.5,-0.5"/>
                </g>
        </g>
        <svg viewBox="0 0 15 15" width="100%" height="30px" preserveAspectRatio="xMaxYMin meet">
         <g id="arrow_out" transform="scale(0.3 0.3)">
          <a xlink:href="classUIVirtualKeyboard_a64d47e22c2d13e19c7453ccdb163b26e_a64d47e22c2d13e19c7453ccdb163b26e_icgraph_org.svg" target="_base">
           <rect id="button" ry="5" rx="5" y="6" x="6" height="38" width="38"
                fill="#f2f5e9" fill-opacity="0.5" stroke="#606060" stroke-width="1.0"/>
           <path id="arrow"
             d="M 11.500037,31.436501 C 11.940474,20.09759 22.043105,11.32322 32.158766,21.979434 L 37.068811,17.246167 C 37.068811,17.246167 37.088388,32 37.088388,32 L 22.160133,31.978069 C 22.160133,31.978069 26.997745,27.140456 26.997745,27.140456 C 18.528582,18.264221 13.291696,25.230495 11.500037,31.436501 z"
             style="fill:#404040;"/>
          </a>
         </g>
        </svg>
</svg>
