<?xml version="1.0" encoding="UTF-8" standalone="no"?>
<!DOCTYPE svg PUBLIC "-//W3C//DTD SVG 1.1//EN"
 "http://www.w3.org/Graphics/SVG/1.1/DTD/svg11.dtd">
<!-- Generated by graphviz version 2.43.0 (0)
 -->
<!-- Title: UIVirtualKeyboard.SetupGamepadPoints Pages: 1 -->
<svg width="373pt" height="154pt"
 viewBox="0.00 0.00 373.00 154.00" xmlns="http://www.w3.org/2000/svg" xmlns:xlink="http://www.w3.org/1999/xlink">
<g id="graph0" class="graph" transform="scale(1 1) rotate(0) translate(4 150)">
<title>UIVirtualKeyboard.SetupGamepadPoints</title>
<polygon fill="white" stroke="transparent" points="-4,4 -4,-150 369,-150 369,4 -4,4"/>
<!-- Node1 -->
<g id="node1" class="node">
<title>Node1</title>
<g id="a_node1"><a xlink:title=" ">
<polygon fill="#bfbfbf" stroke="black" points="0,-61 0,-91 183,-91 183,-61 0,-61"/>
<text text-anchor="start" x="8" y="-79" font-family="Helvetica,sans-Serif" font-size="10.00">UIVirtualKeyboard.SetupGamepad</text>
<text text-anchor="middle" x="91.5" y="-68" font-family="Helvetica,sans-Serif" font-size="10.00">Points</text>
</a>
</g>
</g>
<!-- Node2 -->
<g id="node2" class="node">
<title>Node2</title>
<g id="a_node2"><a xlink:href="../../d8/daa/structCalculatedStyle_a68a5f44c6a5daca8445f23a30c1ccda6.html#a68a5f44c6a5daca8445f23a30c1ccda6" target="_top" xlink:title=" ">
<polygon fill="white" stroke="black" points="228,-126.5 228,-145.5 356,-145.5 356,-126.5 228,-126.5"/>
<text text-anchor="middle" x="292" y="-133.5" font-family="Helvetica,sans-Serif" font-size="10.00">CalculatedStyle.Center</text>
</a>
</g>
</g>
<!-- Node1&#45;&gt;Node2 -->
<g id="edge1" class="edge">
<title>Node1&#45;&gt;Node2</title>
<path fill="none" stroke="midnightblue" d="M136.81,-91.03C161,-99.06 191.53,-108.93 219,-117 226.85,-119.31 235.22,-121.63 243.37,-123.83"/>
<polygon fill="midnightblue" stroke="midnightblue" points="242.59,-127.24 253.15,-126.43 244.39,-120.48 242.59,-127.24"/>
</g>
<!-- Node3 -->
<g id="node3" class="node">
<title>Node3</title>
<g id="a_node3"><a xlink:href="../../de/db3/classUIElement_a1573899b8299cd5438f5be708a6a0795.html#a1573899b8299cd5438f5be708a6a0795" target="_top" xlink:title=" ">
<polygon fill="white" stroke="black" points="219,-88.5 219,-107.5 365,-107.5 365,-88.5 219,-88.5"/>
<text text-anchor="middle" x="292" y="-95.5" font-family="Helvetica,sans-Serif" font-size="10.00">UIElement.GetDimensions</text>
</a>
</g>
</g>
<!-- Node1&#45;&gt;Node3 -->
<g id="edge2" class="edge">
<title>Node1&#45;&gt;Node3</title>
<path fill="none" stroke="midnightblue" d="M183.04,-86.03C191.54,-86.98 200.13,-87.93 208.56,-88.86"/>
<polygon fill="midnightblue" stroke="midnightblue" points="208.41,-92.37 218.73,-89.99 209.18,-85.41 208.41,-92.37"/>
</g>
<!-- Node4 -->
<g id="node4" class="node">
<title>Node4</title>
<g id="a_node4"><a xlink:href="../../d8/d7b/classUILinkPointNavigator_a923dab685a405ccb7adbb556ce61a139.html#a923dab685a405ccb7adbb556ce61a139" target="_top" xlink:title=" ">
<polygon fill="white" stroke="black" points="223,-39 223,-69 361,-69 361,-39 223,-39"/>
<text text-anchor="start" x="231" y="-57" font-family="Helvetica,sans-Serif" font-size="10.00">UILinkPointNavigator.Set</text>
<text text-anchor="middle" x="292" y="-46" font-family="Helvetica,sans-Serif" font-size="10.00">Position</text>
</a>
</g>
</g>
<!-- Node1&#45;&gt;Node4 -->
<g id="edge3" class="edge">
<title>Node1&#45;&gt;Node4</title>
<path fill="none" stroke="midnightblue" d="M183.04,-65.97C192.98,-64.86 203.04,-63.75 212.81,-62.67"/>
<polygon fill="midnightblue" stroke="midnightblue" points="213.32,-66.13 222.88,-61.55 212.55,-59.17 213.32,-66.13"/>
</g>
<!-- Node5 -->
<g id="node5" class="node">
<title>Node5</title>
<g id="a_node5"><a xlink:href="../../db/d79/classUILinkPoint_a634f93659885c00a4412c62ca89a7c17.html#a634f93659885c00a4412c62ca89a7c17" target="_top" xlink:title=" ">
<polygon fill="white" stroke="black" points="238.5,-0.5 238.5,-19.5 345.5,-19.5 345.5,-0.5 238.5,-0.5"/>
<text text-anchor="middle" x="292" y="-7.5" font-family="Helvetica,sans-Serif" font-size="10.00">UILinkPoint.Unlink</text>
</a>
</g>
</g>
<!-- Node1&#45;&gt;Node5 -->
<g id="edge4" class="edge">
<title>Node1&#45;&gt;Node5</title>
<path fill="none" stroke="midnightblue" d="M131.55,-60.91C156.41,-51.52 189.4,-39.48 219,-30 227.26,-27.36 236.11,-24.73 244.69,-22.29"/>
<polygon fill="midnightblue" stroke="midnightblue" points="245.89,-25.59 254.58,-19.52 244,-18.85 245.89,-25.59"/>
</g>
</g>
</svg>
