<?xml version="1.0" encoding="UTF-8" standalone="no"?>
<!DOCTYPE svg PUBLIC "-//W3C//DTD SVG 1.1//EN"
 "http://www.w3.org/Graphics/SVG/1.1/DTD/svg11.dtd">
<!-- Generated by graphviz version 2.43.0 (0)
 -->
<!-- Title: Terraria.GameContent.Tile_Entities.TELogicSensor.Place Pages: 1 -->
<svg width="1241pt" height="116pt"
 viewBox="0.00 0.00 1241.00 116.00" xmlns="http://www.w3.org/2000/svg" xmlns:xlink="http://www.w3.org/1999/xlink">
<g id="graph0" class="graph" transform="scale(1 1) rotate(0) translate(4 112)">
<title>Terraria.GameContent.Tile_Entities.TELogicSensor.Place</title>
<!-- Node1 -->
<g id="Node000001" class="node">
<title>Node1</title>
<g id="a_Node000001"><a xlink:title=" ">
<polygon fill="#999999" stroke="#666666" points="1233,-64.5 1072,-64.5 1072,-34.5 1233,-34.5 1233,-64.5"/>
<text text-anchor="start" x="1080" y="-52.5" font-family="Helvetica,sans-Serif" font-size="10.00">Terraria.GameContent.Tile</text>
<text text-anchor="middle" x="1152.5" y="-41.5" font-family="Helvetica,sans-Serif" font-size="10.00">_Entities.TELogicSensor.Place</text>
</a>
</g>
</g>
<!-- Node2 -->
<g id="Node000002" class="node">
<title>Node2</title>
<g id="a_Node000002"><a xlink:href="../../d0/de7/classTerraria_1_1GameContent_1_1Tile__Entities_1_1TELogicSensor_a60a5f8918cbbbc501a34735f9fd272da.html#a60a5f8918cbbbc501a34735f9fd272da" target="_top" xlink:title=" ">
<polygon fill="white" stroke="#666666" points="1027,-100 867,-100 867,-59 1027,-59 1027,-100"/>
<text text-anchor="start" x="875" y="-88" font-family="Helvetica,sans-Serif" font-size="10.00">Terraria.GameContent.Tile</text>
<text text-anchor="start" x="875" y="-77" font-family="Helvetica,sans-Serif" font-size="10.00">_Entities.TELogicSensor.Hook</text>
<text text-anchor="middle" x="947" y="-66" font-family="Helvetica,sans-Serif" font-size="10.00">_AfterPlacement</text>
</a>
</g>
</g>
<!-- Node1&#45;&gt;Node2 -->
<g id="edge1_Node000001_Node000002" class="edge">
<title>Node1&#45;&gt;Node2</title>
<g id="a_edge1_Node000001_Node000002"><a xlink:title=" ">
<path fill="none" stroke="#63b8ff" d="M1061.86,-62.71C1050.3,-64.42 1038.54,-66.15 1027.16,-67.83"/>
<polygon fill="#63b8ff" stroke="#63b8ff" points="1062.56,-66.15 1071.95,-61.23 1061.54,-59.22 1062.56,-66.15"/>
</a>
</g>
</g>
<!-- Node10 -->
<g id="Node000010" class="node">
<title>Node10</title>
<g id="a_Node000010"><a xlink:href="../../d0/de7/classTerraria_1_1GameContent_1_1Tile__Entities_1_1TELogicSensor_aa61a16eea41d491a8da8f69df1ed728b.html#aa61a16eea41d491a8da8f69df1ed728b" target="_top" xlink:title=" ">
<polygon fill="white" stroke="#666666" points="1036,-41 858,-41 858,0 1036,0 1036,-41"/>
<text text-anchor="start" x="866" y="-29" font-family="Helvetica,sans-Serif" font-size="10.00">Terraria.GameContent.Tile</text>
<text text-anchor="start" x="866" y="-18" font-family="Helvetica,sans-Serif" font-size="10.00">_Entities.TELogicSensor.NetPlace</text>
<text text-anchor="middle" x="947" y="-7" font-family="Helvetica,sans-Serif" font-size="10.00">Entity</text>
</a>
</g>
</g>
<!-- Node1&#45;&gt;Node10 -->
<g id="edge10_Node000001_Node000010" class="edge">
<title>Node1&#45;&gt;Node10</title>
<g id="a_edge10_Node000001_Node000010"><a xlink:title=" ">
<path fill="none" stroke="#63b8ff" d="M1061.99,-36.74C1053.45,-35.53 1044.79,-34.29 1036.26,-33.08"/>
<polygon fill="#63b8ff" stroke="#63b8ff" points="1061.55,-40.22 1071.95,-38.16 1062.54,-33.29 1061.55,-40.22"/>
</a>
</g>
</g>
<!-- Node3 -->
<g id="Node000003" class="node">
<title>Node3</title>
<g id="a_Node000003"><a xlink:href="../../d0/d9d/classTerraria_1_1ObjectData_1_1TileObjectData_a0baee46d0b48460e3f388c3d2077ace8.html#a0baee46d0b48460e3f388c3d2077ace8" target="_top" xlink:title=" ">
<polygon fill="white" stroke="#666666" points="799,-94.5 667,-94.5 667,-64.5 799,-64.5 799,-94.5"/>
<text text-anchor="start" x="675" y="-82.5" font-family="Helvetica,sans-Serif" font-size="10.00">Terraria.ObjectData.Tile</text>
<text text-anchor="middle" x="733" y="-71.5" font-family="Helvetica,sans-Serif" font-size="10.00">ObjectData.Initialize</text>
</a>
</g>
</g>
<!-- Node2&#45;&gt;Node3 -->
<g id="edge2_Node000002_Node000003" class="edge">
<title>Node2&#45;&gt;Node3</title>
<g id="a_edge2_Node000002_Node000003"><a xlink:title=" ">
<path fill="none" stroke="#63b8ff" d="M856.5,-79.5C837.31,-79.5 817.37,-79.5 799.3,-79.5"/>
<polygon fill="#63b8ff" stroke="#63b8ff" points="856.76,-83 866.76,-79.5 856.76,-76 856.76,-83"/>
</a>
</g>
</g>
<!-- Node4 -->
<g id="Node000004" class="node">
<title>Node4</title>
<g id="a_Node000004"><a xlink:href="../../da/dd5/classTerraria_1_1Main_a8428815a84cf887c2adf13c19aad4caf.html#a8428815a84cf887c2adf13c19aad4caf" target="_top" xlink:title=" ">
<polygon fill="white" stroke="#666666" points="608,-94.5 483,-94.5 483,-64.5 608,-64.5 608,-94.5"/>
<text text-anchor="start" x="491" y="-82.5" font-family="Helvetica,sans-Serif" font-size="10.00">Terraria.Main.Initialize</text>
<text text-anchor="middle" x="545.5" y="-71.5" font-family="Helvetica,sans-Serif" font-size="10.00">_AlmostEverything</text>
</a>
</g>
</g>
<!-- Node3&#45;&gt;Node4 -->
<g id="edge3_Node000003_Node000004" class="edge">
<title>Node3&#45;&gt;Node4</title>
<g id="a_edge3_Node000003_Node000004"><a xlink:title=" ">
<path fill="none" stroke="#63b8ff" d="M656.42,-79.5C640.34,-79.5 623.54,-79.5 608.06,-79.5"/>
<polygon fill="#63b8ff" stroke="#63b8ff" points="656.86,-83 666.86,-79.5 656.86,-76 656.86,-83"/>
</a>
</g>
</g>
<!-- Node5 -->
<g id="Node000005" class="node">
<title>Node5</title>
<g id="a_Node000005"><a xlink:href="../../da/dd5/classTerraria_1_1Main_aeb59718d838663ea500b4619b081d791.html#aeb59718d838663ea500b4619b081d791" target="_top" xlink:title=" ">
<polygon fill="white" stroke="#666666" points="447,-108 306,-108 306,-89 447,-89 447,-108"/>
<text text-anchor="middle" x="376.5" y="-96" font-family="Helvetica,sans-Serif" font-size="10.00">Terraria.Main.DrawSplash</text>
</a>
</g>
</g>
<!-- Node4&#45;&gt;Node5 -->
<g id="edge4_Node000004_Node000005" class="edge">
<title>Node4&#45;&gt;Node5</title>
<g id="a_edge4_Node000004_Node000005"><a xlink:title=" ">
<path fill="none" stroke="#63b8ff" d="M472.59,-87.68C464.14,-88.64 455.54,-89.62 447.12,-90.58"/>
<polygon fill="#63b8ff" stroke="#63b8ff" points="473.25,-91.13 482.79,-86.52 472.46,-84.17 473.25,-91.13"/>
</a>
</g>
</g>
<!-- Node8 -->
<g id="Node000008" class="node">
<title>Node8</title>
<g id="a_Node000008"><a xlink:href="../../da/dd5/classTerraria_1_1Main_aed4b6a8ad3e867bdb2bdcab2ab6ab0f9.html#aed4b6a8ad3e867bdb2bdcab2ab6ab0f9" target="_top" xlink:title=" ">
<polygon fill="white" stroke="#666666" points="439,-71 314,-71 314,-52 439,-52 439,-71"/>
<text text-anchor="middle" x="376.5" y="-59" font-family="Helvetica,sans-Serif" font-size="10.00">Terraria.Main.Initialize</text>
</a>
</g>
</g>
<!-- Node4&#45;&gt;Node8 -->
<g id="edge8_Node000004_Node000008" class="edge">
<title>Node4&#45;&gt;Node8</title>
<g id="a_edge8_Node000004_Node000008"><a xlink:title=" ">
<path fill="none" stroke="#63b8ff" d="M472.67,-71.76C461.54,-70.56 450.12,-69.33 439.24,-68.15"/>
<polygon fill="#63b8ff" stroke="#63b8ff" points="472.47,-75.26 482.79,-72.85 473.22,-68.3 472.47,-75.26"/>
</a>
</g>
</g>
<!-- Node6 -->
<g id="Node000006" class="node">
<title>Node6</title>
<g id="a_Node000006"><a xlink:href="../../da/dd5/classTerraria_1_1Main_a474beeecaea4d6dd108fba56cd554d46.html#a474beeecaea4d6dd108fba56cd554d46" target="_top" xlink:title=" ">
<polygon fill="white" stroke="#666666" points="268.5,-108 146.5,-108 146.5,-89 268.5,-89 268.5,-108"/>
<text text-anchor="middle" x="207.5" y="-96" font-family="Helvetica,sans-Serif" font-size="10.00">Terraria.Main.DoDraw</text>
</a>
</g>
</g>
<!-- Node5&#45;&gt;Node6 -->
<g id="edge5_Node000005_Node000006" class="edge">
<title>Node5&#45;&gt;Node6</title>
<g id="a_edge5_Node000005_Node000006"><a xlink:title=" ">
<path fill="none" stroke="#63b8ff" d="M295.46,-98.5C286.39,-98.5 277.28,-98.5 268.53,-98.5"/>
<polygon fill="#63b8ff" stroke="#63b8ff" points="295.64,-102 305.64,-98.5 295.64,-95 295.64,-102"/>
</a>
</g>
</g>
<!-- Node7 -->
<g id="Node000007" class="node">
<title>Node7</title>
<g id="a_Node000007"><a xlink:href="../../da/dd5/classTerraria_1_1Main_a516aa31311860bad4242ade32e5effcd.html#a516aa31311860bad4242ade32e5effcd" target="_top" xlink:title=" ">
<polygon fill="white" stroke="#666666" points="109,-108 0,-108 0,-89 109,-89 109,-108"/>
<text text-anchor="middle" x="54.5" y="-96" font-family="Helvetica,sans-Serif" font-size="10.00">Terraria.Main.Draw</text>
</a>
</g>
</g>
<!-- Node6&#45;&gt;Node7 -->
<g id="edge6_Node000006_Node000007" class="edge">
<title>Node6&#45;&gt;Node7</title>
<g id="a_edge6_Node000006_Node000007"><a xlink:title=" ">
<path fill="none" stroke="#63b8ff" d="M136.17,-91.76C127.05,-91.71 117.84,-91.8 109.05,-92.01"/>
<polygon fill="#63b8ff" stroke="#63b8ff" points="136.35,-95.27 146.39,-91.88 136.43,-88.27 136.35,-95.27"/>
</a>
</g>
</g>
<!-- Node7&#45;&gt;Node6 -->
<g id="edge7_Node000007_Node000006" class="edge">
<title>Node7&#45;&gt;Node6</title>
<g id="a_edge7_Node000007_Node000006"><a xlink:title=" ">
<path fill="none" stroke="#63b8ff" d="M119.13,-105.18C128.16,-105.29 137.42,-105.27 146.39,-105.12"/>
<polygon fill="#63b8ff" stroke="#63b8ff" points="119.12,-101.67 109.05,-104.99 118.99,-108.67 119.12,-101.67"/>
</a>
</g>
</g>
<!-- Node9 -->
<g id="Node000009" class="node">
<title>Node9</title>
<g id="a_Node000009"><a xlink:href="../../da/dd5/classTerraria_1_1Main_acc7c7058447ffaab5490befcb8ff2bf4.html#acc7c7058447ffaab5490befcb8ff2bf4" target="_top" xlink:title=" ">
<polygon fill="white" stroke="#666666" points="270,-71 145,-71 145,-52 270,-52 270,-71"/>
<text text-anchor="middle" x="207.5" y="-59" font-family="Helvetica,sans-Serif" font-size="10.00">Terraria.Main.DedServ</text>
</a>
</g>
</g>
<!-- Node8&#45;&gt;Node9 -->
<g id="edge9_Node000008_Node000009" class="edge">
<title>Node8&#45;&gt;Node9</title>
<g id="a_edge9_Node000008_Node000009"><a xlink:title=" ">
<path fill="none" stroke="#63b8ff" d="M303.67,-61.5C292.54,-61.5 281.12,-61.5 270.24,-61.5"/>
<polygon fill="#63b8ff" stroke="#63b8ff" points="303.79,-65 313.79,-61.5 303.79,-58 303.79,-65"/>
</a>
</g>
</g>
<!-- Node11 -->
<g id="Node000011" class="node">
<title>Node11</title>
<g id="a_Node000011"><a xlink:href="../../d0/de7/classTerraria_1_1GameContent_1_1Tile__Entities_1_1TELogicSensor_a71c6eba72b4e0ae1fc56d85d00119795.html#a71c6eba72b4e0ae1fc56d85d00119795" target="_top" xlink:title=" ">
<polygon fill="white" stroke="#666666" points="822,-41 644,-41 644,0 822,0 822,-41"/>
<text text-anchor="start" x="652" y="-29" font-family="Helvetica,sans-Serif" font-size="10.00">Terraria.GameContent.Tile</text>
<text text-anchor="start" x="652" y="-18" font-family="Helvetica,sans-Serif" font-size="10.00">_Entities.TELogicSensor.NetPlace</text>
<text text-anchor="middle" x="733" y="-7" font-family="Helvetica,sans-Serif" font-size="10.00">EntityAttempt</text>
</a>
</g>
</g>
<!-- Node10&#45;&gt;Node11 -->
<g id="edge11_Node000010_Node000011" class="edge">
<title>Node10&#45;&gt;Node11</title>
<g id="a_edge11_Node000010_Node000011"><a xlink:title=" ">
<path fill="none" stroke="#63b8ff" d="M847.89,-20.5C839.3,-20.5 830.64,-20.5 822.13,-20.5"/>
<polygon fill="#63b8ff" stroke="#63b8ff" points="847.93,-24 857.93,-20.5 847.93,-17 847.93,-24"/>
</a>
</g>
</g>
</g>
</svg>
