<?xml version="1.0" encoding="UTF-8" standalone="no"?>
<!DOCTYPE svg PUBLIC "-//W3C//DTD SVG 1.1//EN"
 "http://www.w3.org/Graphics/SVG/1.1/DTD/svg11.dtd">
<!-- Generated by graphviz version 2.43.0 (0)
 -->
<!-- Title: Projectile.AI_120_StardustGuardian Pages: 1 -->
<svg width="742pt" height="230pt"
 viewBox="0.00 0.00 742.00 230.00" xmlns="http://www.w3.org/2000/svg" xmlns:xlink="http://www.w3.org/1999/xlink">
<g id="graph0" class="graph" transform="scale(1 1) rotate(0) translate(4 226)">
<title>Projectile.AI_120_StardustGuardian</title>
<polygon fill="white" stroke="transparent" points="-4,4 -4,-226 738,-226 738,4 -4,4"/>
<!-- Node1 -->
<g id="node1" class="node">
<title>Node1</title>
<g id="a_node1"><a xlink:title=" ">
<polygon fill="#bfbfbf" stroke="black" points="0,-115 0,-145 144,-145 144,-115 0,-115"/>
<text text-anchor="start" x="8" y="-133" font-family="Helvetica,sans-Serif" font-size="10.00">Projectile.AI_120_Stardust</text>
<text text-anchor="middle" x="72" y="-122" font-family="Helvetica,sans-Serif" font-size="10.00">Guardian</text>
</a>
</g>
</g>
<!-- Node2 -->
<g id="node2" class="node">
<title>Node2</title>
<g id="a_node2"><a xlink:href="../../d0/d24/classLighting_a231da45b0b9d4569fa06bd6f031f88f1.html#a231da45b0b9d4569fa06bd6f031f88f1" target="_top" xlink:title=" ">
<polygon fill="white" stroke="black" points="225,-202.5 225,-221.5 326,-221.5 326,-202.5 225,-202.5"/>
<text text-anchor="middle" x="275.5" y="-209.5" font-family="Helvetica,sans-Serif" font-size="10.00">Lighting.AddLight</text>
</a>
</g>
</g>
<!-- Node1&#45;&gt;Node2 -->
<g id="edge1" class="edge">
<title>Node1&#45;&gt;Node2</title>
<path fill="none" stroke="midnightblue" d="M93.66,-145.01C114.46,-159.42 147.99,-180.76 180,-193 190.88,-197.16 202.83,-200.46 214.46,-203.07"/>
<polygon fill="midnightblue" stroke="midnightblue" points="214.07,-206.56 224.57,-205.18 215.5,-199.71 214.07,-206.56"/>
</g>
<!-- Node3 -->
<g id="node3" class="node">
<title>Node3</title>
<g id="a_node3"><a xlink:href="../../de/d71/classNPC_a495a1e3f088cfae6405d641d623321c4.html#a495a1e3f088cfae6405d641d623321c4" target="_top" xlink:title=" ">
<polygon fill="white" stroke="black" points="215.5,-164.5 215.5,-183.5 335.5,-183.5 335.5,-164.5 215.5,-164.5"/>
<text text-anchor="middle" x="275.5" y="-171.5" font-family="Helvetica,sans-Serif" font-size="10.00">NPC.CanBeChasedBy</text>
</a>
</g>
</g>
<!-- Node1&#45;&gt;Node3 -->
<g id="edge2" class="edge">
<title>Node1&#45;&gt;Node3</title>
<path fill="none" stroke="midnightblue" d="M135.73,-145C150.25,-148.38 165.65,-151.88 180,-155 191.38,-157.47 203.56,-160.01 215.26,-162.38"/>
<polygon fill="midnightblue" stroke="midnightblue" points="214.9,-165.88 225.39,-164.43 216.28,-159.02 214.9,-165.88"/>
</g>
<!-- Node4 -->
<g id="node4" class="node">
<title>Node4</title>
<g id="a_node4"><a xlink:href="../../d5/d2f/classArmorShaderDataSet_a86c0be2a09a43966c8daf483c2665777.html#a86c0be2a09a43966c8daf483c2665777" target="_top" xlink:title=" ">
<polygon fill="white" stroke="black" points="180,-115 180,-145 371,-145 371,-115 180,-115"/>
<text text-anchor="start" x="188" y="-133" font-family="Helvetica,sans-Serif" font-size="10.00">ArmorShaderDataSet.GetSecondary</text>
<text text-anchor="middle" x="275.5" y="-122" font-family="Helvetica,sans-Serif" font-size="10.00">Shader</text>
</a>
</g>
</g>
<!-- Node1&#45;&gt;Node4 -->
<g id="edge3" class="edge">
<title>Node1&#45;&gt;Node4</title>
<path fill="none" stroke="midnightblue" d="M144.04,-130C152.35,-130 160.95,-130 169.59,-130"/>
<polygon fill="midnightblue" stroke="midnightblue" points="169.74,-133.5 179.74,-130 169.74,-126.5 169.74,-133.5"/>
</g>
<!-- Node5 -->
<g id="node5" class="node">
<title>Node5</title>
<g id="a_node5"><a xlink:href="../../d1/dc5/classDust_ab171b38c60e5943ad1e33eeaef0f0ed1.html#ab171b38c60e5943ad1e33eeaef0f0ed1" target="_top" xlink:title=" ">
<polygon fill="white" stroke="black" points="232.5,-76.5 232.5,-95.5 318.5,-95.5 318.5,-76.5 232.5,-76.5"/>
<text text-anchor="middle" x="275.5" y="-83.5" font-family="Helvetica,sans-Serif" font-size="10.00">Dust.NewDust</text>
</a>
</g>
</g>
<!-- Node1&#45;&gt;Node5 -->
<g id="edge4" class="edge">
<title>Node1&#45;&gt;Node5</title>
<path fill="none" stroke="midnightblue" d="M139.47,-114.96C152.88,-111.96 166.89,-108.86 180,-106 193.71,-103.01 208.56,-99.84 222.33,-96.92"/>
<polygon fill="midnightblue" stroke="midnightblue" points="223.08,-100.34 232.14,-94.85 221.63,-93.49 223.08,-100.34"/>
</g>
<!-- Node13 -->
<g id="node13" class="node">
<title>Node13</title>
<g id="a_node13"><a xlink:href="../../dc/dc5/classUtils_a23f48b35de52dee38ed81c44222431e1.html#a23f48b35de52dee38ed81c44222431e1" target="_top" xlink:title=" ">
<polygon fill="white" stroke="black" points="237,-38.5 237,-57.5 314,-57.5 314,-38.5 237,-38.5"/>
<text text-anchor="middle" x="275.5" y="-45.5" font-family="Helvetica,sans-Serif" font-size="10.00">Utils.Remap</text>
</a>
</g>
</g>
<!-- Node1&#45;&gt;Node13 -->
<g id="edge12" class="edge">
<title>Node1&#45;&gt;Node13</title>
<path fill="none" stroke="midnightblue" d="M93.66,-114.99C114.46,-100.58 147.99,-79.24 180,-67 194.73,-61.37 211.43,-57.31 226.64,-54.42"/>
<polygon fill="midnightblue" stroke="midnightblue" points="227.65,-57.8 236.89,-52.61 226.44,-50.9 227.65,-57.8"/>
</g>
<!-- Node6 -->
<g id="node6" class="node">
<title>Node6</title>
<g id="a_node6"><a xlink:href="../../d6/d9a/classUnifiedRandom_a424f3e9455eb9b0a67085171d7d93d18.html#a424f3e9455eb9b0a67085171d7d93d18" target="_top" xlink:title=" ">
<polygon fill="white" stroke="black" points="409,-133.5 409,-152.5 527,-152.5 527,-133.5 409,-133.5"/>
<text text-anchor="middle" x="468" y="-140.5" font-family="Helvetica,sans-Serif" font-size="10.00">UnifiedRandom.Next</text>
</a>
</g>
</g>
<!-- Node5&#45;&gt;Node6 -->
<g id="edge5" class="edge">
<title>Node5&#45;&gt;Node6</title>
<path fill="none" stroke="midnightblue" d="M318.73,-93.44C335.19,-96.73 354.12,-101 371,-106 393.06,-112.54 417.24,-121.87 435.81,-129.52"/>
<polygon fill="midnightblue" stroke="midnightblue" points="434.65,-132.84 445.23,-133.46 437.35,-126.38 434.65,-132.84"/>
</g>
<!-- Node8 -->
<g id="node8" class="node">
<title>Node8</title>
<g id="a_node8"><a xlink:href="../../d6/d57/classCollision_ae0ddf0a5ce91af80127b25408630fcf9.html#ae0ddf0a5ce91af80127b25408630fcf9" target="_top" xlink:title=" ">
<polygon fill="white" stroke="black" points="407,-76.5 407,-95.5 529,-95.5 529,-76.5 407,-76.5"/>
<text text-anchor="middle" x="468" y="-83.5" font-family="Helvetica,sans-Serif" font-size="10.00">Collision.WetCollision</text>
</a>
</g>
</g>
<!-- Node5&#45;&gt;Node8 -->
<g id="edge7" class="edge">
<title>Node5&#45;&gt;Node8</title>
<path fill="none" stroke="midnightblue" d="M318.78,-86C341.62,-86 370.41,-86 396.53,-86"/>
<polygon fill="midnightblue" stroke="midnightblue" points="396.77,-89.5 406.77,-86 396.77,-82.5 396.77,-89.5"/>
</g>
<!-- Node7 -->
<g id="node7" class="node">
<title>Node7</title>
<g id="a_node7"><a xlink:href="../../d6/d9a/classUnifiedRandom_a005be01cf2fb47d9f5d02f0d44ed5921.html#a005be01cf2fb47d9f5d02f0d44ed5921" target="_top" xlink:title=" ">
<polygon fill="white" stroke="black" points="565,-152.5 565,-171.5 734,-171.5 734,-152.5 565,-152.5"/>
<text text-anchor="middle" x="649.5" y="-159.5" font-family="Helvetica,sans-Serif" font-size="10.00">UnifiedRandom.InternalSample</text>
</a>
</g>
</g>
<!-- Node6&#45;&gt;Node7 -->
<g id="edge6" class="edge">
<title>Node6&#45;&gt;Node7</title>
<path fill="none" stroke="midnightblue" d="M527.28,-149.17C536.07,-150.1 545.33,-151.08 554.65,-152.07"/>
<polygon fill="midnightblue" stroke="midnightblue" points="554.45,-155.56 564.76,-153.14 555.19,-148.6 554.45,-155.56"/>
</g>
<!-- Node9 -->
<g id="node9" class="node">
<title>Node9</title>
<g id="a_node9"><a xlink:href="../../d6/dba/classTile_a64e4b5e9c17707d5bf63cf590bb48c9b.html#a64e4b5e9c17707d5bf63cf590bb48c9b" target="_top" xlink:title=" ">
<polygon fill="white" stroke="black" points="615.5,-114.5 615.5,-133.5 683.5,-133.5 683.5,-114.5 615.5,-114.5"/>
<text text-anchor="middle" x="649.5" y="-121.5" font-family="Helvetica,sans-Serif" font-size="10.00">Tile.active</text>
</a>
</g>
</g>
<!-- Node8&#45;&gt;Node9 -->
<g id="edge8" class="edge">
<title>Node8&#45;&gt;Node9</title>
<path fill="none" stroke="midnightblue" d="M514.3,-95.59C542.2,-101.5 577.77,-109.03 605.28,-114.85"/>
<polygon fill="midnightblue" stroke="midnightblue" points="604.89,-118.35 615.4,-116.99 606.34,-111.5 604.89,-118.35"/>
</g>
<!-- Node10 -->
<g id="node10" class="node">
<title>Node10</title>
<g id="a_node10"><a xlink:href="../../d6/dba/classTile_ad451212544c9232ae5439bbf0dcaf256.html#ad451212544c9232ae5439bbf0dcaf256" target="_top" xlink:title=" ">
<polygon fill="white" stroke="black" points="615.5,-76.5 615.5,-95.5 683.5,-95.5 683.5,-76.5 615.5,-76.5"/>
<text text-anchor="middle" x="649.5" y="-83.5" font-family="Helvetica,sans-Serif" font-size="10.00">Tile.honey</text>
</a>
</g>
</g>
<!-- Node8&#45;&gt;Node10 -->
<g id="edge9" class="edge">
<title>Node8&#45;&gt;Node10</title>
<path fill="none" stroke="midnightblue" d="M529.27,-86C554.18,-86 582.49,-86 605.28,-86"/>
<polygon fill="midnightblue" stroke="midnightblue" points="605.32,-89.5 615.32,-86 605.32,-82.5 605.32,-89.5"/>
</g>
<!-- Node11 -->
<g id="node11" class="node">
<title>Node11</title>
<g id="a_node11"><a xlink:href="../../d6/dba/classTile_afb92de6645902cfbba5c7d273b629167.html#afb92de6645902cfbba5c7d273b629167" target="_top" xlink:title=" ">
<polygon fill="white" stroke="black" points="609,-38.5 609,-57.5 690,-57.5 690,-38.5 609,-38.5"/>
<text text-anchor="middle" x="649.5" y="-45.5" font-family="Helvetica,sans-Serif" font-size="10.00">Tile.shimmer</text>
</a>
</g>
</g>
<!-- Node8&#45;&gt;Node11 -->
<g id="edge10" class="edge">
<title>Node8&#45;&gt;Node11</title>
<path fill="none" stroke="midnightblue" d="M514.3,-76.41C540.08,-70.95 572.42,-64.11 598.89,-58.5"/>
<polygon fill="midnightblue" stroke="midnightblue" points="599.66,-61.92 608.72,-56.42 598.21,-55.07 599.66,-61.92"/>
</g>
<!-- Node12 -->
<g id="node12" class="node">
<title>Node12</title>
<g id="a_node12"><a xlink:href="../../d6/dba/classTile_a402ffa996ee74bf853b1538dfd39831c.html#a402ffa996ee74bf853b1538dfd39831c" target="_top" xlink:title=" ">
<polygon fill="white" stroke="black" points="617.5,-0.5 617.5,-19.5 681.5,-19.5 681.5,-0.5 617.5,-0.5"/>
<text text-anchor="middle" x="649.5" y="-7.5" font-family="Helvetica,sans-Serif" font-size="10.00">Tile.slope</text>
</a>
</g>
</g>
<!-- Node8&#45;&gt;Node12 -->
<g id="edge11" class="edge">
<title>Node8&#45;&gt;Node12</title>
<path fill="none" stroke="midnightblue" d="M508.99,-76.46C515.94,-73.94 522.89,-70.83 529,-67 548.72,-54.65 544.79,-40.52 565,-29 577.78,-21.71 593.16,-17.22 607.22,-14.45"/>
<polygon fill="midnightblue" stroke="midnightblue" points="607.92,-17.88 617.17,-12.72 606.72,-10.99 607.92,-17.88"/>
</g>
<!-- Node14 -->
<g id="node14" class="node">
<title>Node14</title>
<g id="a_node14"><a xlink:href="../../dc/dc5/classUtils_a8752cc9bcae5a57679669ec6100ed630.html#a8752cc9bcae5a57679669ec6100ed630" target="_top" xlink:title=" ">
<polygon fill="white" stroke="black" points="414.5,-38.5 414.5,-57.5 521.5,-57.5 521.5,-38.5 414.5,-38.5"/>
<text text-anchor="middle" x="468" y="-45.5" font-family="Helvetica,sans-Serif" font-size="10.00">Utils.GetLerpValue</text>
</a>
</g>
</g>
<!-- Node13&#45;&gt;Node14 -->
<g id="edge13" class="edge">
<title>Node13&#45;&gt;Node14</title>
<path fill="none" stroke="midnightblue" d="M314.14,-48C339.74,-48 374.25,-48 404,-48"/>
<polygon fill="midnightblue" stroke="midnightblue" points="404.3,-51.5 414.3,-48 404.3,-44.5 404.3,-51.5"/>
</g>
</g>
</svg>
