<?xml version="1.0" encoding="UTF-8" standalone="no"?>
<!DOCTYPE svg PUBLIC "-//W3C//DTD SVG 1.1//EN"
 "http://www.w3.org/Graphics/SVG/1.1/DTD/svg11.dtd">
<!-- Generated by graphviz version 2.43.0 (0)
 -->
<!-- Title: Terraria.Graphics.TileBatch.Draw Pages: 1 -->
<!--zoomable 369 -->

<svg id="main" version="1.1" xmlns="http://www.w3.org/2000/svg" xmlns:xlink="http://www.w3.org/1999/xlink" xml:space="preserve" onload="init(evt)">
<style type="text/css"><![CDATA[
.node, .edge {opacity: 0.7;}
.node.selected, .edge.selected {opacity: 1;}
.edge:hover path { stroke: red; }
.edge:hover polygon { stroke: red; fill: red; }
]]></style>

<defs>
  <circle id="rim" cx="0" cy="0" r="7"/>
  <circle id="rim2" cx="0" cy="0" r="3.5"/>
  <g id="zoomPlus">
    <use xlink:href="#rim" fill="#404040"><set attributeName="fill" to="#808080" begin="zoomplus.mouseover" end="zoomplus.mouseout"/></use>
    <path d="M-4,0h8M0,-4v8" fill="none" stroke="white" stroke-width="1.5" pointer-events="none"/>
  </g>
  <g id="zoomMin">
    <use xlink:href="#rim" fill="#404040"><set attributeName="fill" to="#808080" begin="zoomminus.mouseover" end="zoomminus.mouseout"/></use>
    <path d="M-4,0h8" fill="none" stroke="white" stroke-width="1.5" pointer-events="none"/>
  </g>
  <g id="arrowUp" transform="translate(30 24)">
    <use xlink:href="#rim"/>
    <path pointer-events="none" fill="none" stroke="white" stroke-width="1.5" d="M0,-3.0v7 M-2.5,-0.5L0,-3.0L2.5,-0.5"/>
  </g>
  <g id="arrowRight" transform="rotate(90) translate(36 -43)">
    <use xlink:href="#rim"/>
    <path pointer-events="none" fill="none" stroke="white" stroke-width="1.5" d="M0,-3.0v7 M-2.5,-0.5L0,-3.0L2.5,-0.5"/>
  </g>
  <g id="arrowDown" transform="rotate(180) translate(-30 -48)">
    <use xlink:href="#rim"/>
    <path pointer-events="none" fill="none" stroke="white" stroke-width="1.5" d="M0,-3.0v7 M-2.5,-0.5L0,-3.0L2.5,-0.5"/>
  </g>
  <g id="arrowLeft" transform="rotate(270) translate(-36 17)">
    <use xlink:href="#rim"/>
    <path pointer-events="none" fill="none" stroke="white" stroke-width="1.5" d="M0,-3.0v7 M-2.5,-0.5L0,-3.0L2.5,-0.5"/>
  </g>
  <g id="resetDef">
    <use xlink:href="#rim2" fill="#404040"><set attributeName="fill" to="#808080" begin="reset.mouseover" end="reset.mouseout"/></use>
  </g>
</defs>
<script type="application/ecmascript">
var viewWidth = 2215;
var viewHeight = 369;
var sectionId = 'dynsection-1';
</script>
<script type="application/ecmascript" xlink:href="../../svg.min.js"/>
<svg id="graph" class="graph">
<g id="viewport">
<title>Terraria.Graphics.TileBatch.Draw</title>
<!-- Node1 -->
<g id="Node000001" class="node">
<title>Node1</title>
<g id="a_Node000001"><a xlink:title=" ">
<polygon fill="#999999" stroke="#666666" points="2207,-146.5 2031,-146.5 2031,-127.5 2207,-127.5 2207,-146.5"/>
<text text-anchor="middle" x="2119" y="-134.5" font-family="Helvetica,sans-Serif" font-size="10.00">Terraria.Graphics.TileBatch.Draw</text>
</a>
</g>
</g>
<!-- Node2 -->
<g id="Node000002" class="node">
<title>Node2</title>
<g id="a_Node000002"><a xlink:href="../../d6/d7b/classTerraria_1_1GameContent_1_1Drawing_1_1TileDrawing_a63a86e7f1017bc56d8f080096976177c.html#a63a86e7f1017bc56d8f080096976177c" target="_top" xlink:title=" ">
<polygon fill="white" stroke="#666666" points="1995,-174 1825,-174 1825,-144 1995,-144 1995,-174"/>
<text text-anchor="start" x="1833" y="-162" font-family="Helvetica,sans-Serif" font-size="10.00">Terraria.GameContent.Drawing.</text>
<text text-anchor="middle" x="1910" y="-151" font-family="Helvetica,sans-Serif" font-size="10.00">TileDrawing.DrawPartialLiquid</text>
</a>
</g>
</g>
<!-- Node1&#45;&gt;Node2 -->
<g id="edge1_Node000001_Node000002" class="edge">
<title>Node1&#45;&gt;Node2</title>
<g id="a_edge1_Node000001_Node000002"><a xlink:title=" ">
<path fill="none" stroke="#63b8ff" d="M2020.78,-147.33C2012.2,-148.24 2003.57,-149.16 1995.11,-150.06"/>
<polygon fill="#63b8ff" stroke="#63b8ff" points="2021.24,-150.8 2030.81,-146.27 2020.5,-143.84 2021.24,-150.8"/>
</a>
</g>
</g>
<!-- Node25 -->
<g id="Node000025" class="node">
<title>Node25</title>
<g id="a_Node000025"><a xlink:href="../../d1/d49/classTerraria_1_1GameContent_1_1Drawing_1_1WallDrawing_ae167cdf24725f5ac136cbc98ef1b1503.html#ae167cdf24725f5ac136cbc98ef1b1503" target="_top" xlink:title=" ">
<polygon fill="white" stroke="#666666" points="1995,-245 1825,-245 1825,-215 1995,-215 1995,-245"/>
<text text-anchor="start" x="1833" y="-233" font-family="Helvetica,sans-Serif" font-size="10.00">Terraria.GameContent.Drawing.</text>
<text text-anchor="middle" x="1910" y="-222" font-family="Helvetica,sans-Serif" font-size="10.00">WallDrawing.DrawWalls</text>
</a>
</g>
</g>
<!-- Node1&#45;&gt;Node25 -->
<g id="edge38_Node000001_Node000025" class="edge">
<title>Node1&#45;&gt;Node25</title>
<g id="a_edge38_Node000001_Node000025"><a xlink:title=" ">
<path fill="none" stroke="#63b8ff" d="M2087.04,-150.91C2048.78,-168.1 1983.9,-197.25 1944.5,-214.95"/>
<polygon fill="#63b8ff" stroke="#63b8ff" points="2088.94,-153.89 2096.63,-146.6 2086.07,-147.51 2088.94,-153.89"/>
</a>
</g>
</g>
<!-- Node29 -->
<g id="Node000029" class="node">
<title>Node29</title>
<g id="a_Node000029"><a xlink:href="../../d7/d76/classTerraria_1_1GameContent_1_1Shaders_1_1WaterShaderData_a123acfca6e219e02c73b09612e7cafcb.html#a123acfca6e219e02c73b09612e7cafcb" target="_top" xlink:title=" ">
<polygon fill="white" stroke="#666666" points="1994.5,-88 1825.5,-88 1825.5,-58 1994.5,-58 1994.5,-88"/>
<text text-anchor="start" x="1833.5" y="-76" font-family="Helvetica,sans-Serif" font-size="10.00">Terraria.GameContent.Shaders.</text>
<text text-anchor="middle" x="1910" y="-65" font-family="Helvetica,sans-Serif" font-size="10.00">WaterShaderData.DrawWaves</text>
</a>
</g>
</g>
<!-- Node1&#45;&gt;Node29 -->
<g id="edge45_Node000001_Node000029" class="edge">
<title>Node1&#45;&gt;Node29</title>
<g id="a_edge45_Node000001_Node000029"><a xlink:title=" ">
<path fill="none" stroke="#63b8ff" d="M2077.45,-124.46C2043.64,-114.01 1995.39,-99.09 1959.53,-88"/>
<polygon fill="#63b8ff" stroke="#63b8ff" points="2076.42,-127.81 2087.01,-127.42 2078.49,-121.12 2076.42,-127.81"/>
</a>
</g>
</g>
<!-- Node30 -->
<g id="Node000030" class="node">
<title>Node30</title>
<g id="a_Node000030"><a xlink:href="../../d7/d76/classTerraria_1_1GameContent_1_1Shaders_1_1WaterShaderData_ac04a81ac68678a36971da7dd4c75424d.html#ac04a81ac68678a36971da7dd4c75424d" target="_top" xlink:title=" ">
<polygon fill="white" stroke="#666666" points="1769.5,-88 1600.5,-88 1600.5,-58 1769.5,-58 1769.5,-88"/>
<text text-anchor="start" x="1608.5" y="-76" font-family="Helvetica,sans-Serif" font-size="10.00">Terraria.GameContent.Shaders.</text>
<text text-anchor="middle" x="1685" y="-65" font-family="Helvetica,sans-Serif" font-size="10.00">WaterShaderData.StepLiquids</text>
</a>
</g>
</g>
<!-- Node1&#45;&gt;Node30 -->
<g id="edge49_Node000001_Node000030" class="edge">
<title>Node1&#45;&gt;Node30</title>
<g id="a_edge49_Node000001_Node000030"><a xlink:title=" ">
<path fill="none" stroke="#63b8ff" d="M2032.98,-126.2C1974.44,-118.56 1894.91,-107.8 1825,-97 1807.09,-94.23 1787.92,-91.06 1769.72,-87.95"/>
<polygon fill="#63b8ff" stroke="#63b8ff" points="2032.56,-129.67 2042.92,-127.49 2033.46,-122.73 2032.56,-129.67"/>
</a>
</g>
</g>
<!-- Node3 -->
<g id="Node000003" class="node">
<title>Node3</title>
<g id="a_Node000003"><a xlink:href="../../d6/d7b/classTerraria_1_1GameContent_1_1Drawing_1_1TileDrawing_aee2152365d76cf4c17e51d61ba19436f.html#aee2152365d76cf4c17e51d61ba19436f" target="_top" xlink:title=" ">
<polygon fill="white" stroke="#666666" points="1789,-174 1581,-174 1581,-144 1789,-144 1789,-174"/>
<text text-anchor="start" x="1589" y="-162" font-family="Helvetica,sans-Serif" font-size="10.00">Terraria.GameContent.Drawing.</text>
<text text-anchor="middle" x="1685" y="-151" font-family="Helvetica,sans-Serif" font-size="10.00">TileDrawing.DrawTile_LiquidBehindTile</text>
</a>
</g>
</g>
<!-- Node2&#45;&gt;Node3 -->
<g id="edge2_Node000002_Node000003" class="edge">
<title>Node2&#45;&gt;Node3</title>
<g id="a_edge2_Node000002_Node000003"><a xlink:title=" ">
<path fill="none" stroke="#63b8ff" d="M1814.55,-159C1806.17,-159 1797.65,-159 1789.2,-159"/>
<polygon fill="#63b8ff" stroke="#63b8ff" points="1814.69,-162.5 1824.69,-159 1814.69,-155.5 1814.69,-162.5"/>
</a>
</g>
</g>
<!-- Node4 -->
<g id="Node000004" class="node">
<title>Node4</title>
<g id="a_Node000004"><a xlink:href="../../d6/d7b/classTerraria_1_1GameContent_1_1Drawing_1_1TileDrawing_a171f1036f347bbe9e7b7c0fbe5acc795.html#a171f1036f347bbe9e7b7c0fbe5acc795" target="_top" xlink:title=" ">
<polygon fill="white" stroke="#666666" points="1535,-136 1365,-136 1365,-106 1535,-106 1535,-136"/>
<text text-anchor="start" x="1373" y="-124" font-family="Helvetica,sans-Serif" font-size="10.00">Terraria.GameContent.Drawing.</text>
<text text-anchor="middle" x="1450" y="-113" font-family="Helvetica,sans-Serif" font-size="10.00">TileDrawing.Draw</text>
</a>
</g>
</g>
<!-- Node3&#45;&gt;Node4 -->
<g id="edge3_Node000003_Node000004" class="edge">
<title>Node3&#45;&gt;Node4</title>
<g id="a_edge3_Node000003_Node000004"><a xlink:title=" ">
<path fill="none" stroke="#63b8ff" d="M1581.76,-142.33C1566.22,-139.79 1550.33,-137.2 1535.23,-134.74"/>
<polygon fill="#63b8ff" stroke="#63b8ff" points="1581.48,-145.83 1591.91,-143.98 1582.61,-138.92 1581.48,-145.83"/>
</a>
</g>
</g>
<!-- Node20 -->
<g id="Node000020" class="node">
<title>Node20</title>
<g id="a_Node000020"><a xlink:href="../../d6/d7b/classTerraria_1_1GameContent_1_1Drawing_1_1TileDrawing_a87101c0c64f000e003429bf6a139051b.html#a87101c0c64f000e003429bf6a139051b" target="_top" xlink:title=" ">
<polygon fill="white" stroke="#666666" points="1545,-198 1355,-198 1355,-168 1545,-168 1545,-198"/>
<text text-anchor="start" x="1363" y="-186" font-family="Helvetica,sans-Serif" font-size="10.00">Terraria.GameContent.Drawing.</text>
<text text-anchor="middle" x="1450" y="-175" font-family="Helvetica,sans-Serif" font-size="10.00">TileDrawing.DrawLiquidBehindTiles</text>
</a>
</g>
</g>
<!-- Node3&#45;&gt;Node20 -->
<g id="edge29_Node000003_Node000020" class="edge">
<title>Node3&#45;&gt;Node20</title>
<g id="a_edge29_Node000003_Node000020"><a xlink:title=" ">
<path fill="none" stroke="#63b8ff" d="M1570.79,-170.66C1562.26,-171.54 1553.7,-172.42 1545.3,-173.29"/>
<polygon fill="#63b8ff" stroke="#63b8ff" points="1571.2,-174.14 1580.79,-169.63 1570.48,-167.17 1571.2,-174.14"/>
</a>
</g>
</g>
<!-- Node5 -->
<g id="Node000005" class="node">
<title>Node5</title>
<g id="a_Node000005"><a xlink:href="../../d6/d7b/classTerraria_1_1GameContent_1_1Drawing_1_1TileDrawing_a2a4452e2ee76da220b7f77a3904e9043.html#a2a4452e2ee76da220b7f77a3904e9043" target="_top" xlink:title=" ">
<polygon fill="white" stroke="#666666" points="1308.5,-127.5 1138.5,-127.5 1138.5,-86.5 1308.5,-86.5 1308.5,-127.5"/>
<text text-anchor="start" x="1146.5" y="-115.5" font-family="Helvetica,sans-Serif" font-size="10.00">Terraria.GameContent.Drawing.</text>
<text text-anchor="start" x="1146.5" y="-104.5" font-family="Helvetica,sans-Serif" font-size="10.00">TileDrawing.DrawEntities</text>
<text text-anchor="middle" x="1223.5" y="-93.5" font-family="Helvetica,sans-Serif" font-size="10.00">_DisplayDolls</text>
</a>
</g>
</g>
<!-- Node4&#45;&gt;Node5 -->
<g id="edge4_Node000004_Node000005" class="edge">
<title>Node4&#45;&gt;Node5</title>
<g id="a_edge4_Node000004_Node000005"><a xlink:title=" ">
<path fill="none" stroke="#63b8ff" d="M1354.38,-115.1C1339.26,-114.16 1323.7,-113.19 1308.83,-112.26"/>
<polygon fill="#63b8ff" stroke="#63b8ff" points="1354.57,-118.62 1364.77,-115.75 1355,-111.63 1354.57,-118.62"/>
</a>
</g>
</g>
<!-- Node18 -->
<g id="Node000018" class="node">
<title>Node18</title>
<g id="a_Node000018"><a xlink:href="../../d6/d7b/classTerraria_1_1GameContent_1_1Drawing_1_1TileDrawing_ac434c998201ac8098ddaf97b1ccd0d71.html#ac434c998201ac8098ddaf97b1ccd0d71" target="_top" xlink:title=" ">
<polygon fill="white" stroke="#666666" points="1308.5,-186.5 1138.5,-186.5 1138.5,-145.5 1308.5,-145.5 1308.5,-186.5"/>
<text text-anchor="start" x="1146.5" y="-174.5" font-family="Helvetica,sans-Serif" font-size="10.00">Terraria.GameContent.Drawing.</text>
<text text-anchor="start" x="1146.5" y="-163.5" font-family="Helvetica,sans-Serif" font-size="10.00">TileDrawing.DrawEntities</text>
<text text-anchor="middle" x="1223.5" y="-152.5" font-family="Helvetica,sans-Serif" font-size="10.00">_HatRacks</text>
</a>
</g>
</g>
<!-- Node4&#45;&gt;Node18 -->
<g id="edge21_Node000004_Node000018" class="edge">
<title>Node4&#45;&gt;Node18</title>
<g id="a_edge21_Node000004_Node000018"><a xlink:title=" ">
<path fill="none" stroke="#63b8ff" d="M1364,-138.04C1345.92,-141.66 1326.84,-145.49 1308.79,-149.11"/>
<polygon fill="#63b8ff" stroke="#63b8ff" points="1364.82,-141.44 1373.93,-136.05 1363.44,-134.58 1364.82,-141.44"/>
</a>
</g>
</g>
<!-- Node19 -->
<g id="Node000019" class="node">
<title>Node19</title>
<g id="a_Node000019"><a xlink:href="../../da/dd5/classTerraria_1_1Main_a0d0e70c8208ab1445ae343cb0287a0c6.html#a0d0e70c8208ab1445ae343cb0287a0c6" target="_top" xlink:title=" ">
<polygon fill="white" stroke="#666666" points="870,-82.5 738,-82.5 738,-63.5 870,-63.5 870,-82.5"/>
<text text-anchor="middle" x="804" y="-70.5" font-family="Helvetica,sans-Serif" font-size="10.00">Terraria.Main.DrawTiles</text>
</a>
</g>
</g>
<!-- Node4&#45;&gt;Node19 -->
<g id="edge23_Node000004_Node000019" class="edge">
<title>Node4&#45;&gt;Node19</title>
<g id="a_edge23_Node000004_Node000019"><a xlink:title=" ">
<path fill="none" stroke="#63b8ff" d="M1405,-102.2C1380.23,-92.62 1348.45,-81.97 1319,-77 1159.51,-50.1 968.2,-59.29 870.08,-66.94"/>
<polygon fill="#63b8ff" stroke="#63b8ff" points="1403.88,-105.52 1414.47,-105.94 1406.46,-99.01 1403.88,-105.52"/>
</a>
</g>
</g>
<!-- Node6 -->
<g id="Node000006" class="node">
<title>Node6</title>
<g id="a_Node000006"><a xlink:href="../../d6/d7b/classTerraria_1_1GameContent_1_1Drawing_1_1TileDrawing_a195bc3275a5fbd6fe52452a5a2251e49.html#a195bc3275a5fbd6fe52452a5a2251e49" target="_top" xlink:title=" ">
<polygon fill="white" stroke="#666666" points="1092,-128 922,-128 922,-98 1092,-98 1092,-128"/>
<text text-anchor="start" x="930" y="-116" font-family="Helvetica,sans-Serif" font-size="10.00">Terraria.GameContent.Drawing.</text>
<text text-anchor="middle" x="1007" y="-105" font-family="Helvetica,sans-Serif" font-size="10.00">TileDrawing.PostDrawTiles</text>
</a>
</g>
</g>
<!-- Node5&#45;&gt;Node6 -->
<g id="edge5_Node000005_Node000006" class="edge">
<title>Node5&#45;&gt;Node6</title>
<g id="a_edge5_Node000005_Node000006"><a xlink:title=" ">
<path fill="none" stroke="#63b8ff" d="M1128.32,-109.63C1116.32,-109.97 1104.1,-110.31 1092.27,-110.64"/>
<polygon fill="#63b8ff" stroke="#63b8ff" points="1128.44,-113.13 1138.34,-109.35 1128.25,-106.14 1128.44,-113.13"/>
</a>
</g>
</g>
<!-- Node7 -->
<g id="Node000007" class="node">
<title>Node7</title>
<g id="a_Node000007"><a xlink:href="../../da/dd5/classTerraria_1_1Main_ad4ae75332050e0d79634071470f5a909.html#ad4ae75332050e0d79634071470f5a909" target="_top" xlink:title=" ">
<polygon fill="white" stroke="#666666" points="886,-122.5 722,-122.5 722,-103.5 886,-103.5 886,-122.5"/>
<text text-anchor="middle" x="804" y="-110.5" font-family="Helvetica,sans-Serif" font-size="10.00">Terraria.Main.DrawTileEntities</text>
</a>
</g>
</g>
<!-- Node6&#45;&gt;Node7 -->
<g id="edge6_Node000006_Node000007" class="edge">
<title>Node6&#45;&gt;Node7</title>
<g id="a_edge6_Node000006_Node000007"><a xlink:title=" ">
<path fill="none" stroke="#63b8ff" d="M911.88,-113C903.29,-113 894.63,-113 886.17,-113"/>
<polygon fill="#63b8ff" stroke="#63b8ff" points="911.92,-116.5 921.92,-113 911.92,-109.5 911.92,-116.5"/>
</a>
</g>
</g>
<!-- Node8 -->
<g id="Node000008" class="node">
<title>Node8</title>
<g id="a_Node000008"><a xlink:href="../../da/dd5/classTerraria_1_1Main_a3577de5a7f25360eb93079d58db7c623.html#a3577de5a7f25360eb93079d58db7c623" target="_top" xlink:title=" ">
<polygon fill="white" stroke="#666666" points="673.5,-128 551.5,-128 551.5,-98 673.5,-98 673.5,-128"/>
<text text-anchor="start" x="559.5" y="-116" font-family="Helvetica,sans-Serif" font-size="10.00">Terraria.Main.DoDraw</text>
<text text-anchor="middle" x="612.5" y="-105" font-family="Helvetica,sans-Serif" font-size="10.00">_Tiles_NonSolid</text>
</a>
</g>
</g>
<!-- Node7&#45;&gt;Node8 -->
<g id="edge7_Node000007_Node000008" class="edge">
<title>Node7&#45;&gt;Node8</title>
<g id="a_edge7_Node000007_Node000008"><a xlink:title=" ">
<path fill="none" stroke="#63b8ff" d="M711.52,-113C698.65,-113 685.7,-113 673.61,-113"/>
<polygon fill="#63b8ff" stroke="#63b8ff" points="711.81,-116.5 721.81,-113 711.81,-109.5 711.81,-116.5"/>
</a>
</g>
</g>
<!-- Node12 -->
<g id="Node000012" class="node">
<title>Node12</title>
<g id="a_Node000012"><a xlink:href="../../da/dd5/classTerraria_1_1Main_ae56023e484f0560aeca4eb92c99120d0.html#ae56023e484f0560aeca4eb92c99120d0" target="_top" xlink:title=" ">
<polygon fill="white" stroke="#666666" points="673.5,-176 551.5,-176 551.5,-146 673.5,-146 673.5,-176"/>
<text text-anchor="start" x="559.5" y="-164" font-family="Helvetica,sans-Serif" font-size="10.00">Terraria.Main.DoDraw</text>
<text text-anchor="middle" x="612.5" y="-153" font-family="Helvetica,sans-Serif" font-size="10.00">_Tiles_Solid</text>
</a>
</g>
</g>
<!-- Node7&#45;&gt;Node12 -->
<g id="edge12_Node000007_Node000012" class="edge">
<title>Node7&#45;&gt;Node12</title>
<g id="a_edge12_Node000007_Node000012"><a xlink:title=" ">
<path fill="none" stroke="#63b8ff" d="M755.15,-125.12C730.2,-131.44 699.44,-139.23 672.97,-145.94"/>
<polygon fill="#63b8ff" stroke="#63b8ff" points="756.27,-128.45 765.11,-122.6 754.55,-121.66 756.27,-128.45"/>
</a>
</g>
</g>
<!-- Node13 -->
<g id="Node000013" class="node">
<title>Node13</title>
<g id="a_Node000013"><a xlink:href="../../da/dd5/classTerraria_1_1Main_aa1215ac37e89e0d5e5b882e6119ec6da.html#aa1215ac37e89e0d5e5b882e6119ec6da" target="_top" xlink:title=" ">
<polygon fill="white" stroke="#666666" points="686,-213.5 539,-213.5 539,-194.5 686,-194.5 686,-213.5"/>
<text text-anchor="middle" x="612.5" y="-201.5" font-family="Helvetica,sans-Serif" font-size="10.00">Terraria.Main.DrawCapture</text>
</a>
</g>
</g>
<!-- Node7&#45;&gt;Node13 -->
<g id="edge14_Node000007_Node000013" class="edge">
<title>Node7&#45;&gt;Node13</title>
<g id="a_edge14_Node000007_Node000013"><a xlink:title=" ">
<path fill="none" stroke="#63b8ff" d="M782.18,-128.46C759.55,-144.61 721.82,-169.69 686,-185 677.27,-188.73 667.62,-191.88 658.29,-194.48"/>
<polygon fill="#63b8ff" stroke="#63b8ff" points="784.31,-131.24 790.36,-122.54 780.2,-125.57 784.31,-131.24"/>
</a>
</g>
</g>
<!-- Node16 -->
<g id="Node000016" class="node">
<title>Node16</title>
<g id="a_Node000016"><a xlink:href="../../da/dd5/classTerraria_1_1Main_a28b4f7a7c174b4336af28e4ffedbee6b.html#a28b4f7a7c174b4336af28e4ffedbee6b" target="_top" xlink:title=" ">
<polygon fill="white" stroke="#666666" points="683,-79.5 542,-79.5 542,-60.5 683,-60.5 683,-79.5"/>
<text text-anchor="middle" x="612.5" y="-67.5" font-family="Helvetica,sans-Serif" font-size="10.00">Terraria.Main.RenderTiles</text>
</a>
</g>
</g>
<!-- Node7&#45;&gt;Node16 -->
<g id="edge17_Node000007_Node000016" class="edge">
<title>Node7&#45;&gt;Node16</title>
<g id="a_edge17_Node000007_Node000016"><a xlink:title=" ">
<path fill="none" stroke="#63b8ff" d="M751.05,-101.21C720.98,-94.39 683.63,-85.91 655.44,-79.52"/>
<polygon fill="#63b8ff" stroke="#63b8ff" points="750.42,-104.66 760.94,-103.46 751.97,-97.83 750.42,-104.66"/>
</a>
</g>
</g>
<!-- Node17 -->
<g id="Node000017" class="node">
<title>Node17</title>
<g id="a_Node000017"><a xlink:href="../../da/dd5/classTerraria_1_1Main_a695c9d156c03ebb6ba6accba1be2002c.html#a695c9d156c03ebb6ba6accba1be2002c" target="_top" xlink:title=" ">
<polygon fill="white" stroke="#666666" points="686,-42.5 539,-42.5 539,-23.5 686,-23.5 686,-42.5"/>
<text text-anchor="middle" x="612.5" y="-30.5" font-family="Helvetica,sans-Serif" font-size="10.00">Terraria.Main.RenderTiles2</text>
</a>
</g>
</g>
<!-- Node7&#45;&gt;Node17 -->
<g id="edge19_Node000007_Node000017" class="edge">
<title>Node7&#45;&gt;Node17</title>
<g id="a_edge19_Node000007_Node000017"><a xlink:title=" ">
<path fill="none" stroke="#63b8ff" d="M740.58,-100.03C734.08,-97.52 727.75,-94.54 722,-91 701.63,-78.47 706.51,-63.31 686,-51 680.33,-47.6 674.04,-44.83 667.61,-42.59"/>
<polygon fill="#63b8ff" stroke="#63b8ff" points="739.59,-103.39 750.19,-103.37 741.89,-96.78 739.59,-103.39"/>
</a>
</g>
</g>
<!-- Node9 -->
<g id="Node000009" class="node">
<title>Node9</title>
<g id="a_Node000009"><a xlink:href="../../da/dd5/classTerraria_1_1Main_a2d44005190710445b2d2cae37fc514bf.html#a2d44005190710445b2d2cae37fc514bf" target="_top" xlink:title=" ">
<polygon fill="white" stroke="#666666" points="476,-163 354,-163 354,-133 476,-133 476,-163"/>
<text text-anchor="start" x="362" y="-151" font-family="Helvetica,sans-Serif" font-size="10.00">Terraria.Main.DoDraw</text>
<text text-anchor="middle" x="415" y="-140" font-family="Helvetica,sans-Serif" font-size="10.00">_WallsTilesNPCs</text>
</a>
</g>
</g>
<!-- Node8&#45;&gt;Node9 -->
<g id="edge8_Node000008_Node000009" class="edge">
<title>Node8&#45;&gt;Node9</title>
<g id="a_edge8_Node000008_Node000009"><a xlink:title=" ">
<path fill="none" stroke="#63b8ff" d="M541.27,-125.57C519.92,-129.4 496.67,-133.56 476.05,-137.25"/>
<polygon fill="#63b8ff" stroke="#63b8ff" points="542.02,-128.99 551.25,-123.79 540.79,-122.1 542.02,-128.99"/>
</a>
</g>
</g>
<!-- Node10 -->
<g id="Node000010" class="node">
<title>Node10</title>
<g id="a_Node000010"><a xlink:href="../../da/dd5/classTerraria_1_1Main_a474beeecaea4d6dd108fba56cd554d46.html#a474beeecaea4d6dd108fba56cd554d46" target="_top" xlink:title=" ">
<polygon fill="white" stroke="#666666" points="279,-248.5 157,-248.5 157,-229.5 279,-229.5 279,-248.5"/>
<text text-anchor="middle" x="218" y="-236.5" font-family="Helvetica,sans-Serif" font-size="10.00">Terraria.Main.DoDraw</text>
</a>
</g>
</g>
<!-- Node9&#45;&gt;Node10 -->
<g id="edge9_Node000009_Node000010" class="edge">
<title>Node9&#45;&gt;Node10</title>
<g id="a_edge9_Node000009_Node000010"><a xlink:title=" ">
<path fill="none" stroke="#63b8ff" d="M344.07,-162.75C338.06,-165.35 332.27,-168.41 327,-172 304.96,-187.02 313.12,-205.11 291,-220 285.21,-223.9 278.66,-227 271.92,-229.46"/>
<polygon fill="#63b8ff" stroke="#63b8ff" points="345.61,-165.91 353.67,-159.03 343.08,-159.39 345.61,-165.91"/>
</a>
</g>
</g>
<!-- Node11 -->
<g id="Node000011" class="node">
<title>Node11</title>
<g id="a_Node000011"><a xlink:href="../../da/dd5/classTerraria_1_1Main_a516aa31311860bad4242ade32e5effcd.html#a516aa31311860bad4242ade32e5effcd" target="_top" xlink:title=" ">
<polygon fill="white" stroke="#666666" points="109,-248.5 0,-248.5 0,-229.5 109,-229.5 109,-248.5"/>
<text text-anchor="middle" x="54.5" y="-236.5" font-family="Helvetica,sans-Serif" font-size="10.00">Terraria.Main.Draw</text>
</a>
</g>
</g>
<!-- Node10&#45;&gt;Node11 -->
<g id="edge10_Node000010_Node000011" class="edge">
<title>Node10&#45;&gt;Node11</title>
<g id="a_edge10_Node000010_Node000011"><a xlink:title=" ">
<path fill="none" stroke="#63b8ff" d="M146.81,-232.3C134.14,-232.18 121.13,-232.28 109.04,-232.6"/>
<polygon fill="#63b8ff" stroke="#63b8ff" points="146.81,-235.8 156.86,-232.45 146.92,-228.8 146.81,-235.8"/>
</a>
</g>
</g>
<!-- Node11&#45;&gt;Node10 -->
<g id="edge11_Node000011_Node000010" class="edge">
<title>Node11&#45;&gt;Node10</title>
<g id="a_edge11_Node000011_Node000010"><a xlink:title=" ">
<path fill="none" stroke="#63b8ff" d="M119.28,-245.62C131.66,-245.81 144.6,-245.79 156.86,-245.55"/>
<polygon fill="#63b8ff" stroke="#63b8ff" points="119.11,-242.11 109.04,-245.4 118.96,-249.11 119.11,-242.11"/>
</a>
</g>
</g>
<!-- Node12&#45;&gt;Node9 -->
<g id="edge13_Node000012_Node000009" class="edge">
<title>Node12&#45;&gt;Node9</title>
<g id="a_edge13_Node000012_Node000009"><a xlink:title=" ">
<path fill="none" stroke="#63b8ff" d="M541.27,-156.33C519.92,-154.91 496.67,-153.36 476.05,-151.99"/>
<polygon fill="#63b8ff" stroke="#63b8ff" points="541.04,-159.82 551.25,-156.99 541.5,-152.84 541.04,-159.82"/>
</a>
</g>
</g>
<!-- Node14 -->
<g id="Node000014" class="node">
<title>Node14</title>
<g id="a_Node000014"><a xlink:href="../../d5/d3b/classTerraria_1_1Graphics_1_1Capture_1_1CaptureCamera_a0f89b111e49e173b59c7d4eae1ec828f.html#a0f89b111e49e173b59c7d4eae1ec828f" target="_top" xlink:title=" ">
<polygon fill="white" stroke="#666666" points="486.5,-211 343.5,-211 343.5,-181 486.5,-181 486.5,-211"/>
<text text-anchor="start" x="351.5" y="-199" font-family="Helvetica,sans-Serif" font-size="10.00">Terraria.Graphics.Capture.</text>
<text text-anchor="middle" x="415" y="-188" font-family="Helvetica,sans-Serif" font-size="10.00">CaptureCamera.DrawTick</text>
</a>
</g>
</g>
<!-- Node13&#45;&gt;Node14 -->
<g id="edge15_Node000013_Node000014" class="edge">
<title>Node13&#45;&gt;Node14</title>
<g id="a_edge15_Node000013_Node000014"><a xlink:title=" ">
<path fill="none" stroke="#63b8ff" d="M528.88,-200.62C514.87,-200.05 500.44,-199.46 486.78,-198.9"/>
<polygon fill="#63b8ff" stroke="#63b8ff" points="528.85,-204.12 538.98,-201.03 529.13,-197.13 528.85,-204.12"/>
</a>
</g>
</g>
<!-- Node15 -->
<g id="Node000015" class="node">
<title>Node15</title>
<g id="a_Node000015"><a xlink:href="../../d4/d78/classTerraria_1_1Graphics_1_1Capture_1_1CaptureManager_a692c32176bdf72053b0217a48bc49dd5.html#a692c32176bdf72053b0217a48bc49dd5" target="_top" xlink:title=" ">
<polygon fill="white" stroke="#666666" points="291,-211 145,-211 145,-181 291,-181 291,-211"/>
<text text-anchor="start" x="153" y="-199" font-family="Helvetica,sans-Serif" font-size="10.00">Terraria.Graphics.Capture.</text>
<text text-anchor="middle" x="218" y="-188" font-family="Helvetica,sans-Serif" font-size="10.00">CaptureManager.DrawTick</text>
</a>
</g>
</g>
<!-- Node14&#45;&gt;Node15 -->
<g id="edge16_Node000014_Node000015" class="edge">
<title>Node14&#45;&gt;Node15</title>
<g id="a_edge16_Node000014_Node000015"><a xlink:title=" ">
<path fill="none" stroke="#63b8ff" d="M333.24,-196C319.26,-196 304.8,-196 291.07,-196"/>
<polygon fill="#63b8ff" stroke="#63b8ff" points="333.32,-199.5 343.32,-196 333.32,-192.5 333.32,-199.5"/>
</a>
</g>
</g>
<!-- Node16&#45;&gt;Node10 -->
<g id="edge18_Node000016_Node000010" class="edge">
<title>Node16&#45;&gt;Node10</title>
<g id="a_edge18_Node000016_Node000010"><a xlink:title=" ">
<path fill="none" stroke="#63b8ff" d="M531.79,-76.43C458.72,-83.83 357.39,-98.41 327,-124 292.14,-153.35 324.8,-189.44 291,-220 286.78,-223.81 281.88,-226.88 276.67,-229.34"/>
<polygon fill="#63b8ff" stroke="#63b8ff" points="532.3,-79.89 541.91,-75.43 531.61,-72.93 532.3,-79.89"/>
</a>
</g>
</g>
<!-- Node17&#45;&gt;Node10 -->
<g id="edge20_Node000017_Node000010" class="edge">
<title>Node17&#45;&gt;Node10</title>
<g id="a_edge20_Node000017_Node000010"><a xlink:title=" ">
<path fill="none" stroke="#63b8ff" d="M528.47,-23.15C465.48,-20.5 380.81,-27.98 327,-77 278.55,-121.13 337.08,-173.39 291,-220 287.18,-223.86 282.68,-226.97 277.82,-229.46"/>
<polygon fill="#63b8ff" stroke="#63b8ff" points="528.62,-26.66 538.78,-23.69 528.98,-19.67 528.62,-26.66"/>
</a>
</g>
</g>
<!-- Node18&#45;&gt;Node6 -->
<g id="edge22_Node000018_Node000006" class="edge">
<title>Node18&#45;&gt;Node6</title>
<g id="a_edge22_Node000018_Node000006"><a xlink:title=" ">
<path fill="none" stroke="#63b8ff" d="M1129.29,-142.97C1108.85,-137.92 1087.71,-132.69 1068.91,-128.05"/>
<polygon fill="#63b8ff" stroke="#63b8ff" points="1128.71,-146.43 1139.26,-145.43 1130.39,-139.64 1128.71,-146.43"/>
</a>
</g>
</g>
<!-- Node19&#45;&gt;Node8 -->
<g id="edge24_Node000019_Node000008" class="edge">
<title>Node19&#45;&gt;Node8</title>
<g id="a_edge24_Node000019_Node000008"><a xlink:title=" ">
<path fill="none" stroke="#63b8ff" d="M747.57,-84.7C724.34,-89.6 697.28,-95.32 673.57,-100.32"/>
<polygon fill="#63b8ff" stroke="#63b8ff" points="748.55,-88.07 757.61,-82.58 747.1,-81.22 748.55,-88.07"/>
</a>
</g>
</g>
<!-- Node19&#45;&gt;Node12 -->
<g id="edge25_Node000019_Node000012" class="edge">
<title>Node19&#45;&gt;Node12</title>
<g id="a_edge25_Node000019_Node000012"><a xlink:title=" ">
<path fill="none" stroke="#63b8ff" d="M737.29,-86.2C731.93,-88.41 726.76,-90.99 722,-94 700.93,-107.32 706.62,-122.99 686,-137 680.96,-140.43 675.38,-143.4 669.63,-145.96"/>
<polygon fill="#63b8ff" stroke="#63b8ff" points="738.89,-89.34 747.07,-82.61 736.47,-82.77 738.89,-89.34"/>
</a>
</g>
</g>
<!-- Node19&#45;&gt;Node13 -->
<g id="edge26_Node000019_Node000013" class="edge">
<title>Node19&#45;&gt;Node13</title>
<g id="a_edge26_Node000019_Node000013"><a xlink:title=" ">
<path fill="none" stroke="#63b8ff" d="M731.4,-87.21C728.05,-89.19 724.89,-91.44 722,-94 689.41,-122.81 718.55,-156.15 686,-185 681.62,-188.88 676.54,-191.99 671.14,-194.47"/>
<polygon fill="#63b8ff" stroke="#63b8ff" points="733.28,-90.19 740.63,-82.56 730.13,-83.93 733.28,-90.19"/>
</a>
</g>
</g>
<!-- Node19&#45;&gt;Node16 -->
<g id="edge27_Node000019_Node000016" class="edge">
<title>Node19&#45;&gt;Node16</title>
<g id="a_edge27_Node000019_Node000016"><a xlink:title=" ">
<path fill="none" stroke="#63b8ff" d="M727.71,-71.81C712.97,-71.57 697.58,-71.33 683.04,-71.1"/>
<polygon fill="#63b8ff" stroke="#63b8ff" points="727.73,-75.31 737.78,-71.97 727.84,-68.31 727.73,-75.31"/>
</a>
</g>
</g>
<!-- Node19&#45;&gt;Node17 -->
<g id="edge28_Node000019_Node000017" class="edge">
<title>Node19&#45;&gt;Node17</title>
<g id="a_edge28_Node000019_Node000017"><a xlink:title=" ">
<path fill="none" stroke="#63b8ff" d="M747.46,-61.28C719.15,-55.3 685.17,-48.13 658.52,-42.5"/>
<polygon fill="#63b8ff" stroke="#63b8ff" points="747.1,-64.78 757.61,-63.42 748.55,-57.93 747.1,-64.78"/>
</a>
</g>
</g>
<!-- Node21 -->
<g id="Node000021" class="node">
<title>Node21</title>
<g id="a_Node000021"><a xlink:href="../../da/dd5/classTerraria_1_1Main_a1e3b89614e3540f1dbfdfe1e731aa58b.html#a1e3b89614e3540f1dbfdfe1e731aa58b" target="_top" xlink:title=" ">
<polygon fill="white" stroke="#666666" points="873,-224.5 735,-224.5 735,-205.5 873,-205.5 873,-224.5"/>
<text text-anchor="middle" x="804" y="-212.5" font-family="Helvetica,sans-Serif" font-size="10.00">Terraria.Main.DrawLiquid</text>
</a>
</g>
</g>
<!-- Node20&#45;&gt;Node21 -->
<g id="edge30_Node000020_Node000021" class="edge">
<title>Node20&#45;&gt;Node21</title>
<g id="a_edge30_Node000020_Node000021"><a xlink:title=" ">
<path fill="none" stroke="#63b8ff" d="M1344.76,-194.01C1336.05,-194.75 1327.38,-195.43 1319,-196 1159.53,-206.91 971.77,-211.85 873.25,-213.84"/>
<polygon fill="#63b8ff" stroke="#63b8ff" points="1345.32,-197.47 1354.98,-193.11 1344.71,-190.5 1345.32,-197.47"/>
</a>
</g>
</g>
<!-- Node21&#45;&gt;Node13 -->
<g id="edge31_Node000021_Node000013" class="edge">
<title>Node21&#45;&gt;Node13</title>
<g id="a_edge31_Node000021_Node000013"><a xlink:title=" ">
<path fill="none" stroke="#63b8ff" d="M724.72,-210.46C711.96,-209.72 698.78,-208.95 686.16,-208.22"/>
<polygon fill="#63b8ff" stroke="#63b8ff" points="724.67,-213.96 734.85,-211.04 725.07,-206.97 724.67,-213.96"/>
</a>
</g>
</g>
<!-- Node22 -->
<g id="Node000022" class="node">
<title>Node22</title>
<g id="a_Node000022"><a xlink:href="../../da/dd5/classTerraria_1_1Main_ae858d85cb2214569ddb3ed5216acac71.html#ae858d85cb2214569ddb3ed5216acac71" target="_top" xlink:title=" ">
<polygon fill="white" stroke="#666666" points="684,-299.5 541,-299.5 541,-280.5 684,-280.5 684,-299.5"/>
<text text-anchor="middle" x="612.5" y="-287.5" font-family="Helvetica,sans-Serif" font-size="10.00">Terraria.Main.DrawWaters</text>
</a>
</g>
</g>
<!-- Node21&#45;&gt;Node22 -->
<g id="edge32_Node000021_Node000022" class="edge">
<title>Node21&#45;&gt;Node22</title>
<g id="a_edge32_Node000021_Node000022"><a xlink:title=" ">
<path fill="none" stroke="#63b8ff" d="M734.64,-227.99C730.25,-229.75 726,-231.74 722,-234 702.03,-245.3 705.82,-259.45 686,-271 679.37,-274.87 671.94,-277.96 664.44,-280.43"/>
<polygon fill="#63b8ff" stroke="#63b8ff" points="736.15,-231.17 744.4,-224.51 733.8,-224.57 736.15,-231.17"/>
</a>
</g>
</g>
<!-- Node22&#45;&gt;Node10 -->
<g id="edge33_Node000022_Node000010" class="edge">
<title>Node22&#45;&gt;Node10</title>
<g id="a_edge33_Node000022_Node000010"><a xlink:title=" ">
<path fill="none" stroke="#63b8ff" d="M563.24,-277.82C555.12,-275.64 546.8,-273.32 539,-271 522.83,-266.19 519.54,-262.28 503,-259 426.76,-243.86 337.03,-239.77 279.14,-238.87"/>
<polygon fill="#63b8ff" stroke="#63b8ff" points="562.43,-281.23 572.99,-280.41 564.22,-274.46 562.43,-281.23"/>
</a>
</g>
</g>
<!-- Node23 -->
<g id="Node000023" class="node">
<title>Node23</title>
<g id="a_Node000023"><a xlink:href="../../da/dd5/classTerraria_1_1Main_a48fdce278384e0e5424b1f84a071110d.html#a48fdce278384e0e5424b1f84a071110d" target="_top" xlink:title=" ">
<polygon fill="white" stroke="#666666" points="503,-323.5 327,-323.5 327,-304.5 503,-304.5 503,-323.5"/>
<text text-anchor="middle" x="415" y="-311.5" font-family="Helvetica,sans-Serif" font-size="10.00">Terraria.Main.RenderBackground</text>
</a>
</g>
</g>
<!-- Node22&#45;&gt;Node23 -->
<g id="edge34_Node000022_Node000023" class="edge">
<title>Node22&#45;&gt;Node23</title>
<g id="a_edge34_Node000022_Node000023"><a xlink:title=" ">
<path fill="none" stroke="#63b8ff" d="M530.68,-299.92C518.36,-301.43 505.67,-302.99 493.42,-304.5"/>
<polygon fill="#63b8ff" stroke="#63b8ff" points="531.42,-303.36 540.92,-298.66 530.57,-296.41 531.42,-303.36"/>
</a>
</g>
</g>
<!-- Node24 -->
<g id="Node000024" class="node">
<title>Node24</title>
<g id="a_Node000024"><a xlink:href="../../da/dd5/classTerraria_1_1Main_a57708f4defcd47377ee0623962510649.html#a57708f4defcd47377ee0623962510649" target="_top" xlink:title=" ">
<polygon fill="white" stroke="#666666" points="488,-286.5 342,-286.5 342,-267.5 488,-267.5 488,-286.5"/>
<text text-anchor="middle" x="415" y="-274.5" font-family="Helvetica,sans-Serif" font-size="10.00">Terraria.Main.RenderWater</text>
</a>
</g>
</g>
<!-- Node22&#45;&gt;Node24 -->
<g id="edge36_Node000022_Node000024" class="edge">
<title>Node22&#45;&gt;Node24</title>
<g id="a_edge36_Node000022_Node000024"><a xlink:title=" ">
<path fill="none" stroke="#63b8ff" d="M530.74,-284.63C516.61,-283.69 501.99,-282.72 488.12,-281.8"/>
<polygon fill="#63b8ff" stroke="#63b8ff" points="530.71,-288.14 540.92,-285.31 531.17,-281.15 530.71,-288.14"/>
</a>
</g>
</g>
<!-- Node23&#45;&gt;Node10 -->
<g id="edge35_Node000023_Node000010" class="edge">
<title>Node23&#45;&gt;Node10</title>
<g id="a_edge35_Node000023_Node000010"><a xlink:title=" ">
<path fill="none" stroke="#63b8ff" d="M346.5,-302.01C339.84,-300.24 333.24,-298.24 327,-296 291.88,-283.39 254,-261.18 233.76,-248.52"/>
<polygon fill="#63b8ff" stroke="#63b8ff" points="345.72,-305.42 356.27,-304.44 347.41,-298.63 345.72,-305.42"/>
</a>
</g>
</g>
<!-- Node24&#45;&gt;Node10 -->
<g id="edge37_Node000024_Node000010" class="edge">
<title>Node24&#45;&gt;Node10</title>
<g id="a_edge37_Node000024_Node000010"><a xlink:title=" ">
<path fill="none" stroke="#63b8ff" d="M355.04,-265.51C327.22,-260.09 294.4,-253.69 267.98,-248.54"/>
<polygon fill="#63b8ff" stroke="#63b8ff" points="354.56,-268.98 365.04,-267.46 355.9,-262.11 354.56,-268.98"/>
</a>
</g>
</g>
<!-- Node26 -->
<g id="Node000026" class="node">
<title>Node26</title>
<g id="a_Node000026"><a xlink:href="../../da/dd5/classTerraria_1_1Main_a4ece4cb879a5da1b9efe7b306bb59f59.html#a4ece4cb879a5da1b9efe7b306bb59f59" target="_top" xlink:title=" ">
<polygon fill="white" stroke="#666666" points="871.5,-261.5 736.5,-261.5 736.5,-242.5 871.5,-242.5 871.5,-261.5"/>
<text text-anchor="middle" x="804" y="-249.5" font-family="Helvetica,sans-Serif" font-size="10.00">Terraria.Main.DrawWalls</text>
</a>
</g>
</g>
<!-- Node25&#45;&gt;Node26 -->
<g id="edge39_Node000025_Node000026" class="edge">
<title>Node25&#45;&gt;Node26</title>
<g id="a_edge39_Node000025_Node000026"><a xlink:title=" ">
<path fill="none" stroke="#63b8ff" d="M1814.47,-237.52C1721.91,-244.23 1576.85,-253 1451,-253 1451,-253 1451,-253 1222.5,-253 1098.55,-253 953.91,-252.55 871.52,-252.26"/>
<polygon fill="#63b8ff" stroke="#63b8ff" points="1814.93,-241 1824.65,-236.78 1814.42,-234.02 1814.93,-241"/>
</a>
</g>
</g>
<!-- Node26&#45;&gt;Node13 -->
<g id="edge42_Node000026_Node000013" class="edge">
<title>Node26&#45;&gt;Node13</title>
<g id="a_edge42_Node000026_Node000013"><a xlink:title=" ">
<path fill="none" stroke="#63b8ff" d="M747.18,-240.2C738.72,-238.23 730.11,-236.14 722,-234 705.82,-229.74 702.1,-227.57 686,-223 674.73,-219.8 662.43,-216.51 651.21,-213.57"/>
<polygon fill="#63b8ff" stroke="#63b8ff" points="746.49,-243.63 757.01,-242.43 748.04,-236.8 746.49,-243.63"/>
</a>
</g>
</g>
<!-- Node27 -->
<g id="Node000027" class="node">
<title>Node27</title>
<g id="a_Node000027"><a xlink:href="../../da/dd5/classTerraria_1_1Main_aabe3c9e20bc3a9f90d71bc26edac63bb.html#aabe3c9e20bc3a9f90d71bc26edac63bb" target="_top" xlink:title=" ">
<polygon fill="white" stroke="#666666" points="673.5,-262 551.5,-262 551.5,-232 673.5,-232 673.5,-262"/>
<text text-anchor="start" x="559.5" y="-250" font-family="Helvetica,sans-Serif" font-size="10.00">Terraria.Main.DoDraw</text>
<text text-anchor="middle" x="612.5" y="-239" font-family="Helvetica,sans-Serif" font-size="10.00">_WallsAndBlacks</text>
</a>
</g>
</g>
<!-- Node26&#45;&gt;Node27 -->
<g id="edge40_Node000026_Node000027" class="edge">
<title>Node26&#45;&gt;Node27</title>
<g id="a_edge40_Node000026_Node000027"><a xlink:title=" ">
<path fill="none" stroke="#63b8ff" d="M726.24,-249.97C708.69,-249.51 690.29,-249.03 673.56,-248.58"/>
<polygon fill="#63b8ff" stroke="#63b8ff" points="726.37,-253.48 736.46,-250.24 726.55,-246.48 726.37,-253.48"/>
</a>
</g>
</g>
<!-- Node28 -->
<g id="Node000028" class="node">
<title>Node28</title>
<g id="a_Node000028"><a xlink:href="../../da/dd5/classTerraria_1_1Main_ac82d6f5849c943265915d021b1d94aa1.html#ac82d6f5849c943265915d021b1d94aa1" target="_top" xlink:title=" ">
<polygon fill="white" stroke="#666666" points="487,-360.5 343,-360.5 343,-341.5 487,-341.5 487,-360.5"/>
<text text-anchor="middle" x="415" y="-348.5" font-family="Helvetica,sans-Serif" font-size="10.00">Terraria.Main.RenderWalls</text>
</a>
</g>
</g>
<!-- Node26&#45;&gt;Node28 -->
<g id="edge43_Node000026_Node000028" class="edge">
<title>Node26&#45;&gt;Node28</title>
<g id="a_edge43_Node000026_Node000028"><a xlink:title=" ">
<path fill="none" stroke="#63b8ff" d="M778.59,-266.58C755.52,-279.7 719.54,-298.48 686,-309 620.36,-329.58 542.46,-340.32 487.24,-345.77"/>
<polygon fill="#63b8ff" stroke="#63b8ff" points="780.45,-269.55 787.35,-261.52 776.94,-263.49 780.45,-269.55"/>
</a>
</g>
</g>
<!-- Node27&#45;&gt;Node9 -->
<g id="edge41_Node000027_Node000009" class="edge">
<title>Node27&#45;&gt;Node9</title>
<g id="a_edge41_Node000027_Node000009"><a xlink:title=" ">
<path fill="none" stroke="#63b8ff" d="M544.81,-226.91C542.8,-225.68 540.86,-224.38 539,-223 516.71,-206.48 525.7,-187.95 503,-172 494.92,-166.32 485.55,-161.99 476.02,-158.68"/>
<polygon fill="#63b8ff" stroke="#63b8ff" points="543.5,-230.18 553.96,-231.86 546.83,-224.02 543.5,-230.18"/>
</a>
</g>
</g>
<!-- Node28&#45;&gt;Node10 -->
<g id="edge44_Node000028_Node000010" class="edge">
<title>Node28&#45;&gt;Node10</title>
<g id="a_edge44_Node000028_Node000010"><a xlink:title=" ">
<path fill="none" stroke="#63b8ff" d="M339.51,-338.31C335.2,-336.74 330.99,-334.98 327,-333 283.35,-311.37 243.23,-267.76 226.82,-248.51"/>
<polygon fill="#63b8ff" stroke="#63b8ff" points="338.49,-341.66 349.08,-341.44 340.67,-335.01 338.49,-341.66"/>
</a>
</g>
</g>
<!-- Node29&#45;&gt;Node30 -->
<g id="edge46_Node000029_Node000030" class="edge">
<title>Node29&#45;&gt;Node30</title>
<g id="a_edge46_Node000029_Node000030"><a xlink:title=" ">
<path fill="none" stroke="#63b8ff" d="M1815.01,-73C1799.99,-73 1784.53,-73 1769.77,-73"/>
<polygon fill="#63b8ff" stroke="#63b8ff" points="1815.33,-76.5 1825.33,-73 1815.33,-69.5 1815.33,-76.5"/>
</a>
</g>
</g>
<!-- Node31 -->
<g id="Node000031" class="node">
<title>Node31</title>
<g id="a_Node000031"><a xlink:href="../../d7/d76/classTerraria_1_1GameContent_1_1Shaders_1_1WaterShaderData_a53246590cbb1fc6a84cd53b526398689.html#a53246590cbb1fc6a84cd53b526398689" target="_top" xlink:title=" ">
<polygon fill="white" stroke="#666666" points="1534.5,-33 1365.5,-33 1365.5,-3 1534.5,-3 1534.5,-33"/>
<text text-anchor="start" x="1373.5" y="-21" font-family="Helvetica,sans-Serif" font-size="10.00">Terraria.GameContent.Shaders.</text>
<text text-anchor="middle" x="1450" y="-10" font-family="Helvetica,sans-Serif" font-size="10.00">WaterShaderData.PreDraw</text>
</a>
</g>
</g>
<!-- Node30&#45;&gt;Node31 -->
<g id="edge47_Node000030_Node000031" class="edge">
<title>Node30&#45;&gt;Node31</title>
<g id="a_edge47_Node000030_Node000031"><a xlink:title=" ">
<path fill="none" stroke="#63b8ff" d="M1610.51,-55.65C1579.71,-48.38 1544.25,-40.01 1514.59,-33.01"/>
<polygon fill="#63b8ff" stroke="#63b8ff" points="1609.8,-59.08 1620.33,-57.97 1611.4,-52.27 1609.8,-59.08"/>
</a>
</g>
</g>
<!-- Node32 -->
<g id="Node000032" class="node">
<title>Node32</title>
<g id="a_Node000032"><a xlink:href="../../d7/d76/classTerraria_1_1GameContent_1_1Shaders_1_1WaterShaderData_adee091ea8f42b01f7287cd6c9000dc4c.html#adee091ea8f42b01f7287cd6c9000dc4c" target="_top" xlink:title=" ">
<polygon fill="white" stroke="#666666" points="1319,-30 1128,-30 1128,0 1319,0 1319,-30"/>
<text text-anchor="start" x="1136" y="-18" font-family="Helvetica,sans-Serif" font-size="10.00">Terraria.GameContent.Shaders.</text>
<text text-anchor="middle" x="1223.5" y="-7" font-family="Helvetica,sans-Serif" font-size="10.00">WaterShaderData.WaterShaderData</text>
</a>
</g>
</g>
<!-- Node31&#45;&gt;Node32 -->
<g id="edge48_Node000031_Node000032" class="edge">
<title>Node31&#45;&gt;Node32</title>
<g id="a_edge48_Node000031_Node000032"><a xlink:title=" ">
<path fill="none" stroke="#63b8ff" d="M1355.05,-16.74C1343.17,-16.59 1331.01,-16.42 1319.12,-16.26"/>
<polygon fill="#63b8ff" stroke="#63b8ff" points="1355.36,-20.25 1365.4,-16.88 1355.45,-13.25 1355.36,-20.25"/>
</a>
</g>
</g>
</g>
</svg>

<g id="navigator" transform="translate(0 0)" fill="#404254">
  <rect fill="#f2f5e9" fill-opacity="0.5" stroke="#606060" stroke-width=".5" x="0" y="0" width="60" height="60"/>
  <use id="zoomplus" xlink:href="#zoomPlus" x="17" y="9" onmousedown="handleZoom(evt,'in')"/>
  <use id="zoomminus" xlink:href="#zoomMin" x="42" y="9" onmousedown="handleZoom(evt,'out')"/>
  <use id="reset" xlink:href="#resetDef" x="30" y="36" onmousedown="handleReset()"/>
   <use id="arrowup" xlink:href="#arrowUp" x="0" y="0" onmousedown="handlePan(0,-1)"/>
  <use id="arrowright" xlink:href="#arrowRight" x="0" y="0" onmousedown="handlePan(1,0)"/>
  <use id="arrowdown" xlink:href="#arrowDown" x="0" y="0" onmousedown="handlePan(0,1)"/>
  <use id="arrowleft" xlink:href="#arrowLeft" x="0" y="0" onmousedown="handlePan(-1,0)"/>
</g>
<svg viewBox="0 0 15 15" width="100%" height="30px" preserveAspectRatio="xMaxYMin meet">
 <g id="arrow_out" transform="scale(0.3 0.3)">
  <a xlink:href="classTerraria_1_1Graphics_1_1TileBatch_a3372ec2b63f615707d2bd68abfb9e2d1_a3372ec2b63f615707d2bd68abfb9e2d1_icgraph_org.svg" target="_base">
   <rect id="button" ry="5" rx="5" y="6" x="6" height="38" width="38"
        fill="#f2f5e9" fill-opacity="0.5" stroke="#606060" stroke-width="1.0"/>
   <path id="arrow"
     d="M 11.500037,31.436501 C 11.940474,20.09759 22.043105,11.32322 32.158766,21.979434 L 37.068811,17.246167 C 37.068811,17.246167 37.088388,32 37.088388,32 L 22.160133,31.978069 C 22.160133,31.978069 26.997745,27.140456 26.997745,27.140456 C 18.528582,18.264221 13.291696,25.230495 11.500037,31.436501 z"
     style="fill:#404040;"/>
  </a>
 </g>
</svg>

<style type='text/css'>
<![CDATA[
[data-mouse-over-selected='false'] { opacity: 0.7; }
[data-mouse-over-selected='true']  { opacity: 1.0; }
]]>
</style>
<script type="application/ecmascript"><![CDATA[
document.addEventListener('DOMContentLoaded', (event) => {
  highlightEdges();
  highlightAdjacentNodes();
});
]]></script>
</svg>
