<?xml version="1.0" encoding="UTF-8" standalone="no"?>
<!DOCTYPE svg PUBLIC "-//W3C//DTD SVG 1.1//EN"
 "http://www.w3.org/Graphics/SVG/1.1/DTD/svg11.dtd">
<!-- Generated by graphviz version 2.43.0 (0)
 -->
<!-- Title: CreativePowers.APerPlayerSliderPower Pages: 1 -->
<svg width="1150pt" height="981pt"
 viewBox="0.00 0.00 1150.00 981.00" xmlns="http://www.w3.org/2000/svg" xmlns:xlink="http://www.w3.org/1999/xlink">
<g id="graph0" class="graph" transform="scale(1 1) rotate(0) translate(4 977)">
<title>CreativePowers.APerPlayerSliderPower</title>
<polygon fill="white" stroke="transparent" points="-4,4 -4,-977 1146,-977 1146,4 -4,4"/>
<!-- Node1 -->
<g id="node1" class="node">
<title>Node1</title>
<g id="a_node1"><a xlink:title=" ">
<polygon fill="#bfbfbf" stroke="black" points="424,-0.5 424,-563.5 606,-563.5 606,-0.5 424,-0.5"/>
<text text-anchor="start" x="432" y="-551.5" font-family="Helvetica,sans-Serif" font-size="10.00">CreativePowers.APerPlayer</text>
<text text-anchor="middle" x="515" y="-540.5" font-family="Helvetica,sans-Serif" font-size="10.00">SliderPower</text>
<polyline fill="none" stroke="black" points="424,-533.5 606,-533.5 "/>
<text text-anchor="start" x="432" y="-521.5" font-family="Helvetica,sans-Serif" font-size="10.00">+ ushort PowerId</text>
<text text-anchor="start" x="432" y="-510.5" font-family="Helvetica,sans-Serif" font-size="10.00">+ string ServerConfigName</text>
<text text-anchor="start" x="432" y="-499.5" font-family="Helvetica,sans-Serif" font-size="10.00">+ PowerPermissionLevel</text>
<text text-anchor="start" x="432" y="-488.5" font-family="Helvetica,sans-Serif" font-size="10.00"> CurrentPermissionLevel</text>
<text text-anchor="start" x="432" y="-477.5" font-family="Helvetica,sans-Serif" font-size="10.00">+ PowerPermissionLevel</text>
<text text-anchor="start" x="432" y="-466.5" font-family="Helvetica,sans-Serif" font-size="10.00"> DefaultPermissionLevel</text>
<polyline fill="none" stroke="black" points="424,-459.5 606,-459.5 "/>
<text text-anchor="start" x="432" y="-447.5" font-family="Helvetica,sans-Serif" font-size="10.00">+ bool GetRemappedSliderValue</text>
<text text-anchor="start" x="432" y="-436.5" font-family="Helvetica,sans-Serif" font-size="10.00">For(int playerIndex, out</text>
<text text-anchor="start" x="432" y="-425.5" font-family="Helvetica,sans-Serif" font-size="10.00"> float value)</text>
<text text-anchor="start" x="432" y="-414.5" font-family="Helvetica,sans-Serif" font-size="10.00">+ abstract float RemapSlider</text>
<text text-anchor="start" x="432" y="-403.5" font-family="Helvetica,sans-Serif" font-size="10.00">ValueToPowerValue(float</text>
<text text-anchor="start" x="432" y="-392.5" font-family="Helvetica,sans-Serif" font-size="10.00"> sliderValue)</text>
<text text-anchor="start" x="432" y="-381.5" font-family="Helvetica,sans-Serif" font-size="10.00">+ void DeserializeNetMessage</text>
<text text-anchor="start" x="432" y="-370.5" font-family="Helvetica,sans-Serif" font-size="10.00">(BinaryReader reader, int</text>
<text text-anchor="start" x="432" y="-359.5" font-family="Helvetica,sans-Serif" font-size="10.00"> userId)</text>
<text text-anchor="start" x="432" y="-348.5" font-family="Helvetica,sans-Serif" font-size="10.00">+ void ProvidePowerButtons</text>
<text text-anchor="start" x="432" y="-337.5" font-family="Helvetica,sans-Serif" font-size="10.00">(CreativePowerUIElementRequest</text>
<text text-anchor="start" x="432" y="-326.5" font-family="Helvetica,sans-Serif" font-size="10.00">Info info, List&lt; UIElement</text>
<text text-anchor="start" x="432" y="-315.5" font-family="Helvetica,sans-Serif" font-size="10.00"> &gt; elements)</text>
<text text-anchor="start" x="432" y="-304.5" font-family="Helvetica,sans-Serif" font-size="10.00">+ void DebugCall()</text>
<text text-anchor="start" x="432" y="-293.5" font-family="Helvetica,sans-Serif" font-size="10.00">+ abstract UIElement</text>
<text text-anchor="start" x="432" y="-282.5" font-family="Helvetica,sans-Serif" font-size="10.00"> ProvideSlider()</text>
<text text-anchor="start" x="432" y="-271.5" font-family="Helvetica,sans-Serif" font-size="10.00">+ void PushChangeAndSetSlider</text>
<text text-anchor="start" x="432" y="-260.5" font-family="Helvetica,sans-Serif" font-size="10.00">(float value)</text>
<text text-anchor="start" x="432" y="-249.5" font-family="Helvetica,sans-Serif" font-size="10.00">+ GroupOptionButton&lt;</text>
<text text-anchor="start" x="432" y="-238.5" font-family="Helvetica,sans-Serif" font-size="10.00"> int &gt; GetOptionButton</text>
<text text-anchor="start" x="432" y="-227.5" font-family="Helvetica,sans-Serif" font-size="10.00">(CreativePowerUIElementRequest</text>
<text text-anchor="start" x="432" y="-216.5" font-family="Helvetica,sans-Serif" font-size="10.00">Info info, int optionIndex,</text>
<text text-anchor="start" x="432" y="-205.5" font-family="Helvetica,sans-Serif" font-size="10.00"> int currentOptionIndex)</text>
<text text-anchor="start" x="432" y="-194.5" font-family="Helvetica,sans-Serif" font-size="10.00">+ virtual void Reset()</text>
<text text-anchor="start" x="432" y="-183.5" font-family="Helvetica,sans-Serif" font-size="10.00">+ virtual void ResetForPlayer</text>
<text text-anchor="start" x="432" y="-172.5" font-family="Helvetica,sans-Serif" font-size="10.00">(int playerIndex)</text>
<text text-anchor="start" x="432" y="-161.5" font-family="Helvetica,sans-Serif" font-size="10.00">+ void OnPlayerJoining</text>
<text text-anchor="start" x="432" y="-150.5" font-family="Helvetica,sans-Serif" font-size="10.00">(int playerIndex)</text>
<text text-anchor="start" x="432" y="-139.5" font-family="Helvetica,sans-Serif" font-size="10.00">+ abstract bool GetIsUnlocked()</text>
<text text-anchor="start" x="432" y="-128.5" font-family="Helvetica,sans-Serif" font-size="10.00">~ abstract void UpdateInfo</text>
<text text-anchor="start" x="432" y="-117.5" font-family="Helvetica,sans-Serif" font-size="10.00">FromSliderValueCache()</text>
<text text-anchor="start" x="432" y="-106.5" font-family="Helvetica,sans-Serif" font-size="10.00">~ float GetSliderValue()</text>
<text text-anchor="start" x="432" y="-95.5" font-family="Helvetica,sans-Serif" font-size="10.00">~ void SetValueKeyboard</text>
<text text-anchor="start" x="432" y="-84.5" font-family="Helvetica,sans-Serif" font-size="10.00">(float value)</text>
<text text-anchor="start" x="432" y="-73.5" font-family="Helvetica,sans-Serif" font-size="10.00">~ void SetValueGamepad()</text>
<text text-anchor="start" x="432" y="-62.5" font-family="Helvetica,sans-Serif" font-size="10.00">~ void PushChange(float</text>
<text text-anchor="start" x="432" y="-51.5" font-family="Helvetica,sans-Serif" font-size="10.00"> newSliderValue)</text>
<text text-anchor="start" x="432" y="-40.5" font-family="Helvetica,sans-Serif" font-size="10.00">&#45; void categoryButton</text>
<text text-anchor="start" x="432" y="-29.5" font-family="Helvetica,sans-Serif" font-size="10.00">_OnUpdate(UIElement</text>
<text text-anchor="start" x="432" y="-18.5" font-family="Helvetica,sans-Serif" font-size="10.00"> affectedElement)</text>
<text text-anchor="start" x="432" y="-7.5" font-family="Helvetica,sans-Serif" font-size="10.00">&#45; void AttemptPushingChange()</text>
</a>
</g>
</g>
<!-- Node2 -->
<g id="node2" class="node">
<title>Node2</title>
<g id="a_node2"><a xlink:href="../../d2/ddb/interfaceICreativePower.html" target="_top" xlink:title=" ">
<polygon fill="white" stroke="black" points="0,-644.5 0,-833.5 182,-833.5 182,-644.5 0,-644.5"/>
<text text-anchor="middle" x="91" y="-821.5" font-family="Helvetica,sans-Serif" font-size="10.00">ICreativePower</text>
<polyline fill="none" stroke="black" points="0,-814.5 182,-814.5 "/>
<text text-anchor="start" x="8" y="-802.5" font-family="Helvetica,sans-Serif" font-size="10.00">+ ushort PowerId</text>
<text text-anchor="start" x="8" y="-791.5" font-family="Helvetica,sans-Serif" font-size="10.00">+ string ServerConfigName</text>
<text text-anchor="start" x="8" y="-780.5" font-family="Helvetica,sans-Serif" font-size="10.00">+ PowerPermissionLevel</text>
<text text-anchor="start" x="8" y="-769.5" font-family="Helvetica,sans-Serif" font-size="10.00"> CurrentPermissionLevel</text>
<text text-anchor="start" x="8" y="-758.5" font-family="Helvetica,sans-Serif" font-size="10.00">+ PowerPermissionLevel</text>
<text text-anchor="start" x="8" y="-747.5" font-family="Helvetica,sans-Serif" font-size="10.00"> DefaultPermissionLevel</text>
<polyline fill="none" stroke="black" points="0,-740.5 182,-740.5 "/>
<text text-anchor="start" x="8" y="-728.5" font-family="Helvetica,sans-Serif" font-size="10.00">+ void DeserializeNetMessage</text>
<text text-anchor="start" x="8" y="-717.5" font-family="Helvetica,sans-Serif" font-size="10.00">(BinaryReader reader, int</text>
<text text-anchor="start" x="8" y="-706.5" font-family="Helvetica,sans-Serif" font-size="10.00"> userId)</text>
<text text-anchor="start" x="8" y="-695.5" font-family="Helvetica,sans-Serif" font-size="10.00">+ void ProvidePowerButtons</text>
<text text-anchor="start" x="8" y="-684.5" font-family="Helvetica,sans-Serif" font-size="10.00">(CreativePowerUIElementRequest</text>
<text text-anchor="start" x="8" y="-673.5" font-family="Helvetica,sans-Serif" font-size="10.00">Info info, List&lt; UIElement</text>
<text text-anchor="start" x="8" y="-662.5" font-family="Helvetica,sans-Serif" font-size="10.00"> &gt; elements)</text>
<text text-anchor="start" x="8" y="-651.5" font-family="Helvetica,sans-Serif" font-size="10.00">+ bool GetIsUnlocked()</text>
</a>
</g>
</g>
<!-- Node2&#45;&gt;Node1 -->
<g id="edge1" class="edge">
<title>Node2&#45;&gt;Node1</title>
<path fill="none" stroke="midnightblue" d="M185.57,-636.52C256.66,-560.23 353.48,-456.33 423.75,-380.93"/>
<polygon fill="none" stroke="midnightblue" points="182.6,-634.57 178.34,-644.28 187.72,-639.35 182.6,-634.57"/>
</g>
<!-- Node3 -->
<g id="node3" class="node">
<title>Node3</title>
<g id="a_node3"><a xlink:href="../../d1/db4/interfaceIOnPlayerJoining.html" target="_top" xlink:title=" ">
<polygon fill="white" stroke="black" points="200.5,-705 200.5,-773 329.5,-773 329.5,-705 200.5,-705"/>
<text text-anchor="middle" x="265" y="-761" font-family="Helvetica,sans-Serif" font-size="10.00">IOnPlayerJoining</text>
<polyline fill="none" stroke="black" points="200.5,-754 329.5,-754 "/>
<text text-anchor="middle" x="265" y="-742" font-family="Helvetica,sans-Serif" font-size="10.00"> </text>
<polyline fill="none" stroke="black" points="200.5,-735 329.5,-735 "/>
<text text-anchor="start" x="208.5" y="-723" font-family="Helvetica,sans-Serif" font-size="10.00">+ void OnPlayerJoining</text>
<text text-anchor="start" x="208.5" y="-712" font-family="Helvetica,sans-Serif" font-size="10.00">(int playerIndex)</text>
</a>
</g>
</g>
<!-- Node3&#45;&gt;Node1 -->
<g id="edge2" class="edge">
<title>Node3&#45;&gt;Node1</title>
<path fill="none" stroke="midnightblue" d="M285.79,-695.51C301.4,-663.97 323.51,-620.03 344,-582 369.24,-535.14 397.6,-484.73 423.86,-438.89"/>
<polygon fill="none" stroke="midnightblue" points="282.45,-694.36 281.16,-704.88 288.73,-697.46 282.45,-694.36"/>
</g>
<!-- Node4 -->
<g id="node4" class="node">
<title>Node4</title>
<g id="a_node4"><a xlink:href="../../d5/d9e/interfaceIProvideSliderElement.html" target="_top" xlink:title=" ">
<polygon fill="white" stroke="black" points="386,-710.5 386,-767.5 540,-767.5 540,-710.5 386,-710.5"/>
<text text-anchor="middle" x="463" y="-755.5" font-family="Helvetica,sans-Serif" font-size="10.00">IProvideSliderElement</text>
<polyline fill="none" stroke="black" points="386,-748.5 540,-748.5 "/>
<text text-anchor="middle" x="463" y="-736.5" font-family="Helvetica,sans-Serif" font-size="10.00"> </text>
<polyline fill="none" stroke="black" points="386,-729.5 540,-729.5 "/>
<text text-anchor="start" x="394" y="-717.5" font-family="Helvetica,sans-Serif" font-size="10.00">+ UIElement ProvideSlider()</text>
</a>
</g>
</g>
<!-- Node4&#45;&gt;Node1 -->
<g id="edge3" class="edge">
<title>Node4&#45;&gt;Node1</title>
<path fill="none" stroke="midnightblue" d="M467.35,-699.91C471.06,-667.46 476.76,-617.6 482.94,-563.5"/>
<polygon fill="none" stroke="midnightblue" points="463.83,-699.89 466.17,-710.22 470.79,-700.68 463.83,-699.89"/>
</g>
<!-- Node5 -->
<g id="node5" class="node">
<title>Node5</title>
<g id="a_node5"><a xlink:href="../../d9/d9b/interfaceIPowerSubcategoryElement.html" target="_top" xlink:title=" ">
<polygon fill="white" stroke="black" points="279,-871.5 279,-972.5 461,-972.5 461,-871.5 279,-871.5"/>
<text text-anchor="middle" x="370" y="-960.5" font-family="Helvetica,sans-Serif" font-size="10.00">IPowerSubcategoryElement</text>
<polyline fill="none" stroke="black" points="279,-953.5 461,-953.5 "/>
<text text-anchor="middle" x="370" y="-941.5" font-family="Helvetica,sans-Serif" font-size="10.00"> </text>
<polyline fill="none" stroke="black" points="279,-934.5 461,-934.5 "/>
<text text-anchor="start" x="287" y="-922.5" font-family="Helvetica,sans-Serif" font-size="10.00">+ GroupOptionButton&lt;</text>
<text text-anchor="start" x="287" y="-911.5" font-family="Helvetica,sans-Serif" font-size="10.00"> int &gt; GetOptionButton</text>
<text text-anchor="start" x="287" y="-900.5" font-family="Helvetica,sans-Serif" font-size="10.00">(CreativePowerUIElementRequest</text>
<text text-anchor="start" x="287" y="-889.5" font-family="Helvetica,sans-Serif" font-size="10.00">Info info, int optionIndex,</text>
<text text-anchor="start" x="287" y="-878.5" font-family="Helvetica,sans-Serif" font-size="10.00"> int currentOptionIndex)</text>
</a>
</g>
</g>
<!-- Node5&#45;&gt;Node1 -->
<g id="edge5" class="edge">
<title>Node5&#45;&gt;Node1</title>
<path fill="none" stroke="midnightblue" d="M365.72,-861.22C363.03,-804.68 362.42,-717.75 377,-644 387.44,-591.18 404.9,-536 423.95,-485.13"/>
<polygon fill="none" stroke="midnightblue" points="362.24,-861.6 366.24,-871.41 369.23,-861.24 362.24,-861.6"/>
</g>
<!-- Node5&#45;&gt;Node4 -->
<g id="edge4" class="edge">
<title>Node5&#45;&gt;Node4</title>
<path fill="none" stroke="midnightblue" d="M400.39,-861.86C416.69,-830.14 436,-792.56 448.82,-767.6"/>
<polygon fill="none" stroke="midnightblue" points="397.12,-860.57 395.66,-871.06 403.34,-863.77 397.12,-860.57"/>
</g>
<!-- Node6 -->
<g id="node6" class="node">
<title>Node6</title>
<g id="a_node6"><a xlink:title=" ">
<polygon fill="white" stroke="#bfbfbf" points="558,-710.5 558,-767.5 602,-767.5 602,-710.5 558,-710.5"/>
<text text-anchor="middle" x="580" y="-755.5" font-family="Helvetica,sans-Serif" font-size="10.00">string</text>
<polyline fill="none" stroke="#bfbfbf" points="558,-748.5 602,-748.5 "/>
<text text-anchor="middle" x="580" y="-736.5" font-family="Helvetica,sans-Serif" font-size="10.00"> </text>
<polyline fill="none" stroke="#bfbfbf" points="558,-729.5 602,-729.5 "/>
<text text-anchor="middle" x="580" y="-717.5" font-family="Helvetica,sans-Serif" font-size="10.00"> </text>
</a>
</g>
</g>
<!-- Node6&#45;&gt;Node1 -->
<g id="edge6" class="edge">
<title>Node6&#45;&gt;Node1</title>
<path fill="none" stroke="#404040" d="M576.41,-710.26C572.57,-689.99 564.74,-662.87 549,-644 538.3,-631.17 524.55,-640.35 516,-626 506.56,-610.16 499.4,-593.13 494.09,-575.43"/>
<polygon fill="none" stroke="#404040" points="494.04,-575.28 488.59,-570.56 490.86,-563.71 496.31,-568.43 494.04,-575.28"/>
<text text-anchor="middle" x="563" y="-601.5" font-family="Helvetica,sans-Serif" font-size="10.00"> ~_powerNameKey</text>
</g>
<!-- Node7 -->
<g id="node7" class="node">
<title>Node7</title>
<g id="a_node7"><a xlink:title=" ">
<polygon fill="white" stroke="#bfbfbf" points="620,-710.5 620,-767.5 658,-767.5 658,-710.5 620,-710.5"/>
<text text-anchor="middle" x="639" y="-755.5" font-family="Helvetica,sans-Serif" font-size="10.00">float</text>
<polyline fill="none" stroke="#bfbfbf" points="620,-748.5 658,-748.5 "/>
<text text-anchor="middle" x="639" y="-736.5" font-family="Helvetica,sans-Serif" font-size="10.00"> </text>
<polyline fill="none" stroke="#bfbfbf" points="620,-729.5 658,-729.5 "/>
<text text-anchor="middle" x="639" y="-717.5" font-family="Helvetica,sans-Serif" font-size="10.00"> </text>
</a>
</g>
</g>
<!-- Node7&#45;&gt;Node1 -->
<g id="edge7" class="edge">
<title>Node7&#45;&gt;Node1</title>
<path fill="none" stroke="#404040" d="M634.94,-710.44C630.07,-679.1 621.16,-626.49 610,-582 609.45,-579.82 608.9,-577.63 608.34,-575.43"/>
<polygon fill="none" stroke="#404040" points="608.29,-575.23 602.91,-570.43 605.27,-563.62 610.65,-568.42 608.29,-575.23"/>
<text text-anchor="middle" x="686" y="-618" font-family="Helvetica,sans-Serif" font-size="10.00"> &#45;_currentTargetValue</text>
<text text-anchor="middle" x="686" y="-607" font-family="Helvetica,sans-Serif" font-size="10.00">~_cachePerPlayer</text>
<text text-anchor="middle" x="686" y="-596" font-family="Helvetica,sans-Serif" font-size="10.00">~_sliderCurrentValueCache</text>
<text text-anchor="middle" x="686" y="-585" font-family="Helvetica,sans-Serif" font-size="10.00">~_sliderDefaultValue</text>
</g>
<!-- Node8 -->
<g id="node8" class="node">
<title>Node8</title>
<g id="a_node8"><a xlink:title=" ">
<polygon fill="white" stroke="#bfbfbf" points="756.5,-710.5 756.5,-767.5 821.5,-767.5 821.5,-710.5 756.5,-710.5"/>
<text text-anchor="middle" x="789" y="-755.5" font-family="Helvetica,sans-Serif" font-size="10.00">DateTime</text>
<polyline fill="none" stroke="#bfbfbf" points="756.5,-748.5 821.5,-748.5 "/>
<text text-anchor="middle" x="789" y="-736.5" font-family="Helvetica,sans-Serif" font-size="10.00"> </text>
<polyline fill="none" stroke="#bfbfbf" points="756.5,-729.5 821.5,-729.5 "/>
<text text-anchor="middle" x="789" y="-717.5" font-family="Helvetica,sans-Serif" font-size="10.00"> </text>
</a>
</g>
</g>
<!-- Node8&#45;&gt;Node1 -->
<g id="edge8" class="edge">
<title>Node8&#45;&gt;Node1</title>
<path fill="none" stroke="#404040" d="M787.29,-710.26C784.42,-678.06 776.84,-624 757,-582 721.87,-507.64 664.54,-435.64 614.5,-380.92"/>
<polygon fill="none" stroke="#404040" points="614.35,-380.77 607.34,-379.07 606.21,-371.95 613.22,-373.64 614.35,-380.77"/>
<text text-anchor="middle" x="829" y="-601.5" font-family="Helvetica,sans-Serif" font-size="10.00"> &#45;_nextTimeWeCanPush</text>
</g>
<!-- Node9 -->
<g id="node9" class="node">
<title>Node9</title>
<g id="a_node9"><a xlink:title=" ">
<polygon fill="white" stroke="#bfbfbf" points="909,-710.5 909,-767.5 947,-767.5 947,-710.5 909,-710.5"/>
<text text-anchor="middle" x="928" y="-755.5" font-family="Helvetica,sans-Serif" font-size="10.00">bool</text>
<polyline fill="none" stroke="#bfbfbf" points="909,-748.5 947,-748.5 "/>
<text text-anchor="middle" x="928" y="-736.5" font-family="Helvetica,sans-Serif" font-size="10.00"> </text>
<polyline fill="none" stroke="#bfbfbf" points="909,-729.5 947,-729.5 "/>
<text text-anchor="middle" x="928" y="-717.5" font-family="Helvetica,sans-Serif" font-size="10.00"> </text>
</a>
</g>
</g>
<!-- Node9&#45;&gt;Node1 -->
<g id="edge9" class="edge">
<title>Node9&#45;&gt;Node1</title>
<path fill="none" stroke="#404040" d="M926.85,-710.24C924.32,-677.3 916.3,-621.82 891,-582 822.89,-474.78 702.73,-389.3 616.57,-337.65"/>
<polygon fill="none" stroke="#404040" points="616.55,-337.64 609.35,-338.02 606.23,-331.52 613.43,-331.14 616.55,-337.64"/>
<text text-anchor="middle" x="974" y="-601.5" font-family="Helvetica,sans-Serif" font-size="10.00"> &#45;_needsToCommitChange</text>
</g>
<!-- Node10 -->
<g id="node10" class="node">
<title>Node10</title>
<g id="a_node10"><a xlink:title=" ">
<polygon fill="white" stroke="#bfbfbf" points="1058.5,-710.5 1058.5,-767.5 1099.5,-767.5 1099.5,-710.5 1058.5,-710.5"/>
<text text-anchor="middle" x="1079" y="-755.5" font-family="Helvetica,sans-Serif" font-size="10.00">Point</text>
<polyline fill="none" stroke="#bfbfbf" points="1058.5,-748.5 1099.5,-748.5 "/>
<text text-anchor="middle" x="1079" y="-736.5" font-family="Helvetica,sans-Serif" font-size="10.00"> </text>
<polyline fill="none" stroke="#bfbfbf" points="1058.5,-729.5 1099.5,-729.5 "/>
<text text-anchor="middle" x="1079" y="-717.5" font-family="Helvetica,sans-Serif" font-size="10.00"> </text>
</a>
</g>
</g>
<!-- Node10&#45;&gt;Node1 -->
<g id="edge10" class="edge">
<title>Node10&#45;&gt;Node1</title>
<path fill="none" stroke="#404040" d="M1078.92,-710.42C1077.48,-676.88 1070.57,-620.07 1042,-582 934.8,-439.16 738.01,-354.27 617.6,-313.3"/>
<polygon fill="none" stroke="#404040" points="617.57,-313.29 610.61,-315.17 606.2,-309.47 613.16,-307.59 617.57,-313.29"/>
<text text-anchor="middle" x="1102.5" y="-601.5" font-family="Helvetica,sans-Serif" font-size="10.00"> ~_iconLocation</text>
</g>
</g>
</svg>
