<?xml version="1.0" encoding="UTF-8" standalone="no"?>
<!DOCTYPE svg PUBLIC "-//W3C//DTD SVG 1.1//EN"
 "http://www.w3.org/Graphics/SVG/1.1/DTD/svg11.dtd">
<!-- Generated by graphviz version 2.43.0 (0)
 -->
<!-- Title: Terraria.GameContent.UI.Elements.UIText.Recalculate Pages: 1 -->
<svg width="768pt" height="190pt"
 viewBox="0.00 0.00 768.00 189.50" xmlns="http://www.w3.org/2000/svg" xmlns:xlink="http://www.w3.org/1999/xlink">
<g id="graph0" class="graph" transform="scale(1 1) rotate(0) translate(4 185.5)">
<title>Terraria.GameContent.UI.Elements.UIText.Recalculate</title>
<!-- Node1 -->
<g id="Node000001" class="node">
<title>Node1</title>
<g id="a_Node000001"><a xlink:title=" ">
<polygon fill="#999999" stroke="#666666" points="156,-91.5 0,-91.5 0,-61.5 156,-61.5 156,-91.5"/>
<text text-anchor="start" x="8" y="-79.5" font-family="Helvetica,sans-Serif" font-size="10.00">Terraria.GameContent.UI.</text>
<text text-anchor="middle" x="78" y="-68.5" font-family="Helvetica,sans-Serif" font-size="10.00">Elements.UIText.Recalculate</text>
</a>
</g>
</g>
<!-- Node2 -->
<g id="Node000002" class="node">
<title>Node2</title>
<g id="a_Node000002"><a xlink:href="../../df/da8/classTerraria_1_1GameContent_1_1UI_1_1Elements_1_1UIText_a6b38a5021c0225460c802dc8376d39ac.html#a6b38a5021c0225460c802dc8376d39ac" target="_top" xlink:title=" ">
<polygon fill="white" stroke="#666666" points="365,-91.5 192,-91.5 192,-61.5 365,-61.5 365,-91.5"/>
<text text-anchor="start" x="200" y="-79.5" font-family="Helvetica,sans-Serif" font-size="10.00">Terraria.GameContent.UI.</text>
<text text-anchor="middle" x="278.5" y="-68.5" font-family="Helvetica,sans-Serif" font-size="10.00">Elements.UIText.InternalSetText</text>
</a>
</g>
</g>
<!-- Node1&#45;&gt;Node2 -->
<g id="edge1_Node000001_Node000002" class="edge">
<title>Node1&#45;&gt;Node2</title>
<g id="a_edge1_Node000001_Node000002"><a xlink:title=" ">
<path fill="none" stroke="#63b8ff" d="M156.03,-76.5C164.49,-76.5 173.18,-76.5 181.83,-76.5"/>
<polygon fill="#63b8ff" stroke="#63b8ff" points="181.95,-80 191.95,-76.5 181.95,-73 181.95,-80"/>
</a>
</g>
</g>
<!-- Node3 -->
<g id="Node000003" class="node">
<title>Node3</title>
<g id="a_Node000003"><a xlink:href="../../d1/df5/classReLogic_1_1Graphics_1_1DynamicSpriteFont_a54aa9b0922188fe24854b32231ceae78.html#a54aa9b0922188fe24854b32231ceae78" target="_top" xlink:title=" ">
<polygon fill="white" stroke="#666666" points="566.5,-163.5 401.5,-163.5 401.5,-133.5 566.5,-133.5 566.5,-163.5"/>
<text text-anchor="start" x="409.5" y="-151.5" font-family="Helvetica,sans-Serif" font-size="10.00">ReLogic.Graphics.Dynamic</text>
<text text-anchor="middle" x="484" y="-140.5" font-family="Helvetica,sans-Serif" font-size="10.00">SpriteFont.CreateWrappedText</text>
</a>
</g>
</g>
<!-- Node2&#45;&gt;Node3 -->
<g id="edge2_Node000002_Node000003" class="edge">
<title>Node2&#45;&gt;Node3</title>
<g id="a_edge2_Node000002_Node000003"><a xlink:title=" ">
<path fill="none" stroke="#63b8ff" d="M315.07,-91.55C339.12,-101.47 371.72,-114.45 401,-124.5 406.89,-126.52 413.06,-128.53 419.25,-130.46"/>
<polygon fill="#63b8ff" stroke="#63b8ff" points="418.38,-133.86 428.97,-133.45 420.43,-127.17 418.38,-133.86"/>
</a>
</g>
</g>
<!-- Node4 -->
<g id="Node000004" class="node">
<title>Node4</title>
<g id="a_Node000004"><a xlink:href="../../d7/d72/classTerraria_1_1UI_1_1UIElement_a5ad03f5ce0e776511a3b7e4a29e16caf.html#a5ad03f5ce0e776511a3b7e4a29e16caf" target="_top" xlink:title=" ">
<polygon fill="white" stroke="#666666" points="554.5,-115.5 413.5,-115.5 413.5,-85.5 554.5,-85.5 554.5,-115.5"/>
<text text-anchor="start" x="421.5" y="-103.5" font-family="Helvetica,sans-Serif" font-size="10.00">Terraria.UI.UIElement.Get</text>
<text text-anchor="middle" x="484" y="-92.5" font-family="Helvetica,sans-Serif" font-size="10.00">InnerDimensions</text>
</a>
</g>
</g>
<!-- Node2&#45;&gt;Node4 -->
<g id="edge4_Node000002_Node000004" class="edge">
<title>Node2&#45;&gt;Node4</title>
<g id="a_edge4_Node000002_Node000004"><a xlink:title=" ">
<path fill="none" stroke="#63b8ff" d="M365.21,-86.61C377.9,-88.1 390.92,-89.64 403.48,-91.12"/>
<polygon fill="#63b8ff" stroke="#63b8ff" points="403.08,-94.6 413.42,-92.29 403.9,-87.65 403.08,-94.6"/>
</a>
</g>
</g>
<!-- Node5 -->
<g id="Node000005" class="node">
<title>Node5</title>
<g id="a_Node000005"><a xlink:href="../../d1/df5/classReLogic_1_1Graphics_1_1DynamicSpriteFont_a49e4a12c0f6e26ca73b5c3d95d0197b2.html#a49e4a12c0f6e26ca73b5c3d95d0197b2" target="_top" xlink:title=" ">
<polygon fill="white" stroke="#666666" points="557.5,-67.5 410.5,-67.5 410.5,-37.5 557.5,-37.5 557.5,-67.5"/>
<text text-anchor="start" x="418.5" y="-55.5" font-family="Helvetica,sans-Serif" font-size="10.00">ReLogic.Graphics.Dynamic</text>
<text text-anchor="middle" x="484" y="-44.5" font-family="Helvetica,sans-Serif" font-size="10.00">SpriteFont.MeasureString</text>
</a>
</g>
</g>
<!-- Node2&#45;&gt;Node5 -->
<g id="edge5_Node000002_Node000005" class="edge">
<title>Node2&#45;&gt;Node5</title>
<g id="a_edge5_Node000002_Node000005"><a xlink:title=" ">
<path fill="none" stroke="#63b8ff" d="M365.21,-66.39C376.81,-65.02 388.69,-63.62 400.23,-62.26"/>
<polygon fill="#63b8ff" stroke="#63b8ff" points="400.74,-65.73 410.27,-61.08 399.92,-58.77 400.74,-65.73"/>
</a>
</g>
</g>
<!-- Node7 -->
<g id="Node000007" class="node">
<title>Node7</title>
<g id="a_Node000007"><a xlink:href="../../d8/d74/structTerraria_1_1UI_1_1StyleDimension_a93e6acf229427c6435d7ee83958efba0.html#a93e6acf229427c6435d7ee83958efba0" target="_top" xlink:title=" ">
<polygon fill="white" stroke="#666666" points="567,-19 401,-19 401,0 567,0 567,-19"/>
<text text-anchor="middle" x="484" y="-7" font-family="Helvetica,sans-Serif" font-size="10.00">Terraria.UI.StyleDimension.Set</text>
</a>
</g>
</g>
<!-- Node2&#45;&gt;Node7 -->
<g id="edge7_Node000002_Node000007" class="edge">
<title>Node2&#45;&gt;Node7</title>
<g id="a_edge7_Node000002_Node000007"><a xlink:title=" ">
<path fill="none" stroke="#63b8ff" d="M313.58,-61.46C337.67,-51.22 370.9,-37.88 401,-28.5 409.12,-25.97 417.79,-23.61 426.34,-21.47"/>
<polygon fill="#63b8ff" stroke="#63b8ff" points="427.38,-24.82 436.28,-19.06 425.73,-18.01 427.38,-24.82"/>
</a>
</g>
</g>
<!-- Node3&#45;&gt;Node3 -->
<g id="edge3_Node000003_Node000003" class="edge">
<title>Node3&#45;&gt;Node3</title>
<g id="a_edge3_Node000003_Node000003"><a xlink:title=" ">
<path fill="none" stroke="#63b8ff" d="M449.55,-163.78C441.89,-172.91 453.38,-181.5 484,-181.5 502.18,-181.5 513.62,-178.47 518.31,-174.1"/>
<polygon fill="#63b8ff" stroke="#63b8ff" points="521.81,-173.82 518.45,-163.78 514.81,-173.72 521.81,-173.82"/>
</a>
</g>
</g>
<!-- Node6 -->
<g id="Node000006" class="node">
<title>Node6</title>
<g id="a_Node000006"><a xlink:href="../../d1/df5/classReLogic_1_1Graphics_1_1DynamicSpriteFont_a9bd1064ef52867d336c09d84817f9e34.html#a9bd1064ef52867d336c09d84817f9e34" target="_top" xlink:title=" ">
<polygon fill="white" stroke="#666666" points="760,-67.5 603,-67.5 603,-37.5 760,-37.5 760,-67.5"/>
<text text-anchor="start" x="611" y="-55.5" font-family="Helvetica,sans-Serif" font-size="10.00">ReLogic.Graphics.Dynamic</text>
<text text-anchor="middle" x="681.5" y="-44.5" font-family="Helvetica,sans-Serif" font-size="10.00">SpriteFont.GetCharacterData</text>
</a>
</g>
</g>
<!-- Node5&#45;&gt;Node6 -->
<g id="edge6_Node000005_Node000006" class="edge">
<title>Node5&#45;&gt;Node6</title>
<g id="a_edge6_Node000005_Node000006"><a xlink:title=" ">
<path fill="none" stroke="#63b8ff" d="M557.52,-52.5C568.95,-52.5 580.87,-52.5 592.61,-52.5"/>
<polygon fill="#63b8ff" stroke="#63b8ff" points="592.85,-56 602.85,-52.5 592.85,-49 592.85,-56"/>
</a>
</g>
</g>
</g>
</svg>
