<?xml version="1.0" encoding="UTF-8" standalone="no"?>
<!DOCTYPE svg PUBLIC "-//W3C//DTD SVG 1.1//EN"
 "http://www.w3.org/Graphics/SVG/1.1/DTD/svg11.dtd">
<!-- Generated by graphviz version 2.43.0 (0)
 -->
<!-- Title: Terraria.GameContent.MinecartDiggerHelper.AlreadyLeadsIntoWantedTrack Pages: 1 -->
<svg width="675pt" height="190pt"
 viewBox="0.00 0.00 675.00 189.50" xmlns="http://www.w3.org/2000/svg" xmlns:xlink="http://www.w3.org/1999/xlink">
<g id="graph0" class="graph" transform="scale(1 1) rotate(0) translate(4 185.5)">
<title>Terraria.GameContent.MinecartDiggerHelper.AlreadyLeadsIntoWantedTrack</title>
<!-- Node1 -->
<g id="Node000001" class="node">
<title>Node1</title>
<g id="a_Node000001"><a xlink:title=" ">
<polygon fill="#999999" stroke="#666666" points="230,-120 0,-120 0,-90 230,-90 230,-120"/>
<text text-anchor="start" x="8" y="-108" font-family="Helvetica,sans-Serif" font-size="10.00">Terraria.GameContent.Minecart</text>
<text text-anchor="middle" x="115" y="-97" font-family="Helvetica,sans-Serif" font-size="10.00">DiggerHelper.AlreadyLeadsIntoWantedTrack</text>
</a>
</g>
</g>
<!-- Node2 -->
<g id="Node000002" class="node">
<title>Node2</title>
<g id="a_Node000002"><a xlink:href="../../d3/ddc/classTerraria_1_1Tile_a9a3f37926e6d7f23ba057d6c0aeab1a5.html#a9a3f37926e6d7f23ba057d6c0aeab1a5" target="_top" xlink:title=" ">
<polygon fill="white" stroke="#666666" points="417,-181.5 310,-181.5 310,-162.5 417,-162.5 417,-181.5"/>
<text text-anchor="middle" x="363.5" y="-169.5" font-family="Helvetica,sans-Serif" font-size="10.00">Terraria.Tile.active</text>
</a>
</g>
</g>
<!-- Node1&#45;&gt;Node2 -->
<g id="edge1_Node000001_Node000002" class="edge">
<title>Node1&#45;&gt;Node2</title>
<g id="a_edge1_Node000001_Node000002"><a xlink:title=" ">
<path fill="none" stroke="#63b8ff" d="M158.61,-120.08C188.43,-130.28 229.33,-143.56 266,-153 276.93,-155.82 288.66,-158.45 300.04,-160.8"/>
<polygon fill="#63b8ff" stroke="#63b8ff" points="299.42,-164.24 309.92,-162.79 300.81,-157.38 299.42,-164.24"/>
</a>
</g>
</g>
<!-- Node3 -->
<g id="Node000003" class="node">
<title>Node3</title>
<g id="a_Node000003"><a xlink:href="../../de/d1f/classTerraria_1_1Minecart_af1108f2d5c38f640ff5dbf082759531a.html#af1108f2d5c38f640ff5dbf082759531a" target="_top" xlink:title=" ">
<polygon fill="white" stroke="#666666" points="433.5,-144 293.5,-144 293.5,-114 433.5,-114 433.5,-144"/>
<text text-anchor="start" x="301.5" y="-132" font-family="Helvetica,sans-Serif" font-size="10.00">Terraria.Minecart.GetAre</text>
<text text-anchor="middle" x="363.5" y="-121" font-family="Helvetica,sans-Serif" font-size="10.00">ExpectationsForSidesMet</text>
</a>
</g>
</g>
<!-- Node1&#45;&gt;Node3 -->
<g id="edge2_Node000001_Node000003" class="edge">
<title>Node1&#45;&gt;Node3</title>
<g id="a_edge2_Node000001_Node000003"><a xlink:title=" ">
<path fill="none" stroke="#63b8ff" d="M230.23,-116.12C248.06,-117.86 266.15,-119.62 282.99,-121.26"/>
<polygon fill="#63b8ff" stroke="#63b8ff" points="283,-124.78 293.29,-122.26 283.68,-117.81 283,-124.78"/>
</a>
</g>
</g>
<!-- Node5 -->
<g id="Node000005" class="node">
<title>Node5</title>
<g id="a_Node000005"><a xlink:href="../../d2/dbf/classTerraria_1_1GameContent_1_1MinecartDiggerHelper_ab9ecf40be75debbe82e73f8eb3112c01.html#ab9ecf40be75debbe82e73f8eb3112c01" target="_top" xlink:title=" ">
<polygon fill="white" stroke="#666666" points="461,-96 266,-96 266,-66 461,-66 461,-96"/>
<text text-anchor="start" x="274" y="-84" font-family="Helvetica,sans-Serif" font-size="10.00">Terraria.GameContent.Minecart</text>
<text text-anchor="middle" x="363.5" y="-73" font-family="Helvetica,sans-Serif" font-size="10.00">DiggerHelper.GetExpectedDirections</text>
</a>
</g>
</g>
<!-- Node1&#45;&gt;Node5 -->
<g id="edge4_Node000001_Node000005" class="edge">
<title>Node1&#45;&gt;Node5</title>
<g id="a_edge4_Node000001_Node000005"><a xlink:title=" ">
<path fill="none" stroke="#63b8ff" d="M230.23,-93.88C238.65,-93.06 247.12,-92.23 255.49,-91.42"/>
<polygon fill="#63b8ff" stroke="#63b8ff" points="256.03,-94.88 265.64,-90.43 255.35,-87.92 256.03,-94.88"/>
</a>
</g>
</g>
<!-- Node6 -->
<g id="Node000006" class="node">
<title>Node6</title>
<g id="a_Node000006"><a xlink:href="../../dc/dd7/classTerraria_1_1Framing_adf8f859033cd5cb805b13aad59a55236.html#adf8f859033cd5cb805b13aad59a55236" target="_top" xlink:title=" ">
<polygon fill="white" stroke="#666666" points="430.5,-30 296.5,-30 296.5,0 430.5,0 430.5,-30"/>
<text text-anchor="start" x="304.5" y="-18" font-family="Helvetica,sans-Serif" font-size="10.00">Terraria.Framing.GetTile</text>
<text text-anchor="middle" x="363.5" y="-7" font-family="Helvetica,sans-Serif" font-size="10.00">Safely</text>
</a>
</g>
</g>
<!-- Node1&#45;&gt;Node6 -->
<g id="edge5_Node000001_Node000006" class="edge">
<title>Node1&#45;&gt;Node6</title>
<g id="a_edge5_Node000001_Node000006"><a xlink:title=" ">
<path fill="none" stroke="#63b8ff" d="M157.26,-89.94C199.74,-74.43 266,-50.23 311.69,-33.55"/>
<polygon fill="#63b8ff" stroke="#63b8ff" points="312.91,-36.83 321.11,-30.11 310.51,-30.26 312.91,-36.83"/>
</a>
</g>
</g>
<!-- Node4 -->
<g id="Node000004" class="node">
<title>Node4</title>
<g id="a_Node000004"><a xlink:href="../../de/d1f/classTerraria_1_1Minecart_a45322214cc004b7cd6980c0936f520e9.html#a45322214cc004b7cd6980c0936f520e9" target="_top" xlink:title=" ">
<polygon fill="white" stroke="#666666" points="667,-144 497,-144 497,-114 667,-114 667,-144"/>
<text text-anchor="start" x="505" y="-132" font-family="Helvetica,sans-Serif" font-size="10.00">Terraria.Minecart.Convert</text>
<text text-anchor="middle" x="582" y="-121" font-family="Helvetica,sans-Serif" font-size="10.00">OffsetYToTrackConnectionValue</text>
</a>
</g>
</g>
<!-- Node3&#45;&gt;Node4 -->
<g id="edge3_Node000003_Node000004" class="edge">
<title>Node3&#45;&gt;Node4</title>
<g id="a_edge3_Node000003_Node000004"><a xlink:title=" ">
<path fill="none" stroke="#63b8ff" d="M433.6,-129C450.36,-129 468.56,-129 486.28,-129"/>
<polygon fill="#63b8ff" stroke="#63b8ff" points="486.63,-132.5 496.63,-129 486.63,-125.5 486.63,-132.5"/>
</a>
</g>
</g>
<!-- Node6&#45;&gt;Node6 -->
<g id="edge6_Node000006_Node000006" class="edge">
<title>Node6&#45;&gt;Node6</title>
<g id="a_edge6_Node000006_Node000006"><a xlink:title=" ">
<path fill="none" stroke="#63b8ff" d="M325.18,-30.28C316.66,-39.41 329.44,-48 363.5,-48 383.72,-48 396.44,-44.97 401.66,-40.6"/>
<polygon fill="#63b8ff" stroke="#63b8ff" points="405.16,-40.33 401.82,-30.28 398.16,-40.22 405.16,-40.33"/>
</a>
</g>
</g>
</g>
</svg>
