<?xml version="1.0" encoding="UTF-8" standalone="no"?>
<!DOCTYPE svg PUBLIC "-//W3C//DTD SVG 1.1//EN"
 "http://www.w3.org/Graphics/SVG/1.1/DTD/svg11.dtd">
<!-- Generated by graphviz version 2.43.0 (0)
 -->
<!-- Title: Terraria.Social.Steam.OverlaySocialModule Pages: 1 -->
<svg width="210pt" height="568pt"
 viewBox="0.00 0.00 210.00 568.00" xmlns="http://www.w3.org/2000/svg" xmlns:xlink="http://www.w3.org/1999/xlink">
<g id="graph0" class="graph" transform="scale(1 1) rotate(0) translate(4 564)">
<title>Terraria.Social.Steam.OverlaySocialModule</title>
<!-- Node1 -->
<g id="Node000001" class="node">
<title>Node1</title>
<g id="a_Node000001"><a xlink:title=" ">
<polygon fill="#999999" stroke="transparent" points="202,-260 0,-260 0,0 202,0 202,-260"/>
<text text-anchor="start" x="28.5" y="-248" font-family="Helvetica,sans-Serif" font-size="10.00">Terraria.Social.Steam.Overlay</text>
<text text-anchor="start" x="68" y="-237" font-family="Helvetica,sans-Serif" font-size="10.00">SocialModule</text>
<text text-anchor="start" x="6.5" y="-222" font-family="Helvetica,sans-Serif" font-size="10.00">&#45;</text>
<text text-anchor="start" x="17" y="-222" font-family="Helvetica,sans-Serif" font-size="10.00">Callback&lt; GamepadTextInput</text>
<text text-anchor="start" x="17" y="-211" font-family="Helvetica,sans-Serif" font-size="10.00">Dismissed_t &gt; _gamepadTextInput</text>
<text text-anchor="start" x="17" y="-200" font-family="Helvetica,sans-Serif" font-size="10.00">Dismissed</text>
<text text-anchor="start" x="6.5" y="-185" font-family="Helvetica,sans-Serif" font-size="10.00">&#45;</text>
<text text-anchor="start" x="17" y="-185" font-family="Helvetica,sans-Serif" font-size="10.00">bool _gamepadTextInputActive</text>
<text text-anchor="start" x="4" y="-170" font-family="Helvetica,sans-Serif" font-size="10.00">+</text>
<text text-anchor="start" x="17" y="-170" font-family="Helvetica,sans-Serif" font-size="10.00">override void Initialize()</text>
<text text-anchor="start" x="4" y="-155" font-family="Helvetica,sans-Serif" font-size="10.00">+</text>
<text text-anchor="start" x="17" y="-155" font-family="Helvetica,sans-Serif" font-size="10.00">override void Shutdown()</text>
<text text-anchor="start" x="4" y="-140" font-family="Helvetica,sans-Serif" font-size="10.00">+</text>
<text text-anchor="start" x="17" y="-140" font-family="Helvetica,sans-Serif" font-size="10.00">override bool IsGamepadText</text>
<text text-anchor="start" x="17" y="-129" font-family="Helvetica,sans-Serif" font-size="10.00">InputActive()</text>
<text text-anchor="start" x="4" y="-114" font-family="Helvetica,sans-Serif" font-size="10.00">+</text>
<text text-anchor="start" x="17" y="-114" font-family="Helvetica,sans-Serif" font-size="10.00">override bool ShowGamepad</text>
<text text-anchor="start" x="17" y="-103" font-family="Helvetica,sans-Serif" font-size="10.00">TextInput(string description,</text>
<text text-anchor="start" x="17" y="-92" font-family="Helvetica,sans-Serif" font-size="10.00"> uint maxLength, bool multiLine</text>
<text text-anchor="start" x="17" y="-81" font-family="Helvetica,sans-Serif" font-size="10.00">=false, string existingText=&quot;&quot;,</text>
<text text-anchor="start" x="17" y="-70" font-family="Helvetica,sans-Serif" font-size="10.00"> bool password=false)</text>
<text text-anchor="start" x="4" y="-55" font-family="Helvetica,sans-Serif" font-size="10.00">+</text>
<text text-anchor="start" x="17" y="-55" font-family="Helvetica,sans-Serif" font-size="10.00">override string GetGamepad</text>
<text text-anchor="start" x="17" y="-44" font-family="Helvetica,sans-Serif" font-size="10.00">Text()</text>
<text text-anchor="start" x="6.5" y="-29" font-family="Helvetica,sans-Serif" font-size="10.00">&#45;</text>
<text text-anchor="start" x="17" y="-29" font-family="Helvetica,sans-Serif" font-size="10.00">void OnGamepadTextInputDismissed</text>
<text text-anchor="start" x="17" y="-18" font-family="Helvetica,sans-Serif" font-size="10.00">(GamepadTextInputDismissed</text>
<text text-anchor="start" x="17" y="-7" font-family="Helvetica,sans-Serif" font-size="10.00">_t result)</text>
<polygon fill="#666666" stroke="#666666" points="0,-232 0,-232 202,-232 202,-232 0,-232"/>
<polygon fill="#666666" stroke="#666666" points="0,-180 0,-180 15,-180 15,-180 0,-180"/>
<polygon fill="#666666" stroke="#666666" points="15,-180 15,-180 202,-180 202,-180 15,-180"/>
<polygon fill="none" stroke="#666666" points="0,0 0,-260 202,-260 202,0 0,0"/>
</a>
</g>
</g>
<!-- Node2 -->
<g id="Node000002" class="node">
<title>Node2</title>
<g id="a_Node000002"><a xlink:href="../../d9/dde/classTerraria_1_1Social_1_1Base_1_1OverlaySocialModule.html" target="_top" xlink:title=" ">
<polygon fill="white" stroke="transparent" points="193,-460 9,-460 9,-296 193,-296 193,-460"/>
<text text-anchor="start" x="46" y="-448" font-family="Helvetica,sans-Serif" font-size="10.00">Terraria::Social::Base</text>
<text text-anchor="start" x="46" y="-437" font-family="Helvetica,sans-Serif" font-size="10.00">::OverlaySocialModule</text>
<text text-anchor="start" x="99" y="-422" font-family="Helvetica,sans-Serif" font-size="10.00"> </text>
<text text-anchor="start" x="13" y="-407" font-family="Helvetica,sans-Serif" font-size="10.00">+</text>
<text text-anchor="start" x="26" y="-407" font-family="Helvetica,sans-Serif" font-size="10.00">void Initialize()</text>
<text text-anchor="start" x="13" y="-392" font-family="Helvetica,sans-Serif" font-size="10.00">+</text>
<text text-anchor="start" x="26" y="-392" font-family="Helvetica,sans-Serif" font-size="10.00">void Shutdown()</text>
<text text-anchor="start" x="13" y="-377" font-family="Helvetica,sans-Serif" font-size="10.00">+</text>
<text text-anchor="start" x="26" y="-377" font-family="Helvetica,sans-Serif" font-size="10.00">bool IsGamepadTextInputActive()</text>
<text text-anchor="start" x="13" y="-362" font-family="Helvetica,sans-Serif" font-size="10.00">+</text>
<text text-anchor="start" x="26" y="-362" font-family="Helvetica,sans-Serif" font-size="10.00">bool ShowGamepadTextInput</text>
<text text-anchor="start" x="26" y="-351" font-family="Helvetica,sans-Serif" font-size="10.00">(string description, uint</text>
<text text-anchor="start" x="26" y="-340" font-family="Helvetica,sans-Serif" font-size="10.00"> maxLength, bool multiLine</text>
<text text-anchor="start" x="26" y="-329" font-family="Helvetica,sans-Serif" font-size="10.00">=false, string existingText</text>
<text text-anchor="start" x="26" y="-318" font-family="Helvetica,sans-Serif" font-size="10.00">=&quot;&quot;, bool password=false)</text>
<text text-anchor="start" x="13" y="-303" font-family="Helvetica,sans-Serif" font-size="10.00">+</text>
<text text-anchor="start" x="26" y="-303" font-family="Helvetica,sans-Serif" font-size="10.00">string GetGamepadText()</text>
<polygon fill="#666666" stroke="#666666" points="9,-432 9,-432 193,-432 193,-432 9,-432"/>
<polygon fill="#666666" stroke="#666666" points="9,-417 9,-417 193,-417 193,-417 9,-417"/>
<polygon fill="none" stroke="#666666" points="9,-296 9,-460 193,-460 193,-296 9,-296"/>
</a>
</g>
</g>
<!-- Node2&#45;&gt;Node1 -->
<g id="edge1_Node000001_Node000002" class="edge">
<title>Node2&#45;&gt;Node1</title>
<g id="a_edge1_Node000001_Node000002"><a xlink:title=" ">
<path fill="none" stroke="#63b8ff" d="M101,-285.69C101,-277.33 101,-268.77 101,-260.16"/>
<polygon fill="none" stroke="#63b8ff" points="97.5,-285.77 101,-295.77 104.5,-285.77 97.5,-285.77"/>
</a>
</g>
</g>
<!-- Node3 -->
<g id="Node000003" class="node">
<title>Node3</title>
<g id="a_Node000003"><a xlink:href="../../d5/d3e/interfaceTerraria_1_1Social_1_1ISocialModule.html" target="_top" xlink:title=" ">
<polygon fill="white" stroke="transparent" points="151.5,-560 50.5,-560 50.5,-496 151.5,-496 151.5,-560"/>
<text text-anchor="start" x="67" y="-548" font-family="Helvetica,sans-Serif" font-size="10.00">ISocialModule</text>
<text text-anchor="start" x="99.5" y="-533" font-family="Helvetica,sans-Serif" font-size="10.00"> </text>
<text text-anchor="start" x="55" y="-518" font-family="Helvetica,sans-Serif" font-size="10.00">+</text>
<text text-anchor="start" x="68" y="-518" font-family="Helvetica,sans-Serif" font-size="10.00">void Initialize()</text>
<text text-anchor="start" x="55" y="-503" font-family="Helvetica,sans-Serif" font-size="10.00">+</text>
<text text-anchor="start" x="68" y="-503" font-family="Helvetica,sans-Serif" font-size="10.00">void Shutdown()</text>
<polygon fill="#666666" stroke="#666666" points="51,-543 51,-543 152,-543 152,-543 51,-543"/>
<polygon fill="#666666" stroke="#666666" points="51,-528 51,-528 152,-528 152,-528 51,-528"/>
<polygon fill="none" stroke="#666666" points="50.5,-496 50.5,-560 151.5,-560 151.5,-496 50.5,-496"/>
</a>
</g>
</g>
<!-- Node3&#45;&gt;Node2 -->
<g id="edge2_Node000002_Node000003" class="edge">
<title>Node3&#45;&gt;Node2</title>
<g id="a_edge2_Node000002_Node000003"><a xlink:title=" ">
<path fill="none" stroke="#63b8ff" d="M101,-485.83C101,-477.8 101,-469.12 101,-460.3"/>
<polygon fill="none" stroke="#63b8ff" points="97.5,-485.97 101,-495.97 104.5,-485.97 97.5,-485.97"/>
</a>
</g>
</g>
</g>
</svg>
