<?xml version="1.0" encoding="UTF-8" standalone="no"?>
<!DOCTYPE svg PUBLIC "-//W3C//DTD SVG 1.1//EN"
 "http://www.w3.org/Graphics/SVG/1.1/DTD/svg11.dtd">
<!-- Generated by graphviz version 2.43.0 (0)
 -->
<!-- Title: ReLogic.OS.Windows.STATaskInvoker.STATaskInvoker Pages: 1 -->
<svg width="366pt" height="86pt"
 viewBox="0.00 0.00 366.00 86.00" xmlns="http://www.w3.org/2000/svg" xmlns:xlink="http://www.w3.org/1999/xlink">
<g id="graph0" class="graph" transform="scale(1 1) rotate(0) translate(4 82)">
<title>ReLogic.OS.Windows.STATaskInvoker.STATaskInvoker</title>
<!-- Node1 -->
<g id="Node000001" class="node">
<title>Node1</title>
<g id="a_Node000001"><a xlink:title=" ">
<polygon fill="#999999" stroke="#666666" points="358,-54 197,-54 197,-24 358,-24 358,-54"/>
<text text-anchor="start" x="205" y="-42" font-family="Helvetica,sans-Serif" font-size="10.00">ReLogic.OS.Windows.STATask</text>
<text text-anchor="middle" x="277.5" y="-31" font-family="Helvetica,sans-Serif" font-size="10.00">Invoker.STATaskInvoker</text>
</a>
</g>
</g>
<!-- Node2 -->
<g id="Node000002" class="node">
<title>Node2</title>
<g id="a_Node000002"><a xlink:href="../../d4/dfc/classReLogic_1_1OS_1_1Windows_1_1STATaskInvoker_a44b863ca84f8e9a4e7e04918a33d4e6a.html#a44b863ca84f8e9a4e7e04918a33d4e6a" target="_top" xlink:title=" ">
<polygon fill="white" stroke="#666666" points="161,-78 0,-78 0,-48 161,-48 161,-78"/>
<text text-anchor="start" x="8" y="-66" font-family="Helvetica,sans-Serif" font-size="10.00">ReLogic.OS.Windows.STATask</text>
<text text-anchor="middle" x="80.5" y="-55" font-family="Helvetica,sans-Serif" font-size="10.00">Invoker.Invoke</text>
</a>
</g>
</g>
<!-- Node1&#45;&gt;Node2 -->
<g id="edge1_Node000001_Node000002" class="edge">
<title>Node1&#45;&gt;Node2</title>
<g id="a_edge1_Node000001_Node000002"><a xlink:title=" ">
<path fill="none" stroke="#63b8ff" d="M186.88,-50.03C178.3,-51.09 169.64,-52.15 161.16,-53.2"/>
<polygon fill="#63b8ff" stroke="#63b8ff" points="187.41,-53.49 196.9,-48.8 186.55,-46.54 187.41,-53.49"/>
</a>
</g>
</g>
<!-- Node3 -->
<g id="Node000003" class="node">
<title>Node3</title>
<g id="a_Node000003"><a xlink:href="../../d4/dfc/classReLogic_1_1OS_1_1Windows_1_1STATaskInvoker_ada36f205620d2b49e61ba026cddfc2bf.html#ada36f205620d2b49e61ba026cddfc2bf" target="_top" xlink:title=" ">
<polygon fill="white" stroke="#666666" points="161,-30 0,-30 0,0 161,0 161,-30"/>
<text text-anchor="start" x="8" y="-18" font-family="Helvetica,sans-Serif" font-size="10.00">ReLogic.OS.Windows.STATask</text>
<text text-anchor="middle" x="80.5" y="-7" font-family="Helvetica,sans-Serif" font-size="10.00">Invoker.Invoke&lt; T &gt;</text>
</a>
</g>
</g>
<!-- Node1&#45;&gt;Node3 -->
<g id="edge2_Node000001_Node000003" class="edge">
<title>Node1&#45;&gt;Node3</title>
<g id="a_edge2_Node000001_Node000003"><a xlink:title=" ">
<path fill="none" stroke="#63b8ff" d="M186.88,-27.97C178.3,-26.91 169.64,-25.85 161.16,-24.8"/>
<polygon fill="#63b8ff" stroke="#63b8ff" points="186.55,-31.46 196.9,-29.2 187.41,-24.51 186.55,-31.46"/>
</a>
</g>
</g>
</g>
</svg>
