<?xml version="1.0" encoding="UTF-8" standalone="no"?>
<!DOCTYPE svg PUBLIC "-//W3C//DTD SVG 1.1//EN"
 "http://www.w3.org/Graphics/SVG/1.1/DTD/svg11.dtd">
<!-- Generated by graphviz version 2.43.0 (0)
 -->
<!-- Title: Terraria.GameContent.LootSimulation.ISimulationConditionSetter Pages: 1 -->
<svg width="176pt" height="142pt"
 viewBox="0.00 0.00 176.00 142.00" xmlns="http://www.w3.org/2000/svg" xmlns:xlink="http://www.w3.org/1999/xlink">
<g id="graph0" class="graph" transform="scale(1 1) rotate(0) translate(4 138)">
<title>Terraria.GameContent.LootSimulation.ISimulationConditionSetter</title>
<!-- Node1 -->
<g id="Node000001" class="node">
<title>Node1</title>
<g id="a_Node000001"><a xlink:title=" ">
<polygon fill="#999999" stroke="transparent" points="168,-134 0,-134 0,0 168,0 168,-134"/>
<text text-anchor="start" x="5" y="-122" font-family="Helvetica,sans-Serif" font-size="10.00">Terraria.GameContent.Loot</text>
<text text-anchor="start" x="5" y="-111" font-family="Helvetica,sans-Serif" font-size="10.00">Simulation.ISimulationCondition</text>
<text text-anchor="start" x="69" y="-100" font-family="Helvetica,sans-Serif" font-size="10.00">Setter</text>
<text text-anchor="start" x="82" y="-85" font-family="Helvetica,sans-Serif" font-size="10.00"> </text>
<text text-anchor="start" x="5" y="-70" font-family="Helvetica,sans-Serif" font-size="10.00">+</text>
<text text-anchor="start" x="19" y="-70" font-family="Helvetica,sans-Serif" font-size="10.00">int GetTimesToRunMultiplier</text>
<text text-anchor="start" x="19" y="-59" font-family="Helvetica,sans-Serif" font-size="10.00">(SimulatorInfo info)</text>
<text text-anchor="start" x="5" y="-44" font-family="Helvetica,sans-Serif" font-size="10.00">+</text>
<text text-anchor="start" x="19" y="-44" font-family="Helvetica,sans-Serif" font-size="10.00">void Setup(SimulatorInfo</text>
<text text-anchor="start" x="19" y="-33" font-family="Helvetica,sans-Serif" font-size="10.00"> info)</text>
<text text-anchor="start" x="5" y="-18" font-family="Helvetica,sans-Serif" font-size="10.00">+</text>
<text text-anchor="start" x="19" y="-18" font-family="Helvetica,sans-Serif" font-size="10.00">void TearDown(SimulatorInfo</text>
<text text-anchor="start" x="19" y="-7" font-family="Helvetica,sans-Serif" font-size="10.00"> info)</text>
<polygon fill="#666666" stroke="#666666" points="0,-95 0,-95 168,-95 168,-95 0,-95"/>
<polygon fill="#666666" stroke="#666666" points="0,-80 0,-80 168,-80 168,-80 0,-80"/>
<polygon fill="none" stroke="#666666" points="0,0 0,-134 168,-134 168,0 0,0"/>
</a>
</g>
</g>
</g>
</svg>
