<?xml version="1.0" encoding="UTF-8" standalone="no"?>
<!DOCTYPE svg PUBLIC "-//W3C//DTD SVG 1.1//EN"
 "http://www.w3.org/Graphics/SVG/1.1/DTD/svg11.dtd">
<!-- Generated by graphviz version 2.43.0 (0)
 -->
<!-- Title: NativeMethods.CustomChromaLinkEffect.CustomChromaLinkEffect Pages: 1 -->
<svg width="405pt" height="39pt"
 viewBox="0.00 0.00 405.00 39.00" xmlns="http://www.w3.org/2000/svg" xmlns:xlink="http://www.w3.org/1999/xlink">
<g id="graph0" class="graph" transform="scale(1 1) rotate(0) translate(4 35)">
<title>NativeMethods.CustomChromaLinkEffect.CustomChromaLinkEffect</title>
<polygon fill="white" stroke="transparent" points="-4,4 -4,-35 401,-35 401,4 -4,4"/>
<!-- Node1 -->
<g id="node1" class="node">
<title>Node1</title>
<g id="a_node1"><a xlink:title=" ">
<polygon fill="#bfbfbf" stroke="black" points="206,-0.5 206,-30.5 397,-30.5 397,-0.5 206,-0.5"/>
<text text-anchor="start" x="214" y="-18.5" font-family="Helvetica,sans-Serif" font-size="10.00">NativeMethods.CustomChroma</text>
<text text-anchor="middle" x="301.5" y="-7.5" font-family="Helvetica,sans-Serif" font-size="10.00">LinkEffect.CustomChromaLinkEffect</text>
</a>
</g>
</g>
<!-- Node2 -->
<g id="node2" class="node">
<title>Node2</title>
<g id="a_node2"><a xlink:href="../../d6/d0e/structNativeMethods_1_1CustomChromaLinkEffect_a226ab4ecae8bdd22b533b1aeddb1dbfb.html#a226ab4ecae8bdd22b533b1aeddb1dbfb" target="_top" xlink:title=" ">
<polygon fill="white" stroke="black" points="0,-0.5 0,-30.5 170,-30.5 170,-0.5 0,-0.5"/>
<text text-anchor="start" x="8" y="-18.5" font-family="Helvetica,sans-Serif" font-size="10.00">NativeMethods.CustomChroma</text>
<text text-anchor="middle" x="85" y="-7.5" font-family="Helvetica,sans-Serif" font-size="10.00">LinkEffect.Create</text>
</a>
</g>
</g>
<!-- Node1&#45;&gt;Node2 -->
<g id="edge1" class="edge">
<title>Node1&#45;&gt;Node2</title>
<path fill="none" stroke="midnightblue" d="M195.72,-15.5C187.12,-15.5 178.5,-15.5 170.07,-15.5"/>
<polygon fill="midnightblue" stroke="midnightblue" points="195.79,-19 205.79,-15.5 195.79,-12 195.79,-19"/>
</g>
</g>
</svg>
