<?xml version="1.0" encoding="UTF-8" standalone="no"?>
<!DOCTYPE svg PUBLIC "-//W3C//DTD SVG 1.1//EN"
 "http://www.w3.org/Graphics/SVG/1.1/DTD/svg11.dtd">
<!-- Generated by graphviz version 2.43.0 (0)
 -->
<!-- Title: CreativeUI.ProvideItemSlotElement Pages: 1 -->
<svg width="769pt" height="39pt"
 viewBox="0.00 0.00 769.00 39.00" xmlns="http://www.w3.org/2000/svg" xmlns:xlink="http://www.w3.org/1999/xlink">
<g id="graph0" class="graph" transform="scale(1 1) rotate(0) translate(4 35)">
<title>CreativeUI.ProvideItemSlotElement</title>
<polygon fill="white" stroke="transparent" points="-4,4 -4,-35 765,-35 765,4 -4,4"/>
<!-- Node1 -->
<g id="node1" class="node">
<title>Node1</title>
<g id="a_node1"><a xlink:title=" ">
<polygon fill="#bfbfbf" stroke="black" points="612,-0.5 612,-30.5 761,-30.5 761,-0.5 612,-0.5"/>
<text text-anchor="start" x="620" y="-18.5" font-family="Helvetica,sans-Serif" font-size="10.00">CreativeUI.ProvideItemSlot</text>
<text text-anchor="middle" x="686.5" y="-7.5" font-family="Helvetica,sans-Serif" font-size="10.00">Element</text>
</a>
</g>
</g>
<!-- Node2 -->
<g id="node2" class="node">
<title>Node2</title>
<g id="a_node2"><a xlink:href="../../da/dfc/classUICreativeInfiniteItemsDisplay_a691167d827a4e396a78986fcb3d3be42.html#a691167d827a4e396a78986fcb3d3be42" target="_top" xlink:title=" ">
<polygon fill="white" stroke="black" points="408,-0.5 408,-30.5 576,-30.5 576,-0.5 408,-0.5"/>
<text text-anchor="start" x="416" y="-18.5" font-family="Helvetica,sans-Serif" font-size="10.00">UICreativeInfiniteItemsDisplay.</text>
<text text-anchor="middle" x="492" y="-7.5" font-family="Helvetica,sans-Serif" font-size="10.00">BuildSacrificeMenuContents</text>
</a>
</g>
</g>
<!-- Node1&#45;&gt;Node2 -->
<g id="edge1" class="edge">
<title>Node1&#45;&gt;Node2</title>
<path fill="none" stroke="midnightblue" d="M601.68,-15.5C593.22,-15.5 584.64,-15.5 576.2,-15.5"/>
<polygon fill="midnightblue" stroke="midnightblue" points="601.9,-19 611.9,-15.5 601.9,-12 601.9,-19"/>
</g>
<!-- Node3 -->
<g id="node3" class="node">
<title>Node3</title>
<g id="a_node3"><a xlink:href="../../da/dfc/classUICreativeInfiniteItemsDisplay_ac881a9ef2f83428c4517dff1c4be52c0.html#ac881a9ef2f83428c4517dff1c4be52c0" target="_top" xlink:title=" ">
<polygon fill="white" stroke="black" points="204,-0.5 204,-30.5 372,-30.5 372,-0.5 204,-0.5"/>
<text text-anchor="start" x="212" y="-18.5" font-family="Helvetica,sans-Serif" font-size="10.00">UICreativeInfiniteItemsDisplay.</text>
<text text-anchor="middle" x="288" y="-7.5" font-family="Helvetica,sans-Serif" font-size="10.00">BuildPage</text>
</a>
</g>
</g>
<!-- Node2&#45;&gt;Node3 -->
<g id="edge2" class="edge">
<title>Node2&#45;&gt;Node3</title>
<path fill="none" stroke="midnightblue" d="M397.89,-15.5C389.27,-15.5 380.56,-15.5 372.04,-15.5"/>
<polygon fill="midnightblue" stroke="midnightblue" points="397.96,-19 407.96,-15.5 397.96,-12 397.96,-19"/>
</g>
<!-- Node4 -->
<g id="node4" class="node">
<title>Node4</title>
<g id="a_node4"><a xlink:href="../../da/dfc/classUICreativeInfiniteItemsDisplay_a387fc60d0b0cff01e05fcc78566fbab7.html#a387fc60d0b0cff01e05fcc78566fbab7" target="_top" xlink:title=" ">
<polygon fill="white" stroke="black" points="0,-0.5 0,-30.5 168,-30.5 168,-0.5 0,-0.5"/>
<text text-anchor="start" x="8" y="-18.5" font-family="Helvetica,sans-Serif" font-size="10.00">UICreativeInfiniteItemsDisplay.</text>
<text text-anchor="middle" x="84" y="-7.5" font-family="Helvetica,sans-Serif" font-size="10.00">UICreativeInfiniteItemsDisplay</text>
</a>
</g>
</g>
<!-- Node3&#45;&gt;Node4 -->
<g id="edge3" class="edge">
<title>Node3&#45;&gt;Node4</title>
<path fill="none" stroke="midnightblue" d="M193.89,-15.5C185.27,-15.5 176.56,-15.5 168.04,-15.5"/>
<polygon fill="midnightblue" stroke="midnightblue" points="193.96,-19 203.96,-15.5 193.96,-12 193.96,-19"/>
</g>
</g>
</svg>
