<?xml version="1.0" encoding="UTF-8" standalone="no"?>
<!DOCTYPE svg PUBLIC "-//W3C//DTD SVG 1.1//EN"
 "http://www.w3.org/Graphics/SVG/1.1/DTD/svg11.dtd">
<!-- Generated by graphviz version 2.43.0 (0)
 -->
<!-- Title: Terraria.Dust.QuickDust Pages: 1 -->
<svg width="308pt" height="45pt"
 viewBox="0.00 0.00 308.00 45.00" xmlns="http://www.w3.org/2000/svg" xmlns:xlink="http://www.w3.org/1999/xlink">
<g id="graph0" class="graph" transform="scale(1 1) rotate(0) translate(4 41)">
<title>Terraria.Dust.QuickDust</title>
<!-- Node1 -->
<g id="Node000001" class="node">
<title>Node1</title>
<g id="a_Node000001"><a xlink:title=" ">
<polygon fill="#999999" stroke="#666666" points="132,-19 0,-19 0,0 132,0 132,-19"/>
<text text-anchor="middle" x="66" y="-7" font-family="Helvetica,sans-Serif" font-size="10.00">Terraria.Dust.QuickDust</text>
</a>
</g>
</g>
<!-- Node2 -->
<g id="Node000002" class="node">
<title>Node2</title>
<g id="a_Node000002"><a xlink:href="../../dc/de5/classTerraria_1_1Dust_afa5d4a4540bc17a4bd017d9bd66ab42a.html#afa5d4a4540bc17a4bd017d9bd66ab42a" target="_top" xlink:title=" ">
<polygon fill="white" stroke="#666666" points="300,-19 168,-19 168,0 300,0 300,-19"/>
<text text-anchor="middle" x="234" y="-7" font-family="Helvetica,sans-Serif" font-size="10.00">Terraria.Dust.QuickDust</text>
</a>
</g>
</g>
<!-- Node1&#45;&gt;Node2 -->
<g id="edge1_Node000001_Node000002" class="edge">
<title>Node1&#45;&gt;Node2</title>
<g id="a_edge1_Node000001_Node000002"><a xlink:title=" ">
<path fill="none" stroke="#63b8ff" d="M132.13,-9.5C140.46,-9.5 149.04,-9.5 157.52,-9.5"/>
<polygon fill="#63b8ff" stroke="#63b8ff" points="157.78,-13 167.78,-9.5 157.78,-6 157.78,-13"/>
</a>
</g>
</g>
<!-- Node2&#45;&gt;Node2 -->
<g id="edge2_Node000002_Node000002" class="edge">
<title>Node2&#45;&gt;Node2</title>
<g id="a_edge2_Node000002_Node000002"><a xlink:title=" ">
<path fill="none" stroke="#63b8ff" d="M208.11,-19.08C195.51,-27.73 204.14,-37 234,-37 254.06,-37 264.54,-32.82 265.44,-27.45"/>
<polygon fill="#63b8ff" stroke="#63b8ff" points="268.34,-25.49 259.89,-19.08 262.5,-29.35 268.34,-25.49"/>
</a>
</g>
</g>
</g>
</svg>
