<?xml version="1.0" encoding="UTF-8" standalone="no"?>
<!DOCTYPE svg PUBLIC "-//W3C//DTD SVG 1.1//EN"
 "http://www.w3.org/Graphics/SVG/1.1/DTD/svg11.dtd">
<!-- Generated by graphviz version 2.43.0 (0)
 -->
<!-- Title: UIWorldCreation.AssignRandomWorldName Pages: 1 -->
<!--zoomable 180 -->
<svg id="main" version="1.1" xmlns="http://www.w3.org/2000/svg" xmlns:xlink="http://www.w3.org/1999/xlink" xml:space="preserve" onload="init(evt)">
<style type="text/css"><![CDATA[
.edge:hover path { stroke: red; }
.edge:hover polygon { stroke: red; fill: red; }
]]></style>
<script type="text/javascript"><![CDATA[
var edges = document.getElementsByTagName('g');
if (edges && edges.length) {
  for (var i=0;i<edges.length;i++) {
    if (edges[i].id.substr(0,4)=='edge') {
      edges[i].setAttribute('class','edge');
    }
  }
}
]]></script>
        <defs>
                <circle id="rim" cx="0" cy="0" r="7"/>
                <circle id="rim2" cx="0" cy="0" r="3.5"/>
                <g id="zoomPlus">
                        <use xlink:href="#rim" fill="#404040">
                                <set attributeName="fill" to="#808080" begin="zoomplus.mouseover" end="zoomplus.mouseout"/>
                        </use>
                        <path d="M-4,0h8M0,-4v8" fill="none" stroke="white" stroke-width="1.5" pointer-events="none"/>
                </g>
                <g id="zoomMin">
                        <use xlink:href="#rim" fill="#404040">
                                <set attributeName="fill" to="#808080" begin="zoomminus.mouseover" end="zoomminus.mouseout"/>
                        </use>
                        <path d="M-4,0h8" fill="none" stroke="white" stroke-width="1.5" pointer-events="none"/>
                </g>
                <g id="dirArrow">
                        <path fill="none" stroke="white" stroke-width="1.5" d="M0,-3.0v7 M-2.5,-0.5L0,-3.0L2.5,-0.5"/>
                </g>
               <g id="resetDef">
                       <use xlink:href="#rim2" fill="#404040">
                               <set attributeName="fill" to="#808080" begin="reset.mouseover" end="reset.mouseout"/>
                       </use>
               </g>
        </defs>

<script type="text/javascript">
var viewWidth = 574;
var viewHeight = 180;
var sectionId = 'dynsection-0';
</script>
<script xlink:href="../../svgpan.js"/>
<svg id="graph" class="graph">
<g id="viewport">
<title>UIWorldCreation.AssignRandomWorldName</title>
<polygon fill="white" stroke="transparent" points="-4,4 -4,-176 570,-176 570,4 -4,4"/>
<!-- Node1 -->
<g id="node1" class="node">
<title>Node1</title>
<g id="a_node1"><a xlink:title=" ">
<polygon fill="#bfbfbf" stroke="black" points="0,-71 0,-101 172,-101 172,-71 0,-71"/>
<text text-anchor="start" x="8" y="-89" font-family="Helvetica,sans-Serif" font-size="10.00">UIWorldCreation.AssignRandom</text>
<text text-anchor="middle" x="86" y="-78" font-family="Helvetica,sans-Serif" font-size="10.00">WorldName</text>
</a>
</g>
</g>
<!-- Node2 -->
<g id="node2" class="node">
<title>Node2</title>
<g id="a_node2"><a xlink:href="../../da/d49/classLang_a191b0ff78330db4dd879322a6291f774.html#a191b0ff78330db4dd879322a6291f774" target="_top" xlink:title=" ">
<polygon fill="white" stroke="black" points="214,-152.5 214,-171.5 345,-171.5 345,-152.5 214,-152.5"/>
<text text-anchor="middle" x="279.5" y="-159.5" font-family="Helvetica,sans-Serif" font-size="10.00">Lang.CreateDialogFilter</text>
</a>
</g>
</g>
<!-- Node1&#45;&gt;Node2 -->
<g id="edge1" class="edge">
<title>Node1&#45;&gt;Node2</title>
<path fill="none" stroke="midnightblue" d="M115.24,-101.05C139.38,-113.49 175.3,-131 208,-143 214.48,-145.38 221.39,-147.6 228.25,-149.63"/>
<polygon fill="midnightblue" stroke="midnightblue" points="227.64,-153.1 238.22,-152.46 229.56,-146.36 227.64,-153.1"/>
</g>
<!-- Node4 -->
<g id="node4" class="node">
<title>Node4</title>
<g id="a_node4"><a xlink:href="../../d1/d68/classLocalizedText_a293e37e2678717137ac1e28a79365a96.html#a293e37e2678717137ac1e28a79365a96" target="_top" xlink:title=" ">
<polygon fill="white" stroke="black" points="208,-114.5 208,-133.5 351,-133.5 351,-114.5 208,-114.5"/>
<text text-anchor="middle" x="279.5" y="-121.5" font-family="Helvetica,sans-Serif" font-size="10.00">LocalizedText.FormatWith</text>
</a>
</g>
</g>
<!-- Node1&#45;&gt;Node4 -->
<g id="edge3" class="edge">
<title>Node1&#45;&gt;Node4</title>
<path fill="none" stroke="midnightblue" d="M162.69,-101.02C182,-104.85 202.46,-108.91 220.72,-112.54"/>
<polygon fill="midnightblue" stroke="midnightblue" points="220.13,-115.99 230.62,-114.5 221.49,-109.12 220.13,-115.99"/>
</g>
<!-- Node5 -->
<g id="node5" class="node">
<title>Node5</title>
<g id="a_node5"><a xlink:href="../../d0/d41/classLanguage_a9f392308c3f9927bacc3d83792b46408.html#a9f392308c3f9927bacc3d83792b46408" target="_top" xlink:title=" ">
<polygon fill="white" stroke="black" points="214,-76.5 214,-95.5 345,-95.5 345,-76.5 214,-76.5"/>
<text text-anchor="middle" x="279.5" y="-83.5" font-family="Helvetica,sans-Serif" font-size="10.00">Language.GetTextValue</text>
</a>
</g>
</g>
<!-- Node1&#45;&gt;Node5 -->
<g id="edge4" class="edge">
<title>Node1&#45;&gt;Node5</title>
<path fill="none" stroke="midnightblue" d="M172.11,-86C182.6,-86 193.26,-86 203.58,-86"/>
<polygon fill="midnightblue" stroke="midnightblue" points="203.77,-89.5 213.77,-86 203.77,-82.5 203.77,-89.5"/>
</g>
<!-- Node7 -->
<g id="node7" class="node">
<title>Node7</title>
<g id="a_node7"><a xlink:href="../../d6/d9a/classUnifiedRandom_a424f3e9455eb9b0a67085171d7d93d18.html#a424f3e9455eb9b0a67085171d7d93d18" target="_top" xlink:title=" ">
<polygon fill="white" stroke="black" points="220.5,-38.5 220.5,-57.5 338.5,-57.5 338.5,-38.5 220.5,-38.5"/>
<text text-anchor="middle" x="279.5" y="-45.5" font-family="Helvetica,sans-Serif" font-size="10.00">UnifiedRandom.Next</text>
</a>
</g>
</g>
<!-- Node1&#45;&gt;Node7 -->
<g id="edge6" class="edge">
<title>Node1&#45;&gt;Node7</title>
<path fill="none" stroke="midnightblue" d="M162.69,-70.98C182,-67.15 202.46,-63.09 220.72,-59.46"/>
<polygon fill="midnightblue" stroke="midnightblue" points="221.49,-62.88 230.62,-57.5 220.13,-56.01 221.49,-62.88"/>
</g>
<!-- Node9 -->
<g id="node9" class="node">
<title>Node9</title>
<g id="a_node9"><a xlink:href="../../d0/d41/classLanguage_a888a684fddaa7e720e28ea0e88d9595b.html#a888a684fddaa7e720e28ea0e88d9595b" target="_top" xlink:title=" ">
<polygon fill="white" stroke="black" points="211,-0.5 211,-19.5 348,-19.5 348,-0.5 211,-0.5"/>
<text text-anchor="middle" x="279.5" y="-7.5" font-family="Helvetica,sans-Serif" font-size="10.00">Language.SelectRandom</text>
</a>
</g>
</g>
<!-- Node1&#45;&gt;Node9 -->
<g id="edge8" class="edge">
<title>Node1&#45;&gt;Node9</title>
<path fill="none" stroke="midnightblue" d="M115.24,-70.95C139.38,-58.51 175.3,-41 208,-29 214.48,-26.62 221.39,-24.4 228.25,-22.37"/>
<polygon fill="midnightblue" stroke="midnightblue" points="229.56,-25.64 238.22,-19.54 227.64,-18.9 229.56,-25.64"/>
</g>
<!-- Node3 -->
<g id="node3" class="node">
<title>Node3</title>
<g id="a_node3"><a xlink:href="../../d1/d68/classLocalizedText_a8e6e63319e65296c1ea272d013b41905.html#a8e6e63319e65296c1ea272d013b41905" target="_top" xlink:title=" ">
<polygon fill="white" stroke="black" points="396,-152.5 396,-171.5 557,-171.5 557,-152.5 396,-152.5"/>
<text text-anchor="middle" x="476.5" y="-159.5" font-family="Helvetica,sans-Serif" font-size="10.00">LocalizedText.CanFormatWith</text>
</a>
</g>
</g>
<!-- Node2&#45;&gt;Node3 -->
<g id="edge2" class="edge">
<title>Node2&#45;&gt;Node3</title>
<path fill="none" stroke="midnightblue" d="M345.16,-162C358.06,-162 371.83,-162 385.4,-162"/>
<polygon fill="midnightblue" stroke="midnightblue" points="385.73,-165.5 395.73,-162 385.73,-158.5 385.73,-165.5"/>
</g>
<!-- Node6 -->
<g id="node6" class="node">
<title>Node6</title>
<g id="a_node6"><a xlink:href="../../d2/d9f/classLanguageManager_a2672f0189a3c4aa8b0344a0bcc60c582.html#a2672f0189a3c4aa8b0344a0bcc60c582" target="_top" xlink:title=" ">
<polygon fill="white" stroke="black" points="390,-76.5 390,-95.5 563,-95.5 563,-76.5 390,-76.5"/>
<text text-anchor="middle" x="476.5" y="-83.5" font-family="Helvetica,sans-Serif" font-size="10.00">LanguageManager.GetTextValue</text>
</a>
</g>
</g>
<!-- Node5&#45;&gt;Node6 -->
<g id="edge5" class="edge">
<title>Node5&#45;&gt;Node6</title>
<path fill="none" stroke="midnightblue" d="M345.16,-86C356.22,-86 367.92,-86 379.59,-86"/>
<polygon fill="midnightblue" stroke="midnightblue" points="379.82,-89.5 389.82,-86 379.82,-82.5 379.82,-89.5"/>
</g>
<!-- Node8 -->
<g id="node8" class="node">
<title>Node8</title>
<g id="a_node8"><a xlink:href="../../d6/d9a/classUnifiedRandom_a005be01cf2fb47d9f5d02f0d44ed5921.html#a005be01cf2fb47d9f5d02f0d44ed5921" target="_top" xlink:title=" ">
<polygon fill="white" stroke="black" points="392,-38.5 392,-57.5 561,-57.5 561,-38.5 392,-38.5"/>
<text text-anchor="middle" x="476.5" y="-45.5" font-family="Helvetica,sans-Serif" font-size="10.00">UnifiedRandom.InternalSample</text>
</a>
</g>
</g>
<!-- Node7&#45;&gt;Node8 -->
<g id="edge7" class="edge">
<title>Node7&#45;&gt;Node8</title>
<path fill="none" stroke="midnightblue" d="M338.74,-48C352.33,-48 367.14,-48 381.83,-48"/>
<polygon fill="midnightblue" stroke="midnightblue" points="381.96,-51.5 391.96,-48 381.96,-44.5 381.96,-51.5"/>
</g>
<!-- Node10 -->
<g id="node10" class="node">
<title>Node10</title>
<g id="a_node10"><a xlink:href="../../d2/d9f/classLanguageManager_ad6bebbc8ceee9c641596c0acb33cd7b0.html#ad6bebbc8ceee9c641596c0acb33cd7b0" target="_top" xlink:title=" ">
<polygon fill="white" stroke="black" points="387,-0.5 387,-19.5 566,-19.5 566,-0.5 387,-0.5"/>
<text text-anchor="middle" x="476.5" y="-7.5" font-family="Helvetica,sans-Serif" font-size="10.00">LanguageManager.SelectRandom</text>
</a>
</g>
</g>
<!-- Node9&#45;&gt;Node10 -->
<g id="edge9" class="edge">
<title>Node9&#45;&gt;Node10</title>
<path fill="none" stroke="midnightblue" d="M348.15,-10C357.38,-10 367,-10 376.64,-10"/>
<polygon fill="midnightblue" stroke="midnightblue" points="376.67,-13.5 386.67,-10 376.67,-6.5 376.67,-13.5"/>
</g>
</g>
</svg>
        <g id="navigator" transform="translate(0 0)" fill="#404254">
                <rect fill="#f2f5e9" fill-opacity="0.5" stroke="#606060" stroke-width=".5" x="0" y="0" width="60" height="60"/>
                <use id="zoomplus" xlink:href="#zoomPlus" x="17" y="9" onmousedown="handleZoom(evt,'in')"/>
                <use id="zoomminus" xlink:href="#zoomMin" x="42" y="9" onmousedown="handleZoom(evt,'out')"/>
                <use id="reset" xlink:href="#resetDef" x="30" y="36" onmousedown="handleReset()"/>
                <g id="arrowUp" xlink:href="#dirArrow" transform="translate(30 24)" onmousedown="handlePan(0,-1)">
                  <use xlink:href="#rim" fill="#404040">
                        <set attributeName="fill" to="#808080" begin="arrowUp.mouseover" end="arrowUp.mouseout"/>
                  </use>
                  <path fill="none" stroke="white" stroke-width="1.5" d="M0,-3.0v7 M-2.5,-0.5L0,-3.0L2.5,-0.5"/>
                </g>
                <g id="arrowRight" xlink:href="#dirArrow" transform="rotate(90) translate(36 -43)" onmousedown="handlePan(1,0)">
                  <use xlink:href="#rim" fill="#404040">
                        <set attributeName="fill" to="#808080" begin="arrowRight.mouseover" end="arrowRight.mouseout"/>
                  </use>
                  <path fill="none" stroke="white" stroke-width="1.5" d="M0,-3.0v7 M-2.5,-0.5L0,-3.0L2.5,-0.5"/>
                </g>
                <g id="arrowDown" xlink:href="#dirArrow" transform="rotate(180) translate(-30 -48)" onmousedown="handlePan(0,1)">
                  <use xlink:href="#rim" fill="#404040">
                        <set attributeName="fill" to="#808080" begin="arrowDown.mouseover" end="arrowDown.mouseout"/>
                  </use>
                  <path fill="none" stroke="white" stroke-width="1.5" d="M0,-3.0v7 M-2.5,-0.5L0,-3.0L2.5,-0.5"/>
                </g>
                <g id="arrowLeft" xlink:href="#dirArrow" transform="rotate(270) translate(-36 17)" onmousedown="handlePan(-1,0)">
                  <use xlink:href="#rim" fill="#404040">
                        <set attributeName="fill" to="#808080" begin="arrowLeft.mouseover" end="arrowLeft.mouseout"/>
                  </use>
                  <path fill="none" stroke="white" stroke-width="1.5" d="M0,-3.0v7 M-2.5,-0.5L0,-3.0L2.5,-0.5"/>
                </g>
        </g>
        <svg viewBox="0 0 15 15" width="100%" height="30px" preserveAspectRatio="xMaxYMin meet">
         <g id="arrow_out" transform="scale(0.3 0.3)">
          <a xlink:href="classUIWorldCreation_af6fb46a8bbae52dcdeda9704adc25794_af6fb46a8bbae52dcdeda9704adc25794_cgraph_org.svg" target="_base">
           <rect id="button" ry="5" rx="5" y="6" x="6" height="38" width="38"
                fill="#f2f5e9" fill-opacity="0.5" stroke="#606060" stroke-width="1.0"/>
           <path id="arrow"
             d="M 11.500037,31.436501 C 11.940474,20.09759 22.043105,11.32322 32.158766,21.979434 L 37.068811,17.246167 C 37.068811,17.246167 37.088388,32 37.088388,32 L 22.160133,31.978069 C 22.160133,31.978069 26.997745,27.140456 26.997745,27.140456 C 18.528582,18.264221 13.291696,25.230495 11.500037,31.436501 z"
             style="fill:#404040;"/>
          </a>
         </g>
        </svg>
</svg>
