<?xml version="1.0" encoding="UTF-8" standalone="no"?>
<!DOCTYPE svg PUBLIC "-//W3C//DTD SVG 1.1//EN"
 "http://www.w3.org/Graphics/SVG/1.1/DTD/svg11.dtd">
<!-- Generated by graphviz version 2.43.0 (0)
 -->
<!-- Title: EffectHandle.SetAsKeypadEffect Pages: 1 -->
<svg width="561pt" height="116pt"
 viewBox="0.00 0.00 561.00 115.50" xmlns="http://www.w3.org/2000/svg" xmlns:xlink="http://www.w3.org/1999/xlink">
<g id="graph0" class="graph" transform="scale(1 1) rotate(0) translate(4 111.5)">
<title>EffectHandle.SetAsKeypadEffect</title>
<polygon fill="white" stroke="transparent" points="-4,4 -4,-111.5 557,-111.5 557,4 -4,4"/>
<!-- Node1 -->
<g id="node1" class="node">
<title>Node1</title>
<g id="a_node1"><a xlink:title=" ">
<polygon fill="#bfbfbf" stroke="black" points="0,-33 0,-63 146,-63 146,-33 0,-33"/>
<text text-anchor="start" x="8" y="-51" font-family="Helvetica,sans-Serif" font-size="10.00">EffectHandle.SetAsKeypad</text>
<text text-anchor="middle" x="73" y="-40" font-family="Helvetica,sans-Serif" font-size="10.00">Effect</text>
</a>
</g>
</g>
<!-- Node2 -->
<g id="node2" class="node">
<title>Node2</title>
<g id="a_node2"><a xlink:href="../../d2/d0c/classNativeMethods_a696fdf9e4746c8f77a6982e55ea96cb4.html#a696fdf9e4746c8f77a6982e55ea96cb4" target="_top" xlink:title=" ">
<polygon fill="white" stroke="black" points="182,-77 182,-107 344,-107 344,-77 182,-77"/>
<text text-anchor="start" x="190" y="-95" font-family="Helvetica,sans-Serif" font-size="10.00">NativeMethods.CreateKeypad</text>
<text text-anchor="middle" x="263" y="-84" font-family="Helvetica,sans-Serif" font-size="10.00">Effect</text>
</a>
</g>
</g>
<!-- Node1&#45;&gt;Node2 -->
<g id="edge1" class="edge">
<title>Node1&#45;&gt;Node2</title>
<path fill="none" stroke="midnightblue" d="M138.17,-63.02C154.12,-66.75 171.34,-70.78 187.72,-74.62"/>
<polygon fill="midnightblue" stroke="midnightblue" points="187.26,-78.1 197.8,-76.97 188.86,-71.29 187.26,-78.1"/>
</g>
<!-- Node3 -->
<g id="node3" class="node">
<title>Node3</title>
<g id="a_node3"><a xlink:href="../../d6/d90/classEffectHandle_a756a53a32516b3b3ce169f8aff19ec53.html#a756a53a32516b3b3ce169f8aff19ec53" target="_top" xlink:title=" ">
<polygon fill="white" stroke="black" points="208,-38.5 208,-57.5 318,-57.5 318,-38.5 208,-38.5"/>
<text text-anchor="middle" x="263" y="-45.5" font-family="Helvetica,sans-Serif" font-size="10.00">EffectHandle.Reset</text>
</a>
</g>
</g>
<!-- Node1&#45;&gt;Node3 -->
<g id="edge2" class="edge">
<title>Node1&#45;&gt;Node3</title>
<path fill="none" stroke="midnightblue" d="M146.15,-48C163.13,-48 181.11,-48 197.72,-48"/>
<polygon fill="midnightblue" stroke="midnightblue" points="197.86,-51.5 207.86,-48 197.86,-44.5 197.86,-51.5"/>
</g>
<!-- Node5 -->
<g id="node5" class="node">
<title>Node5</title>
<g id="a_node5"><a xlink:href="../../d6/d90/classEffectHandle_afe98c3d865c496939df5ccf51827ad74.html#afe98c3d865c496939df5ccf51827ad74" target="_top" xlink:title=" ">
<polygon fill="white" stroke="black" points="380,-0.5 380,-19.5 553,-19.5 553,-0.5 380,-0.5"/>
<text text-anchor="middle" x="466.5" y="-7.5" font-family="Helvetica,sans-Serif" font-size="10.00">EffectHandle.ValidateNativeCall</text>
</a>
</g>
</g>
<!-- Node1&#45;&gt;Node5 -->
<g id="edge5" class="edge">
<title>Node1&#45;&gt;Node5</title>
<path fill="none" stroke="midnightblue" d="M146.17,-34.2C158.1,-32.24 170.38,-30.41 182,-29 244.35,-21.45 314.81,-16.71 369.89,-13.85"/>
<polygon fill="midnightblue" stroke="midnightblue" points="370.18,-17.34 379.99,-13.34 369.82,-10.35 370.18,-17.34"/>
</g>
<!-- Node4 -->
<g id="node4" class="node">
<title>Node4</title>
<g id="a_node4"><a xlink:href="../../d2/d0c/classNativeMethods_a3b4073a4cd036f5c628c950aa6c6b6a8.html#a3b4073a4cd036f5c628c950aa6c6b6a8" target="_top" xlink:title=" ">
<polygon fill="white" stroke="black" points="389.5,-38.5 389.5,-57.5 543.5,-57.5 543.5,-38.5 389.5,-38.5"/>
<text text-anchor="middle" x="466.5" y="-45.5" font-family="Helvetica,sans-Serif" font-size="10.00">NativeMethods.DeleteEffect</text>
</a>
</g>
</g>
<!-- Node3&#45;&gt;Node4 -->
<g id="edge3" class="edge">
<title>Node3&#45;&gt;Node4</title>
<path fill="none" stroke="midnightblue" d="M318.26,-48C337,-48 358.47,-48 379.13,-48"/>
<polygon fill="midnightblue" stroke="midnightblue" points="379.19,-51.5 389.19,-48 379.19,-44.5 379.19,-51.5"/>
</g>
<!-- Node3&#45;&gt;Node5 -->
<g id="edge4" class="edge">
<title>Node3&#45;&gt;Node5</title>
<path fill="none" stroke="midnightblue" d="M314.59,-38.46C342.01,-33.29 376.1,-26.86 404.93,-21.42"/>
<polygon fill="midnightblue" stroke="midnightblue" points="405.71,-24.84 414.89,-19.54 404.42,-17.96 405.71,-24.84"/>
</g>
</g>
</svg>
