<?xml version="1.0" encoding="UTF-8" standalone="no"?>
<!DOCTYPE svg PUBLIC "-//W3C//DTD SVG 1.1//EN"
 "http://www.w3.org/Graphics/SVG/1.1/DTD/svg11.dtd">
<!-- Generated by graphviz version 2.43.0 (0)
 -->
<!-- Title: TitleLinkButton.Draw Pages: 1 -->
<svg width="700pt" height="218pt"
 viewBox="0.00 0.00 700.00 218.00" xmlns="http://www.w3.org/2000/svg" xmlns:xlink="http://www.w3.org/1999/xlink">
<g id="graph0" class="graph" transform="scale(1 1) rotate(0) translate(4 214)">
<title>TitleLinkButton.Draw</title>
<polygon fill="white" stroke="transparent" points="-4,4 -4,-214 696,-214 696,4 -4,4"/>
<!-- Node1 -->
<g id="node1" class="node">
<title>Node1</title>
<g id="a_node1"><a xlink:title=" ">
<polygon fill="#bfbfbf" stroke="black" points="0,-76.5 0,-95.5 119,-95.5 119,-76.5 0,-76.5"/>
<text text-anchor="middle" x="59.5" y="-83.5" font-family="Helvetica,sans-Serif" font-size="10.00">TitleLinkButton.Draw</text>
</a>
</g>
</g>
<!-- Node2 -->
<g id="node2" class="node">
<title>Node2</title>
<g id="a_node2"><a xlink:href="../../dc/dcd/classTitleLinkButton_aa1887a7422092478511e1d132b625805.html#aa1887a7422092478511e1d132b625805" target="_top" xlink:title=" ">
<polygon fill="white" stroke="black" points="155,-114.5 155,-133.5 307,-133.5 307,-114.5 155,-114.5"/>
<text text-anchor="middle" x="231" y="-121.5" font-family="Helvetica,sans-Serif" font-size="10.00">TitleLinkButton.DrawTooltip</text>
</a>
</g>
</g>
<!-- Node1&#45;&gt;Node2 -->
<g id="edge1" class="edge">
<title>Node1&#45;&gt;Node2</title>
<path fill="none" stroke="midnightblue" d="M103.27,-95.59C125.84,-100.65 153.72,-106.9 177.58,-112.25"/>
<polygon fill="midnightblue" stroke="midnightblue" points="177.01,-115.71 187.54,-114.48 178.54,-108.88 177.01,-115.71"/>
</g>
<!-- Node8 -->
<g id="node8" class="node">
<title>Node8</title>
<g id="a_node8"><a xlink:href="../../dc/dcd/classTitleLinkButton_a50a7832a5a3af319c630c1bcf2fffe3b.html#a50a7832a5a3af319c630c1bcf2fffe3b" target="_top" xlink:title=" ">
<polygon fill="white" stroke="black" points="157.5,-38.5 157.5,-57.5 304.5,-57.5 304.5,-38.5 157.5,-38.5"/>
<text text-anchor="middle" x="231" y="-45.5" font-family="Helvetica,sans-Serif" font-size="10.00">TitleLinkButton.TryClicking</text>
</a>
</g>
</g>
<!-- Node1&#45;&gt;Node8 -->
<g id="edge7" class="edge">
<title>Node1&#45;&gt;Node8</title>
<path fill="none" stroke="midnightblue" d="M103.27,-76.41C125.84,-71.35 153.72,-65.1 177.58,-59.75"/>
<polygon fill="midnightblue" stroke="midnightblue" points="178.54,-63.12 187.54,-57.52 177.01,-56.29 178.54,-63.12"/>
</g>
<!-- Node3 -->
<g id="node3" class="node">
<title>Node3</title>
<g id="a_node3"><a xlink:href="../../d0/d41/classLanguage_a9f392308c3f9927bacc3d83792b46408.html#a9f392308c3f9927bacc3d83792b46408" target="_top" xlink:title=" ">
<polygon fill="white" stroke="black" points="347.5,-190.5 347.5,-209.5 478.5,-209.5 478.5,-190.5 347.5,-190.5"/>
<text text-anchor="middle" x="413" y="-197.5" font-family="Helvetica,sans-Serif" font-size="10.00">Language.GetTextValue</text>
</a>
</g>
</g>
<!-- Node2&#45;&gt;Node3 -->
<g id="edge2" class="edge">
<title>Node2&#45;&gt;Node3</title>
<path fill="none" stroke="midnightblue" d="M248.06,-133.59C269.22,-145.9 307.88,-167.31 343,-181 349,-183.34 355.4,-185.51 361.79,-187.48"/>
<polygon fill="midnightblue" stroke="midnightblue" points="361.19,-190.96 371.77,-190.42 363.17,-184.24 361.19,-190.96"/>
</g>
<!-- Node5 -->
<g id="node5" class="node">
<title>Node5</title>
<g id="a_node5"><a xlink:href="../../db/d4a/classMain_ac7053526b696695cc4ca5efc035fd83a.html#ac7053526b696695cc4ca5efc035fd83a" target="_top" xlink:title=" ">
<polygon fill="white" stroke="black" points="365,-152.5 365,-171.5 461,-171.5 461,-152.5 365,-152.5"/>
<text text-anchor="middle" x="413" y="-159.5" font-family="Helvetica,sans-Serif" font-size="10.00">Main.MouseText</text>
</a>
</g>
</g>
<!-- Node2&#45;&gt;Node5 -->
<g id="edge4" class="edge">
<title>Node2&#45;&gt;Node5</title>
<path fill="none" stroke="midnightblue" d="M277.42,-133.59C301.6,-138.69 331.53,-145.01 357.01,-150.39"/>
<polygon fill="midnightblue" stroke="midnightblue" points="356.4,-153.84 366.91,-152.48 357.84,-146.99 356.4,-153.84"/>
</g>
<!-- Node6 -->
<g id="node6" class="node">
<title>Node6</title>
<g id="a_node6"><a xlink:href="../../d0/dae/classItem_aa1903fbd65a9a12fd6bd7e217ec00ae4.html#aa1903fbd65a9a12fd6bd7e217ec00ae4" target="_top" xlink:title=" ">
<polygon fill="white" stroke="black" points="363.5,-114.5 363.5,-133.5 462.5,-133.5 462.5,-114.5 363.5,-114.5"/>
<text text-anchor="middle" x="413" y="-121.5" font-family="Helvetica,sans-Serif" font-size="10.00">Item.SetDefaults</text>
</a>
</g>
</g>
<!-- Node2&#45;&gt;Node6 -->
<g id="edge5" class="edge">
<title>Node2&#45;&gt;Node6</title>
<path fill="none" stroke="midnightblue" d="M307.03,-124C322.32,-124 338.21,-124 352.85,-124"/>
<polygon fill="midnightblue" stroke="midnightblue" points="353.27,-127.5 363.27,-124 353.27,-120.5 353.27,-127.5"/>
</g>
<!-- Node7 -->
<g id="node7" class="node">
<title>Node7</title>
<g id="a_node7"><a xlink:href="../../d0/dae/classItem_a678e9da8f2b078fbf0b90905b322dc81.html#a678e9da8f2b078fbf0b90905b322dc81" target="_top" xlink:title=" ">
<polygon fill="white" stroke="black" points="348.5,-76.5 348.5,-95.5 477.5,-95.5 477.5,-76.5 348.5,-76.5"/>
<text text-anchor="middle" x="413" y="-83.5" font-family="Helvetica,sans-Serif" font-size="10.00">Item.SetNameOverride</text>
</a>
</g>
</g>
<!-- Node2&#45;&gt;Node7 -->
<g id="edge6" class="edge">
<title>Node2&#45;&gt;Node7</title>
<path fill="none" stroke="midnightblue" d="M277.42,-114.41C301.6,-109.31 331.53,-102.99 357.01,-97.61"/>
<polygon fill="midnightblue" stroke="midnightblue" points="357.84,-101.01 366.91,-95.52 356.4,-94.16 357.84,-101.01"/>
</g>
<!-- Node4 -->
<g id="node4" class="node">
<title>Node4</title>
<g id="a_node4"><a xlink:href="../../d2/d9f/classLanguageManager_a2672f0189a3c4aa8b0344a0bcc60c582.html#a2672f0189a3c4aa8b0344a0bcc60c582" target="_top" xlink:title=" ">
<polygon fill="white" stroke="black" points="519,-190.5 519,-209.5 692,-209.5 692,-190.5 519,-190.5"/>
<text text-anchor="middle" x="605.5" y="-197.5" font-family="Helvetica,sans-Serif" font-size="10.00">LanguageManager.GetTextValue</text>
</a>
</g>
</g>
<!-- Node3&#45;&gt;Node4 -->
<g id="edge3" class="edge">
<title>Node3&#45;&gt;Node4</title>
<path fill="none" stroke="midnightblue" d="M478.76,-200C488.39,-200 498.48,-200 508.58,-200"/>
<polygon fill="midnightblue" stroke="midnightblue" points="508.67,-203.5 518.67,-200 508.67,-196.5 508.67,-203.5"/>
</g>
<!-- Node9 -->
<g id="node9" class="node">
<title>Node9</title>
<g id="a_node9"><a xlink:href="../../dc/dcd/classTitleLinkButton_ab678e171e1bf420954e607efbdb2fa2b.html#ab678e171e1bf420954e607efbdb2fa2b" target="_top" xlink:title=" ">
<polygon fill="white" stroke="black" points="343,-38.5 343,-57.5 483,-57.5 483,-38.5 343,-38.5"/>
<text text-anchor="middle" x="413" y="-45.5" font-family="Helvetica,sans-Serif" font-size="10.00">TitleLinkButton.OpenLink</text>
</a>
</g>
</g>
<!-- Node8&#45;&gt;Node9 -->
<g id="edge8" class="edge">
<title>Node8&#45;&gt;Node9</title>
<path fill="none" stroke="midnightblue" d="M304.69,-48C313.94,-48 323.43,-48 332.77,-48"/>
<polygon fill="midnightblue" stroke="midnightblue" points="332.83,-51.5 342.83,-48 332.83,-44.5 332.83,-51.5"/>
</g>
<!-- Node10 -->
<g id="node10" class="node">
<title>Node10</title>
<g id="a_node10"><a xlink:href="../../d7/d66/classSoundEngine_a6c31f285c7bb4711799ee29c96bb2806.html#a6c31f285c7bb4711799ee29c96bb2806" target="_top" xlink:title=" ">
<polygon fill="white" stroke="black" points="346,-0.5 346,-19.5 480,-19.5 480,-0.5 346,-0.5"/>
<text text-anchor="middle" x="413" y="-7.5" font-family="Helvetica,sans-Serif" font-size="10.00">SoundEngine.PlaySound</text>
</a>
</g>
</g>
<!-- Node8&#45;&gt;Node10 -->
<g id="edge9" class="edge">
<title>Node8&#45;&gt;Node10</title>
<path fill="none" stroke="midnightblue" d="M277.42,-38.41C301.6,-33.31 331.53,-26.99 357.01,-21.61"/>
<polygon fill="midnightblue" stroke="midnightblue" points="357.84,-25.01 366.91,-19.52 356.4,-18.16 357.84,-25.01"/>
</g>
</g>
</svg>
