<?xml version="1.0" encoding="UTF-8" standalone="no"?>
<!DOCTYPE svg PUBLIC "-//W3C//DTD SVG 1.1//EN"
 "http://www.w3.org/Graphics/SVG/1.1/DTD/svg11.dtd">
<!-- Generated by graphviz version 2.43.0 (0)
 -->
<!-- Title: Terraria.GameContent.Drawing.WindGrid Pages: 1 -->
<svg width="293pt" height="460pt"
 viewBox="0.00 0.00 293.00 460.00" xmlns="http://www.w3.org/2000/svg" xmlns:xlink="http://www.w3.org/1999/xlink">
<g id="graph0" class="graph" transform="scale(1 1) rotate(0) translate(4 456)">
<title>Terraria.GameContent.Drawing.WindGrid</title>
<!-- Node1 -->
<g id="Node000001" class="node">
<title>Node1</title>
<g id="a_Node000001"><a xlink:title=" ">
<polygon fill="#999999" stroke="transparent" points="174,-227 0,-227 0,0 174,0 174,-227"/>
<text text-anchor="start" x="10" y="-214.5" font-family="Helvetica,sans-Serif" font-size="10.00">Terraria.GameContent.Drawing.</text>
<text text-anchor="start" x="64" y="-203.5" font-family="Helvetica,sans-Serif" font-size="10.00">WindGrid</text>
<text text-anchor="start" x="85" y="-188.5" font-family="Helvetica,sans-Serif" font-size="10.00"> </text>
<text text-anchor="start" x="4" y="-173.5" font-family="Helvetica,sans-Serif" font-size="10.00">+</text>
<text text-anchor="start" x="17" y="-173.5" font-family="Helvetica,sans-Serif" font-size="10.00">void SetSize(int targetWidth,</text>
<text text-anchor="start" x="17" y="-162.5" font-family="Helvetica,sans-Serif" font-size="10.00"> int targetHeight)</text>
<text text-anchor="start" x="4" y="-147.5" font-family="Helvetica,sans-Serif" font-size="10.00">+</text>
<text text-anchor="start" x="17" y="-147.5" font-family="Helvetica,sans-Serif" font-size="10.00">void Update()</text>
<text text-anchor="start" x="4" y="-132.5" font-family="Helvetica,sans-Serif" font-size="10.00">+</text>
<text text-anchor="start" x="17" y="-132.5" font-family="Helvetica,sans-Serif" font-size="10.00">void GetWindTime(int</text>
<text text-anchor="start" x="17" y="-121.5" font-family="Helvetica,sans-Serif" font-size="10.00"> tileX, int tileY, int</text>
<text text-anchor="start" x="17" y="-110.5" font-family="Helvetica,sans-Serif" font-size="10.00"> timeThreshold, out int</text>
<text text-anchor="start" x="17" y="-99.5" font-family="Helvetica,sans-Serif" font-size="10.00"> windTimeLeft, out int direction</text>
<text text-anchor="start" x="17" y="-88.5" font-family="Helvetica,sans-Serif" font-size="10.00">X, out int directionY)</text>
<text text-anchor="start" x="6.5" y="-73.5" font-family="Helvetica,sans-Serif" font-size="10.00">&#45;</text>
<text text-anchor="start" x="17" y="-73.5" font-family="Helvetica,sans-Serif" font-size="10.00">void ResizeGrid()</text>
<text text-anchor="start" x="6.5" y="-58.5" font-family="Helvetica,sans-Serif" font-size="10.00">&#45;</text>
<text text-anchor="start" x="17" y="-58.5" font-family="Helvetica,sans-Serif" font-size="10.00">void SetWindTime(int</text>
<text text-anchor="start" x="17" y="-47.5" font-family="Helvetica,sans-Serif" font-size="10.00"> tileX, int tileY, int</text>
<text text-anchor="start" x="17" y="-36.5" font-family="Helvetica,sans-Serif" font-size="10.00"> directionX, int directionY)</text>
<text text-anchor="start" x="6.5" y="-21.5" font-family="Helvetica,sans-Serif" font-size="10.00">&#45;</text>
<text text-anchor="start" x="17" y="-21.5" font-family="Helvetica,sans-Serif" font-size="10.00">void ScanPlayers()</text>
<text text-anchor="start" x="6.5" y="-6.5" font-family="Helvetica,sans-Serif" font-size="10.00">&#45;</text>
<text text-anchor="start" x="17" y="-6.5" font-family="Helvetica,sans-Serif" font-size="10.00">void ScanPlayer(int i)</text>
<polygon fill="#666666" stroke="#666666" points="0,-198.5 0,-198.5 174,-198.5 174,-198.5 0,-198.5"/>
<polygon fill="#666666" stroke="#666666" points="0,-183.5 0,-183.5 174,-183.5 174,-183.5 0,-183.5"/>
<polygon fill="none" stroke="#666666" points="0,0 0,-227 174,-227 174,0 0,0"/>
</a>
</g>
</g>
<!-- Node2 -->
<g id="Node000002" class="node">
<title>Node2</title>
<g id="a_Node000002"><a xlink:href="../../d1/d3e/structTerraria_1_1GameContent_1_1Drawing_1_1WindGrid_1_1WindCoord.html" target="_top" xlink:title=" ">
<polygon fill="white" stroke="transparent" points="285,-334 121,-334 121,-274 285,-274 285,-334"/>
<text text-anchor="start" x="126" y="-322" font-family="Helvetica,sans-Serif" font-size="10.00">Terraria.GameContent.Drawing.</text>
<text text-anchor="start" x="152" y="-311" font-family="Helvetica,sans-Serif" font-size="10.00">WindGrid.WindCoord</text>
<text text-anchor="start" x="201" y="-296" font-family="Helvetica,sans-Serif" font-size="10.00"> </text>
<text text-anchor="start" x="201" y="-281" font-family="Helvetica,sans-Serif" font-size="10.00"> </text>
<polygon fill="#666666" stroke="#666666" points="121,-306 121,-306 285,-306 285,-306 121,-306"/>
<polygon fill="#666666" stroke="#666666" points="121,-291 121,-291 285,-291 285,-291 121,-291"/>
<polygon fill="none" stroke="#666666" points="121,-274 121,-334 285,-334 285,-274 121,-274"/>
</a>
</g>
</g>
<!-- Node2&#45;&gt;Node1 -->
<g id="edge1_Node000001_Node000002" class="edge">
<title>Node2&#45;&gt;Node1</title>
<g id="a_edge1_Node000001_Node000002"><a xlink:title=" ">
<path fill="none" stroke="#63b8ff" d="M185.13,-273.96C178.7,-263.51 170.97,-250.96 162.72,-237.55"/>
<polygon fill="none" stroke="#63b8ff" points="162.61,-237.37 156.06,-234.35 156.32,-227.15 162.87,-230.16 162.61,-237.37"/>
</a>
</g>
<text text-anchor="middle" x="186.5" y="-248" font-family="Helvetica,sans-Serif" font-size="10.00" fill="grey"> &#45;_grid</text>
</g>
<!-- Node3 -->
<g id="Node000003" class="node">
<title>Node3</title>
<g id="a_Node000003"><a xlink:href="../../d1/da0/classint.html" target="_top" xlink:title=" ">
<polygon fill="white" stroke="transparent" points="65.5,-452 42.5,-452 42.5,-403 65.5,-403 65.5,-452"/>
<text text-anchor="start" x="48" y="-439.5" font-family="Helvetica,sans-Serif" font-size="10.00">int</text>
<text text-anchor="start" x="52.5" y="-424.5" font-family="Helvetica,sans-Serif" font-size="10.00"> </text>
<text text-anchor="start" x="52.5" y="-409.5" font-family="Helvetica,sans-Serif" font-size="10.00"> </text>
<polygon fill="#666666" stroke="#666666" points="43,-434.5 43,-434.5 66,-434.5 66,-434.5 43,-434.5"/>
<polygon fill="#666666" stroke="#666666" points="43,-419.5 43,-419.5 66,-419.5 66,-419.5 43,-419.5"/>
<polygon fill="none" stroke="#666666" points="42.5,-403 42.5,-452 65.5,-452 65.5,-403 42.5,-403"/>
</a>
</g>
</g>
<!-- Node3&#45;&gt;Node1 -->
<g id="edge3_Node000001_Node000003" class="edge">
<title>Node3&#45;&gt;Node1</title>
<g id="a_edge3_Node000001_Node000003"><a xlink:title=" ">
<path fill="none" stroke="#63b8ff" d="M51.73,-402.96C50.04,-384.28 47.89,-357.5 47,-334 45.99,-307.35 43.73,-300.47 47,-274 48.42,-262.53 50.39,-250.69 52.7,-238.89"/>
<polygon fill="none" stroke="#63b8ff" points="52.7,-238.88 49.99,-232.2 55.12,-227.13 57.83,-233.81 52.7,-238.88"/>
</a>
</g>
<text text-anchor="middle" x="79.5" y="-312.5" font-family="Helvetica,sans-Serif" font-size="10.00" fill="grey"> &#45;_gameTime</text>
<text text-anchor="middle" x="79.5" y="-301.5" font-family="Helvetica,sans-Serif" font-size="10.00" fill="grey">&#45;_height</text>
<text text-anchor="middle" x="79.5" y="-290.5" font-family="Helvetica,sans-Serif" font-size="10.00" fill="grey">&#45;_width</text>
</g>
<!-- Node3&#45;&gt;Node2 -->
<g id="edge2_Node000002_Node000003" class="edge">
<title>Node3&#45;&gt;Node2</title>
<g id="a_edge2_Node000002_Node000003"><a xlink:title=" ">
<path fill="none" stroke="#63b8ff" d="M65.69,-416.97C85.28,-401 125.71,-368.03 157.65,-341.98"/>
<polygon fill="none" stroke="#63b8ff" points="157.96,-341.73 160.08,-334.84 167.26,-334.15 165.14,-341.04 157.96,-341.73"/>
</a>
</g>
<text text-anchor="middle" x="172.5" y="-377" font-family="Helvetica,sans-Serif" font-size="10.00" fill="grey"> +DirectionX</text>
<text text-anchor="middle" x="172.5" y="-366" font-family="Helvetica,sans-Serif" font-size="10.00" fill="grey">+DirectionY</text>
<text text-anchor="middle" x="172.5" y="-355" font-family="Helvetica,sans-Serif" font-size="10.00" fill="grey">+Time</text>
</g>
</g>
</svg>
