<?xml version="1.0" encoding="UTF-8" standalone="no"?>
<!DOCTYPE svg PUBLIC "-//W3C//DTD SVG 1.1//EN"
 "http://www.w3.org/Graphics/SVG/1.1/DTD/svg11.dtd">
<!-- Generated by graphviz version 2.43.0 (0)
 -->
<!-- Title: BallCollisionEvent Pages: 1 -->
<svg width="871pt" height="716pt"
 viewBox="0.00 0.00 870.94 716.00" xmlns="http://www.w3.org/2000/svg" xmlns:xlink="http://www.w3.org/1999/xlink">
<g id="graph0" class="graph" transform="scale(1 1) rotate(0) translate(4 712)">
<title>BallCollisionEvent</title>
<polygon fill="white" stroke="transparent" points="-4,4 -4,-712 866.94,-712 866.94,4 -4,4"/>
<!-- Node1 -->
<g id="node1" class="node">
<title>Node1</title>
<g id="a_node1"><a xlink:title=" ">
<polygon fill="#bfbfbf" stroke="black" points="251.44,-0.5 251.44,-90.5 412.44,-90.5 412.44,-0.5 251.44,-0.5"/>
<text text-anchor="middle" x="331.94" y="-78.5" font-family="Helvetica,sans-Serif" font-size="10.00">BallCollisionEvent</text>
<polyline fill="none" stroke="black" points="251.44,-71.5 412.44,-71.5 "/>
<text text-anchor="middle" x="331.94" y="-59.5" font-family="Helvetica,sans-Serif" font-size="10.00"> </text>
<polyline fill="none" stroke="black" points="251.44,-52.5 412.44,-52.5 "/>
<text text-anchor="start" x="259.44" y="-40.5" font-family="Helvetica,sans-Serif" font-size="10.00">+ BallCollisionEvent</text>
<text text-anchor="start" x="259.44" y="-29.5" font-family="Helvetica,sans-Serif" font-size="10.00">(float timeScale, Vector2</text>
<text text-anchor="start" x="259.44" y="-18.5" font-family="Helvetica,sans-Serif" font-size="10.00"> normal, Vector2 impactPoint,</text>
<text text-anchor="start" x="259.44" y="-7.5" font-family="Helvetica,sans-Serif" font-size="10.00"> Tile tile, Entity entity)</text>
</a>
</g>
</g>
<!-- Node2 -->
<g id="node2" class="node">
<title>Node2</title>
<g id="a_node2"><a xlink:href="../../da/d61/classEntity.html" target="_top" xlink:title=" ">
<polygon fill="white" stroke="black" points="155.44,-155 155.44,-476 326.44,-476 326.44,-155 155.44,-155"/>
<text text-anchor="middle" x="240.94" y="-464" font-family="Helvetica,sans-Serif" font-size="10.00">Entity</text>
<polyline fill="none" stroke="black" points="155.44,-457 326.44,-457 "/>
<text text-anchor="start" x="163.44" y="-445" font-family="Helvetica,sans-Serif" font-size="10.00">+ virtual Vector2 VisualPosition</text>
<text text-anchor="start" x="163.44" y="-434" font-family="Helvetica,sans-Serif" font-size="10.00">+ Vector2 Center</text>
<text text-anchor="start" x="163.44" y="-423" font-family="Helvetica,sans-Serif" font-size="10.00">+ Vector2 Left</text>
<text text-anchor="start" x="163.44" y="-412" font-family="Helvetica,sans-Serif" font-size="10.00">+ Vector2 Right</text>
<text text-anchor="start" x="163.44" y="-401" font-family="Helvetica,sans-Serif" font-size="10.00">+ Vector2 Top</text>
<text text-anchor="start" x="163.44" y="-390" font-family="Helvetica,sans-Serif" font-size="10.00">+ Vector2 TopLeft</text>
<text text-anchor="start" x="163.44" y="-379" font-family="Helvetica,sans-Serif" font-size="10.00">+ Vector2 TopRight</text>
<text text-anchor="start" x="163.44" y="-368" font-family="Helvetica,sans-Serif" font-size="10.00">+ Vector2 Bottom</text>
<text text-anchor="start" x="163.44" y="-357" font-family="Helvetica,sans-Serif" font-size="10.00">+ Vector2 BottomLeft</text>
<text text-anchor="start" x="163.44" y="-346" font-family="Helvetica,sans-Serif" font-size="10.00">+ Vector2 BottomRight</text>
<text text-anchor="start" x="163.44" y="-335" font-family="Helvetica,sans-Serif" font-size="10.00">+ Vector2 Size</text>
<text text-anchor="start" x="163.44" y="-324" font-family="Helvetica,sans-Serif" font-size="10.00">+ Rectangle Hitbox</text>
<polyline fill="none" stroke="black" points="155.44,-317 326.44,-317 "/>
<text text-anchor="start" x="163.44" y="-305" font-family="Helvetica,sans-Serif" font-size="10.00">+ float AngleTo(Vector2</text>
<text text-anchor="start" x="163.44" y="-294" font-family="Helvetica,sans-Serif" font-size="10.00"> Destination)</text>
<text text-anchor="start" x="163.44" y="-283" font-family="Helvetica,sans-Serif" font-size="10.00">+ float AngleFrom(Vector2</text>
<text text-anchor="start" x="163.44" y="-272" font-family="Helvetica,sans-Serif" font-size="10.00"> Source)</text>
<text text-anchor="start" x="163.44" y="-261" font-family="Helvetica,sans-Serif" font-size="10.00">+ float Distance(Vector2</text>
<text text-anchor="start" x="163.44" y="-250" font-family="Helvetica,sans-Serif" font-size="10.00"> Other)</text>
<text text-anchor="start" x="163.44" y="-239" font-family="Helvetica,sans-Serif" font-size="10.00">+ float DistanceSQ(Vector2</text>
<text text-anchor="start" x="163.44" y="-228" font-family="Helvetica,sans-Serif" font-size="10.00"> Other)</text>
<text text-anchor="start" x="163.44" y="-217" font-family="Helvetica,sans-Serif" font-size="10.00">+ Vector2 DirectionTo</text>
<text text-anchor="start" x="163.44" y="-206" font-family="Helvetica,sans-Serif" font-size="10.00">(Vector2 Destination)</text>
<text text-anchor="start" x="163.44" y="-195" font-family="Helvetica,sans-Serif" font-size="10.00">+ Vector2 DirectionFrom</text>
<text text-anchor="start" x="163.44" y="-184" font-family="Helvetica,sans-Serif" font-size="10.00">(Vector2 Source)</text>
<text text-anchor="start" x="163.44" y="-173" font-family="Helvetica,sans-Serif" font-size="10.00">+ bool WithinRange(Vector2</text>
<text text-anchor="start" x="163.44" y="-162" font-family="Helvetica,sans-Serif" font-size="10.00"> Target, float MaxRange)</text>
</a>
</g>
</g>
<!-- Node2&#45;&gt;Node1 -->
<g id="edge1" class="edge">
<title>Node2&#45;&gt;Node1</title>
<path fill="none" stroke="#404040" d="M278.19,-154.84C283.25,-139.15 288.83,-123.64 294.94,-109 295.97,-106.54 297.08,-104.06 298.25,-101.59"/>
<polygon fill="none" stroke="#404040" points="298.3,-101.49 297.44,-94.33 303.72,-90.79 304.58,-97.95 298.3,-101.49"/>
<text text-anchor="middle" x="314.94" y="-112" font-family="Helvetica,sans-Serif" font-size="10.00"> +Entity</text>
</g>
<!-- Node3 -->
<g id="node3" class="node">
<title>Node3</title>
<g id="a_node3"><a xlink:title=" ">
<polygon fill="white" stroke="#bfbfbf" points="494.94,-650.5 494.94,-707.5 532.94,-707.5 532.94,-650.5 494.94,-650.5"/>
<text text-anchor="middle" x="513.94" y="-695.5" font-family="Helvetica,sans-Serif" font-size="10.00">byte</text>
<polyline fill="none" stroke="#bfbfbf" points="494.94,-688.5 532.94,-688.5 "/>
<text text-anchor="middle" x="513.94" y="-676.5" font-family="Helvetica,sans-Serif" font-size="10.00"> </text>
<polyline fill="none" stroke="#bfbfbf" points="494.94,-669.5 532.94,-669.5 "/>
<text text-anchor="middle" x="513.94" y="-657.5" font-family="Helvetica,sans-Serif" font-size="10.00"> </text>
</a>
</g>
</g>
<!-- Node3&#45;&gt;Node2 -->
<g id="edge2" class="edge">
<title>Node3&#45;&gt;Node2</title>
<path fill="none" stroke="#404040" d="M494.52,-675.89C468.82,-672.01 424.09,-661.22 400.94,-632 367.14,-589.33 416.04,-553.44 381.94,-511 368.2,-493.88 352.38,-507.56 335.94,-493 333.11,-490.49 330.34,-487.86 327.64,-485.15"/>
<polygon fill="none" stroke="#404040" points="327.45,-484.95 320.43,-483.3 319.25,-476.19 326.27,-477.84 327.45,-484.95"/>
<text text-anchor="middle" x="429.94" y="-569" font-family="Helvetica,sans-Serif" font-size="10.00"> +wetCount</text>
</g>
<!-- Node9 -->
<g id="node9" class="node">
<title>Node9</title>
<g id="a_node9"><a xlink:href="../../d6/dba/classTile.html" target="_top" xlink:title=" ">
<polygon fill="white" stroke="black" points="531.44,-138.5 531.44,-492.5 718.44,-492.5 718.44,-138.5 531.44,-138.5"/>
<text text-anchor="middle" x="624.94" y="-480.5" font-family="Helvetica,sans-Serif" font-size="10.00">Tile</text>
<polyline fill="none" stroke="black" points="531.44,-473.5 718.44,-473.5 "/>
<text text-anchor="start" x="539.44" y="-461.5" font-family="Helvetica,sans-Serif" font-size="10.00">+ int collisionType</text>
<text text-anchor="start" x="539.44" y="-450.5" font-family="Helvetica,sans-Serif" font-size="10.00">&#45; const int Bit0</text>
<text text-anchor="start" x="539.44" y="-439.5" font-family="Helvetica,sans-Serif" font-size="10.00">&#45; const int Bit1</text>
<text text-anchor="start" x="539.44" y="-428.5" font-family="Helvetica,sans-Serif" font-size="10.00">&#45; const int Bit2</text>
<text text-anchor="start" x="539.44" y="-417.5" font-family="Helvetica,sans-Serif" font-size="10.00">&#45; const int Bit3</text>
<text text-anchor="start" x="539.44" y="-406.5" font-family="Helvetica,sans-Serif" font-size="10.00">&#45; const int Bit4</text>
<text text-anchor="start" x="539.44" y="-395.5" font-family="Helvetica,sans-Serif" font-size="10.00">&#45; const int Bit5</text>
<text text-anchor="start" x="539.44" y="-384.5" font-family="Helvetica,sans-Serif" font-size="10.00">&#45; const int Bit6</text>
<text text-anchor="start" x="539.44" y="-373.5" font-family="Helvetica,sans-Serif" font-size="10.00">&#45; const int Bit7</text>
<text text-anchor="start" x="539.44" y="-362.5" font-family="Helvetica,sans-Serif" font-size="10.00">&#45; const int NeitherLavaOrHoney</text>
<text text-anchor="start" x="539.44" y="-351.5" font-family="Helvetica,sans-Serif" font-size="10.00">&#45; const int EitherLavaOrHoney</text>
<polyline fill="none" stroke="black" points="531.44,-344.5 718.44,-344.5 "/>
<text text-anchor="start" x="539.44" y="-332.5" font-family="Helvetica,sans-Serif" font-size="10.00">+ Tile()</text>
<text text-anchor="start" x="539.44" y="-321.5" font-family="Helvetica,sans-Serif" font-size="10.00">+ Tile(Tile copy)</text>
<text text-anchor="start" x="539.44" y="-310.5" font-family="Helvetica,sans-Serif" font-size="10.00">+ object Clone()</text>
<text text-anchor="start" x="539.44" y="-299.5" font-family="Helvetica,sans-Serif" font-size="10.00">+ void ClearEverything()</text>
<text text-anchor="start" x="539.44" y="-288.5" font-family="Helvetica,sans-Serif" font-size="10.00">+ void ClearTile()</text>
<text text-anchor="start" x="539.44" y="-277.5" font-family="Helvetica,sans-Serif" font-size="10.00">+ void CopyFrom(Tile</text>
<text text-anchor="start" x="539.44" y="-266.5" font-family="Helvetica,sans-Serif" font-size="10.00"> from)</text>
<text text-anchor="start" x="539.44" y="-255.5" font-family="Helvetica,sans-Serif" font-size="10.00">+ bool isTheSameAs(Tile</text>
<text text-anchor="start" x="539.44" y="-244.5" font-family="Helvetica,sans-Serif" font-size="10.00"> compTile)</text>
<text text-anchor="start" x="539.44" y="-233.5" font-family="Helvetica,sans-Serif" font-size="10.00">+ int blockType()</text>
<text text-anchor="start" x="539.44" y="-222.5" font-family="Helvetica,sans-Serif" font-size="10.00">+ void liquidType(int</text>
<text text-anchor="start" x="539.44" y="-211.5" font-family="Helvetica,sans-Serif" font-size="10.00"> liquidType)</text>
<text text-anchor="start" x="539.44" y="-200.5" font-family="Helvetica,sans-Serif" font-size="10.00">+ byte liquidType()</text>
<text text-anchor="start" x="539.44" y="-189.5" font-family="Helvetica,sans-Serif" font-size="10.00">and 66 more...</text>
<text text-anchor="start" x="539.44" y="-178.5" font-family="Helvetica,sans-Serif" font-size="10.00">+ static void SmoothSlope</text>
<text text-anchor="start" x="539.44" y="-167.5" font-family="Helvetica,sans-Serif" font-size="10.00">(int x, int y, bool applyToNeighbors</text>
<text text-anchor="start" x="539.44" y="-156.5" font-family="Helvetica,sans-Serif" font-size="10.00">=true, bool sync=false)</text>
<text text-anchor="start" x="539.44" y="-145.5" font-family="Helvetica,sans-Serif" font-size="10.00">~ void ClearMetadata()</text>
</a>
</g>
</g>
<!-- Node3&#45;&gt;Node9 -->
<g id="edge12" class="edge">
<title>Node3&#45;&gt;Node9</title>
<path fill="none" stroke="#404040" d="M532.95,-673.99C553.97,-668.45 586.99,-656.27 602.94,-632 610.81,-620.04 615.92,-565.46 619.21,-504.97"/>
<polygon fill="none" stroke="#404040" points="619.22,-504.78 615.54,-498.58 619.85,-492.8 623.53,-499 619.22,-504.78"/>
<text text-anchor="middle" x="654.94" y="-585.5" font-family="Helvetica,sans-Serif" font-size="10.00"> +bTileHeader</text>
<text text-anchor="middle" x="654.94" y="-574.5" font-family="Helvetica,sans-Serif" font-size="10.00">+bTileHeader2</text>
<text text-anchor="middle" x="654.94" y="-563.5" font-family="Helvetica,sans-Serif" font-size="10.00">+bTileHeader3</text>
<text text-anchor="middle" x="654.94" y="-552.5" font-family="Helvetica,sans-Serif" font-size="10.00">+liquid</text>
</g>
<!-- Node4 -->
<g id="node4" class="node">
<title>Node4</title>
<g id="a_node4"><a xlink:title=" ">
<polygon fill="white" stroke="#bfbfbf" points="15.44,-650.5 15.44,-707.5 68.44,-707.5 68.44,-650.5 15.44,-650.5"/>
<text text-anchor="middle" x="41.94" y="-695.5" font-family="Helvetica,sans-Serif" font-size="10.00">Vector2</text>
<polyline fill="none" stroke="#bfbfbf" points="15.44,-688.5 68.44,-688.5 "/>
<text text-anchor="middle" x="41.94" y="-676.5" font-family="Helvetica,sans-Serif" font-size="10.00"> </text>
<polyline fill="none" stroke="#bfbfbf" points="15.44,-669.5 68.44,-669.5 "/>
<text text-anchor="middle" x="41.94" y="-657.5" font-family="Helvetica,sans-Serif" font-size="10.00"> </text>
</a>
</g>
</g>
<!-- Node4&#45;&gt;Node1 -->
<g id="edge8" class="edge">
<title>Node4&#45;&gt;Node1</title>
<path fill="none" stroke="#404040" d="M34.05,-650.5C11.1,-564.33 -46.46,-295.97 75.94,-138 114.74,-87.93 183.22,-65.21 239.59,-54.93"/>
<polygon fill="none" stroke="#404040" points="239.59,-54.93 244.83,-49.98 251.42,-52.91 246.17,-57.86 239.59,-54.93"/>
<text text-anchor="middle" x="110.94" y="-318.5" font-family="Helvetica,sans-Serif" font-size="10.00"> +ImpactPoint</text>
<text text-anchor="middle" x="110.94" y="-307.5" font-family="Helvetica,sans-Serif" font-size="10.00">+Normal</text>
</g>
<!-- Node4&#45;&gt;Node2 -->
<g id="edge3" class="edge">
<title>Node4&#45;&gt;Node2</title>
<path fill="none" stroke="#404040" d="M43.35,-650.21C46.17,-615.54 54.62,-555.43 79.94,-511 85.71,-500.89 91.06,-501.55 98.94,-493 115.21,-475.36 131.79,-456.1 147.61,-437"/>
<polygon fill="none" stroke="#404040" points="147.69,-436.91 148.41,-429.73 155.31,-427.64 154.59,-434.82 147.69,-436.91"/>
<text text-anchor="middle" x="112.94" y="-585.5" font-family="Helvetica,sans-Serif" font-size="10.00"> +oldPosition</text>
<text text-anchor="middle" x="112.94" y="-574.5" font-family="Helvetica,sans-Serif" font-size="10.00">+oldVelocity</text>
<text text-anchor="middle" x="112.94" y="-563.5" font-family="Helvetica,sans-Serif" font-size="10.00">+position</text>
<text text-anchor="middle" x="112.94" y="-552.5" font-family="Helvetica,sans-Serif" font-size="10.00">+velocity</text>
</g>
<!-- Node5 -->
<g id="node5" class="node">
<title>Node5</title>
<g id="a_node5"><a xlink:title=" ">
<polygon fill="white" stroke="#bfbfbf" points="372.44,-650.5 372.44,-707.5 401.44,-707.5 401.44,-650.5 372.44,-650.5"/>
<text text-anchor="middle" x="386.94" y="-695.5" font-family="Helvetica,sans-Serif" font-size="10.00">int</text>
<polyline fill="none" stroke="#bfbfbf" points="372.44,-688.5 401.44,-688.5 "/>
<text text-anchor="middle" x="386.94" y="-676.5" font-family="Helvetica,sans-Serif" font-size="10.00"> </text>
<polyline fill="none" stroke="#bfbfbf" points="372.44,-669.5 401.44,-669.5 "/>
<text text-anchor="middle" x="386.94" y="-657.5" font-family="Helvetica,sans-Serif" font-size="10.00"> </text>
</a>
</g>
</g>
<!-- Node5&#45;&gt;Node2 -->
<g id="edge4" class="edge">
<title>Node5&#45;&gt;Node2</title>
<path fill="none" stroke="#404040" d="M372.32,-672.92C355.45,-666.27 328.2,-652.92 313.94,-632 283.12,-586.76 302.88,-564.42 290.94,-511 289.25,-503.43 287.48,-495.71 285.65,-487.92"/>
<polygon fill="none" stroke="#404040" points="285.6,-487.72 280.33,-482.81 282.83,-476.05 288.11,-480.96 285.6,-487.72"/>
<text text-anchor="middle" x="347.94" y="-591" font-family="Helvetica,sans-Serif" font-size="10.00"> +direction</text>
<text text-anchor="middle" x="347.94" y="-580" font-family="Helvetica,sans-Serif" font-size="10.00">+height</text>
<text text-anchor="middle" x="347.94" y="-569" font-family="Helvetica,sans-Serif" font-size="10.00">+oldDirection</text>
<text text-anchor="middle" x="347.94" y="-558" font-family="Helvetica,sans-Serif" font-size="10.00">+whoAmI</text>
<text text-anchor="middle" x="347.94" y="-547" font-family="Helvetica,sans-Serif" font-size="10.00">+width</text>
</g>
<!-- Node5&#45;&gt;Node9 -->
<g id="edge13" class="edge">
<title>Node5&#45;&gt;Node9</title>
<path fill="none" stroke="#404040" d="M401.66,-673.4C419.27,-667.07 448.25,-653.9 462.94,-632 493.28,-586.8 461,-561.25 481.94,-511 492.84,-484.85 507.96,-458.95 524.3,-434.99"/>
<polygon fill="none" stroke="#404040" points="524.51,-434.69 524.65,-427.48 531.37,-424.85 531.22,-432.06 524.51,-434.69"/>
<text text-anchor="middle" x="540.44" y="-624" font-family="Helvetica,sans-Serif" font-size="10.00"> +Liquid_Honey</text>
<text text-anchor="middle" x="540.44" y="-613" font-family="Helvetica,sans-Serif" font-size="10.00">+Liquid_Lava</text>
<text text-anchor="middle" x="540.44" y="-602" font-family="Helvetica,sans-Serif" font-size="10.00">+Liquid_Shimmer</text>
<text text-anchor="middle" x="540.44" y="-591" font-family="Helvetica,sans-Serif" font-size="10.00">+Liquid_Water</text>
<text text-anchor="middle" x="540.44" y="-580" font-family="Helvetica,sans-Serif" font-size="10.00">+Type_Halfbrick</text>
<text text-anchor="middle" x="540.44" y="-569" font-family="Helvetica,sans-Serif" font-size="10.00">+Type_SlopeDownLeft</text>
<text text-anchor="middle" x="540.44" y="-558" font-family="Helvetica,sans-Serif" font-size="10.00">+Type_SlopeDownRight</text>
<text text-anchor="middle" x="540.44" y="-547" font-family="Helvetica,sans-Serif" font-size="10.00">+Type_SlopeUpLeft</text>
<text text-anchor="middle" x="540.44" y="-536" font-family="Helvetica,sans-Serif" font-size="10.00">+Type_SlopeUpRight</text>
<text text-anchor="middle" x="540.44" y="-525" font-family="Helvetica,sans-Serif" font-size="10.00">+Type_Solid</text>
<text text-anchor="middle" x="540.44" y="-514" font-family="Helvetica,sans-Serif" font-size="10.00">...</text>
</g>
<!-- Node6 -->
<g id="node6" class="node">
<title>Node6</title>
<g id="a_node6"><a xlink:title=" ">
<polygon fill="white" stroke="#bfbfbf" points="127.94,-650.5 127.94,-707.5 165.94,-707.5 165.94,-650.5 127.94,-650.5"/>
<text text-anchor="middle" x="146.94" y="-695.5" font-family="Helvetica,sans-Serif" font-size="10.00">bool</text>
<polyline fill="none" stroke="#bfbfbf" points="127.94,-688.5 165.94,-688.5 "/>
<text text-anchor="middle" x="146.94" y="-676.5" font-family="Helvetica,sans-Serif" font-size="10.00"> </text>
<polyline fill="none" stroke="#bfbfbf" points="127.94,-669.5 165.94,-669.5 "/>
<text text-anchor="middle" x="146.94" y="-657.5" font-family="Helvetica,sans-Serif" font-size="10.00"> </text>
</a>
</g>
</g>
<!-- Node6&#45;&gt;Node2 -->
<g id="edge5" class="edge">
<title>Node6&#45;&gt;Node2</title>
<path fill="none" stroke="#404040" d="M147.93,-650.43C149.62,-617.01 154.12,-559.18 165.94,-511 167.84,-503.27 169.97,-495.42 172.27,-487.55"/>
<polygon fill="none" stroke="#404040" points="172.29,-487.49 170.19,-480.59 175.76,-476 177.85,-482.9 172.29,-487.49"/>
<text text-anchor="middle" x="201.44" y="-591" font-family="Helvetica,sans-Serif" font-size="10.00"> +active</text>
<text text-anchor="middle" x="201.44" y="-580" font-family="Helvetica,sans-Serif" font-size="10.00">+honeyWet</text>
<text text-anchor="middle" x="201.44" y="-569" font-family="Helvetica,sans-Serif" font-size="10.00">+lavaWet</text>
<text text-anchor="middle" x="201.44" y="-558" font-family="Helvetica,sans-Serif" font-size="10.00">+shimmerWet</text>
<text text-anchor="middle" x="201.44" y="-547" font-family="Helvetica,sans-Serif" font-size="10.00">+wet</text>
</g>
<!-- Node7 -->
<g id="node7" class="node">
<title>Node7</title>
<g id="a_node7"><a xlink:title=" ">
<polygon fill="white" stroke="#bfbfbf" points="221.94,-650.5 221.94,-707.5 259.94,-707.5 259.94,-650.5 221.94,-650.5"/>
<text text-anchor="middle" x="240.94" y="-695.5" font-family="Helvetica,sans-Serif" font-size="10.00">long</text>
<polyline fill="none" stroke="#bfbfbf" points="221.94,-688.5 259.94,-688.5 "/>
<text text-anchor="middle" x="240.94" y="-676.5" font-family="Helvetica,sans-Serif" font-size="10.00"> </text>
<polyline fill="none" stroke="#bfbfbf" points="221.94,-669.5 259.94,-669.5 "/>
<text text-anchor="middle" x="240.94" y="-657.5" font-family="Helvetica,sans-Serif" font-size="10.00"> </text>
</a>
</g>
</g>
<!-- Node7&#45;&gt;Node2 -->
<g id="edge6" class="edge">
<title>Node7&#45;&gt;Node2</title>
<path fill="none" stroke="#404040" d="M240.94,-650.23C240.94,-614.9 240.94,-550.91 240.94,-488.35"/>
<polygon fill="none" stroke="#404040" points="240.94,-488.28 236.94,-482.28 240.94,-476.28 244.94,-482.28 240.94,-488.28"/>
<text text-anchor="middle" x="265.44" y="-569" font-family="Helvetica,sans-Serif" font-size="10.00"> ~entityId</text>
</g>
<!-- Node8 -->
<g id="node8" class="node">
<title>Node8</title>
<g id="a_node8"><a xlink:title=" ">
<polygon fill="white" stroke="#bfbfbf" points="344.94,-287 344.94,-344 382.94,-344 382.94,-287 344.94,-287"/>
<text text-anchor="middle" x="363.94" y="-332" font-family="Helvetica,sans-Serif" font-size="10.00">float</text>
<polyline fill="none" stroke="#bfbfbf" points="344.94,-325 382.94,-325 "/>
<text text-anchor="middle" x="363.94" y="-313" font-family="Helvetica,sans-Serif" font-size="10.00"> </text>
<polyline fill="none" stroke="#bfbfbf" points="344.94,-306 382.94,-306 "/>
<text text-anchor="middle" x="363.94" y="-294" font-family="Helvetica,sans-Serif" font-size="10.00"> </text>
</a>
</g>
</g>
<!-- Node8&#45;&gt;Node1 -->
<g id="edge7" class="edge">
<title>Node8&#45;&gt;Node1</title>
<path fill="none" stroke="#404040" d="M360.64,-286.83C355.48,-243.59 345.39,-159.14 338.66,-102.76"/>
<polygon fill="none" stroke="#404040" points="338.66,-102.75 333.98,-97.26 337.24,-90.83 341.92,-96.32 338.66,-102.75"/>
<text text-anchor="middle" x="371.44" y="-112" font-family="Helvetica,sans-Serif" font-size="10.00"> +TimeScale</text>
</g>
<!-- Node9&#45;&gt;Node1 -->
<g id="edge9" class="edge">
<title>Node9&#45;&gt;Node1</title>
<path fill="none" stroke="#404040" d="M531.42,-223.96C493.3,-187.68 448.49,-145.83 406.94,-109 403.16,-105.65 399.25,-102.23 395.28,-98.8"/>
<polygon fill="none" stroke="#404040" points="395.07,-98.63 387.91,-97.77 385.95,-90.83 393.11,-91.69 395.07,-98.63"/>
<text text-anchor="middle" x="433.94" y="-112" font-family="Helvetica,sans-Serif" font-size="10.00"> +Tile</text>
</g>
<!-- Node10 -->
<g id="node10" class="node">
<title>Node10</title>
<g id="a_node10"><a xlink:title=" ">
<polygon fill="white" stroke="#bfbfbf" points="794.44,-650.5 794.44,-707.5 835.44,-707.5 835.44,-650.5 794.44,-650.5"/>
<text text-anchor="middle" x="814.94" y="-695.5" font-family="Helvetica,sans-Serif" font-size="10.00">short</text>
<polyline fill="none" stroke="#bfbfbf" points="794.44,-688.5 835.44,-688.5 "/>
<text text-anchor="middle" x="814.94" y="-676.5" font-family="Helvetica,sans-Serif" font-size="10.00"> </text>
<polyline fill="none" stroke="#bfbfbf" points="794.44,-669.5 835.44,-669.5 "/>
<text text-anchor="middle" x="814.94" y="-657.5" font-family="Helvetica,sans-Serif" font-size="10.00"> </text>
</a>
</g>
</g>
<!-- Node10&#45;&gt;Node9 -->
<g id="edge10" class="edge">
<title>Node10&#45;&gt;Node9</title>
<path fill="none" stroke="#404040" d="M815.82,-650.39C815.87,-616.16 812.56,-556.77 791.94,-511 776.11,-475.85 751.87,-442.21 726.73,-413.1"/>
<polygon fill="none" stroke="#404040" points="726.48,-412.81 719.51,-410.95 718.54,-403.81 725.51,-405.66 726.48,-412.81"/>
<text text-anchor="middle" x="838.94" y="-574.5" font-family="Helvetica,sans-Serif" font-size="10.00"> +frameX</text>
<text text-anchor="middle" x="838.94" y="-563.5" font-family="Helvetica,sans-Serif" font-size="10.00">+frameY</text>
</g>
<!-- Node11 -->
<g id="node11" class="node">
<title>Node11</title>
<g id="a_node11"><a xlink:title=" ">
<polygon fill="white" stroke="#bfbfbf" points="698.44,-650.5 698.44,-707.5 745.44,-707.5 745.44,-650.5 698.44,-650.5"/>
<text text-anchor="middle" x="721.94" y="-695.5" font-family="Helvetica,sans-Serif" font-size="10.00">ushort</text>
<polyline fill="none" stroke="#bfbfbf" points="698.44,-688.5 745.44,-688.5 "/>
<text text-anchor="middle" x="721.94" y="-676.5" font-family="Helvetica,sans-Serif" font-size="10.00"> </text>
<polyline fill="none" stroke="#bfbfbf" points="698.44,-669.5 745.44,-669.5 "/>
<text text-anchor="middle" x="721.94" y="-657.5" font-family="Helvetica,sans-Serif" font-size="10.00"> </text>
</a>
</g>
</g>
<!-- Node11&#45;&gt;Node9 -->
<g id="edge11" class="edge">
<title>Node11&#45;&gt;Node9</title>
<path fill="none" stroke="#404040" d="M720.32,-650.43C717.89,-617.01 712.22,-559.17 699.94,-511 699.39,-508.83 698.82,-506.64 698.23,-504.45"/>
<polygon fill="none" stroke="#404040" points="698.17,-504.24 692.71,-499.54 694.95,-492.68 700.41,-497.39 698.17,-504.24"/>
<text text-anchor="middle" x="752.94" y="-585.5" font-family="Helvetica,sans-Serif" font-size="10.00"> +sTileHeader</text>
<text text-anchor="middle" x="752.94" y="-574.5" font-family="Helvetica,sans-Serif" font-size="10.00">+type</text>
<text text-anchor="middle" x="752.94" y="-563.5" font-family="Helvetica,sans-Serif" font-size="10.00">+wall</text>
<text text-anchor="middle" x="752.94" y="-552.5" font-family="Helvetica,sans-Serif" font-size="10.00">&#45;Bit15</text>
</g>
</g>
</svg>
