<?xml version="1.0" encoding="UTF-8" standalone="no"?>
<!DOCTYPE svg PUBLIC "-//W3C//DTD SVG 1.1//EN"
 "http://www.w3.org/Graphics/SVG/1.1/DTD/svg11.dtd">
<!-- Generated by graphviz version 2.43.0 (0)
 -->
<!-- Title: UIWorldLoad.OnActivate Pages: 1 -->
<svg width="1060pt" height="78pt"
 viewBox="0.00 0.00 1060.00 77.50" xmlns="http://www.w3.org/2000/svg" xmlns:xlink="http://www.w3.org/1999/xlink">
<g id="graph0" class="graph" transform="scale(1 1) rotate(0) translate(4 73.5)">
<title>UIWorldLoad.OnActivate</title>
<polygon fill="white" stroke="transparent" points="-4,4 -4,-73.5 1056,-73.5 1056,4 -4,4"/>
<!-- Node1 -->
<g id="node1" class="node">
<title>Node1</title>
<g id="a_node1"><a xlink:title=" ">
<polygon fill="#bfbfbf" stroke="black" points="0,-22.5 0,-41.5 135,-41.5 135,-22.5 0,-22.5"/>
<text text-anchor="middle" x="67.5" y="-29.5" font-family="Helvetica,sans-Serif" font-size="10.00">UIWorldLoad.OnActivate</text>
</a>
</g>
</g>
<!-- Node2 -->
<g id="node2" class="node">
<title>Node2</title>
<g id="a_node2"><a xlink:href="../../d8/d7b/classUILinkPointNavigator_a5cb711692920a97a68e086f3d20a23c6.html#a5cb711692920a97a68e086f3d20a23c6" target="_top" xlink:title=" ">
<polygon fill="white" stroke="black" points="171,-17 171,-47 330,-47 330,-17 171,-17"/>
<text text-anchor="start" x="179" y="-35" font-family="Helvetica,sans-Serif" font-size="10.00">UILinkPointNavigator.Change</text>
<text text-anchor="middle" x="250.5" y="-24" font-family="Helvetica,sans-Serif" font-size="10.00">Point</text>
</a>
</g>
</g>
<!-- Node1&#45;&gt;Node2 -->
<g id="edge1" class="edge">
<title>Node1&#45;&gt;Node2</title>
<path fill="none" stroke="midnightblue" d="M135.13,-32C143.46,-32 152.08,-32 160.68,-32"/>
<polygon fill="midnightblue" stroke="midnightblue" points="160.75,-35.5 170.75,-32 160.75,-28.5 160.75,-35.5"/>
</g>
<!-- Node3 -->
<g id="node3" class="node">
<title>Node3</title>
<g id="a_node3"><a xlink:href="../../d8/d7b/classUILinkPointNavigator_a27e5c9a3a1a251f02d291f861b4eb1e7.html#a27e5c9a3a1a251f02d291f861b4eb1e7" target="_top" xlink:title=" ">
<polygon fill="white" stroke="black" points="366,-17 366,-47 526,-47 526,-17 366,-17"/>
<text text-anchor="start" x="374" y="-35" font-family="Helvetica,sans-Serif" font-size="10.00">UILinkPointNavigator.Process</text>
<text text-anchor="middle" x="446" y="-24" font-family="Helvetica,sans-Serif" font-size="10.00">Changes</text>
</a>
</g>
</g>
<!-- Node2&#45;&gt;Node3 -->
<g id="edge2" class="edge">
<title>Node2&#45;&gt;Node3</title>
<path fill="none" stroke="midnightblue" d="M330.2,-32C338.54,-32 347.05,-32 355.49,-32"/>
<polygon fill="midnightblue" stroke="midnightblue" points="355.74,-35.5 365.74,-32 355.74,-28.5 355.74,-35.5"/>
</g>
<!-- Node4 -->
<g id="node4" class="node">
<title>Node4</title>
<g id="a_node4"><a xlink:href="../../d8/d7b/classUILinkPointNavigator_ab02ec6567f402857bffa2cebe175d515.html#ab02ec6567f402857bffa2cebe175d515" target="_top" xlink:title=" ">
<polygon fill="white" stroke="black" points="562,-39 562,-69 708,-69 708,-39 562,-39"/>
<text text-anchor="start" x="570" y="-57" font-family="Helvetica,sans-Serif" font-size="10.00">UILinkPointNavigator.GoTo</text>
<text text-anchor="middle" x="635" y="-46" font-family="Helvetica,sans-Serif" font-size="10.00">DefaultPage</text>
</a>
</g>
</g>
<!-- Node3&#45;&gt;Node4 -->
<g id="edge3" class="edge">
<title>Node3&#45;&gt;Node4</title>
<path fill="none" stroke="midnightblue" d="M526.03,-41.3C534.56,-42.3 543.25,-43.32 551.81,-44.33"/>
<polygon fill="midnightblue" stroke="midnightblue" points="551.45,-47.81 561.79,-45.5 552.26,-40.86 551.45,-47.81"/>
</g>
<!-- Node7 -->
<g id="node7" class="node">
<title>Node7</title>
<g id="a_node7"><a xlink:href="../../d9/d5c/classUILinkPage_a356f1c92876e5a9aa65c22bd2fdf891a.html#a356f1c92876e5a9aa65c22bd2fdf891a" target="_top" xlink:title=" ">
<polygon fill="white" stroke="black" points="583.5,-0.5 583.5,-19.5 686.5,-19.5 686.5,-0.5 583.5,-0.5"/>
<text text-anchor="middle" x="635" y="-7.5" font-family="Helvetica,sans-Serif" font-size="10.00">UILinkPage.Leave</text>
</a>
</g>
</g>
<!-- Node3&#45;&gt;Node7 -->
<g id="edge6" class="edge">
<title>Node3&#45;&gt;Node7</title>
<path fill="none" stroke="midnightblue" d="M526.03,-22.7C541.83,-20.84 558.18,-18.92 573.24,-17.15"/>
<polygon fill="midnightblue" stroke="midnightblue" points="573.92,-20.59 583.44,-15.95 573.1,-13.64 573.92,-20.59"/>
</g>
<!-- Node5 -->
<g id="node5" class="node">
<title>Node5</title>
<g id="a_node5"><a xlink:href="../../d1/dd1/structPlayerInteractionAnchor_a1eeaee558e0da419c0a069fd0dde8eca.html#a1eeaee558e0da419c0a069fd0dde8eca" target="_top" xlink:title=" ">
<polygon fill="white" stroke="black" points="744,-39 744,-69 880,-69 880,-39 744,-39"/>
<text text-anchor="start" x="752" y="-57" font-family="Helvetica,sans-Serif" font-size="10.00">PlayerInteractionAnchor.</text>
<text text-anchor="middle" x="812" y="-46" font-family="Helvetica,sans-Serif" font-size="10.00">GetTileEntity</text>
</a>
</g>
</g>
<!-- Node4&#45;&gt;Node5 -->
<g id="edge4" class="edge">
<title>Node4&#45;&gt;Node5</title>
<path fill="none" stroke="midnightblue" d="M708.19,-54C716.56,-54 725.12,-54 733.55,-54"/>
<polygon fill="midnightblue" stroke="midnightblue" points="733.75,-57.5 743.75,-54 733.75,-50.5 733.75,-57.5"/>
</g>
<!-- Node6 -->
<g id="node6" class="node">
<title>Node6</title>
<g id="a_node6"><a xlink:href="../../d1/dd1/structPlayerInteractionAnchor_a5fe451925a3d70309360d5cdab17fe8c.html#a5fe451925a3d70309360d5cdab17fe8c" target="_top" xlink:title=" ">
<polygon fill="white" stroke="black" points="916,-39 916,-69 1052,-69 1052,-39 916,-39"/>
<text text-anchor="start" x="924" y="-57" font-family="Helvetica,sans-Serif" font-size="10.00">PlayerInteractionAnchor.</text>
<text text-anchor="middle" x="984" y="-46" font-family="Helvetica,sans-Serif" font-size="10.00">IsInValidUseTileEntity</text>
</a>
</g>
</g>
<!-- Node5&#45;&gt;Node6 -->
<g id="edge5" class="edge">
<title>Node5&#45;&gt;Node6</title>
<path fill="none" stroke="midnightblue" d="M880.19,-54C888.5,-54 897.05,-54 905.51,-54"/>
<polygon fill="midnightblue" stroke="midnightblue" points="905.74,-57.5 915.74,-54 905.74,-50.5 905.74,-57.5"/>
</g>
</g>
</svg>
