<?xml version="1.0" encoding="UTF-8" standalone="no"?>
<!DOCTYPE svg PUBLIC "-//W3C//DTD SVG 1.1//EN"
 "http://www.w3.org/Graphics/SVG/1.1/DTD/svg11.dtd">
<!-- Generated by graphviz version 2.43.0 (0)
 -->
<!-- Title: DropOneByOne Pages: 1 -->
<svg width="463pt" height="595pt"
 viewBox="0.00 0.00 463.00 595.00" xmlns="http://www.w3.org/2000/svg" xmlns:xlink="http://www.w3.org/1999/xlink">
<g id="graph0" class="graph" transform="scale(1 1) rotate(0) translate(4 591)">
<title>DropOneByOne</title>
<polygon fill="white" stroke="transparent" points="-4,4 -4,-591 459,-591 459,4 -4,4"/>
<!-- Node1 -->
<g id="node1" class="node">
<title>Node1</title>
<g id="a_node1"><a xlink:title=" ">
<polygon fill="#bfbfbf" stroke="black" points="120,-0.5 120,-178.5 288,-178.5 288,-0.5 120,-0.5"/>
<text text-anchor="middle" x="204" y="-166.5" font-family="Helvetica,sans-Serif" font-size="10.00">DropOneByOne</text>
<polyline fill="none" stroke="black" points="120,-159.5 288,-159.5 "/>
<text text-anchor="start" x="128" y="-147.5" font-family="Helvetica,sans-Serif" font-size="10.00">+ List&lt; IItemDropRuleChain</text>
<text text-anchor="start" x="128" y="-136.5" font-family="Helvetica,sans-Serif" font-size="10.00">Attempt &gt; ChainedRules</text>
<polyline fill="none" stroke="black" points="120,-129.5 288,-129.5 "/>
<text text-anchor="start" x="128" y="-117.5" font-family="Helvetica,sans-Serif" font-size="10.00">+ DropOneByOne(int itemId,</text>
<text text-anchor="start" x="128" y="-106.5" font-family="Helvetica,sans-Serif" font-size="10.00"> Parameters parameters)</text>
<text text-anchor="start" x="128" y="-95.5" font-family="Helvetica,sans-Serif" font-size="10.00">+ ItemDropAttemptResult</text>
<text text-anchor="start" x="128" y="-84.5" font-family="Helvetica,sans-Serif" font-size="10.00"> TryDroppingItem(DropAttempt</text>
<text text-anchor="start" x="128" y="-73.5" font-family="Helvetica,sans-Serif" font-size="10.00">Info info)</text>
<text text-anchor="start" x="128" y="-62.5" font-family="Helvetica,sans-Serif" font-size="10.00">+ void ReportDroprates</text>
<text text-anchor="start" x="128" y="-51.5" font-family="Helvetica,sans-Serif" font-size="10.00">(List&lt; DropRateInfo &gt;</text>
<text text-anchor="start" x="128" y="-40.5" font-family="Helvetica,sans-Serif" font-size="10.00"> drops, DropRateInfoChainFeed</text>
<text text-anchor="start" x="128" y="-29.5" font-family="Helvetica,sans-Serif" font-size="10.00"> ratesInfo)</text>
<text text-anchor="start" x="128" y="-18.5" font-family="Helvetica,sans-Serif" font-size="10.00">+ bool CanDrop(DropAttempt</text>
<text text-anchor="start" x="128" y="-7.5" font-family="Helvetica,sans-Serif" font-size="10.00">Info info)</text>
</a>
</g>
</g>
<!-- Node2 -->
<g id="node2" class="node">
<title>Node2</title>
<g id="a_node2"><a xlink:href="../../d4/d4c/interfaceIItemDropRule.html" target="_top" xlink:title=" ">
<polygon fill="white" stroke="black" points="0,-226.5 0,-382.5 168,-382.5 168,-226.5 0,-226.5"/>
<text text-anchor="middle" x="84" y="-370.5" font-family="Helvetica,sans-Serif" font-size="10.00">IItemDropRule</text>
<polyline fill="none" stroke="black" points="0,-363.5 168,-363.5 "/>
<text text-anchor="start" x="8" y="-351.5" font-family="Helvetica,sans-Serif" font-size="10.00">+ List&lt; IItemDropRuleChain</text>
<text text-anchor="start" x="8" y="-340.5" font-family="Helvetica,sans-Serif" font-size="10.00">Attempt &gt; ChainedRules</text>
<polyline fill="none" stroke="black" points="0,-333.5 168,-333.5 "/>
<text text-anchor="start" x="8" y="-321.5" font-family="Helvetica,sans-Serif" font-size="10.00">+ bool CanDrop(DropAttempt</text>
<text text-anchor="start" x="8" y="-310.5" font-family="Helvetica,sans-Serif" font-size="10.00">Info info)</text>
<text text-anchor="start" x="8" y="-299.5" font-family="Helvetica,sans-Serif" font-size="10.00">+ void ReportDroprates</text>
<text text-anchor="start" x="8" y="-288.5" font-family="Helvetica,sans-Serif" font-size="10.00">(List&lt; DropRateInfo &gt;</text>
<text text-anchor="start" x="8" y="-277.5" font-family="Helvetica,sans-Serif" font-size="10.00"> drops, DropRateInfoChainFeed</text>
<text text-anchor="start" x="8" y="-266.5" font-family="Helvetica,sans-Serif" font-size="10.00"> ratesInfo)</text>
<text text-anchor="start" x="8" y="-255.5" font-family="Helvetica,sans-Serif" font-size="10.00">+ ItemDropAttemptResult</text>
<text text-anchor="start" x="8" y="-244.5" font-family="Helvetica,sans-Serif" font-size="10.00"> TryDroppingItem(DropAttempt</text>
<text text-anchor="start" x="8" y="-233.5" font-family="Helvetica,sans-Serif" font-size="10.00">Info info)</text>
</a>
</g>
</g>
<!-- Node2&#45;&gt;Node1 -->
<g id="edge1" class="edge">
<title>Node2&#45;&gt;Node1</title>
<path fill="none" stroke="midnightblue" d="M132.45,-217.51C139.66,-204.7 147.11,-191.49 154.35,-178.64"/>
<polygon fill="none" stroke="midnightblue" points="129.35,-215.87 127.49,-226.3 135.45,-219.31 129.35,-215.87"/>
</g>
<!-- Node3 -->
<g id="node3" class="node">
<title>Node3</title>
<g id="a_node3"><a xlink:title=" ">
<polygon fill="white" stroke="#bfbfbf" points="205.5,-529.5 205.5,-586.5 234.5,-586.5 234.5,-529.5 205.5,-529.5"/>
<text text-anchor="middle" x="220" y="-574.5" font-family="Helvetica,sans-Serif" font-size="10.00">int</text>
<polyline fill="none" stroke="#bfbfbf" points="205.5,-567.5 234.5,-567.5 "/>
<text text-anchor="middle" x="220" y="-555.5" font-family="Helvetica,sans-Serif" font-size="10.00"> </text>
<polyline fill="none" stroke="#bfbfbf" points="205.5,-548.5 234.5,-548.5 "/>
<text text-anchor="middle" x="220" y="-536.5" font-family="Helvetica,sans-Serif" font-size="10.00"> </text>
</a>
</g>
</g>
<!-- Node3&#45;&gt;Node1 -->
<g id="edge2" class="edge">
<title>Node3&#45;&gt;Node1</title>
<path fill="none" stroke="#404040" d="M218.8,-529.28C217.34,-494.94 214.83,-434.67 213,-383 210.73,-319.02 208.51,-247.16 206.85,-190.68"/>
<polygon fill="none" stroke="#404040" points="206.84,-190.5 202.67,-184.62 206.49,-178.5 210.67,-184.38 206.84,-190.5"/>
<text text-anchor="middle" x="234.5" y="-302" font-family="Helvetica,sans-Serif" font-size="10.00"> +itemId</text>
</g>
<!-- Node4 -->
<g id="node4" class="node">
<title>Node4</title>
<g id="a_node4"><a xlink:href="../../da/d67/structDropOneByOne_1_1Parameters.html" target="_top" xlink:title=" ">
<polygon fill="white" stroke="black" points="265.5,-276 265.5,-333 430.5,-333 430.5,-276 265.5,-276"/>
<text text-anchor="middle" x="348" y="-321" font-family="Helvetica,sans-Serif" font-size="10.00">DropOneByOne.Parameters</text>
<polyline fill="none" stroke="black" points="265.5,-314 430.5,-314 "/>
<text text-anchor="middle" x="348" y="-302" font-family="Helvetica,sans-Serif" font-size="10.00"> </text>
<polyline fill="none" stroke="black" points="265.5,-295 430.5,-295 "/>
<text text-anchor="start" x="273.5" y="-283" font-family="Helvetica,sans-Serif" font-size="10.00">+ float GetPersonalDropRate()</text>
</a>
</g>
</g>
<!-- Node3&#45;&gt;Node4 -->
<g id="edge4" class="edge">
<title>Node3&#45;&gt;Node4</title>
<path fill="none" stroke="#404040" d="M234.19,-529.12C257.12,-484.06 302.39,-395.11 328.39,-344.02"/>
<polygon fill="none" stroke="#404040" points="328.5,-343.81 327.66,-336.65 333.94,-333.12 334.79,-340.28 328.5,-343.81"/>
<text text-anchor="start" x="299" y="-503" font-family="Helvetica,sans-Serif" font-size="10.00"> +BonusMaxDropsPerChunkPer</text>
<text text-anchor="middle" x="377" y="-492" font-family="Helvetica,sans-Serif" font-size="10.00">Player</text>
<text text-anchor="start" x="299" y="-481" font-family="Helvetica,sans-Serif" font-size="10.00">+BonusMinDropsPerChunkPer</text>
<text text-anchor="middle" x="377" y="-470" font-family="Helvetica,sans-Serif" font-size="10.00">Player</text>
<text text-anchor="middle" x="377" y="-459" font-family="Helvetica,sans-Serif" font-size="10.00">+ChanceDenominator</text>
<text text-anchor="middle" x="377" y="-448" font-family="Helvetica,sans-Serif" font-size="10.00">+ChanceNumerator</text>
<text text-anchor="middle" x="377" y="-437" font-family="Helvetica,sans-Serif" font-size="10.00">+MaximumItemDropsCount</text>
<text text-anchor="middle" x="377" y="-426" font-family="Helvetica,sans-Serif" font-size="10.00">+MaximumStackPerChunkBase</text>
<text text-anchor="middle" x="377" y="-415" font-family="Helvetica,sans-Serif" font-size="10.00">+MinimumItemDropsCount</text>
<text text-anchor="middle" x="377" y="-404" font-family="Helvetica,sans-Serif" font-size="10.00">+MinimumStackPerChunkBase</text>
</g>
<!-- Node4&#45;&gt;Node1 -->
<g id="edge3" class="edge">
<title>Node4&#45;&gt;Node1</title>
<path fill="none" stroke="#404040" d="M329.17,-275.65C314.11,-253.37 292.03,-220.71 270.59,-188.99"/>
<polygon fill="none" stroke="#404040" points="270.38,-188.69 263.71,-185.96 263.66,-178.74 270.33,-181.48 270.38,-188.69"/>
<text text-anchor="middle" x="314" y="-200" font-family="Helvetica,sans-Serif" font-size="10.00"> +parameters</text>
</g>
</g>
</svg>
